G75*
%MOIN*%
%OFA0B0*%
%FSLAX25Y25*%
%IPPOS*%
%LPD*%
%AMOC8*
5,1,8,0,0,1.08239X$1,22.5*
%
%ADD10C,0.00500*%
%ADD11C,0.00400*%
%ADD12C,0.00600*%
%ADD13C,0.00200*%
%ADD14C,0.01600*%
%ADD15R,0.07500X0.03500*%
%ADD16R,0.05500X0.03000*%
%ADD17C,0.00800*%
%ADD18C,0.02400*%
%ADD19R,0.03400X0.02400*%
%ADD20R,0.03000X0.42000*%
%ADD21R,0.02000X0.07500*%
%ADD22R,0.02000X0.03000*%
%ADD23R,0.02400X0.03400*%
%ADD24C,0.01200*%
%ADD25R,0.10000X0.02500*%
%ADD26R,0.02500X0.10000*%
%ADD27C,0.00000*%
D10*
X0045500Y0045700D02*
X0045500Y0073500D01*
X0065500Y0073500D01*
X0065500Y0045700D01*
X0045500Y0045700D01*
X0202300Y0034800D02*
X0202302Y0034844D01*
X0202308Y0034888D01*
X0202318Y0034931D01*
X0202331Y0034973D01*
X0202348Y0035014D01*
X0202369Y0035053D01*
X0202393Y0035090D01*
X0202420Y0035125D01*
X0202450Y0035157D01*
X0202483Y0035187D01*
X0202519Y0035213D01*
X0202556Y0035237D01*
X0202596Y0035256D01*
X0202637Y0035273D01*
X0202680Y0035285D01*
X0202723Y0035294D01*
X0202767Y0035299D01*
X0202811Y0035300D01*
X0202855Y0035297D01*
X0202899Y0035290D01*
X0202942Y0035279D01*
X0202984Y0035265D01*
X0203024Y0035247D01*
X0203063Y0035225D01*
X0203099Y0035201D01*
X0203133Y0035173D01*
X0203165Y0035142D01*
X0203194Y0035108D01*
X0203220Y0035072D01*
X0203242Y0035034D01*
X0203261Y0034994D01*
X0203276Y0034952D01*
X0203288Y0034910D01*
X0203296Y0034866D01*
X0203300Y0034822D01*
X0203300Y0034778D01*
X0203296Y0034734D01*
X0203288Y0034690D01*
X0203276Y0034648D01*
X0203261Y0034606D01*
X0203242Y0034566D01*
X0203220Y0034528D01*
X0203194Y0034492D01*
X0203165Y0034458D01*
X0203133Y0034427D01*
X0203099Y0034399D01*
X0203063Y0034375D01*
X0203024Y0034353D01*
X0202984Y0034335D01*
X0202942Y0034321D01*
X0202899Y0034310D01*
X0202855Y0034303D01*
X0202811Y0034300D01*
X0202767Y0034301D01*
X0202723Y0034306D01*
X0202680Y0034315D01*
X0202637Y0034327D01*
X0202596Y0034344D01*
X0202556Y0034363D01*
X0202519Y0034387D01*
X0202483Y0034413D01*
X0202450Y0034443D01*
X0202420Y0034475D01*
X0202393Y0034510D01*
X0202369Y0034547D01*
X0202348Y0034586D01*
X0202331Y0034627D01*
X0202318Y0034669D01*
X0202308Y0034712D01*
X0202302Y0034756D01*
X0202300Y0034800D01*
X0226300Y0032800D02*
X0231800Y0032800D01*
X0234800Y0035800D01*
X0236593Y0215550D02*
X0235842Y0216301D01*
X0236593Y0215550D02*
X0238094Y0215550D01*
X0238845Y0216301D01*
X0238845Y0217051D01*
X0238094Y0217802D01*
X0237343Y0217802D01*
X0238094Y0217802D02*
X0238845Y0218553D01*
X0238845Y0219303D01*
X0238094Y0220054D01*
X0236593Y0220054D01*
X0235842Y0219303D01*
X0235449Y0225550D02*
X0232446Y0225550D01*
X0233947Y0225550D02*
X0233947Y0230054D01*
X0232446Y0228553D01*
X0252342Y0218553D02*
X0253843Y0220054D01*
X0253843Y0215550D01*
X0252342Y0215550D02*
X0255345Y0215550D01*
X0277946Y0215550D02*
X0280949Y0218553D01*
X0280949Y0219303D01*
X0280198Y0220054D01*
X0278697Y0220054D01*
X0277946Y0219303D01*
X0277946Y0215550D02*
X0280949Y0215550D01*
X0297446Y0226301D02*
X0298197Y0225550D01*
X0299698Y0225550D01*
X0300449Y0226301D01*
X0300449Y0227051D01*
X0299698Y0227802D01*
X0298947Y0227802D01*
X0299698Y0227802D02*
X0300449Y0228553D01*
X0300449Y0229303D01*
X0299698Y0230054D01*
X0298197Y0230054D01*
X0297446Y0229303D01*
X0263800Y0357800D02*
X0233800Y0357800D01*
X0233800Y0367800D01*
X0233940Y0367802D01*
X0234080Y0367808D01*
X0234220Y0367818D01*
X0234360Y0367831D01*
X0234499Y0367849D01*
X0234638Y0367871D01*
X0234775Y0367896D01*
X0234913Y0367925D01*
X0235049Y0367958D01*
X0235184Y0367995D01*
X0235318Y0368036D01*
X0235451Y0368081D01*
X0235583Y0368129D01*
X0235713Y0368181D01*
X0235842Y0368236D01*
X0235969Y0368295D01*
X0236095Y0368358D01*
X0236219Y0368424D01*
X0236340Y0368493D01*
X0236460Y0368566D01*
X0236578Y0368643D01*
X0236693Y0368722D01*
X0236807Y0368805D01*
X0236917Y0368891D01*
X0237026Y0368980D01*
X0237132Y0369072D01*
X0237235Y0369167D01*
X0237336Y0369264D01*
X0237433Y0369365D01*
X0237528Y0369468D01*
X0237620Y0369574D01*
X0237709Y0369683D01*
X0237795Y0369793D01*
X0237878Y0369907D01*
X0237957Y0370022D01*
X0238034Y0370140D01*
X0238107Y0370260D01*
X0238176Y0370381D01*
X0238242Y0370505D01*
X0238305Y0370631D01*
X0238364Y0370758D01*
X0238419Y0370887D01*
X0238471Y0371017D01*
X0238519Y0371149D01*
X0238564Y0371282D01*
X0238605Y0371416D01*
X0238642Y0371551D01*
X0238675Y0371687D01*
X0238704Y0371825D01*
X0238729Y0371962D01*
X0238751Y0372101D01*
X0238769Y0372240D01*
X0238782Y0372380D01*
X0238792Y0372520D01*
X0238798Y0372660D01*
X0238800Y0372800D01*
X0238798Y0372940D01*
X0238792Y0373080D01*
X0238782Y0373220D01*
X0238769Y0373360D01*
X0238751Y0373499D01*
X0238729Y0373638D01*
X0238704Y0373775D01*
X0238675Y0373913D01*
X0238642Y0374049D01*
X0238605Y0374184D01*
X0238564Y0374318D01*
X0238519Y0374451D01*
X0238471Y0374583D01*
X0238419Y0374713D01*
X0238364Y0374842D01*
X0238305Y0374969D01*
X0238242Y0375095D01*
X0238176Y0375219D01*
X0238107Y0375340D01*
X0238034Y0375460D01*
X0237957Y0375578D01*
X0237878Y0375693D01*
X0237795Y0375807D01*
X0237709Y0375917D01*
X0237620Y0376026D01*
X0237528Y0376132D01*
X0237433Y0376235D01*
X0237336Y0376336D01*
X0237235Y0376433D01*
X0237132Y0376528D01*
X0237026Y0376620D01*
X0236917Y0376709D01*
X0236807Y0376795D01*
X0236693Y0376878D01*
X0236578Y0376957D01*
X0236460Y0377034D01*
X0236340Y0377107D01*
X0236219Y0377176D01*
X0236095Y0377242D01*
X0235969Y0377305D01*
X0235842Y0377364D01*
X0235713Y0377419D01*
X0235583Y0377471D01*
X0235451Y0377519D01*
X0235318Y0377564D01*
X0235184Y0377605D01*
X0235049Y0377642D01*
X0234913Y0377675D01*
X0234775Y0377704D01*
X0234638Y0377729D01*
X0234499Y0377751D01*
X0234360Y0377769D01*
X0234220Y0377782D01*
X0234080Y0377792D01*
X0233940Y0377798D01*
X0233800Y0377800D01*
X0233800Y0387800D01*
X0263800Y0387800D01*
X0263800Y0357800D01*
X0186300Y0374800D02*
X0186300Y0404800D01*
X0156300Y0404800D01*
X0156300Y0394800D01*
X0156440Y0394798D01*
X0156580Y0394792D01*
X0156720Y0394782D01*
X0156860Y0394769D01*
X0156999Y0394751D01*
X0157138Y0394729D01*
X0157275Y0394704D01*
X0157413Y0394675D01*
X0157549Y0394642D01*
X0157684Y0394605D01*
X0157818Y0394564D01*
X0157951Y0394519D01*
X0158083Y0394471D01*
X0158213Y0394419D01*
X0158342Y0394364D01*
X0158469Y0394305D01*
X0158595Y0394242D01*
X0158719Y0394176D01*
X0158840Y0394107D01*
X0158960Y0394034D01*
X0159078Y0393957D01*
X0159193Y0393878D01*
X0159307Y0393795D01*
X0159417Y0393709D01*
X0159526Y0393620D01*
X0159632Y0393528D01*
X0159735Y0393433D01*
X0159836Y0393336D01*
X0159933Y0393235D01*
X0160028Y0393132D01*
X0160120Y0393026D01*
X0160209Y0392917D01*
X0160295Y0392807D01*
X0160378Y0392693D01*
X0160457Y0392578D01*
X0160534Y0392460D01*
X0160607Y0392340D01*
X0160676Y0392219D01*
X0160742Y0392095D01*
X0160805Y0391969D01*
X0160864Y0391842D01*
X0160919Y0391713D01*
X0160971Y0391583D01*
X0161019Y0391451D01*
X0161064Y0391318D01*
X0161105Y0391184D01*
X0161142Y0391049D01*
X0161175Y0390913D01*
X0161204Y0390775D01*
X0161229Y0390638D01*
X0161251Y0390499D01*
X0161269Y0390360D01*
X0161282Y0390220D01*
X0161292Y0390080D01*
X0161298Y0389940D01*
X0161300Y0389800D01*
X0161298Y0389660D01*
X0161292Y0389520D01*
X0161282Y0389380D01*
X0161269Y0389240D01*
X0161251Y0389101D01*
X0161229Y0388962D01*
X0161204Y0388825D01*
X0161175Y0388687D01*
X0161142Y0388551D01*
X0161105Y0388416D01*
X0161064Y0388282D01*
X0161019Y0388149D01*
X0160971Y0388017D01*
X0160919Y0387887D01*
X0160864Y0387758D01*
X0160805Y0387631D01*
X0160742Y0387505D01*
X0160676Y0387381D01*
X0160607Y0387260D01*
X0160534Y0387140D01*
X0160457Y0387022D01*
X0160378Y0386907D01*
X0160295Y0386793D01*
X0160209Y0386683D01*
X0160120Y0386574D01*
X0160028Y0386468D01*
X0159933Y0386365D01*
X0159836Y0386264D01*
X0159735Y0386167D01*
X0159632Y0386072D01*
X0159526Y0385980D01*
X0159417Y0385891D01*
X0159307Y0385805D01*
X0159193Y0385722D01*
X0159078Y0385643D01*
X0158960Y0385566D01*
X0158840Y0385493D01*
X0158719Y0385424D01*
X0158595Y0385358D01*
X0158469Y0385295D01*
X0158342Y0385236D01*
X0158213Y0385181D01*
X0158083Y0385129D01*
X0157951Y0385081D01*
X0157818Y0385036D01*
X0157684Y0384995D01*
X0157549Y0384958D01*
X0157413Y0384925D01*
X0157275Y0384896D01*
X0157138Y0384871D01*
X0156999Y0384849D01*
X0156860Y0384831D01*
X0156720Y0384818D01*
X0156580Y0384808D01*
X0156440Y0384802D01*
X0156300Y0384800D01*
X0156300Y0374800D01*
X0186300Y0374800D01*
X0150800Y0422300D02*
X0139300Y0421800D01*
X0148400Y0424100D02*
X0148402Y0424163D01*
X0148408Y0424225D01*
X0148418Y0424287D01*
X0148431Y0424349D01*
X0148449Y0424409D01*
X0148470Y0424468D01*
X0148495Y0424526D01*
X0148524Y0424582D01*
X0148556Y0424636D01*
X0148591Y0424688D01*
X0148629Y0424737D01*
X0148671Y0424785D01*
X0148715Y0424829D01*
X0148763Y0424871D01*
X0148812Y0424909D01*
X0148864Y0424944D01*
X0148918Y0424976D01*
X0148974Y0425005D01*
X0149032Y0425030D01*
X0149091Y0425051D01*
X0149151Y0425069D01*
X0149213Y0425082D01*
X0149275Y0425092D01*
X0149337Y0425098D01*
X0149400Y0425100D01*
X0149463Y0425098D01*
X0149525Y0425092D01*
X0149587Y0425082D01*
X0149649Y0425069D01*
X0149709Y0425051D01*
X0149768Y0425030D01*
X0149826Y0425005D01*
X0149882Y0424976D01*
X0149936Y0424944D01*
X0149988Y0424909D01*
X0150037Y0424871D01*
X0150085Y0424829D01*
X0150129Y0424785D01*
X0150171Y0424737D01*
X0150209Y0424688D01*
X0150244Y0424636D01*
X0150276Y0424582D01*
X0150305Y0424526D01*
X0150330Y0424468D01*
X0150351Y0424409D01*
X0150369Y0424349D01*
X0150382Y0424287D01*
X0150392Y0424225D01*
X0150398Y0424163D01*
X0150400Y0424100D01*
X0150398Y0424037D01*
X0150392Y0423975D01*
X0150382Y0423913D01*
X0150369Y0423851D01*
X0150351Y0423791D01*
X0150330Y0423732D01*
X0150305Y0423674D01*
X0150276Y0423618D01*
X0150244Y0423564D01*
X0150209Y0423512D01*
X0150171Y0423463D01*
X0150129Y0423415D01*
X0150085Y0423371D01*
X0150037Y0423329D01*
X0149988Y0423291D01*
X0149936Y0423256D01*
X0149882Y0423224D01*
X0149826Y0423195D01*
X0149768Y0423170D01*
X0149709Y0423149D01*
X0149649Y0423131D01*
X0149587Y0423118D01*
X0149525Y0423108D01*
X0149463Y0423102D01*
X0149400Y0423100D01*
X0149337Y0423102D01*
X0149275Y0423108D01*
X0149213Y0423118D01*
X0149151Y0423131D01*
X0149091Y0423149D01*
X0149032Y0423170D01*
X0148974Y0423195D01*
X0148918Y0423224D01*
X0148864Y0423256D01*
X0148812Y0423291D01*
X0148763Y0423329D01*
X0148715Y0423371D01*
X0148671Y0423415D01*
X0148629Y0423463D01*
X0148591Y0423512D01*
X0148556Y0423564D01*
X0148524Y0423618D01*
X0148495Y0423674D01*
X0148470Y0423732D01*
X0148449Y0423791D01*
X0148431Y0423851D01*
X0148418Y0423913D01*
X0148408Y0423975D01*
X0148402Y0424037D01*
X0148400Y0424100D01*
X0150800Y0422300D02*
X0151800Y0423300D01*
X0151800Y0460300D01*
X0150800Y0461300D01*
X0139300Y0461800D01*
X0059800Y0460300D02*
X0059800Y0423300D01*
X0058800Y0422300D01*
X0047300Y0421800D01*
X0056400Y0424100D02*
X0056402Y0424163D01*
X0056408Y0424225D01*
X0056418Y0424287D01*
X0056431Y0424349D01*
X0056449Y0424409D01*
X0056470Y0424468D01*
X0056495Y0424526D01*
X0056524Y0424582D01*
X0056556Y0424636D01*
X0056591Y0424688D01*
X0056629Y0424737D01*
X0056671Y0424785D01*
X0056715Y0424829D01*
X0056763Y0424871D01*
X0056812Y0424909D01*
X0056864Y0424944D01*
X0056918Y0424976D01*
X0056974Y0425005D01*
X0057032Y0425030D01*
X0057091Y0425051D01*
X0057151Y0425069D01*
X0057213Y0425082D01*
X0057275Y0425092D01*
X0057337Y0425098D01*
X0057400Y0425100D01*
X0057463Y0425098D01*
X0057525Y0425092D01*
X0057587Y0425082D01*
X0057649Y0425069D01*
X0057709Y0425051D01*
X0057768Y0425030D01*
X0057826Y0425005D01*
X0057882Y0424976D01*
X0057936Y0424944D01*
X0057988Y0424909D01*
X0058037Y0424871D01*
X0058085Y0424829D01*
X0058129Y0424785D01*
X0058171Y0424737D01*
X0058209Y0424688D01*
X0058244Y0424636D01*
X0058276Y0424582D01*
X0058305Y0424526D01*
X0058330Y0424468D01*
X0058351Y0424409D01*
X0058369Y0424349D01*
X0058382Y0424287D01*
X0058392Y0424225D01*
X0058398Y0424163D01*
X0058400Y0424100D01*
X0058398Y0424037D01*
X0058392Y0423975D01*
X0058382Y0423913D01*
X0058369Y0423851D01*
X0058351Y0423791D01*
X0058330Y0423732D01*
X0058305Y0423674D01*
X0058276Y0423618D01*
X0058244Y0423564D01*
X0058209Y0423512D01*
X0058171Y0423463D01*
X0058129Y0423415D01*
X0058085Y0423371D01*
X0058037Y0423329D01*
X0057988Y0423291D01*
X0057936Y0423256D01*
X0057882Y0423224D01*
X0057826Y0423195D01*
X0057768Y0423170D01*
X0057709Y0423149D01*
X0057649Y0423131D01*
X0057587Y0423118D01*
X0057525Y0423108D01*
X0057463Y0423102D01*
X0057400Y0423100D01*
X0057337Y0423102D01*
X0057275Y0423108D01*
X0057213Y0423118D01*
X0057151Y0423131D01*
X0057091Y0423149D01*
X0057032Y0423170D01*
X0056974Y0423195D01*
X0056918Y0423224D01*
X0056864Y0423256D01*
X0056812Y0423291D01*
X0056763Y0423329D01*
X0056715Y0423371D01*
X0056671Y0423415D01*
X0056629Y0423463D01*
X0056591Y0423512D01*
X0056556Y0423564D01*
X0056524Y0423618D01*
X0056495Y0423674D01*
X0056470Y0423732D01*
X0056449Y0423791D01*
X0056431Y0423851D01*
X0056418Y0423913D01*
X0056408Y0423975D01*
X0056402Y0424037D01*
X0056400Y0424100D01*
X0061300Y0404300D02*
X0061300Y0394300D01*
X0061440Y0394298D01*
X0061580Y0394292D01*
X0061720Y0394282D01*
X0061860Y0394269D01*
X0061999Y0394251D01*
X0062138Y0394229D01*
X0062275Y0394204D01*
X0062413Y0394175D01*
X0062549Y0394142D01*
X0062684Y0394105D01*
X0062818Y0394064D01*
X0062951Y0394019D01*
X0063083Y0393971D01*
X0063213Y0393919D01*
X0063342Y0393864D01*
X0063469Y0393805D01*
X0063595Y0393742D01*
X0063719Y0393676D01*
X0063840Y0393607D01*
X0063960Y0393534D01*
X0064078Y0393457D01*
X0064193Y0393378D01*
X0064307Y0393295D01*
X0064417Y0393209D01*
X0064526Y0393120D01*
X0064632Y0393028D01*
X0064735Y0392933D01*
X0064836Y0392836D01*
X0064933Y0392735D01*
X0065028Y0392632D01*
X0065120Y0392526D01*
X0065209Y0392417D01*
X0065295Y0392307D01*
X0065378Y0392193D01*
X0065457Y0392078D01*
X0065534Y0391960D01*
X0065607Y0391840D01*
X0065676Y0391719D01*
X0065742Y0391595D01*
X0065805Y0391469D01*
X0065864Y0391342D01*
X0065919Y0391213D01*
X0065971Y0391083D01*
X0066019Y0390951D01*
X0066064Y0390818D01*
X0066105Y0390684D01*
X0066142Y0390549D01*
X0066175Y0390413D01*
X0066204Y0390275D01*
X0066229Y0390138D01*
X0066251Y0389999D01*
X0066269Y0389860D01*
X0066282Y0389720D01*
X0066292Y0389580D01*
X0066298Y0389440D01*
X0066300Y0389300D01*
X0066298Y0389160D01*
X0066292Y0389020D01*
X0066282Y0388880D01*
X0066269Y0388740D01*
X0066251Y0388601D01*
X0066229Y0388462D01*
X0066204Y0388325D01*
X0066175Y0388187D01*
X0066142Y0388051D01*
X0066105Y0387916D01*
X0066064Y0387782D01*
X0066019Y0387649D01*
X0065971Y0387517D01*
X0065919Y0387387D01*
X0065864Y0387258D01*
X0065805Y0387131D01*
X0065742Y0387005D01*
X0065676Y0386881D01*
X0065607Y0386760D01*
X0065534Y0386640D01*
X0065457Y0386522D01*
X0065378Y0386407D01*
X0065295Y0386293D01*
X0065209Y0386183D01*
X0065120Y0386074D01*
X0065028Y0385968D01*
X0064933Y0385865D01*
X0064836Y0385764D01*
X0064735Y0385667D01*
X0064632Y0385572D01*
X0064526Y0385480D01*
X0064417Y0385391D01*
X0064307Y0385305D01*
X0064193Y0385222D01*
X0064078Y0385143D01*
X0063960Y0385066D01*
X0063840Y0384993D01*
X0063719Y0384924D01*
X0063595Y0384858D01*
X0063469Y0384795D01*
X0063342Y0384736D01*
X0063213Y0384681D01*
X0063083Y0384629D01*
X0062951Y0384581D01*
X0062818Y0384536D01*
X0062684Y0384495D01*
X0062549Y0384458D01*
X0062413Y0384425D01*
X0062275Y0384396D01*
X0062138Y0384371D01*
X0061999Y0384349D01*
X0061860Y0384331D01*
X0061720Y0384318D01*
X0061580Y0384308D01*
X0061440Y0384302D01*
X0061300Y0384300D01*
X0061300Y0374300D01*
X0091300Y0374300D01*
X0091300Y0404300D01*
X0061300Y0404300D01*
X0059800Y0460300D02*
X0058800Y0461300D01*
X0047300Y0461800D01*
X0259300Y0461300D02*
X0270800Y0460800D01*
X0271800Y0459800D01*
X0271800Y0422800D01*
X0270800Y0421800D01*
X0259300Y0421300D01*
X0268400Y0423600D02*
X0268402Y0423663D01*
X0268408Y0423725D01*
X0268418Y0423787D01*
X0268431Y0423849D01*
X0268449Y0423909D01*
X0268470Y0423968D01*
X0268495Y0424026D01*
X0268524Y0424082D01*
X0268556Y0424136D01*
X0268591Y0424188D01*
X0268629Y0424237D01*
X0268671Y0424285D01*
X0268715Y0424329D01*
X0268763Y0424371D01*
X0268812Y0424409D01*
X0268864Y0424444D01*
X0268918Y0424476D01*
X0268974Y0424505D01*
X0269032Y0424530D01*
X0269091Y0424551D01*
X0269151Y0424569D01*
X0269213Y0424582D01*
X0269275Y0424592D01*
X0269337Y0424598D01*
X0269400Y0424600D01*
X0269463Y0424598D01*
X0269525Y0424592D01*
X0269587Y0424582D01*
X0269649Y0424569D01*
X0269709Y0424551D01*
X0269768Y0424530D01*
X0269826Y0424505D01*
X0269882Y0424476D01*
X0269936Y0424444D01*
X0269988Y0424409D01*
X0270037Y0424371D01*
X0270085Y0424329D01*
X0270129Y0424285D01*
X0270171Y0424237D01*
X0270209Y0424188D01*
X0270244Y0424136D01*
X0270276Y0424082D01*
X0270305Y0424026D01*
X0270330Y0423968D01*
X0270351Y0423909D01*
X0270369Y0423849D01*
X0270382Y0423787D01*
X0270392Y0423725D01*
X0270398Y0423663D01*
X0270400Y0423600D01*
X0270398Y0423537D01*
X0270392Y0423475D01*
X0270382Y0423413D01*
X0270369Y0423351D01*
X0270351Y0423291D01*
X0270330Y0423232D01*
X0270305Y0423174D01*
X0270276Y0423118D01*
X0270244Y0423064D01*
X0270209Y0423012D01*
X0270171Y0422963D01*
X0270129Y0422915D01*
X0270085Y0422871D01*
X0270037Y0422829D01*
X0269988Y0422791D01*
X0269936Y0422756D01*
X0269882Y0422724D01*
X0269826Y0422695D01*
X0269768Y0422670D01*
X0269709Y0422649D01*
X0269649Y0422631D01*
X0269587Y0422618D01*
X0269525Y0422608D01*
X0269463Y0422602D01*
X0269400Y0422600D01*
X0269337Y0422602D01*
X0269275Y0422608D01*
X0269213Y0422618D01*
X0269151Y0422631D01*
X0269091Y0422649D01*
X0269032Y0422670D01*
X0268974Y0422695D01*
X0268918Y0422724D01*
X0268864Y0422756D01*
X0268812Y0422791D01*
X0268763Y0422829D01*
X0268715Y0422871D01*
X0268671Y0422915D01*
X0268629Y0422963D01*
X0268591Y0423012D01*
X0268556Y0423064D01*
X0268524Y0423118D01*
X0268495Y0423174D01*
X0268470Y0423232D01*
X0268449Y0423291D01*
X0268431Y0423351D01*
X0268418Y0423413D01*
X0268408Y0423475D01*
X0268402Y0423537D01*
X0268400Y0423600D01*
X0306800Y0438800D02*
X0316800Y0438800D01*
X0316802Y0438940D01*
X0316808Y0439080D01*
X0316818Y0439220D01*
X0316831Y0439360D01*
X0316849Y0439499D01*
X0316871Y0439638D01*
X0316896Y0439775D01*
X0316925Y0439913D01*
X0316958Y0440049D01*
X0316995Y0440184D01*
X0317036Y0440318D01*
X0317081Y0440451D01*
X0317129Y0440583D01*
X0317181Y0440713D01*
X0317236Y0440842D01*
X0317295Y0440969D01*
X0317358Y0441095D01*
X0317424Y0441219D01*
X0317493Y0441340D01*
X0317566Y0441460D01*
X0317643Y0441578D01*
X0317722Y0441693D01*
X0317805Y0441807D01*
X0317891Y0441917D01*
X0317980Y0442026D01*
X0318072Y0442132D01*
X0318167Y0442235D01*
X0318264Y0442336D01*
X0318365Y0442433D01*
X0318468Y0442528D01*
X0318574Y0442620D01*
X0318683Y0442709D01*
X0318793Y0442795D01*
X0318907Y0442878D01*
X0319022Y0442957D01*
X0319140Y0443034D01*
X0319260Y0443107D01*
X0319381Y0443176D01*
X0319505Y0443242D01*
X0319631Y0443305D01*
X0319758Y0443364D01*
X0319887Y0443419D01*
X0320017Y0443471D01*
X0320149Y0443519D01*
X0320282Y0443564D01*
X0320416Y0443605D01*
X0320551Y0443642D01*
X0320687Y0443675D01*
X0320825Y0443704D01*
X0320962Y0443729D01*
X0321101Y0443751D01*
X0321240Y0443769D01*
X0321380Y0443782D01*
X0321520Y0443792D01*
X0321660Y0443798D01*
X0321800Y0443800D01*
X0321940Y0443798D01*
X0322080Y0443792D01*
X0322220Y0443782D01*
X0322360Y0443769D01*
X0322499Y0443751D01*
X0322638Y0443729D01*
X0322775Y0443704D01*
X0322913Y0443675D01*
X0323049Y0443642D01*
X0323184Y0443605D01*
X0323318Y0443564D01*
X0323451Y0443519D01*
X0323583Y0443471D01*
X0323713Y0443419D01*
X0323842Y0443364D01*
X0323969Y0443305D01*
X0324095Y0443242D01*
X0324219Y0443176D01*
X0324340Y0443107D01*
X0324460Y0443034D01*
X0324578Y0442957D01*
X0324693Y0442878D01*
X0324807Y0442795D01*
X0324917Y0442709D01*
X0325026Y0442620D01*
X0325132Y0442528D01*
X0325235Y0442433D01*
X0325336Y0442336D01*
X0325433Y0442235D01*
X0325528Y0442132D01*
X0325620Y0442026D01*
X0325709Y0441917D01*
X0325795Y0441807D01*
X0325878Y0441693D01*
X0325957Y0441578D01*
X0326034Y0441460D01*
X0326107Y0441340D01*
X0326176Y0441219D01*
X0326242Y0441095D01*
X0326305Y0440969D01*
X0326364Y0440842D01*
X0326419Y0440713D01*
X0326471Y0440583D01*
X0326519Y0440451D01*
X0326564Y0440318D01*
X0326605Y0440184D01*
X0326642Y0440049D01*
X0326675Y0439913D01*
X0326704Y0439775D01*
X0326729Y0439638D01*
X0326751Y0439499D01*
X0326769Y0439360D01*
X0326782Y0439220D01*
X0326792Y0439080D01*
X0326798Y0438940D01*
X0326800Y0438800D01*
X0336800Y0438800D01*
X0336800Y0468800D01*
X0306800Y0468800D01*
X0306800Y0438800D01*
X0525300Y0235300D02*
X0525300Y0135300D01*
X0705221Y0135300D01*
X0705221Y0235300D01*
X0525300Y0235300D01*
X0525300Y0122300D02*
X0525300Y0022300D01*
X0705221Y0022300D01*
X0705221Y0122300D01*
X0525300Y0122300D01*
D11*
X0202200Y0049977D02*
X0197596Y0049977D01*
X0197596Y0052279D01*
X0198363Y0053046D01*
X0199898Y0053046D01*
X0200665Y0052279D01*
X0200665Y0049977D01*
X0200665Y0048442D02*
X0201433Y0048442D01*
X0202200Y0047675D01*
X0202200Y0046141D01*
X0201433Y0045373D01*
X0201433Y0043839D02*
X0202200Y0043071D01*
X0202200Y0041537D01*
X0201433Y0040769D01*
X0198363Y0040769D01*
X0197596Y0041537D01*
X0197596Y0043071D01*
X0198363Y0043839D01*
X0198363Y0045373D02*
X0199131Y0045373D01*
X0199898Y0046141D01*
X0199898Y0047675D01*
X0200665Y0048442D01*
X0198363Y0048442D02*
X0197596Y0047675D01*
X0197596Y0046141D01*
X0198363Y0045373D01*
X0197596Y0039235D02*
X0197596Y0037700D01*
X0197596Y0038467D02*
X0202200Y0038467D01*
X0202200Y0037700D02*
X0202200Y0039235D01*
X0152391Y0065767D02*
X0152391Y0067302D01*
X0151624Y0068069D01*
X0150089Y0068069D01*
X0149322Y0067302D01*
X0149322Y0065767D01*
X0150089Y0065000D01*
X0151624Y0065000D01*
X0152391Y0065767D01*
X0147787Y0065000D02*
X0147787Y0067302D01*
X0147020Y0068069D01*
X0144718Y0068069D01*
X0144718Y0065000D01*
X0143183Y0065000D02*
X0141648Y0065000D01*
X0142416Y0065000D02*
X0142416Y0068069D01*
X0141648Y0068069D01*
X0140114Y0068069D02*
X0140114Y0065000D01*
X0137812Y0065000D01*
X0137044Y0065767D01*
X0137044Y0068069D01*
X0135510Y0068069D02*
X0133208Y0068069D01*
X0132441Y0067302D01*
X0132441Y0065767D01*
X0133208Y0065000D01*
X0135510Y0065000D01*
X0135510Y0069604D01*
X0130906Y0068069D02*
X0130139Y0068069D01*
X0128604Y0066535D01*
X0128604Y0068069D02*
X0128604Y0065000D01*
X0127069Y0065000D02*
X0127069Y0068069D01*
X0125535Y0069604D01*
X0124000Y0068069D01*
X0124000Y0065000D01*
X0124000Y0067302D02*
X0127069Y0067302D01*
X0129371Y0062871D02*
X0129371Y0062104D01*
X0129371Y0060569D02*
X0129371Y0057500D01*
X0128604Y0057500D02*
X0130139Y0057500D01*
X0131673Y0058267D02*
X0132441Y0057500D01*
X0134742Y0057500D01*
X0136277Y0057500D02*
X0136277Y0060569D01*
X0136277Y0059035D02*
X0137812Y0060569D01*
X0138579Y0060569D01*
X0140114Y0059802D02*
X0140114Y0058267D01*
X0140881Y0057500D01*
X0142416Y0057500D01*
X0143183Y0058267D01*
X0143183Y0059802D01*
X0142416Y0060569D01*
X0140881Y0060569D01*
X0140114Y0059802D01*
X0134742Y0060569D02*
X0132441Y0060569D01*
X0131673Y0059802D01*
X0131673Y0058267D01*
X0129371Y0060569D02*
X0128604Y0060569D01*
X0127069Y0062104D02*
X0127069Y0057500D01*
X0124000Y0057500D02*
X0124000Y0062104D01*
X0125535Y0060569D01*
X0127069Y0062104D01*
X0142416Y0069604D02*
X0142416Y0070371D01*
D12*
X0203800Y0052800D02*
X0203800Y0037800D01*
X0206300Y0035300D01*
X0211300Y0035300D01*
X0213800Y0037800D01*
X0213800Y0052800D01*
X0211300Y0055300D01*
X0206300Y0055300D01*
X0203800Y0052800D01*
X0213800Y0052800D02*
X0216300Y0055300D01*
X0221300Y0055300D01*
X0223800Y0052800D01*
X0223800Y0037800D01*
X0221300Y0035300D01*
X0216300Y0035300D01*
X0213800Y0037800D01*
X0223800Y0037800D02*
X0226300Y0035300D01*
X0231300Y0035300D01*
X0233800Y0037800D01*
X0233800Y0052800D01*
X0231300Y0055300D01*
X0226300Y0055300D01*
X0223800Y0052800D01*
X0092300Y0147300D02*
X0092300Y0154300D01*
X0092298Y0154360D01*
X0092293Y0154421D01*
X0092284Y0154480D01*
X0092271Y0154539D01*
X0092255Y0154598D01*
X0092235Y0154655D01*
X0092212Y0154710D01*
X0092185Y0154765D01*
X0092156Y0154817D01*
X0092123Y0154868D01*
X0092087Y0154917D01*
X0092049Y0154963D01*
X0092007Y0155007D01*
X0091963Y0155049D01*
X0091917Y0155087D01*
X0091868Y0155123D01*
X0091817Y0155156D01*
X0091765Y0155185D01*
X0091710Y0155212D01*
X0091655Y0155235D01*
X0091598Y0155255D01*
X0091539Y0155271D01*
X0091480Y0155284D01*
X0091421Y0155293D01*
X0091360Y0155298D01*
X0091300Y0155300D01*
X0089800Y0155300D01*
X0089300Y0154800D01*
X0070300Y0154800D01*
X0069800Y0155300D01*
X0068300Y0155300D01*
X0068240Y0155298D01*
X0068179Y0155293D01*
X0068120Y0155284D01*
X0068061Y0155271D01*
X0068002Y0155255D01*
X0067945Y0155235D01*
X0067890Y0155212D01*
X0067835Y0155185D01*
X0067783Y0155156D01*
X0067732Y0155123D01*
X0067683Y0155087D01*
X0067637Y0155049D01*
X0067593Y0155007D01*
X0067551Y0154963D01*
X0067513Y0154917D01*
X0067477Y0154868D01*
X0067444Y0154817D01*
X0067415Y0154765D01*
X0067388Y0154710D01*
X0067365Y0154655D01*
X0067345Y0154598D01*
X0067329Y0154539D01*
X0067316Y0154480D01*
X0067307Y0154421D01*
X0067302Y0154360D01*
X0067300Y0154300D01*
X0067300Y0147300D01*
X0067302Y0147240D01*
X0067307Y0147179D01*
X0067316Y0147120D01*
X0067329Y0147061D01*
X0067345Y0147002D01*
X0067365Y0146945D01*
X0067388Y0146890D01*
X0067415Y0146835D01*
X0067444Y0146783D01*
X0067477Y0146732D01*
X0067513Y0146683D01*
X0067551Y0146637D01*
X0067593Y0146593D01*
X0067637Y0146551D01*
X0067683Y0146513D01*
X0067732Y0146477D01*
X0067783Y0146444D01*
X0067835Y0146415D01*
X0067890Y0146388D01*
X0067945Y0146365D01*
X0068002Y0146345D01*
X0068061Y0146329D01*
X0068120Y0146316D01*
X0068179Y0146307D01*
X0068240Y0146302D01*
X0068300Y0146300D01*
X0069800Y0146300D01*
X0070300Y0146800D01*
X0089300Y0146800D01*
X0089800Y0146300D01*
X0091300Y0146300D01*
X0091360Y0146302D01*
X0091421Y0146307D01*
X0091480Y0146316D01*
X0091539Y0146329D01*
X0091598Y0146345D01*
X0091655Y0146365D01*
X0091710Y0146388D01*
X0091765Y0146415D01*
X0091817Y0146444D01*
X0091868Y0146477D01*
X0091917Y0146513D01*
X0091963Y0146551D01*
X0092007Y0146593D01*
X0092049Y0146637D01*
X0092087Y0146683D01*
X0092123Y0146732D01*
X0092156Y0146783D01*
X0092185Y0146835D01*
X0092212Y0146890D01*
X0092235Y0146945D01*
X0092255Y0147002D01*
X0092271Y0147061D01*
X0092284Y0147120D01*
X0092293Y0147179D01*
X0092298Y0147240D01*
X0092300Y0147300D01*
X0069800Y0168300D02*
X0069800Y0190300D01*
X0039800Y0190300D01*
X0039800Y0181800D01*
X0039898Y0181798D01*
X0039996Y0181792D01*
X0040094Y0181783D01*
X0040191Y0181769D01*
X0040288Y0181752D01*
X0040384Y0181731D01*
X0040479Y0181706D01*
X0040573Y0181678D01*
X0040665Y0181645D01*
X0040757Y0181610D01*
X0040847Y0181570D01*
X0040935Y0181528D01*
X0041022Y0181481D01*
X0041106Y0181432D01*
X0041189Y0181379D01*
X0041269Y0181323D01*
X0041348Y0181263D01*
X0041424Y0181201D01*
X0041497Y0181136D01*
X0041568Y0181068D01*
X0041636Y0180997D01*
X0041701Y0180924D01*
X0041763Y0180848D01*
X0041823Y0180769D01*
X0041879Y0180689D01*
X0041932Y0180606D01*
X0041981Y0180522D01*
X0042028Y0180435D01*
X0042070Y0180347D01*
X0042110Y0180257D01*
X0042145Y0180165D01*
X0042178Y0180073D01*
X0042206Y0179979D01*
X0042231Y0179884D01*
X0042252Y0179788D01*
X0042269Y0179691D01*
X0042283Y0179594D01*
X0042292Y0179496D01*
X0042298Y0179398D01*
X0042300Y0179300D01*
X0042298Y0179202D01*
X0042292Y0179104D01*
X0042283Y0179006D01*
X0042269Y0178909D01*
X0042252Y0178812D01*
X0042231Y0178716D01*
X0042206Y0178621D01*
X0042178Y0178527D01*
X0042145Y0178435D01*
X0042110Y0178343D01*
X0042070Y0178253D01*
X0042028Y0178165D01*
X0041981Y0178078D01*
X0041932Y0177994D01*
X0041879Y0177911D01*
X0041823Y0177831D01*
X0041763Y0177752D01*
X0041701Y0177676D01*
X0041636Y0177603D01*
X0041568Y0177532D01*
X0041497Y0177464D01*
X0041424Y0177399D01*
X0041348Y0177337D01*
X0041269Y0177277D01*
X0041189Y0177221D01*
X0041106Y0177168D01*
X0041022Y0177119D01*
X0040935Y0177072D01*
X0040847Y0177030D01*
X0040757Y0176990D01*
X0040665Y0176955D01*
X0040573Y0176922D01*
X0040479Y0176894D01*
X0040384Y0176869D01*
X0040288Y0176848D01*
X0040191Y0176831D01*
X0040094Y0176817D01*
X0039996Y0176808D01*
X0039898Y0176802D01*
X0039800Y0176800D01*
X0039800Y0168300D01*
X0069800Y0168300D01*
X0111800Y0229800D02*
X0113300Y0229800D01*
X0113800Y0230300D01*
X0132800Y0230300D01*
X0133300Y0229800D01*
X0134800Y0229800D01*
X0134860Y0229802D01*
X0134921Y0229807D01*
X0134980Y0229816D01*
X0135039Y0229829D01*
X0135098Y0229845D01*
X0135155Y0229865D01*
X0135210Y0229888D01*
X0135265Y0229915D01*
X0135317Y0229944D01*
X0135368Y0229977D01*
X0135417Y0230013D01*
X0135463Y0230051D01*
X0135507Y0230093D01*
X0135549Y0230137D01*
X0135587Y0230183D01*
X0135623Y0230232D01*
X0135656Y0230283D01*
X0135685Y0230335D01*
X0135712Y0230390D01*
X0135735Y0230445D01*
X0135755Y0230502D01*
X0135771Y0230561D01*
X0135784Y0230620D01*
X0135793Y0230679D01*
X0135798Y0230740D01*
X0135800Y0230800D01*
X0135800Y0237800D01*
X0135798Y0237860D01*
X0135793Y0237921D01*
X0135784Y0237980D01*
X0135771Y0238039D01*
X0135755Y0238098D01*
X0135735Y0238155D01*
X0135712Y0238210D01*
X0135685Y0238265D01*
X0135656Y0238317D01*
X0135623Y0238368D01*
X0135587Y0238417D01*
X0135549Y0238463D01*
X0135507Y0238507D01*
X0135463Y0238549D01*
X0135417Y0238587D01*
X0135368Y0238623D01*
X0135317Y0238656D01*
X0135265Y0238685D01*
X0135210Y0238712D01*
X0135155Y0238735D01*
X0135098Y0238755D01*
X0135039Y0238771D01*
X0134980Y0238784D01*
X0134921Y0238793D01*
X0134860Y0238798D01*
X0134800Y0238800D01*
X0133300Y0238800D01*
X0132800Y0238300D01*
X0113800Y0238300D01*
X0113300Y0238800D01*
X0111800Y0238800D01*
X0111740Y0238798D01*
X0111679Y0238793D01*
X0111620Y0238784D01*
X0111561Y0238771D01*
X0111502Y0238755D01*
X0111445Y0238735D01*
X0111390Y0238712D01*
X0111335Y0238685D01*
X0111283Y0238656D01*
X0111232Y0238623D01*
X0111183Y0238587D01*
X0111137Y0238549D01*
X0111093Y0238507D01*
X0111051Y0238463D01*
X0111013Y0238417D01*
X0110977Y0238368D01*
X0110944Y0238317D01*
X0110915Y0238265D01*
X0110888Y0238210D01*
X0110865Y0238155D01*
X0110845Y0238098D01*
X0110829Y0238039D01*
X0110816Y0237980D01*
X0110807Y0237921D01*
X0110802Y0237860D01*
X0110800Y0237800D01*
X0110800Y0230800D01*
X0110802Y0230740D01*
X0110807Y0230679D01*
X0110816Y0230620D01*
X0110829Y0230561D01*
X0110845Y0230502D01*
X0110865Y0230445D01*
X0110888Y0230390D01*
X0110915Y0230335D01*
X0110944Y0230283D01*
X0110977Y0230232D01*
X0111013Y0230183D01*
X0111051Y0230137D01*
X0111093Y0230093D01*
X0111137Y0230051D01*
X0111183Y0230013D01*
X0111232Y0229977D01*
X0111283Y0229944D01*
X0111335Y0229915D01*
X0111390Y0229888D01*
X0111445Y0229865D01*
X0111502Y0229845D01*
X0111561Y0229829D01*
X0111620Y0229816D01*
X0111679Y0229807D01*
X0111740Y0229802D01*
X0111800Y0229800D01*
X0101800Y0240300D02*
X0074800Y0240300D01*
X0074740Y0240302D01*
X0074679Y0240307D01*
X0074620Y0240316D01*
X0074561Y0240329D01*
X0074502Y0240345D01*
X0074445Y0240365D01*
X0074390Y0240388D01*
X0074335Y0240415D01*
X0074283Y0240444D01*
X0074232Y0240477D01*
X0074183Y0240513D01*
X0074137Y0240551D01*
X0074093Y0240593D01*
X0074051Y0240637D01*
X0074013Y0240683D01*
X0073977Y0240732D01*
X0073944Y0240783D01*
X0073915Y0240835D01*
X0073888Y0240890D01*
X0073865Y0240945D01*
X0073845Y0241002D01*
X0073829Y0241061D01*
X0073816Y0241120D01*
X0073807Y0241179D01*
X0073802Y0241240D01*
X0073800Y0241300D01*
X0073800Y0259300D01*
X0073802Y0259360D01*
X0073807Y0259421D01*
X0073816Y0259480D01*
X0073829Y0259539D01*
X0073845Y0259598D01*
X0073865Y0259655D01*
X0073888Y0259710D01*
X0073915Y0259765D01*
X0073944Y0259817D01*
X0073977Y0259868D01*
X0074013Y0259917D01*
X0074051Y0259963D01*
X0074093Y0260007D01*
X0074137Y0260049D01*
X0074183Y0260087D01*
X0074232Y0260123D01*
X0074283Y0260156D01*
X0074335Y0260185D01*
X0074390Y0260212D01*
X0074445Y0260235D01*
X0074502Y0260255D01*
X0074561Y0260271D01*
X0074620Y0260284D01*
X0074679Y0260293D01*
X0074740Y0260298D01*
X0074800Y0260300D01*
X0101800Y0260300D01*
X0101860Y0260298D01*
X0101921Y0260293D01*
X0101980Y0260284D01*
X0102039Y0260271D01*
X0102098Y0260255D01*
X0102155Y0260235D01*
X0102210Y0260212D01*
X0102265Y0260185D01*
X0102317Y0260156D01*
X0102368Y0260123D01*
X0102417Y0260087D01*
X0102463Y0260049D01*
X0102507Y0260007D01*
X0102549Y0259963D01*
X0102587Y0259917D01*
X0102623Y0259868D01*
X0102656Y0259817D01*
X0102685Y0259765D01*
X0102712Y0259710D01*
X0102735Y0259655D01*
X0102755Y0259598D01*
X0102771Y0259539D01*
X0102784Y0259480D01*
X0102793Y0259421D01*
X0102798Y0259360D01*
X0102800Y0259300D01*
X0102800Y0241300D01*
X0102798Y0241240D01*
X0102793Y0241179D01*
X0102784Y0241120D01*
X0102771Y0241061D01*
X0102755Y0241002D01*
X0102735Y0240945D01*
X0102712Y0240890D01*
X0102685Y0240835D01*
X0102656Y0240783D01*
X0102623Y0240732D01*
X0102587Y0240683D01*
X0102549Y0240637D01*
X0102507Y0240593D01*
X0102463Y0240551D01*
X0102417Y0240513D01*
X0102368Y0240477D01*
X0102317Y0240444D01*
X0102265Y0240415D01*
X0102210Y0240388D01*
X0102155Y0240365D01*
X0102098Y0240345D01*
X0102039Y0240329D01*
X0101980Y0240316D01*
X0101921Y0240307D01*
X0101860Y0240302D01*
X0101800Y0240300D01*
X0094300Y0250300D02*
X0089500Y0250300D01*
X0087000Y0250300D02*
X0082300Y0250300D01*
X0110800Y0261800D02*
X0110800Y0268800D01*
X0110802Y0268860D01*
X0110807Y0268921D01*
X0110816Y0268980D01*
X0110829Y0269039D01*
X0110845Y0269098D01*
X0110865Y0269155D01*
X0110888Y0269210D01*
X0110915Y0269265D01*
X0110944Y0269317D01*
X0110977Y0269368D01*
X0111013Y0269417D01*
X0111051Y0269463D01*
X0111093Y0269507D01*
X0111137Y0269549D01*
X0111183Y0269587D01*
X0111232Y0269623D01*
X0111283Y0269656D01*
X0111335Y0269685D01*
X0111390Y0269712D01*
X0111445Y0269735D01*
X0111502Y0269755D01*
X0111561Y0269771D01*
X0111620Y0269784D01*
X0111679Y0269793D01*
X0111740Y0269798D01*
X0111800Y0269800D01*
X0113300Y0269800D01*
X0113800Y0269300D01*
X0132800Y0269300D01*
X0133300Y0269800D01*
X0134800Y0269800D01*
X0134860Y0269798D01*
X0134921Y0269793D01*
X0134980Y0269784D01*
X0135039Y0269771D01*
X0135098Y0269755D01*
X0135155Y0269735D01*
X0135210Y0269712D01*
X0135265Y0269685D01*
X0135317Y0269656D01*
X0135368Y0269623D01*
X0135417Y0269587D01*
X0135463Y0269549D01*
X0135507Y0269507D01*
X0135549Y0269463D01*
X0135587Y0269417D01*
X0135623Y0269368D01*
X0135656Y0269317D01*
X0135685Y0269265D01*
X0135712Y0269210D01*
X0135735Y0269155D01*
X0135755Y0269098D01*
X0135771Y0269039D01*
X0135784Y0268980D01*
X0135793Y0268921D01*
X0135798Y0268860D01*
X0135800Y0268800D01*
X0135800Y0261800D01*
X0135798Y0261740D01*
X0135793Y0261679D01*
X0135784Y0261620D01*
X0135771Y0261561D01*
X0135755Y0261502D01*
X0135735Y0261445D01*
X0135712Y0261390D01*
X0135685Y0261335D01*
X0135656Y0261283D01*
X0135623Y0261232D01*
X0135587Y0261183D01*
X0135549Y0261137D01*
X0135507Y0261093D01*
X0135463Y0261051D01*
X0135417Y0261013D01*
X0135368Y0260977D01*
X0135317Y0260944D01*
X0135265Y0260915D01*
X0135210Y0260888D01*
X0135155Y0260865D01*
X0135098Y0260845D01*
X0135039Y0260829D01*
X0134980Y0260816D01*
X0134921Y0260807D01*
X0134860Y0260802D01*
X0134800Y0260800D01*
X0133300Y0260800D01*
X0132800Y0261300D01*
X0113800Y0261300D01*
X0113300Y0260800D01*
X0111800Y0260800D01*
X0111740Y0260802D01*
X0111679Y0260807D01*
X0111620Y0260816D01*
X0111561Y0260829D01*
X0111502Y0260845D01*
X0111445Y0260865D01*
X0111390Y0260888D01*
X0111335Y0260915D01*
X0111283Y0260944D01*
X0111232Y0260977D01*
X0111183Y0261013D01*
X0111137Y0261051D01*
X0111093Y0261093D01*
X0111051Y0261137D01*
X0111013Y0261183D01*
X0110977Y0261232D01*
X0110944Y0261283D01*
X0110915Y0261335D01*
X0110888Y0261390D01*
X0110865Y0261445D01*
X0110845Y0261502D01*
X0110829Y0261561D01*
X0110816Y0261620D01*
X0110807Y0261679D01*
X0110802Y0261740D01*
X0110800Y0261800D01*
X0093300Y0289800D02*
X0093300Y0297300D01*
X0093426Y0297302D01*
X0093551Y0297308D01*
X0093676Y0297318D01*
X0093801Y0297332D01*
X0093926Y0297349D01*
X0094050Y0297371D01*
X0094173Y0297396D01*
X0094295Y0297426D01*
X0094416Y0297459D01*
X0094536Y0297496D01*
X0094655Y0297536D01*
X0094772Y0297581D01*
X0094889Y0297629D01*
X0095003Y0297681D01*
X0095116Y0297736D01*
X0095227Y0297795D01*
X0095336Y0297857D01*
X0095443Y0297923D01*
X0095548Y0297992D01*
X0095651Y0298064D01*
X0095752Y0298139D01*
X0095850Y0298218D01*
X0095945Y0298300D01*
X0096038Y0298384D01*
X0096128Y0298472D01*
X0096216Y0298562D01*
X0096300Y0298655D01*
X0096382Y0298750D01*
X0096461Y0298848D01*
X0096536Y0298949D01*
X0096608Y0299052D01*
X0096677Y0299157D01*
X0096743Y0299264D01*
X0096805Y0299373D01*
X0096864Y0299484D01*
X0096919Y0299597D01*
X0096971Y0299711D01*
X0097019Y0299828D01*
X0097064Y0299945D01*
X0097104Y0300064D01*
X0097141Y0300184D01*
X0097174Y0300305D01*
X0097204Y0300427D01*
X0097229Y0300550D01*
X0097251Y0300674D01*
X0097268Y0300799D01*
X0097282Y0300924D01*
X0097292Y0301049D01*
X0097298Y0301174D01*
X0097300Y0301300D01*
X0097298Y0301426D01*
X0097292Y0301551D01*
X0097282Y0301676D01*
X0097268Y0301801D01*
X0097251Y0301926D01*
X0097229Y0302050D01*
X0097204Y0302173D01*
X0097174Y0302295D01*
X0097141Y0302416D01*
X0097104Y0302536D01*
X0097064Y0302655D01*
X0097019Y0302772D01*
X0096971Y0302889D01*
X0096919Y0303003D01*
X0096864Y0303116D01*
X0096805Y0303227D01*
X0096743Y0303336D01*
X0096677Y0303443D01*
X0096608Y0303548D01*
X0096536Y0303651D01*
X0096461Y0303752D01*
X0096382Y0303850D01*
X0096300Y0303945D01*
X0096216Y0304038D01*
X0096128Y0304128D01*
X0096038Y0304216D01*
X0095945Y0304300D01*
X0095850Y0304382D01*
X0095752Y0304461D01*
X0095651Y0304536D01*
X0095548Y0304608D01*
X0095443Y0304677D01*
X0095336Y0304743D01*
X0095227Y0304805D01*
X0095116Y0304864D01*
X0095003Y0304919D01*
X0094889Y0304971D01*
X0094772Y0305019D01*
X0094655Y0305064D01*
X0094536Y0305104D01*
X0094416Y0305141D01*
X0094295Y0305174D01*
X0094173Y0305204D01*
X0094050Y0305229D01*
X0093926Y0305251D01*
X0093801Y0305268D01*
X0093676Y0305282D01*
X0093551Y0305292D01*
X0093426Y0305298D01*
X0093300Y0305300D01*
X0093300Y0312800D01*
X0143300Y0312800D01*
X0143300Y0289800D01*
X0093300Y0289800D01*
X0226300Y0289800D02*
X0226300Y0296800D01*
X0226302Y0296860D01*
X0226307Y0296921D01*
X0226316Y0296980D01*
X0226329Y0297039D01*
X0226345Y0297098D01*
X0226365Y0297155D01*
X0226388Y0297210D01*
X0226415Y0297265D01*
X0226444Y0297317D01*
X0226477Y0297368D01*
X0226513Y0297417D01*
X0226551Y0297463D01*
X0226593Y0297507D01*
X0226637Y0297549D01*
X0226683Y0297587D01*
X0226732Y0297623D01*
X0226783Y0297656D01*
X0226835Y0297685D01*
X0226890Y0297712D01*
X0226945Y0297735D01*
X0227002Y0297755D01*
X0227061Y0297771D01*
X0227120Y0297784D01*
X0227179Y0297793D01*
X0227240Y0297798D01*
X0227300Y0297800D01*
X0228800Y0297800D01*
X0229300Y0297300D01*
X0248300Y0297300D01*
X0248800Y0297800D01*
X0250300Y0297800D01*
X0250360Y0297798D01*
X0250421Y0297793D01*
X0250480Y0297784D01*
X0250539Y0297771D01*
X0250598Y0297755D01*
X0250655Y0297735D01*
X0250710Y0297712D01*
X0250765Y0297685D01*
X0250817Y0297656D01*
X0250868Y0297623D01*
X0250917Y0297587D01*
X0250963Y0297549D01*
X0251007Y0297507D01*
X0251049Y0297463D01*
X0251087Y0297417D01*
X0251123Y0297368D01*
X0251156Y0297317D01*
X0251185Y0297265D01*
X0251212Y0297210D01*
X0251235Y0297155D01*
X0251255Y0297098D01*
X0251271Y0297039D01*
X0251284Y0296980D01*
X0251293Y0296921D01*
X0251298Y0296860D01*
X0251300Y0296800D01*
X0251300Y0289800D01*
X0251298Y0289740D01*
X0251293Y0289679D01*
X0251284Y0289620D01*
X0251271Y0289561D01*
X0251255Y0289502D01*
X0251235Y0289445D01*
X0251212Y0289390D01*
X0251185Y0289335D01*
X0251156Y0289283D01*
X0251123Y0289232D01*
X0251087Y0289183D01*
X0251049Y0289137D01*
X0251007Y0289093D01*
X0250963Y0289051D01*
X0250917Y0289013D01*
X0250868Y0288977D01*
X0250817Y0288944D01*
X0250765Y0288915D01*
X0250710Y0288888D01*
X0250655Y0288865D01*
X0250598Y0288845D01*
X0250539Y0288829D01*
X0250480Y0288816D01*
X0250421Y0288807D01*
X0250360Y0288802D01*
X0250300Y0288800D01*
X0248800Y0288800D01*
X0248300Y0289300D01*
X0229300Y0289300D01*
X0228800Y0288800D01*
X0227300Y0288800D01*
X0227240Y0288802D01*
X0227179Y0288807D01*
X0227120Y0288816D01*
X0227061Y0288829D01*
X0227002Y0288845D01*
X0226945Y0288865D01*
X0226890Y0288888D01*
X0226835Y0288915D01*
X0226783Y0288944D01*
X0226732Y0288977D01*
X0226683Y0289013D01*
X0226637Y0289051D01*
X0226593Y0289093D01*
X0226551Y0289137D01*
X0226513Y0289183D01*
X0226477Y0289232D01*
X0226444Y0289283D01*
X0226415Y0289335D01*
X0226388Y0289390D01*
X0226365Y0289445D01*
X0226345Y0289502D01*
X0226329Y0289561D01*
X0226316Y0289620D01*
X0226307Y0289679D01*
X0226302Y0289740D01*
X0226300Y0289800D01*
X0227300Y0278300D02*
X0228800Y0278300D01*
X0229300Y0277800D01*
X0248300Y0277800D01*
X0248800Y0278300D01*
X0250300Y0278300D01*
X0250360Y0278298D01*
X0250421Y0278293D01*
X0250480Y0278284D01*
X0250539Y0278271D01*
X0250598Y0278255D01*
X0250655Y0278235D01*
X0250710Y0278212D01*
X0250765Y0278185D01*
X0250817Y0278156D01*
X0250868Y0278123D01*
X0250917Y0278087D01*
X0250963Y0278049D01*
X0251007Y0278007D01*
X0251049Y0277963D01*
X0251087Y0277917D01*
X0251123Y0277868D01*
X0251156Y0277817D01*
X0251185Y0277765D01*
X0251212Y0277710D01*
X0251235Y0277655D01*
X0251255Y0277598D01*
X0251271Y0277539D01*
X0251284Y0277480D01*
X0251293Y0277421D01*
X0251298Y0277360D01*
X0251300Y0277300D01*
X0251300Y0270300D01*
X0251298Y0270240D01*
X0251293Y0270179D01*
X0251284Y0270120D01*
X0251271Y0270061D01*
X0251255Y0270002D01*
X0251235Y0269945D01*
X0251212Y0269890D01*
X0251185Y0269835D01*
X0251156Y0269783D01*
X0251123Y0269732D01*
X0251087Y0269683D01*
X0251049Y0269637D01*
X0251007Y0269593D01*
X0250963Y0269551D01*
X0250917Y0269513D01*
X0250868Y0269477D01*
X0250817Y0269444D01*
X0250765Y0269415D01*
X0250710Y0269388D01*
X0250655Y0269365D01*
X0250598Y0269345D01*
X0250539Y0269329D01*
X0250480Y0269316D01*
X0250421Y0269307D01*
X0250360Y0269302D01*
X0250300Y0269300D01*
X0248800Y0269300D01*
X0248300Y0269800D01*
X0229300Y0269800D01*
X0228800Y0269300D01*
X0227300Y0269300D01*
X0227240Y0269302D01*
X0227179Y0269307D01*
X0227120Y0269316D01*
X0227061Y0269329D01*
X0227002Y0269345D01*
X0226945Y0269365D01*
X0226890Y0269388D01*
X0226835Y0269415D01*
X0226783Y0269444D01*
X0226732Y0269477D01*
X0226683Y0269513D01*
X0226637Y0269551D01*
X0226593Y0269593D01*
X0226551Y0269637D01*
X0226513Y0269683D01*
X0226477Y0269732D01*
X0226444Y0269783D01*
X0226415Y0269835D01*
X0226388Y0269890D01*
X0226365Y0269945D01*
X0226345Y0270002D01*
X0226329Y0270061D01*
X0226316Y0270120D01*
X0226307Y0270179D01*
X0226302Y0270240D01*
X0226300Y0270300D01*
X0226300Y0277300D01*
X0226302Y0277360D01*
X0226307Y0277421D01*
X0226316Y0277480D01*
X0226329Y0277539D01*
X0226345Y0277598D01*
X0226365Y0277655D01*
X0226388Y0277710D01*
X0226415Y0277765D01*
X0226444Y0277817D01*
X0226477Y0277868D01*
X0226513Y0277917D01*
X0226551Y0277963D01*
X0226593Y0278007D01*
X0226637Y0278049D01*
X0226683Y0278087D01*
X0226732Y0278123D01*
X0226783Y0278156D01*
X0226835Y0278185D01*
X0226890Y0278212D01*
X0226945Y0278235D01*
X0227002Y0278255D01*
X0227061Y0278271D01*
X0227120Y0278284D01*
X0227179Y0278293D01*
X0227240Y0278298D01*
X0227300Y0278300D01*
X0247300Y0257300D02*
X0260300Y0257300D01*
X0260387Y0257298D01*
X0260474Y0257292D01*
X0260561Y0257283D01*
X0260647Y0257270D01*
X0260733Y0257253D01*
X0260818Y0257232D01*
X0260901Y0257207D01*
X0260984Y0257179D01*
X0261065Y0257148D01*
X0261145Y0257113D01*
X0261223Y0257074D01*
X0261300Y0257032D01*
X0261375Y0256987D01*
X0261447Y0256938D01*
X0261518Y0256887D01*
X0261586Y0256832D01*
X0261651Y0256775D01*
X0261714Y0256714D01*
X0261775Y0256651D01*
X0261832Y0256586D01*
X0261887Y0256518D01*
X0261938Y0256447D01*
X0261987Y0256375D01*
X0262032Y0256300D01*
X0262074Y0256223D01*
X0262113Y0256145D01*
X0262148Y0256065D01*
X0262179Y0255984D01*
X0262207Y0255901D01*
X0262232Y0255818D01*
X0262253Y0255733D01*
X0262270Y0255647D01*
X0262283Y0255561D01*
X0262292Y0255474D01*
X0262298Y0255387D01*
X0262300Y0255300D01*
X0258800Y0252800D02*
X0255000Y0252800D01*
X0252500Y0252800D02*
X0248800Y0252800D01*
X0245300Y0250300D02*
X0245302Y0250213D01*
X0245308Y0250126D01*
X0245317Y0250039D01*
X0245330Y0249953D01*
X0245347Y0249867D01*
X0245368Y0249782D01*
X0245393Y0249699D01*
X0245421Y0249616D01*
X0245452Y0249535D01*
X0245487Y0249455D01*
X0245526Y0249377D01*
X0245568Y0249300D01*
X0245613Y0249225D01*
X0245662Y0249153D01*
X0245713Y0249082D01*
X0245768Y0249014D01*
X0245825Y0248949D01*
X0245886Y0248886D01*
X0245949Y0248825D01*
X0246014Y0248768D01*
X0246082Y0248713D01*
X0246153Y0248662D01*
X0246225Y0248613D01*
X0246300Y0248568D01*
X0246377Y0248526D01*
X0246455Y0248487D01*
X0246535Y0248452D01*
X0246616Y0248421D01*
X0246699Y0248393D01*
X0246782Y0248368D01*
X0246867Y0248347D01*
X0246953Y0248330D01*
X0247039Y0248317D01*
X0247126Y0248308D01*
X0247213Y0248302D01*
X0247300Y0248300D01*
X0260300Y0248300D01*
X0260387Y0248302D01*
X0260474Y0248308D01*
X0260561Y0248317D01*
X0260647Y0248330D01*
X0260733Y0248347D01*
X0260818Y0248368D01*
X0260901Y0248393D01*
X0260984Y0248421D01*
X0261065Y0248452D01*
X0261145Y0248487D01*
X0261223Y0248526D01*
X0261300Y0248568D01*
X0261375Y0248613D01*
X0261447Y0248662D01*
X0261518Y0248713D01*
X0261586Y0248768D01*
X0261651Y0248825D01*
X0261714Y0248886D01*
X0261775Y0248949D01*
X0261832Y0249014D01*
X0261887Y0249082D01*
X0261938Y0249153D01*
X0261987Y0249225D01*
X0262032Y0249300D01*
X0262074Y0249377D01*
X0262113Y0249455D01*
X0262148Y0249535D01*
X0262179Y0249616D01*
X0262207Y0249699D01*
X0262232Y0249782D01*
X0262253Y0249867D01*
X0262270Y0249953D01*
X0262283Y0250039D01*
X0262292Y0250126D01*
X0262298Y0250213D01*
X0262300Y0250300D01*
X0247300Y0257300D02*
X0247213Y0257298D01*
X0247126Y0257292D01*
X0247039Y0257283D01*
X0246953Y0257270D01*
X0246867Y0257253D01*
X0246782Y0257232D01*
X0246699Y0257207D01*
X0246616Y0257179D01*
X0246535Y0257148D01*
X0246455Y0257113D01*
X0246377Y0257074D01*
X0246300Y0257032D01*
X0246225Y0256987D01*
X0246153Y0256938D01*
X0246082Y0256887D01*
X0246014Y0256832D01*
X0245949Y0256775D01*
X0245886Y0256714D01*
X0245825Y0256651D01*
X0245768Y0256586D01*
X0245713Y0256518D01*
X0245662Y0256447D01*
X0245613Y0256375D01*
X0245568Y0256300D01*
X0245526Y0256223D01*
X0245487Y0256145D01*
X0245452Y0256065D01*
X0245421Y0255984D01*
X0245393Y0255901D01*
X0245368Y0255818D01*
X0245347Y0255733D01*
X0245330Y0255647D01*
X0245317Y0255561D01*
X0245308Y0255474D01*
X0245302Y0255387D01*
X0245300Y0255300D01*
X0226800Y0232300D02*
X0226800Y0212300D01*
X0304300Y0212300D01*
X0304300Y0232300D01*
X0226800Y0232300D01*
X0242300Y0217800D02*
X0242800Y0217300D01*
X0243300Y0216800D01*
X0243800Y0216300D01*
X0244300Y0215800D01*
X0244300Y0219800D01*
X0243800Y0219300D01*
X0243800Y0217800D01*
X0251800Y0217800D01*
X0243800Y0217800D02*
X0243800Y0216300D01*
X0243300Y0216800D02*
X0243300Y0218800D01*
X0242800Y0218300D01*
X0242800Y0217300D01*
X0242300Y0217800D02*
X0242800Y0218300D01*
X0243300Y0218800D02*
X0243800Y0219300D01*
X0243800Y0217800D02*
X0242300Y0217800D01*
X0213800Y0191300D02*
X0213800Y0168300D01*
X0173800Y0168300D01*
X0173800Y0175800D01*
X0173926Y0175802D01*
X0174051Y0175808D01*
X0174176Y0175818D01*
X0174301Y0175832D01*
X0174426Y0175849D01*
X0174550Y0175871D01*
X0174673Y0175896D01*
X0174795Y0175926D01*
X0174916Y0175959D01*
X0175036Y0175996D01*
X0175155Y0176036D01*
X0175272Y0176081D01*
X0175389Y0176129D01*
X0175503Y0176181D01*
X0175616Y0176236D01*
X0175727Y0176295D01*
X0175836Y0176357D01*
X0175943Y0176423D01*
X0176048Y0176492D01*
X0176151Y0176564D01*
X0176252Y0176639D01*
X0176350Y0176718D01*
X0176445Y0176800D01*
X0176538Y0176884D01*
X0176628Y0176972D01*
X0176716Y0177062D01*
X0176800Y0177155D01*
X0176882Y0177250D01*
X0176961Y0177348D01*
X0177036Y0177449D01*
X0177108Y0177552D01*
X0177177Y0177657D01*
X0177243Y0177764D01*
X0177305Y0177873D01*
X0177364Y0177984D01*
X0177419Y0178097D01*
X0177471Y0178211D01*
X0177519Y0178328D01*
X0177564Y0178445D01*
X0177604Y0178564D01*
X0177641Y0178684D01*
X0177674Y0178805D01*
X0177704Y0178927D01*
X0177729Y0179050D01*
X0177751Y0179174D01*
X0177768Y0179299D01*
X0177782Y0179424D01*
X0177792Y0179549D01*
X0177798Y0179674D01*
X0177800Y0179800D01*
X0177798Y0179926D01*
X0177792Y0180051D01*
X0177782Y0180176D01*
X0177768Y0180301D01*
X0177751Y0180426D01*
X0177729Y0180550D01*
X0177704Y0180673D01*
X0177674Y0180795D01*
X0177641Y0180916D01*
X0177604Y0181036D01*
X0177564Y0181155D01*
X0177519Y0181272D01*
X0177471Y0181389D01*
X0177419Y0181503D01*
X0177364Y0181616D01*
X0177305Y0181727D01*
X0177243Y0181836D01*
X0177177Y0181943D01*
X0177108Y0182048D01*
X0177036Y0182151D01*
X0176961Y0182252D01*
X0176882Y0182350D01*
X0176800Y0182445D01*
X0176716Y0182538D01*
X0176628Y0182628D01*
X0176538Y0182716D01*
X0176445Y0182800D01*
X0176350Y0182882D01*
X0176252Y0182961D01*
X0176151Y0183036D01*
X0176048Y0183108D01*
X0175943Y0183177D01*
X0175836Y0183243D01*
X0175727Y0183305D01*
X0175616Y0183364D01*
X0175503Y0183419D01*
X0175389Y0183471D01*
X0175272Y0183519D01*
X0175155Y0183564D01*
X0175036Y0183604D01*
X0174916Y0183641D01*
X0174795Y0183674D01*
X0174673Y0183704D01*
X0174550Y0183729D01*
X0174426Y0183751D01*
X0174301Y0183768D01*
X0174176Y0183782D01*
X0174051Y0183792D01*
X0173926Y0183798D01*
X0173800Y0183800D01*
X0173800Y0191300D01*
X0213800Y0191300D01*
X0331300Y0211300D02*
X0331300Y0250300D01*
X0331302Y0250360D01*
X0331307Y0250421D01*
X0331316Y0250480D01*
X0331329Y0250539D01*
X0331345Y0250598D01*
X0331365Y0250655D01*
X0331388Y0250710D01*
X0331415Y0250765D01*
X0331444Y0250817D01*
X0331477Y0250868D01*
X0331513Y0250917D01*
X0331551Y0250963D01*
X0331593Y0251007D01*
X0331637Y0251049D01*
X0331683Y0251087D01*
X0331732Y0251123D01*
X0331783Y0251156D01*
X0331835Y0251185D01*
X0331890Y0251212D01*
X0331945Y0251235D01*
X0332002Y0251255D01*
X0332061Y0251271D01*
X0332120Y0251284D01*
X0332179Y0251293D01*
X0332240Y0251298D01*
X0332300Y0251300D01*
X0354300Y0251300D01*
X0354360Y0251298D01*
X0354421Y0251293D01*
X0354480Y0251284D01*
X0354539Y0251271D01*
X0354598Y0251255D01*
X0354655Y0251235D01*
X0354710Y0251212D01*
X0354765Y0251185D01*
X0354817Y0251156D01*
X0354868Y0251123D01*
X0354917Y0251087D01*
X0354963Y0251049D01*
X0355007Y0251007D01*
X0355049Y0250963D01*
X0355087Y0250917D01*
X0355123Y0250868D01*
X0355156Y0250817D01*
X0355185Y0250765D01*
X0355212Y0250710D01*
X0355235Y0250655D01*
X0355255Y0250598D01*
X0355271Y0250539D01*
X0355284Y0250480D01*
X0355293Y0250421D01*
X0355298Y0250360D01*
X0355300Y0250300D01*
X0355300Y0211300D01*
X0355298Y0211240D01*
X0355293Y0211179D01*
X0355284Y0211120D01*
X0355271Y0211061D01*
X0355255Y0211002D01*
X0355235Y0210945D01*
X0355212Y0210890D01*
X0355185Y0210835D01*
X0355156Y0210783D01*
X0355123Y0210732D01*
X0355087Y0210683D01*
X0355049Y0210637D01*
X0355007Y0210593D01*
X0354963Y0210551D01*
X0354917Y0210513D01*
X0354868Y0210477D01*
X0354817Y0210444D01*
X0354765Y0210415D01*
X0354710Y0210388D01*
X0354655Y0210365D01*
X0354598Y0210345D01*
X0354539Y0210329D01*
X0354480Y0210316D01*
X0354421Y0210307D01*
X0354360Y0210302D01*
X0354300Y0210300D01*
X0332300Y0210300D01*
X0332240Y0210302D01*
X0332179Y0210307D01*
X0332120Y0210316D01*
X0332061Y0210329D01*
X0332002Y0210345D01*
X0331945Y0210365D01*
X0331890Y0210388D01*
X0331835Y0210415D01*
X0331783Y0210444D01*
X0331732Y0210477D01*
X0331683Y0210513D01*
X0331637Y0210551D01*
X0331593Y0210593D01*
X0331551Y0210637D01*
X0331513Y0210683D01*
X0331477Y0210732D01*
X0331444Y0210783D01*
X0331415Y0210835D01*
X0331388Y0210890D01*
X0331365Y0210945D01*
X0331345Y0211002D01*
X0331329Y0211061D01*
X0331316Y0211120D01*
X0331307Y0211179D01*
X0331302Y0211240D01*
X0331300Y0211300D01*
X0343300Y0220300D02*
X0343300Y0235800D01*
X0343300Y0239300D02*
X0343300Y0241300D01*
X0318300Y0273300D02*
X0295300Y0273300D01*
X0295300Y0303300D01*
X0302800Y0303300D01*
X0302802Y0303174D01*
X0302808Y0303049D01*
X0302818Y0302924D01*
X0302832Y0302799D01*
X0302849Y0302674D01*
X0302871Y0302550D01*
X0302896Y0302427D01*
X0302926Y0302305D01*
X0302959Y0302184D01*
X0302996Y0302064D01*
X0303036Y0301945D01*
X0303081Y0301828D01*
X0303129Y0301711D01*
X0303181Y0301597D01*
X0303236Y0301484D01*
X0303295Y0301373D01*
X0303357Y0301264D01*
X0303423Y0301157D01*
X0303492Y0301052D01*
X0303564Y0300949D01*
X0303639Y0300848D01*
X0303718Y0300750D01*
X0303800Y0300655D01*
X0303884Y0300562D01*
X0303972Y0300472D01*
X0304062Y0300384D01*
X0304155Y0300300D01*
X0304250Y0300218D01*
X0304348Y0300139D01*
X0304449Y0300064D01*
X0304552Y0299992D01*
X0304657Y0299923D01*
X0304764Y0299857D01*
X0304873Y0299795D01*
X0304984Y0299736D01*
X0305097Y0299681D01*
X0305211Y0299629D01*
X0305328Y0299581D01*
X0305445Y0299536D01*
X0305564Y0299496D01*
X0305684Y0299459D01*
X0305805Y0299426D01*
X0305927Y0299396D01*
X0306050Y0299371D01*
X0306174Y0299349D01*
X0306299Y0299332D01*
X0306424Y0299318D01*
X0306549Y0299308D01*
X0306674Y0299302D01*
X0306800Y0299300D01*
X0306926Y0299302D01*
X0307051Y0299308D01*
X0307176Y0299318D01*
X0307301Y0299332D01*
X0307426Y0299349D01*
X0307550Y0299371D01*
X0307673Y0299396D01*
X0307795Y0299426D01*
X0307916Y0299459D01*
X0308036Y0299496D01*
X0308155Y0299536D01*
X0308272Y0299581D01*
X0308389Y0299629D01*
X0308503Y0299681D01*
X0308616Y0299736D01*
X0308727Y0299795D01*
X0308836Y0299857D01*
X0308943Y0299923D01*
X0309048Y0299992D01*
X0309151Y0300064D01*
X0309252Y0300139D01*
X0309350Y0300218D01*
X0309445Y0300300D01*
X0309538Y0300384D01*
X0309628Y0300472D01*
X0309716Y0300562D01*
X0309800Y0300655D01*
X0309882Y0300750D01*
X0309961Y0300848D01*
X0310036Y0300949D01*
X0310108Y0301052D01*
X0310177Y0301157D01*
X0310243Y0301264D01*
X0310305Y0301373D01*
X0310364Y0301484D01*
X0310419Y0301597D01*
X0310471Y0301711D01*
X0310519Y0301828D01*
X0310564Y0301945D01*
X0310604Y0302064D01*
X0310641Y0302184D01*
X0310674Y0302305D01*
X0310704Y0302427D01*
X0310729Y0302550D01*
X0310751Y0302674D01*
X0310768Y0302799D01*
X0310782Y0302924D01*
X0310792Y0303049D01*
X0310798Y0303174D01*
X0310800Y0303300D01*
X0318300Y0303300D01*
X0318300Y0273300D01*
X0418300Y0234300D02*
X0418300Y0229300D01*
X0418300Y0224300D01*
X0438300Y0224300D01*
X0438300Y0229300D01*
X0438300Y0234300D01*
X0418300Y0234300D01*
X0418300Y0229300D02*
X0416300Y0229300D01*
X0438300Y0229300D02*
X0440300Y0229300D01*
X0341300Y0396300D02*
X0339800Y0396300D01*
X0339300Y0396800D01*
X0320300Y0396800D01*
X0319800Y0396300D01*
X0318300Y0396300D01*
X0318240Y0396302D01*
X0318179Y0396307D01*
X0318120Y0396316D01*
X0318061Y0396329D01*
X0318002Y0396345D01*
X0317945Y0396365D01*
X0317890Y0396388D01*
X0317835Y0396415D01*
X0317783Y0396444D01*
X0317732Y0396477D01*
X0317683Y0396513D01*
X0317637Y0396551D01*
X0317593Y0396593D01*
X0317551Y0396637D01*
X0317513Y0396683D01*
X0317477Y0396732D01*
X0317444Y0396783D01*
X0317415Y0396835D01*
X0317388Y0396890D01*
X0317365Y0396945D01*
X0317345Y0397002D01*
X0317329Y0397061D01*
X0317316Y0397120D01*
X0317307Y0397179D01*
X0317302Y0397240D01*
X0317300Y0397300D01*
X0317300Y0404300D01*
X0317302Y0404360D01*
X0317307Y0404421D01*
X0317316Y0404480D01*
X0317329Y0404539D01*
X0317345Y0404598D01*
X0317365Y0404655D01*
X0317388Y0404710D01*
X0317415Y0404765D01*
X0317444Y0404817D01*
X0317477Y0404868D01*
X0317513Y0404917D01*
X0317551Y0404963D01*
X0317593Y0405007D01*
X0317637Y0405049D01*
X0317683Y0405087D01*
X0317732Y0405123D01*
X0317783Y0405156D01*
X0317835Y0405185D01*
X0317890Y0405212D01*
X0317945Y0405235D01*
X0318002Y0405255D01*
X0318061Y0405271D01*
X0318120Y0405284D01*
X0318179Y0405293D01*
X0318240Y0405298D01*
X0318300Y0405300D01*
X0319800Y0405300D01*
X0320300Y0404800D01*
X0339300Y0404800D01*
X0339800Y0405300D01*
X0341300Y0405300D01*
X0341360Y0405298D01*
X0341421Y0405293D01*
X0341480Y0405284D01*
X0341539Y0405271D01*
X0341598Y0405255D01*
X0341655Y0405235D01*
X0341710Y0405212D01*
X0341765Y0405185D01*
X0341817Y0405156D01*
X0341868Y0405123D01*
X0341917Y0405087D01*
X0341963Y0405049D01*
X0342007Y0405007D01*
X0342049Y0404963D01*
X0342087Y0404917D01*
X0342123Y0404868D01*
X0342156Y0404817D01*
X0342185Y0404765D01*
X0342212Y0404710D01*
X0342235Y0404655D01*
X0342255Y0404598D01*
X0342271Y0404539D01*
X0342284Y0404480D01*
X0342293Y0404421D01*
X0342298Y0404360D01*
X0342300Y0404300D01*
X0342300Y0397300D01*
X0342298Y0397240D01*
X0342293Y0397179D01*
X0342284Y0397120D01*
X0342271Y0397061D01*
X0342255Y0397002D01*
X0342235Y0396945D01*
X0342212Y0396890D01*
X0342185Y0396835D01*
X0342156Y0396783D01*
X0342123Y0396732D01*
X0342087Y0396683D01*
X0342049Y0396637D01*
X0342007Y0396593D01*
X0341963Y0396551D01*
X0341917Y0396513D01*
X0341868Y0396477D01*
X0341817Y0396444D01*
X0341765Y0396415D01*
X0341710Y0396388D01*
X0341655Y0396365D01*
X0341598Y0396345D01*
X0341539Y0396329D01*
X0341480Y0396316D01*
X0341421Y0396307D01*
X0341360Y0396302D01*
X0341300Y0396300D01*
X0252800Y0403300D02*
X0252800Y0410300D01*
X0252798Y0410360D01*
X0252793Y0410421D01*
X0252784Y0410480D01*
X0252771Y0410539D01*
X0252755Y0410598D01*
X0252735Y0410655D01*
X0252712Y0410710D01*
X0252685Y0410765D01*
X0252656Y0410817D01*
X0252623Y0410868D01*
X0252587Y0410917D01*
X0252549Y0410963D01*
X0252507Y0411007D01*
X0252463Y0411049D01*
X0252417Y0411087D01*
X0252368Y0411123D01*
X0252317Y0411156D01*
X0252265Y0411185D01*
X0252210Y0411212D01*
X0252155Y0411235D01*
X0252098Y0411255D01*
X0252039Y0411271D01*
X0251980Y0411284D01*
X0251921Y0411293D01*
X0251860Y0411298D01*
X0251800Y0411300D01*
X0250300Y0411300D01*
X0249800Y0410800D01*
X0230800Y0410800D01*
X0230300Y0411300D01*
X0228800Y0411300D01*
X0228740Y0411298D01*
X0228679Y0411293D01*
X0228620Y0411284D01*
X0228561Y0411271D01*
X0228502Y0411255D01*
X0228445Y0411235D01*
X0228390Y0411212D01*
X0228335Y0411185D01*
X0228283Y0411156D01*
X0228232Y0411123D01*
X0228183Y0411087D01*
X0228137Y0411049D01*
X0228093Y0411007D01*
X0228051Y0410963D01*
X0228013Y0410917D01*
X0227977Y0410868D01*
X0227944Y0410817D01*
X0227915Y0410765D01*
X0227888Y0410710D01*
X0227865Y0410655D01*
X0227845Y0410598D01*
X0227829Y0410539D01*
X0227816Y0410480D01*
X0227807Y0410421D01*
X0227802Y0410360D01*
X0227800Y0410300D01*
X0227800Y0403300D01*
X0227802Y0403240D01*
X0227807Y0403179D01*
X0227816Y0403120D01*
X0227829Y0403061D01*
X0227845Y0403002D01*
X0227865Y0402945D01*
X0227888Y0402890D01*
X0227915Y0402835D01*
X0227944Y0402783D01*
X0227977Y0402732D01*
X0228013Y0402683D01*
X0228051Y0402637D01*
X0228093Y0402593D01*
X0228137Y0402551D01*
X0228183Y0402513D01*
X0228232Y0402477D01*
X0228283Y0402444D01*
X0228335Y0402415D01*
X0228390Y0402388D01*
X0228445Y0402365D01*
X0228502Y0402345D01*
X0228561Y0402329D01*
X0228620Y0402316D01*
X0228679Y0402307D01*
X0228740Y0402302D01*
X0228800Y0402300D01*
X0230300Y0402300D01*
X0230800Y0402800D01*
X0249800Y0402800D01*
X0250300Y0402300D01*
X0251800Y0402300D01*
X0251860Y0402302D01*
X0251921Y0402307D01*
X0251980Y0402316D01*
X0252039Y0402329D01*
X0252098Y0402345D01*
X0252155Y0402365D01*
X0252210Y0402388D01*
X0252265Y0402415D01*
X0252317Y0402444D01*
X0252368Y0402477D01*
X0252417Y0402513D01*
X0252463Y0402551D01*
X0252507Y0402593D01*
X0252549Y0402637D01*
X0252587Y0402683D01*
X0252623Y0402732D01*
X0252656Y0402783D01*
X0252685Y0402835D01*
X0252712Y0402890D01*
X0252735Y0402945D01*
X0252755Y0403002D01*
X0252771Y0403061D01*
X0252784Y0403120D01*
X0252793Y0403179D01*
X0252798Y0403240D01*
X0252800Y0403300D01*
X0252300Y0475300D02*
X0253800Y0475300D01*
X0254300Y0475800D01*
X0273300Y0475800D01*
X0273800Y0475300D01*
X0275300Y0475300D01*
X0275360Y0475302D01*
X0275421Y0475307D01*
X0275480Y0475316D01*
X0275539Y0475329D01*
X0275598Y0475345D01*
X0275655Y0475365D01*
X0275710Y0475388D01*
X0275765Y0475415D01*
X0275817Y0475444D01*
X0275868Y0475477D01*
X0275917Y0475513D01*
X0275963Y0475551D01*
X0276007Y0475593D01*
X0276049Y0475637D01*
X0276087Y0475683D01*
X0276123Y0475732D01*
X0276156Y0475783D01*
X0276185Y0475835D01*
X0276212Y0475890D01*
X0276235Y0475945D01*
X0276255Y0476002D01*
X0276271Y0476061D01*
X0276284Y0476120D01*
X0276293Y0476179D01*
X0276298Y0476240D01*
X0276300Y0476300D01*
X0276300Y0483300D01*
X0276298Y0483360D01*
X0276293Y0483421D01*
X0276284Y0483480D01*
X0276271Y0483539D01*
X0276255Y0483598D01*
X0276235Y0483655D01*
X0276212Y0483710D01*
X0276185Y0483765D01*
X0276156Y0483817D01*
X0276123Y0483868D01*
X0276087Y0483917D01*
X0276049Y0483963D01*
X0276007Y0484007D01*
X0275963Y0484049D01*
X0275917Y0484087D01*
X0275868Y0484123D01*
X0275817Y0484156D01*
X0275765Y0484185D01*
X0275710Y0484212D01*
X0275655Y0484235D01*
X0275598Y0484255D01*
X0275539Y0484271D01*
X0275480Y0484284D01*
X0275421Y0484293D01*
X0275360Y0484298D01*
X0275300Y0484300D01*
X0273800Y0484300D01*
X0273300Y0483800D01*
X0254300Y0483800D01*
X0253800Y0484300D01*
X0252300Y0484300D01*
X0252240Y0484298D01*
X0252179Y0484293D01*
X0252120Y0484284D01*
X0252061Y0484271D01*
X0252002Y0484255D01*
X0251945Y0484235D01*
X0251890Y0484212D01*
X0251835Y0484185D01*
X0251783Y0484156D01*
X0251732Y0484123D01*
X0251683Y0484087D01*
X0251637Y0484049D01*
X0251593Y0484007D01*
X0251551Y0483963D01*
X0251513Y0483917D01*
X0251477Y0483868D01*
X0251444Y0483817D01*
X0251415Y0483765D01*
X0251388Y0483710D01*
X0251365Y0483655D01*
X0251345Y0483598D01*
X0251329Y0483539D01*
X0251316Y0483480D01*
X0251307Y0483421D01*
X0251302Y0483360D01*
X0251300Y0483300D01*
X0251300Y0476300D01*
X0251302Y0476240D01*
X0251307Y0476179D01*
X0251316Y0476120D01*
X0251329Y0476061D01*
X0251345Y0476002D01*
X0251365Y0475945D01*
X0251388Y0475890D01*
X0251415Y0475835D01*
X0251444Y0475783D01*
X0251477Y0475732D01*
X0251513Y0475683D01*
X0251551Y0475637D01*
X0251593Y0475593D01*
X0251637Y0475551D01*
X0251683Y0475513D01*
X0251732Y0475477D01*
X0251783Y0475444D01*
X0251835Y0475415D01*
X0251890Y0475388D01*
X0251945Y0475365D01*
X0252002Y0475345D01*
X0252061Y0475329D01*
X0252120Y0475316D01*
X0252179Y0475307D01*
X0252240Y0475302D01*
X0252300Y0475300D01*
X0123800Y0418300D02*
X0123800Y0416800D01*
X0123300Y0416300D01*
X0123300Y0397300D01*
X0123800Y0396800D01*
X0123800Y0395300D01*
X0123798Y0395240D01*
X0123793Y0395179D01*
X0123784Y0395120D01*
X0123771Y0395061D01*
X0123755Y0395002D01*
X0123735Y0394945D01*
X0123712Y0394890D01*
X0123685Y0394835D01*
X0123656Y0394783D01*
X0123623Y0394732D01*
X0123587Y0394683D01*
X0123549Y0394637D01*
X0123507Y0394593D01*
X0123463Y0394551D01*
X0123417Y0394513D01*
X0123368Y0394477D01*
X0123317Y0394444D01*
X0123265Y0394415D01*
X0123210Y0394388D01*
X0123155Y0394365D01*
X0123098Y0394345D01*
X0123039Y0394329D01*
X0122980Y0394316D01*
X0122921Y0394307D01*
X0122860Y0394302D01*
X0122800Y0394300D01*
X0115800Y0394300D01*
X0115740Y0394302D01*
X0115679Y0394307D01*
X0115620Y0394316D01*
X0115561Y0394329D01*
X0115502Y0394345D01*
X0115445Y0394365D01*
X0115390Y0394388D01*
X0115335Y0394415D01*
X0115283Y0394444D01*
X0115232Y0394477D01*
X0115183Y0394513D01*
X0115137Y0394551D01*
X0115093Y0394593D01*
X0115051Y0394637D01*
X0115013Y0394683D01*
X0114977Y0394732D01*
X0114944Y0394783D01*
X0114915Y0394835D01*
X0114888Y0394890D01*
X0114865Y0394945D01*
X0114845Y0395002D01*
X0114829Y0395061D01*
X0114816Y0395120D01*
X0114807Y0395179D01*
X0114802Y0395240D01*
X0114800Y0395300D01*
X0114800Y0396800D01*
X0115300Y0397300D01*
X0115300Y0416300D01*
X0114800Y0416800D01*
X0114800Y0418300D01*
X0114802Y0418360D01*
X0114807Y0418421D01*
X0114816Y0418480D01*
X0114829Y0418539D01*
X0114845Y0418598D01*
X0114865Y0418655D01*
X0114888Y0418710D01*
X0114915Y0418765D01*
X0114944Y0418817D01*
X0114977Y0418868D01*
X0115013Y0418917D01*
X0115051Y0418963D01*
X0115093Y0419007D01*
X0115137Y0419049D01*
X0115183Y0419087D01*
X0115232Y0419123D01*
X0115283Y0419156D01*
X0115335Y0419185D01*
X0115390Y0419212D01*
X0115445Y0419235D01*
X0115502Y0419255D01*
X0115561Y0419271D01*
X0115620Y0419284D01*
X0115679Y0419293D01*
X0115740Y0419298D01*
X0115800Y0419300D01*
X0122800Y0419300D01*
X0122860Y0419298D01*
X0122921Y0419293D01*
X0122980Y0419284D01*
X0123039Y0419271D01*
X0123098Y0419255D01*
X0123155Y0419235D01*
X0123210Y0419212D01*
X0123265Y0419185D01*
X0123317Y0419156D01*
X0123368Y0419123D01*
X0123417Y0419087D01*
X0123463Y0419049D01*
X0123507Y0419007D01*
X0123549Y0418963D01*
X0123587Y0418917D01*
X0123623Y0418868D01*
X0123656Y0418817D01*
X0123685Y0418765D01*
X0123712Y0418710D01*
X0123735Y0418655D01*
X0123755Y0418598D01*
X0123771Y0418539D01*
X0123784Y0418480D01*
X0123793Y0418421D01*
X0123798Y0418360D01*
X0123800Y0418300D01*
X0031300Y0418300D02*
X0031300Y0416800D01*
X0030800Y0416300D01*
X0030800Y0397300D01*
X0031300Y0396800D01*
X0031300Y0395300D01*
X0031298Y0395240D01*
X0031293Y0395179D01*
X0031284Y0395120D01*
X0031271Y0395061D01*
X0031255Y0395002D01*
X0031235Y0394945D01*
X0031212Y0394890D01*
X0031185Y0394835D01*
X0031156Y0394783D01*
X0031123Y0394732D01*
X0031087Y0394683D01*
X0031049Y0394637D01*
X0031007Y0394593D01*
X0030963Y0394551D01*
X0030917Y0394513D01*
X0030868Y0394477D01*
X0030817Y0394444D01*
X0030765Y0394415D01*
X0030710Y0394388D01*
X0030655Y0394365D01*
X0030598Y0394345D01*
X0030539Y0394329D01*
X0030480Y0394316D01*
X0030421Y0394307D01*
X0030360Y0394302D01*
X0030300Y0394300D01*
X0023300Y0394300D01*
X0023240Y0394302D01*
X0023179Y0394307D01*
X0023120Y0394316D01*
X0023061Y0394329D01*
X0023002Y0394345D01*
X0022945Y0394365D01*
X0022890Y0394388D01*
X0022835Y0394415D01*
X0022783Y0394444D01*
X0022732Y0394477D01*
X0022683Y0394513D01*
X0022637Y0394551D01*
X0022593Y0394593D01*
X0022551Y0394637D01*
X0022513Y0394683D01*
X0022477Y0394732D01*
X0022444Y0394783D01*
X0022415Y0394835D01*
X0022388Y0394890D01*
X0022365Y0394945D01*
X0022345Y0395002D01*
X0022329Y0395061D01*
X0022316Y0395120D01*
X0022307Y0395179D01*
X0022302Y0395240D01*
X0022300Y0395300D01*
X0022300Y0396800D01*
X0022800Y0397300D01*
X0022800Y0416300D01*
X0022300Y0416800D01*
X0022300Y0418300D01*
X0022302Y0418360D01*
X0022307Y0418421D01*
X0022316Y0418480D01*
X0022329Y0418539D01*
X0022345Y0418598D01*
X0022365Y0418655D01*
X0022388Y0418710D01*
X0022415Y0418765D01*
X0022444Y0418817D01*
X0022477Y0418868D01*
X0022513Y0418917D01*
X0022551Y0418963D01*
X0022593Y0419007D01*
X0022637Y0419049D01*
X0022683Y0419087D01*
X0022732Y0419123D01*
X0022783Y0419156D01*
X0022835Y0419185D01*
X0022890Y0419212D01*
X0022945Y0419235D01*
X0023002Y0419255D01*
X0023061Y0419271D01*
X0023120Y0419284D01*
X0023179Y0419293D01*
X0023240Y0419298D01*
X0023300Y0419300D01*
X0030300Y0419300D01*
X0030360Y0419298D01*
X0030421Y0419293D01*
X0030480Y0419284D01*
X0030539Y0419271D01*
X0030598Y0419255D01*
X0030655Y0419235D01*
X0030710Y0419212D01*
X0030765Y0419185D01*
X0030817Y0419156D01*
X0030868Y0419123D01*
X0030917Y0419087D01*
X0030963Y0419049D01*
X0031007Y0419007D01*
X0031049Y0418963D01*
X0031087Y0418917D01*
X0031123Y0418868D01*
X0031156Y0418817D01*
X0031185Y0418765D01*
X0031212Y0418710D01*
X0031235Y0418655D01*
X0031255Y0418598D01*
X0031271Y0418539D01*
X0031284Y0418480D01*
X0031293Y0418421D01*
X0031298Y0418360D01*
X0031300Y0418300D01*
X0747800Y0065300D02*
X0752800Y0065300D01*
X0750300Y0067800D02*
X0750300Y0062800D01*
X0750300Y0049800D02*
X0750300Y0048800D01*
X0755300Y0048800D01*
X0755300Y0046300D01*
X0745300Y0046300D01*
X0745300Y0048800D01*
X0750300Y0048800D01*
X0722800Y0045300D02*
X0722808Y0045975D01*
X0722833Y0046649D01*
X0722875Y0047323D01*
X0722932Y0047995D01*
X0723007Y0048666D01*
X0723098Y0049335D01*
X0723205Y0050001D01*
X0723328Y0050665D01*
X0723468Y0051325D01*
X0723624Y0051982D01*
X0723796Y0052635D01*
X0723984Y0053283D01*
X0724188Y0053926D01*
X0724408Y0054564D01*
X0724643Y0055197D01*
X0724893Y0055824D01*
X0725159Y0056444D01*
X0725440Y0057058D01*
X0725736Y0057664D01*
X0726047Y0058263D01*
X0726373Y0058855D01*
X0726712Y0059438D01*
X0727067Y0060012D01*
X0727435Y0060578D01*
X0727816Y0061135D01*
X0728212Y0061682D01*
X0728620Y0062219D01*
X0729042Y0062746D01*
X0729477Y0063262D01*
X0729924Y0063768D01*
X0730383Y0064262D01*
X0730855Y0064745D01*
X0731338Y0065217D01*
X0731832Y0065676D01*
X0732338Y0066123D01*
X0732854Y0066558D01*
X0733381Y0066980D01*
X0733918Y0067388D01*
X0734465Y0067784D01*
X0735022Y0068165D01*
X0735588Y0068533D01*
X0736162Y0068888D01*
X0736745Y0069227D01*
X0737337Y0069553D01*
X0737936Y0069864D01*
X0738542Y0070160D01*
X0739156Y0070441D01*
X0739776Y0070707D01*
X0740403Y0070957D01*
X0741036Y0071192D01*
X0741674Y0071412D01*
X0742317Y0071616D01*
X0742965Y0071804D01*
X0743618Y0071976D01*
X0744275Y0072132D01*
X0744935Y0072272D01*
X0745599Y0072395D01*
X0746265Y0072502D01*
X0746934Y0072593D01*
X0747605Y0072668D01*
X0748277Y0072725D01*
X0748951Y0072767D01*
X0749625Y0072792D01*
X0750300Y0072800D01*
X0750975Y0072792D01*
X0751649Y0072767D01*
X0752323Y0072725D01*
X0752995Y0072668D01*
X0753666Y0072593D01*
X0754335Y0072502D01*
X0755001Y0072395D01*
X0755665Y0072272D01*
X0756325Y0072132D01*
X0756982Y0071976D01*
X0757635Y0071804D01*
X0758283Y0071616D01*
X0758926Y0071412D01*
X0759564Y0071192D01*
X0760197Y0070957D01*
X0760824Y0070707D01*
X0761444Y0070441D01*
X0762058Y0070160D01*
X0762664Y0069864D01*
X0763263Y0069553D01*
X0763855Y0069227D01*
X0764438Y0068888D01*
X0765012Y0068533D01*
X0765578Y0068165D01*
X0766135Y0067784D01*
X0766682Y0067388D01*
X0767219Y0066980D01*
X0767746Y0066558D01*
X0768262Y0066123D01*
X0768768Y0065676D01*
X0769262Y0065217D01*
X0769745Y0064745D01*
X0770217Y0064262D01*
X0770676Y0063768D01*
X0771123Y0063262D01*
X0771558Y0062746D01*
X0771980Y0062219D01*
X0772388Y0061682D01*
X0772784Y0061135D01*
X0773165Y0060578D01*
X0773533Y0060012D01*
X0773888Y0059438D01*
X0774227Y0058855D01*
X0774553Y0058263D01*
X0774864Y0057664D01*
X0775160Y0057058D01*
X0775441Y0056444D01*
X0775707Y0055824D01*
X0775957Y0055197D01*
X0776192Y0054564D01*
X0776412Y0053926D01*
X0776616Y0053283D01*
X0776804Y0052635D01*
X0776976Y0051982D01*
X0777132Y0051325D01*
X0777272Y0050665D01*
X0777395Y0050001D01*
X0777502Y0049335D01*
X0777593Y0048666D01*
X0777668Y0047995D01*
X0777725Y0047323D01*
X0777767Y0046649D01*
X0777792Y0045975D01*
X0777800Y0045300D01*
X0777792Y0044625D01*
X0777767Y0043951D01*
X0777725Y0043277D01*
X0777668Y0042605D01*
X0777593Y0041934D01*
X0777502Y0041265D01*
X0777395Y0040599D01*
X0777272Y0039935D01*
X0777132Y0039275D01*
X0776976Y0038618D01*
X0776804Y0037965D01*
X0776616Y0037317D01*
X0776412Y0036674D01*
X0776192Y0036036D01*
X0775957Y0035403D01*
X0775707Y0034776D01*
X0775441Y0034156D01*
X0775160Y0033542D01*
X0774864Y0032936D01*
X0774553Y0032337D01*
X0774227Y0031745D01*
X0773888Y0031162D01*
X0773533Y0030588D01*
X0773165Y0030022D01*
X0772784Y0029465D01*
X0772388Y0028918D01*
X0771980Y0028381D01*
X0771558Y0027854D01*
X0771123Y0027338D01*
X0770676Y0026832D01*
X0770217Y0026338D01*
X0769745Y0025855D01*
X0769262Y0025383D01*
X0768768Y0024924D01*
X0768262Y0024477D01*
X0767746Y0024042D01*
X0767219Y0023620D01*
X0766682Y0023212D01*
X0766135Y0022816D01*
X0765578Y0022435D01*
X0765012Y0022067D01*
X0764438Y0021712D01*
X0763855Y0021373D01*
X0763263Y0021047D01*
X0762664Y0020736D01*
X0762058Y0020440D01*
X0761444Y0020159D01*
X0760824Y0019893D01*
X0760197Y0019643D01*
X0759564Y0019408D01*
X0758926Y0019188D01*
X0758283Y0018984D01*
X0757635Y0018796D01*
X0756982Y0018624D01*
X0756325Y0018468D01*
X0755665Y0018328D01*
X0755001Y0018205D01*
X0754335Y0018098D01*
X0753666Y0018007D01*
X0752995Y0017932D01*
X0752323Y0017875D01*
X0751649Y0017833D01*
X0750975Y0017808D01*
X0750300Y0017800D01*
X0749625Y0017808D01*
X0748951Y0017833D01*
X0748277Y0017875D01*
X0747605Y0017932D01*
X0746934Y0018007D01*
X0746265Y0018098D01*
X0745599Y0018205D01*
X0744935Y0018328D01*
X0744275Y0018468D01*
X0743618Y0018624D01*
X0742965Y0018796D01*
X0742317Y0018984D01*
X0741674Y0019188D01*
X0741036Y0019408D01*
X0740403Y0019643D01*
X0739776Y0019893D01*
X0739156Y0020159D01*
X0738542Y0020440D01*
X0737936Y0020736D01*
X0737337Y0021047D01*
X0736745Y0021373D01*
X0736162Y0021712D01*
X0735588Y0022067D01*
X0735022Y0022435D01*
X0734465Y0022816D01*
X0733918Y0023212D01*
X0733381Y0023620D01*
X0732854Y0024042D01*
X0732338Y0024477D01*
X0731832Y0024924D01*
X0731338Y0025383D01*
X0730855Y0025855D01*
X0730383Y0026338D01*
X0729924Y0026832D01*
X0729477Y0027338D01*
X0729042Y0027854D01*
X0728620Y0028381D01*
X0728212Y0028918D01*
X0727816Y0029465D01*
X0727435Y0030022D01*
X0727067Y0030588D01*
X0726712Y0031162D01*
X0726373Y0031745D01*
X0726047Y0032337D01*
X0725736Y0032936D01*
X0725440Y0033542D01*
X0725159Y0034156D01*
X0724893Y0034776D01*
X0724643Y0035403D01*
X0724408Y0036036D01*
X0724188Y0036674D01*
X0723984Y0037317D01*
X0723796Y0037965D01*
X0723624Y0038618D01*
X0723468Y0039275D01*
X0723328Y0039935D01*
X0723205Y0040599D01*
X0723098Y0041265D01*
X0723007Y0041934D01*
X0722932Y0042605D01*
X0722875Y0043277D01*
X0722833Y0043951D01*
X0722808Y0044625D01*
X0722800Y0045300D01*
X0750300Y0042800D02*
X0750300Y0040800D01*
X0798300Y0031800D02*
X0798300Y0058800D01*
X0798302Y0058860D01*
X0798307Y0058921D01*
X0798316Y0058980D01*
X0798329Y0059039D01*
X0798345Y0059098D01*
X0798365Y0059155D01*
X0798388Y0059210D01*
X0798415Y0059265D01*
X0798444Y0059317D01*
X0798477Y0059368D01*
X0798513Y0059417D01*
X0798551Y0059463D01*
X0798593Y0059507D01*
X0798637Y0059549D01*
X0798683Y0059587D01*
X0798732Y0059623D01*
X0798783Y0059656D01*
X0798835Y0059685D01*
X0798890Y0059712D01*
X0798945Y0059735D01*
X0799002Y0059755D01*
X0799061Y0059771D01*
X0799120Y0059784D01*
X0799179Y0059793D01*
X0799240Y0059798D01*
X0799300Y0059800D01*
X0817300Y0059800D01*
X0817360Y0059798D01*
X0817421Y0059793D01*
X0817480Y0059784D01*
X0817539Y0059771D01*
X0817598Y0059755D01*
X0817655Y0059735D01*
X0817710Y0059712D01*
X0817765Y0059685D01*
X0817817Y0059656D01*
X0817868Y0059623D01*
X0817917Y0059587D01*
X0817963Y0059549D01*
X0818007Y0059507D01*
X0818049Y0059463D01*
X0818087Y0059417D01*
X0818123Y0059368D01*
X0818156Y0059317D01*
X0818185Y0059265D01*
X0818212Y0059210D01*
X0818235Y0059155D01*
X0818255Y0059098D01*
X0818271Y0059039D01*
X0818284Y0058980D01*
X0818293Y0058921D01*
X0818298Y0058860D01*
X0818300Y0058800D01*
X0818300Y0031800D01*
X0818298Y0031740D01*
X0818293Y0031679D01*
X0818284Y0031620D01*
X0818271Y0031561D01*
X0818255Y0031502D01*
X0818235Y0031445D01*
X0818212Y0031390D01*
X0818185Y0031335D01*
X0818156Y0031283D01*
X0818123Y0031232D01*
X0818087Y0031183D01*
X0818049Y0031137D01*
X0818007Y0031093D01*
X0817963Y0031051D01*
X0817917Y0031013D01*
X0817868Y0030977D01*
X0817817Y0030944D01*
X0817765Y0030915D01*
X0817710Y0030888D01*
X0817655Y0030865D01*
X0817598Y0030845D01*
X0817539Y0030829D01*
X0817480Y0030816D01*
X0817421Y0030807D01*
X0817360Y0030802D01*
X0817300Y0030800D01*
X0799300Y0030800D01*
X0799240Y0030802D01*
X0799179Y0030807D01*
X0799120Y0030816D01*
X0799061Y0030829D01*
X0799002Y0030845D01*
X0798945Y0030865D01*
X0798890Y0030888D01*
X0798835Y0030915D01*
X0798783Y0030944D01*
X0798732Y0030977D01*
X0798683Y0031013D01*
X0798637Y0031051D01*
X0798593Y0031093D01*
X0798551Y0031137D01*
X0798513Y0031183D01*
X0798477Y0031232D01*
X0798444Y0031283D01*
X0798415Y0031335D01*
X0798388Y0031390D01*
X0798365Y0031445D01*
X0798345Y0031502D01*
X0798329Y0031561D01*
X0798316Y0031620D01*
X0798307Y0031679D01*
X0798302Y0031740D01*
X0798300Y0031800D01*
X0808300Y0039300D02*
X0808300Y0044000D01*
X0808300Y0046500D02*
X0808300Y0051300D01*
X0799800Y0129300D02*
X0772800Y0129300D01*
X0772740Y0129302D01*
X0772679Y0129307D01*
X0772620Y0129316D01*
X0772561Y0129329D01*
X0772502Y0129345D01*
X0772445Y0129365D01*
X0772390Y0129388D01*
X0772335Y0129415D01*
X0772283Y0129444D01*
X0772232Y0129477D01*
X0772183Y0129513D01*
X0772137Y0129551D01*
X0772093Y0129593D01*
X0772051Y0129637D01*
X0772013Y0129683D01*
X0771977Y0129732D01*
X0771944Y0129783D01*
X0771915Y0129835D01*
X0771888Y0129890D01*
X0771865Y0129945D01*
X0771845Y0130002D01*
X0771829Y0130061D01*
X0771816Y0130120D01*
X0771807Y0130179D01*
X0771802Y0130240D01*
X0771800Y0130300D01*
X0771800Y0148300D01*
X0771802Y0148360D01*
X0771807Y0148421D01*
X0771816Y0148480D01*
X0771829Y0148539D01*
X0771845Y0148598D01*
X0771865Y0148655D01*
X0771888Y0148710D01*
X0771915Y0148765D01*
X0771944Y0148817D01*
X0771977Y0148868D01*
X0772013Y0148917D01*
X0772051Y0148963D01*
X0772093Y0149007D01*
X0772137Y0149049D01*
X0772183Y0149087D01*
X0772232Y0149123D01*
X0772283Y0149156D01*
X0772335Y0149185D01*
X0772390Y0149212D01*
X0772445Y0149235D01*
X0772502Y0149255D01*
X0772561Y0149271D01*
X0772620Y0149284D01*
X0772679Y0149293D01*
X0772740Y0149298D01*
X0772800Y0149300D01*
X0799800Y0149300D01*
X0799860Y0149298D01*
X0799921Y0149293D01*
X0799980Y0149284D01*
X0800039Y0149271D01*
X0800098Y0149255D01*
X0800155Y0149235D01*
X0800210Y0149212D01*
X0800265Y0149185D01*
X0800317Y0149156D01*
X0800368Y0149123D01*
X0800417Y0149087D01*
X0800463Y0149049D01*
X0800507Y0149007D01*
X0800549Y0148963D01*
X0800587Y0148917D01*
X0800623Y0148868D01*
X0800656Y0148817D01*
X0800685Y0148765D01*
X0800712Y0148710D01*
X0800735Y0148655D01*
X0800755Y0148598D01*
X0800771Y0148539D01*
X0800784Y0148480D01*
X0800793Y0148421D01*
X0800798Y0148360D01*
X0800800Y0148300D01*
X0800800Y0130300D01*
X0800798Y0130240D01*
X0800793Y0130179D01*
X0800784Y0130120D01*
X0800771Y0130061D01*
X0800755Y0130002D01*
X0800735Y0129945D01*
X0800712Y0129890D01*
X0800685Y0129835D01*
X0800656Y0129783D01*
X0800623Y0129732D01*
X0800587Y0129683D01*
X0800549Y0129637D01*
X0800507Y0129593D01*
X0800463Y0129551D01*
X0800417Y0129513D01*
X0800368Y0129477D01*
X0800317Y0129444D01*
X0800265Y0129415D01*
X0800210Y0129388D01*
X0800155Y0129365D01*
X0800098Y0129345D01*
X0800039Y0129329D01*
X0799980Y0129316D01*
X0799921Y0129307D01*
X0799860Y0129302D01*
X0799800Y0129300D01*
X0792300Y0139300D02*
X0787600Y0139300D01*
X0785100Y0139300D02*
X0780300Y0139300D01*
X0769800Y0218300D02*
X0767300Y0218300D01*
X0767300Y0228300D01*
X0769800Y0228300D01*
X0769800Y0223300D01*
X0769800Y0218300D01*
X0769800Y0223300D02*
X0770800Y0223300D01*
X0738800Y0223300D02*
X0738808Y0223975D01*
X0738833Y0224649D01*
X0738875Y0225323D01*
X0738932Y0225995D01*
X0739007Y0226666D01*
X0739098Y0227335D01*
X0739205Y0228001D01*
X0739328Y0228665D01*
X0739468Y0229325D01*
X0739624Y0229982D01*
X0739796Y0230635D01*
X0739984Y0231283D01*
X0740188Y0231926D01*
X0740408Y0232564D01*
X0740643Y0233197D01*
X0740893Y0233824D01*
X0741159Y0234444D01*
X0741440Y0235058D01*
X0741736Y0235664D01*
X0742047Y0236263D01*
X0742373Y0236855D01*
X0742712Y0237438D01*
X0743067Y0238012D01*
X0743435Y0238578D01*
X0743816Y0239135D01*
X0744212Y0239682D01*
X0744620Y0240219D01*
X0745042Y0240746D01*
X0745477Y0241262D01*
X0745924Y0241768D01*
X0746383Y0242262D01*
X0746855Y0242745D01*
X0747338Y0243217D01*
X0747832Y0243676D01*
X0748338Y0244123D01*
X0748854Y0244558D01*
X0749381Y0244980D01*
X0749918Y0245388D01*
X0750465Y0245784D01*
X0751022Y0246165D01*
X0751588Y0246533D01*
X0752162Y0246888D01*
X0752745Y0247227D01*
X0753337Y0247553D01*
X0753936Y0247864D01*
X0754542Y0248160D01*
X0755156Y0248441D01*
X0755776Y0248707D01*
X0756403Y0248957D01*
X0757036Y0249192D01*
X0757674Y0249412D01*
X0758317Y0249616D01*
X0758965Y0249804D01*
X0759618Y0249976D01*
X0760275Y0250132D01*
X0760935Y0250272D01*
X0761599Y0250395D01*
X0762265Y0250502D01*
X0762934Y0250593D01*
X0763605Y0250668D01*
X0764277Y0250725D01*
X0764951Y0250767D01*
X0765625Y0250792D01*
X0766300Y0250800D01*
X0766975Y0250792D01*
X0767649Y0250767D01*
X0768323Y0250725D01*
X0768995Y0250668D01*
X0769666Y0250593D01*
X0770335Y0250502D01*
X0771001Y0250395D01*
X0771665Y0250272D01*
X0772325Y0250132D01*
X0772982Y0249976D01*
X0773635Y0249804D01*
X0774283Y0249616D01*
X0774926Y0249412D01*
X0775564Y0249192D01*
X0776197Y0248957D01*
X0776824Y0248707D01*
X0777444Y0248441D01*
X0778058Y0248160D01*
X0778664Y0247864D01*
X0779263Y0247553D01*
X0779855Y0247227D01*
X0780438Y0246888D01*
X0781012Y0246533D01*
X0781578Y0246165D01*
X0782135Y0245784D01*
X0782682Y0245388D01*
X0783219Y0244980D01*
X0783746Y0244558D01*
X0784262Y0244123D01*
X0784768Y0243676D01*
X0785262Y0243217D01*
X0785745Y0242745D01*
X0786217Y0242262D01*
X0786676Y0241768D01*
X0787123Y0241262D01*
X0787558Y0240746D01*
X0787980Y0240219D01*
X0788388Y0239682D01*
X0788784Y0239135D01*
X0789165Y0238578D01*
X0789533Y0238012D01*
X0789888Y0237438D01*
X0790227Y0236855D01*
X0790553Y0236263D01*
X0790864Y0235664D01*
X0791160Y0235058D01*
X0791441Y0234444D01*
X0791707Y0233824D01*
X0791957Y0233197D01*
X0792192Y0232564D01*
X0792412Y0231926D01*
X0792616Y0231283D01*
X0792804Y0230635D01*
X0792976Y0229982D01*
X0793132Y0229325D01*
X0793272Y0228665D01*
X0793395Y0228001D01*
X0793502Y0227335D01*
X0793593Y0226666D01*
X0793668Y0225995D01*
X0793725Y0225323D01*
X0793767Y0224649D01*
X0793792Y0223975D01*
X0793800Y0223300D01*
X0793792Y0222625D01*
X0793767Y0221951D01*
X0793725Y0221277D01*
X0793668Y0220605D01*
X0793593Y0219934D01*
X0793502Y0219265D01*
X0793395Y0218599D01*
X0793272Y0217935D01*
X0793132Y0217275D01*
X0792976Y0216618D01*
X0792804Y0215965D01*
X0792616Y0215317D01*
X0792412Y0214674D01*
X0792192Y0214036D01*
X0791957Y0213403D01*
X0791707Y0212776D01*
X0791441Y0212156D01*
X0791160Y0211542D01*
X0790864Y0210936D01*
X0790553Y0210337D01*
X0790227Y0209745D01*
X0789888Y0209162D01*
X0789533Y0208588D01*
X0789165Y0208022D01*
X0788784Y0207465D01*
X0788388Y0206918D01*
X0787980Y0206381D01*
X0787558Y0205854D01*
X0787123Y0205338D01*
X0786676Y0204832D01*
X0786217Y0204338D01*
X0785745Y0203855D01*
X0785262Y0203383D01*
X0784768Y0202924D01*
X0784262Y0202477D01*
X0783746Y0202042D01*
X0783219Y0201620D01*
X0782682Y0201212D01*
X0782135Y0200816D01*
X0781578Y0200435D01*
X0781012Y0200067D01*
X0780438Y0199712D01*
X0779855Y0199373D01*
X0779263Y0199047D01*
X0778664Y0198736D01*
X0778058Y0198440D01*
X0777444Y0198159D01*
X0776824Y0197893D01*
X0776197Y0197643D01*
X0775564Y0197408D01*
X0774926Y0197188D01*
X0774283Y0196984D01*
X0773635Y0196796D01*
X0772982Y0196624D01*
X0772325Y0196468D01*
X0771665Y0196328D01*
X0771001Y0196205D01*
X0770335Y0196098D01*
X0769666Y0196007D01*
X0768995Y0195932D01*
X0768323Y0195875D01*
X0767649Y0195833D01*
X0766975Y0195808D01*
X0766300Y0195800D01*
X0765625Y0195808D01*
X0764951Y0195833D01*
X0764277Y0195875D01*
X0763605Y0195932D01*
X0762934Y0196007D01*
X0762265Y0196098D01*
X0761599Y0196205D01*
X0760935Y0196328D01*
X0760275Y0196468D01*
X0759618Y0196624D01*
X0758965Y0196796D01*
X0758317Y0196984D01*
X0757674Y0197188D01*
X0757036Y0197408D01*
X0756403Y0197643D01*
X0755776Y0197893D01*
X0755156Y0198159D01*
X0754542Y0198440D01*
X0753936Y0198736D01*
X0753337Y0199047D01*
X0752745Y0199373D01*
X0752162Y0199712D01*
X0751588Y0200067D01*
X0751022Y0200435D01*
X0750465Y0200816D01*
X0749918Y0201212D01*
X0749381Y0201620D01*
X0748854Y0202042D01*
X0748338Y0202477D01*
X0747832Y0202924D01*
X0747338Y0203383D01*
X0746855Y0203855D01*
X0746383Y0204338D01*
X0745924Y0204832D01*
X0745477Y0205338D01*
X0745042Y0205854D01*
X0744620Y0206381D01*
X0744212Y0206918D01*
X0743816Y0207465D01*
X0743435Y0208022D01*
X0743067Y0208588D01*
X0742712Y0209162D01*
X0742373Y0209745D01*
X0742047Y0210337D01*
X0741736Y0210936D01*
X0741440Y0211542D01*
X0741159Y0212156D01*
X0740893Y0212776D01*
X0740643Y0213403D01*
X0740408Y0214036D01*
X0740188Y0214674D01*
X0739984Y0215317D01*
X0739796Y0215965D01*
X0739624Y0216618D01*
X0739468Y0217275D01*
X0739328Y0217935D01*
X0739205Y0218599D01*
X0739098Y0219265D01*
X0739007Y0219934D01*
X0738932Y0220605D01*
X0738875Y0221277D01*
X0738833Y0221951D01*
X0738808Y0222625D01*
X0738800Y0223300D01*
X0761800Y0223300D02*
X0763800Y0223300D01*
X0783800Y0223300D02*
X0788800Y0223300D01*
X0786300Y0225800D02*
X0786300Y0220800D01*
X0815800Y0350300D02*
X0842800Y0350300D01*
X0842860Y0350302D01*
X0842921Y0350307D01*
X0842980Y0350316D01*
X0843039Y0350329D01*
X0843098Y0350345D01*
X0843155Y0350365D01*
X0843210Y0350388D01*
X0843265Y0350415D01*
X0843317Y0350444D01*
X0843368Y0350477D01*
X0843417Y0350513D01*
X0843463Y0350551D01*
X0843507Y0350593D01*
X0843549Y0350637D01*
X0843587Y0350683D01*
X0843623Y0350732D01*
X0843656Y0350783D01*
X0843685Y0350835D01*
X0843712Y0350890D01*
X0843735Y0350945D01*
X0843755Y0351002D01*
X0843771Y0351061D01*
X0843784Y0351120D01*
X0843793Y0351179D01*
X0843798Y0351240D01*
X0843800Y0351300D01*
X0843800Y0369300D01*
X0843798Y0369360D01*
X0843793Y0369421D01*
X0843784Y0369480D01*
X0843771Y0369539D01*
X0843755Y0369598D01*
X0843735Y0369655D01*
X0843712Y0369710D01*
X0843685Y0369765D01*
X0843656Y0369817D01*
X0843623Y0369868D01*
X0843587Y0369917D01*
X0843549Y0369963D01*
X0843507Y0370007D01*
X0843463Y0370049D01*
X0843417Y0370087D01*
X0843368Y0370123D01*
X0843317Y0370156D01*
X0843265Y0370185D01*
X0843210Y0370212D01*
X0843155Y0370235D01*
X0843098Y0370255D01*
X0843039Y0370271D01*
X0842980Y0370284D01*
X0842921Y0370293D01*
X0842860Y0370298D01*
X0842800Y0370300D01*
X0815800Y0370300D01*
X0815740Y0370298D01*
X0815679Y0370293D01*
X0815620Y0370284D01*
X0815561Y0370271D01*
X0815502Y0370255D01*
X0815445Y0370235D01*
X0815390Y0370212D01*
X0815335Y0370185D01*
X0815283Y0370156D01*
X0815232Y0370123D01*
X0815183Y0370087D01*
X0815137Y0370049D01*
X0815093Y0370007D01*
X0815051Y0369963D01*
X0815013Y0369917D01*
X0814977Y0369868D01*
X0814944Y0369817D01*
X0814915Y0369765D01*
X0814888Y0369710D01*
X0814865Y0369655D01*
X0814845Y0369598D01*
X0814829Y0369539D01*
X0814816Y0369480D01*
X0814807Y0369421D01*
X0814802Y0369360D01*
X0814800Y0369300D01*
X0814800Y0351300D01*
X0814802Y0351240D01*
X0814807Y0351179D01*
X0814816Y0351120D01*
X0814829Y0351061D01*
X0814845Y0351002D01*
X0814865Y0350945D01*
X0814888Y0350890D01*
X0814915Y0350835D01*
X0814944Y0350783D01*
X0814977Y0350732D01*
X0815013Y0350683D01*
X0815051Y0350637D01*
X0815093Y0350593D01*
X0815137Y0350551D01*
X0815183Y0350513D01*
X0815232Y0350477D01*
X0815283Y0350444D01*
X0815335Y0350415D01*
X0815390Y0350388D01*
X0815445Y0350365D01*
X0815502Y0350345D01*
X0815561Y0350329D01*
X0815620Y0350316D01*
X0815679Y0350307D01*
X0815740Y0350302D01*
X0815800Y0350300D01*
X0823300Y0360300D02*
X0828000Y0360300D01*
X0830500Y0360300D02*
X0835300Y0360300D01*
X0812300Y0384800D02*
X0812300Y0389800D01*
X0814800Y0387300D02*
X0809800Y0387300D01*
X0812300Y0402800D02*
X0812300Y0403800D01*
X0807300Y0403800D01*
X0807300Y0406300D01*
X0817300Y0406300D01*
X0817300Y0403800D01*
X0812300Y0403800D01*
X0784800Y0407300D02*
X0784808Y0407975D01*
X0784833Y0408649D01*
X0784875Y0409323D01*
X0784932Y0409995D01*
X0785007Y0410666D01*
X0785098Y0411335D01*
X0785205Y0412001D01*
X0785328Y0412665D01*
X0785468Y0413325D01*
X0785624Y0413982D01*
X0785796Y0414635D01*
X0785984Y0415283D01*
X0786188Y0415926D01*
X0786408Y0416564D01*
X0786643Y0417197D01*
X0786893Y0417824D01*
X0787159Y0418444D01*
X0787440Y0419058D01*
X0787736Y0419664D01*
X0788047Y0420263D01*
X0788373Y0420855D01*
X0788712Y0421438D01*
X0789067Y0422012D01*
X0789435Y0422578D01*
X0789816Y0423135D01*
X0790212Y0423682D01*
X0790620Y0424219D01*
X0791042Y0424746D01*
X0791477Y0425262D01*
X0791924Y0425768D01*
X0792383Y0426262D01*
X0792855Y0426745D01*
X0793338Y0427217D01*
X0793832Y0427676D01*
X0794338Y0428123D01*
X0794854Y0428558D01*
X0795381Y0428980D01*
X0795918Y0429388D01*
X0796465Y0429784D01*
X0797022Y0430165D01*
X0797588Y0430533D01*
X0798162Y0430888D01*
X0798745Y0431227D01*
X0799337Y0431553D01*
X0799936Y0431864D01*
X0800542Y0432160D01*
X0801156Y0432441D01*
X0801776Y0432707D01*
X0802403Y0432957D01*
X0803036Y0433192D01*
X0803674Y0433412D01*
X0804317Y0433616D01*
X0804965Y0433804D01*
X0805618Y0433976D01*
X0806275Y0434132D01*
X0806935Y0434272D01*
X0807599Y0434395D01*
X0808265Y0434502D01*
X0808934Y0434593D01*
X0809605Y0434668D01*
X0810277Y0434725D01*
X0810951Y0434767D01*
X0811625Y0434792D01*
X0812300Y0434800D01*
X0812975Y0434792D01*
X0813649Y0434767D01*
X0814323Y0434725D01*
X0814995Y0434668D01*
X0815666Y0434593D01*
X0816335Y0434502D01*
X0817001Y0434395D01*
X0817665Y0434272D01*
X0818325Y0434132D01*
X0818982Y0433976D01*
X0819635Y0433804D01*
X0820283Y0433616D01*
X0820926Y0433412D01*
X0821564Y0433192D01*
X0822197Y0432957D01*
X0822824Y0432707D01*
X0823444Y0432441D01*
X0824058Y0432160D01*
X0824664Y0431864D01*
X0825263Y0431553D01*
X0825855Y0431227D01*
X0826438Y0430888D01*
X0827012Y0430533D01*
X0827578Y0430165D01*
X0828135Y0429784D01*
X0828682Y0429388D01*
X0829219Y0428980D01*
X0829746Y0428558D01*
X0830262Y0428123D01*
X0830768Y0427676D01*
X0831262Y0427217D01*
X0831745Y0426745D01*
X0832217Y0426262D01*
X0832676Y0425768D01*
X0833123Y0425262D01*
X0833558Y0424746D01*
X0833980Y0424219D01*
X0834388Y0423682D01*
X0834784Y0423135D01*
X0835165Y0422578D01*
X0835533Y0422012D01*
X0835888Y0421438D01*
X0836227Y0420855D01*
X0836553Y0420263D01*
X0836864Y0419664D01*
X0837160Y0419058D01*
X0837441Y0418444D01*
X0837707Y0417824D01*
X0837957Y0417197D01*
X0838192Y0416564D01*
X0838412Y0415926D01*
X0838616Y0415283D01*
X0838804Y0414635D01*
X0838976Y0413982D01*
X0839132Y0413325D01*
X0839272Y0412665D01*
X0839395Y0412001D01*
X0839502Y0411335D01*
X0839593Y0410666D01*
X0839668Y0409995D01*
X0839725Y0409323D01*
X0839767Y0408649D01*
X0839792Y0407975D01*
X0839800Y0407300D01*
X0839792Y0406625D01*
X0839767Y0405951D01*
X0839725Y0405277D01*
X0839668Y0404605D01*
X0839593Y0403934D01*
X0839502Y0403265D01*
X0839395Y0402599D01*
X0839272Y0401935D01*
X0839132Y0401275D01*
X0838976Y0400618D01*
X0838804Y0399965D01*
X0838616Y0399317D01*
X0838412Y0398674D01*
X0838192Y0398036D01*
X0837957Y0397403D01*
X0837707Y0396776D01*
X0837441Y0396156D01*
X0837160Y0395542D01*
X0836864Y0394936D01*
X0836553Y0394337D01*
X0836227Y0393745D01*
X0835888Y0393162D01*
X0835533Y0392588D01*
X0835165Y0392022D01*
X0834784Y0391465D01*
X0834388Y0390918D01*
X0833980Y0390381D01*
X0833558Y0389854D01*
X0833123Y0389338D01*
X0832676Y0388832D01*
X0832217Y0388338D01*
X0831745Y0387855D01*
X0831262Y0387383D01*
X0830768Y0386924D01*
X0830262Y0386477D01*
X0829746Y0386042D01*
X0829219Y0385620D01*
X0828682Y0385212D01*
X0828135Y0384816D01*
X0827578Y0384435D01*
X0827012Y0384067D01*
X0826438Y0383712D01*
X0825855Y0383373D01*
X0825263Y0383047D01*
X0824664Y0382736D01*
X0824058Y0382440D01*
X0823444Y0382159D01*
X0822824Y0381893D01*
X0822197Y0381643D01*
X0821564Y0381408D01*
X0820926Y0381188D01*
X0820283Y0380984D01*
X0819635Y0380796D01*
X0818982Y0380624D01*
X0818325Y0380468D01*
X0817665Y0380328D01*
X0817001Y0380205D01*
X0816335Y0380098D01*
X0815666Y0380007D01*
X0814995Y0379932D01*
X0814323Y0379875D01*
X0813649Y0379833D01*
X0812975Y0379808D01*
X0812300Y0379800D01*
X0811625Y0379808D01*
X0810951Y0379833D01*
X0810277Y0379875D01*
X0809605Y0379932D01*
X0808934Y0380007D01*
X0808265Y0380098D01*
X0807599Y0380205D01*
X0806935Y0380328D01*
X0806275Y0380468D01*
X0805618Y0380624D01*
X0804965Y0380796D01*
X0804317Y0380984D01*
X0803674Y0381188D01*
X0803036Y0381408D01*
X0802403Y0381643D01*
X0801776Y0381893D01*
X0801156Y0382159D01*
X0800542Y0382440D01*
X0799936Y0382736D01*
X0799337Y0383047D01*
X0798745Y0383373D01*
X0798162Y0383712D01*
X0797588Y0384067D01*
X0797022Y0384435D01*
X0796465Y0384816D01*
X0795918Y0385212D01*
X0795381Y0385620D01*
X0794854Y0386042D01*
X0794338Y0386477D01*
X0793832Y0386924D01*
X0793338Y0387383D01*
X0792855Y0387855D01*
X0792383Y0388338D01*
X0791924Y0388832D01*
X0791477Y0389338D01*
X0791042Y0389854D01*
X0790620Y0390381D01*
X0790212Y0390918D01*
X0789816Y0391465D01*
X0789435Y0392022D01*
X0789067Y0392588D01*
X0788712Y0393162D01*
X0788373Y0393745D01*
X0788047Y0394337D01*
X0787736Y0394936D01*
X0787440Y0395542D01*
X0787159Y0396156D01*
X0786893Y0396776D01*
X0786643Y0397403D01*
X0786408Y0398036D01*
X0786188Y0398674D01*
X0785984Y0399317D01*
X0785796Y0399965D01*
X0785624Y0400618D01*
X0785468Y0401275D01*
X0785328Y0401935D01*
X0785205Y0402599D01*
X0785098Y0403265D01*
X0785007Y0403934D01*
X0784932Y0404605D01*
X0784875Y0405277D01*
X0784833Y0405951D01*
X0784808Y0406625D01*
X0784800Y0407300D01*
X0812300Y0409800D02*
X0812300Y0411800D01*
D13*
X0068200Y0027400D02*
X0067900Y0027700D01*
X0068200Y0027400D02*
X0068801Y0027400D01*
X0069101Y0027700D01*
X0069101Y0028001D01*
X0068801Y0028301D01*
X0068501Y0028301D01*
X0068801Y0028301D02*
X0069101Y0028601D01*
X0069101Y0028901D01*
X0068801Y0029202D01*
X0068200Y0029202D01*
X0067900Y0028901D01*
X0067900Y0030400D02*
X0069101Y0030400D01*
X0068501Y0030400D02*
X0068501Y0032202D01*
X0067900Y0031601D01*
X0077900Y0031901D02*
X0078200Y0032202D01*
X0078801Y0032202D01*
X0079101Y0031901D01*
X0079101Y0031601D01*
X0078801Y0031301D01*
X0079101Y0031001D01*
X0079101Y0030700D01*
X0078801Y0030400D01*
X0078200Y0030400D01*
X0077900Y0030700D01*
X0078501Y0031301D02*
X0078801Y0031301D01*
X0079101Y0029202D02*
X0079101Y0028001D01*
X0078501Y0027400D01*
X0077900Y0028001D01*
X0077900Y0029202D01*
X0088400Y0029202D02*
X0088400Y0027400D01*
X0088400Y0028301D02*
X0089001Y0028301D01*
X0089601Y0029202D02*
X0088400Y0029202D01*
X0088400Y0030400D02*
X0088400Y0032202D01*
X0089301Y0032202D01*
X0089601Y0031901D01*
X0089601Y0031301D01*
X0089301Y0031001D01*
X0088400Y0031001D01*
X0089001Y0031001D02*
X0089601Y0030400D01*
X0097900Y0030400D02*
X0097900Y0031601D01*
X0098501Y0032202D01*
X0099101Y0031601D01*
X0099101Y0030400D01*
X0099101Y0031301D02*
X0097900Y0031301D01*
X0098200Y0029202D02*
X0098801Y0029202D01*
X0099101Y0028901D01*
X0097900Y0027700D01*
X0098200Y0027400D01*
X0098801Y0027400D01*
X0099101Y0027700D01*
X0099101Y0028901D01*
X0098200Y0029202D02*
X0097900Y0028901D01*
X0097900Y0027700D01*
X0107900Y0027400D02*
X0109101Y0027400D01*
X0108501Y0027400D02*
X0108501Y0029202D01*
X0107900Y0028601D01*
X0107900Y0030400D02*
X0107900Y0031601D01*
X0108501Y0032202D01*
X0109101Y0031601D01*
X0109101Y0030400D01*
X0109101Y0031301D02*
X0107900Y0031301D01*
X0117900Y0031301D02*
X0119101Y0031301D01*
X0119101Y0031601D02*
X0119101Y0030400D01*
X0117900Y0030400D02*
X0117900Y0031601D01*
X0118501Y0032202D01*
X0119101Y0031601D01*
X0118801Y0029202D02*
X0118200Y0029202D01*
X0117900Y0028901D01*
X0118801Y0029202D02*
X0119101Y0028901D01*
X0119101Y0028601D01*
X0117900Y0027400D01*
X0119101Y0027400D01*
X0127900Y0027700D02*
X0128200Y0027400D01*
X0128801Y0027400D01*
X0129101Y0027700D01*
X0129101Y0028001D01*
X0128801Y0028301D01*
X0128501Y0028301D01*
X0128801Y0028301D02*
X0129101Y0028601D01*
X0129101Y0028901D01*
X0128801Y0029202D01*
X0128200Y0029202D01*
X0127900Y0028901D01*
X0127900Y0030400D02*
X0127900Y0031601D01*
X0128501Y0032202D01*
X0129101Y0031601D01*
X0129101Y0030400D01*
X0129101Y0031301D02*
X0127900Y0031301D01*
X0137900Y0031301D02*
X0139101Y0031301D01*
X0139101Y0031601D02*
X0139101Y0030400D01*
X0137900Y0030400D02*
X0137900Y0031601D01*
X0138501Y0032202D01*
X0139101Y0031601D01*
X0138801Y0029202D02*
X0137900Y0028301D01*
X0139101Y0028301D01*
X0138801Y0027400D02*
X0138801Y0029202D01*
X0147900Y0029202D02*
X0147900Y0028301D01*
X0148501Y0028601D01*
X0148801Y0028601D01*
X0149101Y0028301D01*
X0149101Y0027700D01*
X0148801Y0027400D01*
X0148200Y0027400D01*
X0147900Y0027700D01*
X0147900Y0029202D02*
X0149101Y0029202D01*
X0149101Y0030400D02*
X0149101Y0031601D01*
X0148501Y0032202D01*
X0147900Y0031601D01*
X0147900Y0030400D01*
X0147900Y0031301D02*
X0149101Y0031301D01*
X0177900Y0031200D02*
X0178200Y0030900D01*
X0178801Y0030900D01*
X0179101Y0031200D01*
X0179101Y0031801D01*
X0178801Y0032101D01*
X0178501Y0032101D01*
X0177900Y0031801D01*
X0177900Y0032702D01*
X0179101Y0032702D01*
X0179101Y0029702D02*
X0179101Y0028501D01*
X0178501Y0027900D01*
X0177900Y0028501D01*
X0177900Y0029702D01*
X0187900Y0029401D02*
X0187900Y0029101D01*
X0188200Y0028801D01*
X0188801Y0028801D01*
X0189101Y0028501D01*
X0189101Y0028200D01*
X0188801Y0027900D01*
X0188200Y0027900D01*
X0187900Y0028200D01*
X0187900Y0029401D02*
X0188200Y0029702D01*
X0188801Y0029702D01*
X0189101Y0029401D01*
X0189101Y0030900D02*
X0188501Y0031501D01*
X0188801Y0031501D02*
X0187900Y0031501D01*
X0187900Y0030900D02*
X0187900Y0032702D01*
X0188801Y0032702D01*
X0189101Y0032401D01*
X0189101Y0031801D01*
X0188801Y0031501D01*
X0198400Y0031200D02*
X0198700Y0030900D01*
X0199301Y0030900D01*
X0199601Y0031200D01*
X0199601Y0031801D01*
X0199001Y0031801D01*
X0199601Y0032401D02*
X0199301Y0032702D01*
X0198700Y0032702D01*
X0198400Y0032401D01*
X0198400Y0031200D01*
X0208400Y0031501D02*
X0209001Y0030900D01*
X0209601Y0031501D01*
X0209601Y0032702D01*
X0208400Y0032702D02*
X0208400Y0031501D01*
X0208400Y0029702D02*
X0209001Y0029702D01*
X0208700Y0029702D02*
X0208700Y0027900D01*
X0208400Y0027900D02*
X0209001Y0027900D01*
X0218400Y0027900D02*
X0219001Y0027900D01*
X0218700Y0027900D02*
X0218700Y0029702D01*
X0218400Y0029702D02*
X0219001Y0029702D01*
X0219601Y0030900D02*
X0219601Y0032702D01*
X0219001Y0032101D01*
X0218400Y0032702D01*
X0218400Y0030900D01*
X0234900Y0036400D02*
X0234900Y0038202D01*
X0235200Y0037301D02*
X0236101Y0036400D01*
X0234900Y0037001D02*
X0236101Y0038202D01*
X0235801Y0039400D02*
X0235200Y0039400D01*
X0234900Y0039700D01*
X0234900Y0040901D01*
X0235200Y0041202D01*
X0235801Y0041202D01*
X0236101Y0040901D01*
X0236101Y0039700D02*
X0235801Y0039400D01*
X0235801Y0042400D02*
X0235200Y0042400D01*
X0234900Y0042700D01*
X0235200Y0043301D02*
X0235801Y0043301D01*
X0236101Y0043001D01*
X0236101Y0042700D01*
X0235801Y0042400D01*
X0235200Y0043301D02*
X0234900Y0043601D01*
X0234900Y0043901D01*
X0235200Y0044202D01*
X0235801Y0044202D01*
X0236101Y0043901D01*
X0227025Y0083900D02*
X0226425Y0083900D01*
X0226725Y0083900D02*
X0226725Y0085702D01*
X0226425Y0085702D02*
X0227025Y0085702D01*
X0225784Y0085401D02*
X0225484Y0085702D01*
X0224883Y0085702D01*
X0224583Y0085401D01*
X0224583Y0085101D01*
X0224883Y0084801D01*
X0225484Y0084801D01*
X0225784Y0084501D01*
X0225784Y0084200D01*
X0225484Y0083900D01*
X0224883Y0083900D01*
X0224583Y0084200D01*
X0223943Y0084200D02*
X0223943Y0085401D01*
X0223642Y0085702D01*
X0223042Y0085702D01*
X0222742Y0085401D01*
X0222742Y0084200D01*
X0223042Y0083900D01*
X0223642Y0083900D01*
X0223943Y0084200D01*
X0222101Y0083900D02*
X0222101Y0085702D01*
X0221501Y0085101D01*
X0220900Y0085702D01*
X0220900Y0083900D01*
X0218801Y0087400D02*
X0218200Y0087400D01*
X0217900Y0087700D01*
X0218200Y0088301D02*
X0218801Y0088301D01*
X0219101Y0088001D01*
X0219101Y0087700D01*
X0218801Y0087400D01*
X0218200Y0088301D02*
X0217900Y0088601D01*
X0217900Y0088901D01*
X0218200Y0089202D01*
X0218801Y0089202D01*
X0219101Y0088901D01*
X0218801Y0090400D02*
X0218200Y0090400D01*
X0217900Y0090700D01*
X0218200Y0091301D02*
X0218801Y0091301D01*
X0219101Y0091001D01*
X0219101Y0090700D01*
X0218801Y0090400D01*
X0218200Y0091301D02*
X0217900Y0091601D01*
X0217900Y0091901D01*
X0218200Y0092202D01*
X0218801Y0092202D01*
X0219101Y0091901D01*
X0209101Y0092202D02*
X0207900Y0092202D01*
X0208501Y0092202D02*
X0208501Y0090400D01*
X0209101Y0089202D02*
X0207900Y0087400D01*
X0209101Y0087400D02*
X0207900Y0089202D01*
X0199101Y0089202D02*
X0197900Y0087400D01*
X0199101Y0087400D02*
X0197900Y0089202D01*
X0197900Y0090400D02*
X0197900Y0092202D01*
X0198801Y0092202D01*
X0199101Y0091901D01*
X0199101Y0091301D01*
X0198801Y0091001D01*
X0197900Y0091001D01*
X0198501Y0091001D02*
X0199101Y0090400D01*
X0189101Y0088901D02*
X0189101Y0088301D01*
X0188801Y0088001D01*
X0187900Y0088001D01*
X0188501Y0088001D02*
X0189101Y0087400D01*
X0187900Y0087400D02*
X0187900Y0089202D01*
X0188801Y0089202D01*
X0189101Y0088901D01*
X0179101Y0088901D02*
X0178801Y0089202D01*
X0178200Y0089202D01*
X0177900Y0088901D01*
X0177900Y0087700D01*
X0178200Y0087400D01*
X0178801Y0087400D01*
X0179101Y0087700D01*
X0179101Y0088301D01*
X0178501Y0088301D01*
X0169101Y0088601D02*
X0167900Y0087400D01*
X0169101Y0087400D01*
X0169101Y0088601D02*
X0169101Y0088901D01*
X0168801Y0089202D01*
X0168200Y0089202D01*
X0167900Y0088901D01*
X0159101Y0088901D02*
X0159101Y0088601D01*
X0158801Y0088301D01*
X0159101Y0088001D01*
X0159101Y0087700D01*
X0158801Y0087400D01*
X0158200Y0087400D01*
X0157900Y0087700D01*
X0158501Y0088301D02*
X0158801Y0088301D01*
X0159101Y0088901D02*
X0158801Y0089202D01*
X0158200Y0089202D01*
X0157900Y0088901D01*
X0149101Y0088301D02*
X0147900Y0088301D01*
X0148801Y0089202D01*
X0148801Y0087400D01*
X0139101Y0087700D02*
X0138801Y0087400D01*
X0138200Y0087400D01*
X0137900Y0087700D01*
X0137900Y0088301D02*
X0138501Y0088601D01*
X0138801Y0088601D01*
X0139101Y0088301D01*
X0139101Y0087700D01*
X0137900Y0088301D02*
X0137900Y0089202D01*
X0139101Y0089202D01*
X0129101Y0089202D02*
X0128501Y0088901D01*
X0127900Y0088301D01*
X0128801Y0088301D01*
X0129101Y0088001D01*
X0129101Y0087700D01*
X0128801Y0087400D01*
X0128200Y0087400D01*
X0127900Y0087700D01*
X0127900Y0088301D01*
X0119101Y0088901D02*
X0117900Y0087700D01*
X0117900Y0087400D01*
X0117900Y0089202D02*
X0119101Y0089202D01*
X0119101Y0088901D01*
X0109101Y0088901D02*
X0109101Y0088601D01*
X0108801Y0088301D01*
X0108200Y0088301D01*
X0107900Y0088601D01*
X0107900Y0088901D01*
X0108200Y0089202D01*
X0108801Y0089202D01*
X0109101Y0088901D01*
X0108801Y0088301D02*
X0109101Y0088001D01*
X0109101Y0087700D01*
X0108801Y0087400D01*
X0108200Y0087400D01*
X0107900Y0087700D01*
X0107900Y0088001D01*
X0108200Y0088301D01*
X0099101Y0089200D02*
X0099101Y0090401D01*
X0098801Y0090702D01*
X0098200Y0090702D01*
X0097900Y0090401D01*
X0097900Y0090101D01*
X0098200Y0089801D01*
X0099101Y0089801D01*
X0099101Y0089200D02*
X0098801Y0088900D01*
X0098200Y0088900D01*
X0097900Y0089200D01*
X0089101Y0088901D02*
X0087900Y0087700D01*
X0088200Y0087400D01*
X0088801Y0087400D01*
X0089101Y0087700D01*
X0089101Y0088901D01*
X0088801Y0089202D01*
X0088200Y0089202D01*
X0087900Y0088901D01*
X0087900Y0087700D01*
X0087900Y0090400D02*
X0089101Y0090400D01*
X0088501Y0090400D02*
X0088501Y0092202D01*
X0087900Y0091601D01*
X0079101Y0090400D02*
X0077900Y0090400D01*
X0078501Y0090400D02*
X0078501Y0092202D01*
X0077900Y0091601D01*
X0078501Y0089202D02*
X0078501Y0087400D01*
X0079101Y0087400D02*
X0077900Y0087400D01*
X0077900Y0088601D02*
X0078501Y0089202D01*
X0069101Y0088901D02*
X0068801Y0089202D01*
X0068200Y0089202D01*
X0067900Y0088901D01*
X0069101Y0088901D02*
X0069101Y0088601D01*
X0067900Y0087400D01*
X0069101Y0087400D01*
X0069101Y0090400D02*
X0067900Y0090400D01*
X0068501Y0090400D02*
X0068501Y0092202D01*
X0067900Y0091601D01*
D14*
X0338300Y0235800D02*
X0343300Y0235800D01*
X0348300Y0235800D01*
X0348300Y0239300D02*
X0343300Y0239300D01*
X0338300Y0239300D01*
D15*
X0308050Y0226050D03*
X0308050Y0219550D03*
D16*
X0307050Y0222800D03*
D17*
X0346769Y0285602D02*
X0355431Y0285602D01*
X0363698Y0293869D02*
X0363698Y0302531D01*
X0344407Y0298200D02*
X0344409Y0298364D01*
X0344415Y0298528D01*
X0344425Y0298692D01*
X0344439Y0298856D01*
X0344457Y0299019D01*
X0344479Y0299182D01*
X0344506Y0299344D01*
X0344536Y0299506D01*
X0344570Y0299666D01*
X0344608Y0299826D01*
X0344649Y0299985D01*
X0344695Y0300143D01*
X0344745Y0300299D01*
X0344798Y0300455D01*
X0344855Y0300609D01*
X0344916Y0300761D01*
X0344981Y0300912D01*
X0345050Y0301062D01*
X0345122Y0301209D01*
X0345197Y0301355D01*
X0345277Y0301499D01*
X0345359Y0301641D01*
X0345445Y0301781D01*
X0345535Y0301918D01*
X0345628Y0302054D01*
X0345724Y0302187D01*
X0345824Y0302318D01*
X0345926Y0302446D01*
X0346032Y0302572D01*
X0346141Y0302695D01*
X0346253Y0302815D01*
X0346367Y0302933D01*
X0346485Y0303047D01*
X0346605Y0303159D01*
X0346728Y0303268D01*
X0346854Y0303374D01*
X0346982Y0303476D01*
X0347113Y0303576D01*
X0347246Y0303672D01*
X0347382Y0303765D01*
X0347519Y0303855D01*
X0347659Y0303941D01*
X0347801Y0304023D01*
X0347945Y0304103D01*
X0348091Y0304178D01*
X0348238Y0304250D01*
X0348388Y0304319D01*
X0348539Y0304384D01*
X0348691Y0304445D01*
X0348845Y0304502D01*
X0349001Y0304555D01*
X0349157Y0304605D01*
X0349315Y0304651D01*
X0349474Y0304692D01*
X0349634Y0304730D01*
X0349794Y0304764D01*
X0349956Y0304794D01*
X0350118Y0304821D01*
X0350281Y0304843D01*
X0350444Y0304861D01*
X0350608Y0304875D01*
X0350772Y0304885D01*
X0350936Y0304891D01*
X0351100Y0304893D01*
X0351264Y0304891D01*
X0351428Y0304885D01*
X0351592Y0304875D01*
X0351756Y0304861D01*
X0351919Y0304843D01*
X0352082Y0304821D01*
X0352244Y0304794D01*
X0352406Y0304764D01*
X0352566Y0304730D01*
X0352726Y0304692D01*
X0352885Y0304651D01*
X0353043Y0304605D01*
X0353199Y0304555D01*
X0353355Y0304502D01*
X0353509Y0304445D01*
X0353661Y0304384D01*
X0353812Y0304319D01*
X0353962Y0304250D01*
X0354109Y0304178D01*
X0354255Y0304103D01*
X0354399Y0304023D01*
X0354541Y0303941D01*
X0354681Y0303855D01*
X0354818Y0303765D01*
X0354954Y0303672D01*
X0355087Y0303576D01*
X0355218Y0303476D01*
X0355346Y0303374D01*
X0355472Y0303268D01*
X0355595Y0303159D01*
X0355715Y0303047D01*
X0355833Y0302933D01*
X0355947Y0302815D01*
X0356059Y0302695D01*
X0356168Y0302572D01*
X0356274Y0302446D01*
X0356376Y0302318D01*
X0356476Y0302187D01*
X0356572Y0302054D01*
X0356665Y0301918D01*
X0356755Y0301781D01*
X0356841Y0301641D01*
X0356923Y0301499D01*
X0357003Y0301355D01*
X0357078Y0301209D01*
X0357150Y0301062D01*
X0357219Y0300912D01*
X0357284Y0300761D01*
X0357345Y0300609D01*
X0357402Y0300455D01*
X0357455Y0300299D01*
X0357505Y0300143D01*
X0357551Y0299985D01*
X0357592Y0299826D01*
X0357630Y0299666D01*
X0357664Y0299506D01*
X0357694Y0299344D01*
X0357721Y0299182D01*
X0357743Y0299019D01*
X0357761Y0298856D01*
X0357775Y0298692D01*
X0357785Y0298528D01*
X0357791Y0298364D01*
X0357793Y0298200D01*
X0357791Y0298036D01*
X0357785Y0297872D01*
X0357775Y0297708D01*
X0357761Y0297544D01*
X0357743Y0297381D01*
X0357721Y0297218D01*
X0357694Y0297056D01*
X0357664Y0296894D01*
X0357630Y0296734D01*
X0357592Y0296574D01*
X0357551Y0296415D01*
X0357505Y0296257D01*
X0357455Y0296101D01*
X0357402Y0295945D01*
X0357345Y0295791D01*
X0357284Y0295639D01*
X0357219Y0295488D01*
X0357150Y0295338D01*
X0357078Y0295191D01*
X0357003Y0295045D01*
X0356923Y0294901D01*
X0356841Y0294759D01*
X0356755Y0294619D01*
X0356665Y0294482D01*
X0356572Y0294346D01*
X0356476Y0294213D01*
X0356376Y0294082D01*
X0356274Y0293954D01*
X0356168Y0293828D01*
X0356059Y0293705D01*
X0355947Y0293585D01*
X0355833Y0293467D01*
X0355715Y0293353D01*
X0355595Y0293241D01*
X0355472Y0293132D01*
X0355346Y0293026D01*
X0355218Y0292924D01*
X0355087Y0292824D01*
X0354954Y0292728D01*
X0354818Y0292635D01*
X0354681Y0292545D01*
X0354541Y0292459D01*
X0354399Y0292377D01*
X0354255Y0292297D01*
X0354109Y0292222D01*
X0353962Y0292150D01*
X0353812Y0292081D01*
X0353661Y0292016D01*
X0353509Y0291955D01*
X0353355Y0291898D01*
X0353199Y0291845D01*
X0353043Y0291795D01*
X0352885Y0291749D01*
X0352726Y0291708D01*
X0352566Y0291670D01*
X0352406Y0291636D01*
X0352244Y0291606D01*
X0352082Y0291579D01*
X0351919Y0291557D01*
X0351756Y0291539D01*
X0351592Y0291525D01*
X0351428Y0291515D01*
X0351264Y0291509D01*
X0351100Y0291507D01*
X0350936Y0291509D01*
X0350772Y0291515D01*
X0350608Y0291525D01*
X0350444Y0291539D01*
X0350281Y0291557D01*
X0350118Y0291579D01*
X0349956Y0291606D01*
X0349794Y0291636D01*
X0349634Y0291670D01*
X0349474Y0291708D01*
X0349315Y0291749D01*
X0349157Y0291795D01*
X0349001Y0291845D01*
X0348845Y0291898D01*
X0348691Y0291955D01*
X0348539Y0292016D01*
X0348388Y0292081D01*
X0348238Y0292150D01*
X0348091Y0292222D01*
X0347945Y0292297D01*
X0347801Y0292377D01*
X0347659Y0292459D01*
X0347519Y0292545D01*
X0347382Y0292635D01*
X0347246Y0292728D01*
X0347113Y0292824D01*
X0346982Y0292924D01*
X0346854Y0293026D01*
X0346728Y0293132D01*
X0346605Y0293241D01*
X0346485Y0293353D01*
X0346367Y0293467D01*
X0346253Y0293585D01*
X0346141Y0293705D01*
X0346032Y0293828D01*
X0345926Y0293954D01*
X0345824Y0294082D01*
X0345724Y0294213D01*
X0345628Y0294346D01*
X0345535Y0294482D01*
X0345445Y0294619D01*
X0345359Y0294759D01*
X0345277Y0294901D01*
X0345197Y0295045D01*
X0345122Y0295191D01*
X0345050Y0295338D01*
X0344981Y0295488D01*
X0344916Y0295639D01*
X0344855Y0295791D01*
X0344798Y0295945D01*
X0344745Y0296101D01*
X0344695Y0296257D01*
X0344649Y0296415D01*
X0344608Y0296574D01*
X0344570Y0296734D01*
X0344536Y0296894D01*
X0344506Y0297056D01*
X0344479Y0297218D01*
X0344457Y0297381D01*
X0344439Y0297544D01*
X0344425Y0297708D01*
X0344415Y0297872D01*
X0344409Y0298036D01*
X0344407Y0298200D01*
X0338502Y0293869D02*
X0338502Y0302531D01*
X0346769Y0310798D02*
X0355431Y0310798D01*
X0363891Y0332804D02*
X0363891Y0371288D01*
X0356804Y0371288D01*
X0356804Y0361741D01*
X0309894Y0361741D01*
X0309894Y0371288D01*
X0302808Y0371288D01*
X0302808Y0332804D01*
X0363891Y0332804D01*
X0356804Y0371288D02*
X0309894Y0371288D01*
X0219891Y0467304D02*
X0158808Y0467304D01*
X0158808Y0505788D01*
X0165894Y0505788D01*
X0165894Y0496241D01*
X0212804Y0496241D01*
X0212804Y0505788D01*
X0165894Y0505788D01*
X0127391Y0519288D02*
X0127391Y0480804D01*
X0066308Y0480804D01*
X0066308Y0519288D01*
X0073394Y0519288D01*
X0073394Y0509741D01*
X0120304Y0509741D01*
X0120304Y0519288D01*
X0073394Y0519288D01*
X0120304Y0519288D02*
X0127391Y0519288D01*
X0212804Y0505788D02*
X0219891Y0505788D01*
X0219891Y0467304D01*
X0063296Y0309300D02*
X0024812Y0309300D01*
X0024812Y0302213D01*
X0034359Y0302213D01*
X0034359Y0286485D01*
X0024812Y0286485D01*
X0024812Y0279398D01*
X0063296Y0279398D01*
X0063296Y0309300D01*
X0024812Y0302213D02*
X0024812Y0286485D01*
X0798398Y0199788D02*
X0798398Y0161304D01*
X0828300Y0161304D01*
X0828300Y0199788D01*
X0821213Y0199788D01*
X0821213Y0190241D01*
X0805485Y0190241D01*
X0805485Y0199788D01*
X0798398Y0199788D01*
X0805485Y0199788D02*
X0821213Y0199788D01*
X0821304Y0138792D02*
X0821304Y0077709D01*
X0859788Y0077709D01*
X0859788Y0084796D01*
X0850241Y0084796D01*
X0850241Y0131706D01*
X0859788Y0131706D01*
X0859788Y0138792D01*
X0821304Y0138792D01*
X0859788Y0131706D02*
X0859788Y0084796D01*
X0863300Y0299304D02*
X0833398Y0299304D01*
X0833398Y0337788D01*
X0840485Y0337788D01*
X0840485Y0328241D01*
X0856213Y0328241D01*
X0856213Y0337788D01*
X0840485Y0337788D01*
X0856213Y0337788D02*
X0863300Y0337788D01*
X0863300Y0299304D01*
D18*
X0347300Y0400800D02*
X0345800Y0400800D01*
X0313800Y0400800D02*
X0312300Y0400800D01*
X0257800Y0406800D02*
X0256300Y0406800D01*
X0224300Y0406800D02*
X0222800Y0406800D01*
X0119300Y0390800D02*
X0119300Y0389300D01*
X0119300Y0422800D02*
X0119300Y0424300D01*
X0026800Y0424300D02*
X0026800Y0422800D01*
X0026800Y0390800D02*
X0026800Y0389300D01*
X0105800Y0265300D02*
X0107300Y0265300D01*
X0139300Y0265300D02*
X0140800Y0265300D01*
X0140800Y0234300D02*
X0139300Y0234300D01*
X0107300Y0234300D02*
X0105800Y0234300D01*
X0221300Y0273800D02*
X0222800Y0273800D01*
X0222800Y0293300D02*
X0221300Y0293300D01*
X0254800Y0293300D02*
X0256300Y0293300D01*
X0256300Y0273800D02*
X0254800Y0273800D01*
X0097300Y0150800D02*
X0095800Y0150800D01*
X0063800Y0150800D02*
X0062300Y0150800D01*
X0246300Y0479800D02*
X0247800Y0479800D01*
X0279800Y0479800D02*
X0281300Y0479800D01*
D19*
X0283000Y0479800D03*
X0278000Y0479800D03*
X0249600Y0479800D03*
X0244600Y0479800D03*
X0254500Y0406800D03*
X0259500Y0406800D03*
X0226100Y0406800D03*
X0221100Y0406800D03*
X0310600Y0400800D03*
X0315600Y0400800D03*
X0344000Y0400800D03*
X0349000Y0400800D03*
X0258000Y0293300D03*
X0253000Y0293300D03*
X0224600Y0293300D03*
X0219600Y0293300D03*
X0219600Y0273800D03*
X0224600Y0273800D03*
X0253000Y0273800D03*
X0258000Y0273800D03*
X0142500Y0265300D03*
X0137500Y0265300D03*
X0109100Y0265300D03*
X0104100Y0265300D03*
X0104100Y0234300D03*
X0109100Y0234300D03*
X0137500Y0234300D03*
X0142500Y0234300D03*
X0099000Y0150800D03*
X0094000Y0150800D03*
X0065600Y0150800D03*
X0060600Y0150800D03*
D20*
X0044300Y0441800D03*
X0136300Y0441800D03*
X0256300Y0441300D03*
D21*
X0258800Y0424050D03*
X0258800Y0458550D03*
X0138800Y0459050D03*
X0138800Y0424550D03*
X0046800Y0424550D03*
X0046800Y0459050D03*
D22*
X0046800Y0446800D03*
X0046800Y0436800D03*
X0138800Y0436800D03*
X0138800Y0446800D03*
X0258800Y0446300D03*
X0258800Y0436300D03*
D23*
X0119300Y0426000D03*
X0119300Y0421000D03*
X0119300Y0392600D03*
X0119300Y0387600D03*
X0026800Y0387600D03*
X0026800Y0392600D03*
X0026800Y0421000D03*
X0026800Y0426000D03*
D24*
X0252500Y0255800D02*
X0252500Y0252800D01*
X0252500Y0249800D01*
X0255000Y0249800D02*
X0255000Y0252800D01*
X0255000Y0255800D01*
X0089500Y0252800D02*
X0089500Y0250300D01*
X0089500Y0247800D01*
X0087000Y0247800D02*
X0087000Y0250300D01*
X0087000Y0252800D01*
X0785100Y0141800D02*
X0785100Y0139300D01*
X0785100Y0136800D01*
X0787600Y0136800D02*
X0787600Y0139300D01*
X0787600Y0141800D01*
X0805800Y0046500D02*
X0808300Y0046500D01*
X0810800Y0046500D01*
X0810800Y0044000D02*
X0808300Y0044000D01*
X0805800Y0044000D01*
X0828000Y0357800D02*
X0828000Y0360300D01*
X0828000Y0362800D01*
X0830500Y0362800D02*
X0830500Y0360300D01*
X0830500Y0357800D01*
D25*
X0812300Y0409550D03*
X0750300Y0043050D03*
D26*
X0764050Y0223300D03*
D27*
X0780300Y0261576D02*
X0437780Y0261576D01*
X0437780Y0466300D01*
X0780300Y0466300D01*
X0780300Y0261576D01*
M02*
