G75*
%MOIN*%
%OFA0B0*%
%FSLAX25Y25*%
%IPPOS*%
%LPD*%
%AMOC8*
5,1,8,0,0,1.08239X$1,22.5*
%
%ADD10C,0.15750*%
%ADD11C,0.07000*%
%ADD12C,0.05524*%
%ADD13OC8,0.07000*%
%ADD14C,0.06000*%
%ADD15OC8,0.06400*%
%ADD16C,0.06800*%
%ADD17C,0.08300*%
%ADD18C,0.11300*%
%ADD19OC8,0.06000*%
%ADD20C,0.10839*%
%ADD21C,0.07887*%
%ADD22C,0.10800*%
%ADD23R,0.07296X0.07296*%
%ADD24C,0.07296*%
%ADD25C,0.10800*%
%ADD26OC8,0.10800*%
%ADD27R,0.13461X0.13461*%
%ADD28C,0.13461*%
%ADD29R,0.04762X0.04762*%
D10*
X0027300Y0026300D03*
X0331300Y0026300D03*
X0410300Y0025300D03*
X0747300Y0112300D03*
X0844300Y0451300D03*
X0412300Y0451300D03*
X0331300Y0501300D03*
X0027300Y0501300D03*
D11*
X0063800Y0089800D03*
X0073800Y0089800D03*
X0083800Y0089800D03*
X0093800Y0089800D03*
X0103800Y0089800D03*
X0113800Y0089800D03*
X0123800Y0089800D03*
X0133800Y0089800D03*
X0143800Y0089800D03*
X0153800Y0089800D03*
X0163800Y0089800D03*
X0173800Y0089800D03*
X0183800Y0089800D03*
X0193800Y0089800D03*
X0203800Y0089800D03*
X0213800Y0089800D03*
X0223800Y0089800D03*
X0223800Y0029800D03*
X0213800Y0029800D03*
X0203800Y0029800D03*
X0193800Y0029800D03*
X0183800Y0029800D03*
X0173800Y0029800D03*
X0163800Y0029800D03*
X0153800Y0029800D03*
X0143800Y0029800D03*
X0133800Y0029800D03*
X0123800Y0029800D03*
X0113800Y0029800D03*
X0103800Y0029800D03*
X0093800Y0029800D03*
X0083800Y0029800D03*
X0073800Y0029800D03*
X0063800Y0029800D03*
D12*
X0053800Y0029800D03*
X0053800Y0089800D03*
X0233800Y0089800D03*
X0233800Y0029800D03*
D13*
X0228800Y0040300D03*
X0218800Y0040300D03*
X0218800Y0050300D03*
X0228800Y0050300D03*
X0208800Y0050300D03*
X0208800Y0040300D03*
D14*
X0208800Y0162200D02*
X0208800Y0167400D01*
X0198800Y0167400D02*
X0198800Y0162200D01*
X0188800Y0162200D02*
X0188800Y0167400D01*
X0178800Y0167400D02*
X0178800Y0162200D01*
X0178800Y0192200D02*
X0178800Y0197400D01*
X0188800Y0197400D02*
X0188800Y0192200D01*
X0198800Y0192200D02*
X0198800Y0197400D01*
X0208800Y0197400D02*
X0208800Y0192200D01*
X0289200Y0278300D02*
X0294400Y0278300D01*
X0294400Y0288300D02*
X0289200Y0288300D01*
X0289200Y0298300D02*
X0294400Y0298300D01*
X0319200Y0298300D02*
X0324400Y0298300D01*
X0324400Y0288300D02*
X0319200Y0288300D01*
X0319200Y0278300D02*
X0324400Y0278300D01*
X0138300Y0283700D02*
X0138300Y0288900D01*
X0128300Y0288900D02*
X0128300Y0283700D01*
X0118300Y0283700D02*
X0118300Y0288900D01*
X0108300Y0288900D02*
X0108300Y0283700D01*
X0098300Y0283700D02*
X0098300Y0288900D01*
X0098300Y0313700D02*
X0098300Y0318900D01*
X0108300Y0318900D02*
X0108300Y0313700D01*
X0118300Y0313700D02*
X0118300Y0318900D01*
X0128300Y0318900D02*
X0128300Y0313700D01*
X0138300Y0313700D02*
X0138300Y0318900D01*
D15*
X0343300Y0245800D03*
X0343300Y0215800D03*
D16*
X0294800Y0227800D02*
X0288800Y0227800D01*
X0274800Y0217800D02*
X0268800Y0217800D01*
X0244800Y0227800D02*
X0238800Y0227800D01*
X0261800Y0431300D02*
X0267800Y0431300D01*
X0267800Y0441300D02*
X0261800Y0441300D01*
X0261800Y0451300D02*
X0267800Y0451300D01*
X0147800Y0451800D02*
X0141800Y0451800D01*
X0141800Y0441800D02*
X0147800Y0441800D01*
X0147800Y0431800D02*
X0141800Y0431800D01*
X0055800Y0431800D02*
X0049800Y0431800D01*
X0049800Y0441800D02*
X0055800Y0441800D01*
X0055800Y0451800D02*
X0049800Y0451800D01*
D17*
X0351100Y0298200D03*
D18*
X0341061Y0308239D03*
X0361139Y0308239D03*
X0361139Y0288161D03*
X0341061Y0288161D03*
D19*
X0263800Y0293300D03*
X0263800Y0273800D03*
X0263800Y0252800D03*
X0243800Y0252800D03*
X0213800Y0273800D03*
X0213800Y0293300D03*
X0148300Y0265300D03*
X0098300Y0265300D03*
X0098300Y0250300D03*
X0098300Y0234300D03*
X0078300Y0250300D03*
X0148300Y0234300D03*
X0064800Y0194300D03*
X0044800Y0194300D03*
X0044800Y0164300D03*
X0054800Y0164300D03*
X0064800Y0164300D03*
X0054800Y0150800D03*
X0104800Y0150800D03*
X0413300Y0229300D03*
X0443300Y0229300D03*
X0354800Y0400800D03*
X0304800Y0400800D03*
X0265300Y0406800D03*
X0215300Y0406800D03*
X0119300Y0381800D03*
X0119300Y0431800D03*
X0026800Y0431800D03*
X0026800Y0381800D03*
X0238800Y0479800D03*
X0288800Y0479800D03*
X0819300Y0360300D03*
X0839300Y0360300D03*
X0796300Y0139300D03*
X0776300Y0139300D03*
X0808300Y0055300D03*
X0808300Y0035300D03*
D20*
X0835280Y0084914D02*
X0845320Y0084914D01*
X0845320Y0100505D02*
X0835280Y0100505D01*
X0835280Y0116095D02*
X0845320Y0116095D01*
X0845320Y0131686D02*
X0835280Y0131686D01*
X0821095Y0175280D02*
X0821095Y0185320D01*
X0805505Y0185320D02*
X0805505Y0175280D01*
X0840505Y0313280D02*
X0840505Y0323320D01*
X0856095Y0323320D02*
X0856095Y0313280D01*
X0356686Y0346780D02*
X0356686Y0356820D01*
X0341095Y0356820D02*
X0341095Y0346780D01*
X0325505Y0346780D02*
X0325505Y0356820D01*
X0309914Y0356820D02*
X0309914Y0346780D01*
X0212686Y0481280D02*
X0212686Y0491320D01*
X0197095Y0491320D02*
X0197095Y0481280D01*
X0181505Y0481280D02*
X0181505Y0491320D01*
X0165914Y0491320D02*
X0165914Y0481280D01*
X0120186Y0494780D02*
X0120186Y0504820D01*
X0104595Y0504820D02*
X0104595Y0494780D01*
X0089005Y0494780D02*
X0089005Y0504820D01*
X0073414Y0504820D02*
X0073414Y0494780D01*
X0049320Y0302095D02*
X0039280Y0302095D01*
X0039280Y0286505D02*
X0049320Y0286505D01*
D21*
X0066300Y0370757D02*
X0066300Y0377843D01*
X0076300Y0377843D02*
X0076300Y0370757D01*
X0086300Y0370757D02*
X0086300Y0377843D01*
X0086300Y0400757D02*
X0086300Y0407843D01*
X0076300Y0407843D02*
X0076300Y0400757D01*
X0066300Y0400757D02*
X0066300Y0407843D01*
X0161300Y0408343D02*
X0161300Y0401257D01*
X0171300Y0401257D02*
X0171300Y0408343D01*
X0181300Y0408343D02*
X0181300Y0401257D01*
X0181300Y0378343D02*
X0181300Y0371257D01*
X0171300Y0371257D02*
X0171300Y0378343D01*
X0161300Y0378343D02*
X0161300Y0371257D01*
X0238800Y0361343D02*
X0238800Y0354257D01*
X0248800Y0354257D02*
X0248800Y0361343D01*
X0258800Y0361343D02*
X0258800Y0354257D01*
X0258800Y0384257D02*
X0258800Y0391343D01*
X0248800Y0391343D02*
X0248800Y0384257D01*
X0238800Y0384257D02*
X0238800Y0391343D01*
X0303257Y0443800D02*
X0310343Y0443800D01*
X0310343Y0453800D02*
X0303257Y0453800D01*
X0303257Y0463800D02*
X0310343Y0463800D01*
X0333257Y0463800D02*
X0340343Y0463800D01*
X0340343Y0453800D02*
X0333257Y0453800D01*
X0333257Y0443800D02*
X0340343Y0443800D01*
D22*
X0442457Y0190300D02*
X0452457Y0190300D01*
X0462143Y0190300D02*
X0472143Y0190300D01*
X0448143Y0149300D02*
X0438143Y0149300D01*
X0428457Y0149300D02*
X0418457Y0149300D01*
D23*
X0691048Y0148883D03*
X0691048Y0035883D03*
D24*
X0691048Y0067379D03*
X0539473Y0078206D03*
X0539473Y0035883D03*
X0539473Y0148883D03*
X0539473Y0191206D03*
X0691048Y0180379D03*
X0454709Y0420040D03*
X0454709Y0446615D03*
D25*
X0812300Y0397300D03*
X0776300Y0223300D03*
X0750300Y0055300D03*
D26*
X0750300Y0035300D03*
X0756300Y0223300D03*
X0812300Y0417300D03*
D27*
X0757859Y0284213D03*
D28*
X0757859Y0305867D03*
D29*
X0198800Y0223300D03*
X0156800Y0265300D03*
X0198800Y0134800D03*
X0166300Y0120300D03*
M02*
