G75*
%MOIN*%
%OFA0B0*%
%FSLAX25Y25*%
%IPPOS*%
%LPD*%
%AMOC8*
5,1,8,0,0,1.08239X$1,22.5*
%
%ADD10C,0.06200*%
%ADD11OC8,0.06200*%
%ADD12C,0.05200*%
%ADD13OC8,0.05600*%
%ADD14C,0.06000*%
%ADD15C,0.07500*%
%ADD16C,0.10500*%
%ADD17OC8,0.05200*%
%ADD18C,0.10039*%
%ADD19C,0.07087*%
%ADD20C,0.10000*%
%ADD21R,0.06496X0.06496*%
%ADD22C,0.06496*%
%ADD23C,0.10000*%
%ADD24OC8,0.10000*%
%ADD25R,0.12661X0.12661*%
%ADD26C,0.12661*%
%ADD27C,0.01600*%
%ADD28C,0.05600*%
%ADD29R,0.03962X0.03962*%
%ADD30C,0.08600*%
%ADD31C,0.15000*%
D10*
X0063800Y0029800D03*
X0073800Y0029800D03*
X0083800Y0029800D03*
X0093800Y0029800D03*
X0103800Y0029800D03*
X0113800Y0029800D03*
X0123800Y0029800D03*
X0133800Y0029800D03*
X0143800Y0029800D03*
X0153800Y0029800D03*
X0163800Y0029800D03*
X0173800Y0029800D03*
X0183800Y0029800D03*
X0193800Y0029800D03*
X0203800Y0029800D03*
X0213800Y0029800D03*
X0223800Y0029800D03*
X0223800Y0089800D03*
X0213800Y0089800D03*
X0203800Y0089800D03*
X0193800Y0089800D03*
X0183800Y0089800D03*
X0173800Y0089800D03*
X0163800Y0089800D03*
X0153800Y0089800D03*
X0143800Y0089800D03*
X0133800Y0089800D03*
X0123800Y0089800D03*
X0113800Y0089800D03*
X0103800Y0089800D03*
X0093800Y0089800D03*
X0083800Y0089800D03*
X0073800Y0089800D03*
X0063800Y0089800D03*
D11*
X0208800Y0050300D03*
X0208800Y0040300D03*
X0218800Y0040300D03*
X0228800Y0040300D03*
X0228800Y0050300D03*
X0218800Y0050300D03*
D12*
X0208800Y0162200D02*
X0208800Y0167400D01*
X0198800Y0167400D02*
X0198800Y0162200D01*
X0188800Y0162200D02*
X0188800Y0167400D01*
X0178800Y0167400D02*
X0178800Y0162200D01*
X0178800Y0192200D02*
X0178800Y0197400D01*
X0188800Y0197400D02*
X0188800Y0192200D01*
X0198800Y0192200D02*
X0198800Y0197400D01*
X0208800Y0197400D02*
X0208800Y0192200D01*
X0289200Y0278300D02*
X0294400Y0278300D01*
X0294400Y0288300D02*
X0289200Y0288300D01*
X0289200Y0298300D02*
X0294400Y0298300D01*
X0319200Y0298300D02*
X0324400Y0298300D01*
X0324400Y0288300D02*
X0319200Y0288300D01*
X0319200Y0278300D02*
X0324400Y0278300D01*
X0138300Y0283700D02*
X0138300Y0288900D01*
X0128300Y0288900D02*
X0128300Y0283700D01*
X0118300Y0283700D02*
X0118300Y0288900D01*
X0108300Y0288900D02*
X0108300Y0283700D01*
X0098300Y0283700D02*
X0098300Y0288900D01*
X0098300Y0313700D02*
X0098300Y0318900D01*
X0108300Y0318900D02*
X0108300Y0313700D01*
X0118300Y0313700D02*
X0118300Y0318900D01*
X0128300Y0318900D02*
X0128300Y0313700D01*
X0138300Y0313700D02*
X0138300Y0318900D01*
D13*
X0343300Y0245800D03*
X0343300Y0215800D03*
D14*
X0294800Y0227800D02*
X0288800Y0227800D01*
X0274800Y0217800D02*
X0268800Y0217800D01*
X0244800Y0227800D02*
X0238800Y0227800D01*
X0261800Y0431300D02*
X0267800Y0431300D01*
X0267800Y0441300D02*
X0261800Y0441300D01*
X0261800Y0451300D02*
X0267800Y0451300D01*
X0147800Y0451800D02*
X0141800Y0451800D01*
X0141800Y0441800D02*
X0147800Y0441800D01*
X0147800Y0431800D02*
X0141800Y0431800D01*
X0055800Y0431800D02*
X0049800Y0431800D01*
X0049800Y0441800D02*
X0055800Y0441800D01*
X0055800Y0451800D02*
X0049800Y0451800D01*
D15*
X0351100Y0298200D03*
D16*
X0341061Y0308239D03*
X0361139Y0308239D03*
X0361139Y0288161D03*
X0341061Y0288161D03*
D17*
X0263800Y0293300D03*
X0263800Y0273800D03*
X0263800Y0252800D03*
X0243800Y0252800D03*
X0213800Y0273800D03*
X0213800Y0293300D03*
X0148300Y0265300D03*
X0098300Y0265300D03*
X0098300Y0250300D03*
X0098300Y0234300D03*
X0078300Y0250300D03*
X0148300Y0234300D03*
X0064800Y0194300D03*
X0044800Y0194300D03*
X0044800Y0164300D03*
X0054800Y0164300D03*
X0064800Y0164300D03*
X0054800Y0150800D03*
X0104800Y0150800D03*
X0413300Y0229300D03*
X0443300Y0229300D03*
X0354800Y0400800D03*
X0304800Y0400800D03*
X0265300Y0406800D03*
X0215300Y0406800D03*
X0119300Y0381800D03*
X0119300Y0431800D03*
X0026800Y0431800D03*
X0026800Y0381800D03*
X0238800Y0479800D03*
X0288800Y0479800D03*
X0819300Y0360300D03*
X0839300Y0360300D03*
X0796300Y0139300D03*
X0776300Y0139300D03*
X0808300Y0055300D03*
X0808300Y0035300D03*
D18*
X0835280Y0084914D02*
X0845320Y0084914D01*
X0845320Y0100505D02*
X0835280Y0100505D01*
X0835280Y0116095D02*
X0845320Y0116095D01*
X0845320Y0131686D02*
X0835280Y0131686D01*
X0821095Y0175280D02*
X0821095Y0185320D01*
X0805505Y0185320D02*
X0805505Y0175280D01*
X0840505Y0313280D02*
X0840505Y0323320D01*
X0856095Y0323320D02*
X0856095Y0313280D01*
X0356686Y0346780D02*
X0356686Y0356820D01*
X0341095Y0356820D02*
X0341095Y0346780D01*
X0325505Y0346780D02*
X0325505Y0356820D01*
X0309914Y0356820D02*
X0309914Y0346780D01*
X0212686Y0481280D02*
X0212686Y0491320D01*
X0197095Y0491320D02*
X0197095Y0481280D01*
X0181505Y0481280D02*
X0181505Y0491320D01*
X0165914Y0491320D02*
X0165914Y0481280D01*
X0120186Y0494780D02*
X0120186Y0504820D01*
X0104595Y0504820D02*
X0104595Y0494780D01*
X0089005Y0494780D02*
X0089005Y0504820D01*
X0073414Y0504820D02*
X0073414Y0494780D01*
X0049320Y0302095D02*
X0039280Y0302095D01*
X0039280Y0286505D02*
X0049320Y0286505D01*
D19*
X0066300Y0370757D02*
X0066300Y0377843D01*
X0076300Y0377843D02*
X0076300Y0370757D01*
X0086300Y0370757D02*
X0086300Y0377843D01*
X0086300Y0400757D02*
X0086300Y0407843D01*
X0076300Y0407843D02*
X0076300Y0400757D01*
X0066300Y0400757D02*
X0066300Y0407843D01*
X0161300Y0408343D02*
X0161300Y0401257D01*
X0171300Y0401257D02*
X0171300Y0408343D01*
X0181300Y0408343D02*
X0181300Y0401257D01*
X0181300Y0378343D02*
X0181300Y0371257D01*
X0171300Y0371257D02*
X0171300Y0378343D01*
X0161300Y0378343D02*
X0161300Y0371257D01*
X0238800Y0361343D02*
X0238800Y0354257D01*
X0248800Y0354257D02*
X0248800Y0361343D01*
X0258800Y0361343D02*
X0258800Y0354257D01*
X0258800Y0384257D02*
X0258800Y0391343D01*
X0248800Y0391343D02*
X0248800Y0384257D01*
X0238800Y0384257D02*
X0238800Y0391343D01*
X0303257Y0443800D02*
X0310343Y0443800D01*
X0310343Y0453800D02*
X0303257Y0453800D01*
X0303257Y0463800D02*
X0310343Y0463800D01*
X0333257Y0463800D02*
X0340343Y0463800D01*
X0340343Y0453800D02*
X0333257Y0453800D01*
X0333257Y0443800D02*
X0340343Y0443800D01*
D20*
X0442457Y0190300D02*
X0452457Y0190300D01*
X0462143Y0190300D02*
X0472143Y0190300D01*
X0448143Y0149300D02*
X0438143Y0149300D01*
X0428457Y0149300D02*
X0418457Y0149300D01*
X0691048Y0180379D02*
X0749300Y0180379D01*
X0748300Y0180300D01*
X0776300Y0180300D01*
X0805505Y0180300D01*
X0776300Y0180300D02*
X0776300Y0139300D01*
X0799505Y0116095D01*
X0840300Y0116095D01*
X0840300Y0131686D02*
X0840300Y0284095D01*
X0840418Y0284213D01*
X0840505Y0286300D01*
X0839300Y0283300D01*
X0840418Y0284213D02*
X0757859Y0284213D01*
X0776300Y0234300D02*
X0776300Y0223300D01*
X0776300Y0180300D01*
X0840300Y0084914D02*
X0840300Y0046300D01*
X0829300Y0035300D01*
X0808300Y0035300D01*
X0750300Y0035300D01*
X0691631Y0035300D01*
X0691048Y0035883D01*
X0840505Y0286300D02*
X0840505Y0318300D01*
X0840505Y0358300D01*
X0840300Y0358505D01*
X0840300Y0380300D01*
X0823300Y0397300D01*
X0812300Y0397300D01*
X0840505Y0364300D02*
X0840505Y0358300D01*
D21*
X0691048Y0148883D03*
X0691048Y0035883D03*
D22*
X0691048Y0067379D03*
X0539473Y0078206D03*
X0539473Y0035883D03*
X0539473Y0148883D03*
X0539473Y0191206D03*
X0691048Y0180379D03*
X0454709Y0420040D03*
X0454709Y0446615D03*
D23*
X0812300Y0397300D03*
X0776300Y0223300D03*
X0750300Y0055300D03*
D24*
X0750300Y0035300D03*
X0756300Y0223300D03*
X0812300Y0417300D03*
D25*
X0757859Y0284213D03*
D26*
X0757859Y0305867D03*
D27*
X0008700Y0176817D02*
X0008700Y0007700D01*
X0166368Y0007700D01*
X0166058Y0008003D01*
X0166038Y0008051D01*
X0166001Y0008089D01*
X0165320Y0009733D01*
X0164621Y0011369D01*
X0164620Y0011421D01*
X0164600Y0011470D01*
X0164600Y0013250D01*
X0164580Y0015029D01*
X0164600Y0015077D01*
X0164600Y0018150D01*
X0047477Y0018150D01*
X0045033Y0019162D01*
X0043162Y0021033D01*
X0042150Y0023477D01*
X0042150Y0096123D01*
X0043162Y0098567D01*
X0045033Y0100438D01*
X0047477Y0101450D01*
X0077034Y0101450D01*
X0039611Y0138491D01*
X0039589Y0138501D01*
X0038311Y0139778D01*
X0037027Y0141049D01*
X0037018Y0141071D01*
X0037001Y0141089D01*
X0036309Y0142758D01*
X0035610Y0144423D01*
X0035609Y0144447D01*
X0035600Y0144470D01*
X0035600Y0146277D01*
X0035591Y0148083D01*
X0035600Y0148105D01*
X0035600Y0166130D01*
X0035800Y0166613D01*
X0035800Y0168028D01*
X0036801Y0169029D01*
X0037001Y0169511D01*
X0039589Y0172099D01*
X0040071Y0172299D01*
X0041072Y0173300D01*
X0042487Y0173300D01*
X0042970Y0173500D01*
X0046630Y0173500D01*
X0047113Y0173300D01*
X0048528Y0173300D01*
X0049529Y0172299D01*
X0049800Y0172187D01*
X0050071Y0172299D01*
X0051072Y0173300D01*
X0052487Y0173300D01*
X0052970Y0173500D01*
X0056630Y0173500D01*
X0057113Y0173300D01*
X0058528Y0173300D01*
X0059529Y0172299D01*
X0059912Y0172140D01*
X0061072Y0173300D01*
X0068528Y0173300D01*
X0073800Y0168028D01*
X0073800Y0160572D01*
X0068528Y0155300D01*
X0064000Y0155300D01*
X0064000Y0148970D01*
X0063800Y0148487D01*
X0063800Y0147072D01*
X0062799Y0146071D01*
X0062599Y0145589D01*
X0060608Y0143598D01*
X0098989Y0105609D01*
X0099011Y0105599D01*
X0100288Y0104322D01*
X0101573Y0103051D01*
X0101582Y0103029D01*
X0101599Y0103011D01*
X0102246Y0101450D01*
X0144600Y0101450D01*
X0144600Y0109630D01*
X0146001Y0113011D01*
X0158892Y0125902D01*
X0158893Y0125906D01*
X0160694Y0127707D01*
X0160698Y0127708D01*
X0161089Y0128099D01*
X0164470Y0129500D01*
X0166600Y0129500D01*
X0166600Y0141130D01*
X0168001Y0144511D01*
X0170589Y0147099D01*
X0170589Y0147099D01*
X0176783Y0153294D01*
X0173702Y0154570D01*
X0171170Y0157102D01*
X0170946Y0157643D01*
X0170501Y0158089D01*
X0169100Y0161470D01*
X0169100Y0174130D01*
X0170391Y0177246D01*
X0008700Y0176817D01*
X0008700Y0175538D02*
X0169683Y0175538D01*
X0169100Y0173939D02*
X0008700Y0173939D01*
X0008700Y0172341D02*
X0040113Y0172341D01*
X0038231Y0170742D02*
X0008700Y0170742D01*
X0008700Y0169144D02*
X0036848Y0169144D01*
X0035800Y0167545D02*
X0008700Y0167545D01*
X0008700Y0165947D02*
X0035600Y0165947D01*
X0035600Y0164348D02*
X0008700Y0164348D01*
X0008700Y0162750D02*
X0035600Y0162750D01*
X0035600Y0161151D02*
X0008700Y0161151D01*
X0008700Y0159553D02*
X0035600Y0159553D01*
X0035600Y0157954D02*
X0008700Y0157954D01*
X0008700Y0156356D02*
X0035600Y0156356D01*
X0035600Y0154757D02*
X0008700Y0154757D01*
X0008700Y0153159D02*
X0035600Y0153159D01*
X0035600Y0151560D02*
X0008700Y0151560D01*
X0008700Y0149962D02*
X0035600Y0149962D01*
X0035600Y0148363D02*
X0008700Y0148363D01*
X0008700Y0146765D02*
X0035597Y0146765D01*
X0035600Y0145166D02*
X0008700Y0145166D01*
X0008700Y0143568D02*
X0035969Y0143568D01*
X0036636Y0141969D02*
X0008700Y0141969D01*
X0008700Y0140370D02*
X0037713Y0140370D01*
X0039317Y0138772D02*
X0008700Y0138772D01*
X0008700Y0137173D02*
X0040943Y0137173D01*
X0042558Y0135575D02*
X0008700Y0135575D01*
X0008700Y0133976D02*
X0044173Y0133976D01*
X0045788Y0132378D02*
X0008700Y0132378D01*
X0008700Y0130779D02*
X0047403Y0130779D01*
X0049018Y0129181D02*
X0008700Y0129181D01*
X0008700Y0127582D02*
X0050633Y0127582D01*
X0052248Y0125984D02*
X0008700Y0125984D01*
X0008700Y0124385D02*
X0053863Y0124385D01*
X0055478Y0122787D02*
X0008700Y0122787D01*
X0008700Y0121188D02*
X0057093Y0121188D01*
X0058708Y0119590D02*
X0008700Y0119590D01*
X0008700Y0117991D02*
X0060323Y0117991D01*
X0061937Y0116393D02*
X0008700Y0116393D01*
X0008700Y0114794D02*
X0063552Y0114794D01*
X0065167Y0113196D02*
X0008700Y0113196D01*
X0008700Y0111597D02*
X0066782Y0111597D01*
X0068397Y0109999D02*
X0008700Y0109999D01*
X0008700Y0108400D02*
X0070012Y0108400D01*
X0071627Y0106802D02*
X0008700Y0106802D01*
X0008700Y0105203D02*
X0073242Y0105203D01*
X0074857Y0103605D02*
X0008700Y0103605D01*
X0008700Y0102006D02*
X0076472Y0102006D01*
X0089708Y0114794D02*
X0147784Y0114794D01*
X0149382Y0116393D02*
X0088093Y0116393D01*
X0086478Y0117991D02*
X0150981Y0117991D01*
X0152579Y0119590D02*
X0084864Y0119590D01*
X0083249Y0121188D02*
X0154178Y0121188D01*
X0155776Y0122787D02*
X0081634Y0122787D01*
X0080019Y0124385D02*
X0157375Y0124385D01*
X0158971Y0125984D02*
X0078404Y0125984D01*
X0076789Y0127582D02*
X0160569Y0127582D01*
X0163700Y0129181D02*
X0075174Y0129181D01*
X0073559Y0130779D02*
X0166600Y0130779D01*
X0166600Y0132378D02*
X0071944Y0132378D01*
X0070329Y0133976D02*
X0166600Y0133976D01*
X0166600Y0135575D02*
X0068714Y0135575D01*
X0067099Y0137173D02*
X0166600Y0137173D01*
X0166600Y0138772D02*
X0065484Y0138772D01*
X0063869Y0140370D02*
X0166600Y0140370D01*
X0166948Y0141969D02*
X0062254Y0141969D01*
X0060639Y0143568D02*
X0167610Y0143568D01*
X0168655Y0145166D02*
X0062177Y0145166D01*
X0063492Y0146765D02*
X0102613Y0146765D01*
X0102977Y0146400D02*
X0104800Y0146400D01*
X0106623Y0146400D01*
X0109200Y0148977D01*
X0109200Y0150800D01*
X0109200Y0152623D01*
X0106623Y0155200D01*
X0104800Y0155200D01*
X0104800Y0150800D01*
X0109200Y0150800D01*
X0104800Y0150800D01*
X0104800Y0150800D01*
X0104800Y0150800D01*
X0104800Y0146400D01*
X0104800Y0150800D01*
X0104800Y0150800D01*
X0104800Y0150800D01*
X0100400Y0150800D01*
X0100400Y0152623D01*
X0102977Y0155200D01*
X0104800Y0155200D01*
X0104800Y0150800D01*
X0100400Y0150800D01*
X0100400Y0148977D01*
X0102977Y0146400D01*
X0104800Y0146765D02*
X0104800Y0146765D01*
X0104800Y0148363D02*
X0104800Y0148363D01*
X0104800Y0149962D02*
X0104800Y0149962D01*
X0104800Y0151560D02*
X0104800Y0151560D01*
X0104800Y0153159D02*
X0104800Y0153159D01*
X0104800Y0154757D02*
X0104800Y0154757D01*
X0107065Y0154757D02*
X0173515Y0154757D01*
X0171916Y0156356D02*
X0069584Y0156356D01*
X0071182Y0157954D02*
X0170635Y0157954D01*
X0169894Y0159553D02*
X0072781Y0159553D01*
X0073800Y0161151D02*
X0169232Y0161151D01*
X0169100Y0162750D02*
X0073800Y0162750D01*
X0073800Y0164348D02*
X0169100Y0164348D01*
X0169100Y0165947D02*
X0073800Y0165947D01*
X0073800Y0167545D02*
X0169100Y0167545D01*
X0169100Y0169144D02*
X0072684Y0169144D01*
X0071086Y0170742D02*
X0169100Y0170742D01*
X0169100Y0172341D02*
X0069487Y0172341D01*
X0060113Y0172341D02*
X0059487Y0172341D01*
X0050113Y0172341D02*
X0049487Y0172341D01*
X0049728Y0186500D02*
X0053800Y0190572D01*
X0053800Y0198028D01*
X0053500Y0198328D01*
X0053500Y0275802D01*
X0053728Y0275863D01*
X0056332Y0277367D01*
X0058458Y0279493D01*
X0059961Y0282097D01*
X0060739Y0285001D01*
X0060739Y0288008D01*
X0059961Y0290913D01*
X0058458Y0293517D01*
X0056332Y0295643D01*
X0053728Y0297146D01*
X0050823Y0297924D01*
X0037777Y0297924D01*
X0034872Y0297146D01*
X0032268Y0295643D01*
X0030142Y0293517D01*
X0028639Y0290913D01*
X0027861Y0288008D01*
X0027861Y0285001D01*
X0028639Y0282097D01*
X0030142Y0279493D01*
X0032268Y0277367D01*
X0034872Y0275863D01*
X0035100Y0275802D01*
X0035100Y0192470D01*
X0035800Y0190780D01*
X0035800Y0190572D01*
X0035947Y0190425D01*
X0036501Y0189089D01*
X0039089Y0186501D01*
X0039090Y0186500D01*
X0024470Y0186500D01*
X0022780Y0185800D01*
X0008700Y0185800D01*
X0008700Y0542400D01*
X0371900Y0542400D01*
X0371900Y0447211D01*
X0359599Y0459511D01*
X0357011Y0462099D01*
X0353630Y0463500D01*
X0342909Y0463500D01*
X0342321Y0463743D01*
X0331279Y0463743D01*
X0327624Y0462230D01*
X0324827Y0459432D01*
X0323313Y0455778D01*
X0323313Y0451822D01*
X0324565Y0448800D01*
X0323313Y0445778D01*
X0323313Y0441822D01*
X0324392Y0439219D01*
X0320287Y0443324D01*
X0320287Y0445778D01*
X0319035Y0448800D01*
X0320287Y0451822D01*
X0320287Y0455778D01*
X0319035Y0458800D01*
X0320287Y0461822D01*
X0320287Y0465778D01*
X0318773Y0469432D01*
X0315976Y0472230D01*
X0312321Y0473743D01*
X0309867Y0473743D01*
X0307099Y0476511D01*
X0304511Y0479099D01*
X0296011Y0487599D01*
X0292630Y0489000D01*
X0286970Y0489000D01*
X0286487Y0488800D01*
X0285072Y0488800D01*
X0284071Y0487799D01*
X0283589Y0487599D01*
X0281001Y0485011D01*
X0280801Y0484529D01*
X0279800Y0483528D01*
X0279800Y0482113D01*
X0279600Y0481630D01*
X0279600Y0477970D01*
X0279800Y0477487D01*
X0279800Y0476072D01*
X0280801Y0475071D01*
X0281001Y0474589D01*
X0283589Y0472001D01*
X0284071Y0471801D01*
X0285072Y0470800D01*
X0285789Y0470800D01*
X0285501Y0470511D01*
X0284100Y0467130D01*
X0284100Y0449132D01*
X0282870Y0450362D01*
X0280430Y0451771D01*
X0277709Y0452500D01*
X0277200Y0452500D01*
X0277200Y0453170D01*
X0275769Y0456625D01*
X0275500Y0456894D01*
X0275500Y0496209D01*
X0274771Y0498930D01*
X0273362Y0501370D01*
X0271370Y0503362D01*
X0240870Y0533862D01*
X0238430Y0535271D01*
X0235709Y0536000D01*
X0116391Y0536000D01*
X0113670Y0535271D01*
X0111230Y0533862D01*
X0109238Y0531870D01*
X0096033Y0518665D01*
X0094624Y0516225D01*
X0094285Y0514958D01*
X0093413Y0515461D01*
X0090508Y0516239D01*
X0087501Y0516239D01*
X0084597Y0515461D01*
X0081993Y0513958D01*
X0081209Y0513174D01*
X0080426Y0513958D01*
X0077822Y0515461D01*
X0074918Y0516239D01*
X0071911Y0516239D01*
X0069006Y0515461D01*
X0066402Y0513958D01*
X0064276Y0511832D01*
X0062773Y0509228D01*
X0061994Y0506323D01*
X0061994Y0503512D01*
X0044238Y0485756D01*
X0042829Y0483316D01*
X0042100Y0480595D01*
X0042100Y0457394D01*
X0041831Y0457125D01*
X0040400Y0453670D01*
X0040400Y0449930D01*
X0041697Y0446800D01*
X0040400Y0443670D01*
X0040400Y0441000D01*
X0024970Y0441000D01*
X0024487Y0440800D01*
X0023072Y0440800D01*
X0022071Y0439799D01*
X0021589Y0439599D01*
X0019001Y0437011D01*
X0018801Y0436529D01*
X0017800Y0435528D01*
X0017800Y0434113D01*
X0017600Y0433630D01*
X0017600Y0429970D01*
X0017800Y0429487D01*
X0017800Y0428072D01*
X0018801Y0427071D01*
X0019001Y0426589D01*
X0021589Y0424001D01*
X0022071Y0423801D01*
X0023072Y0422800D01*
X0024487Y0422800D01*
X0024970Y0422600D01*
X0047447Y0422600D01*
X0047930Y0422400D01*
X0055600Y0422400D01*
X0055600Y0402891D01*
X0056329Y0400170D01*
X0056357Y0400122D01*
X0056357Y0398779D01*
X0057870Y0395124D01*
X0060668Y0392327D01*
X0064322Y0390813D01*
X0068278Y0390813D01*
X0071300Y0392065D01*
X0074322Y0390813D01*
X0078278Y0390813D01*
X0081300Y0392065D01*
X0084322Y0390813D01*
X0088278Y0390813D01*
X0091932Y0392327D01*
X0094730Y0395124D01*
X0096243Y0398779D01*
X0096243Y0409821D01*
X0094730Y0413476D01*
X0091932Y0416273D01*
X0088278Y0417787D01*
X0084322Y0417787D01*
X0081300Y0416535D01*
X0078278Y0417787D01*
X0077000Y0417787D01*
X0077000Y0431100D01*
X0110100Y0431100D01*
X0110100Y0429970D01*
X0110300Y0429487D01*
X0110300Y0428072D01*
X0111301Y0427071D01*
X0111501Y0426589D01*
X0114089Y0424001D01*
X0114571Y0423801D01*
X0115572Y0422800D01*
X0116987Y0422800D01*
X0117470Y0422600D01*
X0139447Y0422600D01*
X0139930Y0422400D01*
X0149670Y0422400D01*
X0150600Y0422785D01*
X0150600Y0403391D01*
X0151329Y0400670D01*
X0151357Y0400622D01*
X0151357Y0399279D01*
X0152870Y0395624D01*
X0155668Y0392827D01*
X0159322Y0391313D01*
X0163278Y0391313D01*
X0166300Y0392565D01*
X0169322Y0391313D01*
X0173278Y0391313D01*
X0176300Y0392565D01*
X0179322Y0391313D01*
X0183278Y0391313D01*
X0186932Y0392827D01*
X0189730Y0395624D01*
X0191243Y0399279D01*
X0191243Y0410321D01*
X0189730Y0413976D01*
X0186932Y0416773D01*
X0183278Y0418287D01*
X0179322Y0418287D01*
X0176300Y0417035D01*
X0173278Y0418287D01*
X0172000Y0418287D01*
X0172000Y0431100D01*
X0228100Y0431100D01*
X0228100Y0386391D01*
X0228829Y0383670D01*
X0228857Y0383622D01*
X0228857Y0382279D01*
X0230370Y0378624D01*
X0233168Y0375827D01*
X0236822Y0374313D01*
X0240778Y0374313D01*
X0243800Y0375565D01*
X0246822Y0374313D01*
X0250778Y0374313D01*
X0253800Y0375565D01*
X0256822Y0374313D01*
X0260778Y0374313D01*
X0264432Y0375827D01*
X0267230Y0378624D01*
X0268743Y0382279D01*
X0268743Y0393321D01*
X0267230Y0396976D01*
X0266605Y0397600D01*
X0267130Y0397600D01*
X0267613Y0397800D01*
X0269028Y0397800D01*
X0270029Y0398801D01*
X0270511Y0399001D01*
X0273099Y0401589D01*
X0273299Y0402071D01*
X0274300Y0403072D01*
X0274300Y0404487D01*
X0274500Y0404970D01*
X0274500Y0424706D01*
X0275100Y0425306D01*
X0275100Y0365891D01*
X0275829Y0363170D01*
X0277238Y0360730D01*
X0279230Y0358738D01*
X0294730Y0343238D01*
X0297170Y0341829D01*
X0299891Y0341100D01*
X0300007Y0341100D01*
X0300776Y0339768D01*
X0302902Y0337642D01*
X0305506Y0336139D01*
X0308411Y0335361D01*
X0311418Y0335361D01*
X0314322Y0336139D01*
X0315046Y0336557D01*
X0300001Y0321511D01*
X0298600Y0318130D01*
X0298600Y0306302D01*
X0296190Y0307300D01*
X0294113Y0307300D01*
X0293630Y0307500D01*
X0266970Y0307500D01*
X0263589Y0306099D01*
X0258589Y0301099D01*
X0256001Y0298511D01*
X0255801Y0298029D01*
X0254800Y0297028D01*
X0254800Y0295613D01*
X0254600Y0295130D01*
X0254600Y0250970D01*
X0254800Y0250487D01*
X0254800Y0249072D01*
X0255801Y0248071D01*
X0256001Y0247589D01*
X0258589Y0245001D01*
X0259071Y0244801D01*
X0260072Y0243800D01*
X0261487Y0243800D01*
X0261970Y0243600D01*
X0265630Y0243600D01*
X0266113Y0243800D01*
X0267528Y0243800D01*
X0268529Y0244801D01*
X0269011Y0245001D01*
X0271599Y0247589D01*
X0271799Y0248071D01*
X0272800Y0249072D01*
X0272800Y0250487D01*
X0273000Y0250970D01*
X0273000Y0289100D01*
X0293630Y0289100D01*
X0294113Y0289300D01*
X0296190Y0289300D01*
X0298750Y0290360D01*
X0298753Y0290322D01*
X0299100Y0289628D01*
X0299100Y0286095D01*
X0296190Y0287300D01*
X0294113Y0287300D01*
X0293630Y0287500D01*
X0289970Y0287500D01*
X0289487Y0287300D01*
X0287410Y0287300D01*
X0284102Y0285930D01*
X0281570Y0283398D01*
X0280200Y0280090D01*
X0280200Y0276510D01*
X0281570Y0273202D01*
X0282600Y0272172D01*
X0282600Y0234894D01*
X0280831Y0233125D01*
X0279400Y0229670D01*
X0279400Y0225930D01*
X0280831Y0222475D01*
X0283475Y0219831D01*
X0286930Y0218400D01*
X0296670Y0218400D01*
X0299100Y0219407D01*
X0299100Y0203517D01*
X0290394Y0194500D01*
X0208000Y0194500D01*
X0208000Y0225130D01*
X0206599Y0228511D01*
X0206208Y0228902D01*
X0206207Y0228906D01*
X0204406Y0230707D01*
X0204402Y0230708D01*
X0204011Y0231099D01*
X0200630Y0232500D01*
X0196970Y0232500D01*
X0193589Y0231099D01*
X0193198Y0230708D01*
X0193194Y0230707D01*
X0191393Y0228906D01*
X0191392Y0228902D01*
X0191001Y0228511D01*
X0190590Y0227521D01*
X0178599Y0239511D01*
X0178599Y0239511D01*
X0176011Y0242099D01*
X0172630Y0243500D01*
X0139520Y0243500D01*
X0127500Y0255119D01*
X0127500Y0289630D01*
X0127300Y0290113D01*
X0127300Y0290690D01*
X0126509Y0292600D01*
X0130091Y0292600D01*
X0129300Y0290690D01*
X0129300Y0281910D01*
X0130670Y0278602D01*
X0133202Y0276070D01*
X0136510Y0274700D01*
X0140090Y0274700D01*
X0141600Y0275325D01*
X0141600Y0271611D01*
X0140501Y0270511D01*
X0140301Y0270029D01*
X0139300Y0269028D01*
X0139300Y0267613D01*
X0139100Y0267130D01*
X0139100Y0263470D01*
X0139300Y0262987D01*
X0139300Y0261572D01*
X0140301Y0260571D01*
X0140501Y0260089D01*
X0143089Y0257501D01*
X0143571Y0257301D01*
X0144572Y0256300D01*
X0145987Y0256300D01*
X0146470Y0256100D01*
X0158630Y0256100D01*
X0162011Y0257501D01*
X0162402Y0257892D01*
X0162406Y0257893D01*
X0164207Y0259694D01*
X0164208Y0259698D01*
X0164599Y0260089D01*
X0166000Y0263470D01*
X0166000Y0267130D01*
X0164599Y0270511D01*
X0164208Y0270902D01*
X0164207Y0270906D01*
X0162406Y0272707D01*
X0162402Y0272708D01*
X0162011Y0273099D01*
X0160000Y0273933D01*
X0160000Y0296130D01*
X0158599Y0299511D01*
X0156011Y0302099D01*
X0148511Y0309599D01*
X0146661Y0310366D01*
X0147172Y0311600D01*
X0182489Y0311600D01*
X0208589Y0285501D01*
X0209071Y0285301D01*
X0210072Y0284300D01*
X0211487Y0284300D01*
X0211970Y0284100D01*
X0215630Y0284100D01*
X0216113Y0284300D01*
X0217528Y0284300D01*
X0218529Y0285301D01*
X0219011Y0285501D01*
X0221599Y0288089D01*
X0221799Y0288571D01*
X0222800Y0289572D01*
X0222800Y0290987D01*
X0223000Y0291470D01*
X0223000Y0295130D01*
X0222800Y0295613D01*
X0222800Y0297028D01*
X0221799Y0298029D01*
X0221599Y0298511D01*
X0191511Y0328599D01*
X0188130Y0330000D01*
X0143511Y0330000D01*
X0145611Y0332100D01*
X0257130Y0332100D01*
X0260511Y0333501D01*
X0264011Y0337001D01*
X0266599Y0339589D01*
X0268000Y0342970D01*
X0268000Y0350484D01*
X0268743Y0352279D01*
X0268743Y0363321D01*
X0267230Y0366976D01*
X0264432Y0369773D01*
X0260778Y0371287D01*
X0256822Y0371287D01*
X0253168Y0369773D01*
X0250370Y0366976D01*
X0248857Y0363321D01*
X0248857Y0361609D01*
X0248771Y0361930D01*
X0248743Y0361978D01*
X0248743Y0363321D01*
X0247230Y0366976D01*
X0244432Y0369773D01*
X0240778Y0371287D01*
X0236822Y0371287D01*
X0233168Y0369773D01*
X0232753Y0369358D01*
X0224500Y0377611D01*
X0224500Y0408630D01*
X0224300Y0409113D01*
X0224300Y0410528D01*
X0223299Y0411529D01*
X0223099Y0412011D01*
X0220511Y0414599D01*
X0220029Y0414799D01*
X0219028Y0415800D01*
X0217613Y0415800D01*
X0217130Y0416000D01*
X0213470Y0416000D01*
X0212987Y0415800D01*
X0211572Y0415800D01*
X0210571Y0414799D01*
X0210089Y0414599D01*
X0207501Y0412011D01*
X0207301Y0411529D01*
X0206300Y0410528D01*
X0206300Y0409113D01*
X0206100Y0408630D01*
X0206100Y0371970D01*
X0207501Y0368589D01*
X0224001Y0352089D01*
X0225589Y0350500D01*
X0185511Y0350500D01*
X0186511Y0351501D01*
X0189099Y0354089D01*
X0190500Y0357470D01*
X0190500Y0367484D01*
X0191243Y0369279D01*
X0191243Y0380321D01*
X0189730Y0383976D01*
X0186932Y0386773D01*
X0183278Y0388287D01*
X0179322Y0388287D01*
X0175668Y0386773D01*
X0172870Y0383976D01*
X0171357Y0380321D01*
X0171357Y0369279D01*
X0172100Y0367484D01*
X0172100Y0363111D01*
X0165989Y0357000D01*
X0129970Y0357000D01*
X0126589Y0355599D01*
X0124001Y0353011D01*
X0117500Y0346511D01*
X0117500Y0354130D01*
X0116099Y0357511D01*
X0096243Y0377367D01*
X0096243Y0379821D01*
X0094730Y0383476D01*
X0091932Y0386273D01*
X0088278Y0387787D01*
X0084322Y0387787D01*
X0080668Y0386273D01*
X0077870Y0383476D01*
X0076357Y0379821D01*
X0076357Y0368779D01*
X0077870Y0365124D01*
X0080668Y0362327D01*
X0084322Y0360813D01*
X0086776Y0360813D01*
X0099100Y0348489D01*
X0099100Y0314470D01*
X0099300Y0313987D01*
X0099300Y0311910D01*
X0100670Y0308602D01*
X0103202Y0306070D01*
X0104515Y0305526D01*
X0100501Y0301511D01*
X0099100Y0298130D01*
X0099100Y0297900D01*
X0096510Y0297900D01*
X0093202Y0296530D01*
X0090670Y0293998D01*
X0089300Y0290690D01*
X0089300Y0288613D01*
X0089100Y0288130D01*
X0089100Y0223382D01*
X0089069Y0221635D01*
X0089100Y0221555D01*
X0089100Y0221470D01*
X0089769Y0219855D01*
X0090409Y0218229D01*
X0090468Y0218167D01*
X0090501Y0218089D01*
X0091736Y0216853D01*
X0117968Y0189667D01*
X0118001Y0189589D01*
X0119237Y0188352D01*
X0120450Y0187095D01*
X0120528Y0187061D01*
X0120589Y0187001D01*
X0122204Y0186332D01*
X0123425Y0185800D01*
X0099820Y0185800D01*
X0098130Y0186500D01*
X0049728Y0186500D01*
X0049955Y0186727D02*
X0121248Y0186727D01*
X0119262Y0188326D02*
X0051554Y0188326D01*
X0053152Y0189924D02*
X0117720Y0189924D01*
X0116178Y0191523D02*
X0053800Y0191523D01*
X0053800Y0193121D02*
X0114635Y0193121D01*
X0113093Y0194720D02*
X0053800Y0194720D01*
X0053800Y0196318D02*
X0111550Y0196318D01*
X0110008Y0197917D02*
X0053800Y0197917D01*
X0053500Y0199515D02*
X0108466Y0199515D01*
X0106923Y0201114D02*
X0053500Y0201114D01*
X0053500Y0202712D02*
X0105381Y0202712D01*
X0103838Y0204311D02*
X0053500Y0204311D01*
X0053500Y0205909D02*
X0102296Y0205909D01*
X0100753Y0207508D02*
X0053500Y0207508D01*
X0053500Y0209106D02*
X0099211Y0209106D01*
X0097669Y0210705D02*
X0053500Y0210705D01*
X0053500Y0212303D02*
X0096126Y0212303D01*
X0094584Y0213902D02*
X0053500Y0213902D01*
X0053500Y0215501D02*
X0093041Y0215501D01*
X0091490Y0217099D02*
X0053500Y0217099D01*
X0053500Y0218698D02*
X0090224Y0218698D01*
X0089586Y0220296D02*
X0053500Y0220296D01*
X0053500Y0221895D02*
X0089073Y0221895D01*
X0089100Y0223493D02*
X0053500Y0223493D01*
X0053500Y0225092D02*
X0089100Y0225092D01*
X0089100Y0226690D02*
X0053500Y0226690D01*
X0053500Y0228289D02*
X0089100Y0228289D01*
X0089100Y0229887D02*
X0053500Y0229887D01*
X0053500Y0231486D02*
X0089100Y0231486D01*
X0089100Y0233084D02*
X0053500Y0233084D01*
X0053500Y0234683D02*
X0089100Y0234683D01*
X0089100Y0236281D02*
X0053500Y0236281D01*
X0053500Y0237880D02*
X0089100Y0237880D01*
X0089100Y0239478D02*
X0053500Y0239478D01*
X0053500Y0241077D02*
X0089100Y0241077D01*
X0089100Y0242675D02*
X0053500Y0242675D01*
X0053500Y0244274D02*
X0089100Y0244274D01*
X0089100Y0245872D02*
X0053500Y0245872D01*
X0053500Y0247471D02*
X0089100Y0247471D01*
X0089100Y0249069D02*
X0053500Y0249069D01*
X0053500Y0250668D02*
X0089100Y0250668D01*
X0089100Y0252266D02*
X0053500Y0252266D01*
X0053500Y0253865D02*
X0089100Y0253865D01*
X0089100Y0255463D02*
X0053500Y0255463D01*
X0053500Y0257062D02*
X0089100Y0257062D01*
X0089100Y0258660D02*
X0053500Y0258660D01*
X0053500Y0260259D02*
X0089100Y0260259D01*
X0089100Y0261857D02*
X0053500Y0261857D01*
X0053500Y0263456D02*
X0089100Y0263456D01*
X0089100Y0265054D02*
X0053500Y0265054D01*
X0053500Y0266653D02*
X0089100Y0266653D01*
X0089100Y0268251D02*
X0053500Y0268251D01*
X0053500Y0269850D02*
X0089100Y0269850D01*
X0089100Y0271448D02*
X0053500Y0271448D01*
X0053500Y0273047D02*
X0089100Y0273047D01*
X0089100Y0274645D02*
X0053500Y0274645D01*
X0054387Y0276244D02*
X0089100Y0276244D01*
X0089100Y0277842D02*
X0056807Y0277842D01*
X0058406Y0279441D02*
X0089100Y0279441D01*
X0089100Y0281039D02*
X0059351Y0281039D01*
X0060106Y0282638D02*
X0089100Y0282638D01*
X0089100Y0284237D02*
X0060534Y0284237D01*
X0060739Y0285835D02*
X0089100Y0285835D01*
X0089100Y0287434D02*
X0060739Y0287434D01*
X0060465Y0289032D02*
X0089300Y0289032D01*
X0089300Y0290631D02*
X0060037Y0290631D01*
X0059201Y0292229D02*
X0089937Y0292229D01*
X0090600Y0293828D02*
X0058147Y0293828D01*
X0056548Y0295426D02*
X0092098Y0295426D01*
X0094396Y0297025D02*
X0053938Y0297025D01*
X0034662Y0297025D02*
X0008700Y0297025D01*
X0008700Y0298623D02*
X0099304Y0298623D01*
X0099966Y0300222D02*
X0008700Y0300222D01*
X0008700Y0301820D02*
X0100809Y0301820D01*
X0102408Y0303419D02*
X0008700Y0303419D01*
X0008700Y0305017D02*
X0104006Y0305017D01*
X0102656Y0306616D02*
X0008700Y0306616D01*
X0008700Y0308214D02*
X0101058Y0308214D01*
X0100169Y0309813D02*
X0008700Y0309813D01*
X0008700Y0311411D02*
X0099507Y0311411D01*
X0099300Y0313010D02*
X0008700Y0313010D01*
X0008700Y0314608D02*
X0099100Y0314608D01*
X0099100Y0316207D02*
X0008700Y0316207D01*
X0008700Y0317805D02*
X0099100Y0317805D01*
X0099100Y0319404D02*
X0008700Y0319404D01*
X0008700Y0321002D02*
X0099100Y0321002D01*
X0099100Y0322601D02*
X0008700Y0322601D01*
X0008700Y0324199D02*
X0099100Y0324199D01*
X0099100Y0325798D02*
X0008700Y0325798D01*
X0008700Y0327396D02*
X0099100Y0327396D01*
X0099100Y0328995D02*
X0008700Y0328995D01*
X0008700Y0330593D02*
X0099100Y0330593D01*
X0099100Y0332192D02*
X0008700Y0332192D01*
X0008700Y0333790D02*
X0099100Y0333790D01*
X0099100Y0335389D02*
X0008700Y0335389D01*
X0008700Y0336987D02*
X0099100Y0336987D01*
X0099100Y0338586D02*
X0008700Y0338586D01*
X0008700Y0340184D02*
X0099100Y0340184D01*
X0099100Y0341783D02*
X0008700Y0341783D01*
X0008700Y0343381D02*
X0099100Y0343381D01*
X0099100Y0344980D02*
X0008700Y0344980D01*
X0008700Y0346578D02*
X0099100Y0346578D01*
X0099100Y0348177D02*
X0008700Y0348177D01*
X0008700Y0349775D02*
X0097814Y0349775D01*
X0096215Y0351374D02*
X0008700Y0351374D01*
X0008700Y0352972D02*
X0094617Y0352972D01*
X0093018Y0354571D02*
X0008700Y0354571D01*
X0008700Y0356170D02*
X0091420Y0356170D01*
X0089821Y0357768D02*
X0008700Y0357768D01*
X0008700Y0359367D02*
X0088223Y0359367D01*
X0083956Y0360965D02*
X0068644Y0360965D01*
X0068278Y0360813D02*
X0071932Y0362327D01*
X0074730Y0365124D01*
X0076243Y0368779D01*
X0076243Y0379821D01*
X0074730Y0383476D01*
X0071932Y0386273D01*
X0068278Y0387787D01*
X0064322Y0387787D01*
X0060668Y0386273D01*
X0057895Y0383500D01*
X0036111Y0383500D01*
X0036000Y0383611D01*
X0036000Y0383630D01*
X0035800Y0384113D01*
X0035800Y0385528D01*
X0034799Y0386529D01*
X0034599Y0387011D01*
X0032011Y0389599D01*
X0031529Y0389799D01*
X0030528Y0390800D01*
X0029113Y0390800D01*
X0028630Y0391000D01*
X0024970Y0391000D01*
X0024487Y0390800D01*
X0023072Y0390800D01*
X0022071Y0389799D01*
X0021589Y0389599D01*
X0019001Y0387011D01*
X0018801Y0386529D01*
X0017800Y0385528D01*
X0017800Y0384113D01*
X0017600Y0383630D01*
X0017600Y0377970D01*
X0019001Y0374589D01*
X0024501Y0369089D01*
X0027089Y0366501D01*
X0030470Y0365100D01*
X0057895Y0365100D01*
X0060668Y0362327D01*
X0064322Y0360813D01*
X0068278Y0360813D01*
X0072169Y0362564D02*
X0080431Y0362564D01*
X0078833Y0364162D02*
X0073767Y0364162D01*
X0074993Y0365761D02*
X0077607Y0365761D01*
X0076945Y0367359D02*
X0075655Y0367359D01*
X0076243Y0368958D02*
X0076357Y0368958D01*
X0076357Y0370556D02*
X0076243Y0370556D01*
X0076243Y0372155D02*
X0076357Y0372155D01*
X0076357Y0373753D02*
X0076243Y0373753D01*
X0076243Y0375352D02*
X0076357Y0375352D01*
X0076357Y0376950D02*
X0076243Y0376950D01*
X0076243Y0378549D02*
X0076357Y0378549D01*
X0076492Y0380147D02*
X0076108Y0380147D01*
X0075446Y0381746D02*
X0077154Y0381746D01*
X0077816Y0383344D02*
X0074784Y0383344D01*
X0073263Y0384943D02*
X0079337Y0384943D01*
X0081316Y0386541D02*
X0071284Y0386541D01*
X0069541Y0391337D02*
X0073059Y0391337D01*
X0079541Y0391337D02*
X0083059Y0391337D01*
X0089541Y0391337D02*
X0159266Y0391337D01*
X0159176Y0389738D02*
X0206100Y0389738D01*
X0206100Y0388140D02*
X0183632Y0388140D01*
X0183334Y0391337D02*
X0206100Y0391337D01*
X0206100Y0392935D02*
X0187041Y0392935D01*
X0188639Y0394534D02*
X0206100Y0394534D01*
X0206100Y0396132D02*
X0189940Y0396132D01*
X0190602Y0397731D02*
X0206100Y0397731D01*
X0206100Y0399329D02*
X0191243Y0399329D01*
X0191243Y0400928D02*
X0206100Y0400928D01*
X0206100Y0402526D02*
X0191243Y0402526D01*
X0191243Y0404125D02*
X0206100Y0404125D01*
X0206100Y0405723D02*
X0191243Y0405723D01*
X0191243Y0407322D02*
X0206100Y0407322D01*
X0206220Y0408920D02*
X0191243Y0408920D01*
X0191161Y0410519D02*
X0206300Y0410519D01*
X0207607Y0412117D02*
X0190499Y0412117D01*
X0189837Y0413716D02*
X0209205Y0413716D01*
X0211087Y0415314D02*
X0188391Y0415314D01*
X0186594Y0416913D02*
X0228100Y0416913D01*
X0228100Y0418511D02*
X0172000Y0418511D01*
X0172000Y0420110D02*
X0228100Y0420110D01*
X0228100Y0421708D02*
X0172000Y0421708D01*
X0172000Y0423307D02*
X0228100Y0423307D01*
X0228100Y0424905D02*
X0172000Y0424905D01*
X0172000Y0426504D02*
X0228100Y0426504D01*
X0228100Y0428103D02*
X0172000Y0428103D01*
X0172000Y0429701D02*
X0228100Y0429701D01*
X0228100Y0415314D02*
X0219513Y0415314D01*
X0221395Y0413716D02*
X0228100Y0413716D01*
X0228100Y0412117D02*
X0222993Y0412117D01*
X0224300Y0410519D02*
X0228100Y0410519D01*
X0228100Y0408920D02*
X0224380Y0408920D01*
X0224500Y0407322D02*
X0228100Y0407322D01*
X0228100Y0405723D02*
X0224500Y0405723D01*
X0224500Y0404125D02*
X0228100Y0404125D01*
X0228100Y0402526D02*
X0224500Y0402526D01*
X0224500Y0400928D02*
X0228100Y0400928D01*
X0228100Y0399329D02*
X0224500Y0399329D01*
X0224500Y0397731D02*
X0228100Y0397731D01*
X0228100Y0396132D02*
X0224500Y0396132D01*
X0224500Y0394534D02*
X0228100Y0394534D01*
X0228100Y0392935D02*
X0224500Y0392935D01*
X0224500Y0391337D02*
X0228100Y0391337D01*
X0228100Y0389738D02*
X0224500Y0389738D01*
X0224500Y0388140D02*
X0228100Y0388140D01*
X0228100Y0386541D02*
X0224500Y0386541D01*
X0224500Y0384943D02*
X0228488Y0384943D01*
X0228857Y0383344D02*
X0224500Y0383344D01*
X0224500Y0381746D02*
X0229078Y0381746D01*
X0229740Y0380147D02*
X0224500Y0380147D01*
X0224500Y0378549D02*
X0230446Y0378549D01*
X0232045Y0376950D02*
X0225161Y0376950D01*
X0226759Y0375352D02*
X0234316Y0375352D01*
X0235059Y0370556D02*
X0231555Y0370556D01*
X0229956Y0372155D02*
X0275100Y0372155D01*
X0275100Y0373753D02*
X0228358Y0373753D01*
X0242541Y0370556D02*
X0255059Y0370556D01*
X0252352Y0368958D02*
X0245248Y0368958D01*
X0246846Y0367359D02*
X0250754Y0367359D01*
X0249867Y0365761D02*
X0247733Y0365761D01*
X0248395Y0364162D02*
X0249205Y0364162D01*
X0248857Y0362564D02*
X0248743Y0362564D01*
X0262541Y0370556D02*
X0275100Y0370556D01*
X0275100Y0368958D02*
X0265248Y0368958D01*
X0266846Y0367359D02*
X0275100Y0367359D01*
X0275135Y0365761D02*
X0267733Y0365761D01*
X0268395Y0364162D02*
X0275563Y0364162D01*
X0276179Y0362564D02*
X0268743Y0362564D01*
X0268743Y0360965D02*
X0277102Y0360965D01*
X0278601Y0359367D02*
X0268743Y0359367D01*
X0268743Y0357768D02*
X0280200Y0357768D01*
X0281798Y0356170D02*
X0268743Y0356170D01*
X0268743Y0354571D02*
X0283397Y0354571D01*
X0284995Y0352972D02*
X0268743Y0352972D01*
X0268368Y0351374D02*
X0286594Y0351374D01*
X0288192Y0349775D02*
X0268000Y0349775D01*
X0268000Y0348177D02*
X0289791Y0348177D01*
X0291389Y0346578D02*
X0268000Y0346578D01*
X0268000Y0344980D02*
X0292988Y0344980D01*
X0294586Y0343381D02*
X0268000Y0343381D01*
X0267508Y0341783D02*
X0297343Y0341783D01*
X0300536Y0340184D02*
X0266846Y0340184D01*
X0265597Y0338586D02*
X0301959Y0338586D01*
X0304037Y0336987D02*
X0263998Y0336987D01*
X0262400Y0335389D02*
X0308305Y0335389D01*
X0311523Y0335389D02*
X0313878Y0335389D01*
X0312280Y0333790D02*
X0260801Y0333790D01*
X0257352Y0332192D02*
X0310681Y0332192D01*
X0309083Y0330593D02*
X0144104Y0330593D01*
X0122363Y0351374D02*
X0117500Y0351374D01*
X0117500Y0352972D02*
X0123962Y0352972D01*
X0125560Y0354571D02*
X0117317Y0354571D01*
X0116655Y0356170D02*
X0127965Y0356170D01*
X0120765Y0349775D02*
X0117500Y0349775D01*
X0117500Y0348177D02*
X0119166Y0348177D01*
X0117568Y0346578D02*
X0117500Y0346578D01*
X0115843Y0357768D02*
X0166757Y0357768D01*
X0168356Y0359367D02*
X0114244Y0359367D01*
X0112646Y0360965D02*
X0169954Y0360965D01*
X0171553Y0362564D02*
X0166296Y0362564D01*
X0166932Y0362827D02*
X0169730Y0365624D01*
X0171243Y0369279D01*
X0171243Y0380321D01*
X0169730Y0383976D01*
X0166932Y0386773D01*
X0163278Y0388287D01*
X0160824Y0388287D01*
X0159511Y0389599D01*
X0156130Y0391000D01*
X0117470Y0391000D01*
X0116987Y0390800D01*
X0115572Y0390800D01*
X0114571Y0389799D01*
X0114089Y0389599D01*
X0111501Y0387011D01*
X0111301Y0386529D01*
X0110300Y0385528D01*
X0110300Y0384113D01*
X0110100Y0383630D01*
X0110100Y0379970D01*
X0110300Y0379487D01*
X0110300Y0378072D01*
X0111301Y0377071D01*
X0111501Y0376589D01*
X0114089Y0374001D01*
X0114571Y0373801D01*
X0115572Y0372800D01*
X0116987Y0372800D01*
X0117470Y0372600D01*
X0150489Y0372600D01*
X0151357Y0371733D01*
X0151357Y0369279D01*
X0152870Y0365624D01*
X0155668Y0362827D01*
X0159322Y0361313D01*
X0163278Y0361313D01*
X0166932Y0362827D01*
X0168267Y0364162D02*
X0172100Y0364162D01*
X0172100Y0365761D02*
X0169786Y0365761D01*
X0170448Y0367359D02*
X0172100Y0367359D01*
X0171490Y0368958D02*
X0171110Y0368958D01*
X0171243Y0370556D02*
X0171357Y0370556D01*
X0171357Y0372155D02*
X0171243Y0372155D01*
X0171243Y0373753D02*
X0171357Y0373753D01*
X0171357Y0375352D02*
X0171243Y0375352D01*
X0171243Y0376950D02*
X0171357Y0376950D01*
X0171357Y0378549D02*
X0171243Y0378549D01*
X0171243Y0380147D02*
X0171357Y0380147D01*
X0171947Y0381746D02*
X0170653Y0381746D01*
X0169991Y0383344D02*
X0172609Y0383344D01*
X0173837Y0384943D02*
X0168763Y0384943D01*
X0167164Y0386541D02*
X0175436Y0386541D01*
X0178968Y0388140D02*
X0163632Y0388140D01*
X0163334Y0391337D02*
X0169266Y0391337D01*
X0173334Y0391337D02*
X0179266Y0391337D01*
X0187164Y0386541D02*
X0206100Y0386541D01*
X0206100Y0384943D02*
X0188763Y0384943D01*
X0189991Y0383344D02*
X0206100Y0383344D01*
X0206100Y0381746D02*
X0190653Y0381746D01*
X0191243Y0380147D02*
X0206100Y0380147D01*
X0206100Y0378549D02*
X0191243Y0378549D01*
X0191243Y0376950D02*
X0206100Y0376950D01*
X0206100Y0375352D02*
X0191243Y0375352D01*
X0191243Y0373753D02*
X0206100Y0373753D01*
X0206100Y0372155D02*
X0191243Y0372155D01*
X0191243Y0370556D02*
X0206686Y0370556D01*
X0207348Y0368958D02*
X0191110Y0368958D01*
X0190500Y0367359D02*
X0208730Y0367359D01*
X0210329Y0365761D02*
X0190500Y0365761D01*
X0190500Y0364162D02*
X0211927Y0364162D01*
X0213526Y0362564D02*
X0190500Y0362564D01*
X0190500Y0360965D02*
X0215124Y0360965D01*
X0216723Y0359367D02*
X0190500Y0359367D01*
X0190500Y0357768D02*
X0218321Y0357768D01*
X0219920Y0356170D02*
X0189961Y0356170D01*
X0189299Y0354571D02*
X0221518Y0354571D01*
X0223117Y0352972D02*
X0187983Y0352972D01*
X0186385Y0351374D02*
X0224715Y0351374D01*
X0194313Y0325798D02*
X0304287Y0325798D01*
X0305886Y0327396D02*
X0192714Y0327396D01*
X0190557Y0328995D02*
X0307484Y0328995D01*
X0302689Y0324199D02*
X0195911Y0324199D01*
X0197510Y0322601D02*
X0301090Y0322601D01*
X0299790Y0321002D02*
X0199108Y0321002D01*
X0200707Y0319404D02*
X0299128Y0319404D01*
X0298600Y0317805D02*
X0202306Y0317805D01*
X0203904Y0316207D02*
X0298600Y0316207D01*
X0298600Y0314608D02*
X0205503Y0314608D01*
X0207101Y0313010D02*
X0298600Y0313010D01*
X0298600Y0311411D02*
X0208700Y0311411D01*
X0210298Y0309813D02*
X0298600Y0309813D01*
X0298600Y0308214D02*
X0211897Y0308214D01*
X0213495Y0306616D02*
X0264835Y0306616D01*
X0262506Y0305017D02*
X0215094Y0305017D01*
X0216692Y0303419D02*
X0260908Y0303419D01*
X0259309Y0301820D02*
X0218291Y0301820D01*
X0219889Y0300222D02*
X0257711Y0300222D01*
X0256112Y0298623D02*
X0221488Y0298623D01*
X0222800Y0297025D02*
X0254800Y0297025D01*
X0254723Y0295426D02*
X0222877Y0295426D01*
X0223000Y0293828D02*
X0254600Y0293828D01*
X0254600Y0292229D02*
X0223000Y0292229D01*
X0222800Y0290631D02*
X0254600Y0290631D01*
X0254600Y0289032D02*
X0222260Y0289032D01*
X0220944Y0287434D02*
X0254600Y0287434D01*
X0254600Y0285835D02*
X0219346Y0285835D01*
X0215960Y0284237D02*
X0254600Y0284237D01*
X0254600Y0282638D02*
X0160000Y0282638D01*
X0160000Y0284237D02*
X0211640Y0284237D01*
X0208254Y0285835D02*
X0160000Y0285835D01*
X0160000Y0287434D02*
X0206656Y0287434D01*
X0205057Y0289032D02*
X0160000Y0289032D01*
X0160000Y0290631D02*
X0203459Y0290631D01*
X0201860Y0292229D02*
X0160000Y0292229D01*
X0160000Y0293828D02*
X0200262Y0293828D01*
X0198663Y0295426D02*
X0160000Y0295426D01*
X0159629Y0297025D02*
X0197065Y0297025D01*
X0195466Y0298623D02*
X0158967Y0298623D01*
X0157889Y0300222D02*
X0193868Y0300222D01*
X0192269Y0301820D02*
X0156291Y0301820D01*
X0154692Y0303419D02*
X0190671Y0303419D01*
X0189072Y0305017D02*
X0153094Y0305017D01*
X0151495Y0306616D02*
X0187474Y0306616D01*
X0185875Y0308214D02*
X0149897Y0308214D01*
X0147996Y0309813D02*
X0184277Y0309813D01*
X0182678Y0311411D02*
X0147093Y0311411D01*
X0129937Y0292229D02*
X0126663Y0292229D01*
X0127300Y0290631D02*
X0129300Y0290631D01*
X0129300Y0289032D02*
X0127500Y0289032D01*
X0127500Y0287434D02*
X0129300Y0287434D01*
X0129300Y0285835D02*
X0127500Y0285835D01*
X0127500Y0284237D02*
X0129300Y0284237D01*
X0129300Y0282638D02*
X0127500Y0282638D01*
X0127500Y0281039D02*
X0129660Y0281039D01*
X0130323Y0279441D02*
X0127500Y0279441D01*
X0127500Y0277842D02*
X0131430Y0277842D01*
X0133028Y0276244D02*
X0127500Y0276244D01*
X0127500Y0274645D02*
X0141600Y0274645D01*
X0141600Y0273047D02*
X0127500Y0273047D01*
X0127500Y0271448D02*
X0141438Y0271448D01*
X0140122Y0269850D02*
X0127500Y0269850D01*
X0127500Y0268251D02*
X0139300Y0268251D01*
X0139100Y0266653D02*
X0127500Y0266653D01*
X0127500Y0265054D02*
X0139100Y0265054D01*
X0139106Y0263456D02*
X0127500Y0263456D01*
X0127500Y0261857D02*
X0139300Y0261857D01*
X0140430Y0260259D02*
X0127500Y0260259D01*
X0127500Y0258660D02*
X0141929Y0258660D01*
X0143810Y0257062D02*
X0127500Y0257062D01*
X0127500Y0255463D02*
X0254600Y0255463D01*
X0254600Y0253865D02*
X0128798Y0253865D01*
X0130451Y0252266D02*
X0254600Y0252266D01*
X0254725Y0250668D02*
X0132105Y0250668D01*
X0133758Y0249069D02*
X0254803Y0249069D01*
X0256118Y0247471D02*
X0135412Y0247471D01*
X0137066Y0245872D02*
X0257717Y0245872D01*
X0259598Y0244274D02*
X0138719Y0244274D01*
X0160952Y0257062D02*
X0254600Y0257062D01*
X0254600Y0258660D02*
X0163173Y0258660D01*
X0164670Y0260259D02*
X0254600Y0260259D01*
X0254600Y0261857D02*
X0165332Y0261857D01*
X0165994Y0263456D02*
X0254600Y0263456D01*
X0254600Y0265054D02*
X0166000Y0265054D01*
X0166000Y0266653D02*
X0254600Y0266653D01*
X0254600Y0268251D02*
X0165535Y0268251D01*
X0164873Y0269850D02*
X0254600Y0269850D01*
X0254600Y0271448D02*
X0163665Y0271448D01*
X0162064Y0273047D02*
X0254600Y0273047D01*
X0254600Y0274645D02*
X0160000Y0274645D01*
X0160000Y0276244D02*
X0254600Y0276244D01*
X0254600Y0277842D02*
X0160000Y0277842D01*
X0160000Y0279441D02*
X0254600Y0279441D01*
X0254600Y0281039D02*
X0160000Y0281039D01*
X0174621Y0242675D02*
X0282600Y0242675D01*
X0282600Y0241077D02*
X0177034Y0241077D01*
X0178633Y0239478D02*
X0282600Y0239478D01*
X0282600Y0237880D02*
X0180231Y0237880D01*
X0181830Y0236281D02*
X0282600Y0236281D01*
X0282389Y0234683D02*
X0183428Y0234683D01*
X0185027Y0233084D02*
X0280814Y0233084D01*
X0280152Y0231486D02*
X0203079Y0231486D01*
X0205226Y0229887D02*
X0279490Y0229887D01*
X0279400Y0228289D02*
X0206692Y0228289D01*
X0207354Y0226690D02*
X0279400Y0226690D01*
X0279747Y0225092D02*
X0208000Y0225092D01*
X0208000Y0223493D02*
X0280409Y0223493D01*
X0281412Y0221895D02*
X0208000Y0221895D01*
X0208000Y0220296D02*
X0283010Y0220296D01*
X0286212Y0218698D02*
X0208000Y0218698D01*
X0208000Y0217099D02*
X0299100Y0217099D01*
X0299100Y0215501D02*
X0208000Y0215501D01*
X0208000Y0213902D02*
X0299100Y0213902D01*
X0299100Y0212303D02*
X0208000Y0212303D01*
X0208000Y0210705D02*
X0299100Y0210705D01*
X0299100Y0209106D02*
X0208000Y0209106D01*
X0208000Y0207508D02*
X0299100Y0207508D01*
X0299100Y0205909D02*
X0208000Y0205909D01*
X0208000Y0204311D02*
X0299100Y0204311D01*
X0298324Y0202712D02*
X0208000Y0202712D01*
X0208000Y0201114D02*
X0296780Y0201114D01*
X0295237Y0199515D02*
X0208000Y0199515D01*
X0208000Y0197917D02*
X0293693Y0197917D01*
X0292150Y0196318D02*
X0208000Y0196318D01*
X0208000Y0194720D02*
X0290607Y0194720D01*
X0307571Y0185800D02*
X0314862Y0193352D01*
X0316099Y0194589D01*
X0316131Y0194666D01*
X0316190Y0194726D01*
X0316831Y0196354D01*
X0317500Y0197970D01*
X0317500Y0198054D01*
X0317531Y0198132D01*
X0317500Y0199881D01*
X0317500Y0236600D01*
X0347111Y0236600D01*
X0348511Y0238001D01*
X0348511Y0238001D01*
X0351099Y0240589D01*
X0352500Y0241989D01*
X0352500Y0249611D01*
X0351099Y0251011D01*
X0351099Y0251011D01*
X0348511Y0253599D01*
X0347111Y0255000D01*
X0317500Y0255000D01*
X0317500Y0279100D01*
X0323630Y0279100D01*
X0324113Y0279300D01*
X0326190Y0279300D01*
X0329498Y0280670D01*
X0332030Y0283202D01*
X0333400Y0286510D01*
X0333400Y0289100D01*
X0346562Y0289100D01*
X0347182Y0288742D01*
X0349764Y0288050D01*
X0352436Y0288050D01*
X0355018Y0288742D01*
X0357332Y0290078D01*
X0359222Y0291968D01*
X0360558Y0294282D01*
X0361250Y0296864D01*
X0361250Y0299536D01*
X0360558Y0302118D01*
X0359222Y0304432D01*
X0357332Y0306322D01*
X0355018Y0307658D01*
X0352436Y0308350D01*
X0349764Y0308350D01*
X0347182Y0307658D01*
X0346908Y0307500D01*
X0319970Y0307500D01*
X0319487Y0307300D01*
X0317410Y0307300D01*
X0317000Y0307130D01*
X0317000Y0312489D01*
X0331011Y0326501D01*
X0333599Y0329089D01*
X0335000Y0332470D01*
X0335000Y0340387D01*
X0336146Y0342372D01*
X0336924Y0345277D01*
X0336924Y0358323D01*
X0336146Y0361228D01*
X0334705Y0363724D01*
X0334705Y0426925D01*
X0333304Y0430307D01*
X0328676Y0434935D01*
X0331279Y0433857D01*
X0333733Y0433857D01*
X0345600Y0421989D01*
X0345600Y0398970D01*
X0345800Y0398487D01*
X0345800Y0397072D01*
X0346801Y0396071D01*
X0347001Y0395589D01*
X0349589Y0393001D01*
X0350071Y0392801D01*
X0350681Y0392191D01*
X0348886Y0390397D01*
X0347486Y0387016D01*
X0347486Y0363724D01*
X0346044Y0361228D01*
X0345266Y0358323D01*
X0345266Y0345277D01*
X0346044Y0342372D01*
X0347548Y0339768D01*
X0349674Y0337642D01*
X0352278Y0336139D01*
X0355182Y0335361D01*
X0358189Y0335361D01*
X0361094Y0336139D01*
X0363698Y0337642D01*
X0365824Y0339768D01*
X0367327Y0342372D01*
X0368105Y0345277D01*
X0368105Y0358323D01*
X0367327Y0361228D01*
X0365886Y0363724D01*
X0365886Y0381375D01*
X0371511Y0387001D01*
X0371900Y0387389D01*
X0371900Y0185800D01*
X0307571Y0185800D01*
X0308466Y0186727D02*
X0371900Y0186727D01*
X0371900Y0188326D02*
X0310010Y0188326D01*
X0311553Y0189924D02*
X0371900Y0189924D01*
X0371900Y0191523D02*
X0313097Y0191523D01*
X0314640Y0193121D02*
X0371900Y0193121D01*
X0371900Y0194720D02*
X0316183Y0194720D01*
X0316817Y0196318D02*
X0371900Y0196318D01*
X0371900Y0197917D02*
X0317478Y0197917D01*
X0317506Y0199515D02*
X0371900Y0199515D01*
X0371900Y0201114D02*
X0317500Y0201114D01*
X0317500Y0202712D02*
X0371900Y0202712D01*
X0371900Y0204311D02*
X0317500Y0204311D01*
X0317500Y0205909D02*
X0371900Y0205909D01*
X0371900Y0207508D02*
X0317500Y0207508D01*
X0317500Y0209106D02*
X0371900Y0209106D01*
X0371900Y0210705D02*
X0317500Y0210705D01*
X0317500Y0212303D02*
X0371900Y0212303D01*
X0371900Y0213902D02*
X0317500Y0213902D01*
X0317500Y0215501D02*
X0371900Y0215501D01*
X0371900Y0217099D02*
X0317500Y0217099D01*
X0317500Y0218698D02*
X0371900Y0218698D01*
X0371900Y0220296D02*
X0317500Y0220296D01*
X0317500Y0221895D02*
X0371900Y0221895D01*
X0371900Y0223493D02*
X0317500Y0223493D01*
X0317500Y0225092D02*
X0371900Y0225092D01*
X0371900Y0226690D02*
X0317500Y0226690D01*
X0317500Y0228289D02*
X0371900Y0228289D01*
X0371900Y0229887D02*
X0317500Y0229887D01*
X0317500Y0231486D02*
X0371900Y0231486D01*
X0371900Y0233084D02*
X0317500Y0233084D01*
X0317500Y0234683D02*
X0371900Y0234683D01*
X0371900Y0236281D02*
X0317500Y0236281D01*
X0299100Y0218698D02*
X0297388Y0218698D01*
X0282600Y0244274D02*
X0268002Y0244274D01*
X0269883Y0245872D02*
X0282600Y0245872D01*
X0282600Y0247471D02*
X0271482Y0247471D01*
X0272797Y0249069D02*
X0282600Y0249069D01*
X0282600Y0250668D02*
X0272875Y0250668D01*
X0273000Y0252266D02*
X0282600Y0252266D01*
X0282600Y0253865D02*
X0273000Y0253865D01*
X0273000Y0255463D02*
X0282600Y0255463D01*
X0282600Y0257062D02*
X0273000Y0257062D01*
X0273000Y0258660D02*
X0282600Y0258660D01*
X0282600Y0260259D02*
X0273000Y0260259D01*
X0273000Y0261857D02*
X0282600Y0261857D01*
X0282600Y0263456D02*
X0273000Y0263456D01*
X0273000Y0265054D02*
X0282600Y0265054D01*
X0282600Y0266653D02*
X0273000Y0266653D01*
X0273000Y0268251D02*
X0282600Y0268251D01*
X0282600Y0269850D02*
X0273000Y0269850D01*
X0273000Y0271448D02*
X0282600Y0271448D01*
X0281725Y0273047D02*
X0273000Y0273047D01*
X0273000Y0274645D02*
X0280972Y0274645D01*
X0280310Y0276244D02*
X0273000Y0276244D01*
X0273000Y0277842D02*
X0280200Y0277842D01*
X0280200Y0279441D02*
X0273000Y0279441D01*
X0273000Y0281039D02*
X0280593Y0281039D01*
X0281255Y0282638D02*
X0273000Y0282638D01*
X0273000Y0284237D02*
X0282409Y0284237D01*
X0284007Y0285835D02*
X0273000Y0285835D01*
X0273000Y0287434D02*
X0289810Y0287434D01*
X0293790Y0287434D02*
X0299100Y0287434D01*
X0299100Y0289032D02*
X0273000Y0289032D01*
X0297842Y0306616D02*
X0298600Y0306616D01*
X0317000Y0308214D02*
X0349257Y0308214D01*
X0352943Y0308214D02*
X0371900Y0308214D01*
X0371900Y0306616D02*
X0356824Y0306616D01*
X0358637Y0305017D02*
X0371900Y0305017D01*
X0371900Y0303419D02*
X0359807Y0303419D01*
X0360638Y0301820D02*
X0371900Y0301820D01*
X0371900Y0300222D02*
X0361066Y0300222D01*
X0361250Y0298623D02*
X0371900Y0298623D01*
X0371900Y0297025D02*
X0361250Y0297025D01*
X0360865Y0295426D02*
X0371900Y0295426D01*
X0371900Y0293828D02*
X0360296Y0293828D01*
X0359373Y0292229D02*
X0371900Y0292229D01*
X0371900Y0290631D02*
X0357885Y0290631D01*
X0355521Y0289032D02*
X0371900Y0289032D01*
X0371900Y0287434D02*
X0333400Y0287434D01*
X0333400Y0289032D02*
X0346679Y0289032D01*
X0333120Y0285835D02*
X0371900Y0285835D01*
X0371900Y0284237D02*
X0332458Y0284237D01*
X0331466Y0282638D02*
X0371900Y0282638D01*
X0371900Y0281039D02*
X0329867Y0281039D01*
X0326531Y0279441D02*
X0371900Y0279441D01*
X0371900Y0277842D02*
X0317500Y0277842D01*
X0317500Y0276244D02*
X0371900Y0276244D01*
X0371900Y0274645D02*
X0317500Y0274645D01*
X0317500Y0273047D02*
X0371900Y0273047D01*
X0371900Y0271448D02*
X0317500Y0271448D01*
X0317500Y0269850D02*
X0371900Y0269850D01*
X0371900Y0268251D02*
X0317500Y0268251D01*
X0317500Y0266653D02*
X0371900Y0266653D01*
X0371900Y0265054D02*
X0317500Y0265054D01*
X0317500Y0263456D02*
X0371900Y0263456D01*
X0371900Y0261857D02*
X0317500Y0261857D01*
X0317500Y0260259D02*
X0371900Y0260259D01*
X0371900Y0258660D02*
X0317500Y0258660D01*
X0317500Y0257062D02*
X0371900Y0257062D01*
X0371900Y0255463D02*
X0317500Y0255463D01*
X0348246Y0253865D02*
X0371900Y0253865D01*
X0371900Y0252266D02*
X0349844Y0252266D01*
X0348511Y0253599D02*
X0348511Y0253599D01*
X0351443Y0250668D02*
X0371900Y0250668D01*
X0371900Y0249069D02*
X0352500Y0249069D01*
X0352500Y0247471D02*
X0371900Y0247471D01*
X0371900Y0245872D02*
X0352500Y0245872D01*
X0352500Y0244274D02*
X0371900Y0244274D01*
X0371900Y0242675D02*
X0352500Y0242675D01*
X0351587Y0241077D02*
X0371900Y0241077D01*
X0371900Y0239478D02*
X0349989Y0239478D01*
X0351099Y0240589D02*
X0351099Y0240589D01*
X0348390Y0237880D02*
X0371900Y0237880D01*
X0468300Y0237880D02*
X0555172Y0237880D01*
X0555166Y0239478D02*
X0468300Y0239478D01*
X0468300Y0241077D02*
X0555161Y0241077D01*
X0555155Y0242675D02*
X0468300Y0242675D01*
X0468300Y0244274D02*
X0555149Y0244274D01*
X0555143Y0245872D02*
X0468300Y0245872D01*
X0468300Y0247471D02*
X0555137Y0247471D01*
X0555131Y0249069D02*
X0468300Y0249069D01*
X0468300Y0250668D02*
X0555125Y0250668D01*
X0555119Y0252266D02*
X0468300Y0252266D01*
X0468300Y0253865D02*
X0555113Y0253865D01*
X0555108Y0255463D02*
X0468300Y0255463D01*
X0468300Y0257062D02*
X0555102Y0257062D01*
X0555096Y0258660D02*
X0468300Y0258660D01*
X0468300Y0260259D02*
X0555090Y0260259D01*
X0555084Y0261857D02*
X0468300Y0261857D01*
X0468300Y0263456D02*
X0555078Y0263456D01*
X0555072Y0265054D02*
X0468300Y0265054D01*
X0468300Y0266653D02*
X0555066Y0266653D01*
X0555060Y0268251D02*
X0468300Y0268251D01*
X0468300Y0269850D02*
X0555054Y0269850D01*
X0555049Y0271448D02*
X0468300Y0271448D01*
X0468300Y0273047D02*
X0555043Y0273047D01*
X0555037Y0274645D02*
X0468300Y0274645D01*
X0468300Y0276244D02*
X0555031Y0276244D01*
X0555025Y0277842D02*
X0468300Y0277842D01*
X0468300Y0279441D02*
X0555019Y0279441D01*
X0555013Y0281039D02*
X0468300Y0281039D01*
X0468300Y0282638D02*
X0555007Y0282638D01*
X0555001Y0284237D02*
X0468300Y0284237D01*
X0468300Y0285835D02*
X0554995Y0285835D01*
X0554990Y0287434D02*
X0468300Y0287434D01*
X0468300Y0289032D02*
X0554984Y0289032D01*
X0554978Y0290631D02*
X0468300Y0290631D01*
X0468300Y0292229D02*
X0554972Y0292229D01*
X0554966Y0293828D02*
X0468300Y0293828D01*
X0468300Y0295426D02*
X0554960Y0295426D01*
X0554954Y0297025D02*
X0468300Y0297025D01*
X0468300Y0298623D02*
X0554948Y0298623D01*
X0554942Y0300222D02*
X0468300Y0300222D01*
X0468300Y0301820D02*
X0554936Y0301820D01*
X0554931Y0303419D02*
X0468300Y0303419D01*
X0468300Y0305017D02*
X0554925Y0305017D01*
X0554919Y0306616D02*
X0468300Y0306616D01*
X0468300Y0308214D02*
X0554913Y0308214D01*
X0554907Y0309813D02*
X0468300Y0309813D01*
X0468300Y0311411D02*
X0554901Y0311411D01*
X0554895Y0313010D02*
X0468300Y0313010D01*
X0468300Y0314608D02*
X0554889Y0314608D01*
X0554883Y0316207D02*
X0468300Y0316207D01*
X0468300Y0317805D02*
X0554877Y0317805D01*
X0554872Y0319404D02*
X0468300Y0319404D01*
X0468300Y0321002D02*
X0554866Y0321002D01*
X0554860Y0322601D02*
X0468300Y0322601D01*
X0468300Y0324199D02*
X0554854Y0324199D01*
X0554848Y0325798D02*
X0468300Y0325798D01*
X0468300Y0327396D02*
X0554842Y0327396D01*
X0554836Y0328995D02*
X0468300Y0328995D01*
X0468300Y0330593D02*
X0554830Y0330593D01*
X0554824Y0332192D02*
X0468300Y0332192D01*
X0468300Y0333790D02*
X0554818Y0333790D01*
X0554813Y0335389D02*
X0468300Y0335389D01*
X0468300Y0336987D02*
X0554807Y0336987D01*
X0554801Y0338586D02*
X0468300Y0338586D01*
X0468300Y0340184D02*
X0554795Y0340184D01*
X0554789Y0341783D02*
X0468300Y0341783D01*
X0468300Y0343381D02*
X0554783Y0343381D01*
X0554777Y0344980D02*
X0468300Y0344980D01*
X0468300Y0346578D02*
X0554771Y0346578D01*
X0554765Y0348177D02*
X0468300Y0348177D01*
X0468300Y0349775D02*
X0554759Y0349775D01*
X0554754Y0351374D02*
X0468300Y0351374D01*
X0468300Y0352972D02*
X0554748Y0352972D01*
X0554742Y0354571D02*
X0468300Y0354571D01*
X0468300Y0356170D02*
X0554736Y0356170D01*
X0554730Y0357768D02*
X0468300Y0357768D01*
X0468300Y0359367D02*
X0554724Y0359367D01*
X0554718Y0360965D02*
X0468300Y0360965D01*
X0468300Y0362564D02*
X0554712Y0362564D01*
X0554706Y0364162D02*
X0468300Y0364162D01*
X0468300Y0365761D02*
X0554701Y0365761D01*
X0554695Y0367359D02*
X0468300Y0367359D01*
X0468300Y0368958D02*
X0554689Y0368958D01*
X0554683Y0370556D02*
X0468300Y0370556D01*
X0468300Y0372155D02*
X0554677Y0372155D01*
X0554671Y0373753D02*
X0468300Y0373753D01*
X0468300Y0375352D02*
X0554665Y0375352D01*
X0554659Y0376950D02*
X0468300Y0376950D01*
X0468300Y0378549D02*
X0554653Y0378549D01*
X0554647Y0380147D02*
X0468300Y0380147D01*
X0468300Y0381746D02*
X0554642Y0381746D01*
X0554636Y0383344D02*
X0468300Y0383344D01*
X0468300Y0384943D02*
X0554630Y0384943D01*
X0554624Y0386541D02*
X0468300Y0386541D01*
X0468300Y0388140D02*
X0554618Y0388140D01*
X0554612Y0389738D02*
X0468300Y0389738D01*
X0468300Y0391337D02*
X0554606Y0391337D01*
X0554600Y0392935D02*
X0468300Y0392935D01*
X0468300Y0394534D02*
X0554594Y0394534D01*
X0554588Y0396132D02*
X0468300Y0396132D01*
X0468300Y0397731D02*
X0554583Y0397731D01*
X0554577Y0399329D02*
X0468300Y0399329D01*
X0468300Y0400928D02*
X0554571Y0400928D01*
X0554565Y0402526D02*
X0468300Y0402526D01*
X0468300Y0404125D02*
X0554559Y0404125D01*
X0554553Y0405723D02*
X0468300Y0405723D01*
X0468300Y0407322D02*
X0554547Y0407322D01*
X0554541Y0408920D02*
X0468300Y0408920D01*
X0468300Y0410519D02*
X0554535Y0410519D01*
X0554529Y0412117D02*
X0468300Y0412117D01*
X0468300Y0413716D02*
X0554524Y0413716D01*
X0554518Y0415314D02*
X0468300Y0415314D01*
X0468300Y0416913D02*
X0554512Y0416913D01*
X0554506Y0418511D02*
X0468573Y0418511D01*
X0468555Y0417834D02*
X0468654Y0421492D01*
X0468300Y0422973D01*
X0468300Y0438642D01*
X0468423Y0438765D01*
X0470253Y0441935D01*
X0471200Y0445470D01*
X0471200Y0449130D01*
X0470253Y0452665D01*
X0468423Y0455835D01*
X0468300Y0455958D01*
X0468300Y0469601D01*
X0554317Y0469601D01*
X0555295Y0204551D01*
X0553224Y0205105D01*
X0541303Y0205105D01*
X0541303Y0205105D01*
X0468300Y0205105D01*
X0468300Y0416977D01*
X0468555Y0417834D01*
X0468616Y0420110D02*
X0554500Y0420110D01*
X0554494Y0421708D02*
X0468602Y0421708D01*
X0468300Y0423307D02*
X0554488Y0423307D01*
X0554482Y0424905D02*
X0468300Y0424905D01*
X0468300Y0426504D02*
X0554476Y0426504D01*
X0554470Y0428103D02*
X0468300Y0428103D01*
X0468300Y0429701D02*
X0554465Y0429701D01*
X0554459Y0431300D02*
X0468300Y0431300D01*
X0468300Y0432898D02*
X0554453Y0432898D01*
X0554447Y0434497D02*
X0468300Y0434497D01*
X0468300Y0436095D02*
X0554441Y0436095D01*
X0554435Y0437694D02*
X0468300Y0437694D01*
X0468727Y0439292D02*
X0554429Y0439292D01*
X0554423Y0440891D02*
X0469650Y0440891D01*
X0470401Y0442489D02*
X0554417Y0442489D01*
X0554411Y0444088D02*
X0470830Y0444088D01*
X0471200Y0445686D02*
X0554406Y0445686D01*
X0554400Y0447285D02*
X0471200Y0447285D01*
X0471200Y0448883D02*
X0554394Y0448883D01*
X0554388Y0450482D02*
X0470838Y0450482D01*
X0470409Y0452080D02*
X0554382Y0452080D01*
X0554376Y0453679D02*
X0469668Y0453679D01*
X0468745Y0455277D02*
X0554370Y0455277D01*
X0554364Y0456876D02*
X0468300Y0456876D01*
X0468300Y0458474D02*
X0554358Y0458474D01*
X0554352Y0460073D02*
X0468300Y0460073D01*
X0468300Y0461671D02*
X0554347Y0461671D01*
X0554341Y0463270D02*
X0468300Y0463270D01*
X0468300Y0464868D02*
X0554335Y0464868D01*
X0554329Y0466467D02*
X0468300Y0466467D01*
X0468300Y0468065D02*
X0554323Y0468065D01*
X0550300Y0468065D02*
X0861838Y0468065D01*
X0861835Y0469601D02*
X0862808Y0008700D01*
X0550300Y0008700D01*
X0550300Y0027052D01*
X0550596Y0027348D01*
X0552426Y0030517D01*
X0553373Y0034053D01*
X0553373Y0037713D01*
X0552426Y0041248D01*
X0550596Y0044417D01*
X0550300Y0044713D01*
X0550300Y0064400D01*
X0561130Y0064400D01*
X0564665Y0065347D01*
X0567835Y0067177D01*
X0570423Y0069765D01*
X0583423Y0082765D01*
X0585253Y0085935D01*
X0586200Y0089470D01*
X0586200Y0172130D01*
X0585253Y0175665D01*
X0583423Y0178835D01*
X0580835Y0181423D01*
X0559929Y0202328D01*
X0556760Y0204158D01*
X0553224Y0205105D01*
X0550300Y0205105D01*
X0550300Y0469601D01*
X0861835Y0469601D01*
X0861841Y0466467D02*
X0550300Y0466467D01*
X0550300Y0464868D02*
X0841329Y0464868D01*
X0842473Y0465175D02*
X0838944Y0464229D01*
X0835781Y0462403D01*
X0833197Y0459819D01*
X0831371Y0456656D01*
X0830425Y0453127D01*
X0830425Y0449473D01*
X0831371Y0445944D01*
X0833197Y0442781D01*
X0835781Y0440197D01*
X0838944Y0438371D01*
X0842473Y0437425D01*
X0846127Y0437425D01*
X0849656Y0438371D01*
X0852819Y0440197D01*
X0855403Y0442781D01*
X0857229Y0445944D01*
X0858175Y0449473D01*
X0858175Y0453127D01*
X0857229Y0456656D01*
X0855403Y0459819D01*
X0852819Y0462403D01*
X0849656Y0464229D01*
X0846127Y0465175D01*
X0842473Y0465175D01*
X0847271Y0464868D02*
X0861845Y0464868D01*
X0861848Y0463270D02*
X0851318Y0463270D01*
X0853551Y0461671D02*
X0861852Y0461671D01*
X0861855Y0460073D02*
X0855149Y0460073D01*
X0856179Y0458474D02*
X0861858Y0458474D01*
X0861862Y0456876D02*
X0857102Y0456876D01*
X0857599Y0455277D02*
X0861865Y0455277D01*
X0861868Y0453679D02*
X0858027Y0453679D01*
X0858175Y0452080D02*
X0861872Y0452080D01*
X0861875Y0450482D02*
X0858175Y0450482D01*
X0858017Y0448883D02*
X0861878Y0448883D01*
X0861882Y0447285D02*
X0857589Y0447285D01*
X0857080Y0445686D02*
X0861885Y0445686D01*
X0861889Y0444088D02*
X0856157Y0444088D01*
X0855111Y0442489D02*
X0861892Y0442489D01*
X0861895Y0440891D02*
X0853513Y0440891D01*
X0851252Y0439292D02*
X0861899Y0439292D01*
X0861902Y0437694D02*
X0847129Y0437694D01*
X0841471Y0437694D02*
X0550300Y0437694D01*
X0550300Y0439292D02*
X0837348Y0439292D01*
X0835087Y0440891D02*
X0550300Y0440891D01*
X0550300Y0442489D02*
X0833489Y0442489D01*
X0832443Y0444088D02*
X0550300Y0444088D01*
X0550300Y0445686D02*
X0831520Y0445686D01*
X0831011Y0447285D02*
X0550300Y0447285D01*
X0550300Y0448883D02*
X0830583Y0448883D01*
X0830425Y0450482D02*
X0550300Y0450482D01*
X0550300Y0452080D02*
X0830425Y0452080D01*
X0830573Y0453679D02*
X0550300Y0453679D01*
X0550300Y0455277D02*
X0831001Y0455277D01*
X0831498Y0456876D02*
X0550300Y0456876D01*
X0550300Y0458474D02*
X0832421Y0458474D01*
X0833451Y0460073D02*
X0550300Y0460073D01*
X0550300Y0461671D02*
X0835049Y0461671D01*
X0837282Y0463270D02*
X0550300Y0463270D01*
X0550300Y0436095D02*
X0861905Y0436095D01*
X0861909Y0434497D02*
X0550300Y0434497D01*
X0550300Y0432898D02*
X0861912Y0432898D01*
X0861916Y0431300D02*
X0550300Y0431300D01*
X0550300Y0429701D02*
X0861919Y0429701D01*
X0861922Y0428103D02*
X0550300Y0428103D01*
X0550300Y0426504D02*
X0861926Y0426504D01*
X0861929Y0424905D02*
X0550300Y0424905D01*
X0550300Y0423307D02*
X0861932Y0423307D01*
X0861936Y0421708D02*
X0550300Y0421708D01*
X0550300Y0420110D02*
X0861939Y0420110D01*
X0861943Y0418511D02*
X0550300Y0418511D01*
X0550300Y0416913D02*
X0861946Y0416913D01*
X0861949Y0415314D02*
X0550300Y0415314D01*
X0550300Y0413716D02*
X0861953Y0413716D01*
X0861956Y0412117D02*
X0550300Y0412117D01*
X0550300Y0410519D02*
X0861959Y0410519D01*
X0861963Y0408920D02*
X0550300Y0408920D01*
X0550300Y0407322D02*
X0806858Y0407322D01*
X0807900Y0407923D02*
X0805300Y0406422D01*
X0803178Y0404300D01*
X0801677Y0401700D01*
X0800900Y0398801D01*
X0800900Y0395799D01*
X0801677Y0392900D01*
X0803178Y0390300D01*
X0805300Y0388178D01*
X0807900Y0386677D01*
X0810799Y0385900D01*
X0818578Y0385900D01*
X0828900Y0375578D01*
X0828900Y0357004D01*
X0829105Y0356240D01*
X0829105Y0324897D01*
X0829085Y0324823D01*
X0829085Y0311777D01*
X0829105Y0311703D01*
X0829105Y0295613D01*
X0768171Y0295613D01*
X0767815Y0295970D01*
X0765463Y0296944D01*
X0750255Y0296944D01*
X0747903Y0295970D01*
X0746103Y0294169D01*
X0745128Y0291817D01*
X0745128Y0276610D01*
X0746103Y0274257D01*
X0747903Y0272457D01*
X0750255Y0271483D01*
X0765463Y0271483D01*
X0767815Y0272457D01*
X0768171Y0272813D01*
X0828900Y0272813D01*
X0828900Y0141188D01*
X0828268Y0140824D01*
X0826142Y0138698D01*
X0824639Y0136094D01*
X0823861Y0133189D01*
X0823861Y0130182D01*
X0824581Y0127495D01*
X0804227Y0127495D01*
X0787700Y0144022D01*
X0787700Y0168900D01*
X0796002Y0168900D01*
X0796367Y0168268D01*
X0798493Y0166142D01*
X0801097Y0164639D01*
X0804001Y0163861D01*
X0807008Y0163861D01*
X0809913Y0164639D01*
X0812517Y0166142D01*
X0814643Y0168268D01*
X0816146Y0170872D01*
X0816924Y0173777D01*
X0816924Y0186823D01*
X0816146Y0189728D01*
X0814643Y0192332D01*
X0812517Y0194458D01*
X0809913Y0195961D01*
X0807008Y0196739D01*
X0804001Y0196739D01*
X0801097Y0195961D01*
X0798493Y0194458D01*
X0796367Y0192332D01*
X0796002Y0191700D01*
X0787700Y0191700D01*
X0787700Y0235801D01*
X0786923Y0238700D01*
X0785422Y0241300D01*
X0783300Y0243422D01*
X0780700Y0244923D01*
X0777801Y0245700D01*
X0774799Y0245700D01*
X0771900Y0244923D01*
X0769300Y0243422D01*
X0767178Y0241300D01*
X0765677Y0238700D01*
X0764900Y0235801D01*
X0764900Y0191700D01*
X0751095Y0191700D01*
X0750801Y0191779D01*
X0750347Y0191779D01*
X0749901Y0191861D01*
X0748852Y0191779D01*
X0689547Y0191779D01*
X0686648Y0191002D01*
X0684048Y0189501D01*
X0681926Y0187378D01*
X0680425Y0184779D01*
X0679648Y0181880D01*
X0679648Y0178878D01*
X0680425Y0175978D01*
X0681926Y0173379D01*
X0684048Y0171256D01*
X0686648Y0169756D01*
X0689547Y0168979D01*
X0746505Y0168979D01*
X0746799Y0168900D01*
X0747253Y0168900D01*
X0747699Y0168817D01*
X0748748Y0168900D01*
X0764900Y0168900D01*
X0764900Y0137799D01*
X0765677Y0134900D01*
X0767178Y0132300D01*
X0792505Y0106973D01*
X0795104Y0105472D01*
X0798004Y0104695D01*
X0833703Y0104695D01*
X0833777Y0104676D01*
X0846823Y0104676D01*
X0849728Y0105454D01*
X0852332Y0106957D01*
X0854458Y0109083D01*
X0855961Y0111687D01*
X0856739Y0114592D01*
X0856739Y0117599D01*
X0855961Y0120503D01*
X0854458Y0123107D01*
X0853674Y0123891D01*
X0854458Y0124674D01*
X0855961Y0127278D01*
X0856739Y0130182D01*
X0856739Y0133189D01*
X0855961Y0136094D01*
X0854458Y0138698D01*
X0852332Y0140824D01*
X0851700Y0141188D01*
X0851700Y0282094D01*
X0851746Y0282241D01*
X0851756Y0282481D01*
X0851818Y0282713D01*
X0851818Y0283977D01*
X0851843Y0284567D01*
X0851905Y0284799D01*
X0851905Y0285615D01*
X0852002Y0286425D01*
X0851938Y0286874D01*
X0851957Y0287327D01*
X0851905Y0287561D01*
X0851905Y0311703D01*
X0851924Y0311777D01*
X0851924Y0324823D01*
X0851905Y0324897D01*
X0851905Y0365801D01*
X0851700Y0366565D01*
X0851700Y0381801D01*
X0850923Y0384700D01*
X0849422Y0387300D01*
X0847300Y0389422D01*
X0830300Y0406422D01*
X0827700Y0407923D01*
X0824801Y0408700D01*
X0810799Y0408700D01*
X0807900Y0407923D01*
X0804601Y0405723D02*
X0550300Y0405723D01*
X0550300Y0404125D02*
X0803077Y0404125D01*
X0802154Y0402526D02*
X0550300Y0402526D01*
X0550300Y0400928D02*
X0801470Y0400928D01*
X0801042Y0399329D02*
X0550300Y0399329D01*
X0550300Y0397731D02*
X0800900Y0397731D01*
X0800900Y0396132D02*
X0550300Y0396132D01*
X0550300Y0394534D02*
X0801239Y0394534D01*
X0801667Y0392935D02*
X0550300Y0392935D01*
X0550300Y0391337D02*
X0802579Y0391337D01*
X0803740Y0389738D02*
X0550300Y0389738D01*
X0550300Y0388140D02*
X0805366Y0388140D01*
X0808406Y0386541D02*
X0550300Y0386541D01*
X0550300Y0384943D02*
X0819535Y0384943D01*
X0821134Y0383344D02*
X0550300Y0383344D01*
X0550300Y0381746D02*
X0822732Y0381746D01*
X0824331Y0380147D02*
X0550300Y0380147D01*
X0550300Y0378549D02*
X0825929Y0378549D01*
X0827528Y0376950D02*
X0550300Y0376950D01*
X0550300Y0375352D02*
X0828900Y0375352D01*
X0828900Y0373753D02*
X0550300Y0373753D01*
X0550300Y0372155D02*
X0828900Y0372155D01*
X0828900Y0370556D02*
X0550300Y0370556D01*
X0550300Y0368958D02*
X0828900Y0368958D01*
X0828900Y0367359D02*
X0550300Y0367359D01*
X0550300Y0365761D02*
X0828900Y0365761D01*
X0828900Y0364162D02*
X0550300Y0364162D01*
X0550300Y0362564D02*
X0828900Y0362564D01*
X0828900Y0360965D02*
X0550300Y0360965D01*
X0550300Y0359367D02*
X0828900Y0359367D01*
X0828900Y0357768D02*
X0550300Y0357768D01*
X0550300Y0356170D02*
X0829105Y0356170D01*
X0829105Y0354571D02*
X0550300Y0354571D01*
X0550300Y0352972D02*
X0829105Y0352972D01*
X0829105Y0351374D02*
X0550300Y0351374D01*
X0550300Y0349775D02*
X0829105Y0349775D01*
X0829105Y0348177D02*
X0550300Y0348177D01*
X0550300Y0346578D02*
X0829105Y0346578D01*
X0829105Y0344980D02*
X0550300Y0344980D01*
X0550300Y0343381D02*
X0829105Y0343381D01*
X0829105Y0341783D02*
X0550300Y0341783D01*
X0550300Y0340184D02*
X0829105Y0340184D01*
X0829105Y0338586D02*
X0550300Y0338586D01*
X0550300Y0336987D02*
X0829105Y0336987D01*
X0829105Y0335389D02*
X0550300Y0335389D01*
X0550300Y0333790D02*
X0829105Y0333790D01*
X0829105Y0332192D02*
X0550300Y0332192D01*
X0550300Y0330593D02*
X0829105Y0330593D01*
X0829105Y0328995D02*
X0550300Y0328995D01*
X0550300Y0327396D02*
X0829105Y0327396D01*
X0829105Y0325798D02*
X0550300Y0325798D01*
X0550300Y0324199D02*
X0829085Y0324199D01*
X0829085Y0322601D02*
X0550300Y0322601D01*
X0550300Y0321002D02*
X0829085Y0321002D01*
X0829085Y0319404D02*
X0550300Y0319404D01*
X0550300Y0317805D02*
X0829085Y0317805D01*
X0829085Y0316207D02*
X0550300Y0316207D01*
X0550300Y0314608D02*
X0829085Y0314608D01*
X0829085Y0313010D02*
X0550300Y0313010D01*
X0550300Y0311411D02*
X0829105Y0311411D01*
X0829105Y0309813D02*
X0550300Y0309813D01*
X0550300Y0308214D02*
X0829105Y0308214D01*
X0829105Y0306616D02*
X0550300Y0306616D01*
X0550300Y0305017D02*
X0829105Y0305017D01*
X0829105Y0303419D02*
X0550300Y0303419D01*
X0550300Y0301820D02*
X0829105Y0301820D01*
X0829105Y0300222D02*
X0550300Y0300222D01*
X0550300Y0298623D02*
X0829105Y0298623D01*
X0829105Y0297025D02*
X0550300Y0297025D01*
X0550300Y0295426D02*
X0747359Y0295426D01*
X0745961Y0293828D02*
X0550300Y0293828D01*
X0550300Y0292229D02*
X0745299Y0292229D01*
X0745128Y0290631D02*
X0550300Y0290631D01*
X0550300Y0289032D02*
X0745128Y0289032D01*
X0745128Y0287434D02*
X0550300Y0287434D01*
X0550300Y0285835D02*
X0745128Y0285835D01*
X0745128Y0284237D02*
X0550300Y0284237D01*
X0550300Y0282638D02*
X0745128Y0282638D01*
X0745128Y0281039D02*
X0550300Y0281039D01*
X0550300Y0279441D02*
X0745128Y0279441D01*
X0745128Y0277842D02*
X0550300Y0277842D01*
X0550300Y0276244D02*
X0745280Y0276244D01*
X0745942Y0274645D02*
X0550300Y0274645D01*
X0550300Y0273047D02*
X0747313Y0273047D01*
X0768553Y0242675D02*
X0550300Y0242675D01*
X0550300Y0241077D02*
X0767049Y0241077D01*
X0766126Y0239478D02*
X0550300Y0239478D01*
X0550300Y0237880D02*
X0765457Y0237880D01*
X0765029Y0236281D02*
X0550300Y0236281D01*
X0550300Y0234683D02*
X0764900Y0234683D01*
X0764900Y0233084D02*
X0550300Y0233084D01*
X0550300Y0231486D02*
X0764900Y0231486D01*
X0764900Y0229887D02*
X0550300Y0229887D01*
X0550300Y0228289D02*
X0764900Y0228289D01*
X0764900Y0226690D02*
X0550300Y0226690D01*
X0550300Y0225092D02*
X0764900Y0225092D01*
X0764900Y0223493D02*
X0550300Y0223493D01*
X0550300Y0221895D02*
X0764900Y0221895D01*
X0764900Y0220296D02*
X0550300Y0220296D01*
X0550300Y0218698D02*
X0764900Y0218698D01*
X0764900Y0217099D02*
X0550300Y0217099D01*
X0550300Y0215501D02*
X0764900Y0215501D01*
X0764900Y0213902D02*
X0550300Y0213902D01*
X0550300Y0212303D02*
X0764900Y0212303D01*
X0764900Y0210705D02*
X0550300Y0210705D01*
X0550300Y0209106D02*
X0764900Y0209106D01*
X0764900Y0207508D02*
X0550300Y0207508D01*
X0550300Y0205909D02*
X0764900Y0205909D01*
X0764900Y0204311D02*
X0556190Y0204311D01*
X0555290Y0205909D02*
X0468300Y0205909D01*
X0468300Y0207508D02*
X0555284Y0207508D01*
X0555279Y0209106D02*
X0468300Y0209106D01*
X0468300Y0210705D02*
X0555273Y0210705D01*
X0555267Y0212303D02*
X0468300Y0212303D01*
X0468300Y0213902D02*
X0555261Y0213902D01*
X0555255Y0215501D02*
X0468300Y0215501D01*
X0468300Y0217099D02*
X0555249Y0217099D01*
X0555243Y0218698D02*
X0468300Y0218698D01*
X0468300Y0220296D02*
X0555237Y0220296D01*
X0555231Y0221895D02*
X0468300Y0221895D01*
X0468300Y0223493D02*
X0555225Y0223493D01*
X0555220Y0225092D02*
X0468300Y0225092D01*
X0468300Y0226690D02*
X0555214Y0226690D01*
X0555208Y0228289D02*
X0468300Y0228289D01*
X0468300Y0229887D02*
X0555202Y0229887D01*
X0555196Y0231486D02*
X0468300Y0231486D01*
X0468300Y0233084D02*
X0555190Y0233084D01*
X0555184Y0234683D02*
X0468300Y0234683D01*
X0468300Y0236281D02*
X0555178Y0236281D01*
X0550300Y0244274D02*
X0770775Y0244274D01*
X0781825Y0244274D02*
X0828900Y0244274D01*
X0828900Y0245872D02*
X0550300Y0245872D01*
X0550300Y0247471D02*
X0828900Y0247471D01*
X0828900Y0249069D02*
X0550300Y0249069D01*
X0550300Y0250668D02*
X0828900Y0250668D01*
X0828900Y0252266D02*
X0550300Y0252266D01*
X0550300Y0253865D02*
X0828900Y0253865D01*
X0828900Y0255463D02*
X0550300Y0255463D01*
X0550300Y0257062D02*
X0828900Y0257062D01*
X0828900Y0258660D02*
X0550300Y0258660D01*
X0550300Y0260259D02*
X0828900Y0260259D01*
X0828900Y0261857D02*
X0550300Y0261857D01*
X0550300Y0263456D02*
X0828900Y0263456D01*
X0828900Y0265054D02*
X0550300Y0265054D01*
X0550300Y0266653D02*
X0828900Y0266653D01*
X0828900Y0268251D02*
X0550300Y0268251D01*
X0550300Y0269850D02*
X0828900Y0269850D01*
X0828900Y0271448D02*
X0550300Y0271448D01*
X0559264Y0202712D02*
X0764900Y0202712D01*
X0764900Y0201114D02*
X0561144Y0201114D01*
X0562742Y0199515D02*
X0764900Y0199515D01*
X0764900Y0197917D02*
X0564341Y0197917D01*
X0565939Y0196318D02*
X0764900Y0196318D01*
X0764900Y0194720D02*
X0567538Y0194720D01*
X0569136Y0193121D02*
X0764900Y0193121D01*
X0787700Y0193121D02*
X0797157Y0193121D01*
X0798947Y0194720D02*
X0787700Y0194720D01*
X0787700Y0196318D02*
X0802430Y0196318D01*
X0808579Y0196318D02*
X0828900Y0196318D01*
X0828900Y0194720D02*
X0812062Y0194720D01*
X0813853Y0193121D02*
X0828900Y0193121D01*
X0828900Y0191523D02*
X0815110Y0191523D01*
X0816033Y0189924D02*
X0828900Y0189924D01*
X0828900Y0188326D02*
X0816522Y0188326D01*
X0816924Y0186727D02*
X0828900Y0186727D01*
X0828900Y0185129D02*
X0816924Y0185129D01*
X0816924Y0183530D02*
X0828900Y0183530D01*
X0828900Y0181932D02*
X0816924Y0181932D01*
X0816924Y0180333D02*
X0828900Y0180333D01*
X0828900Y0178735D02*
X0816924Y0178735D01*
X0816924Y0177136D02*
X0828900Y0177136D01*
X0828900Y0175538D02*
X0816924Y0175538D01*
X0816924Y0173939D02*
X0828900Y0173939D01*
X0828900Y0172341D02*
X0816540Y0172341D01*
X0816071Y0170742D02*
X0828900Y0170742D01*
X0828900Y0169144D02*
X0815148Y0169144D01*
X0813919Y0167545D02*
X0828900Y0167545D01*
X0828900Y0165947D02*
X0812178Y0165947D01*
X0808828Y0164348D02*
X0828900Y0164348D01*
X0828900Y0162750D02*
X0787700Y0162750D01*
X0787700Y0164348D02*
X0802182Y0164348D01*
X0798832Y0165947D02*
X0787700Y0165947D01*
X0787700Y0167545D02*
X0797090Y0167545D01*
X0787700Y0161151D02*
X0828900Y0161151D01*
X0828900Y0159553D02*
X0787700Y0159553D01*
X0787700Y0157954D02*
X0828900Y0157954D01*
X0828900Y0156356D02*
X0787700Y0156356D01*
X0787700Y0154757D02*
X0828900Y0154757D01*
X0828900Y0153159D02*
X0787700Y0153159D01*
X0787700Y0151560D02*
X0828900Y0151560D01*
X0828900Y0149962D02*
X0787700Y0149962D01*
X0787700Y0148363D02*
X0828900Y0148363D01*
X0828900Y0146765D02*
X0787700Y0146765D01*
X0787700Y0145166D02*
X0828900Y0145166D01*
X0828900Y0143568D02*
X0788155Y0143568D01*
X0789753Y0141969D02*
X0828900Y0141969D01*
X0827815Y0140370D02*
X0791352Y0140370D01*
X0792950Y0138772D02*
X0826217Y0138772D01*
X0825262Y0137173D02*
X0794549Y0137173D01*
X0796147Y0135575D02*
X0824500Y0135575D01*
X0824072Y0133976D02*
X0797746Y0133976D01*
X0799344Y0132378D02*
X0823861Y0132378D01*
X0823861Y0130779D02*
X0800943Y0130779D01*
X0802541Y0129181D02*
X0824129Y0129181D01*
X0824557Y0127582D02*
X0804140Y0127582D01*
X0787881Y0111597D02*
X0761175Y0111597D01*
X0761175Y0110473D02*
X0760229Y0106944D01*
X0758403Y0103781D01*
X0755819Y0101197D01*
X0752656Y0099371D01*
X0749127Y0098425D01*
X0745473Y0098425D01*
X0741944Y0099371D01*
X0738781Y0101197D01*
X0736197Y0103781D01*
X0734371Y0106944D01*
X0733425Y0110473D01*
X0733425Y0114127D01*
X0734371Y0117656D01*
X0736197Y0120819D01*
X0738781Y0123403D01*
X0741944Y0125229D01*
X0745473Y0126175D01*
X0749127Y0126175D01*
X0752656Y0125229D01*
X0755819Y0123403D01*
X0758403Y0120819D01*
X0760229Y0117656D01*
X0761175Y0114127D01*
X0761175Y0110473D01*
X0761048Y0109999D02*
X0789479Y0109999D01*
X0791078Y0108400D02*
X0760620Y0108400D01*
X0760147Y0106802D02*
X0792802Y0106802D01*
X0796108Y0105203D02*
X0759224Y0105203D01*
X0758227Y0103605D02*
X0862607Y0103605D01*
X0862604Y0105203D02*
X0848792Y0105203D01*
X0852062Y0106802D02*
X0862601Y0106802D01*
X0862597Y0108400D02*
X0853775Y0108400D01*
X0854986Y0109999D02*
X0862594Y0109999D01*
X0862591Y0111597D02*
X0855909Y0111597D01*
X0856365Y0113196D02*
X0862587Y0113196D01*
X0862584Y0114794D02*
X0856739Y0114794D01*
X0856739Y0116393D02*
X0862580Y0116393D01*
X0862577Y0117991D02*
X0856634Y0117991D01*
X0856206Y0119590D02*
X0862574Y0119590D01*
X0862570Y0121188D02*
X0855566Y0121188D01*
X0854643Y0122787D02*
X0862567Y0122787D01*
X0862564Y0124385D02*
X0854169Y0124385D01*
X0855214Y0125984D02*
X0862560Y0125984D01*
X0862557Y0127582D02*
X0856043Y0127582D01*
X0856471Y0129181D02*
X0862553Y0129181D01*
X0862550Y0130779D02*
X0856739Y0130779D01*
X0856739Y0132378D02*
X0862547Y0132378D01*
X0862543Y0133976D02*
X0856528Y0133976D01*
X0856100Y0135575D02*
X0862540Y0135575D01*
X0862537Y0137173D02*
X0855338Y0137173D01*
X0854383Y0138772D02*
X0862533Y0138772D01*
X0862530Y0140370D02*
X0852785Y0140370D01*
X0851700Y0141969D02*
X0862526Y0141969D01*
X0862523Y0143568D02*
X0851700Y0143568D01*
X0851700Y0145166D02*
X0862520Y0145166D01*
X0862516Y0146765D02*
X0851700Y0146765D01*
X0851700Y0148363D02*
X0862513Y0148363D01*
X0862510Y0149962D02*
X0851700Y0149962D01*
X0851700Y0151560D02*
X0862506Y0151560D01*
X0862503Y0153159D02*
X0851700Y0153159D01*
X0851700Y0154757D02*
X0862499Y0154757D01*
X0862496Y0156356D02*
X0851700Y0156356D01*
X0851700Y0157954D02*
X0862493Y0157954D01*
X0862489Y0159553D02*
X0851700Y0159553D01*
X0851700Y0161151D02*
X0862486Y0161151D01*
X0862483Y0162750D02*
X0851700Y0162750D01*
X0851700Y0164348D02*
X0862479Y0164348D01*
X0862476Y0165947D02*
X0851700Y0165947D01*
X0851700Y0167545D02*
X0862472Y0167545D01*
X0862469Y0169144D02*
X0851700Y0169144D01*
X0851700Y0170742D02*
X0862466Y0170742D01*
X0862462Y0172341D02*
X0851700Y0172341D01*
X0851700Y0173939D02*
X0862459Y0173939D01*
X0862456Y0175538D02*
X0851700Y0175538D01*
X0851700Y0177136D02*
X0862452Y0177136D01*
X0862449Y0178735D02*
X0851700Y0178735D01*
X0851700Y0180333D02*
X0862445Y0180333D01*
X0862442Y0181932D02*
X0851700Y0181932D01*
X0851700Y0183530D02*
X0862439Y0183530D01*
X0862435Y0185129D02*
X0851700Y0185129D01*
X0851700Y0186727D02*
X0862432Y0186727D01*
X0862429Y0188326D02*
X0851700Y0188326D01*
X0851700Y0189924D02*
X0862425Y0189924D01*
X0862422Y0191523D02*
X0851700Y0191523D01*
X0851700Y0193121D02*
X0862418Y0193121D01*
X0862415Y0194720D02*
X0851700Y0194720D01*
X0851700Y0196318D02*
X0862412Y0196318D01*
X0862408Y0197917D02*
X0851700Y0197917D01*
X0851700Y0199515D02*
X0862405Y0199515D01*
X0862402Y0201114D02*
X0851700Y0201114D01*
X0851700Y0202712D02*
X0862398Y0202712D01*
X0862395Y0204311D02*
X0851700Y0204311D01*
X0851700Y0205909D02*
X0862391Y0205909D01*
X0862388Y0207508D02*
X0851700Y0207508D01*
X0851700Y0209106D02*
X0862385Y0209106D01*
X0862381Y0210705D02*
X0851700Y0210705D01*
X0851700Y0212303D02*
X0862378Y0212303D01*
X0862375Y0213902D02*
X0851700Y0213902D01*
X0851700Y0215501D02*
X0862371Y0215501D01*
X0862368Y0217099D02*
X0851700Y0217099D01*
X0851700Y0218698D02*
X0862364Y0218698D01*
X0862361Y0220296D02*
X0851700Y0220296D01*
X0851700Y0221895D02*
X0862358Y0221895D01*
X0862354Y0223493D02*
X0851700Y0223493D01*
X0851700Y0225092D02*
X0862351Y0225092D01*
X0862348Y0226690D02*
X0851700Y0226690D01*
X0851700Y0228289D02*
X0862344Y0228289D01*
X0862341Y0229887D02*
X0851700Y0229887D01*
X0851700Y0231486D02*
X0862337Y0231486D01*
X0862334Y0233084D02*
X0851700Y0233084D01*
X0851700Y0234683D02*
X0862331Y0234683D01*
X0862327Y0236281D02*
X0851700Y0236281D01*
X0851700Y0237880D02*
X0862324Y0237880D01*
X0862321Y0239478D02*
X0851700Y0239478D01*
X0851700Y0241077D02*
X0862317Y0241077D01*
X0862314Y0242675D02*
X0851700Y0242675D01*
X0851700Y0244274D02*
X0862310Y0244274D01*
X0862307Y0245872D02*
X0851700Y0245872D01*
X0851700Y0247471D02*
X0862304Y0247471D01*
X0862300Y0249069D02*
X0851700Y0249069D01*
X0851700Y0250668D02*
X0862297Y0250668D01*
X0862294Y0252266D02*
X0851700Y0252266D01*
X0851700Y0253865D02*
X0862290Y0253865D01*
X0862287Y0255463D02*
X0851700Y0255463D01*
X0851700Y0257062D02*
X0862283Y0257062D01*
X0862280Y0258660D02*
X0851700Y0258660D01*
X0851700Y0260259D02*
X0862277Y0260259D01*
X0862273Y0261857D02*
X0851700Y0261857D01*
X0851700Y0263456D02*
X0862270Y0263456D01*
X0862267Y0265054D02*
X0851700Y0265054D01*
X0851700Y0266653D02*
X0862263Y0266653D01*
X0862260Y0268251D02*
X0851700Y0268251D01*
X0851700Y0269850D02*
X0862256Y0269850D01*
X0862253Y0271448D02*
X0851700Y0271448D01*
X0851700Y0273047D02*
X0862250Y0273047D01*
X0862246Y0274645D02*
X0851700Y0274645D01*
X0851700Y0276244D02*
X0862243Y0276244D01*
X0862240Y0277842D02*
X0851700Y0277842D01*
X0851700Y0279441D02*
X0862236Y0279441D01*
X0862233Y0281039D02*
X0851700Y0281039D01*
X0851798Y0282638D02*
X0862229Y0282638D01*
X0862226Y0284237D02*
X0851829Y0284237D01*
X0851931Y0285835D02*
X0862223Y0285835D01*
X0862219Y0287434D02*
X0851933Y0287434D01*
X0851905Y0289032D02*
X0862216Y0289032D01*
X0862213Y0290631D02*
X0851905Y0290631D01*
X0851905Y0292229D02*
X0862209Y0292229D01*
X0862206Y0293828D02*
X0851905Y0293828D01*
X0851905Y0295426D02*
X0862202Y0295426D01*
X0862199Y0297025D02*
X0851905Y0297025D01*
X0851905Y0298623D02*
X0862196Y0298623D01*
X0862192Y0300222D02*
X0851905Y0300222D01*
X0851905Y0301820D02*
X0862189Y0301820D01*
X0862186Y0303419D02*
X0851905Y0303419D01*
X0851905Y0305017D02*
X0862182Y0305017D01*
X0862179Y0306616D02*
X0851905Y0306616D01*
X0851905Y0308214D02*
X0862175Y0308214D01*
X0862172Y0309813D02*
X0851905Y0309813D01*
X0851905Y0311411D02*
X0862169Y0311411D01*
X0862165Y0313010D02*
X0851924Y0313010D01*
X0851924Y0314608D02*
X0862162Y0314608D01*
X0862159Y0316207D02*
X0851924Y0316207D01*
X0851924Y0317805D02*
X0862155Y0317805D01*
X0862152Y0319404D02*
X0851924Y0319404D01*
X0851924Y0321002D02*
X0862148Y0321002D01*
X0862145Y0322601D02*
X0851924Y0322601D01*
X0851924Y0324199D02*
X0862142Y0324199D01*
X0862138Y0325798D02*
X0851905Y0325798D01*
X0851905Y0327396D02*
X0862135Y0327396D01*
X0862132Y0328995D02*
X0851905Y0328995D01*
X0851905Y0330593D02*
X0862128Y0330593D01*
X0862125Y0332192D02*
X0851905Y0332192D01*
X0851905Y0333790D02*
X0862121Y0333790D01*
X0862118Y0335389D02*
X0851905Y0335389D01*
X0851905Y0336987D02*
X0862115Y0336987D01*
X0862111Y0338586D02*
X0851905Y0338586D01*
X0851905Y0340184D02*
X0862108Y0340184D01*
X0862105Y0341783D02*
X0851905Y0341783D01*
X0851905Y0343381D02*
X0862101Y0343381D01*
X0862098Y0344980D02*
X0851905Y0344980D01*
X0851905Y0346578D02*
X0862094Y0346578D01*
X0862091Y0348177D02*
X0851905Y0348177D01*
X0851905Y0349775D02*
X0862088Y0349775D01*
X0862084Y0351374D02*
X0851905Y0351374D01*
X0851905Y0352972D02*
X0862081Y0352972D01*
X0862078Y0354571D02*
X0851905Y0354571D01*
X0851905Y0356170D02*
X0862074Y0356170D01*
X0862071Y0357768D02*
X0851905Y0357768D01*
X0851905Y0359367D02*
X0862067Y0359367D01*
X0862064Y0360965D02*
X0851905Y0360965D01*
X0851905Y0362564D02*
X0862061Y0362564D01*
X0862057Y0364162D02*
X0851905Y0364162D01*
X0851905Y0365761D02*
X0862054Y0365761D01*
X0862051Y0367359D02*
X0851700Y0367359D01*
X0851700Y0368958D02*
X0862047Y0368958D01*
X0862044Y0370556D02*
X0851700Y0370556D01*
X0851700Y0372155D02*
X0862040Y0372155D01*
X0862037Y0373753D02*
X0851700Y0373753D01*
X0851700Y0375352D02*
X0862034Y0375352D01*
X0862030Y0376950D02*
X0851700Y0376950D01*
X0851700Y0378549D02*
X0862027Y0378549D01*
X0862024Y0380147D02*
X0851700Y0380147D01*
X0851700Y0381746D02*
X0862020Y0381746D01*
X0862017Y0383344D02*
X0851286Y0383344D01*
X0850783Y0384943D02*
X0862013Y0384943D01*
X0862010Y0386541D02*
X0849860Y0386541D01*
X0848582Y0388140D02*
X0862007Y0388140D01*
X0862003Y0389738D02*
X0846984Y0389738D01*
X0847300Y0389422D02*
X0847300Y0389422D01*
X0845385Y0391337D02*
X0862000Y0391337D01*
X0861997Y0392935D02*
X0843787Y0392935D01*
X0842188Y0394534D02*
X0861993Y0394534D01*
X0861990Y0396132D02*
X0840590Y0396132D01*
X0838991Y0397731D02*
X0861986Y0397731D01*
X0861983Y0399329D02*
X0837393Y0399329D01*
X0835794Y0400928D02*
X0861980Y0400928D01*
X0861976Y0402526D02*
X0834196Y0402526D01*
X0832597Y0404125D02*
X0861973Y0404125D01*
X0861970Y0405723D02*
X0830999Y0405723D01*
X0828742Y0407322D02*
X0861966Y0407322D01*
X0828900Y0242675D02*
X0784047Y0242675D01*
X0785551Y0241077D02*
X0828900Y0241077D01*
X0828900Y0239478D02*
X0786474Y0239478D01*
X0787143Y0237880D02*
X0828900Y0237880D01*
X0828900Y0236281D02*
X0787571Y0236281D01*
X0787700Y0234683D02*
X0828900Y0234683D01*
X0828900Y0233084D02*
X0787700Y0233084D01*
X0787700Y0231486D02*
X0828900Y0231486D01*
X0828900Y0229887D02*
X0787700Y0229887D01*
X0787700Y0228289D02*
X0828900Y0228289D01*
X0828900Y0226690D02*
X0787700Y0226690D01*
X0787700Y0225092D02*
X0828900Y0225092D01*
X0828900Y0223493D02*
X0787700Y0223493D01*
X0787700Y0221895D02*
X0828900Y0221895D01*
X0828900Y0220296D02*
X0787700Y0220296D01*
X0787700Y0218698D02*
X0828900Y0218698D01*
X0828900Y0217099D02*
X0787700Y0217099D01*
X0787700Y0215501D02*
X0828900Y0215501D01*
X0828900Y0213902D02*
X0787700Y0213902D01*
X0787700Y0212303D02*
X0828900Y0212303D01*
X0828900Y0210705D02*
X0787700Y0210705D01*
X0787700Y0209106D02*
X0828900Y0209106D01*
X0828900Y0207508D02*
X0787700Y0207508D01*
X0787700Y0205909D02*
X0828900Y0205909D01*
X0828900Y0204311D02*
X0787700Y0204311D01*
X0787700Y0202712D02*
X0828900Y0202712D01*
X0828900Y0201114D02*
X0787700Y0201114D01*
X0787700Y0199515D02*
X0828900Y0199515D01*
X0828900Y0197917D02*
X0787700Y0197917D01*
X0764900Y0167545D02*
X0586200Y0167545D01*
X0586200Y0165947D02*
X0764900Y0165947D01*
X0764900Y0164348D02*
X0586200Y0164348D01*
X0586200Y0162750D02*
X0764900Y0162750D01*
X0764900Y0161151D02*
X0586200Y0161151D01*
X0586200Y0159553D02*
X0764900Y0159553D01*
X0764900Y0157954D02*
X0586200Y0157954D01*
X0586200Y0156356D02*
X0764900Y0156356D01*
X0764900Y0154757D02*
X0586200Y0154757D01*
X0586200Y0153159D02*
X0764900Y0153159D01*
X0764900Y0151560D02*
X0586200Y0151560D01*
X0586200Y0149962D02*
X0764900Y0149962D01*
X0764900Y0148363D02*
X0586200Y0148363D01*
X0586200Y0146765D02*
X0764900Y0146765D01*
X0764900Y0145166D02*
X0586200Y0145166D01*
X0586200Y0143568D02*
X0764900Y0143568D01*
X0764900Y0141969D02*
X0586200Y0141969D01*
X0586200Y0140370D02*
X0764900Y0140370D01*
X0764900Y0138772D02*
X0586200Y0138772D01*
X0586200Y0137173D02*
X0765068Y0137173D01*
X0765496Y0135575D02*
X0586200Y0135575D01*
X0586200Y0133976D02*
X0766210Y0133976D01*
X0767133Y0132378D02*
X0586200Y0132378D01*
X0586200Y0130779D02*
X0768699Y0130779D01*
X0770297Y0129181D02*
X0586200Y0129181D01*
X0586200Y0127582D02*
X0771896Y0127582D01*
X0773494Y0125984D02*
X0749840Y0125984D01*
X0754118Y0124385D02*
X0775093Y0124385D01*
X0776691Y0122787D02*
X0756435Y0122787D01*
X0758034Y0121188D02*
X0778290Y0121188D01*
X0779888Y0119590D02*
X0759113Y0119590D01*
X0760036Y0117991D02*
X0781487Y0117991D01*
X0783085Y0116393D02*
X0760568Y0116393D01*
X0760996Y0114794D02*
X0784684Y0114794D01*
X0786282Y0113196D02*
X0761175Y0113196D01*
X0756628Y0102006D02*
X0862611Y0102006D01*
X0862614Y0100408D02*
X0754452Y0100408D01*
X0750560Y0098809D02*
X0862618Y0098809D01*
X0862621Y0097211D02*
X0586200Y0097211D01*
X0586200Y0098809D02*
X0744039Y0098809D01*
X0740148Y0100408D02*
X0586200Y0100408D01*
X0586200Y0102006D02*
X0737972Y0102006D01*
X0736373Y0103605D02*
X0586200Y0103605D01*
X0586200Y0105203D02*
X0735376Y0105203D01*
X0734453Y0106802D02*
X0586200Y0106802D01*
X0586200Y0108400D02*
X0733980Y0108400D01*
X0733552Y0109999D02*
X0586200Y0109999D01*
X0586200Y0111597D02*
X0733425Y0111597D01*
X0733425Y0113196D02*
X0586200Y0113196D01*
X0586200Y0114794D02*
X0733604Y0114794D01*
X0734032Y0116393D02*
X0586200Y0116393D01*
X0586200Y0117991D02*
X0734564Y0117991D01*
X0735487Y0119590D02*
X0586200Y0119590D01*
X0586200Y0121188D02*
X0736566Y0121188D01*
X0738165Y0122787D02*
X0586200Y0122787D01*
X0586200Y0124385D02*
X0740482Y0124385D01*
X0744760Y0125984D02*
X0586200Y0125984D01*
X0586200Y0095612D02*
X0831084Y0095612D01*
X0830872Y0095556D02*
X0828268Y0094052D01*
X0826142Y0091926D01*
X0824639Y0089322D01*
X0823861Y0086418D01*
X0823861Y0083411D01*
X0824639Y0080506D01*
X0826142Y0077902D01*
X0828268Y0075776D01*
X0828900Y0075412D01*
X0828900Y0051022D01*
X0824578Y0046700D01*
X0694723Y0046700D01*
X0692549Y0047283D01*
X0689547Y0047283D01*
X0686648Y0046506D01*
X0684048Y0045005D01*
X0681926Y0042882D01*
X0680425Y0040283D01*
X0679648Y0037384D01*
X0679648Y0034382D01*
X0680425Y0031482D01*
X0681926Y0028883D01*
X0684631Y0026178D01*
X0687230Y0024677D01*
X0690130Y0023900D01*
X0830801Y0023900D01*
X0833700Y0024677D01*
X0836300Y0026178D01*
X0838422Y0028300D01*
X0849422Y0039300D01*
X0850923Y0041900D01*
X0851700Y0044799D01*
X0851700Y0075412D01*
X0852332Y0075776D01*
X0854458Y0077902D01*
X0855961Y0080506D01*
X0856739Y0083411D01*
X0856739Y0086418D01*
X0855961Y0089322D01*
X0854458Y0091926D01*
X0852332Y0094052D01*
X0849728Y0095556D01*
X0846823Y0096334D01*
X0833777Y0096334D01*
X0830872Y0095556D01*
X0828230Y0094014D02*
X0586200Y0094014D01*
X0586200Y0092415D02*
X0826631Y0092415D01*
X0825502Y0090817D02*
X0586200Y0090817D01*
X0586132Y0089218D02*
X0824611Y0089218D01*
X0824183Y0087620D02*
X0585704Y0087620D01*
X0585276Y0086021D02*
X0823861Y0086021D01*
X0823861Y0084423D02*
X0584380Y0084423D01*
X0583457Y0082824D02*
X0824018Y0082824D01*
X0824446Y0081226D02*
X0581883Y0081226D01*
X0580285Y0079627D02*
X0825147Y0079627D01*
X0826069Y0078029D02*
X0578686Y0078029D01*
X0577088Y0076430D02*
X0827615Y0076430D01*
X0828900Y0074832D02*
X0575489Y0074832D01*
X0573891Y0073233D02*
X0828900Y0073233D01*
X0828900Y0071634D02*
X0572292Y0071634D01*
X0570694Y0070036D02*
X0828900Y0070036D01*
X0828900Y0068437D02*
X0569095Y0068437D01*
X0567249Y0066839D02*
X0828900Y0066839D01*
X0828900Y0065240D02*
X0564267Y0065240D01*
X0550300Y0063642D02*
X0828900Y0063642D01*
X0828900Y0062043D02*
X0550300Y0062043D01*
X0550300Y0060445D02*
X0828900Y0060445D01*
X0828900Y0058846D02*
X0550300Y0058846D01*
X0550300Y0057248D02*
X0828900Y0057248D01*
X0828900Y0055649D02*
X0550300Y0055649D01*
X0550300Y0054051D02*
X0828900Y0054051D01*
X0828900Y0052452D02*
X0550300Y0052452D01*
X0550300Y0050854D02*
X0828732Y0050854D01*
X0827133Y0049255D02*
X0550300Y0049255D01*
X0550300Y0047657D02*
X0825535Y0047657D01*
X0843392Y0033270D02*
X0862756Y0033270D01*
X0862759Y0031672D02*
X0841794Y0031672D01*
X0840195Y0030073D02*
X0862763Y0030073D01*
X0862766Y0028475D02*
X0838597Y0028475D01*
X0836998Y0026876D02*
X0862769Y0026876D01*
X0862773Y0025278D02*
X0834741Y0025278D01*
X0844991Y0034869D02*
X0862752Y0034869D01*
X0862749Y0036467D02*
X0846589Y0036467D01*
X0848188Y0038066D02*
X0862746Y0038066D01*
X0862742Y0039664D02*
X0849632Y0039664D01*
X0850555Y0041263D02*
X0862739Y0041263D01*
X0862736Y0042861D02*
X0851181Y0042861D01*
X0851609Y0044460D02*
X0862732Y0044460D01*
X0862729Y0046058D02*
X0851700Y0046058D01*
X0851700Y0047657D02*
X0862726Y0047657D01*
X0862722Y0049255D02*
X0851700Y0049255D01*
X0851700Y0050854D02*
X0862719Y0050854D01*
X0862715Y0052452D02*
X0851700Y0052452D01*
X0851700Y0054051D02*
X0862712Y0054051D01*
X0862709Y0055649D02*
X0851700Y0055649D01*
X0851700Y0057248D02*
X0862705Y0057248D01*
X0862702Y0058846D02*
X0851700Y0058846D01*
X0851700Y0060445D02*
X0862699Y0060445D01*
X0862695Y0062043D02*
X0851700Y0062043D01*
X0851700Y0063642D02*
X0862692Y0063642D01*
X0862688Y0065240D02*
X0851700Y0065240D01*
X0851700Y0066839D02*
X0862685Y0066839D01*
X0862682Y0068437D02*
X0851700Y0068437D01*
X0851700Y0070036D02*
X0862678Y0070036D01*
X0862675Y0071634D02*
X0851700Y0071634D01*
X0851700Y0073233D02*
X0862672Y0073233D01*
X0862668Y0074832D02*
X0851700Y0074832D01*
X0852985Y0076430D02*
X0862665Y0076430D01*
X0862661Y0078029D02*
X0854531Y0078029D01*
X0855453Y0079627D02*
X0862658Y0079627D01*
X0862655Y0081226D02*
X0856154Y0081226D01*
X0856582Y0082824D02*
X0862651Y0082824D01*
X0862648Y0084423D02*
X0856739Y0084423D01*
X0856739Y0086021D02*
X0862645Y0086021D01*
X0862641Y0087620D02*
X0856417Y0087620D01*
X0855989Y0089218D02*
X0862638Y0089218D01*
X0862634Y0090817D02*
X0855098Y0090817D01*
X0853969Y0092415D02*
X0862631Y0092415D01*
X0862628Y0094014D02*
X0852370Y0094014D01*
X0849516Y0095612D02*
X0862624Y0095612D01*
X0862776Y0023679D02*
X0550300Y0023679D01*
X0550300Y0022081D02*
X0862780Y0022081D01*
X0862783Y0020482D02*
X0550300Y0020482D01*
X0550300Y0018884D02*
X0862786Y0018884D01*
X0862790Y0017285D02*
X0550300Y0017285D01*
X0550300Y0015687D02*
X0862793Y0015687D01*
X0862796Y0014088D02*
X0550300Y0014088D01*
X0550300Y0012490D02*
X0862800Y0012490D01*
X0862803Y0010891D02*
X0550300Y0010891D01*
X0550300Y0009293D02*
X0862806Y0009293D01*
X0686190Y0025278D02*
X0550300Y0025278D01*
X0550300Y0026876D02*
X0683932Y0026876D01*
X0682334Y0028475D02*
X0551247Y0028475D01*
X0552169Y0030073D02*
X0681239Y0030073D01*
X0680374Y0031672D02*
X0552735Y0031672D01*
X0553164Y0033270D02*
X0679946Y0033270D01*
X0679648Y0034869D02*
X0553373Y0034869D01*
X0553373Y0036467D02*
X0679648Y0036467D01*
X0679831Y0038066D02*
X0553279Y0038066D01*
X0552850Y0039664D02*
X0680259Y0039664D01*
X0680991Y0041263D02*
X0552417Y0041263D01*
X0551494Y0042861D02*
X0681914Y0042861D01*
X0683503Y0044460D02*
X0550554Y0044460D01*
X0550300Y0046058D02*
X0685873Y0046058D01*
X0688932Y0169144D02*
X0586200Y0169144D01*
X0586200Y0170742D02*
X0684939Y0170742D01*
X0682964Y0172341D02*
X0586144Y0172341D01*
X0585715Y0173939D02*
X0681602Y0173939D01*
X0680679Y0175538D02*
X0585287Y0175538D01*
X0584403Y0177136D02*
X0680115Y0177136D01*
X0679686Y0178735D02*
X0583481Y0178735D01*
X0581924Y0180333D02*
X0679648Y0180333D01*
X0679662Y0181932D02*
X0580326Y0181932D01*
X0578727Y0183530D02*
X0680090Y0183530D01*
X0680627Y0185129D02*
X0577129Y0185129D01*
X0575530Y0186727D02*
X0681550Y0186727D01*
X0682873Y0188326D02*
X0573932Y0188326D01*
X0572333Y0189924D02*
X0684782Y0189924D01*
X0688592Y0191523D02*
X0570735Y0191523D01*
X0371900Y0309813D02*
X0317000Y0309813D01*
X0317000Y0311411D02*
X0371900Y0311411D01*
X0371900Y0313010D02*
X0317520Y0313010D01*
X0319119Y0314608D02*
X0371900Y0314608D01*
X0371900Y0316207D02*
X0320717Y0316207D01*
X0322316Y0317805D02*
X0371900Y0317805D01*
X0371900Y0319404D02*
X0323915Y0319404D01*
X0325513Y0321002D02*
X0371900Y0321002D01*
X0371900Y0322601D02*
X0327112Y0322601D01*
X0328710Y0324199D02*
X0371900Y0324199D01*
X0371900Y0325798D02*
X0330309Y0325798D01*
X0331907Y0327396D02*
X0371900Y0327396D01*
X0371900Y0328995D02*
X0333506Y0328995D01*
X0334223Y0330593D02*
X0371900Y0330593D01*
X0371900Y0332192D02*
X0334885Y0332192D01*
X0335000Y0333790D02*
X0371900Y0333790D01*
X0371900Y0335389D02*
X0358295Y0335389D01*
X0355077Y0335389D02*
X0335000Y0335389D01*
X0335000Y0336987D02*
X0350808Y0336987D01*
X0348730Y0338586D02*
X0335000Y0338586D01*
X0335000Y0340184D02*
X0347308Y0340184D01*
X0346385Y0341783D02*
X0335806Y0341783D01*
X0336416Y0343381D02*
X0345774Y0343381D01*
X0345346Y0344980D02*
X0336845Y0344980D01*
X0336924Y0346578D02*
X0345266Y0346578D01*
X0345266Y0348177D02*
X0336924Y0348177D01*
X0336924Y0349775D02*
X0345266Y0349775D01*
X0345266Y0351374D02*
X0336924Y0351374D01*
X0336924Y0352972D02*
X0345266Y0352972D01*
X0345266Y0354571D02*
X0336924Y0354571D01*
X0336924Y0356170D02*
X0345266Y0356170D01*
X0345266Y0357768D02*
X0336924Y0357768D01*
X0336645Y0359367D02*
X0345546Y0359367D01*
X0345974Y0360965D02*
X0336216Y0360965D01*
X0335375Y0362564D02*
X0346816Y0362564D01*
X0347486Y0364162D02*
X0334705Y0364162D01*
X0334705Y0365761D02*
X0347486Y0365761D01*
X0347486Y0367359D02*
X0334705Y0367359D01*
X0334705Y0368958D02*
X0347486Y0368958D01*
X0347486Y0370556D02*
X0334705Y0370556D01*
X0334705Y0372155D02*
X0347486Y0372155D01*
X0347486Y0373753D02*
X0334705Y0373753D01*
X0334705Y0375352D02*
X0347486Y0375352D01*
X0347486Y0376950D02*
X0334705Y0376950D01*
X0334705Y0378549D02*
X0347486Y0378549D01*
X0347486Y0380147D02*
X0334705Y0380147D01*
X0334705Y0381746D02*
X0347486Y0381746D01*
X0347486Y0383344D02*
X0334705Y0383344D01*
X0334705Y0384943D02*
X0347486Y0384943D01*
X0347486Y0386541D02*
X0334705Y0386541D01*
X0334705Y0388140D02*
X0347951Y0388140D01*
X0348613Y0389738D02*
X0334705Y0389738D01*
X0334705Y0391337D02*
X0349826Y0391337D01*
X0349746Y0392935D02*
X0334705Y0392935D01*
X0334705Y0394534D02*
X0348055Y0394534D01*
X0346740Y0396132D02*
X0334705Y0396132D01*
X0334705Y0397731D02*
X0345800Y0397731D01*
X0345600Y0399329D02*
X0334705Y0399329D01*
X0334705Y0400928D02*
X0345600Y0400928D01*
X0345600Y0402526D02*
X0334705Y0402526D01*
X0334705Y0404125D02*
X0345600Y0404125D01*
X0345600Y0405723D02*
X0334705Y0405723D01*
X0334705Y0407322D02*
X0345600Y0407322D01*
X0345600Y0408920D02*
X0334705Y0408920D01*
X0334705Y0410519D02*
X0345600Y0410519D01*
X0345600Y0412117D02*
X0334705Y0412117D01*
X0334705Y0413716D02*
X0345600Y0413716D01*
X0345600Y0415314D02*
X0334705Y0415314D01*
X0334705Y0416913D02*
X0345600Y0416913D01*
X0345600Y0418511D02*
X0334705Y0418511D01*
X0334705Y0420110D02*
X0345600Y0420110D01*
X0345600Y0421708D02*
X0334705Y0421708D01*
X0334705Y0423307D02*
X0344282Y0423307D01*
X0342684Y0424905D02*
X0334705Y0424905D01*
X0334705Y0426504D02*
X0341085Y0426504D01*
X0339487Y0428103D02*
X0334217Y0428103D01*
X0333555Y0429701D02*
X0337888Y0429701D01*
X0336290Y0431300D02*
X0332311Y0431300D01*
X0330713Y0432898D02*
X0334691Y0432898D01*
X0329734Y0434497D02*
X0329114Y0434497D01*
X0324361Y0439292D02*
X0324319Y0439292D01*
X0323699Y0440891D02*
X0322720Y0440891D01*
X0323313Y0442489D02*
X0321122Y0442489D01*
X0320287Y0444088D02*
X0323313Y0444088D01*
X0323313Y0445686D02*
X0320287Y0445686D01*
X0319662Y0447285D02*
X0323938Y0447285D01*
X0324531Y0448883D02*
X0319069Y0448883D01*
X0319731Y0450482D02*
X0323869Y0450482D01*
X0323313Y0452080D02*
X0320287Y0452080D01*
X0320287Y0453679D02*
X0323313Y0453679D01*
X0323313Y0455277D02*
X0320287Y0455277D01*
X0319832Y0456876D02*
X0323768Y0456876D01*
X0324430Y0458474D02*
X0319170Y0458474D01*
X0319562Y0460073D02*
X0325467Y0460073D01*
X0327066Y0461671D02*
X0320224Y0461671D01*
X0320287Y0463270D02*
X0330136Y0463270D01*
X0320287Y0464868D02*
X0371900Y0464868D01*
X0371900Y0463270D02*
X0354186Y0463270D01*
X0357439Y0461671D02*
X0371900Y0461671D01*
X0371900Y0460073D02*
X0359038Y0460073D01*
X0360637Y0458474D02*
X0371900Y0458474D01*
X0371900Y0456876D02*
X0362235Y0456876D01*
X0363834Y0455277D02*
X0371900Y0455277D01*
X0371900Y0453679D02*
X0365432Y0453679D01*
X0367031Y0452080D02*
X0371900Y0452080D01*
X0371900Y0450482D02*
X0368629Y0450482D01*
X0370228Y0448883D02*
X0371900Y0448883D01*
X0371900Y0447285D02*
X0371826Y0447285D01*
X0371900Y0466467D02*
X0320001Y0466467D01*
X0319339Y0468065D02*
X0371900Y0468065D01*
X0371900Y0469664D02*
X0318541Y0469664D01*
X0316943Y0471262D02*
X0371900Y0471262D01*
X0371900Y0472861D02*
X0314452Y0472861D01*
X0309151Y0474459D02*
X0371900Y0474459D01*
X0371900Y0476058D02*
X0307553Y0476058D01*
X0305954Y0477656D02*
X0371900Y0477656D01*
X0371900Y0479255D02*
X0304356Y0479255D01*
X0304511Y0479099D02*
X0304511Y0479099D01*
X0302757Y0480853D02*
X0371900Y0480853D01*
X0371900Y0482452D02*
X0301159Y0482452D01*
X0299560Y0484050D02*
X0371900Y0484050D01*
X0371900Y0485649D02*
X0297962Y0485649D01*
X0296363Y0487247D02*
X0371900Y0487247D01*
X0371900Y0488846D02*
X0337479Y0488846D01*
X0336656Y0488371D02*
X0339819Y0490197D01*
X0342403Y0492781D01*
X0344229Y0495944D01*
X0345175Y0499473D01*
X0345175Y0503127D01*
X0344229Y0506656D01*
X0342403Y0509819D01*
X0339819Y0512403D01*
X0336656Y0514229D01*
X0333127Y0515175D01*
X0329473Y0515175D01*
X0325944Y0514229D01*
X0322781Y0512403D01*
X0320197Y0509819D01*
X0318371Y0506656D01*
X0317425Y0503127D01*
X0317425Y0499473D01*
X0318371Y0495944D01*
X0320197Y0492781D01*
X0322781Y0490197D01*
X0325944Y0488371D01*
X0329473Y0487425D01*
X0333127Y0487425D01*
X0336656Y0488371D01*
X0340067Y0490444D02*
X0371900Y0490444D01*
X0371900Y0492043D02*
X0341665Y0492043D01*
X0342900Y0493641D02*
X0371900Y0493641D01*
X0371900Y0495240D02*
X0343823Y0495240D01*
X0344469Y0496839D02*
X0371900Y0496839D01*
X0371900Y0498437D02*
X0344897Y0498437D01*
X0345175Y0500036D02*
X0371900Y0500036D01*
X0371900Y0501634D02*
X0345175Y0501634D01*
X0345147Y0503233D02*
X0371900Y0503233D01*
X0371900Y0504831D02*
X0344718Y0504831D01*
X0344290Y0506430D02*
X0371900Y0506430D01*
X0371900Y0508028D02*
X0343437Y0508028D01*
X0342514Y0509627D02*
X0371900Y0509627D01*
X0371900Y0511225D02*
X0340997Y0511225D01*
X0339090Y0512824D02*
X0371900Y0512824D01*
X0371900Y0514422D02*
X0335936Y0514422D01*
X0326664Y0514422D02*
X0260310Y0514422D01*
X0261908Y0512824D02*
X0323510Y0512824D01*
X0321603Y0511225D02*
X0263507Y0511225D01*
X0265105Y0509627D02*
X0320086Y0509627D01*
X0319163Y0508028D02*
X0266704Y0508028D01*
X0268302Y0506430D02*
X0318310Y0506430D01*
X0317882Y0504831D02*
X0269901Y0504831D01*
X0271500Y0503233D02*
X0317453Y0503233D01*
X0317425Y0501634D02*
X0273098Y0501634D01*
X0274133Y0500036D02*
X0317425Y0500036D01*
X0317703Y0498437D02*
X0274903Y0498437D01*
X0275331Y0496839D02*
X0318131Y0496839D01*
X0318777Y0495240D02*
X0275500Y0495240D01*
X0275500Y0493641D02*
X0319700Y0493641D01*
X0320935Y0492043D02*
X0275500Y0492043D01*
X0275500Y0490444D02*
X0322533Y0490444D01*
X0325121Y0488846D02*
X0293002Y0488846D01*
X0286598Y0488846D02*
X0275500Y0488846D01*
X0275500Y0487247D02*
X0283237Y0487247D01*
X0281638Y0485649D02*
X0275500Y0485649D01*
X0275500Y0484050D02*
X0280323Y0484050D01*
X0279800Y0482452D02*
X0275500Y0482452D01*
X0275500Y0480853D02*
X0279600Y0480853D01*
X0279600Y0479255D02*
X0275500Y0479255D01*
X0275500Y0477656D02*
X0279730Y0477656D01*
X0279814Y0476058D02*
X0275500Y0476058D01*
X0275500Y0474459D02*
X0281130Y0474459D01*
X0282728Y0472861D02*
X0275500Y0472861D01*
X0275500Y0471262D02*
X0284610Y0471262D01*
X0285150Y0469664D02*
X0275500Y0469664D01*
X0275500Y0468065D02*
X0284487Y0468065D01*
X0284100Y0466467D02*
X0275500Y0466467D01*
X0275500Y0464868D02*
X0284100Y0464868D01*
X0284100Y0463270D02*
X0275500Y0463270D01*
X0275500Y0461671D02*
X0284100Y0461671D01*
X0284100Y0460073D02*
X0275500Y0460073D01*
X0275500Y0458474D02*
X0284100Y0458474D01*
X0284100Y0456876D02*
X0275518Y0456876D01*
X0276327Y0455277D02*
X0284100Y0455277D01*
X0284100Y0453679D02*
X0276989Y0453679D01*
X0279275Y0452080D02*
X0284100Y0452080D01*
X0284100Y0450482D02*
X0282663Y0450482D01*
X0254100Y0456894D02*
X0253831Y0456625D01*
X0252400Y0453170D01*
X0252400Y0452500D01*
X0157200Y0452500D01*
X0157200Y0453670D01*
X0155769Y0457125D01*
X0153125Y0459769D01*
X0151142Y0460590D01*
X0133370Y0478362D01*
X0130930Y0479771D01*
X0128209Y0480500D01*
X0108732Y0480500D01*
X0105871Y0483361D01*
X0106099Y0483361D01*
X0109003Y0484139D01*
X0111607Y0485642D01*
X0113733Y0487768D01*
X0115237Y0490372D01*
X0116015Y0493277D01*
X0116015Y0506323D01*
X0115580Y0507948D01*
X0122232Y0514600D01*
X0197089Y0514600D01*
X0195501Y0513011D01*
X0189296Y0506807D01*
X0187895Y0503425D01*
X0187895Y0500816D01*
X0185913Y0501961D01*
X0183008Y0502739D01*
X0180001Y0502739D01*
X0177097Y0501961D01*
X0174493Y0500458D01*
X0173709Y0499674D01*
X0172926Y0500458D01*
X0170322Y0501961D01*
X0167418Y0502739D01*
X0164411Y0502739D01*
X0161506Y0501961D01*
X0158902Y0500458D01*
X0156776Y0498332D01*
X0155273Y0495728D01*
X0154494Y0492823D01*
X0154494Y0479777D01*
X0155273Y0476872D01*
X0156776Y0474268D01*
X0158902Y0472142D01*
X0161506Y0470639D01*
X0164411Y0469861D01*
X0167418Y0469861D01*
X0170322Y0470639D01*
X0172926Y0472142D01*
X0173709Y0472926D01*
X0174493Y0472142D01*
X0177097Y0470639D01*
X0180001Y0469861D01*
X0183008Y0469861D01*
X0185913Y0470639D01*
X0188517Y0472142D01*
X0189300Y0472926D01*
X0190083Y0472142D01*
X0192687Y0470639D01*
X0195592Y0469861D01*
X0198599Y0469861D01*
X0201503Y0470639D01*
X0204107Y0472142D01*
X0206233Y0474268D01*
X0207737Y0476872D01*
X0208515Y0479777D01*
X0208515Y0492823D01*
X0207737Y0495728D01*
X0206456Y0497945D01*
X0207111Y0498600D01*
X0214489Y0498600D01*
X0229600Y0483489D01*
X0229600Y0477970D01*
X0229800Y0477487D01*
X0229800Y0476072D01*
X0230801Y0475071D01*
X0231001Y0474589D01*
X0233589Y0472001D01*
X0234071Y0471801D01*
X0235072Y0470800D01*
X0236487Y0470800D01*
X0236970Y0470600D01*
X0240630Y0470600D01*
X0241113Y0470800D01*
X0242528Y0470800D01*
X0243529Y0471801D01*
X0244011Y0472001D01*
X0246599Y0474589D01*
X0246799Y0475071D01*
X0247800Y0476072D01*
X0247800Y0477487D01*
X0248000Y0477970D01*
X0248000Y0489130D01*
X0246599Y0492511D01*
X0244011Y0495099D01*
X0224511Y0514600D01*
X0229868Y0514600D01*
X0254100Y0490368D01*
X0254100Y0456894D01*
X0254082Y0456876D02*
X0155872Y0456876D01*
X0156534Y0455277D02*
X0253273Y0455277D01*
X0252611Y0453679D02*
X0157196Y0453679D01*
X0154419Y0458474D02*
X0254100Y0458474D01*
X0254100Y0460073D02*
X0152391Y0460073D01*
X0150061Y0461671D02*
X0254100Y0461671D01*
X0254100Y0463270D02*
X0148462Y0463270D01*
X0146864Y0464868D02*
X0254100Y0464868D01*
X0254100Y0466467D02*
X0145265Y0466467D01*
X0143667Y0468065D02*
X0254100Y0468065D01*
X0254100Y0469664D02*
X0142068Y0469664D01*
X0140470Y0471262D02*
X0160426Y0471262D01*
X0158184Y0472861D02*
X0138871Y0472861D01*
X0137273Y0474459D02*
X0156666Y0474459D01*
X0155743Y0476058D02*
X0135674Y0476058D01*
X0134076Y0477656D02*
X0155063Y0477656D01*
X0154634Y0479255D02*
X0131824Y0479255D01*
X0114355Y0488846D02*
X0154494Y0488846D01*
X0154494Y0490444D02*
X0115256Y0490444D01*
X0115684Y0492043D02*
X0154494Y0492043D01*
X0154714Y0493641D02*
X0116015Y0493641D01*
X0116015Y0495240D02*
X0155142Y0495240D01*
X0155914Y0496839D02*
X0116015Y0496839D01*
X0116015Y0498437D02*
X0156882Y0498437D01*
X0158480Y0500036D02*
X0116015Y0500036D01*
X0116015Y0501634D02*
X0160940Y0501634D01*
X0170889Y0501634D02*
X0176530Y0501634D01*
X0174071Y0500036D02*
X0173348Y0500036D01*
X0186479Y0501634D02*
X0187895Y0501634D01*
X0187895Y0503233D02*
X0116015Y0503233D01*
X0116015Y0504831D02*
X0188478Y0504831D01*
X0189140Y0506430D02*
X0115986Y0506430D01*
X0115660Y0508028D02*
X0190517Y0508028D01*
X0192116Y0509627D02*
X0117259Y0509627D01*
X0118857Y0511225D02*
X0193714Y0511225D01*
X0195313Y0512824D02*
X0120456Y0512824D01*
X0122054Y0514422D02*
X0196911Y0514422D01*
X0206948Y0498437D02*
X0214652Y0498437D01*
X0216251Y0496839D02*
X0207095Y0496839D01*
X0207867Y0495240D02*
X0217849Y0495240D01*
X0219448Y0493641D02*
X0208296Y0493641D01*
X0208515Y0492043D02*
X0221046Y0492043D01*
X0222645Y0490444D02*
X0208515Y0490444D01*
X0208515Y0488846D02*
X0224243Y0488846D01*
X0225842Y0487247D02*
X0208515Y0487247D01*
X0208515Y0485649D02*
X0227440Y0485649D01*
X0229039Y0484050D02*
X0208515Y0484050D01*
X0208515Y0482452D02*
X0229600Y0482452D01*
X0229600Y0480853D02*
X0208515Y0480853D01*
X0208375Y0479255D02*
X0229600Y0479255D01*
X0229730Y0477656D02*
X0207947Y0477656D01*
X0207266Y0476058D02*
X0229814Y0476058D01*
X0231130Y0474459D02*
X0206344Y0474459D01*
X0204826Y0472861D02*
X0232728Y0472861D01*
X0234610Y0471262D02*
X0202583Y0471262D01*
X0191608Y0471262D02*
X0186992Y0471262D01*
X0189235Y0472861D02*
X0189365Y0472861D01*
X0176017Y0471262D02*
X0171402Y0471262D01*
X0173645Y0472861D02*
X0173774Y0472861D01*
X0154494Y0480853D02*
X0108379Y0480853D01*
X0106780Y0482452D02*
X0154494Y0482452D01*
X0154494Y0484050D02*
X0108673Y0484050D01*
X0111614Y0485649D02*
X0154494Y0485649D01*
X0154494Y0487247D02*
X0113212Y0487247D01*
X0094570Y0516021D02*
X0091324Y0516021D01*
X0095429Y0517619D02*
X0008700Y0517619D01*
X0008700Y0516021D02*
X0071094Y0516021D01*
X0067207Y0514422D02*
X0031936Y0514422D01*
X0032656Y0514229D02*
X0029127Y0515175D01*
X0025473Y0515175D01*
X0021944Y0514229D01*
X0018781Y0512403D01*
X0016197Y0509819D01*
X0014371Y0506656D01*
X0013425Y0503127D01*
X0013425Y0499473D01*
X0014371Y0495944D01*
X0016197Y0492781D01*
X0018781Y0490197D01*
X0021944Y0488371D01*
X0025473Y0487425D01*
X0029127Y0487425D01*
X0032656Y0488371D01*
X0035819Y0490197D01*
X0038403Y0492781D01*
X0040229Y0495944D01*
X0041175Y0499473D01*
X0041175Y0503127D01*
X0040229Y0506656D01*
X0038403Y0509819D01*
X0035819Y0512403D01*
X0032656Y0514229D01*
X0035090Y0512824D02*
X0065268Y0512824D01*
X0063926Y0511225D02*
X0036997Y0511225D01*
X0038514Y0509627D02*
X0063003Y0509627D01*
X0062451Y0508028D02*
X0039437Y0508028D01*
X0040290Y0506430D02*
X0062023Y0506430D01*
X0061994Y0504831D02*
X0040718Y0504831D01*
X0041147Y0503233D02*
X0061715Y0503233D01*
X0060116Y0501634D02*
X0041175Y0501634D01*
X0041175Y0500036D02*
X0058518Y0500036D01*
X0056919Y0498437D02*
X0040897Y0498437D01*
X0040469Y0496839D02*
X0055321Y0496839D01*
X0053722Y0495240D02*
X0039823Y0495240D01*
X0038900Y0493641D02*
X0052124Y0493641D01*
X0050525Y0492043D02*
X0037665Y0492043D01*
X0036067Y0490444D02*
X0048927Y0490444D01*
X0047328Y0488846D02*
X0033479Y0488846D01*
X0043253Y0484050D02*
X0008700Y0484050D01*
X0008700Y0482452D02*
X0042598Y0482452D01*
X0042169Y0480853D02*
X0008700Y0480853D01*
X0008700Y0479255D02*
X0042100Y0479255D01*
X0042100Y0477656D02*
X0008700Y0477656D01*
X0008700Y0476058D02*
X0042100Y0476058D01*
X0042100Y0474459D02*
X0008700Y0474459D01*
X0008700Y0472861D02*
X0042100Y0472861D01*
X0042100Y0471262D02*
X0008700Y0471262D01*
X0008700Y0469664D02*
X0042100Y0469664D01*
X0042100Y0468065D02*
X0008700Y0468065D01*
X0008700Y0466467D02*
X0042100Y0466467D01*
X0042100Y0464868D02*
X0008700Y0464868D01*
X0008700Y0463270D02*
X0042100Y0463270D01*
X0042100Y0461671D02*
X0008700Y0461671D01*
X0008700Y0460073D02*
X0042100Y0460073D01*
X0042100Y0458474D02*
X0008700Y0458474D01*
X0008700Y0456876D02*
X0041728Y0456876D01*
X0041066Y0455277D02*
X0008700Y0455277D01*
X0008700Y0453679D02*
X0040404Y0453679D01*
X0040400Y0452080D02*
X0008700Y0452080D01*
X0008700Y0450482D02*
X0040400Y0450482D01*
X0040834Y0448883D02*
X0008700Y0448883D01*
X0008700Y0447285D02*
X0041496Y0447285D01*
X0041235Y0445686D02*
X0008700Y0445686D01*
X0008700Y0444088D02*
X0040573Y0444088D01*
X0040400Y0442489D02*
X0008700Y0442489D01*
X0008700Y0440891D02*
X0024706Y0440891D01*
X0021281Y0439292D02*
X0008700Y0439292D01*
X0008700Y0437694D02*
X0019683Y0437694D01*
X0018367Y0436095D02*
X0008700Y0436095D01*
X0008700Y0434497D02*
X0017800Y0434497D01*
X0017600Y0432898D02*
X0008700Y0432898D01*
X0008700Y0431300D02*
X0017600Y0431300D01*
X0017711Y0429701D02*
X0008700Y0429701D01*
X0008700Y0428103D02*
X0017800Y0428103D01*
X0019085Y0426504D02*
X0008700Y0426504D01*
X0008700Y0424905D02*
X0020684Y0424905D01*
X0022565Y0423307D02*
X0008700Y0423307D01*
X0008700Y0421708D02*
X0055600Y0421708D01*
X0055600Y0420110D02*
X0008700Y0420110D01*
X0008700Y0418511D02*
X0055600Y0418511D01*
X0055600Y0416913D02*
X0008700Y0416913D01*
X0008700Y0415314D02*
X0055600Y0415314D01*
X0055600Y0413716D02*
X0008700Y0413716D01*
X0008700Y0412117D02*
X0055600Y0412117D01*
X0055600Y0410519D02*
X0008700Y0410519D01*
X0008700Y0408920D02*
X0055600Y0408920D01*
X0055600Y0407322D02*
X0008700Y0407322D01*
X0008700Y0405723D02*
X0055600Y0405723D01*
X0055600Y0404125D02*
X0008700Y0404125D01*
X0008700Y0402526D02*
X0055698Y0402526D01*
X0056126Y0400928D02*
X0008700Y0400928D01*
X0008700Y0399329D02*
X0056357Y0399329D01*
X0056791Y0397731D02*
X0008700Y0397731D01*
X0008700Y0396132D02*
X0057453Y0396132D01*
X0058461Y0394534D02*
X0008700Y0394534D01*
X0008700Y0392935D02*
X0060059Y0392935D01*
X0063059Y0391337D02*
X0008700Y0391337D01*
X0008700Y0389738D02*
X0021924Y0389738D01*
X0020129Y0388140D02*
X0008700Y0388140D01*
X0008700Y0386541D02*
X0018806Y0386541D01*
X0017800Y0384943D02*
X0008700Y0384943D01*
X0008700Y0383344D02*
X0017600Y0383344D01*
X0017600Y0381746D02*
X0008700Y0381746D01*
X0008700Y0380147D02*
X0017600Y0380147D01*
X0017600Y0378549D02*
X0008700Y0378549D01*
X0008700Y0376950D02*
X0018022Y0376950D01*
X0018685Y0375352D02*
X0008700Y0375352D01*
X0008700Y0373753D02*
X0019836Y0373753D01*
X0021435Y0372155D02*
X0008700Y0372155D01*
X0008700Y0370556D02*
X0023033Y0370556D01*
X0024632Y0368958D02*
X0008700Y0368958D01*
X0008700Y0367359D02*
X0026230Y0367359D01*
X0028875Y0365761D02*
X0008700Y0365761D01*
X0008700Y0364162D02*
X0058833Y0364162D01*
X0060431Y0362564D02*
X0008700Y0362564D01*
X0008700Y0360965D02*
X0063956Y0360965D01*
X0059337Y0384943D02*
X0035800Y0384943D01*
X0034794Y0386541D02*
X0061316Y0386541D01*
X0091284Y0386541D02*
X0111306Y0386541D01*
X0110300Y0384943D02*
X0093263Y0384943D01*
X0094784Y0383344D02*
X0110100Y0383344D01*
X0110100Y0381746D02*
X0095446Y0381746D01*
X0096108Y0380147D02*
X0110100Y0380147D01*
X0110300Y0378549D02*
X0096243Y0378549D01*
X0096661Y0376950D02*
X0111351Y0376950D01*
X0112738Y0375352D02*
X0098259Y0375352D01*
X0099858Y0373753D02*
X0114619Y0373753D01*
X0107850Y0365761D02*
X0152814Y0365761D01*
X0152152Y0367359D02*
X0106252Y0367359D01*
X0104653Y0368958D02*
X0151490Y0368958D01*
X0151357Y0370556D02*
X0103055Y0370556D01*
X0101456Y0372155D02*
X0150935Y0372155D01*
X0154333Y0364162D02*
X0109449Y0364162D01*
X0111047Y0362564D02*
X0156304Y0362564D01*
X0114424Y0389738D02*
X0031676Y0389738D01*
X0033471Y0388140D02*
X0112629Y0388140D01*
X0095147Y0396132D02*
X0152660Y0396132D01*
X0151998Y0397731D02*
X0095809Y0397731D01*
X0096243Y0399329D02*
X0151357Y0399329D01*
X0151260Y0400928D02*
X0096243Y0400928D01*
X0096243Y0402526D02*
X0150832Y0402526D01*
X0150600Y0404125D02*
X0096243Y0404125D01*
X0096243Y0405723D02*
X0150600Y0405723D01*
X0150600Y0407322D02*
X0096243Y0407322D01*
X0096243Y0408920D02*
X0150600Y0408920D01*
X0150600Y0410519D02*
X0095954Y0410519D01*
X0095292Y0412117D02*
X0150600Y0412117D01*
X0150600Y0413716D02*
X0094489Y0413716D01*
X0092891Y0415314D02*
X0150600Y0415314D01*
X0150600Y0416913D02*
X0090387Y0416913D01*
X0082213Y0416913D02*
X0080387Y0416913D01*
X0077000Y0418511D02*
X0150600Y0418511D01*
X0150600Y0420110D02*
X0077000Y0420110D01*
X0077000Y0421708D02*
X0150600Y0421708D01*
X0115065Y0423307D02*
X0077000Y0423307D01*
X0077000Y0424905D02*
X0113184Y0424905D01*
X0111585Y0426504D02*
X0077000Y0426504D01*
X0077000Y0428103D02*
X0110300Y0428103D01*
X0110211Y0429701D02*
X0077000Y0429701D01*
X0094139Y0394534D02*
X0153961Y0394534D01*
X0155559Y0392935D02*
X0092541Y0392935D01*
X0044176Y0485649D02*
X0008700Y0485649D01*
X0008700Y0487247D02*
X0045730Y0487247D01*
X0021121Y0488846D02*
X0008700Y0488846D01*
X0008700Y0490444D02*
X0018533Y0490444D01*
X0016935Y0492043D02*
X0008700Y0492043D01*
X0008700Y0493641D02*
X0015700Y0493641D01*
X0014777Y0495240D02*
X0008700Y0495240D01*
X0008700Y0496839D02*
X0014131Y0496839D01*
X0013703Y0498437D02*
X0008700Y0498437D01*
X0008700Y0500036D02*
X0013425Y0500036D01*
X0013425Y0501634D02*
X0008700Y0501634D01*
X0008700Y0503233D02*
X0013453Y0503233D01*
X0013882Y0504831D02*
X0008700Y0504831D01*
X0008700Y0506430D02*
X0014310Y0506430D01*
X0015163Y0508028D02*
X0008700Y0508028D01*
X0008700Y0509627D02*
X0016086Y0509627D01*
X0017603Y0511225D02*
X0008700Y0511225D01*
X0008700Y0512824D02*
X0019510Y0512824D01*
X0022664Y0514422D02*
X0008700Y0514422D01*
X0008700Y0519218D02*
X0096586Y0519218D01*
X0098184Y0520816D02*
X0008700Y0520816D01*
X0008700Y0522415D02*
X0099783Y0522415D01*
X0101381Y0524013D02*
X0008700Y0524013D01*
X0008700Y0525612D02*
X0102980Y0525612D01*
X0104578Y0527210D02*
X0008700Y0527210D01*
X0008700Y0528809D02*
X0106177Y0528809D01*
X0107775Y0530407D02*
X0008700Y0530407D01*
X0008700Y0532006D02*
X0109374Y0532006D01*
X0110972Y0533604D02*
X0008700Y0533604D01*
X0008700Y0535203D02*
X0113552Y0535203D01*
X0086685Y0516021D02*
X0075734Y0516021D01*
X0079622Y0514422D02*
X0082797Y0514422D01*
X0008700Y0536801D02*
X0371900Y0536801D01*
X0371900Y0535203D02*
X0238548Y0535203D01*
X0241128Y0533604D02*
X0371900Y0533604D01*
X0371900Y0532006D02*
X0242726Y0532006D01*
X0244325Y0530407D02*
X0371900Y0530407D01*
X0371900Y0528809D02*
X0245923Y0528809D01*
X0247522Y0527210D02*
X0371900Y0527210D01*
X0371900Y0525612D02*
X0249120Y0525612D01*
X0250719Y0524013D02*
X0371900Y0524013D01*
X0371900Y0522415D02*
X0252317Y0522415D01*
X0253916Y0520816D02*
X0371900Y0520816D01*
X0371900Y0519218D02*
X0255514Y0519218D01*
X0257113Y0517619D02*
X0371900Y0517619D01*
X0371900Y0516021D02*
X0258711Y0516021D01*
X0242834Y0501634D02*
X0237477Y0501634D01*
X0239075Y0500036D02*
X0244432Y0500036D01*
X0246031Y0498437D02*
X0240674Y0498437D01*
X0242272Y0496839D02*
X0247629Y0496839D01*
X0249228Y0495240D02*
X0243871Y0495240D01*
X0245469Y0493641D02*
X0250826Y0493641D01*
X0252425Y0492043D02*
X0246793Y0492043D01*
X0247456Y0490444D02*
X0254023Y0490444D01*
X0254100Y0488846D02*
X0248000Y0488846D01*
X0248000Y0487247D02*
X0254100Y0487247D01*
X0254100Y0485649D02*
X0248000Y0485649D01*
X0248000Y0484050D02*
X0254100Y0484050D01*
X0254100Y0482452D02*
X0248000Y0482452D01*
X0248000Y0480853D02*
X0254100Y0480853D01*
X0254100Y0479255D02*
X0248000Y0479255D01*
X0247870Y0477656D02*
X0254100Y0477656D01*
X0254100Y0476058D02*
X0247786Y0476058D01*
X0246470Y0474459D02*
X0254100Y0474459D01*
X0254100Y0472861D02*
X0244872Y0472861D01*
X0242990Y0471262D02*
X0254100Y0471262D01*
X0241235Y0503233D02*
X0235878Y0503233D01*
X0234280Y0504831D02*
X0239637Y0504831D01*
X0238038Y0506430D02*
X0232681Y0506430D01*
X0231083Y0508028D02*
X0236440Y0508028D01*
X0234841Y0509627D02*
X0229484Y0509627D01*
X0227886Y0511225D02*
X0233243Y0511225D01*
X0231644Y0512824D02*
X0226287Y0512824D01*
X0224689Y0514422D02*
X0230046Y0514422D01*
X0274699Y0424905D02*
X0275100Y0424905D01*
X0275100Y0423307D02*
X0274500Y0423307D01*
X0274500Y0421708D02*
X0275100Y0421708D01*
X0275100Y0420110D02*
X0274500Y0420110D01*
X0274500Y0418511D02*
X0275100Y0418511D01*
X0275100Y0416913D02*
X0274500Y0416913D01*
X0274500Y0415314D02*
X0275100Y0415314D01*
X0275100Y0413716D02*
X0274500Y0413716D01*
X0274500Y0412117D02*
X0275100Y0412117D01*
X0275100Y0410519D02*
X0274500Y0410519D01*
X0274500Y0408920D02*
X0275100Y0408920D01*
X0275100Y0407322D02*
X0274500Y0407322D01*
X0274500Y0405723D02*
X0275100Y0405723D01*
X0275100Y0404125D02*
X0274300Y0404125D01*
X0273754Y0402526D02*
X0275100Y0402526D01*
X0275100Y0400928D02*
X0272439Y0400928D01*
X0270840Y0399329D02*
X0275100Y0399329D01*
X0275100Y0397731D02*
X0267446Y0397731D01*
X0267579Y0396132D02*
X0275100Y0396132D01*
X0275100Y0394534D02*
X0268241Y0394534D01*
X0268743Y0392935D02*
X0275100Y0392935D01*
X0275100Y0391337D02*
X0268743Y0391337D01*
X0268743Y0389738D02*
X0275100Y0389738D01*
X0275100Y0388140D02*
X0268743Y0388140D01*
X0268743Y0386541D02*
X0275100Y0386541D01*
X0275100Y0384943D02*
X0268743Y0384943D01*
X0268743Y0383344D02*
X0275100Y0383344D01*
X0275100Y0381746D02*
X0268522Y0381746D01*
X0267860Y0380147D02*
X0275100Y0380147D01*
X0275100Y0378549D02*
X0267154Y0378549D01*
X0265555Y0376950D02*
X0275100Y0376950D01*
X0275100Y0375352D02*
X0263284Y0375352D01*
X0254316Y0375352D02*
X0253284Y0375352D01*
X0244316Y0375352D02*
X0243284Y0375352D01*
X0365886Y0375352D02*
X0371900Y0375352D01*
X0371900Y0376950D02*
X0365886Y0376950D01*
X0365886Y0378549D02*
X0371900Y0378549D01*
X0371900Y0380147D02*
X0365886Y0380147D01*
X0366256Y0381746D02*
X0371900Y0381746D01*
X0371900Y0383344D02*
X0367855Y0383344D01*
X0369453Y0384943D02*
X0371900Y0384943D01*
X0371900Y0386541D02*
X0371052Y0386541D01*
X0371511Y0387001D02*
X0371511Y0387001D01*
X0371900Y0373753D02*
X0365886Y0373753D01*
X0365886Y0372155D02*
X0371900Y0372155D01*
X0371900Y0370556D02*
X0365886Y0370556D01*
X0365886Y0368958D02*
X0371900Y0368958D01*
X0371900Y0367359D02*
X0365886Y0367359D01*
X0365886Y0365761D02*
X0371900Y0365761D01*
X0371900Y0364162D02*
X0365886Y0364162D01*
X0366556Y0362564D02*
X0371900Y0362564D01*
X0371900Y0360965D02*
X0367398Y0360965D01*
X0367826Y0359367D02*
X0371900Y0359367D01*
X0371900Y0357768D02*
X0368105Y0357768D01*
X0368105Y0356170D02*
X0371900Y0356170D01*
X0371900Y0354571D02*
X0368105Y0354571D01*
X0368105Y0352972D02*
X0371900Y0352972D01*
X0371900Y0351374D02*
X0368105Y0351374D01*
X0368105Y0349775D02*
X0371900Y0349775D01*
X0371900Y0348177D02*
X0368105Y0348177D01*
X0368105Y0346578D02*
X0371900Y0346578D01*
X0371900Y0344980D02*
X0368026Y0344980D01*
X0367598Y0343381D02*
X0371900Y0343381D01*
X0371900Y0341783D02*
X0366987Y0341783D01*
X0366064Y0340184D02*
X0371900Y0340184D01*
X0371900Y0338586D02*
X0364641Y0338586D01*
X0362563Y0336987D02*
X0371900Y0336987D01*
X0194521Y0231486D02*
X0186625Y0231486D01*
X0188224Y0229887D02*
X0192374Y0229887D01*
X0190908Y0228289D02*
X0189822Y0228289D01*
X0170345Y0177136D02*
X0129068Y0177136D01*
X0102535Y0154757D02*
X0064000Y0154757D01*
X0064000Y0153159D02*
X0100936Y0153159D01*
X0100400Y0151560D02*
X0064000Y0151560D01*
X0064000Y0149962D02*
X0100400Y0149962D01*
X0101014Y0148363D02*
X0063800Y0148363D01*
X0106987Y0146765D02*
X0170254Y0146765D01*
X0171852Y0148363D02*
X0108586Y0148363D01*
X0109200Y0149962D02*
X0173451Y0149962D01*
X0175049Y0151560D02*
X0109200Y0151560D01*
X0108664Y0153159D02*
X0176648Y0153159D01*
X0189600Y0140089D02*
X0189600Y0132970D01*
X0191001Y0129589D01*
X0191392Y0129198D01*
X0191393Y0129194D01*
X0193194Y0127393D01*
X0193198Y0127392D01*
X0193589Y0127001D01*
X0196970Y0125600D01*
X0200630Y0125600D01*
X0204011Y0127001D01*
X0204402Y0127392D01*
X0204406Y0127393D01*
X0206207Y0129194D01*
X0206208Y0129198D01*
X0206599Y0129589D01*
X0208000Y0132970D01*
X0208000Y0157872D01*
X0208454Y0157800D01*
X0208800Y0157800D01*
X0209146Y0157800D01*
X0209830Y0157908D01*
X0210489Y0158122D01*
X0211106Y0158437D01*
X0211666Y0158844D01*
X0212156Y0159334D01*
X0212563Y0159894D01*
X0212878Y0160511D01*
X0213092Y0161170D01*
X0213200Y0161854D01*
X0213200Y0164800D01*
X0213200Y0167100D01*
X0244151Y0167100D01*
X0255600Y0156325D01*
X0255600Y0023399D01*
X0245371Y0023287D01*
X0245450Y0023477D01*
X0245450Y0096123D01*
X0244438Y0098567D01*
X0242567Y0100438D01*
X0240123Y0101450D01*
X0179461Y0101450D01*
X0181011Y0103001D01*
X0183599Y0105589D01*
X0185000Y0108970D01*
X0185000Y0135489D01*
X0189600Y0140089D01*
X0189600Y0138772D02*
X0188283Y0138772D01*
X0189600Y0137173D02*
X0186684Y0137173D01*
X0185086Y0135575D02*
X0189600Y0135575D01*
X0189600Y0133976D02*
X0185000Y0133976D01*
X0185000Y0132378D02*
X0189845Y0132378D01*
X0190507Y0130779D02*
X0185000Y0130779D01*
X0185000Y0129181D02*
X0191406Y0129181D01*
X0193004Y0127582D02*
X0185000Y0127582D01*
X0185000Y0125984D02*
X0196043Y0125984D01*
X0201557Y0125984D02*
X0255600Y0125984D01*
X0255600Y0127582D02*
X0204596Y0127582D01*
X0206194Y0129181D02*
X0255600Y0129181D01*
X0255600Y0130779D02*
X0207093Y0130779D01*
X0207755Y0132378D02*
X0255600Y0132378D01*
X0255600Y0133976D02*
X0208000Y0133976D01*
X0208000Y0135575D02*
X0255600Y0135575D01*
X0255600Y0137173D02*
X0208000Y0137173D01*
X0208000Y0138772D02*
X0255600Y0138772D01*
X0255600Y0140370D02*
X0208000Y0140370D01*
X0208000Y0141969D02*
X0255600Y0141969D01*
X0255600Y0143568D02*
X0208000Y0143568D01*
X0208000Y0145166D02*
X0255600Y0145166D01*
X0255600Y0146765D02*
X0208000Y0146765D01*
X0208000Y0148363D02*
X0255600Y0148363D01*
X0255600Y0149962D02*
X0208000Y0149962D01*
X0208000Y0151560D02*
X0255600Y0151560D01*
X0255600Y0153159D02*
X0208000Y0153159D01*
X0208000Y0154757D02*
X0255600Y0154757D01*
X0255567Y0156356D02*
X0208000Y0156356D01*
X0208800Y0157800D02*
X0208800Y0164800D01*
X0213200Y0164800D01*
X0208800Y0164800D01*
X0208800Y0164800D01*
X0208800Y0157800D01*
X0208800Y0157954D02*
X0208800Y0157954D01*
X0209971Y0157954D02*
X0253869Y0157954D01*
X0252171Y0159553D02*
X0212315Y0159553D01*
X0213086Y0161151D02*
X0250472Y0161151D01*
X0248774Y0162750D02*
X0213200Y0162750D01*
X0213200Y0164348D02*
X0247075Y0164348D01*
X0245377Y0165947D02*
X0213200Y0165947D01*
X0208800Y0164800D02*
X0208800Y0164800D01*
X0208800Y0164348D02*
X0208800Y0164348D01*
X0208800Y0162750D02*
X0208800Y0162750D01*
X0208800Y0161151D02*
X0208800Y0161151D01*
X0208800Y0159553D02*
X0208800Y0159553D01*
X0185000Y0124385D02*
X0255600Y0124385D01*
X0255600Y0122787D02*
X0185000Y0122787D01*
X0185000Y0121188D02*
X0255600Y0121188D01*
X0255600Y0119590D02*
X0185000Y0119590D01*
X0185000Y0117991D02*
X0255600Y0117991D01*
X0255600Y0116393D02*
X0185000Y0116393D01*
X0185000Y0114794D02*
X0255600Y0114794D01*
X0255600Y0113196D02*
X0185000Y0113196D01*
X0185000Y0111597D02*
X0255600Y0111597D01*
X0255600Y0109999D02*
X0185000Y0109999D01*
X0184764Y0108400D02*
X0255600Y0108400D01*
X0255600Y0106802D02*
X0184102Y0106802D01*
X0183214Y0105203D02*
X0255600Y0105203D01*
X0255600Y0103605D02*
X0181615Y0103605D01*
X0180017Y0102006D02*
X0255600Y0102006D01*
X0255600Y0100408D02*
X0242597Y0100408D01*
X0244195Y0098809D02*
X0255600Y0098809D01*
X0255600Y0097211D02*
X0244999Y0097211D01*
X0245450Y0095612D02*
X0255600Y0095612D01*
X0255600Y0094014D02*
X0245450Y0094014D01*
X0245450Y0092415D02*
X0255600Y0092415D01*
X0255600Y0090817D02*
X0245450Y0090817D01*
X0245450Y0089218D02*
X0255600Y0089218D01*
X0255600Y0087620D02*
X0245450Y0087620D01*
X0245450Y0086021D02*
X0255600Y0086021D01*
X0255600Y0084423D02*
X0245450Y0084423D01*
X0245450Y0082824D02*
X0255600Y0082824D01*
X0255600Y0081226D02*
X0245450Y0081226D01*
X0245450Y0079627D02*
X0255600Y0079627D01*
X0255600Y0078029D02*
X0245450Y0078029D01*
X0245450Y0076430D02*
X0255600Y0076430D01*
X0255600Y0074832D02*
X0245450Y0074832D01*
X0245450Y0073233D02*
X0255600Y0073233D01*
X0255600Y0071634D02*
X0245450Y0071634D01*
X0245450Y0070036D02*
X0255600Y0070036D01*
X0255600Y0068437D02*
X0245450Y0068437D01*
X0245450Y0066839D02*
X0255600Y0066839D01*
X0255600Y0065240D02*
X0245450Y0065240D01*
X0245450Y0063642D02*
X0255600Y0063642D01*
X0255600Y0062043D02*
X0245450Y0062043D01*
X0245450Y0060445D02*
X0255600Y0060445D01*
X0255600Y0058846D02*
X0245450Y0058846D01*
X0245450Y0057248D02*
X0255600Y0057248D01*
X0255600Y0055649D02*
X0245450Y0055649D01*
X0245450Y0054051D02*
X0255600Y0054051D01*
X0255600Y0052452D02*
X0245450Y0052452D01*
X0245450Y0050854D02*
X0255600Y0050854D01*
X0255600Y0049255D02*
X0245450Y0049255D01*
X0245450Y0047657D02*
X0255600Y0047657D01*
X0255600Y0046058D02*
X0245450Y0046058D01*
X0245450Y0044460D02*
X0255600Y0044460D01*
X0255600Y0042861D02*
X0245450Y0042861D01*
X0245450Y0041263D02*
X0255600Y0041263D01*
X0255600Y0039664D02*
X0245450Y0039664D01*
X0245450Y0038066D02*
X0255600Y0038066D01*
X0255600Y0036467D02*
X0245450Y0036467D01*
X0245450Y0034869D02*
X0255600Y0034869D01*
X0255600Y0033270D02*
X0245450Y0033270D01*
X0245450Y0031672D02*
X0255600Y0031672D01*
X0255600Y0030073D02*
X0245450Y0030073D01*
X0245450Y0028475D02*
X0255600Y0028475D01*
X0255600Y0026876D02*
X0245450Y0026876D01*
X0245450Y0025278D02*
X0255600Y0025278D01*
X0255600Y0023679D02*
X0245450Y0023679D01*
X0232150Y0059800D02*
X0224865Y0059800D01*
X0223800Y0058735D01*
X0222735Y0059800D01*
X0214865Y0059800D01*
X0213800Y0058735D01*
X0212735Y0059800D01*
X0204865Y0059800D01*
X0199300Y0054235D01*
X0199300Y0046365D01*
X0200365Y0045300D01*
X0199300Y0044235D01*
X0199300Y0038219D01*
X0198419Y0037854D01*
X0195746Y0035181D01*
X0195432Y0034422D01*
X0194947Y0034579D01*
X0194186Y0034700D01*
X0194000Y0034700D01*
X0194000Y0031450D01*
X0193600Y0031450D01*
X0193600Y0034700D01*
X0193414Y0034700D01*
X0192653Y0034579D01*
X0192168Y0034422D01*
X0191854Y0035181D01*
X0189181Y0037854D01*
X0185690Y0039300D01*
X0181910Y0039300D01*
X0178800Y0038012D01*
X0175690Y0039300D01*
X0171910Y0039300D01*
X0168800Y0038012D01*
X0165690Y0039300D01*
X0161910Y0039300D01*
X0158800Y0038012D01*
X0155690Y0039300D01*
X0151910Y0039300D01*
X0148800Y0038012D01*
X0145690Y0039300D01*
X0141910Y0039300D01*
X0138800Y0038012D01*
X0135690Y0039300D01*
X0131910Y0039300D01*
X0128800Y0038012D01*
X0125690Y0039300D01*
X0121910Y0039300D01*
X0118800Y0038012D01*
X0115690Y0039300D01*
X0111910Y0039300D01*
X0108800Y0038012D01*
X0105690Y0039300D01*
X0101910Y0039300D01*
X0098800Y0038012D01*
X0095690Y0039300D01*
X0091910Y0039300D01*
X0088800Y0038012D01*
X0085690Y0039300D01*
X0081910Y0039300D01*
X0078800Y0038012D01*
X0075690Y0039300D01*
X0071910Y0039300D01*
X0068800Y0038012D01*
X0065690Y0039300D01*
X0061910Y0039300D01*
X0058419Y0037854D01*
X0058077Y0037512D01*
X0055543Y0038562D01*
X0055450Y0038562D01*
X0055450Y0081038D01*
X0055543Y0081038D01*
X0058077Y0082088D01*
X0058419Y0081746D01*
X0061910Y0080300D01*
X0065690Y0080300D01*
X0068800Y0081588D01*
X0071910Y0080300D01*
X0075690Y0080300D01*
X0078800Y0081588D01*
X0081910Y0080300D01*
X0085690Y0080300D01*
X0088800Y0081588D01*
X0091910Y0080300D01*
X0095690Y0080300D01*
X0098800Y0081588D01*
X0101910Y0080300D01*
X0105690Y0080300D01*
X0108800Y0081588D01*
X0111910Y0080300D01*
X0115690Y0080300D01*
X0118800Y0081588D01*
X0121910Y0080300D01*
X0125690Y0080300D01*
X0128800Y0081588D01*
X0131910Y0080300D01*
X0135690Y0080300D01*
X0138800Y0081588D01*
X0141910Y0080300D01*
X0145690Y0080300D01*
X0148800Y0081588D01*
X0151910Y0080300D01*
X0155690Y0080300D01*
X0158800Y0081588D01*
X0161910Y0080300D01*
X0165690Y0080300D01*
X0168800Y0081588D01*
X0171910Y0080300D01*
X0175690Y0080300D01*
X0178800Y0081588D01*
X0181910Y0080300D01*
X0185690Y0080300D01*
X0188800Y0081588D01*
X0191910Y0080300D01*
X0195690Y0080300D01*
X0198800Y0081588D01*
X0201910Y0080300D01*
X0205690Y0080300D01*
X0208800Y0081588D01*
X0211910Y0080300D01*
X0215690Y0080300D01*
X0218800Y0081588D01*
X0221910Y0080300D01*
X0225690Y0080300D01*
X0229181Y0081746D01*
X0229523Y0082088D01*
X0232057Y0081038D01*
X0232150Y0081038D01*
X0232150Y0059800D01*
X0232150Y0060445D02*
X0055450Y0060445D01*
X0055450Y0062043D02*
X0232150Y0062043D01*
X0232150Y0063642D02*
X0055450Y0063642D01*
X0055450Y0065240D02*
X0232150Y0065240D01*
X0232150Y0066839D02*
X0055450Y0066839D01*
X0055450Y0068437D02*
X0232150Y0068437D01*
X0232150Y0070036D02*
X0055450Y0070036D01*
X0055450Y0071634D02*
X0232150Y0071634D01*
X0232150Y0073233D02*
X0055450Y0073233D01*
X0055450Y0074832D02*
X0232150Y0074832D01*
X0232150Y0076430D02*
X0055450Y0076430D01*
X0055450Y0078029D02*
X0232150Y0078029D01*
X0232150Y0079627D02*
X0055450Y0079627D01*
X0055996Y0081226D02*
X0059676Y0081226D01*
X0067924Y0081226D02*
X0069676Y0081226D01*
X0077924Y0081226D02*
X0079676Y0081226D01*
X0087924Y0081226D02*
X0089676Y0081226D01*
X0097924Y0081226D02*
X0099676Y0081226D01*
X0107924Y0081226D02*
X0109676Y0081226D01*
X0117924Y0081226D02*
X0119676Y0081226D01*
X0127924Y0081226D02*
X0129676Y0081226D01*
X0137924Y0081226D02*
X0139676Y0081226D01*
X0147924Y0081226D02*
X0149676Y0081226D01*
X0157924Y0081226D02*
X0159676Y0081226D01*
X0167924Y0081226D02*
X0169676Y0081226D01*
X0177924Y0081226D02*
X0179676Y0081226D01*
X0187924Y0081226D02*
X0189676Y0081226D01*
X0197924Y0081226D02*
X0199676Y0081226D01*
X0207924Y0081226D02*
X0209676Y0081226D01*
X0217924Y0081226D02*
X0219676Y0081226D01*
X0227924Y0081226D02*
X0231604Y0081226D01*
X0223911Y0058846D02*
X0223689Y0058846D01*
X0213911Y0058846D02*
X0213689Y0058846D01*
X0203911Y0058846D02*
X0055450Y0058846D01*
X0055450Y0057248D02*
X0202313Y0057248D01*
X0200714Y0055649D02*
X0055450Y0055649D01*
X0055450Y0054051D02*
X0199300Y0054051D01*
X0199300Y0052452D02*
X0055450Y0052452D01*
X0055450Y0050854D02*
X0199300Y0050854D01*
X0199300Y0049255D02*
X0055450Y0049255D01*
X0055450Y0047657D02*
X0199300Y0047657D01*
X0199607Y0046058D02*
X0055450Y0046058D01*
X0055450Y0044460D02*
X0199525Y0044460D01*
X0199300Y0042861D02*
X0055450Y0042861D01*
X0055450Y0041263D02*
X0199300Y0041263D01*
X0199300Y0039664D02*
X0055450Y0039664D01*
X0056741Y0038066D02*
X0058931Y0038066D01*
X0068669Y0038066D02*
X0068931Y0038066D01*
X0078669Y0038066D02*
X0078931Y0038066D01*
X0088669Y0038066D02*
X0088931Y0038066D01*
X0098669Y0038066D02*
X0098931Y0038066D01*
X0108669Y0038066D02*
X0108931Y0038066D01*
X0118669Y0038066D02*
X0118931Y0038066D01*
X0128669Y0038066D02*
X0128931Y0038066D01*
X0138669Y0038066D02*
X0138931Y0038066D01*
X0148669Y0038066D02*
X0148931Y0038066D01*
X0158669Y0038066D02*
X0158931Y0038066D01*
X0168669Y0038066D02*
X0168931Y0038066D01*
X0178669Y0038066D02*
X0178931Y0038066D01*
X0188669Y0038066D02*
X0198931Y0038066D01*
X0197032Y0036467D02*
X0190568Y0036467D01*
X0191983Y0034869D02*
X0195617Y0034869D01*
X0194000Y0033270D02*
X0193600Y0033270D01*
X0193600Y0031672D02*
X0194000Y0031672D01*
X0164600Y0017285D02*
X0037907Y0017285D01*
X0038403Y0017781D02*
X0040229Y0020944D01*
X0041175Y0024473D01*
X0041175Y0028127D01*
X0040229Y0031656D01*
X0038403Y0034819D01*
X0035819Y0037403D01*
X0032656Y0039229D01*
X0029127Y0040175D01*
X0025473Y0040175D01*
X0021944Y0039229D01*
X0018781Y0037403D01*
X0016197Y0034819D01*
X0014371Y0031656D01*
X0013425Y0028127D01*
X0013425Y0024473D01*
X0014371Y0020944D01*
X0016197Y0017781D01*
X0018781Y0015197D01*
X0021944Y0013371D01*
X0025473Y0012425D01*
X0029127Y0012425D01*
X0032656Y0013371D01*
X0035819Y0015197D01*
X0038403Y0017781D01*
X0039040Y0018884D02*
X0045706Y0018884D01*
X0043713Y0020482D02*
X0039963Y0020482D01*
X0040534Y0022081D02*
X0042728Y0022081D01*
X0042150Y0023679D02*
X0040962Y0023679D01*
X0041175Y0025278D02*
X0042150Y0025278D01*
X0042150Y0026876D02*
X0041175Y0026876D01*
X0041082Y0028475D02*
X0042150Y0028475D01*
X0042150Y0030073D02*
X0040653Y0030073D01*
X0040220Y0031672D02*
X0042150Y0031672D01*
X0042150Y0033270D02*
X0039297Y0033270D01*
X0038353Y0034869D02*
X0042150Y0034869D01*
X0042150Y0036467D02*
X0036755Y0036467D01*
X0034671Y0038066D02*
X0042150Y0038066D01*
X0042150Y0039664D02*
X0031033Y0039664D01*
X0023567Y0039664D02*
X0008700Y0039664D01*
X0008700Y0038066D02*
X0019929Y0038066D01*
X0017845Y0036467D02*
X0008700Y0036467D01*
X0008700Y0034869D02*
X0016247Y0034869D01*
X0015303Y0033270D02*
X0008700Y0033270D01*
X0008700Y0031672D02*
X0014380Y0031672D01*
X0013947Y0030073D02*
X0008700Y0030073D01*
X0008700Y0028475D02*
X0013518Y0028475D01*
X0013425Y0026876D02*
X0008700Y0026876D01*
X0008700Y0025278D02*
X0013425Y0025278D01*
X0013638Y0023679D02*
X0008700Y0023679D01*
X0008700Y0022081D02*
X0014066Y0022081D01*
X0014637Y0020482D02*
X0008700Y0020482D01*
X0008700Y0018884D02*
X0015560Y0018884D01*
X0016693Y0017285D02*
X0008700Y0017285D01*
X0008700Y0015687D02*
X0018291Y0015687D01*
X0020702Y0014088D02*
X0008700Y0014088D01*
X0008700Y0012490D02*
X0025232Y0012490D01*
X0029368Y0012490D02*
X0164600Y0012490D01*
X0164591Y0014088D02*
X0033898Y0014088D01*
X0036309Y0015687D02*
X0164600Y0015687D01*
X0164825Y0010891D02*
X0008700Y0010891D01*
X0008700Y0009293D02*
X0165502Y0009293D01*
X0042150Y0041263D02*
X0008700Y0041263D01*
X0008700Y0042861D02*
X0042150Y0042861D01*
X0042150Y0044460D02*
X0008700Y0044460D01*
X0008700Y0046058D02*
X0042150Y0046058D01*
X0042150Y0047657D02*
X0008700Y0047657D01*
X0008700Y0049255D02*
X0042150Y0049255D01*
X0042150Y0050854D02*
X0008700Y0050854D01*
X0008700Y0052452D02*
X0042150Y0052452D01*
X0042150Y0054051D02*
X0008700Y0054051D01*
X0008700Y0055649D02*
X0042150Y0055649D01*
X0042150Y0057248D02*
X0008700Y0057248D01*
X0008700Y0058846D02*
X0042150Y0058846D01*
X0042150Y0060445D02*
X0008700Y0060445D01*
X0008700Y0062043D02*
X0042150Y0062043D01*
X0042150Y0063642D02*
X0008700Y0063642D01*
X0008700Y0065240D02*
X0042150Y0065240D01*
X0042150Y0066839D02*
X0008700Y0066839D01*
X0008700Y0068437D02*
X0042150Y0068437D01*
X0042150Y0070036D02*
X0008700Y0070036D01*
X0008700Y0071634D02*
X0042150Y0071634D01*
X0042150Y0073233D02*
X0008700Y0073233D01*
X0008700Y0074832D02*
X0042150Y0074832D01*
X0042150Y0076430D02*
X0008700Y0076430D01*
X0008700Y0078029D02*
X0042150Y0078029D01*
X0042150Y0079627D02*
X0008700Y0079627D01*
X0008700Y0081226D02*
X0042150Y0081226D01*
X0042150Y0082824D02*
X0008700Y0082824D01*
X0008700Y0084423D02*
X0042150Y0084423D01*
X0042150Y0086021D02*
X0008700Y0086021D01*
X0008700Y0087620D02*
X0042150Y0087620D01*
X0042150Y0089218D02*
X0008700Y0089218D01*
X0008700Y0090817D02*
X0042150Y0090817D01*
X0042150Y0092415D02*
X0008700Y0092415D01*
X0008700Y0094014D02*
X0042150Y0094014D01*
X0042150Y0095612D02*
X0008700Y0095612D01*
X0008700Y0097211D02*
X0042601Y0097211D01*
X0043405Y0098809D02*
X0008700Y0098809D01*
X0008700Y0100408D02*
X0045003Y0100408D01*
X0091323Y0113196D02*
X0146185Y0113196D01*
X0145415Y0111597D02*
X0092938Y0111597D01*
X0094553Y0109999D02*
X0144753Y0109999D01*
X0144600Y0108400D02*
X0096168Y0108400D01*
X0097783Y0106802D02*
X0144600Y0106802D01*
X0144600Y0105203D02*
X0099408Y0105203D01*
X0101013Y0103605D02*
X0144600Y0103605D01*
X0144600Y0102006D02*
X0102016Y0102006D01*
X0038862Y0186727D02*
X0008700Y0186727D01*
X0008700Y0188326D02*
X0037263Y0188326D01*
X0036154Y0189924D02*
X0008700Y0189924D01*
X0008700Y0191523D02*
X0035492Y0191523D01*
X0035100Y0193121D02*
X0008700Y0193121D01*
X0008700Y0194720D02*
X0035100Y0194720D01*
X0035100Y0196318D02*
X0008700Y0196318D01*
X0008700Y0197917D02*
X0035100Y0197917D01*
X0035100Y0199515D02*
X0008700Y0199515D01*
X0008700Y0201114D02*
X0035100Y0201114D01*
X0035100Y0202712D02*
X0008700Y0202712D01*
X0008700Y0204311D02*
X0035100Y0204311D01*
X0035100Y0205909D02*
X0008700Y0205909D01*
X0008700Y0207508D02*
X0035100Y0207508D01*
X0035100Y0209106D02*
X0008700Y0209106D01*
X0008700Y0210705D02*
X0035100Y0210705D01*
X0035100Y0212303D02*
X0008700Y0212303D01*
X0008700Y0213902D02*
X0035100Y0213902D01*
X0035100Y0215501D02*
X0008700Y0215501D01*
X0008700Y0217099D02*
X0035100Y0217099D01*
X0035100Y0218698D02*
X0008700Y0218698D01*
X0008700Y0220296D02*
X0035100Y0220296D01*
X0035100Y0221895D02*
X0008700Y0221895D01*
X0008700Y0223493D02*
X0035100Y0223493D01*
X0035100Y0225092D02*
X0008700Y0225092D01*
X0008700Y0226690D02*
X0035100Y0226690D01*
X0035100Y0228289D02*
X0008700Y0228289D01*
X0008700Y0229887D02*
X0035100Y0229887D01*
X0035100Y0231486D02*
X0008700Y0231486D01*
X0008700Y0233084D02*
X0035100Y0233084D01*
X0035100Y0234683D02*
X0008700Y0234683D01*
X0008700Y0236281D02*
X0035100Y0236281D01*
X0035100Y0237880D02*
X0008700Y0237880D01*
X0008700Y0239478D02*
X0035100Y0239478D01*
X0035100Y0241077D02*
X0008700Y0241077D01*
X0008700Y0242675D02*
X0035100Y0242675D01*
X0035100Y0244274D02*
X0008700Y0244274D01*
X0008700Y0245872D02*
X0035100Y0245872D01*
X0035100Y0247471D02*
X0008700Y0247471D01*
X0008700Y0249069D02*
X0035100Y0249069D01*
X0035100Y0250668D02*
X0008700Y0250668D01*
X0008700Y0252266D02*
X0035100Y0252266D01*
X0035100Y0253865D02*
X0008700Y0253865D01*
X0008700Y0255463D02*
X0035100Y0255463D01*
X0035100Y0257062D02*
X0008700Y0257062D01*
X0008700Y0258660D02*
X0035100Y0258660D01*
X0035100Y0260259D02*
X0008700Y0260259D01*
X0008700Y0261857D02*
X0035100Y0261857D01*
X0035100Y0263456D02*
X0008700Y0263456D01*
X0008700Y0265054D02*
X0035100Y0265054D01*
X0035100Y0266653D02*
X0008700Y0266653D01*
X0008700Y0268251D02*
X0035100Y0268251D01*
X0035100Y0269850D02*
X0008700Y0269850D01*
X0008700Y0271448D02*
X0035100Y0271448D01*
X0035100Y0273047D02*
X0008700Y0273047D01*
X0008700Y0274645D02*
X0035100Y0274645D01*
X0034213Y0276244D02*
X0008700Y0276244D01*
X0008700Y0277842D02*
X0031793Y0277842D01*
X0030194Y0279441D02*
X0008700Y0279441D01*
X0008700Y0281039D02*
X0029249Y0281039D01*
X0028494Y0282638D02*
X0008700Y0282638D01*
X0008700Y0284237D02*
X0028066Y0284237D01*
X0027861Y0285835D02*
X0008700Y0285835D01*
X0008700Y0287434D02*
X0027861Y0287434D01*
X0028135Y0289032D02*
X0008700Y0289032D01*
X0008700Y0290631D02*
X0028563Y0290631D01*
X0029399Y0292229D02*
X0008700Y0292229D01*
X0008700Y0293828D02*
X0030453Y0293828D01*
X0032052Y0295426D02*
X0008700Y0295426D01*
X0008700Y0538400D02*
X0371900Y0538400D01*
X0371900Y0539998D02*
X0008700Y0539998D01*
X0008700Y0541597D02*
X0371900Y0541597D01*
D28*
X0299300Y0471300D02*
X0290800Y0479800D01*
X0288800Y0479800D01*
X0299300Y0471300D02*
X0293300Y0465300D01*
X0293300Y0440800D01*
X0304800Y0429300D01*
X0304800Y0400800D01*
X0265300Y0406800D02*
X0265300Y0430800D01*
X0306800Y0443800D02*
X0325505Y0425095D01*
X0325505Y0351800D01*
X0325800Y0351505D01*
X0325800Y0334300D01*
X0307800Y0316300D01*
X0307800Y0292800D01*
X0308300Y0291800D01*
X0308300Y0245800D01*
X0308300Y0199800D01*
X0294300Y0185300D01*
X0182800Y0185300D01*
X0178300Y0189800D01*
X0178300Y0194300D01*
X0178800Y0194800D01*
X0125800Y0194800D01*
X0098300Y0223300D01*
X0098300Y0286300D01*
X0108300Y0286300D02*
X0108300Y0296300D01*
X0113800Y0301800D01*
X0143300Y0301800D01*
X0150800Y0294300D01*
X0150800Y0267800D01*
X0148300Y0265300D01*
X0156800Y0265300D01*
X0135800Y0234300D02*
X0120800Y0248800D01*
X0118300Y0251300D01*
X0118300Y0287800D01*
X0117800Y0288300D01*
X0118300Y0316300D02*
X0118300Y0334300D01*
X0131800Y0347800D01*
X0169800Y0347800D01*
X0181300Y0359300D01*
X0181300Y0374800D01*
X0161300Y0374800D02*
X0154300Y0381800D01*
X0119300Y0381800D01*
X0108300Y0352300D02*
X0086300Y0374300D01*
X0066300Y0374300D02*
X0032300Y0374300D01*
X0026800Y0379800D01*
X0026800Y0381800D01*
X0026800Y0431800D02*
X0052800Y0431800D01*
X0119300Y0431800D02*
X0144800Y0431800D01*
X0215300Y0406800D02*
X0215300Y0373800D01*
X0231800Y0357300D01*
X0238300Y0357300D01*
X0258800Y0357800D02*
X0258800Y0344800D01*
X0255300Y0341300D01*
X0141800Y0341300D01*
X0128300Y0327800D01*
X0128300Y0316300D01*
X0138300Y0316300D02*
X0138800Y0320800D01*
X0186300Y0320800D01*
X0213800Y0293300D01*
X0263800Y0293300D02*
X0263800Y0273800D01*
X0263800Y0252800D01*
X0291800Y0227800D02*
X0291800Y0278300D01*
X0308300Y0291800D02*
X0311800Y0288300D01*
X0321800Y0288300D01*
X0321800Y0298300D02*
X0350000Y0298300D01*
X0351100Y0298200D01*
X0291800Y0298300D02*
X0268800Y0298300D01*
X0263800Y0293300D01*
X0308300Y0245800D02*
X0343300Y0245800D01*
X0264800Y0160300D02*
X0247800Y0176300D01*
X0182300Y0176300D01*
X0178300Y0172300D01*
X0178300Y0163300D01*
X0179300Y0162300D01*
X0187800Y0166800D02*
X0188800Y0165800D01*
X0188800Y0152300D01*
X0175800Y0139300D01*
X0175800Y0110800D01*
X0163800Y0098800D01*
X0163800Y0089800D01*
X0153800Y0089800D02*
X0153800Y0107800D01*
X0166300Y0120300D01*
X0198800Y0134800D02*
X0198800Y0164800D01*
X0208800Y0164800D02*
X0208800Y0141300D01*
X0246300Y0103800D01*
X0246300Y0083300D01*
X0240800Y0077800D01*
X0221300Y0077800D01*
X0193800Y0050300D01*
X0193800Y0029800D01*
X0193300Y0030300D01*
X0193300Y0055800D01*
X0190300Y0052800D01*
X0027300Y0052800D01*
X0020800Y0059300D01*
X0020800Y0171800D01*
X0026300Y0177300D01*
X0096300Y0177300D01*
X0094800Y0175800D01*
X0104800Y0150800D01*
X0054800Y0150800D02*
X0054800Y0164300D01*
X0044800Y0164300D02*
X0044800Y0146300D01*
X0093800Y0097800D01*
X0093800Y0089800D01*
X0173800Y0029800D02*
X0173800Y0013300D01*
X0264800Y0014300D01*
X0264800Y0160300D01*
X0198800Y0194800D02*
X0198800Y0223300D01*
X0188800Y0216300D02*
X0170800Y0234300D01*
X0148300Y0234300D01*
X0135800Y0234300D01*
X0188800Y0216300D02*
X0188800Y0194800D01*
X0044300Y0194300D02*
X0044300Y0286505D01*
X0108300Y0316300D02*
X0108300Y0352300D01*
X0299300Y0471300D02*
X0306800Y0463800D01*
X0336800Y0453800D02*
X0337300Y0454300D01*
X0351800Y0454300D01*
X0366300Y0439800D01*
X0366300Y0394800D01*
X0356686Y0385186D01*
X0356686Y0351800D01*
X0354800Y0400800D02*
X0354800Y0425800D01*
X0336800Y0443800D01*
X0238800Y0479800D02*
X0238800Y0487300D01*
X0218300Y0507800D01*
X0203300Y0507800D01*
X0197095Y0501595D01*
X0197095Y0486300D01*
X0193800Y0029800D02*
X0193800Y0028800D01*
D29*
X0166300Y0120300D03*
X0198800Y0134800D03*
X0198800Y0223300D03*
X0156800Y0265300D03*
D30*
X0238300Y0357300D02*
X0238800Y0357800D01*
X0285800Y0367300D02*
X0285800Y0432300D01*
X0276300Y0441800D01*
X0264300Y0441800D01*
X0264800Y0441300D01*
X0264300Y0441800D02*
X0238800Y0441800D01*
X0238800Y0387800D01*
X0285800Y0367300D02*
X0301300Y0351800D01*
X0309914Y0351800D01*
X0265300Y0430800D02*
X0264800Y0431300D01*
X0264800Y0451300D02*
X0264800Y0494800D01*
X0234300Y0525300D01*
X0117800Y0525300D01*
X0104595Y0512095D01*
X0104595Y0499800D01*
X0089005Y0499800D02*
X0089005Y0485095D01*
X0104300Y0469800D01*
X0126800Y0469800D01*
X0144800Y0451800D01*
X0144800Y0441800D02*
X0158300Y0441800D01*
X0161300Y0438800D01*
X0161300Y0404800D01*
X0158300Y0441800D02*
X0238800Y0441800D01*
X0144800Y0441800D02*
X0052800Y0441800D01*
X0064800Y0439800D02*
X0066300Y0438300D01*
X0066300Y0404300D01*
X0052800Y0451800D02*
X0052800Y0479186D01*
X0073414Y0499800D01*
D31*
X0413300Y0412300D02*
X0447300Y0447300D01*
X0457300Y0447300D01*
X0454709Y0420040D02*
X0442040Y0408040D01*
X0442300Y0393300D01*
X0442300Y0191300D01*
X0447394Y0191206D01*
X0539473Y0191206D01*
X0551394Y0191206D01*
X0572300Y0170300D01*
X0572300Y0091300D01*
X0559300Y0078300D01*
X0539568Y0078300D01*
X0539473Y0078206D01*
X0539473Y0035883D02*
X0447717Y0035883D01*
X0413300Y0069300D01*
X0413300Y0150300D01*
X0415264Y0150234D01*
X0413300Y0153270D01*
X0413300Y0150300D01*
X0415264Y0150234D02*
X0443143Y0149300D01*
X0541473Y0149300D01*
X0413300Y0153270D02*
X0413300Y0412300D01*
M02*
