%
M48
M72
T01C0.02362
T02C0.03200
T03C0.03600
T04C0.04000
T05C0.04331
T06C0.04724
T07C0.05000
T08C0.05512
T09C0.06693
T10C0.07000
T11C0.08661
T12C0.14950
%
T01
X166300Y120300
X198800Y134800
X198800Y223300
X156800Y265300
T02
X148300Y265300
X138300Y286300
X128300Y286300
X118300Y286300
X108300Y286300
X98300Y286300
X98300Y265300
X98300Y250300
X98300Y234300
X78300Y250300
X148300Y234300
X178800Y194800
X188800Y194800
X198800Y194800
X208800Y194800
X208800Y164800
X198800Y164800
X188800Y164800
X178800Y164800
X104800Y150800
X64800Y164300
X54800Y164300
X44800Y164300
X54800Y150800
X44800Y194300
X64800Y194300
X213800Y273800
X213800Y293300
X263800Y293300
X291800Y288300
X291800Y278300
X263800Y273800
X263800Y252800
X243800Y252800
X291800Y298300
X321800Y298300
X321800Y288300
X321800Y278300
X413300Y229300
X443300Y229300
X354800Y400800
X304800Y400800
X265300Y406800
X215300Y406800
X119300Y381800
X119300Y431800
X26800Y431800
X26800Y381800
X98300Y316300
X108300Y316300
X118300Y316300
X128300Y316300
X138300Y316300
X238800Y479800
X288800Y479800
X819300Y360300
X839300Y360300
X796300Y139300
X776300Y139300
X808300Y55300
X808300Y35300
T03
X343300Y215800
X343300Y245800
T04
X291800Y227800
X271800Y217800
X241800Y227800
X223800Y89800
X213800Y89800
X203800Y89800
X193800Y89800
X183800Y89800
X173800Y89800
X163800Y89800
X153800Y89800
X143800Y89800
X133800Y89800
X123800Y89800
X113800Y89800
X103800Y89800
X93800Y89800
X83800Y89800
X73800Y89800
X63800Y89800
X63800Y29800
X73800Y29800
X83800Y29800
X93800Y29800
X103800Y29800
X113800Y29800
X123800Y29800
X133800Y29800
X143800Y29800
X153800Y29800
X163800Y29800
X173800Y29800
X183800Y29800
X193800Y29800
X203800Y29800
X213800Y29800
X223800Y29800
X218800Y40300
X228800Y40300
X228800Y50300
X218800Y50300
X208800Y50300
X208800Y40300
X750300Y35300
X750300Y55300
X756300Y223300
X776300Y223300
X812300Y397300
X812300Y417300
X264800Y431300
X264800Y441300
X264800Y451300
X144800Y451800
X144800Y441800
X144800Y431800
X52800Y431800
X52800Y441800
X52800Y451800
T05
X454709Y446615
X454709Y420040
X539473Y191206
X539473Y148883
X539473Y78206
X539473Y35883
X691048Y35883
X691048Y67379
X691048Y148883
X691048Y180379
T06
X336800Y443800
X336800Y453800
X336800Y463800
X306800Y463800
X306800Y453800
X306800Y443800
X258800Y387800
X248800Y387800
X238800Y387800
X238800Y357800
X248800Y357800
X258800Y357800
X181300Y374800
X171300Y374800
X161300Y374800
X161300Y404800
X171300Y404800
X181300Y404800
X86300Y404300
X76300Y404300
X66300Y404300
X66300Y374300
X76300Y374300
X86300Y374300
X53800Y89800
X53800Y29800
X233800Y29800
X233800Y89800
T07
X351100Y298200
T08
X447457Y190300
X467143Y190300
X443143Y149300
X423457Y149300
T09
X356686Y351800
X341095Y351800
X325505Y351800
X309914Y351800
X212686Y486300
X197095Y486300
X181505Y486300
X165914Y486300
X120186Y499800
X104595Y499800
X89005Y499800
X73414Y499800
X44300Y302095
X44300Y286505
X805505Y180300
X821095Y180300
X840300Y131686
X840300Y116095
X840300Y100505
X840300Y84914
X840505Y318300
X856095Y318300
T10
X361139Y308239
X341061Y308239
X341061Y288161
X361139Y288161
T11
X757859Y284213
X757859Y305867
T12
X27300Y26300
X331300Y26300
X410300Y25300
X747300Y112300
X844300Y451300
X412300Y451300
X331300Y501300
X27300Y501300
M30
