G75*
%MOIN*%
%OFA0B0*%
%FSLAX25Y25*%
%IPPOS*%
%LPD*%
%AMOC8*
5,1,8,0,0,1.08239X$1,22.5*
%
%ADD10C,0.00000*%
%ADD11C,0.05200*%
%ADD12OC8,0.05200*%
%ADD13C,0.05937*%
%ADD14C,0.07800*%
%ADD15C,0.10039*%
%ADD16C,0.07500*%
%ADD17C,0.10500*%
%ADD18C,0.11850*%
%ADD19C,0.07087*%
%ADD20C,0.08250*%
%ADD21C,0.06600*%
%ADD22C,0.01600*%
%ADD23C,0.06600*%
%ADD24C,0.05600*%
%ADD25C,0.15000*%
%ADD26R,0.03962X0.03962*%
D10*
X0001800Y0004167D02*
X0301800Y0004167D01*
X0301800Y0599088D01*
X0001800Y0599088D01*
X0001800Y0004167D01*
X0309800Y0004167D02*
X0736800Y0004167D01*
X0736800Y0499167D01*
X0309800Y0499167D01*
X0309800Y0004167D01*
X0320325Y0028167D02*
X0320327Y0028350D01*
X0320334Y0028534D01*
X0320345Y0028717D01*
X0320361Y0028900D01*
X0320381Y0029082D01*
X0320406Y0029264D01*
X0320435Y0029445D01*
X0320469Y0029625D01*
X0320507Y0029805D01*
X0320549Y0029983D01*
X0320596Y0030161D01*
X0320647Y0030337D01*
X0320702Y0030512D01*
X0320762Y0030685D01*
X0320826Y0030857D01*
X0320894Y0031028D01*
X0320966Y0031196D01*
X0321043Y0031363D01*
X0321123Y0031528D01*
X0321208Y0031691D01*
X0321296Y0031851D01*
X0321388Y0032010D01*
X0321485Y0032166D01*
X0321585Y0032320D01*
X0321689Y0032471D01*
X0321796Y0032620D01*
X0321907Y0032766D01*
X0322022Y0032909D01*
X0322140Y0033049D01*
X0322261Y0033187D01*
X0322386Y0033321D01*
X0322514Y0033453D01*
X0322646Y0033581D01*
X0322780Y0033706D01*
X0322918Y0033827D01*
X0323058Y0033945D01*
X0323201Y0034060D01*
X0323347Y0034171D01*
X0323496Y0034278D01*
X0323647Y0034382D01*
X0323801Y0034482D01*
X0323957Y0034579D01*
X0324116Y0034671D01*
X0324276Y0034759D01*
X0324439Y0034844D01*
X0324604Y0034924D01*
X0324771Y0035001D01*
X0324939Y0035073D01*
X0325110Y0035141D01*
X0325282Y0035205D01*
X0325455Y0035265D01*
X0325630Y0035320D01*
X0325806Y0035371D01*
X0325984Y0035418D01*
X0326162Y0035460D01*
X0326342Y0035498D01*
X0326522Y0035532D01*
X0326703Y0035561D01*
X0326885Y0035586D01*
X0327067Y0035606D01*
X0327250Y0035622D01*
X0327433Y0035633D01*
X0327617Y0035640D01*
X0327800Y0035642D01*
X0327983Y0035640D01*
X0328167Y0035633D01*
X0328350Y0035622D01*
X0328533Y0035606D01*
X0328715Y0035586D01*
X0328897Y0035561D01*
X0329078Y0035532D01*
X0329258Y0035498D01*
X0329438Y0035460D01*
X0329616Y0035418D01*
X0329794Y0035371D01*
X0329970Y0035320D01*
X0330145Y0035265D01*
X0330318Y0035205D01*
X0330490Y0035141D01*
X0330661Y0035073D01*
X0330829Y0035001D01*
X0330996Y0034924D01*
X0331161Y0034844D01*
X0331324Y0034759D01*
X0331484Y0034671D01*
X0331643Y0034579D01*
X0331799Y0034482D01*
X0331953Y0034382D01*
X0332104Y0034278D01*
X0332253Y0034171D01*
X0332399Y0034060D01*
X0332542Y0033945D01*
X0332682Y0033827D01*
X0332820Y0033706D01*
X0332954Y0033581D01*
X0333086Y0033453D01*
X0333214Y0033321D01*
X0333339Y0033187D01*
X0333460Y0033049D01*
X0333578Y0032909D01*
X0333693Y0032766D01*
X0333804Y0032620D01*
X0333911Y0032471D01*
X0334015Y0032320D01*
X0334115Y0032166D01*
X0334212Y0032010D01*
X0334304Y0031851D01*
X0334392Y0031691D01*
X0334477Y0031528D01*
X0334557Y0031363D01*
X0334634Y0031196D01*
X0334706Y0031028D01*
X0334774Y0030857D01*
X0334838Y0030685D01*
X0334898Y0030512D01*
X0334953Y0030337D01*
X0335004Y0030161D01*
X0335051Y0029983D01*
X0335093Y0029805D01*
X0335131Y0029625D01*
X0335165Y0029445D01*
X0335194Y0029264D01*
X0335219Y0029082D01*
X0335239Y0028900D01*
X0335255Y0028717D01*
X0335266Y0028534D01*
X0335273Y0028350D01*
X0335275Y0028167D01*
X0335273Y0027984D01*
X0335266Y0027800D01*
X0335255Y0027617D01*
X0335239Y0027434D01*
X0335219Y0027252D01*
X0335194Y0027070D01*
X0335165Y0026889D01*
X0335131Y0026709D01*
X0335093Y0026529D01*
X0335051Y0026351D01*
X0335004Y0026173D01*
X0334953Y0025997D01*
X0334898Y0025822D01*
X0334838Y0025649D01*
X0334774Y0025477D01*
X0334706Y0025306D01*
X0334634Y0025138D01*
X0334557Y0024971D01*
X0334477Y0024806D01*
X0334392Y0024643D01*
X0334304Y0024483D01*
X0334212Y0024324D01*
X0334115Y0024168D01*
X0334015Y0024014D01*
X0333911Y0023863D01*
X0333804Y0023714D01*
X0333693Y0023568D01*
X0333578Y0023425D01*
X0333460Y0023285D01*
X0333339Y0023147D01*
X0333214Y0023013D01*
X0333086Y0022881D01*
X0332954Y0022753D01*
X0332820Y0022628D01*
X0332682Y0022507D01*
X0332542Y0022389D01*
X0332399Y0022274D01*
X0332253Y0022163D01*
X0332104Y0022056D01*
X0331953Y0021952D01*
X0331799Y0021852D01*
X0331643Y0021755D01*
X0331484Y0021663D01*
X0331324Y0021575D01*
X0331161Y0021490D01*
X0330996Y0021410D01*
X0330829Y0021333D01*
X0330661Y0021261D01*
X0330490Y0021193D01*
X0330318Y0021129D01*
X0330145Y0021069D01*
X0329970Y0021014D01*
X0329794Y0020963D01*
X0329616Y0020916D01*
X0329438Y0020874D01*
X0329258Y0020836D01*
X0329078Y0020802D01*
X0328897Y0020773D01*
X0328715Y0020748D01*
X0328533Y0020728D01*
X0328350Y0020712D01*
X0328167Y0020701D01*
X0327983Y0020694D01*
X0327800Y0020692D01*
X0327617Y0020694D01*
X0327433Y0020701D01*
X0327250Y0020712D01*
X0327067Y0020728D01*
X0326885Y0020748D01*
X0326703Y0020773D01*
X0326522Y0020802D01*
X0326342Y0020836D01*
X0326162Y0020874D01*
X0325984Y0020916D01*
X0325806Y0020963D01*
X0325630Y0021014D01*
X0325455Y0021069D01*
X0325282Y0021129D01*
X0325110Y0021193D01*
X0324939Y0021261D01*
X0324771Y0021333D01*
X0324604Y0021410D01*
X0324439Y0021490D01*
X0324276Y0021575D01*
X0324116Y0021663D01*
X0323957Y0021755D01*
X0323801Y0021852D01*
X0323647Y0021952D01*
X0323496Y0022056D01*
X0323347Y0022163D01*
X0323201Y0022274D01*
X0323058Y0022389D01*
X0322918Y0022507D01*
X0322780Y0022628D01*
X0322646Y0022753D01*
X0322514Y0022881D01*
X0322386Y0023013D01*
X0322261Y0023147D01*
X0322140Y0023285D01*
X0322022Y0023425D01*
X0321907Y0023568D01*
X0321796Y0023714D01*
X0321689Y0023863D01*
X0321585Y0024014D01*
X0321485Y0024168D01*
X0321388Y0024324D01*
X0321296Y0024483D01*
X0321208Y0024643D01*
X0321123Y0024806D01*
X0321043Y0024971D01*
X0320966Y0025138D01*
X0320894Y0025306D01*
X0320826Y0025477D01*
X0320762Y0025649D01*
X0320702Y0025822D01*
X0320647Y0025997D01*
X0320596Y0026173D01*
X0320549Y0026351D01*
X0320507Y0026529D01*
X0320469Y0026709D01*
X0320435Y0026889D01*
X0320406Y0027070D01*
X0320381Y0027252D01*
X0320361Y0027434D01*
X0320345Y0027617D01*
X0320334Y0027800D01*
X0320327Y0027984D01*
X0320325Y0028167D01*
X0704325Y0029167D02*
X0704327Y0029350D01*
X0704334Y0029534D01*
X0704345Y0029717D01*
X0704361Y0029900D01*
X0704381Y0030082D01*
X0704406Y0030264D01*
X0704435Y0030445D01*
X0704469Y0030625D01*
X0704507Y0030805D01*
X0704549Y0030983D01*
X0704596Y0031161D01*
X0704647Y0031337D01*
X0704702Y0031512D01*
X0704762Y0031685D01*
X0704826Y0031857D01*
X0704894Y0032028D01*
X0704966Y0032196D01*
X0705043Y0032363D01*
X0705123Y0032528D01*
X0705208Y0032691D01*
X0705296Y0032851D01*
X0705388Y0033010D01*
X0705485Y0033166D01*
X0705585Y0033320D01*
X0705689Y0033471D01*
X0705796Y0033620D01*
X0705907Y0033766D01*
X0706022Y0033909D01*
X0706140Y0034049D01*
X0706261Y0034187D01*
X0706386Y0034321D01*
X0706514Y0034453D01*
X0706646Y0034581D01*
X0706780Y0034706D01*
X0706918Y0034827D01*
X0707058Y0034945D01*
X0707201Y0035060D01*
X0707347Y0035171D01*
X0707496Y0035278D01*
X0707647Y0035382D01*
X0707801Y0035482D01*
X0707957Y0035579D01*
X0708116Y0035671D01*
X0708276Y0035759D01*
X0708439Y0035844D01*
X0708604Y0035924D01*
X0708771Y0036001D01*
X0708939Y0036073D01*
X0709110Y0036141D01*
X0709282Y0036205D01*
X0709455Y0036265D01*
X0709630Y0036320D01*
X0709806Y0036371D01*
X0709984Y0036418D01*
X0710162Y0036460D01*
X0710342Y0036498D01*
X0710522Y0036532D01*
X0710703Y0036561D01*
X0710885Y0036586D01*
X0711067Y0036606D01*
X0711250Y0036622D01*
X0711433Y0036633D01*
X0711617Y0036640D01*
X0711800Y0036642D01*
X0711983Y0036640D01*
X0712167Y0036633D01*
X0712350Y0036622D01*
X0712533Y0036606D01*
X0712715Y0036586D01*
X0712897Y0036561D01*
X0713078Y0036532D01*
X0713258Y0036498D01*
X0713438Y0036460D01*
X0713616Y0036418D01*
X0713794Y0036371D01*
X0713970Y0036320D01*
X0714145Y0036265D01*
X0714318Y0036205D01*
X0714490Y0036141D01*
X0714661Y0036073D01*
X0714829Y0036001D01*
X0714996Y0035924D01*
X0715161Y0035844D01*
X0715324Y0035759D01*
X0715484Y0035671D01*
X0715643Y0035579D01*
X0715799Y0035482D01*
X0715953Y0035382D01*
X0716104Y0035278D01*
X0716253Y0035171D01*
X0716399Y0035060D01*
X0716542Y0034945D01*
X0716682Y0034827D01*
X0716820Y0034706D01*
X0716954Y0034581D01*
X0717086Y0034453D01*
X0717214Y0034321D01*
X0717339Y0034187D01*
X0717460Y0034049D01*
X0717578Y0033909D01*
X0717693Y0033766D01*
X0717804Y0033620D01*
X0717911Y0033471D01*
X0718015Y0033320D01*
X0718115Y0033166D01*
X0718212Y0033010D01*
X0718304Y0032851D01*
X0718392Y0032691D01*
X0718477Y0032528D01*
X0718557Y0032363D01*
X0718634Y0032196D01*
X0718706Y0032028D01*
X0718774Y0031857D01*
X0718838Y0031685D01*
X0718898Y0031512D01*
X0718953Y0031337D01*
X0719004Y0031161D01*
X0719051Y0030983D01*
X0719093Y0030805D01*
X0719131Y0030625D01*
X0719165Y0030445D01*
X0719194Y0030264D01*
X0719219Y0030082D01*
X0719239Y0029900D01*
X0719255Y0029717D01*
X0719266Y0029534D01*
X0719273Y0029350D01*
X0719275Y0029167D01*
X0719273Y0028984D01*
X0719266Y0028800D01*
X0719255Y0028617D01*
X0719239Y0028434D01*
X0719219Y0028252D01*
X0719194Y0028070D01*
X0719165Y0027889D01*
X0719131Y0027709D01*
X0719093Y0027529D01*
X0719051Y0027351D01*
X0719004Y0027173D01*
X0718953Y0026997D01*
X0718898Y0026822D01*
X0718838Y0026649D01*
X0718774Y0026477D01*
X0718706Y0026306D01*
X0718634Y0026138D01*
X0718557Y0025971D01*
X0718477Y0025806D01*
X0718392Y0025643D01*
X0718304Y0025483D01*
X0718212Y0025324D01*
X0718115Y0025168D01*
X0718015Y0025014D01*
X0717911Y0024863D01*
X0717804Y0024714D01*
X0717693Y0024568D01*
X0717578Y0024425D01*
X0717460Y0024285D01*
X0717339Y0024147D01*
X0717214Y0024013D01*
X0717086Y0023881D01*
X0716954Y0023753D01*
X0716820Y0023628D01*
X0716682Y0023507D01*
X0716542Y0023389D01*
X0716399Y0023274D01*
X0716253Y0023163D01*
X0716104Y0023056D01*
X0715953Y0022952D01*
X0715799Y0022852D01*
X0715643Y0022755D01*
X0715484Y0022663D01*
X0715324Y0022575D01*
X0715161Y0022490D01*
X0714996Y0022410D01*
X0714829Y0022333D01*
X0714661Y0022261D01*
X0714490Y0022193D01*
X0714318Y0022129D01*
X0714145Y0022069D01*
X0713970Y0022014D01*
X0713794Y0021963D01*
X0713616Y0021916D01*
X0713438Y0021874D01*
X0713258Y0021836D01*
X0713078Y0021802D01*
X0712897Y0021773D01*
X0712715Y0021748D01*
X0712533Y0021728D01*
X0712350Y0021712D01*
X0712167Y0021701D01*
X0711983Y0021694D01*
X0711800Y0021692D01*
X0711617Y0021694D01*
X0711433Y0021701D01*
X0711250Y0021712D01*
X0711067Y0021728D01*
X0710885Y0021748D01*
X0710703Y0021773D01*
X0710522Y0021802D01*
X0710342Y0021836D01*
X0710162Y0021874D01*
X0709984Y0021916D01*
X0709806Y0021963D01*
X0709630Y0022014D01*
X0709455Y0022069D01*
X0709282Y0022129D01*
X0709110Y0022193D01*
X0708939Y0022261D01*
X0708771Y0022333D01*
X0708604Y0022410D01*
X0708439Y0022490D01*
X0708276Y0022575D01*
X0708116Y0022663D01*
X0707957Y0022755D01*
X0707801Y0022852D01*
X0707647Y0022952D01*
X0707496Y0023056D01*
X0707347Y0023163D01*
X0707201Y0023274D01*
X0707058Y0023389D01*
X0706918Y0023507D01*
X0706780Y0023628D01*
X0706646Y0023753D01*
X0706514Y0023881D01*
X0706386Y0024013D01*
X0706261Y0024147D01*
X0706140Y0024285D01*
X0706022Y0024425D01*
X0705907Y0024568D01*
X0705796Y0024714D01*
X0705689Y0024863D01*
X0705585Y0025014D01*
X0705485Y0025168D01*
X0705388Y0025324D01*
X0705296Y0025483D01*
X0705208Y0025643D01*
X0705123Y0025806D01*
X0705043Y0025971D01*
X0704966Y0026138D01*
X0704894Y0026306D01*
X0704826Y0026477D01*
X0704762Y0026649D01*
X0704702Y0026822D01*
X0704647Y0026997D01*
X0704596Y0027173D01*
X0704549Y0027351D01*
X0704507Y0027529D01*
X0704469Y0027709D01*
X0704435Y0027889D01*
X0704406Y0028070D01*
X0704381Y0028252D01*
X0704361Y0028434D01*
X0704345Y0028617D01*
X0704334Y0028800D01*
X0704327Y0028984D01*
X0704325Y0029167D01*
X0704325Y0472167D02*
X0704327Y0472350D01*
X0704334Y0472534D01*
X0704345Y0472717D01*
X0704361Y0472900D01*
X0704381Y0473082D01*
X0704406Y0473264D01*
X0704435Y0473445D01*
X0704469Y0473625D01*
X0704507Y0473805D01*
X0704549Y0473983D01*
X0704596Y0474161D01*
X0704647Y0474337D01*
X0704702Y0474512D01*
X0704762Y0474685D01*
X0704826Y0474857D01*
X0704894Y0475028D01*
X0704966Y0475196D01*
X0705043Y0475363D01*
X0705123Y0475528D01*
X0705208Y0475691D01*
X0705296Y0475851D01*
X0705388Y0476010D01*
X0705485Y0476166D01*
X0705585Y0476320D01*
X0705689Y0476471D01*
X0705796Y0476620D01*
X0705907Y0476766D01*
X0706022Y0476909D01*
X0706140Y0477049D01*
X0706261Y0477187D01*
X0706386Y0477321D01*
X0706514Y0477453D01*
X0706646Y0477581D01*
X0706780Y0477706D01*
X0706918Y0477827D01*
X0707058Y0477945D01*
X0707201Y0478060D01*
X0707347Y0478171D01*
X0707496Y0478278D01*
X0707647Y0478382D01*
X0707801Y0478482D01*
X0707957Y0478579D01*
X0708116Y0478671D01*
X0708276Y0478759D01*
X0708439Y0478844D01*
X0708604Y0478924D01*
X0708771Y0479001D01*
X0708939Y0479073D01*
X0709110Y0479141D01*
X0709282Y0479205D01*
X0709455Y0479265D01*
X0709630Y0479320D01*
X0709806Y0479371D01*
X0709984Y0479418D01*
X0710162Y0479460D01*
X0710342Y0479498D01*
X0710522Y0479532D01*
X0710703Y0479561D01*
X0710885Y0479586D01*
X0711067Y0479606D01*
X0711250Y0479622D01*
X0711433Y0479633D01*
X0711617Y0479640D01*
X0711800Y0479642D01*
X0711983Y0479640D01*
X0712167Y0479633D01*
X0712350Y0479622D01*
X0712533Y0479606D01*
X0712715Y0479586D01*
X0712897Y0479561D01*
X0713078Y0479532D01*
X0713258Y0479498D01*
X0713438Y0479460D01*
X0713616Y0479418D01*
X0713794Y0479371D01*
X0713970Y0479320D01*
X0714145Y0479265D01*
X0714318Y0479205D01*
X0714490Y0479141D01*
X0714661Y0479073D01*
X0714829Y0479001D01*
X0714996Y0478924D01*
X0715161Y0478844D01*
X0715324Y0478759D01*
X0715484Y0478671D01*
X0715643Y0478579D01*
X0715799Y0478482D01*
X0715953Y0478382D01*
X0716104Y0478278D01*
X0716253Y0478171D01*
X0716399Y0478060D01*
X0716542Y0477945D01*
X0716682Y0477827D01*
X0716820Y0477706D01*
X0716954Y0477581D01*
X0717086Y0477453D01*
X0717214Y0477321D01*
X0717339Y0477187D01*
X0717460Y0477049D01*
X0717578Y0476909D01*
X0717693Y0476766D01*
X0717804Y0476620D01*
X0717911Y0476471D01*
X0718015Y0476320D01*
X0718115Y0476166D01*
X0718212Y0476010D01*
X0718304Y0475851D01*
X0718392Y0475691D01*
X0718477Y0475528D01*
X0718557Y0475363D01*
X0718634Y0475196D01*
X0718706Y0475028D01*
X0718774Y0474857D01*
X0718838Y0474685D01*
X0718898Y0474512D01*
X0718953Y0474337D01*
X0719004Y0474161D01*
X0719051Y0473983D01*
X0719093Y0473805D01*
X0719131Y0473625D01*
X0719165Y0473445D01*
X0719194Y0473264D01*
X0719219Y0473082D01*
X0719239Y0472900D01*
X0719255Y0472717D01*
X0719266Y0472534D01*
X0719273Y0472350D01*
X0719275Y0472167D01*
X0719273Y0471984D01*
X0719266Y0471800D01*
X0719255Y0471617D01*
X0719239Y0471434D01*
X0719219Y0471252D01*
X0719194Y0471070D01*
X0719165Y0470889D01*
X0719131Y0470709D01*
X0719093Y0470529D01*
X0719051Y0470351D01*
X0719004Y0470173D01*
X0718953Y0469997D01*
X0718898Y0469822D01*
X0718838Y0469649D01*
X0718774Y0469477D01*
X0718706Y0469306D01*
X0718634Y0469138D01*
X0718557Y0468971D01*
X0718477Y0468806D01*
X0718392Y0468643D01*
X0718304Y0468483D01*
X0718212Y0468324D01*
X0718115Y0468168D01*
X0718015Y0468014D01*
X0717911Y0467863D01*
X0717804Y0467714D01*
X0717693Y0467568D01*
X0717578Y0467425D01*
X0717460Y0467285D01*
X0717339Y0467147D01*
X0717214Y0467013D01*
X0717086Y0466881D01*
X0716954Y0466753D01*
X0716820Y0466628D01*
X0716682Y0466507D01*
X0716542Y0466389D01*
X0716399Y0466274D01*
X0716253Y0466163D01*
X0716104Y0466056D01*
X0715953Y0465952D01*
X0715799Y0465852D01*
X0715643Y0465755D01*
X0715484Y0465663D01*
X0715324Y0465575D01*
X0715161Y0465490D01*
X0714996Y0465410D01*
X0714829Y0465333D01*
X0714661Y0465261D01*
X0714490Y0465193D01*
X0714318Y0465129D01*
X0714145Y0465069D01*
X0713970Y0465014D01*
X0713794Y0464963D01*
X0713616Y0464916D01*
X0713438Y0464874D01*
X0713258Y0464836D01*
X0713078Y0464802D01*
X0712897Y0464773D01*
X0712715Y0464748D01*
X0712533Y0464728D01*
X0712350Y0464712D01*
X0712167Y0464701D01*
X0711983Y0464694D01*
X0711800Y0464692D01*
X0711617Y0464694D01*
X0711433Y0464701D01*
X0711250Y0464712D01*
X0711067Y0464728D01*
X0710885Y0464748D01*
X0710703Y0464773D01*
X0710522Y0464802D01*
X0710342Y0464836D01*
X0710162Y0464874D01*
X0709984Y0464916D01*
X0709806Y0464963D01*
X0709630Y0465014D01*
X0709455Y0465069D01*
X0709282Y0465129D01*
X0709110Y0465193D01*
X0708939Y0465261D01*
X0708771Y0465333D01*
X0708604Y0465410D01*
X0708439Y0465490D01*
X0708276Y0465575D01*
X0708116Y0465663D01*
X0707957Y0465755D01*
X0707801Y0465852D01*
X0707647Y0465952D01*
X0707496Y0466056D01*
X0707347Y0466163D01*
X0707201Y0466274D01*
X0707058Y0466389D01*
X0706918Y0466507D01*
X0706780Y0466628D01*
X0706646Y0466753D01*
X0706514Y0466881D01*
X0706386Y0467013D01*
X0706261Y0467147D01*
X0706140Y0467285D01*
X0706022Y0467425D01*
X0705907Y0467568D01*
X0705796Y0467714D01*
X0705689Y0467863D01*
X0705585Y0468014D01*
X0705485Y0468168D01*
X0705388Y0468324D01*
X0705296Y0468483D01*
X0705208Y0468643D01*
X0705123Y0468806D01*
X0705043Y0468971D01*
X0704966Y0469138D01*
X0704894Y0469306D01*
X0704826Y0469477D01*
X0704762Y0469649D01*
X0704702Y0469822D01*
X0704647Y0469997D01*
X0704596Y0470173D01*
X0704549Y0470351D01*
X0704507Y0470529D01*
X0704469Y0470709D01*
X0704435Y0470889D01*
X0704406Y0471070D01*
X0704381Y0471252D01*
X0704361Y0471434D01*
X0704345Y0471617D01*
X0704334Y0471800D01*
X0704327Y0471984D01*
X0704325Y0472167D01*
X0320325Y0471167D02*
X0320327Y0471350D01*
X0320334Y0471534D01*
X0320345Y0471717D01*
X0320361Y0471900D01*
X0320381Y0472082D01*
X0320406Y0472264D01*
X0320435Y0472445D01*
X0320469Y0472625D01*
X0320507Y0472805D01*
X0320549Y0472983D01*
X0320596Y0473161D01*
X0320647Y0473337D01*
X0320702Y0473512D01*
X0320762Y0473685D01*
X0320826Y0473857D01*
X0320894Y0474028D01*
X0320966Y0474196D01*
X0321043Y0474363D01*
X0321123Y0474528D01*
X0321208Y0474691D01*
X0321296Y0474851D01*
X0321388Y0475010D01*
X0321485Y0475166D01*
X0321585Y0475320D01*
X0321689Y0475471D01*
X0321796Y0475620D01*
X0321907Y0475766D01*
X0322022Y0475909D01*
X0322140Y0476049D01*
X0322261Y0476187D01*
X0322386Y0476321D01*
X0322514Y0476453D01*
X0322646Y0476581D01*
X0322780Y0476706D01*
X0322918Y0476827D01*
X0323058Y0476945D01*
X0323201Y0477060D01*
X0323347Y0477171D01*
X0323496Y0477278D01*
X0323647Y0477382D01*
X0323801Y0477482D01*
X0323957Y0477579D01*
X0324116Y0477671D01*
X0324276Y0477759D01*
X0324439Y0477844D01*
X0324604Y0477924D01*
X0324771Y0478001D01*
X0324939Y0478073D01*
X0325110Y0478141D01*
X0325282Y0478205D01*
X0325455Y0478265D01*
X0325630Y0478320D01*
X0325806Y0478371D01*
X0325984Y0478418D01*
X0326162Y0478460D01*
X0326342Y0478498D01*
X0326522Y0478532D01*
X0326703Y0478561D01*
X0326885Y0478586D01*
X0327067Y0478606D01*
X0327250Y0478622D01*
X0327433Y0478633D01*
X0327617Y0478640D01*
X0327800Y0478642D01*
X0327983Y0478640D01*
X0328167Y0478633D01*
X0328350Y0478622D01*
X0328533Y0478606D01*
X0328715Y0478586D01*
X0328897Y0478561D01*
X0329078Y0478532D01*
X0329258Y0478498D01*
X0329438Y0478460D01*
X0329616Y0478418D01*
X0329794Y0478371D01*
X0329970Y0478320D01*
X0330145Y0478265D01*
X0330318Y0478205D01*
X0330490Y0478141D01*
X0330661Y0478073D01*
X0330829Y0478001D01*
X0330996Y0477924D01*
X0331161Y0477844D01*
X0331324Y0477759D01*
X0331484Y0477671D01*
X0331643Y0477579D01*
X0331799Y0477482D01*
X0331953Y0477382D01*
X0332104Y0477278D01*
X0332253Y0477171D01*
X0332399Y0477060D01*
X0332542Y0476945D01*
X0332682Y0476827D01*
X0332820Y0476706D01*
X0332954Y0476581D01*
X0333086Y0476453D01*
X0333214Y0476321D01*
X0333339Y0476187D01*
X0333460Y0476049D01*
X0333578Y0475909D01*
X0333693Y0475766D01*
X0333804Y0475620D01*
X0333911Y0475471D01*
X0334015Y0475320D01*
X0334115Y0475166D01*
X0334212Y0475010D01*
X0334304Y0474851D01*
X0334392Y0474691D01*
X0334477Y0474528D01*
X0334557Y0474363D01*
X0334634Y0474196D01*
X0334706Y0474028D01*
X0334774Y0473857D01*
X0334838Y0473685D01*
X0334898Y0473512D01*
X0334953Y0473337D01*
X0335004Y0473161D01*
X0335051Y0472983D01*
X0335093Y0472805D01*
X0335131Y0472625D01*
X0335165Y0472445D01*
X0335194Y0472264D01*
X0335219Y0472082D01*
X0335239Y0471900D01*
X0335255Y0471717D01*
X0335266Y0471534D01*
X0335273Y0471350D01*
X0335275Y0471167D01*
X0335273Y0470984D01*
X0335266Y0470800D01*
X0335255Y0470617D01*
X0335239Y0470434D01*
X0335219Y0470252D01*
X0335194Y0470070D01*
X0335165Y0469889D01*
X0335131Y0469709D01*
X0335093Y0469529D01*
X0335051Y0469351D01*
X0335004Y0469173D01*
X0334953Y0468997D01*
X0334898Y0468822D01*
X0334838Y0468649D01*
X0334774Y0468477D01*
X0334706Y0468306D01*
X0334634Y0468138D01*
X0334557Y0467971D01*
X0334477Y0467806D01*
X0334392Y0467643D01*
X0334304Y0467483D01*
X0334212Y0467324D01*
X0334115Y0467168D01*
X0334015Y0467014D01*
X0333911Y0466863D01*
X0333804Y0466714D01*
X0333693Y0466568D01*
X0333578Y0466425D01*
X0333460Y0466285D01*
X0333339Y0466147D01*
X0333214Y0466013D01*
X0333086Y0465881D01*
X0332954Y0465753D01*
X0332820Y0465628D01*
X0332682Y0465507D01*
X0332542Y0465389D01*
X0332399Y0465274D01*
X0332253Y0465163D01*
X0332104Y0465056D01*
X0331953Y0464952D01*
X0331799Y0464852D01*
X0331643Y0464755D01*
X0331484Y0464663D01*
X0331324Y0464575D01*
X0331161Y0464490D01*
X0330996Y0464410D01*
X0330829Y0464333D01*
X0330661Y0464261D01*
X0330490Y0464193D01*
X0330318Y0464129D01*
X0330145Y0464069D01*
X0329970Y0464014D01*
X0329794Y0463963D01*
X0329616Y0463916D01*
X0329438Y0463874D01*
X0329258Y0463836D01*
X0329078Y0463802D01*
X0328897Y0463773D01*
X0328715Y0463748D01*
X0328533Y0463728D01*
X0328350Y0463712D01*
X0328167Y0463701D01*
X0327983Y0463694D01*
X0327800Y0463692D01*
X0327617Y0463694D01*
X0327433Y0463701D01*
X0327250Y0463712D01*
X0327067Y0463728D01*
X0326885Y0463748D01*
X0326703Y0463773D01*
X0326522Y0463802D01*
X0326342Y0463836D01*
X0326162Y0463874D01*
X0325984Y0463916D01*
X0325806Y0463963D01*
X0325630Y0464014D01*
X0325455Y0464069D01*
X0325282Y0464129D01*
X0325110Y0464193D01*
X0324939Y0464261D01*
X0324771Y0464333D01*
X0324604Y0464410D01*
X0324439Y0464490D01*
X0324276Y0464575D01*
X0324116Y0464663D01*
X0323957Y0464755D01*
X0323801Y0464852D01*
X0323647Y0464952D01*
X0323496Y0465056D01*
X0323347Y0465163D01*
X0323201Y0465274D01*
X0323058Y0465389D01*
X0322918Y0465507D01*
X0322780Y0465628D01*
X0322646Y0465753D01*
X0322514Y0465881D01*
X0322386Y0466013D01*
X0322261Y0466147D01*
X0322140Y0466285D01*
X0322022Y0466425D01*
X0321907Y0466568D01*
X0321796Y0466714D01*
X0321689Y0466863D01*
X0321585Y0467014D01*
X0321485Y0467168D01*
X0321388Y0467324D01*
X0321296Y0467483D01*
X0321208Y0467643D01*
X0321123Y0467806D01*
X0321043Y0467971D01*
X0320966Y0468138D01*
X0320894Y0468306D01*
X0320826Y0468477D01*
X0320762Y0468649D01*
X0320702Y0468822D01*
X0320647Y0468997D01*
X0320596Y0469173D01*
X0320549Y0469351D01*
X0320507Y0469529D01*
X0320469Y0469709D01*
X0320435Y0469889D01*
X0320406Y0470070D01*
X0320381Y0470252D01*
X0320361Y0470434D01*
X0320345Y0470617D01*
X0320334Y0470800D01*
X0320327Y0470984D01*
X0320325Y0471167D01*
D11*
X0231800Y0424367D02*
X0231800Y0419167D01*
X0221800Y0419167D02*
X0221800Y0424367D01*
X0211800Y0424367D02*
X0211800Y0419167D01*
X0201800Y0419167D02*
X0201800Y0424367D01*
X0191800Y0424367D02*
X0191800Y0419167D01*
X0181800Y0419167D02*
X0181800Y0424367D01*
X0171800Y0424367D02*
X0171800Y0419167D01*
X0161800Y0419167D02*
X0161800Y0424367D01*
X0161800Y0389167D02*
X0161800Y0383967D01*
X0171800Y0383967D02*
X0171800Y0389167D01*
X0181800Y0389167D02*
X0181800Y0383967D01*
X0191800Y0383967D02*
X0191800Y0389167D01*
X0201800Y0389167D02*
X0201800Y0383967D01*
X0211800Y0383967D02*
X0211800Y0389167D01*
X0221800Y0389167D02*
X0221800Y0383967D01*
X0231800Y0383967D02*
X0231800Y0389167D01*
X0365200Y0325167D02*
X0370400Y0325167D01*
X0405200Y0325167D02*
X0410400Y0325167D01*
X0443200Y0326167D02*
X0448400Y0326167D01*
X0483200Y0326167D02*
X0488400Y0326167D01*
X0485800Y0357567D02*
X0485800Y0362767D01*
X0475800Y0362767D02*
X0475800Y0357567D01*
X0495800Y0357567D02*
X0495800Y0362767D01*
X0539800Y0362767D02*
X0539800Y0357567D01*
X0549800Y0357567D02*
X0549800Y0362767D01*
X0559800Y0362767D02*
X0559800Y0357567D01*
X0552400Y0326167D02*
X0547200Y0326167D01*
X0587200Y0326167D02*
X0592400Y0326167D01*
X0618200Y0326167D02*
X0623400Y0326167D01*
X0658200Y0326167D02*
X0663400Y0326167D01*
X0629800Y0357567D02*
X0629800Y0362767D01*
X0619800Y0362767D02*
X0619800Y0357567D01*
X0609800Y0357567D02*
X0609800Y0362767D01*
X0467400Y0219167D02*
X0462200Y0219167D01*
X0462200Y0209167D02*
X0467400Y0209167D01*
X0467400Y0199167D02*
X0462200Y0199167D01*
X0437400Y0199167D02*
X0432200Y0199167D01*
X0432200Y0209167D02*
X0437400Y0209167D01*
X0437400Y0219167D02*
X0432200Y0219167D01*
X0392800Y0127767D02*
X0392800Y0122567D01*
X0392800Y0087767D02*
X0392800Y0082567D01*
X0226800Y0173967D02*
X0226800Y0179167D01*
X0216800Y0179167D02*
X0216800Y0173967D01*
X0206800Y0173967D02*
X0206800Y0179167D01*
X0196800Y0179167D02*
X0196800Y0173967D01*
X0186800Y0173967D02*
X0186800Y0179167D01*
X0176800Y0179167D02*
X0176800Y0173967D01*
X0166800Y0173967D02*
X0166800Y0179167D01*
X0156800Y0179167D02*
X0156800Y0173967D01*
X0156800Y0209167D02*
X0156800Y0214367D01*
X0166800Y0214367D02*
X0166800Y0209167D01*
X0176800Y0209167D02*
X0176800Y0214367D01*
X0186800Y0214367D02*
X0186800Y0209167D01*
X0196800Y0209167D02*
X0196800Y0214367D01*
X0206800Y0214367D02*
X0206800Y0209167D01*
X0216800Y0209167D02*
X0216800Y0214367D01*
X0226800Y0214367D02*
X0226800Y0209167D01*
X0204400Y0084167D02*
X0199200Y0084167D01*
X0199200Y0074167D02*
X0204400Y0074167D01*
X0204400Y0064167D02*
X0199200Y0064167D01*
X0199200Y0054167D02*
X0204400Y0054167D01*
X0204400Y0044167D02*
X0199200Y0044167D01*
X0199200Y0034167D02*
X0204400Y0034167D01*
X0204400Y0024167D02*
X0199200Y0024167D01*
X0199200Y0014167D02*
X0204400Y0014167D01*
X0174400Y0014167D02*
X0169200Y0014167D01*
X0169200Y0024167D02*
X0174400Y0024167D01*
X0174400Y0034167D02*
X0169200Y0034167D01*
X0169200Y0044167D02*
X0174400Y0044167D01*
X0174400Y0054167D02*
X0169200Y0054167D01*
X0169200Y0064167D02*
X0174400Y0064167D01*
X0174400Y0074167D02*
X0169200Y0074167D01*
X0169200Y0084167D02*
X0174400Y0084167D01*
X0397800Y0357567D02*
X0397800Y0362767D01*
X0407800Y0362767D02*
X0407800Y0357567D01*
X0417800Y0357567D02*
X0417800Y0362767D01*
X0613200Y0215167D02*
X0618400Y0215167D01*
X0618400Y0205167D02*
X0613200Y0205167D01*
X0613200Y0195167D02*
X0618400Y0195167D01*
X0643200Y0195167D02*
X0648400Y0195167D01*
X0648400Y0205167D02*
X0643200Y0205167D01*
X0643200Y0215167D02*
X0648400Y0215167D01*
X0616800Y0122767D02*
X0616800Y0117567D01*
X0606800Y0117567D02*
X0606800Y0122767D01*
X0596800Y0122767D02*
X0596800Y0117567D01*
X0586800Y0117567D02*
X0586800Y0122767D01*
X0586800Y0092767D02*
X0586800Y0087567D01*
X0596800Y0087567D02*
X0596800Y0092767D01*
X0606800Y0092767D02*
X0606800Y0087567D01*
X0616800Y0087567D02*
X0616800Y0092767D01*
X0209400Y0519167D02*
X0204200Y0519167D01*
X0204200Y0529167D02*
X0209400Y0529167D01*
X0209400Y0539167D02*
X0204200Y0539167D01*
X0204200Y0549167D02*
X0209400Y0549167D01*
X0209400Y0559167D02*
X0204200Y0559167D01*
X0204200Y0569167D02*
X0209400Y0569167D01*
X0209400Y0579167D02*
X0204200Y0579167D01*
X0204200Y0589167D02*
X0209400Y0589167D01*
X0179400Y0589167D02*
X0174200Y0589167D01*
X0174200Y0579167D02*
X0179400Y0579167D01*
X0179400Y0569167D02*
X0174200Y0569167D01*
X0174200Y0559167D02*
X0179400Y0559167D01*
X0179400Y0549167D02*
X0174200Y0549167D01*
X0174200Y0539167D02*
X0179400Y0539167D01*
X0179400Y0529167D02*
X0174200Y0529167D01*
X0174200Y0519167D02*
X0179400Y0519167D01*
D12*
X0191800Y0484167D03*
X0211800Y0484167D03*
X0231800Y0454167D03*
X0261800Y0484167D03*
X0281800Y0454167D03*
X0365800Y0414167D03*
X0415800Y0414167D03*
X0456800Y0414167D03*
X0506800Y0414167D03*
X0526800Y0414167D03*
X0576800Y0414167D03*
X0610800Y0414167D03*
X0660800Y0414167D03*
X0659800Y0274167D03*
X0659800Y0254167D03*
X0607800Y0275167D03*
X0587800Y0275167D03*
X0520800Y0199167D03*
X0500800Y0199167D03*
X0485800Y0254167D03*
X0485800Y0274167D03*
X0455800Y0273167D03*
X0435800Y0273167D03*
X0281800Y0334167D03*
X0261800Y0359167D03*
X0231800Y0334167D03*
X0211800Y0359167D03*
X0191800Y0359167D03*
X0171800Y0334167D03*
X0141800Y0359167D03*
X0121800Y0334167D03*
X0106800Y0264167D03*
X0126800Y0239167D03*
X0156800Y0264167D03*
X0176800Y0239167D03*
X0196800Y0239167D03*
X0216800Y0264167D03*
X0246800Y0239167D03*
X0266800Y0264167D03*
X0266800Y0154167D03*
X0246800Y0119167D03*
X0216800Y0154167D03*
X0196800Y0119167D03*
X0176800Y0119167D03*
X0156800Y0154167D03*
X0126800Y0119167D03*
X0106800Y0154167D03*
X0121800Y0454167D03*
X0141800Y0484167D03*
X0171800Y0454167D03*
X0645800Y0166167D03*
X0645800Y0146167D03*
D13*
X0251800Y0294167D03*
X0251800Y0304167D03*
X0241800Y0304167D03*
X0231800Y0304167D03*
X0221800Y0304167D03*
X0211800Y0304167D03*
X0201800Y0304167D03*
X0191800Y0304167D03*
X0181800Y0304167D03*
X0171800Y0304167D03*
X0161800Y0304167D03*
X0151800Y0304167D03*
X0141800Y0304167D03*
X0131800Y0304167D03*
X0121800Y0304167D03*
X0111800Y0304167D03*
X0101800Y0304167D03*
X0091800Y0304167D03*
X0081800Y0304167D03*
X0071800Y0304167D03*
X0061800Y0304167D03*
X0061800Y0294167D03*
X0071800Y0294167D03*
X0081800Y0294167D03*
X0091800Y0294167D03*
X0101800Y0294167D03*
X0111800Y0294167D03*
X0121800Y0294167D03*
X0131800Y0294167D03*
X0141800Y0294167D03*
X0151800Y0294167D03*
X0161800Y0294167D03*
X0171800Y0294167D03*
X0181800Y0294167D03*
X0191800Y0294167D03*
X0201800Y0294167D03*
X0211800Y0294167D03*
X0221800Y0294167D03*
X0231800Y0294167D03*
X0241800Y0294167D03*
D14*
X0030700Y0154067D02*
X0022900Y0154067D01*
X0022900Y0134367D02*
X0030700Y0134367D01*
X0051900Y0038067D02*
X0051900Y0030267D01*
X0071600Y0030267D02*
X0071600Y0038067D01*
X0266900Y0038067D02*
X0266900Y0030267D01*
X0286600Y0030267D02*
X0286600Y0038067D01*
X0281700Y0560267D02*
X0281700Y0568067D01*
X0262000Y0568067D02*
X0262000Y0560267D01*
X0066700Y0565267D02*
X0066700Y0573067D01*
X0047000Y0573067D02*
X0047000Y0565267D01*
D15*
X0387780Y0198962D02*
X0397820Y0198962D01*
X0397820Y0183371D02*
X0387780Y0183371D01*
X0387780Y0039962D02*
X0397820Y0039962D01*
X0397820Y0024371D02*
X0387780Y0024371D01*
D16*
X0596800Y0036167D03*
D17*
X0586761Y0046206D03*
X0606839Y0046206D03*
X0606839Y0026128D03*
X0586761Y0026128D03*
D18*
X0695875Y0262167D02*
X0707725Y0262167D01*
X0523925Y0325867D02*
X0512075Y0325867D01*
X0529575Y0473167D02*
X0541425Y0473167D01*
X0339725Y0262167D02*
X0327875Y0262167D01*
D19*
X0430800Y0120167D03*
X0460800Y0120167D03*
X0480800Y0120167D03*
X0500800Y0120167D03*
X0500800Y0090167D03*
X0480800Y0090167D03*
X0460800Y0090167D03*
X0430800Y0090167D03*
D20*
X0429925Y0448167D02*
X0421675Y0448167D01*
X0421675Y0480167D02*
X0429925Y0480167D01*
X0481675Y0480167D02*
X0489925Y0480167D01*
X0536675Y0447167D02*
X0544925Y0447167D01*
X0596675Y0447167D02*
X0604925Y0447167D01*
X0604925Y0478167D02*
X0596675Y0478167D01*
X0656675Y0478167D02*
X0664925Y0478167D01*
X0369925Y0448167D02*
X0361675Y0448167D01*
D21*
X0333800Y0359167D03*
X0333800Y0319167D03*
X0700800Y0320167D03*
X0700800Y0360167D03*
D22*
X0730400Y0203152D02*
X0657236Y0202981D01*
X0656070Y0200167D01*
X0657400Y0196957D01*
X0657400Y0193376D01*
X0656030Y0190069D01*
X0653498Y0187537D01*
X0650190Y0186167D01*
X0641410Y0186167D01*
X0638102Y0187537D01*
X0635570Y0190069D01*
X0634200Y0193376D01*
X0634200Y0196957D01*
X0635530Y0200167D01*
X0634386Y0202927D01*
X0627207Y0202911D01*
X0626030Y0200069D01*
X0623498Y0197537D01*
X0620190Y0196167D01*
X0611410Y0196167D01*
X0608102Y0197537D01*
X0605570Y0200069D01*
X0604415Y0202857D01*
X0529800Y0202683D01*
X0529800Y0195439D01*
X0524528Y0190167D01*
X0517072Y0190167D01*
X0511800Y0195439D01*
X0511800Y0202641D01*
X0509800Y0202636D01*
X0509800Y0195439D01*
X0504528Y0190167D01*
X0497072Y0190167D01*
X0491800Y0195439D01*
X0491800Y0202594D01*
X0475737Y0202557D01*
X0476400Y0200957D01*
X0476400Y0197376D01*
X0475030Y0194069D01*
X0472498Y0191537D01*
X0469190Y0190167D01*
X0460410Y0190167D01*
X0457102Y0191537D01*
X0454570Y0194069D01*
X0453200Y0197376D01*
X0453200Y0200957D01*
X0453841Y0202506D01*
X0443442Y0202481D01*
X0442498Y0201537D01*
X0439190Y0200167D01*
X0430410Y0200167D01*
X0427102Y0201537D01*
X0426198Y0202441D01*
X0316200Y0202184D01*
X0316200Y0035825D01*
X0316697Y0036686D01*
X0319281Y0039269D01*
X0322444Y0041096D01*
X0325973Y0042042D01*
X0329627Y0042042D01*
X0333156Y0041096D01*
X0336319Y0039269D01*
X0338903Y0036686D01*
X0340729Y0033522D01*
X0341675Y0029993D01*
X0341675Y0026340D01*
X0340729Y0022811D01*
X0338903Y0019647D01*
X0336319Y0017064D01*
X0333156Y0015237D01*
X0329627Y0014292D01*
X0325973Y0014292D01*
X0322444Y0015237D01*
X0319281Y0017064D01*
X0316697Y0019647D01*
X0316200Y0020508D01*
X0316200Y0010567D01*
X0730400Y0010567D01*
X0730400Y0203152D01*
X0730400Y0202382D02*
X0656988Y0202382D01*
X0656326Y0200784D02*
X0730400Y0200784D01*
X0730400Y0199185D02*
X0656477Y0199185D01*
X0657139Y0197587D02*
X0730400Y0197587D01*
X0730400Y0195988D02*
X0657400Y0195988D01*
X0657400Y0194390D02*
X0730400Y0194390D01*
X0730400Y0192791D02*
X0657157Y0192791D01*
X0656495Y0191192D02*
X0730400Y0191192D01*
X0730400Y0189594D02*
X0655555Y0189594D01*
X0653957Y0187995D02*
X0730400Y0187995D01*
X0730400Y0186397D02*
X0650746Y0186397D01*
X0640854Y0186397D02*
X0408832Y0186397D01*
X0408461Y0187779D02*
X0406958Y0190383D01*
X0404832Y0192509D01*
X0402228Y0194013D01*
X0399323Y0194791D01*
X0386277Y0194791D01*
X0383372Y0194013D01*
X0380768Y0192509D01*
X0378642Y0190383D01*
X0377139Y0187779D01*
X0376361Y0184875D01*
X0376361Y0181868D01*
X0377139Y0178964D01*
X0378642Y0176360D01*
X0380768Y0174233D01*
X0383372Y0172730D01*
X0386277Y0171952D01*
X0399323Y0171952D01*
X0402228Y0172730D01*
X0404832Y0174233D01*
X0406958Y0176360D01*
X0408461Y0178964D01*
X0409239Y0181868D01*
X0409239Y0184875D01*
X0408461Y0187779D01*
X0408336Y0187995D02*
X0637643Y0187995D01*
X0636045Y0189594D02*
X0407413Y0189594D01*
X0406148Y0191192D02*
X0457933Y0191192D01*
X0455848Y0192791D02*
X0404344Y0192791D01*
X0400822Y0194390D02*
X0454437Y0194390D01*
X0453775Y0195988D02*
X0316200Y0195988D01*
X0316200Y0194390D02*
X0384778Y0194390D01*
X0381256Y0192791D02*
X0316200Y0192791D01*
X0316200Y0191192D02*
X0379452Y0191192D01*
X0378187Y0189594D02*
X0316200Y0189594D01*
X0316200Y0187995D02*
X0377264Y0187995D01*
X0376768Y0186397D02*
X0316200Y0186397D01*
X0316200Y0184798D02*
X0376361Y0184798D01*
X0376361Y0183200D02*
X0316200Y0183200D01*
X0316200Y0181601D02*
X0376432Y0181601D01*
X0376860Y0180003D02*
X0316200Y0180003D01*
X0316200Y0178404D02*
X0377462Y0178404D01*
X0378385Y0176806D02*
X0316200Y0176806D01*
X0316200Y0175207D02*
X0379794Y0175207D01*
X0381850Y0173609D02*
X0316200Y0173609D01*
X0316200Y0172010D02*
X0386058Y0172010D01*
X0399542Y0172010D02*
X0638916Y0172010D01*
X0637317Y0170412D02*
X0316200Y0170412D01*
X0316200Y0168813D02*
X0636800Y0168813D01*
X0636800Y0169895D02*
X0636800Y0162439D01*
X0642072Y0157167D01*
X0649528Y0157167D01*
X0654800Y0162439D01*
X0654800Y0169895D01*
X0649528Y0175167D01*
X0642072Y0175167D01*
X0636800Y0169895D01*
X0636800Y0167215D02*
X0316200Y0167215D01*
X0316200Y0165616D02*
X0636800Y0165616D01*
X0636800Y0164018D02*
X0316200Y0164018D01*
X0316200Y0162419D02*
X0636819Y0162419D01*
X0638418Y0160821D02*
X0316200Y0160821D01*
X0316200Y0159222D02*
X0640016Y0159222D01*
X0641615Y0157624D02*
X0316200Y0157624D01*
X0316200Y0156025D02*
X0730400Y0156025D01*
X0730400Y0154427D02*
X0650268Y0154427D01*
X0649528Y0155167D02*
X0642072Y0155167D01*
X0636800Y0149895D01*
X0636800Y0142439D01*
X0642072Y0137167D01*
X0649528Y0137167D01*
X0654800Y0142439D01*
X0654800Y0149895D01*
X0649528Y0155167D01*
X0649985Y0157624D02*
X0730400Y0157624D01*
X0730400Y0159222D02*
X0651584Y0159222D01*
X0653182Y0160821D02*
X0730400Y0160821D01*
X0730400Y0162419D02*
X0654781Y0162419D01*
X0654800Y0164018D02*
X0730400Y0164018D01*
X0730400Y0165616D02*
X0654800Y0165616D01*
X0654800Y0167215D02*
X0730400Y0167215D01*
X0730400Y0168813D02*
X0654800Y0168813D01*
X0654283Y0170412D02*
X0730400Y0170412D01*
X0730400Y0172010D02*
X0652684Y0172010D01*
X0651086Y0173609D02*
X0730400Y0173609D01*
X0730400Y0175207D02*
X0405806Y0175207D01*
X0407215Y0176806D02*
X0730400Y0176806D01*
X0730400Y0178404D02*
X0408138Y0178404D01*
X0408740Y0180003D02*
X0730400Y0180003D01*
X0730400Y0181601D02*
X0409168Y0181601D01*
X0409239Y0183200D02*
X0730400Y0183200D01*
X0730400Y0184798D02*
X0409239Y0184798D01*
X0403750Y0173609D02*
X0640514Y0173609D01*
X0635105Y0191192D02*
X0525554Y0191192D01*
X0527152Y0192791D02*
X0634442Y0192791D01*
X0634200Y0194390D02*
X0528751Y0194390D01*
X0529800Y0195988D02*
X0634200Y0195988D01*
X0634461Y0197587D02*
X0623548Y0197587D01*
X0625146Y0199185D02*
X0635123Y0199185D01*
X0635274Y0200784D02*
X0626326Y0200784D01*
X0626988Y0202382D02*
X0634612Y0202382D01*
X0608052Y0197587D02*
X0529800Y0197587D01*
X0529800Y0199185D02*
X0606454Y0199185D01*
X0605274Y0200784D02*
X0529800Y0200784D01*
X0529800Y0202382D02*
X0604612Y0202382D01*
X0641332Y0154427D02*
X0316200Y0154427D01*
X0316200Y0152828D02*
X0639734Y0152828D01*
X0638135Y0151230D02*
X0316200Y0151230D01*
X0316200Y0149631D02*
X0636800Y0149631D01*
X0636800Y0148033D02*
X0316200Y0148033D01*
X0316200Y0146434D02*
X0636800Y0146434D01*
X0636800Y0144836D02*
X0316200Y0144836D01*
X0316200Y0143237D02*
X0636800Y0143237D01*
X0637600Y0141639D02*
X0316200Y0141639D01*
X0316200Y0140040D02*
X0639199Y0140040D01*
X0640797Y0138442D02*
X0316200Y0138442D01*
X0316200Y0136843D02*
X0730400Y0136843D01*
X0730400Y0135245D02*
X0398050Y0135245D01*
X0397898Y0135396D02*
X0394590Y0136767D01*
X0391010Y0136767D01*
X0387702Y0135396D01*
X0385170Y0132865D01*
X0383800Y0129557D01*
X0383800Y0120776D01*
X0385170Y0117469D01*
X0387702Y0114937D01*
X0391010Y0113567D01*
X0394590Y0113567D01*
X0397898Y0114937D01*
X0400430Y0117469D01*
X0401800Y0120776D01*
X0401800Y0129557D01*
X0400430Y0132865D01*
X0397898Y0135396D01*
X0399648Y0133646D02*
X0730400Y0133646D01*
X0730400Y0132048D02*
X0400768Y0132048D01*
X0401430Y0130449D02*
X0581829Y0130449D01*
X0581702Y0130396D02*
X0579170Y0127865D01*
X0577800Y0124557D01*
X0577800Y0115776D01*
X0579170Y0112469D01*
X0581702Y0109937D01*
X0585010Y0108567D01*
X0588590Y0108567D01*
X0591800Y0109896D01*
X0595010Y0108567D01*
X0598590Y0108567D01*
X0601800Y0109896D01*
X0605010Y0108567D01*
X0608590Y0108567D01*
X0611800Y0109896D01*
X0615010Y0108567D01*
X0618590Y0108567D01*
X0621898Y0109937D01*
X0624430Y0112469D01*
X0625800Y0115776D01*
X0625800Y0124557D01*
X0624430Y0127865D01*
X0621898Y0130396D01*
X0618590Y0131767D01*
X0615010Y0131767D01*
X0611800Y0130437D01*
X0608590Y0131767D01*
X0605010Y0131767D01*
X0601800Y0130437D01*
X0598590Y0131767D01*
X0595010Y0131767D01*
X0591800Y0130437D01*
X0588590Y0131767D01*
X0585010Y0131767D01*
X0581702Y0130396D01*
X0580156Y0128851D02*
X0505818Y0128851D01*
X0506432Y0128596D02*
X0502778Y0130110D01*
X0498822Y0130110D01*
X0495168Y0128596D01*
X0492370Y0125799D01*
X0490857Y0122145D01*
X0490857Y0118189D01*
X0492370Y0114534D01*
X0495168Y0111737D01*
X0498822Y0110223D01*
X0502778Y0110223D01*
X0506432Y0111737D01*
X0509230Y0114534D01*
X0510743Y0118189D01*
X0510743Y0122145D01*
X0509230Y0125799D01*
X0506432Y0128596D01*
X0507777Y0127252D02*
X0578916Y0127252D01*
X0578254Y0125654D02*
X0509290Y0125654D01*
X0509952Y0124055D02*
X0577800Y0124055D01*
X0577800Y0122456D02*
X0510614Y0122456D01*
X0510743Y0120858D02*
X0577800Y0120858D01*
X0577800Y0119259D02*
X0510743Y0119259D01*
X0510525Y0117661D02*
X0577800Y0117661D01*
X0577800Y0116062D02*
X0509863Y0116062D01*
X0509159Y0114464D02*
X0578344Y0114464D01*
X0579006Y0112865D02*
X0507561Y0112865D01*
X0505297Y0111267D02*
X0580372Y0111267D01*
X0582350Y0109668D02*
X0316200Y0109668D01*
X0316200Y0108070D02*
X0730400Y0108070D01*
X0730400Y0109668D02*
X0621250Y0109668D01*
X0623228Y0111267D02*
X0730400Y0111267D01*
X0730400Y0112865D02*
X0624594Y0112865D01*
X0625256Y0114464D02*
X0730400Y0114464D01*
X0730400Y0116062D02*
X0625800Y0116062D01*
X0625800Y0117661D02*
X0730400Y0117661D01*
X0730400Y0119259D02*
X0625800Y0119259D01*
X0625800Y0120858D02*
X0730400Y0120858D01*
X0730400Y0122456D02*
X0625800Y0122456D01*
X0625800Y0124055D02*
X0730400Y0124055D01*
X0730400Y0125654D02*
X0625346Y0125654D01*
X0624684Y0127252D02*
X0730400Y0127252D01*
X0730400Y0128851D02*
X0623444Y0128851D01*
X0621771Y0130449D02*
X0730400Y0130449D01*
X0730400Y0138442D02*
X0650803Y0138442D01*
X0652401Y0140040D02*
X0730400Y0140040D01*
X0730400Y0141639D02*
X0654000Y0141639D01*
X0654800Y0143237D02*
X0730400Y0143237D01*
X0730400Y0144836D02*
X0654800Y0144836D01*
X0654800Y0146434D02*
X0730400Y0146434D01*
X0730400Y0148033D02*
X0654800Y0148033D01*
X0654800Y0149631D02*
X0730400Y0149631D01*
X0730400Y0151230D02*
X0653465Y0151230D01*
X0651866Y0152828D02*
X0730400Y0152828D01*
X0730400Y0106471D02*
X0316200Y0106471D01*
X0316200Y0104873D02*
X0730400Y0104873D01*
X0730400Y0103274D02*
X0316200Y0103274D01*
X0316200Y0101676D02*
X0584791Y0101676D01*
X0585010Y0101767D02*
X0581702Y0100396D01*
X0579170Y0097865D01*
X0577800Y0094557D01*
X0577800Y0085776D01*
X0579170Y0082469D01*
X0581702Y0079937D01*
X0585010Y0078567D01*
X0588590Y0078567D01*
X0591800Y0079896D01*
X0595010Y0078567D01*
X0598590Y0078567D01*
X0601898Y0079937D01*
X0604430Y0082469D01*
X0605800Y0085776D01*
X0605800Y0094557D01*
X0604430Y0097865D01*
X0601898Y0100396D01*
X0598590Y0101767D01*
X0595010Y0101767D01*
X0591800Y0100437D01*
X0588590Y0101767D01*
X0585010Y0101767D01*
X0588809Y0101676D02*
X0594791Y0101676D01*
X0598809Y0101676D02*
X0614791Y0101676D01*
X0615010Y0101767D02*
X0611702Y0100396D01*
X0609170Y0097865D01*
X0607800Y0094557D01*
X0607800Y0085776D01*
X0609170Y0082469D01*
X0611702Y0079937D01*
X0615010Y0078567D01*
X0618590Y0078567D01*
X0621898Y0079937D01*
X0624430Y0082469D01*
X0625800Y0085776D01*
X0625800Y0094557D01*
X0624430Y0097865D01*
X0621898Y0100396D01*
X0618590Y0101767D01*
X0615010Y0101767D01*
X0618809Y0101676D02*
X0730400Y0101676D01*
X0730400Y0100077D02*
X0622217Y0100077D01*
X0623816Y0098479D02*
X0730400Y0098479D01*
X0730400Y0096880D02*
X0624838Y0096880D01*
X0625500Y0095282D02*
X0730400Y0095282D01*
X0730400Y0093683D02*
X0625800Y0093683D01*
X0625800Y0092085D02*
X0730400Y0092085D01*
X0730400Y0090486D02*
X0625800Y0090486D01*
X0625800Y0088888D02*
X0730400Y0088888D01*
X0730400Y0087289D02*
X0625800Y0087289D01*
X0625764Y0085691D02*
X0730400Y0085691D01*
X0730400Y0084092D02*
X0625102Y0084092D01*
X0624440Y0082494D02*
X0730400Y0082494D01*
X0730400Y0080895D02*
X0622856Y0080895D01*
X0620353Y0079297D02*
X0730400Y0079297D01*
X0730400Y0077698D02*
X0400525Y0077698D01*
X0400430Y0077469D02*
X0401800Y0080776D01*
X0401800Y0089557D01*
X0400430Y0092865D01*
X0397898Y0095396D01*
X0394590Y0096767D01*
X0391010Y0096767D01*
X0387702Y0095396D01*
X0385170Y0092865D01*
X0383800Y0089557D01*
X0383800Y0080776D01*
X0385170Y0077469D01*
X0387702Y0074937D01*
X0391010Y0073567D01*
X0394590Y0073567D01*
X0397898Y0074937D01*
X0400430Y0077469D01*
X0399061Y0076100D02*
X0730400Y0076100D01*
X0730400Y0074501D02*
X0396846Y0074501D01*
X0401187Y0079297D02*
X0583247Y0079297D01*
X0580744Y0080895D02*
X0504400Y0080895D01*
X0502778Y0080223D02*
X0506432Y0081737D01*
X0509230Y0084534D01*
X0510743Y0088189D01*
X0510743Y0092145D01*
X0509230Y0095799D01*
X0506432Y0098596D01*
X0502778Y0100110D01*
X0498822Y0100110D01*
X0495168Y0098596D01*
X0492370Y0095799D01*
X0490857Y0092145D01*
X0490857Y0088189D01*
X0492370Y0084534D01*
X0495168Y0081737D01*
X0498822Y0080223D01*
X0502778Y0080223D01*
X0507189Y0082494D02*
X0579160Y0082494D01*
X0578498Y0084092D02*
X0508788Y0084092D01*
X0509709Y0085691D02*
X0577835Y0085691D01*
X0577800Y0087289D02*
X0510371Y0087289D01*
X0510743Y0088888D02*
X0577800Y0088888D01*
X0577800Y0090486D02*
X0510743Y0090486D01*
X0510743Y0092085D02*
X0577800Y0092085D01*
X0577800Y0093683D02*
X0510106Y0093683D01*
X0509444Y0095282D02*
X0578100Y0095282D01*
X0578762Y0096880D02*
X0508148Y0096880D01*
X0506550Y0098479D02*
X0579784Y0098479D01*
X0581383Y0100077D02*
X0502857Y0100077D01*
X0498743Y0100077D02*
X0462857Y0100077D01*
X0462778Y0100110D02*
X0458822Y0100110D01*
X0455168Y0098596D01*
X0452370Y0095799D01*
X0450857Y0092145D01*
X0450857Y0088189D01*
X0452370Y0084534D01*
X0455168Y0081737D01*
X0458822Y0080223D01*
X0462778Y0080223D01*
X0466432Y0081737D01*
X0469230Y0084534D01*
X0470743Y0088189D01*
X0470743Y0092145D01*
X0469230Y0095799D01*
X0466432Y0098596D01*
X0462778Y0100110D01*
X0458743Y0100077D02*
X0432857Y0100077D01*
X0432778Y0100110D02*
X0428822Y0100110D01*
X0425168Y0098596D01*
X0422370Y0095799D01*
X0420857Y0092145D01*
X0420857Y0088189D01*
X0422370Y0084534D01*
X0425168Y0081737D01*
X0428822Y0080223D01*
X0432778Y0080223D01*
X0436432Y0081737D01*
X0439230Y0084534D01*
X0440743Y0088189D01*
X0440743Y0092145D01*
X0439230Y0095799D01*
X0436432Y0098596D01*
X0432778Y0100110D01*
X0428743Y0100077D02*
X0316200Y0100077D01*
X0316200Y0098479D02*
X0425050Y0098479D01*
X0423452Y0096880D02*
X0316200Y0096880D01*
X0316200Y0095282D02*
X0387587Y0095282D01*
X0385989Y0093683D02*
X0316200Y0093683D01*
X0316200Y0092085D02*
X0384847Y0092085D01*
X0384185Y0090486D02*
X0316200Y0090486D01*
X0316200Y0088888D02*
X0383800Y0088888D01*
X0383800Y0087289D02*
X0316200Y0087289D01*
X0316200Y0085691D02*
X0383800Y0085691D01*
X0383800Y0084092D02*
X0316200Y0084092D01*
X0316200Y0082494D02*
X0383800Y0082494D01*
X0383800Y0080895D02*
X0316200Y0080895D01*
X0316200Y0079297D02*
X0384413Y0079297D01*
X0385075Y0077698D02*
X0316200Y0077698D01*
X0316200Y0076100D02*
X0386539Y0076100D01*
X0388754Y0074501D02*
X0316200Y0074501D01*
X0316200Y0072903D02*
X0730400Y0072903D01*
X0730400Y0071304D02*
X0316200Y0071304D01*
X0316200Y0069706D02*
X0730400Y0069706D01*
X0730400Y0068107D02*
X0316200Y0068107D01*
X0316200Y0066509D02*
X0730400Y0066509D01*
X0730400Y0064910D02*
X0316200Y0064910D01*
X0316200Y0063312D02*
X0730400Y0063312D01*
X0730400Y0061713D02*
X0316200Y0061713D01*
X0316200Y0060115D02*
X0730400Y0060115D01*
X0730400Y0058516D02*
X0316200Y0058516D01*
X0316200Y0056918D02*
X0730400Y0056918D01*
X0730400Y0055319D02*
X0316200Y0055319D01*
X0316200Y0053721D02*
X0730400Y0053721D01*
X0730400Y0052122D02*
X0316200Y0052122D01*
X0316200Y0050523D02*
X0383234Y0050523D01*
X0383372Y0050603D02*
X0380768Y0049100D01*
X0378642Y0046974D01*
X0377139Y0044370D01*
X0376361Y0041465D01*
X0376361Y0038458D01*
X0377139Y0035554D01*
X0378642Y0032950D01*
X0380768Y0030824D01*
X0383372Y0029320D01*
X0386277Y0028542D01*
X0399323Y0028542D01*
X0402228Y0029320D01*
X0404832Y0030824D01*
X0406958Y0032950D01*
X0408461Y0035554D01*
X0409239Y0038458D01*
X0409239Y0041465D01*
X0408461Y0044370D01*
X0406958Y0046974D01*
X0404832Y0049100D01*
X0402228Y0050603D01*
X0399323Y0051382D01*
X0386277Y0051382D01*
X0383372Y0050603D01*
X0380593Y0048925D02*
X0316200Y0048925D01*
X0316200Y0047326D02*
X0378995Y0047326D01*
X0377923Y0045728D02*
X0316200Y0045728D01*
X0316200Y0044129D02*
X0377074Y0044129D01*
X0376646Y0042531D02*
X0316200Y0042531D01*
X0316200Y0040932D02*
X0322161Y0040932D01*
X0319392Y0039334D02*
X0316200Y0039334D01*
X0316200Y0037735D02*
X0317747Y0037735D01*
X0316380Y0036137D02*
X0316200Y0036137D01*
X0316200Y0020152D02*
X0316406Y0020152D01*
X0316200Y0018553D02*
X0317791Y0018553D01*
X0316200Y0016955D02*
X0319470Y0016955D01*
X0322238Y0015356D02*
X0316200Y0015356D01*
X0316200Y0013758D02*
X0730400Y0013758D01*
X0730400Y0015356D02*
X0713868Y0015356D01*
X0713627Y0015292D02*
X0717156Y0016237D01*
X0720319Y0018064D01*
X0722903Y0020647D01*
X0724729Y0023811D01*
X0725675Y0027340D01*
X0725675Y0030993D01*
X0724729Y0034522D01*
X0722903Y0037686D01*
X0720319Y0040269D01*
X0717156Y0042096D01*
X0713627Y0043042D01*
X0709973Y0043042D01*
X0706444Y0042096D01*
X0703281Y0040269D01*
X0700697Y0037686D01*
X0698871Y0034522D01*
X0697925Y0030993D01*
X0697925Y0027340D01*
X0698871Y0023811D01*
X0700697Y0020647D01*
X0703281Y0018064D01*
X0706444Y0016237D01*
X0709973Y0015292D01*
X0713627Y0015292D01*
X0709732Y0015356D02*
X0333362Y0015356D01*
X0336130Y0016955D02*
X0705202Y0016955D01*
X0702791Y0018553D02*
X0337809Y0018553D01*
X0339194Y0020152D02*
X0701193Y0020152D01*
X0700060Y0021750D02*
X0340117Y0021750D01*
X0340873Y0023349D02*
X0699137Y0023349D01*
X0698566Y0024947D02*
X0341302Y0024947D01*
X0341675Y0026546D02*
X0593489Y0026546D01*
X0592882Y0026708D02*
X0595464Y0026017D01*
X0598136Y0026017D01*
X0600718Y0026708D01*
X0603032Y0028045D01*
X0604922Y0029934D01*
X0606258Y0032249D01*
X0606950Y0034830D01*
X0606950Y0037503D01*
X0606258Y0040084D01*
X0604922Y0042399D01*
X0603032Y0044289D01*
X0600718Y0045625D01*
X0598136Y0046317D01*
X0595464Y0046317D01*
X0592882Y0045625D01*
X0590568Y0044289D01*
X0588678Y0042399D01*
X0587342Y0040084D01*
X0586650Y0037503D01*
X0586650Y0034830D01*
X0587342Y0032249D01*
X0588678Y0029934D01*
X0590568Y0028045D01*
X0592882Y0026708D01*
X0590468Y0028144D02*
X0341675Y0028144D01*
X0341675Y0029743D02*
X0382641Y0029743D01*
X0380251Y0031341D02*
X0341314Y0031341D01*
X0340885Y0032940D02*
X0378652Y0032940D01*
X0377725Y0034538D02*
X0340143Y0034538D01*
X0339220Y0036137D02*
X0376983Y0036137D01*
X0376554Y0037735D02*
X0337853Y0037735D01*
X0336208Y0039334D02*
X0376361Y0039334D01*
X0376361Y0040932D02*
X0333439Y0040932D01*
X0316200Y0012159D02*
X0730400Y0012159D01*
X0730400Y0016955D02*
X0718398Y0016955D01*
X0720809Y0018553D02*
X0730400Y0018553D01*
X0730400Y0020152D02*
X0722407Y0020152D01*
X0723540Y0021750D02*
X0730400Y0021750D01*
X0730400Y0023349D02*
X0724463Y0023349D01*
X0725034Y0024947D02*
X0730400Y0024947D01*
X0730400Y0026546D02*
X0725462Y0026546D01*
X0725675Y0028144D02*
X0730400Y0028144D01*
X0730400Y0029743D02*
X0725675Y0029743D01*
X0725582Y0031341D02*
X0730400Y0031341D01*
X0730400Y0032940D02*
X0725153Y0032940D01*
X0724720Y0034538D02*
X0730400Y0034538D01*
X0730400Y0036137D02*
X0723797Y0036137D01*
X0722853Y0037735D02*
X0730400Y0037735D01*
X0730400Y0039334D02*
X0721255Y0039334D01*
X0719171Y0040932D02*
X0730400Y0040932D01*
X0730400Y0042531D02*
X0715533Y0042531D01*
X0708067Y0042531D02*
X0604790Y0042531D01*
X0605769Y0040932D02*
X0704429Y0040932D01*
X0702345Y0039334D02*
X0606459Y0039334D01*
X0606888Y0037735D02*
X0700747Y0037735D01*
X0699803Y0036137D02*
X0606950Y0036137D01*
X0606872Y0034538D02*
X0698880Y0034538D01*
X0698447Y0032940D02*
X0606443Y0032940D01*
X0605734Y0031341D02*
X0698018Y0031341D01*
X0697925Y0029743D02*
X0604730Y0029743D01*
X0603132Y0028144D02*
X0697925Y0028144D01*
X0698138Y0026546D02*
X0600111Y0026546D01*
X0588870Y0029743D02*
X0402959Y0029743D01*
X0405349Y0031341D02*
X0587866Y0031341D01*
X0587157Y0032940D02*
X0406947Y0032940D01*
X0407875Y0034538D02*
X0586728Y0034538D01*
X0586650Y0036137D02*
X0408617Y0036137D01*
X0409046Y0037735D02*
X0586712Y0037735D01*
X0587141Y0039334D02*
X0409239Y0039334D01*
X0409239Y0040932D02*
X0587831Y0040932D01*
X0588810Y0042531D02*
X0408954Y0042531D01*
X0408526Y0044129D02*
X0590409Y0044129D01*
X0593267Y0045728D02*
X0407677Y0045728D01*
X0406605Y0047326D02*
X0730400Y0047326D01*
X0730400Y0045728D02*
X0600333Y0045728D01*
X0603191Y0044129D02*
X0730400Y0044129D01*
X0730400Y0048925D02*
X0405007Y0048925D01*
X0402366Y0050523D02*
X0730400Y0050523D01*
X0613247Y0079297D02*
X0600353Y0079297D01*
X0602856Y0080895D02*
X0610744Y0080895D01*
X0609160Y0082494D02*
X0604440Y0082494D01*
X0605102Y0084092D02*
X0608498Y0084092D01*
X0607835Y0085691D02*
X0605764Y0085691D01*
X0605800Y0087289D02*
X0607800Y0087289D01*
X0607800Y0088888D02*
X0605800Y0088888D01*
X0605800Y0090486D02*
X0607800Y0090486D01*
X0607800Y0092085D02*
X0605800Y0092085D01*
X0605800Y0093683D02*
X0607800Y0093683D01*
X0608100Y0095282D02*
X0605500Y0095282D01*
X0604838Y0096880D02*
X0608762Y0096880D01*
X0609784Y0098479D02*
X0603816Y0098479D01*
X0602217Y0100077D02*
X0611383Y0100077D01*
X0611250Y0109668D02*
X0612350Y0109668D01*
X0602350Y0109668D02*
X0601250Y0109668D01*
X0592350Y0109668D02*
X0591250Y0109668D01*
X0591771Y0130449D02*
X0591829Y0130449D01*
X0601771Y0130449D02*
X0601829Y0130449D01*
X0611771Y0130449D02*
X0611829Y0130449D01*
X0593247Y0079297D02*
X0590353Y0079297D01*
X0497200Y0080895D02*
X0464400Y0080895D01*
X0467189Y0082494D02*
X0494411Y0082494D01*
X0492812Y0084092D02*
X0468788Y0084092D01*
X0469709Y0085691D02*
X0491891Y0085691D01*
X0491229Y0087289D02*
X0470371Y0087289D01*
X0470743Y0088888D02*
X0490857Y0088888D01*
X0490857Y0090486D02*
X0470743Y0090486D01*
X0470743Y0092085D02*
X0490857Y0092085D01*
X0491494Y0093683D02*
X0470106Y0093683D01*
X0469444Y0095282D02*
X0492156Y0095282D01*
X0493452Y0096880D02*
X0468148Y0096880D01*
X0466550Y0098479D02*
X0495050Y0098479D01*
X0496303Y0111267D02*
X0465297Y0111267D01*
X0466432Y0111737D02*
X0462778Y0110223D01*
X0458822Y0110223D01*
X0455168Y0111737D01*
X0452370Y0114534D01*
X0450857Y0118189D01*
X0450857Y0122145D01*
X0452370Y0125799D01*
X0455168Y0128596D01*
X0458822Y0130110D01*
X0462778Y0130110D01*
X0466432Y0128596D01*
X0469230Y0125799D01*
X0470743Y0122145D01*
X0470743Y0118189D01*
X0469230Y0114534D01*
X0466432Y0111737D01*
X0467561Y0112865D02*
X0494039Y0112865D01*
X0492441Y0114464D02*
X0469159Y0114464D01*
X0469863Y0116062D02*
X0491737Y0116062D01*
X0491075Y0117661D02*
X0470525Y0117661D01*
X0470743Y0119259D02*
X0490857Y0119259D01*
X0490857Y0120858D02*
X0470743Y0120858D01*
X0470614Y0122456D02*
X0490986Y0122456D01*
X0491648Y0124055D02*
X0469952Y0124055D01*
X0469290Y0125654D02*
X0492310Y0125654D01*
X0493823Y0127252D02*
X0467777Y0127252D01*
X0465818Y0128851D02*
X0495782Y0128851D01*
X0455782Y0128851D02*
X0435818Y0128851D01*
X0436432Y0128596D02*
X0432778Y0130110D01*
X0428822Y0130110D01*
X0425168Y0128596D01*
X0422370Y0125799D01*
X0420857Y0122145D01*
X0420857Y0118189D01*
X0422370Y0114534D01*
X0425168Y0111737D01*
X0428822Y0110223D01*
X0432778Y0110223D01*
X0436432Y0111737D01*
X0439230Y0114534D01*
X0440743Y0118189D01*
X0440743Y0122145D01*
X0439230Y0125799D01*
X0436432Y0128596D01*
X0437777Y0127252D02*
X0453823Y0127252D01*
X0452310Y0125654D02*
X0439290Y0125654D01*
X0439952Y0124055D02*
X0451648Y0124055D01*
X0450986Y0122456D02*
X0440614Y0122456D01*
X0440743Y0120858D02*
X0450857Y0120858D01*
X0450857Y0119259D02*
X0440743Y0119259D01*
X0440525Y0117661D02*
X0451075Y0117661D01*
X0451737Y0116062D02*
X0439863Y0116062D01*
X0439159Y0114464D02*
X0452441Y0114464D01*
X0454039Y0112865D02*
X0437561Y0112865D01*
X0435297Y0111267D02*
X0456303Y0111267D01*
X0455050Y0098479D02*
X0436550Y0098479D01*
X0438148Y0096880D02*
X0453452Y0096880D01*
X0452156Y0095282D02*
X0439444Y0095282D01*
X0440106Y0093683D02*
X0451494Y0093683D01*
X0450857Y0092085D02*
X0440743Y0092085D01*
X0440743Y0090486D02*
X0450857Y0090486D01*
X0450857Y0088888D02*
X0440743Y0088888D01*
X0440371Y0087289D02*
X0451229Y0087289D01*
X0451891Y0085691D02*
X0439709Y0085691D01*
X0438788Y0084092D02*
X0452812Y0084092D01*
X0454411Y0082494D02*
X0437189Y0082494D01*
X0434400Y0080895D02*
X0457200Y0080895D01*
X0427200Y0080895D02*
X0401800Y0080895D01*
X0401800Y0082494D02*
X0424411Y0082494D01*
X0422812Y0084092D02*
X0401800Y0084092D01*
X0401800Y0085691D02*
X0421891Y0085691D01*
X0421229Y0087289D02*
X0401800Y0087289D01*
X0401800Y0088888D02*
X0420857Y0088888D01*
X0420857Y0090486D02*
X0401415Y0090486D01*
X0400753Y0092085D02*
X0420857Y0092085D01*
X0421494Y0093683D02*
X0399611Y0093683D01*
X0398013Y0095282D02*
X0422156Y0095282D01*
X0426303Y0111267D02*
X0316200Y0111267D01*
X0316200Y0112865D02*
X0424039Y0112865D01*
X0422441Y0114464D02*
X0396756Y0114464D01*
X0399024Y0116062D02*
X0421737Y0116062D01*
X0421075Y0117661D02*
X0400510Y0117661D01*
X0401172Y0119259D02*
X0420857Y0119259D01*
X0420857Y0120858D02*
X0401800Y0120858D01*
X0401800Y0122456D02*
X0420986Y0122456D01*
X0421648Y0124055D02*
X0401800Y0124055D01*
X0401800Y0125654D02*
X0422310Y0125654D01*
X0423823Y0127252D02*
X0401800Y0127252D01*
X0401800Y0128851D02*
X0425782Y0128851D01*
X0387550Y0135245D02*
X0316200Y0135245D01*
X0316200Y0133646D02*
X0385952Y0133646D01*
X0384832Y0132048D02*
X0316200Y0132048D01*
X0316200Y0130449D02*
X0384170Y0130449D01*
X0383800Y0128851D02*
X0316200Y0128851D01*
X0316200Y0127252D02*
X0383800Y0127252D01*
X0383800Y0125654D02*
X0316200Y0125654D01*
X0316200Y0124055D02*
X0383800Y0124055D01*
X0383800Y0122456D02*
X0316200Y0122456D01*
X0316200Y0120858D02*
X0383800Y0120858D01*
X0384428Y0119259D02*
X0316200Y0119259D01*
X0316200Y0117661D02*
X0385090Y0117661D01*
X0386576Y0116062D02*
X0316200Y0116062D01*
X0316200Y0114464D02*
X0388844Y0114464D01*
X0471667Y0191192D02*
X0496046Y0191192D01*
X0494448Y0192791D02*
X0473752Y0192791D01*
X0475163Y0194390D02*
X0492849Y0194390D01*
X0491800Y0195988D02*
X0475825Y0195988D01*
X0476400Y0197587D02*
X0491800Y0197587D01*
X0491800Y0199185D02*
X0476400Y0199185D01*
X0476400Y0200784D02*
X0491800Y0200784D01*
X0491800Y0202382D02*
X0475810Y0202382D01*
X0453790Y0202382D02*
X0443343Y0202382D01*
X0440680Y0200784D02*
X0453200Y0200784D01*
X0453200Y0199185D02*
X0316200Y0199185D01*
X0316200Y0197587D02*
X0453200Y0197587D01*
X0428920Y0200784D02*
X0316200Y0200784D01*
X0291800Y0200784D02*
X0230602Y0200784D01*
X0232011Y0201367D02*
X0234599Y0203955D01*
X0236000Y0207337D01*
X0236000Y0275997D01*
X0234599Y0279378D01*
X0229599Y0284378D01*
X0227430Y0286548D01*
X0229742Y0288860D01*
X0231168Y0292303D01*
X0231168Y0294798D01*
X0232431Y0294798D01*
X0232431Y0292303D01*
X0233858Y0288860D01*
X0236493Y0286224D01*
X0239936Y0284798D01*
X0243664Y0284798D01*
X0246800Y0286097D01*
X0249936Y0284798D01*
X0253664Y0284798D01*
X0257107Y0286224D01*
X0259742Y0288860D01*
X0261168Y0292303D01*
X0261168Y0296030D01*
X0259869Y0299167D01*
X0261168Y0302303D01*
X0261168Y0306030D01*
X0259742Y0309473D01*
X0257107Y0312109D01*
X0253664Y0313535D01*
X0249936Y0313535D01*
X0246800Y0312236D01*
X0243664Y0313535D01*
X0239936Y0313535D01*
X0236800Y0312236D01*
X0233664Y0313535D01*
X0231000Y0313535D01*
X0231000Y0325167D01*
X0235528Y0325167D01*
X0240800Y0330439D01*
X0240800Y0337895D01*
X0235528Y0343167D01*
X0231000Y0343167D01*
X0231000Y0374967D01*
X0233590Y0374967D01*
X0236898Y0376337D01*
X0239430Y0378869D01*
X0240800Y0382176D01*
X0240800Y0390957D01*
X0239430Y0394265D01*
X0236898Y0396796D01*
X0233590Y0398167D01*
X0230010Y0398167D01*
X0227041Y0396937D01*
X0227011Y0396966D01*
X0223630Y0398367D01*
X0219970Y0398367D01*
X0216589Y0396966D01*
X0216559Y0396937D01*
X0213590Y0398167D01*
X0210010Y0398167D01*
X0207041Y0396937D01*
X0207011Y0396966D01*
X0203630Y0398367D01*
X0199970Y0398367D01*
X0196589Y0396966D01*
X0196559Y0396937D01*
X0193590Y0398167D01*
X0190010Y0398167D01*
X0187041Y0396937D01*
X0187011Y0396966D01*
X0183630Y0398367D01*
X0179970Y0398367D01*
X0176589Y0396966D01*
X0176559Y0396937D01*
X0173590Y0398167D01*
X0170010Y0398167D01*
X0167041Y0396937D01*
X0167011Y0396966D01*
X0163630Y0398367D01*
X0159970Y0398367D01*
X0156589Y0396966D01*
X0154001Y0394378D01*
X0152600Y0390997D01*
X0152600Y0352337D01*
X0154001Y0348955D01*
X0156589Y0346367D01*
X0163931Y0339025D01*
X0162800Y0337895D01*
X0162800Y0330439D01*
X0168072Y0325167D01*
X0172600Y0325167D01*
X0172600Y0313535D01*
X0169936Y0313535D01*
X0166800Y0312236D01*
X0163664Y0313535D01*
X0159936Y0313535D01*
X0156800Y0312236D01*
X0153664Y0313535D01*
X0149936Y0313535D01*
X0146800Y0312236D01*
X0143664Y0313535D01*
X0139936Y0313535D01*
X0136493Y0312109D01*
X0133858Y0309473D01*
X0132431Y0306030D01*
X0132431Y0303535D01*
X0131168Y0303535D01*
X0131168Y0306030D01*
X0129742Y0309473D01*
X0127107Y0312109D01*
X0123664Y0313535D01*
X0119936Y0313535D01*
X0116800Y0312236D01*
X0113664Y0313535D01*
X0109936Y0313535D01*
X0106800Y0312236D01*
X0103664Y0313535D01*
X0099936Y0313535D01*
X0096800Y0312236D01*
X0093664Y0313535D01*
X0089936Y0313535D01*
X0086800Y0312236D01*
X0083664Y0313535D01*
X0079936Y0313535D01*
X0076800Y0312236D01*
X0073664Y0313535D01*
X0069936Y0313535D01*
X0066493Y0312109D01*
X0063858Y0309473D01*
X0062431Y0306030D01*
X0062431Y0303535D01*
X0059936Y0303535D01*
X0056493Y0302109D01*
X0053858Y0299473D01*
X0052431Y0296030D01*
X0052431Y0292303D01*
X0053858Y0288860D01*
X0056493Y0286224D01*
X0059936Y0284798D01*
X0063664Y0284798D01*
X0066800Y0286097D01*
X0069936Y0284798D01*
X0073664Y0284798D01*
X0076800Y0286097D01*
X0079936Y0284798D01*
X0083664Y0284798D01*
X0087107Y0286224D01*
X0089742Y0288860D01*
X0091168Y0292303D01*
X0091168Y0294798D01*
X0092431Y0294798D01*
X0092431Y0292303D01*
X0093858Y0288860D01*
X0096493Y0286224D01*
X0099936Y0284798D01*
X0103664Y0284798D01*
X0107107Y0286224D01*
X0109742Y0288860D01*
X0111168Y0292303D01*
X0111168Y0294798D01*
X0112431Y0294798D01*
X0112431Y0292303D01*
X0113858Y0288860D01*
X0116493Y0286224D01*
X0119936Y0284798D01*
X0123664Y0284798D01*
X0126800Y0286097D01*
X0129936Y0284798D01*
X0133664Y0284798D01*
X0136800Y0286097D01*
X0139936Y0284798D01*
X0142600Y0284798D01*
X0142600Y0282977D01*
X0139001Y0279378D01*
X0137600Y0275997D01*
X0137600Y0257337D01*
X0139001Y0253955D01*
X0141589Y0251367D01*
X0157600Y0235356D01*
X0157600Y0223367D01*
X0155010Y0223367D01*
X0151702Y0221996D01*
X0149170Y0219465D01*
X0147800Y0216157D01*
X0147800Y0207376D01*
X0149170Y0204069D01*
X0151702Y0201537D01*
X0155010Y0200167D01*
X0158590Y0200167D01*
X0161559Y0201397D01*
X0161589Y0201367D01*
X0164970Y0199967D01*
X0168630Y0199967D01*
X0172011Y0201367D01*
X0172041Y0201397D01*
X0175010Y0200167D01*
X0178590Y0200167D01*
X0181559Y0201397D01*
X0181589Y0201367D01*
X0184970Y0199967D01*
X0188630Y0199967D01*
X0192011Y0201367D01*
X0192041Y0201397D01*
X0195010Y0200167D01*
X0198590Y0200167D01*
X0201559Y0201397D01*
X0201589Y0201367D01*
X0204970Y0199967D01*
X0208630Y0199967D01*
X0212011Y0201367D01*
X0212041Y0201397D01*
X0215010Y0200167D01*
X0218590Y0200167D01*
X0221559Y0201397D01*
X0221589Y0201367D01*
X0224970Y0199967D01*
X0228630Y0199967D01*
X0232011Y0201367D01*
X0233026Y0202382D02*
X0291800Y0202382D01*
X0291800Y0203981D02*
X0234610Y0203981D01*
X0235272Y0205579D02*
X0291800Y0205579D01*
X0291800Y0207178D02*
X0235934Y0207178D01*
X0236000Y0208776D02*
X0291800Y0208776D01*
X0291800Y0210375D02*
X0236000Y0210375D01*
X0236000Y0211973D02*
X0291800Y0211973D01*
X0291800Y0213572D02*
X0236000Y0213572D01*
X0236000Y0215170D02*
X0291800Y0215170D01*
X0291800Y0216769D02*
X0236000Y0216769D01*
X0236000Y0218367D02*
X0291800Y0218367D01*
X0291800Y0219966D02*
X0236000Y0219966D01*
X0236000Y0221564D02*
X0291800Y0221564D01*
X0291800Y0223163D02*
X0236000Y0223163D01*
X0236000Y0224761D02*
X0291800Y0224761D01*
X0291800Y0226360D02*
X0236000Y0226360D01*
X0236000Y0227958D02*
X0291800Y0227958D01*
X0291800Y0229557D02*
X0236000Y0229557D01*
X0236000Y0231155D02*
X0291800Y0231155D01*
X0291800Y0232754D02*
X0236000Y0232754D01*
X0236000Y0234352D02*
X0291800Y0234352D01*
X0291800Y0235951D02*
X0236000Y0235951D01*
X0236000Y0237549D02*
X0291800Y0237549D01*
X0291800Y0239148D02*
X0236000Y0239148D01*
X0236000Y0240746D02*
X0291800Y0240746D01*
X0291800Y0242345D02*
X0236000Y0242345D01*
X0236000Y0243943D02*
X0291800Y0243943D01*
X0291800Y0245542D02*
X0236000Y0245542D01*
X0236000Y0247140D02*
X0291800Y0247140D01*
X0291800Y0248739D02*
X0236000Y0248739D01*
X0236000Y0250337D02*
X0291800Y0250337D01*
X0291800Y0251936D02*
X0236000Y0251936D01*
X0236000Y0253534D02*
X0291800Y0253534D01*
X0291800Y0255133D02*
X0236000Y0255133D01*
X0236000Y0256731D02*
X0291800Y0256731D01*
X0291800Y0258330D02*
X0236000Y0258330D01*
X0236000Y0259928D02*
X0291800Y0259928D01*
X0291800Y0261527D02*
X0236000Y0261527D01*
X0236000Y0263125D02*
X0291800Y0263125D01*
X0291800Y0264724D02*
X0236000Y0264724D01*
X0236000Y0266323D02*
X0291800Y0266323D01*
X0291800Y0267921D02*
X0236000Y0267921D01*
X0236000Y0269520D02*
X0291800Y0269520D01*
X0291800Y0271118D02*
X0236000Y0271118D01*
X0236000Y0272717D02*
X0291800Y0272717D01*
X0291800Y0274315D02*
X0236000Y0274315D01*
X0236000Y0275914D02*
X0291800Y0275914D01*
X0291800Y0277512D02*
X0235372Y0277512D01*
X0234710Y0279111D02*
X0291800Y0279111D01*
X0291800Y0280709D02*
X0233268Y0280709D01*
X0231670Y0282308D02*
X0291800Y0282308D01*
X0291800Y0283906D02*
X0230071Y0283906D01*
X0228473Y0285505D02*
X0238231Y0285505D01*
X0235614Y0287103D02*
X0227986Y0287103D01*
X0229584Y0288702D02*
X0234016Y0288702D01*
X0233261Y0290300D02*
X0230339Y0290300D01*
X0231001Y0291899D02*
X0232599Y0291899D01*
X0232431Y0293497D02*
X0231168Y0293497D01*
X0245369Y0285505D02*
X0248231Y0285505D01*
X0255369Y0285505D02*
X0291800Y0285505D01*
X0291800Y0287103D02*
X0257986Y0287103D01*
X0259584Y0288702D02*
X0291800Y0288702D01*
X0291800Y0290300D02*
X0260339Y0290300D01*
X0261001Y0291899D02*
X0291800Y0291899D01*
X0291800Y0293497D02*
X0261168Y0293497D01*
X0261168Y0295096D02*
X0291800Y0295096D01*
X0291800Y0296694D02*
X0260893Y0296694D01*
X0260231Y0298293D02*
X0291800Y0298293D01*
X0291800Y0299891D02*
X0260169Y0299891D01*
X0260832Y0301490D02*
X0291800Y0301490D01*
X0291800Y0303088D02*
X0261168Y0303088D01*
X0261168Y0304687D02*
X0291800Y0304687D01*
X0291800Y0306285D02*
X0261063Y0306285D01*
X0260401Y0307884D02*
X0291800Y0307884D01*
X0291800Y0309482D02*
X0259733Y0309482D01*
X0258135Y0311081D02*
X0291800Y0311081D01*
X0291800Y0312679D02*
X0255730Y0312679D01*
X0247870Y0312679D02*
X0245730Y0312679D01*
X0237870Y0312679D02*
X0235730Y0312679D01*
X0231000Y0314278D02*
X0291800Y0314278D01*
X0291800Y0315876D02*
X0231000Y0315876D01*
X0231000Y0317475D02*
X0291800Y0317475D01*
X0291800Y0319073D02*
X0231000Y0319073D01*
X0231000Y0320672D02*
X0291800Y0320672D01*
X0291800Y0322270D02*
X0231000Y0322270D01*
X0231000Y0323869D02*
X0291800Y0323869D01*
X0291800Y0325467D02*
X0235829Y0325467D01*
X0237427Y0327066D02*
X0291800Y0327066D01*
X0291800Y0328664D02*
X0239026Y0328664D01*
X0240624Y0330263D02*
X0291800Y0330263D01*
X0291800Y0331861D02*
X0240800Y0331861D01*
X0240800Y0333460D02*
X0291800Y0333460D01*
X0291800Y0335059D02*
X0240800Y0335059D01*
X0240800Y0336657D02*
X0291800Y0336657D01*
X0291800Y0338256D02*
X0240439Y0338256D01*
X0238841Y0339854D02*
X0291800Y0339854D01*
X0291800Y0341453D02*
X0237242Y0341453D01*
X0235644Y0343051D02*
X0291800Y0343051D01*
X0291800Y0344650D02*
X0231000Y0344650D01*
X0231000Y0346248D02*
X0291800Y0346248D01*
X0291800Y0347847D02*
X0231000Y0347847D01*
X0231000Y0349445D02*
X0291800Y0349445D01*
X0291800Y0351044D02*
X0231000Y0351044D01*
X0231000Y0352642D02*
X0291800Y0352642D01*
X0291800Y0354241D02*
X0231000Y0354241D01*
X0231000Y0355839D02*
X0291800Y0355839D01*
X0291800Y0357438D02*
X0231000Y0357438D01*
X0231000Y0359036D02*
X0291800Y0359036D01*
X0291800Y0360635D02*
X0231000Y0360635D01*
X0231000Y0362233D02*
X0291800Y0362233D01*
X0291800Y0363832D02*
X0231000Y0363832D01*
X0231000Y0365430D02*
X0291800Y0365430D01*
X0291800Y0367029D02*
X0231000Y0367029D01*
X0231000Y0368627D02*
X0291800Y0368627D01*
X0291800Y0370226D02*
X0231000Y0370226D01*
X0231000Y0371824D02*
X0291800Y0371824D01*
X0291800Y0373423D02*
X0231000Y0373423D01*
X0233722Y0375021D02*
X0291800Y0375021D01*
X0291800Y0376620D02*
X0237181Y0376620D01*
X0238780Y0378218D02*
X0291800Y0378218D01*
X0291800Y0379817D02*
X0239823Y0379817D01*
X0240485Y0381415D02*
X0291800Y0381415D01*
X0291800Y0383014D02*
X0240800Y0383014D01*
X0240800Y0384612D02*
X0291800Y0384612D01*
X0291800Y0386211D02*
X0240800Y0386211D01*
X0240800Y0387809D02*
X0291800Y0387809D01*
X0291800Y0389408D02*
X0240800Y0389408D01*
X0240779Y0391006D02*
X0291800Y0391006D01*
X0291800Y0392605D02*
X0240117Y0392605D01*
X0239455Y0394203D02*
X0291800Y0394203D01*
X0291800Y0395802D02*
X0237893Y0395802D01*
X0235440Y0397400D02*
X0291800Y0397400D01*
X0291800Y0398999D02*
X0036800Y0398999D01*
X0036800Y0399467D02*
X0223729Y0399467D01*
X0227295Y0400943D01*
X0230023Y0403672D01*
X0230228Y0404167D01*
X0291800Y0404167D01*
X0291800Y0194167D01*
X0235228Y0194167D01*
X0235023Y0194661D01*
X0232295Y0197390D01*
X0228729Y0198867D01*
X0036800Y0198867D01*
X0036800Y0399467D01*
X0036800Y0397400D02*
X0157637Y0397400D01*
X0155425Y0395802D02*
X0036800Y0395802D01*
X0036800Y0394203D02*
X0153928Y0394203D01*
X0153266Y0392605D02*
X0036800Y0392605D01*
X0036800Y0391006D02*
X0152604Y0391006D01*
X0152600Y0389408D02*
X0036800Y0389408D01*
X0036800Y0387809D02*
X0152600Y0387809D01*
X0152600Y0386211D02*
X0036800Y0386211D01*
X0036800Y0384612D02*
X0152600Y0384612D01*
X0152600Y0383014D02*
X0036800Y0383014D01*
X0036800Y0381415D02*
X0152600Y0381415D01*
X0152600Y0379817D02*
X0036800Y0379817D01*
X0036800Y0378218D02*
X0152600Y0378218D01*
X0152600Y0376620D02*
X0036800Y0376620D01*
X0036800Y0375021D02*
X0152600Y0375021D01*
X0152600Y0373423D02*
X0036800Y0373423D01*
X0036800Y0371824D02*
X0152600Y0371824D01*
X0152600Y0370226D02*
X0036800Y0370226D01*
X0036800Y0368627D02*
X0152600Y0368627D01*
X0152600Y0367029D02*
X0036800Y0367029D01*
X0036800Y0365430D02*
X0152600Y0365430D01*
X0152600Y0363832D02*
X0036800Y0363832D01*
X0036800Y0362233D02*
X0152600Y0362233D01*
X0152600Y0360635D02*
X0036800Y0360635D01*
X0036800Y0359036D02*
X0152600Y0359036D01*
X0152600Y0357438D02*
X0036800Y0357438D01*
X0036800Y0355839D02*
X0152600Y0355839D01*
X0152600Y0354241D02*
X0036800Y0354241D01*
X0036800Y0352642D02*
X0152600Y0352642D01*
X0153136Y0351044D02*
X0036800Y0351044D01*
X0036800Y0349445D02*
X0153798Y0349445D01*
X0155109Y0347847D02*
X0036800Y0347847D01*
X0036800Y0346248D02*
X0156708Y0346248D01*
X0156589Y0346367D02*
X0156589Y0346367D01*
X0158306Y0344650D02*
X0036800Y0344650D01*
X0036800Y0343051D02*
X0159905Y0343051D01*
X0161503Y0341453D02*
X0036800Y0341453D01*
X0036800Y0339854D02*
X0163102Y0339854D01*
X0163161Y0338256D02*
X0036800Y0338256D01*
X0036800Y0336657D02*
X0162800Y0336657D01*
X0162800Y0335059D02*
X0036800Y0335059D01*
X0036800Y0333460D02*
X0162800Y0333460D01*
X0162800Y0331861D02*
X0036800Y0331861D01*
X0036800Y0330263D02*
X0162976Y0330263D01*
X0164574Y0328664D02*
X0036800Y0328664D01*
X0036800Y0327066D02*
X0166173Y0327066D01*
X0167771Y0325467D02*
X0036800Y0325467D01*
X0036800Y0323869D02*
X0172600Y0323869D01*
X0172600Y0322270D02*
X0036800Y0322270D01*
X0036800Y0320672D02*
X0172600Y0320672D01*
X0172600Y0319073D02*
X0036800Y0319073D01*
X0036800Y0317475D02*
X0172600Y0317475D01*
X0172600Y0315876D02*
X0036800Y0315876D01*
X0036800Y0314278D02*
X0172600Y0314278D01*
X0167870Y0312679D02*
X0165730Y0312679D01*
X0157870Y0312679D02*
X0155730Y0312679D01*
X0147870Y0312679D02*
X0145730Y0312679D01*
X0137870Y0312679D02*
X0125730Y0312679D01*
X0128135Y0311081D02*
X0135465Y0311081D01*
X0133867Y0309482D02*
X0129733Y0309482D01*
X0130401Y0307884D02*
X0133199Y0307884D01*
X0132537Y0306285D02*
X0131063Y0306285D01*
X0131168Y0304687D02*
X0132431Y0304687D01*
X0117870Y0312679D02*
X0115730Y0312679D01*
X0107870Y0312679D02*
X0105730Y0312679D01*
X0097870Y0312679D02*
X0095730Y0312679D01*
X0087870Y0312679D02*
X0085730Y0312679D01*
X0077870Y0312679D02*
X0075730Y0312679D01*
X0067870Y0312679D02*
X0036800Y0312679D01*
X0036800Y0311081D02*
X0065465Y0311081D01*
X0063867Y0309482D02*
X0036800Y0309482D01*
X0036800Y0307884D02*
X0063199Y0307884D01*
X0062537Y0306285D02*
X0036800Y0306285D01*
X0036800Y0304687D02*
X0062431Y0304687D01*
X0058858Y0303088D02*
X0036800Y0303088D01*
X0036800Y0301490D02*
X0055874Y0301490D01*
X0054276Y0299891D02*
X0036800Y0299891D01*
X0036800Y0298293D02*
X0053369Y0298293D01*
X0052707Y0296694D02*
X0036800Y0296694D01*
X0036800Y0295096D02*
X0052431Y0295096D01*
X0052431Y0293497D02*
X0036800Y0293497D01*
X0036800Y0291899D02*
X0052599Y0291899D01*
X0053261Y0290300D02*
X0036800Y0290300D01*
X0036800Y0288702D02*
X0054016Y0288702D01*
X0055614Y0287103D02*
X0036800Y0287103D01*
X0036800Y0285505D02*
X0058231Y0285505D01*
X0065369Y0285505D02*
X0068231Y0285505D01*
X0075369Y0285505D02*
X0078231Y0285505D01*
X0085369Y0285505D02*
X0098231Y0285505D01*
X0095614Y0287103D02*
X0087986Y0287103D01*
X0089584Y0288702D02*
X0094016Y0288702D01*
X0093261Y0290300D02*
X0090339Y0290300D01*
X0091001Y0291899D02*
X0092599Y0291899D01*
X0092431Y0293497D02*
X0091168Y0293497D01*
X0105369Y0285505D02*
X0118231Y0285505D01*
X0115614Y0287103D02*
X0107986Y0287103D01*
X0109584Y0288702D02*
X0114016Y0288702D01*
X0113261Y0290300D02*
X0110339Y0290300D01*
X0111001Y0291899D02*
X0112599Y0291899D01*
X0112431Y0293497D02*
X0111168Y0293497D01*
X0125369Y0285505D02*
X0128231Y0285505D01*
X0135369Y0285505D02*
X0138231Y0285505D01*
X0142600Y0283906D02*
X0036800Y0283906D01*
X0036800Y0282308D02*
X0141930Y0282308D01*
X0140332Y0280709D02*
X0036800Y0280709D01*
X0036800Y0279111D02*
X0138890Y0279111D01*
X0138228Y0277512D02*
X0036800Y0277512D01*
X0036800Y0275914D02*
X0137600Y0275914D01*
X0137600Y0274315D02*
X0036800Y0274315D01*
X0036800Y0272717D02*
X0137600Y0272717D01*
X0137600Y0271118D02*
X0036800Y0271118D01*
X0036800Y0269520D02*
X0137600Y0269520D01*
X0137600Y0267921D02*
X0036800Y0267921D01*
X0036800Y0266323D02*
X0137600Y0266323D01*
X0137600Y0264724D02*
X0036800Y0264724D01*
X0036800Y0263125D02*
X0137600Y0263125D01*
X0137600Y0261527D02*
X0036800Y0261527D01*
X0036800Y0259928D02*
X0137600Y0259928D01*
X0137600Y0258330D02*
X0036800Y0258330D01*
X0036800Y0256731D02*
X0137851Y0256731D01*
X0138513Y0255133D02*
X0036800Y0255133D01*
X0036800Y0253534D02*
X0139421Y0253534D01*
X0141020Y0251936D02*
X0036800Y0251936D01*
X0036800Y0250337D02*
X0142618Y0250337D01*
X0144217Y0248739D02*
X0036800Y0248739D01*
X0036800Y0247140D02*
X0145816Y0247140D01*
X0147414Y0245542D02*
X0036800Y0245542D01*
X0036800Y0243943D02*
X0149013Y0243943D01*
X0150611Y0242345D02*
X0036800Y0242345D01*
X0036800Y0240746D02*
X0152210Y0240746D01*
X0153808Y0239148D02*
X0036800Y0239148D01*
X0036800Y0237549D02*
X0155407Y0237549D01*
X0157005Y0235951D02*
X0036800Y0235951D01*
X0036800Y0234352D02*
X0157600Y0234352D01*
X0157600Y0232754D02*
X0036800Y0232754D01*
X0036800Y0231155D02*
X0157600Y0231155D01*
X0157600Y0229557D02*
X0036800Y0229557D01*
X0036800Y0227958D02*
X0157600Y0227958D01*
X0157600Y0226360D02*
X0036800Y0226360D01*
X0036800Y0224761D02*
X0157600Y0224761D01*
X0154517Y0223163D02*
X0036800Y0223163D01*
X0036800Y0221564D02*
X0151270Y0221564D01*
X0149671Y0219966D02*
X0036800Y0219966D01*
X0036800Y0218367D02*
X0148716Y0218367D01*
X0148053Y0216769D02*
X0036800Y0216769D01*
X0036800Y0215170D02*
X0147800Y0215170D01*
X0147800Y0213572D02*
X0036800Y0213572D01*
X0036800Y0211973D02*
X0147800Y0211973D01*
X0147800Y0210375D02*
X0036800Y0210375D01*
X0036800Y0208776D02*
X0147800Y0208776D01*
X0147882Y0207178D02*
X0036800Y0207178D01*
X0036800Y0205579D02*
X0148544Y0205579D01*
X0149258Y0203981D02*
X0036800Y0203981D01*
X0036800Y0202382D02*
X0150857Y0202382D01*
X0153520Y0200784D02*
X0036800Y0200784D01*
X0036800Y0199185D02*
X0291800Y0199185D01*
X0291800Y0197587D02*
X0231820Y0197587D01*
X0233696Y0195988D02*
X0291800Y0195988D01*
X0291800Y0194390D02*
X0235136Y0194390D01*
X0222998Y0200784D02*
X0220080Y0200784D01*
X0213520Y0200784D02*
X0210602Y0200784D01*
X0202998Y0200784D02*
X0200080Y0200784D01*
X0193520Y0200784D02*
X0190602Y0200784D01*
X0182998Y0200784D02*
X0180080Y0200784D01*
X0173520Y0200784D02*
X0170602Y0200784D01*
X0162998Y0200784D02*
X0160080Y0200784D01*
X0147800Y0179467D02*
X0147800Y0172176D01*
X0149170Y0168869D01*
X0151702Y0166337D01*
X0155010Y0164967D01*
X0158590Y0164967D01*
X0161201Y0166048D01*
X0161305Y0165943D01*
X0164871Y0164467D01*
X0168729Y0164467D01*
X0172295Y0165943D01*
X0172399Y0166048D01*
X0175010Y0164967D01*
X0178590Y0164967D01*
X0181201Y0166048D01*
X0181305Y0165943D01*
X0184871Y0164467D01*
X0188729Y0164467D01*
X0192295Y0165943D01*
X0192399Y0166048D01*
X0195010Y0164967D01*
X0198590Y0164967D01*
X0201201Y0166048D01*
X0201305Y0165943D01*
X0204871Y0164467D01*
X0208729Y0164467D01*
X0212295Y0165943D01*
X0212399Y0166048D01*
X0215010Y0164967D01*
X0218590Y0164967D01*
X0221201Y0166048D01*
X0221305Y0165943D01*
X0224871Y0164467D01*
X0228729Y0164467D01*
X0232295Y0165943D01*
X0235023Y0168672D01*
X0236500Y0172237D01*
X0236500Y0184167D01*
X0295400Y0184167D01*
X0295400Y0047445D01*
X0294599Y0049378D01*
X0292011Y0051966D01*
X0272011Y0071966D01*
X0268630Y0073367D01*
X0213400Y0073367D01*
X0213400Y0075957D01*
X0212070Y0079167D01*
X0213400Y0082376D01*
X0213400Y0085957D01*
X0212030Y0089265D01*
X0209498Y0091796D01*
X0206190Y0093167D01*
X0197410Y0093167D01*
X0194102Y0091796D01*
X0191570Y0089265D01*
X0190200Y0085957D01*
X0190200Y0082376D01*
X0191530Y0079167D01*
X0190200Y0075957D01*
X0190200Y0072376D01*
X0191530Y0069167D01*
X0190200Y0065957D01*
X0190200Y0062376D01*
X0191570Y0059069D01*
X0194102Y0056537D01*
X0197410Y0055167D01*
X0199487Y0055167D01*
X0199970Y0054967D01*
X0262989Y0054967D01*
X0270077Y0047879D01*
X0268256Y0048367D01*
X0265544Y0048367D01*
X0262924Y0047665D01*
X0260576Y0046309D01*
X0258658Y0044391D01*
X0258067Y0043367D01*
X0199970Y0043367D01*
X0199487Y0043167D01*
X0197410Y0043167D01*
X0194102Y0041796D01*
X0191570Y0039265D01*
X0190200Y0035957D01*
X0190200Y0032376D01*
X0191530Y0029167D01*
X0190200Y0025957D01*
X0190200Y0022376D01*
X0191530Y0019167D01*
X0190200Y0015957D01*
X0190200Y0012376D01*
X0190950Y0010567D01*
X0182650Y0010567D01*
X0183400Y0012376D01*
X0183400Y0015957D01*
X0182070Y0019167D01*
X0183400Y0022376D01*
X0183400Y0025957D01*
X0182070Y0029167D01*
X0183400Y0032376D01*
X0183400Y0035957D01*
X0182030Y0039265D01*
X0179498Y0041796D01*
X0176190Y0043167D01*
X0174113Y0043167D01*
X0173630Y0043367D01*
X0080433Y0043367D01*
X0079842Y0044391D01*
X0077924Y0046309D01*
X0075576Y0047665D01*
X0072956Y0048367D01*
X0070244Y0048367D01*
X0068559Y0047915D01*
X0075611Y0054967D01*
X0173630Y0054967D01*
X0174113Y0055167D01*
X0176190Y0055167D01*
X0179498Y0056537D01*
X0182030Y0059069D01*
X0183400Y0062376D01*
X0183400Y0065957D01*
X0182070Y0069167D01*
X0183400Y0072376D01*
X0183400Y0075957D01*
X0182070Y0079167D01*
X0183400Y0082376D01*
X0183400Y0085957D01*
X0182030Y0089265D01*
X0179498Y0091796D01*
X0176190Y0093167D01*
X0167410Y0093167D01*
X0164102Y0091796D01*
X0161570Y0089265D01*
X0160200Y0085957D01*
X0160200Y0082376D01*
X0161530Y0079167D01*
X0160200Y0075957D01*
X0160200Y0073367D01*
X0069970Y0073367D01*
X0066589Y0071966D01*
X0064001Y0069378D01*
X0044101Y0049478D01*
X0042700Y0046097D01*
X0042700Y0042732D01*
X0042302Y0042042D01*
X0041600Y0039423D01*
X0041600Y0028911D01*
X0042302Y0026291D01*
X0043658Y0023942D01*
X0045576Y0022025D01*
X0047924Y0020669D01*
X0050544Y0019967D01*
X0053256Y0019967D01*
X0055876Y0020669D01*
X0058224Y0022025D01*
X0060142Y0023942D01*
X0061498Y0026291D01*
X0061750Y0027231D01*
X0062002Y0026291D01*
X0063358Y0023942D01*
X0065276Y0022025D01*
X0067624Y0020669D01*
X0070244Y0019967D01*
X0072956Y0019967D01*
X0075576Y0020669D01*
X0077924Y0022025D01*
X0079842Y0023942D01*
X0080433Y0024967D01*
X0160200Y0024967D01*
X0160200Y0022376D01*
X0161530Y0019167D01*
X0160200Y0015957D01*
X0160200Y0012376D01*
X0160950Y0010567D01*
X0008200Y0010567D01*
X0008200Y0592688D01*
X0121603Y0592688D01*
X0021305Y0492390D01*
X0018577Y0489661D01*
X0017100Y0486096D01*
X0017100Y0162611D01*
X0016576Y0162309D01*
X0014658Y0160391D01*
X0013302Y0158042D01*
X0012600Y0155423D01*
X0012600Y0152711D01*
X0013302Y0150091D01*
X0014658Y0147742D01*
X0016576Y0145825D01*
X0018924Y0144469D01*
X0021544Y0143767D01*
X0032056Y0143767D01*
X0034676Y0144469D01*
X0037024Y0145825D01*
X0038942Y0147742D01*
X0040298Y0150091D01*
X0041000Y0152711D01*
X0041000Y0155423D01*
X0040298Y0158042D01*
X0038942Y0160391D01*
X0037024Y0162309D01*
X0036500Y0162611D01*
X0036500Y0179467D01*
X0147800Y0179467D01*
X0147800Y0178404D02*
X0036500Y0178404D01*
X0036500Y0176806D02*
X0147800Y0176806D01*
X0147800Y0175207D02*
X0036500Y0175207D01*
X0036500Y0173609D02*
X0147800Y0173609D01*
X0147869Y0172010D02*
X0036500Y0172010D01*
X0036500Y0170412D02*
X0148531Y0170412D01*
X0149225Y0168813D02*
X0036500Y0168813D01*
X0036500Y0167215D02*
X0150824Y0167215D01*
X0153441Y0165616D02*
X0036500Y0165616D01*
X0036500Y0164018D02*
X0295400Y0164018D01*
X0295400Y0165616D02*
X0231505Y0165616D01*
X0233566Y0167215D02*
X0295400Y0167215D01*
X0295400Y0168813D02*
X0235082Y0168813D01*
X0235744Y0170412D02*
X0295400Y0170412D01*
X0295400Y0172010D02*
X0236406Y0172010D01*
X0236500Y0173609D02*
X0295400Y0173609D01*
X0295400Y0175207D02*
X0236500Y0175207D01*
X0236500Y0176806D02*
X0295400Y0176806D01*
X0295400Y0178404D02*
X0236500Y0178404D01*
X0236500Y0180003D02*
X0295400Y0180003D01*
X0295400Y0181601D02*
X0236500Y0181601D01*
X0236500Y0183200D02*
X0295400Y0183200D01*
X0295400Y0162419D02*
X0221275Y0162419D01*
X0220528Y0163167D02*
X0213072Y0163167D01*
X0207800Y0157895D01*
X0207800Y0150439D01*
X0213072Y0145167D01*
X0220528Y0145167D01*
X0225800Y0150439D01*
X0225800Y0157895D01*
X0220528Y0163167D01*
X0220159Y0165616D02*
X0222095Y0165616D01*
X0222874Y0160821D02*
X0295400Y0160821D01*
X0295400Y0159222D02*
X0224472Y0159222D01*
X0225800Y0157624D02*
X0295400Y0157624D01*
X0295400Y0156025D02*
X0225800Y0156025D01*
X0225800Y0154427D02*
X0295400Y0154427D01*
X0295400Y0152828D02*
X0225800Y0152828D01*
X0225800Y0151230D02*
X0295400Y0151230D01*
X0295400Y0149631D02*
X0224992Y0149631D01*
X0223394Y0148033D02*
X0295400Y0148033D01*
X0295400Y0146434D02*
X0221795Y0146434D01*
X0211805Y0146434D02*
X0161795Y0146434D01*
X0160528Y0145167D02*
X0165800Y0150439D01*
X0165800Y0157895D01*
X0160528Y0163167D01*
X0153072Y0163167D01*
X0147800Y0157895D01*
X0147800Y0150439D01*
X0153072Y0145167D01*
X0160528Y0145167D01*
X0163394Y0148033D02*
X0210206Y0148033D01*
X0208608Y0149631D02*
X0164992Y0149631D01*
X0165800Y0151230D02*
X0207800Y0151230D01*
X0207800Y0152828D02*
X0165800Y0152828D01*
X0165800Y0154427D02*
X0207800Y0154427D01*
X0207800Y0156025D02*
X0165800Y0156025D01*
X0165800Y0157624D02*
X0207800Y0157624D01*
X0209128Y0159222D02*
X0164472Y0159222D01*
X0162874Y0160821D02*
X0210726Y0160821D01*
X0212325Y0162419D02*
X0161275Y0162419D01*
X0162095Y0165616D02*
X0160159Y0165616D01*
X0152325Y0162419D02*
X0036833Y0162419D01*
X0038512Y0160821D02*
X0150726Y0160821D01*
X0149128Y0159222D02*
X0039617Y0159222D01*
X0040410Y0157624D02*
X0147800Y0157624D01*
X0147800Y0156025D02*
X0040839Y0156025D01*
X0041000Y0154427D02*
X0147800Y0154427D01*
X0147800Y0152828D02*
X0041000Y0152828D01*
X0040603Y0151230D02*
X0147800Y0151230D01*
X0148608Y0149631D02*
X0040033Y0149631D01*
X0039110Y0148033D02*
X0150206Y0148033D01*
X0151805Y0146434D02*
X0037634Y0146434D01*
X0035311Y0144836D02*
X0295400Y0144836D01*
X0295400Y0143237D02*
X0008200Y0143237D01*
X0008200Y0141639D02*
X0295400Y0141639D01*
X0295400Y0140040D02*
X0008200Y0140040D01*
X0008200Y0138442D02*
X0295400Y0138442D01*
X0295400Y0136843D02*
X0008200Y0136843D01*
X0008200Y0135245D02*
X0295400Y0135245D01*
X0295400Y0133646D02*
X0008200Y0133646D01*
X0008200Y0132048D02*
X0295400Y0132048D01*
X0295400Y0130449D02*
X0008200Y0130449D01*
X0008200Y0128851D02*
X0295400Y0128851D01*
X0295400Y0127252D02*
X0201443Y0127252D01*
X0200528Y0128167D02*
X0193072Y0128167D01*
X0187800Y0122895D01*
X0187800Y0115439D01*
X0193072Y0110167D01*
X0200528Y0110167D01*
X0205800Y0115439D01*
X0205800Y0122895D01*
X0200528Y0128167D01*
X0203041Y0125654D02*
X0295400Y0125654D01*
X0295400Y0124055D02*
X0204640Y0124055D01*
X0205800Y0122456D02*
X0295400Y0122456D01*
X0295400Y0120858D02*
X0205800Y0120858D01*
X0205800Y0119259D02*
X0295400Y0119259D01*
X0295400Y0117661D02*
X0205800Y0117661D01*
X0205800Y0116062D02*
X0295400Y0116062D01*
X0295400Y0114464D02*
X0204825Y0114464D01*
X0203227Y0112865D02*
X0295400Y0112865D01*
X0295400Y0111267D02*
X0201628Y0111267D01*
X0191972Y0111267D02*
X0181628Y0111267D01*
X0180528Y0110167D02*
X0185800Y0115439D01*
X0185800Y0122895D01*
X0180528Y0128167D01*
X0173072Y0128167D01*
X0167800Y0122895D01*
X0167800Y0115439D01*
X0173072Y0110167D01*
X0180528Y0110167D01*
X0183227Y0112865D02*
X0190373Y0112865D01*
X0188775Y0114464D02*
X0184825Y0114464D01*
X0185800Y0116062D02*
X0187800Y0116062D01*
X0187800Y0117661D02*
X0185800Y0117661D01*
X0185800Y0119259D02*
X0187800Y0119259D01*
X0187800Y0120858D02*
X0185800Y0120858D01*
X0185800Y0122456D02*
X0187800Y0122456D01*
X0188960Y0124055D02*
X0184640Y0124055D01*
X0183041Y0125654D02*
X0190559Y0125654D01*
X0192157Y0127252D02*
X0181443Y0127252D01*
X0172157Y0127252D02*
X0008200Y0127252D01*
X0008200Y0125654D02*
X0170559Y0125654D01*
X0168960Y0124055D02*
X0008200Y0124055D01*
X0008200Y0122456D02*
X0167800Y0122456D01*
X0167800Y0120858D02*
X0008200Y0120858D01*
X0008200Y0119259D02*
X0167800Y0119259D01*
X0167800Y0117661D02*
X0008200Y0117661D01*
X0008200Y0116062D02*
X0167800Y0116062D01*
X0168775Y0114464D02*
X0008200Y0114464D01*
X0008200Y0112865D02*
X0170373Y0112865D01*
X0171972Y0111267D02*
X0008200Y0111267D01*
X0008200Y0109668D02*
X0295400Y0109668D01*
X0295400Y0108070D02*
X0008200Y0108070D01*
X0008200Y0106471D02*
X0295400Y0106471D01*
X0295400Y0104873D02*
X0008200Y0104873D01*
X0008200Y0103274D02*
X0295400Y0103274D01*
X0295400Y0101676D02*
X0008200Y0101676D01*
X0008200Y0100077D02*
X0295400Y0100077D01*
X0295400Y0098479D02*
X0008200Y0098479D01*
X0008200Y0096880D02*
X0295400Y0096880D01*
X0295400Y0095282D02*
X0008200Y0095282D01*
X0008200Y0093683D02*
X0295400Y0093683D01*
X0295400Y0092085D02*
X0208802Y0092085D01*
X0210808Y0090486D02*
X0295400Y0090486D01*
X0295400Y0088888D02*
X0212186Y0088888D01*
X0212848Y0087289D02*
X0295400Y0087289D01*
X0295400Y0085691D02*
X0213400Y0085691D01*
X0213400Y0084092D02*
X0295400Y0084092D01*
X0295400Y0082494D02*
X0213400Y0082494D01*
X0212786Y0080895D02*
X0295400Y0080895D01*
X0295400Y0079297D02*
X0212124Y0079297D01*
X0212679Y0077698D02*
X0295400Y0077698D01*
X0295400Y0076100D02*
X0213341Y0076100D01*
X0213400Y0074501D02*
X0295400Y0074501D01*
X0295400Y0072903D02*
X0269750Y0072903D01*
X0272673Y0071304D02*
X0295400Y0071304D01*
X0295400Y0069706D02*
X0274272Y0069706D01*
X0275870Y0068107D02*
X0295400Y0068107D01*
X0295400Y0066509D02*
X0277469Y0066509D01*
X0279067Y0064910D02*
X0295400Y0064910D01*
X0295400Y0063312D02*
X0280666Y0063312D01*
X0282264Y0061713D02*
X0295400Y0061713D01*
X0295400Y0060115D02*
X0283863Y0060115D01*
X0285461Y0058516D02*
X0295400Y0058516D01*
X0295400Y0056918D02*
X0287060Y0056918D01*
X0288658Y0055319D02*
X0295400Y0055319D01*
X0295400Y0053721D02*
X0290257Y0053721D01*
X0291855Y0052122D02*
X0295400Y0052122D01*
X0295400Y0050523D02*
X0293454Y0050523D01*
X0294787Y0048925D02*
X0295400Y0048925D01*
X0269031Y0048925D02*
X0069569Y0048925D01*
X0071168Y0050523D02*
X0267432Y0050523D01*
X0265834Y0052122D02*
X0072766Y0052122D01*
X0074365Y0053721D02*
X0264235Y0053721D01*
X0262338Y0047326D02*
X0076162Y0047326D01*
X0078505Y0045728D02*
X0259995Y0045728D01*
X0258507Y0044129D02*
X0079993Y0044129D01*
X0080422Y0024947D02*
X0160200Y0024947D01*
X0160200Y0023349D02*
X0079249Y0023349D01*
X0077449Y0021750D02*
X0160459Y0021750D01*
X0161121Y0020152D02*
X0073647Y0020152D01*
X0069553Y0020152D02*
X0053947Y0020152D01*
X0049853Y0020152D02*
X0008200Y0020152D01*
X0008200Y0021750D02*
X0046051Y0021750D01*
X0044251Y0023349D02*
X0008200Y0023349D01*
X0008200Y0024947D02*
X0043078Y0024947D01*
X0042234Y0026546D02*
X0008200Y0026546D01*
X0008200Y0028144D02*
X0041805Y0028144D01*
X0041600Y0029743D02*
X0008200Y0029743D01*
X0008200Y0031341D02*
X0041600Y0031341D01*
X0041600Y0032940D02*
X0008200Y0032940D01*
X0008200Y0034538D02*
X0041600Y0034538D01*
X0041600Y0036137D02*
X0008200Y0036137D01*
X0008200Y0037735D02*
X0041600Y0037735D01*
X0041600Y0039334D02*
X0008200Y0039334D01*
X0008200Y0040932D02*
X0042005Y0040932D01*
X0042584Y0042531D02*
X0008200Y0042531D01*
X0008200Y0044129D02*
X0042700Y0044129D01*
X0042700Y0045728D02*
X0008200Y0045728D01*
X0008200Y0047326D02*
X0043209Y0047326D01*
X0043872Y0048925D02*
X0008200Y0048925D01*
X0008200Y0050523D02*
X0045146Y0050523D01*
X0046745Y0052122D02*
X0008200Y0052122D01*
X0008200Y0053721D02*
X0048343Y0053721D01*
X0049942Y0055319D02*
X0008200Y0055319D01*
X0008200Y0056918D02*
X0051540Y0056918D01*
X0053139Y0058516D02*
X0008200Y0058516D01*
X0008200Y0060115D02*
X0054737Y0060115D01*
X0056336Y0061713D02*
X0008200Y0061713D01*
X0008200Y0063312D02*
X0057934Y0063312D01*
X0059533Y0064910D02*
X0008200Y0064910D01*
X0008200Y0066509D02*
X0061131Y0066509D01*
X0062730Y0068107D02*
X0008200Y0068107D01*
X0008200Y0069706D02*
X0064328Y0069706D01*
X0065927Y0071304D02*
X0008200Y0071304D01*
X0008200Y0072903D02*
X0068850Y0072903D01*
X0061934Y0026546D02*
X0061566Y0026546D01*
X0060722Y0024947D02*
X0062778Y0024947D01*
X0063951Y0023349D02*
X0059549Y0023349D01*
X0057749Y0021750D02*
X0065751Y0021750D01*
X0008200Y0018553D02*
X0161275Y0018553D01*
X0160613Y0016955D02*
X0008200Y0016955D01*
X0008200Y0015356D02*
X0160200Y0015356D01*
X0160200Y0013758D02*
X0008200Y0013758D01*
X0008200Y0012159D02*
X0160290Y0012159D01*
X0182325Y0018553D02*
X0191275Y0018553D01*
X0191121Y0020152D02*
X0182478Y0020152D01*
X0183141Y0021750D02*
X0190459Y0021750D01*
X0190200Y0023349D02*
X0183400Y0023349D01*
X0183400Y0024947D02*
X0190200Y0024947D01*
X0190444Y0026546D02*
X0183156Y0026546D01*
X0182494Y0028144D02*
X0191106Y0028144D01*
X0191291Y0029743D02*
X0182309Y0029743D01*
X0182971Y0031341D02*
X0190629Y0031341D01*
X0190200Y0032940D02*
X0183400Y0032940D01*
X0183400Y0034538D02*
X0190200Y0034538D01*
X0190275Y0036137D02*
X0183325Y0036137D01*
X0182663Y0037735D02*
X0190937Y0037735D01*
X0191639Y0039334D02*
X0181961Y0039334D01*
X0180362Y0040932D02*
X0193238Y0040932D01*
X0195875Y0042531D02*
X0177725Y0042531D01*
X0176558Y0055319D02*
X0197042Y0055319D01*
X0193721Y0056918D02*
X0179879Y0056918D01*
X0181477Y0058516D02*
X0192123Y0058516D01*
X0191137Y0060115D02*
X0182463Y0060115D01*
X0183125Y0061713D02*
X0190475Y0061713D01*
X0190200Y0063312D02*
X0183400Y0063312D01*
X0183400Y0064910D02*
X0190200Y0064910D01*
X0190429Y0066509D02*
X0183171Y0066509D01*
X0182509Y0068107D02*
X0191091Y0068107D01*
X0191306Y0069706D02*
X0182294Y0069706D01*
X0182956Y0071304D02*
X0190644Y0071304D01*
X0190200Y0072903D02*
X0183400Y0072903D01*
X0183400Y0074501D02*
X0190200Y0074501D01*
X0190259Y0076100D02*
X0183341Y0076100D01*
X0182679Y0077698D02*
X0190921Y0077698D01*
X0191476Y0079297D02*
X0182124Y0079297D01*
X0182786Y0080895D02*
X0190814Y0080895D01*
X0190200Y0082494D02*
X0183400Y0082494D01*
X0183400Y0084092D02*
X0190200Y0084092D01*
X0190200Y0085691D02*
X0183400Y0085691D01*
X0182848Y0087289D02*
X0190752Y0087289D01*
X0191414Y0088888D02*
X0182186Y0088888D01*
X0180808Y0090486D02*
X0192792Y0090486D01*
X0194798Y0092085D02*
X0178802Y0092085D01*
X0164798Y0092085D02*
X0008200Y0092085D01*
X0008200Y0090486D02*
X0162792Y0090486D01*
X0161414Y0088888D02*
X0008200Y0088888D01*
X0008200Y0087289D02*
X0160752Y0087289D01*
X0160200Y0085691D02*
X0008200Y0085691D01*
X0008200Y0084092D02*
X0160200Y0084092D01*
X0160200Y0082494D02*
X0008200Y0082494D01*
X0008200Y0080895D02*
X0160814Y0080895D01*
X0161476Y0079297D02*
X0008200Y0079297D01*
X0008200Y0077698D02*
X0160921Y0077698D01*
X0160259Y0076100D02*
X0008200Y0076100D01*
X0008200Y0074501D02*
X0160200Y0074501D01*
X0182987Y0016955D02*
X0190613Y0016955D01*
X0190200Y0015356D02*
X0183400Y0015356D01*
X0183400Y0013758D02*
X0190200Y0013758D01*
X0190290Y0012159D02*
X0183310Y0012159D01*
X0018289Y0144836D02*
X0008200Y0144836D01*
X0008200Y0146434D02*
X0015966Y0146434D01*
X0014490Y0148033D02*
X0008200Y0148033D01*
X0008200Y0149631D02*
X0013567Y0149631D01*
X0012997Y0151230D02*
X0008200Y0151230D01*
X0008200Y0152828D02*
X0012600Y0152828D01*
X0012600Y0154427D02*
X0008200Y0154427D01*
X0008200Y0156025D02*
X0012761Y0156025D01*
X0013190Y0157624D02*
X0008200Y0157624D01*
X0008200Y0159222D02*
X0013983Y0159222D01*
X0015088Y0160821D02*
X0008200Y0160821D01*
X0008200Y0162419D02*
X0016767Y0162419D01*
X0017100Y0164018D02*
X0008200Y0164018D01*
X0008200Y0165616D02*
X0017100Y0165616D01*
X0017100Y0167215D02*
X0008200Y0167215D01*
X0008200Y0168813D02*
X0017100Y0168813D01*
X0017100Y0170412D02*
X0008200Y0170412D01*
X0008200Y0172010D02*
X0017100Y0172010D01*
X0017100Y0173609D02*
X0008200Y0173609D01*
X0008200Y0175207D02*
X0017100Y0175207D01*
X0017100Y0176806D02*
X0008200Y0176806D01*
X0008200Y0178404D02*
X0017100Y0178404D01*
X0017100Y0180003D02*
X0008200Y0180003D01*
X0008200Y0181601D02*
X0017100Y0181601D01*
X0017100Y0183200D02*
X0008200Y0183200D01*
X0008200Y0184798D02*
X0017100Y0184798D01*
X0017100Y0186397D02*
X0008200Y0186397D01*
X0008200Y0187995D02*
X0017100Y0187995D01*
X0017100Y0189594D02*
X0008200Y0189594D01*
X0008200Y0191192D02*
X0017100Y0191192D01*
X0017100Y0192791D02*
X0008200Y0192791D01*
X0008200Y0194390D02*
X0017100Y0194390D01*
X0017100Y0195988D02*
X0008200Y0195988D01*
X0008200Y0197587D02*
X0017100Y0197587D01*
X0017100Y0199185D02*
X0008200Y0199185D01*
X0008200Y0200784D02*
X0017100Y0200784D01*
X0017100Y0202382D02*
X0008200Y0202382D01*
X0008200Y0203981D02*
X0017100Y0203981D01*
X0017100Y0205579D02*
X0008200Y0205579D01*
X0008200Y0207178D02*
X0017100Y0207178D01*
X0017100Y0208776D02*
X0008200Y0208776D01*
X0008200Y0210375D02*
X0017100Y0210375D01*
X0017100Y0211973D02*
X0008200Y0211973D01*
X0008200Y0213572D02*
X0017100Y0213572D01*
X0017100Y0215170D02*
X0008200Y0215170D01*
X0008200Y0216769D02*
X0017100Y0216769D01*
X0017100Y0218367D02*
X0008200Y0218367D01*
X0008200Y0219966D02*
X0017100Y0219966D01*
X0017100Y0221564D02*
X0008200Y0221564D01*
X0008200Y0223163D02*
X0017100Y0223163D01*
X0017100Y0224761D02*
X0008200Y0224761D01*
X0008200Y0226360D02*
X0017100Y0226360D01*
X0017100Y0227958D02*
X0008200Y0227958D01*
X0008200Y0229557D02*
X0017100Y0229557D01*
X0017100Y0231155D02*
X0008200Y0231155D01*
X0008200Y0232754D02*
X0017100Y0232754D01*
X0017100Y0234352D02*
X0008200Y0234352D01*
X0008200Y0235951D02*
X0017100Y0235951D01*
X0017100Y0237549D02*
X0008200Y0237549D01*
X0008200Y0239148D02*
X0017100Y0239148D01*
X0017100Y0240746D02*
X0008200Y0240746D01*
X0008200Y0242345D02*
X0017100Y0242345D01*
X0017100Y0243943D02*
X0008200Y0243943D01*
X0008200Y0245542D02*
X0017100Y0245542D01*
X0017100Y0247140D02*
X0008200Y0247140D01*
X0008200Y0248739D02*
X0017100Y0248739D01*
X0017100Y0250337D02*
X0008200Y0250337D01*
X0008200Y0251936D02*
X0017100Y0251936D01*
X0017100Y0253534D02*
X0008200Y0253534D01*
X0008200Y0255133D02*
X0017100Y0255133D01*
X0017100Y0256731D02*
X0008200Y0256731D01*
X0008200Y0258330D02*
X0017100Y0258330D01*
X0017100Y0259928D02*
X0008200Y0259928D01*
X0008200Y0261527D02*
X0017100Y0261527D01*
X0017100Y0263125D02*
X0008200Y0263125D01*
X0008200Y0264724D02*
X0017100Y0264724D01*
X0017100Y0266323D02*
X0008200Y0266323D01*
X0008200Y0267921D02*
X0017100Y0267921D01*
X0017100Y0269520D02*
X0008200Y0269520D01*
X0008200Y0271118D02*
X0017100Y0271118D01*
X0017100Y0272717D02*
X0008200Y0272717D01*
X0008200Y0274315D02*
X0017100Y0274315D01*
X0017100Y0275914D02*
X0008200Y0275914D01*
X0008200Y0277512D02*
X0017100Y0277512D01*
X0017100Y0279111D02*
X0008200Y0279111D01*
X0008200Y0280709D02*
X0017100Y0280709D01*
X0017100Y0282308D02*
X0008200Y0282308D01*
X0008200Y0283906D02*
X0017100Y0283906D01*
X0017100Y0285505D02*
X0008200Y0285505D01*
X0008200Y0287103D02*
X0017100Y0287103D01*
X0017100Y0288702D02*
X0008200Y0288702D01*
X0008200Y0290300D02*
X0017100Y0290300D01*
X0017100Y0291899D02*
X0008200Y0291899D01*
X0008200Y0293497D02*
X0017100Y0293497D01*
X0017100Y0295096D02*
X0008200Y0295096D01*
X0008200Y0296694D02*
X0017100Y0296694D01*
X0017100Y0298293D02*
X0008200Y0298293D01*
X0008200Y0299891D02*
X0017100Y0299891D01*
X0017100Y0301490D02*
X0008200Y0301490D01*
X0008200Y0303088D02*
X0017100Y0303088D01*
X0017100Y0304687D02*
X0008200Y0304687D01*
X0008200Y0306285D02*
X0017100Y0306285D01*
X0017100Y0307884D02*
X0008200Y0307884D01*
X0008200Y0309482D02*
X0017100Y0309482D01*
X0017100Y0311081D02*
X0008200Y0311081D01*
X0008200Y0312679D02*
X0017100Y0312679D01*
X0017100Y0314278D02*
X0008200Y0314278D01*
X0008200Y0315876D02*
X0017100Y0315876D01*
X0017100Y0317475D02*
X0008200Y0317475D01*
X0008200Y0319073D02*
X0017100Y0319073D01*
X0017100Y0320672D02*
X0008200Y0320672D01*
X0008200Y0322270D02*
X0017100Y0322270D01*
X0017100Y0323869D02*
X0008200Y0323869D01*
X0008200Y0325467D02*
X0017100Y0325467D01*
X0017100Y0327066D02*
X0008200Y0327066D01*
X0008200Y0328664D02*
X0017100Y0328664D01*
X0017100Y0330263D02*
X0008200Y0330263D01*
X0008200Y0331861D02*
X0017100Y0331861D01*
X0017100Y0333460D02*
X0008200Y0333460D01*
X0008200Y0335059D02*
X0017100Y0335059D01*
X0017100Y0336657D02*
X0008200Y0336657D01*
X0008200Y0338256D02*
X0017100Y0338256D01*
X0017100Y0339854D02*
X0008200Y0339854D01*
X0008200Y0341453D02*
X0017100Y0341453D01*
X0017100Y0343051D02*
X0008200Y0343051D01*
X0008200Y0344650D02*
X0017100Y0344650D01*
X0017100Y0346248D02*
X0008200Y0346248D01*
X0008200Y0347847D02*
X0017100Y0347847D01*
X0017100Y0349445D02*
X0008200Y0349445D01*
X0008200Y0351044D02*
X0017100Y0351044D01*
X0017100Y0352642D02*
X0008200Y0352642D01*
X0008200Y0354241D02*
X0017100Y0354241D01*
X0017100Y0355839D02*
X0008200Y0355839D01*
X0008200Y0357438D02*
X0017100Y0357438D01*
X0017100Y0359036D02*
X0008200Y0359036D01*
X0008200Y0360635D02*
X0017100Y0360635D01*
X0017100Y0362233D02*
X0008200Y0362233D01*
X0008200Y0363832D02*
X0017100Y0363832D01*
X0017100Y0365430D02*
X0008200Y0365430D01*
X0008200Y0367029D02*
X0017100Y0367029D01*
X0017100Y0368627D02*
X0008200Y0368627D01*
X0008200Y0370226D02*
X0017100Y0370226D01*
X0017100Y0371824D02*
X0008200Y0371824D01*
X0008200Y0373423D02*
X0017100Y0373423D01*
X0017100Y0375021D02*
X0008200Y0375021D01*
X0008200Y0376620D02*
X0017100Y0376620D01*
X0017100Y0378218D02*
X0008200Y0378218D01*
X0008200Y0379817D02*
X0017100Y0379817D01*
X0017100Y0381415D02*
X0008200Y0381415D01*
X0008200Y0383014D02*
X0017100Y0383014D01*
X0017100Y0384612D02*
X0008200Y0384612D01*
X0008200Y0386211D02*
X0017100Y0386211D01*
X0017100Y0387809D02*
X0008200Y0387809D01*
X0008200Y0389408D02*
X0017100Y0389408D01*
X0017100Y0391006D02*
X0008200Y0391006D01*
X0008200Y0392605D02*
X0017100Y0392605D01*
X0017100Y0394203D02*
X0008200Y0394203D01*
X0008200Y0395802D02*
X0017100Y0395802D01*
X0017100Y0397400D02*
X0008200Y0397400D01*
X0008200Y0398999D02*
X0017100Y0398999D01*
X0017100Y0400597D02*
X0008200Y0400597D01*
X0008200Y0402196D02*
X0017100Y0402196D01*
X0017100Y0403794D02*
X0008200Y0403794D01*
X0008200Y0405393D02*
X0017100Y0405393D01*
X0017100Y0406992D02*
X0008200Y0406992D01*
X0008200Y0408590D02*
X0017100Y0408590D01*
X0017100Y0410189D02*
X0008200Y0410189D01*
X0008200Y0411787D02*
X0017100Y0411787D01*
X0017100Y0413386D02*
X0008200Y0413386D01*
X0008200Y0414984D02*
X0017100Y0414984D01*
X0017100Y0416583D02*
X0008200Y0416583D01*
X0008200Y0418181D02*
X0017100Y0418181D01*
X0017100Y0419780D02*
X0008200Y0419780D01*
X0008200Y0421378D02*
X0017100Y0421378D01*
X0017100Y0422977D02*
X0008200Y0422977D01*
X0008200Y0424575D02*
X0017100Y0424575D01*
X0017100Y0426174D02*
X0008200Y0426174D01*
X0008200Y0427772D02*
X0017100Y0427772D01*
X0017100Y0429371D02*
X0008200Y0429371D01*
X0008200Y0430969D02*
X0017100Y0430969D01*
X0017100Y0432568D02*
X0008200Y0432568D01*
X0008200Y0434166D02*
X0017100Y0434166D01*
X0017100Y0435765D02*
X0008200Y0435765D01*
X0008200Y0437363D02*
X0017100Y0437363D01*
X0017100Y0438962D02*
X0008200Y0438962D01*
X0008200Y0440560D02*
X0017100Y0440560D01*
X0017100Y0442159D02*
X0008200Y0442159D01*
X0008200Y0443757D02*
X0017100Y0443757D01*
X0017100Y0445356D02*
X0008200Y0445356D01*
X0008200Y0446954D02*
X0017100Y0446954D01*
X0017100Y0448553D02*
X0008200Y0448553D01*
X0008200Y0450151D02*
X0017100Y0450151D01*
X0017100Y0451750D02*
X0008200Y0451750D01*
X0008200Y0453348D02*
X0017100Y0453348D01*
X0017100Y0454947D02*
X0008200Y0454947D01*
X0008200Y0456545D02*
X0017100Y0456545D01*
X0017100Y0458144D02*
X0008200Y0458144D01*
X0008200Y0459742D02*
X0017100Y0459742D01*
X0017100Y0461341D02*
X0008200Y0461341D01*
X0008200Y0462939D02*
X0017100Y0462939D01*
X0017100Y0464538D02*
X0008200Y0464538D01*
X0008200Y0466136D02*
X0017100Y0466136D01*
X0017100Y0467735D02*
X0008200Y0467735D01*
X0008200Y0469333D02*
X0017100Y0469333D01*
X0017100Y0470932D02*
X0008200Y0470932D01*
X0008200Y0472530D02*
X0017100Y0472530D01*
X0017100Y0474129D02*
X0008200Y0474129D01*
X0008200Y0475727D02*
X0017100Y0475727D01*
X0017100Y0477326D02*
X0008200Y0477326D01*
X0008200Y0478925D02*
X0017100Y0478925D01*
X0017100Y0480523D02*
X0008200Y0480523D01*
X0008200Y0482122D02*
X0017100Y0482122D01*
X0017100Y0483720D02*
X0008200Y0483720D01*
X0008200Y0485319D02*
X0017100Y0485319D01*
X0017440Y0486917D02*
X0008200Y0486917D01*
X0008200Y0488516D02*
X0018102Y0488516D01*
X0019030Y0490114D02*
X0008200Y0490114D01*
X0008200Y0491713D02*
X0020628Y0491713D01*
X0022227Y0493311D02*
X0008200Y0493311D01*
X0008200Y0494910D02*
X0023825Y0494910D01*
X0025424Y0496508D02*
X0008200Y0496508D01*
X0008200Y0498107D02*
X0027022Y0498107D01*
X0028621Y0499705D02*
X0008200Y0499705D01*
X0008200Y0501304D02*
X0030219Y0501304D01*
X0031818Y0502902D02*
X0008200Y0502902D01*
X0008200Y0504501D02*
X0033416Y0504501D01*
X0035015Y0506099D02*
X0008200Y0506099D01*
X0008200Y0507698D02*
X0036613Y0507698D01*
X0038212Y0509296D02*
X0008200Y0509296D01*
X0008200Y0510895D02*
X0039810Y0510895D01*
X0041409Y0512493D02*
X0008200Y0512493D01*
X0008200Y0514092D02*
X0043007Y0514092D01*
X0044606Y0515690D02*
X0008200Y0515690D01*
X0008200Y0517289D02*
X0046204Y0517289D01*
X0047803Y0518887D02*
X0008200Y0518887D01*
X0008200Y0520486D02*
X0049401Y0520486D01*
X0051000Y0522084D02*
X0008200Y0522084D01*
X0008200Y0523683D02*
X0052598Y0523683D01*
X0054197Y0525281D02*
X0008200Y0525281D01*
X0008200Y0526880D02*
X0055795Y0526880D01*
X0057394Y0528478D02*
X0008200Y0528478D01*
X0008200Y0530077D02*
X0058992Y0530077D01*
X0060591Y0531675D02*
X0008200Y0531675D01*
X0008200Y0533274D02*
X0062189Y0533274D01*
X0063788Y0534872D02*
X0008200Y0534872D01*
X0008200Y0536471D02*
X0065386Y0536471D01*
X0066985Y0538069D02*
X0008200Y0538069D01*
X0008200Y0539668D02*
X0068583Y0539668D01*
X0070182Y0541266D02*
X0008200Y0541266D01*
X0008200Y0542865D02*
X0071780Y0542865D01*
X0073379Y0544463D02*
X0008200Y0544463D01*
X0008200Y0546062D02*
X0074977Y0546062D01*
X0076576Y0547661D02*
X0008200Y0547661D01*
X0008200Y0549259D02*
X0078175Y0549259D01*
X0079773Y0550858D02*
X0008200Y0550858D01*
X0008200Y0552456D02*
X0081372Y0552456D01*
X0082970Y0554055D02*
X0008200Y0554055D01*
X0008200Y0555653D02*
X0043082Y0555653D01*
X0043024Y0555669D02*
X0045644Y0554967D01*
X0048356Y0554967D01*
X0050976Y0555669D01*
X0053324Y0557025D01*
X0055242Y0558942D01*
X0056598Y0561291D01*
X0056850Y0562231D01*
X0057102Y0561291D01*
X0058458Y0558942D01*
X0060376Y0557025D01*
X0062724Y0555669D01*
X0065344Y0554967D01*
X0068056Y0554967D01*
X0070676Y0555669D01*
X0073024Y0557025D01*
X0074942Y0558942D01*
X0076298Y0561291D01*
X0077000Y0563911D01*
X0077000Y0574423D01*
X0076298Y0577042D01*
X0074942Y0579391D01*
X0073024Y0581309D01*
X0070676Y0582665D01*
X0068056Y0583367D01*
X0065344Y0583367D01*
X0062724Y0582665D01*
X0060376Y0581309D01*
X0058458Y0579391D01*
X0057102Y0577042D01*
X0056850Y0576102D01*
X0056598Y0577042D01*
X0055242Y0579391D01*
X0053324Y0581309D01*
X0050976Y0582665D01*
X0048356Y0583367D01*
X0045644Y0583367D01*
X0043024Y0582665D01*
X0040676Y0581309D01*
X0038758Y0579391D01*
X0037402Y0577042D01*
X0036700Y0574423D01*
X0036700Y0563911D01*
X0037402Y0561291D01*
X0038758Y0558942D01*
X0040676Y0557025D01*
X0043024Y0555669D01*
X0040449Y0557252D02*
X0008200Y0557252D01*
X0008200Y0558850D02*
X0038850Y0558850D01*
X0037888Y0560449D02*
X0008200Y0560449D01*
X0008200Y0562047D02*
X0037199Y0562047D01*
X0036771Y0563646D02*
X0008200Y0563646D01*
X0008200Y0565244D02*
X0036700Y0565244D01*
X0036700Y0566843D02*
X0008200Y0566843D01*
X0008200Y0568441D02*
X0036700Y0568441D01*
X0036700Y0570040D02*
X0008200Y0570040D01*
X0008200Y0571638D02*
X0036700Y0571638D01*
X0036700Y0573237D02*
X0008200Y0573237D01*
X0008200Y0574835D02*
X0036811Y0574835D01*
X0037239Y0576434D02*
X0008200Y0576434D01*
X0008200Y0578032D02*
X0037973Y0578032D01*
X0038998Y0579631D02*
X0008200Y0579631D01*
X0008200Y0581229D02*
X0040596Y0581229D01*
X0043633Y0582828D02*
X0008200Y0582828D01*
X0008200Y0584426D02*
X0113342Y0584426D01*
X0111743Y0582828D02*
X0070067Y0582828D01*
X0073104Y0581229D02*
X0110145Y0581229D01*
X0108546Y0579631D02*
X0074702Y0579631D01*
X0075727Y0578032D02*
X0106948Y0578032D01*
X0105349Y0576434D02*
X0076461Y0576434D01*
X0076889Y0574835D02*
X0103751Y0574835D01*
X0102152Y0573237D02*
X0077000Y0573237D01*
X0077000Y0571638D02*
X0100554Y0571638D01*
X0098955Y0570040D02*
X0077000Y0570040D01*
X0077000Y0568441D02*
X0097357Y0568441D01*
X0095758Y0566843D02*
X0077000Y0566843D01*
X0077000Y0565244D02*
X0094160Y0565244D01*
X0092561Y0563646D02*
X0076929Y0563646D01*
X0076501Y0562047D02*
X0090963Y0562047D01*
X0089364Y0560449D02*
X0075812Y0560449D01*
X0074850Y0558850D02*
X0087766Y0558850D01*
X0086167Y0557252D02*
X0073251Y0557252D01*
X0070618Y0555653D02*
X0084569Y0555653D01*
X0097618Y0541266D02*
X0165328Y0541266D01*
X0165200Y0540957D02*
X0165200Y0537376D01*
X0166530Y0534167D01*
X0165200Y0530957D01*
X0165200Y0527376D01*
X0166530Y0524167D01*
X0165200Y0520957D01*
X0165200Y0517376D01*
X0166570Y0514069D01*
X0169102Y0511537D01*
X0172410Y0510167D01*
X0173181Y0510167D01*
X0174871Y0509467D01*
X0208729Y0509467D01*
X0210419Y0510167D01*
X0211190Y0510167D01*
X0214498Y0511537D01*
X0217030Y0514069D01*
X0218400Y0517376D01*
X0218400Y0520957D01*
X0217070Y0524167D01*
X0218400Y0527376D01*
X0218400Y0530957D01*
X0217070Y0534167D01*
X0218400Y0537376D01*
X0218400Y0540957D01*
X0217030Y0544265D01*
X0214498Y0546796D01*
X0211190Y0548167D01*
X0202410Y0548167D01*
X0201500Y0547790D01*
X0201500Y0560544D01*
X0202410Y0560167D01*
X0211190Y0560167D01*
X0214498Y0561537D01*
X0217030Y0564069D01*
X0218400Y0567376D01*
X0218400Y0570957D01*
X0217070Y0574167D01*
X0218400Y0577376D01*
X0218400Y0580957D01*
X0218080Y0581729D01*
X0220023Y0583672D01*
X0221500Y0587237D01*
X0221500Y0591096D01*
X0220841Y0592688D01*
X0295400Y0592688D01*
X0295400Y0414167D01*
X0239470Y0414167D01*
X0240800Y0417376D01*
X0240800Y0426157D01*
X0239430Y0429465D01*
X0236898Y0431996D01*
X0233590Y0433367D01*
X0230010Y0433367D01*
X0226800Y0432037D01*
X0223590Y0433367D01*
X0220010Y0433367D01*
X0216800Y0432037D01*
X0213590Y0433367D01*
X0210010Y0433367D01*
X0206800Y0432037D01*
X0203590Y0433367D01*
X0200010Y0433367D01*
X0196800Y0432037D01*
X0193590Y0433367D01*
X0190010Y0433367D01*
X0186800Y0432037D01*
X0183590Y0433367D01*
X0180010Y0433367D01*
X0176800Y0432037D01*
X0173590Y0433367D01*
X0170010Y0433367D01*
X0166800Y0432037D01*
X0163590Y0433367D01*
X0160010Y0433367D01*
X0156702Y0431996D01*
X0154170Y0429465D01*
X0152800Y0426157D01*
X0152800Y0422786D01*
X0152100Y0421096D01*
X0152100Y0418867D01*
X0036500Y0418867D01*
X0036500Y0480149D01*
X0135818Y0579467D01*
X0165200Y0579467D01*
X0165200Y0577376D01*
X0166530Y0574167D01*
X0165200Y0570957D01*
X0165200Y0567376D01*
X0166570Y0564069D01*
X0169102Y0561537D01*
X0172410Y0560167D01*
X0181190Y0560167D01*
X0182100Y0560544D01*
X0182100Y0547790D01*
X0181190Y0548167D01*
X0172410Y0548167D01*
X0169102Y0546796D01*
X0166570Y0544265D01*
X0165200Y0540957D01*
X0165200Y0539668D02*
X0096019Y0539668D01*
X0094421Y0538069D02*
X0165200Y0538069D01*
X0165575Y0536471D02*
X0092822Y0536471D01*
X0091224Y0534872D02*
X0166237Y0534872D01*
X0166160Y0533274D02*
X0089625Y0533274D01*
X0088027Y0531675D02*
X0165498Y0531675D01*
X0165200Y0530077D02*
X0086428Y0530077D01*
X0084830Y0528478D02*
X0165200Y0528478D01*
X0165406Y0526880D02*
X0083231Y0526880D01*
X0081633Y0525281D02*
X0166068Y0525281D01*
X0166329Y0523683D02*
X0080034Y0523683D01*
X0078436Y0522084D02*
X0165667Y0522084D01*
X0165200Y0520486D02*
X0076837Y0520486D01*
X0075239Y0518887D02*
X0165200Y0518887D01*
X0165236Y0517289D02*
X0073640Y0517289D01*
X0072041Y0515690D02*
X0165898Y0515690D01*
X0166561Y0514092D02*
X0070443Y0514092D01*
X0068844Y0512493D02*
X0168145Y0512493D01*
X0170652Y0510895D02*
X0067246Y0510895D01*
X0065647Y0509296D02*
X0295400Y0509296D01*
X0295400Y0507698D02*
X0064049Y0507698D01*
X0062450Y0506099D02*
X0295400Y0506099D01*
X0295400Y0504501D02*
X0060852Y0504501D01*
X0059253Y0502902D02*
X0295400Y0502902D01*
X0295400Y0501304D02*
X0057655Y0501304D01*
X0056056Y0499705D02*
X0295400Y0499705D01*
X0295400Y0498107D02*
X0054458Y0498107D01*
X0052859Y0496508D02*
X0295400Y0496508D01*
X0295400Y0494910D02*
X0051261Y0494910D01*
X0049662Y0493311D02*
X0295400Y0493311D01*
X0295400Y0491713D02*
X0216982Y0491713D01*
X0215528Y0493167D02*
X0220800Y0487895D01*
X0220800Y0480439D01*
X0215528Y0475167D01*
X0208072Y0475167D01*
X0202800Y0480439D01*
X0202800Y0487895D01*
X0208072Y0493167D01*
X0215528Y0493167D01*
X0218580Y0490114D02*
X0295400Y0490114D01*
X0295400Y0488516D02*
X0220179Y0488516D01*
X0220800Y0486917D02*
X0295400Y0486917D01*
X0295400Y0485319D02*
X0220800Y0485319D01*
X0220800Y0483720D02*
X0295400Y0483720D01*
X0295400Y0482122D02*
X0220800Y0482122D01*
X0220800Y0480523D02*
X0295400Y0480523D01*
X0295400Y0478925D02*
X0219286Y0478925D01*
X0217687Y0477326D02*
X0295400Y0477326D01*
X0295400Y0475727D02*
X0216089Y0475727D01*
X0207511Y0475727D02*
X0196089Y0475727D01*
X0195528Y0475167D02*
X0200800Y0480439D01*
X0200800Y0487895D01*
X0195528Y0493167D01*
X0188072Y0493167D01*
X0182800Y0487895D01*
X0182800Y0480439D01*
X0188072Y0475167D01*
X0195528Y0475167D01*
X0197687Y0477326D02*
X0205913Y0477326D01*
X0204314Y0478925D02*
X0199286Y0478925D01*
X0200800Y0480523D02*
X0202800Y0480523D01*
X0202800Y0482122D02*
X0200800Y0482122D01*
X0200800Y0483720D02*
X0202800Y0483720D01*
X0202800Y0485319D02*
X0200800Y0485319D01*
X0200800Y0486917D02*
X0202800Y0486917D01*
X0203421Y0488516D02*
X0200179Y0488516D01*
X0198580Y0490114D02*
X0205020Y0490114D01*
X0206618Y0491713D02*
X0196982Y0491713D01*
X0186618Y0491713D02*
X0048064Y0491713D01*
X0046465Y0490114D02*
X0185020Y0490114D01*
X0183421Y0488516D02*
X0044867Y0488516D01*
X0043268Y0486917D02*
X0182800Y0486917D01*
X0182800Y0485319D02*
X0041670Y0485319D01*
X0040071Y0483720D02*
X0182800Y0483720D01*
X0182800Y0482122D02*
X0038473Y0482122D01*
X0036874Y0480523D02*
X0182800Y0480523D01*
X0184314Y0478925D02*
X0036500Y0478925D01*
X0036500Y0477326D02*
X0185913Y0477326D01*
X0187511Y0475727D02*
X0036500Y0475727D01*
X0036500Y0474129D02*
X0295400Y0474129D01*
X0295400Y0472530D02*
X0036500Y0472530D01*
X0036500Y0470932D02*
X0295400Y0470932D01*
X0295400Y0469333D02*
X0036500Y0469333D01*
X0036500Y0467735D02*
X0295400Y0467735D01*
X0295400Y0466136D02*
X0036500Y0466136D01*
X0036500Y0464538D02*
X0295400Y0464538D01*
X0295400Y0462939D02*
X0235755Y0462939D01*
X0235528Y0463167D02*
X0228072Y0463167D01*
X0222800Y0457895D01*
X0222800Y0450439D01*
X0228072Y0445167D01*
X0235528Y0445167D01*
X0240800Y0450439D01*
X0240800Y0457895D01*
X0235528Y0463167D01*
X0237354Y0461341D02*
X0295400Y0461341D01*
X0295400Y0459742D02*
X0238952Y0459742D01*
X0240551Y0458144D02*
X0295400Y0458144D01*
X0295400Y0456545D02*
X0240800Y0456545D01*
X0240800Y0454947D02*
X0295400Y0454947D01*
X0295400Y0453348D02*
X0240800Y0453348D01*
X0240800Y0451750D02*
X0295400Y0451750D01*
X0295400Y0450151D02*
X0240513Y0450151D01*
X0238914Y0448553D02*
X0295400Y0448553D01*
X0295400Y0446954D02*
X0237316Y0446954D01*
X0235717Y0445356D02*
X0295400Y0445356D01*
X0295400Y0443757D02*
X0036500Y0443757D01*
X0036500Y0442159D02*
X0295400Y0442159D01*
X0295400Y0440560D02*
X0036500Y0440560D01*
X0036500Y0438962D02*
X0295400Y0438962D01*
X0295400Y0437363D02*
X0036500Y0437363D01*
X0036500Y0435765D02*
X0295400Y0435765D01*
X0295400Y0434166D02*
X0036500Y0434166D01*
X0036500Y0432568D02*
X0158081Y0432568D01*
X0155675Y0430969D02*
X0036500Y0430969D01*
X0036500Y0429371D02*
X0154131Y0429371D01*
X0153469Y0427772D02*
X0036500Y0427772D01*
X0036500Y0426174D02*
X0152807Y0426174D01*
X0152800Y0424575D02*
X0036500Y0424575D01*
X0036500Y0422977D02*
X0152800Y0422977D01*
X0152217Y0421378D02*
X0036500Y0421378D01*
X0036500Y0419780D02*
X0152100Y0419780D01*
X0165519Y0432568D02*
X0168081Y0432568D01*
X0175519Y0432568D02*
X0178081Y0432568D01*
X0185519Y0432568D02*
X0188081Y0432568D01*
X0195519Y0432568D02*
X0198081Y0432568D01*
X0205519Y0432568D02*
X0208081Y0432568D01*
X0215519Y0432568D02*
X0218081Y0432568D01*
X0225519Y0432568D02*
X0228081Y0432568D01*
X0235519Y0432568D02*
X0295400Y0432568D01*
X0295400Y0430969D02*
X0237925Y0430969D01*
X0239469Y0429371D02*
X0295400Y0429371D01*
X0295400Y0427772D02*
X0240131Y0427772D01*
X0240793Y0426174D02*
X0295400Y0426174D01*
X0295400Y0424575D02*
X0240800Y0424575D01*
X0240800Y0422977D02*
X0295400Y0422977D01*
X0295400Y0421378D02*
X0240800Y0421378D01*
X0240800Y0419780D02*
X0295400Y0419780D01*
X0295400Y0418181D02*
X0240800Y0418181D01*
X0240471Y0416583D02*
X0295400Y0416583D01*
X0295400Y0414984D02*
X0239809Y0414984D01*
X0230074Y0403794D02*
X0291800Y0403794D01*
X0291800Y0402196D02*
X0228547Y0402196D01*
X0226459Y0400597D02*
X0291800Y0400597D01*
X0228160Y0397400D02*
X0225963Y0397400D01*
X0217637Y0397400D02*
X0215440Y0397400D01*
X0208160Y0397400D02*
X0205963Y0397400D01*
X0197637Y0397400D02*
X0195440Y0397400D01*
X0188160Y0397400D02*
X0185963Y0397400D01*
X0177637Y0397400D02*
X0175440Y0397400D01*
X0168160Y0397400D02*
X0165963Y0397400D01*
X0168072Y0445167D02*
X0175528Y0445167D01*
X0180800Y0450439D01*
X0180800Y0457895D01*
X0175528Y0463167D01*
X0168072Y0463167D01*
X0162800Y0457895D01*
X0162800Y0450439D01*
X0168072Y0445167D01*
X0167883Y0445356D02*
X0036500Y0445356D01*
X0036500Y0446954D02*
X0166284Y0446954D01*
X0164686Y0448553D02*
X0036500Y0448553D01*
X0036500Y0450151D02*
X0163087Y0450151D01*
X0162800Y0451750D02*
X0036500Y0451750D01*
X0036500Y0453348D02*
X0162800Y0453348D01*
X0162800Y0454947D02*
X0036500Y0454947D01*
X0036500Y0456545D02*
X0162800Y0456545D01*
X0163049Y0458144D02*
X0036500Y0458144D01*
X0036500Y0459742D02*
X0164648Y0459742D01*
X0166246Y0461341D02*
X0036500Y0461341D01*
X0036500Y0462939D02*
X0167845Y0462939D01*
X0175755Y0462939D02*
X0227845Y0462939D01*
X0226246Y0461341D02*
X0177354Y0461341D01*
X0178952Y0459742D02*
X0224648Y0459742D01*
X0223049Y0458144D02*
X0180551Y0458144D01*
X0180800Y0456545D02*
X0222800Y0456545D01*
X0222800Y0454947D02*
X0180800Y0454947D01*
X0180800Y0453348D02*
X0222800Y0453348D01*
X0222800Y0451750D02*
X0180800Y0451750D01*
X0180513Y0450151D02*
X0223087Y0450151D01*
X0224686Y0448553D02*
X0178914Y0448553D01*
X0177316Y0446954D02*
X0226284Y0446954D01*
X0227883Y0445356D02*
X0175717Y0445356D01*
X0212948Y0510895D02*
X0295400Y0510895D01*
X0295400Y0512493D02*
X0215455Y0512493D01*
X0217039Y0514092D02*
X0295400Y0514092D01*
X0295400Y0515690D02*
X0217702Y0515690D01*
X0218364Y0517289D02*
X0295400Y0517289D01*
X0295400Y0518887D02*
X0218400Y0518887D01*
X0218400Y0520486D02*
X0295400Y0520486D01*
X0295400Y0522084D02*
X0217933Y0522084D01*
X0217271Y0523683D02*
X0295400Y0523683D01*
X0295400Y0525281D02*
X0217532Y0525281D01*
X0218194Y0526880D02*
X0295400Y0526880D01*
X0295400Y0528478D02*
X0218400Y0528478D01*
X0218400Y0530077D02*
X0295400Y0530077D01*
X0295400Y0531675D02*
X0218102Y0531675D01*
X0217440Y0533274D02*
X0295400Y0533274D01*
X0295400Y0534872D02*
X0217363Y0534872D01*
X0218025Y0536471D02*
X0295400Y0536471D01*
X0295400Y0538069D02*
X0218400Y0538069D01*
X0218400Y0539668D02*
X0295400Y0539668D01*
X0295400Y0541266D02*
X0218272Y0541266D01*
X0217610Y0542865D02*
X0295400Y0542865D01*
X0295400Y0544463D02*
X0216831Y0544463D01*
X0215233Y0546062D02*
X0295400Y0546062D01*
X0295400Y0547661D02*
X0212412Y0547661D01*
X0201500Y0549259D02*
X0295400Y0549259D01*
X0295400Y0550858D02*
X0286003Y0550858D01*
X0285676Y0550669D02*
X0288024Y0552025D01*
X0289942Y0553942D01*
X0291298Y0556291D01*
X0292000Y0558911D01*
X0292000Y0569423D01*
X0291298Y0572042D01*
X0289942Y0574391D01*
X0288024Y0576309D01*
X0285676Y0577665D01*
X0283056Y0578367D01*
X0280344Y0578367D01*
X0277724Y0577665D01*
X0275376Y0576309D01*
X0273458Y0574391D01*
X0272102Y0572042D01*
X0271850Y0571102D01*
X0271598Y0572042D01*
X0270242Y0574391D01*
X0268324Y0576309D01*
X0265976Y0577665D01*
X0263356Y0578367D01*
X0260644Y0578367D01*
X0258024Y0577665D01*
X0255676Y0576309D01*
X0253758Y0574391D01*
X0252402Y0572042D01*
X0251700Y0569423D01*
X0251700Y0558911D01*
X0252402Y0556291D01*
X0253758Y0553942D01*
X0255676Y0552025D01*
X0258024Y0550669D01*
X0260644Y0549967D01*
X0263356Y0549967D01*
X0265976Y0550669D01*
X0268324Y0552025D01*
X0270242Y0553942D01*
X0271598Y0556291D01*
X0271850Y0557231D01*
X0272102Y0556291D01*
X0273458Y0553942D01*
X0275376Y0552025D01*
X0277724Y0550669D01*
X0280344Y0549967D01*
X0283056Y0549967D01*
X0285676Y0550669D01*
X0288456Y0552456D02*
X0295400Y0552456D01*
X0295400Y0554055D02*
X0290007Y0554055D01*
X0290930Y0555653D02*
X0295400Y0555653D01*
X0295400Y0557252D02*
X0291555Y0557252D01*
X0291984Y0558850D02*
X0295400Y0558850D01*
X0295400Y0560449D02*
X0292000Y0560449D01*
X0292000Y0562047D02*
X0295400Y0562047D01*
X0295400Y0563646D02*
X0292000Y0563646D01*
X0292000Y0565244D02*
X0295400Y0565244D01*
X0295400Y0566843D02*
X0292000Y0566843D01*
X0292000Y0568441D02*
X0295400Y0568441D01*
X0295400Y0570040D02*
X0291835Y0570040D01*
X0291406Y0571638D02*
X0295400Y0571638D01*
X0295400Y0573237D02*
X0290608Y0573237D01*
X0289498Y0574835D02*
X0295400Y0574835D01*
X0295400Y0576434D02*
X0287808Y0576434D01*
X0284304Y0578032D02*
X0295400Y0578032D01*
X0295400Y0579631D02*
X0218400Y0579631D01*
X0218400Y0578032D02*
X0259396Y0578032D01*
X0255892Y0576434D02*
X0218009Y0576434D01*
X0217347Y0574835D02*
X0254202Y0574835D01*
X0253092Y0573237D02*
X0217456Y0573237D01*
X0218118Y0571638D02*
X0252294Y0571638D01*
X0251865Y0570040D02*
X0218400Y0570040D01*
X0218400Y0568441D02*
X0251700Y0568441D01*
X0251700Y0566843D02*
X0218179Y0566843D01*
X0217517Y0565244D02*
X0251700Y0565244D01*
X0251700Y0563646D02*
X0216607Y0563646D01*
X0215008Y0562047D02*
X0251700Y0562047D01*
X0251700Y0560449D02*
X0211871Y0560449D01*
X0201729Y0560449D02*
X0201500Y0560449D01*
X0201500Y0558850D02*
X0251716Y0558850D01*
X0252145Y0557252D02*
X0201500Y0557252D01*
X0201500Y0555653D02*
X0252770Y0555653D01*
X0253693Y0554055D02*
X0201500Y0554055D01*
X0201500Y0552456D02*
X0255244Y0552456D01*
X0257697Y0550858D02*
X0201500Y0550858D01*
X0182100Y0550858D02*
X0107209Y0550858D01*
X0108807Y0552456D02*
X0182100Y0552456D01*
X0182100Y0554055D02*
X0110406Y0554055D01*
X0112004Y0555653D02*
X0182100Y0555653D01*
X0182100Y0557252D02*
X0113603Y0557252D01*
X0115201Y0558850D02*
X0182100Y0558850D01*
X0182100Y0560449D02*
X0181871Y0560449D01*
X0171729Y0560449D02*
X0116800Y0560449D01*
X0118398Y0562047D02*
X0168592Y0562047D01*
X0166993Y0563646D02*
X0119997Y0563646D01*
X0121595Y0565244D02*
X0166083Y0565244D01*
X0165421Y0566843D02*
X0123194Y0566843D01*
X0124792Y0568441D02*
X0165200Y0568441D01*
X0165200Y0570040D02*
X0126391Y0570040D01*
X0127989Y0571638D02*
X0165482Y0571638D01*
X0166144Y0573237D02*
X0129588Y0573237D01*
X0131186Y0574835D02*
X0166253Y0574835D01*
X0165590Y0576434D02*
X0132785Y0576434D01*
X0134383Y0578032D02*
X0165200Y0578032D01*
X0171188Y0547661D02*
X0104012Y0547661D01*
X0105610Y0549259D02*
X0182100Y0549259D01*
X0168367Y0546062D02*
X0102413Y0546062D01*
X0100815Y0544463D02*
X0166769Y0544463D01*
X0165990Y0542865D02*
X0099216Y0542865D01*
X0062782Y0555653D02*
X0050918Y0555653D01*
X0053551Y0557252D02*
X0060149Y0557252D01*
X0058550Y0558850D02*
X0055150Y0558850D01*
X0056112Y0560449D02*
X0057588Y0560449D01*
X0056899Y0562047D02*
X0056801Y0562047D01*
X0056761Y0576434D02*
X0056939Y0576434D01*
X0057673Y0578032D02*
X0056027Y0578032D01*
X0055002Y0579631D02*
X0058698Y0579631D01*
X0060296Y0581229D02*
X0053404Y0581229D01*
X0050367Y0582828D02*
X0063333Y0582828D01*
X0114940Y0586025D02*
X0008200Y0586025D01*
X0008200Y0587623D02*
X0116539Y0587623D01*
X0118137Y0589222D02*
X0008200Y0589222D01*
X0008200Y0590820D02*
X0119736Y0590820D01*
X0121334Y0592419D02*
X0008200Y0592419D01*
X0218287Y0581229D02*
X0295400Y0581229D01*
X0295400Y0582828D02*
X0219179Y0582828D01*
X0220336Y0584426D02*
X0295400Y0584426D01*
X0295400Y0586025D02*
X0220998Y0586025D01*
X0221500Y0587623D02*
X0295400Y0587623D01*
X0295400Y0589222D02*
X0221500Y0589222D01*
X0221500Y0590820D02*
X0295400Y0590820D01*
X0295400Y0592419D02*
X0220952Y0592419D01*
X0264604Y0578032D02*
X0279096Y0578032D01*
X0275592Y0576434D02*
X0268108Y0576434D01*
X0269798Y0574835D02*
X0273902Y0574835D01*
X0272792Y0573237D02*
X0270908Y0573237D01*
X0271706Y0571638D02*
X0271994Y0571638D01*
X0272470Y0555653D02*
X0271230Y0555653D01*
X0270307Y0554055D02*
X0273393Y0554055D01*
X0274944Y0552456D02*
X0268756Y0552456D01*
X0266303Y0550858D02*
X0277397Y0550858D01*
X0212600Y0350167D02*
X0212600Y0306437D01*
X0212431Y0306030D01*
X0212431Y0303535D01*
X0211168Y0303535D01*
X0211168Y0306030D01*
X0211000Y0306437D01*
X0211000Y0350167D01*
X0212600Y0350167D01*
X0212600Y0349445D02*
X0211000Y0349445D01*
X0211000Y0347847D02*
X0212600Y0347847D01*
X0212600Y0346248D02*
X0211000Y0346248D01*
X0211000Y0344650D02*
X0212600Y0344650D01*
X0212600Y0343051D02*
X0211000Y0343051D01*
X0211000Y0341453D02*
X0212600Y0341453D01*
X0212600Y0339854D02*
X0211000Y0339854D01*
X0211000Y0338256D02*
X0212600Y0338256D01*
X0212600Y0336657D02*
X0211000Y0336657D01*
X0211000Y0335059D02*
X0212600Y0335059D01*
X0212600Y0333460D02*
X0211000Y0333460D01*
X0211000Y0331861D02*
X0212600Y0331861D01*
X0212600Y0330263D02*
X0211000Y0330263D01*
X0211000Y0328664D02*
X0212600Y0328664D01*
X0212600Y0327066D02*
X0211000Y0327066D01*
X0211000Y0325467D02*
X0212600Y0325467D01*
X0212600Y0323869D02*
X0211000Y0323869D01*
X0211000Y0322270D02*
X0212600Y0322270D01*
X0212600Y0320672D02*
X0211000Y0320672D01*
X0211000Y0319073D02*
X0212600Y0319073D01*
X0212600Y0317475D02*
X0211000Y0317475D01*
X0211000Y0315876D02*
X0212600Y0315876D01*
X0212600Y0314278D02*
X0211000Y0314278D01*
X0211000Y0312679D02*
X0212600Y0312679D01*
X0212600Y0311081D02*
X0211000Y0311081D01*
X0211000Y0309482D02*
X0212600Y0309482D01*
X0212600Y0307884D02*
X0211000Y0307884D01*
X0211063Y0306285D02*
X0212537Y0306285D01*
X0212431Y0304687D02*
X0211168Y0304687D01*
X0192431Y0294798D02*
X0192431Y0292303D01*
X0192600Y0291896D01*
X0192600Y0282337D01*
X0193278Y0280699D01*
X0191000Y0282977D01*
X0191000Y0291896D01*
X0191168Y0292303D01*
X0191168Y0294798D01*
X0192431Y0294798D01*
X0192431Y0293497D02*
X0191168Y0293497D01*
X0191001Y0291899D02*
X0192599Y0291899D01*
X0192600Y0290300D02*
X0191000Y0290300D01*
X0191000Y0288702D02*
X0192600Y0288702D01*
X0192600Y0287103D02*
X0191000Y0287103D01*
X0191000Y0285505D02*
X0192600Y0285505D01*
X0192600Y0283906D02*
X0191000Y0283906D01*
X0191670Y0282308D02*
X0192612Y0282308D01*
X0193268Y0280709D02*
X0193274Y0280709D01*
X0163478Y0270216D02*
X0160528Y0273167D01*
X0158811Y0273167D01*
X0159599Y0273955D01*
X0161000Y0277337D01*
X0161000Y0291896D01*
X0161168Y0292303D01*
X0161168Y0294798D01*
X0162431Y0294798D01*
X0162431Y0292303D01*
X0162600Y0291896D01*
X0162600Y0272337D01*
X0163478Y0270216D01*
X0163105Y0271118D02*
X0162577Y0271118D01*
X0162600Y0272717D02*
X0160978Y0272717D01*
X0159748Y0274315D02*
X0162600Y0274315D01*
X0162600Y0275914D02*
X0160411Y0275914D01*
X0161000Y0277512D02*
X0162600Y0277512D01*
X0162600Y0279111D02*
X0161000Y0279111D01*
X0161000Y0280709D02*
X0162600Y0280709D01*
X0162600Y0282308D02*
X0161000Y0282308D01*
X0161000Y0283906D02*
X0162600Y0283906D01*
X0162600Y0285505D02*
X0161000Y0285505D01*
X0161000Y0287103D02*
X0162600Y0287103D01*
X0162600Y0288702D02*
X0161000Y0288702D01*
X0161000Y0290300D02*
X0162600Y0290300D01*
X0162599Y0291899D02*
X0161001Y0291899D01*
X0161168Y0293497D02*
X0162431Y0293497D01*
X0171505Y0165616D02*
X0173441Y0165616D01*
X0180159Y0165616D02*
X0182095Y0165616D01*
X0191505Y0165616D02*
X0193441Y0165616D01*
X0200159Y0165616D02*
X0202095Y0165616D01*
X0211505Y0165616D02*
X0213441Y0165616D01*
X0400996Y0202382D02*
X0426257Y0202382D01*
X0505554Y0191192D02*
X0516046Y0191192D01*
X0514448Y0192791D02*
X0507152Y0192791D01*
X0508751Y0194390D02*
X0512849Y0194390D01*
X0511800Y0195988D02*
X0509800Y0195988D01*
X0509800Y0197587D02*
X0511800Y0197587D01*
X0511800Y0199185D02*
X0509800Y0199185D01*
X0509800Y0200784D02*
X0511800Y0200784D01*
X0511800Y0202382D02*
X0509800Y0202382D01*
D23*
X0615800Y0258167D02*
X0650800Y0293167D01*
X0226800Y0189167D02*
X0226800Y0174167D01*
X0226800Y0189167D02*
X0206800Y0189167D01*
X0206800Y0174167D01*
X0186800Y0174167D02*
X0186800Y0189167D01*
X0206800Y0189167D01*
X0186800Y0189167D02*
X0166800Y0189167D01*
X0166800Y0174167D01*
X0166800Y0189167D02*
X0026800Y0189167D01*
X0026800Y0409167D01*
X0026800Y0484167D01*
X0131800Y0589167D01*
X0176800Y0589167D01*
X0191800Y0589167D01*
X0191800Y0519167D01*
X0176800Y0519167D01*
X0191800Y0519167D02*
X0206800Y0519167D01*
X0211800Y0589167D02*
X0191800Y0589167D01*
X0181800Y0419167D02*
X0181800Y0409167D01*
X0201800Y0409167D01*
X0221800Y0409167D01*
X0221800Y0419167D01*
X0201800Y0419167D02*
X0201800Y0409167D01*
X0181800Y0409167D02*
X0161800Y0409167D01*
X0026800Y0409167D01*
X0161800Y0409167D02*
X0161800Y0419167D01*
X0026800Y0189167D02*
X0026800Y0154067D01*
D24*
X0071800Y0064167D02*
X0171800Y0064167D01*
X0201800Y0064167D02*
X0266800Y0064167D01*
X0286800Y0044167D01*
X0286800Y0034367D01*
X0286600Y0034167D01*
X0266900Y0034167D02*
X0201800Y0034167D01*
X0171800Y0034167D02*
X0071600Y0034167D01*
X0051900Y0034167D02*
X0051900Y0044267D01*
X0071800Y0064167D01*
X0166800Y0209167D02*
X0166800Y0239167D01*
X0146800Y0259167D01*
X0146800Y0274167D01*
X0151800Y0279167D01*
X0151800Y0294167D01*
X0171800Y0294167D02*
X0171800Y0274167D01*
X0186800Y0259167D01*
X0186800Y0209167D01*
X0206800Y0209167D02*
X0206800Y0254167D01*
X0181800Y0279167D01*
X0181800Y0294167D01*
X0181800Y0304167D02*
X0181800Y0334167D01*
X0161800Y0354167D01*
X0161800Y0389167D01*
X0181800Y0389167D02*
X0181800Y0349167D01*
X0191800Y0339167D01*
X0191800Y0304167D01*
X0201800Y0304167D02*
X0201800Y0389167D01*
X0221800Y0389167D02*
X0221800Y0304167D01*
X0201800Y0294167D02*
X0201800Y0284167D01*
X0206800Y0279167D01*
X0221800Y0279167D01*
X0226800Y0274167D01*
X0226800Y0209167D01*
D25*
X0518000Y0274967D02*
X0567800Y0225167D01*
X0567800Y0199167D01*
X0571800Y0195167D01*
X0518000Y0274967D02*
X0518000Y0325867D01*
D26*
X0615800Y0258167D03*
X0650800Y0293167D03*
M02*
