%
M48
M72
T01C0.02362
T02C0.03200
T03C0.03600
T04C0.03937
T05C0.04000
T06C0.04724
T07C0.05000
T08C0.05500
T09C0.06693
T10C0.07000
T11C0.07874
T12C0.12598
T13C0.14950
%
T01
X195800Y138800
X777550Y370050
X799300Y283300
X801800Y266800
X841300Y241300
X843800Y224800
X843800Y136300
X811300Y121800
X986300Y356300
X783300Y475800
X779999Y485601
T02
X758300Y448800
X738300Y448800
X756300Y429800
X737300Y420800
X727300Y420800
X717300Y420800
X707300Y420800
X763300Y405800
X737300Y390800
X727300Y390800
X717300Y390800
X707300Y390800
X675800Y356300
X627300Y339800
X631300Y319800
X651300Y319800
X675800Y306300
X707300Y321300
X717300Y321300
X727300Y321300
X737300Y321300
X747300Y321300
X789300Y312800
X799300Y312800
X809300Y312800
X819300Y312800
X829300Y312800
X829300Y342800
X819300Y342800
X809300Y342800
X799300Y342800
X789300Y342800
X763300Y355800
X832300Y370300
X852300Y370300
X883300Y383800
X863300Y394800
X853300Y394800
X843300Y394800
X833300Y394800
X833300Y424800
X843300Y424800
X853300Y424800
X863300Y424800
X903800Y419800
X923800Y411800
X962300Y439300
X982300Y439300
X923800Y461800
X869800Y460300
X869800Y445800
X819800Y445800
X806300Y429800
X903800Y369800
X883300Y333800
X877800Y294800
X877800Y275300
X888800Y254300
X908800Y254300
X927800Y275300
X927800Y294800
X960800Y294800
X960800Y284800
X960800Y304800
X990800Y304800
X990800Y294800
X990800Y284800
X1011300Y241300
X1011300Y221300
X853800Y196300
X843800Y196300
X833800Y196300
X823800Y196300
X823800Y166300
X833800Y166300
X843800Y166300
X853800Y166300
X771300Y235800
X771300Y266800
X747300Y291300
X737300Y291300
X727300Y291300
X717300Y291300
X707300Y291300
X721300Y266800
X721300Y251800
X701300Y251800
X721300Y235800
X685800Y196300
X665800Y196300
X665800Y166300
X675800Y166300
X685800Y166300
X675800Y143800
X725800Y143800
X441800Y147800
X441800Y107800
X261800Y92800
X221800Y92800
X196800Y92800
X196800Y82800
X166800Y82800
X166800Y92800
X166800Y102800
X166800Y112800
X196800Y112800
X196800Y102800
X144800Y143800
X104800Y143800
X57800Y131800
X17800Y131800
X181800Y47800
X221800Y47800
X221800Y147800
X261800Y147800
X391800Y222800
X354300Y242800
X346800Y237800
X346800Y247800
X301800Y237800
X301800Y277800
X262800Y289800
X262800Y299800
X232800Y299800
X232800Y289800
X301800Y312800
X341800Y312800
X391800Y262800
X336800Y372800
X391800Y377800
X399300Y382800
X391800Y387800
X441800Y377800
X441800Y417800
X401800Y452800
X361800Y452800
X336800Y412800
X116800Y297800
X116800Y237800
X627300Y389800
X869800Y510300
T03
X261800Y497800
X261800Y467800
X241800Y407800
X241800Y377800
X76800Y302800
X76800Y272800
X61800Y203800
X61800Y173800
X132800Y77800
X132800Y47800
T04
X161800Y177800
X171800Y177800
X181800Y177800
X241800Y177800
X261800Y177800
X261800Y237800
X241800Y237800
X181800Y237800
X171800Y237800
T05
X371800Y312800
X381800Y312800
X391800Y312800
X441800Y337800
X441800Y277800
X441800Y242800
X441800Y182800
X708800Y91300
X718800Y91300
X728800Y91300
X738800Y91300
X748800Y91300
X758800Y91300
X768800Y91300
X778800Y91300
X788800Y91300
X798800Y91300
X808800Y91300
X818800Y91300
X828800Y91300
X838800Y91300
X848800Y91300
X858800Y91300
X868800Y91300
X863800Y51800
X853800Y51800
X853800Y41800
X863800Y41800
X873800Y41800
X873800Y51800
X868800Y31300
X858800Y31300
X848800Y31300
X838800Y31300
X828800Y31300
X818800Y31300
X808800Y31300
X798800Y31300
X788800Y31300
X778800Y31300
X768800Y31300
X758800Y31300
X748800Y31300
X738800Y31300
X728800Y31300
X718800Y31300
X708800Y31300
X916800Y219300
X936800Y229300
X886800Y229300
X811300Y475800
X811300Y485800
X811300Y495800
X679800Y495300
X679800Y485300
X679800Y475300
X441800Y452800
X431800Y452800
X421800Y452800
X336800Y437800
X336800Y497800
X967300Y495800
X967300Y485800
X967300Y475800
T06
X878800Y91300
X878800Y31300
X698800Y31300
X698800Y91300
T07
X1019100Y298700
T08
X541800Y272800
X501800Y272800
X501800Y212800
X541800Y212800
X541800Y152800
X501800Y152800
X541800Y92800
X541800Y332800
X501800Y332800
X501800Y392800
X541800Y392800
X501800Y452800
T09
X718914Y538300
X734505Y538300
X750095Y538300
X765686Y538300
X838414Y539300
X854005Y539300
X869595Y539300
X885186Y539300
X1017300Y456186
X1017300Y440595
X1017300Y425005
X1017300Y409414
X665300Y278095
X665300Y262505
X26800Y251776
X26800Y236186
X26800Y220595
X26800Y205005
X26800Y189414
X26800Y173824
T10
X1009061Y288661
X1029139Y288661
X1029139Y308739
X1009061Y308739
T11
X541800Y497800
X524800Y497800
X83500Y479300
X61800Y479300
X61800Y462800
X83500Y462800
X78500Y87300
X56800Y87300
X56800Y70800
X78500Y70800
T12
X28100Y70800
X28100Y87300
X33100Y462800
X33100Y479300
X570500Y497800
T13
X672800Y525300
X976800Y525300
X976300Y27800
X672300Y27800
M30
