G75*
%MOIN*%
%OFA0B0*%
%FSLAX25Y25*%
%IPPOS*%
%LPD*%
%AMOC8*
5,1,8,0,0,1.08239X$1,22.5*
%
%ADD10C,0.15750*%
%ADD11C,0.08674*%
%ADD12C,0.10839*%
%ADD13C,0.08300*%
%ADD14C,0.11300*%
%ADD15R,0.05918X0.06706*%
%ADD16C,0.06000*%
%ADD17C,0.07887*%
%ADD18R,0.04300X0.07400*%
%ADD19R,0.13398X0.07887*%
%ADD20R,0.03950X0.06312*%
%ADD21C,0.06600*%
%ADD22R,0.03937X0.06299*%
%ADD23R,0.09461X0.07887*%
%ADD24C,0.12650*%
%ADD25R,0.10249X0.10249*%
%ADD26OC8,0.06000*%
%ADD27R,0.06706X0.05918*%
%ADD28OC8,0.06800*%
%ADD29C,0.07000*%
%ADD30C,0.05524*%
%ADD31R,0.05800X0.03300*%
%ADD32OC8,0.07000*%
%ADD33OC8,0.06400*%
%ADD34C,0.06800*%
%ADD35R,0.04343X0.03950*%
%ADD36R,0.07800X0.17300*%
%ADD37R,0.11300X0.17300*%
%ADD38C,0.08600*%
%ADD39R,0.03950X0.04343*%
%ADD40R,0.06300X0.14800*%
%ADD41R,0.04762X0.04762*%
D10*
X0028800Y0019800D03*
X0376800Y0026800D03*
X0441800Y0026800D03*
X0745800Y0026800D03*
X0746300Y0524300D03*
X0442300Y0524300D03*
X0376800Y0626800D03*
X0024800Y0628800D03*
D11*
X0816800Y0461800D03*
X0826800Y0296800D03*
X0816800Y0176800D03*
X0826800Y0011800D03*
D12*
X0463820Y0287005D02*
X0453780Y0287005D01*
X0453780Y0302595D02*
X0463820Y0302595D01*
X0727414Y0347780D02*
X0727414Y0357820D01*
X0743005Y0357820D02*
X0743005Y0347780D01*
X0758595Y0347780D02*
X0758595Y0357820D01*
X0774186Y0357820D02*
X0774186Y0347780D01*
X0654686Y0533280D02*
X0654686Y0543320D01*
X0639095Y0543320D02*
X0639095Y0533280D01*
X0623505Y0533280D02*
X0623505Y0543320D01*
X0607914Y0543320D02*
X0607914Y0533280D01*
X0535186Y0532280D02*
X0535186Y0542320D01*
X0519595Y0542320D02*
X0519595Y0532280D01*
X0504005Y0532280D02*
X0504005Y0542320D01*
X0488414Y0542320D02*
X0488414Y0532280D01*
X0098820Y0603005D02*
X0088780Y0603005D01*
X0088780Y0618595D02*
X0098820Y0618595D01*
X0033820Y0607595D02*
X0023780Y0607595D01*
X0023780Y0592005D02*
X0033820Y0592005D01*
D13*
X0042800Y0232800D03*
X0765600Y0298700D03*
D14*
X0755561Y0288661D03*
X0775639Y0288661D03*
X0775639Y0308739D03*
X0755561Y0308739D03*
X0052839Y0242839D03*
X0052839Y0222761D03*
X0032761Y0222761D03*
X0032761Y0242839D03*
D15*
X0151060Y0247800D03*
X0158540Y0247800D03*
X0174060Y0247800D03*
X0181540Y0247800D03*
X0223060Y0216800D03*
X0230540Y0216800D03*
X0263060Y0232800D03*
X0270540Y0232800D03*
X0232540Y0276800D03*
X0225060Y0276800D03*
X0263060Y0295800D03*
X0270540Y0295800D03*
X0270540Y0316800D03*
X0263060Y0316800D03*
X0234540Y0335800D03*
X0227060Y0335800D03*
X0261060Y0386800D03*
X0268540Y0386800D03*
X0233540Y0403800D03*
X0226060Y0403800D03*
X0187540Y0447800D03*
X0180060Y0447800D03*
X0163540Y0447800D03*
X0156060Y0447800D03*
X0227060Y0475800D03*
X0234540Y0475800D03*
X0260060Y0457800D03*
X0267540Y0457800D03*
X0269540Y0531800D03*
X0262060Y0531800D03*
X0234540Y0550800D03*
X0227060Y0550800D03*
X0183540Y0583800D03*
X0176060Y0583800D03*
X0163540Y0583800D03*
X0156060Y0583800D03*
X0261060Y0169800D03*
X0268540Y0169800D03*
X0228540Y0142800D03*
X0221060Y0142800D03*
X0182540Y0113800D03*
X0175060Y0113800D03*
X0158540Y0113800D03*
X0151060Y0113800D03*
X0221060Y0081800D03*
X0228540Y0081800D03*
X0261060Y0106800D03*
X0268540Y0106800D03*
D16*
X0091400Y0283800D02*
X0086200Y0283800D01*
X0086200Y0293800D02*
X0091400Y0293800D01*
X0091400Y0303800D02*
X0086200Y0303800D01*
X0086200Y0313800D02*
X0091400Y0313800D01*
X0061400Y0313800D02*
X0056200Y0313800D01*
X0056200Y0303800D02*
X0061400Y0303800D01*
X0061400Y0293800D02*
X0056200Y0293800D01*
X0056200Y0283800D02*
X0061400Y0283800D01*
X0056400Y0568800D02*
X0051200Y0568800D01*
X0091200Y0568800D02*
X0096400Y0568800D01*
X0476800Y0422400D02*
X0476800Y0417200D01*
X0486800Y0417200D02*
X0486800Y0422400D01*
X0496800Y0422400D02*
X0496800Y0417200D01*
X0506800Y0417200D02*
X0506800Y0422400D01*
X0506800Y0392400D02*
X0506800Y0387200D01*
X0496800Y0387200D02*
X0496800Y0392400D01*
X0486800Y0392400D02*
X0486800Y0387200D01*
X0476800Y0387200D02*
X0476800Y0392400D01*
X0512800Y0319400D02*
X0512800Y0314200D01*
X0522800Y0314200D02*
X0522800Y0319400D01*
X0532800Y0319400D02*
X0532800Y0314200D01*
X0542800Y0314200D02*
X0542800Y0319400D01*
X0552800Y0319400D02*
X0552800Y0314200D01*
X0552800Y0289400D02*
X0552800Y0284200D01*
X0542800Y0284200D02*
X0542800Y0289400D01*
X0532800Y0289400D02*
X0532800Y0284200D01*
X0522800Y0284200D02*
X0522800Y0289400D01*
X0512800Y0289400D02*
X0512800Y0284200D01*
X0593300Y0197900D02*
X0593300Y0192700D01*
X0603300Y0192700D02*
X0603300Y0197900D01*
X0613300Y0197900D02*
X0613300Y0192700D01*
X0623300Y0192700D02*
X0623300Y0197900D01*
X0623300Y0167900D02*
X0623300Y0162700D01*
X0613300Y0162700D02*
X0613300Y0167900D01*
X0603300Y0167900D02*
X0603300Y0162700D01*
X0593300Y0162700D02*
X0593300Y0167900D01*
X0703700Y0278800D02*
X0708900Y0278800D01*
X0708900Y0288800D02*
X0703700Y0288800D01*
X0703700Y0298800D02*
X0708900Y0298800D01*
X0733700Y0298800D02*
X0738900Y0298800D01*
X0738900Y0288800D02*
X0733700Y0288800D01*
X0733700Y0278800D02*
X0738900Y0278800D01*
X0632800Y0391200D02*
X0632800Y0396400D01*
X0622800Y0396400D02*
X0622800Y0391200D01*
X0612800Y0391200D02*
X0612800Y0396400D01*
X0602800Y0396400D02*
X0602800Y0391200D01*
X0602800Y0421200D02*
X0602800Y0426400D01*
X0612800Y0426400D02*
X0612800Y0421200D01*
X0622800Y0421200D02*
X0622800Y0426400D01*
X0632800Y0426400D02*
X0632800Y0421200D01*
D17*
X0088800Y0467800D03*
X0088800Y0487800D03*
X0088800Y0507800D03*
X0058800Y0507800D03*
X0058800Y0487800D03*
X0058800Y0467800D03*
X0058800Y0537800D03*
X0088800Y0537800D03*
D18*
X0200500Y0555250D03*
X0207800Y0555250D03*
X0215100Y0555250D03*
X0215100Y0584350D03*
X0207800Y0584350D03*
X0200500Y0584350D03*
X0200500Y0447350D03*
X0207800Y0447350D03*
X0215100Y0447350D03*
X0215100Y0418250D03*
X0207800Y0418250D03*
X0200500Y0418250D03*
X0202800Y0276350D03*
X0195500Y0276350D03*
X0210100Y0276350D03*
X0210100Y0247250D03*
X0202800Y0247250D03*
X0195500Y0247250D03*
X0195500Y0143350D03*
X0202800Y0143350D03*
X0210100Y0143350D03*
X0210100Y0114250D03*
X0202800Y0114250D03*
X0195500Y0114250D03*
D19*
X0331800Y0127776D03*
X0331800Y0149824D03*
X0331800Y0189776D03*
X0331800Y0211824D03*
X0332800Y0256776D03*
X0332800Y0278824D03*
X0332800Y0347776D03*
X0332800Y0369824D03*
X0332800Y0424776D03*
X0332800Y0446824D03*
X0332800Y0491776D03*
X0332800Y0513824D03*
X0333800Y0565776D03*
X0333800Y0587824D03*
X0331800Y0082824D03*
X0331800Y0060776D03*
D20*
X0310702Y0075599D03*
X0298898Y0075599D03*
X0299898Y0140599D03*
X0311702Y0140599D03*
X0311702Y0201599D03*
X0299898Y0201599D03*
X0298898Y0270599D03*
X0310702Y0270599D03*
X0311702Y0355001D03*
X0299898Y0355001D03*
X0299898Y0430001D03*
X0311702Y0430001D03*
X0311702Y0497001D03*
X0299898Y0497001D03*
X0298898Y0573001D03*
X0310702Y0573001D03*
D21*
X0305900Y0580216D02*
X0303700Y0580216D01*
X0303700Y0588786D01*
X0305900Y0588786D01*
X0305900Y0580216D01*
X0305900Y0586815D02*
X0303700Y0586815D01*
X0304700Y0504216D02*
X0306900Y0504216D01*
X0304700Y0504216D02*
X0304700Y0512786D01*
X0306900Y0512786D01*
X0306900Y0504216D01*
X0306900Y0510815D02*
X0304700Y0510815D01*
X0304700Y0437216D02*
X0306900Y0437216D01*
X0304700Y0437216D02*
X0304700Y0445786D01*
X0306900Y0445786D01*
X0306900Y0437216D01*
X0306900Y0443815D02*
X0304700Y0443815D01*
X0304700Y0362216D02*
X0306900Y0362216D01*
X0304700Y0362216D02*
X0304700Y0370786D01*
X0306900Y0370786D01*
X0306900Y0362216D01*
X0306900Y0368815D02*
X0304700Y0368815D01*
X0303700Y0263384D02*
X0305900Y0263384D01*
X0305900Y0254814D01*
X0303700Y0254814D01*
X0303700Y0263384D01*
X0303700Y0261413D02*
X0305900Y0261413D01*
X0306900Y0194384D02*
X0304700Y0194384D01*
X0306900Y0194384D02*
X0306900Y0185814D01*
X0304700Y0185814D01*
X0304700Y0194384D01*
X0304700Y0192413D02*
X0306900Y0192413D01*
X0306900Y0133384D02*
X0304700Y0133384D01*
X0306900Y0133384D02*
X0306900Y0124814D01*
X0304700Y0124814D01*
X0304700Y0133384D01*
X0304700Y0131413D02*
X0306900Y0131413D01*
X0305900Y0068384D02*
X0303700Y0068384D01*
X0305900Y0068384D02*
X0305900Y0059814D01*
X0303700Y0059814D01*
X0303700Y0068384D01*
X0303700Y0066413D02*
X0305900Y0066413D01*
D22*
X0304800Y0075595D03*
X0305800Y0140595D03*
X0305800Y0201595D03*
X0304800Y0270595D03*
X0305800Y0355005D03*
X0305800Y0430005D03*
X0305800Y0497005D03*
X0304800Y0573005D03*
D23*
X0368800Y0553839D03*
X0368800Y0533761D03*
X0368800Y0493839D03*
X0368800Y0473761D03*
X0368800Y0433839D03*
X0368800Y0413761D03*
X0369800Y0375839D03*
X0369800Y0355761D03*
X0369800Y0294839D03*
X0369800Y0274761D03*
X0369800Y0224839D03*
X0369800Y0204761D03*
X0369800Y0160839D03*
X0369800Y0140761D03*
X0369800Y0078839D03*
X0369800Y0058761D03*
D24*
X0347800Y0038725D02*
X0347800Y0026875D01*
X0169800Y0027875D02*
X0169800Y0039725D01*
X0388800Y0315875D02*
X0388800Y0327725D01*
X0346800Y0622875D02*
X0346800Y0634725D01*
X0169800Y0636725D02*
X0169800Y0624875D01*
D25*
X0252800Y0584461D03*
X0252800Y0567139D03*
X0257139Y0550800D03*
X0274461Y0550800D03*
X0252800Y0511461D03*
X0252800Y0494139D03*
X0256139Y0476800D03*
X0273461Y0476800D03*
X0251800Y0437461D03*
X0251800Y0420139D03*
X0257139Y0403800D03*
X0274461Y0403800D03*
X0250800Y0369461D03*
X0250800Y0352139D03*
X0258139Y0335800D03*
X0275461Y0335800D03*
X0273461Y0279800D03*
X0256139Y0279800D03*
X0248800Y0263461D03*
X0248800Y0246139D03*
X0257139Y0216800D03*
X0274461Y0216800D03*
X0248800Y0202461D03*
X0248800Y0185139D03*
X0256139Y0154800D03*
X0247800Y0140461D03*
X0247800Y0123139D03*
X0256139Y0088800D03*
X0273461Y0088800D03*
X0246800Y0072461D03*
X0246800Y0055139D03*
X0273461Y0154800D03*
D26*
X0459300Y0164800D03*
X0469300Y0164800D03*
X0479300Y0164800D03*
X0469300Y0151300D03*
X0459300Y0194800D03*
X0479300Y0194800D03*
X0512800Y0234800D03*
X0512800Y0250800D03*
X0512800Y0265800D03*
X0492800Y0250800D03*
X0562800Y0265800D03*
X0562800Y0234800D03*
X0628300Y0274300D03*
X0628300Y0293800D03*
X0652800Y0332800D03*
X0673300Y0368800D03*
X0652800Y0382800D03*
X0621800Y0369300D03*
X0601800Y0369300D03*
X0532800Y0354800D03*
X0506300Y0342300D03*
X0458800Y0367800D03*
X0438800Y0367800D03*
X0438300Y0382300D03*
X0456300Y0342300D03*
X0532800Y0404800D03*
X0525800Y0428800D03*
X0527800Y0447800D03*
X0507800Y0447800D03*
X0575800Y0428800D03*
X0589300Y0444800D03*
X0639300Y0444800D03*
X0639300Y0459300D03*
X0673300Y0418800D03*
X0707800Y0402300D03*
X0727800Y0402300D03*
X0639300Y0509300D03*
X0438300Y0432300D03*
X0678300Y0293800D03*
X0678300Y0274300D03*
X0678300Y0253300D03*
X0658300Y0253300D03*
X0519300Y0151300D03*
X0028800Y0548800D03*
X0028800Y0568800D03*
D27*
X0277800Y0573060D03*
X0277800Y0580540D03*
X0278800Y0505540D03*
X0278800Y0498060D03*
X0278800Y0437540D03*
X0278800Y0430060D03*
X0280800Y0362540D03*
X0280800Y0355060D03*
X0280800Y0261540D03*
X0280800Y0254060D03*
X0283800Y0196540D03*
X0283800Y0189060D03*
X0283800Y0134540D03*
X0283800Y0127060D03*
X0283800Y0070540D03*
X0283800Y0063060D03*
D28*
X0296800Y0032800D03*
X0256800Y0032800D03*
X0258800Y0628800D03*
X0298800Y0628800D03*
D29*
X0478300Y0090300D03*
X0488300Y0090300D03*
X0498300Y0090300D03*
X0508300Y0090300D03*
X0518300Y0090300D03*
X0528300Y0090300D03*
X0538300Y0090300D03*
X0548300Y0090300D03*
X0558300Y0090300D03*
X0568300Y0090300D03*
X0578300Y0090300D03*
X0588300Y0090300D03*
X0598300Y0090300D03*
X0608300Y0090300D03*
X0618300Y0090300D03*
X0628300Y0090300D03*
X0638300Y0090300D03*
X0638300Y0030300D03*
X0628300Y0030300D03*
X0618300Y0030300D03*
X0608300Y0030300D03*
X0598300Y0030300D03*
X0588300Y0030300D03*
X0578300Y0030300D03*
X0568300Y0030300D03*
X0558300Y0030300D03*
X0548300Y0030300D03*
X0538300Y0030300D03*
X0528300Y0030300D03*
X0518300Y0030300D03*
X0508300Y0030300D03*
X0498300Y0030300D03*
X0488300Y0030300D03*
X0478300Y0030300D03*
D30*
X0468300Y0030300D03*
X0468300Y0090300D03*
X0648300Y0090300D03*
X0648300Y0030300D03*
D31*
X0475700Y0052700D03*
X0475700Y0056700D03*
X0475700Y0060500D03*
X0475700Y0064500D03*
X0475700Y0068400D03*
D32*
X0623300Y0050800D03*
X0623300Y0040800D03*
X0633300Y0040800D03*
X0633300Y0050800D03*
X0643300Y0050800D03*
X0643300Y0040800D03*
D33*
X0757800Y0216300D03*
X0757800Y0246300D03*
D34*
X0709300Y0228300D02*
X0703300Y0228300D01*
X0689300Y0218300D02*
X0683300Y0218300D01*
X0659300Y0228300D02*
X0653300Y0228300D01*
X0826300Y0155800D02*
X0826300Y0149800D01*
X0826300Y0035800D02*
X0826300Y0029800D01*
X0826300Y0314800D02*
X0826300Y0320800D01*
X0826300Y0434800D02*
X0826300Y0440800D01*
X0715300Y0474300D02*
X0709300Y0474300D01*
X0709300Y0484300D02*
X0715300Y0484300D01*
X0715300Y0494300D02*
X0709300Y0494300D01*
X0583800Y0494800D02*
X0577800Y0494800D01*
X0577800Y0484800D02*
X0583800Y0484800D01*
X0583800Y0474800D02*
X0577800Y0474800D01*
X0464300Y0474300D02*
X0458300Y0474300D01*
X0458300Y0484300D02*
X0464300Y0484300D01*
X0464300Y0494300D02*
X0458300Y0494300D01*
D35*
X0826800Y0492017D03*
X0826800Y0506583D03*
X0826800Y0221583D03*
X0826800Y0207017D03*
D36*
X0826800Y0236972D03*
X0826800Y0521972D03*
D37*
X0813042Y0521972D03*
X0840558Y0521972D03*
X0840558Y0236972D03*
X0813042Y0236972D03*
D38*
X0813300Y0293400D02*
X0813300Y0301200D01*
X0840300Y0300700D02*
X0840300Y0292900D01*
X0840300Y0015700D02*
X0840300Y0007900D01*
X0813300Y0008400D02*
X0813300Y0016200D01*
D39*
X0826517Y0190300D03*
X0841083Y0190300D03*
X0841083Y0475300D03*
X0826517Y0475300D03*
D40*
X0826300Y0454800D03*
X0840300Y0454800D03*
X0840300Y0169800D03*
X0826300Y0169800D03*
D41*
X0613300Y0135300D03*
X0580800Y0120800D03*
X0613300Y0223800D03*
X0571300Y0265800D03*
X0699300Y0379300D03*
X0774379Y0374812D03*
X0350800Y0446800D03*
X0314800Y0421800D03*
X0241800Y0369800D03*
X0207800Y0410800D03*
X0188800Y0487800D03*
X0244800Y0511800D03*
X0278800Y0486800D03*
X0299800Y0486800D03*
X0207800Y0548800D03*
X0277800Y0560800D03*
X0298800Y0560800D03*
X0119800Y0487800D03*
X0026800Y0487800D03*
X0216800Y0246800D03*
X0233800Y0246800D03*
X0202800Y0213800D03*
X0214800Y0122800D03*
X0234800Y0122800D03*
M02*
