G75*
%MOIN*%
%OFA0B0*%
%FSLAX25Y25*%
%IPPOS*%
%LPD*%
%AMOC8*
5,1,8,0,0,1.08239X$1,22.5*
%
%ADD10C,0.00500*%
%ADD11C,0.00800*%
%ADD12C,0.00600*%
%ADD13C,0.01600*%
%ADD14C,0.02400*%
%ADD15R,0.03400X0.02400*%
%ADD16R,0.02400X0.03400*%
%ADD17C,0.00400*%
%ADD18R,0.02000X0.08000*%
%ADD19R,0.07500X0.02000*%
D10*
X0141800Y0015800D02*
X0141800Y0185800D01*
X0421800Y0185800D01*
X0421800Y0015800D01*
X0141800Y0015800D01*
X0141800Y0221800D02*
X0421800Y0221800D01*
X0421800Y0391800D01*
X0141800Y0391800D01*
X0141800Y0221800D01*
X0141800Y0427800D02*
X0141800Y0597800D01*
X0421800Y0597800D01*
X0421800Y0427800D01*
X0141800Y0427800D01*
X0655146Y0375803D02*
X0655897Y0376554D01*
X0657398Y0376554D01*
X0658149Y0375803D01*
X0658149Y0375053D01*
X0655146Y0372050D01*
X0658149Y0372050D01*
X0675146Y0372050D02*
X0678149Y0372050D01*
X0676647Y0372050D02*
X0676647Y0376554D01*
X0675146Y0375053D01*
X0709350Y0387050D02*
X0712353Y0387050D01*
X0710851Y0387050D02*
X0710851Y0391554D01*
X0709350Y0390053D01*
X0729350Y0390803D02*
X0730101Y0391554D01*
X0731602Y0391554D01*
X0732353Y0390803D01*
X0732353Y0390053D01*
X0729350Y0387050D01*
X0732353Y0387050D01*
X0849350Y0387050D02*
X0852353Y0387050D01*
X0850851Y0387050D02*
X0850851Y0391554D01*
X0849350Y0390053D01*
X0869350Y0390803D02*
X0870101Y0391554D01*
X0871602Y0391554D01*
X0872353Y0390803D01*
X0872353Y0390053D01*
X0869350Y0387050D01*
X0872353Y0387050D01*
X0891550Y0288149D02*
X0891550Y0285146D01*
X0891550Y0286647D02*
X0887046Y0286647D01*
X0888547Y0285146D01*
X0888547Y0268149D02*
X0887797Y0268149D01*
X0887046Y0267398D01*
X0887046Y0265897D01*
X0887797Y0265146D01*
X0888547Y0268149D02*
X0891550Y0265146D01*
X0891550Y0268149D01*
X0831602Y0036554D02*
X0830101Y0036554D01*
X0829350Y0035803D01*
X0831602Y0036554D02*
X0832353Y0035803D01*
X0832353Y0035053D01*
X0829350Y0032050D01*
X0832353Y0032050D01*
X0812353Y0032050D02*
X0809350Y0032050D01*
X0810851Y0032050D02*
X0810851Y0036554D01*
X0809350Y0035053D01*
X0747353Y0035053D02*
X0747353Y0035803D01*
X0746602Y0036554D01*
X0745101Y0036554D01*
X0744350Y0035803D01*
X0747353Y0035053D02*
X0744350Y0032050D01*
X0747353Y0032050D01*
X0727353Y0032050D02*
X0724350Y0032050D01*
X0725851Y0032050D02*
X0725851Y0036554D01*
X0724350Y0035053D01*
D11*
X0684213Y0090265D02*
X0669387Y0090265D01*
X0669387Y0096367D01*
X0684213Y0096367D01*
X0684213Y0090265D01*
X0839387Y0090265D01*
X0839387Y0096367D01*
X0854213Y0096367D01*
X0854213Y0090265D01*
X0839387Y0090265D01*
X0839379Y0093906D02*
X0684221Y0093906D01*
X0669359Y0093906D02*
X0651859Y0093906D01*
X0651859Y0119694D01*
X0754387Y0119694D01*
X0754387Y0117233D02*
X0769213Y0117233D01*
X0769213Y0123335D01*
X0848422Y0123335D01*
X0848422Y0122154D01*
X0854245Y0122154D01*
X0854245Y0123335D01*
X0876170Y0123335D01*
X0876170Y0090265D01*
X0854213Y0090265D01*
X0854241Y0093906D02*
X0871741Y0093906D01*
X0871741Y0119694D01*
X0769213Y0119694D01*
X0769213Y0123335D02*
X0754387Y0123335D01*
X0754387Y0117233D01*
X0754387Y0123335D02*
X0674245Y0123335D01*
X0674245Y0122154D01*
X0668422Y0122154D01*
X0668422Y0123335D01*
X0647430Y0123335D01*
X0647430Y0090265D01*
X0669387Y0090265D01*
X0057288Y0274209D02*
X0018804Y0274209D01*
X0018804Y0335292D01*
X0057288Y0335292D01*
X0057288Y0328206D01*
X0047741Y0328206D01*
X0047741Y0281296D01*
X0057288Y0281296D01*
X0057288Y0328206D01*
X0057288Y0281296D02*
X0057288Y0274209D01*
D12*
X0436800Y0330800D02*
X0436800Y0210800D01*
X0436802Y0210713D01*
X0436808Y0210626D01*
X0436817Y0210539D01*
X0436830Y0210453D01*
X0436847Y0210367D01*
X0436868Y0210282D01*
X0436893Y0210199D01*
X0436921Y0210116D01*
X0436952Y0210035D01*
X0436987Y0209955D01*
X0437026Y0209877D01*
X0437068Y0209800D01*
X0437113Y0209725D01*
X0437162Y0209653D01*
X0437213Y0209582D01*
X0437268Y0209514D01*
X0437325Y0209449D01*
X0437386Y0209386D01*
X0437449Y0209325D01*
X0437514Y0209268D01*
X0437582Y0209213D01*
X0437653Y0209162D01*
X0437725Y0209113D01*
X0437800Y0209068D01*
X0437877Y0209026D01*
X0437955Y0208987D01*
X0438035Y0208952D01*
X0438116Y0208921D01*
X0438199Y0208893D01*
X0438282Y0208868D01*
X0438367Y0208847D01*
X0438453Y0208830D01*
X0438539Y0208817D01*
X0438626Y0208808D01*
X0438713Y0208802D01*
X0438800Y0208800D01*
X0478800Y0208800D01*
X0478887Y0208802D01*
X0478974Y0208808D01*
X0479061Y0208817D01*
X0479147Y0208830D01*
X0479233Y0208847D01*
X0479318Y0208868D01*
X0479401Y0208893D01*
X0479484Y0208921D01*
X0479565Y0208952D01*
X0479645Y0208987D01*
X0479723Y0209026D01*
X0479800Y0209068D01*
X0479875Y0209113D01*
X0479947Y0209162D01*
X0480018Y0209213D01*
X0480086Y0209268D01*
X0480151Y0209325D01*
X0480214Y0209386D01*
X0480275Y0209449D01*
X0480332Y0209514D01*
X0480387Y0209582D01*
X0480438Y0209653D01*
X0480487Y0209725D01*
X0480532Y0209800D01*
X0480574Y0209877D01*
X0480613Y0209955D01*
X0480648Y0210035D01*
X0480679Y0210116D01*
X0480707Y0210199D01*
X0480732Y0210282D01*
X0480753Y0210367D01*
X0480770Y0210453D01*
X0480783Y0210539D01*
X0480792Y0210626D01*
X0480798Y0210713D01*
X0480800Y0210800D01*
X0480800Y0330800D01*
X0480798Y0330887D01*
X0480792Y0330974D01*
X0480783Y0331061D01*
X0480770Y0331147D01*
X0480753Y0331233D01*
X0480732Y0331318D01*
X0480707Y0331401D01*
X0480679Y0331484D01*
X0480648Y0331565D01*
X0480613Y0331645D01*
X0480574Y0331723D01*
X0480532Y0331800D01*
X0480487Y0331875D01*
X0480438Y0331947D01*
X0480387Y0332018D01*
X0480332Y0332086D01*
X0480275Y0332151D01*
X0480214Y0332214D01*
X0480151Y0332275D01*
X0480086Y0332332D01*
X0480018Y0332387D01*
X0479947Y0332438D01*
X0479875Y0332487D01*
X0479800Y0332532D01*
X0479723Y0332574D01*
X0479645Y0332613D01*
X0479565Y0332648D01*
X0479484Y0332679D01*
X0479401Y0332707D01*
X0479318Y0332732D01*
X0479233Y0332753D01*
X0479147Y0332770D01*
X0479061Y0332783D01*
X0478974Y0332792D01*
X0478887Y0332798D01*
X0478800Y0332800D01*
X0438800Y0332800D01*
X0438713Y0332798D01*
X0438626Y0332792D01*
X0438539Y0332783D01*
X0438453Y0332770D01*
X0438367Y0332753D01*
X0438282Y0332732D01*
X0438199Y0332707D01*
X0438116Y0332679D01*
X0438035Y0332648D01*
X0437955Y0332613D01*
X0437877Y0332574D01*
X0437800Y0332532D01*
X0437725Y0332487D01*
X0437653Y0332438D01*
X0437582Y0332387D01*
X0437514Y0332332D01*
X0437449Y0332275D01*
X0437386Y0332214D01*
X0437325Y0332151D01*
X0437268Y0332086D01*
X0437213Y0332018D01*
X0437162Y0331947D01*
X0437113Y0331875D01*
X0437068Y0331800D01*
X0437026Y0331723D01*
X0436987Y0331645D01*
X0436952Y0331565D01*
X0436921Y0331484D01*
X0436893Y0331401D01*
X0436868Y0331318D01*
X0436847Y0331233D01*
X0436830Y0331147D01*
X0436817Y0331061D01*
X0436808Y0330974D01*
X0436802Y0330887D01*
X0436800Y0330800D01*
X0458800Y0316300D02*
X0458800Y0244300D01*
X0458800Y0240800D02*
X0458800Y0225300D01*
X0502800Y0212800D02*
X0502800Y0260800D01*
X0502802Y0260887D01*
X0502808Y0260974D01*
X0502817Y0261061D01*
X0502830Y0261147D01*
X0502847Y0261233D01*
X0502868Y0261318D01*
X0502893Y0261401D01*
X0502921Y0261484D01*
X0502952Y0261565D01*
X0502987Y0261645D01*
X0503026Y0261723D01*
X0503068Y0261800D01*
X0503113Y0261875D01*
X0503162Y0261947D01*
X0503213Y0262018D01*
X0503268Y0262086D01*
X0503325Y0262151D01*
X0503386Y0262214D01*
X0503449Y0262275D01*
X0503514Y0262332D01*
X0503582Y0262387D01*
X0503653Y0262438D01*
X0503725Y0262487D01*
X0503800Y0262532D01*
X0503877Y0262574D01*
X0503955Y0262613D01*
X0504035Y0262648D01*
X0504116Y0262679D01*
X0504199Y0262707D01*
X0504282Y0262732D01*
X0504367Y0262753D01*
X0504453Y0262770D01*
X0504539Y0262783D01*
X0504626Y0262792D01*
X0504713Y0262798D01*
X0504800Y0262800D01*
X0516800Y0262800D01*
X0516887Y0262798D01*
X0516974Y0262792D01*
X0517061Y0262783D01*
X0517147Y0262770D01*
X0517233Y0262753D01*
X0517318Y0262732D01*
X0517401Y0262707D01*
X0517484Y0262679D01*
X0517565Y0262648D01*
X0517645Y0262613D01*
X0517723Y0262574D01*
X0517800Y0262532D01*
X0517875Y0262487D01*
X0517947Y0262438D01*
X0518018Y0262387D01*
X0518086Y0262332D01*
X0518151Y0262275D01*
X0518214Y0262214D01*
X0518275Y0262151D01*
X0518332Y0262086D01*
X0518387Y0262018D01*
X0518438Y0261947D01*
X0518487Y0261875D01*
X0518532Y0261800D01*
X0518574Y0261723D01*
X0518613Y0261645D01*
X0518648Y0261565D01*
X0518679Y0261484D01*
X0518707Y0261401D01*
X0518732Y0261318D01*
X0518753Y0261233D01*
X0518770Y0261147D01*
X0518783Y0261061D01*
X0518792Y0260974D01*
X0518798Y0260887D01*
X0518800Y0260800D01*
X0518800Y0212800D01*
X0518798Y0212713D01*
X0518792Y0212626D01*
X0518783Y0212539D01*
X0518770Y0212453D01*
X0518753Y0212367D01*
X0518732Y0212282D01*
X0518707Y0212199D01*
X0518679Y0212116D01*
X0518648Y0212035D01*
X0518613Y0211955D01*
X0518574Y0211877D01*
X0518532Y0211800D01*
X0518487Y0211725D01*
X0518438Y0211653D01*
X0518387Y0211582D01*
X0518332Y0211514D01*
X0518275Y0211449D01*
X0518214Y0211386D01*
X0518151Y0211325D01*
X0518086Y0211268D01*
X0518018Y0211213D01*
X0517947Y0211162D01*
X0517875Y0211113D01*
X0517800Y0211068D01*
X0517723Y0211026D01*
X0517645Y0210987D01*
X0517565Y0210952D01*
X0517484Y0210921D01*
X0517401Y0210893D01*
X0517318Y0210868D01*
X0517233Y0210847D01*
X0517147Y0210830D01*
X0517061Y0210817D01*
X0516974Y0210808D01*
X0516887Y0210802D01*
X0516800Y0210800D01*
X0504800Y0210800D01*
X0504713Y0210802D01*
X0504626Y0210808D01*
X0504539Y0210817D01*
X0504453Y0210830D01*
X0504367Y0210847D01*
X0504282Y0210868D01*
X0504199Y0210893D01*
X0504116Y0210921D01*
X0504035Y0210952D01*
X0503955Y0210987D01*
X0503877Y0211026D01*
X0503800Y0211068D01*
X0503725Y0211113D01*
X0503653Y0211162D01*
X0503582Y0211213D01*
X0503514Y0211268D01*
X0503449Y0211325D01*
X0503386Y0211386D01*
X0503325Y0211449D01*
X0503268Y0211514D01*
X0503213Y0211582D01*
X0503162Y0211653D01*
X0503113Y0211725D01*
X0503068Y0211800D01*
X0503026Y0211877D01*
X0502987Y0211955D01*
X0502952Y0212035D01*
X0502921Y0212116D01*
X0502893Y0212199D01*
X0502868Y0212282D01*
X0502847Y0212367D01*
X0502830Y0212453D01*
X0502817Y0212539D01*
X0502808Y0212626D01*
X0502802Y0212713D01*
X0502800Y0212800D01*
X0510800Y0221800D02*
X0510800Y0224300D01*
X0510800Y0227800D02*
X0510800Y0251800D01*
X0533800Y0250800D02*
X0533800Y0212800D01*
X0533802Y0212740D01*
X0533807Y0212679D01*
X0533816Y0212620D01*
X0533829Y0212561D01*
X0533845Y0212502D01*
X0533865Y0212445D01*
X0533888Y0212390D01*
X0533915Y0212335D01*
X0533944Y0212283D01*
X0533977Y0212232D01*
X0534013Y0212183D01*
X0534051Y0212137D01*
X0534093Y0212093D01*
X0534137Y0212051D01*
X0534183Y0212013D01*
X0534232Y0211977D01*
X0534283Y0211944D01*
X0534335Y0211915D01*
X0534390Y0211888D01*
X0534445Y0211865D01*
X0534502Y0211845D01*
X0534561Y0211829D01*
X0534620Y0211816D01*
X0534679Y0211807D01*
X0534740Y0211802D01*
X0534800Y0211800D01*
X0548800Y0211800D01*
X0548860Y0211802D01*
X0548921Y0211807D01*
X0548980Y0211816D01*
X0549039Y0211829D01*
X0549098Y0211845D01*
X0549155Y0211865D01*
X0549210Y0211888D01*
X0549265Y0211915D01*
X0549317Y0211944D01*
X0549368Y0211977D01*
X0549417Y0212013D01*
X0549463Y0212051D01*
X0549507Y0212093D01*
X0549549Y0212137D01*
X0549587Y0212183D01*
X0549623Y0212232D01*
X0549656Y0212283D01*
X0549685Y0212335D01*
X0549712Y0212390D01*
X0549735Y0212445D01*
X0549755Y0212502D01*
X0549771Y0212561D01*
X0549784Y0212620D01*
X0549793Y0212679D01*
X0549798Y0212740D01*
X0549800Y0212800D01*
X0549800Y0250800D01*
X0549798Y0250860D01*
X0549793Y0250921D01*
X0549784Y0250980D01*
X0549771Y0251039D01*
X0549755Y0251098D01*
X0549735Y0251155D01*
X0549712Y0251210D01*
X0549685Y0251265D01*
X0549656Y0251317D01*
X0549623Y0251368D01*
X0549587Y0251417D01*
X0549549Y0251463D01*
X0549507Y0251507D01*
X0549463Y0251549D01*
X0549417Y0251587D01*
X0549368Y0251623D01*
X0549317Y0251656D01*
X0549265Y0251685D01*
X0549210Y0251712D01*
X0549155Y0251735D01*
X0549098Y0251755D01*
X0549039Y0251771D01*
X0548980Y0251784D01*
X0548921Y0251793D01*
X0548860Y0251798D01*
X0548800Y0251800D01*
X0534800Y0251800D01*
X0534740Y0251798D01*
X0534679Y0251793D01*
X0534620Y0251784D01*
X0534561Y0251771D01*
X0534502Y0251755D01*
X0534445Y0251735D01*
X0534390Y0251712D01*
X0534335Y0251685D01*
X0534283Y0251656D01*
X0534232Y0251623D01*
X0534183Y0251587D01*
X0534137Y0251549D01*
X0534093Y0251507D01*
X0534051Y0251463D01*
X0534013Y0251417D01*
X0533977Y0251368D01*
X0533944Y0251317D01*
X0533915Y0251265D01*
X0533888Y0251210D01*
X0533865Y0251155D01*
X0533845Y0251098D01*
X0533829Y0251039D01*
X0533816Y0250980D01*
X0533807Y0250921D01*
X0533802Y0250860D01*
X0533800Y0250800D01*
X0541800Y0242300D02*
X0541800Y0226800D01*
X0541800Y0223300D02*
X0541800Y0221300D01*
X0556800Y0280800D02*
X0516800Y0280800D01*
X0516713Y0280802D01*
X0516626Y0280808D01*
X0516539Y0280817D01*
X0516453Y0280830D01*
X0516367Y0280847D01*
X0516282Y0280868D01*
X0516199Y0280893D01*
X0516116Y0280921D01*
X0516035Y0280952D01*
X0515955Y0280987D01*
X0515877Y0281026D01*
X0515800Y0281068D01*
X0515725Y0281113D01*
X0515653Y0281162D01*
X0515582Y0281213D01*
X0515514Y0281268D01*
X0515449Y0281325D01*
X0515386Y0281386D01*
X0515325Y0281449D01*
X0515268Y0281514D01*
X0515213Y0281582D01*
X0515162Y0281653D01*
X0515113Y0281725D01*
X0515068Y0281800D01*
X0515026Y0281877D01*
X0514987Y0281955D01*
X0514952Y0282035D01*
X0514921Y0282116D01*
X0514893Y0282199D01*
X0514868Y0282282D01*
X0514847Y0282367D01*
X0514830Y0282453D01*
X0514817Y0282539D01*
X0514808Y0282626D01*
X0514802Y0282713D01*
X0514800Y0282800D01*
X0514800Y0402800D01*
X0514802Y0402887D01*
X0514808Y0402974D01*
X0514817Y0403061D01*
X0514830Y0403147D01*
X0514847Y0403233D01*
X0514868Y0403318D01*
X0514893Y0403401D01*
X0514921Y0403484D01*
X0514952Y0403565D01*
X0514987Y0403645D01*
X0515026Y0403723D01*
X0515068Y0403800D01*
X0515113Y0403875D01*
X0515162Y0403947D01*
X0515213Y0404018D01*
X0515268Y0404086D01*
X0515325Y0404151D01*
X0515386Y0404214D01*
X0515449Y0404275D01*
X0515514Y0404332D01*
X0515582Y0404387D01*
X0515653Y0404438D01*
X0515725Y0404487D01*
X0515800Y0404532D01*
X0515877Y0404574D01*
X0515955Y0404613D01*
X0516035Y0404648D01*
X0516116Y0404679D01*
X0516199Y0404707D01*
X0516282Y0404732D01*
X0516367Y0404753D01*
X0516453Y0404770D01*
X0516539Y0404783D01*
X0516626Y0404792D01*
X0516713Y0404798D01*
X0516800Y0404800D01*
X0556800Y0404800D01*
X0556887Y0404798D01*
X0556974Y0404792D01*
X0557061Y0404783D01*
X0557147Y0404770D01*
X0557233Y0404753D01*
X0557318Y0404732D01*
X0557401Y0404707D01*
X0557484Y0404679D01*
X0557565Y0404648D01*
X0557645Y0404613D01*
X0557723Y0404574D01*
X0557800Y0404532D01*
X0557875Y0404487D01*
X0557947Y0404438D01*
X0558018Y0404387D01*
X0558086Y0404332D01*
X0558151Y0404275D01*
X0558214Y0404214D01*
X0558275Y0404151D01*
X0558332Y0404086D01*
X0558387Y0404018D01*
X0558438Y0403947D01*
X0558487Y0403875D01*
X0558532Y0403800D01*
X0558574Y0403723D01*
X0558613Y0403645D01*
X0558648Y0403565D01*
X0558679Y0403484D01*
X0558707Y0403401D01*
X0558732Y0403318D01*
X0558753Y0403233D01*
X0558770Y0403147D01*
X0558783Y0403061D01*
X0558792Y0402974D01*
X0558798Y0402887D01*
X0558800Y0402800D01*
X0558800Y0282800D01*
X0558798Y0282713D01*
X0558792Y0282626D01*
X0558783Y0282539D01*
X0558770Y0282453D01*
X0558753Y0282367D01*
X0558732Y0282282D01*
X0558707Y0282199D01*
X0558679Y0282116D01*
X0558648Y0282035D01*
X0558613Y0281955D01*
X0558574Y0281877D01*
X0558532Y0281800D01*
X0558487Y0281725D01*
X0558438Y0281653D01*
X0558387Y0281582D01*
X0558332Y0281514D01*
X0558275Y0281449D01*
X0558214Y0281386D01*
X0558151Y0281325D01*
X0558086Y0281268D01*
X0558018Y0281213D01*
X0557947Y0281162D01*
X0557875Y0281113D01*
X0557800Y0281068D01*
X0557723Y0281026D01*
X0557645Y0280987D01*
X0557565Y0280952D01*
X0557484Y0280921D01*
X0557401Y0280893D01*
X0557318Y0280868D01*
X0557233Y0280847D01*
X0557147Y0280830D01*
X0557061Y0280817D01*
X0556974Y0280808D01*
X0556887Y0280802D01*
X0556800Y0280800D01*
X0536800Y0297300D02*
X0536800Y0369300D01*
X0536800Y0372800D02*
X0536800Y0388300D01*
X0499800Y0400800D02*
X0499800Y0352800D01*
X0499798Y0352713D01*
X0499792Y0352626D01*
X0499783Y0352539D01*
X0499770Y0352453D01*
X0499753Y0352367D01*
X0499732Y0352282D01*
X0499707Y0352199D01*
X0499679Y0352116D01*
X0499648Y0352035D01*
X0499613Y0351955D01*
X0499574Y0351877D01*
X0499532Y0351800D01*
X0499487Y0351725D01*
X0499438Y0351653D01*
X0499387Y0351582D01*
X0499332Y0351514D01*
X0499275Y0351449D01*
X0499214Y0351386D01*
X0499151Y0351325D01*
X0499086Y0351268D01*
X0499018Y0351213D01*
X0498947Y0351162D01*
X0498875Y0351113D01*
X0498800Y0351068D01*
X0498723Y0351026D01*
X0498645Y0350987D01*
X0498565Y0350952D01*
X0498484Y0350921D01*
X0498401Y0350893D01*
X0498318Y0350868D01*
X0498233Y0350847D01*
X0498147Y0350830D01*
X0498061Y0350817D01*
X0497974Y0350808D01*
X0497887Y0350802D01*
X0497800Y0350800D01*
X0485800Y0350800D01*
X0485713Y0350802D01*
X0485626Y0350808D01*
X0485539Y0350817D01*
X0485453Y0350830D01*
X0485367Y0350847D01*
X0485282Y0350868D01*
X0485199Y0350893D01*
X0485116Y0350921D01*
X0485035Y0350952D01*
X0484955Y0350987D01*
X0484877Y0351026D01*
X0484800Y0351068D01*
X0484725Y0351113D01*
X0484653Y0351162D01*
X0484582Y0351213D01*
X0484514Y0351268D01*
X0484449Y0351325D01*
X0484386Y0351386D01*
X0484325Y0351449D01*
X0484268Y0351514D01*
X0484213Y0351582D01*
X0484162Y0351653D01*
X0484113Y0351725D01*
X0484068Y0351800D01*
X0484026Y0351877D01*
X0483987Y0351955D01*
X0483952Y0352035D01*
X0483921Y0352116D01*
X0483893Y0352199D01*
X0483868Y0352282D01*
X0483847Y0352367D01*
X0483830Y0352453D01*
X0483817Y0352539D01*
X0483808Y0352626D01*
X0483802Y0352713D01*
X0483800Y0352800D01*
X0483800Y0400800D01*
X0483802Y0400887D01*
X0483808Y0400974D01*
X0483817Y0401061D01*
X0483830Y0401147D01*
X0483847Y0401233D01*
X0483868Y0401318D01*
X0483893Y0401401D01*
X0483921Y0401484D01*
X0483952Y0401565D01*
X0483987Y0401645D01*
X0484026Y0401723D01*
X0484068Y0401800D01*
X0484113Y0401875D01*
X0484162Y0401947D01*
X0484213Y0402018D01*
X0484268Y0402086D01*
X0484325Y0402151D01*
X0484386Y0402214D01*
X0484449Y0402275D01*
X0484514Y0402332D01*
X0484582Y0402387D01*
X0484653Y0402438D01*
X0484725Y0402487D01*
X0484800Y0402532D01*
X0484877Y0402574D01*
X0484955Y0402613D01*
X0485035Y0402648D01*
X0485116Y0402679D01*
X0485199Y0402707D01*
X0485282Y0402732D01*
X0485367Y0402753D01*
X0485453Y0402770D01*
X0485539Y0402783D01*
X0485626Y0402792D01*
X0485713Y0402798D01*
X0485800Y0402800D01*
X0497800Y0402800D01*
X0497887Y0402798D01*
X0497974Y0402792D01*
X0498061Y0402783D01*
X0498147Y0402770D01*
X0498233Y0402753D01*
X0498318Y0402732D01*
X0498401Y0402707D01*
X0498484Y0402679D01*
X0498565Y0402648D01*
X0498645Y0402613D01*
X0498723Y0402574D01*
X0498800Y0402532D01*
X0498875Y0402487D01*
X0498947Y0402438D01*
X0499018Y0402387D01*
X0499086Y0402332D01*
X0499151Y0402275D01*
X0499214Y0402214D01*
X0499275Y0402151D01*
X0499332Y0402086D01*
X0499387Y0402018D01*
X0499438Y0401947D01*
X0499487Y0401875D01*
X0499532Y0401800D01*
X0499574Y0401723D01*
X0499613Y0401645D01*
X0499648Y0401565D01*
X0499679Y0401484D01*
X0499707Y0401401D01*
X0499732Y0401318D01*
X0499753Y0401233D01*
X0499770Y0401147D01*
X0499783Y0401061D01*
X0499792Y0400974D01*
X0499798Y0400887D01*
X0499800Y0400800D01*
X0491800Y0391800D02*
X0491800Y0389300D01*
X0491800Y0385800D02*
X0491800Y0361800D01*
X0467800Y0362800D02*
X0467800Y0400800D01*
X0467798Y0400860D01*
X0467793Y0400921D01*
X0467784Y0400980D01*
X0467771Y0401039D01*
X0467755Y0401098D01*
X0467735Y0401155D01*
X0467712Y0401210D01*
X0467685Y0401265D01*
X0467656Y0401317D01*
X0467623Y0401368D01*
X0467587Y0401417D01*
X0467549Y0401463D01*
X0467507Y0401507D01*
X0467463Y0401549D01*
X0467417Y0401587D01*
X0467368Y0401623D01*
X0467317Y0401656D01*
X0467265Y0401685D01*
X0467210Y0401712D01*
X0467155Y0401735D01*
X0467098Y0401755D01*
X0467039Y0401771D01*
X0466980Y0401784D01*
X0466921Y0401793D01*
X0466860Y0401798D01*
X0466800Y0401800D01*
X0452800Y0401800D01*
X0452740Y0401798D01*
X0452679Y0401793D01*
X0452620Y0401784D01*
X0452561Y0401771D01*
X0452502Y0401755D01*
X0452445Y0401735D01*
X0452390Y0401712D01*
X0452335Y0401685D01*
X0452283Y0401656D01*
X0452232Y0401623D01*
X0452183Y0401587D01*
X0452137Y0401549D01*
X0452093Y0401507D01*
X0452051Y0401463D01*
X0452013Y0401417D01*
X0451977Y0401368D01*
X0451944Y0401317D01*
X0451915Y0401265D01*
X0451888Y0401210D01*
X0451865Y0401155D01*
X0451845Y0401098D01*
X0451829Y0401039D01*
X0451816Y0400980D01*
X0451807Y0400921D01*
X0451802Y0400860D01*
X0451800Y0400800D01*
X0451800Y0362800D01*
X0451802Y0362740D01*
X0451807Y0362679D01*
X0451816Y0362620D01*
X0451829Y0362561D01*
X0451845Y0362502D01*
X0451865Y0362445D01*
X0451888Y0362390D01*
X0451915Y0362335D01*
X0451944Y0362283D01*
X0451977Y0362232D01*
X0452013Y0362183D01*
X0452051Y0362137D01*
X0452093Y0362093D01*
X0452137Y0362051D01*
X0452183Y0362013D01*
X0452232Y0361977D01*
X0452283Y0361944D01*
X0452335Y0361915D01*
X0452390Y0361888D01*
X0452445Y0361865D01*
X0452502Y0361845D01*
X0452561Y0361829D01*
X0452620Y0361816D01*
X0452679Y0361807D01*
X0452740Y0361802D01*
X0452800Y0361800D01*
X0466800Y0361800D01*
X0466860Y0361802D01*
X0466921Y0361807D01*
X0466980Y0361816D01*
X0467039Y0361829D01*
X0467098Y0361845D01*
X0467155Y0361865D01*
X0467210Y0361888D01*
X0467265Y0361915D01*
X0467317Y0361944D01*
X0467368Y0361977D01*
X0467417Y0362013D01*
X0467463Y0362051D01*
X0467507Y0362093D01*
X0467549Y0362137D01*
X0467587Y0362183D01*
X0467623Y0362232D01*
X0467656Y0362283D01*
X0467685Y0362335D01*
X0467712Y0362390D01*
X0467735Y0362445D01*
X0467755Y0362502D01*
X0467771Y0362561D01*
X0467784Y0362620D01*
X0467793Y0362679D01*
X0467798Y0362740D01*
X0467800Y0362800D01*
X0459800Y0371300D02*
X0459800Y0386800D01*
X0459800Y0390300D02*
X0459800Y0392300D01*
X0479800Y0454800D02*
X0439800Y0454800D01*
X0439713Y0454802D01*
X0439626Y0454808D01*
X0439539Y0454817D01*
X0439453Y0454830D01*
X0439367Y0454847D01*
X0439282Y0454868D01*
X0439199Y0454893D01*
X0439116Y0454921D01*
X0439035Y0454952D01*
X0438955Y0454987D01*
X0438877Y0455026D01*
X0438800Y0455068D01*
X0438725Y0455113D01*
X0438653Y0455162D01*
X0438582Y0455213D01*
X0438514Y0455268D01*
X0438449Y0455325D01*
X0438386Y0455386D01*
X0438325Y0455449D01*
X0438268Y0455514D01*
X0438213Y0455582D01*
X0438162Y0455653D01*
X0438113Y0455725D01*
X0438068Y0455800D01*
X0438026Y0455877D01*
X0437987Y0455955D01*
X0437952Y0456035D01*
X0437921Y0456116D01*
X0437893Y0456199D01*
X0437868Y0456282D01*
X0437847Y0456367D01*
X0437830Y0456453D01*
X0437817Y0456539D01*
X0437808Y0456626D01*
X0437802Y0456713D01*
X0437800Y0456800D01*
X0437800Y0576800D01*
X0437802Y0576887D01*
X0437808Y0576974D01*
X0437817Y0577061D01*
X0437830Y0577147D01*
X0437847Y0577233D01*
X0437868Y0577318D01*
X0437893Y0577401D01*
X0437921Y0577484D01*
X0437952Y0577565D01*
X0437987Y0577645D01*
X0438026Y0577723D01*
X0438068Y0577800D01*
X0438113Y0577875D01*
X0438162Y0577947D01*
X0438213Y0578018D01*
X0438268Y0578086D01*
X0438325Y0578151D01*
X0438386Y0578214D01*
X0438449Y0578275D01*
X0438514Y0578332D01*
X0438582Y0578387D01*
X0438653Y0578438D01*
X0438725Y0578487D01*
X0438800Y0578532D01*
X0438877Y0578574D01*
X0438955Y0578613D01*
X0439035Y0578648D01*
X0439116Y0578679D01*
X0439199Y0578707D01*
X0439282Y0578732D01*
X0439367Y0578753D01*
X0439453Y0578770D01*
X0439539Y0578783D01*
X0439626Y0578792D01*
X0439713Y0578798D01*
X0439800Y0578800D01*
X0479800Y0578800D01*
X0479887Y0578798D01*
X0479974Y0578792D01*
X0480061Y0578783D01*
X0480147Y0578770D01*
X0480233Y0578753D01*
X0480318Y0578732D01*
X0480401Y0578707D01*
X0480484Y0578679D01*
X0480565Y0578648D01*
X0480645Y0578613D01*
X0480723Y0578574D01*
X0480800Y0578532D01*
X0480875Y0578487D01*
X0480947Y0578438D01*
X0481018Y0578387D01*
X0481086Y0578332D01*
X0481151Y0578275D01*
X0481214Y0578214D01*
X0481275Y0578151D01*
X0481332Y0578086D01*
X0481387Y0578018D01*
X0481438Y0577947D01*
X0481487Y0577875D01*
X0481532Y0577800D01*
X0481574Y0577723D01*
X0481613Y0577645D01*
X0481648Y0577565D01*
X0481679Y0577484D01*
X0481707Y0577401D01*
X0481732Y0577318D01*
X0481753Y0577233D01*
X0481770Y0577147D01*
X0481783Y0577061D01*
X0481792Y0576974D01*
X0481798Y0576887D01*
X0481800Y0576800D01*
X0481800Y0456800D01*
X0481798Y0456713D01*
X0481792Y0456626D01*
X0481783Y0456539D01*
X0481770Y0456453D01*
X0481753Y0456367D01*
X0481732Y0456282D01*
X0481707Y0456199D01*
X0481679Y0456116D01*
X0481648Y0456035D01*
X0481613Y0455955D01*
X0481574Y0455877D01*
X0481532Y0455800D01*
X0481487Y0455725D01*
X0481438Y0455653D01*
X0481387Y0455582D01*
X0481332Y0455514D01*
X0481275Y0455449D01*
X0481214Y0455386D01*
X0481151Y0455325D01*
X0481086Y0455268D01*
X0481018Y0455213D01*
X0480947Y0455162D01*
X0480875Y0455113D01*
X0480800Y0455068D01*
X0480723Y0455026D01*
X0480645Y0454987D01*
X0480565Y0454952D01*
X0480484Y0454921D01*
X0480401Y0454893D01*
X0480318Y0454868D01*
X0480233Y0454847D01*
X0480147Y0454830D01*
X0480061Y0454817D01*
X0479974Y0454808D01*
X0479887Y0454802D01*
X0479800Y0454800D01*
X0500800Y0458800D02*
X0500800Y0506800D01*
X0500802Y0506887D01*
X0500808Y0506974D01*
X0500817Y0507061D01*
X0500830Y0507147D01*
X0500847Y0507233D01*
X0500868Y0507318D01*
X0500893Y0507401D01*
X0500921Y0507484D01*
X0500952Y0507565D01*
X0500987Y0507645D01*
X0501026Y0507723D01*
X0501068Y0507800D01*
X0501113Y0507875D01*
X0501162Y0507947D01*
X0501213Y0508018D01*
X0501268Y0508086D01*
X0501325Y0508151D01*
X0501386Y0508214D01*
X0501449Y0508275D01*
X0501514Y0508332D01*
X0501582Y0508387D01*
X0501653Y0508438D01*
X0501725Y0508487D01*
X0501800Y0508532D01*
X0501877Y0508574D01*
X0501955Y0508613D01*
X0502035Y0508648D01*
X0502116Y0508679D01*
X0502199Y0508707D01*
X0502282Y0508732D01*
X0502367Y0508753D01*
X0502453Y0508770D01*
X0502539Y0508783D01*
X0502626Y0508792D01*
X0502713Y0508798D01*
X0502800Y0508800D01*
X0514800Y0508800D01*
X0514887Y0508798D01*
X0514974Y0508792D01*
X0515061Y0508783D01*
X0515147Y0508770D01*
X0515233Y0508753D01*
X0515318Y0508732D01*
X0515401Y0508707D01*
X0515484Y0508679D01*
X0515565Y0508648D01*
X0515645Y0508613D01*
X0515723Y0508574D01*
X0515800Y0508532D01*
X0515875Y0508487D01*
X0515947Y0508438D01*
X0516018Y0508387D01*
X0516086Y0508332D01*
X0516151Y0508275D01*
X0516214Y0508214D01*
X0516275Y0508151D01*
X0516332Y0508086D01*
X0516387Y0508018D01*
X0516438Y0507947D01*
X0516487Y0507875D01*
X0516532Y0507800D01*
X0516574Y0507723D01*
X0516613Y0507645D01*
X0516648Y0507565D01*
X0516679Y0507484D01*
X0516707Y0507401D01*
X0516732Y0507318D01*
X0516753Y0507233D01*
X0516770Y0507147D01*
X0516783Y0507061D01*
X0516792Y0506974D01*
X0516798Y0506887D01*
X0516800Y0506800D01*
X0516800Y0458800D01*
X0516798Y0458713D01*
X0516792Y0458626D01*
X0516783Y0458539D01*
X0516770Y0458453D01*
X0516753Y0458367D01*
X0516732Y0458282D01*
X0516707Y0458199D01*
X0516679Y0458116D01*
X0516648Y0458035D01*
X0516613Y0457955D01*
X0516574Y0457877D01*
X0516532Y0457800D01*
X0516487Y0457725D01*
X0516438Y0457653D01*
X0516387Y0457582D01*
X0516332Y0457514D01*
X0516275Y0457449D01*
X0516214Y0457386D01*
X0516151Y0457325D01*
X0516086Y0457268D01*
X0516018Y0457213D01*
X0515947Y0457162D01*
X0515875Y0457113D01*
X0515800Y0457068D01*
X0515723Y0457026D01*
X0515645Y0456987D01*
X0515565Y0456952D01*
X0515484Y0456921D01*
X0515401Y0456893D01*
X0515318Y0456868D01*
X0515233Y0456847D01*
X0515147Y0456830D01*
X0515061Y0456817D01*
X0514974Y0456808D01*
X0514887Y0456802D01*
X0514800Y0456800D01*
X0502800Y0456800D01*
X0502713Y0456802D01*
X0502626Y0456808D01*
X0502539Y0456817D01*
X0502453Y0456830D01*
X0502367Y0456847D01*
X0502282Y0456868D01*
X0502199Y0456893D01*
X0502116Y0456921D01*
X0502035Y0456952D01*
X0501955Y0456987D01*
X0501877Y0457026D01*
X0501800Y0457068D01*
X0501725Y0457113D01*
X0501653Y0457162D01*
X0501582Y0457213D01*
X0501514Y0457268D01*
X0501449Y0457325D01*
X0501386Y0457386D01*
X0501325Y0457449D01*
X0501268Y0457514D01*
X0501213Y0457582D01*
X0501162Y0457653D01*
X0501113Y0457725D01*
X0501068Y0457800D01*
X0501026Y0457877D01*
X0500987Y0457955D01*
X0500952Y0458035D01*
X0500921Y0458116D01*
X0500893Y0458199D01*
X0500868Y0458282D01*
X0500847Y0458367D01*
X0500830Y0458453D01*
X0500817Y0458539D01*
X0500808Y0458626D01*
X0500802Y0458713D01*
X0500800Y0458800D01*
X0508800Y0467800D02*
X0508800Y0470300D01*
X0508800Y0473800D02*
X0508800Y0497800D01*
X0534800Y0496800D02*
X0534800Y0458800D01*
X0534802Y0458740D01*
X0534807Y0458679D01*
X0534816Y0458620D01*
X0534829Y0458561D01*
X0534845Y0458502D01*
X0534865Y0458445D01*
X0534888Y0458390D01*
X0534915Y0458335D01*
X0534944Y0458283D01*
X0534977Y0458232D01*
X0535013Y0458183D01*
X0535051Y0458137D01*
X0535093Y0458093D01*
X0535137Y0458051D01*
X0535183Y0458013D01*
X0535232Y0457977D01*
X0535283Y0457944D01*
X0535335Y0457915D01*
X0535390Y0457888D01*
X0535445Y0457865D01*
X0535502Y0457845D01*
X0535561Y0457829D01*
X0535620Y0457816D01*
X0535679Y0457807D01*
X0535740Y0457802D01*
X0535800Y0457800D01*
X0549800Y0457800D01*
X0549860Y0457802D01*
X0549921Y0457807D01*
X0549980Y0457816D01*
X0550039Y0457829D01*
X0550098Y0457845D01*
X0550155Y0457865D01*
X0550210Y0457888D01*
X0550265Y0457915D01*
X0550317Y0457944D01*
X0550368Y0457977D01*
X0550417Y0458013D01*
X0550463Y0458051D01*
X0550507Y0458093D01*
X0550549Y0458137D01*
X0550587Y0458183D01*
X0550623Y0458232D01*
X0550656Y0458283D01*
X0550685Y0458335D01*
X0550712Y0458390D01*
X0550735Y0458445D01*
X0550755Y0458502D01*
X0550771Y0458561D01*
X0550784Y0458620D01*
X0550793Y0458679D01*
X0550798Y0458740D01*
X0550800Y0458800D01*
X0550800Y0496800D01*
X0550798Y0496860D01*
X0550793Y0496921D01*
X0550784Y0496980D01*
X0550771Y0497039D01*
X0550755Y0497098D01*
X0550735Y0497155D01*
X0550712Y0497210D01*
X0550685Y0497265D01*
X0550656Y0497317D01*
X0550623Y0497368D01*
X0550587Y0497417D01*
X0550549Y0497463D01*
X0550507Y0497507D01*
X0550463Y0497549D01*
X0550417Y0497587D01*
X0550368Y0497623D01*
X0550317Y0497656D01*
X0550265Y0497685D01*
X0550210Y0497712D01*
X0550155Y0497735D01*
X0550098Y0497755D01*
X0550039Y0497771D01*
X0549980Y0497784D01*
X0549921Y0497793D01*
X0549860Y0497798D01*
X0549800Y0497800D01*
X0535800Y0497800D01*
X0535740Y0497798D01*
X0535679Y0497793D01*
X0535620Y0497784D01*
X0535561Y0497771D01*
X0535502Y0497755D01*
X0535445Y0497735D01*
X0535390Y0497712D01*
X0535335Y0497685D01*
X0535283Y0497656D01*
X0535232Y0497623D01*
X0535183Y0497587D01*
X0535137Y0497549D01*
X0535093Y0497507D01*
X0535051Y0497463D01*
X0535013Y0497417D01*
X0534977Y0497368D01*
X0534944Y0497317D01*
X0534915Y0497265D01*
X0534888Y0497210D01*
X0534865Y0497155D01*
X0534845Y0497098D01*
X0534829Y0497039D01*
X0534816Y0496980D01*
X0534807Y0496921D01*
X0534802Y0496860D01*
X0534800Y0496800D01*
X0542800Y0488300D02*
X0542800Y0472800D01*
X0542800Y0469300D02*
X0542800Y0467300D01*
X0459800Y0471300D02*
X0459800Y0486800D01*
X0459800Y0490300D02*
X0459800Y0562300D01*
X0641800Y0406300D02*
X0644000Y0406300D01*
X0644000Y0398800D01*
X0660000Y0398800D01*
X0660000Y0380800D01*
X0658500Y0380800D01*
X0658500Y0379300D02*
X0665200Y0379300D01*
X0665200Y0380800D02*
X0663700Y0380800D01*
X0663700Y0398800D01*
X0679700Y0398800D01*
X0679700Y0406300D01*
X0663700Y0406300D01*
X0660000Y0406300D01*
X0644000Y0406300D01*
X0641800Y0406300D02*
X0641800Y0402300D01*
X0641800Y0397800D01*
X0641800Y0379300D01*
X0645500Y0379300D01*
X0645500Y0380800D02*
X0644000Y0380800D01*
X0644000Y0398800D01*
X0641800Y0397800D02*
X0639800Y0396800D01*
X0639800Y0403300D01*
X0641800Y0402300D01*
X0645500Y0396300D02*
X0658500Y0396300D01*
X0658500Y0383800D01*
X0665200Y0383800D02*
X0665200Y0396300D01*
X0678200Y0396300D01*
X0678200Y0383800D01*
X0678200Y0380800D02*
X0679700Y0380800D01*
X0679700Y0398800D01*
X0663700Y0398800D02*
X0663700Y0406300D01*
X0660000Y0406300D02*
X0660000Y0398800D01*
X0645500Y0396300D02*
X0645500Y0383800D01*
X0641800Y0379300D02*
X0641800Y0375300D01*
X0641800Y0369300D01*
X0681800Y0369300D01*
X0681800Y0357300D01*
X0641800Y0357300D01*
X0639800Y0357300D01*
X0639800Y0376300D01*
X0641800Y0375300D01*
X0641800Y0369300D02*
X0641800Y0357300D01*
X0644000Y0358300D02*
X0644000Y0368300D01*
X0660000Y0368300D01*
X0660000Y0358300D01*
X0644000Y0358300D01*
X0646400Y0361800D02*
X0658400Y0364300D01*
X0657900Y0364800D02*
X0645900Y0362300D01*
X0646001Y0361900D02*
X0645934Y0361977D01*
X0645871Y0362056D01*
X0645811Y0362137D01*
X0645753Y0362220D01*
X0645699Y0362306D01*
X0645649Y0362394D01*
X0645601Y0362483D01*
X0645557Y0362574D01*
X0645516Y0362667D01*
X0645479Y0362761D01*
X0645446Y0362856D01*
X0645416Y0362953D01*
X0645389Y0363051D01*
X0645367Y0363150D01*
X0645348Y0363249D01*
X0645333Y0363349D01*
X0645322Y0363450D01*
X0645314Y0363551D01*
X0645310Y0363652D01*
X0645311Y0363753D01*
X0645314Y0363854D01*
X0645322Y0363955D01*
X0645334Y0364056D01*
X0645349Y0364156D01*
X0645368Y0364255D01*
X0645391Y0364354D01*
X0645417Y0364452D01*
X0645447Y0364548D01*
X0645481Y0364644D01*
X0645518Y0364738D01*
X0645559Y0364830D01*
X0645603Y0364922D01*
X0645651Y0365011D01*
X0645702Y0365098D01*
X0645756Y0365184D01*
X0645814Y0365267D01*
X0645874Y0365348D01*
X0645938Y0365427D01*
X0646004Y0365503D01*
X0646073Y0365577D01*
X0646145Y0365648D01*
X0646220Y0365717D01*
X0645982Y0361884D02*
X0646112Y0361738D01*
X0646246Y0361594D01*
X0646384Y0361454D01*
X0646525Y0361317D01*
X0646669Y0361183D01*
X0646817Y0361054D01*
X0646967Y0360927D01*
X0647121Y0360805D01*
X0647277Y0360686D01*
X0647437Y0360571D01*
X0647599Y0360460D01*
X0647764Y0360353D01*
X0647931Y0360249D01*
X0648101Y0360150D01*
X0648273Y0360056D01*
X0648447Y0359965D01*
X0648624Y0359878D01*
X0648802Y0359796D01*
X0648983Y0359719D01*
X0649165Y0359645D01*
X0649349Y0359576D01*
X0649534Y0359512D01*
X0649722Y0359452D01*
X0649910Y0359396D01*
X0650100Y0359346D01*
X0650291Y0359299D01*
X0650483Y0359258D01*
X0650676Y0359221D01*
X0650870Y0359189D01*
X0651065Y0359161D01*
X0651260Y0359139D01*
X0651455Y0359121D01*
X0651651Y0359107D01*
X0651848Y0359099D01*
X0652044Y0359095D01*
X0652241Y0359096D01*
X0652437Y0359102D01*
X0652633Y0359113D01*
X0652829Y0359128D01*
X0653025Y0359148D01*
X0653220Y0359173D01*
X0653414Y0359202D01*
X0653608Y0359236D01*
X0653800Y0359275D01*
X0653992Y0359319D01*
X0654182Y0359367D01*
X0654372Y0359420D01*
X0654560Y0359477D01*
X0654746Y0359539D01*
X0654931Y0359606D01*
X0655114Y0359676D01*
X0655296Y0359752D01*
X0655475Y0359831D01*
X0655653Y0359915D01*
X0655829Y0360004D01*
X0656002Y0360096D01*
X0656173Y0360193D01*
X0656342Y0360294D01*
X0656508Y0360399D01*
X0656672Y0360507D01*
X0656833Y0360620D01*
X0656991Y0360737D01*
X0657146Y0360857D01*
X0657298Y0360982D01*
X0657447Y0361109D01*
X0657594Y0361241D01*
X0657736Y0361376D01*
X0657876Y0361514D01*
X0658012Y0361656D01*
X0658145Y0361801D01*
X0658274Y0361949D01*
X0658399Y0362100D01*
X0658200Y0361899D02*
X0658265Y0361971D01*
X0658326Y0362045D01*
X0658385Y0362122D01*
X0658440Y0362201D01*
X0658492Y0362282D01*
X0658541Y0362366D01*
X0658586Y0362451D01*
X0658628Y0362538D01*
X0658666Y0362627D01*
X0658700Y0362717D01*
X0658730Y0362809D01*
X0658757Y0362901D01*
X0658780Y0362995D01*
X0658799Y0363090D01*
X0658814Y0363185D01*
X0658825Y0363281D01*
X0658832Y0363377D01*
X0658835Y0363474D01*
X0658834Y0363570D01*
X0658829Y0363667D01*
X0658820Y0363763D01*
X0658807Y0363858D01*
X0658791Y0363954D01*
X0658770Y0364048D01*
X0658745Y0364141D01*
X0658717Y0364233D01*
X0658685Y0364324D01*
X0658649Y0364414D01*
X0658609Y0364502D01*
X0658566Y0364588D01*
X0658519Y0364673D01*
X0658469Y0364755D01*
X0658415Y0364835D01*
X0658359Y0364913D01*
X0658299Y0364989D01*
X0658236Y0365062D01*
X0658170Y0365132D01*
X0658101Y0365200D01*
X0658029Y0365265D01*
X0657955Y0365326D01*
X0657878Y0365385D01*
X0657799Y0365440D01*
X0657718Y0365492D01*
X0657634Y0365541D01*
X0663700Y0368300D02*
X0663700Y0358300D01*
X0679700Y0358300D01*
X0679700Y0368300D01*
X0663700Y0368300D01*
X0665920Y0365717D02*
X0665845Y0365648D01*
X0665773Y0365577D01*
X0665704Y0365503D01*
X0665638Y0365427D01*
X0665574Y0365348D01*
X0665514Y0365267D01*
X0665456Y0365184D01*
X0665402Y0365098D01*
X0665351Y0365011D01*
X0665303Y0364922D01*
X0665259Y0364830D01*
X0665218Y0364738D01*
X0665181Y0364644D01*
X0665147Y0364548D01*
X0665117Y0364452D01*
X0665091Y0364354D01*
X0665068Y0364255D01*
X0665049Y0364156D01*
X0665034Y0364056D01*
X0665022Y0363955D01*
X0665014Y0363854D01*
X0665011Y0363753D01*
X0665010Y0363652D01*
X0665014Y0363551D01*
X0665022Y0363450D01*
X0665033Y0363349D01*
X0665048Y0363249D01*
X0665067Y0363150D01*
X0665089Y0363051D01*
X0665116Y0362953D01*
X0665146Y0362856D01*
X0665179Y0362761D01*
X0665216Y0362667D01*
X0665257Y0362574D01*
X0665301Y0362483D01*
X0665349Y0362394D01*
X0665399Y0362306D01*
X0665453Y0362220D01*
X0665511Y0362137D01*
X0665571Y0362056D01*
X0665634Y0361977D01*
X0665701Y0361900D01*
X0666100Y0361800D02*
X0678100Y0364300D01*
X0677600Y0364800D02*
X0665600Y0362300D01*
X0665737Y0365584D02*
X0665927Y0365723D01*
X0666119Y0365856D01*
X0666315Y0365985D01*
X0666514Y0366109D01*
X0666716Y0366229D01*
X0666921Y0366343D01*
X0667128Y0366452D01*
X0667338Y0366556D01*
X0667551Y0366655D01*
X0667766Y0366749D01*
X0667983Y0366838D01*
X0668202Y0366921D01*
X0668423Y0366999D01*
X0668646Y0367071D01*
X0668871Y0367138D01*
X0669097Y0367200D01*
X0669325Y0367255D01*
X0669554Y0367306D01*
X0669784Y0367350D01*
X0670015Y0367390D01*
X0670247Y0367423D01*
X0670480Y0367451D01*
X0670713Y0367473D01*
X0670947Y0367489D01*
X0671182Y0367500D01*
X0671416Y0367505D01*
X0671650Y0367504D01*
X0671885Y0367497D01*
X0672119Y0367485D01*
X0672353Y0367467D01*
X0672586Y0367443D01*
X0672819Y0367414D01*
X0673050Y0367379D01*
X0673281Y0367338D01*
X0673511Y0367292D01*
X0673740Y0367240D01*
X0673967Y0367183D01*
X0674193Y0367120D01*
X0674417Y0367051D01*
X0674640Y0366977D01*
X0674860Y0366898D01*
X0675079Y0366813D01*
X0675296Y0366723D01*
X0675510Y0366628D01*
X0675722Y0366527D01*
X0675931Y0366422D01*
X0676138Y0366311D01*
X0676342Y0366195D01*
X0676543Y0366075D01*
X0676741Y0365949D01*
X0676936Y0365819D01*
X0677127Y0365684D01*
X0677316Y0365544D01*
X0677500Y0365400D01*
X0677334Y0365541D02*
X0677418Y0365492D01*
X0677499Y0365440D01*
X0677578Y0365385D01*
X0677655Y0365326D01*
X0677729Y0365265D01*
X0677801Y0365200D01*
X0677870Y0365132D01*
X0677936Y0365062D01*
X0677999Y0364989D01*
X0678059Y0364913D01*
X0678115Y0364835D01*
X0678169Y0364755D01*
X0678219Y0364673D01*
X0678266Y0364588D01*
X0678309Y0364502D01*
X0678349Y0364414D01*
X0678385Y0364324D01*
X0678417Y0364233D01*
X0678445Y0364141D01*
X0678470Y0364048D01*
X0678491Y0363954D01*
X0678507Y0363858D01*
X0678520Y0363763D01*
X0678529Y0363667D01*
X0678534Y0363570D01*
X0678535Y0363474D01*
X0678532Y0363377D01*
X0678525Y0363281D01*
X0678514Y0363185D01*
X0678499Y0363090D01*
X0678480Y0362995D01*
X0678457Y0362901D01*
X0678430Y0362809D01*
X0678400Y0362717D01*
X0678366Y0362627D01*
X0678328Y0362538D01*
X0678286Y0362451D01*
X0678241Y0362366D01*
X0678192Y0362282D01*
X0678140Y0362201D01*
X0678085Y0362122D01*
X0678026Y0362045D01*
X0677965Y0361971D01*
X0677900Y0361899D01*
X0678100Y0362100D02*
X0677975Y0361949D01*
X0677846Y0361800D01*
X0677713Y0361655D01*
X0677577Y0361514D01*
X0677437Y0361375D01*
X0677295Y0361240D01*
X0677148Y0361109D01*
X0676999Y0360981D01*
X0676847Y0360857D01*
X0676692Y0360736D01*
X0676534Y0360620D01*
X0676373Y0360507D01*
X0676209Y0360398D01*
X0676043Y0360293D01*
X0675874Y0360192D01*
X0675703Y0360095D01*
X0675530Y0360003D01*
X0675354Y0359915D01*
X0675176Y0359831D01*
X0674997Y0359751D01*
X0674815Y0359676D01*
X0674632Y0359605D01*
X0674447Y0359538D01*
X0674260Y0359476D01*
X0674072Y0359419D01*
X0673883Y0359366D01*
X0673693Y0359318D01*
X0673501Y0359274D01*
X0673308Y0359236D01*
X0673115Y0359201D01*
X0672920Y0359172D01*
X0672725Y0359147D01*
X0672530Y0359127D01*
X0672334Y0359112D01*
X0672138Y0359101D01*
X0671941Y0359095D01*
X0671745Y0359094D01*
X0671548Y0359098D01*
X0671352Y0359106D01*
X0671156Y0359120D01*
X0670960Y0359138D01*
X0670765Y0359160D01*
X0670570Y0359188D01*
X0670376Y0359220D01*
X0670183Y0359257D01*
X0669991Y0359298D01*
X0669800Y0359345D01*
X0669610Y0359395D01*
X0669422Y0359451D01*
X0669235Y0359511D01*
X0669049Y0359575D01*
X0668865Y0359644D01*
X0668683Y0359717D01*
X0668502Y0359795D01*
X0668324Y0359877D01*
X0668147Y0359964D01*
X0667973Y0360054D01*
X0667801Y0360149D01*
X0667631Y0360248D01*
X0667464Y0360351D01*
X0667299Y0360459D01*
X0667137Y0360570D01*
X0666977Y0360685D01*
X0666821Y0360804D01*
X0666667Y0360926D01*
X0666517Y0361052D01*
X0666369Y0361182D01*
X0666225Y0361316D01*
X0666084Y0361453D01*
X0665946Y0361593D01*
X0665812Y0361737D01*
X0665681Y0361883D01*
X0657800Y0365400D02*
X0657615Y0365544D01*
X0657427Y0365684D01*
X0657235Y0365819D01*
X0657040Y0365949D01*
X0656842Y0366075D01*
X0656641Y0366196D01*
X0656437Y0366311D01*
X0656231Y0366422D01*
X0656021Y0366528D01*
X0655810Y0366628D01*
X0655595Y0366723D01*
X0655379Y0366813D01*
X0655160Y0366898D01*
X0654940Y0366977D01*
X0654717Y0367051D01*
X0654493Y0367120D01*
X0654267Y0367183D01*
X0654040Y0367240D01*
X0653811Y0367292D01*
X0653581Y0367338D01*
X0653350Y0367379D01*
X0653118Y0367414D01*
X0652886Y0367443D01*
X0652652Y0367467D01*
X0652419Y0367485D01*
X0652184Y0367497D01*
X0651950Y0367504D01*
X0651716Y0367505D01*
X0651481Y0367500D01*
X0651247Y0367489D01*
X0651013Y0367473D01*
X0650780Y0367451D01*
X0650547Y0367423D01*
X0650315Y0367389D01*
X0650084Y0367350D01*
X0649853Y0367306D01*
X0649624Y0367255D01*
X0649397Y0367199D01*
X0649170Y0367138D01*
X0648946Y0367071D01*
X0648723Y0366999D01*
X0648501Y0366921D01*
X0648282Y0366838D01*
X0648065Y0366749D01*
X0647850Y0366655D01*
X0647638Y0366556D01*
X0647428Y0366452D01*
X0647220Y0366343D01*
X0647016Y0366229D01*
X0646814Y0366109D01*
X0646615Y0365985D01*
X0646419Y0365856D01*
X0646226Y0365722D01*
X0646037Y0365584D01*
X0678200Y0379300D02*
X0681800Y0379300D01*
X0681800Y0369300D01*
X0681800Y0379300D02*
X0681800Y0406300D01*
X0679700Y0406300D01*
X0706800Y0406300D02*
X0706800Y0394300D01*
X0746800Y0394300D01*
X0746800Y0388300D01*
X0746800Y0384300D01*
X0743100Y0384300D01*
X0743100Y0382800D02*
X0744600Y0382800D01*
X0744600Y0364800D01*
X0744600Y0357300D01*
X0746800Y0357300D01*
X0746800Y0361300D01*
X0746800Y0365800D01*
X0746800Y0384300D01*
X0748800Y0387300D02*
X0746800Y0388300D01*
X0748800Y0387300D02*
X0748800Y0406300D01*
X0746800Y0406300D01*
X0706800Y0406300D01*
X0708900Y0405300D02*
X0724900Y0405300D01*
X0724900Y0395300D01*
X0708900Y0395300D01*
X0708900Y0405300D01*
X0710500Y0399300D02*
X0722500Y0401800D01*
X0723000Y0401300D02*
X0711000Y0398800D01*
X0711266Y0398058D02*
X0711182Y0398107D01*
X0711101Y0398159D01*
X0711022Y0398214D01*
X0710945Y0398273D01*
X0710871Y0398334D01*
X0710799Y0398399D01*
X0710730Y0398467D01*
X0710664Y0398537D01*
X0710601Y0398610D01*
X0710541Y0398686D01*
X0710485Y0398764D01*
X0710431Y0398844D01*
X0710381Y0398926D01*
X0710334Y0399011D01*
X0710291Y0399097D01*
X0710251Y0399185D01*
X0710215Y0399275D01*
X0710183Y0399366D01*
X0710155Y0399458D01*
X0710130Y0399551D01*
X0710109Y0399645D01*
X0710093Y0399741D01*
X0710080Y0399836D01*
X0710071Y0399932D01*
X0710066Y0400029D01*
X0710065Y0400125D01*
X0710068Y0400222D01*
X0710075Y0400318D01*
X0710086Y0400414D01*
X0710101Y0400509D01*
X0710120Y0400604D01*
X0710143Y0400698D01*
X0710170Y0400790D01*
X0710200Y0400882D01*
X0710234Y0400972D01*
X0710272Y0401061D01*
X0710314Y0401148D01*
X0710359Y0401233D01*
X0710408Y0401317D01*
X0710460Y0401398D01*
X0710515Y0401477D01*
X0710574Y0401554D01*
X0710635Y0401628D01*
X0710700Y0401700D01*
X0711100Y0398200D02*
X0711284Y0398056D01*
X0711473Y0397916D01*
X0711664Y0397781D01*
X0711859Y0397651D01*
X0712057Y0397525D01*
X0712258Y0397405D01*
X0712462Y0397289D01*
X0712669Y0397178D01*
X0712878Y0397073D01*
X0713090Y0396972D01*
X0713304Y0396877D01*
X0713521Y0396787D01*
X0713740Y0396702D01*
X0713960Y0396623D01*
X0714183Y0396549D01*
X0714407Y0396480D01*
X0714633Y0396417D01*
X0714860Y0396360D01*
X0715089Y0396308D01*
X0715319Y0396262D01*
X0715550Y0396221D01*
X0715781Y0396186D01*
X0716014Y0396157D01*
X0716247Y0396133D01*
X0716481Y0396115D01*
X0716715Y0396103D01*
X0716950Y0396096D01*
X0717184Y0396095D01*
X0717418Y0396100D01*
X0717653Y0396111D01*
X0717887Y0396127D01*
X0718120Y0396149D01*
X0718353Y0396177D01*
X0718585Y0396210D01*
X0718816Y0396250D01*
X0719046Y0396294D01*
X0719275Y0396345D01*
X0719503Y0396400D01*
X0719729Y0396462D01*
X0719954Y0396529D01*
X0720177Y0396601D01*
X0720398Y0396679D01*
X0720617Y0396762D01*
X0720834Y0396851D01*
X0721049Y0396945D01*
X0721262Y0397044D01*
X0721472Y0397148D01*
X0721679Y0397257D01*
X0721884Y0397371D01*
X0722086Y0397491D01*
X0722285Y0397615D01*
X0722481Y0397744D01*
X0722673Y0397877D01*
X0722863Y0398016D01*
X0722680Y0397883D02*
X0722755Y0397952D01*
X0722827Y0398023D01*
X0722896Y0398097D01*
X0722962Y0398173D01*
X0723026Y0398252D01*
X0723086Y0398333D01*
X0723144Y0398416D01*
X0723198Y0398502D01*
X0723249Y0398589D01*
X0723297Y0398678D01*
X0723341Y0398770D01*
X0723382Y0398862D01*
X0723419Y0398956D01*
X0723453Y0399052D01*
X0723483Y0399148D01*
X0723509Y0399246D01*
X0723532Y0399345D01*
X0723551Y0399444D01*
X0723566Y0399544D01*
X0723578Y0399645D01*
X0723586Y0399746D01*
X0723589Y0399847D01*
X0723590Y0399948D01*
X0723586Y0400049D01*
X0723578Y0400150D01*
X0723567Y0400251D01*
X0723552Y0400351D01*
X0723533Y0400450D01*
X0723511Y0400549D01*
X0723484Y0400647D01*
X0723454Y0400744D01*
X0723421Y0400839D01*
X0723384Y0400933D01*
X0723343Y0401026D01*
X0723299Y0401117D01*
X0723251Y0401206D01*
X0723201Y0401294D01*
X0723147Y0401380D01*
X0723089Y0401463D01*
X0723029Y0401544D01*
X0722966Y0401623D01*
X0722899Y0401700D01*
X0728600Y0405300D02*
X0728600Y0395300D01*
X0744600Y0395300D01*
X0744600Y0405300D01*
X0728600Y0405300D01*
X0730200Y0399300D02*
X0742200Y0401800D01*
X0742700Y0401300D02*
X0730700Y0398800D01*
X0730966Y0398058D02*
X0730882Y0398107D01*
X0730801Y0398159D01*
X0730722Y0398214D01*
X0730645Y0398273D01*
X0730571Y0398334D01*
X0730499Y0398399D01*
X0730430Y0398467D01*
X0730364Y0398537D01*
X0730301Y0398610D01*
X0730241Y0398686D01*
X0730185Y0398764D01*
X0730131Y0398844D01*
X0730081Y0398926D01*
X0730034Y0399011D01*
X0729991Y0399097D01*
X0729951Y0399185D01*
X0729915Y0399275D01*
X0729883Y0399366D01*
X0729855Y0399458D01*
X0729830Y0399551D01*
X0729809Y0399645D01*
X0729793Y0399741D01*
X0729780Y0399836D01*
X0729771Y0399932D01*
X0729766Y0400029D01*
X0729765Y0400125D01*
X0729768Y0400222D01*
X0729775Y0400318D01*
X0729786Y0400414D01*
X0729801Y0400509D01*
X0729820Y0400604D01*
X0729843Y0400698D01*
X0729870Y0400790D01*
X0729900Y0400882D01*
X0729934Y0400972D01*
X0729972Y0401061D01*
X0730014Y0401148D01*
X0730059Y0401233D01*
X0730108Y0401317D01*
X0730160Y0401398D01*
X0730215Y0401477D01*
X0730274Y0401554D01*
X0730335Y0401628D01*
X0730400Y0401700D01*
X0730800Y0398200D02*
X0730985Y0398056D01*
X0731173Y0397916D01*
X0731365Y0397781D01*
X0731560Y0397651D01*
X0731758Y0397525D01*
X0731959Y0397404D01*
X0732163Y0397289D01*
X0732369Y0397178D01*
X0732579Y0397072D01*
X0732790Y0396972D01*
X0733005Y0396877D01*
X0733221Y0396787D01*
X0733440Y0396702D01*
X0733660Y0396623D01*
X0733883Y0396549D01*
X0734107Y0396480D01*
X0734333Y0396417D01*
X0734560Y0396360D01*
X0734789Y0396308D01*
X0735019Y0396262D01*
X0735250Y0396221D01*
X0735482Y0396186D01*
X0735714Y0396157D01*
X0735948Y0396133D01*
X0736181Y0396115D01*
X0736416Y0396103D01*
X0736650Y0396096D01*
X0736884Y0396095D01*
X0737119Y0396100D01*
X0737353Y0396111D01*
X0737587Y0396127D01*
X0737820Y0396149D01*
X0738053Y0396177D01*
X0738285Y0396211D01*
X0738516Y0396250D01*
X0738747Y0396294D01*
X0738976Y0396345D01*
X0739203Y0396401D01*
X0739430Y0396462D01*
X0739654Y0396529D01*
X0739877Y0396601D01*
X0740099Y0396679D01*
X0740318Y0396762D01*
X0740535Y0396851D01*
X0740750Y0396945D01*
X0740962Y0397044D01*
X0741172Y0397148D01*
X0741380Y0397257D01*
X0741584Y0397371D01*
X0741786Y0397491D01*
X0741985Y0397615D01*
X0742181Y0397744D01*
X0742374Y0397878D01*
X0742563Y0398016D01*
X0742380Y0397883D02*
X0742455Y0397952D01*
X0742527Y0398023D01*
X0742596Y0398097D01*
X0742662Y0398173D01*
X0742726Y0398252D01*
X0742786Y0398333D01*
X0742844Y0398416D01*
X0742898Y0398502D01*
X0742949Y0398589D01*
X0742997Y0398678D01*
X0743041Y0398770D01*
X0743082Y0398862D01*
X0743119Y0398956D01*
X0743153Y0399052D01*
X0743183Y0399148D01*
X0743209Y0399246D01*
X0743232Y0399345D01*
X0743251Y0399444D01*
X0743266Y0399544D01*
X0743278Y0399645D01*
X0743286Y0399746D01*
X0743289Y0399847D01*
X0743290Y0399948D01*
X0743286Y0400049D01*
X0743278Y0400150D01*
X0743267Y0400251D01*
X0743252Y0400351D01*
X0743233Y0400450D01*
X0743211Y0400549D01*
X0743184Y0400647D01*
X0743154Y0400744D01*
X0743121Y0400839D01*
X0743084Y0400933D01*
X0743043Y0401026D01*
X0742999Y0401117D01*
X0742951Y0401206D01*
X0742901Y0401294D01*
X0742847Y0401380D01*
X0742789Y0401463D01*
X0742729Y0401544D01*
X0742666Y0401623D01*
X0742599Y0401700D01*
X0746800Y0406300D02*
X0746800Y0394300D01*
X0742618Y0401716D02*
X0742488Y0401862D01*
X0742354Y0402006D01*
X0742216Y0402146D01*
X0742075Y0402283D01*
X0741931Y0402417D01*
X0741783Y0402546D01*
X0741633Y0402673D01*
X0741479Y0402795D01*
X0741323Y0402914D01*
X0741163Y0403029D01*
X0741001Y0403140D01*
X0740836Y0403247D01*
X0740669Y0403351D01*
X0740499Y0403450D01*
X0740327Y0403544D01*
X0740153Y0403635D01*
X0739976Y0403722D01*
X0739798Y0403804D01*
X0739617Y0403881D01*
X0739435Y0403955D01*
X0739251Y0404024D01*
X0739066Y0404088D01*
X0738878Y0404148D01*
X0738690Y0404204D01*
X0738500Y0404254D01*
X0738309Y0404301D01*
X0738117Y0404342D01*
X0737924Y0404379D01*
X0737730Y0404411D01*
X0737535Y0404439D01*
X0737340Y0404461D01*
X0737145Y0404479D01*
X0736949Y0404493D01*
X0736752Y0404501D01*
X0736556Y0404505D01*
X0736359Y0404504D01*
X0736163Y0404498D01*
X0735967Y0404487D01*
X0735771Y0404472D01*
X0735575Y0404452D01*
X0735380Y0404427D01*
X0735186Y0404398D01*
X0734992Y0404364D01*
X0734800Y0404325D01*
X0734608Y0404281D01*
X0734418Y0404233D01*
X0734228Y0404180D01*
X0734040Y0404123D01*
X0733854Y0404061D01*
X0733669Y0403994D01*
X0733486Y0403924D01*
X0733304Y0403848D01*
X0733125Y0403769D01*
X0732947Y0403685D01*
X0732771Y0403596D01*
X0732598Y0403504D01*
X0732427Y0403407D01*
X0732258Y0403306D01*
X0732092Y0403201D01*
X0731928Y0403093D01*
X0731767Y0402980D01*
X0731609Y0402863D01*
X0731454Y0402743D01*
X0731302Y0402618D01*
X0731153Y0402491D01*
X0731006Y0402359D01*
X0730864Y0402224D01*
X0730724Y0402086D01*
X0730588Y0401944D01*
X0730455Y0401799D01*
X0730326Y0401651D01*
X0730201Y0401500D01*
X0722919Y0401717D02*
X0722788Y0401863D01*
X0722654Y0402007D01*
X0722516Y0402147D01*
X0722375Y0402284D01*
X0722231Y0402418D01*
X0722083Y0402548D01*
X0721933Y0402674D01*
X0721779Y0402796D01*
X0721623Y0402915D01*
X0721463Y0403030D01*
X0721301Y0403141D01*
X0721136Y0403249D01*
X0720969Y0403352D01*
X0720799Y0403451D01*
X0720627Y0403546D01*
X0720453Y0403636D01*
X0720276Y0403723D01*
X0720098Y0403805D01*
X0719917Y0403883D01*
X0719735Y0403956D01*
X0719551Y0404025D01*
X0719365Y0404089D01*
X0719178Y0404149D01*
X0718990Y0404205D01*
X0718800Y0404255D01*
X0718609Y0404302D01*
X0718417Y0404343D01*
X0718224Y0404380D01*
X0718030Y0404412D01*
X0717835Y0404440D01*
X0717640Y0404462D01*
X0717444Y0404480D01*
X0717248Y0404494D01*
X0717052Y0404502D01*
X0716855Y0404506D01*
X0716659Y0404505D01*
X0716462Y0404499D01*
X0716266Y0404488D01*
X0716070Y0404473D01*
X0715875Y0404453D01*
X0715680Y0404428D01*
X0715485Y0404399D01*
X0715292Y0404364D01*
X0715099Y0404326D01*
X0714907Y0404282D01*
X0714717Y0404234D01*
X0714528Y0404181D01*
X0714340Y0404124D01*
X0714153Y0404062D01*
X0713968Y0403995D01*
X0713785Y0403924D01*
X0713603Y0403849D01*
X0713424Y0403769D01*
X0713246Y0403685D01*
X0713070Y0403597D01*
X0712897Y0403505D01*
X0712726Y0403408D01*
X0712557Y0403307D01*
X0712391Y0403202D01*
X0712227Y0403093D01*
X0712066Y0402980D01*
X0711908Y0402864D01*
X0711753Y0402743D01*
X0711601Y0402619D01*
X0711452Y0402491D01*
X0711305Y0402360D01*
X0711163Y0402225D01*
X0711023Y0402086D01*
X0710887Y0401945D01*
X0710754Y0401800D01*
X0710625Y0401651D01*
X0710500Y0401500D01*
X0706800Y0394300D02*
X0706800Y0384300D01*
X0710400Y0384300D01*
X0710400Y0382800D02*
X0708900Y0382800D01*
X0708900Y0364800D01*
X0708900Y0357300D01*
X0724900Y0357300D01*
X0728600Y0357300D01*
X0744600Y0357300D01*
X0746800Y0361300D02*
X0748800Y0360300D01*
X0748800Y0366800D01*
X0746800Y0365800D01*
X0744600Y0364800D02*
X0728600Y0364800D01*
X0728600Y0382800D01*
X0730100Y0382800D01*
X0730100Y0384300D02*
X0723400Y0384300D01*
X0723400Y0382800D02*
X0724900Y0382800D01*
X0724900Y0364800D01*
X0708900Y0364800D01*
X0710400Y0367300D02*
X0710400Y0379800D01*
X0706800Y0384300D02*
X0706800Y0357300D01*
X0708900Y0357300D01*
X0710400Y0367300D02*
X0723400Y0367300D01*
X0723400Y0379800D01*
X0730100Y0379800D02*
X0730100Y0367300D01*
X0743100Y0367300D01*
X0743100Y0379800D01*
X0728600Y0364800D02*
X0728600Y0357300D01*
X0724900Y0357300D02*
X0724900Y0364800D01*
X0681402Y0336961D02*
X0642304Y0336961D01*
X0642304Y0257040D01*
X0681402Y0257040D01*
X0681402Y0336961D01*
X0772304Y0312040D02*
X0811402Y0312040D01*
X0811402Y0391961D01*
X0772304Y0391961D01*
X0772304Y0312040D01*
X0783800Y0290800D02*
X0799800Y0290800D01*
X0799860Y0290798D01*
X0799921Y0290793D01*
X0799980Y0290784D01*
X0800039Y0290771D01*
X0800098Y0290755D01*
X0800155Y0290735D01*
X0800210Y0290712D01*
X0800265Y0290685D01*
X0800317Y0290656D01*
X0800368Y0290623D01*
X0800417Y0290587D01*
X0800463Y0290549D01*
X0800507Y0290507D01*
X0800549Y0290463D01*
X0800587Y0290417D01*
X0800623Y0290368D01*
X0800656Y0290317D01*
X0800685Y0290265D01*
X0800712Y0290210D01*
X0800735Y0290155D01*
X0800755Y0290098D01*
X0800771Y0290039D01*
X0800784Y0289980D01*
X0800793Y0289921D01*
X0800798Y0289860D01*
X0800800Y0289800D01*
X0800800Y0283800D01*
X0800798Y0283740D01*
X0800793Y0283679D01*
X0800784Y0283620D01*
X0800771Y0283561D01*
X0800755Y0283502D01*
X0800735Y0283445D01*
X0800712Y0283390D01*
X0800685Y0283335D01*
X0800656Y0283283D01*
X0800623Y0283232D01*
X0800587Y0283183D01*
X0800549Y0283137D01*
X0800507Y0283093D01*
X0800463Y0283051D01*
X0800417Y0283013D01*
X0800368Y0282977D01*
X0800317Y0282944D01*
X0800265Y0282915D01*
X0800210Y0282888D01*
X0800155Y0282865D01*
X0800098Y0282845D01*
X0800039Y0282829D01*
X0799980Y0282816D01*
X0799921Y0282807D01*
X0799860Y0282802D01*
X0799800Y0282800D01*
X0783800Y0282800D01*
X0783740Y0282802D01*
X0783679Y0282807D01*
X0783620Y0282816D01*
X0783561Y0282829D01*
X0783502Y0282845D01*
X0783445Y0282865D01*
X0783390Y0282888D01*
X0783335Y0282915D01*
X0783283Y0282944D01*
X0783232Y0282977D01*
X0783183Y0283013D01*
X0783137Y0283051D01*
X0783093Y0283093D01*
X0783051Y0283137D01*
X0783013Y0283183D01*
X0782977Y0283232D01*
X0782944Y0283283D01*
X0782915Y0283335D01*
X0782888Y0283390D01*
X0782865Y0283445D01*
X0782845Y0283502D01*
X0782829Y0283561D01*
X0782816Y0283620D01*
X0782807Y0283679D01*
X0782802Y0283740D01*
X0782800Y0283800D01*
X0782800Y0289800D01*
X0782802Y0289860D01*
X0782807Y0289921D01*
X0782816Y0289980D01*
X0782829Y0290039D01*
X0782845Y0290098D01*
X0782865Y0290155D01*
X0782888Y0290210D01*
X0782915Y0290265D01*
X0782944Y0290317D01*
X0782977Y0290368D01*
X0783013Y0290417D01*
X0783051Y0290463D01*
X0783093Y0290507D01*
X0783137Y0290549D01*
X0783183Y0290587D01*
X0783232Y0290623D01*
X0783283Y0290656D01*
X0783335Y0290685D01*
X0783390Y0290712D01*
X0783445Y0290735D01*
X0783502Y0290755D01*
X0783561Y0290771D01*
X0783620Y0290784D01*
X0783679Y0290793D01*
X0783740Y0290798D01*
X0783800Y0290800D01*
X0787800Y0289300D02*
X0791800Y0286800D01*
X0791800Y0289300D01*
X0791800Y0286800D02*
X0787800Y0284300D01*
X0787800Y0289300D01*
X0785800Y0286800D02*
X0791800Y0286800D01*
X0791800Y0284300D01*
X0791800Y0286800D02*
X0794300Y0286800D01*
X0857300Y0289700D02*
X0857300Y0273700D01*
X0857300Y0270000D01*
X0857300Y0254000D01*
X0864800Y0254000D01*
X0864800Y0270000D01*
X0882800Y0270000D01*
X0882800Y0268500D01*
X0884300Y0268500D02*
X0884300Y0275200D01*
X0882800Y0275200D02*
X0882800Y0273700D01*
X0864800Y0273700D01*
X0864800Y0289700D01*
X0857300Y0289700D01*
X0857300Y0291800D01*
X0884300Y0291800D01*
X0884300Y0288200D01*
X0882800Y0288200D02*
X0882800Y0289700D01*
X0864800Y0289700D01*
X0867300Y0288200D02*
X0879800Y0288200D01*
X0884300Y0291800D02*
X0894300Y0291800D01*
X0906300Y0291800D01*
X0906300Y0251800D01*
X0906300Y0249800D01*
X0887300Y0249800D01*
X0888300Y0251800D01*
X0894300Y0251800D01*
X0894300Y0291800D01*
X0895300Y0289700D02*
X0905300Y0289700D01*
X0905300Y0273700D01*
X0895300Y0273700D01*
X0895300Y0289700D01*
X0898800Y0287600D02*
X0901300Y0275600D01*
X0901800Y0276100D02*
X0899300Y0288100D01*
X0898058Y0287334D02*
X0898107Y0287418D01*
X0898159Y0287499D01*
X0898214Y0287578D01*
X0898273Y0287655D01*
X0898334Y0287729D01*
X0898399Y0287801D01*
X0898467Y0287870D01*
X0898537Y0287936D01*
X0898610Y0287999D01*
X0898686Y0288059D01*
X0898764Y0288115D01*
X0898844Y0288169D01*
X0898926Y0288219D01*
X0899011Y0288266D01*
X0899097Y0288309D01*
X0899185Y0288349D01*
X0899275Y0288385D01*
X0899366Y0288417D01*
X0899458Y0288445D01*
X0899551Y0288470D01*
X0899645Y0288491D01*
X0899741Y0288507D01*
X0899836Y0288520D01*
X0899932Y0288529D01*
X0900029Y0288534D01*
X0900125Y0288535D01*
X0900222Y0288532D01*
X0900318Y0288525D01*
X0900414Y0288514D01*
X0900509Y0288499D01*
X0900604Y0288480D01*
X0900698Y0288457D01*
X0900790Y0288430D01*
X0900882Y0288400D01*
X0900972Y0288366D01*
X0901061Y0288328D01*
X0901148Y0288286D01*
X0901233Y0288241D01*
X0901317Y0288192D01*
X0901398Y0288140D01*
X0901477Y0288085D01*
X0901554Y0288026D01*
X0901628Y0287965D01*
X0901700Y0287900D01*
X0898200Y0287500D02*
X0898056Y0287316D01*
X0897916Y0287127D01*
X0897781Y0286936D01*
X0897651Y0286741D01*
X0897525Y0286543D01*
X0897405Y0286342D01*
X0897289Y0286138D01*
X0897178Y0285931D01*
X0897073Y0285722D01*
X0896972Y0285510D01*
X0896877Y0285296D01*
X0896787Y0285079D01*
X0896702Y0284860D01*
X0896623Y0284640D01*
X0896549Y0284417D01*
X0896480Y0284193D01*
X0896417Y0283967D01*
X0896360Y0283740D01*
X0896308Y0283511D01*
X0896262Y0283281D01*
X0896221Y0283050D01*
X0896186Y0282819D01*
X0896157Y0282586D01*
X0896133Y0282353D01*
X0896115Y0282119D01*
X0896103Y0281885D01*
X0896096Y0281650D01*
X0896095Y0281416D01*
X0896100Y0281182D01*
X0896111Y0280947D01*
X0896127Y0280713D01*
X0896149Y0280480D01*
X0896177Y0280247D01*
X0896210Y0280015D01*
X0896250Y0279784D01*
X0896294Y0279554D01*
X0896345Y0279325D01*
X0896400Y0279097D01*
X0896462Y0278871D01*
X0896529Y0278646D01*
X0896601Y0278423D01*
X0896679Y0278202D01*
X0896762Y0277983D01*
X0896851Y0277766D01*
X0896945Y0277551D01*
X0897044Y0277338D01*
X0897148Y0277128D01*
X0897257Y0276921D01*
X0897371Y0276716D01*
X0897491Y0276514D01*
X0897615Y0276315D01*
X0897744Y0276119D01*
X0897877Y0275927D01*
X0898016Y0275737D01*
X0897883Y0275920D02*
X0897952Y0275845D01*
X0898023Y0275773D01*
X0898097Y0275704D01*
X0898173Y0275638D01*
X0898252Y0275574D01*
X0898333Y0275514D01*
X0898416Y0275456D01*
X0898502Y0275402D01*
X0898589Y0275351D01*
X0898678Y0275303D01*
X0898770Y0275259D01*
X0898862Y0275218D01*
X0898956Y0275181D01*
X0899052Y0275147D01*
X0899148Y0275117D01*
X0899246Y0275091D01*
X0899345Y0275068D01*
X0899444Y0275049D01*
X0899544Y0275034D01*
X0899645Y0275022D01*
X0899746Y0275014D01*
X0899847Y0275011D01*
X0899948Y0275010D01*
X0900049Y0275014D01*
X0900150Y0275022D01*
X0900251Y0275033D01*
X0900351Y0275048D01*
X0900450Y0275067D01*
X0900549Y0275089D01*
X0900647Y0275116D01*
X0900744Y0275146D01*
X0900839Y0275179D01*
X0900933Y0275216D01*
X0901026Y0275257D01*
X0901117Y0275301D01*
X0901206Y0275349D01*
X0901294Y0275399D01*
X0901380Y0275453D01*
X0901463Y0275511D01*
X0901544Y0275571D01*
X0901623Y0275634D01*
X0901700Y0275701D01*
X0905300Y0270000D02*
X0895300Y0270000D01*
X0895300Y0254000D01*
X0905300Y0254000D01*
X0905300Y0270000D01*
X0899300Y0268400D02*
X0901800Y0256400D01*
X0901300Y0255900D02*
X0898800Y0267900D01*
X0898058Y0267634D02*
X0898107Y0267718D01*
X0898159Y0267799D01*
X0898214Y0267878D01*
X0898273Y0267955D01*
X0898334Y0268029D01*
X0898399Y0268101D01*
X0898467Y0268170D01*
X0898537Y0268236D01*
X0898610Y0268299D01*
X0898686Y0268359D01*
X0898764Y0268415D01*
X0898844Y0268469D01*
X0898926Y0268519D01*
X0899011Y0268566D01*
X0899097Y0268609D01*
X0899185Y0268649D01*
X0899275Y0268685D01*
X0899366Y0268717D01*
X0899458Y0268745D01*
X0899551Y0268770D01*
X0899645Y0268791D01*
X0899741Y0268807D01*
X0899836Y0268820D01*
X0899932Y0268829D01*
X0900029Y0268834D01*
X0900125Y0268835D01*
X0900222Y0268832D01*
X0900318Y0268825D01*
X0900414Y0268814D01*
X0900509Y0268799D01*
X0900604Y0268780D01*
X0900698Y0268757D01*
X0900790Y0268730D01*
X0900882Y0268700D01*
X0900972Y0268666D01*
X0901061Y0268628D01*
X0901148Y0268586D01*
X0901233Y0268541D01*
X0901317Y0268492D01*
X0901398Y0268440D01*
X0901477Y0268385D01*
X0901554Y0268326D01*
X0901628Y0268265D01*
X0901700Y0268200D01*
X0898200Y0267800D02*
X0898056Y0267615D01*
X0897916Y0267427D01*
X0897781Y0267235D01*
X0897651Y0267040D01*
X0897525Y0266842D01*
X0897404Y0266641D01*
X0897289Y0266437D01*
X0897178Y0266231D01*
X0897072Y0266021D01*
X0896972Y0265810D01*
X0896877Y0265595D01*
X0896787Y0265379D01*
X0896702Y0265160D01*
X0896623Y0264940D01*
X0896549Y0264717D01*
X0896480Y0264493D01*
X0896417Y0264267D01*
X0896360Y0264040D01*
X0896308Y0263811D01*
X0896262Y0263581D01*
X0896221Y0263350D01*
X0896186Y0263118D01*
X0896157Y0262886D01*
X0896133Y0262652D01*
X0896115Y0262419D01*
X0896103Y0262184D01*
X0896096Y0261950D01*
X0896095Y0261716D01*
X0896100Y0261481D01*
X0896111Y0261247D01*
X0896127Y0261013D01*
X0896149Y0260780D01*
X0896177Y0260547D01*
X0896211Y0260315D01*
X0896250Y0260084D01*
X0896294Y0259853D01*
X0896345Y0259624D01*
X0896401Y0259397D01*
X0896462Y0259170D01*
X0896529Y0258946D01*
X0896601Y0258723D01*
X0896679Y0258501D01*
X0896762Y0258282D01*
X0896851Y0258065D01*
X0896945Y0257850D01*
X0897044Y0257638D01*
X0897148Y0257428D01*
X0897257Y0257220D01*
X0897371Y0257016D01*
X0897491Y0256814D01*
X0897615Y0256615D01*
X0897744Y0256419D01*
X0897878Y0256226D01*
X0898016Y0256037D01*
X0897883Y0256220D02*
X0897952Y0256145D01*
X0898023Y0256073D01*
X0898097Y0256004D01*
X0898173Y0255938D01*
X0898252Y0255874D01*
X0898333Y0255814D01*
X0898416Y0255756D01*
X0898502Y0255702D01*
X0898589Y0255651D01*
X0898678Y0255603D01*
X0898770Y0255559D01*
X0898862Y0255518D01*
X0898956Y0255481D01*
X0899052Y0255447D01*
X0899148Y0255417D01*
X0899246Y0255391D01*
X0899345Y0255368D01*
X0899444Y0255349D01*
X0899544Y0255334D01*
X0899645Y0255322D01*
X0899746Y0255314D01*
X0899847Y0255311D01*
X0899948Y0255310D01*
X0900049Y0255314D01*
X0900150Y0255322D01*
X0900251Y0255333D01*
X0900351Y0255348D01*
X0900450Y0255367D01*
X0900549Y0255389D01*
X0900647Y0255416D01*
X0900744Y0255446D01*
X0900839Y0255479D01*
X0900933Y0255516D01*
X0901026Y0255557D01*
X0901117Y0255601D01*
X0901206Y0255649D01*
X0901294Y0255699D01*
X0901380Y0255753D01*
X0901463Y0255811D01*
X0901544Y0255871D01*
X0901623Y0255934D01*
X0901700Y0256001D01*
X0906300Y0251800D02*
X0894300Y0251800D01*
X0888300Y0251800D02*
X0884300Y0251800D01*
X0884300Y0255500D01*
X0882800Y0255500D02*
X0882800Y0254000D01*
X0864800Y0254000D01*
X0865800Y0251800D02*
X0861300Y0251800D01*
X0857300Y0251800D01*
X0857300Y0254000D01*
X0861300Y0251800D02*
X0860300Y0249800D01*
X0866800Y0249800D01*
X0865800Y0251800D01*
X0884300Y0251800D01*
X0879800Y0255500D02*
X0867300Y0255500D01*
X0867300Y0268500D01*
X0879800Y0268500D01*
X0879800Y0275200D02*
X0867300Y0275200D01*
X0867300Y0288200D01*
X0864800Y0273700D02*
X0857300Y0273700D01*
X0857300Y0270000D02*
X0864800Y0270000D01*
X0901500Y0268399D02*
X0901651Y0268274D01*
X0901799Y0268145D01*
X0901944Y0268012D01*
X0902086Y0267876D01*
X0902224Y0267736D01*
X0902359Y0267594D01*
X0902491Y0267447D01*
X0902618Y0267298D01*
X0902743Y0267146D01*
X0902863Y0266991D01*
X0902980Y0266833D01*
X0903093Y0266672D01*
X0903201Y0266508D01*
X0903306Y0266342D01*
X0903407Y0266173D01*
X0903504Y0266002D01*
X0903596Y0265829D01*
X0903685Y0265653D01*
X0903769Y0265475D01*
X0903848Y0265296D01*
X0903924Y0265114D01*
X0903994Y0264931D01*
X0904061Y0264746D01*
X0904123Y0264560D01*
X0904180Y0264372D01*
X0904233Y0264182D01*
X0904281Y0263992D01*
X0904325Y0263800D01*
X0904364Y0263608D01*
X0904398Y0263414D01*
X0904427Y0263220D01*
X0904452Y0263025D01*
X0904472Y0262829D01*
X0904487Y0262633D01*
X0904498Y0262437D01*
X0904504Y0262241D01*
X0904505Y0262044D01*
X0904501Y0261848D01*
X0904493Y0261651D01*
X0904479Y0261455D01*
X0904461Y0261260D01*
X0904439Y0261065D01*
X0904411Y0260870D01*
X0904379Y0260676D01*
X0904342Y0260483D01*
X0904301Y0260291D01*
X0904254Y0260100D01*
X0904204Y0259910D01*
X0904148Y0259722D01*
X0904088Y0259534D01*
X0904024Y0259349D01*
X0903955Y0259165D01*
X0903881Y0258983D01*
X0903804Y0258802D01*
X0903722Y0258624D01*
X0903635Y0258447D01*
X0903544Y0258273D01*
X0903450Y0258101D01*
X0903351Y0257931D01*
X0903247Y0257764D01*
X0903140Y0257599D01*
X0903029Y0257437D01*
X0902914Y0257277D01*
X0902795Y0257121D01*
X0902673Y0256967D01*
X0902546Y0256817D01*
X0902417Y0256669D01*
X0902283Y0256525D01*
X0902146Y0256384D01*
X0902006Y0256246D01*
X0901862Y0256112D01*
X0901716Y0255982D01*
X0901717Y0275681D02*
X0901863Y0275812D01*
X0902007Y0275946D01*
X0902147Y0276084D01*
X0902284Y0276225D01*
X0902418Y0276369D01*
X0902548Y0276517D01*
X0902674Y0276667D01*
X0902796Y0276821D01*
X0902915Y0276977D01*
X0903030Y0277137D01*
X0903141Y0277299D01*
X0903249Y0277464D01*
X0903352Y0277631D01*
X0903451Y0277801D01*
X0903546Y0277973D01*
X0903636Y0278147D01*
X0903723Y0278324D01*
X0903805Y0278502D01*
X0903883Y0278683D01*
X0903956Y0278865D01*
X0904025Y0279049D01*
X0904089Y0279235D01*
X0904149Y0279422D01*
X0904205Y0279610D01*
X0904255Y0279800D01*
X0904302Y0279991D01*
X0904343Y0280183D01*
X0904380Y0280376D01*
X0904412Y0280570D01*
X0904440Y0280765D01*
X0904462Y0280960D01*
X0904480Y0281156D01*
X0904494Y0281352D01*
X0904502Y0281548D01*
X0904506Y0281745D01*
X0904505Y0281941D01*
X0904499Y0282138D01*
X0904488Y0282334D01*
X0904473Y0282530D01*
X0904453Y0282725D01*
X0904428Y0282920D01*
X0904399Y0283115D01*
X0904364Y0283308D01*
X0904326Y0283501D01*
X0904282Y0283693D01*
X0904234Y0283883D01*
X0904181Y0284072D01*
X0904124Y0284260D01*
X0904062Y0284447D01*
X0903995Y0284632D01*
X0903924Y0284815D01*
X0903849Y0284997D01*
X0903769Y0285176D01*
X0903685Y0285354D01*
X0903597Y0285530D01*
X0903505Y0285703D01*
X0903408Y0285874D01*
X0903307Y0286043D01*
X0903202Y0286209D01*
X0903093Y0286373D01*
X0902980Y0286534D01*
X0902864Y0286692D01*
X0902743Y0286847D01*
X0902619Y0286999D01*
X0902491Y0287148D01*
X0902360Y0287295D01*
X0902225Y0287437D01*
X0902086Y0287577D01*
X0901945Y0287713D01*
X0901800Y0287846D01*
X0901651Y0287975D01*
X0901500Y0288100D01*
X0841800Y0223300D02*
X0841800Y0200300D01*
X0761800Y0200300D01*
X0761800Y0207800D01*
X0761926Y0207802D01*
X0762051Y0207808D01*
X0762176Y0207818D01*
X0762301Y0207832D01*
X0762426Y0207849D01*
X0762550Y0207871D01*
X0762673Y0207896D01*
X0762795Y0207926D01*
X0762916Y0207959D01*
X0763036Y0207996D01*
X0763155Y0208036D01*
X0763272Y0208081D01*
X0763389Y0208129D01*
X0763503Y0208181D01*
X0763616Y0208236D01*
X0763727Y0208295D01*
X0763836Y0208357D01*
X0763943Y0208423D01*
X0764048Y0208492D01*
X0764151Y0208564D01*
X0764252Y0208639D01*
X0764350Y0208718D01*
X0764445Y0208800D01*
X0764538Y0208884D01*
X0764628Y0208972D01*
X0764716Y0209062D01*
X0764800Y0209155D01*
X0764882Y0209250D01*
X0764961Y0209348D01*
X0765036Y0209449D01*
X0765108Y0209552D01*
X0765177Y0209657D01*
X0765243Y0209764D01*
X0765305Y0209873D01*
X0765364Y0209984D01*
X0765419Y0210097D01*
X0765471Y0210211D01*
X0765519Y0210328D01*
X0765564Y0210445D01*
X0765604Y0210564D01*
X0765641Y0210684D01*
X0765674Y0210805D01*
X0765704Y0210927D01*
X0765729Y0211050D01*
X0765751Y0211174D01*
X0765768Y0211299D01*
X0765782Y0211424D01*
X0765792Y0211549D01*
X0765798Y0211674D01*
X0765800Y0211800D01*
X0765798Y0211926D01*
X0765792Y0212051D01*
X0765782Y0212176D01*
X0765768Y0212301D01*
X0765751Y0212426D01*
X0765729Y0212550D01*
X0765704Y0212673D01*
X0765674Y0212795D01*
X0765641Y0212916D01*
X0765604Y0213036D01*
X0765564Y0213155D01*
X0765519Y0213272D01*
X0765471Y0213389D01*
X0765419Y0213503D01*
X0765364Y0213616D01*
X0765305Y0213727D01*
X0765243Y0213836D01*
X0765177Y0213943D01*
X0765108Y0214048D01*
X0765036Y0214151D01*
X0764961Y0214252D01*
X0764882Y0214350D01*
X0764800Y0214445D01*
X0764716Y0214538D01*
X0764628Y0214628D01*
X0764538Y0214716D01*
X0764445Y0214800D01*
X0764350Y0214882D01*
X0764252Y0214961D01*
X0764151Y0215036D01*
X0764048Y0215108D01*
X0763943Y0215177D01*
X0763836Y0215243D01*
X0763727Y0215305D01*
X0763616Y0215364D01*
X0763503Y0215419D01*
X0763389Y0215471D01*
X0763272Y0215519D01*
X0763155Y0215564D01*
X0763036Y0215604D01*
X0762916Y0215641D01*
X0762795Y0215674D01*
X0762673Y0215704D01*
X0762550Y0215729D01*
X0762426Y0215751D01*
X0762301Y0215768D01*
X0762176Y0215782D01*
X0762051Y0215792D01*
X0761926Y0215798D01*
X0761800Y0215800D01*
X0761800Y0223300D01*
X0841800Y0223300D01*
X0831800Y0171300D02*
X0832300Y0170800D01*
X0851300Y0170800D01*
X0851800Y0171300D01*
X0853300Y0171300D01*
X0853360Y0171298D01*
X0853421Y0171293D01*
X0853480Y0171284D01*
X0853539Y0171271D01*
X0853598Y0171255D01*
X0853655Y0171235D01*
X0853710Y0171212D01*
X0853765Y0171185D01*
X0853817Y0171156D01*
X0853868Y0171123D01*
X0853917Y0171087D01*
X0853963Y0171049D01*
X0854007Y0171007D01*
X0854049Y0170963D01*
X0854087Y0170917D01*
X0854123Y0170868D01*
X0854156Y0170817D01*
X0854185Y0170765D01*
X0854212Y0170710D01*
X0854235Y0170655D01*
X0854255Y0170598D01*
X0854271Y0170539D01*
X0854284Y0170480D01*
X0854293Y0170421D01*
X0854298Y0170360D01*
X0854300Y0170300D01*
X0854300Y0163300D01*
X0854298Y0163240D01*
X0854293Y0163179D01*
X0854284Y0163120D01*
X0854271Y0163061D01*
X0854255Y0163002D01*
X0854235Y0162945D01*
X0854212Y0162890D01*
X0854185Y0162835D01*
X0854156Y0162783D01*
X0854123Y0162732D01*
X0854087Y0162683D01*
X0854049Y0162637D01*
X0854007Y0162593D01*
X0853963Y0162551D01*
X0853917Y0162513D01*
X0853868Y0162477D01*
X0853817Y0162444D01*
X0853765Y0162415D01*
X0853710Y0162388D01*
X0853655Y0162365D01*
X0853598Y0162345D01*
X0853539Y0162329D01*
X0853480Y0162316D01*
X0853421Y0162307D01*
X0853360Y0162302D01*
X0853300Y0162300D01*
X0851800Y0162300D01*
X0851300Y0162800D01*
X0832300Y0162800D01*
X0831800Y0162300D01*
X0830300Y0162300D01*
X0830240Y0162302D01*
X0830179Y0162307D01*
X0830120Y0162316D01*
X0830061Y0162329D01*
X0830002Y0162345D01*
X0829945Y0162365D01*
X0829890Y0162388D01*
X0829835Y0162415D01*
X0829783Y0162444D01*
X0829732Y0162477D01*
X0829683Y0162513D01*
X0829637Y0162551D01*
X0829593Y0162593D01*
X0829551Y0162637D01*
X0829513Y0162683D01*
X0829477Y0162732D01*
X0829444Y0162783D01*
X0829415Y0162835D01*
X0829388Y0162890D01*
X0829365Y0162945D01*
X0829345Y0163002D01*
X0829329Y0163061D01*
X0829316Y0163120D01*
X0829307Y0163179D01*
X0829302Y0163240D01*
X0829300Y0163300D01*
X0829300Y0170300D01*
X0829302Y0170360D01*
X0829307Y0170421D01*
X0829316Y0170480D01*
X0829329Y0170539D01*
X0829345Y0170598D01*
X0829365Y0170655D01*
X0829388Y0170710D01*
X0829415Y0170765D01*
X0829444Y0170817D01*
X0829477Y0170868D01*
X0829513Y0170917D01*
X0829551Y0170963D01*
X0829593Y0171007D01*
X0829637Y0171049D01*
X0829683Y0171087D01*
X0829732Y0171123D01*
X0829783Y0171156D01*
X0829835Y0171185D01*
X0829890Y0171212D01*
X0829945Y0171235D01*
X0830002Y0171255D01*
X0830061Y0171271D01*
X0830120Y0171284D01*
X0830179Y0171293D01*
X0830240Y0171298D01*
X0830300Y0171300D01*
X0831800Y0171300D01*
X0850300Y0146300D02*
X0851800Y0146300D01*
X0852300Y0145800D01*
X0871300Y0145800D01*
X0871800Y0146300D01*
X0873300Y0146300D01*
X0873360Y0146298D01*
X0873421Y0146293D01*
X0873480Y0146284D01*
X0873539Y0146271D01*
X0873598Y0146255D01*
X0873655Y0146235D01*
X0873710Y0146212D01*
X0873765Y0146185D01*
X0873817Y0146156D01*
X0873868Y0146123D01*
X0873917Y0146087D01*
X0873963Y0146049D01*
X0874007Y0146007D01*
X0874049Y0145963D01*
X0874087Y0145917D01*
X0874123Y0145868D01*
X0874156Y0145817D01*
X0874185Y0145765D01*
X0874212Y0145710D01*
X0874235Y0145655D01*
X0874255Y0145598D01*
X0874271Y0145539D01*
X0874284Y0145480D01*
X0874293Y0145421D01*
X0874298Y0145360D01*
X0874300Y0145300D01*
X0874300Y0138300D01*
X0874298Y0138240D01*
X0874293Y0138179D01*
X0874284Y0138120D01*
X0874271Y0138061D01*
X0874255Y0138002D01*
X0874235Y0137945D01*
X0874212Y0137890D01*
X0874185Y0137835D01*
X0874156Y0137783D01*
X0874123Y0137732D01*
X0874087Y0137683D01*
X0874049Y0137637D01*
X0874007Y0137593D01*
X0873963Y0137551D01*
X0873917Y0137513D01*
X0873868Y0137477D01*
X0873817Y0137444D01*
X0873765Y0137415D01*
X0873710Y0137388D01*
X0873655Y0137365D01*
X0873598Y0137345D01*
X0873539Y0137329D01*
X0873480Y0137316D01*
X0873421Y0137307D01*
X0873360Y0137302D01*
X0873300Y0137300D01*
X0871800Y0137300D01*
X0871300Y0137800D01*
X0852300Y0137800D01*
X0851800Y0137300D01*
X0850300Y0137300D01*
X0850240Y0137302D01*
X0850179Y0137307D01*
X0850120Y0137316D01*
X0850061Y0137329D01*
X0850002Y0137345D01*
X0849945Y0137365D01*
X0849890Y0137388D01*
X0849835Y0137415D01*
X0849783Y0137444D01*
X0849732Y0137477D01*
X0849683Y0137513D01*
X0849637Y0137551D01*
X0849593Y0137593D01*
X0849551Y0137637D01*
X0849513Y0137683D01*
X0849477Y0137732D01*
X0849444Y0137783D01*
X0849415Y0137835D01*
X0849388Y0137890D01*
X0849365Y0137945D01*
X0849345Y0138002D01*
X0849329Y0138061D01*
X0849316Y0138120D01*
X0849307Y0138179D01*
X0849302Y0138240D01*
X0849300Y0138300D01*
X0849300Y0145300D01*
X0849302Y0145360D01*
X0849307Y0145421D01*
X0849316Y0145480D01*
X0849329Y0145539D01*
X0849345Y0145598D01*
X0849365Y0145655D01*
X0849388Y0145710D01*
X0849415Y0145765D01*
X0849444Y0145817D01*
X0849477Y0145868D01*
X0849513Y0145917D01*
X0849551Y0145963D01*
X0849593Y0146007D01*
X0849637Y0146049D01*
X0849683Y0146087D01*
X0849732Y0146123D01*
X0849783Y0146156D01*
X0849835Y0146185D01*
X0849890Y0146212D01*
X0849945Y0146235D01*
X0850002Y0146255D01*
X0850061Y0146271D01*
X0850120Y0146284D01*
X0850179Y0146293D01*
X0850240Y0146298D01*
X0850300Y0146300D01*
X0878300Y0059300D02*
X0885300Y0059300D01*
X0885360Y0059298D01*
X0885421Y0059293D01*
X0885480Y0059284D01*
X0885539Y0059271D01*
X0885598Y0059255D01*
X0885655Y0059235D01*
X0885710Y0059212D01*
X0885765Y0059185D01*
X0885817Y0059156D01*
X0885868Y0059123D01*
X0885917Y0059087D01*
X0885963Y0059049D01*
X0886007Y0059007D01*
X0886049Y0058963D01*
X0886087Y0058917D01*
X0886123Y0058868D01*
X0886156Y0058817D01*
X0886185Y0058765D01*
X0886212Y0058710D01*
X0886235Y0058655D01*
X0886255Y0058598D01*
X0886271Y0058539D01*
X0886284Y0058480D01*
X0886293Y0058421D01*
X0886298Y0058360D01*
X0886300Y0058300D01*
X0886300Y0056800D01*
X0885800Y0056300D01*
X0885800Y0037300D01*
X0886300Y0036800D01*
X0886300Y0035300D01*
X0886298Y0035240D01*
X0886293Y0035179D01*
X0886284Y0035120D01*
X0886271Y0035061D01*
X0886255Y0035002D01*
X0886235Y0034945D01*
X0886212Y0034890D01*
X0886185Y0034835D01*
X0886156Y0034783D01*
X0886123Y0034732D01*
X0886087Y0034683D01*
X0886049Y0034637D01*
X0886007Y0034593D01*
X0885963Y0034551D01*
X0885917Y0034513D01*
X0885868Y0034477D01*
X0885817Y0034444D01*
X0885765Y0034415D01*
X0885710Y0034388D01*
X0885655Y0034365D01*
X0885598Y0034345D01*
X0885539Y0034329D01*
X0885480Y0034316D01*
X0885421Y0034307D01*
X0885360Y0034302D01*
X0885300Y0034300D01*
X0878300Y0034300D01*
X0878240Y0034302D01*
X0878179Y0034307D01*
X0878120Y0034316D01*
X0878061Y0034329D01*
X0878002Y0034345D01*
X0877945Y0034365D01*
X0877890Y0034388D01*
X0877835Y0034415D01*
X0877783Y0034444D01*
X0877732Y0034477D01*
X0877683Y0034513D01*
X0877637Y0034551D01*
X0877593Y0034593D01*
X0877551Y0034637D01*
X0877513Y0034683D01*
X0877477Y0034732D01*
X0877444Y0034783D01*
X0877415Y0034835D01*
X0877388Y0034890D01*
X0877365Y0034945D01*
X0877345Y0035002D01*
X0877329Y0035061D01*
X0877316Y0035120D01*
X0877307Y0035179D01*
X0877302Y0035240D01*
X0877300Y0035300D01*
X0877300Y0036800D01*
X0877800Y0037300D01*
X0877800Y0056300D01*
X0877300Y0056800D01*
X0877300Y0058300D01*
X0877302Y0058360D01*
X0877307Y0058421D01*
X0877316Y0058480D01*
X0877329Y0058539D01*
X0877345Y0058598D01*
X0877365Y0058655D01*
X0877388Y0058710D01*
X0877415Y0058765D01*
X0877444Y0058817D01*
X0877477Y0058868D01*
X0877513Y0058917D01*
X0877551Y0058963D01*
X0877593Y0059007D01*
X0877637Y0059049D01*
X0877683Y0059087D01*
X0877732Y0059123D01*
X0877783Y0059156D01*
X0877835Y0059185D01*
X0877890Y0059212D01*
X0877945Y0059235D01*
X0878002Y0059255D01*
X0878061Y0059271D01*
X0878120Y0059284D01*
X0878179Y0059293D01*
X0878240Y0059298D01*
X0878300Y0059300D01*
X0848800Y0051300D02*
X0848800Y0032300D01*
X0846800Y0033300D01*
X0846800Y0039300D01*
X0806800Y0039300D01*
X0806800Y0051300D01*
X0846800Y0051300D01*
X0848800Y0051300D01*
X0846800Y0051300D02*
X0846800Y0039300D01*
X0844600Y0040300D02*
X0828600Y0040300D01*
X0828600Y0050300D01*
X0844600Y0050300D01*
X0844600Y0040300D01*
X0842380Y0042883D02*
X0842455Y0042952D01*
X0842527Y0043023D01*
X0842596Y0043097D01*
X0842662Y0043173D01*
X0842726Y0043252D01*
X0842786Y0043333D01*
X0842844Y0043416D01*
X0842898Y0043502D01*
X0842949Y0043589D01*
X0842997Y0043678D01*
X0843041Y0043770D01*
X0843082Y0043862D01*
X0843119Y0043956D01*
X0843153Y0044052D01*
X0843183Y0044148D01*
X0843209Y0044246D01*
X0843232Y0044345D01*
X0843251Y0044444D01*
X0843266Y0044544D01*
X0843278Y0044645D01*
X0843286Y0044746D01*
X0843289Y0044847D01*
X0843290Y0044948D01*
X0843286Y0045049D01*
X0843278Y0045150D01*
X0843267Y0045251D01*
X0843252Y0045351D01*
X0843233Y0045450D01*
X0843211Y0045549D01*
X0843184Y0045647D01*
X0843154Y0045744D01*
X0843121Y0045839D01*
X0843084Y0045933D01*
X0843043Y0046026D01*
X0842999Y0046117D01*
X0842951Y0046206D01*
X0842901Y0046294D01*
X0842847Y0046380D01*
X0842789Y0046463D01*
X0842729Y0046544D01*
X0842666Y0046623D01*
X0842599Y0046700D01*
X0842200Y0046800D02*
X0830200Y0044300D01*
X0830700Y0043800D02*
X0842700Y0046300D01*
X0842563Y0043016D02*
X0842374Y0042878D01*
X0842181Y0042744D01*
X0841985Y0042615D01*
X0841786Y0042491D01*
X0841584Y0042371D01*
X0841380Y0042257D01*
X0841172Y0042148D01*
X0840962Y0042044D01*
X0840750Y0041945D01*
X0840535Y0041851D01*
X0840318Y0041762D01*
X0840099Y0041679D01*
X0839877Y0041601D01*
X0839654Y0041529D01*
X0839430Y0041462D01*
X0839203Y0041401D01*
X0838976Y0041345D01*
X0838747Y0041294D01*
X0838516Y0041250D01*
X0838285Y0041211D01*
X0838053Y0041177D01*
X0837820Y0041149D01*
X0837587Y0041127D01*
X0837353Y0041111D01*
X0837119Y0041100D01*
X0836884Y0041095D01*
X0836650Y0041096D01*
X0836416Y0041103D01*
X0836181Y0041115D01*
X0835948Y0041133D01*
X0835714Y0041157D01*
X0835482Y0041186D01*
X0835250Y0041221D01*
X0835019Y0041262D01*
X0834789Y0041308D01*
X0834560Y0041360D01*
X0834333Y0041417D01*
X0834107Y0041480D01*
X0833883Y0041549D01*
X0833660Y0041623D01*
X0833440Y0041702D01*
X0833221Y0041787D01*
X0833005Y0041877D01*
X0832790Y0041972D01*
X0832579Y0042072D01*
X0832369Y0042178D01*
X0832163Y0042289D01*
X0831959Y0042404D01*
X0831758Y0042525D01*
X0831560Y0042651D01*
X0831365Y0042781D01*
X0831173Y0042916D01*
X0830985Y0043056D01*
X0830800Y0043200D01*
X0830966Y0043058D02*
X0830882Y0043107D01*
X0830801Y0043159D01*
X0830722Y0043214D01*
X0830645Y0043273D01*
X0830571Y0043334D01*
X0830499Y0043399D01*
X0830430Y0043467D01*
X0830364Y0043537D01*
X0830301Y0043610D01*
X0830241Y0043686D01*
X0830185Y0043764D01*
X0830131Y0043844D01*
X0830081Y0043926D01*
X0830034Y0044011D01*
X0829991Y0044097D01*
X0829951Y0044185D01*
X0829915Y0044275D01*
X0829883Y0044366D01*
X0829855Y0044458D01*
X0829830Y0044551D01*
X0829809Y0044645D01*
X0829793Y0044741D01*
X0829780Y0044836D01*
X0829771Y0044932D01*
X0829766Y0045029D01*
X0829765Y0045125D01*
X0829768Y0045222D01*
X0829775Y0045318D01*
X0829786Y0045414D01*
X0829801Y0045509D01*
X0829820Y0045604D01*
X0829843Y0045698D01*
X0829870Y0045790D01*
X0829900Y0045882D01*
X0829934Y0045972D01*
X0829972Y0046061D01*
X0830014Y0046148D01*
X0830059Y0046233D01*
X0830108Y0046317D01*
X0830160Y0046398D01*
X0830215Y0046477D01*
X0830274Y0046554D01*
X0830335Y0046628D01*
X0830400Y0046700D01*
X0824900Y0050300D02*
X0824900Y0040300D01*
X0808900Y0040300D01*
X0808900Y0050300D01*
X0824900Y0050300D01*
X0822500Y0046800D02*
X0810500Y0044300D01*
X0811000Y0043800D02*
X0823000Y0046300D01*
X0822899Y0046700D02*
X0822966Y0046623D01*
X0823029Y0046544D01*
X0823089Y0046463D01*
X0823147Y0046380D01*
X0823201Y0046294D01*
X0823251Y0046206D01*
X0823299Y0046117D01*
X0823343Y0046026D01*
X0823384Y0045933D01*
X0823421Y0045839D01*
X0823454Y0045744D01*
X0823484Y0045647D01*
X0823511Y0045549D01*
X0823533Y0045450D01*
X0823552Y0045351D01*
X0823567Y0045251D01*
X0823578Y0045150D01*
X0823586Y0045049D01*
X0823590Y0044948D01*
X0823589Y0044847D01*
X0823586Y0044746D01*
X0823578Y0044645D01*
X0823566Y0044544D01*
X0823551Y0044444D01*
X0823532Y0044345D01*
X0823509Y0044246D01*
X0823483Y0044148D01*
X0823453Y0044052D01*
X0823419Y0043956D01*
X0823382Y0043862D01*
X0823341Y0043770D01*
X0823297Y0043678D01*
X0823249Y0043589D01*
X0823198Y0043502D01*
X0823144Y0043416D01*
X0823086Y0043333D01*
X0823026Y0043252D01*
X0822962Y0043173D01*
X0822896Y0043097D01*
X0822827Y0043023D01*
X0822755Y0042952D01*
X0822680Y0042883D01*
X0822919Y0046717D02*
X0822788Y0046863D01*
X0822654Y0047007D01*
X0822516Y0047147D01*
X0822375Y0047284D01*
X0822231Y0047418D01*
X0822083Y0047548D01*
X0821933Y0047674D01*
X0821779Y0047796D01*
X0821623Y0047915D01*
X0821463Y0048030D01*
X0821301Y0048141D01*
X0821136Y0048249D01*
X0820969Y0048352D01*
X0820799Y0048451D01*
X0820627Y0048546D01*
X0820453Y0048636D01*
X0820276Y0048723D01*
X0820098Y0048805D01*
X0819917Y0048883D01*
X0819735Y0048956D01*
X0819551Y0049025D01*
X0819365Y0049089D01*
X0819178Y0049149D01*
X0818990Y0049205D01*
X0818800Y0049255D01*
X0818609Y0049302D01*
X0818417Y0049343D01*
X0818224Y0049380D01*
X0818030Y0049412D01*
X0817835Y0049440D01*
X0817640Y0049462D01*
X0817444Y0049480D01*
X0817248Y0049494D01*
X0817052Y0049502D01*
X0816855Y0049506D01*
X0816659Y0049505D01*
X0816462Y0049499D01*
X0816266Y0049488D01*
X0816070Y0049473D01*
X0815875Y0049453D01*
X0815680Y0049428D01*
X0815485Y0049399D01*
X0815292Y0049364D01*
X0815099Y0049326D01*
X0814907Y0049282D01*
X0814717Y0049234D01*
X0814528Y0049181D01*
X0814340Y0049124D01*
X0814153Y0049062D01*
X0813968Y0048995D01*
X0813785Y0048924D01*
X0813603Y0048849D01*
X0813424Y0048769D01*
X0813246Y0048685D01*
X0813070Y0048597D01*
X0812897Y0048505D01*
X0812726Y0048408D01*
X0812557Y0048307D01*
X0812391Y0048202D01*
X0812227Y0048093D01*
X0812066Y0047980D01*
X0811908Y0047864D01*
X0811753Y0047743D01*
X0811601Y0047619D01*
X0811452Y0047491D01*
X0811305Y0047360D01*
X0811163Y0047225D01*
X0811023Y0047086D01*
X0810887Y0046945D01*
X0810754Y0046800D01*
X0810625Y0046651D01*
X0810500Y0046500D01*
X0810700Y0046700D02*
X0810635Y0046628D01*
X0810574Y0046554D01*
X0810515Y0046477D01*
X0810460Y0046398D01*
X0810408Y0046317D01*
X0810359Y0046233D01*
X0810314Y0046148D01*
X0810272Y0046061D01*
X0810234Y0045972D01*
X0810200Y0045882D01*
X0810170Y0045790D01*
X0810143Y0045698D01*
X0810120Y0045604D01*
X0810101Y0045509D01*
X0810086Y0045414D01*
X0810075Y0045318D01*
X0810068Y0045222D01*
X0810065Y0045125D01*
X0810066Y0045029D01*
X0810071Y0044932D01*
X0810080Y0044836D01*
X0810093Y0044741D01*
X0810109Y0044645D01*
X0810130Y0044551D01*
X0810155Y0044458D01*
X0810183Y0044366D01*
X0810215Y0044275D01*
X0810251Y0044185D01*
X0810291Y0044097D01*
X0810334Y0044011D01*
X0810381Y0043926D01*
X0810431Y0043844D01*
X0810485Y0043764D01*
X0810541Y0043686D01*
X0810601Y0043610D01*
X0810664Y0043537D01*
X0810730Y0043467D01*
X0810799Y0043399D01*
X0810871Y0043334D01*
X0810945Y0043273D01*
X0811022Y0043214D01*
X0811101Y0043159D01*
X0811182Y0043107D01*
X0811266Y0043058D01*
X0806800Y0039300D02*
X0806800Y0029300D01*
X0810400Y0029300D01*
X0810400Y0027800D02*
X0808900Y0027800D01*
X0808900Y0009800D01*
X0808900Y0002300D01*
X0824900Y0002300D01*
X0828600Y0002300D01*
X0844600Y0002300D01*
X0844600Y0009800D01*
X0828600Y0009800D01*
X0828600Y0027800D01*
X0830100Y0027800D01*
X0830100Y0029300D02*
X0823400Y0029300D01*
X0823400Y0027800D02*
X0824900Y0027800D01*
X0824900Y0009800D01*
X0808900Y0009800D01*
X0810400Y0012300D02*
X0810400Y0024800D01*
X0806800Y0029300D02*
X0806800Y0002300D01*
X0808900Y0002300D01*
X0824900Y0002300D02*
X0824900Y0009800D01*
X0823400Y0012300D02*
X0810400Y0012300D01*
X0823400Y0012300D02*
X0823400Y0024800D01*
X0830100Y0024800D02*
X0830100Y0012300D01*
X0843100Y0012300D01*
X0843100Y0024800D01*
X0843100Y0027800D02*
X0844600Y0027800D01*
X0844600Y0009800D01*
X0846800Y0010800D02*
X0846800Y0029300D01*
X0843100Y0029300D01*
X0846800Y0029300D02*
X0846800Y0033300D01*
X0842618Y0046716D02*
X0842488Y0046862D01*
X0842354Y0047006D01*
X0842216Y0047146D01*
X0842075Y0047283D01*
X0841931Y0047417D01*
X0841783Y0047546D01*
X0841633Y0047673D01*
X0841479Y0047795D01*
X0841323Y0047914D01*
X0841163Y0048029D01*
X0841001Y0048140D01*
X0840836Y0048247D01*
X0840669Y0048351D01*
X0840499Y0048450D01*
X0840327Y0048544D01*
X0840153Y0048635D01*
X0839976Y0048722D01*
X0839798Y0048804D01*
X0839617Y0048881D01*
X0839435Y0048955D01*
X0839251Y0049024D01*
X0839066Y0049088D01*
X0838878Y0049148D01*
X0838690Y0049204D01*
X0838500Y0049254D01*
X0838309Y0049301D01*
X0838117Y0049342D01*
X0837924Y0049379D01*
X0837730Y0049411D01*
X0837535Y0049439D01*
X0837340Y0049461D01*
X0837145Y0049479D01*
X0836949Y0049493D01*
X0836752Y0049501D01*
X0836556Y0049505D01*
X0836359Y0049504D01*
X0836163Y0049498D01*
X0835967Y0049487D01*
X0835771Y0049472D01*
X0835575Y0049452D01*
X0835380Y0049427D01*
X0835186Y0049398D01*
X0834992Y0049364D01*
X0834800Y0049325D01*
X0834608Y0049281D01*
X0834418Y0049233D01*
X0834228Y0049180D01*
X0834040Y0049123D01*
X0833854Y0049061D01*
X0833669Y0048994D01*
X0833486Y0048924D01*
X0833304Y0048848D01*
X0833125Y0048769D01*
X0832947Y0048685D01*
X0832771Y0048596D01*
X0832598Y0048504D01*
X0832427Y0048407D01*
X0832258Y0048306D01*
X0832092Y0048201D01*
X0831928Y0048093D01*
X0831767Y0047980D01*
X0831609Y0047863D01*
X0831454Y0047743D01*
X0831302Y0047618D01*
X0831153Y0047491D01*
X0831006Y0047359D01*
X0830864Y0047224D01*
X0830724Y0047086D01*
X0830588Y0046944D01*
X0830455Y0046799D01*
X0830326Y0046651D01*
X0830201Y0046500D01*
X0822863Y0043016D02*
X0822673Y0042877D01*
X0822481Y0042744D01*
X0822285Y0042615D01*
X0822086Y0042491D01*
X0821884Y0042371D01*
X0821679Y0042257D01*
X0821472Y0042148D01*
X0821262Y0042044D01*
X0821049Y0041945D01*
X0820834Y0041851D01*
X0820617Y0041762D01*
X0820398Y0041679D01*
X0820177Y0041601D01*
X0819954Y0041529D01*
X0819729Y0041462D01*
X0819503Y0041400D01*
X0819275Y0041345D01*
X0819046Y0041294D01*
X0818816Y0041250D01*
X0818585Y0041210D01*
X0818353Y0041177D01*
X0818120Y0041149D01*
X0817887Y0041127D01*
X0817653Y0041111D01*
X0817418Y0041100D01*
X0817184Y0041095D01*
X0816950Y0041096D01*
X0816715Y0041103D01*
X0816481Y0041115D01*
X0816247Y0041133D01*
X0816014Y0041157D01*
X0815781Y0041186D01*
X0815550Y0041221D01*
X0815319Y0041262D01*
X0815089Y0041308D01*
X0814860Y0041360D01*
X0814633Y0041417D01*
X0814407Y0041480D01*
X0814183Y0041549D01*
X0813960Y0041623D01*
X0813740Y0041702D01*
X0813521Y0041787D01*
X0813304Y0041877D01*
X0813090Y0041972D01*
X0812878Y0042073D01*
X0812669Y0042178D01*
X0812462Y0042289D01*
X0812258Y0042405D01*
X0812057Y0042525D01*
X0811859Y0042651D01*
X0811664Y0042781D01*
X0811473Y0042916D01*
X0811284Y0043056D01*
X0811100Y0043200D01*
X0763800Y0051300D02*
X0763800Y0032300D01*
X0761800Y0033300D01*
X0761800Y0039300D01*
X0721800Y0039300D01*
X0721800Y0051300D01*
X0761800Y0051300D01*
X0763800Y0051300D01*
X0761800Y0051300D02*
X0761800Y0039300D01*
X0759600Y0040300D02*
X0743600Y0040300D01*
X0743600Y0050300D01*
X0759600Y0050300D01*
X0759600Y0040300D01*
X0757380Y0042883D02*
X0757455Y0042952D01*
X0757527Y0043023D01*
X0757596Y0043097D01*
X0757662Y0043173D01*
X0757726Y0043252D01*
X0757786Y0043333D01*
X0757844Y0043416D01*
X0757898Y0043502D01*
X0757949Y0043589D01*
X0757997Y0043678D01*
X0758041Y0043770D01*
X0758082Y0043862D01*
X0758119Y0043956D01*
X0758153Y0044052D01*
X0758183Y0044148D01*
X0758209Y0044246D01*
X0758232Y0044345D01*
X0758251Y0044444D01*
X0758266Y0044544D01*
X0758278Y0044645D01*
X0758286Y0044746D01*
X0758289Y0044847D01*
X0758290Y0044948D01*
X0758286Y0045049D01*
X0758278Y0045150D01*
X0758267Y0045251D01*
X0758252Y0045351D01*
X0758233Y0045450D01*
X0758211Y0045549D01*
X0758184Y0045647D01*
X0758154Y0045744D01*
X0758121Y0045839D01*
X0758084Y0045933D01*
X0758043Y0046026D01*
X0757999Y0046117D01*
X0757951Y0046206D01*
X0757901Y0046294D01*
X0757847Y0046380D01*
X0757789Y0046463D01*
X0757729Y0046544D01*
X0757666Y0046623D01*
X0757599Y0046700D01*
X0757200Y0046800D02*
X0745200Y0044300D01*
X0745700Y0043800D02*
X0757700Y0046300D01*
X0757563Y0043016D02*
X0757374Y0042878D01*
X0757181Y0042744D01*
X0756985Y0042615D01*
X0756786Y0042491D01*
X0756584Y0042371D01*
X0756380Y0042257D01*
X0756172Y0042148D01*
X0755962Y0042044D01*
X0755750Y0041945D01*
X0755535Y0041851D01*
X0755318Y0041762D01*
X0755099Y0041679D01*
X0754877Y0041601D01*
X0754654Y0041529D01*
X0754430Y0041462D01*
X0754203Y0041401D01*
X0753976Y0041345D01*
X0753747Y0041294D01*
X0753516Y0041250D01*
X0753285Y0041211D01*
X0753053Y0041177D01*
X0752820Y0041149D01*
X0752587Y0041127D01*
X0752353Y0041111D01*
X0752119Y0041100D01*
X0751884Y0041095D01*
X0751650Y0041096D01*
X0751416Y0041103D01*
X0751181Y0041115D01*
X0750948Y0041133D01*
X0750714Y0041157D01*
X0750482Y0041186D01*
X0750250Y0041221D01*
X0750019Y0041262D01*
X0749789Y0041308D01*
X0749560Y0041360D01*
X0749333Y0041417D01*
X0749107Y0041480D01*
X0748883Y0041549D01*
X0748660Y0041623D01*
X0748440Y0041702D01*
X0748221Y0041787D01*
X0748005Y0041877D01*
X0747790Y0041972D01*
X0747579Y0042072D01*
X0747369Y0042178D01*
X0747163Y0042289D01*
X0746959Y0042404D01*
X0746758Y0042525D01*
X0746560Y0042651D01*
X0746365Y0042781D01*
X0746173Y0042916D01*
X0745985Y0043056D01*
X0745800Y0043200D01*
X0745966Y0043058D02*
X0745882Y0043107D01*
X0745801Y0043159D01*
X0745722Y0043214D01*
X0745645Y0043273D01*
X0745571Y0043334D01*
X0745499Y0043399D01*
X0745430Y0043467D01*
X0745364Y0043537D01*
X0745301Y0043610D01*
X0745241Y0043686D01*
X0745185Y0043764D01*
X0745131Y0043844D01*
X0745081Y0043926D01*
X0745034Y0044011D01*
X0744991Y0044097D01*
X0744951Y0044185D01*
X0744915Y0044275D01*
X0744883Y0044366D01*
X0744855Y0044458D01*
X0744830Y0044551D01*
X0744809Y0044645D01*
X0744793Y0044741D01*
X0744780Y0044836D01*
X0744771Y0044932D01*
X0744766Y0045029D01*
X0744765Y0045125D01*
X0744768Y0045222D01*
X0744775Y0045318D01*
X0744786Y0045414D01*
X0744801Y0045509D01*
X0744820Y0045604D01*
X0744843Y0045698D01*
X0744870Y0045790D01*
X0744900Y0045882D01*
X0744934Y0045972D01*
X0744972Y0046061D01*
X0745014Y0046148D01*
X0745059Y0046233D01*
X0745108Y0046317D01*
X0745160Y0046398D01*
X0745215Y0046477D01*
X0745274Y0046554D01*
X0745335Y0046628D01*
X0745400Y0046700D01*
X0739900Y0050300D02*
X0739900Y0040300D01*
X0723900Y0040300D01*
X0723900Y0050300D01*
X0739900Y0050300D01*
X0737500Y0046800D02*
X0725500Y0044300D01*
X0726000Y0043800D02*
X0738000Y0046300D01*
X0737899Y0046700D02*
X0737966Y0046623D01*
X0738029Y0046544D01*
X0738089Y0046463D01*
X0738147Y0046380D01*
X0738201Y0046294D01*
X0738251Y0046206D01*
X0738299Y0046117D01*
X0738343Y0046026D01*
X0738384Y0045933D01*
X0738421Y0045839D01*
X0738454Y0045744D01*
X0738484Y0045647D01*
X0738511Y0045549D01*
X0738533Y0045450D01*
X0738552Y0045351D01*
X0738567Y0045251D01*
X0738578Y0045150D01*
X0738586Y0045049D01*
X0738590Y0044948D01*
X0738589Y0044847D01*
X0738586Y0044746D01*
X0738578Y0044645D01*
X0738566Y0044544D01*
X0738551Y0044444D01*
X0738532Y0044345D01*
X0738509Y0044246D01*
X0738483Y0044148D01*
X0738453Y0044052D01*
X0738419Y0043956D01*
X0738382Y0043862D01*
X0738341Y0043770D01*
X0738297Y0043678D01*
X0738249Y0043589D01*
X0738198Y0043502D01*
X0738144Y0043416D01*
X0738086Y0043333D01*
X0738026Y0043252D01*
X0737962Y0043173D01*
X0737896Y0043097D01*
X0737827Y0043023D01*
X0737755Y0042952D01*
X0737680Y0042883D01*
X0737919Y0046717D02*
X0737788Y0046863D01*
X0737654Y0047007D01*
X0737516Y0047147D01*
X0737375Y0047284D01*
X0737231Y0047418D01*
X0737083Y0047548D01*
X0736933Y0047674D01*
X0736779Y0047796D01*
X0736623Y0047915D01*
X0736463Y0048030D01*
X0736301Y0048141D01*
X0736136Y0048249D01*
X0735969Y0048352D01*
X0735799Y0048451D01*
X0735627Y0048546D01*
X0735453Y0048636D01*
X0735276Y0048723D01*
X0735098Y0048805D01*
X0734917Y0048883D01*
X0734735Y0048956D01*
X0734551Y0049025D01*
X0734365Y0049089D01*
X0734178Y0049149D01*
X0733990Y0049205D01*
X0733800Y0049255D01*
X0733609Y0049302D01*
X0733417Y0049343D01*
X0733224Y0049380D01*
X0733030Y0049412D01*
X0732835Y0049440D01*
X0732640Y0049462D01*
X0732444Y0049480D01*
X0732248Y0049494D01*
X0732052Y0049502D01*
X0731855Y0049506D01*
X0731659Y0049505D01*
X0731462Y0049499D01*
X0731266Y0049488D01*
X0731070Y0049473D01*
X0730875Y0049453D01*
X0730680Y0049428D01*
X0730485Y0049399D01*
X0730292Y0049364D01*
X0730099Y0049326D01*
X0729907Y0049282D01*
X0729717Y0049234D01*
X0729528Y0049181D01*
X0729340Y0049124D01*
X0729153Y0049062D01*
X0728968Y0048995D01*
X0728785Y0048924D01*
X0728603Y0048849D01*
X0728424Y0048769D01*
X0728246Y0048685D01*
X0728070Y0048597D01*
X0727897Y0048505D01*
X0727726Y0048408D01*
X0727557Y0048307D01*
X0727391Y0048202D01*
X0727227Y0048093D01*
X0727066Y0047980D01*
X0726908Y0047864D01*
X0726753Y0047743D01*
X0726601Y0047619D01*
X0726452Y0047491D01*
X0726305Y0047360D01*
X0726163Y0047225D01*
X0726023Y0047086D01*
X0725887Y0046945D01*
X0725754Y0046800D01*
X0725625Y0046651D01*
X0725500Y0046500D01*
X0725700Y0046700D02*
X0725635Y0046628D01*
X0725574Y0046554D01*
X0725515Y0046477D01*
X0725460Y0046398D01*
X0725408Y0046317D01*
X0725359Y0046233D01*
X0725314Y0046148D01*
X0725272Y0046061D01*
X0725234Y0045972D01*
X0725200Y0045882D01*
X0725170Y0045790D01*
X0725143Y0045698D01*
X0725120Y0045604D01*
X0725101Y0045509D01*
X0725086Y0045414D01*
X0725075Y0045318D01*
X0725068Y0045222D01*
X0725065Y0045125D01*
X0725066Y0045029D01*
X0725071Y0044932D01*
X0725080Y0044836D01*
X0725093Y0044741D01*
X0725109Y0044645D01*
X0725130Y0044551D01*
X0725155Y0044458D01*
X0725183Y0044366D01*
X0725215Y0044275D01*
X0725251Y0044185D01*
X0725291Y0044097D01*
X0725334Y0044011D01*
X0725381Y0043926D01*
X0725431Y0043844D01*
X0725485Y0043764D01*
X0725541Y0043686D01*
X0725601Y0043610D01*
X0725664Y0043537D01*
X0725730Y0043467D01*
X0725799Y0043399D01*
X0725871Y0043334D01*
X0725945Y0043273D01*
X0726022Y0043214D01*
X0726101Y0043159D01*
X0726182Y0043107D01*
X0726266Y0043058D01*
X0721800Y0039300D02*
X0721800Y0029300D01*
X0725400Y0029300D01*
X0725400Y0027800D02*
X0723900Y0027800D01*
X0723900Y0009800D01*
X0723900Y0002300D01*
X0739900Y0002300D01*
X0743600Y0002300D01*
X0759600Y0002300D01*
X0759600Y0009800D01*
X0743600Y0009800D01*
X0743600Y0027800D01*
X0745100Y0027800D01*
X0745100Y0029300D02*
X0738400Y0029300D01*
X0738400Y0027800D02*
X0739900Y0027800D01*
X0739900Y0009800D01*
X0723900Y0009800D01*
X0725400Y0012300D02*
X0725400Y0024800D01*
X0721800Y0029300D02*
X0721800Y0002300D01*
X0723900Y0002300D01*
X0725400Y0012300D02*
X0738400Y0012300D01*
X0738400Y0024800D01*
X0745100Y0024800D02*
X0745100Y0012300D01*
X0758100Y0012300D01*
X0758100Y0024800D01*
X0758100Y0027800D02*
X0759600Y0027800D01*
X0759600Y0009800D01*
X0761800Y0010800D02*
X0761800Y0029300D01*
X0758100Y0029300D01*
X0761800Y0029300D02*
X0761800Y0033300D01*
X0757618Y0046716D02*
X0757488Y0046862D01*
X0757354Y0047006D01*
X0757216Y0047146D01*
X0757075Y0047283D01*
X0756931Y0047417D01*
X0756783Y0047546D01*
X0756633Y0047673D01*
X0756479Y0047795D01*
X0756323Y0047914D01*
X0756163Y0048029D01*
X0756001Y0048140D01*
X0755836Y0048247D01*
X0755669Y0048351D01*
X0755499Y0048450D01*
X0755327Y0048544D01*
X0755153Y0048635D01*
X0754976Y0048722D01*
X0754798Y0048804D01*
X0754617Y0048881D01*
X0754435Y0048955D01*
X0754251Y0049024D01*
X0754066Y0049088D01*
X0753878Y0049148D01*
X0753690Y0049204D01*
X0753500Y0049254D01*
X0753309Y0049301D01*
X0753117Y0049342D01*
X0752924Y0049379D01*
X0752730Y0049411D01*
X0752535Y0049439D01*
X0752340Y0049461D01*
X0752145Y0049479D01*
X0751949Y0049493D01*
X0751752Y0049501D01*
X0751556Y0049505D01*
X0751359Y0049504D01*
X0751163Y0049498D01*
X0750967Y0049487D01*
X0750771Y0049472D01*
X0750575Y0049452D01*
X0750380Y0049427D01*
X0750186Y0049398D01*
X0749992Y0049364D01*
X0749800Y0049325D01*
X0749608Y0049281D01*
X0749418Y0049233D01*
X0749228Y0049180D01*
X0749040Y0049123D01*
X0748854Y0049061D01*
X0748669Y0048994D01*
X0748486Y0048924D01*
X0748304Y0048848D01*
X0748125Y0048769D01*
X0747947Y0048685D01*
X0747771Y0048596D01*
X0747598Y0048504D01*
X0747427Y0048407D01*
X0747258Y0048306D01*
X0747092Y0048201D01*
X0746928Y0048093D01*
X0746767Y0047980D01*
X0746609Y0047863D01*
X0746454Y0047743D01*
X0746302Y0047618D01*
X0746153Y0047491D01*
X0746006Y0047359D01*
X0745864Y0047224D01*
X0745724Y0047086D01*
X0745588Y0046944D01*
X0745455Y0046799D01*
X0745326Y0046651D01*
X0745201Y0046500D01*
X0737863Y0043016D02*
X0737673Y0042877D01*
X0737481Y0042744D01*
X0737285Y0042615D01*
X0737086Y0042491D01*
X0736884Y0042371D01*
X0736679Y0042257D01*
X0736472Y0042148D01*
X0736262Y0042044D01*
X0736049Y0041945D01*
X0735834Y0041851D01*
X0735617Y0041762D01*
X0735398Y0041679D01*
X0735177Y0041601D01*
X0734954Y0041529D01*
X0734729Y0041462D01*
X0734503Y0041400D01*
X0734275Y0041345D01*
X0734046Y0041294D01*
X0733816Y0041250D01*
X0733585Y0041210D01*
X0733353Y0041177D01*
X0733120Y0041149D01*
X0732887Y0041127D01*
X0732653Y0041111D01*
X0732418Y0041100D01*
X0732184Y0041095D01*
X0731950Y0041096D01*
X0731715Y0041103D01*
X0731481Y0041115D01*
X0731247Y0041133D01*
X0731014Y0041157D01*
X0730781Y0041186D01*
X0730550Y0041221D01*
X0730319Y0041262D01*
X0730089Y0041308D01*
X0729860Y0041360D01*
X0729633Y0041417D01*
X0729407Y0041480D01*
X0729183Y0041549D01*
X0728960Y0041623D01*
X0728740Y0041702D01*
X0728521Y0041787D01*
X0728304Y0041877D01*
X0728090Y0041972D01*
X0727878Y0042073D01*
X0727669Y0042178D01*
X0727462Y0042289D01*
X0727258Y0042405D01*
X0727057Y0042525D01*
X0726859Y0042651D01*
X0726664Y0042781D01*
X0726473Y0042916D01*
X0726284Y0043056D01*
X0726100Y0043200D01*
X0686300Y0036800D02*
X0685800Y0037300D01*
X0685800Y0056300D01*
X0686300Y0056800D01*
X0686300Y0058300D01*
X0686298Y0058360D01*
X0686293Y0058421D01*
X0686284Y0058480D01*
X0686271Y0058539D01*
X0686255Y0058598D01*
X0686235Y0058655D01*
X0686212Y0058710D01*
X0686185Y0058765D01*
X0686156Y0058817D01*
X0686123Y0058868D01*
X0686087Y0058917D01*
X0686049Y0058963D01*
X0686007Y0059007D01*
X0685963Y0059049D01*
X0685917Y0059087D01*
X0685868Y0059123D01*
X0685817Y0059156D01*
X0685765Y0059185D01*
X0685710Y0059212D01*
X0685655Y0059235D01*
X0685598Y0059255D01*
X0685539Y0059271D01*
X0685480Y0059284D01*
X0685421Y0059293D01*
X0685360Y0059298D01*
X0685300Y0059300D01*
X0678300Y0059300D01*
X0678240Y0059298D01*
X0678179Y0059293D01*
X0678120Y0059284D01*
X0678061Y0059271D01*
X0678002Y0059255D01*
X0677945Y0059235D01*
X0677890Y0059212D01*
X0677835Y0059185D01*
X0677783Y0059156D01*
X0677732Y0059123D01*
X0677683Y0059087D01*
X0677637Y0059049D01*
X0677593Y0059007D01*
X0677551Y0058963D01*
X0677513Y0058917D01*
X0677477Y0058868D01*
X0677444Y0058817D01*
X0677415Y0058765D01*
X0677388Y0058710D01*
X0677365Y0058655D01*
X0677345Y0058598D01*
X0677329Y0058539D01*
X0677316Y0058480D01*
X0677307Y0058421D01*
X0677302Y0058360D01*
X0677300Y0058300D01*
X0677300Y0056800D01*
X0677800Y0056300D01*
X0677800Y0037300D01*
X0677300Y0036800D01*
X0677300Y0035300D01*
X0677302Y0035240D01*
X0677307Y0035179D01*
X0677316Y0035120D01*
X0677329Y0035061D01*
X0677345Y0035002D01*
X0677365Y0034945D01*
X0677388Y0034890D01*
X0677415Y0034835D01*
X0677444Y0034783D01*
X0677477Y0034732D01*
X0677513Y0034683D01*
X0677551Y0034637D01*
X0677593Y0034593D01*
X0677637Y0034551D01*
X0677683Y0034513D01*
X0677732Y0034477D01*
X0677783Y0034444D01*
X0677835Y0034415D01*
X0677890Y0034388D01*
X0677945Y0034365D01*
X0678002Y0034345D01*
X0678061Y0034329D01*
X0678120Y0034316D01*
X0678179Y0034307D01*
X0678240Y0034302D01*
X0678300Y0034300D01*
X0685300Y0034300D01*
X0685360Y0034302D01*
X0685421Y0034307D01*
X0685480Y0034316D01*
X0685539Y0034329D01*
X0685598Y0034345D01*
X0685655Y0034365D01*
X0685710Y0034388D01*
X0685765Y0034415D01*
X0685817Y0034444D01*
X0685868Y0034477D01*
X0685917Y0034513D01*
X0685963Y0034551D01*
X0686007Y0034593D01*
X0686049Y0034637D01*
X0686087Y0034683D01*
X0686123Y0034732D01*
X0686156Y0034783D01*
X0686185Y0034835D01*
X0686212Y0034890D01*
X0686235Y0034945D01*
X0686255Y0035002D01*
X0686271Y0035061D01*
X0686284Y0035120D01*
X0686293Y0035179D01*
X0686298Y0035240D01*
X0686300Y0035300D01*
X0686300Y0036800D01*
X0739900Y0009800D02*
X0739900Y0002300D01*
X0743600Y0002300D02*
X0743600Y0009800D01*
X0759600Y0002300D02*
X0761800Y0002300D01*
X0761800Y0006300D01*
X0761800Y0010800D01*
X0763800Y0011800D01*
X0763800Y0005300D01*
X0761800Y0006300D01*
X0828600Y0009800D02*
X0828600Y0002300D01*
X0844600Y0002300D02*
X0846800Y0002300D01*
X0846800Y0006300D01*
X0846800Y0010800D01*
X0848800Y0011800D01*
X0848800Y0005300D01*
X0846800Y0006300D01*
X0549800Y0116800D02*
X0549800Y0154800D01*
X0549798Y0154860D01*
X0549793Y0154921D01*
X0549784Y0154980D01*
X0549771Y0155039D01*
X0549755Y0155098D01*
X0549735Y0155155D01*
X0549712Y0155210D01*
X0549685Y0155265D01*
X0549656Y0155317D01*
X0549623Y0155368D01*
X0549587Y0155417D01*
X0549549Y0155463D01*
X0549507Y0155507D01*
X0549463Y0155549D01*
X0549417Y0155587D01*
X0549368Y0155623D01*
X0549317Y0155656D01*
X0549265Y0155685D01*
X0549210Y0155712D01*
X0549155Y0155735D01*
X0549098Y0155755D01*
X0549039Y0155771D01*
X0548980Y0155784D01*
X0548921Y0155793D01*
X0548860Y0155798D01*
X0548800Y0155800D01*
X0534800Y0155800D01*
X0534740Y0155798D01*
X0534679Y0155793D01*
X0534620Y0155784D01*
X0534561Y0155771D01*
X0534502Y0155755D01*
X0534445Y0155735D01*
X0534390Y0155712D01*
X0534335Y0155685D01*
X0534283Y0155656D01*
X0534232Y0155623D01*
X0534183Y0155587D01*
X0534137Y0155549D01*
X0534093Y0155507D01*
X0534051Y0155463D01*
X0534013Y0155417D01*
X0533977Y0155368D01*
X0533944Y0155317D01*
X0533915Y0155265D01*
X0533888Y0155210D01*
X0533865Y0155155D01*
X0533845Y0155098D01*
X0533829Y0155039D01*
X0533816Y0154980D01*
X0533807Y0154921D01*
X0533802Y0154860D01*
X0533800Y0154800D01*
X0533800Y0116800D01*
X0533802Y0116740D01*
X0533807Y0116679D01*
X0533816Y0116620D01*
X0533829Y0116561D01*
X0533845Y0116502D01*
X0533865Y0116445D01*
X0533888Y0116390D01*
X0533915Y0116335D01*
X0533944Y0116283D01*
X0533977Y0116232D01*
X0534013Y0116183D01*
X0534051Y0116137D01*
X0534093Y0116093D01*
X0534137Y0116051D01*
X0534183Y0116013D01*
X0534232Y0115977D01*
X0534283Y0115944D01*
X0534335Y0115915D01*
X0534390Y0115888D01*
X0534445Y0115865D01*
X0534502Y0115845D01*
X0534561Y0115829D01*
X0534620Y0115816D01*
X0534679Y0115807D01*
X0534740Y0115802D01*
X0534800Y0115800D01*
X0548800Y0115800D01*
X0548860Y0115802D01*
X0548921Y0115807D01*
X0548980Y0115816D01*
X0549039Y0115829D01*
X0549098Y0115845D01*
X0549155Y0115865D01*
X0549210Y0115888D01*
X0549265Y0115915D01*
X0549317Y0115944D01*
X0549368Y0115977D01*
X0549417Y0116013D01*
X0549463Y0116051D01*
X0549507Y0116093D01*
X0549549Y0116137D01*
X0549587Y0116183D01*
X0549623Y0116232D01*
X0549656Y0116283D01*
X0549685Y0116335D01*
X0549712Y0116390D01*
X0549735Y0116445D01*
X0549755Y0116502D01*
X0549771Y0116561D01*
X0549784Y0116620D01*
X0549793Y0116679D01*
X0549798Y0116740D01*
X0549800Y0116800D01*
X0541800Y0125300D02*
X0541800Y0140800D01*
X0541800Y0144300D02*
X0541800Y0146300D01*
X0517800Y0154800D02*
X0517800Y0106800D01*
X0517798Y0106713D01*
X0517792Y0106626D01*
X0517783Y0106539D01*
X0517770Y0106453D01*
X0517753Y0106367D01*
X0517732Y0106282D01*
X0517707Y0106199D01*
X0517679Y0106116D01*
X0517648Y0106035D01*
X0517613Y0105955D01*
X0517574Y0105877D01*
X0517532Y0105800D01*
X0517487Y0105725D01*
X0517438Y0105653D01*
X0517387Y0105582D01*
X0517332Y0105514D01*
X0517275Y0105449D01*
X0517214Y0105386D01*
X0517151Y0105325D01*
X0517086Y0105268D01*
X0517018Y0105213D01*
X0516947Y0105162D01*
X0516875Y0105113D01*
X0516800Y0105068D01*
X0516723Y0105026D01*
X0516645Y0104987D01*
X0516565Y0104952D01*
X0516484Y0104921D01*
X0516401Y0104893D01*
X0516318Y0104868D01*
X0516233Y0104847D01*
X0516147Y0104830D01*
X0516061Y0104817D01*
X0515974Y0104808D01*
X0515887Y0104802D01*
X0515800Y0104800D01*
X0503800Y0104800D01*
X0503713Y0104802D01*
X0503626Y0104808D01*
X0503539Y0104817D01*
X0503453Y0104830D01*
X0503367Y0104847D01*
X0503282Y0104868D01*
X0503199Y0104893D01*
X0503116Y0104921D01*
X0503035Y0104952D01*
X0502955Y0104987D01*
X0502877Y0105026D01*
X0502800Y0105068D01*
X0502725Y0105113D01*
X0502653Y0105162D01*
X0502582Y0105213D01*
X0502514Y0105268D01*
X0502449Y0105325D01*
X0502386Y0105386D01*
X0502325Y0105449D01*
X0502268Y0105514D01*
X0502213Y0105582D01*
X0502162Y0105653D01*
X0502113Y0105725D01*
X0502068Y0105800D01*
X0502026Y0105877D01*
X0501987Y0105955D01*
X0501952Y0106035D01*
X0501921Y0106116D01*
X0501893Y0106199D01*
X0501868Y0106282D01*
X0501847Y0106367D01*
X0501830Y0106453D01*
X0501817Y0106539D01*
X0501808Y0106626D01*
X0501802Y0106713D01*
X0501800Y0106800D01*
X0501800Y0154800D01*
X0501802Y0154887D01*
X0501808Y0154974D01*
X0501817Y0155061D01*
X0501830Y0155147D01*
X0501847Y0155233D01*
X0501868Y0155318D01*
X0501893Y0155401D01*
X0501921Y0155484D01*
X0501952Y0155565D01*
X0501987Y0155645D01*
X0502026Y0155723D01*
X0502068Y0155800D01*
X0502113Y0155875D01*
X0502162Y0155947D01*
X0502213Y0156018D01*
X0502268Y0156086D01*
X0502325Y0156151D01*
X0502386Y0156214D01*
X0502449Y0156275D01*
X0502514Y0156332D01*
X0502582Y0156387D01*
X0502653Y0156438D01*
X0502725Y0156487D01*
X0502800Y0156532D01*
X0502877Y0156574D01*
X0502955Y0156613D01*
X0503035Y0156648D01*
X0503116Y0156679D01*
X0503199Y0156707D01*
X0503282Y0156732D01*
X0503367Y0156753D01*
X0503453Y0156770D01*
X0503539Y0156783D01*
X0503626Y0156792D01*
X0503713Y0156798D01*
X0503800Y0156800D01*
X0515800Y0156800D01*
X0515887Y0156798D01*
X0515974Y0156792D01*
X0516061Y0156783D01*
X0516147Y0156770D01*
X0516233Y0156753D01*
X0516318Y0156732D01*
X0516401Y0156707D01*
X0516484Y0156679D01*
X0516565Y0156648D01*
X0516645Y0156613D01*
X0516723Y0156574D01*
X0516800Y0156532D01*
X0516875Y0156487D01*
X0516947Y0156438D01*
X0517018Y0156387D01*
X0517086Y0156332D01*
X0517151Y0156275D01*
X0517214Y0156214D01*
X0517275Y0156151D01*
X0517332Y0156086D01*
X0517387Y0156018D01*
X0517438Y0155947D01*
X0517487Y0155875D01*
X0517532Y0155800D01*
X0517574Y0155723D01*
X0517613Y0155645D01*
X0517648Y0155565D01*
X0517679Y0155484D01*
X0517707Y0155401D01*
X0517732Y0155318D01*
X0517753Y0155233D01*
X0517770Y0155147D01*
X0517783Y0155061D01*
X0517792Y0154974D01*
X0517798Y0154887D01*
X0517800Y0154800D01*
X0509800Y0145800D02*
X0509800Y0143300D01*
X0509800Y0139800D02*
X0509800Y0115800D01*
X0458800Y0123300D02*
X0458800Y0051300D01*
X0438800Y0034800D02*
X0438713Y0034802D01*
X0438626Y0034808D01*
X0438539Y0034817D01*
X0438453Y0034830D01*
X0438367Y0034847D01*
X0438282Y0034868D01*
X0438199Y0034893D01*
X0438116Y0034921D01*
X0438035Y0034952D01*
X0437955Y0034987D01*
X0437877Y0035026D01*
X0437800Y0035068D01*
X0437725Y0035113D01*
X0437653Y0035162D01*
X0437582Y0035213D01*
X0437514Y0035268D01*
X0437449Y0035325D01*
X0437386Y0035386D01*
X0437325Y0035449D01*
X0437268Y0035514D01*
X0437213Y0035582D01*
X0437162Y0035653D01*
X0437113Y0035725D01*
X0437068Y0035800D01*
X0437026Y0035877D01*
X0436987Y0035955D01*
X0436952Y0036035D01*
X0436921Y0036116D01*
X0436893Y0036199D01*
X0436868Y0036282D01*
X0436847Y0036367D01*
X0436830Y0036453D01*
X0436817Y0036539D01*
X0436808Y0036626D01*
X0436802Y0036713D01*
X0436800Y0036800D01*
X0436800Y0156800D01*
X0436802Y0156887D01*
X0436808Y0156974D01*
X0436817Y0157061D01*
X0436830Y0157147D01*
X0436847Y0157233D01*
X0436868Y0157318D01*
X0436893Y0157401D01*
X0436921Y0157484D01*
X0436952Y0157565D01*
X0436987Y0157645D01*
X0437026Y0157723D01*
X0437068Y0157800D01*
X0437113Y0157875D01*
X0437162Y0157947D01*
X0437213Y0158018D01*
X0437268Y0158086D01*
X0437325Y0158151D01*
X0437386Y0158214D01*
X0437449Y0158275D01*
X0437514Y0158332D01*
X0437582Y0158387D01*
X0437653Y0158438D01*
X0437725Y0158487D01*
X0437800Y0158532D01*
X0437877Y0158574D01*
X0437955Y0158613D01*
X0438035Y0158648D01*
X0438116Y0158679D01*
X0438199Y0158707D01*
X0438282Y0158732D01*
X0438367Y0158753D01*
X0438453Y0158770D01*
X0438539Y0158783D01*
X0438626Y0158792D01*
X0438713Y0158798D01*
X0438800Y0158800D01*
X0478800Y0158800D01*
X0478887Y0158798D01*
X0478974Y0158792D01*
X0479061Y0158783D01*
X0479147Y0158770D01*
X0479233Y0158753D01*
X0479318Y0158732D01*
X0479401Y0158707D01*
X0479484Y0158679D01*
X0479565Y0158648D01*
X0479645Y0158613D01*
X0479723Y0158574D01*
X0479800Y0158532D01*
X0479875Y0158487D01*
X0479947Y0158438D01*
X0480018Y0158387D01*
X0480086Y0158332D01*
X0480151Y0158275D01*
X0480214Y0158214D01*
X0480275Y0158151D01*
X0480332Y0158086D01*
X0480387Y0158018D01*
X0480438Y0157947D01*
X0480487Y0157875D01*
X0480532Y0157800D01*
X0480574Y0157723D01*
X0480613Y0157645D01*
X0480648Y0157565D01*
X0480679Y0157484D01*
X0480707Y0157401D01*
X0480732Y0157318D01*
X0480753Y0157233D01*
X0480770Y0157147D01*
X0480783Y0157061D01*
X0480792Y0156974D01*
X0480798Y0156887D01*
X0480800Y0156800D01*
X0480800Y0036800D01*
X0480798Y0036713D01*
X0480792Y0036626D01*
X0480783Y0036539D01*
X0480770Y0036453D01*
X0480753Y0036367D01*
X0480732Y0036282D01*
X0480707Y0036199D01*
X0480679Y0036116D01*
X0480648Y0036035D01*
X0480613Y0035955D01*
X0480574Y0035877D01*
X0480532Y0035800D01*
X0480487Y0035725D01*
X0480438Y0035653D01*
X0480387Y0035582D01*
X0480332Y0035514D01*
X0480275Y0035449D01*
X0480214Y0035386D01*
X0480151Y0035325D01*
X0480086Y0035268D01*
X0480018Y0035213D01*
X0479947Y0035162D01*
X0479875Y0035113D01*
X0479800Y0035068D01*
X0479723Y0035026D01*
X0479645Y0034987D01*
X0479565Y0034952D01*
X0479484Y0034921D01*
X0479401Y0034893D01*
X0479318Y0034868D01*
X0479233Y0034847D01*
X0479147Y0034830D01*
X0479061Y0034817D01*
X0478974Y0034808D01*
X0478887Y0034802D01*
X0478800Y0034800D01*
X0438800Y0034800D01*
X0458800Y0126800D02*
X0458800Y0142300D01*
X0652800Y0233800D02*
X0652800Y0239800D01*
X0652802Y0239860D01*
X0652807Y0239921D01*
X0652816Y0239980D01*
X0652829Y0240039D01*
X0652845Y0240098D01*
X0652865Y0240155D01*
X0652888Y0240210D01*
X0652915Y0240265D01*
X0652944Y0240317D01*
X0652977Y0240368D01*
X0653013Y0240417D01*
X0653051Y0240463D01*
X0653093Y0240507D01*
X0653137Y0240549D01*
X0653183Y0240587D01*
X0653232Y0240623D01*
X0653283Y0240656D01*
X0653335Y0240685D01*
X0653390Y0240712D01*
X0653445Y0240735D01*
X0653502Y0240755D01*
X0653561Y0240771D01*
X0653620Y0240784D01*
X0653679Y0240793D01*
X0653740Y0240798D01*
X0653800Y0240800D01*
X0669800Y0240800D01*
X0669860Y0240798D01*
X0669921Y0240793D01*
X0669980Y0240784D01*
X0670039Y0240771D01*
X0670098Y0240755D01*
X0670155Y0240735D01*
X0670210Y0240712D01*
X0670265Y0240685D01*
X0670317Y0240656D01*
X0670368Y0240623D01*
X0670417Y0240587D01*
X0670463Y0240549D01*
X0670507Y0240507D01*
X0670549Y0240463D01*
X0670587Y0240417D01*
X0670623Y0240368D01*
X0670656Y0240317D01*
X0670685Y0240265D01*
X0670712Y0240210D01*
X0670735Y0240155D01*
X0670755Y0240098D01*
X0670771Y0240039D01*
X0670784Y0239980D01*
X0670793Y0239921D01*
X0670798Y0239860D01*
X0670800Y0239800D01*
X0670800Y0233800D01*
X0670798Y0233740D01*
X0670793Y0233679D01*
X0670784Y0233620D01*
X0670771Y0233561D01*
X0670755Y0233502D01*
X0670735Y0233445D01*
X0670712Y0233390D01*
X0670685Y0233335D01*
X0670656Y0233283D01*
X0670623Y0233232D01*
X0670587Y0233183D01*
X0670549Y0233137D01*
X0670507Y0233093D01*
X0670463Y0233051D01*
X0670417Y0233013D01*
X0670368Y0232977D01*
X0670317Y0232944D01*
X0670265Y0232915D01*
X0670210Y0232888D01*
X0670155Y0232865D01*
X0670098Y0232845D01*
X0670039Y0232829D01*
X0669980Y0232816D01*
X0669921Y0232807D01*
X0669860Y0232802D01*
X0669800Y0232800D01*
X0653800Y0232800D01*
X0653740Y0232802D01*
X0653679Y0232807D01*
X0653620Y0232816D01*
X0653561Y0232829D01*
X0653502Y0232845D01*
X0653445Y0232865D01*
X0653390Y0232888D01*
X0653335Y0232915D01*
X0653283Y0232944D01*
X0653232Y0232977D01*
X0653183Y0233013D01*
X0653137Y0233051D01*
X0653093Y0233093D01*
X0653051Y0233137D01*
X0653013Y0233183D01*
X0652977Y0233232D01*
X0652944Y0233283D01*
X0652915Y0233335D01*
X0652888Y0233390D01*
X0652865Y0233445D01*
X0652845Y0233502D01*
X0652829Y0233561D01*
X0652816Y0233620D01*
X0652807Y0233679D01*
X0652802Y0233740D01*
X0652800Y0233800D01*
X0655800Y0236800D02*
X0661800Y0236800D01*
X0661800Y0239300D01*
X0661800Y0236800D02*
X0661800Y0234300D01*
X0661800Y0236800D02*
X0657800Y0234300D01*
X0657800Y0239300D01*
X0661800Y0236800D01*
X0664300Y0236800D01*
X0846800Y0357300D02*
X0846800Y0384300D01*
X0850400Y0384300D01*
X0850400Y0382800D02*
X0848900Y0382800D01*
X0848900Y0364800D01*
X0848900Y0357300D01*
X0864900Y0357300D01*
X0868600Y0357300D01*
X0884600Y0357300D01*
X0884600Y0364800D01*
X0868600Y0364800D01*
X0868600Y0382800D01*
X0870100Y0382800D01*
X0870100Y0384300D02*
X0863400Y0384300D01*
X0863400Y0382800D02*
X0864900Y0382800D01*
X0864900Y0364800D01*
X0848900Y0364800D01*
X0850400Y0367300D02*
X0850400Y0379800D01*
X0846800Y0384300D02*
X0846800Y0394300D01*
X0846800Y0406300D01*
X0886800Y0406300D01*
X0888800Y0406300D01*
X0888800Y0387300D01*
X0886800Y0388300D01*
X0886800Y0394300D01*
X0846800Y0394300D01*
X0848900Y0395300D02*
X0848900Y0405300D01*
X0864900Y0405300D01*
X0864900Y0395300D01*
X0848900Y0395300D01*
X0851000Y0398800D02*
X0863000Y0401300D01*
X0862500Y0401800D02*
X0850500Y0399300D01*
X0851266Y0398058D02*
X0851182Y0398107D01*
X0851101Y0398159D01*
X0851022Y0398214D01*
X0850945Y0398273D01*
X0850871Y0398334D01*
X0850799Y0398399D01*
X0850730Y0398467D01*
X0850664Y0398537D01*
X0850601Y0398610D01*
X0850541Y0398686D01*
X0850485Y0398764D01*
X0850431Y0398844D01*
X0850381Y0398926D01*
X0850334Y0399011D01*
X0850291Y0399097D01*
X0850251Y0399185D01*
X0850215Y0399275D01*
X0850183Y0399366D01*
X0850155Y0399458D01*
X0850130Y0399551D01*
X0850109Y0399645D01*
X0850093Y0399741D01*
X0850080Y0399836D01*
X0850071Y0399932D01*
X0850066Y0400029D01*
X0850065Y0400125D01*
X0850068Y0400222D01*
X0850075Y0400318D01*
X0850086Y0400414D01*
X0850101Y0400509D01*
X0850120Y0400604D01*
X0850143Y0400698D01*
X0850170Y0400790D01*
X0850200Y0400882D01*
X0850234Y0400972D01*
X0850272Y0401061D01*
X0850314Y0401148D01*
X0850359Y0401233D01*
X0850408Y0401317D01*
X0850460Y0401398D01*
X0850515Y0401477D01*
X0850574Y0401554D01*
X0850635Y0401628D01*
X0850700Y0401700D01*
X0851100Y0398200D02*
X0851284Y0398056D01*
X0851473Y0397916D01*
X0851664Y0397781D01*
X0851859Y0397651D01*
X0852057Y0397525D01*
X0852258Y0397405D01*
X0852462Y0397289D01*
X0852669Y0397178D01*
X0852878Y0397073D01*
X0853090Y0396972D01*
X0853304Y0396877D01*
X0853521Y0396787D01*
X0853740Y0396702D01*
X0853960Y0396623D01*
X0854183Y0396549D01*
X0854407Y0396480D01*
X0854633Y0396417D01*
X0854860Y0396360D01*
X0855089Y0396308D01*
X0855319Y0396262D01*
X0855550Y0396221D01*
X0855781Y0396186D01*
X0856014Y0396157D01*
X0856247Y0396133D01*
X0856481Y0396115D01*
X0856715Y0396103D01*
X0856950Y0396096D01*
X0857184Y0396095D01*
X0857418Y0396100D01*
X0857653Y0396111D01*
X0857887Y0396127D01*
X0858120Y0396149D01*
X0858353Y0396177D01*
X0858585Y0396210D01*
X0858816Y0396250D01*
X0859046Y0396294D01*
X0859275Y0396345D01*
X0859503Y0396400D01*
X0859729Y0396462D01*
X0859954Y0396529D01*
X0860177Y0396601D01*
X0860398Y0396679D01*
X0860617Y0396762D01*
X0860834Y0396851D01*
X0861049Y0396945D01*
X0861262Y0397044D01*
X0861472Y0397148D01*
X0861679Y0397257D01*
X0861884Y0397371D01*
X0862086Y0397491D01*
X0862285Y0397615D01*
X0862481Y0397744D01*
X0862673Y0397877D01*
X0862863Y0398016D01*
X0862680Y0397883D02*
X0862755Y0397952D01*
X0862827Y0398023D01*
X0862896Y0398097D01*
X0862962Y0398173D01*
X0863026Y0398252D01*
X0863086Y0398333D01*
X0863144Y0398416D01*
X0863198Y0398502D01*
X0863249Y0398589D01*
X0863297Y0398678D01*
X0863341Y0398770D01*
X0863382Y0398862D01*
X0863419Y0398956D01*
X0863453Y0399052D01*
X0863483Y0399148D01*
X0863509Y0399246D01*
X0863532Y0399345D01*
X0863551Y0399444D01*
X0863566Y0399544D01*
X0863578Y0399645D01*
X0863586Y0399746D01*
X0863589Y0399847D01*
X0863590Y0399948D01*
X0863586Y0400049D01*
X0863578Y0400150D01*
X0863567Y0400251D01*
X0863552Y0400351D01*
X0863533Y0400450D01*
X0863511Y0400549D01*
X0863484Y0400647D01*
X0863454Y0400744D01*
X0863421Y0400839D01*
X0863384Y0400933D01*
X0863343Y0401026D01*
X0863299Y0401117D01*
X0863251Y0401206D01*
X0863201Y0401294D01*
X0863147Y0401380D01*
X0863089Y0401463D01*
X0863029Y0401544D01*
X0862966Y0401623D01*
X0862899Y0401700D01*
X0868600Y0405300D02*
X0868600Y0395300D01*
X0884600Y0395300D01*
X0884600Y0405300D01*
X0868600Y0405300D01*
X0870200Y0399300D02*
X0882200Y0401800D01*
X0882700Y0401300D02*
X0870700Y0398800D01*
X0870966Y0398058D02*
X0870882Y0398107D01*
X0870801Y0398159D01*
X0870722Y0398214D01*
X0870645Y0398273D01*
X0870571Y0398334D01*
X0870499Y0398399D01*
X0870430Y0398467D01*
X0870364Y0398537D01*
X0870301Y0398610D01*
X0870241Y0398686D01*
X0870185Y0398764D01*
X0870131Y0398844D01*
X0870081Y0398926D01*
X0870034Y0399011D01*
X0869991Y0399097D01*
X0869951Y0399185D01*
X0869915Y0399275D01*
X0869883Y0399366D01*
X0869855Y0399458D01*
X0869830Y0399551D01*
X0869809Y0399645D01*
X0869793Y0399741D01*
X0869780Y0399836D01*
X0869771Y0399932D01*
X0869766Y0400029D01*
X0869765Y0400125D01*
X0869768Y0400222D01*
X0869775Y0400318D01*
X0869786Y0400414D01*
X0869801Y0400509D01*
X0869820Y0400604D01*
X0869843Y0400698D01*
X0869870Y0400790D01*
X0869900Y0400882D01*
X0869934Y0400972D01*
X0869972Y0401061D01*
X0870014Y0401148D01*
X0870059Y0401233D01*
X0870108Y0401317D01*
X0870160Y0401398D01*
X0870215Y0401477D01*
X0870274Y0401554D01*
X0870335Y0401628D01*
X0870400Y0401700D01*
X0870800Y0398200D02*
X0870985Y0398056D01*
X0871173Y0397916D01*
X0871365Y0397781D01*
X0871560Y0397651D01*
X0871758Y0397525D01*
X0871959Y0397404D01*
X0872163Y0397289D01*
X0872369Y0397178D01*
X0872579Y0397072D01*
X0872790Y0396972D01*
X0873005Y0396877D01*
X0873221Y0396787D01*
X0873440Y0396702D01*
X0873660Y0396623D01*
X0873883Y0396549D01*
X0874107Y0396480D01*
X0874333Y0396417D01*
X0874560Y0396360D01*
X0874789Y0396308D01*
X0875019Y0396262D01*
X0875250Y0396221D01*
X0875482Y0396186D01*
X0875714Y0396157D01*
X0875948Y0396133D01*
X0876181Y0396115D01*
X0876416Y0396103D01*
X0876650Y0396096D01*
X0876884Y0396095D01*
X0877119Y0396100D01*
X0877353Y0396111D01*
X0877587Y0396127D01*
X0877820Y0396149D01*
X0878053Y0396177D01*
X0878285Y0396211D01*
X0878516Y0396250D01*
X0878747Y0396294D01*
X0878976Y0396345D01*
X0879203Y0396401D01*
X0879430Y0396462D01*
X0879654Y0396529D01*
X0879877Y0396601D01*
X0880099Y0396679D01*
X0880318Y0396762D01*
X0880535Y0396851D01*
X0880750Y0396945D01*
X0880962Y0397044D01*
X0881172Y0397148D01*
X0881380Y0397257D01*
X0881584Y0397371D01*
X0881786Y0397491D01*
X0881985Y0397615D01*
X0882181Y0397744D01*
X0882374Y0397878D01*
X0882563Y0398016D01*
X0882380Y0397883D02*
X0882455Y0397952D01*
X0882527Y0398023D01*
X0882596Y0398097D01*
X0882662Y0398173D01*
X0882726Y0398252D01*
X0882786Y0398333D01*
X0882844Y0398416D01*
X0882898Y0398502D01*
X0882949Y0398589D01*
X0882997Y0398678D01*
X0883041Y0398770D01*
X0883082Y0398862D01*
X0883119Y0398956D01*
X0883153Y0399052D01*
X0883183Y0399148D01*
X0883209Y0399246D01*
X0883232Y0399345D01*
X0883251Y0399444D01*
X0883266Y0399544D01*
X0883278Y0399645D01*
X0883286Y0399746D01*
X0883289Y0399847D01*
X0883290Y0399948D01*
X0883286Y0400049D01*
X0883278Y0400150D01*
X0883267Y0400251D01*
X0883252Y0400351D01*
X0883233Y0400450D01*
X0883211Y0400549D01*
X0883184Y0400647D01*
X0883154Y0400744D01*
X0883121Y0400839D01*
X0883084Y0400933D01*
X0883043Y0401026D01*
X0882999Y0401117D01*
X0882951Y0401206D01*
X0882901Y0401294D01*
X0882847Y0401380D01*
X0882789Y0401463D01*
X0882729Y0401544D01*
X0882666Y0401623D01*
X0882599Y0401700D01*
X0886800Y0406300D02*
X0886800Y0394300D01*
X0886800Y0388300D02*
X0886800Y0384300D01*
X0883100Y0384300D01*
X0883100Y0382800D02*
X0884600Y0382800D01*
X0884600Y0364800D01*
X0886800Y0365800D02*
X0886800Y0384300D01*
X0883100Y0379800D02*
X0883100Y0367300D01*
X0870100Y0367300D01*
X0870100Y0379800D01*
X0863400Y0379800D02*
X0863400Y0367300D01*
X0850400Y0367300D01*
X0848900Y0357300D02*
X0846800Y0357300D01*
X0864900Y0357300D02*
X0864900Y0364800D01*
X0868600Y0364800D02*
X0868600Y0357300D01*
X0884600Y0357300D02*
X0886800Y0357300D01*
X0886800Y0361300D01*
X0886800Y0365800D01*
X0888800Y0366800D01*
X0888800Y0360300D01*
X0886800Y0361300D01*
X0882618Y0401716D02*
X0882488Y0401862D01*
X0882354Y0402006D01*
X0882216Y0402146D01*
X0882075Y0402283D01*
X0881931Y0402417D01*
X0881783Y0402546D01*
X0881633Y0402673D01*
X0881479Y0402795D01*
X0881323Y0402914D01*
X0881163Y0403029D01*
X0881001Y0403140D01*
X0880836Y0403247D01*
X0880669Y0403351D01*
X0880499Y0403450D01*
X0880327Y0403544D01*
X0880153Y0403635D01*
X0879976Y0403722D01*
X0879798Y0403804D01*
X0879617Y0403881D01*
X0879435Y0403955D01*
X0879251Y0404024D01*
X0879066Y0404088D01*
X0878878Y0404148D01*
X0878690Y0404204D01*
X0878500Y0404254D01*
X0878309Y0404301D01*
X0878117Y0404342D01*
X0877924Y0404379D01*
X0877730Y0404411D01*
X0877535Y0404439D01*
X0877340Y0404461D01*
X0877145Y0404479D01*
X0876949Y0404493D01*
X0876752Y0404501D01*
X0876556Y0404505D01*
X0876359Y0404504D01*
X0876163Y0404498D01*
X0875967Y0404487D01*
X0875771Y0404472D01*
X0875575Y0404452D01*
X0875380Y0404427D01*
X0875186Y0404398D01*
X0874992Y0404364D01*
X0874800Y0404325D01*
X0874608Y0404281D01*
X0874418Y0404233D01*
X0874228Y0404180D01*
X0874040Y0404123D01*
X0873854Y0404061D01*
X0873669Y0403994D01*
X0873486Y0403924D01*
X0873304Y0403848D01*
X0873125Y0403769D01*
X0872947Y0403685D01*
X0872771Y0403596D01*
X0872598Y0403504D01*
X0872427Y0403407D01*
X0872258Y0403306D01*
X0872092Y0403201D01*
X0871928Y0403093D01*
X0871767Y0402980D01*
X0871609Y0402863D01*
X0871454Y0402743D01*
X0871302Y0402618D01*
X0871153Y0402491D01*
X0871006Y0402359D01*
X0870864Y0402224D01*
X0870724Y0402086D01*
X0870588Y0401944D01*
X0870455Y0401799D01*
X0870326Y0401651D01*
X0870201Y0401500D01*
X0862919Y0401717D02*
X0862788Y0401863D01*
X0862654Y0402007D01*
X0862516Y0402147D01*
X0862375Y0402284D01*
X0862231Y0402418D01*
X0862083Y0402548D01*
X0861933Y0402674D01*
X0861779Y0402796D01*
X0861623Y0402915D01*
X0861463Y0403030D01*
X0861301Y0403141D01*
X0861136Y0403249D01*
X0860969Y0403352D01*
X0860799Y0403451D01*
X0860627Y0403546D01*
X0860453Y0403636D01*
X0860276Y0403723D01*
X0860098Y0403805D01*
X0859917Y0403883D01*
X0859735Y0403956D01*
X0859551Y0404025D01*
X0859365Y0404089D01*
X0859178Y0404149D01*
X0858990Y0404205D01*
X0858800Y0404255D01*
X0858609Y0404302D01*
X0858417Y0404343D01*
X0858224Y0404380D01*
X0858030Y0404412D01*
X0857835Y0404440D01*
X0857640Y0404462D01*
X0857444Y0404480D01*
X0857248Y0404494D01*
X0857052Y0404502D01*
X0856855Y0404506D01*
X0856659Y0404505D01*
X0856462Y0404499D01*
X0856266Y0404488D01*
X0856070Y0404473D01*
X0855875Y0404453D01*
X0855680Y0404428D01*
X0855485Y0404399D01*
X0855292Y0404364D01*
X0855099Y0404326D01*
X0854907Y0404282D01*
X0854717Y0404234D01*
X0854528Y0404181D01*
X0854340Y0404124D01*
X0854153Y0404062D01*
X0853968Y0403995D01*
X0853785Y0403924D01*
X0853603Y0403849D01*
X0853424Y0403769D01*
X0853246Y0403685D01*
X0853070Y0403597D01*
X0852897Y0403505D01*
X0852726Y0403408D01*
X0852557Y0403307D01*
X0852391Y0403202D01*
X0852227Y0403093D01*
X0852066Y0402980D01*
X0851908Y0402864D01*
X0851753Y0402743D01*
X0851601Y0402619D01*
X0851452Y0402491D01*
X0851305Y0402360D01*
X0851163Y0402225D01*
X0851023Y0402086D01*
X0850887Y0401945D01*
X0850754Y0401800D01*
X0850625Y0401651D01*
X0850500Y0401500D01*
D13*
X0544300Y0372800D02*
X0536800Y0372800D01*
X0529300Y0372800D01*
X0529300Y0369300D02*
X0536800Y0369300D01*
X0544300Y0369300D01*
X0496800Y0385800D02*
X0491800Y0385800D01*
X0486800Y0385800D01*
X0486800Y0389300D02*
X0491800Y0389300D01*
X0496800Y0389300D01*
X0464800Y0390300D02*
X0459800Y0390300D01*
X0454800Y0390300D01*
X0454800Y0386800D02*
X0459800Y0386800D01*
X0464800Y0386800D01*
X0503800Y0470300D02*
X0508800Y0470300D01*
X0513800Y0470300D01*
X0513800Y0473800D02*
X0508800Y0473800D01*
X0503800Y0473800D01*
X0537800Y0472800D02*
X0542800Y0472800D01*
X0547800Y0472800D01*
X0547800Y0469300D02*
X0542800Y0469300D01*
X0537800Y0469300D01*
X0467300Y0486800D02*
X0459800Y0486800D01*
X0452300Y0486800D01*
X0452300Y0490300D02*
X0459800Y0490300D01*
X0467300Y0490300D01*
X0466300Y0244300D02*
X0458800Y0244300D01*
X0451300Y0244300D01*
X0451300Y0240800D02*
X0458800Y0240800D01*
X0466300Y0240800D01*
X0505800Y0227800D02*
X0510800Y0227800D01*
X0515800Y0227800D01*
X0515800Y0224300D02*
X0510800Y0224300D01*
X0505800Y0224300D01*
X0536800Y0223300D02*
X0541800Y0223300D01*
X0546800Y0223300D01*
X0546800Y0226800D02*
X0541800Y0226800D01*
X0536800Y0226800D01*
X0536800Y0144300D02*
X0541800Y0144300D01*
X0546800Y0144300D01*
X0546800Y0140800D02*
X0541800Y0140800D01*
X0536800Y0140800D01*
X0514800Y0139800D02*
X0509800Y0139800D01*
X0504800Y0139800D01*
X0504800Y0143300D02*
X0509800Y0143300D01*
X0514800Y0143300D01*
X0466300Y0126800D02*
X0458800Y0126800D01*
X0451300Y0126800D01*
X0451300Y0123300D02*
X0458800Y0123300D01*
X0466300Y0123300D01*
D14*
X0681800Y0064300D02*
X0681800Y0062800D01*
X0681800Y0030800D02*
X0681800Y0029300D01*
X0844300Y0141800D02*
X0845800Y0141800D01*
X0877800Y0141800D02*
X0879300Y0141800D01*
X0859300Y0166800D02*
X0857800Y0166800D01*
X0825800Y0166800D02*
X0824300Y0166800D01*
X0881800Y0064300D02*
X0881800Y0062800D01*
X0881800Y0030800D02*
X0881800Y0029300D01*
D15*
X0881000Y0141800D03*
X0876000Y0141800D03*
X0847600Y0141800D03*
X0842600Y0141800D03*
X0856000Y0166800D03*
X0861000Y0166800D03*
X0827600Y0166800D03*
X0822600Y0166800D03*
D16*
X0881800Y0066000D03*
X0881800Y0061000D03*
X0881800Y0032600D03*
X0881800Y0027600D03*
X0681800Y0027600D03*
X0681800Y0032600D03*
X0681800Y0061000D03*
X0681800Y0066000D03*
D17*
X0663050Y0259300D02*
X0660550Y0259300D01*
X0660550Y0261800D01*
X0660550Y0264300D01*
X0663050Y0264300D01*
X0663050Y0261800D01*
X0671800Y0261800D01*
X0663050Y0261800D02*
X0663050Y0259300D01*
X0660550Y0261800D02*
X0651800Y0261800D01*
X0651800Y0291800D02*
X0658050Y0291800D01*
X0658050Y0321800D01*
X0656800Y0321800D01*
X0651800Y0319300D01*
X0653050Y0319300D02*
X0653050Y0311800D01*
X0651800Y0311800D01*
X0653050Y0324300D02*
X0653050Y0331800D01*
X0651800Y0331800D01*
X0665550Y0321800D02*
X0666800Y0321800D01*
X0671800Y0319300D01*
X0670550Y0319300D02*
X0670550Y0311800D01*
X0671800Y0311800D01*
X0665550Y0321800D02*
X0665550Y0291800D01*
X0671800Y0291800D01*
X0670550Y0324300D02*
X0670550Y0331800D01*
X0671800Y0331800D01*
X0781800Y0316800D02*
X0790550Y0316800D01*
X0790550Y0319300D01*
X0793050Y0319300D01*
X0793050Y0316800D01*
X0801800Y0316800D01*
X0793050Y0316800D02*
X0793050Y0314300D01*
X0790550Y0314300D01*
X0790550Y0316800D01*
X0788050Y0346800D02*
X0788050Y0376800D01*
X0786800Y0376800D01*
X0781800Y0374300D01*
X0783050Y0374300D02*
X0783050Y0366800D01*
X0781800Y0366800D01*
X0783050Y0379300D02*
X0783050Y0386800D01*
X0781800Y0386800D01*
X0795550Y0376800D02*
X0796800Y0376800D01*
X0801800Y0374300D01*
X0800550Y0374300D02*
X0800550Y0366800D01*
X0801800Y0366800D01*
X0795550Y0376800D02*
X0795550Y0346800D01*
X0801800Y0346800D01*
X0788050Y0346800D02*
X0781800Y0346800D01*
X0800550Y0379300D02*
X0800550Y0386800D01*
X0801800Y0386800D01*
D18*
X0798300Y0286800D03*
X0668300Y0236800D03*
D19*
X0674550Y0236800D03*
X0649050Y0236800D03*
X0779050Y0286800D03*
X0804550Y0286800D03*
M02*
