%
M48
M72
T01C0.02362
T02C0.03200
T03C0.03600
T04C0.03937
T05C0.04000
T06C0.04700
T07C0.04724
T08C0.05200
T09C0.06693
T10C0.07900
T11C0.14950
%
T01
X696800Y86800
X781800Y86800
T02
X836800Y141800
X816800Y166800
X816800Y196800
X806800Y196800
X796800Y196800
X786800Y196800
X776800Y196800
X766800Y196800
X766800Y226800
X776800Y226800
X786800Y226800
X796800Y226800
X806800Y226800
X816800Y226800
X826800Y226800
X836800Y226800
X836800Y196800
X826800Y196800
X866800Y166800
X886800Y141800
X881800Y71800
X881800Y21800
X681800Y21800
X681800Y71800
X681800Y236800
X641800Y236800
X771800Y286800
X811800Y286800
T03
X542800Y462800
X542800Y492800
X459800Y396800
X459800Y366800
X541800Y246800
X541800Y216800
X541800Y150800
X541800Y120800
T04
X666800Y111800
X676800Y111800
X686800Y111800
X696800Y111800
X706800Y111800
X706800Y101800
X696800Y101800
X686800Y101800
X676800Y101800
X666800Y101800
X716800Y101800
X726800Y101800
X736800Y101800
X746800Y101800
X756800Y101800
X766800Y101800
X776800Y101800
X786800Y101800
X796800Y101800
X806800Y101800
X816800Y101800
X816800Y111800
X806800Y111800
X796800Y111800
X786800Y111800
X776800Y111800
X766800Y111800
X756800Y111800
X746800Y111800
X736800Y111800
X726800Y111800
X716800Y111800
X826800Y111800
X836800Y111800
X846800Y111800
X856800Y111800
X856800Y101800
X846800Y101800
X836800Y101800
X826800Y101800
X676800Y261800
X646800Y261800
X646800Y291800
X646800Y311800
X646800Y331800
X676800Y331800
X676800Y311800
X676800Y291800
X776800Y316800
X806800Y316800
X806800Y346800
X806800Y366800
X806800Y386800
X776800Y386800
X776800Y366800
X776800Y346800
T05
X510800Y256800
X510800Y216800
X509800Y150800
X509800Y110800
X491800Y356800
X491800Y396800
X508800Y462800
X508800Y502800
T06
X459800Y462800
X536800Y396800
X458800Y324800
X536800Y288800
X458800Y216800
X458800Y150800
X458800Y42800
X459800Y570800
T07
X346800Y562800
X226800Y552800
X226800Y472800
X346800Y462800
X346800Y356800
X346800Y306800
X346800Y256800
X226800Y266800
X226800Y346800
X346800Y150800
X226800Y140800
X226800Y60800
X346800Y50800
T08
X731900Y26800
X751600Y26800
X816900Y26800
X836600Y26800
X881800Y262000
X881800Y281700
X876600Y381800
X856900Y381800
X736600Y381800
X716900Y381800
X671700Y381800
X652000Y381800
T09
X37800Y328186
X37800Y312595
X37800Y297005
X37800Y281414
T10
X576800Y216800
X576800Y150800
X576800Y396800
X576800Y462800
T11
X51800Y51800
X551800Y51800
X551800Y551800
X51800Y551800
M30
