G75*
%MOIN*%
%OFA0B0*%
%FSLAX25Y25*%
%IPPOS*%
%LPD*%
%AMOC8*
5,1,8,0,0,1.08239X$1,22.5*
%
%ADD10C,0.15750*%
%ADD11OC8,0.06400*%
%ADD12C,0.09050*%
%ADD13C,0.06000*%
%ADD14C,0.06737*%
%ADD15C,0.06800*%
%ADD16OC8,0.06000*%
%ADD17OC8,0.06800*%
%ADD18R,0.12611X0.12611*%
%ADD19R,0.17398X0.17398*%
%ADD20C,0.10839*%
%ADD21C,0.07000*%
%ADD22C,0.05524*%
%ADD23OC8,0.07000*%
%ADD24C,0.08300*%
%ADD25C,0.11300*%
%ADD26R,0.04762X0.04762*%
D10*
X0672300Y0027800D03*
X0976300Y0027800D03*
X0976800Y0525300D03*
X0672800Y0525300D03*
D11*
X0261800Y0497800D03*
X0261800Y0467800D03*
X0241800Y0407800D03*
X0241800Y0377800D03*
X0076800Y0302800D03*
X0076800Y0272800D03*
X0061800Y0203800D03*
X0061800Y0173800D03*
X0132800Y0077800D03*
X0132800Y0047800D03*
D12*
X0501800Y0148675D02*
X0501800Y0156925D01*
X0541800Y0156925D02*
X0541800Y0148675D01*
X0541800Y0096925D02*
X0541800Y0088675D01*
X0541800Y0208675D02*
X0541800Y0216925D01*
X0501800Y0216925D02*
X0501800Y0208675D01*
X0501800Y0268675D02*
X0501800Y0276925D01*
X0541800Y0276925D02*
X0541800Y0268675D01*
X0541800Y0328675D02*
X0541800Y0336925D01*
X0501800Y0336925D02*
X0501800Y0328675D01*
X0501800Y0388675D02*
X0501800Y0396925D01*
X0541800Y0396925D02*
X0541800Y0388675D01*
X0501800Y0448675D02*
X0501800Y0456925D01*
D13*
X0336800Y0415400D02*
X0336800Y0410200D01*
X0336800Y0375400D02*
X0336800Y0370200D01*
X0268000Y0299800D02*
X0262800Y0299800D01*
X0262800Y0289800D02*
X0268000Y0289800D01*
X0232800Y0289800D02*
X0227600Y0289800D01*
X0227600Y0299800D02*
X0232800Y0299800D01*
X0199400Y0112800D02*
X0194200Y0112800D01*
X0194200Y0102800D02*
X0199400Y0102800D01*
X0199400Y0092800D02*
X0194200Y0092800D01*
X0194200Y0082800D02*
X0199400Y0082800D01*
X0169400Y0082800D02*
X0164200Y0082800D01*
X0164200Y0092800D02*
X0169400Y0092800D01*
X0169400Y0102800D02*
X0164200Y0102800D01*
X0164200Y0112800D02*
X0169400Y0112800D01*
X0707300Y0288700D02*
X0707300Y0293900D01*
X0717300Y0293900D02*
X0717300Y0288700D01*
X0727300Y0288700D02*
X0727300Y0293900D01*
X0737300Y0293900D02*
X0737300Y0288700D01*
X0747300Y0288700D02*
X0747300Y0293900D01*
X0789300Y0310200D02*
X0789300Y0315400D01*
X0799300Y0315400D02*
X0799300Y0310200D01*
X0809300Y0310200D02*
X0809300Y0315400D01*
X0819300Y0315400D02*
X0819300Y0310200D01*
X0829300Y0310200D02*
X0829300Y0315400D01*
X0829300Y0340200D02*
X0829300Y0345400D01*
X0819300Y0345400D02*
X0819300Y0340200D01*
X0809300Y0340200D02*
X0809300Y0345400D01*
X0799300Y0345400D02*
X0799300Y0340200D01*
X0789300Y0340200D02*
X0789300Y0345400D01*
X0747300Y0323900D02*
X0747300Y0318700D01*
X0737300Y0318700D02*
X0737300Y0323900D01*
X0727300Y0323900D02*
X0727300Y0318700D01*
X0717300Y0318700D02*
X0717300Y0323900D01*
X0707300Y0323900D02*
X0707300Y0318700D01*
X0707300Y0388200D02*
X0707300Y0393400D01*
X0717300Y0393400D02*
X0717300Y0388200D01*
X0727300Y0388200D02*
X0727300Y0393400D01*
X0737300Y0393400D02*
X0737300Y0388200D01*
X0737300Y0418200D02*
X0737300Y0423400D01*
X0727300Y0423400D02*
X0727300Y0418200D01*
X0717300Y0418200D02*
X0717300Y0423400D01*
X0707300Y0423400D02*
X0707300Y0418200D01*
X0833300Y0422200D02*
X0833300Y0427400D01*
X0843300Y0427400D02*
X0843300Y0422200D01*
X0853300Y0422200D02*
X0853300Y0427400D01*
X0863300Y0427400D02*
X0863300Y0422200D01*
X0863300Y0397400D02*
X0863300Y0392200D01*
X0853300Y0392200D02*
X0853300Y0397400D01*
X0843300Y0397400D02*
X0843300Y0392200D01*
X0833300Y0392200D02*
X0833300Y0397400D01*
X0958200Y0304800D02*
X0963400Y0304800D01*
X0963400Y0294800D02*
X0958200Y0294800D01*
X0958200Y0284800D02*
X0963400Y0284800D01*
X0988200Y0284800D02*
X0993400Y0284800D01*
X0993400Y0294800D02*
X0988200Y0294800D01*
X0988200Y0304800D02*
X0993400Y0304800D01*
X0853800Y0198900D02*
X0853800Y0193700D01*
X0843800Y0193700D02*
X0843800Y0198900D01*
X0833800Y0198900D02*
X0833800Y0193700D01*
X0823800Y0193700D02*
X0823800Y0198900D01*
X0823800Y0168900D02*
X0823800Y0163700D01*
X0833800Y0163700D02*
X0833800Y0168900D01*
X0843800Y0168900D02*
X0843800Y0163700D01*
X0853800Y0163700D02*
X0853800Y0168900D01*
D14*
X0261800Y0177800D03*
X0241800Y0177800D03*
X0181800Y0177800D03*
X0171800Y0177800D03*
X0161800Y0177800D03*
X0171800Y0237800D03*
X0181800Y0237800D03*
X0241800Y0237800D03*
X0261800Y0237800D03*
D15*
X0371800Y0309800D02*
X0371800Y0315800D01*
X0381800Y0315800D02*
X0381800Y0309800D01*
X0391800Y0309800D02*
X0391800Y0315800D01*
X0421800Y0449800D02*
X0421800Y0455800D01*
X0431800Y0455800D02*
X0431800Y0449800D01*
X0441800Y0449800D02*
X0441800Y0455800D01*
X0676800Y0475300D02*
X0682800Y0475300D01*
X0682800Y0485300D02*
X0676800Y0485300D01*
X0676800Y0495300D02*
X0682800Y0495300D01*
X0808300Y0495800D02*
X0814300Y0495800D01*
X0814300Y0485800D02*
X0808300Y0485800D01*
X0808300Y0475800D02*
X0814300Y0475800D01*
X0964300Y0475800D02*
X0970300Y0475800D01*
X0970300Y0485800D02*
X0964300Y0485800D01*
X0964300Y0495800D02*
X0970300Y0495800D01*
X0939800Y0229300D02*
X0933800Y0229300D01*
X0919800Y0219300D02*
X0913800Y0219300D01*
X0889800Y0229300D02*
X0883800Y0229300D01*
D16*
X0888800Y0254300D03*
X0908800Y0254300D03*
X0927800Y0275300D03*
X0927800Y0294800D03*
X0877800Y0294800D03*
X0877800Y0275300D03*
X0883300Y0333800D03*
X0903800Y0369800D03*
X0883300Y0383800D03*
X0852300Y0370300D03*
X0832300Y0370300D03*
X0763300Y0355800D03*
X0675800Y0356300D03*
X0627300Y0339800D03*
X0631300Y0319800D03*
X0651300Y0319800D03*
X0675800Y0306300D03*
X0721300Y0266800D03*
X0721300Y0251800D03*
X0701300Y0251800D03*
X0721300Y0235800D03*
X0771300Y0235800D03*
X0771300Y0266800D03*
X0685800Y0196300D03*
X0665800Y0196300D03*
X0665800Y0166300D03*
X0675800Y0166300D03*
X0685800Y0166300D03*
X0675800Y0143800D03*
X0725800Y0143800D03*
X0441800Y0147800D03*
X0441800Y0107800D03*
X0261800Y0092800D03*
X0221800Y0092800D03*
X0221800Y0047800D03*
X0181800Y0047800D03*
X0057800Y0131800D03*
X0017800Y0131800D03*
X0104800Y0143800D03*
X0144800Y0143800D03*
X0221800Y0147800D03*
X0261800Y0147800D03*
X0391800Y0222800D03*
X0354300Y0242800D03*
X0346800Y0237800D03*
X0346800Y0247800D03*
X0301800Y0237800D03*
X0301800Y0277800D03*
X0301800Y0312800D03*
X0341800Y0312800D03*
X0391800Y0262800D03*
X0391800Y0377800D03*
X0399300Y0382800D03*
X0391800Y0387800D03*
X0441800Y0377800D03*
X0441800Y0417800D03*
X0401800Y0452800D03*
X0361800Y0452800D03*
X0627300Y0389800D03*
X0738300Y0448800D03*
X0758300Y0448800D03*
X0756300Y0429800D03*
X0763300Y0405800D03*
X0806300Y0429800D03*
X0819800Y0445800D03*
X0869800Y0445800D03*
X0869800Y0460300D03*
X0923800Y0461800D03*
X0962300Y0439300D03*
X0982300Y0439300D03*
X0923800Y0411800D03*
X0903800Y0419800D03*
X0869800Y0510300D03*
X1011300Y0241300D03*
X1011300Y0221300D03*
X0116800Y0237800D03*
X0116800Y0297800D03*
D17*
X0336800Y0437800D03*
X0336800Y0497800D03*
X0441800Y0337800D03*
X0441800Y0277800D03*
X0441800Y0242800D03*
X0441800Y0182800D03*
D18*
X0078500Y0087300D03*
X0056800Y0087300D03*
X0056800Y0070800D03*
X0078500Y0070800D03*
X0083500Y0462800D03*
X0061800Y0462800D03*
X0061800Y0479300D03*
X0083500Y0479300D03*
X0524800Y0497800D03*
X0541800Y0497800D03*
D19*
X0028100Y0070800D03*
X0028100Y0087300D03*
X0033100Y0462800D03*
X0033100Y0479300D03*
X0570500Y0497800D03*
D20*
X0718914Y0533280D02*
X0718914Y0543320D01*
X0734505Y0543320D02*
X0734505Y0533280D01*
X0750095Y0533280D02*
X0750095Y0543320D01*
X0765686Y0543320D02*
X0765686Y0533280D01*
X0838414Y0534280D02*
X0838414Y0544320D01*
X0854005Y0544320D02*
X0854005Y0534280D01*
X0869595Y0534280D02*
X0869595Y0544320D01*
X0885186Y0544320D02*
X0885186Y0534280D01*
X1012280Y0456186D02*
X1022320Y0456186D01*
X1022320Y0440595D02*
X1012280Y0440595D01*
X1012280Y0425005D02*
X1022320Y0425005D01*
X1022320Y0409414D02*
X1012280Y0409414D01*
X0670320Y0278095D02*
X0660280Y0278095D01*
X0660280Y0262505D02*
X0670320Y0262505D01*
X0031820Y0251776D02*
X0021780Y0251776D01*
X0021780Y0236186D02*
X0031820Y0236186D01*
X0031820Y0220595D02*
X0021780Y0220595D01*
X0021780Y0205005D02*
X0031820Y0205005D01*
X0031820Y0189414D02*
X0021780Y0189414D01*
X0021780Y0173824D02*
X0031820Y0173824D01*
D21*
X0708800Y0091300D03*
X0718800Y0091300D03*
X0728800Y0091300D03*
X0738800Y0091300D03*
X0748800Y0091300D03*
X0758800Y0091300D03*
X0768800Y0091300D03*
X0778800Y0091300D03*
X0788800Y0091300D03*
X0798800Y0091300D03*
X0808800Y0091300D03*
X0818800Y0091300D03*
X0828800Y0091300D03*
X0838800Y0091300D03*
X0848800Y0091300D03*
X0858800Y0091300D03*
X0868800Y0091300D03*
X0868800Y0031300D03*
X0858800Y0031300D03*
X0848800Y0031300D03*
X0838800Y0031300D03*
X0828800Y0031300D03*
X0818800Y0031300D03*
X0808800Y0031300D03*
X0798800Y0031300D03*
X0788800Y0031300D03*
X0778800Y0031300D03*
X0768800Y0031300D03*
X0758800Y0031300D03*
X0748800Y0031300D03*
X0738800Y0031300D03*
X0728800Y0031300D03*
X0718800Y0031300D03*
X0708800Y0031300D03*
D22*
X0698800Y0031300D03*
X0698800Y0091300D03*
X0878800Y0091300D03*
X0878800Y0031300D03*
D23*
X0873800Y0041800D03*
X0863800Y0041800D03*
X0853800Y0041800D03*
X0853800Y0051800D03*
X0863800Y0051800D03*
X0873800Y0051800D03*
D24*
X1019100Y0298700D03*
D25*
X1009061Y0288661D03*
X1029139Y0288661D03*
X1029139Y0308739D03*
X1009061Y0308739D03*
D26*
X0986300Y0356300D03*
X0801800Y0266800D03*
X0799300Y0283300D03*
X0841300Y0241300D03*
X0843800Y0224800D03*
X0843800Y0136300D03*
X0811300Y0121800D03*
X0777550Y0370050D03*
X0783300Y0475800D03*
X0779999Y0485601D03*
X0195800Y0138800D03*
M02*
