%
M48
M72
T01C0.02362
T02C0.03200
T03C0.03600
T04C0.03937
T05C0.04000
T06C0.04724
T07C0.05000
T08C0.05200
T09C0.06693
T10C0.07000
T11C0.07874
T12C0.07900
T13C0.14950
%
T01
X214800Y122800
X234800Y122800
X202800Y213800
X216800Y246800
X233800Y246800
X241800Y369800
X207800Y410800
X188800Y487800
X244800Y511800
X278800Y486800
X299800Y486800
X350800Y446800
X314800Y421800
X207800Y548800
X277800Y560800
X298800Y560800
X119800Y487800
X26800Y487800
X571300Y265800
X613300Y223800
X613300Y135300
X580800Y120800
X774379Y374812
X699300Y379300
T02
X707800Y402300
X727800Y402300
X673300Y418800
X639300Y444800
X639300Y459300
X632800Y423800
X622800Y423800
X612800Y423800
X602800Y423800
X575800Y428800
X589300Y444800
X527800Y447800
X525800Y428800
X506800Y419800
X496800Y419800
X486800Y419800
X476800Y419800
X507800Y447800
X532800Y404800
X506800Y389800
X496800Y389800
X486800Y389800
X476800Y389800
X458800Y367800
X438800Y367800
X438300Y382300
X456300Y342300
X506300Y342300
X532800Y354800
X532800Y316800
X522800Y316800
X512800Y316800
X542800Y316800
X552800Y316800
X552800Y286800
X542800Y286800
X532800Y286800
X522800Y286800
X512800Y286800
X512800Y265800
X512800Y250800
X492800Y250800
X512800Y234800
X562800Y234800
X562800Y265800
X628300Y274300
X628300Y293800
X652800Y332800
X673300Y368800
X652800Y382800
X632800Y393800
X622800Y393800
X612800Y393800
X602800Y393800
X601800Y369300
X621800Y369300
X706300Y298800
X706300Y288800
X706300Y278800
X678300Y274300
X678300Y293800
X678300Y253300
X658300Y253300
X623300Y195300
X613300Y195300
X603300Y195300
X593300Y195300
X593300Y165300
X603300Y165300
X613300Y165300
X623300Y165300
X519300Y151300
X479300Y164800
X469300Y164800
X459300Y164800
X469300Y151300
X459300Y194800
X479300Y194800
X736300Y278800
X736300Y288800
X736300Y298800
X639300Y509300
X438300Y432300
X88800Y313800
X88800Y303800
X88800Y293800
X88800Y283800
X58800Y283800
X58800Y293800
X58800Y303800
X58800Y313800
X28800Y548800
X28800Y568800
X53800Y568800
X93800Y568800
T03
X757800Y246300
X757800Y216300
T04
X88800Y467800
X88800Y487800
X88800Y507800
X58800Y507800
X58800Y487800
X58800Y467800
X58800Y537800
X88800Y537800
T05
X258800Y628800
X298800Y628800
X461300Y494300
X461300Y484300
X461300Y474300
X580800Y474800
X580800Y484800
X580800Y494800
X712300Y494300
X712300Y484300
X712300Y474300
X826300Y437800
X826300Y317800
X706300Y228300
X686300Y218300
X656300Y228300
X826300Y152800
X826300Y32800
X643300Y40800
X643300Y50800
X633300Y50800
X633300Y40800
X623300Y40800
X623300Y50800
X618300Y30300
X608300Y30300
X598300Y30300
X588300Y30300
X578300Y30300
X568300Y30300
X558300Y30300
X548300Y30300
X538300Y30300
X528300Y30300
X518300Y30300
X508300Y30300
X498300Y30300
X488300Y30300
X478300Y30300
X478300Y90300
X488300Y90300
X498300Y90300
X508300Y90300
X518300Y90300
X528300Y90300
X538300Y90300
X548300Y90300
X558300Y90300
X568300Y90300
X578300Y90300
X588300Y90300
X598300Y90300
X608300Y90300
X618300Y90300
X628300Y90300
X638300Y90300
X638300Y30300
X628300Y30300
X296800Y32800
X256800Y32800
T06
X468300Y30300
X468300Y90300
X648300Y90300
X648300Y30300
T07
X765600Y298700
X42800Y232800
T08
X813300Y297300
X840300Y296800
X840300Y11800
X813300Y12300
T09
X458800Y287005
X458800Y302595
X727414Y352800
X743005Y352800
X758595Y352800
X774186Y352800
X654686Y538300
X639095Y538300
X623505Y538300
X607914Y538300
X535186Y537300
X519595Y537300
X504005Y537300
X488414Y537300
X93800Y603005
X93800Y618595
X28800Y607595
X28800Y592005
T10
X32761Y242839
X32761Y222761
X52839Y222761
X52839Y242839
X755561Y288661
X775639Y288661
X775639Y308739
X755561Y308739
T11
X826800Y296800
X816800Y176800
X826800Y11800
X816800Y461800
T12
X388800Y321800
X347800Y32800
X169800Y33800
X169800Y630800
X346800Y628800
T13
X28800Y19800
X376800Y26800
X441800Y26800
X745800Y26800
X746300Y524300
X442300Y524300
X376800Y626800
X24800Y628800
M30
