G75*
%MOIN*%
%OFA0B0*%
%FSLAX25Y25*%
%IPPOS*%
%LPD*%
%AMOC8*
5,1,8,0,0,1.08239X$1,22.5*
%
%ADD10C,0.15750*%
%ADD11C,0.07887*%
%ADD12C,0.12650*%
%ADD13C,0.10839*%
%ADD14OC8,0.07850*%
%ADD15OC8,0.06800*%
%ADD16OC8,0.06400*%
%ADD17OC8,0.06000*%
%ADD18C,0.06737*%
%ADD19C,0.08600*%
%ADD20C,0.06000*%
%ADD21R,0.04762X0.04762*%
D10*
X0051800Y0051800D03*
X0551800Y0051800D03*
X0551800Y0551800D03*
X0051800Y0551800D03*
D11*
X0226800Y0552800D03*
X0226800Y0472800D03*
X0346800Y0462800D03*
X0346800Y0562800D03*
X0346800Y0356800D03*
X0346800Y0306800D03*
X0346800Y0256800D03*
X0226800Y0266800D03*
X0226800Y0346800D03*
X0346800Y0150800D03*
X0226800Y0140800D03*
X0226800Y0060800D03*
X0346800Y0050800D03*
X0646800Y0261800D03*
X0676800Y0261800D03*
X0676800Y0291800D03*
X0676800Y0311800D03*
X0676800Y0331800D03*
X0646800Y0331800D03*
X0646800Y0311800D03*
X0646800Y0291800D03*
X0776800Y0316800D03*
X0806800Y0316800D03*
X0806800Y0346800D03*
X0806800Y0366800D03*
X0806800Y0386800D03*
X0776800Y0386800D03*
X0776800Y0366800D03*
X0776800Y0346800D03*
D12*
X0576800Y0390875D02*
X0576800Y0402725D01*
X0576800Y0456875D02*
X0576800Y0468725D01*
X0576800Y0222725D02*
X0576800Y0210875D01*
X0576800Y0156725D02*
X0576800Y0144875D01*
D13*
X0042820Y0281414D02*
X0032780Y0281414D01*
X0032780Y0297005D02*
X0042820Y0297005D01*
X0042820Y0312595D02*
X0032780Y0312595D01*
X0032780Y0328186D02*
X0042820Y0328186D01*
D14*
X0458800Y0324800D03*
X0536800Y0288800D03*
X0458800Y0216800D03*
X0458800Y0150800D03*
X0458800Y0042800D03*
X0536800Y0396800D03*
X0459800Y0462800D03*
X0459800Y0570800D03*
D15*
X0508800Y0502800D03*
X0508800Y0462800D03*
X0491800Y0396800D03*
X0491800Y0356800D03*
X0510800Y0256800D03*
X0510800Y0216800D03*
X0509800Y0150800D03*
X0509800Y0110800D03*
D16*
X0541800Y0120800D03*
X0541800Y0150800D03*
X0541800Y0216800D03*
X0541800Y0246800D03*
X0459800Y0366800D03*
X0459800Y0396800D03*
X0542800Y0462800D03*
X0542800Y0492800D03*
D17*
X0816800Y0166800D03*
X0836800Y0141800D03*
X0866800Y0166800D03*
X0886800Y0141800D03*
X0881800Y0071800D03*
X0881800Y0021800D03*
X0681800Y0021800D03*
X0681800Y0071800D03*
D18*
X0676800Y0101800D03*
X0666800Y0101800D03*
X0666800Y0111800D03*
X0676800Y0111800D03*
X0686800Y0111800D03*
X0696800Y0111800D03*
X0706800Y0111800D03*
X0706800Y0101800D03*
X0696800Y0101800D03*
X0686800Y0101800D03*
X0716800Y0101800D03*
X0726800Y0101800D03*
X0736800Y0101800D03*
X0746800Y0101800D03*
X0756800Y0101800D03*
X0766800Y0101800D03*
X0776800Y0101800D03*
X0786800Y0101800D03*
X0796800Y0101800D03*
X0806800Y0101800D03*
X0816800Y0101800D03*
X0816800Y0111800D03*
X0806800Y0111800D03*
X0796800Y0111800D03*
X0786800Y0111800D03*
X0776800Y0111800D03*
X0766800Y0111800D03*
X0756800Y0111800D03*
X0746800Y0111800D03*
X0736800Y0111800D03*
X0726800Y0111800D03*
X0716800Y0111800D03*
X0826800Y0111800D03*
X0836800Y0111800D03*
X0846800Y0111800D03*
X0856800Y0111800D03*
X0856800Y0101800D03*
X0846800Y0101800D03*
X0836800Y0101800D03*
X0826800Y0101800D03*
D19*
X0836600Y0030700D02*
X0836600Y0022900D01*
X0816900Y0022900D02*
X0816900Y0030700D01*
X0751600Y0030700D02*
X0751600Y0022900D01*
X0731900Y0022900D02*
X0731900Y0030700D01*
X0877900Y0262000D02*
X0885700Y0262000D01*
X0885700Y0281700D02*
X0877900Y0281700D01*
X0876600Y0377900D02*
X0876600Y0385700D01*
X0856900Y0385700D02*
X0856900Y0377900D01*
X0736600Y0377900D02*
X0736600Y0385700D01*
X0716900Y0385700D02*
X0716900Y0377900D01*
X0671700Y0377900D02*
X0671700Y0385700D01*
X0652000Y0385700D02*
X0652000Y0377900D01*
D20*
X0769200Y0286800D02*
X0774400Y0286800D01*
X0809200Y0286800D02*
X0814400Y0286800D01*
X0816800Y0232000D02*
X0816800Y0226800D01*
X0806800Y0226800D02*
X0806800Y0232000D01*
X0796800Y0232000D02*
X0796800Y0226800D01*
X0786800Y0226800D02*
X0786800Y0232000D01*
X0776800Y0232000D02*
X0776800Y0226800D01*
X0766800Y0226800D02*
X0766800Y0232000D01*
X0766800Y0196800D02*
X0766800Y0191600D01*
X0776800Y0191600D02*
X0776800Y0196800D01*
X0786800Y0196800D02*
X0786800Y0191600D01*
X0796800Y0191600D02*
X0796800Y0196800D01*
X0806800Y0196800D02*
X0806800Y0191600D01*
X0816800Y0191600D02*
X0816800Y0196800D01*
X0826800Y0196800D02*
X0826800Y0191600D01*
X0836800Y0191600D02*
X0836800Y0196800D01*
X0836800Y0226800D02*
X0836800Y0232000D01*
X0826800Y0232000D02*
X0826800Y0226800D01*
X0684400Y0236800D02*
X0679200Y0236800D01*
X0644400Y0236800D02*
X0639200Y0236800D01*
D21*
X0696800Y0086800D03*
X0781800Y0086800D03*
M02*
