G75*
%MOIN*%
%OFA0B0*%
%FSLAX25Y25*%
%IPPOS*%
%LPD*%
%AMOC8*
5,1,8,0,0,1.08239X$1,22.5*
%
%ADD10C,0.07087*%
%ADD11C,0.11850*%
%ADD12C,0.10039*%
%ADD13OC8,0.07050*%
%ADD14OC8,0.06000*%
%ADD15OC8,0.05600*%
%ADD16OC8,0.05200*%
%ADD17C,0.05937*%
%ADD18C,0.07800*%
%ADD19C,0.05200*%
%ADD20C,0.10000*%
%ADD21C,0.01600*%
%ADD22C,0.05600*%
%ADD23R,0.03962X0.03962*%
D10*
X0226800Y0060800D03*
X0226800Y0140800D03*
X0346800Y0150800D03*
X0346800Y0050800D03*
X0346800Y0256800D03*
X0346800Y0306800D03*
X0346800Y0356800D03*
X0226800Y0346800D03*
X0226800Y0266800D03*
X0346800Y0462800D03*
X0226800Y0472800D03*
X0226800Y0552800D03*
X0346800Y0562800D03*
X0646800Y0331800D03*
X0646800Y0311800D03*
X0646800Y0291800D03*
X0676800Y0291800D03*
X0676800Y0311800D03*
X0676800Y0331800D03*
X0676800Y0261800D03*
X0646800Y0261800D03*
X0776800Y0316800D03*
X0806800Y0316800D03*
X0806800Y0346800D03*
X0806800Y0366800D03*
X0806800Y0386800D03*
X0776800Y0386800D03*
X0776800Y0366800D03*
X0776800Y0346800D03*
D11*
X0576800Y0390875D02*
X0576800Y0402725D01*
X0576800Y0456875D02*
X0576800Y0468725D01*
X0576800Y0222725D02*
X0576800Y0210875D01*
X0576800Y0156725D02*
X0576800Y0144875D01*
D12*
X0042820Y0281414D02*
X0032780Y0281414D01*
X0032780Y0297005D02*
X0042820Y0297005D01*
X0042820Y0312595D02*
X0032780Y0312595D01*
X0032780Y0328186D02*
X0042820Y0328186D01*
D13*
X0458800Y0324800D03*
X0536800Y0288800D03*
X0458800Y0216800D03*
X0458800Y0150800D03*
X0458800Y0042800D03*
X0536800Y0396800D03*
X0459800Y0462800D03*
X0459800Y0570800D03*
D14*
X0508800Y0502800D03*
X0508800Y0462800D03*
X0491800Y0396800D03*
X0491800Y0356800D03*
X0510800Y0256800D03*
X0510800Y0216800D03*
X0509800Y0150800D03*
X0509800Y0110800D03*
D15*
X0541800Y0120800D03*
X0541800Y0150800D03*
X0541800Y0216800D03*
X0541800Y0246800D03*
X0459800Y0366800D03*
X0459800Y0396800D03*
X0542800Y0462800D03*
X0542800Y0492800D03*
D16*
X0816800Y0166800D03*
X0836800Y0141800D03*
X0866800Y0166800D03*
X0886800Y0141800D03*
X0881800Y0071800D03*
X0881800Y0021800D03*
X0681800Y0021800D03*
X0681800Y0071800D03*
D17*
X0676800Y0101800D03*
X0666800Y0101800D03*
X0666800Y0111800D03*
X0676800Y0111800D03*
X0686800Y0111800D03*
X0696800Y0111800D03*
X0706800Y0111800D03*
X0706800Y0101800D03*
X0696800Y0101800D03*
X0686800Y0101800D03*
X0716800Y0101800D03*
X0726800Y0101800D03*
X0736800Y0101800D03*
X0746800Y0101800D03*
X0756800Y0101800D03*
X0766800Y0101800D03*
X0776800Y0101800D03*
X0786800Y0101800D03*
X0796800Y0101800D03*
X0806800Y0101800D03*
X0816800Y0101800D03*
X0816800Y0111800D03*
X0806800Y0111800D03*
X0796800Y0111800D03*
X0786800Y0111800D03*
X0776800Y0111800D03*
X0766800Y0111800D03*
X0756800Y0111800D03*
X0746800Y0111800D03*
X0736800Y0111800D03*
X0726800Y0111800D03*
X0716800Y0111800D03*
X0826800Y0111800D03*
X0836800Y0111800D03*
X0846800Y0111800D03*
X0856800Y0111800D03*
X0856800Y0101800D03*
X0846800Y0101800D03*
X0836800Y0101800D03*
X0826800Y0101800D03*
D18*
X0836600Y0030700D02*
X0836600Y0022900D01*
X0816900Y0022900D02*
X0816900Y0030700D01*
X0751600Y0030700D02*
X0751600Y0022900D01*
X0731900Y0022900D02*
X0731900Y0030700D01*
X0877900Y0262000D02*
X0885700Y0262000D01*
X0885700Y0281700D02*
X0877900Y0281700D01*
X0876600Y0377900D02*
X0876600Y0385700D01*
X0856900Y0385700D02*
X0856900Y0377900D01*
X0736600Y0377900D02*
X0736600Y0385700D01*
X0716900Y0385700D02*
X0716900Y0377900D01*
X0671700Y0377900D02*
X0671700Y0385700D01*
X0652000Y0385700D02*
X0652000Y0377900D01*
D19*
X0769200Y0286800D02*
X0774400Y0286800D01*
X0809200Y0286800D02*
X0814400Y0286800D01*
X0816800Y0232000D02*
X0816800Y0226800D01*
X0806800Y0226800D02*
X0806800Y0232000D01*
X0796800Y0232000D02*
X0796800Y0226800D01*
X0786800Y0226800D02*
X0786800Y0232000D01*
X0776800Y0232000D02*
X0776800Y0226800D01*
X0766800Y0226800D02*
X0766800Y0232000D01*
X0766800Y0196800D02*
X0766800Y0191600D01*
X0776800Y0191600D02*
X0776800Y0196800D01*
X0786800Y0196800D02*
X0786800Y0191600D01*
X0796800Y0191600D02*
X0796800Y0196800D01*
X0806800Y0196800D02*
X0806800Y0191600D01*
X0816800Y0191600D02*
X0816800Y0196800D01*
X0826800Y0196800D02*
X0826800Y0191600D01*
X0836800Y0191600D02*
X0836800Y0196800D01*
X0836800Y0226800D02*
X0836800Y0232000D01*
X0826800Y0232000D02*
X0826800Y0226800D01*
X0684400Y0236800D02*
X0679200Y0236800D01*
X0644400Y0236800D02*
X0639200Y0236800D01*
D20*
X0577300Y0216800D02*
X0386800Y0216800D01*
X0346800Y0256800D01*
X0226800Y0266800D02*
X0181005Y0312595D01*
X0037800Y0312595D01*
X0037800Y0297005D02*
X0075595Y0297005D01*
X0116800Y0255800D01*
X0116800Y0170800D01*
X0226800Y0060800D01*
X0346800Y0150800D02*
X0577300Y0150800D01*
X0346800Y0356800D02*
X0386800Y0396800D01*
X0576300Y0396800D01*
X0576800Y0462800D02*
X0346800Y0462800D01*
X0226800Y0472800D02*
X0205800Y0472800D01*
X0061186Y0328186D01*
X0037800Y0328186D01*
D21*
X0017600Y0282742D02*
X0017600Y0017598D01*
X0266748Y0017565D01*
X0264855Y0596000D01*
X0017600Y0596000D01*
X0017600Y0342449D01*
X0019997Y0344846D01*
X0024744Y0347587D01*
X0030039Y0349005D01*
X0045561Y0349005D01*
X0045634Y0348986D01*
X0052570Y0348986D01*
X0189156Y0485571D01*
X0193028Y0489444D01*
X0197771Y0492183D01*
X0203062Y0493600D01*
X0229538Y0493600D01*
X0234828Y0492183D01*
X0239571Y0489444D01*
X0243444Y0485571D01*
X0246183Y0480828D01*
X0247600Y0475538D01*
X0247600Y0470062D01*
X0246183Y0464771D01*
X0243444Y0460028D01*
X0239571Y0456156D01*
X0234828Y0453417D01*
X0229538Y0452000D01*
X0214416Y0452000D01*
X0095811Y0333395D01*
X0183743Y0333395D01*
X0189033Y0331978D01*
X0193776Y0329239D01*
X0243444Y0279571D01*
X0246183Y0274828D01*
X0247600Y0269538D01*
X0247600Y0264062D01*
X0246183Y0258771D01*
X0243444Y0254028D01*
X0239571Y0250156D01*
X0234828Y0247417D01*
X0229538Y0246000D01*
X0224062Y0246000D01*
X0218771Y0247417D01*
X0214028Y0250156D01*
X0172389Y0291795D01*
X0110220Y0291795D01*
X0133444Y0268571D01*
X0136183Y0263828D01*
X0137600Y0258538D01*
X0137600Y0179416D01*
X0243444Y0073571D01*
X0246183Y0068828D01*
X0247600Y0063538D01*
X0247600Y0058062D01*
X0246183Y0052771D01*
X0243444Y0048028D01*
X0239571Y0044156D01*
X0234828Y0041417D01*
X0229538Y0040000D01*
X0224062Y0040000D01*
X0218771Y0041417D01*
X0214028Y0044156D01*
X0100156Y0158028D01*
X0097417Y0162771D01*
X0096000Y0168062D01*
X0096000Y0247184D01*
X0066980Y0276205D01*
X0045634Y0276205D01*
X0045561Y0276185D01*
X0030039Y0276185D01*
X0024744Y0277604D01*
X0019997Y0280345D01*
X0017600Y0282742D01*
X0017800Y0283138D02*
X0059462Y0283138D01*
X0057863Y0284737D02*
X0017800Y0284737D01*
X0017800Y0286335D02*
X0056265Y0286335D01*
X0055800Y0286800D02*
X0017800Y0286800D01*
X0017800Y0273800D01*
X0068800Y0273800D01*
X0055800Y0286800D01*
X0061061Y0281539D02*
X0017800Y0281539D01*
X0017600Y0281539D02*
X0018802Y0281539D01*
X0017800Y0279941D02*
X0062659Y0279941D01*
X0064258Y0278342D02*
X0017800Y0278342D01*
X0017600Y0278342D02*
X0023465Y0278342D01*
X0020696Y0279941D02*
X0017600Y0279941D01*
X0017600Y0276744D02*
X0027953Y0276744D01*
X0017800Y0276744D02*
X0065856Y0276744D01*
X0067455Y0275145D02*
X0017800Y0275145D01*
X0017600Y0275145D02*
X0068039Y0275145D01*
X0069637Y0273547D02*
X0017600Y0273547D01*
X0017600Y0271948D02*
X0071236Y0271948D01*
X0072834Y0270350D02*
X0017600Y0270350D01*
X0017600Y0268751D02*
X0074433Y0268751D01*
X0076031Y0267153D02*
X0017600Y0267153D01*
X0017600Y0265554D02*
X0077630Y0265554D01*
X0079228Y0263956D02*
X0017600Y0263956D01*
X0017600Y0262357D02*
X0080827Y0262357D01*
X0082426Y0260759D02*
X0017600Y0260759D01*
X0017600Y0259160D02*
X0084024Y0259160D01*
X0085623Y0257562D02*
X0017600Y0257562D01*
X0017600Y0255963D02*
X0087221Y0255963D01*
X0088820Y0254365D02*
X0017600Y0254365D01*
X0017600Y0252766D02*
X0090418Y0252766D01*
X0092017Y0251168D02*
X0017600Y0251168D01*
X0017600Y0249569D02*
X0093615Y0249569D01*
X0095214Y0247971D02*
X0017600Y0247971D01*
X0017600Y0246372D02*
X0096000Y0246372D01*
X0096000Y0244774D02*
X0017600Y0244774D01*
X0017600Y0243175D02*
X0096000Y0243175D01*
X0096000Y0241577D02*
X0017600Y0241577D01*
X0017600Y0239978D02*
X0096000Y0239978D01*
X0096000Y0238380D02*
X0017600Y0238380D01*
X0017600Y0236781D02*
X0096000Y0236781D01*
X0096000Y0235183D02*
X0017600Y0235183D01*
X0017600Y0233584D02*
X0096000Y0233584D01*
X0096000Y0231986D02*
X0017600Y0231986D01*
X0017600Y0230387D02*
X0096000Y0230387D01*
X0096000Y0228789D02*
X0017600Y0228789D01*
X0017600Y0227190D02*
X0096000Y0227190D01*
X0096000Y0225592D02*
X0017600Y0225592D01*
X0017600Y0223993D02*
X0096000Y0223993D01*
X0096000Y0222395D02*
X0017600Y0222395D01*
X0017600Y0220796D02*
X0096000Y0220796D01*
X0096000Y0219198D02*
X0017600Y0219198D01*
X0017600Y0217599D02*
X0096000Y0217599D01*
X0096000Y0216001D02*
X0017600Y0216001D01*
X0017600Y0214402D02*
X0096000Y0214402D01*
X0096000Y0212803D02*
X0017600Y0212803D01*
X0017600Y0211205D02*
X0096000Y0211205D01*
X0096000Y0209606D02*
X0017600Y0209606D01*
X0017600Y0208008D02*
X0096000Y0208008D01*
X0096000Y0206409D02*
X0017600Y0206409D01*
X0017600Y0204811D02*
X0096000Y0204811D01*
X0096000Y0203212D02*
X0017600Y0203212D01*
X0017600Y0201614D02*
X0096000Y0201614D01*
X0096000Y0200015D02*
X0017600Y0200015D01*
X0017600Y0198417D02*
X0096000Y0198417D01*
X0096000Y0196818D02*
X0017600Y0196818D01*
X0017600Y0195220D02*
X0096000Y0195220D01*
X0096000Y0193621D02*
X0017600Y0193621D01*
X0017600Y0192023D02*
X0096000Y0192023D01*
X0096000Y0190424D02*
X0017600Y0190424D01*
X0017600Y0188826D02*
X0096000Y0188826D01*
X0096000Y0187227D02*
X0017600Y0187227D01*
X0017600Y0185629D02*
X0096000Y0185629D01*
X0096000Y0184030D02*
X0017600Y0184030D01*
X0017600Y0182432D02*
X0096000Y0182432D01*
X0096000Y0180833D02*
X0017600Y0180833D01*
X0017600Y0179235D02*
X0096000Y0179235D01*
X0096000Y0177636D02*
X0017600Y0177636D01*
X0017600Y0176038D02*
X0096000Y0176038D01*
X0096000Y0174439D02*
X0017600Y0174439D01*
X0017600Y0172841D02*
X0096000Y0172841D01*
X0096000Y0171242D02*
X0017600Y0171242D01*
X0017600Y0169644D02*
X0096000Y0169644D01*
X0096004Y0168045D02*
X0017600Y0168045D01*
X0017600Y0166447D02*
X0096433Y0166447D01*
X0096861Y0164848D02*
X0017600Y0164848D01*
X0017600Y0163250D02*
X0097289Y0163250D01*
X0098064Y0161651D02*
X0017600Y0161651D01*
X0017600Y0160053D02*
X0098987Y0160053D01*
X0099910Y0158454D02*
X0017600Y0158454D01*
X0017600Y0156856D02*
X0101329Y0156856D01*
X0102927Y0155257D02*
X0017600Y0155257D01*
X0017600Y0153659D02*
X0104526Y0153659D01*
X0106124Y0152060D02*
X0017600Y0152060D01*
X0017600Y0150462D02*
X0107723Y0150462D01*
X0109321Y0148863D02*
X0017600Y0148863D01*
X0017600Y0147265D02*
X0110920Y0147265D01*
X0112518Y0145666D02*
X0017600Y0145666D01*
X0017600Y0144068D02*
X0114117Y0144068D01*
X0115715Y0142469D02*
X0017600Y0142469D01*
X0017600Y0140870D02*
X0117314Y0140870D01*
X0118912Y0139272D02*
X0017600Y0139272D01*
X0017600Y0137673D02*
X0120511Y0137673D01*
X0122109Y0136075D02*
X0017600Y0136075D01*
X0017600Y0134476D02*
X0123708Y0134476D01*
X0125306Y0132878D02*
X0017600Y0132878D01*
X0017600Y0131279D02*
X0126905Y0131279D01*
X0128503Y0129681D02*
X0017600Y0129681D01*
X0017600Y0128082D02*
X0130102Y0128082D01*
X0131700Y0126484D02*
X0017600Y0126484D01*
X0017600Y0124885D02*
X0133299Y0124885D01*
X0134897Y0123287D02*
X0017600Y0123287D01*
X0017600Y0121688D02*
X0136496Y0121688D01*
X0138095Y0120090D02*
X0017600Y0120090D01*
X0017600Y0118491D02*
X0139693Y0118491D01*
X0141292Y0116893D02*
X0017600Y0116893D01*
X0017600Y0115294D02*
X0142890Y0115294D01*
X0144489Y0113696D02*
X0017600Y0113696D01*
X0017600Y0112097D02*
X0146087Y0112097D01*
X0147686Y0110499D02*
X0017600Y0110499D01*
X0017600Y0108900D02*
X0149284Y0108900D01*
X0150883Y0107302D02*
X0017600Y0107302D01*
X0017600Y0105703D02*
X0152481Y0105703D01*
X0154080Y0104105D02*
X0017600Y0104105D01*
X0017600Y0102506D02*
X0155678Y0102506D01*
X0157277Y0100908D02*
X0017600Y0100908D01*
X0017600Y0099309D02*
X0158875Y0099309D01*
X0160474Y0097711D02*
X0017600Y0097711D01*
X0017600Y0096112D02*
X0162072Y0096112D01*
X0163671Y0094514D02*
X0017600Y0094514D01*
X0017600Y0092915D02*
X0165269Y0092915D01*
X0166868Y0091317D02*
X0017600Y0091317D01*
X0017600Y0089718D02*
X0168466Y0089718D01*
X0170065Y0088120D02*
X0017600Y0088120D01*
X0017600Y0086521D02*
X0171663Y0086521D01*
X0173262Y0084923D02*
X0017600Y0084923D01*
X0017600Y0083324D02*
X0174860Y0083324D01*
X0176459Y0081726D02*
X0017600Y0081726D01*
X0017600Y0080127D02*
X0178057Y0080127D01*
X0179656Y0078529D02*
X0017600Y0078529D01*
X0017600Y0076930D02*
X0181254Y0076930D01*
X0182853Y0075332D02*
X0017600Y0075332D01*
X0017600Y0073733D02*
X0043930Y0073733D01*
X0045011Y0074181D02*
X0040775Y0072426D01*
X0036963Y0069879D01*
X0033721Y0066637D01*
X0031174Y0062825D01*
X0029419Y0058589D01*
X0028525Y0054092D01*
X0028525Y0049508D01*
X0029419Y0045011D01*
X0031174Y0040775D01*
X0033721Y0036963D01*
X0036963Y0033721D01*
X0040775Y0031174D01*
X0045011Y0029419D01*
X0049508Y0028525D01*
X0054092Y0028525D01*
X0058589Y0029419D01*
X0062825Y0031174D01*
X0066637Y0033721D01*
X0069879Y0036963D01*
X0072426Y0040775D01*
X0074181Y0045011D01*
X0075075Y0049508D01*
X0075075Y0054092D01*
X0074181Y0058589D01*
X0072426Y0062825D01*
X0069879Y0066637D01*
X0066637Y0069879D01*
X0062825Y0072426D01*
X0058589Y0074181D01*
X0054092Y0075075D01*
X0049508Y0075075D01*
X0045011Y0074181D01*
X0040339Y0072134D02*
X0017600Y0072134D01*
X0017600Y0070536D02*
X0037947Y0070536D01*
X0036022Y0068937D02*
X0017600Y0068937D01*
X0017600Y0067339D02*
X0034423Y0067339D01*
X0033122Y0065740D02*
X0017600Y0065740D01*
X0017600Y0064142D02*
X0032054Y0064142D01*
X0031057Y0062543D02*
X0017600Y0062543D01*
X0017600Y0060945D02*
X0030395Y0060945D01*
X0029733Y0059346D02*
X0017600Y0059346D01*
X0017600Y0057748D02*
X0029252Y0057748D01*
X0028934Y0056149D02*
X0017600Y0056149D01*
X0017600Y0054551D02*
X0028616Y0054551D01*
X0028525Y0052952D02*
X0017600Y0052952D01*
X0017600Y0051354D02*
X0028525Y0051354D01*
X0028525Y0049755D02*
X0017600Y0049755D01*
X0017600Y0048157D02*
X0028794Y0048157D01*
X0029112Y0046558D02*
X0017600Y0046558D01*
X0017600Y0044960D02*
X0029441Y0044960D01*
X0030103Y0043361D02*
X0017600Y0043361D01*
X0017600Y0041763D02*
X0030765Y0041763D01*
X0031582Y0040164D02*
X0017600Y0040164D01*
X0017600Y0038566D02*
X0032650Y0038566D01*
X0033718Y0036967D02*
X0017600Y0036967D01*
X0017600Y0035369D02*
X0035315Y0035369D01*
X0036914Y0033770D02*
X0017600Y0033770D01*
X0017600Y0032172D02*
X0039282Y0032172D01*
X0042226Y0030573D02*
X0017600Y0030573D01*
X0017600Y0028975D02*
X0047247Y0028975D01*
X0056353Y0028975D02*
X0266711Y0028975D01*
X0266706Y0030573D02*
X0061374Y0030573D01*
X0064318Y0032172D02*
X0266701Y0032172D01*
X0266695Y0033770D02*
X0066686Y0033770D01*
X0068285Y0035369D02*
X0266690Y0035369D01*
X0266685Y0036967D02*
X0069882Y0036967D01*
X0070950Y0038566D02*
X0266680Y0038566D01*
X0266674Y0040164D02*
X0230151Y0040164D01*
X0235427Y0041763D02*
X0266669Y0041763D01*
X0266664Y0043361D02*
X0238195Y0043361D01*
X0240375Y0044960D02*
X0266659Y0044960D01*
X0266653Y0046558D02*
X0241974Y0046558D01*
X0243518Y0048157D02*
X0266648Y0048157D01*
X0266643Y0049755D02*
X0244441Y0049755D01*
X0245364Y0051354D02*
X0266638Y0051354D01*
X0266633Y0052952D02*
X0246231Y0052952D01*
X0246659Y0054551D02*
X0266627Y0054551D01*
X0266622Y0056149D02*
X0247088Y0056149D01*
X0247516Y0057748D02*
X0266617Y0057748D01*
X0266612Y0059346D02*
X0247600Y0059346D01*
X0247600Y0060945D02*
X0266606Y0060945D01*
X0266601Y0062543D02*
X0247600Y0062543D01*
X0247438Y0064142D02*
X0266596Y0064142D01*
X0266591Y0065740D02*
X0247010Y0065740D01*
X0246582Y0067339D02*
X0266585Y0067339D01*
X0266580Y0068937D02*
X0246120Y0068937D01*
X0245197Y0070536D02*
X0266575Y0070536D01*
X0266570Y0072134D02*
X0244274Y0072134D01*
X0243283Y0073733D02*
X0266565Y0073733D01*
X0266559Y0075332D02*
X0241684Y0075332D01*
X0240086Y0076930D02*
X0266554Y0076930D01*
X0266549Y0078529D02*
X0238487Y0078529D01*
X0236889Y0080127D02*
X0266544Y0080127D01*
X0266538Y0081726D02*
X0235290Y0081726D01*
X0233692Y0083324D02*
X0266533Y0083324D01*
X0266528Y0084923D02*
X0232093Y0084923D01*
X0230495Y0086521D02*
X0266523Y0086521D01*
X0266517Y0088120D02*
X0228896Y0088120D01*
X0227298Y0089718D02*
X0266512Y0089718D01*
X0266507Y0091317D02*
X0225699Y0091317D01*
X0224100Y0092915D02*
X0266502Y0092915D01*
X0266497Y0094514D02*
X0222502Y0094514D01*
X0220903Y0096112D02*
X0266491Y0096112D01*
X0266486Y0097711D02*
X0219305Y0097711D01*
X0217706Y0099309D02*
X0266481Y0099309D01*
X0266476Y0100908D02*
X0216108Y0100908D01*
X0214509Y0102506D02*
X0266470Y0102506D01*
X0266465Y0104105D02*
X0212911Y0104105D01*
X0211312Y0105703D02*
X0266460Y0105703D01*
X0266455Y0107302D02*
X0209714Y0107302D01*
X0208115Y0108900D02*
X0266449Y0108900D01*
X0266444Y0110499D02*
X0206517Y0110499D01*
X0204918Y0112097D02*
X0266439Y0112097D01*
X0266434Y0113696D02*
X0203320Y0113696D01*
X0201721Y0115294D02*
X0266428Y0115294D01*
X0266423Y0116893D02*
X0200123Y0116893D01*
X0198524Y0118491D02*
X0266418Y0118491D01*
X0266413Y0120090D02*
X0196926Y0120090D01*
X0195327Y0121688D02*
X0266408Y0121688D01*
X0266402Y0123287D02*
X0193729Y0123287D01*
X0192130Y0124885D02*
X0266397Y0124885D01*
X0266392Y0126484D02*
X0190532Y0126484D01*
X0188933Y0128082D02*
X0266387Y0128082D01*
X0266381Y0129681D02*
X0187335Y0129681D01*
X0185736Y0131279D02*
X0266376Y0131279D01*
X0266371Y0132878D02*
X0184138Y0132878D01*
X0182539Y0134476D02*
X0266366Y0134476D01*
X0266360Y0136075D02*
X0180941Y0136075D01*
X0179342Y0137673D02*
X0266355Y0137673D01*
X0266350Y0139272D02*
X0177744Y0139272D01*
X0176145Y0140870D02*
X0266345Y0140870D01*
X0266340Y0142469D02*
X0174547Y0142469D01*
X0172948Y0144068D02*
X0266334Y0144068D01*
X0266329Y0145666D02*
X0171350Y0145666D01*
X0169751Y0147265D02*
X0266324Y0147265D01*
X0266319Y0148863D02*
X0168153Y0148863D01*
X0166554Y0150462D02*
X0266313Y0150462D01*
X0266308Y0152060D02*
X0164956Y0152060D01*
X0163357Y0153659D02*
X0266303Y0153659D01*
X0266298Y0155257D02*
X0161759Y0155257D01*
X0160160Y0156856D02*
X0266292Y0156856D01*
X0266287Y0158454D02*
X0158562Y0158454D01*
X0156963Y0160053D02*
X0266282Y0160053D01*
X0266277Y0161651D02*
X0155364Y0161651D01*
X0153766Y0163250D02*
X0266272Y0163250D01*
X0266266Y0164848D02*
X0152167Y0164848D01*
X0150569Y0166447D02*
X0266261Y0166447D01*
X0266256Y0168045D02*
X0148970Y0168045D01*
X0147372Y0169644D02*
X0266251Y0169644D01*
X0266245Y0171242D02*
X0145773Y0171242D01*
X0144175Y0172841D02*
X0266240Y0172841D01*
X0266235Y0174439D02*
X0142576Y0174439D01*
X0140978Y0176038D02*
X0266230Y0176038D01*
X0266224Y0177636D02*
X0139379Y0177636D01*
X0137781Y0179235D02*
X0266219Y0179235D01*
X0266214Y0180833D02*
X0137600Y0180833D01*
X0137600Y0182432D02*
X0266209Y0182432D01*
X0266203Y0184030D02*
X0137600Y0184030D01*
X0137600Y0185629D02*
X0266198Y0185629D01*
X0266193Y0187227D02*
X0137600Y0187227D01*
X0137600Y0188826D02*
X0266188Y0188826D01*
X0266183Y0190424D02*
X0137600Y0190424D01*
X0137600Y0192023D02*
X0266177Y0192023D01*
X0266172Y0193621D02*
X0137600Y0193621D01*
X0137600Y0195220D02*
X0266167Y0195220D01*
X0266162Y0196818D02*
X0137600Y0196818D01*
X0137600Y0198417D02*
X0266156Y0198417D01*
X0266151Y0200015D02*
X0137600Y0200015D01*
X0137600Y0201614D02*
X0266146Y0201614D01*
X0266141Y0203212D02*
X0137600Y0203212D01*
X0137600Y0204811D02*
X0266135Y0204811D01*
X0266130Y0206409D02*
X0137600Y0206409D01*
X0137600Y0208008D02*
X0266125Y0208008D01*
X0266120Y0209606D02*
X0137600Y0209606D01*
X0137600Y0211205D02*
X0266115Y0211205D01*
X0266109Y0212803D02*
X0137600Y0212803D01*
X0137600Y0214402D02*
X0266104Y0214402D01*
X0266099Y0216001D02*
X0137600Y0216001D01*
X0137600Y0217599D02*
X0266094Y0217599D01*
X0266088Y0219198D02*
X0137600Y0219198D01*
X0137600Y0220796D02*
X0266083Y0220796D01*
X0266078Y0222395D02*
X0137600Y0222395D01*
X0137600Y0223993D02*
X0266073Y0223993D01*
X0266067Y0225592D02*
X0137600Y0225592D01*
X0137600Y0227190D02*
X0266062Y0227190D01*
X0266057Y0228789D02*
X0137600Y0228789D01*
X0137600Y0230387D02*
X0266052Y0230387D01*
X0266047Y0231986D02*
X0137600Y0231986D01*
X0137600Y0233584D02*
X0266041Y0233584D01*
X0266036Y0235183D02*
X0137600Y0235183D01*
X0137600Y0236781D02*
X0266031Y0236781D01*
X0266026Y0238380D02*
X0137600Y0238380D01*
X0137600Y0239978D02*
X0266020Y0239978D01*
X0266015Y0241577D02*
X0137600Y0241577D01*
X0137600Y0243175D02*
X0266010Y0243175D01*
X0266005Y0244774D02*
X0137600Y0244774D01*
X0137600Y0246372D02*
X0222672Y0246372D01*
X0217813Y0247971D02*
X0137600Y0247971D01*
X0137600Y0249569D02*
X0215045Y0249569D01*
X0213017Y0251168D02*
X0137600Y0251168D01*
X0137600Y0252766D02*
X0211418Y0252766D01*
X0209820Y0254365D02*
X0137600Y0254365D01*
X0137600Y0255963D02*
X0208221Y0255963D01*
X0206623Y0257562D02*
X0137600Y0257562D01*
X0137433Y0259160D02*
X0205024Y0259160D01*
X0203426Y0260759D02*
X0137005Y0260759D01*
X0136577Y0262357D02*
X0201827Y0262357D01*
X0200228Y0263956D02*
X0136109Y0263956D01*
X0135186Y0265554D02*
X0198630Y0265554D01*
X0197031Y0267153D02*
X0134263Y0267153D01*
X0133264Y0268751D02*
X0195433Y0268751D01*
X0193834Y0270350D02*
X0131666Y0270350D01*
X0130067Y0271948D02*
X0192236Y0271948D01*
X0190637Y0273547D02*
X0128469Y0273547D01*
X0126870Y0275145D02*
X0189039Y0275145D01*
X0187440Y0276744D02*
X0125272Y0276744D01*
X0123673Y0278342D02*
X0185842Y0278342D01*
X0184243Y0279941D02*
X0122075Y0279941D01*
X0120476Y0281539D02*
X0182645Y0281539D01*
X0181046Y0283138D02*
X0118878Y0283138D01*
X0117279Y0284737D02*
X0179448Y0284737D01*
X0177849Y0286335D02*
X0115681Y0286335D01*
X0114082Y0287934D02*
X0176251Y0287934D01*
X0174652Y0289532D02*
X0112484Y0289532D01*
X0110885Y0291131D02*
X0173054Y0291131D01*
X0204710Y0318305D02*
X0265764Y0318305D01*
X0265769Y0316707D02*
X0206309Y0316707D01*
X0207907Y0315108D02*
X0265774Y0315108D01*
X0265780Y0313510D02*
X0209506Y0313510D01*
X0211104Y0311911D02*
X0265785Y0311911D01*
X0265790Y0310313D02*
X0212703Y0310313D01*
X0214301Y0308714D02*
X0265795Y0308714D01*
X0265801Y0307116D02*
X0215900Y0307116D01*
X0217498Y0305517D02*
X0265806Y0305517D01*
X0265811Y0303919D02*
X0219097Y0303919D01*
X0220695Y0302320D02*
X0265816Y0302320D01*
X0265822Y0300722D02*
X0222294Y0300722D01*
X0223893Y0299123D02*
X0265827Y0299123D01*
X0265832Y0297525D02*
X0225491Y0297525D01*
X0227090Y0295926D02*
X0265837Y0295926D01*
X0265842Y0294328D02*
X0228688Y0294328D01*
X0230287Y0292729D02*
X0265848Y0292729D01*
X0265853Y0291131D02*
X0231885Y0291131D01*
X0233484Y0289532D02*
X0265858Y0289532D01*
X0265863Y0287934D02*
X0235082Y0287934D01*
X0236681Y0286335D02*
X0265869Y0286335D01*
X0265874Y0284737D02*
X0238279Y0284737D01*
X0239878Y0283138D02*
X0265879Y0283138D01*
X0265884Y0281539D02*
X0241476Y0281539D01*
X0243075Y0279941D02*
X0265890Y0279941D01*
X0265895Y0278342D02*
X0244154Y0278342D01*
X0245077Y0276744D02*
X0265900Y0276744D01*
X0265905Y0275145D02*
X0246000Y0275145D01*
X0246526Y0273547D02*
X0265910Y0273547D01*
X0265916Y0271948D02*
X0246954Y0271948D01*
X0247383Y0270350D02*
X0265921Y0270350D01*
X0265926Y0268751D02*
X0247600Y0268751D01*
X0247600Y0267153D02*
X0265931Y0267153D01*
X0265937Y0265554D02*
X0247600Y0265554D01*
X0247572Y0263956D02*
X0265942Y0263956D01*
X0265947Y0262357D02*
X0247143Y0262357D01*
X0246715Y0260759D02*
X0265952Y0260759D01*
X0265958Y0259160D02*
X0246287Y0259160D01*
X0245484Y0257562D02*
X0265963Y0257562D01*
X0265968Y0255963D02*
X0244561Y0255963D01*
X0243638Y0254365D02*
X0265973Y0254365D01*
X0265978Y0252766D02*
X0242182Y0252766D01*
X0240583Y0251168D02*
X0265984Y0251168D01*
X0265989Y0249569D02*
X0238555Y0249569D01*
X0235787Y0247971D02*
X0265994Y0247971D01*
X0265999Y0246372D02*
X0230928Y0246372D01*
X0261800Y0281800D02*
X0261800Y0331800D01*
X0436800Y0331800D01*
X0436800Y0373800D01*
X0554800Y0373800D01*
X0554800Y0238800D01*
X0436800Y0238800D01*
X0436800Y0281800D01*
X0261800Y0281800D01*
X0261800Y0283138D02*
X0554800Y0283138D01*
X0554800Y0284737D02*
X0261800Y0284737D01*
X0261800Y0286335D02*
X0554800Y0286335D01*
X0554800Y0287934D02*
X0261800Y0287934D01*
X0261800Y0289532D02*
X0554800Y0289532D01*
X0554800Y0291131D02*
X0261800Y0291131D01*
X0261800Y0292729D02*
X0554800Y0292729D01*
X0554800Y0294328D02*
X0261800Y0294328D01*
X0261800Y0295926D02*
X0554800Y0295926D01*
X0554800Y0297525D02*
X0261800Y0297525D01*
X0261800Y0299123D02*
X0554800Y0299123D01*
X0554800Y0300722D02*
X0261800Y0300722D01*
X0261800Y0302320D02*
X0554800Y0302320D01*
X0554800Y0303919D02*
X0261800Y0303919D01*
X0261800Y0305517D02*
X0554800Y0305517D01*
X0554800Y0307116D02*
X0261800Y0307116D01*
X0261800Y0308714D02*
X0554800Y0308714D01*
X0554800Y0310313D02*
X0261800Y0310313D01*
X0261800Y0311911D02*
X0554800Y0311911D01*
X0554800Y0313510D02*
X0261800Y0313510D01*
X0261800Y0315108D02*
X0554800Y0315108D01*
X0554800Y0316707D02*
X0261800Y0316707D01*
X0261800Y0318305D02*
X0554800Y0318305D01*
X0554800Y0319904D02*
X0261800Y0319904D01*
X0261800Y0321502D02*
X0554800Y0321502D01*
X0554800Y0323101D02*
X0261800Y0323101D01*
X0261800Y0324699D02*
X0554800Y0324699D01*
X0554800Y0326298D02*
X0261800Y0326298D01*
X0261800Y0327896D02*
X0554800Y0327896D01*
X0554800Y0329495D02*
X0261800Y0329495D01*
X0261800Y0331093D02*
X0554800Y0331093D01*
X0554800Y0332692D02*
X0436800Y0332692D01*
X0436800Y0334290D02*
X0554800Y0334290D01*
X0554800Y0335889D02*
X0436800Y0335889D01*
X0436800Y0337487D02*
X0554800Y0337487D01*
X0554800Y0339086D02*
X0436800Y0339086D01*
X0436800Y0340684D02*
X0554800Y0340684D01*
X0554800Y0342283D02*
X0436800Y0342283D01*
X0436800Y0343881D02*
X0554800Y0343881D01*
X0554800Y0345480D02*
X0436800Y0345480D01*
X0436800Y0347078D02*
X0554800Y0347078D01*
X0554800Y0348677D02*
X0436800Y0348677D01*
X0436800Y0350275D02*
X0554800Y0350275D01*
X0554800Y0351874D02*
X0436800Y0351874D01*
X0436800Y0353472D02*
X0554800Y0353472D01*
X0554800Y0355071D02*
X0436800Y0355071D01*
X0436800Y0356670D02*
X0554800Y0356670D01*
X0554800Y0358268D02*
X0436800Y0358268D01*
X0436800Y0359867D02*
X0554800Y0359867D01*
X0554800Y0361465D02*
X0436800Y0361465D01*
X0436800Y0363064D02*
X0554800Y0363064D01*
X0554800Y0364662D02*
X0436800Y0364662D01*
X0436800Y0366261D02*
X0554800Y0366261D01*
X0554800Y0367859D02*
X0436800Y0367859D01*
X0436800Y0369458D02*
X0554800Y0369458D01*
X0554800Y0371056D02*
X0436800Y0371056D01*
X0436800Y0372655D02*
X0554800Y0372655D01*
X0613200Y0372655D02*
X0643135Y0372655D01*
X0643758Y0371576D02*
X0645676Y0369658D01*
X0647600Y0368547D01*
X0647600Y0321743D01*
X0644822Y0321743D01*
X0641168Y0320230D01*
X0638370Y0317432D01*
X0636857Y0313778D01*
X0636857Y0309822D01*
X0638370Y0306168D01*
X0641168Y0303370D01*
X0644822Y0301857D01*
X0647600Y0301857D01*
X0647600Y0301743D01*
X0644822Y0301743D01*
X0641168Y0300230D01*
X0638370Y0297432D01*
X0636857Y0293778D01*
X0636857Y0289822D01*
X0638370Y0286168D01*
X0641168Y0283370D01*
X0644822Y0281857D01*
X0648778Y0281857D01*
X0650572Y0282600D01*
X0653630Y0282600D01*
X0657011Y0284001D01*
X0661800Y0288789D01*
X0666589Y0284001D01*
X0669970Y0282600D01*
X0673028Y0282600D01*
X0674822Y0281857D01*
X0678778Y0281857D01*
X0682432Y0283370D01*
X0685230Y0286168D01*
X0686743Y0289822D01*
X0686743Y0293778D01*
X0685230Y0297432D01*
X0682432Y0300230D01*
X0678778Y0301743D01*
X0676000Y0301743D01*
X0676000Y0301857D01*
X0678778Y0301857D01*
X0682432Y0303370D01*
X0685230Y0306168D01*
X0686743Y0309822D01*
X0686743Y0313778D01*
X0685230Y0317432D01*
X0682432Y0320230D01*
X0678778Y0321743D01*
X0676000Y0321743D01*
X0676000Y0321857D01*
X0678778Y0321857D01*
X0680572Y0322600D01*
X0768538Y0322600D01*
X0768370Y0322432D01*
X0767627Y0320638D01*
X0764001Y0317011D01*
X0762600Y0313630D01*
X0762600Y0292928D01*
X0761570Y0291898D01*
X0760200Y0288590D01*
X0760200Y0285010D01*
X0761570Y0281702D01*
X0762600Y0280672D01*
X0762600Y0274970D01*
X0764001Y0271589D01*
X0794712Y0240877D01*
X0791800Y0239670D01*
X0788590Y0241000D01*
X0785010Y0241000D01*
X0781800Y0239670D01*
X0778590Y0241000D01*
X0775010Y0241000D01*
X0771800Y0239670D01*
X0768590Y0241000D01*
X0765010Y0241000D01*
X0761702Y0239630D01*
X0759170Y0237098D01*
X0757800Y0233790D01*
X0757800Y0225010D01*
X0759170Y0221702D01*
X0759872Y0221000D01*
X0660611Y0221000D01*
X0651000Y0230611D01*
X0651000Y0230672D01*
X0652030Y0231702D01*
X0653400Y0235010D01*
X0653400Y0238590D01*
X0652030Y0241898D01*
X0651000Y0242928D01*
X0651000Y0252777D01*
X0652432Y0253370D01*
X0655230Y0256168D01*
X0656743Y0259822D01*
X0656743Y0263778D01*
X0655230Y0267432D01*
X0652432Y0270230D01*
X0648778Y0271743D01*
X0644822Y0271743D01*
X0641168Y0270230D01*
X0638370Y0267432D01*
X0637627Y0265638D01*
X0634001Y0262011D01*
X0632600Y0258630D01*
X0632600Y0242928D01*
X0631570Y0241898D01*
X0630200Y0238590D01*
X0630200Y0235010D01*
X0631570Y0231702D01*
X0632600Y0230672D01*
X0632600Y0224970D01*
X0634001Y0221589D01*
X0636589Y0219001D01*
X0638789Y0216800D01*
X0636800Y0216800D01*
X0636800Y0008200D01*
X0613200Y0008200D01*
X0613200Y0400321D01*
X0900400Y0400321D01*
X0900400Y0216800D01*
X0836000Y0216800D01*
X0836000Y0228630D01*
X0835800Y0229113D01*
X0835800Y0233790D01*
X0834430Y0237098D01*
X0831898Y0239630D01*
X0828590Y0241000D01*
X0825010Y0241000D01*
X0821702Y0239630D01*
X0819170Y0237098D01*
X0817800Y0233790D01*
X0817800Y0229113D01*
X0817600Y0228630D01*
X0817600Y0221000D01*
X0814011Y0221000D01*
X0814599Y0221589D01*
X0816000Y0224970D01*
X0816000Y0243630D01*
X0814599Y0247011D01*
X0812011Y0249599D01*
X0781000Y0280611D01*
X0781000Y0280672D01*
X0782030Y0281702D01*
X0783400Y0285010D01*
X0783400Y0288590D01*
X0782030Y0291898D01*
X0781000Y0292928D01*
X0781000Y0307777D01*
X0782432Y0308370D01*
X0784826Y0310764D01*
X0786589Y0309001D01*
X0789970Y0307600D01*
X0802600Y0307600D01*
X0802600Y0292928D01*
X0801570Y0291898D01*
X0800200Y0288590D01*
X0800200Y0285010D01*
X0801570Y0281702D01*
X0804102Y0279170D01*
X0807410Y0277800D01*
X0807789Y0277800D01*
X0811689Y0273901D01*
X0815070Y0272500D01*
X0873235Y0272500D01*
X0873924Y0272102D01*
X0876544Y0271400D01*
X0887056Y0271400D01*
X0889676Y0272102D01*
X0892024Y0273458D01*
X0893942Y0275376D01*
X0895298Y0277724D01*
X0896000Y0280344D01*
X0896000Y0283056D01*
X0895298Y0285676D01*
X0893942Y0288024D01*
X0892024Y0289942D01*
X0889676Y0291298D01*
X0887056Y0292000D01*
X0876544Y0292000D01*
X0873924Y0291298D01*
X0873235Y0290900D01*
X0822443Y0290900D01*
X0822030Y0291898D01*
X0821000Y0292928D01*
X0821000Y0313630D01*
X0819599Y0317011D01*
X0815973Y0320638D01*
X0815230Y0322432D01*
X0812432Y0325230D01*
X0808778Y0326743D01*
X0804822Y0326743D01*
X0803028Y0326000D01*
X0795611Y0326000D01*
X0794011Y0327600D01*
X0863630Y0327600D01*
X0867011Y0329001D01*
X0882011Y0344001D01*
X0884599Y0346589D01*
X0886000Y0349970D01*
X0886000Y0369864D01*
X0886034Y0369951D01*
X0886000Y0371690D01*
X0886000Y0373430D01*
X0885964Y0373516D01*
X0885964Y0373519D01*
X0886198Y0373924D01*
X0886900Y0376544D01*
X0886900Y0387056D01*
X0886198Y0389676D01*
X0884842Y0392024D01*
X0882924Y0393942D01*
X0880576Y0395298D01*
X0877956Y0396000D01*
X0875244Y0396000D01*
X0872624Y0395298D01*
X0870276Y0393942D01*
X0868358Y0392024D01*
X0867002Y0389676D01*
X0866750Y0388735D01*
X0866498Y0389676D01*
X0865142Y0392024D01*
X0863224Y0393942D01*
X0860876Y0395298D01*
X0858256Y0396000D01*
X0855544Y0396000D01*
X0852924Y0395298D01*
X0850576Y0393942D01*
X0848658Y0392024D01*
X0847302Y0389676D01*
X0846600Y0387056D01*
X0846600Y0376544D01*
X0847302Y0373924D01*
X0847600Y0373408D01*
X0847600Y0371746D01*
X0847582Y0369961D01*
X0847600Y0369917D01*
X0847600Y0365611D01*
X0837989Y0356000D01*
X0810572Y0356000D01*
X0808778Y0356743D01*
X0804822Y0356743D01*
X0801168Y0355230D01*
X0798370Y0352432D01*
X0796857Y0348778D01*
X0796857Y0346000D01*
X0786743Y0346000D01*
X0786743Y0348778D01*
X0785230Y0352432D01*
X0782432Y0355230D01*
X0778778Y0356743D01*
X0774822Y0356743D01*
X0771168Y0355230D01*
X0768370Y0352432D01*
X0766857Y0348778D01*
X0766857Y0344822D01*
X0767600Y0343028D01*
X0767600Y0341000D01*
X0680572Y0341000D01*
X0678778Y0341743D01*
X0676000Y0341743D01*
X0676000Y0368489D01*
X0678024Y0369658D01*
X0679942Y0371576D01*
X0681298Y0373924D01*
X0682000Y0376544D01*
X0682000Y0387056D01*
X0681298Y0389676D01*
X0679942Y0392024D01*
X0678024Y0393942D01*
X0675676Y0395298D01*
X0673056Y0396000D01*
X0670344Y0396000D01*
X0667724Y0395298D01*
X0665376Y0393942D01*
X0663458Y0392024D01*
X0662102Y0389676D01*
X0661850Y0388735D01*
X0661598Y0389676D01*
X0660242Y0392024D01*
X0658324Y0393942D01*
X0655976Y0395298D01*
X0653356Y0396000D01*
X0650644Y0396000D01*
X0648024Y0395298D01*
X0645676Y0393942D01*
X0643758Y0392024D01*
X0642402Y0389676D01*
X0641700Y0387056D01*
X0641700Y0376544D01*
X0642402Y0373924D01*
X0643758Y0371576D01*
X0644277Y0371056D02*
X0613200Y0371056D01*
X0613200Y0369458D02*
X0646023Y0369458D01*
X0647600Y0367859D02*
X0613200Y0367859D01*
X0613200Y0366261D02*
X0647600Y0366261D01*
X0647600Y0364662D02*
X0613200Y0364662D01*
X0613200Y0363064D02*
X0647600Y0363064D01*
X0647600Y0361465D02*
X0613200Y0361465D01*
X0613200Y0359867D02*
X0647600Y0359867D01*
X0647600Y0358268D02*
X0613200Y0358268D01*
X0613200Y0356670D02*
X0647600Y0356670D01*
X0647600Y0355071D02*
X0613200Y0355071D01*
X0613200Y0353472D02*
X0647600Y0353472D01*
X0647600Y0351874D02*
X0613200Y0351874D01*
X0613200Y0350275D02*
X0647600Y0350275D01*
X0647600Y0348677D02*
X0613200Y0348677D01*
X0613200Y0347078D02*
X0647600Y0347078D01*
X0647600Y0345480D02*
X0613200Y0345480D01*
X0613200Y0343881D02*
X0647600Y0343881D01*
X0647600Y0342283D02*
X0613200Y0342283D01*
X0613200Y0340684D02*
X0647600Y0340684D01*
X0647600Y0339086D02*
X0613200Y0339086D01*
X0613200Y0337487D02*
X0647600Y0337487D01*
X0647600Y0335889D02*
X0613200Y0335889D01*
X0613200Y0334290D02*
X0647600Y0334290D01*
X0647600Y0332692D02*
X0613200Y0332692D01*
X0613200Y0331093D02*
X0647600Y0331093D01*
X0647600Y0329495D02*
X0613200Y0329495D01*
X0613200Y0327896D02*
X0647600Y0327896D01*
X0647600Y0326298D02*
X0613200Y0326298D01*
X0613200Y0324699D02*
X0647600Y0324699D01*
X0647600Y0323101D02*
X0613200Y0323101D01*
X0613200Y0321502D02*
X0644240Y0321502D01*
X0640842Y0319904D02*
X0613200Y0319904D01*
X0613200Y0318305D02*
X0639243Y0318305D01*
X0638070Y0316707D02*
X0613200Y0316707D01*
X0613200Y0315108D02*
X0637408Y0315108D01*
X0636857Y0313510D02*
X0613200Y0313510D01*
X0613200Y0311911D02*
X0636857Y0311911D01*
X0636857Y0310313D02*
X0613200Y0310313D01*
X0613200Y0308714D02*
X0637316Y0308714D01*
X0637978Y0307116D02*
X0613200Y0307116D01*
X0613200Y0305517D02*
X0639021Y0305517D01*
X0640619Y0303919D02*
X0613200Y0303919D01*
X0613200Y0302320D02*
X0643703Y0302320D01*
X0642356Y0300722D02*
X0613200Y0300722D01*
X0613200Y0299123D02*
X0640061Y0299123D01*
X0638463Y0297525D02*
X0613200Y0297525D01*
X0613200Y0295926D02*
X0637747Y0295926D01*
X0637084Y0294328D02*
X0613200Y0294328D01*
X0613200Y0292729D02*
X0636857Y0292729D01*
X0636857Y0291131D02*
X0613200Y0291131D01*
X0613200Y0289532D02*
X0636977Y0289532D01*
X0637639Y0287934D02*
X0613200Y0287934D01*
X0613200Y0286335D02*
X0638301Y0286335D01*
X0639802Y0284737D02*
X0613200Y0284737D01*
X0613200Y0283138D02*
X0641729Y0283138D01*
X0654929Y0283138D02*
X0668671Y0283138D01*
X0665853Y0284737D02*
X0657747Y0284737D01*
X0659346Y0286335D02*
X0664254Y0286335D01*
X0662656Y0287934D02*
X0660944Y0287934D01*
X0671168Y0270230D02*
X0674822Y0271743D01*
X0678778Y0271743D01*
X0682432Y0270230D01*
X0685230Y0267432D01*
X0685973Y0265638D01*
X0689599Y0262011D01*
X0691000Y0258630D01*
X0691000Y0242928D01*
X0692030Y0241898D01*
X0693400Y0238590D01*
X0693400Y0235010D01*
X0692030Y0231702D01*
X0689498Y0229170D01*
X0686190Y0227800D01*
X0684113Y0227800D01*
X0683630Y0227600D01*
X0679970Y0227600D01*
X0679487Y0227800D01*
X0677410Y0227800D01*
X0674102Y0229170D01*
X0671570Y0231702D01*
X0670200Y0235010D01*
X0670200Y0238590D01*
X0671570Y0241898D01*
X0672600Y0242928D01*
X0672600Y0252777D01*
X0671168Y0253370D01*
X0668370Y0256168D01*
X0666857Y0259822D01*
X0666857Y0263778D01*
X0668370Y0267432D01*
X0671168Y0270230D01*
X0671458Y0270350D02*
X0652142Y0270350D01*
X0653911Y0268751D02*
X0669689Y0268751D01*
X0668255Y0267153D02*
X0655345Y0267153D01*
X0656007Y0265554D02*
X0667593Y0265554D01*
X0666930Y0263956D02*
X0656670Y0263956D01*
X0656743Y0262357D02*
X0666857Y0262357D01*
X0666857Y0260759D02*
X0656743Y0260759D01*
X0656469Y0259160D02*
X0667131Y0259160D01*
X0667793Y0257562D02*
X0655807Y0257562D01*
X0655025Y0255963D02*
X0668575Y0255963D01*
X0670173Y0254365D02*
X0653427Y0254365D01*
X0651000Y0252766D02*
X0672600Y0252766D01*
X0672600Y0251168D02*
X0651000Y0251168D01*
X0651000Y0249569D02*
X0672600Y0249569D01*
X0672600Y0247971D02*
X0651000Y0247971D01*
X0651000Y0246372D02*
X0672600Y0246372D01*
X0672600Y0244774D02*
X0651000Y0244774D01*
X0651000Y0243175D02*
X0672600Y0243175D01*
X0671437Y0241577D02*
X0652163Y0241577D01*
X0652825Y0239978D02*
X0670775Y0239978D01*
X0670200Y0238380D02*
X0653400Y0238380D01*
X0653400Y0236781D02*
X0670200Y0236781D01*
X0670200Y0235183D02*
X0653400Y0235183D01*
X0652809Y0233584D02*
X0670791Y0233584D01*
X0671453Y0231986D02*
X0652147Y0231986D01*
X0651224Y0230387D02*
X0672885Y0230387D01*
X0675023Y0228789D02*
X0652822Y0228789D01*
X0654421Y0227190D02*
X0757800Y0227190D01*
X0757800Y0225592D02*
X0656019Y0225592D01*
X0657618Y0223993D02*
X0758221Y0223993D01*
X0758883Y0222395D02*
X0659216Y0222395D01*
X0645983Y0209606D02*
X0641800Y0209606D01*
X0641800Y0208008D02*
X0647581Y0208008D01*
X0649180Y0206409D02*
X0641800Y0206409D01*
X0641800Y0204811D02*
X0650778Y0204811D01*
X0651589Y0204001D02*
X0654970Y0202600D01*
X0759872Y0202600D01*
X0759170Y0201898D01*
X0757800Y0198590D01*
X0757800Y0189810D01*
X0759170Y0186502D01*
X0761702Y0183970D01*
X0765010Y0182600D01*
X0768590Y0182600D01*
X0771800Y0183930D01*
X0775010Y0182600D01*
X0778590Y0182600D01*
X0781800Y0183930D01*
X0785010Y0182600D01*
X0788590Y0182600D01*
X0791800Y0183930D01*
X0795010Y0182600D01*
X0797600Y0182600D01*
X0797600Y0171000D01*
X0704970Y0171000D01*
X0701589Y0169599D01*
X0691589Y0159599D01*
X0689001Y0157011D01*
X0687600Y0153630D01*
X0687600Y0121168D01*
X0684936Y0121168D01*
X0681800Y0119869D01*
X0678664Y0121168D01*
X0674936Y0121168D01*
X0671493Y0119742D01*
X0668858Y0117107D01*
X0667431Y0113664D01*
X0667431Y0111168D01*
X0664936Y0111168D01*
X0661493Y0109742D01*
X0658858Y0107107D01*
X0657431Y0103664D01*
X0657431Y0099936D01*
X0658858Y0096493D01*
X0661493Y0093858D01*
X0664936Y0092431D01*
X0668664Y0092431D01*
X0671800Y0093731D01*
X0674936Y0092431D01*
X0678651Y0092431D01*
X0679001Y0091589D01*
X0689392Y0081198D01*
X0689393Y0081194D01*
X0691194Y0079393D01*
X0691198Y0079392D01*
X0691589Y0079001D01*
X0694970Y0077600D01*
X0697600Y0077600D01*
X0697600Y0074970D01*
X0699001Y0071589D01*
X0701589Y0069001D01*
X0722700Y0047889D01*
X0722700Y0035365D01*
X0722302Y0034676D01*
X0721600Y0032056D01*
X0721600Y0031000D01*
X0679970Y0031000D01*
X0679487Y0030800D01*
X0678072Y0030800D01*
X0677071Y0029799D01*
X0676589Y0029599D01*
X0674001Y0027011D01*
X0673801Y0026529D01*
X0672800Y0025528D01*
X0672800Y0024113D01*
X0672600Y0023630D01*
X0672600Y0019970D01*
X0672800Y0019487D01*
X0672800Y0018072D01*
X0673801Y0017071D01*
X0674001Y0016589D01*
X0676589Y0014001D01*
X0677071Y0013801D01*
X0678072Y0012800D01*
X0679487Y0012800D01*
X0679970Y0012600D01*
X0728730Y0012600D01*
X0729443Y0012895D01*
X0730544Y0012600D01*
X0733256Y0012600D01*
X0735876Y0013302D01*
X0738224Y0014658D01*
X0740142Y0016576D01*
X0741498Y0018924D01*
X0742200Y0021544D01*
X0742200Y0032056D01*
X0741498Y0034676D01*
X0741100Y0035365D01*
X0741100Y0053530D01*
X0739699Y0056911D01*
X0716000Y0080611D01*
X0716000Y0099530D01*
X0716168Y0099936D01*
X0716168Y0102431D01*
X0717431Y0102431D01*
X0717431Y0099936D01*
X0718858Y0096493D01*
X0721493Y0093858D01*
X0724936Y0092431D01*
X0728664Y0092431D01*
X0731800Y0093731D01*
X0734936Y0092431D01*
X0738664Y0092431D01*
X0741800Y0093731D01*
X0744936Y0092431D01*
X0748664Y0092431D01*
X0751800Y0093731D01*
X0754936Y0092431D01*
X0758664Y0092431D01*
X0762107Y0093858D01*
X0764742Y0096493D01*
X0766168Y0099936D01*
X0766168Y0102431D01*
X0767431Y0102431D01*
X0767431Y0099936D01*
X0768858Y0096493D01*
X0771493Y0093858D01*
X0774570Y0092583D01*
X0774393Y0092406D01*
X0774392Y0092402D01*
X0774001Y0092011D01*
X0772600Y0088630D01*
X0772600Y0084970D01*
X0774001Y0081589D01*
X0774392Y0081198D01*
X0774393Y0081194D01*
X0776194Y0079393D01*
X0776198Y0079392D01*
X0807600Y0047989D01*
X0807600Y0035192D01*
X0807302Y0034676D01*
X0806600Y0032056D01*
X0806600Y0021544D01*
X0807302Y0018924D01*
X0808658Y0016576D01*
X0810576Y0014658D01*
X0812924Y0013302D01*
X0815544Y0012600D01*
X0818256Y0012600D01*
X0820876Y0013302D01*
X0823224Y0014658D01*
X0825142Y0016576D01*
X0826498Y0018924D01*
X0827200Y0021544D01*
X0827200Y0032056D01*
X0827054Y0032600D01*
X0852989Y0032600D01*
X0871589Y0014001D01*
X0874970Y0012600D01*
X0883630Y0012600D01*
X0884113Y0012800D01*
X0885528Y0012800D01*
X0886529Y0013801D01*
X0887011Y0014001D01*
X0889599Y0016589D01*
X0889799Y0017071D01*
X0890800Y0018072D01*
X0890800Y0019487D01*
X0891000Y0019970D01*
X0891000Y0023630D01*
X0890800Y0024113D01*
X0890800Y0025528D01*
X0889799Y0026529D01*
X0889599Y0027011D01*
X0887011Y0029599D01*
X0886529Y0029799D01*
X0885528Y0030800D01*
X0884113Y0030800D01*
X0883630Y0031000D01*
X0880611Y0031000D01*
X0864599Y0047011D01*
X0862011Y0049599D01*
X0858630Y0051000D01*
X0826000Y0051000D01*
X0826000Y0053630D01*
X0824599Y0057011D01*
X0822011Y0059599D01*
X0789208Y0092402D01*
X0789207Y0092406D01*
X0789030Y0092583D01*
X0792107Y0093858D01*
X0794742Y0096493D01*
X0796168Y0099936D01*
X0796168Y0102431D01*
X0797431Y0102431D01*
X0797431Y0099936D01*
X0798858Y0096493D01*
X0801493Y0093858D01*
X0804936Y0092431D01*
X0808664Y0092431D01*
X0811800Y0093731D01*
X0814936Y0092431D01*
X0818664Y0092431D01*
X0821800Y0093731D01*
X0824936Y0092431D01*
X0828664Y0092431D01*
X0832107Y0093858D01*
X0834742Y0096493D01*
X0836168Y0099936D01*
X0836168Y0102431D01*
X0837431Y0102431D01*
X0837431Y0099936D01*
X0838858Y0096493D01*
X0841493Y0093858D01*
X0844936Y0092431D01*
X0848664Y0092431D01*
X0851800Y0093731D01*
X0854936Y0092431D01*
X0858664Y0092431D01*
X0862107Y0093858D01*
X0864742Y0096493D01*
X0866017Y0099572D01*
X0872600Y0092989D01*
X0872600Y0069970D01*
X0872800Y0069487D01*
X0872800Y0068072D01*
X0873801Y0067071D01*
X0874001Y0066589D01*
X0876589Y0064001D01*
X0877071Y0063801D01*
X0878072Y0062800D01*
X0879487Y0062800D01*
X0879970Y0062600D01*
X0883630Y0062600D01*
X0884113Y0062800D01*
X0885528Y0062800D01*
X0886529Y0063801D01*
X0887011Y0064001D01*
X0889599Y0066589D01*
X0889799Y0067071D01*
X0890800Y0068072D01*
X0890800Y0069487D01*
X0891000Y0069970D01*
X0891000Y0098630D01*
X0889599Y0102011D01*
X0874599Y0117011D01*
X0872011Y0119599D01*
X0868630Y0121000D01*
X0859070Y0121000D01*
X0858664Y0121168D01*
X0854936Y0121168D01*
X0851800Y0119869D01*
X0848664Y0121168D01*
X0844936Y0121168D01*
X0841800Y0119869D01*
X0838664Y0121168D01*
X0834936Y0121168D01*
X0831800Y0119869D01*
X0828664Y0121168D01*
X0824936Y0121168D01*
X0821493Y0119742D01*
X0818858Y0117107D01*
X0817431Y0113664D01*
X0817431Y0111168D01*
X0816168Y0111168D01*
X0816168Y0113664D01*
X0814742Y0117107D01*
X0812107Y0119742D01*
X0808664Y0121168D01*
X0804936Y0121168D01*
X0801800Y0119869D01*
X0798664Y0121168D01*
X0794936Y0121168D01*
X0791800Y0119869D01*
X0788664Y0121168D01*
X0784936Y0121168D01*
X0781800Y0119869D01*
X0778664Y0121168D01*
X0774936Y0121168D01*
X0771800Y0119869D01*
X0768664Y0121168D01*
X0764936Y0121168D01*
X0761800Y0119869D01*
X0758664Y0121168D01*
X0754936Y0121168D01*
X0751800Y0119869D01*
X0748664Y0121168D01*
X0744936Y0121168D01*
X0741493Y0119742D01*
X0738858Y0117107D01*
X0737431Y0113664D01*
X0737431Y0111168D01*
X0736168Y0111168D01*
X0736168Y0113664D01*
X0734742Y0117107D01*
X0732107Y0119742D01*
X0728664Y0121168D01*
X0724936Y0121168D01*
X0721800Y0119869D01*
X0718664Y0121168D01*
X0716000Y0121168D01*
X0716000Y0127989D01*
X0720611Y0132600D01*
X0818630Y0132600D01*
X0822011Y0134001D01*
X0827712Y0139701D01*
X0827800Y0139487D01*
X0827800Y0138072D01*
X0828801Y0137071D01*
X0829001Y0136589D01*
X0831589Y0134001D01*
X0832071Y0133801D01*
X0833072Y0132800D01*
X0834487Y0132800D01*
X0834970Y0132600D01*
X0838630Y0132600D01*
X0839113Y0132800D01*
X0840528Y0132800D01*
X0841529Y0133801D01*
X0842011Y0134001D01*
X0844599Y0136589D01*
X0844799Y0137071D01*
X0845800Y0138072D01*
X0845800Y0139487D01*
X0846000Y0139970D01*
X0846000Y0198630D01*
X0844599Y0202011D01*
X0842011Y0204599D01*
X0838630Y0206000D01*
X0834970Y0206000D01*
X0831800Y0204687D01*
X0828899Y0205888D01*
X0829599Y0206589D01*
X0834599Y0211589D01*
X0834687Y0211800D01*
X0896800Y0211800D01*
X0896800Y0008200D01*
X0641800Y0008200D01*
X0641800Y0211800D01*
X0643789Y0211800D01*
X0651589Y0204001D01*
X0653491Y0203212D02*
X0641800Y0203212D01*
X0641800Y0201614D02*
X0759052Y0201614D01*
X0758390Y0200015D02*
X0641800Y0200015D01*
X0641800Y0198417D02*
X0757800Y0198417D01*
X0757800Y0196818D02*
X0641800Y0196818D01*
X0641800Y0195220D02*
X0757800Y0195220D01*
X0757800Y0193621D02*
X0641800Y0193621D01*
X0641800Y0192023D02*
X0757800Y0192023D01*
X0757800Y0190424D02*
X0641800Y0190424D01*
X0641800Y0188826D02*
X0758208Y0188826D01*
X0758870Y0187227D02*
X0641800Y0187227D01*
X0641800Y0185629D02*
X0760043Y0185629D01*
X0761642Y0184030D02*
X0641800Y0184030D01*
X0641800Y0182432D02*
X0797600Y0182432D01*
X0797600Y0180833D02*
X0641800Y0180833D01*
X0641800Y0179235D02*
X0797600Y0179235D01*
X0797600Y0177636D02*
X0641800Y0177636D01*
X0641800Y0176038D02*
X0797600Y0176038D01*
X0797600Y0174439D02*
X0641800Y0174439D01*
X0641800Y0172841D02*
X0797600Y0172841D01*
X0797600Y0171242D02*
X0641800Y0171242D01*
X0641800Y0169644D02*
X0701696Y0169644D01*
X0700034Y0168045D02*
X0641800Y0168045D01*
X0641800Y0166447D02*
X0698436Y0166447D01*
X0696837Y0164848D02*
X0641800Y0164848D01*
X0641800Y0163250D02*
X0695239Y0163250D01*
X0693640Y0161651D02*
X0641800Y0161651D01*
X0641800Y0160053D02*
X0692042Y0160053D01*
X0690443Y0158454D02*
X0641800Y0158454D01*
X0641800Y0156856D02*
X0688936Y0156856D01*
X0688274Y0155257D02*
X0641800Y0155257D01*
X0641800Y0153659D02*
X0687612Y0153659D01*
X0687600Y0152060D02*
X0641800Y0152060D01*
X0641800Y0150462D02*
X0687600Y0150462D01*
X0687600Y0148863D02*
X0641800Y0148863D01*
X0641800Y0147265D02*
X0687600Y0147265D01*
X0687600Y0145666D02*
X0641800Y0145666D01*
X0641800Y0144068D02*
X0687600Y0144068D01*
X0687600Y0142469D02*
X0641800Y0142469D01*
X0641800Y0140870D02*
X0687600Y0140870D01*
X0687600Y0139272D02*
X0641800Y0139272D01*
X0641800Y0137673D02*
X0687600Y0137673D01*
X0687600Y0136075D02*
X0641800Y0136075D01*
X0641800Y0134476D02*
X0687600Y0134476D01*
X0687600Y0132878D02*
X0641800Y0132878D01*
X0641800Y0131279D02*
X0687600Y0131279D01*
X0687600Y0129681D02*
X0641800Y0129681D01*
X0641800Y0128082D02*
X0687600Y0128082D01*
X0687600Y0126484D02*
X0641800Y0126484D01*
X0641800Y0124885D02*
X0687600Y0124885D01*
X0687600Y0123287D02*
X0641800Y0123287D01*
X0641800Y0121688D02*
X0687600Y0121688D01*
X0682332Y0120090D02*
X0681268Y0120090D01*
X0672332Y0120090D02*
X0641800Y0120090D01*
X0641800Y0118491D02*
X0670242Y0118491D01*
X0668769Y0116893D02*
X0641800Y0116893D01*
X0641800Y0115294D02*
X0668107Y0115294D01*
X0667445Y0113696D02*
X0641800Y0113696D01*
X0641800Y0112097D02*
X0667431Y0112097D01*
X0663320Y0110499D02*
X0641800Y0110499D01*
X0641800Y0108900D02*
X0660651Y0108900D01*
X0659053Y0107302D02*
X0641800Y0107302D01*
X0641800Y0105703D02*
X0658276Y0105703D01*
X0657614Y0104105D02*
X0641800Y0104105D01*
X0641800Y0102506D02*
X0657431Y0102506D01*
X0657431Y0100908D02*
X0641800Y0100908D01*
X0641800Y0099309D02*
X0657691Y0099309D01*
X0658353Y0097711D02*
X0641800Y0097711D01*
X0641800Y0096112D02*
X0659239Y0096112D01*
X0660837Y0094514D02*
X0641800Y0094514D01*
X0641800Y0092915D02*
X0663769Y0092915D01*
X0669831Y0092915D02*
X0673769Y0092915D01*
X0679273Y0091317D02*
X0641800Y0091317D01*
X0641800Y0089718D02*
X0680871Y0089718D01*
X0682470Y0088120D02*
X0641800Y0088120D01*
X0641800Y0086521D02*
X0684068Y0086521D01*
X0685667Y0084923D02*
X0641800Y0084923D01*
X0641800Y0083324D02*
X0687265Y0083324D01*
X0688864Y0081726D02*
X0641800Y0081726D01*
X0641800Y0080127D02*
X0677399Y0080127D01*
X0678072Y0080800D02*
X0672800Y0075528D01*
X0672800Y0068072D01*
X0678072Y0062800D01*
X0685528Y0062800D01*
X0690800Y0068072D01*
X0690800Y0075528D01*
X0685528Y0080800D01*
X0678072Y0080800D01*
X0675801Y0078529D02*
X0641800Y0078529D01*
X0641800Y0076930D02*
X0674202Y0076930D01*
X0672800Y0075332D02*
X0641800Y0075332D01*
X0641800Y0073733D02*
X0672800Y0073733D01*
X0672800Y0072134D02*
X0641800Y0072134D01*
X0641800Y0070536D02*
X0672800Y0070536D01*
X0672800Y0068937D02*
X0641800Y0068937D01*
X0641800Y0067339D02*
X0673533Y0067339D01*
X0675132Y0065740D02*
X0641800Y0065740D01*
X0641800Y0064142D02*
X0676730Y0064142D01*
X0686870Y0064142D02*
X0706447Y0064142D01*
X0704849Y0065740D02*
X0688468Y0065740D01*
X0690067Y0067339D02*
X0703250Y0067339D01*
X0701652Y0068937D02*
X0690800Y0068937D01*
X0690800Y0070536D02*
X0700053Y0070536D01*
X0698774Y0072134D02*
X0690800Y0072134D01*
X0690800Y0073733D02*
X0698112Y0073733D01*
X0697600Y0075332D02*
X0690800Y0075332D01*
X0689398Y0076930D02*
X0697600Y0076930D01*
X0692728Y0078529D02*
X0687799Y0078529D01*
X0686201Y0080127D02*
X0690460Y0080127D01*
X0716000Y0081726D02*
X0773944Y0081726D01*
X0773282Y0083324D02*
X0716000Y0083324D01*
X0716000Y0084923D02*
X0772620Y0084923D01*
X0772600Y0086521D02*
X0716000Y0086521D01*
X0716000Y0088120D02*
X0772600Y0088120D01*
X0773051Y0089718D02*
X0716000Y0089718D01*
X0716000Y0091317D02*
X0773713Y0091317D01*
X0773769Y0092915D02*
X0759831Y0092915D01*
X0762763Y0094514D02*
X0770837Y0094514D01*
X0769239Y0096112D02*
X0764361Y0096112D01*
X0765247Y0097711D02*
X0768353Y0097711D01*
X0767691Y0099309D02*
X0765909Y0099309D01*
X0766168Y0100908D02*
X0767431Y0100908D01*
X0753769Y0092915D02*
X0749831Y0092915D01*
X0743769Y0092915D02*
X0739831Y0092915D01*
X0733769Y0092915D02*
X0729831Y0092915D01*
X0723769Y0092915D02*
X0716000Y0092915D01*
X0716000Y0094514D02*
X0720837Y0094514D01*
X0719239Y0096112D02*
X0716000Y0096112D01*
X0716000Y0097711D02*
X0718353Y0097711D01*
X0717691Y0099309D02*
X0716000Y0099309D01*
X0716168Y0100908D02*
X0717431Y0100908D01*
X0736168Y0112097D02*
X0737431Y0112097D01*
X0737445Y0113696D02*
X0736155Y0113696D01*
X0735493Y0115294D02*
X0738107Y0115294D01*
X0738769Y0116893D02*
X0734831Y0116893D01*
X0733358Y0118491D02*
X0740242Y0118491D01*
X0742332Y0120090D02*
X0731268Y0120090D01*
X0722332Y0120090D02*
X0721268Y0120090D01*
X0716000Y0121688D02*
X0896800Y0121688D01*
X0896800Y0120090D02*
X0870827Y0120090D01*
X0873119Y0118491D02*
X0896800Y0118491D01*
X0896800Y0116893D02*
X0874718Y0116893D01*
X0876316Y0115294D02*
X0896800Y0115294D01*
X0896800Y0113696D02*
X0877915Y0113696D01*
X0879513Y0112097D02*
X0896800Y0112097D01*
X0896800Y0110499D02*
X0881112Y0110499D01*
X0882710Y0108900D02*
X0896800Y0108900D01*
X0896800Y0107302D02*
X0884309Y0107302D01*
X0885908Y0105703D02*
X0896800Y0105703D01*
X0896800Y0104105D02*
X0887506Y0104105D01*
X0889105Y0102506D02*
X0896800Y0102506D01*
X0896800Y0100908D02*
X0890057Y0100908D01*
X0890719Y0099309D02*
X0896800Y0099309D01*
X0896800Y0097711D02*
X0891000Y0097711D01*
X0891000Y0096112D02*
X0896800Y0096112D01*
X0896800Y0094514D02*
X0891000Y0094514D01*
X0891000Y0092915D02*
X0896800Y0092915D01*
X0896800Y0091317D02*
X0891000Y0091317D01*
X0891000Y0089718D02*
X0896800Y0089718D01*
X0896800Y0088120D02*
X0891000Y0088120D01*
X0891000Y0086521D02*
X0896800Y0086521D01*
X0896800Y0084923D02*
X0891000Y0084923D01*
X0891000Y0083324D02*
X0896800Y0083324D01*
X0896800Y0081726D02*
X0891000Y0081726D01*
X0891000Y0080127D02*
X0896800Y0080127D01*
X0896800Y0078529D02*
X0891000Y0078529D01*
X0891000Y0076930D02*
X0896800Y0076930D01*
X0896800Y0075332D02*
X0891000Y0075332D01*
X0891000Y0073733D02*
X0896800Y0073733D01*
X0896800Y0072134D02*
X0891000Y0072134D01*
X0891000Y0070536D02*
X0896800Y0070536D01*
X0896800Y0068937D02*
X0890800Y0068937D01*
X0890067Y0067339D02*
X0896800Y0067339D01*
X0896800Y0065740D02*
X0888751Y0065740D01*
X0887153Y0064142D02*
X0896800Y0064142D01*
X0896800Y0062543D02*
X0819067Y0062543D01*
X0820666Y0060945D02*
X0896800Y0060945D01*
X0896800Y0059346D02*
X0822264Y0059346D01*
X0823863Y0057748D02*
X0896800Y0057748D01*
X0896800Y0056149D02*
X0824956Y0056149D01*
X0825619Y0054551D02*
X0896800Y0054551D01*
X0896800Y0052952D02*
X0826000Y0052952D01*
X0826000Y0051354D02*
X0896800Y0051354D01*
X0896800Y0049755D02*
X0861635Y0049755D01*
X0863454Y0048157D02*
X0896800Y0048157D01*
X0896800Y0046558D02*
X0865052Y0046558D01*
X0866651Y0044960D02*
X0896800Y0044960D01*
X0896800Y0043361D02*
X0868249Y0043361D01*
X0869848Y0041763D02*
X0896800Y0041763D01*
X0896800Y0040164D02*
X0871446Y0040164D01*
X0873045Y0038566D02*
X0896800Y0038566D01*
X0896800Y0036967D02*
X0874644Y0036967D01*
X0876242Y0035369D02*
X0896800Y0035369D01*
X0896800Y0033770D02*
X0877841Y0033770D01*
X0879439Y0032172D02*
X0896800Y0032172D01*
X0896800Y0030573D02*
X0885755Y0030573D01*
X0887636Y0028975D02*
X0896800Y0028975D01*
X0896800Y0027376D02*
X0889235Y0027376D01*
X0890550Y0025778D02*
X0896800Y0025778D01*
X0896800Y0024179D02*
X0890800Y0024179D01*
X0891000Y0022581D02*
X0896800Y0022581D01*
X0896800Y0020982D02*
X0891000Y0020982D01*
X0890800Y0019384D02*
X0896800Y0019384D01*
X0896800Y0017785D02*
X0890513Y0017785D01*
X0889197Y0016187D02*
X0896800Y0016187D01*
X0896800Y0014588D02*
X0887599Y0014588D01*
X0885717Y0012990D02*
X0896800Y0012990D01*
X0896800Y0011391D02*
X0641800Y0011391D01*
X0641800Y0009793D02*
X0896800Y0009793D01*
X0874029Y0012990D02*
X0819710Y0012990D01*
X0823103Y0014588D02*
X0871001Y0014588D01*
X0869403Y0016187D02*
X0824753Y0016187D01*
X0825840Y0017785D02*
X0867804Y0017785D01*
X0866206Y0019384D02*
X0826621Y0019384D01*
X0827049Y0020982D02*
X0864607Y0020982D01*
X0863009Y0022581D02*
X0827200Y0022581D01*
X0827200Y0024179D02*
X0861410Y0024179D01*
X0859812Y0025778D02*
X0827200Y0025778D01*
X0827200Y0027376D02*
X0858213Y0027376D01*
X0856615Y0028975D02*
X0827200Y0028975D01*
X0827200Y0030573D02*
X0855016Y0030573D01*
X0853418Y0032172D02*
X0827169Y0032172D01*
X0807600Y0035369D02*
X0741100Y0035369D01*
X0741100Y0036967D02*
X0807600Y0036967D01*
X0807600Y0038566D02*
X0741100Y0038566D01*
X0741100Y0040164D02*
X0807600Y0040164D01*
X0807600Y0041763D02*
X0741100Y0041763D01*
X0741100Y0043361D02*
X0807600Y0043361D01*
X0807600Y0044960D02*
X0741100Y0044960D01*
X0741100Y0046558D02*
X0807600Y0046558D01*
X0807432Y0048157D02*
X0741100Y0048157D01*
X0741100Y0049755D02*
X0805834Y0049755D01*
X0804235Y0051354D02*
X0741100Y0051354D01*
X0741100Y0052952D02*
X0802637Y0052952D01*
X0801038Y0054551D02*
X0740677Y0054551D01*
X0740015Y0056149D02*
X0799440Y0056149D01*
X0797841Y0057748D02*
X0738863Y0057748D01*
X0737264Y0059346D02*
X0796243Y0059346D01*
X0794644Y0060945D02*
X0735666Y0060945D01*
X0734067Y0062543D02*
X0793046Y0062543D01*
X0791447Y0064142D02*
X0732469Y0064142D01*
X0730870Y0065740D02*
X0789849Y0065740D01*
X0788250Y0067339D02*
X0729272Y0067339D01*
X0727673Y0068937D02*
X0786652Y0068937D01*
X0785053Y0070536D02*
X0726075Y0070536D01*
X0724476Y0072134D02*
X0783455Y0072134D01*
X0781856Y0073733D02*
X0722878Y0073733D01*
X0721279Y0075332D02*
X0780258Y0075332D01*
X0778659Y0076930D02*
X0719681Y0076930D01*
X0718082Y0078529D02*
X0777061Y0078529D01*
X0775460Y0080127D02*
X0716484Y0080127D01*
X0708046Y0062543D02*
X0641800Y0062543D01*
X0641800Y0060945D02*
X0709644Y0060945D01*
X0711243Y0059346D02*
X0641800Y0059346D01*
X0641800Y0057748D02*
X0712841Y0057748D01*
X0714440Y0056149D02*
X0641800Y0056149D01*
X0641800Y0054551D02*
X0716038Y0054551D01*
X0717637Y0052952D02*
X0641800Y0052952D01*
X0641800Y0051354D02*
X0719235Y0051354D01*
X0720834Y0049755D02*
X0641800Y0049755D01*
X0641800Y0048157D02*
X0722432Y0048157D01*
X0722700Y0046558D02*
X0641800Y0046558D01*
X0641800Y0044960D02*
X0722700Y0044960D01*
X0722700Y0043361D02*
X0641800Y0043361D01*
X0641800Y0041763D02*
X0722700Y0041763D01*
X0722700Y0040164D02*
X0641800Y0040164D01*
X0641800Y0038566D02*
X0722700Y0038566D01*
X0722700Y0036967D02*
X0641800Y0036967D01*
X0641800Y0035369D02*
X0722700Y0035369D01*
X0722059Y0033770D02*
X0641800Y0033770D01*
X0641800Y0032172D02*
X0721631Y0032172D01*
X0741741Y0033770D02*
X0807059Y0033770D01*
X0806631Y0032172D02*
X0742169Y0032172D01*
X0742200Y0030573D02*
X0806600Y0030573D01*
X0806600Y0028975D02*
X0742200Y0028975D01*
X0742200Y0027376D02*
X0806600Y0027376D01*
X0806600Y0025778D02*
X0742200Y0025778D01*
X0742200Y0024179D02*
X0806600Y0024179D01*
X0806600Y0022581D02*
X0742200Y0022581D01*
X0742049Y0020982D02*
X0806751Y0020982D01*
X0807179Y0019384D02*
X0741621Y0019384D01*
X0740840Y0017785D02*
X0807960Y0017785D01*
X0809047Y0016187D02*
X0739753Y0016187D01*
X0738103Y0014588D02*
X0810697Y0014588D01*
X0814090Y0012990D02*
X0734710Y0012990D01*
X0677882Y0012990D02*
X0641800Y0012990D01*
X0641800Y0014588D02*
X0676001Y0014588D01*
X0674403Y0016187D02*
X0641800Y0016187D01*
X0641800Y0017785D02*
X0673087Y0017785D01*
X0672800Y0019384D02*
X0641800Y0019384D01*
X0641800Y0020982D02*
X0672600Y0020982D01*
X0672600Y0022581D02*
X0641800Y0022581D01*
X0641800Y0024179D02*
X0672800Y0024179D01*
X0673050Y0025778D02*
X0641800Y0025778D01*
X0641800Y0027376D02*
X0674365Y0027376D01*
X0675964Y0028975D02*
X0641800Y0028975D01*
X0641800Y0030573D02*
X0677845Y0030573D01*
X0636800Y0030573D02*
X0613200Y0030573D01*
X0613200Y0028975D02*
X0636800Y0028975D01*
X0636800Y0027376D02*
X0613200Y0027376D01*
X0613200Y0025778D02*
X0636800Y0025778D01*
X0636800Y0024179D02*
X0613200Y0024179D01*
X0613200Y0022581D02*
X0636800Y0022581D01*
X0636800Y0020982D02*
X0613200Y0020982D01*
X0613200Y0019384D02*
X0636800Y0019384D01*
X0636800Y0017785D02*
X0613200Y0017785D01*
X0613200Y0016187D02*
X0636800Y0016187D01*
X0636800Y0014588D02*
X0613200Y0014588D01*
X0613200Y0012990D02*
X0636800Y0012990D01*
X0636800Y0011391D02*
X0613200Y0011391D01*
X0613200Y0009793D02*
X0636800Y0009793D01*
X0636800Y0032172D02*
X0613200Y0032172D01*
X0613200Y0033770D02*
X0636800Y0033770D01*
X0636800Y0035369D02*
X0613200Y0035369D01*
X0613200Y0036967D02*
X0636800Y0036967D01*
X0636800Y0038566D02*
X0613200Y0038566D01*
X0613200Y0040164D02*
X0636800Y0040164D01*
X0636800Y0041763D02*
X0613200Y0041763D01*
X0613200Y0043361D02*
X0636800Y0043361D01*
X0636800Y0044960D02*
X0613200Y0044960D01*
X0613200Y0046558D02*
X0636800Y0046558D01*
X0636800Y0048157D02*
X0613200Y0048157D01*
X0613200Y0049755D02*
X0636800Y0049755D01*
X0636800Y0051354D02*
X0613200Y0051354D01*
X0613200Y0052952D02*
X0636800Y0052952D01*
X0636800Y0054551D02*
X0613200Y0054551D01*
X0613200Y0056149D02*
X0636800Y0056149D01*
X0636800Y0057748D02*
X0613200Y0057748D01*
X0613200Y0059346D02*
X0636800Y0059346D01*
X0636800Y0060945D02*
X0613200Y0060945D01*
X0613200Y0062543D02*
X0636800Y0062543D01*
X0636800Y0064142D02*
X0613200Y0064142D01*
X0613200Y0065740D02*
X0636800Y0065740D01*
X0636800Y0067339D02*
X0613200Y0067339D01*
X0613200Y0068937D02*
X0636800Y0068937D01*
X0636800Y0070536D02*
X0613200Y0070536D01*
X0613200Y0072134D02*
X0636800Y0072134D01*
X0636800Y0073733D02*
X0613200Y0073733D01*
X0613200Y0075332D02*
X0636800Y0075332D01*
X0636800Y0076930D02*
X0613200Y0076930D01*
X0613200Y0078529D02*
X0636800Y0078529D01*
X0636800Y0080127D02*
X0613200Y0080127D01*
X0613200Y0081726D02*
X0636800Y0081726D01*
X0636800Y0083324D02*
X0613200Y0083324D01*
X0613200Y0084923D02*
X0636800Y0084923D01*
X0636800Y0086521D02*
X0613200Y0086521D01*
X0613200Y0088120D02*
X0636800Y0088120D01*
X0636800Y0089718D02*
X0613200Y0089718D01*
X0613200Y0091317D02*
X0636800Y0091317D01*
X0636800Y0092915D02*
X0613200Y0092915D01*
X0613200Y0094514D02*
X0636800Y0094514D01*
X0636800Y0096112D02*
X0613200Y0096112D01*
X0613200Y0097711D02*
X0636800Y0097711D01*
X0636800Y0099309D02*
X0613200Y0099309D01*
X0613200Y0100908D02*
X0636800Y0100908D01*
X0636800Y0102506D02*
X0613200Y0102506D01*
X0613200Y0104105D02*
X0636800Y0104105D01*
X0636800Y0105703D02*
X0613200Y0105703D01*
X0613200Y0107302D02*
X0636800Y0107302D01*
X0636800Y0108900D02*
X0613200Y0108900D01*
X0613200Y0110499D02*
X0636800Y0110499D01*
X0636800Y0112097D02*
X0613200Y0112097D01*
X0613200Y0113696D02*
X0636800Y0113696D01*
X0636800Y0115294D02*
X0613200Y0115294D01*
X0613200Y0116893D02*
X0636800Y0116893D01*
X0636800Y0118491D02*
X0613200Y0118491D01*
X0613200Y0120090D02*
X0636800Y0120090D01*
X0636800Y0121688D02*
X0613200Y0121688D01*
X0613200Y0123287D02*
X0636800Y0123287D01*
X0636800Y0124885D02*
X0613200Y0124885D01*
X0613200Y0126484D02*
X0636800Y0126484D01*
X0636800Y0128082D02*
X0613200Y0128082D01*
X0613200Y0129681D02*
X0636800Y0129681D01*
X0636800Y0131279D02*
X0613200Y0131279D01*
X0613200Y0132878D02*
X0636800Y0132878D01*
X0636800Y0134476D02*
X0613200Y0134476D01*
X0613200Y0136075D02*
X0636800Y0136075D01*
X0636800Y0137673D02*
X0613200Y0137673D01*
X0613200Y0139272D02*
X0636800Y0139272D01*
X0636800Y0140870D02*
X0613200Y0140870D01*
X0613200Y0142469D02*
X0636800Y0142469D01*
X0636800Y0144068D02*
X0613200Y0144068D01*
X0613200Y0145666D02*
X0636800Y0145666D01*
X0636800Y0147265D02*
X0613200Y0147265D01*
X0613200Y0148863D02*
X0636800Y0148863D01*
X0636800Y0150462D02*
X0613200Y0150462D01*
X0613200Y0152060D02*
X0636800Y0152060D01*
X0636800Y0153659D02*
X0613200Y0153659D01*
X0613200Y0155257D02*
X0636800Y0155257D01*
X0636800Y0156856D02*
X0613200Y0156856D01*
X0613200Y0158454D02*
X0636800Y0158454D01*
X0636800Y0160053D02*
X0613200Y0160053D01*
X0613200Y0161651D02*
X0636800Y0161651D01*
X0636800Y0163250D02*
X0613200Y0163250D01*
X0613200Y0164848D02*
X0636800Y0164848D01*
X0636800Y0166447D02*
X0613200Y0166447D01*
X0613200Y0168045D02*
X0636800Y0168045D01*
X0636800Y0169644D02*
X0613200Y0169644D01*
X0613200Y0171242D02*
X0636800Y0171242D01*
X0636800Y0172841D02*
X0613200Y0172841D01*
X0613200Y0174439D02*
X0636800Y0174439D01*
X0636800Y0176038D02*
X0613200Y0176038D01*
X0613200Y0177636D02*
X0636800Y0177636D01*
X0636800Y0179235D02*
X0613200Y0179235D01*
X0613200Y0180833D02*
X0636800Y0180833D01*
X0636800Y0182432D02*
X0613200Y0182432D01*
X0613200Y0184030D02*
X0636800Y0184030D01*
X0636800Y0185629D02*
X0613200Y0185629D01*
X0613200Y0187227D02*
X0636800Y0187227D01*
X0636800Y0188826D02*
X0613200Y0188826D01*
X0613200Y0190424D02*
X0636800Y0190424D01*
X0636800Y0192023D02*
X0613200Y0192023D01*
X0613200Y0193621D02*
X0636800Y0193621D01*
X0636800Y0195220D02*
X0613200Y0195220D01*
X0613200Y0196818D02*
X0636800Y0196818D01*
X0636800Y0198417D02*
X0613200Y0198417D01*
X0613200Y0200015D02*
X0636800Y0200015D01*
X0636800Y0201614D02*
X0613200Y0201614D01*
X0613200Y0203212D02*
X0636800Y0203212D01*
X0636800Y0204811D02*
X0613200Y0204811D01*
X0613200Y0206409D02*
X0636800Y0206409D01*
X0636800Y0208008D02*
X0613200Y0208008D01*
X0613200Y0209606D02*
X0636800Y0209606D01*
X0636800Y0211205D02*
X0613200Y0211205D01*
X0613200Y0212803D02*
X0636800Y0212803D01*
X0636800Y0214402D02*
X0613200Y0214402D01*
X0613200Y0216001D02*
X0636800Y0216001D01*
X0637990Y0217599D02*
X0613200Y0217599D01*
X0613200Y0219198D02*
X0636392Y0219198D01*
X0634793Y0220796D02*
X0613200Y0220796D01*
X0613200Y0222395D02*
X0633667Y0222395D01*
X0633005Y0223993D02*
X0613200Y0223993D01*
X0613200Y0225592D02*
X0632600Y0225592D01*
X0632600Y0227190D02*
X0613200Y0227190D01*
X0613200Y0228789D02*
X0632600Y0228789D01*
X0632600Y0230387D02*
X0613200Y0230387D01*
X0613200Y0231986D02*
X0631453Y0231986D01*
X0630791Y0233584D02*
X0613200Y0233584D01*
X0613200Y0235183D02*
X0630200Y0235183D01*
X0630200Y0236781D02*
X0613200Y0236781D01*
X0613200Y0238380D02*
X0630200Y0238380D01*
X0630775Y0239978D02*
X0613200Y0239978D01*
X0613200Y0241577D02*
X0631437Y0241577D01*
X0632600Y0243175D02*
X0613200Y0243175D01*
X0613200Y0244774D02*
X0632600Y0244774D01*
X0632600Y0246372D02*
X0613200Y0246372D01*
X0613200Y0247971D02*
X0632600Y0247971D01*
X0632600Y0249569D02*
X0613200Y0249569D01*
X0613200Y0251168D02*
X0632600Y0251168D01*
X0632600Y0252766D02*
X0613200Y0252766D01*
X0613200Y0254365D02*
X0632600Y0254365D01*
X0632600Y0255963D02*
X0613200Y0255963D01*
X0613200Y0257562D02*
X0632600Y0257562D01*
X0632820Y0259160D02*
X0613200Y0259160D01*
X0613200Y0260759D02*
X0633482Y0260759D01*
X0634347Y0262357D02*
X0613200Y0262357D01*
X0613200Y0263956D02*
X0635945Y0263956D01*
X0637544Y0265554D02*
X0613200Y0265554D01*
X0613200Y0267153D02*
X0638255Y0267153D01*
X0639689Y0268751D02*
X0613200Y0268751D01*
X0613200Y0270350D02*
X0641458Y0270350D01*
X0613200Y0271948D02*
X0763852Y0271948D01*
X0763189Y0273547D02*
X0613200Y0273547D01*
X0613200Y0275145D02*
X0762600Y0275145D01*
X0762600Y0276744D02*
X0613200Y0276744D01*
X0613200Y0278342D02*
X0762600Y0278342D01*
X0762600Y0279941D02*
X0613200Y0279941D01*
X0613200Y0281539D02*
X0761733Y0281539D01*
X0760975Y0283138D02*
X0681871Y0283138D01*
X0683798Y0284737D02*
X0760313Y0284737D01*
X0760200Y0286335D02*
X0685299Y0286335D01*
X0685961Y0287934D02*
X0760200Y0287934D01*
X0760590Y0289532D02*
X0686623Y0289532D01*
X0686743Y0291131D02*
X0761252Y0291131D01*
X0762401Y0292729D02*
X0686743Y0292729D01*
X0686516Y0294328D02*
X0762600Y0294328D01*
X0762600Y0295926D02*
X0685853Y0295926D01*
X0685137Y0297525D02*
X0762600Y0297525D01*
X0762600Y0299123D02*
X0683539Y0299123D01*
X0681244Y0300722D02*
X0762600Y0300722D01*
X0762600Y0302320D02*
X0679897Y0302320D01*
X0682981Y0303919D02*
X0762600Y0303919D01*
X0762600Y0305517D02*
X0684579Y0305517D01*
X0685622Y0307116D02*
X0762600Y0307116D01*
X0762600Y0308714D02*
X0686284Y0308714D01*
X0686743Y0310313D02*
X0762600Y0310313D01*
X0762600Y0311911D02*
X0686743Y0311911D01*
X0686743Y0313510D02*
X0762600Y0313510D01*
X0763212Y0315108D02*
X0686192Y0315108D01*
X0685530Y0316707D02*
X0763874Y0316707D01*
X0765294Y0318305D02*
X0684357Y0318305D01*
X0682758Y0319904D02*
X0766893Y0319904D01*
X0767985Y0321502D02*
X0679360Y0321502D01*
X0676000Y0342283D02*
X0767600Y0342283D01*
X0767246Y0343881D02*
X0751724Y0343881D01*
X0752011Y0344001D02*
X0754599Y0346589D01*
X0768774Y0360764D01*
X0771168Y0358370D01*
X0774822Y0356857D01*
X0778778Y0356857D01*
X0782432Y0358370D01*
X0785230Y0361168D01*
X0786743Y0364822D01*
X0786743Y0367600D01*
X0788630Y0367600D01*
X0792011Y0369001D01*
X0794599Y0371589D01*
X0800611Y0377600D01*
X0803028Y0377600D01*
X0804822Y0376857D01*
X0808778Y0376857D01*
X0812432Y0378370D01*
X0815230Y0381168D01*
X0816743Y0384822D01*
X0816743Y0388778D01*
X0815230Y0392432D01*
X0812432Y0395230D01*
X0808778Y0396743D01*
X0804822Y0396743D01*
X0803028Y0396000D01*
X0794970Y0396000D01*
X0791589Y0394599D01*
X0786457Y0389468D01*
X0785230Y0392432D01*
X0782432Y0395230D01*
X0778778Y0396743D01*
X0774822Y0396743D01*
X0773028Y0396000D01*
X0764970Y0396000D01*
X0761589Y0394599D01*
X0757989Y0391000D01*
X0745433Y0391000D01*
X0744842Y0392024D01*
X0742924Y0393942D01*
X0740576Y0395298D01*
X0737956Y0396000D01*
X0735244Y0396000D01*
X0732624Y0395298D01*
X0730276Y0393942D01*
X0728358Y0392024D01*
X0727002Y0389676D01*
X0726750Y0388735D01*
X0726498Y0389676D01*
X0725142Y0392024D01*
X0723224Y0393942D01*
X0720876Y0395298D01*
X0718256Y0396000D01*
X0715544Y0396000D01*
X0712924Y0395298D01*
X0710576Y0393942D01*
X0708658Y0392024D01*
X0707302Y0389676D01*
X0706600Y0387056D01*
X0706600Y0376544D01*
X0707302Y0373924D01*
X0707600Y0373408D01*
X0707600Y0371746D01*
X0707582Y0369961D01*
X0707600Y0369917D01*
X0707600Y0359970D01*
X0709001Y0356589D01*
X0711589Y0354001D01*
X0721589Y0344001D01*
X0724970Y0342600D01*
X0748630Y0342600D01*
X0752011Y0344001D01*
X0753491Y0345480D02*
X0766857Y0345480D01*
X0766857Y0347078D02*
X0755089Y0347078D01*
X0756688Y0348677D02*
X0766857Y0348677D01*
X0767477Y0350275D02*
X0758286Y0350275D01*
X0759885Y0351874D02*
X0768139Y0351874D01*
X0769411Y0353472D02*
X0761483Y0353472D01*
X0763082Y0355071D02*
X0771009Y0355071D01*
X0771415Y0358268D02*
X0766279Y0358268D01*
X0767877Y0359867D02*
X0769672Y0359867D01*
X0774644Y0356670D02*
X0764680Y0356670D01*
X0778956Y0356670D02*
X0804644Y0356670D01*
X0804822Y0356857D02*
X0808778Y0356857D01*
X0812432Y0358370D01*
X0815230Y0361168D01*
X0816743Y0364822D01*
X0816743Y0368778D01*
X0815230Y0372432D01*
X0812432Y0375230D01*
X0808778Y0376743D01*
X0804822Y0376743D01*
X0801168Y0375230D01*
X0798370Y0372432D01*
X0796857Y0368778D01*
X0796857Y0364822D01*
X0798370Y0361168D01*
X0801168Y0358370D01*
X0804822Y0356857D01*
X0801415Y0358268D02*
X0782185Y0358268D01*
X0783928Y0359867D02*
X0799672Y0359867D01*
X0798247Y0361465D02*
X0785353Y0361465D01*
X0786015Y0363064D02*
X0797585Y0363064D01*
X0796923Y0364662D02*
X0786677Y0364662D01*
X0786743Y0366261D02*
X0796857Y0366261D01*
X0796857Y0367859D02*
X0789255Y0367859D01*
X0792468Y0369458D02*
X0797138Y0369458D01*
X0797800Y0371056D02*
X0794067Y0371056D01*
X0795665Y0372655D02*
X0798593Y0372655D01*
X0797264Y0374253D02*
X0800191Y0374253D01*
X0798862Y0375852D02*
X0802670Y0375852D01*
X0803389Y0377450D02*
X0800461Y0377450D01*
X0810211Y0377450D02*
X0846600Y0377450D01*
X0846600Y0379049D02*
X0813111Y0379049D01*
X0814709Y0380647D02*
X0846600Y0380647D01*
X0846600Y0382246D02*
X0815676Y0382246D01*
X0816338Y0383844D02*
X0846600Y0383844D01*
X0846600Y0385443D02*
X0816743Y0385443D01*
X0816743Y0387041D02*
X0846600Y0387041D01*
X0847024Y0388640D02*
X0816743Y0388640D01*
X0816138Y0390238D02*
X0847627Y0390238D01*
X0848550Y0391837D02*
X0815476Y0391837D01*
X0814227Y0393435D02*
X0850069Y0393435D01*
X0852467Y0395034D02*
X0812628Y0395034D01*
X0809046Y0396632D02*
X0900400Y0396632D01*
X0900400Y0395034D02*
X0881033Y0395034D01*
X0883431Y0393435D02*
X0900400Y0393435D01*
X0900400Y0391837D02*
X0884950Y0391837D01*
X0885873Y0390238D02*
X0900400Y0390238D01*
X0900400Y0388640D02*
X0886476Y0388640D01*
X0886900Y0387041D02*
X0900400Y0387041D01*
X0900400Y0385443D02*
X0886900Y0385443D01*
X0886900Y0383844D02*
X0900400Y0383844D01*
X0900400Y0382246D02*
X0886900Y0382246D01*
X0886900Y0380647D02*
X0900400Y0380647D01*
X0900400Y0379049D02*
X0886900Y0379049D01*
X0886900Y0377450D02*
X0900400Y0377450D01*
X0900400Y0375852D02*
X0886714Y0375852D01*
X0886286Y0374253D02*
X0900400Y0374253D01*
X0900400Y0372655D02*
X0886000Y0372655D01*
X0886012Y0371056D02*
X0900400Y0371056D01*
X0900400Y0369458D02*
X0886000Y0369458D01*
X0886000Y0367859D02*
X0900400Y0367859D01*
X0900400Y0366261D02*
X0886000Y0366261D01*
X0886000Y0364662D02*
X0900400Y0364662D01*
X0900400Y0363064D02*
X0886000Y0363064D01*
X0886000Y0361465D02*
X0900400Y0361465D01*
X0900400Y0359867D02*
X0886000Y0359867D01*
X0886000Y0358268D02*
X0900400Y0358268D01*
X0900400Y0356670D02*
X0886000Y0356670D01*
X0886000Y0355071D02*
X0900400Y0355071D01*
X0900400Y0353472D02*
X0886000Y0353472D01*
X0886000Y0351874D02*
X0900400Y0351874D01*
X0900400Y0350275D02*
X0886000Y0350275D01*
X0885464Y0348677D02*
X0900400Y0348677D01*
X0900400Y0347078D02*
X0884802Y0347078D01*
X0883491Y0345480D02*
X0900400Y0345480D01*
X0900400Y0343881D02*
X0881892Y0343881D01*
X0880294Y0342283D02*
X0900400Y0342283D01*
X0900400Y0340684D02*
X0878695Y0340684D01*
X0877097Y0339086D02*
X0900400Y0339086D01*
X0900400Y0337487D02*
X0875498Y0337487D01*
X0873900Y0335889D02*
X0900400Y0335889D01*
X0900400Y0334290D02*
X0872301Y0334290D01*
X0870703Y0332692D02*
X0900400Y0332692D01*
X0900400Y0331093D02*
X0869104Y0331093D01*
X0867506Y0329495D02*
X0900400Y0329495D01*
X0900400Y0327896D02*
X0864345Y0327896D01*
X0900400Y0326298D02*
X0809853Y0326298D01*
X0812963Y0324699D02*
X0900400Y0324699D01*
X0900400Y0323101D02*
X0814561Y0323101D01*
X0815615Y0321502D02*
X0900400Y0321502D01*
X0900400Y0319904D02*
X0816707Y0319904D01*
X0818306Y0318305D02*
X0900400Y0318305D01*
X0900400Y0316707D02*
X0819726Y0316707D01*
X0820388Y0315108D02*
X0900400Y0315108D01*
X0900400Y0313510D02*
X0821000Y0313510D01*
X0821000Y0311911D02*
X0900400Y0311911D01*
X0900400Y0310313D02*
X0821000Y0310313D01*
X0821000Y0308714D02*
X0900400Y0308714D01*
X0900400Y0307116D02*
X0821000Y0307116D01*
X0821000Y0305517D02*
X0900400Y0305517D01*
X0900400Y0303919D02*
X0821000Y0303919D01*
X0821000Y0302320D02*
X0900400Y0302320D01*
X0900400Y0300722D02*
X0821000Y0300722D01*
X0821000Y0299123D02*
X0900400Y0299123D01*
X0900400Y0297525D02*
X0821000Y0297525D01*
X0821000Y0295926D02*
X0900400Y0295926D01*
X0900400Y0294328D02*
X0821000Y0294328D01*
X0821199Y0292729D02*
X0900400Y0292729D01*
X0900400Y0291131D02*
X0889966Y0291131D01*
X0892434Y0289532D02*
X0900400Y0289532D01*
X0900400Y0287934D02*
X0893994Y0287934D01*
X0894917Y0286335D02*
X0900400Y0286335D01*
X0900400Y0284737D02*
X0895550Y0284737D01*
X0895978Y0283138D02*
X0900400Y0283138D01*
X0900400Y0281539D02*
X0896000Y0281539D01*
X0895892Y0279941D02*
X0900400Y0279941D01*
X0900400Y0278342D02*
X0895464Y0278342D01*
X0894732Y0276744D02*
X0900400Y0276744D01*
X0900400Y0275145D02*
X0893712Y0275145D01*
X0892113Y0273547D02*
X0900400Y0273547D01*
X0900400Y0271948D02*
X0889103Y0271948D01*
X0874497Y0271948D02*
X0789662Y0271948D01*
X0791261Y0270350D02*
X0900400Y0270350D01*
X0900400Y0268751D02*
X0792859Y0268751D01*
X0794458Y0267153D02*
X0900400Y0267153D01*
X0900400Y0265554D02*
X0796056Y0265554D01*
X0797655Y0263956D02*
X0900400Y0263956D01*
X0900400Y0262357D02*
X0799253Y0262357D01*
X0800852Y0260759D02*
X0900400Y0260759D01*
X0900400Y0259160D02*
X0802450Y0259160D01*
X0804049Y0257562D02*
X0900400Y0257562D01*
X0900400Y0255963D02*
X0805647Y0255963D01*
X0807246Y0254365D02*
X0900400Y0254365D01*
X0900400Y0252766D02*
X0808844Y0252766D01*
X0810443Y0251168D02*
X0900400Y0251168D01*
X0900400Y0249569D02*
X0812041Y0249569D01*
X0813640Y0247971D02*
X0900400Y0247971D01*
X0900400Y0246372D02*
X0814864Y0246372D01*
X0815526Y0244774D02*
X0900400Y0244774D01*
X0900400Y0243175D02*
X0816000Y0243175D01*
X0816000Y0241577D02*
X0900400Y0241577D01*
X0900400Y0239978D02*
X0831057Y0239978D01*
X0833148Y0238380D02*
X0900400Y0238380D01*
X0900400Y0236781D02*
X0834561Y0236781D01*
X0835223Y0235183D02*
X0900400Y0235183D01*
X0900400Y0233584D02*
X0835800Y0233584D01*
X0835800Y0231986D02*
X0900400Y0231986D01*
X0900400Y0230387D02*
X0835800Y0230387D01*
X0835934Y0228789D02*
X0900400Y0228789D01*
X0900400Y0227190D02*
X0836000Y0227190D01*
X0836000Y0225592D02*
X0900400Y0225592D01*
X0900400Y0223993D02*
X0836000Y0223993D01*
X0836000Y0222395D02*
X0900400Y0222395D01*
X0900400Y0220796D02*
X0836000Y0220796D01*
X0836000Y0219198D02*
X0900400Y0219198D01*
X0900400Y0217599D02*
X0836000Y0217599D01*
X0834216Y0211205D02*
X0896800Y0211205D01*
X0896800Y0209606D02*
X0832617Y0209606D01*
X0831019Y0208008D02*
X0896800Y0208008D01*
X0896800Y0206409D02*
X0829420Y0206409D01*
X0829599Y0206589D02*
X0829599Y0206589D01*
X0831501Y0204811D02*
X0832099Y0204811D01*
X0841501Y0204811D02*
X0896800Y0204811D01*
X0896800Y0203212D02*
X0843398Y0203212D01*
X0844764Y0201614D02*
X0896800Y0201614D01*
X0896800Y0200015D02*
X0845426Y0200015D01*
X0846000Y0198417D02*
X0896800Y0198417D01*
X0896800Y0196818D02*
X0846000Y0196818D01*
X0846000Y0195220D02*
X0896800Y0195220D01*
X0896800Y0193621D02*
X0846000Y0193621D01*
X0846000Y0192023D02*
X0896800Y0192023D01*
X0896800Y0190424D02*
X0846000Y0190424D01*
X0846000Y0188826D02*
X0896800Y0188826D01*
X0896800Y0187227D02*
X0846000Y0187227D01*
X0846000Y0185629D02*
X0896800Y0185629D01*
X0896800Y0184030D02*
X0846000Y0184030D01*
X0846000Y0182432D02*
X0896800Y0182432D01*
X0896800Y0180833D02*
X0846000Y0180833D01*
X0846000Y0179235D02*
X0896800Y0179235D01*
X0896800Y0177636D02*
X0846000Y0177636D01*
X0846000Y0176038D02*
X0896800Y0176038D01*
X0896800Y0174439D02*
X0846000Y0174439D01*
X0846000Y0172841D02*
X0896800Y0172841D01*
X0896800Y0171242D02*
X0846000Y0171242D01*
X0846000Y0169644D02*
X0896800Y0169644D01*
X0896800Y0168045D02*
X0846000Y0168045D01*
X0846000Y0166447D02*
X0896800Y0166447D01*
X0896800Y0164848D02*
X0846000Y0164848D01*
X0846000Y0163250D02*
X0896800Y0163250D01*
X0896800Y0161651D02*
X0846000Y0161651D01*
X0846000Y0160053D02*
X0896800Y0160053D01*
X0896800Y0158454D02*
X0846000Y0158454D01*
X0846000Y0156856D02*
X0896800Y0156856D01*
X0896800Y0155257D02*
X0846000Y0155257D01*
X0846000Y0153659D02*
X0896800Y0153659D01*
X0896800Y0152060D02*
X0846000Y0152060D01*
X0846000Y0150462D02*
X0896800Y0150462D01*
X0896800Y0148863D02*
X0846000Y0148863D01*
X0846000Y0147265D02*
X0896800Y0147265D01*
X0896800Y0145666D02*
X0846000Y0145666D01*
X0846000Y0144068D02*
X0896800Y0144068D01*
X0896800Y0142469D02*
X0846000Y0142469D01*
X0846000Y0140870D02*
X0896800Y0140870D01*
X0896800Y0139272D02*
X0845800Y0139272D01*
X0845401Y0137673D02*
X0896800Y0137673D01*
X0896800Y0136075D02*
X0844086Y0136075D01*
X0842487Y0134476D02*
X0896800Y0134476D01*
X0896800Y0132878D02*
X0840606Y0132878D01*
X0832994Y0132878D02*
X0819301Y0132878D01*
X0822487Y0134476D02*
X0831113Y0134476D01*
X0829514Y0136075D02*
X0824086Y0136075D01*
X0825684Y0137673D02*
X0828199Y0137673D01*
X0827800Y0139272D02*
X0827283Y0139272D01*
X0831268Y0120090D02*
X0832332Y0120090D01*
X0841268Y0120090D02*
X0842332Y0120090D01*
X0851268Y0120090D02*
X0852332Y0120090D01*
X0837431Y0100908D02*
X0836168Y0100908D01*
X0835909Y0099309D02*
X0837691Y0099309D01*
X0838353Y0097711D02*
X0835247Y0097711D01*
X0834361Y0096112D02*
X0839239Y0096112D01*
X0840837Y0094514D02*
X0832763Y0094514D01*
X0829831Y0092915D02*
X0843769Y0092915D01*
X0849831Y0092915D02*
X0853769Y0092915D01*
X0859831Y0092915D02*
X0872600Y0092915D01*
X0872600Y0091317D02*
X0790294Y0091317D01*
X0789831Y0092915D02*
X0803769Y0092915D01*
X0800837Y0094514D02*
X0792763Y0094514D01*
X0794361Y0096112D02*
X0799239Y0096112D01*
X0798353Y0097711D02*
X0795247Y0097711D01*
X0795909Y0099309D02*
X0797691Y0099309D01*
X0797431Y0100908D02*
X0796168Y0100908D01*
X0791893Y0089718D02*
X0872600Y0089718D01*
X0872600Y0088120D02*
X0793491Y0088120D01*
X0795090Y0086521D02*
X0872600Y0086521D01*
X0872600Y0084923D02*
X0796688Y0084923D01*
X0798287Y0083324D02*
X0872600Y0083324D01*
X0872600Y0081726D02*
X0799885Y0081726D01*
X0801484Y0080127D02*
X0872600Y0080127D01*
X0872600Y0078529D02*
X0803082Y0078529D01*
X0804681Y0076930D02*
X0872600Y0076930D01*
X0872600Y0075332D02*
X0806279Y0075332D01*
X0807878Y0073733D02*
X0872600Y0073733D01*
X0872600Y0072134D02*
X0809476Y0072134D01*
X0811075Y0070536D02*
X0872600Y0070536D01*
X0872800Y0068937D02*
X0812673Y0068937D01*
X0814272Y0067339D02*
X0873533Y0067339D01*
X0874849Y0065740D02*
X0815870Y0065740D01*
X0817469Y0064142D02*
X0876447Y0064142D01*
X0871076Y0094514D02*
X0862763Y0094514D01*
X0864361Y0096112D02*
X0869477Y0096112D01*
X0867879Y0097711D02*
X0865247Y0097711D01*
X0865909Y0099309D02*
X0866280Y0099309D01*
X0896800Y0123287D02*
X0716000Y0123287D01*
X0716000Y0124885D02*
X0896800Y0124885D01*
X0896800Y0126484D02*
X0716000Y0126484D01*
X0716093Y0128082D02*
X0896800Y0128082D01*
X0896800Y0129681D02*
X0717692Y0129681D01*
X0719290Y0131279D02*
X0896800Y0131279D01*
X0822332Y0120090D02*
X0811268Y0120090D01*
X0813358Y0118491D02*
X0820242Y0118491D01*
X0818769Y0116893D02*
X0814831Y0116893D01*
X0815493Y0115294D02*
X0818107Y0115294D01*
X0817445Y0113696D02*
X0816155Y0113696D01*
X0816168Y0112097D02*
X0817431Y0112097D01*
X0802332Y0120090D02*
X0801268Y0120090D01*
X0792332Y0120090D02*
X0791268Y0120090D01*
X0782332Y0120090D02*
X0781268Y0120090D01*
X0772332Y0120090D02*
X0771268Y0120090D01*
X0762332Y0120090D02*
X0761268Y0120090D01*
X0752332Y0120090D02*
X0751268Y0120090D01*
X0697431Y0102431D02*
X0697431Y0099936D01*
X0697600Y0099530D01*
X0697600Y0099011D01*
X0696168Y0100442D01*
X0696168Y0102431D01*
X0697431Y0102431D01*
X0697431Y0100908D02*
X0696168Y0100908D01*
X0697302Y0099309D02*
X0697600Y0099309D01*
X0809831Y0092915D02*
X0813769Y0092915D01*
X0819831Y0092915D02*
X0823769Y0092915D01*
X0644384Y0211205D02*
X0641800Y0211205D01*
X0688577Y0228789D02*
X0757800Y0228789D01*
X0757800Y0230387D02*
X0690715Y0230387D01*
X0692147Y0231986D02*
X0757800Y0231986D01*
X0757800Y0233584D02*
X0692809Y0233584D01*
X0693400Y0235183D02*
X0758377Y0235183D01*
X0759039Y0236781D02*
X0693400Y0236781D01*
X0693400Y0238380D02*
X0760452Y0238380D01*
X0762543Y0239978D02*
X0692825Y0239978D01*
X0692163Y0241577D02*
X0794013Y0241577D01*
X0792543Y0239978D02*
X0791057Y0239978D01*
X0792414Y0243175D02*
X0691000Y0243175D01*
X0691000Y0244774D02*
X0790816Y0244774D01*
X0789217Y0246372D02*
X0691000Y0246372D01*
X0691000Y0247971D02*
X0787618Y0247971D01*
X0786020Y0249569D02*
X0691000Y0249569D01*
X0691000Y0251168D02*
X0784421Y0251168D01*
X0782823Y0252766D02*
X0691000Y0252766D01*
X0691000Y0254365D02*
X0781224Y0254365D01*
X0779626Y0255963D02*
X0691000Y0255963D01*
X0691000Y0257562D02*
X0778027Y0257562D01*
X0776429Y0259160D02*
X0690780Y0259160D01*
X0690118Y0260759D02*
X0774830Y0260759D01*
X0773232Y0262357D02*
X0689253Y0262357D01*
X0687655Y0263956D02*
X0771633Y0263956D01*
X0770035Y0265554D02*
X0686056Y0265554D01*
X0685345Y0267153D02*
X0768436Y0267153D01*
X0766838Y0268751D02*
X0683911Y0268751D01*
X0682142Y0270350D02*
X0765239Y0270350D01*
X0781670Y0279941D02*
X0803331Y0279941D01*
X0801733Y0281539D02*
X0781867Y0281539D01*
X0782625Y0283138D02*
X0800975Y0283138D01*
X0800313Y0284737D02*
X0783287Y0284737D01*
X0783400Y0286335D02*
X0800200Y0286335D01*
X0800200Y0287934D02*
X0783400Y0287934D01*
X0783010Y0289532D02*
X0800590Y0289532D01*
X0801252Y0291131D02*
X0782348Y0291131D01*
X0781199Y0292729D02*
X0802401Y0292729D01*
X0802600Y0294328D02*
X0781000Y0294328D01*
X0781000Y0295926D02*
X0802600Y0295926D01*
X0802600Y0297525D02*
X0781000Y0297525D01*
X0781000Y0299123D02*
X0802600Y0299123D01*
X0802600Y0300722D02*
X0781000Y0300722D01*
X0781000Y0302320D02*
X0802600Y0302320D01*
X0802600Y0303919D02*
X0781000Y0303919D01*
X0781000Y0305517D02*
X0802600Y0305517D01*
X0802600Y0307116D02*
X0781000Y0307116D01*
X0782776Y0308714D02*
X0787280Y0308714D01*
X0785277Y0310313D02*
X0784375Y0310313D01*
X0795313Y0326298D02*
X0803747Y0326298D01*
X0796857Y0347078D02*
X0786743Y0347078D01*
X0786743Y0348677D02*
X0796857Y0348677D01*
X0797477Y0350275D02*
X0786123Y0350275D01*
X0785461Y0351874D02*
X0798139Y0351874D01*
X0799411Y0353472D02*
X0784189Y0353472D01*
X0782591Y0355071D02*
X0801009Y0355071D01*
X0808956Y0356670D02*
X0838659Y0356670D01*
X0840257Y0358268D02*
X0812185Y0358268D01*
X0813928Y0359867D02*
X0841856Y0359867D01*
X0843454Y0361465D02*
X0815353Y0361465D01*
X0816015Y0363064D02*
X0845053Y0363064D01*
X0846651Y0364662D02*
X0816677Y0364662D01*
X0816743Y0366261D02*
X0847600Y0366261D01*
X0847600Y0367859D02*
X0816743Y0367859D01*
X0816462Y0369458D02*
X0847600Y0369458D01*
X0847593Y0371056D02*
X0815800Y0371056D01*
X0815007Y0372655D02*
X0847600Y0372655D01*
X0847214Y0374253D02*
X0813409Y0374253D01*
X0810930Y0375852D02*
X0846786Y0375852D01*
X0866173Y0390238D02*
X0867327Y0390238D01*
X0868250Y0391837D02*
X0865250Y0391837D01*
X0863731Y0393435D02*
X0869769Y0393435D01*
X0872167Y0395034D02*
X0861333Y0395034D01*
X0900400Y0398231D02*
X0613200Y0398231D01*
X0613200Y0399829D02*
X0900400Y0399829D01*
X0804554Y0396632D02*
X0779046Y0396632D01*
X0782628Y0395034D02*
X0792637Y0395034D01*
X0790425Y0393435D02*
X0784227Y0393435D01*
X0785476Y0391837D02*
X0788826Y0391837D01*
X0787227Y0390238D02*
X0786138Y0390238D01*
X0774554Y0396632D02*
X0613200Y0396632D01*
X0613200Y0395034D02*
X0647567Y0395034D01*
X0645169Y0393435D02*
X0613200Y0393435D01*
X0613200Y0391837D02*
X0643650Y0391837D01*
X0642727Y0390238D02*
X0613200Y0390238D01*
X0613200Y0388640D02*
X0642124Y0388640D01*
X0641700Y0387041D02*
X0613200Y0387041D01*
X0613200Y0385443D02*
X0641700Y0385443D01*
X0641700Y0383844D02*
X0613200Y0383844D01*
X0613200Y0382246D02*
X0641700Y0382246D01*
X0641700Y0380647D02*
X0613200Y0380647D01*
X0613200Y0379049D02*
X0641700Y0379049D01*
X0641700Y0377450D02*
X0613200Y0377450D01*
X0613200Y0375852D02*
X0641886Y0375852D01*
X0642314Y0374253D02*
X0613200Y0374253D01*
X0656433Y0395034D02*
X0667267Y0395034D01*
X0664869Y0393435D02*
X0658831Y0393435D01*
X0660350Y0391837D02*
X0663350Y0391837D01*
X0662427Y0390238D02*
X0661273Y0390238D01*
X0676133Y0395034D02*
X0712467Y0395034D01*
X0710069Y0393435D02*
X0678531Y0393435D01*
X0680050Y0391837D02*
X0708550Y0391837D01*
X0707627Y0390238D02*
X0680973Y0390238D01*
X0681576Y0388640D02*
X0707024Y0388640D01*
X0706600Y0387041D02*
X0682000Y0387041D01*
X0682000Y0385443D02*
X0706600Y0385443D01*
X0706600Y0383844D02*
X0682000Y0383844D01*
X0682000Y0382246D02*
X0706600Y0382246D01*
X0706600Y0380647D02*
X0682000Y0380647D01*
X0682000Y0379049D02*
X0706600Y0379049D01*
X0706600Y0377450D02*
X0682000Y0377450D01*
X0681814Y0375852D02*
X0706786Y0375852D01*
X0707214Y0374253D02*
X0681386Y0374253D01*
X0680565Y0372655D02*
X0707600Y0372655D01*
X0707593Y0371056D02*
X0679423Y0371056D01*
X0677677Y0369458D02*
X0707600Y0369458D01*
X0707600Y0367859D02*
X0676000Y0367859D01*
X0676000Y0366261D02*
X0707600Y0366261D01*
X0707600Y0364662D02*
X0676000Y0364662D01*
X0676000Y0363064D02*
X0707600Y0363064D01*
X0707600Y0361465D02*
X0676000Y0361465D01*
X0676000Y0359867D02*
X0707643Y0359867D01*
X0708305Y0358268D02*
X0676000Y0358268D01*
X0676000Y0356670D02*
X0708967Y0356670D01*
X0710518Y0355071D02*
X0676000Y0355071D01*
X0676000Y0353472D02*
X0712117Y0353472D01*
X0713715Y0351874D02*
X0676000Y0351874D01*
X0676000Y0350275D02*
X0715314Y0350275D01*
X0716912Y0348677D02*
X0676000Y0348677D01*
X0676000Y0347078D02*
X0718511Y0347078D01*
X0720109Y0345480D02*
X0676000Y0345480D01*
X0676000Y0343881D02*
X0721876Y0343881D01*
X0726173Y0390238D02*
X0727327Y0390238D01*
X0728250Y0391837D02*
X0725250Y0391837D01*
X0723731Y0393435D02*
X0729769Y0393435D01*
X0732167Y0395034D02*
X0721333Y0395034D01*
X0741033Y0395034D02*
X0762637Y0395034D01*
X0760425Y0393435D02*
X0743431Y0393435D01*
X0744950Y0391837D02*
X0758826Y0391837D01*
X0822348Y0291131D02*
X0873634Y0291131D01*
X0812542Y0273547D02*
X0788064Y0273547D01*
X0786465Y0275145D02*
X0810444Y0275145D01*
X0808845Y0276744D02*
X0784867Y0276744D01*
X0783268Y0278342D02*
X0806100Y0278342D01*
X0816000Y0239978D02*
X0822543Y0239978D01*
X0820452Y0238380D02*
X0816000Y0238380D01*
X0816000Y0236781D02*
X0819039Y0236781D01*
X0818377Y0235183D02*
X0816000Y0235183D01*
X0816000Y0233584D02*
X0817800Y0233584D01*
X0817800Y0231986D02*
X0816000Y0231986D01*
X0816000Y0230387D02*
X0817800Y0230387D01*
X0817666Y0228789D02*
X0816000Y0228789D01*
X0816000Y0227190D02*
X0817600Y0227190D01*
X0817600Y0225592D02*
X0816000Y0225592D01*
X0815595Y0223993D02*
X0817600Y0223993D01*
X0817600Y0222395D02*
X0814933Y0222395D01*
X0782543Y0239978D02*
X0781057Y0239978D01*
X0772543Y0239978D02*
X0771057Y0239978D01*
X0554800Y0239978D02*
X0436800Y0239978D01*
X0436800Y0241577D02*
X0554800Y0241577D01*
X0554800Y0243175D02*
X0436800Y0243175D01*
X0436800Y0244774D02*
X0554800Y0244774D01*
X0554800Y0246372D02*
X0436800Y0246372D01*
X0436800Y0247971D02*
X0554800Y0247971D01*
X0554800Y0249569D02*
X0436800Y0249569D01*
X0436800Y0251168D02*
X0554800Y0251168D01*
X0554800Y0252766D02*
X0436800Y0252766D01*
X0436800Y0254365D02*
X0554800Y0254365D01*
X0554800Y0255963D02*
X0436800Y0255963D01*
X0436800Y0257562D02*
X0554800Y0257562D01*
X0554800Y0259160D02*
X0436800Y0259160D01*
X0436800Y0260759D02*
X0554800Y0260759D01*
X0554800Y0262357D02*
X0436800Y0262357D01*
X0436800Y0263956D02*
X0554800Y0263956D01*
X0554800Y0265554D02*
X0436800Y0265554D01*
X0436800Y0267153D02*
X0554800Y0267153D01*
X0554800Y0268751D02*
X0436800Y0268751D01*
X0436800Y0270350D02*
X0554800Y0270350D01*
X0554800Y0271948D02*
X0436800Y0271948D01*
X0436800Y0273547D02*
X0554800Y0273547D01*
X0554800Y0275145D02*
X0436800Y0275145D01*
X0436800Y0276744D02*
X0554800Y0276744D01*
X0554800Y0278342D02*
X0436800Y0278342D01*
X0436800Y0279941D02*
X0554800Y0279941D01*
X0554800Y0281539D02*
X0436800Y0281539D01*
X0265759Y0319904D02*
X0203112Y0319904D01*
X0201513Y0321502D02*
X0265753Y0321502D01*
X0265748Y0323101D02*
X0199915Y0323101D01*
X0198316Y0324699D02*
X0265743Y0324699D01*
X0265738Y0326298D02*
X0196718Y0326298D01*
X0195119Y0327896D02*
X0265733Y0327896D01*
X0265727Y0329495D02*
X0193334Y0329495D01*
X0190565Y0331093D02*
X0265722Y0331093D01*
X0265717Y0332692D02*
X0186368Y0332692D01*
X0136669Y0374253D02*
X0265581Y0374253D01*
X0265586Y0372655D02*
X0135070Y0372655D01*
X0133472Y0371056D02*
X0265591Y0371056D01*
X0265597Y0369458D02*
X0131873Y0369458D01*
X0130275Y0367859D02*
X0265602Y0367859D01*
X0265607Y0366261D02*
X0128676Y0366261D01*
X0127078Y0364662D02*
X0265612Y0364662D01*
X0265617Y0363064D02*
X0125479Y0363064D01*
X0123881Y0361465D02*
X0265623Y0361465D01*
X0265628Y0359867D02*
X0122282Y0359867D01*
X0120684Y0358268D02*
X0265633Y0358268D01*
X0265638Y0356670D02*
X0119085Y0356670D01*
X0117487Y0355071D02*
X0265644Y0355071D01*
X0265649Y0353472D02*
X0115888Y0353472D01*
X0114290Y0351874D02*
X0265654Y0351874D01*
X0265659Y0350275D02*
X0112691Y0350275D01*
X0111093Y0348677D02*
X0265665Y0348677D01*
X0265670Y0347078D02*
X0109494Y0347078D01*
X0107896Y0345480D02*
X0265675Y0345480D01*
X0265680Y0343881D02*
X0106297Y0343881D01*
X0104699Y0342283D02*
X0265685Y0342283D01*
X0265691Y0340684D02*
X0103100Y0340684D01*
X0101502Y0339086D02*
X0265696Y0339086D01*
X0265701Y0337487D02*
X0099903Y0337487D01*
X0098304Y0335889D02*
X0265706Y0335889D01*
X0265712Y0334290D02*
X0096706Y0334290D01*
X0065049Y0361465D02*
X0017600Y0361465D01*
X0017600Y0359867D02*
X0063451Y0359867D01*
X0061852Y0358268D02*
X0017600Y0358268D01*
X0017600Y0356670D02*
X0060254Y0356670D01*
X0058655Y0355071D02*
X0017600Y0355071D01*
X0017600Y0353472D02*
X0057057Y0353472D01*
X0055458Y0351874D02*
X0017600Y0351874D01*
X0017600Y0350275D02*
X0053860Y0350275D01*
X0028813Y0348677D02*
X0017600Y0348677D01*
X0017600Y0347078D02*
X0023864Y0347078D01*
X0021095Y0345480D02*
X0017600Y0345480D01*
X0017600Y0343881D02*
X0019032Y0343881D01*
X0017600Y0363064D02*
X0066648Y0363064D01*
X0068246Y0364662D02*
X0017600Y0364662D01*
X0017600Y0366261D02*
X0069845Y0366261D01*
X0071443Y0367859D02*
X0017600Y0367859D01*
X0017600Y0369458D02*
X0073042Y0369458D01*
X0074640Y0371056D02*
X0017600Y0371056D01*
X0017600Y0372655D02*
X0076239Y0372655D01*
X0077838Y0374253D02*
X0017600Y0374253D01*
X0017600Y0375852D02*
X0079436Y0375852D01*
X0081035Y0377450D02*
X0017600Y0377450D01*
X0017600Y0379049D02*
X0082633Y0379049D01*
X0084232Y0380647D02*
X0017600Y0380647D01*
X0017600Y0382246D02*
X0085830Y0382246D01*
X0087429Y0383844D02*
X0017600Y0383844D01*
X0017600Y0385443D02*
X0089027Y0385443D01*
X0090626Y0387041D02*
X0017600Y0387041D01*
X0017600Y0388640D02*
X0092224Y0388640D01*
X0093823Y0390238D02*
X0017600Y0390238D01*
X0017600Y0391837D02*
X0095421Y0391837D01*
X0097020Y0393435D02*
X0017600Y0393435D01*
X0017600Y0395034D02*
X0098618Y0395034D01*
X0100217Y0396632D02*
X0017600Y0396632D01*
X0017600Y0398231D02*
X0101815Y0398231D01*
X0103414Y0399829D02*
X0017600Y0399829D01*
X0017600Y0401428D02*
X0105012Y0401428D01*
X0106611Y0403026D02*
X0017600Y0403026D01*
X0017600Y0404625D02*
X0108209Y0404625D01*
X0109808Y0406223D02*
X0017600Y0406223D01*
X0017600Y0407822D02*
X0111406Y0407822D01*
X0113005Y0409420D02*
X0017600Y0409420D01*
X0017600Y0411019D02*
X0114603Y0411019D01*
X0116202Y0412617D02*
X0017600Y0412617D01*
X0017600Y0414216D02*
X0117800Y0414216D01*
X0119399Y0415814D02*
X0017600Y0415814D01*
X0017600Y0417413D02*
X0120997Y0417413D01*
X0122596Y0419011D02*
X0017600Y0419011D01*
X0017600Y0420610D02*
X0124194Y0420610D01*
X0125793Y0422208D02*
X0017600Y0422208D01*
X0017600Y0423807D02*
X0127391Y0423807D01*
X0128990Y0425405D02*
X0017600Y0425405D01*
X0017600Y0427004D02*
X0130588Y0427004D01*
X0132187Y0428603D02*
X0017600Y0428603D01*
X0017600Y0430201D02*
X0133785Y0430201D01*
X0135384Y0431800D02*
X0017600Y0431800D01*
X0017600Y0433398D02*
X0136982Y0433398D01*
X0138581Y0434997D02*
X0017600Y0434997D01*
X0017600Y0436595D02*
X0140179Y0436595D01*
X0141778Y0438194D02*
X0017600Y0438194D01*
X0017600Y0439792D02*
X0143376Y0439792D01*
X0144975Y0441391D02*
X0017600Y0441391D01*
X0017600Y0442989D02*
X0146573Y0442989D01*
X0148172Y0444588D02*
X0017600Y0444588D01*
X0017600Y0446186D02*
X0149771Y0446186D01*
X0151369Y0447785D02*
X0017600Y0447785D01*
X0017600Y0449383D02*
X0152968Y0449383D01*
X0154566Y0450982D02*
X0017600Y0450982D01*
X0017600Y0452580D02*
X0156165Y0452580D01*
X0157763Y0454179D02*
X0017600Y0454179D01*
X0017600Y0455777D02*
X0159362Y0455777D01*
X0160960Y0457376D02*
X0017600Y0457376D01*
X0017600Y0458974D02*
X0162559Y0458974D01*
X0164157Y0460573D02*
X0017600Y0460573D01*
X0017600Y0462171D02*
X0165756Y0462171D01*
X0167354Y0463770D02*
X0017600Y0463770D01*
X0017600Y0465368D02*
X0168953Y0465368D01*
X0170551Y0466967D02*
X0017600Y0466967D01*
X0017600Y0468565D02*
X0172150Y0468565D01*
X0173748Y0470164D02*
X0017600Y0470164D01*
X0017600Y0471762D02*
X0175347Y0471762D01*
X0176945Y0473361D02*
X0017600Y0473361D01*
X0017600Y0474959D02*
X0178544Y0474959D01*
X0180142Y0476558D02*
X0017600Y0476558D01*
X0017600Y0478156D02*
X0181741Y0478156D01*
X0183339Y0479755D02*
X0017600Y0479755D01*
X0017600Y0481353D02*
X0184938Y0481353D01*
X0186536Y0482952D02*
X0017600Y0482952D01*
X0017600Y0484550D02*
X0188135Y0484550D01*
X0189733Y0486149D02*
X0017600Y0486149D01*
X0017600Y0487747D02*
X0191332Y0487747D01*
X0192930Y0489346D02*
X0017600Y0489346D01*
X0017600Y0490944D02*
X0195627Y0490944D01*
X0199117Y0492543D02*
X0017600Y0492543D01*
X0017600Y0494141D02*
X0265188Y0494141D01*
X0263800Y0494141D02*
X0551800Y0494141D01*
X0551800Y0492543D02*
X0263800Y0492543D01*
X0265194Y0492543D02*
X0233483Y0492543D01*
X0236973Y0490944D02*
X0265199Y0490944D01*
X0263800Y0490944D02*
X0551800Y0490944D01*
X0551800Y0489346D02*
X0263800Y0489346D01*
X0265204Y0489346D02*
X0239670Y0489346D01*
X0241268Y0487747D02*
X0265209Y0487747D01*
X0263800Y0487800D02*
X0263800Y0596000D01*
X0551800Y0596000D01*
X0551800Y0575075D01*
X0549508Y0575075D01*
X0545011Y0574181D01*
X0540775Y0572426D01*
X0536963Y0569879D01*
X0533721Y0566637D01*
X0531174Y0562825D01*
X0529419Y0558589D01*
X0528525Y0554092D01*
X0528525Y0549508D01*
X0529419Y0545011D01*
X0531174Y0540775D01*
X0533721Y0536963D01*
X0536963Y0533721D01*
X0540775Y0531174D01*
X0545011Y0529419D01*
X0549508Y0528525D01*
X0551800Y0528525D01*
X0551800Y0487800D01*
X0263800Y0487800D01*
X0265215Y0486149D02*
X0242867Y0486149D01*
X0244034Y0484550D02*
X0265220Y0484550D01*
X0265225Y0482952D02*
X0244957Y0482952D01*
X0245879Y0481353D02*
X0265230Y0481353D01*
X0265235Y0479755D02*
X0246470Y0479755D01*
X0246898Y0478156D02*
X0265241Y0478156D01*
X0265246Y0476558D02*
X0247327Y0476558D01*
X0247600Y0474959D02*
X0265251Y0474959D01*
X0265256Y0473361D02*
X0247600Y0473361D01*
X0247600Y0471762D02*
X0265262Y0471762D01*
X0265267Y0470164D02*
X0247600Y0470164D01*
X0247199Y0468565D02*
X0265272Y0468565D01*
X0265277Y0466967D02*
X0246771Y0466967D01*
X0246342Y0465368D02*
X0265283Y0465368D01*
X0265288Y0463770D02*
X0245604Y0463770D01*
X0244681Y0462171D02*
X0265293Y0462171D01*
X0265298Y0460573D02*
X0243758Y0460573D01*
X0242390Y0458974D02*
X0265304Y0458974D01*
X0265309Y0457376D02*
X0240791Y0457376D01*
X0238916Y0455777D02*
X0265314Y0455777D01*
X0265319Y0454179D02*
X0236147Y0454179D01*
X0231704Y0452580D02*
X0265324Y0452580D01*
X0265330Y0450982D02*
X0213397Y0450982D01*
X0211799Y0449383D02*
X0265335Y0449383D01*
X0265340Y0447785D02*
X0210200Y0447785D01*
X0208602Y0446186D02*
X0265345Y0446186D01*
X0265351Y0444588D02*
X0207003Y0444588D01*
X0205405Y0442989D02*
X0265356Y0442989D01*
X0265361Y0441391D02*
X0203806Y0441391D01*
X0202208Y0439792D02*
X0265366Y0439792D01*
X0265372Y0438194D02*
X0200609Y0438194D01*
X0199011Y0436595D02*
X0265377Y0436595D01*
X0265382Y0434997D02*
X0197412Y0434997D01*
X0195814Y0433398D02*
X0265387Y0433398D01*
X0265392Y0431800D02*
X0194215Y0431800D01*
X0192617Y0430201D02*
X0265398Y0430201D01*
X0265403Y0428603D02*
X0191018Y0428603D01*
X0189420Y0427004D02*
X0265408Y0427004D01*
X0265413Y0425405D02*
X0187821Y0425405D01*
X0186223Y0423807D02*
X0265419Y0423807D01*
X0265424Y0422208D02*
X0184624Y0422208D01*
X0183026Y0420610D02*
X0265429Y0420610D01*
X0265434Y0419011D02*
X0181427Y0419011D01*
X0179829Y0417413D02*
X0265440Y0417413D01*
X0265445Y0415814D02*
X0178230Y0415814D01*
X0176632Y0414216D02*
X0265450Y0414216D01*
X0265455Y0412617D02*
X0175033Y0412617D01*
X0173435Y0411019D02*
X0265460Y0411019D01*
X0265466Y0409420D02*
X0171836Y0409420D01*
X0170238Y0407822D02*
X0265471Y0407822D01*
X0265476Y0406223D02*
X0168639Y0406223D01*
X0167040Y0404625D02*
X0265481Y0404625D01*
X0265487Y0403026D02*
X0165442Y0403026D01*
X0163843Y0401428D02*
X0265492Y0401428D01*
X0265497Y0399829D02*
X0162245Y0399829D01*
X0160646Y0398231D02*
X0265502Y0398231D01*
X0265508Y0396632D02*
X0159048Y0396632D01*
X0157449Y0395034D02*
X0265513Y0395034D01*
X0265518Y0393435D02*
X0155851Y0393435D01*
X0154252Y0391837D02*
X0265523Y0391837D01*
X0265529Y0390238D02*
X0152654Y0390238D01*
X0151055Y0388640D02*
X0265534Y0388640D01*
X0265539Y0387041D02*
X0149457Y0387041D01*
X0147858Y0385443D02*
X0265544Y0385443D01*
X0265549Y0383844D02*
X0146260Y0383844D01*
X0144661Y0382246D02*
X0265555Y0382246D01*
X0265560Y0380647D02*
X0143063Y0380647D01*
X0141464Y0379049D02*
X0265565Y0379049D01*
X0265570Y0377450D02*
X0139866Y0377450D01*
X0138267Y0375852D02*
X0265576Y0375852D01*
X0265183Y0495740D02*
X0017600Y0495740D01*
X0017600Y0497339D02*
X0265178Y0497339D01*
X0263800Y0497339D02*
X0551800Y0497339D01*
X0551800Y0498937D02*
X0263800Y0498937D01*
X0265173Y0498937D02*
X0017600Y0498937D01*
X0017600Y0500536D02*
X0265167Y0500536D01*
X0263800Y0500536D02*
X0551800Y0500536D01*
X0551800Y0502134D02*
X0263800Y0502134D01*
X0265162Y0502134D02*
X0017600Y0502134D01*
X0017600Y0503733D02*
X0265157Y0503733D01*
X0263800Y0503733D02*
X0551800Y0503733D01*
X0551800Y0505331D02*
X0263800Y0505331D01*
X0265152Y0505331D02*
X0017600Y0505331D01*
X0017600Y0506930D02*
X0265147Y0506930D01*
X0263800Y0506930D02*
X0551800Y0506930D01*
X0551800Y0508528D02*
X0263800Y0508528D01*
X0265141Y0508528D02*
X0017600Y0508528D01*
X0017600Y0510127D02*
X0265136Y0510127D01*
X0263800Y0510127D02*
X0551800Y0510127D01*
X0551800Y0511725D02*
X0263800Y0511725D01*
X0265131Y0511725D02*
X0017600Y0511725D01*
X0017600Y0513324D02*
X0265126Y0513324D01*
X0263800Y0513324D02*
X0551800Y0513324D01*
X0551800Y0514922D02*
X0263800Y0514922D01*
X0265120Y0514922D02*
X0017600Y0514922D01*
X0017600Y0516521D02*
X0265115Y0516521D01*
X0263800Y0516521D02*
X0551800Y0516521D01*
X0551800Y0518119D02*
X0263800Y0518119D01*
X0265110Y0518119D02*
X0017600Y0518119D01*
X0017600Y0519718D02*
X0265105Y0519718D01*
X0263800Y0519718D02*
X0551800Y0519718D01*
X0551800Y0521316D02*
X0263800Y0521316D01*
X0265099Y0521316D02*
X0017600Y0521316D01*
X0017600Y0522915D02*
X0265094Y0522915D01*
X0263800Y0522915D02*
X0551800Y0522915D01*
X0551800Y0524513D02*
X0263800Y0524513D01*
X0265089Y0524513D02*
X0017600Y0524513D01*
X0017600Y0526112D02*
X0265084Y0526112D01*
X0263800Y0526112D02*
X0551800Y0526112D01*
X0551800Y0527710D02*
X0263800Y0527710D01*
X0265079Y0527710D02*
X0017600Y0527710D01*
X0017600Y0529309D02*
X0045567Y0529309D01*
X0045011Y0529419D02*
X0049508Y0528525D01*
X0054092Y0528525D01*
X0058589Y0529419D01*
X0062825Y0531174D01*
X0066637Y0533721D01*
X0069879Y0536963D01*
X0072426Y0540775D01*
X0074181Y0545011D01*
X0075075Y0549508D01*
X0075075Y0554092D01*
X0074181Y0558589D01*
X0072426Y0562825D01*
X0069879Y0566637D01*
X0066637Y0569879D01*
X0062825Y0572426D01*
X0058589Y0574181D01*
X0054092Y0575075D01*
X0049508Y0575075D01*
X0045011Y0574181D01*
X0040775Y0572426D01*
X0036963Y0569879D01*
X0033721Y0566637D01*
X0031174Y0562825D01*
X0029419Y0558589D01*
X0028525Y0554092D01*
X0028525Y0549508D01*
X0029419Y0545011D01*
X0031174Y0540775D01*
X0033721Y0536963D01*
X0036963Y0533721D01*
X0040775Y0531174D01*
X0045011Y0529419D01*
X0041419Y0530907D02*
X0017600Y0530907D01*
X0017600Y0532506D02*
X0038782Y0532506D01*
X0036580Y0534104D02*
X0017600Y0534104D01*
X0017600Y0535703D02*
X0034981Y0535703D01*
X0033495Y0537301D02*
X0017600Y0537301D01*
X0017600Y0538900D02*
X0032427Y0538900D01*
X0031359Y0540498D02*
X0017600Y0540498D01*
X0017600Y0542097D02*
X0030627Y0542097D01*
X0029964Y0543695D02*
X0017600Y0543695D01*
X0017600Y0545294D02*
X0029363Y0545294D01*
X0029045Y0546892D02*
X0017600Y0546892D01*
X0017600Y0548491D02*
X0028727Y0548491D01*
X0028525Y0550089D02*
X0017600Y0550089D01*
X0017600Y0551688D02*
X0028525Y0551688D01*
X0028525Y0553286D02*
X0017600Y0553286D01*
X0017600Y0554885D02*
X0028683Y0554885D01*
X0029001Y0556483D02*
X0017600Y0556483D01*
X0017600Y0558082D02*
X0029319Y0558082D01*
X0029872Y0559680D02*
X0017600Y0559680D01*
X0017600Y0561279D02*
X0030534Y0561279D01*
X0031209Y0562877D02*
X0017600Y0562877D01*
X0017600Y0564476D02*
X0032277Y0564476D01*
X0033345Y0566074D02*
X0017600Y0566074D01*
X0017600Y0567673D02*
X0034757Y0567673D01*
X0036356Y0569272D02*
X0017600Y0569272D01*
X0017600Y0570870D02*
X0038446Y0570870D01*
X0040878Y0572469D02*
X0017600Y0572469D01*
X0017600Y0574067D02*
X0044737Y0574067D01*
X0058863Y0574067D02*
X0264927Y0574067D01*
X0263800Y0574067D02*
X0544737Y0574067D01*
X0540878Y0572469D02*
X0263800Y0572469D01*
X0264932Y0572469D02*
X0062722Y0572469D01*
X0065154Y0570870D02*
X0264937Y0570870D01*
X0263800Y0570870D02*
X0538446Y0570870D01*
X0536356Y0569272D02*
X0263800Y0569272D01*
X0264942Y0569272D02*
X0067244Y0569272D01*
X0068843Y0567673D02*
X0264948Y0567673D01*
X0263800Y0567673D02*
X0534757Y0567673D01*
X0533345Y0566074D02*
X0263800Y0566074D01*
X0264953Y0566074D02*
X0070255Y0566074D01*
X0071323Y0564476D02*
X0264958Y0564476D01*
X0263800Y0564476D02*
X0532277Y0564476D01*
X0531209Y0562877D02*
X0263800Y0562877D01*
X0264963Y0562877D02*
X0072391Y0562877D01*
X0073066Y0561279D02*
X0264969Y0561279D01*
X0263800Y0561279D02*
X0530534Y0561279D01*
X0529872Y0559680D02*
X0263800Y0559680D01*
X0264974Y0559680D02*
X0073728Y0559680D01*
X0074281Y0558082D02*
X0264979Y0558082D01*
X0263800Y0558082D02*
X0529319Y0558082D01*
X0529001Y0556483D02*
X0263800Y0556483D01*
X0264984Y0556483D02*
X0074599Y0556483D01*
X0074917Y0554885D02*
X0264990Y0554885D01*
X0263800Y0554885D02*
X0528683Y0554885D01*
X0528525Y0553286D02*
X0263800Y0553286D01*
X0264995Y0553286D02*
X0075075Y0553286D01*
X0075075Y0551688D02*
X0265000Y0551688D01*
X0263800Y0551688D02*
X0528525Y0551688D01*
X0528525Y0550089D02*
X0263800Y0550089D01*
X0265005Y0550089D02*
X0075075Y0550089D01*
X0074873Y0548491D02*
X0265010Y0548491D01*
X0263800Y0548491D02*
X0528727Y0548491D01*
X0529045Y0546892D02*
X0263800Y0546892D01*
X0265016Y0546892D02*
X0074555Y0546892D01*
X0074237Y0545294D02*
X0265021Y0545294D01*
X0263800Y0545294D02*
X0529363Y0545294D01*
X0529964Y0543695D02*
X0263800Y0543695D01*
X0265026Y0543695D02*
X0073636Y0543695D01*
X0072973Y0542097D02*
X0265031Y0542097D01*
X0263800Y0542097D02*
X0530627Y0542097D01*
X0531359Y0540498D02*
X0263800Y0540498D01*
X0265037Y0540498D02*
X0072241Y0540498D01*
X0071173Y0538900D02*
X0265042Y0538900D01*
X0263800Y0538900D02*
X0532427Y0538900D01*
X0533495Y0537301D02*
X0263800Y0537301D01*
X0265047Y0537301D02*
X0070105Y0537301D01*
X0068619Y0535703D02*
X0265052Y0535703D01*
X0263800Y0535703D02*
X0534981Y0535703D01*
X0536580Y0534104D02*
X0263800Y0534104D01*
X0265058Y0534104D02*
X0067020Y0534104D01*
X0064818Y0532506D02*
X0265063Y0532506D01*
X0263800Y0532506D02*
X0538782Y0532506D01*
X0541419Y0530907D02*
X0263800Y0530907D01*
X0265068Y0530907D02*
X0062181Y0530907D01*
X0058033Y0529309D02*
X0265073Y0529309D01*
X0263800Y0529309D02*
X0545567Y0529309D01*
X0551800Y0495740D02*
X0263800Y0495740D01*
X0263800Y0575666D02*
X0551800Y0575666D01*
X0551800Y0577264D02*
X0263800Y0577264D01*
X0264916Y0577264D02*
X0017600Y0577264D01*
X0017600Y0575666D02*
X0264922Y0575666D01*
X0264911Y0578863D02*
X0017600Y0578863D01*
X0017600Y0580461D02*
X0264906Y0580461D01*
X0263800Y0580461D02*
X0551800Y0580461D01*
X0551800Y0578863D02*
X0263800Y0578863D01*
X0263800Y0582060D02*
X0551800Y0582060D01*
X0551800Y0583658D02*
X0263800Y0583658D01*
X0264895Y0583658D02*
X0017600Y0583658D01*
X0017600Y0582060D02*
X0264901Y0582060D01*
X0264890Y0585257D02*
X0017600Y0585257D01*
X0017600Y0586855D02*
X0264885Y0586855D01*
X0263800Y0586855D02*
X0551800Y0586855D01*
X0551800Y0585257D02*
X0263800Y0585257D01*
X0263800Y0588454D02*
X0551800Y0588454D01*
X0551800Y0590052D02*
X0263800Y0590052D01*
X0264874Y0590052D02*
X0017600Y0590052D01*
X0017600Y0588454D02*
X0264880Y0588454D01*
X0264869Y0591651D02*
X0017600Y0591651D01*
X0017600Y0593249D02*
X0264864Y0593249D01*
X0263800Y0593249D02*
X0551800Y0593249D01*
X0551800Y0591651D02*
X0263800Y0591651D01*
X0263800Y0594848D02*
X0551800Y0594848D01*
X0264859Y0594848D02*
X0017600Y0594848D01*
X0262800Y0129800D02*
X0262800Y0017566D01*
X0552800Y0017528D01*
X0552800Y0028525D01*
X0549508Y0028525D01*
X0545011Y0029419D01*
X0540775Y0031174D01*
X0536963Y0033721D01*
X0533721Y0036963D01*
X0531174Y0040775D01*
X0529419Y0045011D01*
X0528525Y0049508D01*
X0528525Y0054092D01*
X0529419Y0058589D01*
X0531174Y0062825D01*
X0533721Y0066637D01*
X0536963Y0069879D01*
X0540775Y0072426D01*
X0545011Y0074181D01*
X0549508Y0075075D01*
X0552800Y0075075D01*
X0552800Y0129800D01*
X0262800Y0129800D01*
X0262800Y0129681D02*
X0552800Y0129681D01*
X0552800Y0128082D02*
X0262800Y0128082D01*
X0262800Y0126484D02*
X0552800Y0126484D01*
X0552800Y0124885D02*
X0262800Y0124885D01*
X0262800Y0123287D02*
X0552800Y0123287D01*
X0552800Y0121688D02*
X0262800Y0121688D01*
X0262800Y0120090D02*
X0552800Y0120090D01*
X0552800Y0118491D02*
X0262800Y0118491D01*
X0262800Y0116893D02*
X0552800Y0116893D01*
X0552800Y0115294D02*
X0262800Y0115294D01*
X0262800Y0113696D02*
X0552800Y0113696D01*
X0552800Y0112097D02*
X0262800Y0112097D01*
X0262800Y0110499D02*
X0552800Y0110499D01*
X0552800Y0108900D02*
X0262800Y0108900D01*
X0262800Y0107302D02*
X0552800Y0107302D01*
X0552800Y0105703D02*
X0262800Y0105703D01*
X0262800Y0104105D02*
X0552800Y0104105D01*
X0552800Y0102506D02*
X0262800Y0102506D01*
X0262800Y0100908D02*
X0552800Y0100908D01*
X0552800Y0099309D02*
X0262800Y0099309D01*
X0262800Y0097711D02*
X0552800Y0097711D01*
X0552800Y0096112D02*
X0262800Y0096112D01*
X0262800Y0094514D02*
X0552800Y0094514D01*
X0552800Y0092915D02*
X0262800Y0092915D01*
X0262800Y0091317D02*
X0552800Y0091317D01*
X0552800Y0089718D02*
X0262800Y0089718D01*
X0262800Y0088120D02*
X0552800Y0088120D01*
X0552800Y0086521D02*
X0262800Y0086521D01*
X0262800Y0084923D02*
X0552800Y0084923D01*
X0552800Y0083324D02*
X0262800Y0083324D01*
X0262800Y0081726D02*
X0552800Y0081726D01*
X0552800Y0080127D02*
X0262800Y0080127D01*
X0262800Y0078529D02*
X0552800Y0078529D01*
X0552800Y0076930D02*
X0262800Y0076930D01*
X0262800Y0075332D02*
X0552800Y0075332D01*
X0543930Y0073733D02*
X0262800Y0073733D01*
X0262800Y0072134D02*
X0540339Y0072134D01*
X0537947Y0070536D02*
X0262800Y0070536D01*
X0262800Y0068937D02*
X0536022Y0068937D01*
X0534423Y0067339D02*
X0262800Y0067339D01*
X0262800Y0065740D02*
X0533122Y0065740D01*
X0532054Y0064142D02*
X0262800Y0064142D01*
X0262800Y0062543D02*
X0531057Y0062543D01*
X0530395Y0060945D02*
X0262800Y0060945D01*
X0262800Y0059346D02*
X0529733Y0059346D01*
X0529252Y0057748D02*
X0262800Y0057748D01*
X0262800Y0056149D02*
X0528934Y0056149D01*
X0528616Y0054551D02*
X0262800Y0054551D01*
X0262800Y0052952D02*
X0528525Y0052952D01*
X0528525Y0051354D02*
X0262800Y0051354D01*
X0262800Y0049755D02*
X0528525Y0049755D01*
X0528794Y0048157D02*
X0262800Y0048157D01*
X0262800Y0046558D02*
X0529112Y0046558D01*
X0529441Y0044960D02*
X0262800Y0044960D01*
X0262800Y0043361D02*
X0530103Y0043361D01*
X0530765Y0041763D02*
X0262800Y0041763D01*
X0262800Y0040164D02*
X0531582Y0040164D01*
X0532650Y0038566D02*
X0262800Y0038566D01*
X0262800Y0036967D02*
X0533718Y0036967D01*
X0535315Y0035369D02*
X0262800Y0035369D01*
X0262800Y0033770D02*
X0536914Y0033770D01*
X0539282Y0032172D02*
X0262800Y0032172D01*
X0262800Y0030573D02*
X0542226Y0030573D01*
X0547247Y0028975D02*
X0262800Y0028975D01*
X0262800Y0027376D02*
X0552800Y0027376D01*
X0552800Y0025778D02*
X0262800Y0025778D01*
X0262800Y0024179D02*
X0552800Y0024179D01*
X0552800Y0022581D02*
X0262800Y0022581D01*
X0262800Y0020982D02*
X0552800Y0020982D01*
X0552800Y0019384D02*
X0262800Y0019384D01*
X0262800Y0017785D02*
X0552800Y0017785D01*
X0266748Y0017785D02*
X0017600Y0017785D01*
X0017600Y0019384D02*
X0266742Y0019384D01*
X0266737Y0020982D02*
X0017600Y0020982D01*
X0017600Y0022581D02*
X0266732Y0022581D01*
X0266727Y0024179D02*
X0017600Y0024179D01*
X0017600Y0025778D02*
X0266722Y0025778D01*
X0266716Y0027376D02*
X0017600Y0027376D01*
X0072018Y0040164D02*
X0223449Y0040164D01*
X0218173Y0041763D02*
X0072835Y0041763D01*
X0073497Y0043361D02*
X0215405Y0043361D01*
X0213225Y0044960D02*
X0074159Y0044960D01*
X0074488Y0046558D02*
X0211626Y0046558D01*
X0210028Y0048157D02*
X0074806Y0048157D01*
X0075075Y0049755D02*
X0208429Y0049755D01*
X0206830Y0051354D02*
X0075075Y0051354D01*
X0075075Y0052952D02*
X0205232Y0052952D01*
X0203633Y0054551D02*
X0074984Y0054551D01*
X0074666Y0056149D02*
X0202035Y0056149D01*
X0200436Y0057748D02*
X0074348Y0057748D01*
X0073867Y0059346D02*
X0198838Y0059346D01*
X0197239Y0060945D02*
X0073205Y0060945D01*
X0072543Y0062543D02*
X0195641Y0062543D01*
X0194042Y0064142D02*
X0071546Y0064142D01*
X0070478Y0065740D02*
X0192444Y0065740D01*
X0190845Y0067339D02*
X0069177Y0067339D01*
X0067578Y0068937D02*
X0189247Y0068937D01*
X0187648Y0070536D02*
X0065653Y0070536D01*
X0063261Y0072134D02*
X0186050Y0072134D01*
X0184451Y0073733D02*
X0059670Y0073733D01*
D22*
X0641800Y0226800D02*
X0641800Y0236800D01*
X0641800Y0256800D01*
X0646800Y0261800D01*
X0676800Y0261800D02*
X0681800Y0256800D01*
X0681800Y0236800D01*
X0656800Y0211800D02*
X0641800Y0226800D01*
X0656800Y0211800D02*
X0821800Y0211800D01*
X0826800Y0216800D01*
X0826800Y0226800D01*
X0806800Y0226800D02*
X0806800Y0241800D01*
X0771800Y0276800D01*
X0771800Y0286800D01*
X0771800Y0311800D01*
X0776800Y0316800D01*
X0776800Y0331800D02*
X0791800Y0316800D01*
X0806800Y0316800D01*
X0811800Y0311800D01*
X0811800Y0286800D01*
X0816900Y0281700D01*
X0881800Y0281700D01*
X0861800Y0336800D02*
X0876800Y0351800D01*
X0876800Y0371600D01*
X0876600Y0381800D01*
X0856900Y0381800D02*
X0856800Y0371700D01*
X0856800Y0361800D01*
X0841800Y0346800D01*
X0806800Y0346800D01*
X0781800Y0336800D02*
X0861800Y0336800D01*
X0806800Y0386800D02*
X0796800Y0386800D01*
X0786800Y0376800D01*
X0771800Y0376800D01*
X0746800Y0351800D01*
X0726800Y0351800D01*
X0716800Y0361800D01*
X0716800Y0371700D01*
X0716900Y0381800D01*
X0736600Y0381800D02*
X0761800Y0381800D01*
X0766800Y0386800D01*
X0776800Y0386800D01*
X0776800Y0346800D02*
X0776800Y0341800D01*
X0781800Y0336800D01*
X0776800Y0331800D02*
X0676800Y0331800D01*
X0666800Y0296800D02*
X0666800Y0376900D01*
X0671700Y0381800D01*
X0656800Y0377000D02*
X0652000Y0381800D01*
X0656800Y0377000D02*
X0656800Y0296800D01*
X0651800Y0291800D01*
X0646800Y0291800D01*
X0666800Y0296800D02*
X0671800Y0291800D01*
X0676800Y0291800D01*
X0806800Y0196800D02*
X0806800Y0166800D01*
X0801800Y0161800D01*
X0706800Y0161800D01*
X0696800Y0151800D01*
X0696800Y0111800D01*
X0706800Y0111800D02*
X0706800Y0131800D01*
X0716800Y0141800D01*
X0816800Y0141800D01*
X0826800Y0151800D01*
X0826800Y0196800D01*
X0836800Y0196800D02*
X0836800Y0141800D01*
X0816800Y0166800D02*
X0816800Y0196800D01*
X0856800Y0111800D02*
X0866800Y0111800D01*
X0881800Y0096800D01*
X0881800Y0071800D01*
X0856800Y0041800D02*
X0821800Y0041800D01*
X0816800Y0036800D01*
X0816800Y0026800D01*
X0816800Y0051800D01*
X0781800Y0086800D01*
X0731900Y0051700D02*
X0706800Y0076800D01*
X0706800Y0101800D01*
X0696800Y0086800D02*
X0686800Y0096800D01*
X0686800Y0101800D01*
X0731900Y0051700D02*
X0731900Y0026800D01*
X0726900Y0021800D01*
X0681800Y0021800D01*
X0856800Y0041800D02*
X0876800Y0021800D01*
X0881800Y0021800D01*
D23*
X0781800Y0086800D03*
X0696800Y0086800D03*
M02*
