%
M48
M72
T01C0.02362
T02C0.03200
T03C0.03937
T04C0.04400
T05C0.05000
T06C0.05200
T07C0.05500
T08C0.06693
T09C0.07000
T10C0.07900
T11C0.14950
%
T01
X615800Y258167
X650800Y293167
T02
X659800Y274167
X659800Y254167
X645800Y215167
X645800Y205167
X645800Y195167
X615800Y195167
X615800Y205167
X615800Y215167
X645800Y166167
X645800Y146167
X616800Y120167
X606800Y120167
X596800Y120167
X586800Y120167
X586800Y90167
X596800Y90167
X606800Y90167
X616800Y90167
X520800Y199167
X500800Y199167
X464800Y199167
X464800Y209167
X464800Y219167
X434800Y219167
X434800Y209167
X434800Y199167
X485800Y254167
X485800Y274167
X455800Y273167
X435800Y273167
X445800Y326167
X407800Y325167
X407800Y360167
X417800Y360167
X397800Y360167
X367800Y325167
X281800Y334167
X261800Y359167
X231800Y334167
X211800Y359167
X191800Y359167
X171800Y334167
X141800Y359167
X121800Y334167
X161800Y389167
X171800Y389167
X181800Y389167
X191800Y389167
X201800Y389167
X211800Y389167
X221800Y389167
X231800Y389167
X231800Y419167
X221800Y419167
X211800Y419167
X201800Y419167
X191800Y419167
X181800Y419167
X171800Y419167
X161800Y419167
X171800Y454167
X191800Y484167
X211800Y484167
X231800Y454167
X261800Y484167
X281800Y454167
X365800Y414167
X415800Y414167
X456800Y414167
X506800Y414167
X526800Y414167
X576800Y414167
X610800Y414167
X660800Y414167
X629800Y360167
X619800Y360167
X609800Y360167
X620800Y326167
X589800Y326167
X549800Y326167
X549800Y360167
X559800Y360167
X539800Y360167
X495800Y360167
X485800Y360167
X475800Y360167
X485800Y326167
X587800Y275167
X607800Y275167
X660800Y326167
X392800Y125167
X392800Y85167
X266800Y154167
X246800Y119167
X216800Y154167
X216800Y179167
X226800Y179167
X206800Y179167
X196800Y179167
X186800Y179167
X176800Y179167
X166800Y179167
X156800Y179167
X156800Y154167
X176800Y119167
X196800Y119167
X201800Y84167
X201800Y74167
X201800Y64167
X201800Y54167
X201800Y44167
X201800Y34167
X201800Y24167
X201800Y14167
X171800Y14167
X171800Y24167
X171800Y34167
X171800Y44167
X171800Y54167
X171800Y64167
X171800Y74167
X171800Y84167
X126800Y119167
X106800Y154167
X156800Y209167
X166800Y209167
X176800Y209167
X186800Y209167
X196800Y209167
X206800Y209167
X216800Y209167
X226800Y209167
X246800Y239167
X266800Y264167
X216800Y264167
X196800Y239167
X176800Y239167
X156800Y264167
X126800Y239167
X106800Y264167
X121800Y454167
X141800Y484167
X176800Y519167
X176800Y529167
X176800Y539167
X176800Y549167
X176800Y559167
X176800Y569167
X176800Y579167
X176800Y589167
X206800Y589167
X206800Y579167
X206800Y569167
X206800Y559167
X206800Y549167
X206800Y539167
X206800Y529167
X206800Y519167
T03
X201800Y304167
X211800Y304167
X221800Y304167
X231800Y304167
X241800Y304167
X251800Y304167
X251800Y294167
X241800Y294167
X231800Y294167
X221800Y294167
X211800Y294167
X201800Y294167
X191800Y294167
X181800Y294167
X171800Y294167
X171800Y304167
X181800Y304167
X191800Y304167
X161800Y304167
X151800Y304167
X141800Y304167
X131800Y304167
X121800Y304167
X111800Y304167
X101800Y304167
X91800Y304167
X81800Y304167
X71800Y304167
X61800Y304167
X61800Y294167
X71800Y294167
X81800Y294167
X91800Y294167
X101800Y294167
X111800Y294167
X121800Y294167
X131800Y294167
X141800Y294167
X151800Y294167
X161800Y294167
X430800Y120167
X460800Y120167
X480800Y120167
X500800Y120167
X500800Y90167
X480800Y90167
X460800Y90167
X430800Y90167
T04
X333800Y319167
X333800Y359167
X700800Y360167
X700800Y320167
T05
X596800Y36167
T06
X51900Y34167
X71600Y34167
X26800Y134367
X26800Y154067
X266900Y34167
X286600Y34167
X281700Y564167
X262000Y564167
X66700Y569167
X47000Y569167
T07
X365800Y448167
X425800Y448167
X425800Y480167
X485800Y480167
X540800Y447167
X600800Y447167
X600800Y478167
X660800Y478167
T08
X392800Y198962
X392800Y183371
X392800Y39962
X392800Y24371
T09
X586761Y26128
X586761Y46206
X606839Y46206
X606839Y26128
T10
X701800Y262167
X518000Y325867
X535500Y473167
X333800Y262167
T11
X327800Y471167
X711800Y472167
X711800Y29167
X327800Y28167
M30
