G75*
%MOIN*%
%OFA0B0*%
%FSLAX25Y25*%
%IPPOS*%
%LPD*%
%AMOC8*
5,1,8,0,0,1.08239X$1,22.5*
%
%ADD10C,0.00600*%
%ADD11C,0.02400*%
%ADD12R,0.03400X0.02400*%
%ADD13C,0.00800*%
%ADD14C,0.00500*%
%ADD15C,0.01200*%
%ADD16C,0.00400*%
%ADD17R,0.08000X0.02000*%
%ADD18R,0.02000X0.07500*%
%ADD19R,0.02000X0.14000*%
%ADD20R,0.05400X0.04200*%
%ADD21R,0.10000X0.02000*%
%ADD22R,0.03000X0.07500*%
%ADD23C,0.01000*%
D10*
X0041800Y0009667D02*
X0041800Y0036667D01*
X0045400Y0036667D01*
X0045400Y0035167D02*
X0043900Y0035167D01*
X0043900Y0017167D01*
X0043900Y0009667D01*
X0059900Y0009667D01*
X0063600Y0009667D01*
X0079600Y0009667D01*
X0079600Y0017167D01*
X0063600Y0017167D01*
X0063600Y0035167D01*
X0065100Y0035167D01*
X0065100Y0036667D02*
X0058400Y0036667D01*
X0058400Y0035167D02*
X0059900Y0035167D01*
X0059900Y0017167D01*
X0043900Y0017167D01*
X0045400Y0019667D02*
X0045400Y0032167D01*
X0041800Y0036667D02*
X0041800Y0046667D01*
X0041800Y0058667D01*
X0081800Y0058667D01*
X0083800Y0058667D01*
X0083800Y0039667D01*
X0081800Y0040667D01*
X0081800Y0046667D01*
X0041800Y0046667D01*
X0043900Y0047667D02*
X0043900Y0057667D01*
X0059900Y0057667D01*
X0059900Y0047667D01*
X0043900Y0047667D01*
X0046000Y0051167D02*
X0058000Y0053667D01*
X0057500Y0054167D02*
X0045500Y0051667D01*
X0046266Y0050425D02*
X0046182Y0050474D01*
X0046101Y0050526D01*
X0046022Y0050581D01*
X0045945Y0050640D01*
X0045871Y0050701D01*
X0045799Y0050766D01*
X0045730Y0050834D01*
X0045664Y0050904D01*
X0045601Y0050977D01*
X0045541Y0051053D01*
X0045485Y0051131D01*
X0045431Y0051211D01*
X0045381Y0051293D01*
X0045334Y0051378D01*
X0045291Y0051464D01*
X0045251Y0051552D01*
X0045215Y0051642D01*
X0045183Y0051733D01*
X0045155Y0051825D01*
X0045130Y0051918D01*
X0045109Y0052012D01*
X0045093Y0052108D01*
X0045080Y0052203D01*
X0045071Y0052299D01*
X0045066Y0052396D01*
X0045065Y0052492D01*
X0045068Y0052589D01*
X0045075Y0052685D01*
X0045086Y0052781D01*
X0045101Y0052876D01*
X0045120Y0052971D01*
X0045143Y0053065D01*
X0045170Y0053157D01*
X0045200Y0053249D01*
X0045234Y0053339D01*
X0045272Y0053428D01*
X0045314Y0053515D01*
X0045359Y0053600D01*
X0045408Y0053684D01*
X0045460Y0053765D01*
X0045515Y0053844D01*
X0045574Y0053921D01*
X0045635Y0053995D01*
X0045700Y0054067D01*
X0046100Y0050567D02*
X0046284Y0050423D01*
X0046473Y0050283D01*
X0046664Y0050148D01*
X0046859Y0050018D01*
X0047057Y0049892D01*
X0047258Y0049772D01*
X0047462Y0049656D01*
X0047669Y0049545D01*
X0047878Y0049440D01*
X0048090Y0049339D01*
X0048304Y0049244D01*
X0048521Y0049154D01*
X0048740Y0049069D01*
X0048960Y0048990D01*
X0049183Y0048916D01*
X0049407Y0048847D01*
X0049633Y0048784D01*
X0049860Y0048727D01*
X0050089Y0048675D01*
X0050319Y0048629D01*
X0050550Y0048588D01*
X0050781Y0048553D01*
X0051014Y0048524D01*
X0051247Y0048500D01*
X0051481Y0048482D01*
X0051715Y0048470D01*
X0051950Y0048463D01*
X0052184Y0048462D01*
X0052418Y0048467D01*
X0052653Y0048478D01*
X0052887Y0048494D01*
X0053120Y0048516D01*
X0053353Y0048544D01*
X0053585Y0048577D01*
X0053816Y0048617D01*
X0054046Y0048661D01*
X0054275Y0048712D01*
X0054503Y0048767D01*
X0054729Y0048829D01*
X0054954Y0048896D01*
X0055177Y0048968D01*
X0055398Y0049046D01*
X0055617Y0049129D01*
X0055834Y0049218D01*
X0056049Y0049312D01*
X0056262Y0049411D01*
X0056472Y0049515D01*
X0056679Y0049624D01*
X0056884Y0049738D01*
X0057086Y0049858D01*
X0057285Y0049982D01*
X0057481Y0050111D01*
X0057673Y0050244D01*
X0057863Y0050383D01*
X0057680Y0050249D02*
X0057755Y0050318D01*
X0057827Y0050389D01*
X0057896Y0050463D01*
X0057962Y0050539D01*
X0058026Y0050618D01*
X0058086Y0050699D01*
X0058144Y0050782D01*
X0058198Y0050868D01*
X0058249Y0050955D01*
X0058297Y0051044D01*
X0058341Y0051136D01*
X0058382Y0051228D01*
X0058419Y0051322D01*
X0058453Y0051418D01*
X0058483Y0051514D01*
X0058509Y0051612D01*
X0058532Y0051711D01*
X0058551Y0051810D01*
X0058566Y0051910D01*
X0058578Y0052011D01*
X0058586Y0052112D01*
X0058589Y0052213D01*
X0058590Y0052314D01*
X0058586Y0052415D01*
X0058578Y0052516D01*
X0058567Y0052617D01*
X0058552Y0052717D01*
X0058533Y0052816D01*
X0058511Y0052915D01*
X0058484Y0053013D01*
X0058454Y0053110D01*
X0058421Y0053205D01*
X0058384Y0053299D01*
X0058343Y0053392D01*
X0058299Y0053483D01*
X0058251Y0053572D01*
X0058201Y0053660D01*
X0058147Y0053746D01*
X0058089Y0053829D01*
X0058029Y0053910D01*
X0057966Y0053989D01*
X0057899Y0054066D01*
X0063600Y0057667D02*
X0063600Y0047667D01*
X0079600Y0047667D01*
X0079600Y0057667D01*
X0063600Y0057667D01*
X0065200Y0051667D02*
X0077200Y0054167D01*
X0077700Y0053667D02*
X0065700Y0051167D01*
X0065966Y0050425D02*
X0065882Y0050474D01*
X0065801Y0050526D01*
X0065722Y0050581D01*
X0065645Y0050640D01*
X0065571Y0050701D01*
X0065499Y0050766D01*
X0065430Y0050834D01*
X0065364Y0050904D01*
X0065301Y0050977D01*
X0065241Y0051053D01*
X0065185Y0051131D01*
X0065131Y0051211D01*
X0065081Y0051293D01*
X0065034Y0051378D01*
X0064991Y0051464D01*
X0064951Y0051552D01*
X0064915Y0051642D01*
X0064883Y0051733D01*
X0064855Y0051825D01*
X0064830Y0051918D01*
X0064809Y0052012D01*
X0064793Y0052108D01*
X0064780Y0052203D01*
X0064771Y0052299D01*
X0064766Y0052396D01*
X0064765Y0052492D01*
X0064768Y0052589D01*
X0064775Y0052685D01*
X0064786Y0052781D01*
X0064801Y0052876D01*
X0064820Y0052971D01*
X0064843Y0053065D01*
X0064870Y0053157D01*
X0064900Y0053249D01*
X0064934Y0053339D01*
X0064972Y0053428D01*
X0065014Y0053515D01*
X0065059Y0053600D01*
X0065108Y0053684D01*
X0065160Y0053765D01*
X0065215Y0053844D01*
X0065274Y0053921D01*
X0065335Y0053995D01*
X0065400Y0054067D01*
X0065800Y0050567D02*
X0065985Y0050423D01*
X0066173Y0050283D01*
X0066365Y0050148D01*
X0066560Y0050018D01*
X0066758Y0049892D01*
X0066959Y0049771D01*
X0067163Y0049656D01*
X0067369Y0049545D01*
X0067579Y0049439D01*
X0067790Y0049339D01*
X0068005Y0049244D01*
X0068221Y0049154D01*
X0068440Y0049069D01*
X0068660Y0048990D01*
X0068883Y0048916D01*
X0069107Y0048847D01*
X0069333Y0048784D01*
X0069560Y0048727D01*
X0069789Y0048675D01*
X0070019Y0048629D01*
X0070250Y0048588D01*
X0070482Y0048553D01*
X0070714Y0048524D01*
X0070948Y0048500D01*
X0071181Y0048482D01*
X0071416Y0048470D01*
X0071650Y0048463D01*
X0071884Y0048462D01*
X0072119Y0048467D01*
X0072353Y0048478D01*
X0072587Y0048494D01*
X0072820Y0048516D01*
X0073053Y0048544D01*
X0073285Y0048578D01*
X0073516Y0048617D01*
X0073747Y0048661D01*
X0073976Y0048712D01*
X0074203Y0048768D01*
X0074430Y0048829D01*
X0074654Y0048896D01*
X0074877Y0048968D01*
X0075099Y0049046D01*
X0075318Y0049129D01*
X0075535Y0049218D01*
X0075750Y0049312D01*
X0075962Y0049411D01*
X0076172Y0049515D01*
X0076380Y0049624D01*
X0076584Y0049738D01*
X0076786Y0049858D01*
X0076985Y0049982D01*
X0077181Y0050111D01*
X0077374Y0050245D01*
X0077563Y0050383D01*
X0077380Y0050249D02*
X0077455Y0050318D01*
X0077527Y0050389D01*
X0077596Y0050463D01*
X0077662Y0050539D01*
X0077726Y0050618D01*
X0077786Y0050699D01*
X0077844Y0050782D01*
X0077898Y0050868D01*
X0077949Y0050955D01*
X0077997Y0051044D01*
X0078041Y0051136D01*
X0078082Y0051228D01*
X0078119Y0051322D01*
X0078153Y0051418D01*
X0078183Y0051514D01*
X0078209Y0051612D01*
X0078232Y0051711D01*
X0078251Y0051810D01*
X0078266Y0051910D01*
X0078278Y0052011D01*
X0078286Y0052112D01*
X0078289Y0052213D01*
X0078290Y0052314D01*
X0078286Y0052415D01*
X0078278Y0052516D01*
X0078267Y0052617D01*
X0078252Y0052717D01*
X0078233Y0052816D01*
X0078211Y0052915D01*
X0078184Y0053013D01*
X0078154Y0053110D01*
X0078121Y0053205D01*
X0078084Y0053299D01*
X0078043Y0053392D01*
X0077999Y0053483D01*
X0077951Y0053572D01*
X0077901Y0053660D01*
X0077847Y0053746D01*
X0077789Y0053829D01*
X0077729Y0053910D01*
X0077666Y0053989D01*
X0077599Y0054066D01*
X0081800Y0058667D02*
X0081800Y0046667D01*
X0081800Y0040667D02*
X0081800Y0036667D01*
X0078100Y0036667D01*
X0078100Y0035167D02*
X0079600Y0035167D01*
X0079600Y0017167D01*
X0081800Y0018167D02*
X0081800Y0036667D01*
X0078100Y0032167D02*
X0078100Y0019667D01*
X0065100Y0019667D01*
X0065100Y0032167D01*
X0058400Y0032167D02*
X0058400Y0019667D01*
X0045400Y0019667D01*
X0043900Y0009667D02*
X0041800Y0009667D01*
X0059900Y0009667D02*
X0059900Y0017167D01*
X0063600Y0017167D02*
X0063600Y0009667D01*
X0079600Y0009667D02*
X0081800Y0009667D01*
X0081800Y0013667D01*
X0081800Y0018167D01*
X0083800Y0019167D01*
X0083800Y0012667D01*
X0081800Y0013667D01*
X0077618Y0054083D02*
X0077488Y0054229D01*
X0077354Y0054373D01*
X0077216Y0054513D01*
X0077075Y0054650D01*
X0076931Y0054784D01*
X0076783Y0054913D01*
X0076633Y0055040D01*
X0076479Y0055162D01*
X0076323Y0055281D01*
X0076163Y0055396D01*
X0076001Y0055507D01*
X0075836Y0055614D01*
X0075669Y0055718D01*
X0075499Y0055817D01*
X0075327Y0055911D01*
X0075153Y0056002D01*
X0074976Y0056089D01*
X0074798Y0056171D01*
X0074617Y0056248D01*
X0074435Y0056322D01*
X0074251Y0056391D01*
X0074066Y0056455D01*
X0073878Y0056515D01*
X0073690Y0056571D01*
X0073500Y0056621D01*
X0073309Y0056668D01*
X0073117Y0056709D01*
X0072924Y0056746D01*
X0072730Y0056778D01*
X0072535Y0056806D01*
X0072340Y0056828D01*
X0072145Y0056846D01*
X0071949Y0056860D01*
X0071752Y0056868D01*
X0071556Y0056872D01*
X0071359Y0056871D01*
X0071163Y0056865D01*
X0070967Y0056854D01*
X0070771Y0056839D01*
X0070575Y0056819D01*
X0070380Y0056794D01*
X0070186Y0056765D01*
X0069992Y0056731D01*
X0069800Y0056692D01*
X0069608Y0056648D01*
X0069418Y0056600D01*
X0069228Y0056547D01*
X0069040Y0056490D01*
X0068854Y0056428D01*
X0068669Y0056361D01*
X0068486Y0056291D01*
X0068304Y0056215D01*
X0068125Y0056136D01*
X0067947Y0056052D01*
X0067771Y0055963D01*
X0067598Y0055871D01*
X0067427Y0055774D01*
X0067258Y0055673D01*
X0067092Y0055568D01*
X0066928Y0055460D01*
X0066767Y0055347D01*
X0066609Y0055230D01*
X0066454Y0055110D01*
X0066302Y0054985D01*
X0066153Y0054858D01*
X0066006Y0054726D01*
X0065864Y0054591D01*
X0065724Y0054453D01*
X0065588Y0054311D01*
X0065455Y0054166D01*
X0065326Y0054018D01*
X0065201Y0053867D01*
X0057919Y0054084D02*
X0057788Y0054230D01*
X0057654Y0054374D01*
X0057516Y0054514D01*
X0057375Y0054651D01*
X0057231Y0054785D01*
X0057083Y0054915D01*
X0056933Y0055041D01*
X0056779Y0055163D01*
X0056623Y0055282D01*
X0056463Y0055397D01*
X0056301Y0055508D01*
X0056136Y0055616D01*
X0055969Y0055719D01*
X0055799Y0055818D01*
X0055627Y0055913D01*
X0055453Y0056003D01*
X0055276Y0056090D01*
X0055098Y0056172D01*
X0054917Y0056250D01*
X0054735Y0056323D01*
X0054551Y0056392D01*
X0054365Y0056456D01*
X0054178Y0056516D01*
X0053990Y0056572D01*
X0053800Y0056622D01*
X0053609Y0056669D01*
X0053417Y0056710D01*
X0053224Y0056747D01*
X0053030Y0056779D01*
X0052835Y0056807D01*
X0052640Y0056829D01*
X0052444Y0056847D01*
X0052248Y0056861D01*
X0052052Y0056869D01*
X0051855Y0056873D01*
X0051659Y0056872D01*
X0051462Y0056866D01*
X0051266Y0056855D01*
X0051070Y0056840D01*
X0050875Y0056820D01*
X0050680Y0056795D01*
X0050485Y0056766D01*
X0050292Y0056731D01*
X0050099Y0056693D01*
X0049907Y0056649D01*
X0049717Y0056601D01*
X0049528Y0056548D01*
X0049340Y0056491D01*
X0049153Y0056429D01*
X0048968Y0056362D01*
X0048785Y0056291D01*
X0048603Y0056216D01*
X0048424Y0056136D01*
X0048246Y0056052D01*
X0048070Y0055964D01*
X0047897Y0055872D01*
X0047726Y0055775D01*
X0047557Y0055674D01*
X0047391Y0055569D01*
X0047227Y0055460D01*
X0047066Y0055347D01*
X0046908Y0055231D01*
X0046753Y0055110D01*
X0046601Y0054986D01*
X0046452Y0054858D01*
X0046305Y0054727D01*
X0046163Y0054592D01*
X0046023Y0054453D01*
X0045887Y0054312D01*
X0045754Y0054167D01*
X0045625Y0054018D01*
X0045500Y0053867D01*
X0051300Y0122167D02*
X0032300Y0122167D01*
X0033300Y0124167D01*
X0039300Y0124167D01*
X0039300Y0164167D01*
X0051300Y0164167D01*
X0051300Y0124167D01*
X0051300Y0122167D01*
X0051300Y0124167D02*
X0039300Y0124167D01*
X0040300Y0126367D02*
X0040300Y0142367D01*
X0050300Y0142367D01*
X0050300Y0126367D01*
X0040300Y0126367D01*
X0042883Y0128587D02*
X0042952Y0128512D01*
X0043023Y0128440D01*
X0043097Y0128371D01*
X0043173Y0128305D01*
X0043252Y0128241D01*
X0043333Y0128181D01*
X0043416Y0128123D01*
X0043502Y0128069D01*
X0043589Y0128018D01*
X0043678Y0127970D01*
X0043770Y0127926D01*
X0043862Y0127885D01*
X0043956Y0127848D01*
X0044052Y0127814D01*
X0044148Y0127784D01*
X0044246Y0127758D01*
X0044345Y0127735D01*
X0044444Y0127716D01*
X0044544Y0127701D01*
X0044645Y0127689D01*
X0044746Y0127681D01*
X0044847Y0127678D01*
X0044948Y0127677D01*
X0045049Y0127681D01*
X0045150Y0127689D01*
X0045251Y0127700D01*
X0045351Y0127715D01*
X0045450Y0127734D01*
X0045549Y0127756D01*
X0045647Y0127783D01*
X0045744Y0127813D01*
X0045839Y0127846D01*
X0045933Y0127883D01*
X0046026Y0127924D01*
X0046117Y0127968D01*
X0046206Y0128016D01*
X0046294Y0128066D01*
X0046380Y0128120D01*
X0046463Y0128178D01*
X0046544Y0128238D01*
X0046623Y0128301D01*
X0046700Y0128368D01*
X0046800Y0128767D02*
X0044300Y0140767D01*
X0043800Y0140267D02*
X0046300Y0128267D01*
X0043016Y0128403D02*
X0042878Y0128592D01*
X0042744Y0128785D01*
X0042615Y0128981D01*
X0042491Y0129180D01*
X0042371Y0129382D01*
X0042257Y0129586D01*
X0042148Y0129794D01*
X0042044Y0130004D01*
X0041945Y0130216D01*
X0041851Y0130431D01*
X0041762Y0130648D01*
X0041679Y0130867D01*
X0041601Y0131089D01*
X0041529Y0131312D01*
X0041462Y0131536D01*
X0041401Y0131763D01*
X0041345Y0131990D01*
X0041294Y0132219D01*
X0041250Y0132450D01*
X0041211Y0132681D01*
X0041177Y0132913D01*
X0041149Y0133146D01*
X0041127Y0133379D01*
X0041111Y0133613D01*
X0041100Y0133847D01*
X0041095Y0134082D01*
X0041096Y0134316D01*
X0041103Y0134550D01*
X0041115Y0134785D01*
X0041133Y0135018D01*
X0041157Y0135252D01*
X0041186Y0135484D01*
X0041221Y0135716D01*
X0041262Y0135947D01*
X0041308Y0136177D01*
X0041360Y0136406D01*
X0041417Y0136633D01*
X0041480Y0136859D01*
X0041549Y0137083D01*
X0041623Y0137306D01*
X0041702Y0137526D01*
X0041787Y0137745D01*
X0041877Y0137961D01*
X0041972Y0138176D01*
X0042072Y0138387D01*
X0042178Y0138597D01*
X0042289Y0138803D01*
X0042404Y0139007D01*
X0042525Y0139208D01*
X0042651Y0139406D01*
X0042781Y0139601D01*
X0042916Y0139793D01*
X0043056Y0139981D01*
X0043200Y0140166D01*
X0043058Y0140001D02*
X0043107Y0140085D01*
X0043159Y0140166D01*
X0043214Y0140245D01*
X0043273Y0140322D01*
X0043334Y0140396D01*
X0043399Y0140468D01*
X0043467Y0140537D01*
X0043537Y0140603D01*
X0043610Y0140666D01*
X0043686Y0140726D01*
X0043764Y0140782D01*
X0043844Y0140836D01*
X0043926Y0140886D01*
X0044011Y0140933D01*
X0044097Y0140976D01*
X0044185Y0141016D01*
X0044275Y0141052D01*
X0044366Y0141084D01*
X0044458Y0141112D01*
X0044551Y0141137D01*
X0044645Y0141158D01*
X0044741Y0141174D01*
X0044836Y0141187D01*
X0044932Y0141196D01*
X0045029Y0141201D01*
X0045125Y0141202D01*
X0045222Y0141199D01*
X0045318Y0141192D01*
X0045414Y0141181D01*
X0045509Y0141166D01*
X0045604Y0141147D01*
X0045698Y0141124D01*
X0045790Y0141097D01*
X0045882Y0141067D01*
X0045972Y0141033D01*
X0046061Y0140995D01*
X0046148Y0140953D01*
X0046233Y0140908D01*
X0046317Y0140859D01*
X0046398Y0140807D01*
X0046477Y0140752D01*
X0046554Y0140693D01*
X0046628Y0140632D01*
X0046700Y0140567D01*
X0050300Y0146067D02*
X0040300Y0146067D01*
X0040300Y0162067D01*
X0050300Y0162067D01*
X0050300Y0146067D01*
X0046800Y0148467D02*
X0044300Y0160467D01*
X0043800Y0159967D02*
X0046300Y0147967D01*
X0046700Y0148068D02*
X0046623Y0148001D01*
X0046544Y0147938D01*
X0046463Y0147878D01*
X0046380Y0147820D01*
X0046294Y0147766D01*
X0046206Y0147716D01*
X0046117Y0147668D01*
X0046026Y0147624D01*
X0045933Y0147583D01*
X0045839Y0147546D01*
X0045744Y0147513D01*
X0045647Y0147483D01*
X0045549Y0147456D01*
X0045450Y0147434D01*
X0045351Y0147415D01*
X0045251Y0147400D01*
X0045150Y0147389D01*
X0045049Y0147381D01*
X0044948Y0147377D01*
X0044847Y0147378D01*
X0044746Y0147381D01*
X0044645Y0147389D01*
X0044544Y0147401D01*
X0044444Y0147416D01*
X0044345Y0147435D01*
X0044246Y0147458D01*
X0044148Y0147484D01*
X0044052Y0147514D01*
X0043956Y0147548D01*
X0043862Y0147585D01*
X0043770Y0147626D01*
X0043678Y0147670D01*
X0043589Y0147718D01*
X0043502Y0147769D01*
X0043416Y0147823D01*
X0043333Y0147881D01*
X0043252Y0147941D01*
X0043173Y0148005D01*
X0043097Y0148071D01*
X0043023Y0148140D01*
X0042952Y0148212D01*
X0042883Y0148287D01*
X0046717Y0148047D02*
X0046863Y0148178D01*
X0047007Y0148312D01*
X0047147Y0148450D01*
X0047284Y0148591D01*
X0047418Y0148735D01*
X0047548Y0148883D01*
X0047674Y0149033D01*
X0047796Y0149187D01*
X0047915Y0149343D01*
X0048030Y0149503D01*
X0048141Y0149665D01*
X0048249Y0149830D01*
X0048352Y0149997D01*
X0048451Y0150167D01*
X0048546Y0150339D01*
X0048636Y0150513D01*
X0048723Y0150690D01*
X0048805Y0150868D01*
X0048883Y0151049D01*
X0048956Y0151231D01*
X0049025Y0151415D01*
X0049089Y0151601D01*
X0049149Y0151788D01*
X0049205Y0151976D01*
X0049255Y0152166D01*
X0049302Y0152357D01*
X0049343Y0152549D01*
X0049380Y0152742D01*
X0049412Y0152936D01*
X0049440Y0153131D01*
X0049462Y0153326D01*
X0049480Y0153522D01*
X0049494Y0153718D01*
X0049502Y0153914D01*
X0049506Y0154111D01*
X0049505Y0154307D01*
X0049499Y0154504D01*
X0049488Y0154700D01*
X0049473Y0154896D01*
X0049453Y0155091D01*
X0049428Y0155286D01*
X0049399Y0155481D01*
X0049364Y0155674D01*
X0049326Y0155867D01*
X0049282Y0156059D01*
X0049234Y0156249D01*
X0049181Y0156438D01*
X0049124Y0156626D01*
X0049062Y0156813D01*
X0048995Y0156998D01*
X0048924Y0157181D01*
X0048849Y0157363D01*
X0048769Y0157542D01*
X0048685Y0157720D01*
X0048597Y0157896D01*
X0048505Y0158069D01*
X0048408Y0158240D01*
X0048307Y0158409D01*
X0048202Y0158575D01*
X0048093Y0158739D01*
X0047980Y0158900D01*
X0047864Y0159058D01*
X0047743Y0159213D01*
X0047619Y0159365D01*
X0047491Y0159514D01*
X0047360Y0159661D01*
X0047225Y0159803D01*
X0047086Y0159943D01*
X0046945Y0160079D01*
X0046800Y0160212D01*
X0046651Y0160341D01*
X0046500Y0160466D01*
X0046700Y0160267D02*
X0046628Y0160332D01*
X0046554Y0160393D01*
X0046477Y0160452D01*
X0046398Y0160507D01*
X0046317Y0160559D01*
X0046233Y0160608D01*
X0046148Y0160653D01*
X0046061Y0160695D01*
X0045972Y0160733D01*
X0045882Y0160767D01*
X0045790Y0160797D01*
X0045698Y0160824D01*
X0045604Y0160847D01*
X0045509Y0160866D01*
X0045414Y0160881D01*
X0045318Y0160892D01*
X0045222Y0160899D01*
X0045125Y0160902D01*
X0045029Y0160901D01*
X0044932Y0160896D01*
X0044836Y0160887D01*
X0044741Y0160874D01*
X0044645Y0160858D01*
X0044551Y0160837D01*
X0044458Y0160812D01*
X0044366Y0160784D01*
X0044275Y0160752D01*
X0044185Y0160716D01*
X0044097Y0160676D01*
X0044011Y0160633D01*
X0043926Y0160586D01*
X0043844Y0160536D01*
X0043764Y0160482D01*
X0043686Y0160426D01*
X0043610Y0160366D01*
X0043537Y0160303D01*
X0043467Y0160237D01*
X0043399Y0160168D01*
X0043334Y0160096D01*
X0043273Y0160022D01*
X0043214Y0159945D01*
X0043159Y0159866D01*
X0043107Y0159785D01*
X0043058Y0159701D01*
X0039300Y0164167D02*
X0029300Y0164167D01*
X0029300Y0160567D01*
X0027800Y0160567D02*
X0027800Y0162067D01*
X0009800Y0162067D01*
X0002300Y0162067D01*
X0002300Y0146067D01*
X0002300Y0142367D01*
X0002300Y0126367D01*
X0009800Y0126367D01*
X0009800Y0142367D01*
X0027800Y0142367D01*
X0027800Y0140867D01*
X0029300Y0140867D02*
X0029300Y0147567D01*
X0027800Y0147567D02*
X0027800Y0146067D01*
X0009800Y0146067D01*
X0009800Y0162067D01*
X0012300Y0160567D02*
X0024800Y0160567D01*
X0029300Y0164167D02*
X0002300Y0164167D01*
X0002300Y0162067D01*
X0012300Y0160567D02*
X0012300Y0147567D01*
X0024800Y0147567D01*
X0024800Y0140867D02*
X0012300Y0140867D01*
X0012300Y0127867D01*
X0024800Y0127867D01*
X0027800Y0127867D02*
X0027800Y0126367D01*
X0009800Y0126367D01*
X0010800Y0124167D02*
X0006300Y0124167D01*
X0002300Y0124167D01*
X0002300Y0126367D01*
X0006300Y0124167D02*
X0005300Y0122167D01*
X0011800Y0122167D01*
X0010800Y0124167D01*
X0029300Y0124167D01*
X0029300Y0127867D01*
X0029300Y0124167D02*
X0033300Y0124167D01*
X0046716Y0128349D02*
X0046862Y0128479D01*
X0047006Y0128613D01*
X0047146Y0128751D01*
X0047283Y0128892D01*
X0047417Y0129036D01*
X0047546Y0129184D01*
X0047673Y0129334D01*
X0047795Y0129488D01*
X0047914Y0129644D01*
X0048029Y0129804D01*
X0048140Y0129966D01*
X0048247Y0130131D01*
X0048351Y0130298D01*
X0048450Y0130468D01*
X0048544Y0130640D01*
X0048635Y0130814D01*
X0048722Y0130991D01*
X0048804Y0131169D01*
X0048881Y0131350D01*
X0048955Y0131532D01*
X0049024Y0131716D01*
X0049088Y0131901D01*
X0049148Y0132089D01*
X0049204Y0132277D01*
X0049254Y0132467D01*
X0049301Y0132658D01*
X0049342Y0132850D01*
X0049379Y0133043D01*
X0049411Y0133237D01*
X0049439Y0133432D01*
X0049461Y0133627D01*
X0049479Y0133822D01*
X0049493Y0134018D01*
X0049501Y0134215D01*
X0049505Y0134411D01*
X0049504Y0134608D01*
X0049498Y0134804D01*
X0049487Y0135000D01*
X0049472Y0135196D01*
X0049452Y0135392D01*
X0049427Y0135587D01*
X0049398Y0135781D01*
X0049364Y0135975D01*
X0049325Y0136167D01*
X0049281Y0136359D01*
X0049233Y0136549D01*
X0049180Y0136739D01*
X0049123Y0136927D01*
X0049061Y0137113D01*
X0048994Y0137298D01*
X0048924Y0137481D01*
X0048848Y0137663D01*
X0048769Y0137842D01*
X0048685Y0138020D01*
X0048596Y0138196D01*
X0048504Y0138369D01*
X0048407Y0138540D01*
X0048306Y0138709D01*
X0048201Y0138875D01*
X0048093Y0139039D01*
X0047980Y0139200D01*
X0047863Y0139358D01*
X0047743Y0139513D01*
X0047618Y0139665D01*
X0047491Y0139814D01*
X0047359Y0139961D01*
X0047224Y0140103D01*
X0047086Y0140243D01*
X0046944Y0140379D01*
X0046799Y0140512D01*
X0046651Y0140641D01*
X0046500Y0140766D01*
X0043016Y0148103D02*
X0042877Y0148293D01*
X0042744Y0148485D01*
X0042615Y0148681D01*
X0042491Y0148880D01*
X0042371Y0149082D01*
X0042257Y0149287D01*
X0042148Y0149494D01*
X0042044Y0149704D01*
X0041945Y0149917D01*
X0041851Y0150132D01*
X0041762Y0150349D01*
X0041679Y0150568D01*
X0041601Y0150789D01*
X0041529Y0151012D01*
X0041462Y0151237D01*
X0041400Y0151463D01*
X0041345Y0151691D01*
X0041294Y0151920D01*
X0041250Y0152150D01*
X0041210Y0152381D01*
X0041177Y0152613D01*
X0041149Y0152846D01*
X0041127Y0153079D01*
X0041111Y0153313D01*
X0041100Y0153548D01*
X0041095Y0153782D01*
X0041096Y0154016D01*
X0041103Y0154251D01*
X0041115Y0154485D01*
X0041133Y0154719D01*
X0041157Y0154952D01*
X0041186Y0155185D01*
X0041221Y0155416D01*
X0041262Y0155647D01*
X0041308Y0155877D01*
X0041360Y0156106D01*
X0041417Y0156333D01*
X0041480Y0156559D01*
X0041549Y0156783D01*
X0041623Y0157006D01*
X0041702Y0157226D01*
X0041787Y0157445D01*
X0041877Y0157662D01*
X0041972Y0157876D01*
X0042073Y0158088D01*
X0042178Y0158297D01*
X0042289Y0158504D01*
X0042405Y0158708D01*
X0042525Y0158909D01*
X0042651Y0159107D01*
X0042781Y0159302D01*
X0042916Y0159493D01*
X0043056Y0159682D01*
X0043200Y0159866D01*
X0009800Y0146067D02*
X0002300Y0146067D01*
X0002300Y0142367D02*
X0009800Y0142367D01*
X0119300Y0150667D02*
X0119300Y0157667D01*
X0119302Y0157727D01*
X0119307Y0157788D01*
X0119316Y0157847D01*
X0119329Y0157906D01*
X0119345Y0157965D01*
X0119365Y0158022D01*
X0119388Y0158077D01*
X0119415Y0158132D01*
X0119444Y0158184D01*
X0119477Y0158235D01*
X0119513Y0158284D01*
X0119551Y0158330D01*
X0119593Y0158374D01*
X0119637Y0158416D01*
X0119683Y0158454D01*
X0119732Y0158490D01*
X0119783Y0158523D01*
X0119835Y0158552D01*
X0119890Y0158579D01*
X0119945Y0158602D01*
X0120002Y0158622D01*
X0120061Y0158638D01*
X0120120Y0158651D01*
X0120179Y0158660D01*
X0120240Y0158665D01*
X0120300Y0158667D01*
X0121800Y0158667D01*
X0122300Y0158167D01*
X0141300Y0158167D01*
X0141800Y0158667D01*
X0143300Y0158667D01*
X0143360Y0158665D01*
X0143421Y0158660D01*
X0143480Y0158651D01*
X0143539Y0158638D01*
X0143598Y0158622D01*
X0143655Y0158602D01*
X0143710Y0158579D01*
X0143765Y0158552D01*
X0143817Y0158523D01*
X0143868Y0158490D01*
X0143917Y0158454D01*
X0143963Y0158416D01*
X0144007Y0158374D01*
X0144049Y0158330D01*
X0144087Y0158284D01*
X0144123Y0158235D01*
X0144156Y0158184D01*
X0144185Y0158132D01*
X0144212Y0158077D01*
X0144235Y0158022D01*
X0144255Y0157965D01*
X0144271Y0157906D01*
X0144284Y0157847D01*
X0144293Y0157788D01*
X0144298Y0157727D01*
X0144300Y0157667D01*
X0144300Y0150667D01*
X0144298Y0150607D01*
X0144293Y0150546D01*
X0144284Y0150487D01*
X0144271Y0150428D01*
X0144255Y0150369D01*
X0144235Y0150312D01*
X0144212Y0150257D01*
X0144185Y0150202D01*
X0144156Y0150150D01*
X0144123Y0150099D01*
X0144087Y0150050D01*
X0144049Y0150004D01*
X0144007Y0149960D01*
X0143963Y0149918D01*
X0143917Y0149880D01*
X0143868Y0149844D01*
X0143817Y0149811D01*
X0143765Y0149782D01*
X0143710Y0149755D01*
X0143655Y0149732D01*
X0143598Y0149712D01*
X0143539Y0149696D01*
X0143480Y0149683D01*
X0143421Y0149674D01*
X0143360Y0149669D01*
X0143300Y0149667D01*
X0141800Y0149667D01*
X0141300Y0150167D01*
X0122300Y0150167D01*
X0121800Y0149667D01*
X0120300Y0149667D01*
X0120240Y0149669D01*
X0120179Y0149674D01*
X0120120Y0149683D01*
X0120061Y0149696D01*
X0120002Y0149712D01*
X0119945Y0149732D01*
X0119890Y0149755D01*
X0119835Y0149782D01*
X0119783Y0149811D01*
X0119732Y0149844D01*
X0119683Y0149880D01*
X0119637Y0149918D01*
X0119593Y0149960D01*
X0119551Y0150004D01*
X0119513Y0150050D01*
X0119477Y0150099D01*
X0119444Y0150150D01*
X0119415Y0150202D01*
X0119388Y0150257D01*
X0119365Y0150312D01*
X0119345Y0150369D01*
X0119329Y0150428D01*
X0119316Y0150487D01*
X0119307Y0150546D01*
X0119302Y0150607D01*
X0119300Y0150667D01*
X0140300Y0123667D02*
X0141800Y0123667D01*
X0142300Y0123167D01*
X0161300Y0123167D01*
X0161800Y0123667D01*
X0163300Y0123667D01*
X0163360Y0123665D01*
X0163421Y0123660D01*
X0163480Y0123651D01*
X0163539Y0123638D01*
X0163598Y0123622D01*
X0163655Y0123602D01*
X0163710Y0123579D01*
X0163765Y0123552D01*
X0163817Y0123523D01*
X0163868Y0123490D01*
X0163917Y0123454D01*
X0163963Y0123416D01*
X0164007Y0123374D01*
X0164049Y0123330D01*
X0164087Y0123284D01*
X0164123Y0123235D01*
X0164156Y0123184D01*
X0164185Y0123132D01*
X0164212Y0123077D01*
X0164235Y0123022D01*
X0164255Y0122965D01*
X0164271Y0122906D01*
X0164284Y0122847D01*
X0164293Y0122788D01*
X0164298Y0122727D01*
X0164300Y0122667D01*
X0164300Y0115667D01*
X0164298Y0115607D01*
X0164293Y0115546D01*
X0164284Y0115487D01*
X0164271Y0115428D01*
X0164255Y0115369D01*
X0164235Y0115312D01*
X0164212Y0115257D01*
X0164185Y0115202D01*
X0164156Y0115150D01*
X0164123Y0115099D01*
X0164087Y0115050D01*
X0164049Y0115004D01*
X0164007Y0114960D01*
X0163963Y0114918D01*
X0163917Y0114880D01*
X0163868Y0114844D01*
X0163817Y0114811D01*
X0163765Y0114782D01*
X0163710Y0114755D01*
X0163655Y0114732D01*
X0163598Y0114712D01*
X0163539Y0114696D01*
X0163480Y0114683D01*
X0163421Y0114674D01*
X0163360Y0114669D01*
X0163300Y0114667D01*
X0161800Y0114667D01*
X0161300Y0115167D01*
X0142300Y0115167D01*
X0141800Y0114667D01*
X0140300Y0114667D01*
X0140240Y0114669D01*
X0140179Y0114674D01*
X0140120Y0114683D01*
X0140061Y0114696D01*
X0140002Y0114712D01*
X0139945Y0114732D01*
X0139890Y0114755D01*
X0139835Y0114782D01*
X0139783Y0114811D01*
X0139732Y0114844D01*
X0139683Y0114880D01*
X0139637Y0114918D01*
X0139593Y0114960D01*
X0139551Y0115004D01*
X0139513Y0115050D01*
X0139477Y0115099D01*
X0139444Y0115150D01*
X0139415Y0115202D01*
X0139388Y0115257D01*
X0139365Y0115312D01*
X0139345Y0115369D01*
X0139329Y0115428D01*
X0139316Y0115487D01*
X0139307Y0115546D01*
X0139302Y0115607D01*
X0139300Y0115667D01*
X0139300Y0122667D01*
X0139302Y0122727D01*
X0139307Y0122788D01*
X0139316Y0122847D01*
X0139329Y0122906D01*
X0139345Y0122965D01*
X0139365Y0123022D01*
X0139388Y0123077D01*
X0139415Y0123132D01*
X0139444Y0123184D01*
X0139477Y0123235D01*
X0139513Y0123284D01*
X0139551Y0123330D01*
X0139593Y0123374D01*
X0139637Y0123416D01*
X0139683Y0123454D01*
X0139732Y0123490D01*
X0139783Y0123523D01*
X0139835Y0123552D01*
X0139890Y0123579D01*
X0139945Y0123602D01*
X0140002Y0123622D01*
X0140061Y0123638D01*
X0140120Y0123651D01*
X0140179Y0123660D01*
X0140240Y0123665D01*
X0140300Y0123667D01*
X0175300Y0089167D02*
X0198300Y0089167D01*
X0198300Y0009167D01*
X0190800Y0009167D01*
X0190798Y0009293D01*
X0190792Y0009418D01*
X0190782Y0009543D01*
X0190768Y0009668D01*
X0190751Y0009793D01*
X0190729Y0009917D01*
X0190704Y0010040D01*
X0190674Y0010162D01*
X0190641Y0010283D01*
X0190604Y0010403D01*
X0190564Y0010522D01*
X0190519Y0010639D01*
X0190471Y0010756D01*
X0190419Y0010870D01*
X0190364Y0010983D01*
X0190305Y0011094D01*
X0190243Y0011203D01*
X0190177Y0011310D01*
X0190108Y0011415D01*
X0190036Y0011518D01*
X0189961Y0011619D01*
X0189882Y0011717D01*
X0189800Y0011812D01*
X0189716Y0011905D01*
X0189628Y0011995D01*
X0189538Y0012083D01*
X0189445Y0012167D01*
X0189350Y0012249D01*
X0189252Y0012328D01*
X0189151Y0012403D01*
X0189048Y0012475D01*
X0188943Y0012544D01*
X0188836Y0012610D01*
X0188727Y0012672D01*
X0188616Y0012731D01*
X0188503Y0012786D01*
X0188389Y0012838D01*
X0188272Y0012886D01*
X0188155Y0012931D01*
X0188036Y0012971D01*
X0187916Y0013008D01*
X0187795Y0013041D01*
X0187673Y0013071D01*
X0187550Y0013096D01*
X0187426Y0013118D01*
X0187301Y0013135D01*
X0187176Y0013149D01*
X0187051Y0013159D01*
X0186926Y0013165D01*
X0186800Y0013167D01*
X0186674Y0013165D01*
X0186549Y0013159D01*
X0186424Y0013149D01*
X0186299Y0013135D01*
X0186174Y0013118D01*
X0186050Y0013096D01*
X0185927Y0013071D01*
X0185805Y0013041D01*
X0185684Y0013008D01*
X0185564Y0012971D01*
X0185445Y0012931D01*
X0185328Y0012886D01*
X0185211Y0012838D01*
X0185097Y0012786D01*
X0184984Y0012731D01*
X0184873Y0012672D01*
X0184764Y0012610D01*
X0184657Y0012544D01*
X0184552Y0012475D01*
X0184449Y0012403D01*
X0184348Y0012328D01*
X0184250Y0012249D01*
X0184155Y0012167D01*
X0184062Y0012083D01*
X0183972Y0011995D01*
X0183884Y0011905D01*
X0183800Y0011812D01*
X0183718Y0011717D01*
X0183639Y0011619D01*
X0183564Y0011518D01*
X0183492Y0011415D01*
X0183423Y0011310D01*
X0183357Y0011203D01*
X0183295Y0011094D01*
X0183236Y0010983D01*
X0183181Y0010870D01*
X0183129Y0010756D01*
X0183081Y0010639D01*
X0183036Y0010522D01*
X0182996Y0010403D01*
X0182959Y0010283D01*
X0182926Y0010162D01*
X0182896Y0010040D01*
X0182871Y0009917D01*
X0182849Y0009793D01*
X0182832Y0009668D01*
X0182818Y0009543D01*
X0182808Y0009418D01*
X0182802Y0009293D01*
X0182800Y0009167D01*
X0175300Y0009167D01*
X0175300Y0089167D01*
X0209300Y0115667D02*
X0209300Y0122667D01*
X0209302Y0122727D01*
X0209307Y0122788D01*
X0209316Y0122847D01*
X0209329Y0122906D01*
X0209345Y0122965D01*
X0209365Y0123022D01*
X0209388Y0123077D01*
X0209415Y0123132D01*
X0209444Y0123184D01*
X0209477Y0123235D01*
X0209513Y0123284D01*
X0209551Y0123330D01*
X0209593Y0123374D01*
X0209637Y0123416D01*
X0209683Y0123454D01*
X0209732Y0123490D01*
X0209783Y0123523D01*
X0209835Y0123552D01*
X0209890Y0123579D01*
X0209945Y0123602D01*
X0210002Y0123622D01*
X0210061Y0123638D01*
X0210120Y0123651D01*
X0210179Y0123660D01*
X0210240Y0123665D01*
X0210300Y0123667D01*
X0211800Y0123667D01*
X0212300Y0123167D01*
X0231300Y0123167D01*
X0231800Y0123667D01*
X0233300Y0123667D01*
X0233360Y0123665D01*
X0233421Y0123660D01*
X0233480Y0123651D01*
X0233539Y0123638D01*
X0233598Y0123622D01*
X0233655Y0123602D01*
X0233710Y0123579D01*
X0233765Y0123552D01*
X0233817Y0123523D01*
X0233868Y0123490D01*
X0233917Y0123454D01*
X0233963Y0123416D01*
X0234007Y0123374D01*
X0234049Y0123330D01*
X0234087Y0123284D01*
X0234123Y0123235D01*
X0234156Y0123184D01*
X0234185Y0123132D01*
X0234212Y0123077D01*
X0234235Y0123022D01*
X0234255Y0122965D01*
X0234271Y0122906D01*
X0234284Y0122847D01*
X0234293Y0122788D01*
X0234298Y0122727D01*
X0234300Y0122667D01*
X0234300Y0115667D01*
X0234298Y0115607D01*
X0234293Y0115546D01*
X0234284Y0115487D01*
X0234271Y0115428D01*
X0234255Y0115369D01*
X0234235Y0115312D01*
X0234212Y0115257D01*
X0234185Y0115202D01*
X0234156Y0115150D01*
X0234123Y0115099D01*
X0234087Y0115050D01*
X0234049Y0115004D01*
X0234007Y0114960D01*
X0233963Y0114918D01*
X0233917Y0114880D01*
X0233868Y0114844D01*
X0233817Y0114811D01*
X0233765Y0114782D01*
X0233710Y0114755D01*
X0233655Y0114732D01*
X0233598Y0114712D01*
X0233539Y0114696D01*
X0233480Y0114683D01*
X0233421Y0114674D01*
X0233360Y0114669D01*
X0233300Y0114667D01*
X0231800Y0114667D01*
X0231300Y0115167D01*
X0212300Y0115167D01*
X0211800Y0114667D01*
X0210300Y0114667D01*
X0210240Y0114669D01*
X0210179Y0114674D01*
X0210120Y0114683D01*
X0210061Y0114696D01*
X0210002Y0114712D01*
X0209945Y0114732D01*
X0209890Y0114755D01*
X0209835Y0114782D01*
X0209783Y0114811D01*
X0209732Y0114844D01*
X0209683Y0114880D01*
X0209637Y0114918D01*
X0209593Y0114960D01*
X0209551Y0115004D01*
X0209513Y0115050D01*
X0209477Y0115099D01*
X0209444Y0115150D01*
X0209415Y0115202D01*
X0209388Y0115257D01*
X0209365Y0115312D01*
X0209345Y0115369D01*
X0209329Y0115428D01*
X0209316Y0115487D01*
X0209307Y0115546D01*
X0209302Y0115607D01*
X0209300Y0115667D01*
X0230300Y0149667D02*
X0231800Y0149667D01*
X0232300Y0150167D01*
X0251300Y0150167D01*
X0251800Y0149667D01*
X0253300Y0149667D01*
X0253360Y0149669D01*
X0253421Y0149674D01*
X0253480Y0149683D01*
X0253539Y0149696D01*
X0253598Y0149712D01*
X0253655Y0149732D01*
X0253710Y0149755D01*
X0253765Y0149782D01*
X0253817Y0149811D01*
X0253868Y0149844D01*
X0253917Y0149880D01*
X0253963Y0149918D01*
X0254007Y0149960D01*
X0254049Y0150004D01*
X0254087Y0150050D01*
X0254123Y0150099D01*
X0254156Y0150150D01*
X0254185Y0150202D01*
X0254212Y0150257D01*
X0254235Y0150312D01*
X0254255Y0150369D01*
X0254271Y0150428D01*
X0254284Y0150487D01*
X0254293Y0150546D01*
X0254298Y0150607D01*
X0254300Y0150667D01*
X0254300Y0157667D01*
X0254298Y0157727D01*
X0254293Y0157788D01*
X0254284Y0157847D01*
X0254271Y0157906D01*
X0254255Y0157965D01*
X0254235Y0158022D01*
X0254212Y0158077D01*
X0254185Y0158132D01*
X0254156Y0158184D01*
X0254123Y0158235D01*
X0254087Y0158284D01*
X0254049Y0158330D01*
X0254007Y0158374D01*
X0253963Y0158416D01*
X0253917Y0158454D01*
X0253868Y0158490D01*
X0253817Y0158523D01*
X0253765Y0158552D01*
X0253710Y0158579D01*
X0253655Y0158602D01*
X0253598Y0158622D01*
X0253539Y0158638D01*
X0253480Y0158651D01*
X0253421Y0158660D01*
X0253360Y0158665D01*
X0253300Y0158667D01*
X0251800Y0158667D01*
X0251300Y0158167D01*
X0232300Y0158167D01*
X0231800Y0158667D01*
X0230300Y0158667D01*
X0230240Y0158665D01*
X0230179Y0158660D01*
X0230120Y0158651D01*
X0230061Y0158638D01*
X0230002Y0158622D01*
X0229945Y0158602D01*
X0229890Y0158579D01*
X0229835Y0158552D01*
X0229783Y0158523D01*
X0229732Y0158490D01*
X0229683Y0158454D01*
X0229637Y0158416D01*
X0229593Y0158374D01*
X0229551Y0158330D01*
X0229513Y0158284D01*
X0229477Y0158235D01*
X0229444Y0158184D01*
X0229415Y0158132D01*
X0229388Y0158077D01*
X0229365Y0158022D01*
X0229345Y0157965D01*
X0229329Y0157906D01*
X0229316Y0157847D01*
X0229307Y0157788D01*
X0229302Y0157727D01*
X0229300Y0157667D01*
X0229300Y0150667D01*
X0229302Y0150607D01*
X0229307Y0150546D01*
X0229316Y0150487D01*
X0229329Y0150428D01*
X0229345Y0150369D01*
X0229365Y0150312D01*
X0229388Y0150257D01*
X0229415Y0150202D01*
X0229444Y0150150D01*
X0229477Y0150099D01*
X0229513Y0150050D01*
X0229551Y0150004D01*
X0229593Y0149960D01*
X0229637Y0149918D01*
X0229683Y0149880D01*
X0229732Y0149844D01*
X0229783Y0149811D01*
X0229835Y0149782D01*
X0229890Y0149755D01*
X0229945Y0149732D01*
X0230002Y0149712D01*
X0230061Y0149696D01*
X0230120Y0149683D01*
X0230179Y0149674D01*
X0230240Y0149669D01*
X0230300Y0149667D01*
X0231800Y0182667D02*
X0231800Y0190167D01*
X0231674Y0190169D01*
X0231549Y0190175D01*
X0231424Y0190185D01*
X0231299Y0190199D01*
X0231174Y0190216D01*
X0231050Y0190238D01*
X0230927Y0190263D01*
X0230805Y0190293D01*
X0230684Y0190326D01*
X0230564Y0190363D01*
X0230445Y0190403D01*
X0230328Y0190448D01*
X0230211Y0190496D01*
X0230097Y0190548D01*
X0229984Y0190603D01*
X0229873Y0190662D01*
X0229764Y0190724D01*
X0229657Y0190790D01*
X0229552Y0190859D01*
X0229449Y0190931D01*
X0229348Y0191006D01*
X0229250Y0191085D01*
X0229155Y0191167D01*
X0229062Y0191251D01*
X0228972Y0191339D01*
X0228884Y0191429D01*
X0228800Y0191522D01*
X0228718Y0191617D01*
X0228639Y0191715D01*
X0228564Y0191816D01*
X0228492Y0191919D01*
X0228423Y0192024D01*
X0228357Y0192131D01*
X0228295Y0192240D01*
X0228236Y0192351D01*
X0228181Y0192464D01*
X0228129Y0192578D01*
X0228081Y0192695D01*
X0228036Y0192812D01*
X0227996Y0192931D01*
X0227959Y0193051D01*
X0227926Y0193172D01*
X0227896Y0193294D01*
X0227871Y0193417D01*
X0227849Y0193541D01*
X0227832Y0193666D01*
X0227818Y0193791D01*
X0227808Y0193916D01*
X0227802Y0194041D01*
X0227800Y0194167D01*
X0227802Y0194293D01*
X0227808Y0194418D01*
X0227818Y0194543D01*
X0227832Y0194668D01*
X0227849Y0194793D01*
X0227871Y0194917D01*
X0227896Y0195040D01*
X0227926Y0195162D01*
X0227959Y0195283D01*
X0227996Y0195403D01*
X0228036Y0195522D01*
X0228081Y0195639D01*
X0228129Y0195756D01*
X0228181Y0195870D01*
X0228236Y0195983D01*
X0228295Y0196094D01*
X0228357Y0196203D01*
X0228423Y0196310D01*
X0228492Y0196415D01*
X0228564Y0196518D01*
X0228639Y0196619D01*
X0228718Y0196717D01*
X0228800Y0196812D01*
X0228884Y0196905D01*
X0228972Y0196995D01*
X0229062Y0197083D01*
X0229155Y0197167D01*
X0229250Y0197249D01*
X0229348Y0197328D01*
X0229449Y0197403D01*
X0229552Y0197475D01*
X0229657Y0197544D01*
X0229764Y0197610D01*
X0229873Y0197672D01*
X0229984Y0197731D01*
X0230097Y0197786D01*
X0230211Y0197838D01*
X0230328Y0197886D01*
X0230445Y0197931D01*
X0230564Y0197971D01*
X0230684Y0198008D01*
X0230805Y0198041D01*
X0230927Y0198071D01*
X0231050Y0198096D01*
X0231174Y0198118D01*
X0231299Y0198135D01*
X0231424Y0198149D01*
X0231549Y0198159D01*
X0231674Y0198165D01*
X0231800Y0198167D01*
X0231800Y0205667D01*
X0151800Y0205667D01*
X0151800Y0182667D01*
X0231800Y0182667D01*
X0231800Y0234667D02*
X0233300Y0234667D01*
X0233360Y0234669D01*
X0233421Y0234674D01*
X0233480Y0234683D01*
X0233539Y0234696D01*
X0233598Y0234712D01*
X0233655Y0234732D01*
X0233710Y0234755D01*
X0233765Y0234782D01*
X0233817Y0234811D01*
X0233868Y0234844D01*
X0233917Y0234880D01*
X0233963Y0234918D01*
X0234007Y0234960D01*
X0234049Y0235004D01*
X0234087Y0235050D01*
X0234123Y0235099D01*
X0234156Y0235150D01*
X0234185Y0235202D01*
X0234212Y0235257D01*
X0234235Y0235312D01*
X0234255Y0235369D01*
X0234271Y0235428D01*
X0234284Y0235487D01*
X0234293Y0235546D01*
X0234298Y0235607D01*
X0234300Y0235667D01*
X0234300Y0242667D01*
X0234298Y0242727D01*
X0234293Y0242788D01*
X0234284Y0242847D01*
X0234271Y0242906D01*
X0234255Y0242965D01*
X0234235Y0243022D01*
X0234212Y0243077D01*
X0234185Y0243132D01*
X0234156Y0243184D01*
X0234123Y0243235D01*
X0234087Y0243284D01*
X0234049Y0243330D01*
X0234007Y0243374D01*
X0233963Y0243416D01*
X0233917Y0243454D01*
X0233868Y0243490D01*
X0233817Y0243523D01*
X0233765Y0243552D01*
X0233710Y0243579D01*
X0233655Y0243602D01*
X0233598Y0243622D01*
X0233539Y0243638D01*
X0233480Y0243651D01*
X0233421Y0243660D01*
X0233360Y0243665D01*
X0233300Y0243667D01*
X0231800Y0243667D01*
X0231300Y0243167D01*
X0212300Y0243167D01*
X0211800Y0243667D01*
X0210300Y0243667D01*
X0210240Y0243665D01*
X0210179Y0243660D01*
X0210120Y0243651D01*
X0210061Y0243638D01*
X0210002Y0243622D01*
X0209945Y0243602D01*
X0209890Y0243579D01*
X0209835Y0243552D01*
X0209783Y0243523D01*
X0209732Y0243490D01*
X0209683Y0243454D01*
X0209637Y0243416D01*
X0209593Y0243374D01*
X0209551Y0243330D01*
X0209513Y0243284D01*
X0209477Y0243235D01*
X0209444Y0243184D01*
X0209415Y0243132D01*
X0209388Y0243077D01*
X0209365Y0243022D01*
X0209345Y0242965D01*
X0209329Y0242906D01*
X0209316Y0242847D01*
X0209307Y0242788D01*
X0209302Y0242727D01*
X0209300Y0242667D01*
X0209300Y0235667D01*
X0209302Y0235607D01*
X0209307Y0235546D01*
X0209316Y0235487D01*
X0209329Y0235428D01*
X0209345Y0235369D01*
X0209365Y0235312D01*
X0209388Y0235257D01*
X0209415Y0235202D01*
X0209444Y0235150D01*
X0209477Y0235099D01*
X0209513Y0235050D01*
X0209551Y0235004D01*
X0209593Y0234960D01*
X0209637Y0234918D01*
X0209683Y0234880D01*
X0209732Y0234844D01*
X0209783Y0234811D01*
X0209835Y0234782D01*
X0209890Y0234755D01*
X0209945Y0234732D01*
X0210002Y0234712D01*
X0210061Y0234696D01*
X0210120Y0234683D01*
X0210179Y0234674D01*
X0210240Y0234669D01*
X0210300Y0234667D01*
X0211800Y0234667D01*
X0212300Y0235167D01*
X0231300Y0235167D01*
X0231800Y0234667D01*
X0231800Y0259667D02*
X0232300Y0260167D01*
X0251300Y0260167D01*
X0251800Y0259667D01*
X0253300Y0259667D01*
X0253360Y0259669D01*
X0253421Y0259674D01*
X0253480Y0259683D01*
X0253539Y0259696D01*
X0253598Y0259712D01*
X0253655Y0259732D01*
X0253710Y0259755D01*
X0253765Y0259782D01*
X0253817Y0259811D01*
X0253868Y0259844D01*
X0253917Y0259880D01*
X0253963Y0259918D01*
X0254007Y0259960D01*
X0254049Y0260004D01*
X0254087Y0260050D01*
X0254123Y0260099D01*
X0254156Y0260150D01*
X0254185Y0260202D01*
X0254212Y0260257D01*
X0254235Y0260312D01*
X0254255Y0260369D01*
X0254271Y0260428D01*
X0254284Y0260487D01*
X0254293Y0260546D01*
X0254298Y0260607D01*
X0254300Y0260667D01*
X0254300Y0267667D01*
X0254298Y0267727D01*
X0254293Y0267788D01*
X0254284Y0267847D01*
X0254271Y0267906D01*
X0254255Y0267965D01*
X0254235Y0268022D01*
X0254212Y0268077D01*
X0254185Y0268132D01*
X0254156Y0268184D01*
X0254123Y0268235D01*
X0254087Y0268284D01*
X0254049Y0268330D01*
X0254007Y0268374D01*
X0253963Y0268416D01*
X0253917Y0268454D01*
X0253868Y0268490D01*
X0253817Y0268523D01*
X0253765Y0268552D01*
X0253710Y0268579D01*
X0253655Y0268602D01*
X0253598Y0268622D01*
X0253539Y0268638D01*
X0253480Y0268651D01*
X0253421Y0268660D01*
X0253360Y0268665D01*
X0253300Y0268667D01*
X0251800Y0268667D01*
X0251300Y0268167D01*
X0232300Y0268167D01*
X0231800Y0268667D01*
X0230300Y0268667D01*
X0230240Y0268665D01*
X0230179Y0268660D01*
X0230120Y0268651D01*
X0230061Y0268638D01*
X0230002Y0268622D01*
X0229945Y0268602D01*
X0229890Y0268579D01*
X0229835Y0268552D01*
X0229783Y0268523D01*
X0229732Y0268490D01*
X0229683Y0268454D01*
X0229637Y0268416D01*
X0229593Y0268374D01*
X0229551Y0268330D01*
X0229513Y0268284D01*
X0229477Y0268235D01*
X0229444Y0268184D01*
X0229415Y0268132D01*
X0229388Y0268077D01*
X0229365Y0268022D01*
X0229345Y0267965D01*
X0229329Y0267906D01*
X0229316Y0267847D01*
X0229307Y0267788D01*
X0229302Y0267727D01*
X0229300Y0267667D01*
X0229300Y0260667D01*
X0229302Y0260607D01*
X0229307Y0260546D01*
X0229316Y0260487D01*
X0229329Y0260428D01*
X0229345Y0260369D01*
X0229365Y0260312D01*
X0229388Y0260257D01*
X0229415Y0260202D01*
X0229444Y0260150D01*
X0229477Y0260099D01*
X0229513Y0260050D01*
X0229551Y0260004D01*
X0229593Y0259960D01*
X0229637Y0259918D01*
X0229683Y0259880D01*
X0229732Y0259844D01*
X0229783Y0259811D01*
X0229835Y0259782D01*
X0229890Y0259755D01*
X0229945Y0259732D01*
X0230002Y0259712D01*
X0230061Y0259696D01*
X0230120Y0259683D01*
X0230179Y0259674D01*
X0230240Y0259669D01*
X0230300Y0259667D01*
X0231800Y0259667D01*
X0164300Y0242667D02*
X0164300Y0235667D01*
X0164298Y0235607D01*
X0164293Y0235546D01*
X0164284Y0235487D01*
X0164271Y0235428D01*
X0164255Y0235369D01*
X0164235Y0235312D01*
X0164212Y0235257D01*
X0164185Y0235202D01*
X0164156Y0235150D01*
X0164123Y0235099D01*
X0164087Y0235050D01*
X0164049Y0235004D01*
X0164007Y0234960D01*
X0163963Y0234918D01*
X0163917Y0234880D01*
X0163868Y0234844D01*
X0163817Y0234811D01*
X0163765Y0234782D01*
X0163710Y0234755D01*
X0163655Y0234732D01*
X0163598Y0234712D01*
X0163539Y0234696D01*
X0163480Y0234683D01*
X0163421Y0234674D01*
X0163360Y0234669D01*
X0163300Y0234667D01*
X0161800Y0234667D01*
X0161300Y0235167D01*
X0142300Y0235167D01*
X0141800Y0234667D01*
X0140300Y0234667D01*
X0140240Y0234669D01*
X0140179Y0234674D01*
X0140120Y0234683D01*
X0140061Y0234696D01*
X0140002Y0234712D01*
X0139945Y0234732D01*
X0139890Y0234755D01*
X0139835Y0234782D01*
X0139783Y0234811D01*
X0139732Y0234844D01*
X0139683Y0234880D01*
X0139637Y0234918D01*
X0139593Y0234960D01*
X0139551Y0235004D01*
X0139513Y0235050D01*
X0139477Y0235099D01*
X0139444Y0235150D01*
X0139415Y0235202D01*
X0139388Y0235257D01*
X0139365Y0235312D01*
X0139345Y0235369D01*
X0139329Y0235428D01*
X0139316Y0235487D01*
X0139307Y0235546D01*
X0139302Y0235607D01*
X0139300Y0235667D01*
X0139300Y0242667D01*
X0139302Y0242727D01*
X0139307Y0242788D01*
X0139316Y0242847D01*
X0139329Y0242906D01*
X0139345Y0242965D01*
X0139365Y0243022D01*
X0139388Y0243077D01*
X0139415Y0243132D01*
X0139444Y0243184D01*
X0139477Y0243235D01*
X0139513Y0243284D01*
X0139551Y0243330D01*
X0139593Y0243374D01*
X0139637Y0243416D01*
X0139683Y0243454D01*
X0139732Y0243490D01*
X0139783Y0243523D01*
X0139835Y0243552D01*
X0139890Y0243579D01*
X0139945Y0243602D01*
X0140002Y0243622D01*
X0140061Y0243638D01*
X0140120Y0243651D01*
X0140179Y0243660D01*
X0140240Y0243665D01*
X0140300Y0243667D01*
X0141800Y0243667D01*
X0142300Y0243167D01*
X0161300Y0243167D01*
X0161800Y0243667D01*
X0163300Y0243667D01*
X0163360Y0243665D01*
X0163421Y0243660D01*
X0163480Y0243651D01*
X0163539Y0243638D01*
X0163598Y0243622D01*
X0163655Y0243602D01*
X0163710Y0243579D01*
X0163765Y0243552D01*
X0163817Y0243523D01*
X0163868Y0243490D01*
X0163917Y0243454D01*
X0163963Y0243416D01*
X0164007Y0243374D01*
X0164049Y0243330D01*
X0164087Y0243284D01*
X0164123Y0243235D01*
X0164156Y0243184D01*
X0164185Y0243132D01*
X0164212Y0243077D01*
X0164235Y0243022D01*
X0164255Y0242965D01*
X0164271Y0242906D01*
X0164284Y0242847D01*
X0164293Y0242788D01*
X0164298Y0242727D01*
X0164300Y0242667D01*
X0144300Y0260667D02*
X0144300Y0267667D01*
X0144298Y0267727D01*
X0144293Y0267788D01*
X0144284Y0267847D01*
X0144271Y0267906D01*
X0144255Y0267965D01*
X0144235Y0268022D01*
X0144212Y0268077D01*
X0144185Y0268132D01*
X0144156Y0268184D01*
X0144123Y0268235D01*
X0144087Y0268284D01*
X0144049Y0268330D01*
X0144007Y0268374D01*
X0143963Y0268416D01*
X0143917Y0268454D01*
X0143868Y0268490D01*
X0143817Y0268523D01*
X0143765Y0268552D01*
X0143710Y0268579D01*
X0143655Y0268602D01*
X0143598Y0268622D01*
X0143539Y0268638D01*
X0143480Y0268651D01*
X0143421Y0268660D01*
X0143360Y0268665D01*
X0143300Y0268667D01*
X0141800Y0268667D01*
X0141300Y0268167D01*
X0122300Y0268167D01*
X0121800Y0268667D01*
X0120300Y0268667D01*
X0120240Y0268665D01*
X0120179Y0268660D01*
X0120120Y0268651D01*
X0120061Y0268638D01*
X0120002Y0268622D01*
X0119945Y0268602D01*
X0119890Y0268579D01*
X0119835Y0268552D01*
X0119783Y0268523D01*
X0119732Y0268490D01*
X0119683Y0268454D01*
X0119637Y0268416D01*
X0119593Y0268374D01*
X0119551Y0268330D01*
X0119513Y0268284D01*
X0119477Y0268235D01*
X0119444Y0268184D01*
X0119415Y0268132D01*
X0119388Y0268077D01*
X0119365Y0268022D01*
X0119345Y0267965D01*
X0119329Y0267906D01*
X0119316Y0267847D01*
X0119307Y0267788D01*
X0119302Y0267727D01*
X0119300Y0267667D01*
X0119300Y0260667D01*
X0119302Y0260607D01*
X0119307Y0260546D01*
X0119316Y0260487D01*
X0119329Y0260428D01*
X0119345Y0260369D01*
X0119365Y0260312D01*
X0119388Y0260257D01*
X0119415Y0260202D01*
X0119444Y0260150D01*
X0119477Y0260099D01*
X0119513Y0260050D01*
X0119551Y0260004D01*
X0119593Y0259960D01*
X0119637Y0259918D01*
X0119683Y0259880D01*
X0119732Y0259844D01*
X0119783Y0259811D01*
X0119835Y0259782D01*
X0119890Y0259755D01*
X0119945Y0259732D01*
X0120002Y0259712D01*
X0120061Y0259696D01*
X0120120Y0259683D01*
X0120179Y0259674D01*
X0120240Y0259669D01*
X0120300Y0259667D01*
X0121800Y0259667D01*
X0122300Y0260167D01*
X0141300Y0260167D01*
X0141800Y0259667D01*
X0143300Y0259667D01*
X0143360Y0259669D01*
X0143421Y0259674D01*
X0143480Y0259683D01*
X0143539Y0259696D01*
X0143598Y0259712D01*
X0143655Y0259732D01*
X0143710Y0259755D01*
X0143765Y0259782D01*
X0143817Y0259811D01*
X0143868Y0259844D01*
X0143917Y0259880D01*
X0143963Y0259918D01*
X0144007Y0259960D01*
X0144049Y0260004D01*
X0144087Y0260050D01*
X0144123Y0260099D01*
X0144156Y0260150D01*
X0144185Y0260202D01*
X0144212Y0260257D01*
X0144235Y0260312D01*
X0144255Y0260369D01*
X0144271Y0260428D01*
X0144284Y0260487D01*
X0144293Y0260546D01*
X0144298Y0260607D01*
X0144300Y0260667D01*
X0136800Y0329667D02*
X0135300Y0329667D01*
X0135240Y0329669D01*
X0135179Y0329674D01*
X0135120Y0329683D01*
X0135061Y0329696D01*
X0135002Y0329712D01*
X0134945Y0329732D01*
X0134890Y0329755D01*
X0134835Y0329782D01*
X0134783Y0329811D01*
X0134732Y0329844D01*
X0134683Y0329880D01*
X0134637Y0329918D01*
X0134593Y0329960D01*
X0134551Y0330004D01*
X0134513Y0330050D01*
X0134477Y0330099D01*
X0134444Y0330150D01*
X0134415Y0330202D01*
X0134388Y0330257D01*
X0134365Y0330312D01*
X0134345Y0330369D01*
X0134329Y0330428D01*
X0134316Y0330487D01*
X0134307Y0330546D01*
X0134302Y0330607D01*
X0134300Y0330667D01*
X0134300Y0337667D01*
X0134302Y0337727D01*
X0134307Y0337788D01*
X0134316Y0337847D01*
X0134329Y0337906D01*
X0134345Y0337965D01*
X0134365Y0338022D01*
X0134388Y0338077D01*
X0134415Y0338132D01*
X0134444Y0338184D01*
X0134477Y0338235D01*
X0134513Y0338284D01*
X0134551Y0338330D01*
X0134593Y0338374D01*
X0134637Y0338416D01*
X0134683Y0338454D01*
X0134732Y0338490D01*
X0134783Y0338523D01*
X0134835Y0338552D01*
X0134890Y0338579D01*
X0134945Y0338602D01*
X0135002Y0338622D01*
X0135061Y0338638D01*
X0135120Y0338651D01*
X0135179Y0338660D01*
X0135240Y0338665D01*
X0135300Y0338667D01*
X0136800Y0338667D01*
X0137300Y0338167D01*
X0156300Y0338167D01*
X0156800Y0338667D01*
X0158300Y0338667D01*
X0158360Y0338665D01*
X0158421Y0338660D01*
X0158480Y0338651D01*
X0158539Y0338638D01*
X0158598Y0338622D01*
X0158655Y0338602D01*
X0158710Y0338579D01*
X0158765Y0338552D01*
X0158817Y0338523D01*
X0158868Y0338490D01*
X0158917Y0338454D01*
X0158963Y0338416D01*
X0159007Y0338374D01*
X0159049Y0338330D01*
X0159087Y0338284D01*
X0159123Y0338235D01*
X0159156Y0338184D01*
X0159185Y0338132D01*
X0159212Y0338077D01*
X0159235Y0338022D01*
X0159255Y0337965D01*
X0159271Y0337906D01*
X0159284Y0337847D01*
X0159293Y0337788D01*
X0159298Y0337727D01*
X0159300Y0337667D01*
X0159300Y0330667D01*
X0159298Y0330607D01*
X0159293Y0330546D01*
X0159284Y0330487D01*
X0159271Y0330428D01*
X0159255Y0330369D01*
X0159235Y0330312D01*
X0159212Y0330257D01*
X0159185Y0330202D01*
X0159156Y0330150D01*
X0159123Y0330099D01*
X0159087Y0330050D01*
X0159049Y0330004D01*
X0159007Y0329960D01*
X0158963Y0329918D01*
X0158917Y0329880D01*
X0158868Y0329844D01*
X0158817Y0329811D01*
X0158765Y0329782D01*
X0158710Y0329755D01*
X0158655Y0329732D01*
X0158598Y0329712D01*
X0158539Y0329696D01*
X0158480Y0329683D01*
X0158421Y0329674D01*
X0158360Y0329669D01*
X0158300Y0329667D01*
X0156800Y0329667D01*
X0156300Y0330167D01*
X0137300Y0330167D01*
X0136800Y0329667D01*
X0155300Y0354667D02*
X0156800Y0354667D01*
X0157300Y0355167D01*
X0176300Y0355167D01*
X0176800Y0354667D01*
X0178300Y0354667D01*
X0178360Y0354669D01*
X0178421Y0354674D01*
X0178480Y0354683D01*
X0178539Y0354696D01*
X0178598Y0354712D01*
X0178655Y0354732D01*
X0178710Y0354755D01*
X0178765Y0354782D01*
X0178817Y0354811D01*
X0178868Y0354844D01*
X0178917Y0354880D01*
X0178963Y0354918D01*
X0179007Y0354960D01*
X0179049Y0355004D01*
X0179087Y0355050D01*
X0179123Y0355099D01*
X0179156Y0355150D01*
X0179185Y0355202D01*
X0179212Y0355257D01*
X0179235Y0355312D01*
X0179255Y0355369D01*
X0179271Y0355428D01*
X0179284Y0355487D01*
X0179293Y0355546D01*
X0179298Y0355607D01*
X0179300Y0355667D01*
X0179300Y0362667D01*
X0179298Y0362727D01*
X0179293Y0362788D01*
X0179284Y0362847D01*
X0179271Y0362906D01*
X0179255Y0362965D01*
X0179235Y0363022D01*
X0179212Y0363077D01*
X0179185Y0363132D01*
X0179156Y0363184D01*
X0179123Y0363235D01*
X0179087Y0363284D01*
X0179049Y0363330D01*
X0179007Y0363374D01*
X0178963Y0363416D01*
X0178917Y0363454D01*
X0178868Y0363490D01*
X0178817Y0363523D01*
X0178765Y0363552D01*
X0178710Y0363579D01*
X0178655Y0363602D01*
X0178598Y0363622D01*
X0178539Y0363638D01*
X0178480Y0363651D01*
X0178421Y0363660D01*
X0178360Y0363665D01*
X0178300Y0363667D01*
X0176800Y0363667D01*
X0176300Y0363167D01*
X0157300Y0363167D01*
X0156800Y0363667D01*
X0155300Y0363667D01*
X0155240Y0363665D01*
X0155179Y0363660D01*
X0155120Y0363651D01*
X0155061Y0363638D01*
X0155002Y0363622D01*
X0154945Y0363602D01*
X0154890Y0363579D01*
X0154835Y0363552D01*
X0154783Y0363523D01*
X0154732Y0363490D01*
X0154683Y0363454D01*
X0154637Y0363416D01*
X0154593Y0363374D01*
X0154551Y0363330D01*
X0154513Y0363284D01*
X0154477Y0363235D01*
X0154444Y0363184D01*
X0154415Y0363132D01*
X0154388Y0363077D01*
X0154365Y0363022D01*
X0154345Y0362965D01*
X0154329Y0362906D01*
X0154316Y0362847D01*
X0154307Y0362788D01*
X0154302Y0362727D01*
X0154300Y0362667D01*
X0154300Y0355667D01*
X0154302Y0355607D01*
X0154307Y0355546D01*
X0154316Y0355487D01*
X0154329Y0355428D01*
X0154345Y0355369D01*
X0154365Y0355312D01*
X0154388Y0355257D01*
X0154415Y0355202D01*
X0154444Y0355150D01*
X0154477Y0355099D01*
X0154513Y0355050D01*
X0154551Y0355004D01*
X0154593Y0354960D01*
X0154637Y0354918D01*
X0154683Y0354880D01*
X0154732Y0354844D01*
X0154783Y0354811D01*
X0154835Y0354782D01*
X0154890Y0354755D01*
X0154945Y0354732D01*
X0155002Y0354712D01*
X0155061Y0354696D01*
X0155120Y0354683D01*
X0155179Y0354674D01*
X0155240Y0354669D01*
X0155300Y0354667D01*
X0156800Y0392667D02*
X0156800Y0400167D01*
X0156926Y0400169D01*
X0157051Y0400175D01*
X0157176Y0400185D01*
X0157301Y0400199D01*
X0157426Y0400216D01*
X0157550Y0400238D01*
X0157673Y0400263D01*
X0157795Y0400293D01*
X0157916Y0400326D01*
X0158036Y0400363D01*
X0158155Y0400403D01*
X0158272Y0400448D01*
X0158389Y0400496D01*
X0158503Y0400548D01*
X0158616Y0400603D01*
X0158727Y0400662D01*
X0158836Y0400724D01*
X0158943Y0400790D01*
X0159048Y0400859D01*
X0159151Y0400931D01*
X0159252Y0401006D01*
X0159350Y0401085D01*
X0159445Y0401167D01*
X0159538Y0401251D01*
X0159628Y0401339D01*
X0159716Y0401429D01*
X0159800Y0401522D01*
X0159882Y0401617D01*
X0159961Y0401715D01*
X0160036Y0401816D01*
X0160108Y0401919D01*
X0160177Y0402024D01*
X0160243Y0402131D01*
X0160305Y0402240D01*
X0160364Y0402351D01*
X0160419Y0402464D01*
X0160471Y0402578D01*
X0160519Y0402695D01*
X0160564Y0402812D01*
X0160604Y0402931D01*
X0160641Y0403051D01*
X0160674Y0403172D01*
X0160704Y0403294D01*
X0160729Y0403417D01*
X0160751Y0403541D01*
X0160768Y0403666D01*
X0160782Y0403791D01*
X0160792Y0403916D01*
X0160798Y0404041D01*
X0160800Y0404167D01*
X0160798Y0404293D01*
X0160792Y0404418D01*
X0160782Y0404543D01*
X0160768Y0404668D01*
X0160751Y0404793D01*
X0160729Y0404917D01*
X0160704Y0405040D01*
X0160674Y0405162D01*
X0160641Y0405283D01*
X0160604Y0405403D01*
X0160564Y0405522D01*
X0160519Y0405639D01*
X0160471Y0405756D01*
X0160419Y0405870D01*
X0160364Y0405983D01*
X0160305Y0406094D01*
X0160243Y0406203D01*
X0160177Y0406310D01*
X0160108Y0406415D01*
X0160036Y0406518D01*
X0159961Y0406619D01*
X0159882Y0406717D01*
X0159800Y0406812D01*
X0159716Y0406905D01*
X0159628Y0406995D01*
X0159538Y0407083D01*
X0159445Y0407167D01*
X0159350Y0407249D01*
X0159252Y0407328D01*
X0159151Y0407403D01*
X0159048Y0407475D01*
X0158943Y0407544D01*
X0158836Y0407610D01*
X0158727Y0407672D01*
X0158616Y0407731D01*
X0158503Y0407786D01*
X0158389Y0407838D01*
X0158272Y0407886D01*
X0158155Y0407931D01*
X0158036Y0407971D01*
X0157916Y0408008D01*
X0157795Y0408041D01*
X0157673Y0408071D01*
X0157550Y0408096D01*
X0157426Y0408118D01*
X0157301Y0408135D01*
X0157176Y0408149D01*
X0157051Y0408159D01*
X0156926Y0408165D01*
X0156800Y0408167D01*
X0156800Y0415667D01*
X0236800Y0415667D01*
X0236800Y0392667D01*
X0156800Y0392667D01*
X0156800Y0449667D02*
X0158300Y0449667D01*
X0158360Y0449669D01*
X0158421Y0449674D01*
X0158480Y0449683D01*
X0158539Y0449696D01*
X0158598Y0449712D01*
X0158655Y0449732D01*
X0158710Y0449755D01*
X0158765Y0449782D01*
X0158817Y0449811D01*
X0158868Y0449844D01*
X0158917Y0449880D01*
X0158963Y0449918D01*
X0159007Y0449960D01*
X0159049Y0450004D01*
X0159087Y0450050D01*
X0159123Y0450099D01*
X0159156Y0450150D01*
X0159185Y0450202D01*
X0159212Y0450257D01*
X0159235Y0450312D01*
X0159255Y0450369D01*
X0159271Y0450428D01*
X0159284Y0450487D01*
X0159293Y0450546D01*
X0159298Y0450607D01*
X0159300Y0450667D01*
X0159300Y0457667D01*
X0159298Y0457727D01*
X0159293Y0457788D01*
X0159284Y0457847D01*
X0159271Y0457906D01*
X0159255Y0457965D01*
X0159235Y0458022D01*
X0159212Y0458077D01*
X0159185Y0458132D01*
X0159156Y0458184D01*
X0159123Y0458235D01*
X0159087Y0458284D01*
X0159049Y0458330D01*
X0159007Y0458374D01*
X0158963Y0458416D01*
X0158917Y0458454D01*
X0158868Y0458490D01*
X0158817Y0458523D01*
X0158765Y0458552D01*
X0158710Y0458579D01*
X0158655Y0458602D01*
X0158598Y0458622D01*
X0158539Y0458638D01*
X0158480Y0458651D01*
X0158421Y0458660D01*
X0158360Y0458665D01*
X0158300Y0458667D01*
X0156800Y0458667D01*
X0156300Y0458167D01*
X0137300Y0458167D01*
X0136800Y0458667D01*
X0135300Y0458667D01*
X0135240Y0458665D01*
X0135179Y0458660D01*
X0135120Y0458651D01*
X0135061Y0458638D01*
X0135002Y0458622D01*
X0134945Y0458602D01*
X0134890Y0458579D01*
X0134835Y0458552D01*
X0134783Y0458523D01*
X0134732Y0458490D01*
X0134683Y0458454D01*
X0134637Y0458416D01*
X0134593Y0458374D01*
X0134551Y0458330D01*
X0134513Y0458284D01*
X0134477Y0458235D01*
X0134444Y0458184D01*
X0134415Y0458132D01*
X0134388Y0458077D01*
X0134365Y0458022D01*
X0134345Y0457965D01*
X0134329Y0457906D01*
X0134316Y0457847D01*
X0134307Y0457788D01*
X0134302Y0457727D01*
X0134300Y0457667D01*
X0134300Y0450667D01*
X0134302Y0450607D01*
X0134307Y0450546D01*
X0134316Y0450487D01*
X0134329Y0450428D01*
X0134345Y0450369D01*
X0134365Y0450312D01*
X0134388Y0450257D01*
X0134415Y0450202D01*
X0134444Y0450150D01*
X0134477Y0450099D01*
X0134513Y0450050D01*
X0134551Y0450004D01*
X0134593Y0449960D01*
X0134637Y0449918D01*
X0134683Y0449880D01*
X0134732Y0449844D01*
X0134783Y0449811D01*
X0134835Y0449782D01*
X0134890Y0449755D01*
X0134945Y0449732D01*
X0135002Y0449712D01*
X0135061Y0449696D01*
X0135120Y0449683D01*
X0135179Y0449674D01*
X0135240Y0449669D01*
X0135300Y0449667D01*
X0136800Y0449667D01*
X0137300Y0450167D01*
X0156300Y0450167D01*
X0156800Y0449667D01*
X0156800Y0479667D02*
X0155300Y0479667D01*
X0155240Y0479669D01*
X0155179Y0479674D01*
X0155120Y0479683D01*
X0155061Y0479696D01*
X0155002Y0479712D01*
X0154945Y0479732D01*
X0154890Y0479755D01*
X0154835Y0479782D01*
X0154783Y0479811D01*
X0154732Y0479844D01*
X0154683Y0479880D01*
X0154637Y0479918D01*
X0154593Y0479960D01*
X0154551Y0480004D01*
X0154513Y0480050D01*
X0154477Y0480099D01*
X0154444Y0480150D01*
X0154415Y0480202D01*
X0154388Y0480257D01*
X0154365Y0480312D01*
X0154345Y0480369D01*
X0154329Y0480428D01*
X0154316Y0480487D01*
X0154307Y0480546D01*
X0154302Y0480607D01*
X0154300Y0480667D01*
X0154300Y0487667D01*
X0154302Y0487727D01*
X0154307Y0487788D01*
X0154316Y0487847D01*
X0154329Y0487906D01*
X0154345Y0487965D01*
X0154365Y0488022D01*
X0154388Y0488077D01*
X0154415Y0488132D01*
X0154444Y0488184D01*
X0154477Y0488235D01*
X0154513Y0488284D01*
X0154551Y0488330D01*
X0154593Y0488374D01*
X0154637Y0488416D01*
X0154683Y0488454D01*
X0154732Y0488490D01*
X0154783Y0488523D01*
X0154835Y0488552D01*
X0154890Y0488579D01*
X0154945Y0488602D01*
X0155002Y0488622D01*
X0155061Y0488638D01*
X0155120Y0488651D01*
X0155179Y0488660D01*
X0155240Y0488665D01*
X0155300Y0488667D01*
X0156800Y0488667D01*
X0157300Y0488167D01*
X0176300Y0488167D01*
X0176800Y0488667D01*
X0178300Y0488667D01*
X0178360Y0488665D01*
X0178421Y0488660D01*
X0178480Y0488651D01*
X0178539Y0488638D01*
X0178598Y0488622D01*
X0178655Y0488602D01*
X0178710Y0488579D01*
X0178765Y0488552D01*
X0178817Y0488523D01*
X0178868Y0488490D01*
X0178917Y0488454D01*
X0178963Y0488416D01*
X0179007Y0488374D01*
X0179049Y0488330D01*
X0179087Y0488284D01*
X0179123Y0488235D01*
X0179156Y0488184D01*
X0179185Y0488132D01*
X0179212Y0488077D01*
X0179235Y0488022D01*
X0179255Y0487965D01*
X0179271Y0487906D01*
X0179284Y0487847D01*
X0179293Y0487788D01*
X0179298Y0487727D01*
X0179300Y0487667D01*
X0179300Y0480667D01*
X0179298Y0480607D01*
X0179293Y0480546D01*
X0179284Y0480487D01*
X0179271Y0480428D01*
X0179255Y0480369D01*
X0179235Y0480312D01*
X0179212Y0480257D01*
X0179185Y0480202D01*
X0179156Y0480150D01*
X0179123Y0480099D01*
X0179087Y0480050D01*
X0179049Y0480004D01*
X0179007Y0479960D01*
X0178963Y0479918D01*
X0178917Y0479880D01*
X0178868Y0479844D01*
X0178817Y0479811D01*
X0178765Y0479782D01*
X0178710Y0479755D01*
X0178655Y0479732D01*
X0178598Y0479712D01*
X0178539Y0479696D01*
X0178480Y0479683D01*
X0178421Y0479674D01*
X0178360Y0479669D01*
X0178300Y0479667D01*
X0176800Y0479667D01*
X0176300Y0480167D01*
X0157300Y0480167D01*
X0156800Y0479667D01*
X0180300Y0514167D02*
X0187800Y0514167D01*
X0187802Y0514293D01*
X0187808Y0514418D01*
X0187818Y0514543D01*
X0187832Y0514668D01*
X0187849Y0514793D01*
X0187871Y0514917D01*
X0187896Y0515040D01*
X0187926Y0515162D01*
X0187959Y0515283D01*
X0187996Y0515403D01*
X0188036Y0515522D01*
X0188081Y0515639D01*
X0188129Y0515756D01*
X0188181Y0515870D01*
X0188236Y0515983D01*
X0188295Y0516094D01*
X0188357Y0516203D01*
X0188423Y0516310D01*
X0188492Y0516415D01*
X0188564Y0516518D01*
X0188639Y0516619D01*
X0188718Y0516717D01*
X0188800Y0516812D01*
X0188884Y0516905D01*
X0188972Y0516995D01*
X0189062Y0517083D01*
X0189155Y0517167D01*
X0189250Y0517249D01*
X0189348Y0517328D01*
X0189449Y0517403D01*
X0189552Y0517475D01*
X0189657Y0517544D01*
X0189764Y0517610D01*
X0189873Y0517672D01*
X0189984Y0517731D01*
X0190097Y0517786D01*
X0190211Y0517838D01*
X0190328Y0517886D01*
X0190445Y0517931D01*
X0190564Y0517971D01*
X0190684Y0518008D01*
X0190805Y0518041D01*
X0190927Y0518071D01*
X0191050Y0518096D01*
X0191174Y0518118D01*
X0191299Y0518135D01*
X0191424Y0518149D01*
X0191549Y0518159D01*
X0191674Y0518165D01*
X0191800Y0518167D01*
X0191926Y0518165D01*
X0192051Y0518159D01*
X0192176Y0518149D01*
X0192301Y0518135D01*
X0192426Y0518118D01*
X0192550Y0518096D01*
X0192673Y0518071D01*
X0192795Y0518041D01*
X0192916Y0518008D01*
X0193036Y0517971D01*
X0193155Y0517931D01*
X0193272Y0517886D01*
X0193389Y0517838D01*
X0193503Y0517786D01*
X0193616Y0517731D01*
X0193727Y0517672D01*
X0193836Y0517610D01*
X0193943Y0517544D01*
X0194048Y0517475D01*
X0194151Y0517403D01*
X0194252Y0517328D01*
X0194350Y0517249D01*
X0194445Y0517167D01*
X0194538Y0517083D01*
X0194628Y0516995D01*
X0194716Y0516905D01*
X0194800Y0516812D01*
X0194882Y0516717D01*
X0194961Y0516619D01*
X0195036Y0516518D01*
X0195108Y0516415D01*
X0195177Y0516310D01*
X0195243Y0516203D01*
X0195305Y0516094D01*
X0195364Y0515983D01*
X0195419Y0515870D01*
X0195471Y0515756D01*
X0195519Y0515639D01*
X0195564Y0515522D01*
X0195604Y0515403D01*
X0195641Y0515283D01*
X0195674Y0515162D01*
X0195704Y0515040D01*
X0195729Y0514917D01*
X0195751Y0514793D01*
X0195768Y0514668D01*
X0195782Y0514543D01*
X0195792Y0514418D01*
X0195798Y0514293D01*
X0195800Y0514167D01*
X0203300Y0514167D01*
X0203300Y0594167D01*
X0180300Y0594167D01*
X0180300Y0514167D01*
X0224300Y0487667D02*
X0224300Y0480667D01*
X0224302Y0480607D01*
X0224307Y0480546D01*
X0224316Y0480487D01*
X0224329Y0480428D01*
X0224345Y0480369D01*
X0224365Y0480312D01*
X0224388Y0480257D01*
X0224415Y0480202D01*
X0224444Y0480150D01*
X0224477Y0480099D01*
X0224513Y0480050D01*
X0224551Y0480004D01*
X0224593Y0479960D01*
X0224637Y0479918D01*
X0224683Y0479880D01*
X0224732Y0479844D01*
X0224783Y0479811D01*
X0224835Y0479782D01*
X0224890Y0479755D01*
X0224945Y0479732D01*
X0225002Y0479712D01*
X0225061Y0479696D01*
X0225120Y0479683D01*
X0225179Y0479674D01*
X0225240Y0479669D01*
X0225300Y0479667D01*
X0226800Y0479667D01*
X0227300Y0480167D01*
X0246300Y0480167D01*
X0246800Y0479667D01*
X0248300Y0479667D01*
X0248360Y0479669D01*
X0248421Y0479674D01*
X0248480Y0479683D01*
X0248539Y0479696D01*
X0248598Y0479712D01*
X0248655Y0479732D01*
X0248710Y0479755D01*
X0248765Y0479782D01*
X0248817Y0479811D01*
X0248868Y0479844D01*
X0248917Y0479880D01*
X0248963Y0479918D01*
X0249007Y0479960D01*
X0249049Y0480004D01*
X0249087Y0480050D01*
X0249123Y0480099D01*
X0249156Y0480150D01*
X0249185Y0480202D01*
X0249212Y0480257D01*
X0249235Y0480312D01*
X0249255Y0480369D01*
X0249271Y0480428D01*
X0249284Y0480487D01*
X0249293Y0480546D01*
X0249298Y0480607D01*
X0249300Y0480667D01*
X0249300Y0487667D01*
X0249298Y0487727D01*
X0249293Y0487788D01*
X0249284Y0487847D01*
X0249271Y0487906D01*
X0249255Y0487965D01*
X0249235Y0488022D01*
X0249212Y0488077D01*
X0249185Y0488132D01*
X0249156Y0488184D01*
X0249123Y0488235D01*
X0249087Y0488284D01*
X0249049Y0488330D01*
X0249007Y0488374D01*
X0248963Y0488416D01*
X0248917Y0488454D01*
X0248868Y0488490D01*
X0248817Y0488523D01*
X0248765Y0488552D01*
X0248710Y0488579D01*
X0248655Y0488602D01*
X0248598Y0488622D01*
X0248539Y0488638D01*
X0248480Y0488651D01*
X0248421Y0488660D01*
X0248360Y0488665D01*
X0248300Y0488667D01*
X0246800Y0488667D01*
X0246300Y0488167D01*
X0227300Y0488167D01*
X0226800Y0488667D01*
X0225300Y0488667D01*
X0225240Y0488665D01*
X0225179Y0488660D01*
X0225120Y0488651D01*
X0225061Y0488638D01*
X0225002Y0488622D01*
X0224945Y0488602D01*
X0224890Y0488579D01*
X0224835Y0488552D01*
X0224783Y0488523D01*
X0224732Y0488490D01*
X0224683Y0488454D01*
X0224637Y0488416D01*
X0224593Y0488374D01*
X0224551Y0488330D01*
X0224513Y0488284D01*
X0224477Y0488235D01*
X0224444Y0488184D01*
X0224415Y0488132D01*
X0224388Y0488077D01*
X0224365Y0488022D01*
X0224345Y0487965D01*
X0224329Y0487906D01*
X0224316Y0487847D01*
X0224307Y0487788D01*
X0224302Y0487727D01*
X0224300Y0487667D01*
X0245300Y0458667D02*
X0246800Y0458667D01*
X0247300Y0458167D01*
X0266300Y0458167D01*
X0266800Y0458667D01*
X0268300Y0458667D01*
X0268360Y0458665D01*
X0268421Y0458660D01*
X0268480Y0458651D01*
X0268539Y0458638D01*
X0268598Y0458622D01*
X0268655Y0458602D01*
X0268710Y0458579D01*
X0268765Y0458552D01*
X0268817Y0458523D01*
X0268868Y0458490D01*
X0268917Y0458454D01*
X0268963Y0458416D01*
X0269007Y0458374D01*
X0269049Y0458330D01*
X0269087Y0458284D01*
X0269123Y0458235D01*
X0269156Y0458184D01*
X0269185Y0458132D01*
X0269212Y0458077D01*
X0269235Y0458022D01*
X0269255Y0457965D01*
X0269271Y0457906D01*
X0269284Y0457847D01*
X0269293Y0457788D01*
X0269298Y0457727D01*
X0269300Y0457667D01*
X0269300Y0450667D01*
X0269298Y0450607D01*
X0269293Y0450546D01*
X0269284Y0450487D01*
X0269271Y0450428D01*
X0269255Y0450369D01*
X0269235Y0450312D01*
X0269212Y0450257D01*
X0269185Y0450202D01*
X0269156Y0450150D01*
X0269123Y0450099D01*
X0269087Y0450050D01*
X0269049Y0450004D01*
X0269007Y0449960D01*
X0268963Y0449918D01*
X0268917Y0449880D01*
X0268868Y0449844D01*
X0268817Y0449811D01*
X0268765Y0449782D01*
X0268710Y0449755D01*
X0268655Y0449732D01*
X0268598Y0449712D01*
X0268539Y0449696D01*
X0268480Y0449683D01*
X0268421Y0449674D01*
X0268360Y0449669D01*
X0268300Y0449667D01*
X0266800Y0449667D01*
X0266300Y0450167D01*
X0247300Y0450167D01*
X0246800Y0449667D01*
X0245300Y0449667D01*
X0245240Y0449669D01*
X0245179Y0449674D01*
X0245120Y0449683D01*
X0245061Y0449696D01*
X0245002Y0449712D01*
X0244945Y0449732D01*
X0244890Y0449755D01*
X0244835Y0449782D01*
X0244783Y0449811D01*
X0244732Y0449844D01*
X0244683Y0449880D01*
X0244637Y0449918D01*
X0244593Y0449960D01*
X0244551Y0450004D01*
X0244513Y0450050D01*
X0244477Y0450099D01*
X0244444Y0450150D01*
X0244415Y0450202D01*
X0244388Y0450257D01*
X0244365Y0450312D01*
X0244345Y0450369D01*
X0244329Y0450428D01*
X0244316Y0450487D01*
X0244307Y0450546D01*
X0244302Y0450607D01*
X0244300Y0450667D01*
X0244300Y0457667D01*
X0244302Y0457727D01*
X0244307Y0457788D01*
X0244316Y0457847D01*
X0244329Y0457906D01*
X0244345Y0457965D01*
X0244365Y0458022D01*
X0244388Y0458077D01*
X0244415Y0458132D01*
X0244444Y0458184D01*
X0244477Y0458235D01*
X0244513Y0458284D01*
X0244551Y0458330D01*
X0244593Y0458374D01*
X0244637Y0458416D01*
X0244683Y0458454D01*
X0244732Y0458490D01*
X0244783Y0458523D01*
X0244835Y0458552D01*
X0244890Y0458579D01*
X0244945Y0458602D01*
X0245002Y0458622D01*
X0245061Y0458638D01*
X0245120Y0458651D01*
X0245179Y0458660D01*
X0245240Y0458665D01*
X0245300Y0458667D01*
X0249800Y0539667D02*
X0249800Y0558667D01*
X0251800Y0557667D01*
X0251800Y0551667D01*
X0291800Y0551667D01*
X0291800Y0539667D01*
X0251800Y0539667D01*
X0249800Y0539667D01*
X0251800Y0539667D02*
X0251800Y0551667D01*
X0254000Y0550667D02*
X0270000Y0550667D01*
X0270000Y0540667D01*
X0254000Y0540667D01*
X0254000Y0550667D01*
X0256220Y0548084D02*
X0256145Y0548015D01*
X0256073Y0547944D01*
X0256004Y0547870D01*
X0255938Y0547794D01*
X0255874Y0547715D01*
X0255814Y0547634D01*
X0255756Y0547551D01*
X0255702Y0547465D01*
X0255651Y0547378D01*
X0255603Y0547289D01*
X0255559Y0547197D01*
X0255518Y0547105D01*
X0255481Y0547011D01*
X0255447Y0546915D01*
X0255417Y0546819D01*
X0255391Y0546721D01*
X0255368Y0546622D01*
X0255349Y0546523D01*
X0255334Y0546423D01*
X0255322Y0546322D01*
X0255314Y0546221D01*
X0255311Y0546120D01*
X0255310Y0546019D01*
X0255314Y0545918D01*
X0255322Y0545817D01*
X0255333Y0545716D01*
X0255348Y0545616D01*
X0255367Y0545517D01*
X0255389Y0545418D01*
X0255416Y0545320D01*
X0255446Y0545223D01*
X0255479Y0545128D01*
X0255516Y0545034D01*
X0255557Y0544941D01*
X0255601Y0544850D01*
X0255649Y0544761D01*
X0255699Y0544673D01*
X0255753Y0544587D01*
X0255811Y0544504D01*
X0255871Y0544423D01*
X0255934Y0544344D01*
X0256001Y0544267D01*
X0256400Y0544167D02*
X0268400Y0546667D01*
X0267900Y0547167D02*
X0255900Y0544667D01*
X0256037Y0547951D02*
X0256226Y0548089D01*
X0256419Y0548223D01*
X0256615Y0548352D01*
X0256814Y0548476D01*
X0257016Y0548596D01*
X0257220Y0548710D01*
X0257428Y0548819D01*
X0257638Y0548923D01*
X0257850Y0549022D01*
X0258065Y0549116D01*
X0258282Y0549205D01*
X0258501Y0549288D01*
X0258723Y0549366D01*
X0258946Y0549438D01*
X0259170Y0549505D01*
X0259397Y0549566D01*
X0259624Y0549622D01*
X0259853Y0549673D01*
X0260084Y0549717D01*
X0260315Y0549756D01*
X0260547Y0549790D01*
X0260780Y0549818D01*
X0261013Y0549840D01*
X0261247Y0549856D01*
X0261481Y0549867D01*
X0261716Y0549872D01*
X0261950Y0549871D01*
X0262184Y0549864D01*
X0262419Y0549852D01*
X0262652Y0549834D01*
X0262886Y0549810D01*
X0263118Y0549781D01*
X0263350Y0549746D01*
X0263581Y0549705D01*
X0263811Y0549659D01*
X0264040Y0549607D01*
X0264267Y0549550D01*
X0264493Y0549487D01*
X0264717Y0549418D01*
X0264940Y0549344D01*
X0265160Y0549265D01*
X0265379Y0549180D01*
X0265595Y0549090D01*
X0265810Y0548995D01*
X0266021Y0548895D01*
X0266231Y0548789D01*
X0266437Y0548678D01*
X0266641Y0548563D01*
X0266842Y0548442D01*
X0267040Y0548316D01*
X0267235Y0548186D01*
X0267427Y0548051D01*
X0267615Y0547911D01*
X0267800Y0547767D01*
X0267634Y0547908D02*
X0267718Y0547859D01*
X0267799Y0547807D01*
X0267878Y0547752D01*
X0267955Y0547693D01*
X0268029Y0547632D01*
X0268101Y0547567D01*
X0268170Y0547499D01*
X0268236Y0547429D01*
X0268299Y0547356D01*
X0268359Y0547280D01*
X0268415Y0547202D01*
X0268469Y0547122D01*
X0268519Y0547040D01*
X0268566Y0546955D01*
X0268609Y0546869D01*
X0268649Y0546781D01*
X0268685Y0546691D01*
X0268717Y0546600D01*
X0268745Y0546508D01*
X0268770Y0546415D01*
X0268791Y0546321D01*
X0268807Y0546225D01*
X0268820Y0546130D01*
X0268829Y0546034D01*
X0268834Y0545937D01*
X0268835Y0545841D01*
X0268832Y0545744D01*
X0268825Y0545648D01*
X0268814Y0545552D01*
X0268799Y0545457D01*
X0268780Y0545362D01*
X0268757Y0545268D01*
X0268730Y0545176D01*
X0268700Y0545084D01*
X0268666Y0544994D01*
X0268628Y0544905D01*
X0268586Y0544818D01*
X0268541Y0544733D01*
X0268492Y0544649D01*
X0268440Y0544568D01*
X0268385Y0544489D01*
X0268326Y0544412D01*
X0268265Y0544338D01*
X0268200Y0544266D01*
X0273700Y0540667D02*
X0289700Y0540667D01*
X0289700Y0550667D01*
X0273700Y0550667D01*
X0273700Y0540667D01*
X0276100Y0544167D02*
X0288100Y0546667D01*
X0287600Y0547167D02*
X0275600Y0544667D01*
X0275701Y0544267D02*
X0275634Y0544344D01*
X0275571Y0544423D01*
X0275511Y0544504D01*
X0275453Y0544587D01*
X0275399Y0544673D01*
X0275349Y0544761D01*
X0275301Y0544850D01*
X0275257Y0544941D01*
X0275216Y0545034D01*
X0275179Y0545128D01*
X0275146Y0545223D01*
X0275116Y0545320D01*
X0275089Y0545418D01*
X0275067Y0545517D01*
X0275048Y0545616D01*
X0275033Y0545716D01*
X0275022Y0545817D01*
X0275014Y0545918D01*
X0275010Y0546019D01*
X0275011Y0546120D01*
X0275014Y0546221D01*
X0275022Y0546322D01*
X0275034Y0546423D01*
X0275049Y0546523D01*
X0275068Y0546622D01*
X0275091Y0546721D01*
X0275117Y0546819D01*
X0275147Y0546915D01*
X0275181Y0547011D01*
X0275218Y0547105D01*
X0275259Y0547197D01*
X0275303Y0547289D01*
X0275351Y0547378D01*
X0275402Y0547465D01*
X0275456Y0547551D01*
X0275514Y0547634D01*
X0275574Y0547715D01*
X0275638Y0547794D01*
X0275704Y0547870D01*
X0275773Y0547944D01*
X0275845Y0548015D01*
X0275920Y0548084D01*
X0275681Y0544250D02*
X0275812Y0544104D01*
X0275946Y0543960D01*
X0276084Y0543820D01*
X0276225Y0543683D01*
X0276369Y0543549D01*
X0276517Y0543419D01*
X0276667Y0543293D01*
X0276821Y0543171D01*
X0276977Y0543052D01*
X0277137Y0542937D01*
X0277299Y0542826D01*
X0277464Y0542718D01*
X0277631Y0542615D01*
X0277801Y0542516D01*
X0277973Y0542421D01*
X0278147Y0542331D01*
X0278324Y0542244D01*
X0278502Y0542162D01*
X0278683Y0542084D01*
X0278865Y0542011D01*
X0279049Y0541942D01*
X0279235Y0541878D01*
X0279422Y0541818D01*
X0279610Y0541762D01*
X0279800Y0541712D01*
X0279991Y0541665D01*
X0280183Y0541624D01*
X0280376Y0541587D01*
X0280570Y0541555D01*
X0280765Y0541527D01*
X0280960Y0541505D01*
X0281156Y0541487D01*
X0281352Y0541473D01*
X0281548Y0541465D01*
X0281745Y0541461D01*
X0281941Y0541462D01*
X0282138Y0541468D01*
X0282334Y0541479D01*
X0282530Y0541494D01*
X0282725Y0541514D01*
X0282920Y0541539D01*
X0283115Y0541568D01*
X0283308Y0541603D01*
X0283501Y0541641D01*
X0283693Y0541685D01*
X0283883Y0541733D01*
X0284072Y0541786D01*
X0284260Y0541843D01*
X0284447Y0541905D01*
X0284632Y0541972D01*
X0284815Y0542043D01*
X0284997Y0542118D01*
X0285176Y0542198D01*
X0285354Y0542282D01*
X0285530Y0542370D01*
X0285703Y0542462D01*
X0285874Y0542559D01*
X0286043Y0542660D01*
X0286209Y0542765D01*
X0286373Y0542874D01*
X0286534Y0542987D01*
X0286692Y0543103D01*
X0286847Y0543224D01*
X0286999Y0543348D01*
X0287148Y0543476D01*
X0287295Y0543607D01*
X0287437Y0543742D01*
X0287577Y0543881D01*
X0287713Y0544022D01*
X0287846Y0544167D01*
X0287975Y0544316D01*
X0288100Y0544467D01*
X0287900Y0544266D02*
X0287965Y0544338D01*
X0288026Y0544412D01*
X0288085Y0544489D01*
X0288140Y0544568D01*
X0288192Y0544649D01*
X0288241Y0544733D01*
X0288286Y0544818D01*
X0288328Y0544905D01*
X0288366Y0544994D01*
X0288400Y0545084D01*
X0288430Y0545176D01*
X0288457Y0545268D01*
X0288480Y0545362D01*
X0288499Y0545457D01*
X0288514Y0545552D01*
X0288525Y0545648D01*
X0288532Y0545744D01*
X0288535Y0545841D01*
X0288534Y0545937D01*
X0288529Y0546034D01*
X0288520Y0546130D01*
X0288507Y0546225D01*
X0288491Y0546321D01*
X0288470Y0546415D01*
X0288445Y0546508D01*
X0288417Y0546600D01*
X0288385Y0546691D01*
X0288349Y0546781D01*
X0288309Y0546869D01*
X0288266Y0546955D01*
X0288219Y0547040D01*
X0288169Y0547122D01*
X0288115Y0547202D01*
X0288059Y0547280D01*
X0287999Y0547356D01*
X0287936Y0547429D01*
X0287870Y0547499D01*
X0287801Y0547567D01*
X0287729Y0547632D01*
X0287655Y0547693D01*
X0287578Y0547752D01*
X0287499Y0547807D01*
X0287418Y0547859D01*
X0287334Y0547908D01*
X0291800Y0551667D02*
X0291800Y0561667D01*
X0288200Y0561667D01*
X0288200Y0563167D02*
X0289700Y0563167D01*
X0289700Y0581167D01*
X0289700Y0588667D01*
X0273700Y0588667D01*
X0270000Y0588667D01*
X0254000Y0588667D01*
X0254000Y0581167D01*
X0270000Y0581167D01*
X0270000Y0563167D01*
X0268500Y0563167D01*
X0268500Y0561667D02*
X0275200Y0561667D01*
X0275200Y0563167D02*
X0273700Y0563167D01*
X0273700Y0581167D01*
X0289700Y0581167D01*
X0288200Y0578667D02*
X0288200Y0566167D01*
X0291800Y0561667D02*
X0291800Y0588667D01*
X0289700Y0588667D01*
X0288200Y0578667D02*
X0275200Y0578667D01*
X0275200Y0566167D01*
X0268500Y0566167D02*
X0268500Y0578667D01*
X0255500Y0578667D01*
X0255500Y0566167D01*
X0255500Y0563167D02*
X0254000Y0563167D01*
X0254000Y0581167D01*
X0251800Y0580167D02*
X0251800Y0561667D01*
X0255500Y0561667D01*
X0251800Y0561667D02*
X0251800Y0557667D01*
X0255982Y0544251D02*
X0256112Y0544105D01*
X0256246Y0543961D01*
X0256384Y0543821D01*
X0256525Y0543684D01*
X0256669Y0543550D01*
X0256817Y0543421D01*
X0256967Y0543294D01*
X0257121Y0543172D01*
X0257277Y0543053D01*
X0257437Y0542938D01*
X0257599Y0542827D01*
X0257764Y0542720D01*
X0257931Y0542616D01*
X0258101Y0542517D01*
X0258273Y0542423D01*
X0258447Y0542332D01*
X0258624Y0542245D01*
X0258802Y0542163D01*
X0258983Y0542086D01*
X0259165Y0542012D01*
X0259349Y0541943D01*
X0259534Y0541879D01*
X0259722Y0541819D01*
X0259910Y0541763D01*
X0260100Y0541713D01*
X0260291Y0541666D01*
X0260483Y0541625D01*
X0260676Y0541588D01*
X0260870Y0541556D01*
X0261065Y0541528D01*
X0261260Y0541506D01*
X0261455Y0541488D01*
X0261651Y0541474D01*
X0261848Y0541466D01*
X0262044Y0541462D01*
X0262241Y0541463D01*
X0262437Y0541469D01*
X0262633Y0541480D01*
X0262829Y0541495D01*
X0263025Y0541515D01*
X0263220Y0541540D01*
X0263414Y0541569D01*
X0263608Y0541603D01*
X0263800Y0541642D01*
X0263992Y0541686D01*
X0264182Y0541734D01*
X0264372Y0541787D01*
X0264560Y0541844D01*
X0264746Y0541906D01*
X0264931Y0541973D01*
X0265114Y0542043D01*
X0265296Y0542119D01*
X0265475Y0542198D01*
X0265653Y0542282D01*
X0265829Y0542371D01*
X0266002Y0542463D01*
X0266173Y0542560D01*
X0266342Y0542661D01*
X0266508Y0542766D01*
X0266672Y0542874D01*
X0266833Y0542987D01*
X0266991Y0543104D01*
X0267146Y0543224D01*
X0267298Y0543349D01*
X0267447Y0543476D01*
X0267594Y0543608D01*
X0267736Y0543743D01*
X0267876Y0543881D01*
X0268012Y0544023D01*
X0268145Y0544168D01*
X0268274Y0544316D01*
X0268399Y0544467D01*
X0275737Y0547951D02*
X0275927Y0548090D01*
X0276119Y0548223D01*
X0276315Y0548352D01*
X0276514Y0548476D01*
X0276716Y0548596D01*
X0276921Y0548710D01*
X0277128Y0548819D01*
X0277338Y0548923D01*
X0277551Y0549022D01*
X0277766Y0549116D01*
X0277983Y0549205D01*
X0278202Y0549288D01*
X0278423Y0549366D01*
X0278646Y0549438D01*
X0278871Y0549505D01*
X0279097Y0549567D01*
X0279325Y0549622D01*
X0279554Y0549673D01*
X0279784Y0549717D01*
X0280015Y0549757D01*
X0280247Y0549790D01*
X0280480Y0549818D01*
X0280713Y0549840D01*
X0280947Y0549856D01*
X0281182Y0549867D01*
X0281416Y0549872D01*
X0281650Y0549871D01*
X0281885Y0549864D01*
X0282119Y0549852D01*
X0282353Y0549834D01*
X0282586Y0549810D01*
X0282819Y0549781D01*
X0283050Y0549746D01*
X0283281Y0549705D01*
X0283511Y0549659D01*
X0283740Y0549607D01*
X0283967Y0549550D01*
X0284193Y0549487D01*
X0284417Y0549418D01*
X0284640Y0549344D01*
X0284860Y0549265D01*
X0285079Y0549180D01*
X0285296Y0549090D01*
X0285510Y0548995D01*
X0285722Y0548894D01*
X0285931Y0548789D01*
X0286138Y0548678D01*
X0286342Y0548562D01*
X0286543Y0548442D01*
X0286741Y0548316D01*
X0286936Y0548186D01*
X0287127Y0548051D01*
X0287316Y0547911D01*
X0287500Y0547767D01*
X0273700Y0581167D02*
X0273700Y0588667D01*
X0270000Y0588667D02*
X0270000Y0581167D01*
X0254000Y0588667D02*
X0251800Y0588667D01*
X0251800Y0584667D01*
X0251800Y0580167D01*
X0249800Y0579167D01*
X0249800Y0585667D01*
X0251800Y0584667D01*
X0377800Y0455167D02*
X0413800Y0455167D01*
X0413800Y0441167D01*
X0377800Y0441167D01*
X0377800Y0455167D01*
X0379300Y0418667D02*
X0380800Y0418667D01*
X0381300Y0418167D01*
X0400300Y0418167D01*
X0400800Y0418667D01*
X0402300Y0418667D01*
X0402360Y0418665D01*
X0402421Y0418660D01*
X0402480Y0418651D01*
X0402539Y0418638D01*
X0402598Y0418622D01*
X0402655Y0418602D01*
X0402710Y0418579D01*
X0402765Y0418552D01*
X0402817Y0418523D01*
X0402868Y0418490D01*
X0402917Y0418454D01*
X0402963Y0418416D01*
X0403007Y0418374D01*
X0403049Y0418330D01*
X0403087Y0418284D01*
X0403123Y0418235D01*
X0403156Y0418184D01*
X0403185Y0418132D01*
X0403212Y0418077D01*
X0403235Y0418022D01*
X0403255Y0417965D01*
X0403271Y0417906D01*
X0403284Y0417847D01*
X0403293Y0417788D01*
X0403298Y0417727D01*
X0403300Y0417667D01*
X0403300Y0410667D01*
X0403298Y0410607D01*
X0403293Y0410546D01*
X0403284Y0410487D01*
X0403271Y0410428D01*
X0403255Y0410369D01*
X0403235Y0410312D01*
X0403212Y0410257D01*
X0403185Y0410202D01*
X0403156Y0410150D01*
X0403123Y0410099D01*
X0403087Y0410050D01*
X0403049Y0410004D01*
X0403007Y0409960D01*
X0402963Y0409918D01*
X0402917Y0409880D01*
X0402868Y0409844D01*
X0402817Y0409811D01*
X0402765Y0409782D01*
X0402710Y0409755D01*
X0402655Y0409732D01*
X0402598Y0409712D01*
X0402539Y0409696D01*
X0402480Y0409683D01*
X0402421Y0409674D01*
X0402360Y0409669D01*
X0402300Y0409667D01*
X0400800Y0409667D01*
X0400300Y0410167D01*
X0381300Y0410167D01*
X0380800Y0409667D01*
X0379300Y0409667D01*
X0379240Y0409669D01*
X0379179Y0409674D01*
X0379120Y0409683D01*
X0379061Y0409696D01*
X0379002Y0409712D01*
X0378945Y0409732D01*
X0378890Y0409755D01*
X0378835Y0409782D01*
X0378783Y0409811D01*
X0378732Y0409844D01*
X0378683Y0409880D01*
X0378637Y0409918D01*
X0378593Y0409960D01*
X0378551Y0410004D01*
X0378513Y0410050D01*
X0378477Y0410099D01*
X0378444Y0410150D01*
X0378415Y0410202D01*
X0378388Y0410257D01*
X0378365Y0410312D01*
X0378345Y0410369D01*
X0378329Y0410428D01*
X0378316Y0410487D01*
X0378307Y0410546D01*
X0378302Y0410607D01*
X0378300Y0410667D01*
X0378300Y0417667D01*
X0378302Y0417727D01*
X0378307Y0417788D01*
X0378316Y0417847D01*
X0378329Y0417906D01*
X0378345Y0417965D01*
X0378365Y0418022D01*
X0378388Y0418077D01*
X0378415Y0418132D01*
X0378444Y0418184D01*
X0378477Y0418235D01*
X0378513Y0418284D01*
X0378551Y0418330D01*
X0378593Y0418374D01*
X0378637Y0418416D01*
X0378683Y0418454D01*
X0378732Y0418490D01*
X0378783Y0418523D01*
X0378835Y0418552D01*
X0378890Y0418579D01*
X0378945Y0418602D01*
X0379002Y0418622D01*
X0379061Y0418638D01*
X0379120Y0418651D01*
X0379179Y0418660D01*
X0379240Y0418665D01*
X0379300Y0418667D01*
X0437800Y0473167D02*
X0473800Y0473167D01*
X0473800Y0487167D01*
X0437800Y0487167D01*
X0437800Y0473167D01*
X0470300Y0418667D02*
X0471800Y0418667D01*
X0472300Y0418167D01*
X0491300Y0418167D01*
X0491800Y0418667D01*
X0493300Y0418667D01*
X0493360Y0418665D01*
X0493421Y0418660D01*
X0493480Y0418651D01*
X0493539Y0418638D01*
X0493598Y0418622D01*
X0493655Y0418602D01*
X0493710Y0418579D01*
X0493765Y0418552D01*
X0493817Y0418523D01*
X0493868Y0418490D01*
X0493917Y0418454D01*
X0493963Y0418416D01*
X0494007Y0418374D01*
X0494049Y0418330D01*
X0494087Y0418284D01*
X0494123Y0418235D01*
X0494156Y0418184D01*
X0494185Y0418132D01*
X0494212Y0418077D01*
X0494235Y0418022D01*
X0494255Y0417965D01*
X0494271Y0417906D01*
X0494284Y0417847D01*
X0494293Y0417788D01*
X0494298Y0417727D01*
X0494300Y0417667D01*
X0494300Y0410667D01*
X0494298Y0410607D01*
X0494293Y0410546D01*
X0494284Y0410487D01*
X0494271Y0410428D01*
X0494255Y0410369D01*
X0494235Y0410312D01*
X0494212Y0410257D01*
X0494185Y0410202D01*
X0494156Y0410150D01*
X0494123Y0410099D01*
X0494087Y0410050D01*
X0494049Y0410004D01*
X0494007Y0409960D01*
X0493963Y0409918D01*
X0493917Y0409880D01*
X0493868Y0409844D01*
X0493817Y0409811D01*
X0493765Y0409782D01*
X0493710Y0409755D01*
X0493655Y0409732D01*
X0493598Y0409712D01*
X0493539Y0409696D01*
X0493480Y0409683D01*
X0493421Y0409674D01*
X0493360Y0409669D01*
X0493300Y0409667D01*
X0491800Y0409667D01*
X0491300Y0410167D01*
X0472300Y0410167D01*
X0471800Y0409667D01*
X0470300Y0409667D01*
X0470240Y0409669D01*
X0470179Y0409674D01*
X0470120Y0409683D01*
X0470061Y0409696D01*
X0470002Y0409712D01*
X0469945Y0409732D01*
X0469890Y0409755D01*
X0469835Y0409782D01*
X0469783Y0409811D01*
X0469732Y0409844D01*
X0469683Y0409880D01*
X0469637Y0409918D01*
X0469593Y0409960D01*
X0469551Y0410004D01*
X0469513Y0410050D01*
X0469477Y0410099D01*
X0469444Y0410150D01*
X0469415Y0410202D01*
X0469388Y0410257D01*
X0469365Y0410312D01*
X0469345Y0410369D01*
X0469329Y0410428D01*
X0469316Y0410487D01*
X0469307Y0410546D01*
X0469302Y0410607D01*
X0469300Y0410667D01*
X0469300Y0417667D01*
X0469302Y0417727D01*
X0469307Y0417788D01*
X0469316Y0417847D01*
X0469329Y0417906D01*
X0469345Y0417965D01*
X0469365Y0418022D01*
X0469388Y0418077D01*
X0469415Y0418132D01*
X0469444Y0418184D01*
X0469477Y0418235D01*
X0469513Y0418284D01*
X0469551Y0418330D01*
X0469593Y0418374D01*
X0469637Y0418416D01*
X0469683Y0418454D01*
X0469732Y0418490D01*
X0469783Y0418523D01*
X0469835Y0418552D01*
X0469890Y0418579D01*
X0469945Y0418602D01*
X0470002Y0418622D01*
X0470061Y0418638D01*
X0470120Y0418651D01*
X0470179Y0418660D01*
X0470240Y0418665D01*
X0470300Y0418667D01*
X0539300Y0417667D02*
X0539300Y0410667D01*
X0539302Y0410607D01*
X0539307Y0410546D01*
X0539316Y0410487D01*
X0539329Y0410428D01*
X0539345Y0410369D01*
X0539365Y0410312D01*
X0539388Y0410257D01*
X0539415Y0410202D01*
X0539444Y0410150D01*
X0539477Y0410099D01*
X0539513Y0410050D01*
X0539551Y0410004D01*
X0539593Y0409960D01*
X0539637Y0409918D01*
X0539683Y0409880D01*
X0539732Y0409844D01*
X0539783Y0409811D01*
X0539835Y0409782D01*
X0539890Y0409755D01*
X0539945Y0409732D01*
X0540002Y0409712D01*
X0540061Y0409696D01*
X0540120Y0409683D01*
X0540179Y0409674D01*
X0540240Y0409669D01*
X0540300Y0409667D01*
X0541800Y0409667D01*
X0542300Y0410167D01*
X0561300Y0410167D01*
X0561800Y0409667D01*
X0563300Y0409667D01*
X0563360Y0409669D01*
X0563421Y0409674D01*
X0563480Y0409683D01*
X0563539Y0409696D01*
X0563598Y0409712D01*
X0563655Y0409732D01*
X0563710Y0409755D01*
X0563765Y0409782D01*
X0563817Y0409811D01*
X0563868Y0409844D01*
X0563917Y0409880D01*
X0563963Y0409918D01*
X0564007Y0409960D01*
X0564049Y0410004D01*
X0564087Y0410050D01*
X0564123Y0410099D01*
X0564156Y0410150D01*
X0564185Y0410202D01*
X0564212Y0410257D01*
X0564235Y0410312D01*
X0564255Y0410369D01*
X0564271Y0410428D01*
X0564284Y0410487D01*
X0564293Y0410546D01*
X0564298Y0410607D01*
X0564300Y0410667D01*
X0564300Y0417667D01*
X0564298Y0417727D01*
X0564293Y0417788D01*
X0564284Y0417847D01*
X0564271Y0417906D01*
X0564255Y0417965D01*
X0564235Y0418022D01*
X0564212Y0418077D01*
X0564185Y0418132D01*
X0564156Y0418184D01*
X0564123Y0418235D01*
X0564087Y0418284D01*
X0564049Y0418330D01*
X0564007Y0418374D01*
X0563963Y0418416D01*
X0563917Y0418454D01*
X0563868Y0418490D01*
X0563817Y0418523D01*
X0563765Y0418552D01*
X0563710Y0418579D01*
X0563655Y0418602D01*
X0563598Y0418622D01*
X0563539Y0418638D01*
X0563480Y0418651D01*
X0563421Y0418660D01*
X0563360Y0418665D01*
X0563300Y0418667D01*
X0561800Y0418667D01*
X0561300Y0418167D01*
X0542300Y0418167D01*
X0541800Y0418667D01*
X0540300Y0418667D01*
X0540240Y0418665D01*
X0540179Y0418660D01*
X0540120Y0418651D01*
X0540061Y0418638D01*
X0540002Y0418622D01*
X0539945Y0418602D01*
X0539890Y0418579D01*
X0539835Y0418552D01*
X0539783Y0418523D01*
X0539732Y0418490D01*
X0539683Y0418454D01*
X0539637Y0418416D01*
X0539593Y0418374D01*
X0539551Y0418330D01*
X0539513Y0418284D01*
X0539477Y0418235D01*
X0539444Y0418184D01*
X0539415Y0418132D01*
X0539388Y0418077D01*
X0539365Y0418022D01*
X0539345Y0417965D01*
X0539329Y0417906D01*
X0539316Y0417847D01*
X0539307Y0417788D01*
X0539302Y0417727D01*
X0539300Y0417667D01*
X0552800Y0440167D02*
X0588800Y0440167D01*
X0588800Y0454167D01*
X0552800Y0454167D01*
X0552800Y0440167D01*
X0612800Y0471167D02*
X0648800Y0471167D01*
X0648800Y0485167D01*
X0612800Y0485167D01*
X0612800Y0471167D01*
X0624300Y0418667D02*
X0625800Y0418667D01*
X0626300Y0418167D01*
X0645300Y0418167D01*
X0645800Y0418667D01*
X0647300Y0418667D01*
X0647360Y0418665D01*
X0647421Y0418660D01*
X0647480Y0418651D01*
X0647539Y0418638D01*
X0647598Y0418622D01*
X0647655Y0418602D01*
X0647710Y0418579D01*
X0647765Y0418552D01*
X0647817Y0418523D01*
X0647868Y0418490D01*
X0647917Y0418454D01*
X0647963Y0418416D01*
X0648007Y0418374D01*
X0648049Y0418330D01*
X0648087Y0418284D01*
X0648123Y0418235D01*
X0648156Y0418184D01*
X0648185Y0418132D01*
X0648212Y0418077D01*
X0648235Y0418022D01*
X0648255Y0417965D01*
X0648271Y0417906D01*
X0648284Y0417847D01*
X0648293Y0417788D01*
X0648298Y0417727D01*
X0648300Y0417667D01*
X0648300Y0410667D01*
X0648298Y0410607D01*
X0648293Y0410546D01*
X0648284Y0410487D01*
X0648271Y0410428D01*
X0648255Y0410369D01*
X0648235Y0410312D01*
X0648212Y0410257D01*
X0648185Y0410202D01*
X0648156Y0410150D01*
X0648123Y0410099D01*
X0648087Y0410050D01*
X0648049Y0410004D01*
X0648007Y0409960D01*
X0647963Y0409918D01*
X0647917Y0409880D01*
X0647868Y0409844D01*
X0647817Y0409811D01*
X0647765Y0409782D01*
X0647710Y0409755D01*
X0647655Y0409732D01*
X0647598Y0409712D01*
X0647539Y0409696D01*
X0647480Y0409683D01*
X0647421Y0409674D01*
X0647360Y0409669D01*
X0647300Y0409667D01*
X0645800Y0409667D01*
X0645300Y0410167D01*
X0626300Y0410167D01*
X0625800Y0409667D01*
X0624300Y0409667D01*
X0624240Y0409669D01*
X0624179Y0409674D01*
X0624120Y0409683D01*
X0624061Y0409696D01*
X0624002Y0409712D01*
X0623945Y0409732D01*
X0623890Y0409755D01*
X0623835Y0409782D01*
X0623783Y0409811D01*
X0623732Y0409844D01*
X0623683Y0409880D01*
X0623637Y0409918D01*
X0623593Y0409960D01*
X0623551Y0410004D01*
X0623513Y0410050D01*
X0623477Y0410099D01*
X0623444Y0410150D01*
X0623415Y0410202D01*
X0623388Y0410257D01*
X0623365Y0410312D01*
X0623345Y0410369D01*
X0623329Y0410428D01*
X0623316Y0410487D01*
X0623307Y0410546D01*
X0623302Y0410607D01*
X0623300Y0410667D01*
X0623300Y0417667D01*
X0623302Y0417727D01*
X0623307Y0417788D01*
X0623316Y0417847D01*
X0623329Y0417906D01*
X0623345Y0417965D01*
X0623365Y0418022D01*
X0623388Y0418077D01*
X0623415Y0418132D01*
X0623444Y0418184D01*
X0623477Y0418235D01*
X0623513Y0418284D01*
X0623551Y0418330D01*
X0623593Y0418374D01*
X0623637Y0418416D01*
X0623683Y0418454D01*
X0623732Y0418490D01*
X0623783Y0418523D01*
X0623835Y0418552D01*
X0623890Y0418579D01*
X0623945Y0418602D01*
X0624002Y0418622D01*
X0624061Y0418638D01*
X0624120Y0418651D01*
X0624179Y0418660D01*
X0624240Y0418665D01*
X0624300Y0418667D01*
X0695800Y0348167D02*
X0695800Y0332167D01*
X0705800Y0332167D01*
X0705800Y0348167D01*
X0695800Y0348167D01*
X0698300Y0344167D02*
X0700800Y0340167D01*
X0703300Y0340167D01*
X0700800Y0340167D02*
X0700800Y0346167D01*
X0698300Y0344167D02*
X0703300Y0344167D01*
X0700800Y0340167D01*
X0698300Y0340167D01*
X0700800Y0340167D02*
X0700800Y0337667D01*
X0669800Y0278667D02*
X0649800Y0278667D01*
X0649740Y0278665D01*
X0649679Y0278660D01*
X0649620Y0278651D01*
X0649561Y0278638D01*
X0649502Y0278622D01*
X0649445Y0278602D01*
X0649390Y0278579D01*
X0649335Y0278552D01*
X0649283Y0278523D01*
X0649232Y0278490D01*
X0649183Y0278454D01*
X0649137Y0278416D01*
X0649093Y0278374D01*
X0649051Y0278330D01*
X0649013Y0278284D01*
X0648977Y0278235D01*
X0648944Y0278184D01*
X0648915Y0278132D01*
X0648888Y0278077D01*
X0648865Y0278022D01*
X0648845Y0277965D01*
X0648829Y0277906D01*
X0648816Y0277847D01*
X0648807Y0277788D01*
X0648802Y0277727D01*
X0648800Y0277667D01*
X0648800Y0250667D01*
X0648802Y0250607D01*
X0648807Y0250546D01*
X0648816Y0250487D01*
X0648829Y0250428D01*
X0648845Y0250369D01*
X0648865Y0250312D01*
X0648888Y0250257D01*
X0648915Y0250202D01*
X0648944Y0250150D01*
X0648977Y0250099D01*
X0649013Y0250050D01*
X0649051Y0250004D01*
X0649093Y0249960D01*
X0649137Y0249918D01*
X0649183Y0249880D01*
X0649232Y0249844D01*
X0649283Y0249811D01*
X0649335Y0249782D01*
X0649390Y0249755D01*
X0649445Y0249732D01*
X0649502Y0249712D01*
X0649561Y0249696D01*
X0649620Y0249683D01*
X0649679Y0249674D01*
X0649740Y0249669D01*
X0649800Y0249667D01*
X0669800Y0249667D01*
X0669860Y0249669D01*
X0669921Y0249674D01*
X0669980Y0249683D01*
X0670039Y0249696D01*
X0670098Y0249712D01*
X0670155Y0249732D01*
X0670210Y0249755D01*
X0670265Y0249782D01*
X0670317Y0249811D01*
X0670368Y0249844D01*
X0670417Y0249880D01*
X0670463Y0249918D01*
X0670507Y0249960D01*
X0670549Y0250004D01*
X0670587Y0250050D01*
X0670623Y0250099D01*
X0670656Y0250150D01*
X0670685Y0250202D01*
X0670712Y0250257D01*
X0670735Y0250312D01*
X0670755Y0250369D01*
X0670771Y0250428D01*
X0670784Y0250487D01*
X0670793Y0250546D01*
X0670798Y0250607D01*
X0670800Y0250667D01*
X0670800Y0277667D01*
X0670798Y0277727D01*
X0670793Y0277788D01*
X0670784Y0277847D01*
X0670771Y0277906D01*
X0670755Y0277965D01*
X0670735Y0278022D01*
X0670712Y0278077D01*
X0670685Y0278132D01*
X0670656Y0278184D01*
X0670623Y0278235D01*
X0670587Y0278284D01*
X0670549Y0278330D01*
X0670507Y0278374D01*
X0670463Y0278416D01*
X0670417Y0278454D01*
X0670368Y0278490D01*
X0670317Y0278523D01*
X0670265Y0278552D01*
X0670210Y0278579D01*
X0670155Y0278602D01*
X0670098Y0278622D01*
X0670039Y0278638D01*
X0669980Y0278651D01*
X0669921Y0278660D01*
X0669860Y0278665D01*
X0669800Y0278667D01*
X0659800Y0270167D02*
X0659800Y0265467D01*
X0659800Y0262967D02*
X0659800Y0258167D01*
X0642300Y0220167D02*
X0619300Y0220167D01*
X0619300Y0190167D01*
X0626800Y0190167D01*
X0626802Y0190293D01*
X0626808Y0190418D01*
X0626818Y0190543D01*
X0626832Y0190668D01*
X0626849Y0190793D01*
X0626871Y0190917D01*
X0626896Y0191040D01*
X0626926Y0191162D01*
X0626959Y0191283D01*
X0626996Y0191403D01*
X0627036Y0191522D01*
X0627081Y0191639D01*
X0627129Y0191756D01*
X0627181Y0191870D01*
X0627236Y0191983D01*
X0627295Y0192094D01*
X0627357Y0192203D01*
X0627423Y0192310D01*
X0627492Y0192415D01*
X0627564Y0192518D01*
X0627639Y0192619D01*
X0627718Y0192717D01*
X0627800Y0192812D01*
X0627884Y0192905D01*
X0627972Y0192995D01*
X0628062Y0193083D01*
X0628155Y0193167D01*
X0628250Y0193249D01*
X0628348Y0193328D01*
X0628449Y0193403D01*
X0628552Y0193475D01*
X0628657Y0193544D01*
X0628764Y0193610D01*
X0628873Y0193672D01*
X0628984Y0193731D01*
X0629097Y0193786D01*
X0629211Y0193838D01*
X0629328Y0193886D01*
X0629445Y0193931D01*
X0629564Y0193971D01*
X0629684Y0194008D01*
X0629805Y0194041D01*
X0629927Y0194071D01*
X0630050Y0194096D01*
X0630174Y0194118D01*
X0630299Y0194135D01*
X0630424Y0194149D01*
X0630549Y0194159D01*
X0630674Y0194165D01*
X0630800Y0194167D01*
X0630926Y0194165D01*
X0631051Y0194159D01*
X0631176Y0194149D01*
X0631301Y0194135D01*
X0631426Y0194118D01*
X0631550Y0194096D01*
X0631673Y0194071D01*
X0631795Y0194041D01*
X0631916Y0194008D01*
X0632036Y0193971D01*
X0632155Y0193931D01*
X0632272Y0193886D01*
X0632389Y0193838D01*
X0632503Y0193786D01*
X0632616Y0193731D01*
X0632727Y0193672D01*
X0632836Y0193610D01*
X0632943Y0193544D01*
X0633048Y0193475D01*
X0633151Y0193403D01*
X0633252Y0193328D01*
X0633350Y0193249D01*
X0633445Y0193167D01*
X0633538Y0193083D01*
X0633628Y0192995D01*
X0633716Y0192905D01*
X0633800Y0192812D01*
X0633882Y0192717D01*
X0633961Y0192619D01*
X0634036Y0192518D01*
X0634108Y0192415D01*
X0634177Y0192310D01*
X0634243Y0192203D01*
X0634305Y0192094D01*
X0634364Y0191983D01*
X0634419Y0191870D01*
X0634471Y0191756D01*
X0634519Y0191639D01*
X0634564Y0191522D01*
X0634604Y0191403D01*
X0634641Y0191283D01*
X0634674Y0191162D01*
X0634704Y0191040D01*
X0634729Y0190917D01*
X0634751Y0190793D01*
X0634768Y0190668D01*
X0634782Y0190543D01*
X0634792Y0190418D01*
X0634798Y0190293D01*
X0634800Y0190167D01*
X0642300Y0190167D01*
X0642300Y0220167D01*
X0611300Y0264167D02*
X0584300Y0264167D01*
X0584240Y0264169D01*
X0584179Y0264174D01*
X0584120Y0264183D01*
X0584061Y0264196D01*
X0584002Y0264212D01*
X0583945Y0264232D01*
X0583890Y0264255D01*
X0583835Y0264282D01*
X0583783Y0264311D01*
X0583732Y0264344D01*
X0583683Y0264380D01*
X0583637Y0264418D01*
X0583593Y0264460D01*
X0583551Y0264504D01*
X0583513Y0264550D01*
X0583477Y0264599D01*
X0583444Y0264650D01*
X0583415Y0264702D01*
X0583388Y0264757D01*
X0583365Y0264812D01*
X0583345Y0264869D01*
X0583329Y0264928D01*
X0583316Y0264987D01*
X0583307Y0265046D01*
X0583302Y0265107D01*
X0583300Y0265167D01*
X0583300Y0285167D01*
X0583302Y0285227D01*
X0583307Y0285288D01*
X0583316Y0285347D01*
X0583329Y0285406D01*
X0583345Y0285465D01*
X0583365Y0285522D01*
X0583388Y0285577D01*
X0583415Y0285632D01*
X0583444Y0285684D01*
X0583477Y0285735D01*
X0583513Y0285784D01*
X0583551Y0285830D01*
X0583593Y0285874D01*
X0583637Y0285916D01*
X0583683Y0285954D01*
X0583732Y0285990D01*
X0583783Y0286023D01*
X0583835Y0286052D01*
X0583890Y0286079D01*
X0583945Y0286102D01*
X0584002Y0286122D01*
X0584061Y0286138D01*
X0584120Y0286151D01*
X0584179Y0286160D01*
X0584240Y0286165D01*
X0584300Y0286167D01*
X0611300Y0286167D01*
X0611360Y0286165D01*
X0611421Y0286160D01*
X0611480Y0286151D01*
X0611539Y0286138D01*
X0611598Y0286122D01*
X0611655Y0286102D01*
X0611710Y0286079D01*
X0611765Y0286052D01*
X0611817Y0286023D01*
X0611868Y0285990D01*
X0611917Y0285954D01*
X0611963Y0285916D01*
X0612007Y0285874D01*
X0612049Y0285830D01*
X0612087Y0285784D01*
X0612123Y0285735D01*
X0612156Y0285684D01*
X0612185Y0285632D01*
X0612212Y0285577D01*
X0612235Y0285522D01*
X0612255Y0285465D01*
X0612271Y0285406D01*
X0612284Y0285347D01*
X0612293Y0285288D01*
X0612298Y0285227D01*
X0612300Y0285167D01*
X0612300Y0265167D01*
X0612298Y0265107D01*
X0612293Y0265046D01*
X0612284Y0264987D01*
X0612271Y0264928D01*
X0612255Y0264869D01*
X0612235Y0264812D01*
X0612212Y0264757D01*
X0612185Y0264702D01*
X0612156Y0264650D01*
X0612123Y0264599D01*
X0612087Y0264550D01*
X0612049Y0264504D01*
X0612007Y0264460D01*
X0611963Y0264418D01*
X0611917Y0264380D01*
X0611868Y0264344D01*
X0611817Y0264311D01*
X0611765Y0264282D01*
X0611710Y0264255D01*
X0611655Y0264232D01*
X0611598Y0264212D01*
X0611539Y0264196D01*
X0611480Y0264183D01*
X0611421Y0264174D01*
X0611360Y0264169D01*
X0611300Y0264167D01*
X0603800Y0275167D02*
X0599000Y0275167D01*
X0596500Y0275167D02*
X0591800Y0275167D01*
X0525300Y0209167D02*
X0525300Y0189167D01*
X0525298Y0189107D01*
X0525293Y0189046D01*
X0525284Y0188987D01*
X0525271Y0188928D01*
X0525255Y0188869D01*
X0525235Y0188812D01*
X0525212Y0188757D01*
X0525185Y0188702D01*
X0525156Y0188650D01*
X0525123Y0188599D01*
X0525087Y0188550D01*
X0525049Y0188504D01*
X0525007Y0188460D01*
X0524963Y0188418D01*
X0524917Y0188380D01*
X0524868Y0188344D01*
X0524817Y0188311D01*
X0524765Y0188282D01*
X0524710Y0188255D01*
X0524655Y0188232D01*
X0524598Y0188212D01*
X0524539Y0188196D01*
X0524480Y0188183D01*
X0524421Y0188174D01*
X0524360Y0188169D01*
X0524300Y0188167D01*
X0497300Y0188167D01*
X0497240Y0188169D01*
X0497179Y0188174D01*
X0497120Y0188183D01*
X0497061Y0188196D01*
X0497002Y0188212D01*
X0496945Y0188232D01*
X0496890Y0188255D01*
X0496835Y0188282D01*
X0496783Y0188311D01*
X0496732Y0188344D01*
X0496683Y0188380D01*
X0496637Y0188418D01*
X0496593Y0188460D01*
X0496551Y0188504D01*
X0496513Y0188550D01*
X0496477Y0188599D01*
X0496444Y0188650D01*
X0496415Y0188702D01*
X0496388Y0188757D01*
X0496365Y0188812D01*
X0496345Y0188869D01*
X0496329Y0188928D01*
X0496316Y0188987D01*
X0496307Y0189046D01*
X0496302Y0189107D01*
X0496300Y0189167D01*
X0496300Y0209167D01*
X0496302Y0209227D01*
X0496307Y0209288D01*
X0496316Y0209347D01*
X0496329Y0209406D01*
X0496345Y0209465D01*
X0496365Y0209522D01*
X0496388Y0209577D01*
X0496415Y0209632D01*
X0496444Y0209684D01*
X0496477Y0209735D01*
X0496513Y0209784D01*
X0496551Y0209830D01*
X0496593Y0209874D01*
X0496637Y0209916D01*
X0496683Y0209954D01*
X0496732Y0209990D01*
X0496783Y0210023D01*
X0496835Y0210052D01*
X0496890Y0210079D01*
X0496945Y0210102D01*
X0497002Y0210122D01*
X0497061Y0210138D01*
X0497120Y0210151D01*
X0497179Y0210160D01*
X0497240Y0210165D01*
X0497300Y0210167D01*
X0524300Y0210167D01*
X0524360Y0210165D01*
X0524421Y0210160D01*
X0524480Y0210151D01*
X0524539Y0210138D01*
X0524598Y0210122D01*
X0524655Y0210102D01*
X0524710Y0210079D01*
X0524765Y0210052D01*
X0524817Y0210023D01*
X0524868Y0209990D01*
X0524917Y0209954D01*
X0524963Y0209916D01*
X0525007Y0209874D01*
X0525049Y0209830D01*
X0525087Y0209784D01*
X0525123Y0209735D01*
X0525156Y0209684D01*
X0525185Y0209632D01*
X0525212Y0209577D01*
X0525235Y0209522D01*
X0525255Y0209465D01*
X0525271Y0209406D01*
X0525284Y0209347D01*
X0525293Y0209288D01*
X0525298Y0209227D01*
X0525300Y0209167D01*
X0516800Y0199167D02*
X0512000Y0199167D01*
X0509500Y0199167D02*
X0504800Y0199167D01*
X0461300Y0194167D02*
X0453800Y0194167D01*
X0453798Y0194293D01*
X0453792Y0194418D01*
X0453782Y0194543D01*
X0453768Y0194668D01*
X0453751Y0194793D01*
X0453729Y0194917D01*
X0453704Y0195040D01*
X0453674Y0195162D01*
X0453641Y0195283D01*
X0453604Y0195403D01*
X0453564Y0195522D01*
X0453519Y0195639D01*
X0453471Y0195756D01*
X0453419Y0195870D01*
X0453364Y0195983D01*
X0453305Y0196094D01*
X0453243Y0196203D01*
X0453177Y0196310D01*
X0453108Y0196415D01*
X0453036Y0196518D01*
X0452961Y0196619D01*
X0452882Y0196717D01*
X0452800Y0196812D01*
X0452716Y0196905D01*
X0452628Y0196995D01*
X0452538Y0197083D01*
X0452445Y0197167D01*
X0452350Y0197249D01*
X0452252Y0197328D01*
X0452151Y0197403D01*
X0452048Y0197475D01*
X0451943Y0197544D01*
X0451836Y0197610D01*
X0451727Y0197672D01*
X0451616Y0197731D01*
X0451503Y0197786D01*
X0451389Y0197838D01*
X0451272Y0197886D01*
X0451155Y0197931D01*
X0451036Y0197971D01*
X0450916Y0198008D01*
X0450795Y0198041D01*
X0450673Y0198071D01*
X0450550Y0198096D01*
X0450426Y0198118D01*
X0450301Y0198135D01*
X0450176Y0198149D01*
X0450051Y0198159D01*
X0449926Y0198165D01*
X0449800Y0198167D01*
X0449674Y0198165D01*
X0449549Y0198159D01*
X0449424Y0198149D01*
X0449299Y0198135D01*
X0449174Y0198118D01*
X0449050Y0198096D01*
X0448927Y0198071D01*
X0448805Y0198041D01*
X0448684Y0198008D01*
X0448564Y0197971D01*
X0448445Y0197931D01*
X0448328Y0197886D01*
X0448211Y0197838D01*
X0448097Y0197786D01*
X0447984Y0197731D01*
X0447873Y0197672D01*
X0447764Y0197610D01*
X0447657Y0197544D01*
X0447552Y0197475D01*
X0447449Y0197403D01*
X0447348Y0197328D01*
X0447250Y0197249D01*
X0447155Y0197167D01*
X0447062Y0197083D01*
X0446972Y0196995D01*
X0446884Y0196905D01*
X0446800Y0196812D01*
X0446718Y0196717D01*
X0446639Y0196619D01*
X0446564Y0196518D01*
X0446492Y0196415D01*
X0446423Y0196310D01*
X0446357Y0196203D01*
X0446295Y0196094D01*
X0446236Y0195983D01*
X0446181Y0195870D01*
X0446129Y0195756D01*
X0446081Y0195639D01*
X0446036Y0195522D01*
X0445996Y0195403D01*
X0445959Y0195283D01*
X0445926Y0195162D01*
X0445896Y0195040D01*
X0445871Y0194917D01*
X0445849Y0194793D01*
X0445832Y0194668D01*
X0445818Y0194543D01*
X0445808Y0194418D01*
X0445802Y0194293D01*
X0445800Y0194167D01*
X0438300Y0194167D01*
X0438300Y0224167D01*
X0461300Y0224167D01*
X0461300Y0194167D01*
X0475800Y0249667D02*
X0495800Y0249667D01*
X0495860Y0249669D01*
X0495921Y0249674D01*
X0495980Y0249683D01*
X0496039Y0249696D01*
X0496098Y0249712D01*
X0496155Y0249732D01*
X0496210Y0249755D01*
X0496265Y0249782D01*
X0496317Y0249811D01*
X0496368Y0249844D01*
X0496417Y0249880D01*
X0496463Y0249918D01*
X0496507Y0249960D01*
X0496549Y0250004D01*
X0496587Y0250050D01*
X0496623Y0250099D01*
X0496656Y0250150D01*
X0496685Y0250202D01*
X0496712Y0250257D01*
X0496735Y0250312D01*
X0496755Y0250369D01*
X0496771Y0250428D01*
X0496784Y0250487D01*
X0496793Y0250546D01*
X0496798Y0250607D01*
X0496800Y0250667D01*
X0496800Y0277667D01*
X0496798Y0277727D01*
X0496793Y0277788D01*
X0496784Y0277847D01*
X0496771Y0277906D01*
X0496755Y0277965D01*
X0496735Y0278022D01*
X0496712Y0278077D01*
X0496685Y0278132D01*
X0496656Y0278184D01*
X0496623Y0278235D01*
X0496587Y0278284D01*
X0496549Y0278330D01*
X0496507Y0278374D01*
X0496463Y0278416D01*
X0496417Y0278454D01*
X0496368Y0278490D01*
X0496317Y0278523D01*
X0496265Y0278552D01*
X0496210Y0278579D01*
X0496155Y0278602D01*
X0496098Y0278622D01*
X0496039Y0278638D01*
X0495980Y0278651D01*
X0495921Y0278660D01*
X0495860Y0278665D01*
X0495800Y0278667D01*
X0475800Y0278667D01*
X0475740Y0278665D01*
X0475679Y0278660D01*
X0475620Y0278651D01*
X0475561Y0278638D01*
X0475502Y0278622D01*
X0475445Y0278602D01*
X0475390Y0278579D01*
X0475335Y0278552D01*
X0475283Y0278523D01*
X0475232Y0278490D01*
X0475183Y0278454D01*
X0475137Y0278416D01*
X0475093Y0278374D01*
X0475051Y0278330D01*
X0475013Y0278284D01*
X0474977Y0278235D01*
X0474944Y0278184D01*
X0474915Y0278132D01*
X0474888Y0278077D01*
X0474865Y0278022D01*
X0474845Y0277965D01*
X0474829Y0277906D01*
X0474816Y0277847D01*
X0474807Y0277788D01*
X0474802Y0277727D01*
X0474800Y0277667D01*
X0474800Y0250667D01*
X0474802Y0250607D01*
X0474807Y0250546D01*
X0474816Y0250487D01*
X0474829Y0250428D01*
X0474845Y0250369D01*
X0474865Y0250312D01*
X0474888Y0250257D01*
X0474915Y0250202D01*
X0474944Y0250150D01*
X0474977Y0250099D01*
X0475013Y0250050D01*
X0475051Y0250004D01*
X0475093Y0249960D01*
X0475137Y0249918D01*
X0475183Y0249880D01*
X0475232Y0249844D01*
X0475283Y0249811D01*
X0475335Y0249782D01*
X0475390Y0249755D01*
X0475445Y0249732D01*
X0475502Y0249712D01*
X0475561Y0249696D01*
X0475620Y0249683D01*
X0475679Y0249674D01*
X0475740Y0249669D01*
X0475800Y0249667D01*
X0485800Y0258167D02*
X0485800Y0262967D01*
X0485800Y0265467D02*
X0485800Y0270167D01*
X0460300Y0263167D02*
X0460300Y0283167D01*
X0460298Y0283227D01*
X0460293Y0283288D01*
X0460284Y0283347D01*
X0460271Y0283406D01*
X0460255Y0283465D01*
X0460235Y0283522D01*
X0460212Y0283577D01*
X0460185Y0283632D01*
X0460156Y0283684D01*
X0460123Y0283735D01*
X0460087Y0283784D01*
X0460049Y0283830D01*
X0460007Y0283874D01*
X0459963Y0283916D01*
X0459917Y0283954D01*
X0459868Y0283990D01*
X0459817Y0284023D01*
X0459765Y0284052D01*
X0459710Y0284079D01*
X0459655Y0284102D01*
X0459598Y0284122D01*
X0459539Y0284138D01*
X0459480Y0284151D01*
X0459421Y0284160D01*
X0459360Y0284165D01*
X0459300Y0284167D01*
X0432300Y0284167D01*
X0432240Y0284165D01*
X0432179Y0284160D01*
X0432120Y0284151D01*
X0432061Y0284138D01*
X0432002Y0284122D01*
X0431945Y0284102D01*
X0431890Y0284079D01*
X0431835Y0284052D01*
X0431783Y0284023D01*
X0431732Y0283990D01*
X0431683Y0283954D01*
X0431637Y0283916D01*
X0431593Y0283874D01*
X0431551Y0283830D01*
X0431513Y0283784D01*
X0431477Y0283735D01*
X0431444Y0283684D01*
X0431415Y0283632D01*
X0431388Y0283577D01*
X0431365Y0283522D01*
X0431345Y0283465D01*
X0431329Y0283406D01*
X0431316Y0283347D01*
X0431307Y0283288D01*
X0431302Y0283227D01*
X0431300Y0283167D01*
X0431300Y0263167D01*
X0431302Y0263107D01*
X0431307Y0263046D01*
X0431316Y0262987D01*
X0431329Y0262928D01*
X0431345Y0262869D01*
X0431365Y0262812D01*
X0431388Y0262757D01*
X0431415Y0262702D01*
X0431444Y0262650D01*
X0431477Y0262599D01*
X0431513Y0262550D01*
X0431551Y0262504D01*
X0431593Y0262460D01*
X0431637Y0262418D01*
X0431683Y0262380D01*
X0431732Y0262344D01*
X0431783Y0262311D01*
X0431835Y0262282D01*
X0431890Y0262255D01*
X0431945Y0262232D01*
X0432002Y0262212D01*
X0432061Y0262196D01*
X0432120Y0262183D01*
X0432179Y0262174D01*
X0432240Y0262169D01*
X0432300Y0262167D01*
X0459300Y0262167D01*
X0459360Y0262169D01*
X0459421Y0262174D01*
X0459480Y0262183D01*
X0459539Y0262196D01*
X0459598Y0262212D01*
X0459655Y0262232D01*
X0459710Y0262255D01*
X0459765Y0262282D01*
X0459817Y0262311D01*
X0459868Y0262344D01*
X0459917Y0262380D01*
X0459963Y0262418D01*
X0460007Y0262460D01*
X0460049Y0262504D01*
X0460087Y0262550D01*
X0460123Y0262599D01*
X0460156Y0262650D01*
X0460185Y0262702D01*
X0460212Y0262757D01*
X0460235Y0262812D01*
X0460255Y0262869D01*
X0460271Y0262928D01*
X0460284Y0262987D01*
X0460293Y0263046D01*
X0460298Y0263107D01*
X0460300Y0263167D01*
X0451800Y0273167D02*
X0447000Y0273167D01*
X0444500Y0273167D02*
X0439800Y0273167D01*
X0338800Y0331167D02*
X0338800Y0347167D01*
X0328800Y0347167D01*
X0328800Y0331167D01*
X0338800Y0331167D01*
X0336300Y0335167D02*
X0333800Y0339167D01*
X0331300Y0339167D01*
X0333800Y0339167D02*
X0331300Y0335167D01*
X0336300Y0335167D01*
X0333800Y0333167D02*
X0333800Y0339167D01*
X0336300Y0339167D01*
X0333800Y0339167D02*
X0333800Y0341667D01*
X0269300Y0337667D02*
X0269300Y0330667D01*
X0269298Y0330607D01*
X0269293Y0330546D01*
X0269284Y0330487D01*
X0269271Y0330428D01*
X0269255Y0330369D01*
X0269235Y0330312D01*
X0269212Y0330257D01*
X0269185Y0330202D01*
X0269156Y0330150D01*
X0269123Y0330099D01*
X0269087Y0330050D01*
X0269049Y0330004D01*
X0269007Y0329960D01*
X0268963Y0329918D01*
X0268917Y0329880D01*
X0268868Y0329844D01*
X0268817Y0329811D01*
X0268765Y0329782D01*
X0268710Y0329755D01*
X0268655Y0329732D01*
X0268598Y0329712D01*
X0268539Y0329696D01*
X0268480Y0329683D01*
X0268421Y0329674D01*
X0268360Y0329669D01*
X0268300Y0329667D01*
X0266800Y0329667D01*
X0266300Y0330167D01*
X0247300Y0330167D01*
X0246800Y0329667D01*
X0245300Y0329667D01*
X0245240Y0329669D01*
X0245179Y0329674D01*
X0245120Y0329683D01*
X0245061Y0329696D01*
X0245002Y0329712D01*
X0244945Y0329732D01*
X0244890Y0329755D01*
X0244835Y0329782D01*
X0244783Y0329811D01*
X0244732Y0329844D01*
X0244683Y0329880D01*
X0244637Y0329918D01*
X0244593Y0329960D01*
X0244551Y0330004D01*
X0244513Y0330050D01*
X0244477Y0330099D01*
X0244444Y0330150D01*
X0244415Y0330202D01*
X0244388Y0330257D01*
X0244365Y0330312D01*
X0244345Y0330369D01*
X0244329Y0330428D01*
X0244316Y0330487D01*
X0244307Y0330546D01*
X0244302Y0330607D01*
X0244300Y0330667D01*
X0244300Y0337667D01*
X0244302Y0337727D01*
X0244307Y0337788D01*
X0244316Y0337847D01*
X0244329Y0337906D01*
X0244345Y0337965D01*
X0244365Y0338022D01*
X0244388Y0338077D01*
X0244415Y0338132D01*
X0244444Y0338184D01*
X0244477Y0338235D01*
X0244513Y0338284D01*
X0244551Y0338330D01*
X0244593Y0338374D01*
X0244637Y0338416D01*
X0244683Y0338454D01*
X0244732Y0338490D01*
X0244783Y0338523D01*
X0244835Y0338552D01*
X0244890Y0338579D01*
X0244945Y0338602D01*
X0245002Y0338622D01*
X0245061Y0338638D01*
X0245120Y0338651D01*
X0245179Y0338660D01*
X0245240Y0338665D01*
X0245300Y0338667D01*
X0246800Y0338667D01*
X0247300Y0338167D01*
X0266300Y0338167D01*
X0266800Y0338667D01*
X0268300Y0338667D01*
X0268360Y0338665D01*
X0268421Y0338660D01*
X0268480Y0338651D01*
X0268539Y0338638D01*
X0268598Y0338622D01*
X0268655Y0338602D01*
X0268710Y0338579D01*
X0268765Y0338552D01*
X0268817Y0338523D01*
X0268868Y0338490D01*
X0268917Y0338454D01*
X0268963Y0338416D01*
X0269007Y0338374D01*
X0269049Y0338330D01*
X0269087Y0338284D01*
X0269123Y0338235D01*
X0269156Y0338184D01*
X0269185Y0338132D01*
X0269212Y0338077D01*
X0269235Y0338022D01*
X0269255Y0337965D01*
X0269271Y0337906D01*
X0269284Y0337847D01*
X0269293Y0337788D01*
X0269298Y0337727D01*
X0269300Y0337667D01*
X0249300Y0355667D02*
X0249300Y0362667D01*
X0249298Y0362727D01*
X0249293Y0362788D01*
X0249284Y0362847D01*
X0249271Y0362906D01*
X0249255Y0362965D01*
X0249235Y0363022D01*
X0249212Y0363077D01*
X0249185Y0363132D01*
X0249156Y0363184D01*
X0249123Y0363235D01*
X0249087Y0363284D01*
X0249049Y0363330D01*
X0249007Y0363374D01*
X0248963Y0363416D01*
X0248917Y0363454D01*
X0248868Y0363490D01*
X0248817Y0363523D01*
X0248765Y0363552D01*
X0248710Y0363579D01*
X0248655Y0363602D01*
X0248598Y0363622D01*
X0248539Y0363638D01*
X0248480Y0363651D01*
X0248421Y0363660D01*
X0248360Y0363665D01*
X0248300Y0363667D01*
X0246800Y0363667D01*
X0246300Y0363167D01*
X0227300Y0363167D01*
X0226800Y0363667D01*
X0225300Y0363667D01*
X0225240Y0363665D01*
X0225179Y0363660D01*
X0225120Y0363651D01*
X0225061Y0363638D01*
X0225002Y0363622D01*
X0224945Y0363602D01*
X0224890Y0363579D01*
X0224835Y0363552D01*
X0224783Y0363523D01*
X0224732Y0363490D01*
X0224683Y0363454D01*
X0224637Y0363416D01*
X0224593Y0363374D01*
X0224551Y0363330D01*
X0224513Y0363284D01*
X0224477Y0363235D01*
X0224444Y0363184D01*
X0224415Y0363132D01*
X0224388Y0363077D01*
X0224365Y0363022D01*
X0224345Y0362965D01*
X0224329Y0362906D01*
X0224316Y0362847D01*
X0224307Y0362788D01*
X0224302Y0362727D01*
X0224300Y0362667D01*
X0224300Y0355667D01*
X0224302Y0355607D01*
X0224307Y0355546D01*
X0224316Y0355487D01*
X0224329Y0355428D01*
X0224345Y0355369D01*
X0224365Y0355312D01*
X0224388Y0355257D01*
X0224415Y0355202D01*
X0224444Y0355150D01*
X0224477Y0355099D01*
X0224513Y0355050D01*
X0224551Y0355004D01*
X0224593Y0354960D01*
X0224637Y0354918D01*
X0224683Y0354880D01*
X0224732Y0354844D01*
X0224783Y0354811D01*
X0224835Y0354782D01*
X0224890Y0354755D01*
X0224945Y0354732D01*
X0225002Y0354712D01*
X0225061Y0354696D01*
X0225120Y0354683D01*
X0225179Y0354674D01*
X0225240Y0354669D01*
X0225300Y0354667D01*
X0226800Y0354667D01*
X0227300Y0355167D01*
X0246300Y0355167D01*
X0246800Y0354667D01*
X0248300Y0354667D01*
X0248360Y0354669D01*
X0248421Y0354674D01*
X0248480Y0354683D01*
X0248539Y0354696D01*
X0248598Y0354712D01*
X0248655Y0354732D01*
X0248710Y0354755D01*
X0248765Y0354782D01*
X0248817Y0354811D01*
X0248868Y0354844D01*
X0248917Y0354880D01*
X0248963Y0354918D01*
X0249007Y0354960D01*
X0249049Y0355004D01*
X0249087Y0355050D01*
X0249123Y0355099D01*
X0249156Y0355150D01*
X0249185Y0355202D01*
X0249212Y0355257D01*
X0249235Y0355312D01*
X0249255Y0355369D01*
X0249271Y0355428D01*
X0249284Y0355487D01*
X0249293Y0355546D01*
X0249298Y0355607D01*
X0249300Y0355667D01*
X0076800Y0544667D02*
X0036800Y0544667D01*
X0034800Y0544667D01*
X0034800Y0563667D01*
X0036800Y0562667D01*
X0036800Y0556667D01*
X0076800Y0556667D01*
X0076800Y0544667D01*
X0074700Y0545667D02*
X0058700Y0545667D01*
X0058700Y0555667D01*
X0074700Y0555667D01*
X0074700Y0545667D01*
X0073100Y0551667D02*
X0061100Y0549167D01*
X0060600Y0549667D02*
X0072600Y0552167D01*
X0072334Y0552908D02*
X0072418Y0552859D01*
X0072499Y0552807D01*
X0072578Y0552752D01*
X0072655Y0552693D01*
X0072729Y0552632D01*
X0072801Y0552567D01*
X0072870Y0552499D01*
X0072936Y0552429D01*
X0072999Y0552356D01*
X0073059Y0552280D01*
X0073115Y0552202D01*
X0073169Y0552122D01*
X0073219Y0552040D01*
X0073266Y0551955D01*
X0073309Y0551869D01*
X0073349Y0551781D01*
X0073385Y0551691D01*
X0073417Y0551600D01*
X0073445Y0551508D01*
X0073470Y0551415D01*
X0073491Y0551321D01*
X0073507Y0551225D01*
X0073520Y0551130D01*
X0073529Y0551034D01*
X0073534Y0550937D01*
X0073535Y0550841D01*
X0073532Y0550744D01*
X0073525Y0550648D01*
X0073514Y0550552D01*
X0073499Y0550457D01*
X0073480Y0550362D01*
X0073457Y0550268D01*
X0073430Y0550176D01*
X0073400Y0550084D01*
X0073366Y0549994D01*
X0073328Y0549905D01*
X0073286Y0549818D01*
X0073241Y0549733D01*
X0073192Y0549649D01*
X0073140Y0549568D01*
X0073085Y0549489D01*
X0073026Y0549412D01*
X0072965Y0549338D01*
X0072900Y0549266D01*
X0072500Y0552767D02*
X0072316Y0552911D01*
X0072127Y0553051D01*
X0071936Y0553186D01*
X0071741Y0553316D01*
X0071543Y0553442D01*
X0071342Y0553562D01*
X0071138Y0553678D01*
X0070931Y0553789D01*
X0070722Y0553894D01*
X0070510Y0553995D01*
X0070296Y0554090D01*
X0070079Y0554180D01*
X0069860Y0554265D01*
X0069640Y0554344D01*
X0069417Y0554418D01*
X0069193Y0554487D01*
X0068967Y0554550D01*
X0068740Y0554607D01*
X0068511Y0554659D01*
X0068281Y0554705D01*
X0068050Y0554746D01*
X0067819Y0554781D01*
X0067586Y0554810D01*
X0067353Y0554834D01*
X0067119Y0554852D01*
X0066885Y0554864D01*
X0066650Y0554871D01*
X0066416Y0554872D01*
X0066182Y0554867D01*
X0065947Y0554856D01*
X0065713Y0554840D01*
X0065480Y0554818D01*
X0065247Y0554790D01*
X0065015Y0554757D01*
X0064784Y0554717D01*
X0064554Y0554673D01*
X0064325Y0554622D01*
X0064097Y0554567D01*
X0063871Y0554505D01*
X0063646Y0554438D01*
X0063423Y0554366D01*
X0063202Y0554288D01*
X0062983Y0554205D01*
X0062766Y0554116D01*
X0062551Y0554022D01*
X0062338Y0553923D01*
X0062128Y0553819D01*
X0061921Y0553710D01*
X0061716Y0553596D01*
X0061514Y0553476D01*
X0061315Y0553352D01*
X0061119Y0553223D01*
X0060927Y0553090D01*
X0060737Y0552951D01*
X0060920Y0553084D02*
X0060845Y0553015D01*
X0060773Y0552944D01*
X0060704Y0552870D01*
X0060638Y0552794D01*
X0060574Y0552715D01*
X0060514Y0552634D01*
X0060456Y0552551D01*
X0060402Y0552465D01*
X0060351Y0552378D01*
X0060303Y0552289D01*
X0060259Y0552197D01*
X0060218Y0552105D01*
X0060181Y0552011D01*
X0060147Y0551915D01*
X0060117Y0551819D01*
X0060091Y0551721D01*
X0060068Y0551622D01*
X0060049Y0551523D01*
X0060034Y0551423D01*
X0060022Y0551322D01*
X0060014Y0551221D01*
X0060011Y0551120D01*
X0060010Y0551019D01*
X0060014Y0550918D01*
X0060022Y0550817D01*
X0060033Y0550716D01*
X0060048Y0550616D01*
X0060067Y0550517D01*
X0060089Y0550418D01*
X0060116Y0550320D01*
X0060146Y0550223D01*
X0060179Y0550128D01*
X0060216Y0550034D01*
X0060257Y0549941D01*
X0060301Y0549850D01*
X0060349Y0549761D01*
X0060399Y0549673D01*
X0060453Y0549587D01*
X0060511Y0549504D01*
X0060571Y0549423D01*
X0060634Y0549344D01*
X0060701Y0549267D01*
X0055000Y0545667D02*
X0039000Y0545667D01*
X0039000Y0555667D01*
X0055000Y0555667D01*
X0055000Y0545667D01*
X0053400Y0551667D02*
X0041400Y0549167D01*
X0040900Y0549667D02*
X0052900Y0552167D01*
X0052634Y0552908D02*
X0052718Y0552859D01*
X0052799Y0552807D01*
X0052878Y0552752D01*
X0052955Y0552693D01*
X0053029Y0552632D01*
X0053101Y0552567D01*
X0053170Y0552499D01*
X0053236Y0552429D01*
X0053299Y0552356D01*
X0053359Y0552280D01*
X0053415Y0552202D01*
X0053469Y0552122D01*
X0053519Y0552040D01*
X0053566Y0551955D01*
X0053609Y0551869D01*
X0053649Y0551781D01*
X0053685Y0551691D01*
X0053717Y0551600D01*
X0053745Y0551508D01*
X0053770Y0551415D01*
X0053791Y0551321D01*
X0053807Y0551225D01*
X0053820Y0551130D01*
X0053829Y0551034D01*
X0053834Y0550937D01*
X0053835Y0550841D01*
X0053832Y0550744D01*
X0053825Y0550648D01*
X0053814Y0550552D01*
X0053799Y0550457D01*
X0053780Y0550362D01*
X0053757Y0550268D01*
X0053730Y0550176D01*
X0053700Y0550084D01*
X0053666Y0549994D01*
X0053628Y0549905D01*
X0053586Y0549818D01*
X0053541Y0549733D01*
X0053492Y0549649D01*
X0053440Y0549568D01*
X0053385Y0549489D01*
X0053326Y0549412D01*
X0053265Y0549338D01*
X0053200Y0549266D01*
X0052800Y0552767D02*
X0052615Y0552911D01*
X0052427Y0553051D01*
X0052235Y0553186D01*
X0052040Y0553316D01*
X0051842Y0553442D01*
X0051641Y0553563D01*
X0051437Y0553678D01*
X0051231Y0553789D01*
X0051021Y0553895D01*
X0050810Y0553995D01*
X0050595Y0554090D01*
X0050379Y0554180D01*
X0050160Y0554265D01*
X0049940Y0554344D01*
X0049717Y0554418D01*
X0049493Y0554487D01*
X0049267Y0554550D01*
X0049040Y0554607D01*
X0048811Y0554659D01*
X0048581Y0554705D01*
X0048350Y0554746D01*
X0048118Y0554781D01*
X0047886Y0554810D01*
X0047652Y0554834D01*
X0047419Y0554852D01*
X0047184Y0554864D01*
X0046950Y0554871D01*
X0046716Y0554872D01*
X0046481Y0554867D01*
X0046247Y0554856D01*
X0046013Y0554840D01*
X0045780Y0554818D01*
X0045547Y0554790D01*
X0045315Y0554756D01*
X0045084Y0554717D01*
X0044853Y0554673D01*
X0044624Y0554622D01*
X0044397Y0554566D01*
X0044170Y0554505D01*
X0043946Y0554438D01*
X0043723Y0554366D01*
X0043501Y0554288D01*
X0043282Y0554205D01*
X0043065Y0554116D01*
X0042850Y0554022D01*
X0042638Y0553923D01*
X0042428Y0553819D01*
X0042220Y0553710D01*
X0042016Y0553596D01*
X0041814Y0553476D01*
X0041615Y0553352D01*
X0041419Y0553223D01*
X0041226Y0553089D01*
X0041037Y0552951D01*
X0041220Y0553084D02*
X0041145Y0553015D01*
X0041073Y0552944D01*
X0041004Y0552870D01*
X0040938Y0552794D01*
X0040874Y0552715D01*
X0040814Y0552634D01*
X0040756Y0552551D01*
X0040702Y0552465D01*
X0040651Y0552378D01*
X0040603Y0552289D01*
X0040559Y0552197D01*
X0040518Y0552105D01*
X0040481Y0552011D01*
X0040447Y0551915D01*
X0040417Y0551819D01*
X0040391Y0551721D01*
X0040368Y0551622D01*
X0040349Y0551523D01*
X0040334Y0551423D01*
X0040322Y0551322D01*
X0040314Y0551221D01*
X0040311Y0551120D01*
X0040310Y0551019D01*
X0040314Y0550918D01*
X0040322Y0550817D01*
X0040333Y0550716D01*
X0040348Y0550616D01*
X0040367Y0550517D01*
X0040389Y0550418D01*
X0040416Y0550320D01*
X0040446Y0550223D01*
X0040479Y0550128D01*
X0040516Y0550034D01*
X0040557Y0549941D01*
X0040601Y0549850D01*
X0040649Y0549761D01*
X0040699Y0549673D01*
X0040753Y0549587D01*
X0040811Y0549504D01*
X0040871Y0549423D01*
X0040934Y0549344D01*
X0041001Y0549267D01*
X0036800Y0544667D02*
X0036800Y0556667D01*
X0036800Y0562667D02*
X0036800Y0566667D01*
X0040500Y0566667D01*
X0040500Y0568167D02*
X0039000Y0568167D01*
X0039000Y0586167D01*
X0039000Y0593667D01*
X0036800Y0593667D01*
X0036800Y0589667D01*
X0036800Y0585167D01*
X0036800Y0566667D01*
X0040500Y0571167D02*
X0040500Y0583667D01*
X0053500Y0583667D01*
X0053500Y0571167D01*
X0053500Y0568167D02*
X0055000Y0568167D01*
X0055000Y0586167D01*
X0039000Y0586167D01*
X0036800Y0585167D02*
X0034800Y0584167D01*
X0034800Y0590667D01*
X0036800Y0589667D01*
X0039000Y0593667D02*
X0055000Y0593667D01*
X0058700Y0593667D01*
X0074700Y0593667D01*
X0074700Y0586167D01*
X0058700Y0586167D01*
X0058700Y0568167D01*
X0060200Y0568167D01*
X0060200Y0566667D02*
X0053500Y0566667D01*
X0060200Y0571167D02*
X0060200Y0583667D01*
X0073200Y0583667D01*
X0073200Y0571167D01*
X0073200Y0568167D02*
X0074700Y0568167D01*
X0074700Y0586167D01*
X0074700Y0593667D02*
X0076800Y0593667D01*
X0076800Y0566667D01*
X0073200Y0566667D01*
X0076800Y0566667D02*
X0076800Y0556667D01*
X0073100Y0549467D02*
X0072975Y0549316D01*
X0072846Y0549167D01*
X0072713Y0549022D01*
X0072577Y0548881D01*
X0072437Y0548742D01*
X0072295Y0548607D01*
X0072148Y0548476D01*
X0071999Y0548348D01*
X0071847Y0548224D01*
X0071692Y0548103D01*
X0071534Y0547987D01*
X0071373Y0547874D01*
X0071209Y0547765D01*
X0071043Y0547660D01*
X0070874Y0547559D01*
X0070703Y0547462D01*
X0070530Y0547370D01*
X0070354Y0547282D01*
X0070176Y0547198D01*
X0069997Y0547118D01*
X0069815Y0547043D01*
X0069632Y0546972D01*
X0069447Y0546905D01*
X0069260Y0546843D01*
X0069072Y0546786D01*
X0068883Y0546733D01*
X0068693Y0546685D01*
X0068501Y0546641D01*
X0068308Y0546603D01*
X0068115Y0546568D01*
X0067920Y0546539D01*
X0067725Y0546514D01*
X0067530Y0546494D01*
X0067334Y0546479D01*
X0067138Y0546468D01*
X0066941Y0546462D01*
X0066745Y0546461D01*
X0066548Y0546465D01*
X0066352Y0546473D01*
X0066156Y0546487D01*
X0065960Y0546505D01*
X0065765Y0546527D01*
X0065570Y0546555D01*
X0065376Y0546587D01*
X0065183Y0546624D01*
X0064991Y0546665D01*
X0064800Y0546712D01*
X0064610Y0546762D01*
X0064422Y0546818D01*
X0064235Y0546878D01*
X0064049Y0546942D01*
X0063865Y0547011D01*
X0063683Y0547084D01*
X0063502Y0547162D01*
X0063324Y0547244D01*
X0063147Y0547331D01*
X0062973Y0547421D01*
X0062801Y0547516D01*
X0062631Y0547615D01*
X0062464Y0547718D01*
X0062299Y0547826D01*
X0062137Y0547937D01*
X0061977Y0548052D01*
X0061821Y0548171D01*
X0061667Y0548293D01*
X0061517Y0548419D01*
X0061369Y0548549D01*
X0061225Y0548683D01*
X0061084Y0548820D01*
X0060946Y0548960D01*
X0060812Y0549104D01*
X0060681Y0549250D01*
X0053399Y0549467D02*
X0053274Y0549316D01*
X0053145Y0549168D01*
X0053012Y0549023D01*
X0052876Y0548881D01*
X0052736Y0548743D01*
X0052594Y0548608D01*
X0052447Y0548476D01*
X0052298Y0548349D01*
X0052146Y0548224D01*
X0051991Y0548104D01*
X0051833Y0547987D01*
X0051672Y0547874D01*
X0051508Y0547766D01*
X0051342Y0547661D01*
X0051173Y0547560D01*
X0051002Y0547463D01*
X0050829Y0547371D01*
X0050653Y0547282D01*
X0050475Y0547198D01*
X0050296Y0547119D01*
X0050114Y0547043D01*
X0049931Y0546973D01*
X0049746Y0546906D01*
X0049560Y0546844D01*
X0049372Y0546787D01*
X0049182Y0546734D01*
X0048992Y0546686D01*
X0048800Y0546642D01*
X0048608Y0546603D01*
X0048414Y0546569D01*
X0048220Y0546540D01*
X0048025Y0546515D01*
X0047829Y0546495D01*
X0047633Y0546480D01*
X0047437Y0546469D01*
X0047241Y0546463D01*
X0047044Y0546462D01*
X0046848Y0546466D01*
X0046651Y0546474D01*
X0046455Y0546488D01*
X0046260Y0546506D01*
X0046065Y0546528D01*
X0045870Y0546556D01*
X0045676Y0546588D01*
X0045483Y0546625D01*
X0045291Y0546666D01*
X0045100Y0546713D01*
X0044910Y0546763D01*
X0044722Y0546819D01*
X0044534Y0546879D01*
X0044349Y0546943D01*
X0044165Y0547012D01*
X0043983Y0547086D01*
X0043802Y0547163D01*
X0043624Y0547245D01*
X0043447Y0547332D01*
X0043273Y0547423D01*
X0043101Y0547517D01*
X0042931Y0547616D01*
X0042764Y0547720D01*
X0042599Y0547827D01*
X0042437Y0547938D01*
X0042277Y0548053D01*
X0042121Y0548172D01*
X0041967Y0548294D01*
X0041817Y0548421D01*
X0041669Y0548550D01*
X0041525Y0548684D01*
X0041384Y0548821D01*
X0041246Y0548961D01*
X0041112Y0549105D01*
X0040982Y0549251D01*
X0055000Y0586167D02*
X0055000Y0593667D01*
X0058700Y0593667D02*
X0058700Y0586167D01*
X0426040Y0124663D02*
X0426040Y0085564D01*
X0505961Y0085564D01*
X0505961Y0124663D01*
X0426040Y0124663D01*
X0396800Y0113167D02*
X0396800Y0097167D01*
X0396798Y0097107D01*
X0396793Y0097046D01*
X0396784Y0096987D01*
X0396771Y0096928D01*
X0396755Y0096869D01*
X0396735Y0096812D01*
X0396712Y0096757D01*
X0396685Y0096702D01*
X0396656Y0096650D01*
X0396623Y0096599D01*
X0396587Y0096550D01*
X0396549Y0096504D01*
X0396507Y0096460D01*
X0396463Y0096418D01*
X0396417Y0096380D01*
X0396368Y0096344D01*
X0396317Y0096311D01*
X0396265Y0096282D01*
X0396210Y0096255D01*
X0396155Y0096232D01*
X0396098Y0096212D01*
X0396039Y0096196D01*
X0395980Y0096183D01*
X0395921Y0096174D01*
X0395860Y0096169D01*
X0395800Y0096167D01*
X0389800Y0096167D01*
X0389740Y0096169D01*
X0389679Y0096174D01*
X0389620Y0096183D01*
X0389561Y0096196D01*
X0389502Y0096212D01*
X0389445Y0096232D01*
X0389390Y0096255D01*
X0389335Y0096282D01*
X0389283Y0096311D01*
X0389232Y0096344D01*
X0389183Y0096380D01*
X0389137Y0096418D01*
X0389093Y0096460D01*
X0389051Y0096504D01*
X0389013Y0096550D01*
X0388977Y0096599D01*
X0388944Y0096650D01*
X0388915Y0096702D01*
X0388888Y0096757D01*
X0388865Y0096812D01*
X0388845Y0096869D01*
X0388829Y0096928D01*
X0388816Y0096987D01*
X0388807Y0097046D01*
X0388802Y0097107D01*
X0388800Y0097167D01*
X0388800Y0113167D01*
X0388802Y0113227D01*
X0388807Y0113288D01*
X0388816Y0113347D01*
X0388829Y0113406D01*
X0388845Y0113465D01*
X0388865Y0113522D01*
X0388888Y0113577D01*
X0388915Y0113632D01*
X0388944Y0113684D01*
X0388977Y0113735D01*
X0389013Y0113784D01*
X0389051Y0113830D01*
X0389093Y0113874D01*
X0389137Y0113916D01*
X0389183Y0113954D01*
X0389232Y0113990D01*
X0389283Y0114023D01*
X0389335Y0114052D01*
X0389390Y0114079D01*
X0389445Y0114102D01*
X0389502Y0114122D01*
X0389561Y0114138D01*
X0389620Y0114151D01*
X0389679Y0114160D01*
X0389740Y0114165D01*
X0389800Y0114167D01*
X0395800Y0114167D01*
X0395860Y0114165D01*
X0395921Y0114160D01*
X0395980Y0114151D01*
X0396039Y0114138D01*
X0396098Y0114122D01*
X0396155Y0114102D01*
X0396210Y0114079D01*
X0396265Y0114052D01*
X0396317Y0114023D01*
X0396368Y0113990D01*
X0396417Y0113954D01*
X0396463Y0113916D01*
X0396507Y0113874D01*
X0396549Y0113830D01*
X0396587Y0113784D01*
X0396623Y0113735D01*
X0396656Y0113684D01*
X0396685Y0113632D01*
X0396712Y0113577D01*
X0396735Y0113522D01*
X0396755Y0113465D01*
X0396771Y0113406D01*
X0396784Y0113347D01*
X0396793Y0113288D01*
X0396798Y0113227D01*
X0396800Y0113167D01*
X0395300Y0109167D02*
X0392800Y0105167D01*
X0395300Y0105167D01*
X0392800Y0105167D02*
X0390300Y0105167D01*
X0392800Y0105167D02*
X0390300Y0109167D01*
X0395300Y0109167D01*
X0392800Y0111167D02*
X0392800Y0105167D01*
X0392800Y0102667D01*
X0298800Y0058667D02*
X0298800Y0039667D01*
X0296800Y0040667D01*
X0296800Y0046667D01*
X0256800Y0046667D01*
X0256800Y0058667D01*
X0296800Y0058667D01*
X0298800Y0058667D01*
X0296800Y0058667D02*
X0296800Y0046667D01*
X0294600Y0047667D02*
X0278600Y0047667D01*
X0278600Y0057667D01*
X0294600Y0057667D01*
X0294600Y0047667D01*
X0292380Y0050249D02*
X0292455Y0050318D01*
X0292527Y0050389D01*
X0292596Y0050463D01*
X0292662Y0050539D01*
X0292726Y0050618D01*
X0292786Y0050699D01*
X0292844Y0050782D01*
X0292898Y0050868D01*
X0292949Y0050955D01*
X0292997Y0051044D01*
X0293041Y0051136D01*
X0293082Y0051228D01*
X0293119Y0051322D01*
X0293153Y0051418D01*
X0293183Y0051514D01*
X0293209Y0051612D01*
X0293232Y0051711D01*
X0293251Y0051810D01*
X0293266Y0051910D01*
X0293278Y0052011D01*
X0293286Y0052112D01*
X0293289Y0052213D01*
X0293290Y0052314D01*
X0293286Y0052415D01*
X0293278Y0052516D01*
X0293267Y0052617D01*
X0293252Y0052717D01*
X0293233Y0052816D01*
X0293211Y0052915D01*
X0293184Y0053013D01*
X0293154Y0053110D01*
X0293121Y0053205D01*
X0293084Y0053299D01*
X0293043Y0053392D01*
X0292999Y0053483D01*
X0292951Y0053572D01*
X0292901Y0053660D01*
X0292847Y0053746D01*
X0292789Y0053829D01*
X0292729Y0053910D01*
X0292666Y0053989D01*
X0292599Y0054066D01*
X0292200Y0054167D02*
X0280200Y0051667D01*
X0280700Y0051167D02*
X0292700Y0053667D01*
X0292563Y0050383D02*
X0292374Y0050245D01*
X0292181Y0050111D01*
X0291985Y0049982D01*
X0291786Y0049858D01*
X0291584Y0049738D01*
X0291380Y0049624D01*
X0291172Y0049515D01*
X0290962Y0049411D01*
X0290750Y0049312D01*
X0290535Y0049218D01*
X0290318Y0049129D01*
X0290099Y0049046D01*
X0289877Y0048968D01*
X0289654Y0048896D01*
X0289430Y0048829D01*
X0289203Y0048768D01*
X0288976Y0048712D01*
X0288747Y0048661D01*
X0288516Y0048617D01*
X0288285Y0048578D01*
X0288053Y0048544D01*
X0287820Y0048516D01*
X0287587Y0048494D01*
X0287353Y0048478D01*
X0287119Y0048467D01*
X0286884Y0048462D01*
X0286650Y0048463D01*
X0286416Y0048470D01*
X0286181Y0048482D01*
X0285948Y0048500D01*
X0285714Y0048524D01*
X0285482Y0048553D01*
X0285250Y0048588D01*
X0285019Y0048629D01*
X0284789Y0048675D01*
X0284560Y0048727D01*
X0284333Y0048784D01*
X0284107Y0048847D01*
X0283883Y0048916D01*
X0283660Y0048990D01*
X0283440Y0049069D01*
X0283221Y0049154D01*
X0283005Y0049244D01*
X0282790Y0049339D01*
X0282579Y0049439D01*
X0282369Y0049545D01*
X0282163Y0049656D01*
X0281959Y0049771D01*
X0281758Y0049892D01*
X0281560Y0050018D01*
X0281365Y0050148D01*
X0281173Y0050283D01*
X0280985Y0050423D01*
X0280800Y0050567D01*
X0280966Y0050425D02*
X0280882Y0050474D01*
X0280801Y0050526D01*
X0280722Y0050581D01*
X0280645Y0050640D01*
X0280571Y0050701D01*
X0280499Y0050766D01*
X0280430Y0050834D01*
X0280364Y0050904D01*
X0280301Y0050977D01*
X0280241Y0051053D01*
X0280185Y0051131D01*
X0280131Y0051211D01*
X0280081Y0051293D01*
X0280034Y0051378D01*
X0279991Y0051464D01*
X0279951Y0051552D01*
X0279915Y0051642D01*
X0279883Y0051733D01*
X0279855Y0051825D01*
X0279830Y0051918D01*
X0279809Y0052012D01*
X0279793Y0052108D01*
X0279780Y0052203D01*
X0279771Y0052299D01*
X0279766Y0052396D01*
X0279765Y0052492D01*
X0279768Y0052589D01*
X0279775Y0052685D01*
X0279786Y0052781D01*
X0279801Y0052876D01*
X0279820Y0052971D01*
X0279843Y0053065D01*
X0279870Y0053157D01*
X0279900Y0053249D01*
X0279934Y0053339D01*
X0279972Y0053428D01*
X0280014Y0053515D01*
X0280059Y0053600D01*
X0280108Y0053684D01*
X0280160Y0053765D01*
X0280215Y0053844D01*
X0280274Y0053921D01*
X0280335Y0053995D01*
X0280400Y0054067D01*
X0274900Y0057667D02*
X0274900Y0047667D01*
X0258900Y0047667D01*
X0258900Y0057667D01*
X0274900Y0057667D01*
X0272500Y0054167D02*
X0260500Y0051667D01*
X0261000Y0051167D02*
X0273000Y0053667D01*
X0272899Y0054066D02*
X0272966Y0053989D01*
X0273029Y0053910D01*
X0273089Y0053829D01*
X0273147Y0053746D01*
X0273201Y0053660D01*
X0273251Y0053572D01*
X0273299Y0053483D01*
X0273343Y0053392D01*
X0273384Y0053299D01*
X0273421Y0053205D01*
X0273454Y0053110D01*
X0273484Y0053013D01*
X0273511Y0052915D01*
X0273533Y0052816D01*
X0273552Y0052717D01*
X0273567Y0052617D01*
X0273578Y0052516D01*
X0273586Y0052415D01*
X0273590Y0052314D01*
X0273589Y0052213D01*
X0273586Y0052112D01*
X0273578Y0052011D01*
X0273566Y0051910D01*
X0273551Y0051810D01*
X0273532Y0051711D01*
X0273509Y0051612D01*
X0273483Y0051514D01*
X0273453Y0051418D01*
X0273419Y0051322D01*
X0273382Y0051228D01*
X0273341Y0051136D01*
X0273297Y0051044D01*
X0273249Y0050955D01*
X0273198Y0050868D01*
X0273144Y0050782D01*
X0273086Y0050699D01*
X0273026Y0050618D01*
X0272962Y0050539D01*
X0272896Y0050463D01*
X0272827Y0050389D01*
X0272755Y0050318D01*
X0272680Y0050249D01*
X0272919Y0054084D02*
X0272788Y0054230D01*
X0272654Y0054374D01*
X0272516Y0054514D01*
X0272375Y0054651D01*
X0272231Y0054785D01*
X0272083Y0054915D01*
X0271933Y0055041D01*
X0271779Y0055163D01*
X0271623Y0055282D01*
X0271463Y0055397D01*
X0271301Y0055508D01*
X0271136Y0055616D01*
X0270969Y0055719D01*
X0270799Y0055818D01*
X0270627Y0055913D01*
X0270453Y0056003D01*
X0270276Y0056090D01*
X0270098Y0056172D01*
X0269917Y0056250D01*
X0269735Y0056323D01*
X0269551Y0056392D01*
X0269365Y0056456D01*
X0269178Y0056516D01*
X0268990Y0056572D01*
X0268800Y0056622D01*
X0268609Y0056669D01*
X0268417Y0056710D01*
X0268224Y0056747D01*
X0268030Y0056779D01*
X0267835Y0056807D01*
X0267640Y0056829D01*
X0267444Y0056847D01*
X0267248Y0056861D01*
X0267052Y0056869D01*
X0266855Y0056873D01*
X0266659Y0056872D01*
X0266462Y0056866D01*
X0266266Y0056855D01*
X0266070Y0056840D01*
X0265875Y0056820D01*
X0265680Y0056795D01*
X0265485Y0056766D01*
X0265292Y0056731D01*
X0265099Y0056693D01*
X0264907Y0056649D01*
X0264717Y0056601D01*
X0264528Y0056548D01*
X0264340Y0056491D01*
X0264153Y0056429D01*
X0263968Y0056362D01*
X0263785Y0056291D01*
X0263603Y0056216D01*
X0263424Y0056136D01*
X0263246Y0056052D01*
X0263070Y0055964D01*
X0262897Y0055872D01*
X0262726Y0055775D01*
X0262557Y0055674D01*
X0262391Y0055569D01*
X0262227Y0055460D01*
X0262066Y0055347D01*
X0261908Y0055231D01*
X0261753Y0055110D01*
X0261601Y0054986D01*
X0261452Y0054858D01*
X0261305Y0054727D01*
X0261163Y0054592D01*
X0261023Y0054453D01*
X0260887Y0054312D01*
X0260754Y0054167D01*
X0260625Y0054018D01*
X0260500Y0053867D01*
X0260700Y0054067D02*
X0260635Y0053995D01*
X0260574Y0053921D01*
X0260515Y0053844D01*
X0260460Y0053765D01*
X0260408Y0053684D01*
X0260359Y0053600D01*
X0260314Y0053515D01*
X0260272Y0053428D01*
X0260234Y0053339D01*
X0260200Y0053249D01*
X0260170Y0053157D01*
X0260143Y0053065D01*
X0260120Y0052971D01*
X0260101Y0052876D01*
X0260086Y0052781D01*
X0260075Y0052685D01*
X0260068Y0052589D01*
X0260065Y0052492D01*
X0260066Y0052396D01*
X0260071Y0052299D01*
X0260080Y0052203D01*
X0260093Y0052108D01*
X0260109Y0052012D01*
X0260130Y0051918D01*
X0260155Y0051825D01*
X0260183Y0051733D01*
X0260215Y0051642D01*
X0260251Y0051552D01*
X0260291Y0051464D01*
X0260334Y0051378D01*
X0260381Y0051293D01*
X0260431Y0051211D01*
X0260485Y0051131D01*
X0260541Y0051053D01*
X0260601Y0050977D01*
X0260664Y0050904D01*
X0260730Y0050834D01*
X0260799Y0050766D01*
X0260871Y0050701D01*
X0260945Y0050640D01*
X0261022Y0050581D01*
X0261101Y0050526D01*
X0261182Y0050474D01*
X0261266Y0050425D01*
X0256800Y0046667D02*
X0256800Y0036667D01*
X0260400Y0036667D01*
X0260400Y0035167D02*
X0258900Y0035167D01*
X0258900Y0017167D01*
X0258900Y0009667D01*
X0274900Y0009667D01*
X0278600Y0009667D01*
X0294600Y0009667D01*
X0294600Y0017167D01*
X0278600Y0017167D01*
X0278600Y0035167D01*
X0280100Y0035167D01*
X0280100Y0036667D02*
X0273400Y0036667D01*
X0273400Y0035167D02*
X0274900Y0035167D01*
X0274900Y0017167D01*
X0258900Y0017167D01*
X0260400Y0019667D02*
X0260400Y0032167D01*
X0256800Y0036667D02*
X0256800Y0009667D01*
X0258900Y0009667D01*
X0260400Y0019667D02*
X0273400Y0019667D01*
X0273400Y0032167D01*
X0280100Y0032167D02*
X0280100Y0019667D01*
X0293100Y0019667D01*
X0293100Y0032167D01*
X0293100Y0035167D02*
X0294600Y0035167D01*
X0294600Y0017167D01*
X0296800Y0018167D02*
X0296800Y0036667D01*
X0293100Y0036667D01*
X0296800Y0036667D02*
X0296800Y0040667D01*
X0292618Y0054083D02*
X0292488Y0054229D01*
X0292354Y0054373D01*
X0292216Y0054513D01*
X0292075Y0054650D01*
X0291931Y0054784D01*
X0291783Y0054913D01*
X0291633Y0055040D01*
X0291479Y0055162D01*
X0291323Y0055281D01*
X0291163Y0055396D01*
X0291001Y0055507D01*
X0290836Y0055614D01*
X0290669Y0055718D01*
X0290499Y0055817D01*
X0290327Y0055911D01*
X0290153Y0056002D01*
X0289976Y0056089D01*
X0289798Y0056171D01*
X0289617Y0056248D01*
X0289435Y0056322D01*
X0289251Y0056391D01*
X0289066Y0056455D01*
X0288878Y0056515D01*
X0288690Y0056571D01*
X0288500Y0056621D01*
X0288309Y0056668D01*
X0288117Y0056709D01*
X0287924Y0056746D01*
X0287730Y0056778D01*
X0287535Y0056806D01*
X0287340Y0056828D01*
X0287145Y0056846D01*
X0286949Y0056860D01*
X0286752Y0056868D01*
X0286556Y0056872D01*
X0286359Y0056871D01*
X0286163Y0056865D01*
X0285967Y0056854D01*
X0285771Y0056839D01*
X0285575Y0056819D01*
X0285380Y0056794D01*
X0285186Y0056765D01*
X0284992Y0056731D01*
X0284800Y0056692D01*
X0284608Y0056648D01*
X0284418Y0056600D01*
X0284228Y0056547D01*
X0284040Y0056490D01*
X0283854Y0056428D01*
X0283669Y0056361D01*
X0283486Y0056291D01*
X0283304Y0056215D01*
X0283125Y0056136D01*
X0282947Y0056052D01*
X0282771Y0055963D01*
X0282598Y0055871D01*
X0282427Y0055774D01*
X0282258Y0055673D01*
X0282092Y0055568D01*
X0281928Y0055460D01*
X0281767Y0055347D01*
X0281609Y0055230D01*
X0281454Y0055110D01*
X0281302Y0054985D01*
X0281153Y0054858D01*
X0281006Y0054726D01*
X0280864Y0054591D01*
X0280724Y0054453D01*
X0280588Y0054311D01*
X0280455Y0054166D01*
X0280326Y0054018D01*
X0280201Y0053867D01*
X0272863Y0050383D02*
X0272673Y0050244D01*
X0272481Y0050111D01*
X0272285Y0049982D01*
X0272086Y0049858D01*
X0271884Y0049738D01*
X0271679Y0049624D01*
X0271472Y0049515D01*
X0271262Y0049411D01*
X0271049Y0049312D01*
X0270834Y0049218D01*
X0270617Y0049129D01*
X0270398Y0049046D01*
X0270177Y0048968D01*
X0269954Y0048896D01*
X0269729Y0048829D01*
X0269503Y0048767D01*
X0269275Y0048712D01*
X0269046Y0048661D01*
X0268816Y0048617D01*
X0268585Y0048577D01*
X0268353Y0048544D01*
X0268120Y0048516D01*
X0267887Y0048494D01*
X0267653Y0048478D01*
X0267418Y0048467D01*
X0267184Y0048462D01*
X0266950Y0048463D01*
X0266715Y0048470D01*
X0266481Y0048482D01*
X0266247Y0048500D01*
X0266014Y0048524D01*
X0265781Y0048553D01*
X0265550Y0048588D01*
X0265319Y0048629D01*
X0265089Y0048675D01*
X0264860Y0048727D01*
X0264633Y0048784D01*
X0264407Y0048847D01*
X0264183Y0048916D01*
X0263960Y0048990D01*
X0263740Y0049069D01*
X0263521Y0049154D01*
X0263304Y0049244D01*
X0263090Y0049339D01*
X0262878Y0049440D01*
X0262669Y0049545D01*
X0262462Y0049656D01*
X0262258Y0049772D01*
X0262057Y0049892D01*
X0261859Y0050018D01*
X0261664Y0050148D01*
X0261473Y0050283D01*
X0261284Y0050423D01*
X0261100Y0050567D01*
X0296800Y0018167D02*
X0296800Y0013667D01*
X0296800Y0009667D01*
X0294600Y0009667D01*
X0296800Y0013667D02*
X0298800Y0012667D01*
X0298800Y0019167D01*
X0296800Y0018167D01*
X0278600Y0017167D02*
X0278600Y0009667D01*
X0274900Y0009667D02*
X0274900Y0017167D01*
X0581800Y0093667D02*
X0581800Y0101167D01*
X0581926Y0101169D01*
X0582051Y0101175D01*
X0582176Y0101185D01*
X0582301Y0101199D01*
X0582426Y0101216D01*
X0582550Y0101238D01*
X0582673Y0101263D01*
X0582795Y0101293D01*
X0582916Y0101326D01*
X0583036Y0101363D01*
X0583155Y0101403D01*
X0583272Y0101448D01*
X0583389Y0101496D01*
X0583503Y0101548D01*
X0583616Y0101603D01*
X0583727Y0101662D01*
X0583836Y0101724D01*
X0583943Y0101790D01*
X0584048Y0101859D01*
X0584151Y0101931D01*
X0584252Y0102006D01*
X0584350Y0102085D01*
X0584445Y0102167D01*
X0584538Y0102251D01*
X0584628Y0102339D01*
X0584716Y0102429D01*
X0584800Y0102522D01*
X0584882Y0102617D01*
X0584961Y0102715D01*
X0585036Y0102816D01*
X0585108Y0102919D01*
X0585177Y0103024D01*
X0585243Y0103131D01*
X0585305Y0103240D01*
X0585364Y0103351D01*
X0585419Y0103464D01*
X0585471Y0103578D01*
X0585519Y0103695D01*
X0585564Y0103812D01*
X0585604Y0103931D01*
X0585641Y0104051D01*
X0585674Y0104172D01*
X0585704Y0104294D01*
X0585729Y0104417D01*
X0585751Y0104541D01*
X0585768Y0104666D01*
X0585782Y0104791D01*
X0585792Y0104916D01*
X0585798Y0105041D01*
X0585800Y0105167D01*
X0585798Y0105293D01*
X0585792Y0105418D01*
X0585782Y0105543D01*
X0585768Y0105668D01*
X0585751Y0105793D01*
X0585729Y0105917D01*
X0585704Y0106040D01*
X0585674Y0106162D01*
X0585641Y0106283D01*
X0585604Y0106403D01*
X0585564Y0106522D01*
X0585519Y0106639D01*
X0585471Y0106756D01*
X0585419Y0106870D01*
X0585364Y0106983D01*
X0585305Y0107094D01*
X0585243Y0107203D01*
X0585177Y0107310D01*
X0585108Y0107415D01*
X0585036Y0107518D01*
X0584961Y0107619D01*
X0584882Y0107717D01*
X0584800Y0107812D01*
X0584716Y0107905D01*
X0584628Y0107995D01*
X0584538Y0108083D01*
X0584445Y0108167D01*
X0584350Y0108249D01*
X0584252Y0108328D01*
X0584151Y0108403D01*
X0584048Y0108475D01*
X0583943Y0108544D01*
X0583836Y0108610D01*
X0583727Y0108672D01*
X0583616Y0108731D01*
X0583503Y0108786D01*
X0583389Y0108838D01*
X0583272Y0108886D01*
X0583155Y0108931D01*
X0583036Y0108971D01*
X0582916Y0109008D01*
X0582795Y0109041D01*
X0582673Y0109071D01*
X0582550Y0109096D01*
X0582426Y0109118D01*
X0582301Y0109135D01*
X0582176Y0109149D01*
X0582051Y0109159D01*
X0581926Y0109165D01*
X0581800Y0109167D01*
X0581800Y0116667D01*
X0621800Y0116667D01*
X0621800Y0093667D01*
X0581800Y0093667D01*
X0634800Y0142667D02*
X0634800Y0169667D01*
X0634802Y0169727D01*
X0634807Y0169788D01*
X0634816Y0169847D01*
X0634829Y0169906D01*
X0634845Y0169965D01*
X0634865Y0170022D01*
X0634888Y0170077D01*
X0634915Y0170132D01*
X0634944Y0170184D01*
X0634977Y0170235D01*
X0635013Y0170284D01*
X0635051Y0170330D01*
X0635093Y0170374D01*
X0635137Y0170416D01*
X0635183Y0170454D01*
X0635232Y0170490D01*
X0635283Y0170523D01*
X0635335Y0170552D01*
X0635390Y0170579D01*
X0635445Y0170602D01*
X0635502Y0170622D01*
X0635561Y0170638D01*
X0635620Y0170651D01*
X0635679Y0170660D01*
X0635740Y0170665D01*
X0635800Y0170667D01*
X0655800Y0170667D01*
X0655860Y0170665D01*
X0655921Y0170660D01*
X0655980Y0170651D01*
X0656039Y0170638D01*
X0656098Y0170622D01*
X0656155Y0170602D01*
X0656210Y0170579D01*
X0656265Y0170552D01*
X0656317Y0170523D01*
X0656368Y0170490D01*
X0656417Y0170454D01*
X0656463Y0170416D01*
X0656507Y0170374D01*
X0656549Y0170330D01*
X0656587Y0170284D01*
X0656623Y0170235D01*
X0656656Y0170184D01*
X0656685Y0170132D01*
X0656712Y0170077D01*
X0656735Y0170022D01*
X0656755Y0169965D01*
X0656771Y0169906D01*
X0656784Y0169847D01*
X0656793Y0169788D01*
X0656798Y0169727D01*
X0656800Y0169667D01*
X0656800Y0142667D01*
X0656798Y0142607D01*
X0656793Y0142546D01*
X0656784Y0142487D01*
X0656771Y0142428D01*
X0656755Y0142369D01*
X0656735Y0142312D01*
X0656712Y0142257D01*
X0656685Y0142202D01*
X0656656Y0142150D01*
X0656623Y0142099D01*
X0656587Y0142050D01*
X0656549Y0142004D01*
X0656507Y0141960D01*
X0656463Y0141918D01*
X0656417Y0141880D01*
X0656368Y0141844D01*
X0656317Y0141811D01*
X0656265Y0141782D01*
X0656210Y0141755D01*
X0656155Y0141732D01*
X0656098Y0141712D01*
X0656039Y0141696D01*
X0655980Y0141683D01*
X0655921Y0141674D01*
X0655860Y0141669D01*
X0655800Y0141667D01*
X0635800Y0141667D01*
X0635740Y0141669D01*
X0635679Y0141674D01*
X0635620Y0141683D01*
X0635561Y0141696D01*
X0635502Y0141712D01*
X0635445Y0141732D01*
X0635390Y0141755D01*
X0635335Y0141782D01*
X0635283Y0141811D01*
X0635232Y0141844D01*
X0635183Y0141880D01*
X0635137Y0141918D01*
X0635093Y0141960D01*
X0635051Y0142004D01*
X0635013Y0142050D01*
X0634977Y0142099D01*
X0634944Y0142150D01*
X0634915Y0142202D01*
X0634888Y0142257D01*
X0634865Y0142312D01*
X0634845Y0142369D01*
X0634829Y0142428D01*
X0634816Y0142487D01*
X0634807Y0142546D01*
X0634802Y0142607D01*
X0634800Y0142667D01*
X0645800Y0150167D02*
X0645800Y0154967D01*
X0645800Y0157467D02*
X0645800Y0162167D01*
D11*
X0651800Y0414167D02*
X0653300Y0414167D01*
X0619800Y0414167D02*
X0618300Y0414167D01*
X0569300Y0414167D02*
X0567800Y0414167D01*
X0535800Y0414167D02*
X0534300Y0414167D01*
X0499300Y0414167D02*
X0497800Y0414167D01*
X0465800Y0414167D02*
X0464300Y0414167D01*
X0408300Y0414167D02*
X0406800Y0414167D01*
X0374800Y0414167D02*
X0373300Y0414167D01*
X0274300Y0454167D02*
X0272800Y0454167D01*
X0240800Y0454167D02*
X0239300Y0454167D01*
X0252800Y0484167D02*
X0254300Y0484167D01*
X0220800Y0484167D02*
X0219300Y0484167D01*
X0184300Y0484167D02*
X0182800Y0484167D01*
X0150800Y0484167D02*
X0149300Y0484167D01*
X0162800Y0454167D02*
X0164300Y0454167D01*
X0130800Y0454167D02*
X0129300Y0454167D01*
X0149300Y0359167D02*
X0150800Y0359167D01*
X0162800Y0334167D02*
X0164300Y0334167D01*
X0182800Y0359167D02*
X0184300Y0359167D01*
X0219300Y0359167D02*
X0220800Y0359167D01*
X0239300Y0334167D02*
X0240800Y0334167D01*
X0252800Y0359167D02*
X0254300Y0359167D01*
X0272800Y0334167D02*
X0274300Y0334167D01*
X0259300Y0264167D02*
X0257800Y0264167D01*
X0239300Y0239167D02*
X0237800Y0239167D01*
X0225800Y0264167D02*
X0224300Y0264167D01*
X0205800Y0239167D02*
X0204300Y0239167D01*
X0169300Y0239167D02*
X0167800Y0239167D01*
X0149300Y0264167D02*
X0147800Y0264167D01*
X0135800Y0239167D02*
X0134300Y0239167D01*
X0115800Y0264167D02*
X0114300Y0264167D01*
X0129300Y0334167D02*
X0130800Y0334167D01*
X0115800Y0154167D02*
X0114300Y0154167D01*
X0147800Y0154167D02*
X0149300Y0154167D01*
X0135800Y0119167D02*
X0134300Y0119167D01*
X0167800Y0119167D02*
X0169300Y0119167D01*
X0204300Y0119167D02*
X0205800Y0119167D01*
X0237800Y0119167D02*
X0239300Y0119167D01*
X0225800Y0154167D02*
X0224300Y0154167D01*
X0257800Y0154167D02*
X0259300Y0154167D01*
D12*
X0261000Y0154167D03*
X0256000Y0154167D03*
X0227600Y0154167D03*
X0222600Y0154167D03*
X0236000Y0119167D03*
X0241000Y0119167D03*
X0207600Y0119167D03*
X0202600Y0119167D03*
X0171000Y0119167D03*
X0166000Y0119167D03*
X0137600Y0119167D03*
X0132600Y0119167D03*
X0146000Y0154167D03*
X0151000Y0154167D03*
X0117600Y0154167D03*
X0112600Y0154167D03*
X0132600Y0239167D03*
X0137600Y0239167D03*
X0146000Y0264167D03*
X0151000Y0264167D03*
X0166000Y0239167D03*
X0171000Y0239167D03*
X0202600Y0239167D03*
X0207600Y0239167D03*
X0236000Y0239167D03*
X0241000Y0239167D03*
X0227600Y0264167D03*
X0222600Y0264167D03*
X0256000Y0264167D03*
X0261000Y0264167D03*
X0271000Y0334167D03*
X0276000Y0334167D03*
X0256000Y0359167D03*
X0251000Y0359167D03*
X0222600Y0359167D03*
X0217600Y0359167D03*
X0186000Y0359167D03*
X0181000Y0359167D03*
X0152600Y0359167D03*
X0147600Y0359167D03*
X0161000Y0334167D03*
X0166000Y0334167D03*
X0132600Y0334167D03*
X0127600Y0334167D03*
X0117600Y0264167D03*
X0112600Y0264167D03*
X0237600Y0334167D03*
X0242600Y0334167D03*
X0371600Y0414167D03*
X0376600Y0414167D03*
X0405000Y0414167D03*
X0410000Y0414167D03*
X0462600Y0414167D03*
X0467600Y0414167D03*
X0496000Y0414167D03*
X0501000Y0414167D03*
X0532600Y0414167D03*
X0537600Y0414167D03*
X0566000Y0414167D03*
X0571000Y0414167D03*
X0616600Y0414167D03*
X0621600Y0414167D03*
X0650000Y0414167D03*
X0655000Y0414167D03*
X0276000Y0454167D03*
X0271000Y0454167D03*
X0242600Y0454167D03*
X0237600Y0454167D03*
X0251000Y0484167D03*
X0256000Y0484167D03*
X0222600Y0484167D03*
X0217600Y0484167D03*
X0186000Y0484167D03*
X0181000Y0484167D03*
X0152600Y0484167D03*
X0147600Y0484167D03*
X0161000Y0454167D03*
X0166000Y0454167D03*
X0132600Y0454167D03*
X0127600Y0454167D03*
D13*
X0149387Y0315702D02*
X0069245Y0315702D01*
X0069245Y0314521D01*
X0063422Y0314521D01*
X0063422Y0315702D01*
X0042430Y0315702D01*
X0042430Y0282631D01*
X0064387Y0282631D01*
X0064387Y0288734D01*
X0079213Y0288734D01*
X0079213Y0282631D01*
X0064387Y0282631D01*
X0064359Y0286273D02*
X0046859Y0286273D01*
X0046859Y0312060D01*
X0149387Y0312060D01*
X0149387Y0309600D02*
X0164213Y0309600D01*
X0164213Y0315702D01*
X0243422Y0315702D01*
X0243422Y0314521D01*
X0249245Y0314521D01*
X0249245Y0315702D01*
X0271170Y0315702D01*
X0271170Y0282631D01*
X0249213Y0282631D01*
X0249213Y0288734D01*
X0234387Y0288734D01*
X0234387Y0282631D01*
X0079213Y0282631D01*
X0079221Y0286273D02*
X0234379Y0286273D01*
X0234387Y0282631D02*
X0249213Y0282631D01*
X0249241Y0286273D02*
X0266741Y0286273D01*
X0266741Y0312060D01*
X0164213Y0312060D01*
X0164213Y0315702D02*
X0149387Y0315702D01*
X0149387Y0309600D01*
X0373312Y0206167D02*
X0373312Y0199080D01*
X0382859Y0199080D01*
X0382859Y0183352D01*
X0373312Y0183352D01*
X0373312Y0176265D01*
X0411796Y0176265D01*
X0411796Y0206167D01*
X0373312Y0206167D01*
X0373312Y0199080D02*
X0373312Y0183352D01*
X0373804Y0047068D02*
X0373804Y0017167D01*
X0412288Y0017167D01*
X0412288Y0024253D01*
X0402741Y0024253D01*
X0402741Y0039982D01*
X0412288Y0039982D01*
X0412288Y0047068D01*
X0373804Y0047068D01*
X0412288Y0039982D02*
X0412288Y0024253D01*
X0584202Y0031836D02*
X0584202Y0040497D01*
X0592469Y0048765D02*
X0601131Y0048765D01*
X0609398Y0040497D02*
X0609398Y0031836D01*
X0601131Y0023568D02*
X0592469Y0023568D01*
X0590107Y0036167D02*
X0590109Y0036331D01*
X0590115Y0036495D01*
X0590125Y0036659D01*
X0590139Y0036823D01*
X0590157Y0036986D01*
X0590179Y0037149D01*
X0590206Y0037311D01*
X0590236Y0037473D01*
X0590270Y0037633D01*
X0590308Y0037793D01*
X0590349Y0037952D01*
X0590395Y0038110D01*
X0590445Y0038266D01*
X0590498Y0038422D01*
X0590555Y0038576D01*
X0590616Y0038728D01*
X0590681Y0038879D01*
X0590750Y0039029D01*
X0590822Y0039176D01*
X0590897Y0039322D01*
X0590977Y0039466D01*
X0591059Y0039608D01*
X0591145Y0039748D01*
X0591235Y0039885D01*
X0591328Y0040021D01*
X0591424Y0040154D01*
X0591524Y0040285D01*
X0591626Y0040413D01*
X0591732Y0040539D01*
X0591841Y0040662D01*
X0591953Y0040782D01*
X0592067Y0040900D01*
X0592185Y0041014D01*
X0592305Y0041126D01*
X0592428Y0041235D01*
X0592554Y0041341D01*
X0592682Y0041443D01*
X0592813Y0041543D01*
X0592946Y0041639D01*
X0593082Y0041732D01*
X0593219Y0041822D01*
X0593359Y0041908D01*
X0593501Y0041990D01*
X0593645Y0042070D01*
X0593791Y0042145D01*
X0593938Y0042217D01*
X0594088Y0042286D01*
X0594239Y0042351D01*
X0594391Y0042412D01*
X0594545Y0042469D01*
X0594701Y0042522D01*
X0594857Y0042572D01*
X0595015Y0042618D01*
X0595174Y0042659D01*
X0595334Y0042697D01*
X0595494Y0042731D01*
X0595656Y0042761D01*
X0595818Y0042788D01*
X0595981Y0042810D01*
X0596144Y0042828D01*
X0596308Y0042842D01*
X0596472Y0042852D01*
X0596636Y0042858D01*
X0596800Y0042860D01*
X0596964Y0042858D01*
X0597128Y0042852D01*
X0597292Y0042842D01*
X0597456Y0042828D01*
X0597619Y0042810D01*
X0597782Y0042788D01*
X0597944Y0042761D01*
X0598106Y0042731D01*
X0598266Y0042697D01*
X0598426Y0042659D01*
X0598585Y0042618D01*
X0598743Y0042572D01*
X0598899Y0042522D01*
X0599055Y0042469D01*
X0599209Y0042412D01*
X0599361Y0042351D01*
X0599512Y0042286D01*
X0599662Y0042217D01*
X0599809Y0042145D01*
X0599955Y0042070D01*
X0600099Y0041990D01*
X0600241Y0041908D01*
X0600381Y0041822D01*
X0600518Y0041732D01*
X0600654Y0041639D01*
X0600787Y0041543D01*
X0600918Y0041443D01*
X0601046Y0041341D01*
X0601172Y0041235D01*
X0601295Y0041126D01*
X0601415Y0041014D01*
X0601533Y0040900D01*
X0601647Y0040782D01*
X0601759Y0040662D01*
X0601868Y0040539D01*
X0601974Y0040413D01*
X0602076Y0040285D01*
X0602176Y0040154D01*
X0602272Y0040021D01*
X0602365Y0039885D01*
X0602455Y0039748D01*
X0602541Y0039608D01*
X0602623Y0039466D01*
X0602703Y0039322D01*
X0602778Y0039176D01*
X0602850Y0039029D01*
X0602919Y0038879D01*
X0602984Y0038728D01*
X0603045Y0038576D01*
X0603102Y0038422D01*
X0603155Y0038266D01*
X0603205Y0038110D01*
X0603251Y0037952D01*
X0603292Y0037793D01*
X0603330Y0037633D01*
X0603364Y0037473D01*
X0603394Y0037311D01*
X0603421Y0037149D01*
X0603443Y0036986D01*
X0603461Y0036823D01*
X0603475Y0036659D01*
X0603485Y0036495D01*
X0603491Y0036331D01*
X0603493Y0036167D01*
X0603491Y0036003D01*
X0603485Y0035839D01*
X0603475Y0035675D01*
X0603461Y0035511D01*
X0603443Y0035348D01*
X0603421Y0035185D01*
X0603394Y0035023D01*
X0603364Y0034861D01*
X0603330Y0034701D01*
X0603292Y0034541D01*
X0603251Y0034382D01*
X0603205Y0034224D01*
X0603155Y0034068D01*
X0603102Y0033912D01*
X0603045Y0033758D01*
X0602984Y0033606D01*
X0602919Y0033455D01*
X0602850Y0033305D01*
X0602778Y0033158D01*
X0602703Y0033012D01*
X0602623Y0032868D01*
X0602541Y0032726D01*
X0602455Y0032586D01*
X0602365Y0032449D01*
X0602272Y0032313D01*
X0602176Y0032180D01*
X0602076Y0032049D01*
X0601974Y0031921D01*
X0601868Y0031795D01*
X0601759Y0031672D01*
X0601647Y0031552D01*
X0601533Y0031434D01*
X0601415Y0031320D01*
X0601295Y0031208D01*
X0601172Y0031099D01*
X0601046Y0030993D01*
X0600918Y0030891D01*
X0600787Y0030791D01*
X0600654Y0030695D01*
X0600518Y0030602D01*
X0600381Y0030512D01*
X0600241Y0030426D01*
X0600099Y0030344D01*
X0599955Y0030264D01*
X0599809Y0030189D01*
X0599662Y0030117D01*
X0599512Y0030048D01*
X0599361Y0029983D01*
X0599209Y0029922D01*
X0599055Y0029865D01*
X0598899Y0029812D01*
X0598743Y0029762D01*
X0598585Y0029716D01*
X0598426Y0029675D01*
X0598266Y0029637D01*
X0598106Y0029603D01*
X0597944Y0029573D01*
X0597782Y0029546D01*
X0597619Y0029524D01*
X0597456Y0029506D01*
X0597292Y0029492D01*
X0597128Y0029482D01*
X0596964Y0029476D01*
X0596800Y0029474D01*
X0596636Y0029476D01*
X0596472Y0029482D01*
X0596308Y0029492D01*
X0596144Y0029506D01*
X0595981Y0029524D01*
X0595818Y0029546D01*
X0595656Y0029573D01*
X0595494Y0029603D01*
X0595334Y0029637D01*
X0595174Y0029675D01*
X0595015Y0029716D01*
X0594857Y0029762D01*
X0594701Y0029812D01*
X0594545Y0029865D01*
X0594391Y0029922D01*
X0594239Y0029983D01*
X0594088Y0030048D01*
X0593938Y0030117D01*
X0593791Y0030189D01*
X0593645Y0030264D01*
X0593501Y0030344D01*
X0593359Y0030426D01*
X0593219Y0030512D01*
X0593082Y0030602D01*
X0592946Y0030695D01*
X0592813Y0030791D01*
X0592682Y0030891D01*
X0592554Y0030993D01*
X0592428Y0031099D01*
X0592305Y0031208D01*
X0592185Y0031320D01*
X0592067Y0031434D01*
X0591953Y0031552D01*
X0591841Y0031672D01*
X0591732Y0031795D01*
X0591626Y0031921D01*
X0591524Y0032049D01*
X0591424Y0032180D01*
X0591328Y0032313D01*
X0591235Y0032449D01*
X0591145Y0032586D01*
X0591059Y0032726D01*
X0590977Y0032868D01*
X0590897Y0033012D01*
X0590822Y0033158D01*
X0590750Y0033305D01*
X0590681Y0033455D01*
X0590616Y0033606D01*
X0590555Y0033758D01*
X0590498Y0033912D01*
X0590445Y0034068D01*
X0590395Y0034224D01*
X0590349Y0034382D01*
X0590308Y0034541D01*
X0590270Y0034701D01*
X0590236Y0034861D01*
X0590206Y0035023D01*
X0590179Y0035185D01*
X0590157Y0035348D01*
X0590139Y0035511D01*
X0590125Y0035675D01*
X0590115Y0035839D01*
X0590109Y0036003D01*
X0590107Y0036167D01*
D14*
X0282353Y0039417D02*
X0279350Y0039417D01*
X0282353Y0042419D01*
X0282353Y0043170D01*
X0281602Y0043920D01*
X0280101Y0043920D01*
X0279350Y0043170D01*
X0262353Y0039417D02*
X0259350Y0039417D01*
X0260851Y0039417D02*
X0260851Y0043920D01*
X0259350Y0042419D01*
X0067353Y0042419D02*
X0067353Y0043170D01*
X0066602Y0043920D01*
X0065101Y0043920D01*
X0064350Y0043170D01*
X0067353Y0042419D02*
X0064350Y0039417D01*
X0067353Y0039417D01*
X0047353Y0039417D02*
X0044350Y0039417D01*
X0045851Y0039417D02*
X0045851Y0043920D01*
X0044350Y0042419D01*
X0036550Y0137513D02*
X0033547Y0140515D01*
X0032797Y0140515D01*
X0032046Y0139765D01*
X0032046Y0138263D01*
X0032797Y0137513D01*
X0036550Y0137513D02*
X0036550Y0140515D01*
X0036550Y0157513D02*
X0036550Y0160515D01*
X0036550Y0159014D02*
X0032046Y0159014D01*
X0033547Y0157513D01*
X0399554Y0353667D02*
X0416046Y0353667D01*
X0413328Y0359667D02*
X0412272Y0359667D01*
X0417300Y0364639D02*
X0417188Y0364869D01*
X0417071Y0365096D01*
X0416949Y0365320D01*
X0416821Y0365541D01*
X0416687Y0365758D01*
X0416549Y0365973D01*
X0416405Y0366184D01*
X0416256Y0366391D01*
X0416102Y0366595D01*
X0415944Y0366795D01*
X0415780Y0366991D01*
X0415612Y0367183D01*
X0415439Y0367371D01*
X0415261Y0367555D01*
X0415080Y0367734D01*
X0414893Y0367909D01*
X0414703Y0368079D01*
X0414509Y0368244D01*
X0414310Y0368405D01*
X0414108Y0368561D01*
X0413902Y0368712D01*
X0413692Y0368858D01*
X0413479Y0368998D01*
X0413263Y0369134D01*
X0413043Y0369264D01*
X0412820Y0369389D01*
X0412595Y0369508D01*
X0412366Y0369622D01*
X0412135Y0369730D01*
X0411901Y0369833D01*
X0411665Y0369930D01*
X0411426Y0370021D01*
X0411186Y0370106D01*
X0410943Y0370186D01*
X0410698Y0370259D01*
X0410452Y0370327D01*
X0410204Y0370388D01*
X0409955Y0370443D01*
X0409705Y0370493D01*
X0409453Y0370536D01*
X0409200Y0370573D01*
X0408947Y0370604D01*
X0408693Y0370629D01*
X0408438Y0370648D01*
X0408183Y0370660D01*
X0407928Y0370666D01*
X0407672Y0370666D01*
X0407417Y0370660D01*
X0407162Y0370648D01*
X0406907Y0370629D01*
X0406653Y0370604D01*
X0406400Y0370573D01*
X0406147Y0370536D01*
X0405895Y0370493D01*
X0405645Y0370443D01*
X0405396Y0370388D01*
X0405148Y0370327D01*
X0404902Y0370259D01*
X0404657Y0370186D01*
X0404414Y0370106D01*
X0404174Y0370021D01*
X0403935Y0369930D01*
X0403699Y0369833D01*
X0403465Y0369730D01*
X0403234Y0369622D01*
X0403005Y0369508D01*
X0402780Y0369389D01*
X0402557Y0369264D01*
X0402337Y0369134D01*
X0402121Y0368998D01*
X0401908Y0368858D01*
X0401698Y0368712D01*
X0401492Y0368561D01*
X0401290Y0368405D01*
X0401091Y0368244D01*
X0400897Y0368079D01*
X0400707Y0367909D01*
X0400520Y0367734D01*
X0400339Y0367555D01*
X0400161Y0367371D01*
X0399988Y0367183D01*
X0399820Y0366991D01*
X0399656Y0366795D01*
X0399498Y0366595D01*
X0399344Y0366391D01*
X0399195Y0366184D01*
X0399051Y0365973D01*
X0398913Y0365758D01*
X0398779Y0365541D01*
X0398651Y0365320D01*
X0398529Y0365096D01*
X0398412Y0364869D01*
X0398300Y0364639D01*
X0402272Y0359667D02*
X0403328Y0359667D01*
X0416046Y0353667D02*
X0416198Y0353864D01*
X0416345Y0354066D01*
X0416488Y0354270D01*
X0416625Y0354478D01*
X0416758Y0354689D01*
X0416886Y0354904D01*
X0417008Y0355121D01*
X0417125Y0355341D01*
X0417237Y0355564D01*
X0417344Y0355789D01*
X0399554Y0353667D02*
X0399408Y0353856D01*
X0399267Y0354049D01*
X0399130Y0354244D01*
X0398997Y0354443D01*
X0398869Y0354645D01*
X0398746Y0354850D01*
X0398627Y0355057D01*
X0398513Y0355267D01*
X0398404Y0355480D01*
X0398300Y0355695D01*
X0477554Y0353667D02*
X0494046Y0353667D01*
X0491328Y0359667D02*
X0490272Y0359667D01*
X0495300Y0364639D02*
X0495188Y0364869D01*
X0495071Y0365096D01*
X0494949Y0365320D01*
X0494821Y0365541D01*
X0494687Y0365758D01*
X0494549Y0365973D01*
X0494405Y0366184D01*
X0494256Y0366391D01*
X0494102Y0366595D01*
X0493944Y0366795D01*
X0493780Y0366991D01*
X0493612Y0367183D01*
X0493439Y0367371D01*
X0493261Y0367555D01*
X0493080Y0367734D01*
X0492893Y0367909D01*
X0492703Y0368079D01*
X0492509Y0368244D01*
X0492310Y0368405D01*
X0492108Y0368561D01*
X0491902Y0368712D01*
X0491692Y0368858D01*
X0491479Y0368998D01*
X0491263Y0369134D01*
X0491043Y0369264D01*
X0490820Y0369389D01*
X0490595Y0369508D01*
X0490366Y0369622D01*
X0490135Y0369730D01*
X0489901Y0369833D01*
X0489665Y0369930D01*
X0489426Y0370021D01*
X0489186Y0370106D01*
X0488943Y0370186D01*
X0488698Y0370259D01*
X0488452Y0370327D01*
X0488204Y0370388D01*
X0487955Y0370443D01*
X0487705Y0370493D01*
X0487453Y0370536D01*
X0487200Y0370573D01*
X0486947Y0370604D01*
X0486693Y0370629D01*
X0486438Y0370648D01*
X0486183Y0370660D01*
X0485928Y0370666D01*
X0485672Y0370666D01*
X0485417Y0370660D01*
X0485162Y0370648D01*
X0484907Y0370629D01*
X0484653Y0370604D01*
X0484400Y0370573D01*
X0484147Y0370536D01*
X0483895Y0370493D01*
X0483645Y0370443D01*
X0483396Y0370388D01*
X0483148Y0370327D01*
X0482902Y0370259D01*
X0482657Y0370186D01*
X0482414Y0370106D01*
X0482174Y0370021D01*
X0481935Y0369930D01*
X0481699Y0369833D01*
X0481465Y0369730D01*
X0481234Y0369622D01*
X0481005Y0369508D01*
X0480780Y0369389D01*
X0480557Y0369264D01*
X0480337Y0369134D01*
X0480121Y0368998D01*
X0479908Y0368858D01*
X0479698Y0368712D01*
X0479492Y0368561D01*
X0479290Y0368405D01*
X0479091Y0368244D01*
X0478897Y0368079D01*
X0478707Y0367909D01*
X0478520Y0367734D01*
X0478339Y0367555D01*
X0478161Y0367371D01*
X0477988Y0367183D01*
X0477820Y0366991D01*
X0477656Y0366795D01*
X0477498Y0366595D01*
X0477344Y0366391D01*
X0477195Y0366184D01*
X0477051Y0365973D01*
X0476913Y0365758D01*
X0476779Y0365541D01*
X0476651Y0365320D01*
X0476529Y0365096D01*
X0476412Y0364869D01*
X0476300Y0364639D01*
X0480272Y0359667D02*
X0481328Y0359667D01*
X0494046Y0353667D02*
X0494198Y0353864D01*
X0494345Y0354066D01*
X0494488Y0354270D01*
X0494625Y0354478D01*
X0494758Y0354689D01*
X0494886Y0354904D01*
X0495008Y0355121D01*
X0495125Y0355341D01*
X0495237Y0355564D01*
X0495344Y0355789D01*
X0477554Y0353667D02*
X0477408Y0353856D01*
X0477267Y0354049D01*
X0477130Y0354244D01*
X0476997Y0354443D01*
X0476869Y0354645D01*
X0476746Y0354850D01*
X0476627Y0355057D01*
X0476513Y0355267D01*
X0476404Y0355480D01*
X0476300Y0355695D01*
X0541554Y0366667D02*
X0558046Y0366667D01*
X0555328Y0360667D02*
X0554272Y0360667D01*
X0559300Y0355695D02*
X0559188Y0355465D01*
X0559071Y0355238D01*
X0558949Y0355014D01*
X0558821Y0354793D01*
X0558687Y0354576D01*
X0558549Y0354361D01*
X0558405Y0354150D01*
X0558256Y0353943D01*
X0558102Y0353739D01*
X0557944Y0353539D01*
X0557780Y0353343D01*
X0557612Y0353151D01*
X0557439Y0352963D01*
X0557261Y0352779D01*
X0557080Y0352600D01*
X0556893Y0352425D01*
X0556703Y0352255D01*
X0556509Y0352090D01*
X0556310Y0351929D01*
X0556108Y0351773D01*
X0555902Y0351622D01*
X0555692Y0351476D01*
X0555479Y0351336D01*
X0555263Y0351200D01*
X0555043Y0351070D01*
X0554820Y0350945D01*
X0554595Y0350826D01*
X0554366Y0350712D01*
X0554135Y0350604D01*
X0553901Y0350501D01*
X0553665Y0350404D01*
X0553426Y0350313D01*
X0553186Y0350228D01*
X0552943Y0350148D01*
X0552698Y0350075D01*
X0552452Y0350007D01*
X0552204Y0349946D01*
X0551955Y0349891D01*
X0551705Y0349841D01*
X0551453Y0349798D01*
X0551200Y0349761D01*
X0550947Y0349730D01*
X0550693Y0349705D01*
X0550438Y0349686D01*
X0550183Y0349674D01*
X0549928Y0349668D01*
X0549672Y0349668D01*
X0549417Y0349674D01*
X0549162Y0349686D01*
X0548907Y0349705D01*
X0548653Y0349730D01*
X0548400Y0349761D01*
X0548147Y0349798D01*
X0547895Y0349841D01*
X0547645Y0349891D01*
X0547396Y0349946D01*
X0547148Y0350007D01*
X0546902Y0350075D01*
X0546657Y0350148D01*
X0546414Y0350228D01*
X0546174Y0350313D01*
X0545935Y0350404D01*
X0545699Y0350501D01*
X0545465Y0350604D01*
X0545234Y0350712D01*
X0545005Y0350826D01*
X0544780Y0350945D01*
X0544557Y0351070D01*
X0544337Y0351200D01*
X0544121Y0351336D01*
X0543908Y0351476D01*
X0543698Y0351622D01*
X0543492Y0351773D01*
X0543290Y0351929D01*
X0543091Y0352090D01*
X0542897Y0352255D01*
X0542707Y0352425D01*
X0542520Y0352600D01*
X0542339Y0352779D01*
X0542161Y0352963D01*
X0541988Y0353151D01*
X0541820Y0353343D01*
X0541656Y0353539D01*
X0541498Y0353739D01*
X0541344Y0353943D01*
X0541195Y0354150D01*
X0541051Y0354361D01*
X0540913Y0354576D01*
X0540779Y0354793D01*
X0540651Y0355014D01*
X0540529Y0355238D01*
X0540412Y0355465D01*
X0540300Y0355695D01*
X0544272Y0360667D02*
X0545328Y0360667D01*
X0558046Y0366666D02*
X0558192Y0366477D01*
X0558333Y0366284D01*
X0558470Y0366089D01*
X0558603Y0365890D01*
X0558731Y0365688D01*
X0558854Y0365483D01*
X0558973Y0365276D01*
X0559087Y0365066D01*
X0559196Y0364853D01*
X0559300Y0364638D01*
X0541554Y0366666D02*
X0541402Y0366469D01*
X0541255Y0366267D01*
X0541112Y0366063D01*
X0540975Y0365855D01*
X0540842Y0365644D01*
X0540714Y0365429D01*
X0540592Y0365212D01*
X0540475Y0364992D01*
X0540363Y0364769D01*
X0540256Y0364544D01*
X0611554Y0366667D02*
X0628046Y0366667D01*
X0625328Y0360667D02*
X0624272Y0360667D01*
X0629300Y0355695D02*
X0629188Y0355465D01*
X0629071Y0355238D01*
X0628949Y0355014D01*
X0628821Y0354793D01*
X0628687Y0354576D01*
X0628549Y0354361D01*
X0628405Y0354150D01*
X0628256Y0353943D01*
X0628102Y0353739D01*
X0627944Y0353539D01*
X0627780Y0353343D01*
X0627612Y0353151D01*
X0627439Y0352963D01*
X0627261Y0352779D01*
X0627080Y0352600D01*
X0626893Y0352425D01*
X0626703Y0352255D01*
X0626509Y0352090D01*
X0626310Y0351929D01*
X0626108Y0351773D01*
X0625902Y0351622D01*
X0625692Y0351476D01*
X0625479Y0351336D01*
X0625263Y0351200D01*
X0625043Y0351070D01*
X0624820Y0350945D01*
X0624595Y0350826D01*
X0624366Y0350712D01*
X0624135Y0350604D01*
X0623901Y0350501D01*
X0623665Y0350404D01*
X0623426Y0350313D01*
X0623186Y0350228D01*
X0622943Y0350148D01*
X0622698Y0350075D01*
X0622452Y0350007D01*
X0622204Y0349946D01*
X0621955Y0349891D01*
X0621705Y0349841D01*
X0621453Y0349798D01*
X0621200Y0349761D01*
X0620947Y0349730D01*
X0620693Y0349705D01*
X0620438Y0349686D01*
X0620183Y0349674D01*
X0619928Y0349668D01*
X0619672Y0349668D01*
X0619417Y0349674D01*
X0619162Y0349686D01*
X0618907Y0349705D01*
X0618653Y0349730D01*
X0618400Y0349761D01*
X0618147Y0349798D01*
X0617895Y0349841D01*
X0617645Y0349891D01*
X0617396Y0349946D01*
X0617148Y0350007D01*
X0616902Y0350075D01*
X0616657Y0350148D01*
X0616414Y0350228D01*
X0616174Y0350313D01*
X0615935Y0350404D01*
X0615699Y0350501D01*
X0615465Y0350604D01*
X0615234Y0350712D01*
X0615005Y0350826D01*
X0614780Y0350945D01*
X0614557Y0351070D01*
X0614337Y0351200D01*
X0614121Y0351336D01*
X0613908Y0351476D01*
X0613698Y0351622D01*
X0613492Y0351773D01*
X0613290Y0351929D01*
X0613091Y0352090D01*
X0612897Y0352255D01*
X0612707Y0352425D01*
X0612520Y0352600D01*
X0612339Y0352779D01*
X0612161Y0352963D01*
X0611988Y0353151D01*
X0611820Y0353343D01*
X0611656Y0353539D01*
X0611498Y0353739D01*
X0611344Y0353943D01*
X0611195Y0354150D01*
X0611051Y0354361D01*
X0610913Y0354576D01*
X0610779Y0354793D01*
X0610651Y0355014D01*
X0610529Y0355238D01*
X0610412Y0355465D01*
X0610300Y0355695D01*
X0614272Y0360667D02*
X0615328Y0360667D01*
X0628046Y0366666D02*
X0628192Y0366477D01*
X0628333Y0366284D01*
X0628470Y0366089D01*
X0628603Y0365890D01*
X0628731Y0365688D01*
X0628854Y0365483D01*
X0628973Y0365276D01*
X0629087Y0365066D01*
X0629196Y0364853D01*
X0629300Y0364638D01*
X0611554Y0366666D02*
X0611402Y0366469D01*
X0611255Y0366267D01*
X0611112Y0366063D01*
X0610975Y0365855D01*
X0610842Y0365644D01*
X0610714Y0365429D01*
X0610592Y0365212D01*
X0610475Y0364992D01*
X0610363Y0364769D01*
X0610256Y0364544D01*
X0288149Y0554417D02*
X0285146Y0554417D01*
X0286647Y0554417D02*
X0286647Y0558920D01*
X0285146Y0557419D01*
X0268149Y0557419D02*
X0268149Y0558170D01*
X0267398Y0558920D01*
X0265897Y0558920D01*
X0265146Y0558170D01*
X0268149Y0557419D02*
X0265146Y0554417D01*
X0268149Y0554417D01*
X0073149Y0559417D02*
X0070146Y0559417D01*
X0071647Y0559417D02*
X0071647Y0563920D01*
X0070146Y0562419D01*
X0053149Y0562419D02*
X0053149Y0563170D01*
X0052398Y0563920D01*
X0050897Y0563920D01*
X0050146Y0563170D01*
X0053149Y0562419D02*
X0050146Y0559417D01*
X0053149Y0559417D01*
D15*
X0444500Y0275667D02*
X0444500Y0273167D01*
X0444500Y0270667D01*
X0447000Y0270667D02*
X0447000Y0273167D01*
X0447000Y0275667D01*
X0483300Y0265467D02*
X0485800Y0265467D01*
X0488300Y0265467D01*
X0488300Y0262967D02*
X0485800Y0262967D01*
X0483300Y0262967D01*
X0509500Y0201667D02*
X0509500Y0199167D01*
X0509500Y0196667D01*
X0512000Y0196667D02*
X0512000Y0199167D01*
X0512000Y0201667D01*
X0596500Y0272667D02*
X0596500Y0275167D01*
X0596500Y0277667D01*
X0599000Y0277667D02*
X0599000Y0275167D01*
X0599000Y0272667D01*
X0657300Y0265467D02*
X0659800Y0265467D01*
X0662300Y0265467D01*
X0662300Y0262967D02*
X0659800Y0262967D01*
X0657300Y0262967D01*
X0648300Y0157467D02*
X0645800Y0157467D01*
X0643300Y0157467D01*
X0643300Y0154967D02*
X0645800Y0154967D01*
X0648300Y0154967D01*
D16*
X0500800Y0115167D02*
X0500800Y0113917D01*
X0493300Y0113917D01*
X0490800Y0110167D02*
X0488300Y0115167D01*
X0488300Y0113917D02*
X0480800Y0113917D01*
X0480800Y0115167D01*
X0490800Y0110167D02*
X0490800Y0108917D01*
X0460800Y0108917D01*
X0460800Y0115167D01*
X0460800Y0101417D02*
X0490800Y0101417D01*
X0490800Y0100167D01*
X0488300Y0095167D01*
X0488300Y0096417D02*
X0480800Y0096417D01*
X0480800Y0095167D01*
X0493300Y0096417D02*
X0500800Y0096417D01*
X0500800Y0095167D01*
X0460800Y0095167D02*
X0460800Y0101417D01*
X0433300Y0103917D02*
X0433300Y0106417D01*
X0430800Y0106417D01*
X0428300Y0106417D01*
X0428300Y0103917D01*
X0430800Y0103917D01*
X0430800Y0095167D01*
X0430800Y0103917D02*
X0433300Y0103917D01*
X0430800Y0106417D02*
X0430800Y0115167D01*
D17*
X0392800Y0098667D03*
D18*
X0392800Y0092417D03*
X0392800Y0117917D03*
D19*
X0381800Y0448167D03*
X0441800Y0480167D03*
X0556800Y0447167D03*
X0616800Y0478167D03*
D20*
X0610100Y0478167D03*
X0591500Y0447167D03*
X0550100Y0447167D03*
X0476500Y0480167D03*
X0435100Y0480167D03*
X0416500Y0448167D03*
X0375100Y0448167D03*
X0651500Y0478167D03*
D21*
X0700800Y0334667D03*
X0333800Y0344667D03*
D22*
X0333800Y0350917D03*
X0333800Y0327417D03*
X0700800Y0328417D03*
X0700800Y0351917D03*
D23*
X0654800Y0326167D02*
X0645800Y0326167D01*
X0645800Y0321167D01*
X0635800Y0326167D01*
X0635800Y0321167D01*
X0630800Y0321167D01*
X0626800Y0326167D02*
X0635800Y0326167D01*
X0635800Y0331167D01*
X0640800Y0331167D01*
X0645800Y0331167D02*
X0635800Y0326167D01*
X0645800Y0326167D02*
X0645800Y0331167D01*
X0583800Y0326167D02*
X0574800Y0326167D01*
X0574800Y0321167D01*
X0564800Y0326167D01*
X0564800Y0321167D01*
X0559800Y0321167D01*
X0555800Y0326167D02*
X0564800Y0326167D01*
X0564800Y0331167D01*
X0569800Y0331167D01*
X0574800Y0331167D02*
X0574800Y0326167D01*
X0574800Y0331167D02*
X0564800Y0326167D01*
X0479800Y0326167D02*
X0470800Y0326167D01*
X0470800Y0321167D01*
X0460800Y0326167D01*
X0460800Y0321167D01*
X0455800Y0321167D01*
X0451800Y0326167D02*
X0460800Y0326167D01*
X0460800Y0331167D01*
X0465800Y0331167D01*
X0470800Y0331167D02*
X0460800Y0326167D01*
X0470800Y0326167D02*
X0470800Y0331167D01*
X0401800Y0325167D02*
X0392800Y0325167D01*
X0392800Y0320167D01*
X0382800Y0325167D01*
X0382800Y0320167D01*
X0377800Y0320167D01*
X0373800Y0325167D02*
X0382800Y0325167D01*
X0382800Y0330167D01*
X0387800Y0330167D01*
X0392800Y0330167D02*
X0382800Y0325167D01*
X0392800Y0325167D02*
X0392800Y0330167D01*
M02*
