G75*
%MOIN*%
%OFA0B0*%
%FSLAX25Y25*%
%IPPOS*%
%LPD*%
%AMOC8*
5,1,8,0,0,1.08239X$1,22.5*
%
%ADD10C,0.05200*%
%ADD11OC8,0.05200*%
%ADD12C,0.05937*%
%ADD13C,0.07800*%
%ADD14C,0.10039*%
%ADD15C,0.07500*%
%ADD16C,0.10500*%
%ADD17C,0.11850*%
%ADD18C,0.07087*%
%ADD19C,0.08250*%
%ADD20C,0.06600*%
%ADD21C,0.01600*%
%ADD22C,0.06600*%
%ADD23C,0.05600*%
%ADD24R,0.03962X0.03962*%
D10*
X0169200Y0014167D02*
X0174400Y0014167D01*
X0174400Y0024167D02*
X0169200Y0024167D01*
X0169200Y0034167D02*
X0174400Y0034167D01*
X0174400Y0044167D02*
X0169200Y0044167D01*
X0169200Y0054167D02*
X0174400Y0054167D01*
X0174400Y0064167D02*
X0169200Y0064167D01*
X0169200Y0074167D02*
X0174400Y0074167D01*
X0174400Y0084167D02*
X0169200Y0084167D01*
X0199200Y0084167D02*
X0204400Y0084167D01*
X0204400Y0074167D02*
X0199200Y0074167D01*
X0199200Y0064167D02*
X0204400Y0064167D01*
X0204400Y0054167D02*
X0199200Y0054167D01*
X0199200Y0044167D02*
X0204400Y0044167D01*
X0204400Y0034167D02*
X0199200Y0034167D01*
X0199200Y0024167D02*
X0204400Y0024167D01*
X0204400Y0014167D02*
X0199200Y0014167D01*
X0196800Y0173967D02*
X0196800Y0179167D01*
X0186800Y0179167D02*
X0186800Y0173967D01*
X0176800Y0173967D02*
X0176800Y0179167D01*
X0166800Y0179167D02*
X0166800Y0173967D01*
X0156800Y0173967D02*
X0156800Y0179167D01*
X0156800Y0209167D02*
X0156800Y0214367D01*
X0166800Y0214367D02*
X0166800Y0209167D01*
X0176800Y0209167D02*
X0176800Y0214367D01*
X0186800Y0214367D02*
X0186800Y0209167D01*
X0196800Y0209167D02*
X0196800Y0214367D01*
X0206800Y0214367D02*
X0206800Y0209167D01*
X0216800Y0209167D02*
X0216800Y0214367D01*
X0226800Y0214367D02*
X0226800Y0209167D01*
X0226800Y0179167D02*
X0226800Y0173967D01*
X0216800Y0173967D02*
X0216800Y0179167D01*
X0206800Y0179167D02*
X0206800Y0173967D01*
X0392800Y0127767D02*
X0392800Y0122567D01*
X0392800Y0087767D02*
X0392800Y0082567D01*
X0432200Y0199167D02*
X0437400Y0199167D01*
X0437400Y0209167D02*
X0432200Y0209167D01*
X0432200Y0219167D02*
X0437400Y0219167D01*
X0462200Y0219167D02*
X0467400Y0219167D01*
X0467400Y0209167D02*
X0462200Y0209167D01*
X0462200Y0199167D02*
X0467400Y0199167D01*
X0586800Y0122767D02*
X0586800Y0117567D01*
X0596800Y0117567D02*
X0596800Y0122767D01*
X0606800Y0122767D02*
X0606800Y0117567D01*
X0616800Y0117567D02*
X0616800Y0122767D01*
X0616800Y0092767D02*
X0616800Y0087567D01*
X0606800Y0087567D02*
X0606800Y0092767D01*
X0596800Y0092767D02*
X0596800Y0087567D01*
X0586800Y0087567D02*
X0586800Y0092767D01*
X0613200Y0195167D02*
X0618400Y0195167D01*
X0618400Y0205167D02*
X0613200Y0205167D01*
X0613200Y0215167D02*
X0618400Y0215167D01*
X0643200Y0215167D02*
X0648400Y0215167D01*
X0648400Y0205167D02*
X0643200Y0205167D01*
X0643200Y0195167D02*
X0648400Y0195167D01*
X0658200Y0326167D02*
X0663400Y0326167D01*
X0623400Y0326167D02*
X0618200Y0326167D01*
X0592400Y0326167D02*
X0587200Y0326167D01*
X0552400Y0326167D02*
X0547200Y0326167D01*
X0549800Y0357567D02*
X0549800Y0362767D01*
X0559800Y0362767D02*
X0559800Y0357567D01*
X0539800Y0357567D02*
X0539800Y0362767D01*
X0495800Y0362767D02*
X0495800Y0357567D01*
X0485800Y0357567D02*
X0485800Y0362767D01*
X0475800Y0362767D02*
X0475800Y0357567D01*
X0483200Y0326167D02*
X0488400Y0326167D01*
X0448400Y0326167D02*
X0443200Y0326167D01*
X0410400Y0325167D02*
X0405200Y0325167D01*
X0370400Y0325167D02*
X0365200Y0325167D01*
X0397800Y0357567D02*
X0397800Y0362767D01*
X0407800Y0362767D02*
X0407800Y0357567D01*
X0417800Y0357567D02*
X0417800Y0362767D01*
X0231800Y0383967D02*
X0231800Y0389167D01*
X0221800Y0389167D02*
X0221800Y0383967D01*
X0211800Y0383967D02*
X0211800Y0389167D01*
X0201800Y0389167D02*
X0201800Y0383967D01*
X0191800Y0383967D02*
X0191800Y0389167D01*
X0181800Y0389167D02*
X0181800Y0383967D01*
X0171800Y0383967D02*
X0171800Y0389167D01*
X0161800Y0389167D02*
X0161800Y0383967D01*
X0161800Y0419167D02*
X0161800Y0424367D01*
X0171800Y0424367D02*
X0171800Y0419167D01*
X0181800Y0419167D02*
X0181800Y0424367D01*
X0191800Y0424367D02*
X0191800Y0419167D01*
X0201800Y0419167D02*
X0201800Y0424367D01*
X0211800Y0424367D02*
X0211800Y0419167D01*
X0221800Y0419167D02*
X0221800Y0424367D01*
X0231800Y0424367D02*
X0231800Y0419167D01*
X0209400Y0519167D02*
X0204200Y0519167D01*
X0204200Y0529167D02*
X0209400Y0529167D01*
X0209400Y0539167D02*
X0204200Y0539167D01*
X0204200Y0549167D02*
X0209400Y0549167D01*
X0209400Y0559167D02*
X0204200Y0559167D01*
X0204200Y0569167D02*
X0209400Y0569167D01*
X0209400Y0579167D02*
X0204200Y0579167D01*
X0204200Y0589167D02*
X0209400Y0589167D01*
X0179400Y0589167D02*
X0174200Y0589167D01*
X0174200Y0579167D02*
X0179400Y0579167D01*
X0179400Y0569167D02*
X0174200Y0569167D01*
X0174200Y0559167D02*
X0179400Y0559167D01*
X0179400Y0549167D02*
X0174200Y0549167D01*
X0174200Y0539167D02*
X0179400Y0539167D01*
X0179400Y0529167D02*
X0174200Y0529167D01*
X0174200Y0519167D02*
X0179400Y0519167D01*
X0609800Y0362767D02*
X0609800Y0357567D01*
X0619800Y0357567D02*
X0619800Y0362767D01*
X0629800Y0362767D02*
X0629800Y0357567D01*
D11*
X0610800Y0414167D03*
X0576800Y0414167D03*
X0526800Y0414167D03*
X0506800Y0414167D03*
X0456800Y0414167D03*
X0415800Y0414167D03*
X0365800Y0414167D03*
X0281800Y0454167D03*
X0261800Y0484167D03*
X0231800Y0454167D03*
X0211800Y0484167D03*
X0191800Y0484167D03*
X0171800Y0454167D03*
X0141800Y0484167D03*
X0121800Y0454167D03*
X0141800Y0359167D03*
X0121800Y0334167D03*
X0171800Y0334167D03*
X0191800Y0359167D03*
X0211800Y0359167D03*
X0231800Y0334167D03*
X0261800Y0359167D03*
X0281800Y0334167D03*
X0266800Y0264167D03*
X0246800Y0239167D03*
X0216800Y0264167D03*
X0196800Y0239167D03*
X0176800Y0239167D03*
X0156800Y0264167D03*
X0126800Y0239167D03*
X0106800Y0264167D03*
X0106800Y0154167D03*
X0126800Y0119167D03*
X0156800Y0154167D03*
X0176800Y0119167D03*
X0196800Y0119167D03*
X0216800Y0154167D03*
X0246800Y0119167D03*
X0266800Y0154167D03*
X0435800Y0273167D03*
X0455800Y0273167D03*
X0485800Y0274167D03*
X0485800Y0254167D03*
X0500800Y0199167D03*
X0520800Y0199167D03*
X0587800Y0275167D03*
X0607800Y0275167D03*
X0659800Y0274167D03*
X0659800Y0254167D03*
X0645800Y0166167D03*
X0645800Y0146167D03*
X0660800Y0414167D03*
D12*
X0251800Y0304167D03*
X0241800Y0304167D03*
X0231800Y0304167D03*
X0221800Y0304167D03*
X0211800Y0304167D03*
X0201800Y0304167D03*
X0191800Y0304167D03*
X0181800Y0304167D03*
X0171800Y0304167D03*
X0161800Y0304167D03*
X0151800Y0304167D03*
X0141800Y0304167D03*
X0131800Y0304167D03*
X0121800Y0304167D03*
X0111800Y0304167D03*
X0101800Y0304167D03*
X0091800Y0304167D03*
X0081800Y0304167D03*
X0071800Y0304167D03*
X0061800Y0304167D03*
X0061800Y0294167D03*
X0071800Y0294167D03*
X0081800Y0294167D03*
X0091800Y0294167D03*
X0101800Y0294167D03*
X0111800Y0294167D03*
X0121800Y0294167D03*
X0131800Y0294167D03*
X0141800Y0294167D03*
X0151800Y0294167D03*
X0161800Y0294167D03*
X0171800Y0294167D03*
X0181800Y0294167D03*
X0191800Y0294167D03*
X0201800Y0294167D03*
X0211800Y0294167D03*
X0221800Y0294167D03*
X0231800Y0294167D03*
X0241800Y0294167D03*
X0251800Y0294167D03*
D13*
X0030700Y0154067D02*
X0022900Y0154067D01*
X0022900Y0134367D02*
X0030700Y0134367D01*
X0051900Y0038067D02*
X0051900Y0030267D01*
X0071600Y0030267D02*
X0071600Y0038067D01*
X0266900Y0038067D02*
X0266900Y0030267D01*
X0286600Y0030267D02*
X0286600Y0038067D01*
X0281700Y0560267D02*
X0281700Y0568067D01*
X0262000Y0568067D02*
X0262000Y0560267D01*
X0066700Y0565267D02*
X0066700Y0573067D01*
X0047000Y0573067D02*
X0047000Y0565267D01*
D14*
X0387780Y0198962D02*
X0397820Y0198962D01*
X0397820Y0183371D02*
X0387780Y0183371D01*
X0387780Y0039962D02*
X0397820Y0039962D01*
X0397820Y0024371D02*
X0387780Y0024371D01*
D15*
X0596800Y0036167D03*
D16*
X0586761Y0046206D03*
X0606839Y0046206D03*
X0606839Y0026128D03*
X0586761Y0026128D03*
D17*
X0695875Y0262167D02*
X0707725Y0262167D01*
X0523925Y0325867D02*
X0512075Y0325867D01*
X0529575Y0473167D02*
X0541425Y0473167D01*
X0339725Y0262167D02*
X0327875Y0262167D01*
D18*
X0430800Y0120167D03*
X0460800Y0120167D03*
X0480800Y0120167D03*
X0500800Y0120167D03*
X0500800Y0090167D03*
X0480800Y0090167D03*
X0460800Y0090167D03*
X0430800Y0090167D03*
D19*
X0429925Y0448167D02*
X0421675Y0448167D01*
X0421675Y0480167D02*
X0429925Y0480167D01*
X0481675Y0480167D02*
X0489925Y0480167D01*
X0536675Y0447167D02*
X0544925Y0447167D01*
X0596675Y0447167D02*
X0604925Y0447167D01*
X0604925Y0478167D02*
X0596675Y0478167D01*
X0656675Y0478167D02*
X0664925Y0478167D01*
X0369925Y0448167D02*
X0361675Y0448167D01*
D20*
X0333800Y0359167D03*
X0333800Y0319167D03*
X0700800Y0320167D03*
X0700800Y0360167D03*
D21*
X0008200Y0592688D02*
X0008200Y0010567D01*
X0160950Y0010567D01*
X0160200Y0012376D01*
X0160200Y0014967D01*
X0154970Y0014967D01*
X0151589Y0016367D01*
X0149001Y0018955D01*
X0149001Y0018955D01*
X0136589Y0031367D01*
X0136589Y0031367D01*
X0134001Y0033955D01*
X0132600Y0037337D01*
X0132600Y0140997D01*
X0134001Y0144378D01*
X0147600Y0157977D01*
X0147600Y0180997D01*
X0148913Y0184167D01*
X0021800Y0184167D01*
X0021800Y0414167D01*
X0154130Y0414167D01*
X0152800Y0417376D01*
X0152800Y0426157D01*
X0154170Y0429465D01*
X0156702Y0431996D01*
X0160010Y0433367D01*
X0162600Y0433367D01*
X0162600Y0495356D01*
X0156589Y0501367D01*
X0154001Y0503955D01*
X0152600Y0507337D01*
X0152600Y0525997D01*
X0154001Y0529378D01*
X0154089Y0529467D01*
X0059871Y0529467D01*
X0056305Y0530943D01*
X0041305Y0545943D01*
X0038577Y0548672D01*
X0037100Y0552237D01*
X0037100Y0562418D01*
X0036700Y0563911D01*
X0036700Y0574423D01*
X0037402Y0577042D01*
X0038758Y0579391D01*
X0040676Y0581309D01*
X0043024Y0582665D01*
X0045644Y0583367D01*
X0048356Y0583367D01*
X0050976Y0582665D01*
X0053324Y0581309D01*
X0055242Y0579391D01*
X0056598Y0577042D01*
X0056850Y0576102D01*
X0057102Y0577042D01*
X0058458Y0579391D01*
X0060376Y0581309D01*
X0062724Y0582665D01*
X0065344Y0583367D01*
X0068056Y0583367D01*
X0070676Y0582665D01*
X0073024Y0581309D01*
X0074942Y0579391D01*
X0075245Y0578867D01*
X0165200Y0578867D01*
X0165200Y0580957D01*
X0166530Y0584167D01*
X0165200Y0587376D01*
X0165200Y0590957D01*
X0165917Y0592688D01*
X0008200Y0592688D01*
X0008200Y0592419D02*
X0165806Y0592419D01*
X0165200Y0590820D02*
X0008200Y0590820D01*
X0008200Y0589222D02*
X0165200Y0589222D01*
X0165200Y0587623D02*
X0008200Y0587623D01*
X0008200Y0586025D02*
X0165760Y0586025D01*
X0166422Y0584426D02*
X0008200Y0584426D01*
X0008200Y0582828D02*
X0043633Y0582828D01*
X0040596Y0581229D02*
X0008200Y0581229D01*
X0008200Y0579631D02*
X0038998Y0579631D01*
X0037973Y0578032D02*
X0008200Y0578032D01*
X0008200Y0576434D02*
X0037239Y0576434D01*
X0036811Y0574835D02*
X0008200Y0574835D01*
X0008200Y0573237D02*
X0036700Y0573237D01*
X0036700Y0571638D02*
X0008200Y0571638D01*
X0008200Y0570040D02*
X0036700Y0570040D01*
X0036700Y0568441D02*
X0008200Y0568441D01*
X0008200Y0566843D02*
X0036700Y0566843D01*
X0036700Y0565244D02*
X0008200Y0565244D01*
X0008200Y0563646D02*
X0036771Y0563646D01*
X0037100Y0562047D02*
X0008200Y0562047D01*
X0008200Y0560449D02*
X0037100Y0560449D01*
X0037100Y0558850D02*
X0008200Y0558850D01*
X0008200Y0557252D02*
X0037100Y0557252D01*
X0037100Y0555653D02*
X0008200Y0555653D01*
X0008200Y0554055D02*
X0037100Y0554055D01*
X0037100Y0552456D02*
X0008200Y0552456D01*
X0008200Y0550858D02*
X0037671Y0550858D01*
X0038334Y0549259D02*
X0008200Y0549259D01*
X0008200Y0547661D02*
X0039588Y0547661D01*
X0041187Y0546062D02*
X0008200Y0546062D01*
X0008200Y0544463D02*
X0042785Y0544463D01*
X0044384Y0542865D02*
X0008200Y0542865D01*
X0008200Y0541266D02*
X0045982Y0541266D01*
X0047581Y0539668D02*
X0008200Y0539668D01*
X0008200Y0538069D02*
X0049179Y0538069D01*
X0050778Y0536471D02*
X0008200Y0536471D01*
X0008200Y0534872D02*
X0052376Y0534872D01*
X0053975Y0533274D02*
X0008200Y0533274D01*
X0008200Y0531675D02*
X0055573Y0531675D01*
X0058397Y0530077D02*
X0008200Y0530077D01*
X0008200Y0528478D02*
X0153628Y0528478D01*
X0152966Y0526880D02*
X0008200Y0526880D01*
X0008200Y0525281D02*
X0152600Y0525281D01*
X0152600Y0523683D02*
X0008200Y0523683D01*
X0008200Y0522084D02*
X0152600Y0522084D01*
X0152600Y0520486D02*
X0008200Y0520486D01*
X0008200Y0518887D02*
X0152600Y0518887D01*
X0152600Y0517289D02*
X0008200Y0517289D01*
X0008200Y0515690D02*
X0152600Y0515690D01*
X0152600Y0514092D02*
X0008200Y0514092D01*
X0008200Y0512493D02*
X0152600Y0512493D01*
X0152600Y0510895D02*
X0008200Y0510895D01*
X0008200Y0509296D02*
X0152600Y0509296D01*
X0152600Y0507698D02*
X0008200Y0507698D01*
X0008200Y0506099D02*
X0153113Y0506099D01*
X0153775Y0504501D02*
X0008200Y0504501D01*
X0008200Y0502902D02*
X0155054Y0502902D01*
X0156652Y0501304D02*
X0008200Y0501304D01*
X0008200Y0499705D02*
X0158251Y0499705D01*
X0159849Y0498107D02*
X0008200Y0498107D01*
X0008200Y0496508D02*
X0161448Y0496508D01*
X0162600Y0494910D02*
X0008200Y0494910D01*
X0008200Y0493311D02*
X0162600Y0493311D01*
X0162600Y0491713D02*
X0008200Y0491713D01*
X0008200Y0490114D02*
X0162600Y0490114D01*
X0162600Y0488516D02*
X0008200Y0488516D01*
X0008200Y0486917D02*
X0162600Y0486917D01*
X0162600Y0485319D02*
X0008200Y0485319D01*
X0008200Y0483720D02*
X0162600Y0483720D01*
X0162600Y0482122D02*
X0008200Y0482122D01*
X0008200Y0480523D02*
X0162600Y0480523D01*
X0162600Y0478925D02*
X0008200Y0478925D01*
X0008200Y0477326D02*
X0162600Y0477326D01*
X0162600Y0475727D02*
X0008200Y0475727D01*
X0008200Y0474129D02*
X0162600Y0474129D01*
X0162600Y0472530D02*
X0008200Y0472530D01*
X0008200Y0470932D02*
X0162600Y0470932D01*
X0162600Y0469333D02*
X0008200Y0469333D01*
X0008200Y0467735D02*
X0162600Y0467735D01*
X0162600Y0466136D02*
X0008200Y0466136D01*
X0008200Y0464538D02*
X0162600Y0464538D01*
X0162600Y0462939D02*
X0008200Y0462939D01*
X0008200Y0461341D02*
X0162600Y0461341D01*
X0162600Y0459742D02*
X0008200Y0459742D01*
X0008200Y0458144D02*
X0162600Y0458144D01*
X0162600Y0456545D02*
X0008200Y0456545D01*
X0008200Y0454947D02*
X0162600Y0454947D01*
X0162600Y0453348D02*
X0008200Y0453348D01*
X0008200Y0451750D02*
X0162600Y0451750D01*
X0162600Y0450151D02*
X0008200Y0450151D01*
X0008200Y0448553D02*
X0162600Y0448553D01*
X0162600Y0446954D02*
X0008200Y0446954D01*
X0008200Y0445356D02*
X0162600Y0445356D01*
X0162600Y0443757D02*
X0008200Y0443757D01*
X0008200Y0442159D02*
X0162600Y0442159D01*
X0162600Y0440560D02*
X0008200Y0440560D01*
X0008200Y0438962D02*
X0162600Y0438962D01*
X0162600Y0437363D02*
X0008200Y0437363D01*
X0008200Y0435765D02*
X0162600Y0435765D01*
X0162600Y0434166D02*
X0008200Y0434166D01*
X0008200Y0432568D02*
X0158081Y0432568D01*
X0155675Y0430969D02*
X0008200Y0430969D01*
X0008200Y0429371D02*
X0154131Y0429371D01*
X0153469Y0427772D02*
X0008200Y0427772D01*
X0008200Y0426174D02*
X0152807Y0426174D01*
X0152800Y0424575D02*
X0008200Y0424575D01*
X0008200Y0422977D02*
X0152800Y0422977D01*
X0152800Y0421378D02*
X0008200Y0421378D01*
X0008200Y0419780D02*
X0152800Y0419780D01*
X0152800Y0418181D02*
X0008200Y0418181D01*
X0008200Y0416583D02*
X0153129Y0416583D01*
X0153791Y0414984D02*
X0008200Y0414984D01*
X0008200Y0413386D02*
X0021800Y0413386D01*
X0021800Y0411787D02*
X0008200Y0411787D01*
X0008200Y0410189D02*
X0021800Y0410189D01*
X0021800Y0408590D02*
X0008200Y0408590D01*
X0008200Y0406992D02*
X0021800Y0406992D01*
X0021800Y0405393D02*
X0008200Y0405393D01*
X0008200Y0403794D02*
X0021800Y0403794D01*
X0021800Y0402196D02*
X0008200Y0402196D01*
X0008200Y0400597D02*
X0021800Y0400597D01*
X0021800Y0398999D02*
X0008200Y0398999D01*
X0008200Y0397400D02*
X0021800Y0397400D01*
X0021800Y0395802D02*
X0008200Y0395802D01*
X0008200Y0394203D02*
X0021800Y0394203D01*
X0021800Y0392605D02*
X0008200Y0392605D01*
X0008200Y0391006D02*
X0021800Y0391006D01*
X0021800Y0389408D02*
X0008200Y0389408D01*
X0008200Y0387809D02*
X0021800Y0387809D01*
X0021800Y0386211D02*
X0008200Y0386211D01*
X0008200Y0384612D02*
X0021800Y0384612D01*
X0021800Y0383014D02*
X0008200Y0383014D01*
X0008200Y0381415D02*
X0021800Y0381415D01*
X0021800Y0379817D02*
X0008200Y0379817D01*
X0008200Y0378218D02*
X0021800Y0378218D01*
X0021800Y0376620D02*
X0008200Y0376620D01*
X0008200Y0375021D02*
X0021800Y0375021D01*
X0021800Y0373423D02*
X0008200Y0373423D01*
X0008200Y0371824D02*
X0021800Y0371824D01*
X0021800Y0370226D02*
X0008200Y0370226D01*
X0008200Y0368627D02*
X0021800Y0368627D01*
X0021800Y0367029D02*
X0008200Y0367029D01*
X0008200Y0365430D02*
X0021800Y0365430D01*
X0021800Y0363832D02*
X0008200Y0363832D01*
X0008200Y0362233D02*
X0021800Y0362233D01*
X0021800Y0360635D02*
X0008200Y0360635D01*
X0008200Y0359036D02*
X0021800Y0359036D01*
X0021800Y0357438D02*
X0008200Y0357438D01*
X0008200Y0355839D02*
X0021800Y0355839D01*
X0021800Y0354241D02*
X0008200Y0354241D01*
X0008200Y0352642D02*
X0021800Y0352642D01*
X0021800Y0351044D02*
X0008200Y0351044D01*
X0008200Y0349445D02*
X0021800Y0349445D01*
X0021800Y0347847D02*
X0008200Y0347847D01*
X0008200Y0346248D02*
X0021800Y0346248D01*
X0021800Y0344650D02*
X0008200Y0344650D01*
X0008200Y0343051D02*
X0021800Y0343051D01*
X0021800Y0341453D02*
X0008200Y0341453D01*
X0008200Y0339854D02*
X0021800Y0339854D01*
X0021800Y0338256D02*
X0008200Y0338256D01*
X0008200Y0336657D02*
X0021800Y0336657D01*
X0021800Y0335059D02*
X0008200Y0335059D01*
X0008200Y0333460D02*
X0021800Y0333460D01*
X0021800Y0331861D02*
X0008200Y0331861D01*
X0008200Y0330263D02*
X0021800Y0330263D01*
X0021800Y0328664D02*
X0008200Y0328664D01*
X0008200Y0327066D02*
X0021800Y0327066D01*
X0021800Y0325467D02*
X0008200Y0325467D01*
X0008200Y0323869D02*
X0021800Y0323869D01*
X0021800Y0322270D02*
X0008200Y0322270D01*
X0008200Y0320672D02*
X0021800Y0320672D01*
X0021800Y0319073D02*
X0008200Y0319073D01*
X0008200Y0317475D02*
X0021800Y0317475D01*
X0021800Y0315876D02*
X0008200Y0315876D01*
X0008200Y0314278D02*
X0021800Y0314278D01*
X0021800Y0312679D02*
X0008200Y0312679D01*
X0008200Y0311081D02*
X0021800Y0311081D01*
X0021800Y0309482D02*
X0008200Y0309482D01*
X0008200Y0307884D02*
X0021800Y0307884D01*
X0021800Y0306285D02*
X0008200Y0306285D01*
X0008200Y0304687D02*
X0021800Y0304687D01*
X0021800Y0303088D02*
X0008200Y0303088D01*
X0008200Y0301490D02*
X0021800Y0301490D01*
X0021800Y0299891D02*
X0008200Y0299891D01*
X0008200Y0298293D02*
X0021800Y0298293D01*
X0021800Y0296694D02*
X0008200Y0296694D01*
X0008200Y0295096D02*
X0021800Y0295096D01*
X0021800Y0293497D02*
X0008200Y0293497D01*
X0008200Y0291899D02*
X0021800Y0291899D01*
X0021800Y0290300D02*
X0008200Y0290300D01*
X0008200Y0288702D02*
X0021800Y0288702D01*
X0021800Y0287103D02*
X0008200Y0287103D01*
X0008200Y0285505D02*
X0021800Y0285505D01*
X0021800Y0283906D02*
X0008200Y0283906D01*
X0008200Y0282308D02*
X0021800Y0282308D01*
X0021800Y0280709D02*
X0008200Y0280709D01*
X0008200Y0279111D02*
X0021800Y0279111D01*
X0021800Y0277512D02*
X0008200Y0277512D01*
X0008200Y0275914D02*
X0021800Y0275914D01*
X0021800Y0274315D02*
X0008200Y0274315D01*
X0008200Y0272717D02*
X0021800Y0272717D01*
X0021800Y0271118D02*
X0008200Y0271118D01*
X0008200Y0269520D02*
X0021800Y0269520D01*
X0021800Y0267921D02*
X0008200Y0267921D01*
X0008200Y0266323D02*
X0021800Y0266323D01*
X0021800Y0264724D02*
X0008200Y0264724D01*
X0008200Y0263125D02*
X0021800Y0263125D01*
X0021800Y0261527D02*
X0008200Y0261527D01*
X0008200Y0259928D02*
X0021800Y0259928D01*
X0021800Y0258330D02*
X0008200Y0258330D01*
X0008200Y0256731D02*
X0021800Y0256731D01*
X0021800Y0255133D02*
X0008200Y0255133D01*
X0008200Y0253534D02*
X0021800Y0253534D01*
X0021800Y0251936D02*
X0008200Y0251936D01*
X0008200Y0250337D02*
X0021800Y0250337D01*
X0021800Y0248739D02*
X0008200Y0248739D01*
X0008200Y0247140D02*
X0021800Y0247140D01*
X0021800Y0245542D02*
X0008200Y0245542D01*
X0008200Y0243943D02*
X0021800Y0243943D01*
X0021800Y0242345D02*
X0008200Y0242345D01*
X0008200Y0240746D02*
X0021800Y0240746D01*
X0021800Y0239148D02*
X0008200Y0239148D01*
X0008200Y0237549D02*
X0021800Y0237549D01*
X0021800Y0235951D02*
X0008200Y0235951D01*
X0008200Y0234352D02*
X0021800Y0234352D01*
X0021800Y0232754D02*
X0008200Y0232754D01*
X0008200Y0231155D02*
X0021800Y0231155D01*
X0021800Y0229557D02*
X0008200Y0229557D01*
X0008200Y0227958D02*
X0021800Y0227958D01*
X0021800Y0226360D02*
X0008200Y0226360D01*
X0008200Y0224761D02*
X0021800Y0224761D01*
X0021800Y0223163D02*
X0008200Y0223163D01*
X0008200Y0221564D02*
X0021800Y0221564D01*
X0021800Y0219966D02*
X0008200Y0219966D01*
X0008200Y0218367D02*
X0021800Y0218367D01*
X0021800Y0216769D02*
X0008200Y0216769D01*
X0008200Y0215170D02*
X0021800Y0215170D01*
X0021800Y0213572D02*
X0008200Y0213572D01*
X0008200Y0211973D02*
X0021800Y0211973D01*
X0021800Y0210375D02*
X0008200Y0210375D01*
X0008200Y0208776D02*
X0021800Y0208776D01*
X0021800Y0207178D02*
X0008200Y0207178D01*
X0008200Y0205579D02*
X0021800Y0205579D01*
X0021800Y0203981D02*
X0008200Y0203981D01*
X0008200Y0202382D02*
X0021800Y0202382D01*
X0021800Y0200784D02*
X0008200Y0200784D01*
X0008200Y0199185D02*
X0021800Y0199185D01*
X0021800Y0197587D02*
X0008200Y0197587D01*
X0008200Y0195988D02*
X0021800Y0195988D01*
X0021800Y0194390D02*
X0008200Y0194390D01*
X0008200Y0192791D02*
X0021800Y0192791D01*
X0021800Y0191192D02*
X0008200Y0191192D01*
X0008200Y0189594D02*
X0021800Y0189594D01*
X0021800Y0187995D02*
X0008200Y0187995D01*
X0008200Y0186397D02*
X0021800Y0186397D01*
X0021800Y0184798D02*
X0008200Y0184798D01*
X0008200Y0183200D02*
X0148513Y0183200D01*
X0147851Y0181601D02*
X0008200Y0181601D01*
X0008200Y0180003D02*
X0147600Y0180003D01*
X0147600Y0178404D02*
X0008200Y0178404D01*
X0008200Y0176806D02*
X0147600Y0176806D01*
X0147600Y0175207D02*
X0008200Y0175207D01*
X0008200Y0173609D02*
X0147600Y0173609D01*
X0147600Y0172010D02*
X0008200Y0172010D01*
X0008200Y0170412D02*
X0147600Y0170412D01*
X0147600Y0168813D02*
X0008200Y0168813D01*
X0008200Y0167215D02*
X0147600Y0167215D01*
X0147600Y0165616D02*
X0008200Y0165616D01*
X0008200Y0164018D02*
X0020242Y0164018D01*
X0021544Y0164367D02*
X0018924Y0163665D01*
X0016576Y0162309D01*
X0014658Y0160391D01*
X0013302Y0158042D01*
X0012600Y0155423D01*
X0012600Y0152711D01*
X0013302Y0150091D01*
X0014658Y0147742D01*
X0016576Y0145825D01*
X0018924Y0144469D01*
X0021544Y0143767D01*
X0032056Y0143767D01*
X0034676Y0144469D01*
X0037024Y0145825D01*
X0038942Y0147742D01*
X0040298Y0150091D01*
X0041000Y0152711D01*
X0041000Y0155423D01*
X0040298Y0158042D01*
X0038942Y0160391D01*
X0037024Y0162309D01*
X0034676Y0163665D01*
X0032056Y0164367D01*
X0021544Y0164367D01*
X0016767Y0162419D02*
X0008200Y0162419D01*
X0008200Y0160821D02*
X0015088Y0160821D01*
X0013983Y0159222D02*
X0008200Y0159222D01*
X0008200Y0157624D02*
X0013190Y0157624D01*
X0012761Y0156025D02*
X0008200Y0156025D01*
X0008200Y0154427D02*
X0012600Y0154427D01*
X0012600Y0152828D02*
X0008200Y0152828D01*
X0008200Y0151230D02*
X0012997Y0151230D01*
X0013567Y0149631D02*
X0008200Y0149631D01*
X0008200Y0148033D02*
X0014490Y0148033D01*
X0015966Y0146434D02*
X0008200Y0146434D01*
X0008200Y0144836D02*
X0018289Y0144836D01*
X0008200Y0143237D02*
X0133528Y0143237D01*
X0132866Y0141639D02*
X0008200Y0141639D01*
X0008200Y0140040D02*
X0132600Y0140040D01*
X0132600Y0138442D02*
X0008200Y0138442D01*
X0008200Y0136843D02*
X0132600Y0136843D01*
X0132600Y0135245D02*
X0008200Y0135245D01*
X0008200Y0133646D02*
X0132600Y0133646D01*
X0132600Y0132048D02*
X0008200Y0132048D01*
X0008200Y0130449D02*
X0132600Y0130449D01*
X0132600Y0128851D02*
X0008200Y0128851D01*
X0008200Y0127252D02*
X0132600Y0127252D01*
X0132600Y0125654D02*
X0008200Y0125654D01*
X0008200Y0124055D02*
X0132600Y0124055D01*
X0132600Y0122456D02*
X0008200Y0122456D01*
X0008200Y0120858D02*
X0132600Y0120858D01*
X0132600Y0119259D02*
X0008200Y0119259D01*
X0008200Y0117661D02*
X0132600Y0117661D01*
X0132600Y0116062D02*
X0008200Y0116062D01*
X0008200Y0114464D02*
X0132600Y0114464D01*
X0132600Y0112865D02*
X0008200Y0112865D01*
X0008200Y0111267D02*
X0132600Y0111267D01*
X0132600Y0109668D02*
X0008200Y0109668D01*
X0008200Y0108070D02*
X0132600Y0108070D01*
X0132600Y0106471D02*
X0008200Y0106471D01*
X0008200Y0104873D02*
X0132600Y0104873D01*
X0132600Y0103274D02*
X0008200Y0103274D01*
X0008200Y0101676D02*
X0132600Y0101676D01*
X0132600Y0100077D02*
X0008200Y0100077D01*
X0008200Y0098479D02*
X0132600Y0098479D01*
X0132600Y0096880D02*
X0008200Y0096880D01*
X0008200Y0095282D02*
X0132600Y0095282D01*
X0132600Y0093683D02*
X0008200Y0093683D01*
X0008200Y0092085D02*
X0132600Y0092085D01*
X0132600Y0090486D02*
X0008200Y0090486D01*
X0008200Y0088888D02*
X0132600Y0088888D01*
X0132600Y0087289D02*
X0008200Y0087289D01*
X0008200Y0085691D02*
X0132600Y0085691D01*
X0132600Y0084092D02*
X0008200Y0084092D01*
X0008200Y0082494D02*
X0132600Y0082494D01*
X0132600Y0080895D02*
X0008200Y0080895D01*
X0008200Y0079297D02*
X0132600Y0079297D01*
X0132600Y0077698D02*
X0008200Y0077698D01*
X0008200Y0076100D02*
X0132600Y0076100D01*
X0132600Y0074501D02*
X0008200Y0074501D01*
X0008200Y0072903D02*
X0132600Y0072903D01*
X0132600Y0071304D02*
X0008200Y0071304D01*
X0008200Y0069706D02*
X0132600Y0069706D01*
X0132600Y0068107D02*
X0008200Y0068107D01*
X0008200Y0066509D02*
X0132600Y0066509D01*
X0132600Y0064910D02*
X0008200Y0064910D01*
X0008200Y0063312D02*
X0132600Y0063312D01*
X0132600Y0061713D02*
X0008200Y0061713D01*
X0008200Y0060115D02*
X0132600Y0060115D01*
X0132600Y0058516D02*
X0008200Y0058516D01*
X0008200Y0056918D02*
X0132600Y0056918D01*
X0132600Y0055319D02*
X0008200Y0055319D01*
X0008200Y0053721D02*
X0132600Y0053721D01*
X0132600Y0052122D02*
X0008200Y0052122D01*
X0008200Y0050523D02*
X0132600Y0050523D01*
X0132600Y0048925D02*
X0008200Y0048925D01*
X0008200Y0047326D02*
X0047338Y0047326D01*
X0047924Y0047665D02*
X0045576Y0046309D01*
X0043658Y0044391D01*
X0042302Y0042042D01*
X0041600Y0039423D01*
X0041600Y0028911D01*
X0042302Y0026291D01*
X0043658Y0023942D01*
X0045576Y0022025D01*
X0047924Y0020669D01*
X0050544Y0019967D01*
X0053256Y0019967D01*
X0055876Y0020669D01*
X0058224Y0022025D01*
X0060142Y0023942D01*
X0061498Y0026291D01*
X0061750Y0027231D01*
X0062002Y0026291D01*
X0063358Y0023942D01*
X0065276Y0022025D01*
X0067624Y0020669D01*
X0070244Y0019967D01*
X0072956Y0019967D01*
X0075576Y0020669D01*
X0077924Y0022025D01*
X0079842Y0023942D01*
X0081198Y0026291D01*
X0081900Y0028911D01*
X0081900Y0039423D01*
X0081198Y0042042D01*
X0079842Y0044391D01*
X0077924Y0046309D01*
X0075576Y0047665D01*
X0072956Y0048367D01*
X0070244Y0048367D01*
X0067624Y0047665D01*
X0065276Y0046309D01*
X0063358Y0044391D01*
X0062002Y0042042D01*
X0061750Y0041102D01*
X0061498Y0042042D01*
X0060142Y0044391D01*
X0058224Y0046309D01*
X0055876Y0047665D01*
X0053256Y0048367D01*
X0050544Y0048367D01*
X0047924Y0047665D01*
X0044995Y0045728D02*
X0008200Y0045728D01*
X0008200Y0044129D02*
X0043507Y0044129D01*
X0042584Y0042531D02*
X0008200Y0042531D01*
X0008200Y0040932D02*
X0042005Y0040932D01*
X0041600Y0039334D02*
X0008200Y0039334D01*
X0008200Y0037735D02*
X0041600Y0037735D01*
X0041600Y0036137D02*
X0008200Y0036137D01*
X0008200Y0034538D02*
X0041600Y0034538D01*
X0041600Y0032940D02*
X0008200Y0032940D01*
X0008200Y0031341D02*
X0041600Y0031341D01*
X0041600Y0029743D02*
X0008200Y0029743D01*
X0008200Y0028144D02*
X0041805Y0028144D01*
X0042234Y0026546D02*
X0008200Y0026546D01*
X0008200Y0024947D02*
X0043078Y0024947D01*
X0044251Y0023349D02*
X0008200Y0023349D01*
X0008200Y0021750D02*
X0046051Y0021750D01*
X0049853Y0020152D02*
X0008200Y0020152D01*
X0008200Y0018553D02*
X0149403Y0018553D01*
X0151001Y0016955D02*
X0008200Y0016955D01*
X0008200Y0015356D02*
X0154029Y0015356D01*
X0160200Y0013758D02*
X0008200Y0013758D01*
X0008200Y0012159D02*
X0160290Y0012159D01*
X0147804Y0020152D02*
X0073647Y0020152D01*
X0069553Y0020152D02*
X0053947Y0020152D01*
X0057749Y0021750D02*
X0065751Y0021750D01*
X0063951Y0023349D02*
X0059549Y0023349D01*
X0060722Y0024947D02*
X0062778Y0024947D01*
X0061934Y0026546D02*
X0061566Y0026546D01*
X0077449Y0021750D02*
X0146206Y0021750D01*
X0144607Y0023349D02*
X0079249Y0023349D01*
X0080422Y0024947D02*
X0143009Y0024947D01*
X0141410Y0026546D02*
X0081266Y0026546D01*
X0081695Y0028144D02*
X0139812Y0028144D01*
X0138213Y0029743D02*
X0081900Y0029743D01*
X0081900Y0031341D02*
X0136615Y0031341D01*
X0135016Y0032940D02*
X0081900Y0032940D01*
X0081900Y0034538D02*
X0133759Y0034538D01*
X0133097Y0036137D02*
X0081900Y0036137D01*
X0081900Y0037735D02*
X0132600Y0037735D01*
X0132600Y0039334D02*
X0081900Y0039334D01*
X0081495Y0040932D02*
X0132600Y0040932D01*
X0132600Y0042531D02*
X0080916Y0042531D01*
X0079993Y0044129D02*
X0132600Y0044129D01*
X0132600Y0045728D02*
X0078505Y0045728D01*
X0076162Y0047326D02*
X0132600Y0047326D01*
X0151000Y0047326D02*
X0177100Y0047326D01*
X0177100Y0045728D02*
X0151000Y0045728D01*
X0151000Y0044129D02*
X0177100Y0044129D01*
X0176190Y0043167D02*
X0167410Y0043167D01*
X0164102Y0041796D01*
X0161570Y0039265D01*
X0160200Y0035957D01*
X0160200Y0033777D01*
X0151000Y0042977D01*
X0151000Y0071956D01*
X0154001Y0068955D01*
X0156589Y0066367D01*
X0159970Y0064967D01*
X0160200Y0064967D01*
X0160200Y0062376D01*
X0161570Y0059069D01*
X0164102Y0056537D01*
X0167410Y0055167D01*
X0176190Y0055167D01*
X0177100Y0055544D01*
X0177100Y0042790D01*
X0176190Y0043167D01*
X0177100Y0048925D02*
X0151000Y0048925D01*
X0151000Y0050523D02*
X0177100Y0050523D01*
X0177100Y0052122D02*
X0151000Y0052122D01*
X0151000Y0053721D02*
X0177100Y0053721D01*
X0177100Y0055319D02*
X0176558Y0055319D01*
X0167042Y0055319D02*
X0151000Y0055319D01*
X0151000Y0056918D02*
X0163721Y0056918D01*
X0162123Y0058516D02*
X0151000Y0058516D01*
X0151000Y0060115D02*
X0161137Y0060115D01*
X0160475Y0061713D02*
X0151000Y0061713D01*
X0151000Y0063312D02*
X0160200Y0063312D01*
X0160200Y0064910D02*
X0151000Y0064910D01*
X0151000Y0066509D02*
X0156447Y0066509D01*
X0154849Y0068107D02*
X0151000Y0068107D01*
X0151000Y0069706D02*
X0153250Y0069706D01*
X0151652Y0071304D02*
X0151000Y0071304D01*
X0151446Y0042531D02*
X0165875Y0042531D01*
X0163238Y0040932D02*
X0153045Y0040932D01*
X0154643Y0039334D02*
X0161639Y0039334D01*
X0160937Y0037735D02*
X0156242Y0037735D01*
X0157841Y0036137D02*
X0160275Y0036137D01*
X0160200Y0034538D02*
X0159439Y0034538D01*
X0196500Y0042790D02*
X0196500Y0055544D01*
X0197410Y0055167D01*
X0206190Y0055167D01*
X0209498Y0056537D01*
X0212030Y0059069D01*
X0213400Y0062376D01*
X0213400Y0064967D01*
X0213630Y0064967D01*
X0217011Y0066367D01*
X0219599Y0068955D01*
X0222600Y0071956D01*
X0222600Y0042977D01*
X0213400Y0033777D01*
X0213400Y0035957D01*
X0212030Y0039265D01*
X0209498Y0041796D01*
X0206190Y0043167D01*
X0197410Y0043167D01*
X0196500Y0042790D01*
X0196500Y0044129D02*
X0222600Y0044129D01*
X0222600Y0045728D02*
X0196500Y0045728D01*
X0196500Y0047326D02*
X0222600Y0047326D01*
X0222600Y0048925D02*
X0196500Y0048925D01*
X0196500Y0050523D02*
X0222600Y0050523D01*
X0222600Y0052122D02*
X0196500Y0052122D01*
X0196500Y0053721D02*
X0222600Y0053721D01*
X0222600Y0055319D02*
X0206558Y0055319D01*
X0209879Y0056918D02*
X0222600Y0056918D01*
X0222600Y0058516D02*
X0211477Y0058516D01*
X0212463Y0060115D02*
X0222600Y0060115D01*
X0222600Y0061713D02*
X0213125Y0061713D01*
X0213400Y0063312D02*
X0222600Y0063312D01*
X0222600Y0064910D02*
X0213400Y0064910D01*
X0217153Y0066509D02*
X0222600Y0066509D01*
X0222600Y0068107D02*
X0218751Y0068107D01*
X0220350Y0069706D02*
X0222600Y0069706D01*
X0222600Y0071304D02*
X0221948Y0071304D01*
X0241000Y0071304D02*
X0295400Y0071304D01*
X0295400Y0069706D02*
X0241000Y0069706D01*
X0241000Y0068107D02*
X0295400Y0068107D01*
X0295400Y0066509D02*
X0241000Y0066509D01*
X0241000Y0064910D02*
X0295400Y0064910D01*
X0295400Y0063312D02*
X0241000Y0063312D01*
X0241000Y0061713D02*
X0295400Y0061713D01*
X0295400Y0060115D02*
X0241000Y0060115D01*
X0241000Y0058516D02*
X0295400Y0058516D01*
X0295400Y0056918D02*
X0241000Y0056918D01*
X0241000Y0055319D02*
X0295400Y0055319D01*
X0295400Y0053721D02*
X0241000Y0053721D01*
X0241000Y0052122D02*
X0295400Y0052122D01*
X0295400Y0050523D02*
X0241000Y0050523D01*
X0241000Y0048925D02*
X0295400Y0048925D01*
X0295400Y0047326D02*
X0291162Y0047326D01*
X0290576Y0047665D02*
X0287956Y0048367D01*
X0285244Y0048367D01*
X0282624Y0047665D01*
X0280276Y0046309D01*
X0278358Y0044391D01*
X0277002Y0042042D01*
X0276750Y0041102D01*
X0276498Y0042042D01*
X0275142Y0044391D01*
X0273224Y0046309D01*
X0270876Y0047665D01*
X0268256Y0048367D01*
X0265544Y0048367D01*
X0262924Y0047665D01*
X0260576Y0046309D01*
X0258658Y0044391D01*
X0257302Y0042042D01*
X0256600Y0039423D01*
X0256600Y0028911D01*
X0257302Y0026291D01*
X0258658Y0023942D01*
X0260576Y0022025D01*
X0262924Y0020669D01*
X0265544Y0019967D01*
X0268256Y0019967D01*
X0270876Y0020669D01*
X0273224Y0022025D01*
X0275142Y0023942D01*
X0276498Y0026291D01*
X0276750Y0027231D01*
X0277002Y0026291D01*
X0278358Y0023942D01*
X0280276Y0022025D01*
X0282624Y0020669D01*
X0285244Y0019967D01*
X0287956Y0019967D01*
X0290576Y0020669D01*
X0292924Y0022025D01*
X0294842Y0023942D01*
X0295400Y0024909D01*
X0295400Y0010567D01*
X0212650Y0010567D01*
X0213400Y0012376D01*
X0213400Y0014967D01*
X0218630Y0014967D01*
X0222011Y0016367D01*
X0224599Y0018955D01*
X0239599Y0033955D01*
X0241000Y0037337D01*
X0241000Y0040997D01*
X0241000Y0140997D01*
X0239599Y0144378D01*
X0237011Y0146966D01*
X0226000Y0157977D01*
X0226000Y0164967D01*
X0228590Y0164967D01*
X0231898Y0166337D01*
X0234430Y0168869D01*
X0235800Y0172176D01*
X0235800Y0180957D01*
X0234470Y0184167D01*
X0295400Y0184167D01*
X0295400Y0043425D01*
X0294842Y0044391D01*
X0292924Y0046309D01*
X0290576Y0047665D01*
X0293505Y0045728D02*
X0295400Y0045728D01*
X0295400Y0044129D02*
X0294993Y0044129D01*
X0282038Y0047326D02*
X0271462Y0047326D01*
X0273805Y0045728D02*
X0279695Y0045728D01*
X0278207Y0044129D02*
X0275293Y0044129D01*
X0276216Y0042531D02*
X0277284Y0042531D01*
X0262338Y0047326D02*
X0241000Y0047326D01*
X0241000Y0045728D02*
X0259995Y0045728D01*
X0258507Y0044129D02*
X0241000Y0044129D01*
X0241000Y0042531D02*
X0257584Y0042531D01*
X0257005Y0040932D02*
X0241000Y0040932D01*
X0241000Y0039334D02*
X0256600Y0039334D01*
X0256600Y0037735D02*
X0241000Y0037735D01*
X0240503Y0036137D02*
X0256600Y0036137D01*
X0256600Y0034538D02*
X0239841Y0034538D01*
X0238584Y0032940D02*
X0256600Y0032940D01*
X0256600Y0031341D02*
X0236985Y0031341D01*
X0235387Y0029743D02*
X0256600Y0029743D01*
X0256805Y0028144D02*
X0233788Y0028144D01*
X0232190Y0026546D02*
X0257234Y0026546D01*
X0258078Y0024947D02*
X0230591Y0024947D01*
X0228993Y0023349D02*
X0259251Y0023349D01*
X0261051Y0021750D02*
X0227394Y0021750D01*
X0225796Y0020152D02*
X0264853Y0020152D01*
X0268947Y0020152D02*
X0284553Y0020152D01*
X0288647Y0020152D02*
X0295400Y0020152D01*
X0295400Y0021750D02*
X0292449Y0021750D01*
X0294249Y0023349D02*
X0295400Y0023349D01*
X0295400Y0018553D02*
X0224197Y0018553D01*
X0222599Y0016955D02*
X0295400Y0016955D01*
X0295400Y0015356D02*
X0219571Y0015356D01*
X0213400Y0013758D02*
X0295400Y0013758D01*
X0295400Y0012159D02*
X0213310Y0012159D01*
X0213400Y0034538D02*
X0214161Y0034538D01*
X0213325Y0036137D02*
X0215759Y0036137D01*
X0217358Y0037735D02*
X0212663Y0037735D01*
X0211961Y0039334D02*
X0218956Y0039334D01*
X0220555Y0040932D02*
X0210362Y0040932D01*
X0207725Y0042531D02*
X0222154Y0042531D01*
X0197042Y0055319D02*
X0196500Y0055319D01*
X0241000Y0072903D02*
X0295400Y0072903D01*
X0295400Y0074501D02*
X0241000Y0074501D01*
X0241000Y0076100D02*
X0295400Y0076100D01*
X0295400Y0077698D02*
X0241000Y0077698D01*
X0241000Y0079297D02*
X0295400Y0079297D01*
X0295400Y0080895D02*
X0241000Y0080895D01*
X0241000Y0082494D02*
X0295400Y0082494D01*
X0295400Y0084092D02*
X0241000Y0084092D01*
X0241000Y0085691D02*
X0295400Y0085691D01*
X0295400Y0087289D02*
X0241000Y0087289D01*
X0241000Y0088888D02*
X0295400Y0088888D01*
X0295400Y0090486D02*
X0241000Y0090486D01*
X0241000Y0092085D02*
X0295400Y0092085D01*
X0295400Y0093683D02*
X0241000Y0093683D01*
X0241000Y0095282D02*
X0295400Y0095282D01*
X0295400Y0096880D02*
X0241000Y0096880D01*
X0241000Y0098479D02*
X0295400Y0098479D01*
X0295400Y0100077D02*
X0241000Y0100077D01*
X0241000Y0101676D02*
X0295400Y0101676D01*
X0295400Y0103274D02*
X0241000Y0103274D01*
X0241000Y0104873D02*
X0295400Y0104873D01*
X0295400Y0106471D02*
X0241000Y0106471D01*
X0241000Y0108070D02*
X0295400Y0108070D01*
X0295400Y0109668D02*
X0241000Y0109668D01*
X0241000Y0111267D02*
X0295400Y0111267D01*
X0295400Y0112865D02*
X0241000Y0112865D01*
X0241000Y0114464D02*
X0295400Y0114464D01*
X0295400Y0116062D02*
X0241000Y0116062D01*
X0241000Y0117661D02*
X0295400Y0117661D01*
X0295400Y0119259D02*
X0241000Y0119259D01*
X0241000Y0120858D02*
X0295400Y0120858D01*
X0295400Y0122456D02*
X0241000Y0122456D01*
X0241000Y0124055D02*
X0295400Y0124055D01*
X0295400Y0125654D02*
X0241000Y0125654D01*
X0241000Y0127252D02*
X0295400Y0127252D01*
X0295400Y0128851D02*
X0241000Y0128851D01*
X0241000Y0130449D02*
X0295400Y0130449D01*
X0295400Y0132048D02*
X0241000Y0132048D01*
X0241000Y0133646D02*
X0295400Y0133646D01*
X0295400Y0135245D02*
X0241000Y0135245D01*
X0241000Y0136843D02*
X0295400Y0136843D01*
X0295400Y0138442D02*
X0241000Y0138442D01*
X0241000Y0140040D02*
X0295400Y0140040D01*
X0295400Y0141639D02*
X0240734Y0141639D01*
X0240072Y0143237D02*
X0295400Y0143237D01*
X0295400Y0144836D02*
X0239142Y0144836D01*
X0237543Y0146434D02*
X0295400Y0146434D01*
X0295400Y0148033D02*
X0235945Y0148033D01*
X0234346Y0149631D02*
X0295400Y0149631D01*
X0295400Y0151230D02*
X0232748Y0151230D01*
X0231149Y0152828D02*
X0295400Y0152828D01*
X0295400Y0154427D02*
X0229551Y0154427D01*
X0227952Y0156025D02*
X0295400Y0156025D01*
X0295400Y0157624D02*
X0226354Y0157624D01*
X0226000Y0159222D02*
X0295400Y0159222D01*
X0295400Y0160821D02*
X0226000Y0160821D01*
X0226000Y0162419D02*
X0295400Y0162419D01*
X0295400Y0164018D02*
X0226000Y0164018D01*
X0230159Y0165616D02*
X0295400Y0165616D01*
X0295400Y0167215D02*
X0232776Y0167215D01*
X0234375Y0168813D02*
X0295400Y0168813D01*
X0295400Y0170412D02*
X0235069Y0170412D01*
X0235731Y0172010D02*
X0295400Y0172010D01*
X0295400Y0173609D02*
X0235800Y0173609D01*
X0235800Y0175207D02*
X0295400Y0175207D01*
X0295400Y0176806D02*
X0235800Y0176806D01*
X0235800Y0178404D02*
X0295400Y0178404D01*
X0295400Y0180003D02*
X0235800Y0180003D01*
X0235533Y0181601D02*
X0295400Y0181601D01*
X0295400Y0183200D02*
X0234871Y0183200D01*
X0228590Y0200167D02*
X0231898Y0201537D01*
X0234430Y0204069D01*
X0235800Y0207376D01*
X0235800Y0216157D01*
X0234430Y0219465D01*
X0231898Y0221996D01*
X0228590Y0223367D01*
X0226000Y0223367D01*
X0226000Y0265997D01*
X0225800Y0266480D01*
X0225800Y0267895D01*
X0224799Y0268895D01*
X0224599Y0269378D01*
X0222011Y0271966D01*
X0221529Y0272166D01*
X0220528Y0273167D01*
X0219113Y0273167D01*
X0218630Y0273367D01*
X0214970Y0273367D01*
X0214487Y0273167D01*
X0213072Y0273167D01*
X0212071Y0272166D01*
X0211589Y0271966D01*
X0209001Y0269378D01*
X0208801Y0268895D01*
X0207800Y0267895D01*
X0207800Y0266480D01*
X0207600Y0265997D01*
X0207600Y0223367D01*
X0206000Y0223367D01*
X0206000Y0240997D01*
X0205800Y0241480D01*
X0205800Y0242895D01*
X0204799Y0243895D01*
X0204599Y0244378D01*
X0202011Y0246966D01*
X0201529Y0247166D01*
X0200528Y0248167D01*
X0199113Y0248167D01*
X0198630Y0248367D01*
X0194970Y0248367D01*
X0194487Y0248167D01*
X0193072Y0248167D01*
X0192071Y0247166D01*
X0191589Y0246966D01*
X0189001Y0244378D01*
X0188801Y0243895D01*
X0187800Y0242895D01*
X0187800Y0241480D01*
X0187600Y0240997D01*
X0187600Y0223367D01*
X0186000Y0223367D01*
X0186000Y0240997D01*
X0185800Y0241480D01*
X0185800Y0242895D01*
X0184799Y0243895D01*
X0184599Y0244378D01*
X0182011Y0246966D01*
X0181529Y0247166D01*
X0180528Y0248167D01*
X0179113Y0248167D01*
X0178630Y0248367D01*
X0174970Y0248367D01*
X0174487Y0248167D01*
X0173072Y0248167D01*
X0172071Y0247166D01*
X0171589Y0246966D01*
X0169001Y0244378D01*
X0168801Y0243895D01*
X0167800Y0242895D01*
X0167800Y0241480D01*
X0167600Y0240997D01*
X0167600Y0223367D01*
X0166000Y0223367D01*
X0166000Y0265997D01*
X0165800Y0266480D01*
X0165800Y0267895D01*
X0164799Y0268895D01*
X0164599Y0269378D01*
X0162011Y0271966D01*
X0161529Y0272166D01*
X0160528Y0273167D01*
X0159113Y0273167D01*
X0158630Y0273367D01*
X0154970Y0273367D01*
X0154487Y0273167D01*
X0153072Y0273167D01*
X0152071Y0272166D01*
X0151589Y0271966D01*
X0149001Y0269378D01*
X0148801Y0268895D01*
X0147800Y0267895D01*
X0147800Y0266480D01*
X0147600Y0265997D01*
X0147600Y0207337D01*
X0149001Y0203955D01*
X0151589Y0201367D01*
X0154970Y0199967D01*
X0158630Y0199967D01*
X0162011Y0201367D01*
X0162041Y0201397D01*
X0165010Y0200167D01*
X0168590Y0200167D01*
X0171559Y0201397D01*
X0171589Y0201367D01*
X0174970Y0199967D01*
X0178630Y0199967D01*
X0182011Y0201367D01*
X0182041Y0201397D01*
X0185010Y0200167D01*
X0188590Y0200167D01*
X0191559Y0201397D01*
X0191589Y0201367D01*
X0194970Y0199967D01*
X0198630Y0199967D01*
X0202011Y0201367D01*
X0202041Y0201397D01*
X0205010Y0200167D01*
X0208590Y0200167D01*
X0211559Y0201397D01*
X0211589Y0201367D01*
X0214970Y0199967D01*
X0218630Y0199967D01*
X0222011Y0201367D01*
X0222041Y0201397D01*
X0225010Y0200167D01*
X0228590Y0200167D01*
X0230080Y0200784D02*
X0291800Y0200784D01*
X0291800Y0202382D02*
X0232743Y0202382D01*
X0234342Y0203981D02*
X0291800Y0203981D01*
X0291800Y0205579D02*
X0235055Y0205579D01*
X0235718Y0207178D02*
X0291800Y0207178D01*
X0291800Y0208776D02*
X0235800Y0208776D01*
X0235800Y0210375D02*
X0291800Y0210375D01*
X0291800Y0211973D02*
X0235800Y0211973D01*
X0235800Y0213572D02*
X0291800Y0213572D01*
X0291800Y0215170D02*
X0235800Y0215170D01*
X0235547Y0216769D02*
X0291800Y0216769D01*
X0291800Y0218367D02*
X0234884Y0218367D01*
X0233929Y0219966D02*
X0291800Y0219966D01*
X0291800Y0221564D02*
X0232330Y0221564D01*
X0229083Y0223163D02*
X0291800Y0223163D01*
X0291800Y0224761D02*
X0226000Y0224761D01*
X0226000Y0226360D02*
X0291800Y0226360D01*
X0291800Y0227958D02*
X0226000Y0227958D01*
X0226000Y0229557D02*
X0291800Y0229557D01*
X0291800Y0231155D02*
X0226000Y0231155D01*
X0226000Y0232754D02*
X0291800Y0232754D01*
X0291800Y0234352D02*
X0226000Y0234352D01*
X0226000Y0235951D02*
X0291800Y0235951D01*
X0291800Y0237549D02*
X0226000Y0237549D01*
X0226000Y0239148D02*
X0291800Y0239148D01*
X0291800Y0240746D02*
X0226000Y0240746D01*
X0226000Y0242345D02*
X0291800Y0242345D01*
X0291800Y0243943D02*
X0226000Y0243943D01*
X0226000Y0245542D02*
X0291800Y0245542D01*
X0291800Y0247140D02*
X0226000Y0247140D01*
X0226000Y0248739D02*
X0291800Y0248739D01*
X0291800Y0250337D02*
X0226000Y0250337D01*
X0226000Y0251936D02*
X0291800Y0251936D01*
X0291800Y0253534D02*
X0226000Y0253534D01*
X0226000Y0255133D02*
X0291800Y0255133D01*
X0291800Y0256731D02*
X0226000Y0256731D01*
X0226000Y0258330D02*
X0291800Y0258330D01*
X0291800Y0259928D02*
X0226000Y0259928D01*
X0226000Y0261527D02*
X0291800Y0261527D01*
X0291800Y0263125D02*
X0226000Y0263125D01*
X0226000Y0264724D02*
X0291800Y0264724D01*
X0291800Y0266323D02*
X0225865Y0266323D01*
X0225774Y0267921D02*
X0291800Y0267921D01*
X0291800Y0269520D02*
X0224458Y0269520D01*
X0222859Y0271118D02*
X0291800Y0271118D01*
X0291800Y0272717D02*
X0220978Y0272717D01*
X0212622Y0272717D02*
X0160978Y0272717D01*
X0162859Y0271118D02*
X0210741Y0271118D01*
X0209142Y0269520D02*
X0164458Y0269520D01*
X0165774Y0267921D02*
X0207826Y0267921D01*
X0207735Y0266323D02*
X0165865Y0266323D01*
X0166000Y0264724D02*
X0207600Y0264724D01*
X0207600Y0263125D02*
X0166000Y0263125D01*
X0166000Y0261527D02*
X0207600Y0261527D01*
X0207600Y0259928D02*
X0166000Y0259928D01*
X0166000Y0258330D02*
X0207600Y0258330D01*
X0207600Y0256731D02*
X0166000Y0256731D01*
X0166000Y0255133D02*
X0207600Y0255133D01*
X0207600Y0253534D02*
X0166000Y0253534D01*
X0166000Y0251936D02*
X0207600Y0251936D01*
X0207600Y0250337D02*
X0166000Y0250337D01*
X0166000Y0248739D02*
X0207600Y0248739D01*
X0207600Y0247140D02*
X0201590Y0247140D01*
X0203436Y0245542D02*
X0207600Y0245542D01*
X0207600Y0243943D02*
X0204779Y0243943D01*
X0205800Y0242345D02*
X0207600Y0242345D01*
X0207600Y0240746D02*
X0206000Y0240746D01*
X0206000Y0239148D02*
X0207600Y0239148D01*
X0207600Y0237549D02*
X0206000Y0237549D01*
X0206000Y0235951D02*
X0207600Y0235951D01*
X0207600Y0234352D02*
X0206000Y0234352D01*
X0206000Y0232754D02*
X0207600Y0232754D01*
X0207600Y0231155D02*
X0206000Y0231155D01*
X0206000Y0229557D02*
X0207600Y0229557D01*
X0207600Y0227958D02*
X0206000Y0227958D01*
X0206000Y0226360D02*
X0207600Y0226360D01*
X0207600Y0224761D02*
X0206000Y0224761D01*
X0187600Y0224761D02*
X0186000Y0224761D01*
X0186000Y0226360D02*
X0187600Y0226360D01*
X0187600Y0227958D02*
X0186000Y0227958D01*
X0186000Y0229557D02*
X0187600Y0229557D01*
X0187600Y0231155D02*
X0186000Y0231155D01*
X0186000Y0232754D02*
X0187600Y0232754D01*
X0187600Y0234352D02*
X0186000Y0234352D01*
X0186000Y0235951D02*
X0187600Y0235951D01*
X0187600Y0237549D02*
X0186000Y0237549D01*
X0186000Y0239148D02*
X0187600Y0239148D01*
X0187600Y0240746D02*
X0186000Y0240746D01*
X0185800Y0242345D02*
X0187800Y0242345D01*
X0188821Y0243943D02*
X0184779Y0243943D01*
X0183436Y0245542D02*
X0190164Y0245542D01*
X0192010Y0247140D02*
X0181590Y0247140D01*
X0172010Y0247140D02*
X0166000Y0247140D01*
X0166000Y0245542D02*
X0170164Y0245542D01*
X0168821Y0243943D02*
X0166000Y0243943D01*
X0166000Y0242345D02*
X0167800Y0242345D01*
X0167600Y0240746D02*
X0166000Y0240746D01*
X0166000Y0239148D02*
X0167600Y0239148D01*
X0167600Y0237549D02*
X0166000Y0237549D01*
X0166000Y0235951D02*
X0167600Y0235951D01*
X0167600Y0234352D02*
X0166000Y0234352D01*
X0166000Y0232754D02*
X0167600Y0232754D01*
X0167600Y0231155D02*
X0166000Y0231155D01*
X0166000Y0229557D02*
X0167600Y0229557D01*
X0167600Y0227958D02*
X0166000Y0227958D01*
X0166000Y0226360D02*
X0167600Y0226360D01*
X0167600Y0224761D02*
X0166000Y0224761D01*
X0147600Y0224761D02*
X0036800Y0224761D01*
X0036800Y0223163D02*
X0147600Y0223163D01*
X0147600Y0221564D02*
X0036800Y0221564D01*
X0036800Y0219966D02*
X0147600Y0219966D01*
X0147600Y0218367D02*
X0036800Y0218367D01*
X0036800Y0216769D02*
X0147600Y0216769D01*
X0147600Y0215170D02*
X0036800Y0215170D01*
X0036800Y0213572D02*
X0147600Y0213572D01*
X0147600Y0211973D02*
X0036800Y0211973D01*
X0036800Y0210375D02*
X0147600Y0210375D01*
X0147600Y0208776D02*
X0036800Y0208776D01*
X0036800Y0207178D02*
X0147666Y0207178D01*
X0148328Y0205579D02*
X0036800Y0205579D01*
X0036800Y0203981D02*
X0148990Y0203981D01*
X0150574Y0202382D02*
X0036800Y0202382D01*
X0036800Y0200784D02*
X0152998Y0200784D01*
X0160602Y0200784D02*
X0163520Y0200784D01*
X0170080Y0200784D02*
X0172998Y0200784D01*
X0180602Y0200784D02*
X0183520Y0200784D01*
X0190080Y0200784D02*
X0192998Y0200784D01*
X0200602Y0200784D02*
X0203520Y0200784D01*
X0210080Y0200784D02*
X0212998Y0200784D01*
X0220602Y0200784D02*
X0223520Y0200784D01*
X0291800Y0199185D02*
X0036800Y0199185D01*
X0036800Y0197587D02*
X0291800Y0197587D01*
X0291800Y0195988D02*
X0036800Y0195988D01*
X0036800Y0194390D02*
X0291800Y0194390D01*
X0291800Y0194167D02*
X0036800Y0194167D01*
X0036800Y0404167D01*
X0291800Y0404167D01*
X0291800Y0194167D01*
X0317200Y0194390D02*
X0382025Y0194390D01*
X0382986Y0194945D02*
X0380154Y0193310D01*
X0377842Y0190997D01*
X0376207Y0188165D01*
X0375361Y0185006D01*
X0375361Y0181736D01*
X0376207Y0178578D01*
X0377842Y0175746D01*
X0380154Y0173433D01*
X0382100Y0172310D01*
X0382100Y0123758D01*
X0382800Y0121146D01*
X0382800Y0120578D01*
X0384322Y0116902D01*
X0387135Y0114089D01*
X0390811Y0112567D01*
X0394789Y0112567D01*
X0398465Y0114089D01*
X0398842Y0114467D01*
X0421368Y0114467D01*
X0421573Y0114261D01*
X0422043Y0113447D01*
X0424081Y0111410D01*
X0426576Y0109969D01*
X0429359Y0109223D01*
X0432241Y0109223D01*
X0435024Y0109969D01*
X0436080Y0110579D01*
X0424895Y0099394D01*
X0424081Y0098923D01*
X0422043Y0096886D01*
X0421573Y0096072D01*
X0421368Y0095867D01*
X0398842Y0095867D01*
X0398465Y0096244D01*
X0394789Y0097767D01*
X0390811Y0097767D01*
X0387135Y0096244D01*
X0384322Y0093431D01*
X0382800Y0089756D01*
X0382800Y0089188D01*
X0382100Y0086575D01*
X0382100Y0051023D01*
X0380154Y0049900D01*
X0377842Y0047588D01*
X0376207Y0044756D01*
X0375361Y0041597D01*
X0375361Y0038327D01*
X0376207Y0035168D01*
X0377842Y0032336D01*
X0380154Y0030024D01*
X0382986Y0028389D01*
X0386145Y0027542D01*
X0399455Y0027542D01*
X0402613Y0028389D01*
X0405446Y0030024D01*
X0407758Y0032336D01*
X0409393Y0035168D01*
X0410239Y0038327D01*
X0410239Y0041597D01*
X0409393Y0044756D01*
X0407758Y0047588D01*
X0405446Y0049900D01*
X0403500Y0051023D01*
X0403500Y0074467D01*
X0427209Y0074467D01*
X0429930Y0075196D01*
X0432370Y0076605D01*
X0436705Y0080940D01*
X0437519Y0081410D01*
X0439557Y0083447D01*
X0440027Y0084261D01*
X0450232Y0094467D01*
X0450646Y0094467D01*
X0450602Y0094391D01*
X0449857Y0091607D01*
X0449857Y0088726D01*
X0450100Y0087818D01*
X0450100Y0076758D01*
X0450829Y0074037D01*
X0452238Y0071597D01*
X0454230Y0069605D01*
X0456670Y0068196D01*
X0459391Y0067467D01*
X0586100Y0067467D01*
X0586100Y0039314D01*
X0585650Y0037635D01*
X0585650Y0034699D01*
X0586410Y0031863D01*
X0587878Y0029320D01*
X0589954Y0027244D01*
X0592496Y0025777D01*
X0595332Y0025017D01*
X0598268Y0025017D01*
X0601104Y0025777D01*
X0603646Y0027244D01*
X0605722Y0029320D01*
X0607190Y0031863D01*
X0607950Y0034699D01*
X0607950Y0037635D01*
X0607500Y0039314D01*
X0607500Y0063467D01*
X0618209Y0063467D01*
X0620930Y0064196D01*
X0623370Y0065605D01*
X0625362Y0067597D01*
X0626771Y0070037D01*
X0627500Y0072758D01*
X0627500Y0091575D01*
X0626800Y0094188D01*
X0626800Y0094756D01*
X0625278Y0098431D01*
X0622465Y0101244D01*
X0618789Y0102767D01*
X0614811Y0102767D01*
X0611135Y0101244D01*
X0608322Y0098431D01*
X0606800Y0094756D01*
X0605278Y0098431D01*
X0605237Y0098472D01*
X0614472Y0107707D01*
X0614811Y0107567D01*
X0618789Y0107567D01*
X0622465Y0109089D01*
X0625278Y0111902D01*
X0626800Y0115578D01*
X0626800Y0116146D01*
X0627500Y0118758D01*
X0627500Y0130735D01*
X0632232Y0135467D01*
X0647209Y0135467D01*
X0649821Y0136167D01*
X0649942Y0136167D01*
X0650028Y0136252D01*
X0652370Y0137605D01*
X0654362Y0139597D01*
X0655714Y0141939D01*
X0655800Y0142025D01*
X0655800Y0142146D01*
X0656500Y0144758D01*
X0656500Y0147575D01*
X0655800Y0150188D01*
X0655800Y0150309D01*
X0655714Y0150394D01*
X0654362Y0152737D01*
X0652370Y0154729D01*
X0650028Y0156081D01*
X0649942Y0156167D01*
X0650028Y0156252D01*
X0652370Y0157605D01*
X0654362Y0159597D01*
X0655714Y0161939D01*
X0655800Y0162025D01*
X0655800Y0162146D01*
X0656500Y0164758D01*
X0656500Y0189125D01*
X0656878Y0189502D01*
X0658400Y0193178D01*
X0658400Y0197156D01*
X0657153Y0200167D01*
X0658320Y0202983D01*
X0729400Y0203149D01*
X0729400Y0011567D01*
X0317200Y0011567D01*
X0317200Y0017730D01*
X0318667Y0016264D01*
X0322058Y0014305D01*
X0325842Y0013292D01*
X0329758Y0013292D01*
X0333542Y0014305D01*
X0336933Y0016264D01*
X0339703Y0019033D01*
X0341661Y0022425D01*
X0342675Y0026208D01*
X0342675Y0030125D01*
X0341661Y0033908D01*
X0339703Y0037300D01*
X0336933Y0040070D01*
X0333542Y0042028D01*
X0329758Y0043042D01*
X0325842Y0043042D01*
X0322058Y0042028D01*
X0318667Y0040070D01*
X0317200Y0038603D01*
X0317200Y0202186D01*
X0424787Y0202438D01*
X0426535Y0200689D01*
X0430211Y0199167D01*
X0430779Y0199167D01*
X0433391Y0198467D01*
X0445209Y0198467D01*
X0447930Y0199196D01*
X0450370Y0200605D01*
X0452267Y0202502D01*
X0452758Y0202503D01*
X0452200Y0201156D01*
X0452200Y0197178D01*
X0453722Y0193502D01*
X0456535Y0190689D01*
X0460211Y0189167D01*
X0460779Y0189167D01*
X0463391Y0188467D01*
X0502209Y0188467D01*
X0504821Y0189167D01*
X0504942Y0189167D01*
X0505028Y0189252D01*
X0507370Y0190605D01*
X0509362Y0192597D01*
X0510714Y0194939D01*
X0510800Y0195025D01*
X0510886Y0194939D01*
X0512238Y0192597D01*
X0514230Y0190605D01*
X0516572Y0189252D01*
X0516658Y0189167D01*
X0516779Y0189167D01*
X0519391Y0188467D01*
X0547368Y0188467D01*
X0586100Y0149735D01*
X0586100Y0142867D01*
X0459391Y0142867D01*
X0456670Y0142137D01*
X0454230Y0140729D01*
X0452238Y0138737D01*
X0450829Y0136297D01*
X0450100Y0133575D01*
X0450100Y0122515D01*
X0449857Y0121607D01*
X0449857Y0118726D01*
X0450602Y0115943D01*
X0450646Y0115867D01*
X0444391Y0115867D01*
X0441670Y0115137D01*
X0439964Y0114152D01*
X0440998Y0115943D01*
X0441743Y0118726D01*
X0441743Y0121607D01*
X0440998Y0124391D01*
X0439557Y0126886D01*
X0437519Y0128923D01*
X0436705Y0129394D01*
X0432370Y0133729D01*
X0429930Y0135137D01*
X0427209Y0135867D01*
X0403500Y0135867D01*
X0403500Y0172310D01*
X0405446Y0173433D01*
X0407758Y0175746D01*
X0409393Y0178578D01*
X0410239Y0181736D01*
X0410239Y0185006D01*
X0409393Y0188165D01*
X0407758Y0190997D01*
X0405446Y0193310D01*
X0402613Y0194945D01*
X0399455Y0195791D01*
X0386145Y0195791D01*
X0382986Y0194945D01*
X0379636Y0192791D02*
X0317200Y0192791D01*
X0317200Y0191192D02*
X0378037Y0191192D01*
X0377032Y0189594D02*
X0317200Y0189594D01*
X0317200Y0187995D02*
X0376162Y0187995D01*
X0375733Y0186397D02*
X0317200Y0186397D01*
X0317200Y0184798D02*
X0375361Y0184798D01*
X0375361Y0183200D02*
X0317200Y0183200D01*
X0317200Y0181601D02*
X0375397Y0181601D01*
X0375825Y0180003D02*
X0317200Y0180003D01*
X0317200Y0178404D02*
X0376307Y0178404D01*
X0377230Y0176806D02*
X0317200Y0176806D01*
X0317200Y0175207D02*
X0378380Y0175207D01*
X0379979Y0173609D02*
X0317200Y0173609D01*
X0317200Y0172010D02*
X0382100Y0172010D01*
X0382100Y0170412D02*
X0317200Y0170412D01*
X0317200Y0168813D02*
X0382100Y0168813D01*
X0382100Y0167215D02*
X0317200Y0167215D01*
X0317200Y0165616D02*
X0382100Y0165616D01*
X0382100Y0164018D02*
X0317200Y0164018D01*
X0317200Y0162419D02*
X0382100Y0162419D01*
X0382100Y0160821D02*
X0317200Y0160821D01*
X0317200Y0159222D02*
X0382100Y0159222D01*
X0382100Y0157624D02*
X0317200Y0157624D01*
X0317200Y0156025D02*
X0382100Y0156025D01*
X0382100Y0154427D02*
X0317200Y0154427D01*
X0317200Y0152828D02*
X0382100Y0152828D01*
X0382100Y0151230D02*
X0317200Y0151230D01*
X0317200Y0149631D02*
X0382100Y0149631D01*
X0382100Y0148033D02*
X0317200Y0148033D01*
X0317200Y0146434D02*
X0382100Y0146434D01*
X0382100Y0144836D02*
X0317200Y0144836D01*
X0317200Y0143237D02*
X0382100Y0143237D01*
X0382100Y0141639D02*
X0317200Y0141639D01*
X0317200Y0140040D02*
X0382100Y0140040D01*
X0382100Y0138442D02*
X0317200Y0138442D01*
X0317200Y0136843D02*
X0382100Y0136843D01*
X0382100Y0135245D02*
X0317200Y0135245D01*
X0317200Y0133646D02*
X0382100Y0133646D01*
X0382100Y0132048D02*
X0317200Y0132048D01*
X0317200Y0130449D02*
X0382100Y0130449D01*
X0382100Y0128851D02*
X0317200Y0128851D01*
X0317200Y0127252D02*
X0382100Y0127252D01*
X0382100Y0125654D02*
X0317200Y0125654D01*
X0317200Y0124055D02*
X0382100Y0124055D01*
X0382449Y0122456D02*
X0317200Y0122456D01*
X0317200Y0120858D02*
X0382800Y0120858D01*
X0383346Y0119259D02*
X0317200Y0119259D01*
X0317200Y0117661D02*
X0384008Y0117661D01*
X0385162Y0116062D02*
X0317200Y0116062D01*
X0317200Y0114464D02*
X0386761Y0114464D01*
X0390090Y0112865D02*
X0317200Y0112865D01*
X0317200Y0111267D02*
X0424328Y0111267D01*
X0422625Y0112865D02*
X0395510Y0112865D01*
X0398839Y0114464D02*
X0421371Y0114464D01*
X0427698Y0109668D02*
X0317200Y0109668D01*
X0317200Y0108070D02*
X0433571Y0108070D01*
X0433902Y0109668D02*
X0435170Y0109668D01*
X0431973Y0106471D02*
X0317200Y0106471D01*
X0317200Y0104873D02*
X0430374Y0104873D01*
X0428776Y0103274D02*
X0317200Y0103274D01*
X0317200Y0101676D02*
X0427177Y0101676D01*
X0425579Y0100077D02*
X0317200Y0100077D01*
X0317200Y0098479D02*
X0423636Y0098479D01*
X0422040Y0096880D02*
X0396929Y0096880D01*
X0388671Y0096880D02*
X0317200Y0096880D01*
X0317200Y0095282D02*
X0386173Y0095282D01*
X0384574Y0093683D02*
X0317200Y0093683D01*
X0317200Y0092085D02*
X0383765Y0092085D01*
X0383103Y0090486D02*
X0317200Y0090486D01*
X0317200Y0088888D02*
X0382720Y0088888D01*
X0382291Y0087289D02*
X0317200Y0087289D01*
X0317200Y0085691D02*
X0382100Y0085691D01*
X0382100Y0084092D02*
X0317200Y0084092D01*
X0317200Y0082494D02*
X0382100Y0082494D01*
X0382100Y0080895D02*
X0317200Y0080895D01*
X0317200Y0079297D02*
X0382100Y0079297D01*
X0382100Y0077698D02*
X0317200Y0077698D01*
X0317200Y0076100D02*
X0382100Y0076100D01*
X0382100Y0074501D02*
X0317200Y0074501D01*
X0317200Y0072903D02*
X0382100Y0072903D01*
X0382100Y0071304D02*
X0317200Y0071304D01*
X0317200Y0069706D02*
X0382100Y0069706D01*
X0382100Y0068107D02*
X0317200Y0068107D01*
X0317200Y0066509D02*
X0382100Y0066509D01*
X0382100Y0064910D02*
X0317200Y0064910D01*
X0317200Y0063312D02*
X0382100Y0063312D01*
X0382100Y0061713D02*
X0317200Y0061713D01*
X0317200Y0060115D02*
X0382100Y0060115D01*
X0382100Y0058516D02*
X0317200Y0058516D01*
X0317200Y0056918D02*
X0382100Y0056918D01*
X0382100Y0055319D02*
X0317200Y0055319D01*
X0317200Y0053721D02*
X0382100Y0053721D01*
X0382100Y0052122D02*
X0317200Y0052122D01*
X0317200Y0050523D02*
X0381234Y0050523D01*
X0379179Y0048925D02*
X0317200Y0048925D01*
X0317200Y0047326D02*
X0377691Y0047326D01*
X0376768Y0045728D02*
X0317200Y0045728D01*
X0317200Y0044129D02*
X0376039Y0044129D01*
X0375611Y0042531D02*
X0331664Y0042531D01*
X0335439Y0040932D02*
X0375361Y0040932D01*
X0375361Y0039334D02*
X0337669Y0039334D01*
X0339268Y0037735D02*
X0375519Y0037735D01*
X0375947Y0036137D02*
X0340375Y0036137D01*
X0341297Y0034538D02*
X0376571Y0034538D01*
X0377493Y0032940D02*
X0341921Y0032940D01*
X0342349Y0031341D02*
X0378837Y0031341D01*
X0380641Y0029743D02*
X0342675Y0029743D01*
X0342675Y0028144D02*
X0383898Y0028144D01*
X0401702Y0028144D02*
X0589054Y0028144D01*
X0587634Y0029743D02*
X0404959Y0029743D01*
X0406763Y0031341D02*
X0586711Y0031341D01*
X0586121Y0032940D02*
X0408106Y0032940D01*
X0409029Y0034538D02*
X0585693Y0034538D01*
X0585650Y0036137D02*
X0409653Y0036137D01*
X0410081Y0037735D02*
X0585677Y0037735D01*
X0586100Y0039334D02*
X0410239Y0039334D01*
X0410239Y0040932D02*
X0586100Y0040932D01*
X0586100Y0042531D02*
X0409989Y0042531D01*
X0409561Y0044129D02*
X0586100Y0044129D01*
X0586100Y0045728D02*
X0408832Y0045728D01*
X0407909Y0047326D02*
X0586100Y0047326D01*
X0586100Y0048925D02*
X0406421Y0048925D01*
X0404366Y0050523D02*
X0586100Y0050523D01*
X0586100Y0052122D02*
X0403500Y0052122D01*
X0403500Y0053721D02*
X0586100Y0053721D01*
X0586100Y0055319D02*
X0403500Y0055319D01*
X0403500Y0056918D02*
X0586100Y0056918D01*
X0586100Y0058516D02*
X0403500Y0058516D01*
X0403500Y0060115D02*
X0586100Y0060115D01*
X0586100Y0061713D02*
X0403500Y0061713D01*
X0403500Y0063312D02*
X0586100Y0063312D01*
X0586100Y0064910D02*
X0403500Y0064910D01*
X0403500Y0066509D02*
X0586100Y0066509D01*
X0607500Y0063312D02*
X0729400Y0063312D01*
X0729400Y0064910D02*
X0622167Y0064910D01*
X0624274Y0066509D02*
X0729400Y0066509D01*
X0729400Y0068107D02*
X0625657Y0068107D01*
X0626580Y0069706D02*
X0729400Y0069706D01*
X0729400Y0071304D02*
X0627110Y0071304D01*
X0627500Y0072903D02*
X0729400Y0072903D01*
X0729400Y0074501D02*
X0627500Y0074501D01*
X0627500Y0076100D02*
X0729400Y0076100D01*
X0729400Y0077698D02*
X0627500Y0077698D01*
X0627500Y0079297D02*
X0729400Y0079297D01*
X0729400Y0080895D02*
X0627500Y0080895D01*
X0627500Y0082494D02*
X0729400Y0082494D01*
X0729400Y0084092D02*
X0627500Y0084092D01*
X0627500Y0085691D02*
X0729400Y0085691D01*
X0729400Y0087289D02*
X0627500Y0087289D01*
X0627500Y0088888D02*
X0729400Y0088888D01*
X0729400Y0090486D02*
X0627500Y0090486D01*
X0627363Y0092085D02*
X0729400Y0092085D01*
X0729400Y0093683D02*
X0626935Y0093683D01*
X0626582Y0095282D02*
X0729400Y0095282D01*
X0729400Y0096880D02*
X0625920Y0096880D01*
X0625230Y0098479D02*
X0729400Y0098479D01*
X0729400Y0100077D02*
X0623631Y0100077D01*
X0621423Y0101676D02*
X0729400Y0101676D01*
X0729400Y0103274D02*
X0610040Y0103274D01*
X0608441Y0101676D02*
X0612177Y0101676D01*
X0609969Y0100077D02*
X0606843Y0100077D01*
X0608370Y0098479D02*
X0605244Y0098479D01*
X0605920Y0096880D02*
X0607680Y0096880D01*
X0607018Y0095282D02*
X0606582Y0095282D01*
X0606800Y0094756D02*
X0606800Y0094188D01*
X0606800Y0094188D01*
X0606800Y0094756D01*
X0611638Y0104873D02*
X0729400Y0104873D01*
X0729400Y0106471D02*
X0613237Y0106471D01*
X0620004Y0108070D02*
X0729400Y0108070D01*
X0729400Y0109668D02*
X0623044Y0109668D01*
X0624642Y0111267D02*
X0729400Y0111267D01*
X0729400Y0112865D02*
X0625677Y0112865D01*
X0626339Y0114464D02*
X0729400Y0114464D01*
X0729400Y0116062D02*
X0626800Y0116062D01*
X0627206Y0117661D02*
X0729400Y0117661D01*
X0729400Y0119259D02*
X0627500Y0119259D01*
X0627500Y0120858D02*
X0729400Y0120858D01*
X0729400Y0122456D02*
X0627500Y0122456D01*
X0627500Y0124055D02*
X0729400Y0124055D01*
X0729400Y0125654D02*
X0627500Y0125654D01*
X0627500Y0127252D02*
X0729400Y0127252D01*
X0729400Y0128851D02*
X0627500Y0128851D01*
X0627500Y0130449D02*
X0729400Y0130449D01*
X0729400Y0132048D02*
X0628813Y0132048D01*
X0630411Y0133646D02*
X0729400Y0133646D01*
X0729400Y0135245D02*
X0632010Y0135245D01*
X0616132Y0149631D02*
X0607500Y0149631D01*
X0607500Y0148033D02*
X0614534Y0148033D01*
X0612935Y0146434D02*
X0607500Y0146434D01*
X0607500Y0144836D02*
X0611337Y0144836D01*
X0609738Y0143237D02*
X0607500Y0143237D01*
X0607500Y0141639D02*
X0608181Y0141639D01*
X0608238Y0141737D02*
X0607500Y0140459D01*
X0607500Y0155575D01*
X0606771Y0158297D01*
X0605362Y0160737D01*
X0563337Y0202761D01*
X0596995Y0202840D01*
X0603230Y0196605D01*
X0605670Y0195196D01*
X0608391Y0194467D01*
X0617209Y0194467D01*
X0619821Y0195167D01*
X0620389Y0195167D01*
X0624065Y0196689D01*
X0626878Y0199502D01*
X0627304Y0200531D01*
X0631230Y0196605D01*
X0633200Y0195467D01*
X0633200Y0193178D01*
X0634722Y0189502D01*
X0635100Y0189125D01*
X0635100Y0164758D01*
X0635800Y0162146D01*
X0635800Y0162025D01*
X0635886Y0161939D01*
X0637238Y0159597D01*
X0639230Y0157605D01*
X0640508Y0156867D01*
X0626391Y0156867D01*
X0623670Y0156137D01*
X0621230Y0154729D01*
X0619238Y0152737D01*
X0619238Y0152737D01*
X0608238Y0141737D01*
X0607500Y0151230D02*
X0617731Y0151230D01*
X0619329Y0152828D02*
X0607500Y0152828D01*
X0607500Y0154427D02*
X0620928Y0154427D01*
X0623476Y0156025D02*
X0607379Y0156025D01*
X0606951Y0157624D02*
X0639211Y0157624D01*
X0637612Y0159222D02*
X0606236Y0159222D01*
X0605278Y0160821D02*
X0636531Y0160821D01*
X0635727Y0162419D02*
X0603679Y0162419D01*
X0602081Y0164018D02*
X0635298Y0164018D01*
X0635100Y0165616D02*
X0600482Y0165616D01*
X0598884Y0167215D02*
X0635100Y0167215D01*
X0635100Y0168813D02*
X0597285Y0168813D01*
X0595687Y0170412D02*
X0635100Y0170412D01*
X0635100Y0172010D02*
X0594088Y0172010D01*
X0592490Y0173609D02*
X0635100Y0173609D01*
X0635100Y0175207D02*
X0590891Y0175207D01*
X0589293Y0176806D02*
X0635100Y0176806D01*
X0635100Y0178404D02*
X0587694Y0178404D01*
X0586096Y0180003D02*
X0635100Y0180003D01*
X0635100Y0181601D02*
X0584497Y0181601D01*
X0582899Y0183200D02*
X0635100Y0183200D01*
X0635100Y0184798D02*
X0581300Y0184798D01*
X0579702Y0186397D02*
X0635100Y0186397D01*
X0635100Y0187995D02*
X0578103Y0187995D01*
X0576505Y0189594D02*
X0634684Y0189594D01*
X0634022Y0191192D02*
X0574906Y0191192D01*
X0573308Y0192791D02*
X0633360Y0192791D01*
X0633200Y0194390D02*
X0571709Y0194390D01*
X0570111Y0195988D02*
X0604298Y0195988D01*
X0602248Y0197587D02*
X0568512Y0197587D01*
X0566914Y0199185D02*
X0600650Y0199185D01*
X0599051Y0200784D02*
X0565315Y0200784D01*
X0563717Y0202382D02*
X0597453Y0202382D01*
X0622372Y0195988D02*
X0632298Y0195988D01*
X0630248Y0197587D02*
X0624962Y0197587D01*
X0626561Y0199185D02*
X0628650Y0199185D01*
X0657408Y0200784D02*
X0729400Y0200784D01*
X0729400Y0202382D02*
X0658070Y0202382D01*
X0657559Y0199185D02*
X0729400Y0199185D01*
X0729400Y0197587D02*
X0658222Y0197587D01*
X0658400Y0195988D02*
X0729400Y0195988D01*
X0729400Y0194390D02*
X0658400Y0194390D01*
X0658240Y0192791D02*
X0729400Y0192791D01*
X0729400Y0191192D02*
X0657578Y0191192D01*
X0656916Y0189594D02*
X0729400Y0189594D01*
X0729400Y0187995D02*
X0656500Y0187995D01*
X0656500Y0186397D02*
X0729400Y0186397D01*
X0729400Y0184798D02*
X0656500Y0184798D01*
X0656500Y0183200D02*
X0729400Y0183200D01*
X0729400Y0181601D02*
X0656500Y0181601D01*
X0656500Y0180003D02*
X0729400Y0180003D01*
X0729400Y0178404D02*
X0656500Y0178404D01*
X0656500Y0176806D02*
X0729400Y0176806D01*
X0729400Y0175207D02*
X0656500Y0175207D01*
X0656500Y0173609D02*
X0729400Y0173609D01*
X0729400Y0172010D02*
X0656500Y0172010D01*
X0656500Y0170412D02*
X0729400Y0170412D01*
X0729400Y0168813D02*
X0656500Y0168813D01*
X0656500Y0167215D02*
X0729400Y0167215D01*
X0729400Y0165616D02*
X0656500Y0165616D01*
X0656302Y0164018D02*
X0729400Y0164018D01*
X0729400Y0162419D02*
X0655873Y0162419D01*
X0655069Y0160821D02*
X0729400Y0160821D01*
X0729400Y0159222D02*
X0653988Y0159222D01*
X0652389Y0157624D02*
X0729400Y0157624D01*
X0729400Y0156025D02*
X0650124Y0156025D01*
X0649942Y0156167D02*
X0649821Y0156167D01*
X0649821Y0156167D01*
X0649942Y0156167D01*
X0652672Y0154427D02*
X0729400Y0154427D01*
X0729400Y0152828D02*
X0654271Y0152828D01*
X0655232Y0151230D02*
X0729400Y0151230D01*
X0729400Y0149631D02*
X0655949Y0149631D01*
X0656377Y0148033D02*
X0729400Y0148033D01*
X0729400Y0146434D02*
X0656500Y0146434D01*
X0656500Y0144836D02*
X0729400Y0144836D01*
X0729400Y0143237D02*
X0656092Y0143237D01*
X0655541Y0141639D02*
X0729400Y0141639D01*
X0729400Y0140040D02*
X0654618Y0140040D01*
X0653207Y0138442D02*
X0729400Y0138442D01*
X0729400Y0136843D02*
X0651051Y0136843D01*
X0586100Y0143237D02*
X0403500Y0143237D01*
X0403500Y0141639D02*
X0455806Y0141639D01*
X0453541Y0140040D02*
X0403500Y0140040D01*
X0403500Y0138442D02*
X0452068Y0138442D01*
X0451145Y0136843D02*
X0403500Y0136843D01*
X0403500Y0144836D02*
X0586100Y0144836D01*
X0586100Y0146434D02*
X0403500Y0146434D01*
X0403500Y0148033D02*
X0586100Y0148033D01*
X0586100Y0149631D02*
X0403500Y0149631D01*
X0403500Y0151230D02*
X0584605Y0151230D01*
X0583006Y0152828D02*
X0403500Y0152828D01*
X0403500Y0154427D02*
X0581408Y0154427D01*
X0579809Y0156025D02*
X0403500Y0156025D01*
X0403500Y0157624D02*
X0578211Y0157624D01*
X0576612Y0159222D02*
X0403500Y0159222D01*
X0403500Y0160821D02*
X0575014Y0160821D01*
X0573415Y0162419D02*
X0403500Y0162419D01*
X0403500Y0164018D02*
X0571817Y0164018D01*
X0570218Y0165616D02*
X0403500Y0165616D01*
X0403500Y0167215D02*
X0568620Y0167215D01*
X0567021Y0168813D02*
X0403500Y0168813D01*
X0403500Y0170412D02*
X0565423Y0170412D01*
X0563824Y0172010D02*
X0403500Y0172010D01*
X0405621Y0173609D02*
X0562226Y0173609D01*
X0560627Y0175207D02*
X0407220Y0175207D01*
X0408370Y0176806D02*
X0559029Y0176806D01*
X0557430Y0178404D02*
X0409293Y0178404D01*
X0409775Y0180003D02*
X0555832Y0180003D01*
X0554233Y0181601D02*
X0410203Y0181601D01*
X0410239Y0183200D02*
X0552635Y0183200D01*
X0551036Y0184798D02*
X0410239Y0184798D01*
X0409867Y0186397D02*
X0549438Y0186397D01*
X0547839Y0187995D02*
X0409438Y0187995D01*
X0408568Y0189594D02*
X0459179Y0189594D01*
X0456032Y0191192D02*
X0407563Y0191192D01*
X0405964Y0192791D02*
X0454434Y0192791D01*
X0453355Y0194390D02*
X0403575Y0194390D01*
X0400996Y0202382D02*
X0424842Y0202382D01*
X0426441Y0200784D02*
X0317200Y0200784D01*
X0317200Y0199185D02*
X0430166Y0199185D01*
X0447890Y0199185D02*
X0452200Y0199185D01*
X0452200Y0197587D02*
X0317200Y0197587D01*
X0317200Y0195988D02*
X0452693Y0195988D01*
X0452200Y0200784D02*
X0450549Y0200784D01*
X0452147Y0202382D02*
X0452708Y0202382D01*
X0505620Y0189594D02*
X0515980Y0189594D01*
X0513642Y0191192D02*
X0507958Y0191192D01*
X0509474Y0192791D02*
X0512126Y0192791D01*
X0511203Y0194390D02*
X0510397Y0194390D01*
X0510800Y0195025D02*
X0510800Y0195146D01*
X0510800Y0195146D01*
X0510800Y0195025D01*
X0450547Y0135245D02*
X0429530Y0135245D01*
X0432453Y0133646D02*
X0450119Y0133646D01*
X0450100Y0132048D02*
X0434051Y0132048D01*
X0435650Y0130449D02*
X0450100Y0130449D01*
X0450100Y0128851D02*
X0437592Y0128851D01*
X0439191Y0127252D02*
X0450100Y0127252D01*
X0450100Y0125654D02*
X0440268Y0125654D01*
X0441087Y0124055D02*
X0450100Y0124055D01*
X0450084Y0122456D02*
X0441516Y0122456D01*
X0441743Y0120858D02*
X0449857Y0120858D01*
X0449857Y0119259D02*
X0441743Y0119259D01*
X0441458Y0117661D02*
X0450142Y0117661D01*
X0450570Y0116062D02*
X0441030Y0116062D01*
X0440503Y0114464D02*
X0440144Y0114464D01*
X0449449Y0093683D02*
X0450413Y0093683D01*
X0449985Y0092085D02*
X0447850Y0092085D01*
X0446252Y0090486D02*
X0449857Y0090486D01*
X0449857Y0088888D02*
X0444653Y0088888D01*
X0443055Y0087289D02*
X0450100Y0087289D01*
X0450100Y0085691D02*
X0441456Y0085691D01*
X0439929Y0084092D02*
X0450100Y0084092D01*
X0450100Y0082494D02*
X0438603Y0082494D01*
X0436661Y0080895D02*
X0450100Y0080895D01*
X0450100Y0079297D02*
X0435062Y0079297D01*
X0433464Y0077698D02*
X0450100Y0077698D01*
X0450276Y0076100D02*
X0431495Y0076100D01*
X0427337Y0074501D02*
X0450705Y0074501D01*
X0451484Y0072903D02*
X0403500Y0072903D01*
X0403500Y0071304D02*
X0452530Y0071304D01*
X0454129Y0069706D02*
X0403500Y0069706D01*
X0403500Y0068107D02*
X0457001Y0068107D01*
X0471743Y0088867D02*
X0471743Y0091607D01*
X0470998Y0094391D01*
X0470954Y0094467D01*
X0490100Y0094467D01*
X0490100Y0092515D01*
X0489857Y0091607D01*
X0489857Y0088867D01*
X0471743Y0088867D01*
X0471743Y0088888D02*
X0489857Y0088888D01*
X0489857Y0090486D02*
X0471743Y0090486D01*
X0471615Y0092085D02*
X0489985Y0092085D01*
X0490100Y0093683D02*
X0471187Y0093683D01*
X0470954Y0115867D02*
X0470998Y0115943D01*
X0471743Y0118726D01*
X0471743Y0121467D01*
X0489857Y0121467D01*
X0489857Y0118726D01*
X0490100Y0117818D01*
X0490100Y0115867D01*
X0470954Y0115867D01*
X0471030Y0116062D02*
X0490100Y0116062D01*
X0490100Y0117661D02*
X0471458Y0117661D01*
X0471743Y0119259D02*
X0489857Y0119259D01*
X0489857Y0120858D02*
X0471743Y0120858D01*
X0591164Y0026546D02*
X0342675Y0026546D01*
X0342337Y0024947D02*
X0697531Y0024947D01*
X0697939Y0023425D02*
X0696925Y0027208D01*
X0696925Y0031125D01*
X0697939Y0034908D01*
X0699897Y0038300D01*
X0702667Y0041070D01*
X0706058Y0043028D01*
X0709842Y0044042D01*
X0713758Y0044042D01*
X0717542Y0043028D01*
X0720933Y0041070D01*
X0723703Y0038300D01*
X0725661Y0034908D01*
X0726675Y0031125D01*
X0726675Y0027208D01*
X0725661Y0023425D01*
X0723703Y0020033D01*
X0720933Y0017264D01*
X0717542Y0015305D01*
X0713758Y0014292D01*
X0709842Y0014292D01*
X0706058Y0015305D01*
X0702667Y0017264D01*
X0699897Y0020033D01*
X0697939Y0023425D01*
X0697983Y0023349D02*
X0341909Y0023349D01*
X0341272Y0021750D02*
X0698906Y0021750D01*
X0699829Y0020152D02*
X0340349Y0020152D01*
X0339223Y0018553D02*
X0701377Y0018553D01*
X0703202Y0016955D02*
X0337625Y0016955D01*
X0335362Y0015356D02*
X0705970Y0015356D01*
X0717630Y0015356D02*
X0729400Y0015356D01*
X0729400Y0013758D02*
X0331498Y0013758D01*
X0324102Y0013758D02*
X0317200Y0013758D01*
X0317200Y0015356D02*
X0320238Y0015356D01*
X0317975Y0016955D02*
X0317200Y0016955D01*
X0317200Y0012159D02*
X0729400Y0012159D01*
X0729400Y0016955D02*
X0720398Y0016955D01*
X0722223Y0018553D02*
X0729400Y0018553D01*
X0729400Y0020152D02*
X0723771Y0020152D01*
X0724694Y0021750D02*
X0729400Y0021750D01*
X0729400Y0023349D02*
X0725617Y0023349D01*
X0726069Y0024947D02*
X0729400Y0024947D01*
X0729400Y0026546D02*
X0726497Y0026546D01*
X0726675Y0028144D02*
X0729400Y0028144D01*
X0729400Y0029743D02*
X0726675Y0029743D01*
X0726617Y0031341D02*
X0729400Y0031341D01*
X0729400Y0032940D02*
X0726189Y0032940D01*
X0725760Y0034538D02*
X0729400Y0034538D01*
X0729400Y0036137D02*
X0724952Y0036137D01*
X0724029Y0037735D02*
X0729400Y0037735D01*
X0729400Y0039334D02*
X0722669Y0039334D01*
X0721071Y0040932D02*
X0729400Y0040932D01*
X0729400Y0042531D02*
X0718402Y0042531D01*
X0729400Y0044129D02*
X0607500Y0044129D01*
X0607500Y0042531D02*
X0705198Y0042531D01*
X0702529Y0040932D02*
X0607500Y0040932D01*
X0607500Y0039334D02*
X0700931Y0039334D01*
X0699571Y0037735D02*
X0607923Y0037735D01*
X0607950Y0036137D02*
X0698648Y0036137D01*
X0697840Y0034538D02*
X0607907Y0034538D01*
X0607479Y0032940D02*
X0697411Y0032940D01*
X0696983Y0031341D02*
X0606889Y0031341D01*
X0605966Y0029743D02*
X0696925Y0029743D01*
X0696925Y0028144D02*
X0604546Y0028144D01*
X0602436Y0026546D02*
X0697103Y0026546D01*
X0729400Y0045728D02*
X0607500Y0045728D01*
X0607500Y0047326D02*
X0729400Y0047326D01*
X0729400Y0048925D02*
X0607500Y0048925D01*
X0607500Y0050523D02*
X0729400Y0050523D01*
X0729400Y0052122D02*
X0607500Y0052122D01*
X0607500Y0053721D02*
X0729400Y0053721D01*
X0729400Y0055319D02*
X0607500Y0055319D01*
X0607500Y0056918D02*
X0729400Y0056918D01*
X0729400Y0058516D02*
X0607500Y0058516D01*
X0607500Y0060115D02*
X0729400Y0060115D01*
X0729400Y0061713D02*
X0607500Y0061713D01*
X0323936Y0042531D02*
X0317200Y0042531D01*
X0317200Y0040932D02*
X0320161Y0040932D01*
X0317931Y0039334D02*
X0317200Y0039334D01*
X0280751Y0021750D02*
X0272749Y0021750D01*
X0274549Y0023349D02*
X0278951Y0023349D01*
X0277778Y0024947D02*
X0275722Y0024947D01*
X0276566Y0026546D02*
X0276934Y0026546D01*
X0139254Y0149631D02*
X0040033Y0149631D01*
X0040603Y0151230D02*
X0140852Y0151230D01*
X0142451Y0152828D02*
X0041000Y0152828D01*
X0041000Y0154427D02*
X0144049Y0154427D01*
X0145648Y0156025D02*
X0040839Y0156025D01*
X0040410Y0157624D02*
X0147246Y0157624D01*
X0147600Y0159222D02*
X0039617Y0159222D01*
X0038512Y0160821D02*
X0147600Y0160821D01*
X0147600Y0162419D02*
X0036833Y0162419D01*
X0033358Y0164018D02*
X0147600Y0164018D01*
X0137655Y0148033D02*
X0039110Y0148033D01*
X0037634Y0146434D02*
X0136057Y0146434D01*
X0134458Y0144836D02*
X0035311Y0144836D01*
X0036800Y0226360D02*
X0147600Y0226360D01*
X0147600Y0227958D02*
X0036800Y0227958D01*
X0036800Y0229557D02*
X0147600Y0229557D01*
X0147600Y0231155D02*
X0036800Y0231155D01*
X0036800Y0232754D02*
X0147600Y0232754D01*
X0147600Y0234352D02*
X0036800Y0234352D01*
X0036800Y0235951D02*
X0147600Y0235951D01*
X0147600Y0237549D02*
X0036800Y0237549D01*
X0036800Y0239148D02*
X0147600Y0239148D01*
X0147600Y0240746D02*
X0036800Y0240746D01*
X0036800Y0242345D02*
X0147600Y0242345D01*
X0147600Y0243943D02*
X0036800Y0243943D01*
X0036800Y0245542D02*
X0147600Y0245542D01*
X0147600Y0247140D02*
X0036800Y0247140D01*
X0036800Y0248739D02*
X0147600Y0248739D01*
X0147600Y0250337D02*
X0036800Y0250337D01*
X0036800Y0251936D02*
X0147600Y0251936D01*
X0147600Y0253534D02*
X0036800Y0253534D01*
X0036800Y0255133D02*
X0147600Y0255133D01*
X0147600Y0256731D02*
X0036800Y0256731D01*
X0036800Y0258330D02*
X0147600Y0258330D01*
X0147600Y0259928D02*
X0036800Y0259928D01*
X0036800Y0261527D02*
X0147600Y0261527D01*
X0147600Y0263125D02*
X0036800Y0263125D01*
X0036800Y0264724D02*
X0147600Y0264724D01*
X0147735Y0266323D02*
X0036800Y0266323D01*
X0036800Y0267921D02*
X0147826Y0267921D01*
X0149142Y0269520D02*
X0036800Y0269520D01*
X0036800Y0271118D02*
X0150741Y0271118D01*
X0152622Y0272717D02*
X0036800Y0272717D01*
X0036800Y0274315D02*
X0291800Y0274315D01*
X0291800Y0275914D02*
X0036800Y0275914D01*
X0036800Y0277512D02*
X0291800Y0277512D01*
X0291800Y0279111D02*
X0036800Y0279111D01*
X0036800Y0280709D02*
X0291800Y0280709D01*
X0291800Y0282308D02*
X0036800Y0282308D01*
X0036800Y0283906D02*
X0291800Y0283906D01*
X0291800Y0285505D02*
X0255369Y0285505D01*
X0253664Y0284798D02*
X0257107Y0286224D01*
X0259742Y0288860D01*
X0261168Y0292303D01*
X0261168Y0296030D01*
X0259869Y0299167D01*
X0261168Y0302303D01*
X0261168Y0306030D01*
X0259742Y0309473D01*
X0257107Y0312109D01*
X0253664Y0313535D01*
X0249936Y0313535D01*
X0246800Y0312236D01*
X0243664Y0313535D01*
X0239936Y0313535D01*
X0236800Y0312236D01*
X0233664Y0313535D01*
X0229936Y0313535D01*
X0226800Y0312236D01*
X0223664Y0313535D01*
X0219936Y0313535D01*
X0216493Y0312109D01*
X0213858Y0309473D01*
X0212431Y0306030D01*
X0212431Y0303535D01*
X0211168Y0303535D01*
X0211168Y0306030D01*
X0209742Y0309473D01*
X0207107Y0312109D01*
X0203664Y0313535D01*
X0199936Y0313535D01*
X0196800Y0312236D01*
X0193664Y0313535D01*
X0189936Y0313535D01*
X0186800Y0312236D01*
X0183664Y0313535D01*
X0179936Y0313535D01*
X0176800Y0312236D01*
X0173664Y0313535D01*
X0169936Y0313535D01*
X0166800Y0312236D01*
X0163664Y0313535D01*
X0159936Y0313535D01*
X0156800Y0312236D01*
X0153664Y0313535D01*
X0149936Y0313535D01*
X0146800Y0312236D01*
X0143664Y0313535D01*
X0139936Y0313535D01*
X0136493Y0312109D01*
X0133858Y0309473D01*
X0132431Y0306030D01*
X0132431Y0303535D01*
X0131168Y0303535D01*
X0131168Y0306030D01*
X0129742Y0309473D01*
X0127107Y0312109D01*
X0123664Y0313535D01*
X0119936Y0313535D01*
X0116800Y0312236D01*
X0113664Y0313535D01*
X0109936Y0313535D01*
X0106800Y0312236D01*
X0103664Y0313535D01*
X0099936Y0313535D01*
X0096800Y0312236D01*
X0093664Y0313535D01*
X0089936Y0313535D01*
X0086800Y0312236D01*
X0083664Y0313535D01*
X0079936Y0313535D01*
X0076800Y0312236D01*
X0073664Y0313535D01*
X0069936Y0313535D01*
X0066493Y0312109D01*
X0063858Y0309473D01*
X0062431Y0306030D01*
X0062431Y0303535D01*
X0059936Y0303535D01*
X0056493Y0302109D01*
X0053858Y0299473D01*
X0052431Y0296030D01*
X0052431Y0292303D01*
X0053858Y0288860D01*
X0056493Y0286224D01*
X0059936Y0284798D01*
X0063664Y0284798D01*
X0066800Y0286097D01*
X0069936Y0284798D01*
X0073664Y0284798D01*
X0076800Y0286097D01*
X0079936Y0284798D01*
X0083664Y0284798D01*
X0087107Y0286224D01*
X0089742Y0288860D01*
X0091168Y0292303D01*
X0091168Y0294798D01*
X0092431Y0294798D01*
X0092431Y0292303D01*
X0093858Y0288860D01*
X0096493Y0286224D01*
X0099936Y0284798D01*
X0103664Y0284798D01*
X0107107Y0286224D01*
X0109742Y0288860D01*
X0111168Y0292303D01*
X0111168Y0294798D01*
X0112431Y0294798D01*
X0112431Y0292303D01*
X0113858Y0288860D01*
X0116493Y0286224D01*
X0119936Y0284798D01*
X0123664Y0284798D01*
X0126800Y0286097D01*
X0129936Y0284798D01*
X0133664Y0284798D01*
X0136800Y0286097D01*
X0139936Y0284798D01*
X0143664Y0284798D01*
X0146800Y0286097D01*
X0149936Y0284798D01*
X0153664Y0284798D01*
X0157107Y0286224D01*
X0159742Y0288860D01*
X0161168Y0292303D01*
X0161168Y0294798D01*
X0162431Y0294798D01*
X0162431Y0292303D01*
X0163858Y0288860D01*
X0166493Y0286224D01*
X0169936Y0284798D01*
X0173664Y0284798D01*
X0176800Y0286097D01*
X0179936Y0284798D01*
X0183664Y0284798D01*
X0187107Y0286224D01*
X0189742Y0288860D01*
X0191168Y0292303D01*
X0191168Y0294798D01*
X0192431Y0294798D01*
X0192431Y0292303D01*
X0193858Y0288860D01*
X0196493Y0286224D01*
X0199936Y0284798D01*
X0203664Y0284798D01*
X0206800Y0286097D01*
X0209936Y0284798D01*
X0213664Y0284798D01*
X0216800Y0286097D01*
X0219936Y0284798D01*
X0223664Y0284798D01*
X0227107Y0286224D01*
X0229742Y0288860D01*
X0231168Y0292303D01*
X0231168Y0294798D01*
X0232431Y0294798D01*
X0232431Y0292303D01*
X0233858Y0288860D01*
X0236493Y0286224D01*
X0239936Y0284798D01*
X0243664Y0284798D01*
X0246800Y0286097D01*
X0249936Y0284798D01*
X0253664Y0284798D01*
X0257986Y0287103D02*
X0291800Y0287103D01*
X0291800Y0288702D02*
X0259584Y0288702D01*
X0260339Y0290300D02*
X0291800Y0290300D01*
X0291800Y0291899D02*
X0261001Y0291899D01*
X0261168Y0293497D02*
X0291800Y0293497D01*
X0291800Y0295096D02*
X0261168Y0295096D01*
X0260893Y0296694D02*
X0291800Y0296694D01*
X0291800Y0298293D02*
X0260231Y0298293D01*
X0260169Y0299891D02*
X0291800Y0299891D01*
X0291800Y0301490D02*
X0260832Y0301490D01*
X0261168Y0303088D02*
X0291800Y0303088D01*
X0291800Y0304687D02*
X0261168Y0304687D01*
X0261063Y0306285D02*
X0291800Y0306285D01*
X0291800Y0307884D02*
X0260401Y0307884D01*
X0259733Y0309482D02*
X0291800Y0309482D01*
X0291800Y0311081D02*
X0258135Y0311081D01*
X0255730Y0312679D02*
X0291800Y0312679D01*
X0291800Y0314278D02*
X0036800Y0314278D01*
X0036800Y0315876D02*
X0291800Y0315876D01*
X0291800Y0317475D02*
X0036800Y0317475D01*
X0036800Y0319073D02*
X0291800Y0319073D01*
X0291800Y0320672D02*
X0036800Y0320672D01*
X0036800Y0322270D02*
X0291800Y0322270D01*
X0291800Y0323869D02*
X0036800Y0323869D01*
X0036800Y0325467D02*
X0167771Y0325467D01*
X0168072Y0325167D02*
X0169487Y0325167D01*
X0169970Y0324967D01*
X0173630Y0324967D01*
X0174113Y0325167D01*
X0175528Y0325167D01*
X0176529Y0326167D01*
X0177011Y0326367D01*
X0179599Y0328955D01*
X0179799Y0329438D01*
X0180800Y0330439D01*
X0180800Y0331854D01*
X0181000Y0332337D01*
X0181000Y0374967D01*
X0182600Y0374967D01*
X0182600Y0357337D01*
X0182800Y0356854D01*
X0182800Y0355439D01*
X0183801Y0354438D01*
X0184001Y0353955D01*
X0186589Y0351367D01*
X0187071Y0351167D01*
X0188072Y0350167D01*
X0189487Y0350167D01*
X0189970Y0349967D01*
X0193630Y0349967D01*
X0194113Y0350167D01*
X0195528Y0350167D01*
X0196529Y0351167D01*
X0197011Y0351367D01*
X0199599Y0353955D01*
X0199799Y0354438D01*
X0200800Y0355439D01*
X0200800Y0356854D01*
X0201000Y0357337D01*
X0201000Y0374967D01*
X0202600Y0374967D01*
X0202600Y0357337D01*
X0202800Y0356854D01*
X0202800Y0355439D01*
X0203801Y0354438D01*
X0204001Y0353955D01*
X0206589Y0351367D01*
X0207071Y0351167D01*
X0208072Y0350167D01*
X0209487Y0350167D01*
X0209970Y0349967D01*
X0213630Y0349967D01*
X0214113Y0350167D01*
X0215528Y0350167D01*
X0216529Y0351167D01*
X0217011Y0351367D01*
X0219599Y0353955D01*
X0219799Y0354438D01*
X0220800Y0355439D01*
X0220800Y0356854D01*
X0221000Y0357337D01*
X0221000Y0374967D01*
X0222600Y0374967D01*
X0222600Y0332337D01*
X0222800Y0331854D01*
X0222800Y0330439D01*
X0223801Y0329438D01*
X0224001Y0328955D01*
X0226589Y0326367D01*
X0227071Y0326167D01*
X0228072Y0325167D01*
X0229487Y0325167D01*
X0229970Y0324967D01*
X0233630Y0324967D01*
X0234113Y0325167D01*
X0235528Y0325167D01*
X0236529Y0326167D01*
X0237011Y0326367D01*
X0239599Y0328955D01*
X0239799Y0329438D01*
X0240800Y0330439D01*
X0240800Y0331854D01*
X0241000Y0332337D01*
X0241000Y0390997D01*
X0239599Y0394378D01*
X0237011Y0396966D01*
X0233630Y0398367D01*
X0229970Y0398367D01*
X0226589Y0396966D01*
X0226559Y0396937D01*
X0223590Y0398167D01*
X0220010Y0398167D01*
X0217041Y0396937D01*
X0217011Y0396966D01*
X0213630Y0398367D01*
X0209970Y0398367D01*
X0206589Y0396966D01*
X0206559Y0396937D01*
X0203590Y0398167D01*
X0200010Y0398167D01*
X0197041Y0396937D01*
X0197011Y0396966D01*
X0193630Y0398367D01*
X0189970Y0398367D01*
X0186589Y0396966D01*
X0186559Y0396937D01*
X0183590Y0398167D01*
X0180010Y0398167D01*
X0177041Y0396937D01*
X0177011Y0396966D01*
X0173630Y0398367D01*
X0169970Y0398367D01*
X0166589Y0396966D01*
X0166559Y0396937D01*
X0163590Y0398167D01*
X0160010Y0398167D01*
X0156702Y0396796D01*
X0154170Y0394265D01*
X0152800Y0390957D01*
X0152800Y0382176D01*
X0154170Y0378869D01*
X0156702Y0376337D01*
X0160010Y0374967D01*
X0162600Y0374967D01*
X0162600Y0332337D01*
X0162800Y0331854D01*
X0162800Y0330439D01*
X0163801Y0329438D01*
X0164001Y0328955D01*
X0166589Y0326367D01*
X0167071Y0326167D01*
X0168072Y0325167D01*
X0165890Y0327066D02*
X0036800Y0327066D01*
X0036800Y0328664D02*
X0164291Y0328664D01*
X0162976Y0330263D02*
X0036800Y0330263D01*
X0036800Y0331861D02*
X0162797Y0331861D01*
X0162600Y0333460D02*
X0036800Y0333460D01*
X0036800Y0335059D02*
X0162600Y0335059D01*
X0162600Y0336657D02*
X0036800Y0336657D01*
X0036800Y0338256D02*
X0162600Y0338256D01*
X0162600Y0339854D02*
X0036800Y0339854D01*
X0036800Y0341453D02*
X0162600Y0341453D01*
X0162600Y0343051D02*
X0036800Y0343051D01*
X0036800Y0344650D02*
X0162600Y0344650D01*
X0162600Y0346248D02*
X0036800Y0346248D01*
X0036800Y0347847D02*
X0162600Y0347847D01*
X0162600Y0349445D02*
X0036800Y0349445D01*
X0036800Y0351044D02*
X0162600Y0351044D01*
X0162600Y0352642D02*
X0036800Y0352642D01*
X0036800Y0354241D02*
X0162600Y0354241D01*
X0162600Y0355839D02*
X0036800Y0355839D01*
X0036800Y0357438D02*
X0162600Y0357438D01*
X0162600Y0359036D02*
X0036800Y0359036D01*
X0036800Y0360635D02*
X0162600Y0360635D01*
X0162600Y0362233D02*
X0036800Y0362233D01*
X0036800Y0363832D02*
X0162600Y0363832D01*
X0162600Y0365430D02*
X0036800Y0365430D01*
X0036800Y0367029D02*
X0162600Y0367029D01*
X0162600Y0368627D02*
X0036800Y0368627D01*
X0036800Y0370226D02*
X0162600Y0370226D01*
X0162600Y0371824D02*
X0036800Y0371824D01*
X0036800Y0373423D02*
X0162600Y0373423D01*
X0159878Y0375021D02*
X0036800Y0375021D01*
X0036800Y0376620D02*
X0156419Y0376620D01*
X0154820Y0378218D02*
X0036800Y0378218D01*
X0036800Y0379817D02*
X0153777Y0379817D01*
X0153115Y0381415D02*
X0036800Y0381415D01*
X0036800Y0383014D02*
X0152800Y0383014D01*
X0152800Y0384612D02*
X0036800Y0384612D01*
X0036800Y0386211D02*
X0152800Y0386211D01*
X0152800Y0387809D02*
X0036800Y0387809D01*
X0036800Y0389408D02*
X0152800Y0389408D01*
X0152821Y0391006D02*
X0036800Y0391006D01*
X0036800Y0392605D02*
X0153483Y0392605D01*
X0154145Y0394203D02*
X0036800Y0394203D01*
X0036800Y0395802D02*
X0155707Y0395802D01*
X0158160Y0397400D02*
X0036800Y0397400D01*
X0036800Y0398999D02*
X0291800Y0398999D01*
X0291800Y0400597D02*
X0036800Y0400597D01*
X0036800Y0402196D02*
X0291800Y0402196D01*
X0291800Y0403794D02*
X0036800Y0403794D01*
X0036800Y0312679D02*
X0067870Y0312679D01*
X0065465Y0311081D02*
X0036800Y0311081D01*
X0036800Y0309482D02*
X0063867Y0309482D01*
X0063199Y0307884D02*
X0036800Y0307884D01*
X0036800Y0306285D02*
X0062537Y0306285D01*
X0062431Y0304687D02*
X0036800Y0304687D01*
X0036800Y0303088D02*
X0058858Y0303088D01*
X0055874Y0301490D02*
X0036800Y0301490D01*
X0036800Y0299891D02*
X0054276Y0299891D01*
X0053369Y0298293D02*
X0036800Y0298293D01*
X0036800Y0296694D02*
X0052707Y0296694D01*
X0052431Y0295096D02*
X0036800Y0295096D01*
X0036800Y0293497D02*
X0052431Y0293497D01*
X0052599Y0291899D02*
X0036800Y0291899D01*
X0036800Y0290300D02*
X0053261Y0290300D01*
X0054016Y0288702D02*
X0036800Y0288702D01*
X0036800Y0287103D02*
X0055614Y0287103D01*
X0058231Y0285505D02*
X0036800Y0285505D01*
X0065369Y0285505D02*
X0068231Y0285505D01*
X0075369Y0285505D02*
X0078231Y0285505D01*
X0085369Y0285505D02*
X0098231Y0285505D01*
X0095614Y0287103D02*
X0087986Y0287103D01*
X0089584Y0288702D02*
X0094016Y0288702D01*
X0093261Y0290300D02*
X0090339Y0290300D01*
X0091001Y0291899D02*
X0092599Y0291899D01*
X0092431Y0293497D02*
X0091168Y0293497D01*
X0105369Y0285505D02*
X0118231Y0285505D01*
X0115614Y0287103D02*
X0107986Y0287103D01*
X0109584Y0288702D02*
X0114016Y0288702D01*
X0113261Y0290300D02*
X0110339Y0290300D01*
X0111001Y0291899D02*
X0112599Y0291899D01*
X0112431Y0293497D02*
X0111168Y0293497D01*
X0125369Y0285505D02*
X0128231Y0285505D01*
X0135369Y0285505D02*
X0138231Y0285505D01*
X0145369Y0285505D02*
X0148231Y0285505D01*
X0155369Y0285505D02*
X0168231Y0285505D01*
X0165614Y0287103D02*
X0157986Y0287103D01*
X0159584Y0288702D02*
X0164016Y0288702D01*
X0163261Y0290300D02*
X0160339Y0290300D01*
X0161001Y0291899D02*
X0162599Y0291899D01*
X0162431Y0293497D02*
X0161168Y0293497D01*
X0175369Y0285505D02*
X0178231Y0285505D01*
X0185369Y0285505D02*
X0198231Y0285505D01*
X0195614Y0287103D02*
X0187986Y0287103D01*
X0189584Y0288702D02*
X0194016Y0288702D01*
X0193261Y0290300D02*
X0190339Y0290300D01*
X0191001Y0291899D02*
X0192599Y0291899D01*
X0192431Y0293497D02*
X0191168Y0293497D01*
X0205369Y0285505D02*
X0208231Y0285505D01*
X0215369Y0285505D02*
X0218231Y0285505D01*
X0225369Y0285505D02*
X0238231Y0285505D01*
X0235614Y0287103D02*
X0227986Y0287103D01*
X0229584Y0288702D02*
X0234016Y0288702D01*
X0233261Y0290300D02*
X0230339Y0290300D01*
X0231001Y0291899D02*
X0232599Y0291899D01*
X0232431Y0293497D02*
X0231168Y0293497D01*
X0245369Y0285505D02*
X0248231Y0285505D01*
X0215465Y0311081D02*
X0208135Y0311081D01*
X0209733Y0309482D02*
X0213867Y0309482D01*
X0213199Y0307884D02*
X0210401Y0307884D01*
X0211063Y0306285D02*
X0212537Y0306285D01*
X0212431Y0304687D02*
X0211168Y0304687D01*
X0205730Y0312679D02*
X0217870Y0312679D01*
X0225730Y0312679D02*
X0227870Y0312679D01*
X0235730Y0312679D02*
X0237870Y0312679D01*
X0245730Y0312679D02*
X0247870Y0312679D01*
X0235829Y0325467D02*
X0291800Y0325467D01*
X0291800Y0327066D02*
X0237710Y0327066D01*
X0239309Y0328664D02*
X0291800Y0328664D01*
X0291800Y0330263D02*
X0240624Y0330263D01*
X0240803Y0331861D02*
X0291800Y0331861D01*
X0291800Y0333460D02*
X0241000Y0333460D01*
X0241000Y0335059D02*
X0291800Y0335059D01*
X0291800Y0336657D02*
X0241000Y0336657D01*
X0241000Y0338256D02*
X0291800Y0338256D01*
X0291800Y0339854D02*
X0241000Y0339854D01*
X0241000Y0341453D02*
X0291800Y0341453D01*
X0291800Y0343051D02*
X0241000Y0343051D01*
X0241000Y0344650D02*
X0291800Y0344650D01*
X0291800Y0346248D02*
X0241000Y0346248D01*
X0241000Y0347847D02*
X0291800Y0347847D01*
X0291800Y0349445D02*
X0241000Y0349445D01*
X0241000Y0351044D02*
X0291800Y0351044D01*
X0291800Y0352642D02*
X0241000Y0352642D01*
X0241000Y0354241D02*
X0291800Y0354241D01*
X0291800Y0355839D02*
X0241000Y0355839D01*
X0241000Y0357438D02*
X0291800Y0357438D01*
X0291800Y0359036D02*
X0241000Y0359036D01*
X0241000Y0360635D02*
X0291800Y0360635D01*
X0291800Y0362233D02*
X0241000Y0362233D01*
X0241000Y0363832D02*
X0291800Y0363832D01*
X0291800Y0365430D02*
X0241000Y0365430D01*
X0241000Y0367029D02*
X0291800Y0367029D01*
X0291800Y0368627D02*
X0241000Y0368627D01*
X0241000Y0370226D02*
X0291800Y0370226D01*
X0291800Y0371824D02*
X0241000Y0371824D01*
X0241000Y0373423D02*
X0291800Y0373423D01*
X0291800Y0375021D02*
X0241000Y0375021D01*
X0241000Y0376620D02*
X0291800Y0376620D01*
X0291800Y0378218D02*
X0241000Y0378218D01*
X0241000Y0379817D02*
X0291800Y0379817D01*
X0291800Y0381415D02*
X0241000Y0381415D01*
X0241000Y0383014D02*
X0291800Y0383014D01*
X0291800Y0384612D02*
X0241000Y0384612D01*
X0241000Y0386211D02*
X0291800Y0386211D01*
X0291800Y0387809D02*
X0241000Y0387809D01*
X0241000Y0389408D02*
X0291800Y0389408D01*
X0291800Y0391006D02*
X0240996Y0391006D01*
X0240334Y0392605D02*
X0291800Y0392605D01*
X0291800Y0394203D02*
X0239672Y0394203D01*
X0238175Y0395802D02*
X0291800Y0395802D01*
X0291800Y0397400D02*
X0235963Y0397400D01*
X0227637Y0397400D02*
X0225440Y0397400D01*
X0218160Y0397400D02*
X0215963Y0397400D01*
X0207637Y0397400D02*
X0205440Y0397400D01*
X0198160Y0397400D02*
X0195963Y0397400D01*
X0187637Y0397400D02*
X0185440Y0397400D01*
X0178160Y0397400D02*
X0175963Y0397400D01*
X0167637Y0397400D02*
X0165440Y0397400D01*
X0181000Y0373423D02*
X0182600Y0373423D01*
X0182600Y0371824D02*
X0181000Y0371824D01*
X0181000Y0370226D02*
X0182600Y0370226D01*
X0182600Y0368627D02*
X0181000Y0368627D01*
X0181000Y0367029D02*
X0182600Y0367029D01*
X0182600Y0365430D02*
X0181000Y0365430D01*
X0181000Y0363832D02*
X0182600Y0363832D01*
X0182600Y0362233D02*
X0181000Y0362233D01*
X0181000Y0360635D02*
X0182600Y0360635D01*
X0182600Y0359036D02*
X0181000Y0359036D01*
X0181000Y0357438D02*
X0182600Y0357438D01*
X0182800Y0355839D02*
X0181000Y0355839D01*
X0181000Y0354241D02*
X0183882Y0354241D01*
X0185314Y0352642D02*
X0181000Y0352642D01*
X0181000Y0351044D02*
X0187195Y0351044D01*
X0181000Y0349445D02*
X0222600Y0349445D01*
X0222600Y0347847D02*
X0181000Y0347847D01*
X0181000Y0346248D02*
X0222600Y0346248D01*
X0222600Y0344650D02*
X0181000Y0344650D01*
X0181000Y0343051D02*
X0222600Y0343051D01*
X0222600Y0341453D02*
X0181000Y0341453D01*
X0181000Y0339854D02*
X0222600Y0339854D01*
X0222600Y0338256D02*
X0181000Y0338256D01*
X0181000Y0336657D02*
X0222600Y0336657D01*
X0222600Y0335059D02*
X0181000Y0335059D01*
X0181000Y0333460D02*
X0222600Y0333460D01*
X0222797Y0331861D02*
X0180803Y0331861D01*
X0180624Y0330263D02*
X0222976Y0330263D01*
X0224291Y0328664D02*
X0179309Y0328664D01*
X0177710Y0327066D02*
X0225890Y0327066D01*
X0227771Y0325467D02*
X0175829Y0325467D01*
X0175730Y0312679D02*
X0177870Y0312679D01*
X0185730Y0312679D02*
X0187870Y0312679D01*
X0195730Y0312679D02*
X0197870Y0312679D01*
X0167870Y0312679D02*
X0165730Y0312679D01*
X0157870Y0312679D02*
X0155730Y0312679D01*
X0147870Y0312679D02*
X0145730Y0312679D01*
X0137870Y0312679D02*
X0125730Y0312679D01*
X0128135Y0311081D02*
X0135465Y0311081D01*
X0133867Y0309482D02*
X0129733Y0309482D01*
X0130401Y0307884D02*
X0133199Y0307884D01*
X0132537Y0306285D02*
X0131063Y0306285D01*
X0131168Y0304687D02*
X0132431Y0304687D01*
X0117870Y0312679D02*
X0115730Y0312679D01*
X0107870Y0312679D02*
X0105730Y0312679D01*
X0097870Y0312679D02*
X0095730Y0312679D01*
X0087870Y0312679D02*
X0085730Y0312679D01*
X0077870Y0312679D02*
X0075730Y0312679D01*
X0196405Y0351044D02*
X0207195Y0351044D01*
X0205314Y0352642D02*
X0198286Y0352642D01*
X0199718Y0354241D02*
X0203882Y0354241D01*
X0202800Y0355839D02*
X0200800Y0355839D01*
X0201000Y0357438D02*
X0202600Y0357438D01*
X0202600Y0359036D02*
X0201000Y0359036D01*
X0201000Y0360635D02*
X0202600Y0360635D01*
X0202600Y0362233D02*
X0201000Y0362233D01*
X0201000Y0363832D02*
X0202600Y0363832D01*
X0202600Y0365430D02*
X0201000Y0365430D01*
X0201000Y0367029D02*
X0202600Y0367029D01*
X0202600Y0368627D02*
X0201000Y0368627D01*
X0201000Y0370226D02*
X0202600Y0370226D01*
X0202600Y0371824D02*
X0201000Y0371824D01*
X0201000Y0373423D02*
X0202600Y0373423D01*
X0221000Y0373423D02*
X0222600Y0373423D01*
X0222600Y0371824D02*
X0221000Y0371824D01*
X0221000Y0370226D02*
X0222600Y0370226D01*
X0222600Y0368627D02*
X0221000Y0368627D01*
X0221000Y0367029D02*
X0222600Y0367029D01*
X0222600Y0365430D02*
X0221000Y0365430D01*
X0221000Y0363832D02*
X0222600Y0363832D01*
X0222600Y0362233D02*
X0221000Y0362233D01*
X0221000Y0360635D02*
X0222600Y0360635D01*
X0222600Y0359036D02*
X0221000Y0359036D01*
X0221000Y0357438D02*
X0222600Y0357438D01*
X0222600Y0355839D02*
X0220800Y0355839D01*
X0219718Y0354241D02*
X0222600Y0354241D01*
X0222600Y0352642D02*
X0218286Y0352642D01*
X0216405Y0351044D02*
X0222600Y0351044D01*
X0239687Y0414167D02*
X0241000Y0417337D01*
X0241000Y0515997D01*
X0239599Y0519378D01*
X0229511Y0529467D01*
X0268729Y0529467D01*
X0272295Y0530943D01*
X0287295Y0545943D01*
X0290023Y0548672D01*
X0291500Y0552237D01*
X0291500Y0557045D01*
X0292000Y0558911D01*
X0292000Y0569423D01*
X0291298Y0572042D01*
X0289942Y0574391D01*
X0288024Y0576309D01*
X0285676Y0577665D01*
X0283056Y0578367D01*
X0280344Y0578367D01*
X0277724Y0577665D01*
X0275376Y0576309D01*
X0273458Y0574391D01*
X0272102Y0572042D01*
X0271850Y0571102D01*
X0271598Y0572042D01*
X0270242Y0574391D01*
X0268324Y0576309D01*
X0265976Y0577665D01*
X0263356Y0578367D01*
X0260644Y0578367D01*
X0260336Y0578284D01*
X0258929Y0578867D01*
X0218400Y0578867D01*
X0218400Y0580957D01*
X0217070Y0584167D01*
X0218400Y0587376D01*
X0218400Y0590957D01*
X0217683Y0592688D01*
X0295400Y0592688D01*
X0295400Y0414167D01*
X0239687Y0414167D01*
X0240026Y0414984D02*
X0295400Y0414984D01*
X0295400Y0416583D02*
X0240688Y0416583D01*
X0241000Y0418181D02*
X0295400Y0418181D01*
X0295400Y0419780D02*
X0241000Y0419780D01*
X0241000Y0421378D02*
X0295400Y0421378D01*
X0295400Y0422977D02*
X0241000Y0422977D01*
X0241000Y0424575D02*
X0295400Y0424575D01*
X0295400Y0426174D02*
X0241000Y0426174D01*
X0241000Y0427772D02*
X0295400Y0427772D01*
X0295400Y0429371D02*
X0241000Y0429371D01*
X0241000Y0430969D02*
X0295400Y0430969D01*
X0295400Y0432568D02*
X0241000Y0432568D01*
X0241000Y0434166D02*
X0295400Y0434166D01*
X0295400Y0435765D02*
X0241000Y0435765D01*
X0241000Y0437363D02*
X0295400Y0437363D01*
X0295400Y0438962D02*
X0241000Y0438962D01*
X0241000Y0440560D02*
X0295400Y0440560D01*
X0295400Y0442159D02*
X0241000Y0442159D01*
X0241000Y0443757D02*
X0295400Y0443757D01*
X0295400Y0445356D02*
X0241000Y0445356D01*
X0241000Y0446954D02*
X0295400Y0446954D01*
X0295400Y0448553D02*
X0241000Y0448553D01*
X0241000Y0450151D02*
X0295400Y0450151D01*
X0295400Y0451750D02*
X0241000Y0451750D01*
X0241000Y0453348D02*
X0295400Y0453348D01*
X0295400Y0454947D02*
X0241000Y0454947D01*
X0241000Y0456545D02*
X0295400Y0456545D01*
X0295400Y0458144D02*
X0241000Y0458144D01*
X0241000Y0459742D02*
X0295400Y0459742D01*
X0295400Y0461341D02*
X0241000Y0461341D01*
X0241000Y0462939D02*
X0295400Y0462939D01*
X0295400Y0464538D02*
X0241000Y0464538D01*
X0241000Y0466136D02*
X0295400Y0466136D01*
X0295400Y0467735D02*
X0241000Y0467735D01*
X0241000Y0469333D02*
X0295400Y0469333D01*
X0295400Y0470932D02*
X0241000Y0470932D01*
X0241000Y0472530D02*
X0295400Y0472530D01*
X0295400Y0474129D02*
X0241000Y0474129D01*
X0241000Y0475727D02*
X0295400Y0475727D01*
X0295400Y0477326D02*
X0241000Y0477326D01*
X0241000Y0478925D02*
X0295400Y0478925D01*
X0295400Y0480523D02*
X0241000Y0480523D01*
X0241000Y0482122D02*
X0295400Y0482122D01*
X0295400Y0483720D02*
X0241000Y0483720D01*
X0241000Y0485319D02*
X0295400Y0485319D01*
X0295400Y0486917D02*
X0241000Y0486917D01*
X0241000Y0488516D02*
X0295400Y0488516D01*
X0295400Y0490114D02*
X0241000Y0490114D01*
X0241000Y0491713D02*
X0295400Y0491713D01*
X0295400Y0493311D02*
X0241000Y0493311D01*
X0241000Y0494910D02*
X0295400Y0494910D01*
X0295400Y0496508D02*
X0241000Y0496508D01*
X0241000Y0498107D02*
X0295400Y0498107D01*
X0295400Y0499705D02*
X0241000Y0499705D01*
X0241000Y0501304D02*
X0295400Y0501304D01*
X0295400Y0502902D02*
X0241000Y0502902D01*
X0241000Y0504501D02*
X0295400Y0504501D01*
X0295400Y0506099D02*
X0241000Y0506099D01*
X0241000Y0507698D02*
X0295400Y0507698D01*
X0295400Y0509296D02*
X0241000Y0509296D01*
X0241000Y0510895D02*
X0295400Y0510895D01*
X0295400Y0512493D02*
X0241000Y0512493D01*
X0241000Y0514092D02*
X0295400Y0514092D01*
X0295400Y0515690D02*
X0241000Y0515690D01*
X0240465Y0517289D02*
X0295400Y0517289D01*
X0295400Y0518887D02*
X0239803Y0518887D01*
X0238492Y0520486D02*
X0295400Y0520486D01*
X0295400Y0522084D02*
X0236893Y0522084D01*
X0235295Y0523683D02*
X0295400Y0523683D01*
X0295400Y0525281D02*
X0233696Y0525281D01*
X0232098Y0526880D02*
X0295400Y0526880D01*
X0295400Y0528478D02*
X0230499Y0528478D01*
X0206000Y0548867D02*
X0206000Y0559467D01*
X0251700Y0559467D01*
X0251700Y0558911D01*
X0252402Y0556291D01*
X0253758Y0553942D01*
X0255676Y0552025D01*
X0258024Y0550669D01*
X0260644Y0549967D01*
X0263356Y0549967D01*
X0264075Y0550159D01*
X0262782Y0548867D01*
X0206000Y0548867D01*
X0206000Y0549259D02*
X0263175Y0549259D01*
X0257697Y0550858D02*
X0206000Y0550858D01*
X0206000Y0552456D02*
X0255244Y0552456D01*
X0253693Y0554055D02*
X0206000Y0554055D01*
X0206000Y0555653D02*
X0252770Y0555653D01*
X0252145Y0557252D02*
X0206000Y0557252D01*
X0206000Y0558850D02*
X0251716Y0558850D01*
X0271706Y0571638D02*
X0271994Y0571638D01*
X0272792Y0573237D02*
X0270908Y0573237D01*
X0269798Y0574835D02*
X0273902Y0574835D01*
X0275592Y0576434D02*
X0268108Y0576434D01*
X0264604Y0578032D02*
X0279096Y0578032D01*
X0284304Y0578032D02*
X0295400Y0578032D01*
X0295400Y0576434D02*
X0287808Y0576434D01*
X0289498Y0574835D02*
X0295400Y0574835D01*
X0295400Y0573237D02*
X0290608Y0573237D01*
X0291406Y0571638D02*
X0295400Y0571638D01*
X0295400Y0570040D02*
X0291835Y0570040D01*
X0292000Y0568441D02*
X0295400Y0568441D01*
X0295400Y0566843D02*
X0292000Y0566843D01*
X0292000Y0565244D02*
X0295400Y0565244D01*
X0295400Y0563646D02*
X0292000Y0563646D01*
X0292000Y0562047D02*
X0295400Y0562047D01*
X0295400Y0560449D02*
X0292000Y0560449D01*
X0291984Y0558850D02*
X0295400Y0558850D01*
X0295400Y0557252D02*
X0291555Y0557252D01*
X0291500Y0555653D02*
X0295400Y0555653D01*
X0295400Y0554055D02*
X0291500Y0554055D01*
X0291500Y0552456D02*
X0295400Y0552456D01*
X0295400Y0550858D02*
X0290929Y0550858D01*
X0290266Y0549259D02*
X0295400Y0549259D01*
X0295400Y0547661D02*
X0289012Y0547661D01*
X0287413Y0546062D02*
X0295400Y0546062D01*
X0295400Y0544463D02*
X0285815Y0544463D01*
X0284216Y0542865D02*
X0295400Y0542865D01*
X0295400Y0541266D02*
X0282618Y0541266D01*
X0281019Y0539668D02*
X0295400Y0539668D01*
X0295400Y0538069D02*
X0279421Y0538069D01*
X0277822Y0536471D02*
X0295400Y0536471D01*
X0295400Y0534872D02*
X0276224Y0534872D01*
X0274625Y0533274D02*
X0295400Y0533274D01*
X0295400Y0531675D02*
X0273027Y0531675D01*
X0270203Y0530077D02*
X0295400Y0530077D01*
X0295400Y0579631D02*
X0218400Y0579631D01*
X0218287Y0581229D02*
X0295400Y0581229D01*
X0295400Y0582828D02*
X0217625Y0582828D01*
X0217178Y0584426D02*
X0295400Y0584426D01*
X0295400Y0586025D02*
X0217840Y0586025D01*
X0218400Y0587623D02*
X0295400Y0587623D01*
X0295400Y0589222D02*
X0218400Y0589222D01*
X0218400Y0590820D02*
X0295400Y0590820D01*
X0295400Y0592419D02*
X0217794Y0592419D01*
X0177600Y0559467D02*
X0177600Y0548867D01*
X0065818Y0548867D01*
X0056500Y0558185D01*
X0056500Y0561121D01*
X0056598Y0561291D01*
X0056850Y0562231D01*
X0057102Y0561291D01*
X0058458Y0558942D01*
X0060376Y0557025D01*
X0062724Y0555669D01*
X0065344Y0554967D01*
X0068056Y0554967D01*
X0070676Y0555669D01*
X0073024Y0557025D01*
X0074942Y0558942D01*
X0075245Y0559467D01*
X0177600Y0559467D01*
X0177600Y0558850D02*
X0074850Y0558850D01*
X0073251Y0557252D02*
X0177600Y0557252D01*
X0177600Y0555653D02*
X0070618Y0555653D01*
X0062782Y0555653D02*
X0059031Y0555653D01*
X0060149Y0557252D02*
X0057433Y0557252D01*
X0056500Y0558850D02*
X0058550Y0558850D01*
X0057588Y0560449D02*
X0056500Y0560449D01*
X0056801Y0562047D02*
X0056899Y0562047D01*
X0060630Y0554055D02*
X0177600Y0554055D01*
X0177600Y0552456D02*
X0062228Y0552456D01*
X0063827Y0550858D02*
X0177600Y0550858D01*
X0177600Y0549259D02*
X0065425Y0549259D01*
X0056939Y0576434D02*
X0056761Y0576434D01*
X0056027Y0578032D02*
X0057673Y0578032D01*
X0058698Y0579631D02*
X0055002Y0579631D01*
X0053404Y0581229D02*
X0060296Y0581229D01*
X0063333Y0582828D02*
X0050367Y0582828D01*
X0070067Y0582828D02*
X0165975Y0582828D01*
X0165313Y0581229D02*
X0073104Y0581229D01*
X0074702Y0579631D02*
X0165200Y0579631D01*
X0506800Y0483167D02*
X0506800Y0358167D01*
X0529800Y0358167D01*
X0529800Y0377167D01*
X0549800Y0377167D01*
X0549800Y0483167D01*
X0506800Y0483167D01*
X0506800Y0482122D02*
X0549800Y0482122D01*
X0549800Y0480523D02*
X0506800Y0480523D01*
X0506800Y0478925D02*
X0549800Y0478925D01*
X0549800Y0477326D02*
X0506800Y0477326D01*
X0506800Y0475727D02*
X0549800Y0475727D01*
X0549800Y0474129D02*
X0506800Y0474129D01*
X0506800Y0472530D02*
X0549800Y0472530D01*
X0549800Y0470932D02*
X0506800Y0470932D01*
X0506800Y0469333D02*
X0549800Y0469333D01*
X0549800Y0467735D02*
X0506800Y0467735D01*
X0506800Y0466136D02*
X0549800Y0466136D01*
X0549800Y0464538D02*
X0506800Y0464538D01*
X0506800Y0462939D02*
X0549800Y0462939D01*
X0549800Y0461341D02*
X0506800Y0461341D01*
X0506800Y0459742D02*
X0549800Y0459742D01*
X0549800Y0458144D02*
X0506800Y0458144D01*
X0506800Y0456545D02*
X0549800Y0456545D01*
X0549800Y0454947D02*
X0506800Y0454947D01*
X0506800Y0453348D02*
X0549800Y0453348D01*
X0549800Y0451750D02*
X0506800Y0451750D01*
X0506800Y0450151D02*
X0549800Y0450151D01*
X0549800Y0448553D02*
X0506800Y0448553D01*
X0506800Y0446954D02*
X0549800Y0446954D01*
X0549800Y0445356D02*
X0506800Y0445356D01*
X0506800Y0443757D02*
X0549800Y0443757D01*
X0549800Y0442159D02*
X0506800Y0442159D01*
X0506800Y0440560D02*
X0549800Y0440560D01*
X0549800Y0438962D02*
X0506800Y0438962D01*
X0506800Y0437363D02*
X0549800Y0437363D01*
X0549800Y0435765D02*
X0506800Y0435765D01*
X0506800Y0434166D02*
X0549800Y0434166D01*
X0549800Y0432568D02*
X0506800Y0432568D01*
X0506800Y0430969D02*
X0549800Y0430969D01*
X0549800Y0429371D02*
X0506800Y0429371D01*
X0506800Y0427772D02*
X0549800Y0427772D01*
X0549800Y0426174D02*
X0506800Y0426174D01*
X0506800Y0424575D02*
X0549800Y0424575D01*
X0549800Y0422977D02*
X0506800Y0422977D01*
X0506800Y0421378D02*
X0549800Y0421378D01*
X0549800Y0419780D02*
X0506800Y0419780D01*
X0506800Y0418181D02*
X0549800Y0418181D01*
X0549800Y0416583D02*
X0506800Y0416583D01*
X0506800Y0414984D02*
X0549800Y0414984D01*
X0549800Y0413386D02*
X0506800Y0413386D01*
X0506800Y0411787D02*
X0549800Y0411787D01*
X0549800Y0410189D02*
X0506800Y0410189D01*
X0506800Y0408590D02*
X0549800Y0408590D01*
X0549800Y0406992D02*
X0506800Y0406992D01*
X0506800Y0405393D02*
X0549800Y0405393D01*
X0549800Y0403794D02*
X0506800Y0403794D01*
X0506800Y0402196D02*
X0549800Y0402196D01*
X0549800Y0400597D02*
X0506800Y0400597D01*
X0506800Y0398999D02*
X0549800Y0398999D01*
X0549800Y0397400D02*
X0506800Y0397400D01*
X0506800Y0395802D02*
X0549800Y0395802D01*
X0549800Y0394203D02*
X0506800Y0394203D01*
X0506800Y0392605D02*
X0549800Y0392605D01*
X0549800Y0391006D02*
X0506800Y0391006D01*
X0506800Y0389408D02*
X0549800Y0389408D01*
X0549800Y0387809D02*
X0506800Y0387809D01*
X0506800Y0386211D02*
X0549800Y0386211D01*
X0549800Y0384612D02*
X0506800Y0384612D01*
X0506800Y0383014D02*
X0549800Y0383014D01*
X0549800Y0381415D02*
X0506800Y0381415D01*
X0506800Y0379817D02*
X0549800Y0379817D01*
X0549800Y0378218D02*
X0506800Y0378218D01*
X0506800Y0376620D02*
X0529800Y0376620D01*
X0529800Y0375021D02*
X0506800Y0375021D01*
X0506800Y0373423D02*
X0529800Y0373423D01*
X0529800Y0371824D02*
X0506800Y0371824D01*
X0506800Y0370226D02*
X0529800Y0370226D01*
X0529800Y0368627D02*
X0506800Y0368627D01*
X0506800Y0367029D02*
X0529800Y0367029D01*
X0529800Y0365430D02*
X0506800Y0365430D01*
X0506800Y0363832D02*
X0529800Y0363832D01*
X0529800Y0362233D02*
X0506800Y0362233D01*
X0506800Y0360635D02*
X0529800Y0360635D01*
X0529800Y0359036D02*
X0506800Y0359036D01*
X0067038Y0047326D02*
X0056462Y0047326D01*
X0058805Y0045728D02*
X0064695Y0045728D01*
X0063207Y0044129D02*
X0060293Y0044129D01*
X0061216Y0042531D02*
X0062284Y0042531D01*
D22*
X0171800Y0014167D02*
X0186800Y0014167D01*
X0186800Y0084167D01*
X0171800Y0084167D01*
X0186800Y0084167D02*
X0201800Y0084167D01*
X0201800Y0014167D02*
X0186800Y0014167D01*
X0392800Y0039962D02*
X0392800Y0085167D01*
X0425800Y0085167D01*
X0430800Y0090167D01*
X0445800Y0105167D01*
X0500800Y0105167D01*
X0500800Y0090167D01*
X0500800Y0105167D02*
X0500800Y0120167D01*
X0500800Y0105167D02*
X0596800Y0105167D01*
X0606800Y0115167D01*
X0606800Y0120167D01*
X0616800Y0120167D02*
X0616800Y0135167D01*
X0627800Y0146167D01*
X0645800Y0146167D01*
X0639800Y0156167D02*
X0656800Y0156167D01*
X0663800Y0149167D01*
X0663800Y0125167D01*
X0642800Y0104167D01*
X0610800Y0104167D01*
X0606800Y0100167D01*
X0606800Y0087167D01*
X0616800Y0090167D02*
X0616800Y0074167D01*
X0596800Y0074167D01*
X0596800Y0090167D01*
X0586800Y0090167D02*
X0586800Y0088167D01*
X0586800Y0090167D02*
X0586800Y0078167D01*
X0460800Y0078167D01*
X0460800Y0090167D01*
X0460800Y0120167D02*
X0460800Y0132167D01*
X0586800Y0132167D01*
X0586800Y0120167D01*
X0596800Y0120167D02*
X0596800Y0154167D01*
X0551800Y0199167D01*
X0520800Y0199167D01*
X0500800Y0199167D02*
X0464800Y0199167D01*
X0464800Y0209167D02*
X0469800Y0209167D01*
X0485800Y0225167D01*
X0485800Y0254167D01*
X0485800Y0274167D02*
X0485800Y0326167D01*
X0485800Y0360167D01*
X0475800Y0360167D02*
X0445800Y0360167D01*
X0445800Y0326167D01*
X0445800Y0211167D01*
X0443800Y0209167D01*
X0434800Y0209167D01*
X0434800Y0199167D02*
X0392800Y0199167D01*
X0392800Y0198962D01*
X0392800Y0183371D02*
X0392800Y0125167D01*
X0425800Y0125167D01*
X0430800Y0120167D01*
X0434800Y0219167D02*
X0421800Y0219167D01*
X0367800Y0273167D01*
X0367800Y0325167D01*
X0367800Y0359230D01*
X0367829Y0359230D01*
X0365800Y0359167D01*
X0365800Y0414167D01*
X0365800Y0448167D01*
X0415800Y0414167D02*
X0425800Y0414167D01*
X0445800Y0414167D01*
X0445800Y0360167D01*
X0417800Y0360167D01*
X0407800Y0360167D02*
X0407800Y0325167D01*
X0407800Y0315167D01*
X0435800Y0287167D01*
X0435800Y0273167D01*
X0455800Y0273167D02*
X0455800Y0247167D01*
X0464800Y0238167D01*
X0464800Y0219167D01*
X0549800Y0304167D02*
X0549800Y0326167D01*
X0549800Y0362167D01*
X0559800Y0360167D02*
X0589800Y0360167D01*
X0596800Y0360167D01*
X0596800Y0414167D01*
X0600800Y0414167D01*
X0610800Y0414167D01*
X0600800Y0414167D02*
X0600800Y0447167D01*
X0600800Y0478167D01*
X0660800Y0478167D02*
X0660800Y0414167D01*
X0660800Y0360167D01*
X0700800Y0360167D01*
X0660800Y0360167D02*
X0660800Y0326167D01*
X0660800Y0303167D01*
X0650800Y0293167D01*
X0653800Y0274167D02*
X0620800Y0307167D01*
X0620800Y0326167D01*
X0620800Y0359167D01*
X0619800Y0360167D01*
X0609800Y0360167D02*
X0596800Y0360167D01*
X0589800Y0360167D02*
X0589800Y0326167D01*
X0590800Y0330167D02*
X0590800Y0308167D01*
X0596800Y0302167D01*
X0596800Y0218167D01*
X0609800Y0205167D01*
X0615800Y0205167D01*
X0615800Y0215167D02*
X0615800Y0258167D01*
X0629800Y0253167D02*
X0607800Y0275167D01*
X0587800Y0275167D02*
X0578800Y0275167D01*
X0549800Y0304167D01*
X0539800Y0360167D02*
X0526800Y0360167D01*
X0526800Y0413167D01*
X0514800Y0414167D01*
X0526800Y0414167D01*
X0526800Y0448167D01*
X0527800Y0447167D01*
X0540800Y0447167D01*
X0526800Y0448167D02*
X0526800Y0480167D01*
X0535500Y0473167D01*
X0526800Y0480167D02*
X0485800Y0480167D01*
X0425800Y0480167D02*
X0425800Y0448167D01*
X0425800Y0414167D01*
X0445800Y0414167D02*
X0456800Y0414167D01*
X0506800Y0414167D02*
X0514800Y0414167D01*
X0576800Y0414167D02*
X0596800Y0414167D01*
X0629800Y0360167D02*
X0660800Y0360167D01*
X0700800Y0320167D02*
X0701800Y0262167D01*
X0659800Y0254167D02*
X0645800Y0240167D01*
X0645800Y0215167D01*
X0645800Y0205167D02*
X0637800Y0205167D01*
X0629800Y0213167D01*
X0629800Y0253167D01*
X0653800Y0274167D02*
X0659800Y0274167D01*
X0645800Y0195167D02*
X0645800Y0166167D01*
X0639800Y0156167D02*
X0615800Y0180167D01*
X0615800Y0195167D01*
X0596800Y0074167D02*
X0596800Y0036167D01*
X0333800Y0262167D02*
X0333800Y0319167D01*
X0333800Y0359167D02*
X0365800Y0359167D01*
X0396800Y0359167D01*
X0397800Y0360167D01*
X0367829Y0359230D01*
X0495800Y0360167D02*
X0526800Y0360167D01*
X0281800Y0554167D02*
X0281800Y0564067D01*
X0281700Y0564167D01*
X0281800Y0554167D02*
X0266800Y0539167D01*
X0206800Y0539167D01*
X0176800Y0539167D02*
X0061800Y0539167D01*
X0046800Y0554167D01*
X0046800Y0569167D01*
X0066700Y0569167D02*
X0176800Y0569167D01*
X0206800Y0569167D02*
X0257000Y0569167D01*
X0262000Y0564167D01*
D23*
X0216800Y0529167D02*
X0206800Y0529167D01*
X0216800Y0529167D02*
X0231800Y0514167D01*
X0231800Y0454167D01*
X0231800Y0419167D01*
X0211800Y0419167D02*
X0211800Y0484167D01*
X0211800Y0489167D01*
X0196800Y0504167D01*
X0196800Y0574167D01*
X0201800Y0579167D01*
X0206800Y0579167D01*
X0186800Y0574167D02*
X0181800Y0579167D01*
X0176800Y0579167D01*
X0186800Y0574167D02*
X0186800Y0499167D01*
X0191800Y0494167D01*
X0191800Y0484167D01*
X0191800Y0419167D01*
X0171800Y0419167D02*
X0171800Y0454167D01*
X0171800Y0499167D01*
X0161800Y0509167D01*
X0161800Y0524167D01*
X0166800Y0529167D01*
X0176800Y0529167D01*
X0171800Y0389167D02*
X0171800Y0334167D01*
X0191800Y0359167D02*
X0191800Y0389167D01*
X0211800Y0389167D02*
X0211800Y0359167D01*
X0231800Y0334167D02*
X0231800Y0389167D01*
X0216800Y0264167D02*
X0216800Y0209167D01*
X0196800Y0209167D02*
X0196800Y0239167D01*
X0176800Y0239167D02*
X0176800Y0209167D01*
X0156800Y0209167D02*
X0156800Y0264167D01*
X0156800Y0179167D02*
X0156800Y0154167D01*
X0141800Y0139167D01*
X0141800Y0039167D01*
X0156800Y0024167D01*
X0171800Y0024167D01*
X0201800Y0024167D02*
X0216800Y0024167D01*
X0231800Y0039167D01*
X0231800Y0139167D01*
X0216800Y0154167D01*
X0216800Y0179167D01*
X0196800Y0179167D02*
X0196800Y0119167D01*
X0216800Y0099167D01*
X0216800Y0079167D01*
X0211800Y0074167D01*
X0201800Y0074167D01*
X0186800Y0084167D02*
X0186800Y0179167D01*
X0176800Y0179167D02*
X0176800Y0119167D01*
X0156800Y0099167D01*
X0156800Y0079167D01*
X0161800Y0074167D01*
X0171800Y0074167D01*
D24*
X0615800Y0258167D03*
X0650800Y0293167D03*
M02*
