%
M48
M72
T01C0.02362
T02C0.03200
T03C0.03937
T04C0.04000
T05C0.05000
T06C0.06693
T07C0.07000
T08C0.07900
T09C0.14950
%
T01
X182800Y152800
X216800Y120800
X223800Y107800
X236800Y120800
X220800Y156800
X232800Y184800
X189800Y213800
X223800Y258800
X224800Y287800
X184800Y279800
X162800Y318800
X234800Y424800
X247800Y384800
X314800Y421800
X350800Y446800
X299800Y486800
X278800Y486800
X246800Y524800
X239800Y563800
X277800Y560800
X298800Y560800
X173800Y530800
X119800Y487800
X26800Y487800
X223800Y55800
T02
X88800Y283800
X88800Y293800
X88800Y303800
X88800Y313800
X58800Y313800
X58800Y303800
X58800Y293800
X58800Y283800
X28800Y548800
X28800Y568800
X53800Y568800
X93800Y568800
T03
X88800Y537800
X88800Y507800
X88800Y487800
X88800Y467800
X58800Y467800
X58800Y487800
X58800Y507800
X58800Y537800
T04
X258800Y628800
X298800Y628800
X296800Y32800
X256800Y32800
T05
X42800Y232800
T06
X28800Y592005
X28800Y607595
X93800Y603005
X93800Y618595
T07
X52839Y242839
X52839Y222761
X32761Y222761
X32761Y242839
T08
X169800Y33800
X347800Y32800
X388800Y321800
X346800Y628800
X169800Y630800
T09
X28800Y19800
X376800Y26800
X376800Y626800
X24800Y628800
M30
