G75*
%MOIN*%
%OFA0B0*%
%FSLAX25Y25*%
%IPPOS*%
%LPD*%
%AMOC8*
5,1,8,0,0,1.08239X$1,22.5*
%
%ADD10C,0.15750*%
%ADD11C,0.10839*%
%ADD12C,0.08300*%
%ADD13C,0.11300*%
%ADD14C,0.06000*%
%ADD15C,0.07887*%
%ADD16C,0.12650*%
%ADD17OC8,0.06000*%
%ADD18OC8,0.06800*%
%ADD19R,0.04762X0.04762*%
D10*
X0028800Y0019800D03*
X0376800Y0026800D03*
X0376800Y0626800D03*
X0024800Y0628800D03*
D11*
X0023780Y0607595D02*
X0033820Y0607595D01*
X0033820Y0592005D02*
X0023780Y0592005D01*
X0088780Y0603005D02*
X0098820Y0603005D01*
X0098820Y0618595D02*
X0088780Y0618595D01*
D12*
X0042800Y0232800D03*
D13*
X0032761Y0242839D03*
X0032761Y0222761D03*
X0052839Y0222761D03*
X0052839Y0242839D03*
D14*
X0056200Y0283800D02*
X0061400Y0283800D01*
X0061400Y0293800D02*
X0056200Y0293800D01*
X0056200Y0303800D02*
X0061400Y0303800D01*
X0061400Y0313800D02*
X0056200Y0313800D01*
X0086200Y0313800D02*
X0091400Y0313800D01*
X0091400Y0303800D02*
X0086200Y0303800D01*
X0086200Y0293800D02*
X0091400Y0293800D01*
X0091400Y0283800D02*
X0086200Y0283800D01*
X0091200Y0568800D02*
X0096400Y0568800D01*
X0056400Y0568800D02*
X0051200Y0568800D01*
D15*
X0058800Y0537800D03*
X0058800Y0507800D03*
X0058800Y0487800D03*
X0058800Y0467800D03*
X0088800Y0467800D03*
X0088800Y0487800D03*
X0088800Y0507800D03*
X0088800Y0537800D03*
D16*
X0169800Y0624875D02*
X0169800Y0636725D01*
X0346800Y0634725D02*
X0346800Y0622875D01*
X0388800Y0327725D02*
X0388800Y0315875D01*
X0347800Y0038725D02*
X0347800Y0026875D01*
X0169800Y0027875D02*
X0169800Y0039725D01*
D17*
X0028800Y0548800D03*
X0028800Y0568800D03*
D18*
X0258800Y0628800D03*
X0298800Y0628800D03*
X0296800Y0032800D03*
X0256800Y0032800D03*
D19*
X0223800Y0055800D03*
X0223800Y0107800D03*
X0216800Y0120800D03*
X0236800Y0120800D03*
X0220800Y0156800D03*
X0232800Y0184800D03*
X0189800Y0213800D03*
X0223800Y0258800D03*
X0224800Y0287800D03*
X0184800Y0279800D03*
X0162800Y0318800D03*
X0234800Y0424800D03*
X0247800Y0384800D03*
X0314800Y0421800D03*
X0350800Y0446800D03*
X0299800Y0486800D03*
X0278800Y0486800D03*
X0246800Y0524800D03*
X0239800Y0563800D03*
X0277800Y0560800D03*
X0298800Y0560800D03*
X0173800Y0530800D03*
X0119800Y0487800D03*
X0026800Y0487800D03*
X0182800Y0152800D03*
M02*
