G75*
%MOIN*%
%OFA0B0*%
%FSLAX25Y25*%
%IPPOS*%
%LPD*%
%AMOC8*
5,1,8,0,0,1.08239X$1,22.5*
%
%ADD10C,0.00600*%
%ADD11C,0.00800*%
%ADD12C,0.00400*%
%ADD13C,0.00500*%
%ADD14C,0.00700*%
%ADD15R,0.02000X0.08000*%
%ADD16R,0.07500X0.02000*%
%ADD17C,0.01000*%
%ADD18R,0.08268X0.01181*%
%ADD19C,0.00000*%
%ADD20C,0.01200*%
%ADD21C,0.01600*%
D10*
X0027261Y0158965D02*
X0027261Y0165370D01*
X0024059Y0165370D01*
X0022991Y0164303D01*
X0022991Y0162168D01*
X0024059Y0161100D01*
X0027261Y0161100D01*
X0029436Y0162168D02*
X0029436Y0165370D01*
X0029436Y0162168D02*
X0030504Y0161100D01*
X0033707Y0161100D01*
X0033707Y0165370D01*
X0035882Y0165370D02*
X0036950Y0165370D01*
X0036950Y0161100D01*
X0038017Y0161100D02*
X0035882Y0161100D01*
X0040179Y0161100D02*
X0040179Y0165370D01*
X0040179Y0163235D02*
X0042314Y0165370D01*
X0043382Y0165370D01*
X0045550Y0164303D02*
X0045550Y0162168D01*
X0046618Y0161100D01*
X0048753Y0161100D01*
X0049821Y0163235D02*
X0045550Y0163235D01*
X0045550Y0164303D02*
X0046618Y0165370D01*
X0048753Y0165370D01*
X0049821Y0164303D01*
X0049821Y0163235D01*
X0051996Y0164303D02*
X0053063Y0165370D01*
X0056266Y0165370D01*
X0055198Y0163235D02*
X0053063Y0163235D01*
X0051996Y0164303D01*
X0051996Y0161100D02*
X0055198Y0161100D01*
X0056266Y0162168D01*
X0055198Y0163235D01*
X0064887Y0162168D02*
X0065954Y0161100D01*
X0069157Y0161100D01*
X0071332Y0162168D02*
X0072400Y0161100D01*
X0074535Y0161100D01*
X0075603Y0162168D01*
X0075603Y0164303D01*
X0074535Y0165370D01*
X0072400Y0165370D01*
X0071332Y0164303D01*
X0071332Y0162168D01*
X0069157Y0165370D02*
X0065954Y0165370D01*
X0064887Y0164303D01*
X0064887Y0162168D01*
X0077778Y0161100D02*
X0077778Y0165370D01*
X0080980Y0165370D01*
X0082048Y0164303D01*
X0082048Y0161100D01*
X0085291Y0161100D02*
X0085291Y0166438D01*
X0086358Y0167505D01*
X0086358Y0164303D02*
X0084223Y0164303D01*
X0088520Y0164303D02*
X0088520Y0162168D01*
X0089588Y0161100D01*
X0091723Y0161100D01*
X0092791Y0162168D01*
X0092791Y0164303D01*
X0091723Y0165370D01*
X0089588Y0165370D01*
X0088520Y0164303D01*
X0094966Y0165370D02*
X0094966Y0161100D01*
X0094966Y0163235D02*
X0097101Y0165370D01*
X0098168Y0165370D01*
X0100337Y0165370D02*
X0101405Y0165370D01*
X0102472Y0164303D01*
X0103540Y0165370D01*
X0104607Y0164303D01*
X0104607Y0161100D01*
X0102472Y0161100D02*
X0102472Y0164303D01*
X0100337Y0165370D02*
X0100337Y0161100D01*
X0106782Y0162168D02*
X0107850Y0163235D01*
X0111053Y0163235D01*
X0111053Y0164303D02*
X0111053Y0161100D01*
X0107850Y0161100D01*
X0106782Y0162168D01*
X0107850Y0165370D02*
X0109985Y0165370D01*
X0111053Y0164303D01*
X0113228Y0167505D02*
X0114296Y0167505D01*
X0114296Y0161100D01*
X0115363Y0161100D02*
X0113228Y0161100D01*
X0123970Y0162168D02*
X0125038Y0161100D01*
X0128241Y0161100D01*
X0130416Y0162168D02*
X0130416Y0164303D01*
X0131484Y0165370D01*
X0133619Y0165370D01*
X0134686Y0164303D01*
X0134686Y0162168D01*
X0133619Y0161100D01*
X0131484Y0161100D01*
X0130416Y0162168D01*
X0128241Y0165370D02*
X0125038Y0165370D01*
X0123970Y0164303D01*
X0123970Y0162168D01*
X0136861Y0162168D02*
X0137929Y0163235D01*
X0141132Y0163235D01*
X0141132Y0164303D02*
X0141132Y0161100D01*
X0137929Y0161100D01*
X0136861Y0162168D01*
X0137929Y0165370D02*
X0140064Y0165370D01*
X0141132Y0164303D01*
X0143307Y0165370D02*
X0145442Y0165370D01*
X0144375Y0166438D02*
X0144375Y0162168D01*
X0145442Y0161100D01*
X0147604Y0161100D02*
X0149739Y0161100D01*
X0148672Y0161100D02*
X0148672Y0165370D01*
X0147604Y0165370D01*
X0148672Y0167505D02*
X0148672Y0168573D01*
X0151901Y0165370D02*
X0151901Y0161100D01*
X0156171Y0161100D02*
X0156171Y0164303D01*
X0155104Y0165370D01*
X0151901Y0165370D01*
X0158346Y0164303D02*
X0158346Y0162168D01*
X0159414Y0161100D01*
X0162617Y0161100D01*
X0162617Y0160032D02*
X0162617Y0165370D01*
X0159414Y0165370D01*
X0158346Y0164303D01*
X0160482Y0158965D02*
X0161549Y0158965D01*
X0162617Y0160032D01*
X0085300Y0278800D02*
X0062300Y0278800D01*
X0062300Y0318800D01*
X0069800Y0318800D01*
X0069802Y0318674D01*
X0069808Y0318549D01*
X0069818Y0318424D01*
X0069832Y0318299D01*
X0069849Y0318174D01*
X0069871Y0318050D01*
X0069896Y0317927D01*
X0069926Y0317805D01*
X0069959Y0317684D01*
X0069996Y0317564D01*
X0070036Y0317445D01*
X0070081Y0317328D01*
X0070129Y0317211D01*
X0070181Y0317097D01*
X0070236Y0316984D01*
X0070295Y0316873D01*
X0070357Y0316764D01*
X0070423Y0316657D01*
X0070492Y0316552D01*
X0070564Y0316449D01*
X0070639Y0316348D01*
X0070718Y0316250D01*
X0070800Y0316155D01*
X0070884Y0316062D01*
X0070972Y0315972D01*
X0071062Y0315884D01*
X0071155Y0315800D01*
X0071250Y0315718D01*
X0071348Y0315639D01*
X0071449Y0315564D01*
X0071552Y0315492D01*
X0071657Y0315423D01*
X0071764Y0315357D01*
X0071873Y0315295D01*
X0071984Y0315236D01*
X0072097Y0315181D01*
X0072211Y0315129D01*
X0072328Y0315081D01*
X0072445Y0315036D01*
X0072564Y0314996D01*
X0072684Y0314959D01*
X0072805Y0314926D01*
X0072927Y0314896D01*
X0073050Y0314871D01*
X0073174Y0314849D01*
X0073299Y0314832D01*
X0073424Y0314818D01*
X0073549Y0314808D01*
X0073674Y0314802D01*
X0073800Y0314800D01*
X0073926Y0314802D01*
X0074051Y0314808D01*
X0074176Y0314818D01*
X0074301Y0314832D01*
X0074426Y0314849D01*
X0074550Y0314871D01*
X0074673Y0314896D01*
X0074795Y0314926D01*
X0074916Y0314959D01*
X0075036Y0314996D01*
X0075155Y0315036D01*
X0075272Y0315081D01*
X0075389Y0315129D01*
X0075503Y0315181D01*
X0075616Y0315236D01*
X0075727Y0315295D01*
X0075836Y0315357D01*
X0075943Y0315423D01*
X0076048Y0315492D01*
X0076151Y0315564D01*
X0076252Y0315639D01*
X0076350Y0315718D01*
X0076445Y0315800D01*
X0076538Y0315884D01*
X0076628Y0315972D01*
X0076716Y0316062D01*
X0076800Y0316155D01*
X0076882Y0316250D01*
X0076961Y0316348D01*
X0077036Y0316449D01*
X0077108Y0316552D01*
X0077177Y0316657D01*
X0077243Y0316764D01*
X0077305Y0316873D01*
X0077364Y0316984D01*
X0077419Y0317097D01*
X0077471Y0317211D01*
X0077519Y0317328D01*
X0077564Y0317445D01*
X0077604Y0317564D01*
X0077641Y0317684D01*
X0077674Y0317805D01*
X0077704Y0317927D01*
X0077729Y0318050D01*
X0077751Y0318174D01*
X0077768Y0318299D01*
X0077782Y0318424D01*
X0077792Y0318549D01*
X0077798Y0318674D01*
X0077800Y0318800D01*
X0085300Y0318800D01*
X0085300Y0278800D01*
X0036950Y0168573D02*
X0036950Y0167505D01*
X0020816Y0164303D02*
X0020816Y0163235D01*
X0016545Y0163235D01*
X0016545Y0162168D02*
X0016545Y0164303D01*
X0017613Y0165370D01*
X0019748Y0165370D01*
X0020816Y0164303D01*
X0019748Y0161100D02*
X0017613Y0161100D01*
X0016545Y0162168D01*
X0014370Y0161100D02*
X0012235Y0163235D01*
X0013303Y0163235D02*
X0010100Y0163235D01*
X0010100Y0161100D02*
X0010100Y0167505D01*
X0013303Y0167505D01*
X0014370Y0166438D01*
X0014370Y0164303D01*
X0013303Y0163235D01*
X0054198Y0462639D02*
X0093296Y0462639D01*
X0093296Y0542560D01*
X0054198Y0542560D01*
X0054198Y0462639D01*
X0033800Y0544300D02*
X0023800Y0544300D01*
X0023740Y0544302D01*
X0023679Y0544307D01*
X0023620Y0544316D01*
X0023561Y0544329D01*
X0023502Y0544345D01*
X0023445Y0544365D01*
X0023390Y0544388D01*
X0023335Y0544415D01*
X0023283Y0544444D01*
X0023232Y0544477D01*
X0023183Y0544513D01*
X0023137Y0544551D01*
X0023093Y0544593D01*
X0023051Y0544637D01*
X0023013Y0544683D01*
X0022977Y0544732D01*
X0022944Y0544783D01*
X0022915Y0544835D01*
X0022888Y0544890D01*
X0022865Y0544945D01*
X0022845Y0545002D01*
X0022829Y0545061D01*
X0022816Y0545120D01*
X0022807Y0545179D01*
X0022802Y0545240D01*
X0022800Y0545300D01*
X0022800Y0572300D01*
X0022802Y0572360D01*
X0022807Y0572421D01*
X0022816Y0572480D01*
X0022829Y0572539D01*
X0022845Y0572598D01*
X0022865Y0572655D01*
X0022888Y0572710D01*
X0022915Y0572765D01*
X0022944Y0572817D01*
X0022977Y0572868D01*
X0023013Y0572917D01*
X0023051Y0572963D01*
X0023093Y0573007D01*
X0023137Y0573049D01*
X0023183Y0573087D01*
X0023232Y0573123D01*
X0023283Y0573156D01*
X0023335Y0573185D01*
X0023390Y0573212D01*
X0023445Y0573235D01*
X0023502Y0573255D01*
X0023561Y0573271D01*
X0023620Y0573284D01*
X0023679Y0573293D01*
X0023740Y0573298D01*
X0023800Y0573300D01*
X0033800Y0573300D01*
X0033860Y0573298D01*
X0033921Y0573293D01*
X0033980Y0573284D01*
X0034039Y0573271D01*
X0034098Y0573255D01*
X0034155Y0573235D01*
X0034210Y0573212D01*
X0034265Y0573185D01*
X0034317Y0573156D01*
X0034368Y0573123D01*
X0034417Y0573087D01*
X0034463Y0573049D01*
X0034507Y0573007D01*
X0034549Y0572963D01*
X0034587Y0572917D01*
X0034623Y0572868D01*
X0034656Y0572817D01*
X0034685Y0572765D01*
X0034712Y0572710D01*
X0034735Y0572655D01*
X0034755Y0572598D01*
X0034771Y0572539D01*
X0034784Y0572480D01*
X0034793Y0572421D01*
X0034798Y0572360D01*
X0034800Y0572300D01*
X0034800Y0545300D01*
X0034798Y0545240D01*
X0034793Y0545179D01*
X0034784Y0545120D01*
X0034771Y0545061D01*
X0034755Y0545002D01*
X0034735Y0544945D01*
X0034712Y0544890D01*
X0034685Y0544835D01*
X0034656Y0544783D01*
X0034623Y0544732D01*
X0034587Y0544683D01*
X0034549Y0544637D01*
X0034507Y0544593D01*
X0034463Y0544551D01*
X0034417Y0544513D01*
X0034368Y0544477D01*
X0034317Y0544444D01*
X0034265Y0544415D01*
X0034210Y0544388D01*
X0034155Y0544365D01*
X0034098Y0544345D01*
X0034039Y0544329D01*
X0033980Y0544316D01*
X0033921Y0544307D01*
X0033860Y0544302D01*
X0033800Y0544300D01*
X0028800Y0552800D02*
X0028800Y0557500D01*
X0028800Y0560000D02*
X0028800Y0564800D01*
X0064800Y0565800D02*
X0064800Y0571800D01*
X0064802Y0571860D01*
X0064807Y0571921D01*
X0064816Y0571980D01*
X0064829Y0572039D01*
X0064845Y0572098D01*
X0064865Y0572155D01*
X0064888Y0572210D01*
X0064915Y0572265D01*
X0064944Y0572317D01*
X0064977Y0572368D01*
X0065013Y0572417D01*
X0065051Y0572463D01*
X0065093Y0572507D01*
X0065137Y0572549D01*
X0065183Y0572587D01*
X0065232Y0572623D01*
X0065283Y0572656D01*
X0065335Y0572685D01*
X0065390Y0572712D01*
X0065445Y0572735D01*
X0065502Y0572755D01*
X0065561Y0572771D01*
X0065620Y0572784D01*
X0065679Y0572793D01*
X0065740Y0572798D01*
X0065800Y0572800D01*
X0081800Y0572800D01*
X0081860Y0572798D01*
X0081921Y0572793D01*
X0081980Y0572784D01*
X0082039Y0572771D01*
X0082098Y0572755D01*
X0082155Y0572735D01*
X0082210Y0572712D01*
X0082265Y0572685D01*
X0082317Y0572656D01*
X0082368Y0572623D01*
X0082417Y0572587D01*
X0082463Y0572549D01*
X0082507Y0572507D01*
X0082549Y0572463D01*
X0082587Y0572417D01*
X0082623Y0572368D01*
X0082656Y0572317D01*
X0082685Y0572265D01*
X0082712Y0572210D01*
X0082735Y0572155D01*
X0082755Y0572098D01*
X0082771Y0572039D01*
X0082784Y0571980D01*
X0082793Y0571921D01*
X0082798Y0571860D01*
X0082800Y0571800D01*
X0082800Y0565800D01*
X0082798Y0565740D01*
X0082793Y0565679D01*
X0082784Y0565620D01*
X0082771Y0565561D01*
X0082755Y0565502D01*
X0082735Y0565445D01*
X0082712Y0565390D01*
X0082685Y0565335D01*
X0082656Y0565283D01*
X0082623Y0565232D01*
X0082587Y0565183D01*
X0082549Y0565137D01*
X0082507Y0565093D01*
X0082463Y0565051D01*
X0082417Y0565013D01*
X0082368Y0564977D01*
X0082317Y0564944D01*
X0082265Y0564915D01*
X0082210Y0564888D01*
X0082155Y0564865D01*
X0082098Y0564845D01*
X0082039Y0564829D01*
X0081980Y0564816D01*
X0081921Y0564807D01*
X0081860Y0564802D01*
X0081800Y0564800D01*
X0065800Y0564800D01*
X0065740Y0564802D01*
X0065679Y0564807D01*
X0065620Y0564816D01*
X0065561Y0564829D01*
X0065502Y0564845D01*
X0065445Y0564865D01*
X0065390Y0564888D01*
X0065335Y0564915D01*
X0065283Y0564944D01*
X0065232Y0564977D01*
X0065183Y0565013D01*
X0065137Y0565051D01*
X0065093Y0565093D01*
X0065051Y0565137D01*
X0065013Y0565183D01*
X0064977Y0565232D01*
X0064944Y0565283D01*
X0064915Y0565335D01*
X0064888Y0565390D01*
X0064865Y0565445D01*
X0064845Y0565502D01*
X0064829Y0565561D01*
X0064816Y0565620D01*
X0064807Y0565679D01*
X0064802Y0565740D01*
X0064800Y0565800D01*
X0071300Y0568800D02*
X0073800Y0568800D01*
X0073800Y0566300D01*
X0073800Y0568800D02*
X0073800Y0571300D01*
X0073800Y0568800D02*
X0077800Y0571300D01*
X0077800Y0566300D01*
X0073800Y0568800D01*
X0079800Y0568800D01*
X0252800Y0618800D02*
X0252800Y0638800D01*
X0252802Y0638887D01*
X0252808Y0638974D01*
X0252817Y0639061D01*
X0252830Y0639147D01*
X0252847Y0639233D01*
X0252868Y0639318D01*
X0252893Y0639401D01*
X0252921Y0639484D01*
X0252952Y0639565D01*
X0252987Y0639645D01*
X0253026Y0639723D01*
X0253068Y0639800D01*
X0253113Y0639875D01*
X0253162Y0639947D01*
X0253213Y0640018D01*
X0253268Y0640086D01*
X0253325Y0640151D01*
X0253386Y0640214D01*
X0253449Y0640275D01*
X0253514Y0640332D01*
X0253582Y0640387D01*
X0253653Y0640438D01*
X0253725Y0640487D01*
X0253800Y0640532D01*
X0253877Y0640574D01*
X0253955Y0640613D01*
X0254035Y0640648D01*
X0254116Y0640679D01*
X0254199Y0640707D01*
X0254282Y0640732D01*
X0254367Y0640753D01*
X0254453Y0640770D01*
X0254539Y0640783D01*
X0254626Y0640792D01*
X0254713Y0640798D01*
X0254800Y0640800D01*
X0302800Y0640800D01*
X0302887Y0640798D01*
X0302974Y0640792D01*
X0303061Y0640783D01*
X0303147Y0640770D01*
X0303233Y0640753D01*
X0303318Y0640732D01*
X0303401Y0640707D01*
X0303484Y0640679D01*
X0303565Y0640648D01*
X0303645Y0640613D01*
X0303723Y0640574D01*
X0303800Y0640532D01*
X0303875Y0640487D01*
X0303947Y0640438D01*
X0304018Y0640387D01*
X0304086Y0640332D01*
X0304151Y0640275D01*
X0304214Y0640214D01*
X0304275Y0640151D01*
X0304332Y0640086D01*
X0304387Y0640018D01*
X0304438Y0639947D01*
X0304487Y0639875D01*
X0304532Y0639800D01*
X0304574Y0639723D01*
X0304613Y0639645D01*
X0304648Y0639565D01*
X0304679Y0639484D01*
X0304707Y0639401D01*
X0304732Y0639318D01*
X0304753Y0639233D01*
X0304770Y0639147D01*
X0304783Y0639061D01*
X0304792Y0638974D01*
X0304798Y0638887D01*
X0304800Y0638800D01*
X0304800Y0618800D01*
X0304798Y0618713D01*
X0304792Y0618626D01*
X0304783Y0618539D01*
X0304770Y0618453D01*
X0304753Y0618367D01*
X0304732Y0618282D01*
X0304707Y0618199D01*
X0304679Y0618116D01*
X0304648Y0618035D01*
X0304613Y0617955D01*
X0304574Y0617877D01*
X0304532Y0617800D01*
X0304487Y0617725D01*
X0304438Y0617653D01*
X0304387Y0617582D01*
X0304332Y0617514D01*
X0304275Y0617449D01*
X0304214Y0617386D01*
X0304151Y0617325D01*
X0304086Y0617268D01*
X0304018Y0617213D01*
X0303947Y0617162D01*
X0303875Y0617113D01*
X0303800Y0617068D01*
X0303723Y0617026D01*
X0303645Y0616987D01*
X0303565Y0616952D01*
X0303484Y0616921D01*
X0303401Y0616893D01*
X0303318Y0616868D01*
X0303233Y0616847D01*
X0303147Y0616830D01*
X0303061Y0616817D01*
X0302974Y0616808D01*
X0302887Y0616802D01*
X0302800Y0616800D01*
X0254800Y0616800D01*
X0254713Y0616802D01*
X0254626Y0616808D01*
X0254539Y0616817D01*
X0254453Y0616830D01*
X0254367Y0616847D01*
X0254282Y0616868D01*
X0254199Y0616893D01*
X0254116Y0616921D01*
X0254035Y0616952D01*
X0253955Y0616987D01*
X0253877Y0617026D01*
X0253800Y0617068D01*
X0253725Y0617113D01*
X0253653Y0617162D01*
X0253582Y0617213D01*
X0253514Y0617268D01*
X0253449Y0617325D01*
X0253386Y0617386D01*
X0253325Y0617449D01*
X0253268Y0617514D01*
X0253213Y0617582D01*
X0253162Y0617653D01*
X0253113Y0617725D01*
X0253068Y0617800D01*
X0253026Y0617877D01*
X0252987Y0617955D01*
X0252952Y0618035D01*
X0252921Y0618116D01*
X0252893Y0618199D01*
X0252868Y0618282D01*
X0252847Y0618367D01*
X0252830Y0618453D01*
X0252817Y0618539D01*
X0252808Y0618626D01*
X0252802Y0618713D01*
X0252800Y0618800D01*
X0263800Y0628800D02*
X0287800Y0628800D01*
X0291300Y0628800D02*
X0293800Y0628800D01*
X0300800Y0044800D02*
X0252800Y0044800D01*
X0252713Y0044798D01*
X0252626Y0044792D01*
X0252539Y0044783D01*
X0252453Y0044770D01*
X0252367Y0044753D01*
X0252282Y0044732D01*
X0252199Y0044707D01*
X0252116Y0044679D01*
X0252035Y0044648D01*
X0251955Y0044613D01*
X0251877Y0044574D01*
X0251800Y0044532D01*
X0251725Y0044487D01*
X0251653Y0044438D01*
X0251582Y0044387D01*
X0251514Y0044332D01*
X0251449Y0044275D01*
X0251386Y0044214D01*
X0251325Y0044151D01*
X0251268Y0044086D01*
X0251213Y0044018D01*
X0251162Y0043947D01*
X0251113Y0043875D01*
X0251068Y0043800D01*
X0251026Y0043723D01*
X0250987Y0043645D01*
X0250952Y0043565D01*
X0250921Y0043484D01*
X0250893Y0043401D01*
X0250868Y0043318D01*
X0250847Y0043233D01*
X0250830Y0043147D01*
X0250817Y0043061D01*
X0250808Y0042974D01*
X0250802Y0042887D01*
X0250800Y0042800D01*
X0250800Y0022800D01*
X0250802Y0022713D01*
X0250808Y0022626D01*
X0250817Y0022539D01*
X0250830Y0022453D01*
X0250847Y0022367D01*
X0250868Y0022282D01*
X0250893Y0022199D01*
X0250921Y0022116D01*
X0250952Y0022035D01*
X0250987Y0021955D01*
X0251026Y0021877D01*
X0251068Y0021800D01*
X0251113Y0021725D01*
X0251162Y0021653D01*
X0251213Y0021582D01*
X0251268Y0021514D01*
X0251325Y0021449D01*
X0251386Y0021386D01*
X0251449Y0021325D01*
X0251514Y0021268D01*
X0251582Y0021213D01*
X0251653Y0021162D01*
X0251725Y0021113D01*
X0251800Y0021068D01*
X0251877Y0021026D01*
X0251955Y0020987D01*
X0252035Y0020952D01*
X0252116Y0020921D01*
X0252199Y0020893D01*
X0252282Y0020868D01*
X0252367Y0020847D01*
X0252453Y0020830D01*
X0252539Y0020817D01*
X0252626Y0020808D01*
X0252713Y0020802D01*
X0252800Y0020800D01*
X0300800Y0020800D01*
X0300887Y0020802D01*
X0300974Y0020808D01*
X0301061Y0020817D01*
X0301147Y0020830D01*
X0301233Y0020847D01*
X0301318Y0020868D01*
X0301401Y0020893D01*
X0301484Y0020921D01*
X0301565Y0020952D01*
X0301645Y0020987D01*
X0301723Y0021026D01*
X0301800Y0021068D01*
X0301875Y0021113D01*
X0301947Y0021162D01*
X0302018Y0021213D01*
X0302086Y0021268D01*
X0302151Y0021325D01*
X0302214Y0021386D01*
X0302275Y0021449D01*
X0302332Y0021514D01*
X0302387Y0021582D01*
X0302438Y0021653D01*
X0302487Y0021725D01*
X0302532Y0021800D01*
X0302574Y0021877D01*
X0302613Y0021955D01*
X0302648Y0022035D01*
X0302679Y0022116D01*
X0302707Y0022199D01*
X0302732Y0022282D01*
X0302753Y0022367D01*
X0302770Y0022453D01*
X0302783Y0022539D01*
X0302792Y0022626D01*
X0302798Y0022713D01*
X0302800Y0022800D01*
X0302800Y0042800D01*
X0302798Y0042887D01*
X0302792Y0042974D01*
X0302783Y0043061D01*
X0302770Y0043147D01*
X0302753Y0043233D01*
X0302732Y0043318D01*
X0302707Y0043401D01*
X0302679Y0043484D01*
X0302648Y0043565D01*
X0302613Y0043645D01*
X0302574Y0043723D01*
X0302532Y0043800D01*
X0302487Y0043875D01*
X0302438Y0043947D01*
X0302387Y0044018D01*
X0302332Y0044086D01*
X0302275Y0044151D01*
X0302214Y0044214D01*
X0302151Y0044275D01*
X0302086Y0044332D01*
X0302018Y0044387D01*
X0301947Y0044438D01*
X0301875Y0044487D01*
X0301800Y0044532D01*
X0301723Y0044574D01*
X0301645Y0044613D01*
X0301565Y0044648D01*
X0301484Y0044679D01*
X0301401Y0044707D01*
X0301318Y0044732D01*
X0301233Y0044753D01*
X0301147Y0044770D01*
X0301061Y0044783D01*
X0300974Y0044792D01*
X0300887Y0044798D01*
X0300800Y0044800D01*
X0291800Y0032800D02*
X0289300Y0032800D01*
X0285800Y0032800D02*
X0261800Y0032800D01*
D11*
X0250737Y0063040D02*
X0242863Y0063040D01*
X0246800Y0067068D01*
X0250737Y0063040D01*
X0265560Y0084863D02*
X0265560Y0092737D01*
X0261532Y0088800D01*
X0265560Y0084863D01*
X0251737Y0131040D02*
X0243863Y0131040D01*
X0247800Y0135068D01*
X0251737Y0131040D01*
X0265560Y0150863D02*
X0261532Y0154800D01*
X0265560Y0158737D01*
X0265560Y0150863D01*
X0252737Y0193040D02*
X0244863Y0193040D01*
X0248800Y0197068D01*
X0252737Y0193040D01*
X0266560Y0212863D02*
X0262532Y0216800D01*
X0266560Y0220737D01*
X0266560Y0212863D01*
X0252737Y0254040D02*
X0244863Y0254040D01*
X0248800Y0258068D01*
X0252737Y0254040D01*
X0265560Y0275863D02*
X0261532Y0279800D01*
X0265560Y0283737D01*
X0265560Y0275863D01*
X0266040Y0331863D02*
X0266040Y0339737D01*
X0270068Y0335800D01*
X0266040Y0331863D01*
X0254737Y0360040D02*
X0246863Y0360040D01*
X0250800Y0364068D01*
X0254737Y0360040D01*
X0265040Y0399863D02*
X0265040Y0407737D01*
X0269068Y0403800D01*
X0265040Y0399863D01*
X0255737Y0428040D02*
X0247863Y0428040D01*
X0251800Y0432068D01*
X0255737Y0428040D01*
X0264040Y0472863D02*
X0264040Y0480737D01*
X0268068Y0476800D01*
X0264040Y0472863D01*
X0256737Y0502040D02*
X0248863Y0502040D01*
X0252800Y0506068D01*
X0256737Y0502040D01*
X0265040Y0546863D02*
X0265040Y0554737D01*
X0269068Y0550800D01*
X0265040Y0546863D01*
X0256737Y0575040D02*
X0248863Y0575040D01*
X0252800Y0579068D01*
X0256737Y0575040D01*
X0112796Y0595898D02*
X0112796Y0625800D01*
X0074312Y0625800D01*
X0074312Y0618713D01*
X0083859Y0618713D01*
X0083859Y0602985D01*
X0074312Y0602985D01*
X0074312Y0595898D01*
X0112796Y0595898D01*
X0074312Y0602985D02*
X0074312Y0618713D01*
X0047796Y0614800D02*
X0047796Y0584898D01*
X0009312Y0584898D01*
X0009312Y0591985D01*
X0018859Y0591985D01*
X0018859Y0607713D01*
X0009312Y0607713D01*
X0009312Y0591985D01*
X0009312Y0607713D02*
X0009312Y0614800D01*
X0047796Y0614800D01*
X0047131Y0245398D02*
X0038469Y0245398D01*
X0030202Y0237131D02*
X0030202Y0228469D01*
X0038469Y0220202D02*
X0047131Y0220202D01*
X0055398Y0228469D02*
X0055398Y0237131D01*
X0036107Y0232800D02*
X0036109Y0232964D01*
X0036115Y0233128D01*
X0036125Y0233292D01*
X0036139Y0233456D01*
X0036157Y0233619D01*
X0036179Y0233782D01*
X0036206Y0233944D01*
X0036236Y0234106D01*
X0036270Y0234266D01*
X0036308Y0234426D01*
X0036349Y0234585D01*
X0036395Y0234743D01*
X0036445Y0234899D01*
X0036498Y0235055D01*
X0036555Y0235209D01*
X0036616Y0235361D01*
X0036681Y0235512D01*
X0036750Y0235662D01*
X0036822Y0235809D01*
X0036897Y0235955D01*
X0036977Y0236099D01*
X0037059Y0236241D01*
X0037145Y0236381D01*
X0037235Y0236518D01*
X0037328Y0236654D01*
X0037424Y0236787D01*
X0037524Y0236918D01*
X0037626Y0237046D01*
X0037732Y0237172D01*
X0037841Y0237295D01*
X0037953Y0237415D01*
X0038067Y0237533D01*
X0038185Y0237647D01*
X0038305Y0237759D01*
X0038428Y0237868D01*
X0038554Y0237974D01*
X0038682Y0238076D01*
X0038813Y0238176D01*
X0038946Y0238272D01*
X0039082Y0238365D01*
X0039219Y0238455D01*
X0039359Y0238541D01*
X0039501Y0238623D01*
X0039645Y0238703D01*
X0039791Y0238778D01*
X0039938Y0238850D01*
X0040088Y0238919D01*
X0040239Y0238984D01*
X0040391Y0239045D01*
X0040545Y0239102D01*
X0040701Y0239155D01*
X0040857Y0239205D01*
X0041015Y0239251D01*
X0041174Y0239292D01*
X0041334Y0239330D01*
X0041494Y0239364D01*
X0041656Y0239394D01*
X0041818Y0239421D01*
X0041981Y0239443D01*
X0042144Y0239461D01*
X0042308Y0239475D01*
X0042472Y0239485D01*
X0042636Y0239491D01*
X0042800Y0239493D01*
X0042964Y0239491D01*
X0043128Y0239485D01*
X0043292Y0239475D01*
X0043456Y0239461D01*
X0043619Y0239443D01*
X0043782Y0239421D01*
X0043944Y0239394D01*
X0044106Y0239364D01*
X0044266Y0239330D01*
X0044426Y0239292D01*
X0044585Y0239251D01*
X0044743Y0239205D01*
X0044899Y0239155D01*
X0045055Y0239102D01*
X0045209Y0239045D01*
X0045361Y0238984D01*
X0045512Y0238919D01*
X0045662Y0238850D01*
X0045809Y0238778D01*
X0045955Y0238703D01*
X0046099Y0238623D01*
X0046241Y0238541D01*
X0046381Y0238455D01*
X0046518Y0238365D01*
X0046654Y0238272D01*
X0046787Y0238176D01*
X0046918Y0238076D01*
X0047046Y0237974D01*
X0047172Y0237868D01*
X0047295Y0237759D01*
X0047415Y0237647D01*
X0047533Y0237533D01*
X0047647Y0237415D01*
X0047759Y0237295D01*
X0047868Y0237172D01*
X0047974Y0237046D01*
X0048076Y0236918D01*
X0048176Y0236787D01*
X0048272Y0236654D01*
X0048365Y0236518D01*
X0048455Y0236381D01*
X0048541Y0236241D01*
X0048623Y0236099D01*
X0048703Y0235955D01*
X0048778Y0235809D01*
X0048850Y0235662D01*
X0048919Y0235512D01*
X0048984Y0235361D01*
X0049045Y0235209D01*
X0049102Y0235055D01*
X0049155Y0234899D01*
X0049205Y0234743D01*
X0049251Y0234585D01*
X0049292Y0234426D01*
X0049330Y0234266D01*
X0049364Y0234106D01*
X0049394Y0233944D01*
X0049421Y0233782D01*
X0049443Y0233619D01*
X0049461Y0233456D01*
X0049475Y0233292D01*
X0049485Y0233128D01*
X0049491Y0232964D01*
X0049493Y0232800D01*
X0049491Y0232636D01*
X0049485Y0232472D01*
X0049475Y0232308D01*
X0049461Y0232144D01*
X0049443Y0231981D01*
X0049421Y0231818D01*
X0049394Y0231656D01*
X0049364Y0231494D01*
X0049330Y0231334D01*
X0049292Y0231174D01*
X0049251Y0231015D01*
X0049205Y0230857D01*
X0049155Y0230701D01*
X0049102Y0230545D01*
X0049045Y0230391D01*
X0048984Y0230239D01*
X0048919Y0230088D01*
X0048850Y0229938D01*
X0048778Y0229791D01*
X0048703Y0229645D01*
X0048623Y0229501D01*
X0048541Y0229359D01*
X0048455Y0229219D01*
X0048365Y0229082D01*
X0048272Y0228946D01*
X0048176Y0228813D01*
X0048076Y0228682D01*
X0047974Y0228554D01*
X0047868Y0228428D01*
X0047759Y0228305D01*
X0047647Y0228185D01*
X0047533Y0228067D01*
X0047415Y0227953D01*
X0047295Y0227841D01*
X0047172Y0227732D01*
X0047046Y0227626D01*
X0046918Y0227524D01*
X0046787Y0227424D01*
X0046654Y0227328D01*
X0046518Y0227235D01*
X0046381Y0227145D01*
X0046241Y0227059D01*
X0046099Y0226977D01*
X0045955Y0226897D01*
X0045809Y0226822D01*
X0045662Y0226750D01*
X0045512Y0226681D01*
X0045361Y0226616D01*
X0045209Y0226555D01*
X0045055Y0226498D01*
X0044899Y0226445D01*
X0044743Y0226395D01*
X0044585Y0226349D01*
X0044426Y0226308D01*
X0044266Y0226270D01*
X0044106Y0226236D01*
X0043944Y0226206D01*
X0043782Y0226179D01*
X0043619Y0226157D01*
X0043456Y0226139D01*
X0043292Y0226125D01*
X0043128Y0226115D01*
X0042964Y0226109D01*
X0042800Y0226107D01*
X0042636Y0226109D01*
X0042472Y0226115D01*
X0042308Y0226125D01*
X0042144Y0226139D01*
X0041981Y0226157D01*
X0041818Y0226179D01*
X0041656Y0226206D01*
X0041494Y0226236D01*
X0041334Y0226270D01*
X0041174Y0226308D01*
X0041015Y0226349D01*
X0040857Y0226395D01*
X0040701Y0226445D01*
X0040545Y0226498D01*
X0040391Y0226555D01*
X0040239Y0226616D01*
X0040088Y0226681D01*
X0039938Y0226750D01*
X0039791Y0226822D01*
X0039645Y0226897D01*
X0039501Y0226977D01*
X0039359Y0227059D01*
X0039219Y0227145D01*
X0039082Y0227235D01*
X0038946Y0227328D01*
X0038813Y0227424D01*
X0038682Y0227524D01*
X0038554Y0227626D01*
X0038428Y0227732D01*
X0038305Y0227841D01*
X0038185Y0227953D01*
X0038067Y0228067D01*
X0037953Y0228185D01*
X0037841Y0228305D01*
X0037732Y0228428D01*
X0037626Y0228554D01*
X0037524Y0228682D01*
X0037424Y0228813D01*
X0037328Y0228946D01*
X0037235Y0229082D01*
X0037145Y0229219D01*
X0037059Y0229359D01*
X0036977Y0229501D01*
X0036897Y0229645D01*
X0036822Y0229791D01*
X0036750Y0229938D01*
X0036681Y0230088D01*
X0036616Y0230239D01*
X0036555Y0230391D01*
X0036498Y0230545D01*
X0036445Y0230701D01*
X0036395Y0230857D01*
X0036349Y0231015D01*
X0036308Y0231174D01*
X0036270Y0231334D01*
X0036236Y0231494D01*
X0036206Y0231656D01*
X0036179Y0231818D01*
X0036157Y0231981D01*
X0036139Y0232144D01*
X0036125Y0232308D01*
X0036115Y0232472D01*
X0036109Y0232636D01*
X0036107Y0232800D01*
D12*
X0025100Y0231688D02*
X0022031Y0231688D01*
X0020496Y0233223D01*
X0022031Y0234757D01*
X0025100Y0234757D01*
X0022798Y0234757D02*
X0022798Y0231688D01*
X0020496Y0230154D02*
X0025100Y0230154D01*
X0025100Y0227084D02*
X0020496Y0227084D01*
X0022031Y0228619D01*
X0020496Y0230154D01*
X0021263Y0225550D02*
X0020496Y0224782D01*
X0020496Y0223248D01*
X0021263Y0222480D01*
X0022031Y0222480D01*
X0022798Y0223248D01*
X0022798Y0224782D01*
X0023565Y0225550D01*
X0024333Y0225550D01*
X0025100Y0224782D01*
X0025100Y0223248D01*
X0024333Y0222480D01*
X0022798Y0220946D02*
X0022798Y0217876D01*
X0024333Y0216342D02*
X0020496Y0216342D01*
X0020496Y0213272D02*
X0024333Y0213272D01*
X0025100Y0214040D01*
X0025100Y0215574D01*
X0024333Y0216342D01*
X0024333Y0211738D02*
X0023565Y0211738D01*
X0022798Y0210970D01*
X0022798Y0208669D01*
X0022798Y0210970D02*
X0022031Y0211738D01*
X0021263Y0211738D01*
X0020496Y0210970D01*
X0020496Y0208669D01*
X0025100Y0208669D01*
X0025100Y0210970D01*
X0024333Y0211738D01*
X0022798Y0236292D02*
X0022798Y0239361D01*
X0023565Y0240896D02*
X0025100Y0242431D01*
X0023565Y0243965D01*
X0020496Y0243965D01*
X0020496Y0240896D02*
X0023565Y0240896D01*
X0060496Y0240698D02*
X0062798Y0238396D01*
X0062798Y0241465D01*
X0065100Y0240698D02*
X0060496Y0240698D01*
X0060496Y0236861D02*
X0065100Y0233792D01*
X0065100Y0236861D02*
X0060496Y0233792D01*
X0150000Y0238000D02*
X0153069Y0238000D01*
X0151535Y0238000D02*
X0151535Y0242604D01*
X0150000Y0241069D01*
X0154604Y0241069D02*
X0154604Y0238767D01*
X0155371Y0238000D01*
X0157673Y0238000D01*
X0157673Y0241069D01*
X0166688Y0239535D02*
X0168990Y0239535D01*
X0169757Y0240302D01*
X0169757Y0241837D01*
X0168990Y0242604D01*
X0166688Y0242604D01*
X0166688Y0238000D01*
X0168223Y0239535D02*
X0169757Y0238000D01*
X0171292Y0238000D02*
X0174361Y0241069D01*
X0174361Y0241837D01*
X0173594Y0242604D01*
X0172059Y0242604D01*
X0171292Y0241837D01*
X0171292Y0238000D02*
X0174361Y0238000D01*
X0175896Y0238767D02*
X0175896Y0239535D01*
X0176663Y0240302D01*
X0178198Y0240302D01*
X0178965Y0239535D01*
X0178965Y0238767D01*
X0178198Y0238000D01*
X0176663Y0238000D01*
X0175896Y0238767D01*
X0176663Y0240302D02*
X0175896Y0241069D01*
X0175896Y0241837D01*
X0176663Y0242604D01*
X0178198Y0242604D01*
X0178965Y0241837D01*
X0178965Y0241069D01*
X0178198Y0240302D01*
X0178198Y0253000D02*
X0176663Y0253000D01*
X0175896Y0253767D01*
X0178965Y0256837D01*
X0178965Y0253767D01*
X0178198Y0253000D01*
X0175896Y0253767D02*
X0175896Y0256837D01*
X0176663Y0257604D01*
X0178198Y0257604D01*
X0178965Y0256837D01*
X0174361Y0253000D02*
X0171292Y0253000D01*
X0172827Y0253000D02*
X0172827Y0257604D01*
X0171292Y0256069D01*
X0162277Y0255302D02*
X0159208Y0255302D01*
X0161510Y0257604D01*
X0161510Y0253000D01*
X0157673Y0253000D02*
X0154604Y0253000D01*
X0156139Y0253000D02*
X0156139Y0257604D01*
X0154604Y0256069D01*
X0153069Y0256837D02*
X0152302Y0257604D01*
X0150767Y0257604D01*
X0150000Y0256837D01*
X0150000Y0253767D01*
X0150767Y0253000D01*
X0152302Y0253000D01*
X0153069Y0253767D01*
X0222000Y0225837D02*
X0222000Y0222767D01*
X0222767Y0222000D01*
X0224302Y0222000D01*
X0225069Y0222767D01*
X0226604Y0222000D02*
X0229673Y0222000D01*
X0228139Y0222000D02*
X0228139Y0226604D01*
X0226604Y0225069D01*
X0225069Y0225837D02*
X0224302Y0226604D01*
X0222767Y0226604D01*
X0222000Y0225837D01*
X0223535Y0211604D02*
X0222000Y0210069D01*
X0223535Y0211604D02*
X0223535Y0207000D01*
X0225069Y0207000D02*
X0222000Y0207000D01*
X0226604Y0207767D02*
X0227371Y0207000D01*
X0229673Y0207000D01*
X0229673Y0210069D01*
X0226604Y0210069D02*
X0226604Y0207767D01*
X0235496Y0209787D02*
X0237031Y0208253D01*
X0235496Y0209787D02*
X0240100Y0209787D01*
X0240100Y0208253D02*
X0240100Y0211322D01*
X0239333Y0212857D02*
X0240100Y0213624D01*
X0240100Y0215159D01*
X0239333Y0215926D01*
X0238565Y0215926D01*
X0237798Y0215159D01*
X0237798Y0213624D01*
X0237031Y0212857D01*
X0236263Y0212857D01*
X0235496Y0213624D01*
X0235496Y0215159D01*
X0236263Y0215926D01*
X0235496Y0217461D02*
X0237031Y0218995D01*
X0235496Y0220530D01*
X0240100Y0220530D01*
X0240100Y0222065D02*
X0240100Y0224367D01*
X0239333Y0225134D01*
X0238565Y0225134D01*
X0237798Y0224367D01*
X0237798Y0222065D01*
X0237798Y0224367D02*
X0237031Y0225134D01*
X0236263Y0225134D01*
X0235496Y0224367D01*
X0235496Y0222065D01*
X0240100Y0222065D01*
X0240100Y0217461D02*
X0235496Y0217461D01*
X0233510Y0222000D02*
X0234277Y0222767D01*
X0234277Y0223535D01*
X0233510Y0224302D01*
X0231208Y0224302D01*
X0231208Y0222767D01*
X0231975Y0222000D01*
X0233510Y0222000D01*
X0231208Y0224302D02*
X0232742Y0225837D01*
X0234277Y0226604D01*
X0235496Y0226668D02*
X0237798Y0226668D01*
X0237031Y0228203D01*
X0237031Y0228970D01*
X0237798Y0229738D01*
X0239333Y0229738D01*
X0240100Y0228970D01*
X0240100Y0227436D01*
X0239333Y0226668D01*
X0235496Y0226668D02*
X0235496Y0229738D01*
X0236263Y0231272D02*
X0237031Y0231272D01*
X0237798Y0232040D01*
X0237798Y0234342D01*
X0236263Y0234342D02*
X0235496Y0233574D01*
X0235496Y0232040D01*
X0236263Y0231272D01*
X0236263Y0234342D02*
X0239333Y0234342D01*
X0240100Y0233574D01*
X0240100Y0232040D01*
X0239333Y0231272D01*
X0240100Y0235876D02*
X0240100Y0238946D01*
X0240100Y0237411D02*
X0235496Y0237411D01*
X0237031Y0235876D01*
X0237031Y0240480D02*
X0236263Y0240480D01*
X0235496Y0241248D01*
X0235496Y0242782D01*
X0236263Y0243550D01*
X0237031Y0243550D01*
X0237798Y0242782D01*
X0237798Y0241248D01*
X0237031Y0240480D01*
X0237798Y0241248D02*
X0238565Y0240480D01*
X0239333Y0240480D01*
X0240100Y0241248D01*
X0240100Y0242782D01*
X0239333Y0243550D01*
X0238565Y0243550D01*
X0237798Y0242782D01*
X0237798Y0245084D02*
X0237798Y0247386D01*
X0238565Y0248153D01*
X0239333Y0248153D01*
X0240100Y0247386D01*
X0240100Y0245084D01*
X0235496Y0245084D01*
X0235496Y0247386D01*
X0236263Y0248153D01*
X0237031Y0248153D01*
X0237798Y0247386D01*
X0235496Y0249688D02*
X0235496Y0252757D01*
X0235496Y0251223D02*
X0240100Y0251223D01*
X0239333Y0254292D02*
X0240100Y0255059D01*
X0240100Y0256594D01*
X0239333Y0257361D01*
X0238565Y0257361D01*
X0237798Y0256594D01*
X0237798Y0255827D01*
X0237798Y0256594D02*
X0237031Y0257361D01*
X0236263Y0257361D01*
X0235496Y0256594D01*
X0235496Y0255059D01*
X0236263Y0254292D01*
X0236263Y0258896D02*
X0239333Y0258896D01*
X0240100Y0259663D01*
X0240100Y0261198D01*
X0239333Y0261965D01*
X0237798Y0261965D01*
X0237798Y0260431D01*
X0236263Y0261965D02*
X0235496Y0261198D01*
X0235496Y0259663D01*
X0236263Y0258896D01*
X0241300Y0263700D02*
X0241300Y0245900D01*
X0231673Y0267000D02*
X0229371Y0267000D01*
X0228604Y0267767D01*
X0228604Y0270069D01*
X0231673Y0270069D02*
X0231673Y0267000D01*
X0227069Y0267000D02*
X0224000Y0267000D01*
X0225535Y0267000D02*
X0225535Y0271604D01*
X0224000Y0270069D01*
X0224767Y0282000D02*
X0226302Y0282000D01*
X0227069Y0282767D01*
X0228604Y0282000D02*
X0231673Y0282000D01*
X0230139Y0282000D02*
X0230139Y0286604D01*
X0228604Y0285069D01*
X0227069Y0285837D02*
X0226302Y0286604D01*
X0224767Y0286604D01*
X0224000Y0285837D01*
X0224000Y0282767D01*
X0224767Y0282000D01*
X0233208Y0282767D02*
X0233975Y0282000D01*
X0235510Y0282000D01*
X0236277Y0282767D01*
X0236277Y0284302D01*
X0235510Y0285069D01*
X0234742Y0285069D01*
X0233208Y0284302D01*
X0233208Y0286604D01*
X0236277Y0286604D01*
X0255900Y0287300D02*
X0273700Y0287300D01*
X0272173Y0286767D02*
X0271406Y0286000D01*
X0269871Y0286000D01*
X0269104Y0286767D01*
X0272173Y0289837D01*
X0272173Y0286767D01*
X0269104Y0286767D02*
X0269104Y0289837D01*
X0269871Y0290604D01*
X0271406Y0290604D01*
X0272173Y0289837D01*
X0268777Y0290802D02*
X0265708Y0290802D01*
X0268010Y0293104D01*
X0268010Y0288500D01*
X0267569Y0286000D02*
X0264500Y0286000D01*
X0266035Y0286000D02*
X0266035Y0290604D01*
X0264500Y0289069D01*
X0264173Y0288500D02*
X0261104Y0288500D01*
X0264173Y0291569D01*
X0264173Y0292337D01*
X0263406Y0293104D01*
X0261871Y0293104D01*
X0261104Y0292337D01*
X0259569Y0292337D02*
X0258802Y0293104D01*
X0256500Y0293104D01*
X0256500Y0288500D01*
X0258802Y0288500D01*
X0259569Y0289267D01*
X0259569Y0292337D01*
X0264500Y0301000D02*
X0264500Y0305604D01*
X0266802Y0305604D01*
X0267569Y0304837D01*
X0267569Y0303302D01*
X0266802Y0302535D01*
X0264500Y0302535D01*
X0266035Y0302535D02*
X0267569Y0301000D01*
X0269104Y0301000D02*
X0272173Y0304069D01*
X0272173Y0304837D01*
X0271406Y0305604D01*
X0269871Y0305604D01*
X0269104Y0304837D01*
X0269871Y0307000D02*
X0269104Y0307767D01*
X0272173Y0310837D01*
X0272173Y0307767D01*
X0271406Y0307000D01*
X0269871Y0307000D01*
X0269104Y0307767D02*
X0269104Y0310837D01*
X0269871Y0311604D01*
X0271406Y0311604D01*
X0272173Y0310837D01*
X0267569Y0307000D02*
X0264500Y0307000D01*
X0266035Y0307000D02*
X0266035Y0311604D01*
X0264500Y0310069D01*
X0269104Y0301000D02*
X0272173Y0301000D01*
X0273708Y0301767D02*
X0274475Y0301000D01*
X0276010Y0301000D01*
X0276777Y0301767D01*
X0276777Y0302535D01*
X0276010Y0303302D01*
X0273708Y0303302D01*
X0273708Y0301767D01*
X0273708Y0303302D02*
X0275242Y0304837D01*
X0276777Y0305604D01*
X0276010Y0322000D02*
X0274475Y0322000D01*
X0273708Y0322767D01*
X0273965Y0323267D02*
X0273198Y0322500D01*
X0271663Y0322500D01*
X0270896Y0323267D01*
X0270896Y0324035D01*
X0271663Y0324802D01*
X0273198Y0324802D01*
X0273965Y0324035D01*
X0273965Y0323267D01*
X0274475Y0324302D02*
X0276777Y0324302D01*
X0276777Y0325837D02*
X0276010Y0326604D01*
X0274475Y0326604D01*
X0273708Y0325837D01*
X0273708Y0325069D01*
X0274475Y0324302D01*
X0273965Y0325569D02*
X0273198Y0324802D01*
X0273965Y0325569D02*
X0273965Y0326337D01*
X0273198Y0327104D01*
X0271663Y0327104D01*
X0270896Y0326337D01*
X0270896Y0325569D01*
X0271663Y0324802D01*
X0270639Y0326604D02*
X0270639Y0322000D01*
X0269361Y0322500D02*
X0266292Y0322500D01*
X0266035Y0323535D02*
X0267569Y0322000D01*
X0267827Y0322500D02*
X0267827Y0327104D01*
X0266292Y0325569D01*
X0266802Y0326604D02*
X0264500Y0326604D01*
X0264500Y0322000D01*
X0263990Y0322500D02*
X0264757Y0323267D01*
X0264757Y0326337D01*
X0263990Y0327104D01*
X0261688Y0327104D01*
X0261688Y0322500D01*
X0263990Y0322500D01*
X0264500Y0323535D02*
X0266802Y0323535D01*
X0267569Y0324302D01*
X0267569Y0325837D01*
X0266802Y0326604D01*
X0269104Y0325069D02*
X0270639Y0326604D01*
X0272173Y0322000D02*
X0269104Y0322000D01*
X0276010Y0322000D02*
X0276777Y0322767D01*
X0276777Y0325837D01*
X0275700Y0328300D02*
X0257900Y0328300D01*
X0257900Y0343300D02*
X0275700Y0343300D01*
X0275600Y0356500D02*
X0270996Y0356500D01*
X0270996Y0358802D01*
X0271763Y0359569D01*
X0273298Y0359569D01*
X0274065Y0358802D01*
X0274065Y0356500D01*
X0274065Y0358035D02*
X0275600Y0359569D01*
X0275600Y0361104D02*
X0275600Y0364173D01*
X0275600Y0362639D02*
X0270996Y0362639D01*
X0272531Y0361104D01*
X0270996Y0365708D02*
X0270996Y0368777D01*
X0271763Y0368777D01*
X0274833Y0365708D01*
X0275600Y0365708D01*
X0285996Y0366475D02*
X0285996Y0368010D01*
X0286763Y0368777D01*
X0289833Y0365708D01*
X0290600Y0366475D01*
X0290600Y0368010D01*
X0289833Y0368777D01*
X0286763Y0368777D01*
X0285996Y0370312D02*
X0290600Y0370312D01*
X0289065Y0370312D02*
X0287531Y0372614D01*
X0289065Y0370312D02*
X0290600Y0372614D01*
X0285996Y0366475D02*
X0286763Y0365708D01*
X0289833Y0365708D01*
X0289833Y0364173D02*
X0290600Y0363406D01*
X0290600Y0361871D01*
X0289833Y0361104D01*
X0286763Y0364173D01*
X0289833Y0364173D01*
X0289833Y0361104D02*
X0286763Y0361104D01*
X0285996Y0361871D01*
X0285996Y0363406D01*
X0286763Y0364173D01*
X0290600Y0359569D02*
X0290600Y0356500D01*
X0290600Y0358035D02*
X0285996Y0358035D01*
X0287531Y0356500D01*
X0296531Y0350498D02*
X0296531Y0347429D01*
X0298066Y0345894D01*
X0299600Y0347429D01*
X0299600Y0350498D01*
X0301135Y0350498D02*
X0303437Y0350498D01*
X0304204Y0349731D01*
X0304204Y0348196D01*
X0303437Y0347429D01*
X0301135Y0347429D01*
X0301135Y0345894D02*
X0301135Y0350498D01*
X0305739Y0349731D02*
X0306506Y0350498D01*
X0308041Y0350498D01*
X0308808Y0349731D01*
X0308808Y0348963D01*
X0305739Y0345894D01*
X0308808Y0345894D01*
X0310343Y0348196D02*
X0313412Y0348196D01*
X0314947Y0348196D02*
X0316481Y0348963D01*
X0317249Y0348963D01*
X0318016Y0348196D01*
X0318016Y0346661D01*
X0317249Y0345894D01*
X0315714Y0345894D01*
X0314947Y0346661D01*
X0314947Y0348196D02*
X0314947Y0350498D01*
X0318016Y0350498D01*
X0319551Y0349731D02*
X0320318Y0350498D01*
X0321853Y0350498D01*
X0322620Y0349731D01*
X0319551Y0346661D01*
X0320318Y0345894D01*
X0321853Y0345894D01*
X0322620Y0346661D01*
X0322620Y0349731D01*
X0323565Y0349000D02*
X0323565Y0351302D01*
X0322798Y0352069D01*
X0321263Y0352069D01*
X0320496Y0351302D01*
X0320496Y0349000D01*
X0325100Y0349000D01*
X0323565Y0350535D02*
X0325100Y0352069D01*
X0325100Y0353604D02*
X0325100Y0356673D01*
X0325100Y0355139D02*
X0320496Y0355139D01*
X0322031Y0353604D01*
X0319551Y0349731D02*
X0319551Y0346661D01*
X0322798Y0358208D02*
X0322798Y0360510D01*
X0323565Y0361277D01*
X0324333Y0361277D01*
X0325100Y0360510D01*
X0325100Y0358975D01*
X0324333Y0358208D01*
X0322798Y0358208D01*
X0321263Y0359742D01*
X0320496Y0361277D01*
X0312645Y0350498D02*
X0310343Y0348196D01*
X0312645Y0345894D02*
X0312645Y0350498D01*
X0312114Y0375500D02*
X0310579Y0375500D01*
X0309812Y0376267D01*
X0312881Y0379337D01*
X0312881Y0376267D01*
X0312114Y0375500D01*
X0309812Y0376267D02*
X0309812Y0379337D01*
X0310579Y0380104D01*
X0312114Y0380104D01*
X0312881Y0379337D01*
X0308277Y0375500D02*
X0305208Y0375500D01*
X0306742Y0375500D02*
X0306742Y0380104D01*
X0305208Y0378569D01*
X0303673Y0379337D02*
X0302906Y0380104D01*
X0301371Y0380104D01*
X0300604Y0379337D01*
X0300604Y0378569D01*
X0301371Y0377802D01*
X0302906Y0377802D01*
X0303673Y0377035D01*
X0303673Y0376267D01*
X0302906Y0375500D01*
X0301371Y0375500D01*
X0300604Y0376267D01*
X0299069Y0376267D02*
X0299069Y0380104D01*
X0296000Y0380104D02*
X0296000Y0376267D01*
X0296767Y0375500D01*
X0298302Y0375500D01*
X0299069Y0376267D01*
X0302139Y0374733D02*
X0302139Y0380871D01*
X0274777Y0392767D02*
X0274010Y0392000D01*
X0272475Y0392000D01*
X0271708Y0392767D01*
X0274777Y0395837D01*
X0274777Y0392767D01*
X0272965Y0392802D02*
X0270663Y0392802D01*
X0269896Y0393569D01*
X0269896Y0394337D01*
X0270663Y0395104D01*
X0272198Y0395104D01*
X0272965Y0394337D01*
X0272965Y0391267D01*
X0272198Y0390500D01*
X0270663Y0390500D01*
X0269896Y0391267D01*
X0270173Y0392000D02*
X0267104Y0392000D01*
X0270173Y0395069D01*
X0270173Y0395837D01*
X0269406Y0396604D01*
X0267871Y0396604D01*
X0267104Y0395837D01*
X0266827Y0395104D02*
X0266827Y0390500D01*
X0268361Y0390500D02*
X0265292Y0390500D01*
X0265569Y0392000D02*
X0264035Y0393535D01*
X0264802Y0393535D02*
X0262500Y0393535D01*
X0263757Y0394337D02*
X0262990Y0395104D01*
X0260688Y0395104D01*
X0260688Y0390500D01*
X0262990Y0390500D01*
X0263757Y0391267D01*
X0263757Y0394337D01*
X0264802Y0393535D02*
X0265569Y0394302D01*
X0265569Y0395837D01*
X0264802Y0396604D01*
X0262500Y0396604D01*
X0262500Y0392000D01*
X0265292Y0393569D02*
X0266827Y0395104D01*
X0271708Y0395837D02*
X0272475Y0396604D01*
X0274010Y0396604D01*
X0274777Y0395837D01*
X0274700Y0396300D02*
X0256900Y0396300D01*
X0256900Y0411300D02*
X0274700Y0411300D01*
X0271708Y0395837D02*
X0271708Y0392767D01*
X0269406Y0381604D02*
X0270173Y0380837D01*
X0267104Y0377767D01*
X0267871Y0377000D01*
X0269406Y0377000D01*
X0270173Y0377767D01*
X0270173Y0380837D01*
X0269406Y0381604D02*
X0267871Y0381604D01*
X0267104Y0380837D01*
X0267104Y0377767D01*
X0265569Y0377000D02*
X0262500Y0377000D01*
X0264035Y0377000D02*
X0264035Y0381604D01*
X0262500Y0380069D01*
X0258300Y0369700D02*
X0258300Y0351900D01*
X0259496Y0355688D02*
X0259496Y0357990D01*
X0260263Y0358757D01*
X0263333Y0358757D01*
X0264100Y0357990D01*
X0264100Y0355688D01*
X0259496Y0355688D01*
X0261031Y0360292D02*
X0259496Y0361827D01*
X0264100Y0361827D01*
X0264100Y0363361D02*
X0264100Y0360292D01*
X0263333Y0364896D02*
X0264100Y0365663D01*
X0264100Y0367198D01*
X0263333Y0367965D01*
X0262565Y0367965D01*
X0261798Y0367198D01*
X0261798Y0364896D01*
X0263333Y0364896D01*
X0261798Y0364896D02*
X0260263Y0366431D01*
X0259496Y0367965D01*
X0243300Y0369700D02*
X0243300Y0351900D01*
X0242100Y0351084D02*
X0242100Y0353386D01*
X0241333Y0354153D01*
X0240565Y0354153D01*
X0239798Y0353386D01*
X0239798Y0351084D01*
X0239031Y0349550D02*
X0239798Y0348782D01*
X0239798Y0347248D01*
X0239031Y0346480D01*
X0238263Y0346480D01*
X0237496Y0347248D01*
X0237496Y0348782D01*
X0238263Y0349550D01*
X0239031Y0349550D01*
X0239798Y0348782D02*
X0240565Y0349550D01*
X0241333Y0349550D01*
X0242100Y0348782D01*
X0242100Y0347248D01*
X0241333Y0346480D01*
X0240565Y0346480D01*
X0239798Y0347248D01*
X0237510Y0345604D02*
X0238277Y0344837D01*
X0235208Y0341767D01*
X0235975Y0341000D01*
X0237510Y0341000D01*
X0238277Y0341767D01*
X0238277Y0344837D01*
X0237510Y0345604D02*
X0235975Y0345604D01*
X0235208Y0344837D01*
X0235208Y0341767D01*
X0233673Y0341000D02*
X0230604Y0341000D01*
X0232139Y0341000D02*
X0232139Y0345604D01*
X0230604Y0344069D01*
X0229069Y0344837D02*
X0228302Y0345604D01*
X0226767Y0345604D01*
X0226000Y0344837D01*
X0226000Y0341767D01*
X0226767Y0341000D01*
X0228302Y0341000D01*
X0229069Y0341767D01*
X0237496Y0343411D02*
X0242100Y0343411D01*
X0242100Y0341876D02*
X0242100Y0344946D01*
X0239031Y0341876D02*
X0237496Y0343411D01*
X0238263Y0340342D02*
X0237496Y0339574D01*
X0237496Y0338040D01*
X0238263Y0337272D01*
X0239031Y0337272D01*
X0239798Y0338040D01*
X0239798Y0340342D01*
X0241333Y0340342D02*
X0238263Y0340342D01*
X0241333Y0340342D02*
X0242100Y0339574D01*
X0242100Y0338040D01*
X0241333Y0337272D01*
X0241333Y0335738D02*
X0242100Y0334970D01*
X0242100Y0333436D01*
X0241333Y0332668D01*
X0241333Y0331134D02*
X0242100Y0330367D01*
X0242100Y0328065D01*
X0237496Y0328065D01*
X0237496Y0330367D01*
X0238263Y0331134D01*
X0239031Y0331134D01*
X0239798Y0330367D01*
X0239798Y0328065D01*
X0239798Y0330367D02*
X0240565Y0331134D01*
X0241333Y0331134D01*
X0239798Y0332668D02*
X0239031Y0334203D01*
X0239031Y0334970D01*
X0239798Y0335738D01*
X0241333Y0335738D01*
X0239798Y0332668D02*
X0237496Y0332668D01*
X0237496Y0335738D01*
X0233673Y0329069D02*
X0233673Y0326000D01*
X0231371Y0326000D01*
X0230604Y0326767D01*
X0230604Y0329069D01*
X0229069Y0326000D02*
X0226000Y0326000D01*
X0227535Y0326000D02*
X0227535Y0330604D01*
X0226000Y0329069D01*
X0237496Y0326530D02*
X0242100Y0326530D01*
X0242100Y0323461D02*
X0237496Y0323461D01*
X0239031Y0324995D01*
X0237496Y0326530D01*
X0238263Y0321926D02*
X0237496Y0321159D01*
X0237496Y0319624D01*
X0238263Y0318857D01*
X0239031Y0318857D01*
X0239798Y0319624D01*
X0239798Y0321159D01*
X0240565Y0321926D01*
X0241333Y0321926D01*
X0242100Y0321159D01*
X0242100Y0319624D01*
X0241333Y0318857D01*
X0242100Y0317322D02*
X0242100Y0314253D01*
X0242100Y0315787D02*
X0237496Y0315787D01*
X0239031Y0314253D01*
X0237496Y0351084D02*
X0237496Y0353386D01*
X0238263Y0354153D01*
X0239031Y0354153D01*
X0239798Y0353386D01*
X0242100Y0351084D02*
X0237496Y0351084D01*
X0237496Y0355688D02*
X0237496Y0358757D01*
X0237496Y0357223D02*
X0242100Y0357223D01*
X0241333Y0360292D02*
X0242100Y0361059D01*
X0242100Y0362594D01*
X0241333Y0363361D01*
X0240565Y0363361D01*
X0239798Y0362594D01*
X0239798Y0361827D01*
X0239798Y0362594D02*
X0239031Y0363361D01*
X0238263Y0363361D01*
X0237496Y0362594D01*
X0237496Y0361059D01*
X0238263Y0360292D01*
X0238263Y0364896D02*
X0241333Y0364896D01*
X0242100Y0365663D01*
X0242100Y0367198D01*
X0241333Y0367965D01*
X0239798Y0367965D01*
X0239798Y0366431D01*
X0238263Y0367965D02*
X0237496Y0367198D01*
X0237496Y0365663D01*
X0238263Y0364896D01*
X0240031Y0382253D02*
X0238496Y0383787D01*
X0243100Y0383787D01*
X0243100Y0382253D02*
X0243100Y0385322D01*
X0242333Y0386857D02*
X0243100Y0387624D01*
X0243100Y0389159D01*
X0242333Y0389926D01*
X0241565Y0389926D01*
X0240798Y0389159D01*
X0240798Y0387624D01*
X0240031Y0386857D01*
X0239263Y0386857D01*
X0238496Y0387624D01*
X0238496Y0389159D01*
X0239263Y0389926D01*
X0238496Y0391461D02*
X0240031Y0392995D01*
X0238496Y0394530D01*
X0243100Y0394530D01*
X0243100Y0396065D02*
X0243100Y0398367D01*
X0242333Y0399134D01*
X0241565Y0399134D01*
X0240798Y0398367D01*
X0240798Y0396065D01*
X0240798Y0398367D02*
X0240031Y0399134D01*
X0239263Y0399134D01*
X0238496Y0398367D01*
X0238496Y0396065D01*
X0243100Y0396065D01*
X0243100Y0391461D02*
X0238496Y0391461D01*
X0232673Y0394000D02*
X0232673Y0397069D01*
X0232673Y0394000D02*
X0230371Y0394000D01*
X0229604Y0394767D01*
X0229604Y0397069D01*
X0228069Y0394000D02*
X0225000Y0394000D01*
X0226535Y0394000D02*
X0226535Y0398604D01*
X0225000Y0397069D01*
X0225767Y0409000D02*
X0227302Y0409000D01*
X0228069Y0409767D01*
X0229604Y0409000D02*
X0232673Y0409000D01*
X0231139Y0409000D02*
X0231139Y0413604D01*
X0229604Y0412069D01*
X0228069Y0412837D02*
X0227302Y0413604D01*
X0225767Y0413604D01*
X0225000Y0412837D01*
X0225000Y0409767D01*
X0225767Y0409000D01*
X0234208Y0409000D02*
X0237277Y0412069D01*
X0237277Y0412837D01*
X0236510Y0413604D01*
X0234975Y0413604D01*
X0234208Y0412837D01*
X0234208Y0409000D02*
X0237277Y0409000D01*
X0238496Y0407574D02*
X0238496Y0406040D01*
X0239263Y0405272D01*
X0240031Y0405272D01*
X0240798Y0406040D01*
X0240798Y0408342D01*
X0239263Y0408342D02*
X0238496Y0407574D01*
X0239263Y0408342D02*
X0242333Y0408342D01*
X0243100Y0407574D01*
X0243100Y0406040D01*
X0242333Y0405272D01*
X0242333Y0403738D02*
X0240798Y0403738D01*
X0240031Y0402970D01*
X0240031Y0402203D01*
X0240798Y0400668D01*
X0238496Y0400668D01*
X0238496Y0403738D01*
X0242333Y0403738D02*
X0243100Y0402970D01*
X0243100Y0401436D01*
X0242333Y0400668D01*
X0243100Y0409876D02*
X0243100Y0412946D01*
X0243100Y0411411D02*
X0238496Y0411411D01*
X0240031Y0409876D01*
X0240031Y0414480D02*
X0239263Y0414480D01*
X0238496Y0415248D01*
X0238496Y0416782D01*
X0239263Y0417550D01*
X0240031Y0417550D01*
X0240798Y0416782D01*
X0240798Y0415248D01*
X0240031Y0414480D01*
X0240798Y0415248D02*
X0241565Y0414480D01*
X0242333Y0414480D01*
X0243100Y0415248D01*
X0243100Y0416782D01*
X0242333Y0417550D01*
X0241565Y0417550D01*
X0240798Y0416782D01*
X0240798Y0419084D02*
X0240798Y0421386D01*
X0241565Y0422153D01*
X0242333Y0422153D01*
X0243100Y0421386D01*
X0243100Y0419084D01*
X0238496Y0419084D01*
X0238496Y0421386D01*
X0239263Y0422153D01*
X0240031Y0422153D01*
X0240798Y0421386D01*
X0238496Y0423688D02*
X0238496Y0426757D01*
X0238496Y0425223D02*
X0243100Y0425223D01*
X0242333Y0428292D02*
X0243100Y0429059D01*
X0243100Y0430594D01*
X0242333Y0431361D01*
X0241565Y0431361D01*
X0240798Y0430594D01*
X0240798Y0429827D01*
X0240798Y0430594D02*
X0240031Y0431361D01*
X0239263Y0431361D01*
X0238496Y0430594D01*
X0238496Y0429059D01*
X0239263Y0428292D01*
X0239263Y0432896D02*
X0242333Y0432896D01*
X0243100Y0433663D01*
X0243100Y0435198D01*
X0242333Y0435965D01*
X0240798Y0435965D01*
X0240798Y0434431D01*
X0239263Y0435965D02*
X0238496Y0435198D01*
X0238496Y0433663D01*
X0239263Y0432896D01*
X0244300Y0437700D02*
X0244300Y0419900D01*
X0259300Y0419900D02*
X0259300Y0437700D01*
X0260496Y0435965D02*
X0261263Y0435965D01*
X0264333Y0432896D01*
X0265100Y0432896D01*
X0265100Y0431361D02*
X0265100Y0428292D01*
X0265100Y0429827D02*
X0260496Y0429827D01*
X0262031Y0428292D01*
X0261263Y0426757D02*
X0260496Y0425990D01*
X0260496Y0423688D01*
X0265100Y0423688D01*
X0265100Y0425990D01*
X0264333Y0426757D01*
X0261263Y0426757D01*
X0260496Y0432896D02*
X0260496Y0435965D01*
X0268996Y0437639D02*
X0273600Y0437639D01*
X0273600Y0439173D02*
X0273600Y0436104D01*
X0273600Y0434569D02*
X0272065Y0433035D01*
X0272065Y0433802D02*
X0272065Y0431500D01*
X0273600Y0431500D02*
X0268996Y0431500D01*
X0268996Y0433802D01*
X0269763Y0434569D01*
X0271298Y0434569D01*
X0272065Y0433802D01*
X0270531Y0436104D02*
X0268996Y0437639D01*
X0269763Y0440708D02*
X0270531Y0440708D01*
X0271298Y0441475D01*
X0271298Y0443010D01*
X0272065Y0443777D01*
X0272833Y0443777D01*
X0273600Y0443010D01*
X0273600Y0441475D01*
X0272833Y0440708D01*
X0272065Y0440708D01*
X0271298Y0441475D01*
X0271298Y0443010D02*
X0270531Y0443777D01*
X0269763Y0443777D01*
X0268996Y0443010D01*
X0268996Y0441475D01*
X0269763Y0440708D01*
X0268406Y0448000D02*
X0266871Y0448000D01*
X0266104Y0448767D01*
X0269173Y0451837D01*
X0269173Y0448767D01*
X0268406Y0448000D01*
X0266104Y0448767D02*
X0266104Y0451837D01*
X0266871Y0452604D01*
X0268406Y0452604D01*
X0269173Y0451837D01*
X0264569Y0448000D02*
X0261500Y0448000D01*
X0263035Y0448000D02*
X0263035Y0452604D01*
X0261500Y0451069D01*
X0261500Y0463000D02*
X0261500Y0467604D01*
X0263802Y0467604D01*
X0264569Y0466837D01*
X0264569Y0465302D01*
X0263802Y0464535D01*
X0261500Y0464535D01*
X0263035Y0464535D02*
X0264569Y0463000D01*
X0264292Y0463500D02*
X0266594Y0463500D01*
X0267361Y0464267D01*
X0267361Y0467337D01*
X0266594Y0468104D01*
X0264292Y0468104D01*
X0264292Y0463500D01*
X0266104Y0463767D02*
X0266871Y0463000D01*
X0268406Y0463000D01*
X0269173Y0463767D01*
X0269173Y0464535D01*
X0268406Y0465302D01*
X0266104Y0465302D01*
X0266104Y0463767D01*
X0266104Y0465302D02*
X0267639Y0466837D01*
X0269173Y0467604D01*
X0268896Y0467337D02*
X0269663Y0468104D01*
X0271198Y0468104D01*
X0271965Y0467337D01*
X0271965Y0466569D01*
X0271198Y0465802D01*
X0271965Y0465035D01*
X0271965Y0464267D01*
X0271198Y0463500D01*
X0269663Y0463500D01*
X0268896Y0464267D01*
X0270431Y0465802D02*
X0271198Y0465802D01*
X0273700Y0469300D02*
X0255900Y0469300D01*
X0244100Y0470065D02*
X0244100Y0472367D01*
X0243333Y0473134D01*
X0242565Y0473134D01*
X0241798Y0472367D01*
X0241798Y0470065D01*
X0241798Y0472367D02*
X0241031Y0473134D01*
X0240263Y0473134D01*
X0239496Y0472367D01*
X0239496Y0470065D01*
X0244100Y0470065D01*
X0244100Y0468530D02*
X0239496Y0468530D01*
X0241031Y0466995D01*
X0239496Y0465461D01*
X0244100Y0465461D01*
X0243333Y0463926D02*
X0244100Y0463159D01*
X0244100Y0461624D01*
X0243333Y0460857D01*
X0244100Y0459322D02*
X0244100Y0456253D01*
X0244100Y0457787D02*
X0239496Y0457787D01*
X0241031Y0456253D01*
X0241031Y0460857D02*
X0241798Y0461624D01*
X0241798Y0463159D01*
X0242565Y0463926D01*
X0243333Y0463926D01*
X0240263Y0463926D02*
X0239496Y0463159D01*
X0239496Y0461624D01*
X0240263Y0460857D01*
X0241031Y0460857D01*
X0233673Y0466000D02*
X0233673Y0469069D01*
X0233673Y0466000D02*
X0231371Y0466000D01*
X0230604Y0466767D01*
X0230604Y0469069D01*
X0229069Y0466000D02*
X0226000Y0466000D01*
X0227535Y0466000D02*
X0227535Y0470604D01*
X0226000Y0469069D01*
X0226767Y0481000D02*
X0226000Y0481767D01*
X0226000Y0484837D01*
X0226767Y0485604D01*
X0228302Y0485604D01*
X0229069Y0484837D01*
X0230604Y0484069D02*
X0232139Y0485604D01*
X0232139Y0481000D01*
X0233673Y0481000D02*
X0230604Y0481000D01*
X0229069Y0481767D02*
X0228302Y0481000D01*
X0226767Y0481000D01*
X0239496Y0481574D02*
X0239496Y0480040D01*
X0240263Y0479272D01*
X0241031Y0479272D01*
X0241798Y0480040D01*
X0241798Y0482342D01*
X0240263Y0482342D02*
X0239496Y0481574D01*
X0240263Y0482342D02*
X0243333Y0482342D01*
X0244100Y0481574D01*
X0244100Y0480040D01*
X0243333Y0479272D01*
X0243333Y0477738D02*
X0244100Y0476970D01*
X0244100Y0475436D01*
X0243333Y0474668D01*
X0241798Y0474668D02*
X0241031Y0476203D01*
X0241031Y0476970D01*
X0241798Y0477738D01*
X0243333Y0477738D01*
X0241798Y0474668D02*
X0239496Y0474668D01*
X0239496Y0477738D01*
X0241031Y0483876D02*
X0239496Y0485411D01*
X0244100Y0485411D01*
X0244100Y0483876D02*
X0244100Y0486946D01*
X0243333Y0488480D02*
X0242565Y0488480D01*
X0241798Y0489248D01*
X0241798Y0490782D01*
X0242565Y0491550D01*
X0243333Y0491550D01*
X0244100Y0490782D01*
X0244100Y0489248D01*
X0243333Y0488480D01*
X0241798Y0489248D02*
X0241031Y0488480D01*
X0240263Y0488480D01*
X0239496Y0489248D01*
X0239496Y0490782D01*
X0240263Y0491550D01*
X0241031Y0491550D01*
X0241798Y0490782D01*
X0241798Y0493084D02*
X0241798Y0495386D01*
X0242565Y0496153D01*
X0243333Y0496153D01*
X0244100Y0495386D01*
X0244100Y0493084D01*
X0239496Y0493084D01*
X0239496Y0495386D01*
X0240263Y0496153D01*
X0241031Y0496153D01*
X0241798Y0495386D01*
X0239496Y0497688D02*
X0239496Y0500757D01*
X0239496Y0499223D02*
X0244100Y0499223D01*
X0243333Y0502292D02*
X0244100Y0503059D01*
X0244100Y0504594D01*
X0243333Y0505361D01*
X0242565Y0505361D01*
X0241798Y0504594D01*
X0241798Y0503827D01*
X0241798Y0504594D02*
X0241031Y0505361D01*
X0240263Y0505361D01*
X0239496Y0504594D01*
X0239496Y0503059D01*
X0240263Y0502292D01*
X0240263Y0506896D02*
X0243333Y0506896D01*
X0244100Y0507663D01*
X0244100Y0509198D01*
X0243333Y0509965D01*
X0241798Y0509965D01*
X0241798Y0508431D01*
X0240263Y0509965D02*
X0239496Y0509198D01*
X0239496Y0507663D01*
X0240263Y0506896D01*
X0245300Y0511700D02*
X0245300Y0493900D01*
X0255900Y0484300D02*
X0273700Y0484300D01*
X0273600Y0499500D02*
X0268996Y0499500D01*
X0268996Y0501802D01*
X0269763Y0502569D01*
X0271298Y0502569D01*
X0272065Y0501802D01*
X0272065Y0499500D01*
X0272065Y0501035D02*
X0273600Y0502569D01*
X0273600Y0504104D02*
X0273600Y0507173D01*
X0273600Y0505639D02*
X0268996Y0505639D01*
X0270531Y0504104D01*
X0266100Y0504594D02*
X0266100Y0502292D01*
X0261496Y0502292D01*
X0261496Y0504594D01*
X0262263Y0505361D01*
X0265333Y0505361D01*
X0266100Y0504594D01*
X0266100Y0506896D02*
X0263031Y0509965D01*
X0262263Y0509965D01*
X0261496Y0509198D01*
X0261496Y0507663D01*
X0262263Y0506896D01*
X0266100Y0506896D02*
X0266100Y0509965D01*
X0260300Y0511700D02*
X0260300Y0493900D01*
X0263500Y0522000D02*
X0266569Y0522000D01*
X0265035Y0522000D02*
X0265035Y0526604D01*
X0263500Y0525069D01*
X0268104Y0525837D02*
X0268104Y0522767D01*
X0271173Y0525837D01*
X0271173Y0522767D01*
X0270406Y0522000D01*
X0268871Y0522000D01*
X0268104Y0522767D01*
X0268104Y0525837D02*
X0268871Y0526604D01*
X0270406Y0526604D01*
X0271173Y0525837D01*
X0270406Y0537000D02*
X0268871Y0537000D01*
X0268104Y0537767D01*
X0268104Y0538535D01*
X0268871Y0539302D01*
X0270406Y0539302D01*
X0271173Y0538535D01*
X0271173Y0537767D01*
X0270406Y0537000D01*
X0269896Y0537500D02*
X0269896Y0538267D01*
X0272965Y0541337D01*
X0272965Y0542104D01*
X0269896Y0542104D01*
X0270406Y0541604D02*
X0271173Y0540837D01*
X0271173Y0540069D01*
X0270406Y0539302D01*
X0268871Y0539302D02*
X0268104Y0540069D01*
X0268104Y0540837D01*
X0268871Y0541604D01*
X0270406Y0541604D01*
X0268361Y0541337D02*
X0267594Y0542104D01*
X0265292Y0542104D01*
X0265292Y0537500D01*
X0267594Y0537500D01*
X0268361Y0538267D01*
X0268361Y0541337D01*
X0266569Y0540837D02*
X0266569Y0539302D01*
X0265802Y0538535D01*
X0263500Y0538535D01*
X0265035Y0538535D02*
X0266569Y0537000D01*
X0263500Y0537000D02*
X0263500Y0541604D01*
X0265802Y0541604D01*
X0266569Y0540837D01*
X0274700Y0543300D02*
X0256900Y0543300D01*
X0256900Y0558300D02*
X0274700Y0558300D01*
X0272600Y0574500D02*
X0267996Y0574500D01*
X0267996Y0576802D01*
X0268763Y0577569D01*
X0270298Y0577569D01*
X0271065Y0576802D01*
X0271065Y0574500D01*
X0271065Y0576035D02*
X0272600Y0577569D01*
X0272600Y0579104D02*
X0269531Y0582173D01*
X0268763Y0582173D01*
X0267996Y0581406D01*
X0267996Y0579871D01*
X0268763Y0579104D01*
X0266100Y0577594D02*
X0265333Y0578361D01*
X0262263Y0578361D01*
X0261496Y0577594D01*
X0261496Y0575292D01*
X0266100Y0575292D01*
X0266100Y0577594D01*
X0265333Y0579896D02*
X0266100Y0580663D01*
X0266100Y0582198D01*
X0265333Y0582965D01*
X0263798Y0582965D01*
X0263031Y0582198D01*
X0263031Y0581431D01*
X0263798Y0579896D01*
X0261496Y0579896D01*
X0261496Y0582965D01*
X0260300Y0584700D02*
X0260300Y0566900D01*
X0272600Y0579104D02*
X0272600Y0582173D01*
X0282996Y0581406D02*
X0283763Y0582173D01*
X0286833Y0579104D01*
X0287600Y0579871D01*
X0287600Y0581406D01*
X0286833Y0582173D01*
X0283763Y0582173D01*
X0282996Y0581406D02*
X0282996Y0579871D01*
X0283763Y0579104D01*
X0286833Y0579104D01*
X0287600Y0577569D02*
X0287600Y0574500D01*
X0287600Y0576035D02*
X0282996Y0576035D01*
X0284531Y0574500D01*
X0283763Y0583708D02*
X0282996Y0584475D01*
X0282996Y0586010D01*
X0283763Y0586777D01*
X0286833Y0583708D01*
X0287600Y0584475D01*
X0287600Y0586010D01*
X0286833Y0586777D01*
X0283763Y0586777D01*
X0282996Y0588312D02*
X0287600Y0588312D01*
X0286065Y0588312D02*
X0287600Y0590614D01*
X0286065Y0588312D02*
X0284531Y0590614D01*
X0283763Y0583708D02*
X0286833Y0583708D01*
X0295767Y0593500D02*
X0297302Y0593500D01*
X0298069Y0594267D01*
X0298069Y0598104D01*
X0299604Y0597337D02*
X0300371Y0598104D01*
X0301906Y0598104D01*
X0302673Y0597337D01*
X0301906Y0595802D02*
X0300371Y0595802D01*
X0299604Y0596569D01*
X0299604Y0597337D01*
X0301139Y0598871D02*
X0301139Y0592733D01*
X0301906Y0593500D02*
X0302673Y0594267D01*
X0302673Y0595035D01*
X0301906Y0595802D01*
X0304208Y0595802D02*
X0307277Y0595802D01*
X0306510Y0593500D02*
X0306510Y0598104D01*
X0304208Y0595802D01*
X0301906Y0593500D02*
X0300371Y0593500D01*
X0299604Y0594267D01*
X0295767Y0593500D02*
X0295000Y0594267D01*
X0295000Y0598104D01*
X0295531Y0568498D02*
X0295531Y0565429D01*
X0297066Y0563894D01*
X0298600Y0565429D01*
X0298600Y0568498D01*
X0300135Y0568498D02*
X0302437Y0568498D01*
X0303204Y0567731D01*
X0303204Y0566196D01*
X0302437Y0565429D01*
X0300135Y0565429D01*
X0300135Y0563894D02*
X0300135Y0568498D01*
X0304739Y0567731D02*
X0305506Y0568498D01*
X0307041Y0568498D01*
X0307808Y0567731D01*
X0307808Y0566963D01*
X0304739Y0563894D01*
X0307808Y0563894D01*
X0309343Y0566196D02*
X0312412Y0566196D01*
X0313947Y0566196D02*
X0315481Y0566963D01*
X0316249Y0566963D01*
X0317016Y0566196D01*
X0317016Y0564661D01*
X0316249Y0563894D01*
X0314714Y0563894D01*
X0313947Y0564661D01*
X0313947Y0566196D02*
X0313947Y0568498D01*
X0317016Y0568498D01*
X0318551Y0567731D02*
X0319318Y0568498D01*
X0320853Y0568498D01*
X0321620Y0567731D01*
X0318551Y0564661D01*
X0319318Y0563894D01*
X0320853Y0563894D01*
X0321620Y0564661D01*
X0321620Y0567731D01*
X0318551Y0567731D02*
X0318551Y0564661D01*
X0311645Y0563894D02*
X0311645Y0568498D01*
X0309343Y0566196D01*
X0321496Y0574723D02*
X0326100Y0574723D01*
X0326100Y0576257D02*
X0326100Y0573188D01*
X0323031Y0573188D02*
X0321496Y0574723D01*
X0322263Y0577792D02*
X0321496Y0578559D01*
X0321496Y0580094D01*
X0322263Y0580861D01*
X0325333Y0577792D01*
X0326100Y0578559D01*
X0326100Y0580094D01*
X0325333Y0580861D01*
X0322263Y0580861D01*
X0321496Y0582396D02*
X0323031Y0583931D01*
X0321496Y0585465D01*
X0326100Y0585465D01*
X0326100Y0582396D02*
X0321496Y0582396D01*
X0322263Y0577792D02*
X0325333Y0577792D01*
X0341496Y0577792D02*
X0341496Y0580094D01*
X0342263Y0580861D01*
X0343798Y0580861D01*
X0344565Y0580094D01*
X0344565Y0577792D01*
X0344565Y0579327D02*
X0346100Y0580861D01*
X0343798Y0582396D02*
X0341496Y0584698D01*
X0346100Y0584698D01*
X0343798Y0585465D02*
X0343798Y0582396D01*
X0346100Y0577792D02*
X0341496Y0577792D01*
X0308277Y0522104D02*
X0305208Y0522104D01*
X0305208Y0519802D01*
X0306742Y0520569D01*
X0307510Y0520569D01*
X0308277Y0519802D01*
X0308277Y0518267D01*
X0307510Y0517500D01*
X0305975Y0517500D01*
X0305208Y0518267D01*
X0303673Y0518267D02*
X0303673Y0519035D01*
X0302906Y0519802D01*
X0301371Y0519802D01*
X0300604Y0520569D01*
X0300604Y0521337D01*
X0301371Y0522104D01*
X0302906Y0522104D01*
X0303673Y0521337D01*
X0302139Y0522871D02*
X0302139Y0516733D01*
X0302906Y0517500D02*
X0301371Y0517500D01*
X0300604Y0518267D01*
X0299069Y0518267D02*
X0299069Y0522104D01*
X0296000Y0522104D02*
X0296000Y0518267D01*
X0296767Y0517500D01*
X0298302Y0517500D01*
X0299069Y0518267D01*
X0302906Y0517500D02*
X0303673Y0518267D01*
X0288600Y0515614D02*
X0287065Y0513312D01*
X0285531Y0515614D01*
X0283996Y0513312D02*
X0288600Y0513312D01*
X0287833Y0511777D02*
X0288600Y0511010D01*
X0288600Y0509475D01*
X0287833Y0508708D01*
X0284763Y0511777D01*
X0287833Y0511777D01*
X0287833Y0508708D02*
X0284763Y0508708D01*
X0283996Y0509475D01*
X0283996Y0511010D01*
X0284763Y0511777D01*
X0284763Y0507173D02*
X0287833Y0504104D01*
X0288600Y0504871D01*
X0288600Y0506406D01*
X0287833Y0507173D01*
X0284763Y0507173D01*
X0283996Y0506406D01*
X0283996Y0504871D01*
X0284763Y0504104D01*
X0287833Y0504104D01*
X0288600Y0502569D02*
X0288600Y0499500D01*
X0288600Y0501035D02*
X0283996Y0501035D01*
X0285531Y0499500D01*
X0296531Y0492498D02*
X0296531Y0489429D01*
X0298066Y0487894D01*
X0299600Y0489429D01*
X0299600Y0492498D01*
X0301135Y0492498D02*
X0303437Y0492498D01*
X0304204Y0491731D01*
X0304204Y0490196D01*
X0303437Y0489429D01*
X0301135Y0489429D01*
X0301135Y0487894D02*
X0301135Y0492498D01*
X0305739Y0491731D02*
X0306506Y0492498D01*
X0308041Y0492498D01*
X0308808Y0491731D01*
X0308808Y0490963D01*
X0305739Y0487894D01*
X0308808Y0487894D01*
X0310343Y0490196D02*
X0313412Y0490196D01*
X0314947Y0490196D02*
X0316481Y0490963D01*
X0317249Y0490963D01*
X0318016Y0490196D01*
X0318016Y0488661D01*
X0317249Y0487894D01*
X0315714Y0487894D01*
X0314947Y0488661D01*
X0314947Y0490196D02*
X0314947Y0492498D01*
X0318016Y0492498D01*
X0319551Y0491731D02*
X0319551Y0488661D01*
X0322620Y0491731D01*
X0322620Y0488661D01*
X0321853Y0487894D01*
X0320318Y0487894D01*
X0319551Y0488661D01*
X0319551Y0491731D02*
X0320318Y0492498D01*
X0321853Y0492498D01*
X0322620Y0491731D01*
X0322031Y0499188D02*
X0320496Y0500723D01*
X0325100Y0500723D01*
X0325100Y0502257D02*
X0325100Y0499188D01*
X0324333Y0503792D02*
X0321263Y0506861D01*
X0324333Y0506861D01*
X0325100Y0506094D01*
X0325100Y0504559D01*
X0324333Y0503792D01*
X0321263Y0503792D01*
X0320496Y0504559D01*
X0320496Y0506094D01*
X0321263Y0506861D01*
X0320496Y0508396D02*
X0322031Y0509931D01*
X0320496Y0511465D01*
X0325100Y0511465D01*
X0325100Y0508396D02*
X0320496Y0508396D01*
X0312645Y0492498D02*
X0310343Y0490196D01*
X0312645Y0487894D02*
X0312645Y0492498D01*
X0307510Y0455104D02*
X0305975Y0455104D01*
X0305208Y0454337D01*
X0305208Y0453569D01*
X0305975Y0452802D01*
X0308277Y0452802D01*
X0308277Y0454337D02*
X0307510Y0455104D01*
X0308277Y0454337D02*
X0308277Y0451267D01*
X0307510Y0450500D01*
X0305975Y0450500D01*
X0305208Y0451267D01*
X0303673Y0451267D02*
X0303673Y0452035D01*
X0302906Y0452802D01*
X0301371Y0452802D01*
X0300604Y0453569D01*
X0300604Y0454337D01*
X0301371Y0455104D01*
X0302906Y0455104D01*
X0303673Y0454337D01*
X0302139Y0455871D02*
X0302139Y0449733D01*
X0302906Y0450500D02*
X0301371Y0450500D01*
X0300604Y0451267D01*
X0299069Y0451267D02*
X0299069Y0455104D01*
X0296000Y0455104D02*
X0296000Y0451267D01*
X0296767Y0450500D01*
X0298302Y0450500D01*
X0299069Y0451267D01*
X0302906Y0450500D02*
X0303673Y0451267D01*
X0288600Y0447614D02*
X0287065Y0445312D01*
X0285531Y0447614D01*
X0283996Y0445312D02*
X0288600Y0445312D01*
X0287833Y0443777D02*
X0284763Y0443777D01*
X0287833Y0440708D01*
X0288600Y0441475D01*
X0288600Y0443010D01*
X0287833Y0443777D01*
X0287833Y0440708D02*
X0284763Y0440708D01*
X0283996Y0441475D01*
X0283996Y0443010D01*
X0284763Y0443777D01*
X0284763Y0439173D02*
X0287833Y0436104D01*
X0288600Y0436871D01*
X0288600Y0438406D01*
X0287833Y0439173D01*
X0284763Y0439173D01*
X0283996Y0438406D01*
X0283996Y0436871D01*
X0284763Y0436104D01*
X0287833Y0436104D01*
X0288600Y0434569D02*
X0288600Y0431500D01*
X0288600Y0433035D02*
X0283996Y0433035D01*
X0285531Y0431500D01*
X0296531Y0425498D02*
X0296531Y0422429D01*
X0298066Y0420894D01*
X0299600Y0422429D01*
X0299600Y0425498D01*
X0301135Y0425498D02*
X0303437Y0425498D01*
X0304204Y0424731D01*
X0304204Y0423196D01*
X0303437Y0422429D01*
X0301135Y0422429D01*
X0301135Y0420894D02*
X0301135Y0425498D01*
X0305739Y0424731D02*
X0306506Y0425498D01*
X0308041Y0425498D01*
X0308808Y0424731D01*
X0308808Y0423963D01*
X0305739Y0420894D01*
X0308808Y0420894D01*
X0310343Y0423196D02*
X0313412Y0423196D01*
X0314947Y0423196D02*
X0316481Y0423963D01*
X0317249Y0423963D01*
X0318016Y0423196D01*
X0318016Y0421661D01*
X0317249Y0420894D01*
X0315714Y0420894D01*
X0314947Y0421661D01*
X0314947Y0423196D02*
X0314947Y0425498D01*
X0318016Y0425498D01*
X0319551Y0424731D02*
X0320318Y0425498D01*
X0321853Y0425498D01*
X0322620Y0424731D01*
X0319551Y0421661D01*
X0320318Y0420894D01*
X0321853Y0420894D01*
X0322620Y0421661D01*
X0322620Y0424731D01*
X0323565Y0426000D02*
X0323565Y0428302D01*
X0322798Y0429069D01*
X0321263Y0429069D01*
X0320496Y0428302D01*
X0320496Y0426000D01*
X0325100Y0426000D01*
X0323565Y0427535D02*
X0325100Y0429069D01*
X0325100Y0430604D02*
X0325100Y0433673D01*
X0325100Y0432139D02*
X0320496Y0432139D01*
X0322031Y0430604D01*
X0322798Y0435208D02*
X0322031Y0436742D01*
X0322031Y0437510D01*
X0322798Y0438277D01*
X0324333Y0438277D01*
X0325100Y0437510D01*
X0325100Y0435975D01*
X0324333Y0435208D01*
X0322798Y0435208D02*
X0320496Y0435208D01*
X0320496Y0438277D01*
X0312645Y0425498D02*
X0310343Y0423196D01*
X0312645Y0420894D02*
X0312645Y0425498D01*
X0319551Y0424731D02*
X0319551Y0421661D01*
X0340496Y0427535D02*
X0345100Y0427535D01*
X0345100Y0429069D02*
X0345100Y0426000D01*
X0342031Y0426000D02*
X0340496Y0427535D01*
X0341263Y0430604D02*
X0340496Y0431371D01*
X0340496Y0432906D01*
X0341263Y0433673D01*
X0344333Y0430604D01*
X0345100Y0431371D01*
X0345100Y0432906D01*
X0344333Y0433673D01*
X0341263Y0433673D01*
X0340496Y0435208D02*
X0342031Y0436742D01*
X0340496Y0438277D01*
X0345100Y0438277D01*
X0345100Y0435208D02*
X0340496Y0435208D01*
X0341263Y0430604D02*
X0344333Y0430604D01*
X0345100Y0361277D02*
X0340496Y0361277D01*
X0342031Y0359742D01*
X0340496Y0358208D01*
X0345100Y0358208D01*
X0344333Y0356673D02*
X0345100Y0355906D01*
X0345100Y0354371D01*
X0344333Y0353604D01*
X0341263Y0356673D01*
X0344333Y0356673D01*
X0344333Y0353604D02*
X0341263Y0353604D01*
X0340496Y0354371D01*
X0340496Y0355906D01*
X0341263Y0356673D01*
X0345100Y0352069D02*
X0345100Y0349000D01*
X0345100Y0350535D02*
X0340496Y0350535D01*
X0342031Y0349000D01*
X0312167Y0286710D02*
X0310632Y0286710D01*
X0309865Y0285943D01*
X0309865Y0282873D01*
X0312934Y0285943D01*
X0312934Y0282873D01*
X0312167Y0282106D01*
X0310632Y0282106D01*
X0309865Y0282873D01*
X0308330Y0282873D02*
X0307563Y0282106D01*
X0306028Y0282106D01*
X0305261Y0282873D01*
X0305261Y0284408D02*
X0306796Y0285175D01*
X0307563Y0285175D01*
X0308330Y0284408D01*
X0308330Y0282873D01*
X0305261Y0284408D02*
X0305261Y0286710D01*
X0308330Y0286710D01*
X0312167Y0286710D02*
X0312934Y0285943D01*
X0303726Y0284408D02*
X0300657Y0284408D01*
X0302959Y0286710D01*
X0302959Y0282106D01*
X0299122Y0282106D02*
X0296053Y0282106D01*
X0299122Y0285175D01*
X0299122Y0285943D01*
X0298355Y0286710D01*
X0296820Y0286710D01*
X0296053Y0285943D01*
X0294518Y0286710D02*
X0294518Y0282106D01*
X0291449Y0286710D01*
X0291449Y0282106D01*
X0289915Y0283641D02*
X0289915Y0286710D01*
X0289915Y0283641D02*
X0288380Y0282106D01*
X0286845Y0283641D01*
X0286845Y0286710D01*
X0273700Y0272300D02*
X0255900Y0272300D01*
X0256300Y0263700D02*
X0256300Y0245900D01*
X0257496Y0249688D02*
X0257496Y0251990D01*
X0258263Y0252757D01*
X0261333Y0252757D01*
X0262100Y0251990D01*
X0262100Y0249688D01*
X0257496Y0249688D01*
X0258263Y0254292D02*
X0257496Y0255059D01*
X0257496Y0256594D01*
X0258263Y0257361D01*
X0259031Y0257361D01*
X0262100Y0254292D01*
X0262100Y0257361D01*
X0262100Y0258896D02*
X0259031Y0261965D01*
X0258263Y0261965D01*
X0257496Y0261198D01*
X0257496Y0259663D01*
X0258263Y0258896D01*
X0262100Y0258896D02*
X0262100Y0261965D01*
X0270996Y0256663D02*
X0275600Y0256663D01*
X0274065Y0256663D02*
X0275600Y0258965D01*
X0274065Y0256663D02*
X0272531Y0258965D01*
X0271763Y0255129D02*
X0274833Y0252059D01*
X0275600Y0252827D01*
X0275600Y0254361D01*
X0274833Y0255129D01*
X0271763Y0255129D01*
X0270996Y0254361D01*
X0270996Y0252827D01*
X0271763Y0252059D01*
X0274833Y0252059D01*
X0274833Y0250525D02*
X0275600Y0249757D01*
X0275600Y0248223D01*
X0274833Y0247456D01*
X0271763Y0250525D01*
X0274833Y0250525D01*
X0274833Y0247456D02*
X0271763Y0247456D01*
X0270996Y0248223D01*
X0270996Y0249757D01*
X0271763Y0250525D01*
X0275600Y0245921D02*
X0275600Y0242852D01*
X0276777Y0242604D02*
X0276777Y0241837D01*
X0273708Y0238767D01*
X0273708Y0238000D01*
X0272173Y0238000D02*
X0269104Y0238000D01*
X0272173Y0241069D01*
X0272173Y0241837D01*
X0271406Y0242604D01*
X0269871Y0242604D01*
X0269104Y0241837D01*
X0267569Y0241837D02*
X0267569Y0240302D01*
X0266802Y0239535D01*
X0264500Y0239535D01*
X0266035Y0239535D02*
X0267569Y0238000D01*
X0264500Y0238000D02*
X0264500Y0242604D01*
X0266802Y0242604D01*
X0267569Y0241837D01*
X0270996Y0244386D02*
X0275600Y0244386D01*
X0276777Y0242604D02*
X0273708Y0242604D01*
X0272531Y0242852D02*
X0270996Y0244386D01*
X0269777Y0230104D02*
X0266708Y0230104D01*
X0266708Y0227802D01*
X0268242Y0228569D01*
X0269010Y0228569D01*
X0269777Y0227802D01*
X0269777Y0226267D01*
X0269010Y0225500D01*
X0267475Y0225500D01*
X0266708Y0226267D01*
X0266035Y0227604D02*
X0266035Y0223000D01*
X0267569Y0223000D02*
X0264500Y0223000D01*
X0265173Y0225500D02*
X0262104Y0225500D01*
X0265173Y0228569D01*
X0265173Y0229337D01*
X0264406Y0230104D01*
X0262871Y0230104D01*
X0262104Y0229337D01*
X0260569Y0229337D02*
X0259802Y0230104D01*
X0257500Y0230104D01*
X0257500Y0225500D01*
X0259802Y0225500D01*
X0260569Y0226267D01*
X0260569Y0229337D01*
X0264500Y0226069D02*
X0266035Y0227604D01*
X0269104Y0226837D02*
X0269871Y0227604D01*
X0271406Y0227604D01*
X0272173Y0226837D01*
X0269104Y0223767D01*
X0269871Y0223000D01*
X0271406Y0223000D01*
X0272173Y0223767D01*
X0272173Y0226837D01*
X0269104Y0226837D02*
X0269104Y0223767D01*
X0274700Y0224300D02*
X0256900Y0224300D01*
X0256900Y0209300D02*
X0274700Y0209300D01*
X0275531Y0193965D02*
X0277065Y0191663D01*
X0278600Y0193965D01*
X0278600Y0191663D02*
X0273996Y0191663D01*
X0274763Y0190129D02*
X0273996Y0189361D01*
X0273996Y0187827D01*
X0274763Y0187059D01*
X0277833Y0187059D01*
X0274763Y0190129D01*
X0277833Y0190129D01*
X0278600Y0189361D01*
X0278600Y0187827D01*
X0277833Y0187059D01*
X0277833Y0185525D02*
X0278600Y0184757D01*
X0278600Y0183223D01*
X0277833Y0182456D01*
X0274763Y0185525D01*
X0277833Y0185525D01*
X0277833Y0182456D02*
X0274763Y0182456D01*
X0273996Y0183223D01*
X0273996Y0184757D01*
X0274763Y0185525D01*
X0278600Y0180921D02*
X0278600Y0177852D01*
X0278600Y0179386D02*
X0273996Y0179386D01*
X0275531Y0177852D01*
X0270173Y0177302D02*
X0267871Y0177302D01*
X0267104Y0178069D01*
X0267104Y0178837D01*
X0267871Y0179604D01*
X0269406Y0179604D01*
X0270173Y0178837D01*
X0270173Y0175767D01*
X0269406Y0175000D01*
X0267871Y0175000D01*
X0267104Y0175767D01*
X0265569Y0175000D02*
X0264035Y0176535D01*
X0264802Y0176535D02*
X0262500Y0176535D01*
X0262500Y0175000D02*
X0262500Y0179604D01*
X0264802Y0179604D01*
X0265569Y0178837D01*
X0265569Y0177302D01*
X0264802Y0176535D01*
X0262100Y0188688D02*
X0262100Y0190990D01*
X0261333Y0191757D01*
X0258263Y0191757D01*
X0257496Y0190990D01*
X0257496Y0188688D01*
X0262100Y0188688D01*
X0262100Y0193292D02*
X0259031Y0196361D01*
X0258263Y0196361D01*
X0257496Y0195594D01*
X0257496Y0194059D01*
X0258263Y0193292D01*
X0262100Y0193292D02*
X0262100Y0196361D01*
X0261333Y0197896D02*
X0262100Y0198663D01*
X0262100Y0200198D01*
X0261333Y0200965D01*
X0260565Y0200965D01*
X0259798Y0200198D01*
X0259798Y0199431D01*
X0259798Y0200198D02*
X0259031Y0200965D01*
X0258263Y0200965D01*
X0257496Y0200198D01*
X0257496Y0198663D01*
X0258263Y0197896D01*
X0256300Y0202700D02*
X0256300Y0184900D01*
X0256500Y0168104D02*
X0258802Y0168104D01*
X0259569Y0167337D01*
X0259569Y0164267D01*
X0258802Y0163500D01*
X0256500Y0163500D01*
X0256500Y0168104D01*
X0261104Y0167337D02*
X0261104Y0166569D01*
X0261871Y0165802D01*
X0263406Y0165802D01*
X0264173Y0165035D01*
X0264173Y0164267D01*
X0263406Y0163500D01*
X0261871Y0163500D01*
X0261104Y0164267D01*
X0261104Y0165035D01*
X0261871Y0165802D01*
X0263406Y0165802D02*
X0264173Y0166569D01*
X0264173Y0167337D01*
X0263406Y0168104D01*
X0261871Y0168104D01*
X0261104Y0167337D01*
X0264035Y0164604D02*
X0264035Y0160000D01*
X0265569Y0160000D02*
X0262500Y0160000D01*
X0262500Y0163069D02*
X0264035Y0164604D01*
X0267104Y0163837D02*
X0267104Y0160767D01*
X0270173Y0163837D01*
X0270173Y0160767D01*
X0269406Y0160000D01*
X0267871Y0160000D01*
X0267104Y0160767D01*
X0267104Y0163837D02*
X0267871Y0164604D01*
X0269406Y0164604D01*
X0270173Y0163837D01*
X0273700Y0162300D02*
X0255900Y0162300D01*
X0255900Y0147300D02*
X0273700Y0147300D01*
X0275531Y0131965D02*
X0277065Y0129663D01*
X0278600Y0131965D01*
X0278600Y0129663D02*
X0273996Y0129663D01*
X0274763Y0128129D02*
X0273996Y0127361D01*
X0273996Y0125827D01*
X0274763Y0125059D01*
X0277833Y0125059D01*
X0274763Y0128129D01*
X0277833Y0128129D01*
X0278600Y0127361D01*
X0278600Y0125827D01*
X0277833Y0125059D01*
X0277833Y0123525D02*
X0278600Y0122757D01*
X0278600Y0121223D01*
X0277833Y0120456D01*
X0274763Y0123525D01*
X0277833Y0123525D01*
X0277833Y0120456D02*
X0274763Y0120456D01*
X0273996Y0121223D01*
X0273996Y0122757D01*
X0274763Y0123525D01*
X0278600Y0118921D02*
X0278600Y0115852D01*
X0278600Y0117386D02*
X0273996Y0117386D01*
X0275531Y0115852D01*
X0274777Y0115837D02*
X0274010Y0116604D01*
X0272475Y0116604D01*
X0271708Y0115837D01*
X0274777Y0115837D02*
X0274777Y0115069D01*
X0271708Y0112000D01*
X0274777Y0112000D01*
X0270173Y0112000D02*
X0267104Y0112000D01*
X0268639Y0112000D02*
X0268639Y0116604D01*
X0267104Y0115069D01*
X0265569Y0114302D02*
X0264802Y0113535D01*
X0262500Y0113535D01*
X0264035Y0113535D02*
X0265569Y0112000D01*
X0265569Y0114302D02*
X0265569Y0115837D01*
X0264802Y0116604D01*
X0262500Y0116604D01*
X0262500Y0112000D01*
X0262639Y0102104D02*
X0261104Y0100569D01*
X0262500Y0100069D02*
X0264035Y0101604D01*
X0264035Y0097000D01*
X0264173Y0097500D02*
X0261104Y0097500D01*
X0262500Y0097000D02*
X0265569Y0097000D01*
X0265708Y0097500D02*
X0268777Y0100569D01*
X0268777Y0101337D01*
X0268010Y0102104D01*
X0266475Y0102104D01*
X0265708Y0101337D01*
X0267104Y0100837D02*
X0267104Y0097767D01*
X0270173Y0100837D01*
X0270173Y0097767D01*
X0269406Y0097000D01*
X0267871Y0097000D01*
X0267104Y0097767D01*
X0265708Y0097500D02*
X0268777Y0097500D01*
X0270173Y0100837D02*
X0269406Y0101604D01*
X0267871Y0101604D01*
X0267104Y0100837D01*
X0262639Y0102104D02*
X0262639Y0097500D01*
X0259569Y0098267D02*
X0259569Y0101337D01*
X0258802Y0102104D01*
X0256500Y0102104D01*
X0256500Y0097500D01*
X0258802Y0097500D01*
X0259569Y0098267D01*
X0255900Y0096300D02*
X0273700Y0096300D01*
X0273700Y0081300D02*
X0255900Y0081300D01*
X0254300Y0072700D02*
X0254300Y0054900D01*
X0255496Y0058688D02*
X0255496Y0060990D01*
X0256263Y0061757D01*
X0259333Y0061757D01*
X0260100Y0060990D01*
X0260100Y0058688D01*
X0255496Y0058688D01*
X0257031Y0063292D02*
X0255496Y0064827D01*
X0260100Y0064827D01*
X0260100Y0066361D02*
X0260100Y0063292D01*
X0257798Y0067896D02*
X0257798Y0070965D01*
X0255496Y0070198D02*
X0257798Y0067896D01*
X0260100Y0070198D02*
X0255496Y0070198D01*
X0239300Y0072700D02*
X0239300Y0054900D01*
X0238100Y0054084D02*
X0238100Y0056386D01*
X0237333Y0057153D01*
X0236565Y0057153D01*
X0235798Y0056386D01*
X0235798Y0054084D01*
X0235031Y0052550D02*
X0235798Y0051782D01*
X0235798Y0050248D01*
X0235031Y0049480D01*
X0234263Y0049480D01*
X0233496Y0050248D01*
X0233496Y0051782D01*
X0234263Y0052550D01*
X0235031Y0052550D01*
X0235798Y0051782D02*
X0236565Y0052550D01*
X0237333Y0052550D01*
X0238100Y0051782D01*
X0238100Y0050248D01*
X0237333Y0049480D01*
X0236565Y0049480D01*
X0235798Y0050248D01*
X0238100Y0047946D02*
X0238100Y0044876D01*
X0238100Y0046411D02*
X0233496Y0046411D01*
X0235031Y0044876D01*
X0235798Y0043342D02*
X0235798Y0041040D01*
X0235031Y0040272D01*
X0234263Y0040272D01*
X0233496Y0041040D01*
X0233496Y0042574D01*
X0234263Y0043342D01*
X0237333Y0043342D01*
X0238100Y0042574D01*
X0238100Y0041040D01*
X0237333Y0040272D01*
X0237333Y0038738D02*
X0238100Y0037970D01*
X0238100Y0036436D01*
X0237333Y0035668D01*
X0237333Y0034134D02*
X0238100Y0033367D01*
X0238100Y0031065D01*
X0233496Y0031065D01*
X0233496Y0033367D01*
X0234263Y0034134D01*
X0235031Y0034134D01*
X0235798Y0033367D01*
X0235798Y0031065D01*
X0235798Y0033367D02*
X0236565Y0034134D01*
X0237333Y0034134D01*
X0235798Y0035668D02*
X0235031Y0037203D01*
X0235031Y0037970D01*
X0235798Y0038738D01*
X0237333Y0038738D01*
X0235798Y0035668D02*
X0233496Y0035668D01*
X0233496Y0038738D01*
X0233496Y0029530D02*
X0238100Y0029530D01*
X0238100Y0026461D02*
X0233496Y0026461D01*
X0235031Y0027995D01*
X0233496Y0029530D01*
X0234263Y0024926D02*
X0233496Y0024159D01*
X0233496Y0022624D01*
X0234263Y0021857D01*
X0235031Y0021857D01*
X0235798Y0022624D01*
X0235798Y0024159D01*
X0236565Y0024926D01*
X0237333Y0024926D01*
X0238100Y0024159D01*
X0238100Y0022624D01*
X0237333Y0021857D01*
X0238100Y0020322D02*
X0238100Y0017253D01*
X0238100Y0018787D02*
X0233496Y0018787D01*
X0235031Y0017253D01*
X0233496Y0054084D02*
X0233496Y0056386D01*
X0234263Y0057153D01*
X0235031Y0057153D01*
X0235798Y0056386D01*
X0238100Y0054084D02*
X0233496Y0054084D01*
X0233496Y0058688D02*
X0233496Y0061757D01*
X0233496Y0060223D02*
X0238100Y0060223D01*
X0237333Y0063292D02*
X0238100Y0064059D01*
X0238100Y0065594D01*
X0237333Y0066361D01*
X0236565Y0066361D01*
X0235798Y0065594D01*
X0235798Y0064827D01*
X0235798Y0065594D02*
X0235031Y0066361D01*
X0234263Y0066361D01*
X0233496Y0065594D01*
X0233496Y0064059D01*
X0234263Y0063292D01*
X0234263Y0067896D02*
X0233496Y0068663D01*
X0233496Y0070198D01*
X0234263Y0070965D01*
X0235798Y0070965D02*
X0235798Y0069431D01*
X0235798Y0070965D02*
X0237333Y0070965D01*
X0238100Y0070198D01*
X0238100Y0068663D01*
X0237333Y0067896D01*
X0234263Y0067896D01*
X0227673Y0072000D02*
X0227673Y0075069D01*
X0227673Y0072000D02*
X0225371Y0072000D01*
X0224604Y0072767D01*
X0224604Y0075069D01*
X0223069Y0072000D02*
X0220000Y0072000D01*
X0221535Y0072000D02*
X0221535Y0076604D01*
X0220000Y0075069D01*
X0220767Y0087000D02*
X0222302Y0087000D01*
X0223069Y0087767D01*
X0224604Y0087767D02*
X0225371Y0087000D01*
X0226906Y0087000D01*
X0227673Y0087767D01*
X0227673Y0088535D01*
X0226906Y0089302D01*
X0224604Y0089302D01*
X0224604Y0087767D01*
X0224604Y0089302D02*
X0226139Y0090837D01*
X0227673Y0091604D01*
X0223069Y0090837D02*
X0222302Y0091604D01*
X0220767Y0091604D01*
X0220000Y0090837D01*
X0220000Y0087767D01*
X0220767Y0087000D01*
X0234496Y0086787D02*
X0239100Y0086787D01*
X0239100Y0085253D02*
X0239100Y0088322D01*
X0238333Y0089857D02*
X0239100Y0090624D01*
X0239100Y0092159D01*
X0238333Y0092926D01*
X0237565Y0092926D01*
X0236798Y0092159D01*
X0236798Y0090624D01*
X0236031Y0089857D01*
X0235263Y0089857D01*
X0234496Y0090624D01*
X0234496Y0092159D01*
X0235263Y0092926D01*
X0234496Y0094461D02*
X0236031Y0095995D01*
X0234496Y0097530D01*
X0239100Y0097530D01*
X0239100Y0099065D02*
X0234496Y0099065D01*
X0234496Y0101367D01*
X0235263Y0102134D01*
X0236031Y0102134D01*
X0236798Y0101367D01*
X0236798Y0099065D01*
X0236798Y0101367D02*
X0237565Y0102134D01*
X0238333Y0102134D01*
X0239100Y0101367D01*
X0239100Y0099065D01*
X0239100Y0094461D02*
X0234496Y0094461D01*
X0234496Y0086787D02*
X0236031Y0085253D01*
X0236798Y0103668D02*
X0236031Y0105203D01*
X0236031Y0105970D01*
X0236798Y0106738D01*
X0238333Y0106738D01*
X0239100Y0105970D01*
X0239100Y0104436D01*
X0238333Y0103668D01*
X0236798Y0103668D02*
X0234496Y0103668D01*
X0234496Y0106738D01*
X0235263Y0108272D02*
X0236031Y0108272D01*
X0236798Y0109040D01*
X0236798Y0111342D01*
X0235263Y0111342D02*
X0234496Y0110574D01*
X0234496Y0109040D01*
X0235263Y0108272D01*
X0235263Y0111342D02*
X0238333Y0111342D01*
X0239100Y0110574D01*
X0239100Y0109040D01*
X0238333Y0108272D01*
X0239100Y0112876D02*
X0239100Y0115946D01*
X0239100Y0114411D02*
X0234496Y0114411D01*
X0236031Y0112876D01*
X0236031Y0117480D02*
X0235263Y0117480D01*
X0234496Y0118248D01*
X0234496Y0119782D01*
X0235263Y0120550D01*
X0236031Y0120550D01*
X0236798Y0119782D01*
X0236798Y0118248D01*
X0236031Y0117480D01*
X0236798Y0118248D02*
X0237565Y0117480D01*
X0238333Y0117480D01*
X0239100Y0118248D01*
X0239100Y0119782D01*
X0238333Y0120550D01*
X0237565Y0120550D01*
X0236798Y0119782D01*
X0236798Y0122084D02*
X0236798Y0124386D01*
X0237565Y0125153D01*
X0238333Y0125153D01*
X0239100Y0124386D01*
X0239100Y0122084D01*
X0234496Y0122084D01*
X0234496Y0124386D01*
X0235263Y0125153D01*
X0236031Y0125153D01*
X0236798Y0124386D01*
X0234496Y0126688D02*
X0234496Y0129757D01*
X0234496Y0128223D02*
X0239100Y0128223D01*
X0238333Y0131292D02*
X0239100Y0132059D01*
X0239100Y0133594D01*
X0238333Y0134361D01*
X0237565Y0134361D01*
X0236798Y0133594D01*
X0236798Y0132827D01*
X0236798Y0133594D02*
X0236031Y0134361D01*
X0235263Y0134361D01*
X0234496Y0133594D01*
X0234496Y0132059D01*
X0235263Y0131292D01*
X0235263Y0135896D02*
X0238333Y0135896D01*
X0239100Y0136663D01*
X0239100Y0138198D01*
X0238333Y0138965D01*
X0236798Y0138965D01*
X0236798Y0137431D01*
X0235263Y0138965D02*
X0234496Y0138198D01*
X0234496Y0136663D01*
X0235263Y0135896D01*
X0240300Y0140700D02*
X0240300Y0122900D01*
X0227673Y0133000D02*
X0227673Y0136069D01*
X0227673Y0133000D02*
X0225371Y0133000D01*
X0224604Y0133767D01*
X0224604Y0136069D01*
X0223069Y0133000D02*
X0220000Y0133000D01*
X0221535Y0133000D02*
X0221535Y0137604D01*
X0220000Y0136069D01*
X0220767Y0148000D02*
X0222302Y0148000D01*
X0223069Y0148767D01*
X0224604Y0148000D02*
X0227673Y0151069D01*
X0227673Y0151837D01*
X0226906Y0152604D01*
X0225371Y0152604D01*
X0224604Y0151837D01*
X0223069Y0151837D02*
X0222302Y0152604D01*
X0220767Y0152604D01*
X0220000Y0151837D01*
X0220000Y0148767D01*
X0220767Y0148000D01*
X0224604Y0148000D02*
X0227673Y0148000D01*
X0235496Y0148787D02*
X0240100Y0148787D01*
X0240100Y0147253D02*
X0240100Y0150322D01*
X0239333Y0151857D02*
X0240100Y0152624D01*
X0240100Y0154159D01*
X0239333Y0154926D01*
X0238565Y0154926D01*
X0237798Y0154159D01*
X0237798Y0152624D01*
X0237031Y0151857D01*
X0236263Y0151857D01*
X0235496Y0152624D01*
X0235496Y0154159D01*
X0236263Y0154926D01*
X0235496Y0156461D02*
X0237031Y0157995D01*
X0235496Y0159530D01*
X0240100Y0159530D01*
X0240100Y0161065D02*
X0240100Y0163367D01*
X0239333Y0164134D01*
X0238565Y0164134D01*
X0237798Y0163367D01*
X0237798Y0161065D01*
X0237798Y0163367D02*
X0237031Y0164134D01*
X0236263Y0164134D01*
X0235496Y0163367D01*
X0235496Y0161065D01*
X0240100Y0161065D01*
X0240100Y0156461D02*
X0235496Y0156461D01*
X0235496Y0148787D02*
X0237031Y0147253D01*
X0237798Y0165668D02*
X0237031Y0167203D01*
X0237031Y0167970D01*
X0237798Y0168738D01*
X0239333Y0168738D01*
X0240100Y0167970D01*
X0240100Y0166436D01*
X0239333Y0165668D01*
X0237798Y0165668D02*
X0235496Y0165668D01*
X0235496Y0168738D01*
X0236263Y0170272D02*
X0237031Y0170272D01*
X0237798Y0171040D01*
X0237798Y0173342D01*
X0236263Y0173342D02*
X0235496Y0172574D01*
X0235496Y0171040D01*
X0236263Y0170272D01*
X0236263Y0173342D02*
X0239333Y0173342D01*
X0240100Y0172574D01*
X0240100Y0171040D01*
X0239333Y0170272D01*
X0240100Y0174876D02*
X0240100Y0177946D01*
X0240100Y0176411D02*
X0235496Y0176411D01*
X0237031Y0174876D01*
X0237031Y0179480D02*
X0236263Y0179480D01*
X0235496Y0180248D01*
X0235496Y0181782D01*
X0236263Y0182550D01*
X0237031Y0182550D01*
X0237798Y0181782D01*
X0237798Y0180248D01*
X0237031Y0179480D01*
X0237798Y0180248D02*
X0238565Y0179480D01*
X0239333Y0179480D01*
X0240100Y0180248D01*
X0240100Y0181782D01*
X0239333Y0182550D01*
X0238565Y0182550D01*
X0237798Y0181782D01*
X0237798Y0184084D02*
X0237798Y0186386D01*
X0238565Y0187153D01*
X0239333Y0187153D01*
X0240100Y0186386D01*
X0240100Y0184084D01*
X0235496Y0184084D01*
X0235496Y0186386D01*
X0236263Y0187153D01*
X0237031Y0187153D01*
X0237798Y0186386D01*
X0235496Y0188688D02*
X0235496Y0191757D01*
X0235496Y0190223D02*
X0240100Y0190223D01*
X0239333Y0193292D02*
X0240100Y0194059D01*
X0240100Y0195594D01*
X0239333Y0196361D01*
X0238565Y0196361D01*
X0237798Y0195594D01*
X0237798Y0194827D01*
X0237798Y0195594D02*
X0237031Y0196361D01*
X0236263Y0196361D01*
X0235496Y0195594D01*
X0235496Y0194059D01*
X0236263Y0193292D01*
X0236263Y0197896D02*
X0239333Y0197896D01*
X0240100Y0198663D01*
X0240100Y0200198D01*
X0239333Y0200965D01*
X0237798Y0200965D01*
X0237798Y0199431D01*
X0236263Y0200965D02*
X0235496Y0200198D01*
X0235496Y0198663D01*
X0236263Y0197896D01*
X0241300Y0202700D02*
X0241300Y0184900D01*
X0255300Y0140700D02*
X0255300Y0122900D01*
X0256496Y0131292D02*
X0256496Y0133594D01*
X0257263Y0134361D01*
X0260333Y0134361D01*
X0261100Y0133594D01*
X0261100Y0131292D01*
X0256496Y0131292D01*
X0258798Y0135896D02*
X0257263Y0137431D01*
X0256496Y0138965D01*
X0258798Y0138198D02*
X0258798Y0135896D01*
X0260333Y0135896D01*
X0261100Y0136663D01*
X0261100Y0138198D01*
X0260333Y0138965D01*
X0259565Y0138965D01*
X0258798Y0138198D01*
X0288996Y0131198D02*
X0288996Y0129663D01*
X0289763Y0128896D01*
X0289763Y0127361D02*
X0291298Y0127361D01*
X0292065Y0126594D01*
X0292065Y0124292D01*
X0292065Y0125827D02*
X0293600Y0127361D01*
X0292833Y0128896D02*
X0293600Y0129663D01*
X0293600Y0131198D01*
X0292833Y0131965D01*
X0292065Y0131965D01*
X0291298Y0131198D01*
X0291298Y0130431D01*
X0291298Y0131198D02*
X0290531Y0131965D01*
X0289763Y0131965D01*
X0288996Y0131198D01*
X0289763Y0127361D02*
X0288996Y0126594D01*
X0288996Y0124292D01*
X0293600Y0124292D01*
X0294380Y0144106D02*
X0295915Y0145641D01*
X0295915Y0148710D01*
X0297449Y0148710D02*
X0300518Y0144106D01*
X0300518Y0148710D01*
X0302053Y0147943D02*
X0302820Y0148710D01*
X0304355Y0148710D01*
X0305122Y0147943D01*
X0305122Y0147175D01*
X0302053Y0144106D01*
X0305122Y0144106D01*
X0306657Y0146408D02*
X0309726Y0146408D01*
X0311261Y0146408D02*
X0312796Y0147175D01*
X0313563Y0147175D01*
X0314330Y0146408D01*
X0314330Y0144873D01*
X0313563Y0144106D01*
X0312028Y0144106D01*
X0311261Y0144873D01*
X0311261Y0146408D02*
X0311261Y0148710D01*
X0314330Y0148710D01*
X0315865Y0147943D02*
X0316632Y0148710D01*
X0318167Y0148710D01*
X0318934Y0147943D01*
X0315865Y0144873D01*
X0316632Y0144106D01*
X0318167Y0144106D01*
X0318934Y0144873D01*
X0318934Y0147943D01*
X0315865Y0147943D02*
X0315865Y0144873D01*
X0308959Y0144106D02*
X0308959Y0148710D01*
X0306657Y0146408D01*
X0297449Y0144106D02*
X0297449Y0148710D01*
X0292845Y0148710D02*
X0292845Y0145641D01*
X0294380Y0144106D01*
X0307188Y0119104D02*
X0307188Y0115267D01*
X0307956Y0114500D01*
X0309490Y0114500D01*
X0310257Y0115267D01*
X0310257Y0119104D01*
X0311792Y0118337D02*
X0311792Y0117569D01*
X0312559Y0116802D01*
X0314094Y0116802D01*
X0314861Y0116035D01*
X0314861Y0115267D01*
X0314094Y0114500D01*
X0312559Y0114500D01*
X0311792Y0115267D01*
X0313327Y0113733D02*
X0313327Y0119871D01*
X0314094Y0119104D02*
X0314861Y0118337D01*
X0314094Y0119104D02*
X0312559Y0119104D01*
X0311792Y0118337D01*
X0316396Y0118337D02*
X0317163Y0119104D01*
X0318698Y0119104D01*
X0319465Y0118337D01*
X0319465Y0117569D01*
X0316396Y0114500D01*
X0319465Y0114500D01*
X0331496Y0130000D02*
X0331496Y0132302D01*
X0332263Y0133069D01*
X0333798Y0133069D01*
X0334565Y0132302D01*
X0334565Y0130000D01*
X0334565Y0131535D02*
X0336100Y0133069D01*
X0336100Y0134604D02*
X0336100Y0137673D01*
X0336100Y0136139D02*
X0331496Y0136139D01*
X0333031Y0134604D01*
X0332263Y0139208D02*
X0331496Y0139975D01*
X0331496Y0141510D01*
X0332263Y0142277D01*
X0335333Y0139208D01*
X0336100Y0139975D01*
X0336100Y0141510D01*
X0335333Y0142277D01*
X0332263Y0142277D01*
X0332263Y0139208D02*
X0335333Y0139208D01*
X0336100Y0130000D02*
X0331496Y0130000D01*
X0351496Y0131535D02*
X0353031Y0130000D01*
X0351496Y0131535D02*
X0356100Y0131535D01*
X0356100Y0133069D02*
X0356100Y0130000D01*
X0355333Y0134604D02*
X0352263Y0137673D01*
X0355333Y0137673D01*
X0356100Y0136906D01*
X0356100Y0135371D01*
X0355333Y0134604D01*
X0352263Y0134604D01*
X0351496Y0135371D01*
X0351496Y0136906D01*
X0352263Y0137673D01*
X0351496Y0139208D02*
X0353031Y0140742D01*
X0351496Y0142277D01*
X0356100Y0142277D01*
X0356100Y0139208D02*
X0351496Y0139208D01*
X0353031Y0190000D02*
X0351496Y0191535D01*
X0356100Y0191535D01*
X0356100Y0193069D02*
X0356100Y0190000D01*
X0355333Y0194604D02*
X0356100Y0195371D01*
X0356100Y0196906D01*
X0355333Y0197673D01*
X0352263Y0197673D01*
X0355333Y0194604D01*
X0352263Y0194604D01*
X0351496Y0195371D01*
X0351496Y0196906D01*
X0352263Y0197673D01*
X0351496Y0199208D02*
X0353031Y0200742D01*
X0351496Y0202277D01*
X0356100Y0202277D01*
X0356100Y0199208D02*
X0351496Y0199208D01*
X0336100Y0199975D02*
X0335333Y0199208D01*
X0336100Y0199975D02*
X0336100Y0201510D01*
X0335333Y0202277D01*
X0334565Y0202277D01*
X0333798Y0201510D01*
X0333798Y0200742D01*
X0333798Y0201510D02*
X0333031Y0202277D01*
X0332263Y0202277D01*
X0331496Y0201510D01*
X0331496Y0199975D01*
X0332263Y0199208D01*
X0332263Y0197673D02*
X0331496Y0196906D01*
X0331496Y0195371D01*
X0332263Y0194604D01*
X0332263Y0193069D02*
X0333798Y0193069D01*
X0334565Y0192302D01*
X0334565Y0190000D01*
X0334565Y0191535D02*
X0336100Y0193069D01*
X0336100Y0194604D02*
X0333031Y0197673D01*
X0332263Y0197673D01*
X0336100Y0197673D02*
X0336100Y0194604D01*
X0332263Y0193069D02*
X0331496Y0192302D01*
X0331496Y0190000D01*
X0336100Y0190000D01*
X0318465Y0180337D02*
X0317698Y0181104D01*
X0316163Y0181104D01*
X0315396Y0180337D01*
X0318465Y0180337D02*
X0318465Y0179569D01*
X0315396Y0176500D01*
X0318465Y0176500D01*
X0313861Y0176500D02*
X0310792Y0176500D01*
X0312327Y0176500D02*
X0312327Y0181104D01*
X0310792Y0179569D01*
X0309257Y0180337D02*
X0308490Y0181104D01*
X0306955Y0181104D01*
X0306188Y0180337D01*
X0306188Y0179569D01*
X0306955Y0178802D01*
X0308490Y0178802D01*
X0309257Y0178035D01*
X0309257Y0177267D01*
X0308490Y0176500D01*
X0306955Y0176500D01*
X0306188Y0177267D01*
X0304654Y0177267D02*
X0304654Y0181104D01*
X0301584Y0181104D02*
X0301584Y0177267D01*
X0302352Y0176500D01*
X0303886Y0176500D01*
X0304654Y0177267D01*
X0307723Y0175733D02*
X0307723Y0181871D01*
X0293600Y0181688D02*
X0288996Y0181688D01*
X0288996Y0183990D01*
X0289763Y0184757D01*
X0291298Y0184757D01*
X0292065Y0183990D01*
X0292065Y0181688D01*
X0292065Y0183223D02*
X0293600Y0184757D01*
X0293600Y0186292D02*
X0290531Y0189361D01*
X0289763Y0189361D01*
X0288996Y0188594D01*
X0288996Y0187059D01*
X0289763Y0186292D01*
X0293600Y0186292D02*
X0293600Y0189361D01*
X0292833Y0190896D02*
X0293600Y0191663D01*
X0293600Y0193198D01*
X0292833Y0193965D01*
X0291298Y0193965D01*
X0290531Y0193198D01*
X0290531Y0192431D01*
X0291298Y0190896D01*
X0288996Y0190896D01*
X0288996Y0193965D01*
X0293380Y0206106D02*
X0294915Y0207641D01*
X0294915Y0210710D01*
X0296449Y0210710D02*
X0299518Y0206106D01*
X0299518Y0210710D01*
X0301053Y0209943D02*
X0301820Y0210710D01*
X0303355Y0210710D01*
X0304122Y0209943D01*
X0304122Y0209175D01*
X0301053Y0206106D01*
X0304122Y0206106D01*
X0305657Y0208408D02*
X0308726Y0208408D01*
X0310261Y0208408D02*
X0311796Y0209175D01*
X0312563Y0209175D01*
X0313330Y0208408D01*
X0313330Y0206873D01*
X0312563Y0206106D01*
X0311028Y0206106D01*
X0310261Y0206873D01*
X0310261Y0208408D02*
X0310261Y0210710D01*
X0313330Y0210710D01*
X0314865Y0209943D02*
X0315632Y0210710D01*
X0317167Y0210710D01*
X0317934Y0209943D01*
X0314865Y0206873D01*
X0315632Y0206106D01*
X0317167Y0206106D01*
X0317934Y0206873D01*
X0317934Y0209943D01*
X0314865Y0209943D02*
X0314865Y0206873D01*
X0307959Y0206106D02*
X0307959Y0210710D01*
X0305657Y0208408D01*
X0296449Y0206106D02*
X0296449Y0210710D01*
X0291845Y0210710D02*
X0291845Y0207641D01*
X0293380Y0206106D01*
X0290600Y0246688D02*
X0285996Y0246688D01*
X0285996Y0248990D01*
X0286763Y0249757D01*
X0288298Y0249757D01*
X0289065Y0248990D01*
X0289065Y0246688D01*
X0289065Y0248223D02*
X0290600Y0249757D01*
X0290600Y0251292D02*
X0287531Y0254361D01*
X0286763Y0254361D01*
X0285996Y0253594D01*
X0285996Y0252059D01*
X0286763Y0251292D01*
X0290600Y0251292D02*
X0290600Y0254361D01*
X0288298Y0255896D02*
X0285996Y0258198D01*
X0290600Y0258198D01*
X0288298Y0258965D02*
X0288298Y0255896D01*
X0296584Y0257104D02*
X0296584Y0253267D01*
X0297352Y0252500D01*
X0298886Y0252500D01*
X0299654Y0253267D01*
X0299654Y0257104D01*
X0301188Y0256337D02*
X0301955Y0257104D01*
X0303490Y0257104D01*
X0304257Y0256337D01*
X0303490Y0254802D02*
X0301955Y0254802D01*
X0301188Y0255569D01*
X0301188Y0256337D01*
X0302723Y0257871D02*
X0302723Y0251733D01*
X0303490Y0252500D02*
X0301955Y0252500D01*
X0301188Y0253267D01*
X0303490Y0252500D02*
X0304257Y0253267D01*
X0304257Y0254035D01*
X0303490Y0254802D01*
X0305792Y0255569D02*
X0307327Y0257104D01*
X0307327Y0252500D01*
X0308861Y0252500D02*
X0305792Y0252500D01*
X0310396Y0252500D02*
X0313465Y0252500D01*
X0311931Y0252500D02*
X0311931Y0257104D01*
X0310396Y0255569D01*
X0320496Y0258000D02*
X0320496Y0260302D01*
X0321263Y0261069D01*
X0322798Y0261069D01*
X0323565Y0260302D01*
X0323565Y0258000D01*
X0323565Y0259535D02*
X0325100Y0261069D01*
X0325100Y0262604D02*
X0322031Y0265673D01*
X0321263Y0265673D01*
X0320496Y0264906D01*
X0320496Y0263371D01*
X0321263Y0262604D01*
X0325100Y0262604D02*
X0325100Y0265673D01*
X0325100Y0267208D02*
X0322031Y0270277D01*
X0321263Y0270277D01*
X0320496Y0269510D01*
X0320496Y0267975D01*
X0321263Y0267208D01*
X0325100Y0267208D02*
X0325100Y0270277D01*
X0325100Y0258000D02*
X0320496Y0258000D01*
X0340496Y0259535D02*
X0345100Y0259535D01*
X0345100Y0261069D02*
X0345100Y0258000D01*
X0342031Y0258000D02*
X0340496Y0259535D01*
X0341263Y0262604D02*
X0340496Y0263371D01*
X0340496Y0264906D01*
X0341263Y0265673D01*
X0344333Y0262604D01*
X0345100Y0263371D01*
X0345100Y0264906D01*
X0344333Y0265673D01*
X0341263Y0265673D01*
X0340496Y0267208D02*
X0342031Y0268742D01*
X0340496Y0270277D01*
X0345100Y0270277D01*
X0345100Y0267208D02*
X0340496Y0267208D01*
X0341263Y0262604D02*
X0344333Y0262604D01*
X0320167Y0085710D02*
X0318632Y0085710D01*
X0317865Y0084943D01*
X0317865Y0081873D01*
X0320934Y0084943D01*
X0320934Y0081873D01*
X0320167Y0081106D01*
X0318632Y0081106D01*
X0317865Y0081873D01*
X0316330Y0081873D02*
X0315563Y0081106D01*
X0314028Y0081106D01*
X0313261Y0081873D01*
X0313261Y0083408D02*
X0314796Y0084175D01*
X0315563Y0084175D01*
X0316330Y0083408D01*
X0316330Y0081873D01*
X0313261Y0083408D02*
X0313261Y0085710D01*
X0316330Y0085710D01*
X0320167Y0085710D02*
X0320934Y0084943D01*
X0311726Y0083408D02*
X0308657Y0083408D01*
X0310959Y0085710D01*
X0310959Y0081106D01*
X0307122Y0081106D02*
X0304053Y0081106D01*
X0307122Y0084175D01*
X0307122Y0084943D01*
X0306355Y0085710D01*
X0304820Y0085710D01*
X0304053Y0084943D01*
X0302518Y0085710D02*
X0302518Y0081106D01*
X0299449Y0085710D01*
X0299449Y0081106D01*
X0297915Y0082641D02*
X0297915Y0085710D01*
X0297915Y0082641D02*
X0296380Y0081106D01*
X0294845Y0082641D01*
X0294845Y0085710D01*
X0292833Y0067965D02*
X0293600Y0067198D01*
X0293600Y0065663D01*
X0292833Y0064896D01*
X0291298Y0064896D02*
X0290531Y0066431D01*
X0290531Y0067198D01*
X0291298Y0067965D01*
X0292833Y0067965D01*
X0291298Y0064896D02*
X0288996Y0064896D01*
X0288996Y0067965D01*
X0289763Y0063361D02*
X0291298Y0063361D01*
X0292065Y0062594D01*
X0292065Y0060292D01*
X0292065Y0061827D02*
X0293600Y0063361D01*
X0293600Y0060292D02*
X0288996Y0060292D01*
X0288996Y0062594D01*
X0289763Y0063361D01*
X0278600Y0063361D02*
X0278600Y0061827D01*
X0277833Y0061059D01*
X0274763Y0064129D01*
X0277833Y0064129D01*
X0278600Y0063361D01*
X0278600Y0065663D02*
X0273996Y0065663D01*
X0274763Y0064129D02*
X0273996Y0063361D01*
X0273996Y0061827D01*
X0274763Y0061059D01*
X0277833Y0061059D01*
X0277833Y0059525D02*
X0278600Y0058757D01*
X0278600Y0057223D01*
X0277833Y0056456D01*
X0274763Y0059525D01*
X0277833Y0059525D01*
X0277833Y0056456D02*
X0274763Y0056456D01*
X0273996Y0057223D01*
X0273996Y0058757D01*
X0274763Y0059525D01*
X0278600Y0054921D02*
X0278600Y0051852D01*
X0278600Y0053386D02*
X0273996Y0053386D01*
X0275531Y0051852D01*
X0277065Y0065663D02*
X0275531Y0067965D01*
X0277065Y0065663D02*
X0278600Y0067965D01*
X0309188Y0056104D02*
X0309188Y0052267D01*
X0309956Y0051500D01*
X0311490Y0051500D01*
X0312257Y0052267D01*
X0312257Y0056104D01*
X0313792Y0055337D02*
X0314559Y0056104D01*
X0316094Y0056104D01*
X0316861Y0055337D01*
X0316094Y0053802D02*
X0314559Y0053802D01*
X0313792Y0054569D01*
X0313792Y0055337D01*
X0315327Y0056871D02*
X0315327Y0050733D01*
X0316094Y0051500D02*
X0316861Y0052267D01*
X0316861Y0053035D01*
X0316094Y0053802D01*
X0316094Y0051500D02*
X0314559Y0051500D01*
X0313792Y0052267D01*
X0318396Y0052267D02*
X0318396Y0053802D01*
X0320698Y0053802D01*
X0321465Y0053035D01*
X0321465Y0052267D01*
X0320698Y0051500D01*
X0319163Y0051500D01*
X0318396Y0052267D01*
X0318396Y0053802D02*
X0319931Y0055337D01*
X0321465Y0056104D01*
X0331496Y0060000D02*
X0331496Y0062302D01*
X0332263Y0063069D01*
X0333798Y0063069D01*
X0334565Y0062302D01*
X0334565Y0060000D01*
X0334565Y0061535D02*
X0336100Y0063069D01*
X0336100Y0064604D02*
X0336100Y0067673D01*
X0336100Y0066139D02*
X0331496Y0066139D01*
X0333031Y0064604D01*
X0333031Y0069208D02*
X0331496Y0070742D01*
X0336100Y0070742D01*
X0336100Y0069208D02*
X0336100Y0072277D01*
X0336100Y0060000D02*
X0331496Y0060000D01*
X0351496Y0061535D02*
X0356100Y0061535D01*
X0356100Y0063069D02*
X0356100Y0060000D01*
X0353031Y0060000D02*
X0351496Y0061535D01*
X0352263Y0064604D02*
X0351496Y0065371D01*
X0351496Y0066906D01*
X0352263Y0067673D01*
X0355333Y0064604D01*
X0356100Y0065371D01*
X0356100Y0066906D01*
X0355333Y0067673D01*
X0352263Y0067673D01*
X0351496Y0069208D02*
X0353031Y0070742D01*
X0351496Y0072277D01*
X0356100Y0072277D01*
X0356100Y0069208D02*
X0351496Y0069208D01*
X0352263Y0064604D02*
X0355333Y0064604D01*
X0184965Y0438000D02*
X0181896Y0438000D01*
X0180361Y0438000D02*
X0177292Y0438000D01*
X0180361Y0441069D01*
X0180361Y0441837D01*
X0179594Y0442604D01*
X0178059Y0442604D01*
X0177292Y0441837D01*
X0175757Y0441837D02*
X0175757Y0440302D01*
X0174990Y0439535D01*
X0172688Y0439535D01*
X0174223Y0439535D02*
X0175757Y0438000D01*
X0172688Y0438000D02*
X0172688Y0442604D01*
X0174990Y0442604D01*
X0175757Y0441837D01*
X0181896Y0441069D02*
X0183431Y0442604D01*
X0183431Y0438000D01*
X0184198Y0453000D02*
X0182663Y0453000D01*
X0181896Y0453767D01*
X0184965Y0456837D01*
X0184965Y0453767D01*
X0184198Y0453000D01*
X0181896Y0453767D02*
X0181896Y0456837D01*
X0182663Y0457604D01*
X0184198Y0457604D01*
X0184965Y0456837D01*
X0180361Y0453000D02*
X0177292Y0453000D01*
X0178827Y0453000D02*
X0178827Y0457604D01*
X0177292Y0456069D01*
X0167277Y0453000D02*
X0164208Y0453000D01*
X0165742Y0453000D02*
X0165742Y0457604D01*
X0164208Y0456069D01*
X0162673Y0453000D02*
X0159604Y0453000D01*
X0161139Y0453000D02*
X0161139Y0457604D01*
X0159604Y0456069D01*
X0158069Y0456837D02*
X0157302Y0457604D01*
X0155767Y0457604D01*
X0155000Y0456837D01*
X0155000Y0453767D01*
X0155767Y0453000D01*
X0157302Y0453000D01*
X0158069Y0453767D01*
X0156535Y0442604D02*
X0156535Y0438000D01*
X0158069Y0438000D02*
X0155000Y0438000D01*
X0155000Y0441069D02*
X0156535Y0442604D01*
X0159604Y0441069D02*
X0159604Y0438767D01*
X0160371Y0438000D01*
X0162673Y0438000D01*
X0162673Y0441069D01*
X0226000Y0541000D02*
X0229069Y0541000D01*
X0227535Y0541000D02*
X0227535Y0545604D01*
X0226000Y0544069D01*
X0230604Y0544069D02*
X0230604Y0541767D01*
X0231371Y0541000D01*
X0233673Y0541000D01*
X0233673Y0544069D01*
X0239496Y0543065D02*
X0239496Y0545367D01*
X0240263Y0546134D01*
X0241031Y0546134D01*
X0241798Y0545367D01*
X0241798Y0543065D01*
X0241798Y0545367D02*
X0242565Y0546134D01*
X0243333Y0546134D01*
X0244100Y0545367D01*
X0244100Y0543065D01*
X0239496Y0543065D01*
X0239496Y0541530D02*
X0244100Y0541530D01*
X0244100Y0538461D02*
X0239496Y0538461D01*
X0241031Y0539995D01*
X0239496Y0541530D01*
X0240263Y0536926D02*
X0239496Y0536159D01*
X0239496Y0534624D01*
X0240263Y0533857D01*
X0241031Y0533857D01*
X0241798Y0534624D01*
X0241798Y0536159D01*
X0242565Y0536926D01*
X0243333Y0536926D01*
X0244100Y0536159D01*
X0244100Y0534624D01*
X0243333Y0533857D01*
X0244100Y0532322D02*
X0244100Y0529253D01*
X0244100Y0530787D02*
X0239496Y0530787D01*
X0241031Y0529253D01*
X0241798Y0547668D02*
X0241031Y0549203D01*
X0241031Y0549970D01*
X0241798Y0550738D01*
X0243333Y0550738D01*
X0244100Y0549970D01*
X0244100Y0548436D01*
X0243333Y0547668D01*
X0241798Y0547668D02*
X0239496Y0547668D01*
X0239496Y0550738D01*
X0240263Y0552272D02*
X0241031Y0552272D01*
X0241798Y0553040D01*
X0241798Y0555342D01*
X0240263Y0555342D02*
X0239496Y0554574D01*
X0239496Y0553040D01*
X0240263Y0552272D01*
X0240263Y0555342D02*
X0243333Y0555342D01*
X0244100Y0554574D01*
X0244100Y0553040D01*
X0243333Y0552272D01*
X0244100Y0556876D02*
X0244100Y0559946D01*
X0244100Y0558411D02*
X0239496Y0558411D01*
X0241031Y0556876D01*
X0241031Y0561480D02*
X0240263Y0561480D01*
X0239496Y0562248D01*
X0239496Y0563782D01*
X0240263Y0564550D01*
X0241031Y0564550D01*
X0241798Y0563782D01*
X0241798Y0562248D01*
X0241031Y0561480D01*
X0241798Y0562248D02*
X0242565Y0561480D01*
X0243333Y0561480D01*
X0244100Y0562248D01*
X0244100Y0563782D01*
X0243333Y0564550D01*
X0242565Y0564550D01*
X0241798Y0563782D01*
X0241798Y0566084D02*
X0241798Y0568386D01*
X0242565Y0569153D01*
X0243333Y0569153D01*
X0244100Y0568386D01*
X0244100Y0566084D01*
X0239496Y0566084D01*
X0239496Y0568386D01*
X0240263Y0569153D01*
X0241031Y0569153D01*
X0241798Y0568386D01*
X0239496Y0570688D02*
X0239496Y0573757D01*
X0239496Y0572223D02*
X0244100Y0572223D01*
X0243333Y0575292D02*
X0244100Y0576059D01*
X0244100Y0577594D01*
X0243333Y0578361D01*
X0242565Y0578361D01*
X0241798Y0577594D01*
X0241798Y0576827D01*
X0241798Y0577594D02*
X0241031Y0578361D01*
X0240263Y0578361D01*
X0239496Y0577594D01*
X0239496Y0576059D01*
X0240263Y0575292D01*
X0240263Y0579896D02*
X0243333Y0579896D01*
X0244100Y0580663D01*
X0244100Y0582198D01*
X0243333Y0582965D01*
X0241798Y0582965D01*
X0241798Y0581431D01*
X0240263Y0582965D02*
X0239496Y0582198D01*
X0239496Y0580663D01*
X0240263Y0579896D01*
X0245300Y0584700D02*
X0245300Y0566900D01*
X0233673Y0560604D02*
X0230604Y0560604D01*
X0230604Y0558302D01*
X0232139Y0559069D01*
X0232906Y0559069D01*
X0233673Y0558302D01*
X0233673Y0556767D01*
X0232906Y0556000D01*
X0231371Y0556000D01*
X0230604Y0556767D01*
X0229069Y0556767D02*
X0228302Y0556000D01*
X0226767Y0556000D01*
X0226000Y0556767D01*
X0226000Y0559837D01*
X0226767Y0560604D01*
X0228302Y0560604D01*
X0229069Y0559837D01*
X0340496Y0511465D02*
X0340496Y0508396D01*
X0341263Y0506861D02*
X0342798Y0506861D01*
X0343565Y0506094D01*
X0343565Y0503792D01*
X0343565Y0505327D02*
X0345100Y0506861D01*
X0345100Y0508396D02*
X0344333Y0508396D01*
X0341263Y0511465D01*
X0340496Y0511465D01*
X0341263Y0506861D02*
X0340496Y0506094D01*
X0340496Y0503792D01*
X0345100Y0503792D01*
X0109965Y0588362D02*
X0106896Y0588362D01*
X0108431Y0588362D02*
X0108431Y0592966D01*
X0106896Y0591431D01*
X0105361Y0592199D02*
X0104594Y0592966D01*
X0102292Y0592966D01*
X0102292Y0588362D01*
X0104594Y0588362D01*
X0105361Y0589130D01*
X0105361Y0592199D01*
X0100757Y0592199D02*
X0099990Y0592966D01*
X0098455Y0592966D01*
X0097688Y0592199D01*
X0097688Y0589130D01*
X0098455Y0588362D01*
X0099990Y0588362D01*
X0100757Y0589130D01*
X0100757Y0590664D01*
X0099223Y0590664D01*
X0096153Y0588362D02*
X0093084Y0588362D01*
X0093084Y0592966D01*
X0091550Y0592199D02*
X0090782Y0592966D01*
X0089248Y0592966D01*
X0088480Y0592199D01*
X0088480Y0589130D01*
X0089248Y0588362D01*
X0090782Y0588362D01*
X0091550Y0589130D01*
X0091550Y0592199D01*
X0086946Y0592199D02*
X0086946Y0590664D01*
X0086178Y0589897D01*
X0083876Y0589897D01*
X0083876Y0588362D02*
X0083876Y0592966D01*
X0086178Y0592966D01*
X0086946Y0592199D01*
X0085411Y0589897D02*
X0086946Y0588362D01*
X0080807Y0588362D02*
X0080807Y0592966D01*
X0079272Y0592966D02*
X0082342Y0592966D01*
X0077738Y0592966D02*
X0077738Y0588362D01*
X0074669Y0592966D01*
X0074669Y0588362D01*
X0073134Y0589130D02*
X0073134Y0592199D01*
X0072367Y0592966D01*
X0070832Y0592966D01*
X0070065Y0592199D01*
X0070065Y0589130D01*
X0070832Y0588362D01*
X0072367Y0588362D01*
X0073134Y0589130D01*
X0068530Y0589130D02*
X0067763Y0588362D01*
X0066228Y0588362D01*
X0065461Y0589130D01*
X0065461Y0592199D01*
X0066228Y0592966D01*
X0067763Y0592966D01*
X0068530Y0592199D01*
X0044965Y0581199D02*
X0044198Y0581966D01*
X0041896Y0581966D01*
X0041896Y0577362D01*
X0044198Y0577362D01*
X0044965Y0578130D01*
X0044965Y0581199D01*
X0040361Y0581199D02*
X0039594Y0581966D01*
X0038059Y0581966D01*
X0037292Y0581199D01*
X0037292Y0578130D01*
X0038059Y0577362D01*
X0039594Y0577362D01*
X0040361Y0578130D01*
X0040361Y0579664D01*
X0038827Y0579664D01*
X0035757Y0579664D02*
X0034990Y0578897D01*
X0032688Y0578897D01*
X0034223Y0578897D02*
X0035757Y0577362D01*
X0035757Y0579664D02*
X0035757Y0581199D01*
X0034990Y0581966D01*
X0032688Y0581966D01*
X0032688Y0577362D01*
X0031154Y0577362D02*
X0028084Y0577362D01*
X0028084Y0581966D01*
X0031154Y0581966D01*
X0029619Y0579664D02*
X0028084Y0579664D01*
X0026550Y0577362D02*
X0026550Y0581966D01*
X0023480Y0581966D02*
X0023480Y0577362D01*
X0025015Y0578897D01*
X0026550Y0577362D01*
X0021946Y0578130D02*
X0021946Y0581199D01*
X0021178Y0581966D01*
X0019644Y0581966D01*
X0018876Y0581199D01*
X0018876Y0578130D01*
X0019644Y0577362D01*
X0021178Y0577362D01*
X0021946Y0578130D01*
X0017342Y0579664D02*
X0016574Y0578897D01*
X0014272Y0578897D01*
X0014272Y0577362D02*
X0014272Y0581966D01*
X0016574Y0581966D01*
X0017342Y0581199D01*
X0017342Y0579664D01*
X0063800Y0537800D02*
X0072550Y0537800D01*
X0072550Y0535300D01*
X0075050Y0535300D01*
X0075050Y0537800D01*
X0075050Y0540300D01*
X0072550Y0540300D01*
X0072550Y0537800D01*
X0075050Y0537800D02*
X0083800Y0537800D01*
X0083800Y0507800D02*
X0077550Y0507800D01*
X0077550Y0477800D01*
X0078800Y0477800D01*
X0083800Y0480300D01*
X0082550Y0480300D02*
X0082550Y0487800D01*
X0083800Y0487800D01*
X0082550Y0475300D02*
X0082550Y0467800D01*
X0083800Y0467800D01*
X0070050Y0477800D02*
X0068800Y0477800D01*
X0063800Y0480300D01*
X0065050Y0480300D02*
X0065050Y0487800D01*
X0063800Y0487800D01*
X0070050Y0477800D02*
X0070050Y0507800D01*
X0063800Y0507800D01*
X0065050Y0475300D02*
X0065050Y0467800D01*
X0063800Y0467800D01*
D13*
X0065550Y0558550D02*
X0068553Y0558550D01*
X0067051Y0558550D02*
X0067051Y0563054D01*
X0065550Y0561553D01*
X0070154Y0563054D02*
X0073156Y0558550D01*
X0073156Y0563054D01*
X0074758Y0560802D02*
X0077760Y0560802D01*
X0079362Y0561553D02*
X0080863Y0563054D01*
X0080863Y0558550D01*
X0079362Y0558550D02*
X0082364Y0558550D01*
X0083966Y0560802D02*
X0086968Y0560802D01*
X0088570Y0561553D02*
X0088570Y0562303D01*
X0089320Y0563054D01*
X0090822Y0563054D01*
X0091572Y0562303D01*
X0091572Y0561553D01*
X0090822Y0560802D01*
X0089320Y0560802D01*
X0088570Y0561553D01*
X0089320Y0560802D02*
X0088570Y0560051D01*
X0088570Y0559301D01*
X0089320Y0558550D01*
X0090822Y0558550D01*
X0091572Y0559301D01*
X0091572Y0560051D01*
X0090822Y0560802D01*
X0093174Y0563054D02*
X0095425Y0563054D01*
X0096176Y0562303D01*
X0096176Y0559301D01*
X0095425Y0558550D01*
X0093174Y0558550D01*
X0093174Y0563054D01*
X0097777Y0562303D02*
X0097777Y0559301D01*
X0098528Y0558550D01*
X0100029Y0558550D01*
X0100780Y0559301D01*
X0100780Y0562303D01*
X0100029Y0563054D01*
X0098528Y0563054D01*
X0097777Y0562303D01*
X0102381Y0562303D02*
X0103132Y0563054D01*
X0104633Y0563054D01*
X0105384Y0562303D01*
X0105384Y0561553D01*
X0104633Y0560802D01*
X0105384Y0560051D01*
X0105384Y0559301D01*
X0104633Y0558550D01*
X0103132Y0558550D01*
X0102381Y0559301D01*
X0103883Y0560802D02*
X0104633Y0560802D01*
X0106985Y0560802D02*
X0106985Y0563054D01*
X0109988Y0563054D01*
X0109237Y0561553D02*
X0108487Y0561553D01*
X0106985Y0560802D01*
X0106985Y0559301D02*
X0107736Y0558550D01*
X0109237Y0558550D01*
X0109988Y0559301D01*
X0109988Y0560802D01*
X0109237Y0561553D01*
X0111589Y0560802D02*
X0114592Y0560802D01*
X0116193Y0561553D02*
X0117694Y0563054D01*
X0117694Y0558550D01*
X0116193Y0558550D02*
X0119196Y0558550D01*
X0120797Y0559301D02*
X0123800Y0562303D01*
X0123800Y0559301D01*
X0123049Y0558550D01*
X0121548Y0558550D01*
X0120797Y0559301D01*
X0120797Y0562303D01*
X0121548Y0563054D01*
X0123049Y0563054D01*
X0123800Y0562303D01*
X0086218Y0563054D02*
X0086218Y0558550D01*
X0083966Y0560802D02*
X0086218Y0563054D01*
X0077010Y0563054D02*
X0077010Y0558550D01*
X0074758Y0560802D02*
X0077010Y0563054D01*
X0077760Y0574050D02*
X0074758Y0574050D01*
X0076259Y0574050D02*
X0076259Y0578554D01*
X0074758Y0577053D01*
X0073156Y0574050D02*
X0070154Y0574050D01*
X0071655Y0574050D02*
X0071655Y0578554D01*
X0070154Y0577053D01*
X0068553Y0577803D02*
X0068553Y0574801D01*
X0067802Y0574050D01*
X0065550Y0574050D01*
X0065550Y0578554D01*
X0067802Y0578554D01*
X0068553Y0577803D01*
X0070154Y0563054D02*
X0070154Y0558550D01*
X0041050Y0564593D02*
X0041050Y0566094D01*
X0040299Y0566845D01*
X0040299Y0568446D02*
X0041050Y0568446D01*
X0040299Y0568446D02*
X0037297Y0571449D01*
X0036546Y0571449D01*
X0036546Y0568446D01*
X0037297Y0566845D02*
X0036546Y0566094D01*
X0036546Y0564593D01*
X0037297Y0563842D01*
X0040299Y0563842D01*
X0041050Y0564593D01*
X0021550Y0564593D02*
X0020799Y0563842D01*
X0017797Y0566845D01*
X0020799Y0566845D01*
X0021550Y0566094D01*
X0021550Y0564593D01*
X0020799Y0563842D02*
X0017797Y0563842D01*
X0017046Y0564593D01*
X0017046Y0566094D01*
X0017797Y0566845D01*
X0018547Y0568446D02*
X0018547Y0570698D01*
X0019298Y0571449D01*
X0021550Y0571449D01*
X0021550Y0568446D02*
X0018547Y0568446D01*
X0021550Y0562241D02*
X0021550Y0559238D01*
X0021550Y0560739D02*
X0017046Y0560739D01*
X0018547Y0559238D01*
X0165050Y0642801D02*
X0165801Y0642050D01*
X0167302Y0642050D01*
X0168053Y0642801D01*
X0168053Y0644302D01*
X0166551Y0644302D01*
X0165050Y0645803D02*
X0165801Y0646554D01*
X0167302Y0646554D01*
X0168053Y0645803D01*
X0169654Y0646554D02*
X0172656Y0642050D01*
X0172656Y0646554D01*
X0174258Y0646554D02*
X0176510Y0646554D01*
X0177260Y0645803D01*
X0177260Y0642801D01*
X0176510Y0642050D01*
X0174258Y0642050D01*
X0174258Y0646554D01*
X0169654Y0646554D02*
X0169654Y0642050D01*
X0165050Y0642801D02*
X0165050Y0645803D01*
X0178862Y0645053D02*
X0180363Y0646554D01*
X0180363Y0642050D01*
X0178862Y0642050D02*
X0181864Y0642050D01*
X0183466Y0642801D02*
X0184216Y0642050D01*
X0185718Y0642050D01*
X0186468Y0642801D01*
X0186468Y0644302D01*
X0185718Y0645053D01*
X0184967Y0645053D01*
X0183466Y0644302D01*
X0183466Y0646554D01*
X0186468Y0646554D01*
X0197800Y0589800D02*
X0197800Y0564800D01*
X0197800Y0549800D01*
X0217800Y0549800D01*
X0217800Y0589800D01*
X0197800Y0589800D01*
X0197800Y0564800D02*
X0197802Y0564941D01*
X0197808Y0565082D01*
X0197818Y0565222D01*
X0197832Y0565362D01*
X0197850Y0565502D01*
X0197871Y0565641D01*
X0197897Y0565780D01*
X0197926Y0565918D01*
X0197960Y0566054D01*
X0197997Y0566190D01*
X0198038Y0566325D01*
X0198083Y0566459D01*
X0198132Y0566591D01*
X0198184Y0566722D01*
X0198240Y0566851D01*
X0198300Y0566978D01*
X0198363Y0567104D01*
X0198429Y0567228D01*
X0198500Y0567351D01*
X0198573Y0567471D01*
X0198650Y0567589D01*
X0198730Y0567705D01*
X0198814Y0567818D01*
X0198900Y0567929D01*
X0198990Y0568038D01*
X0199083Y0568144D01*
X0199178Y0568247D01*
X0199277Y0568348D01*
X0199378Y0568446D01*
X0199482Y0568541D01*
X0199589Y0568633D01*
X0199698Y0568722D01*
X0199810Y0568807D01*
X0199924Y0568890D01*
X0200040Y0568970D01*
X0200159Y0569046D01*
X0200280Y0569118D01*
X0200402Y0569188D01*
X0200527Y0569253D01*
X0200653Y0569316D01*
X0200781Y0569374D01*
X0200911Y0569429D01*
X0201042Y0569481D01*
X0201175Y0569528D01*
X0201309Y0569572D01*
X0201444Y0569613D01*
X0201580Y0569649D01*
X0201717Y0569681D01*
X0201855Y0569710D01*
X0201993Y0569735D01*
X0202133Y0569755D01*
X0202273Y0569772D01*
X0202413Y0569785D01*
X0202554Y0569794D01*
X0202694Y0569799D01*
X0202835Y0569800D01*
X0202976Y0569797D01*
X0203117Y0569790D01*
X0203257Y0569779D01*
X0203397Y0569764D01*
X0203537Y0569745D01*
X0203676Y0569723D01*
X0203814Y0569696D01*
X0203952Y0569666D01*
X0204088Y0569631D01*
X0204224Y0569593D01*
X0204358Y0569551D01*
X0204492Y0569505D01*
X0204624Y0569456D01*
X0204754Y0569402D01*
X0204883Y0569345D01*
X0205010Y0569285D01*
X0205136Y0569221D01*
X0205259Y0569153D01*
X0205381Y0569082D01*
X0205501Y0569008D01*
X0205618Y0568930D01*
X0205733Y0568849D01*
X0205846Y0568765D01*
X0205957Y0568678D01*
X0206065Y0568587D01*
X0206170Y0568494D01*
X0206273Y0568397D01*
X0206373Y0568298D01*
X0206470Y0568196D01*
X0206564Y0568091D01*
X0206655Y0567984D01*
X0206743Y0567874D01*
X0206828Y0567762D01*
X0206910Y0567647D01*
X0206989Y0567530D01*
X0207064Y0567411D01*
X0207136Y0567290D01*
X0207204Y0567167D01*
X0207269Y0567042D01*
X0207331Y0566915D01*
X0207388Y0566786D01*
X0207443Y0566656D01*
X0207493Y0566525D01*
X0207540Y0566392D01*
X0207583Y0566258D01*
X0207622Y0566122D01*
X0207657Y0565986D01*
X0207689Y0565849D01*
X0207716Y0565711D01*
X0207740Y0565572D01*
X0207760Y0565432D01*
X0207776Y0565292D01*
X0207788Y0565152D01*
X0207796Y0565011D01*
X0207800Y0564870D01*
X0207800Y0564730D01*
X0207796Y0564589D01*
X0207788Y0564448D01*
X0207776Y0564308D01*
X0207760Y0564168D01*
X0207740Y0564028D01*
X0207716Y0563889D01*
X0207689Y0563751D01*
X0207657Y0563614D01*
X0207622Y0563478D01*
X0207583Y0563342D01*
X0207540Y0563208D01*
X0207493Y0563075D01*
X0207443Y0562944D01*
X0207388Y0562814D01*
X0207331Y0562685D01*
X0207269Y0562558D01*
X0207204Y0562433D01*
X0207136Y0562310D01*
X0207064Y0562189D01*
X0206989Y0562070D01*
X0206910Y0561953D01*
X0206828Y0561838D01*
X0206743Y0561726D01*
X0206655Y0561616D01*
X0206564Y0561509D01*
X0206470Y0561404D01*
X0206373Y0561302D01*
X0206273Y0561203D01*
X0206170Y0561106D01*
X0206065Y0561013D01*
X0205957Y0560922D01*
X0205846Y0560835D01*
X0205733Y0560751D01*
X0205618Y0560670D01*
X0205501Y0560592D01*
X0205381Y0560518D01*
X0205259Y0560447D01*
X0205136Y0560379D01*
X0205010Y0560315D01*
X0204883Y0560255D01*
X0204754Y0560198D01*
X0204624Y0560144D01*
X0204492Y0560095D01*
X0204358Y0560049D01*
X0204224Y0560007D01*
X0204088Y0559969D01*
X0203952Y0559934D01*
X0203814Y0559904D01*
X0203676Y0559877D01*
X0203537Y0559855D01*
X0203397Y0559836D01*
X0203257Y0559821D01*
X0203117Y0559810D01*
X0202976Y0559803D01*
X0202835Y0559800D01*
X0202694Y0559801D01*
X0202554Y0559806D01*
X0202413Y0559815D01*
X0202273Y0559828D01*
X0202133Y0559845D01*
X0201993Y0559865D01*
X0201855Y0559890D01*
X0201717Y0559919D01*
X0201580Y0559951D01*
X0201444Y0559987D01*
X0201309Y0560028D01*
X0201175Y0560072D01*
X0201042Y0560119D01*
X0200911Y0560171D01*
X0200781Y0560226D01*
X0200653Y0560284D01*
X0200527Y0560347D01*
X0200402Y0560412D01*
X0200280Y0560482D01*
X0200159Y0560554D01*
X0200040Y0560630D01*
X0199924Y0560710D01*
X0199810Y0560793D01*
X0199698Y0560878D01*
X0199589Y0560967D01*
X0199482Y0561059D01*
X0199378Y0561154D01*
X0199277Y0561252D01*
X0199178Y0561353D01*
X0199083Y0561456D01*
X0198990Y0561562D01*
X0198900Y0561671D01*
X0198814Y0561782D01*
X0198730Y0561895D01*
X0198650Y0562011D01*
X0198573Y0562129D01*
X0198500Y0562249D01*
X0198429Y0562372D01*
X0198363Y0562496D01*
X0198300Y0562622D01*
X0198240Y0562749D01*
X0198184Y0562878D01*
X0198132Y0563009D01*
X0198083Y0563141D01*
X0198038Y0563275D01*
X0197997Y0563410D01*
X0197960Y0563546D01*
X0197926Y0563682D01*
X0197897Y0563820D01*
X0197871Y0563959D01*
X0197850Y0564098D01*
X0197832Y0564238D01*
X0197818Y0564378D01*
X0197808Y0564518D01*
X0197802Y0564659D01*
X0197800Y0564800D01*
X0197800Y0452800D02*
X0197800Y0427800D01*
X0197800Y0412800D01*
X0217800Y0412800D01*
X0217800Y0452800D01*
X0197800Y0452800D01*
X0197800Y0427800D02*
X0197802Y0427941D01*
X0197808Y0428082D01*
X0197818Y0428222D01*
X0197832Y0428362D01*
X0197850Y0428502D01*
X0197871Y0428641D01*
X0197897Y0428780D01*
X0197926Y0428918D01*
X0197960Y0429054D01*
X0197997Y0429190D01*
X0198038Y0429325D01*
X0198083Y0429459D01*
X0198132Y0429591D01*
X0198184Y0429722D01*
X0198240Y0429851D01*
X0198300Y0429978D01*
X0198363Y0430104D01*
X0198429Y0430228D01*
X0198500Y0430351D01*
X0198573Y0430471D01*
X0198650Y0430589D01*
X0198730Y0430705D01*
X0198814Y0430818D01*
X0198900Y0430929D01*
X0198990Y0431038D01*
X0199083Y0431144D01*
X0199178Y0431247D01*
X0199277Y0431348D01*
X0199378Y0431446D01*
X0199482Y0431541D01*
X0199589Y0431633D01*
X0199698Y0431722D01*
X0199810Y0431807D01*
X0199924Y0431890D01*
X0200040Y0431970D01*
X0200159Y0432046D01*
X0200280Y0432118D01*
X0200402Y0432188D01*
X0200527Y0432253D01*
X0200653Y0432316D01*
X0200781Y0432374D01*
X0200911Y0432429D01*
X0201042Y0432481D01*
X0201175Y0432528D01*
X0201309Y0432572D01*
X0201444Y0432613D01*
X0201580Y0432649D01*
X0201717Y0432681D01*
X0201855Y0432710D01*
X0201993Y0432735D01*
X0202133Y0432755D01*
X0202273Y0432772D01*
X0202413Y0432785D01*
X0202554Y0432794D01*
X0202694Y0432799D01*
X0202835Y0432800D01*
X0202976Y0432797D01*
X0203117Y0432790D01*
X0203257Y0432779D01*
X0203397Y0432764D01*
X0203537Y0432745D01*
X0203676Y0432723D01*
X0203814Y0432696D01*
X0203952Y0432666D01*
X0204088Y0432631D01*
X0204224Y0432593D01*
X0204358Y0432551D01*
X0204492Y0432505D01*
X0204624Y0432456D01*
X0204754Y0432402D01*
X0204883Y0432345D01*
X0205010Y0432285D01*
X0205136Y0432221D01*
X0205259Y0432153D01*
X0205381Y0432082D01*
X0205501Y0432008D01*
X0205618Y0431930D01*
X0205733Y0431849D01*
X0205846Y0431765D01*
X0205957Y0431678D01*
X0206065Y0431587D01*
X0206170Y0431494D01*
X0206273Y0431397D01*
X0206373Y0431298D01*
X0206470Y0431196D01*
X0206564Y0431091D01*
X0206655Y0430984D01*
X0206743Y0430874D01*
X0206828Y0430762D01*
X0206910Y0430647D01*
X0206989Y0430530D01*
X0207064Y0430411D01*
X0207136Y0430290D01*
X0207204Y0430167D01*
X0207269Y0430042D01*
X0207331Y0429915D01*
X0207388Y0429786D01*
X0207443Y0429656D01*
X0207493Y0429525D01*
X0207540Y0429392D01*
X0207583Y0429258D01*
X0207622Y0429122D01*
X0207657Y0428986D01*
X0207689Y0428849D01*
X0207716Y0428711D01*
X0207740Y0428572D01*
X0207760Y0428432D01*
X0207776Y0428292D01*
X0207788Y0428152D01*
X0207796Y0428011D01*
X0207800Y0427870D01*
X0207800Y0427730D01*
X0207796Y0427589D01*
X0207788Y0427448D01*
X0207776Y0427308D01*
X0207760Y0427168D01*
X0207740Y0427028D01*
X0207716Y0426889D01*
X0207689Y0426751D01*
X0207657Y0426614D01*
X0207622Y0426478D01*
X0207583Y0426342D01*
X0207540Y0426208D01*
X0207493Y0426075D01*
X0207443Y0425944D01*
X0207388Y0425814D01*
X0207331Y0425685D01*
X0207269Y0425558D01*
X0207204Y0425433D01*
X0207136Y0425310D01*
X0207064Y0425189D01*
X0206989Y0425070D01*
X0206910Y0424953D01*
X0206828Y0424838D01*
X0206743Y0424726D01*
X0206655Y0424616D01*
X0206564Y0424509D01*
X0206470Y0424404D01*
X0206373Y0424302D01*
X0206273Y0424203D01*
X0206170Y0424106D01*
X0206065Y0424013D01*
X0205957Y0423922D01*
X0205846Y0423835D01*
X0205733Y0423751D01*
X0205618Y0423670D01*
X0205501Y0423592D01*
X0205381Y0423518D01*
X0205259Y0423447D01*
X0205136Y0423379D01*
X0205010Y0423315D01*
X0204883Y0423255D01*
X0204754Y0423198D01*
X0204624Y0423144D01*
X0204492Y0423095D01*
X0204358Y0423049D01*
X0204224Y0423007D01*
X0204088Y0422969D01*
X0203952Y0422934D01*
X0203814Y0422904D01*
X0203676Y0422877D01*
X0203537Y0422855D01*
X0203397Y0422836D01*
X0203257Y0422821D01*
X0203117Y0422810D01*
X0202976Y0422803D01*
X0202835Y0422800D01*
X0202694Y0422801D01*
X0202554Y0422806D01*
X0202413Y0422815D01*
X0202273Y0422828D01*
X0202133Y0422845D01*
X0201993Y0422865D01*
X0201855Y0422890D01*
X0201717Y0422919D01*
X0201580Y0422951D01*
X0201444Y0422987D01*
X0201309Y0423028D01*
X0201175Y0423072D01*
X0201042Y0423119D01*
X0200911Y0423171D01*
X0200781Y0423226D01*
X0200653Y0423284D01*
X0200527Y0423347D01*
X0200402Y0423412D01*
X0200280Y0423482D01*
X0200159Y0423554D01*
X0200040Y0423630D01*
X0199924Y0423710D01*
X0199810Y0423793D01*
X0199698Y0423878D01*
X0199589Y0423967D01*
X0199482Y0424059D01*
X0199378Y0424154D01*
X0199277Y0424252D01*
X0199178Y0424353D01*
X0199083Y0424456D01*
X0198990Y0424562D01*
X0198900Y0424671D01*
X0198814Y0424782D01*
X0198730Y0424895D01*
X0198650Y0425011D01*
X0198573Y0425129D01*
X0198500Y0425249D01*
X0198429Y0425372D01*
X0198363Y0425496D01*
X0198300Y0425622D01*
X0198240Y0425749D01*
X0198184Y0425878D01*
X0198132Y0426009D01*
X0198083Y0426141D01*
X0198038Y0426275D01*
X0197997Y0426410D01*
X0197960Y0426546D01*
X0197926Y0426682D01*
X0197897Y0426820D01*
X0197871Y0426959D01*
X0197850Y0427098D01*
X0197832Y0427238D01*
X0197818Y0427378D01*
X0197808Y0427518D01*
X0197802Y0427659D01*
X0197800Y0427800D01*
X0192800Y0281800D02*
X0192800Y0256800D01*
X0192800Y0241800D01*
X0212800Y0241800D01*
X0212800Y0281800D01*
X0192800Y0281800D01*
X0192800Y0256800D02*
X0192802Y0256941D01*
X0192808Y0257082D01*
X0192818Y0257222D01*
X0192832Y0257362D01*
X0192850Y0257502D01*
X0192871Y0257641D01*
X0192897Y0257780D01*
X0192926Y0257918D01*
X0192960Y0258054D01*
X0192997Y0258190D01*
X0193038Y0258325D01*
X0193083Y0258459D01*
X0193132Y0258591D01*
X0193184Y0258722D01*
X0193240Y0258851D01*
X0193300Y0258978D01*
X0193363Y0259104D01*
X0193429Y0259228D01*
X0193500Y0259351D01*
X0193573Y0259471D01*
X0193650Y0259589D01*
X0193730Y0259705D01*
X0193814Y0259818D01*
X0193900Y0259929D01*
X0193990Y0260038D01*
X0194083Y0260144D01*
X0194178Y0260247D01*
X0194277Y0260348D01*
X0194378Y0260446D01*
X0194482Y0260541D01*
X0194589Y0260633D01*
X0194698Y0260722D01*
X0194810Y0260807D01*
X0194924Y0260890D01*
X0195040Y0260970D01*
X0195159Y0261046D01*
X0195280Y0261118D01*
X0195402Y0261188D01*
X0195527Y0261253D01*
X0195653Y0261316D01*
X0195781Y0261374D01*
X0195911Y0261429D01*
X0196042Y0261481D01*
X0196175Y0261528D01*
X0196309Y0261572D01*
X0196444Y0261613D01*
X0196580Y0261649D01*
X0196717Y0261681D01*
X0196855Y0261710D01*
X0196993Y0261735D01*
X0197133Y0261755D01*
X0197273Y0261772D01*
X0197413Y0261785D01*
X0197554Y0261794D01*
X0197694Y0261799D01*
X0197835Y0261800D01*
X0197976Y0261797D01*
X0198117Y0261790D01*
X0198257Y0261779D01*
X0198397Y0261764D01*
X0198537Y0261745D01*
X0198676Y0261723D01*
X0198814Y0261696D01*
X0198952Y0261666D01*
X0199088Y0261631D01*
X0199224Y0261593D01*
X0199358Y0261551D01*
X0199492Y0261505D01*
X0199624Y0261456D01*
X0199754Y0261402D01*
X0199883Y0261345D01*
X0200010Y0261285D01*
X0200136Y0261221D01*
X0200259Y0261153D01*
X0200381Y0261082D01*
X0200501Y0261008D01*
X0200618Y0260930D01*
X0200733Y0260849D01*
X0200846Y0260765D01*
X0200957Y0260678D01*
X0201065Y0260587D01*
X0201170Y0260494D01*
X0201273Y0260397D01*
X0201373Y0260298D01*
X0201470Y0260196D01*
X0201564Y0260091D01*
X0201655Y0259984D01*
X0201743Y0259874D01*
X0201828Y0259762D01*
X0201910Y0259647D01*
X0201989Y0259530D01*
X0202064Y0259411D01*
X0202136Y0259290D01*
X0202204Y0259167D01*
X0202269Y0259042D01*
X0202331Y0258915D01*
X0202388Y0258786D01*
X0202443Y0258656D01*
X0202493Y0258525D01*
X0202540Y0258392D01*
X0202583Y0258258D01*
X0202622Y0258122D01*
X0202657Y0257986D01*
X0202689Y0257849D01*
X0202716Y0257711D01*
X0202740Y0257572D01*
X0202760Y0257432D01*
X0202776Y0257292D01*
X0202788Y0257152D01*
X0202796Y0257011D01*
X0202800Y0256870D01*
X0202800Y0256730D01*
X0202796Y0256589D01*
X0202788Y0256448D01*
X0202776Y0256308D01*
X0202760Y0256168D01*
X0202740Y0256028D01*
X0202716Y0255889D01*
X0202689Y0255751D01*
X0202657Y0255614D01*
X0202622Y0255478D01*
X0202583Y0255342D01*
X0202540Y0255208D01*
X0202493Y0255075D01*
X0202443Y0254944D01*
X0202388Y0254814D01*
X0202331Y0254685D01*
X0202269Y0254558D01*
X0202204Y0254433D01*
X0202136Y0254310D01*
X0202064Y0254189D01*
X0201989Y0254070D01*
X0201910Y0253953D01*
X0201828Y0253838D01*
X0201743Y0253726D01*
X0201655Y0253616D01*
X0201564Y0253509D01*
X0201470Y0253404D01*
X0201373Y0253302D01*
X0201273Y0253203D01*
X0201170Y0253106D01*
X0201065Y0253013D01*
X0200957Y0252922D01*
X0200846Y0252835D01*
X0200733Y0252751D01*
X0200618Y0252670D01*
X0200501Y0252592D01*
X0200381Y0252518D01*
X0200259Y0252447D01*
X0200136Y0252379D01*
X0200010Y0252315D01*
X0199883Y0252255D01*
X0199754Y0252198D01*
X0199624Y0252144D01*
X0199492Y0252095D01*
X0199358Y0252049D01*
X0199224Y0252007D01*
X0199088Y0251969D01*
X0198952Y0251934D01*
X0198814Y0251904D01*
X0198676Y0251877D01*
X0198537Y0251855D01*
X0198397Y0251836D01*
X0198257Y0251821D01*
X0198117Y0251810D01*
X0197976Y0251803D01*
X0197835Y0251800D01*
X0197694Y0251801D01*
X0197554Y0251806D01*
X0197413Y0251815D01*
X0197273Y0251828D01*
X0197133Y0251845D01*
X0196993Y0251865D01*
X0196855Y0251890D01*
X0196717Y0251919D01*
X0196580Y0251951D01*
X0196444Y0251987D01*
X0196309Y0252028D01*
X0196175Y0252072D01*
X0196042Y0252119D01*
X0195911Y0252171D01*
X0195781Y0252226D01*
X0195653Y0252284D01*
X0195527Y0252347D01*
X0195402Y0252412D01*
X0195280Y0252482D01*
X0195159Y0252554D01*
X0195040Y0252630D01*
X0194924Y0252710D01*
X0194810Y0252793D01*
X0194698Y0252878D01*
X0194589Y0252967D01*
X0194482Y0253059D01*
X0194378Y0253154D01*
X0194277Y0253252D01*
X0194178Y0253353D01*
X0194083Y0253456D01*
X0193990Y0253562D01*
X0193900Y0253671D01*
X0193814Y0253782D01*
X0193730Y0253895D01*
X0193650Y0254011D01*
X0193573Y0254129D01*
X0193500Y0254249D01*
X0193429Y0254372D01*
X0193363Y0254496D01*
X0193300Y0254622D01*
X0193240Y0254749D01*
X0193184Y0254878D01*
X0193132Y0255009D01*
X0193083Y0255141D01*
X0193038Y0255275D01*
X0192997Y0255410D01*
X0192960Y0255546D01*
X0192926Y0255682D01*
X0192897Y0255820D01*
X0192871Y0255959D01*
X0192850Y0256098D01*
X0192832Y0256238D01*
X0192818Y0256378D01*
X0192808Y0256518D01*
X0192802Y0256659D01*
X0192800Y0256800D01*
X0192800Y0148800D02*
X0192800Y0123800D01*
X0192800Y0108800D01*
X0212800Y0108800D01*
X0212800Y0148800D01*
X0192800Y0148800D01*
X0192800Y0123800D02*
X0192802Y0123941D01*
X0192808Y0124082D01*
X0192818Y0124222D01*
X0192832Y0124362D01*
X0192850Y0124502D01*
X0192871Y0124641D01*
X0192897Y0124780D01*
X0192926Y0124918D01*
X0192960Y0125054D01*
X0192997Y0125190D01*
X0193038Y0125325D01*
X0193083Y0125459D01*
X0193132Y0125591D01*
X0193184Y0125722D01*
X0193240Y0125851D01*
X0193300Y0125978D01*
X0193363Y0126104D01*
X0193429Y0126228D01*
X0193500Y0126351D01*
X0193573Y0126471D01*
X0193650Y0126589D01*
X0193730Y0126705D01*
X0193814Y0126818D01*
X0193900Y0126929D01*
X0193990Y0127038D01*
X0194083Y0127144D01*
X0194178Y0127247D01*
X0194277Y0127348D01*
X0194378Y0127446D01*
X0194482Y0127541D01*
X0194589Y0127633D01*
X0194698Y0127722D01*
X0194810Y0127807D01*
X0194924Y0127890D01*
X0195040Y0127970D01*
X0195159Y0128046D01*
X0195280Y0128118D01*
X0195402Y0128188D01*
X0195527Y0128253D01*
X0195653Y0128316D01*
X0195781Y0128374D01*
X0195911Y0128429D01*
X0196042Y0128481D01*
X0196175Y0128528D01*
X0196309Y0128572D01*
X0196444Y0128613D01*
X0196580Y0128649D01*
X0196717Y0128681D01*
X0196855Y0128710D01*
X0196993Y0128735D01*
X0197133Y0128755D01*
X0197273Y0128772D01*
X0197413Y0128785D01*
X0197554Y0128794D01*
X0197694Y0128799D01*
X0197835Y0128800D01*
X0197976Y0128797D01*
X0198117Y0128790D01*
X0198257Y0128779D01*
X0198397Y0128764D01*
X0198537Y0128745D01*
X0198676Y0128723D01*
X0198814Y0128696D01*
X0198952Y0128666D01*
X0199088Y0128631D01*
X0199224Y0128593D01*
X0199358Y0128551D01*
X0199492Y0128505D01*
X0199624Y0128456D01*
X0199754Y0128402D01*
X0199883Y0128345D01*
X0200010Y0128285D01*
X0200136Y0128221D01*
X0200259Y0128153D01*
X0200381Y0128082D01*
X0200501Y0128008D01*
X0200618Y0127930D01*
X0200733Y0127849D01*
X0200846Y0127765D01*
X0200957Y0127678D01*
X0201065Y0127587D01*
X0201170Y0127494D01*
X0201273Y0127397D01*
X0201373Y0127298D01*
X0201470Y0127196D01*
X0201564Y0127091D01*
X0201655Y0126984D01*
X0201743Y0126874D01*
X0201828Y0126762D01*
X0201910Y0126647D01*
X0201989Y0126530D01*
X0202064Y0126411D01*
X0202136Y0126290D01*
X0202204Y0126167D01*
X0202269Y0126042D01*
X0202331Y0125915D01*
X0202388Y0125786D01*
X0202443Y0125656D01*
X0202493Y0125525D01*
X0202540Y0125392D01*
X0202583Y0125258D01*
X0202622Y0125122D01*
X0202657Y0124986D01*
X0202689Y0124849D01*
X0202716Y0124711D01*
X0202740Y0124572D01*
X0202760Y0124432D01*
X0202776Y0124292D01*
X0202788Y0124152D01*
X0202796Y0124011D01*
X0202800Y0123870D01*
X0202800Y0123730D01*
X0202796Y0123589D01*
X0202788Y0123448D01*
X0202776Y0123308D01*
X0202760Y0123168D01*
X0202740Y0123028D01*
X0202716Y0122889D01*
X0202689Y0122751D01*
X0202657Y0122614D01*
X0202622Y0122478D01*
X0202583Y0122342D01*
X0202540Y0122208D01*
X0202493Y0122075D01*
X0202443Y0121944D01*
X0202388Y0121814D01*
X0202331Y0121685D01*
X0202269Y0121558D01*
X0202204Y0121433D01*
X0202136Y0121310D01*
X0202064Y0121189D01*
X0201989Y0121070D01*
X0201910Y0120953D01*
X0201828Y0120838D01*
X0201743Y0120726D01*
X0201655Y0120616D01*
X0201564Y0120509D01*
X0201470Y0120404D01*
X0201373Y0120302D01*
X0201273Y0120203D01*
X0201170Y0120106D01*
X0201065Y0120013D01*
X0200957Y0119922D01*
X0200846Y0119835D01*
X0200733Y0119751D01*
X0200618Y0119670D01*
X0200501Y0119592D01*
X0200381Y0119518D01*
X0200259Y0119447D01*
X0200136Y0119379D01*
X0200010Y0119315D01*
X0199883Y0119255D01*
X0199754Y0119198D01*
X0199624Y0119144D01*
X0199492Y0119095D01*
X0199358Y0119049D01*
X0199224Y0119007D01*
X0199088Y0118969D01*
X0198952Y0118934D01*
X0198814Y0118904D01*
X0198676Y0118877D01*
X0198537Y0118855D01*
X0198397Y0118836D01*
X0198257Y0118821D01*
X0198117Y0118810D01*
X0197976Y0118803D01*
X0197835Y0118800D01*
X0197694Y0118801D01*
X0197554Y0118806D01*
X0197413Y0118815D01*
X0197273Y0118828D01*
X0197133Y0118845D01*
X0196993Y0118865D01*
X0196855Y0118890D01*
X0196717Y0118919D01*
X0196580Y0118951D01*
X0196444Y0118987D01*
X0196309Y0119028D01*
X0196175Y0119072D01*
X0196042Y0119119D01*
X0195911Y0119171D01*
X0195781Y0119226D01*
X0195653Y0119284D01*
X0195527Y0119347D01*
X0195402Y0119412D01*
X0195280Y0119482D01*
X0195159Y0119554D01*
X0195040Y0119630D01*
X0194924Y0119710D01*
X0194810Y0119793D01*
X0194698Y0119878D01*
X0194589Y0119967D01*
X0194482Y0120059D01*
X0194378Y0120154D01*
X0194277Y0120252D01*
X0194178Y0120353D01*
X0194083Y0120456D01*
X0193990Y0120562D01*
X0193900Y0120671D01*
X0193814Y0120782D01*
X0193730Y0120895D01*
X0193650Y0121011D01*
X0193573Y0121129D01*
X0193500Y0121249D01*
X0193429Y0121372D01*
X0193363Y0121496D01*
X0193300Y0121622D01*
X0193240Y0121749D01*
X0193184Y0121878D01*
X0193132Y0122009D01*
X0193083Y0122141D01*
X0193038Y0122275D01*
X0192997Y0122410D01*
X0192960Y0122546D01*
X0192926Y0122682D01*
X0192897Y0122820D01*
X0192871Y0122959D01*
X0192850Y0123098D01*
X0192832Y0123238D01*
X0192818Y0123378D01*
X0192808Y0123518D01*
X0192802Y0123659D01*
X0192800Y0123800D01*
X0176510Y0049554D02*
X0174258Y0049554D01*
X0174258Y0045050D01*
X0176510Y0045050D01*
X0177260Y0045801D01*
X0177260Y0048803D01*
X0176510Y0049554D01*
X0172656Y0049554D02*
X0172656Y0045050D01*
X0169654Y0049554D01*
X0169654Y0045050D01*
X0168053Y0045801D02*
X0168053Y0047302D01*
X0166551Y0047302D01*
X0165050Y0048803D02*
X0165801Y0049554D01*
X0167302Y0049554D01*
X0168053Y0048803D01*
X0168053Y0045801D02*
X0167302Y0045050D01*
X0165801Y0045050D01*
X0165050Y0045801D01*
X0165050Y0048803D01*
X0269238Y0039053D02*
X0270739Y0040554D01*
X0270739Y0036050D01*
X0269238Y0036050D02*
X0272241Y0036050D01*
X0273842Y0036801D02*
X0276845Y0039803D01*
X0276845Y0036801D01*
X0276094Y0036050D01*
X0274593Y0036050D01*
X0273842Y0036801D01*
X0273842Y0039803D01*
X0274593Y0040554D01*
X0276094Y0040554D01*
X0276845Y0039803D01*
X0278446Y0039053D02*
X0280698Y0039053D01*
X0281449Y0038302D01*
X0281449Y0036801D01*
X0280698Y0036050D01*
X0278446Y0036050D01*
X0278446Y0034549D02*
X0278446Y0039053D01*
X0292593Y0019054D02*
X0291842Y0018303D01*
X0291842Y0015301D01*
X0292593Y0014550D01*
X0294094Y0014550D01*
X0294845Y0015301D01*
X0296446Y0015301D02*
X0297197Y0014550D01*
X0298698Y0014550D01*
X0299449Y0015301D01*
X0299449Y0018303D01*
X0298698Y0019054D01*
X0297197Y0019054D01*
X0296446Y0018303D01*
X0296446Y0017553D01*
X0297197Y0016802D01*
X0299449Y0016802D01*
X0294845Y0018303D02*
X0294094Y0019054D01*
X0292593Y0019054D01*
X0343050Y0044050D02*
X0343050Y0048554D01*
X0343050Y0046302D02*
X0346053Y0046302D01*
X0347654Y0045551D02*
X0349155Y0044050D01*
X0350656Y0045551D01*
X0350656Y0048554D01*
X0352258Y0047803D02*
X0353008Y0048554D01*
X0354510Y0048554D01*
X0355260Y0047803D01*
X0355260Y0047053D01*
X0352258Y0044050D01*
X0355260Y0044050D01*
X0347654Y0045551D02*
X0347654Y0048554D01*
X0346053Y0048554D02*
X0346053Y0044050D01*
X0359393Y0042612D02*
X0359393Y0045615D01*
X0360143Y0045615D01*
X0363146Y0042612D01*
X0363896Y0042612D01*
X0363896Y0041011D02*
X0363896Y0038008D01*
X0363896Y0039510D02*
X0359393Y0039510D01*
X0360894Y0038008D01*
X0359393Y0036407D02*
X0359393Y0034906D01*
X0359393Y0035656D02*
X0363146Y0035656D01*
X0363896Y0034906D01*
X0363896Y0034155D01*
X0363146Y0033404D01*
X0363146Y0031803D02*
X0363896Y0031052D01*
X0363896Y0028800D01*
X0359393Y0028800D01*
X0359393Y0031052D01*
X0360143Y0031803D01*
X0360894Y0031803D01*
X0361645Y0031052D01*
X0361645Y0028800D01*
X0361645Y0031052D02*
X0362395Y0031803D01*
X0363146Y0031803D01*
X0363896Y0027199D02*
X0359393Y0027199D01*
X0360894Y0025698D01*
X0359393Y0024196D01*
X0363896Y0024196D01*
X0363146Y0022595D02*
X0363896Y0021844D01*
X0363896Y0020343D01*
X0363146Y0019593D01*
X0361645Y0020343D02*
X0360894Y0019593D01*
X0360143Y0019593D01*
X0359393Y0020343D01*
X0359393Y0021844D01*
X0360143Y0022595D01*
X0361645Y0021844D02*
X0362395Y0022595D01*
X0363146Y0022595D01*
X0361645Y0021844D02*
X0361645Y0020343D01*
X0363146Y0047216D02*
X0360143Y0050219D01*
X0363146Y0050219D01*
X0363896Y0049468D01*
X0363896Y0047967D01*
X0363146Y0047216D01*
X0360143Y0047216D01*
X0359393Y0047967D01*
X0359393Y0049468D01*
X0360143Y0050219D01*
X0359393Y0051820D02*
X0359393Y0054072D01*
X0360143Y0054823D01*
X0363146Y0054823D01*
X0363896Y0054072D01*
X0363896Y0051820D01*
X0359393Y0051820D01*
X0361645Y0056424D02*
X0361645Y0059427D01*
X0363896Y0061028D02*
X0359393Y0061028D01*
X0360894Y0062529D01*
X0359393Y0064030D01*
X0363896Y0064030D01*
X0363146Y0065632D02*
X0363896Y0066382D01*
X0363896Y0067884D01*
X0363146Y0068634D01*
X0362395Y0068634D01*
X0361645Y0067884D01*
X0361645Y0067133D01*
X0361645Y0067884D02*
X0360894Y0068634D01*
X0360143Y0068634D01*
X0359393Y0067884D01*
X0359393Y0066382D01*
X0360143Y0065632D01*
X0363896Y0070236D02*
X0359393Y0073238D01*
X0359393Y0074840D02*
X0363896Y0074840D01*
X0361645Y0074840D02*
X0361645Y0077842D01*
X0363896Y0077842D02*
X0359393Y0077842D01*
X0375700Y0077092D02*
X0377952Y0074840D01*
X0377952Y0077842D01*
X0380204Y0077092D02*
X0375700Y0077092D01*
X0376450Y0073238D02*
X0375700Y0072488D01*
X0375700Y0070236D01*
X0380204Y0070236D01*
X0380204Y0072488D01*
X0379453Y0073238D01*
X0376450Y0073238D01*
X0363146Y0101593D02*
X0363896Y0102343D01*
X0363896Y0103844D01*
X0363146Y0104595D01*
X0362395Y0104595D01*
X0361645Y0103844D01*
X0361645Y0102343D01*
X0360894Y0101593D01*
X0360143Y0101593D01*
X0359393Y0102343D01*
X0359393Y0103844D01*
X0360143Y0104595D01*
X0359393Y0106196D02*
X0360894Y0107698D01*
X0359393Y0109199D01*
X0363896Y0109199D01*
X0363896Y0110800D02*
X0363896Y0113052D01*
X0363146Y0113803D01*
X0362395Y0113803D01*
X0361645Y0113052D01*
X0361645Y0110800D01*
X0363896Y0110800D02*
X0359393Y0110800D01*
X0359393Y0113052D01*
X0360143Y0113803D01*
X0360894Y0113803D01*
X0361645Y0113052D01*
X0363146Y0115404D02*
X0363896Y0116155D01*
X0363896Y0116906D01*
X0363146Y0117656D01*
X0359393Y0117656D01*
X0359393Y0116906D02*
X0359393Y0118407D01*
X0360894Y0120008D02*
X0359393Y0121510D01*
X0363896Y0121510D01*
X0363896Y0123011D02*
X0363896Y0120008D01*
X0363896Y0124612D02*
X0363146Y0124612D01*
X0360143Y0127615D01*
X0359393Y0127615D01*
X0359393Y0124612D01*
X0360143Y0129216D02*
X0359393Y0129967D01*
X0359393Y0131468D01*
X0360143Y0132219D01*
X0363146Y0129216D01*
X0363896Y0129967D01*
X0363896Y0131468D01*
X0363146Y0132219D01*
X0360143Y0132219D01*
X0359393Y0133820D02*
X0359393Y0136072D01*
X0360143Y0136823D01*
X0363146Y0136823D01*
X0363896Y0136072D01*
X0363896Y0133820D01*
X0359393Y0133820D01*
X0360143Y0129216D02*
X0363146Y0129216D01*
X0361645Y0138424D02*
X0361645Y0141427D01*
X0363896Y0143028D02*
X0359393Y0143028D01*
X0360894Y0144529D01*
X0359393Y0146030D01*
X0363896Y0146030D01*
X0363146Y0147632D02*
X0363896Y0148382D01*
X0363896Y0149884D01*
X0363146Y0150634D01*
X0362395Y0150634D01*
X0361645Y0149884D01*
X0361645Y0149133D01*
X0361645Y0149884D02*
X0360894Y0150634D01*
X0360143Y0150634D01*
X0359393Y0149884D01*
X0359393Y0148382D01*
X0360143Y0147632D01*
X0363896Y0152236D02*
X0359393Y0155238D01*
X0359393Y0156840D02*
X0363896Y0156840D01*
X0361645Y0156840D02*
X0361645Y0159842D01*
X0363896Y0159842D02*
X0359393Y0159842D01*
X0360143Y0165593D02*
X0360894Y0165593D01*
X0361645Y0166343D01*
X0361645Y0167844D01*
X0362395Y0168595D01*
X0363146Y0168595D01*
X0363896Y0167844D01*
X0363896Y0166343D01*
X0363146Y0165593D01*
X0360143Y0165593D02*
X0359393Y0166343D01*
X0359393Y0167844D01*
X0360143Y0168595D01*
X0359393Y0170196D02*
X0360894Y0171698D01*
X0359393Y0173199D01*
X0363896Y0173199D01*
X0363896Y0174800D02*
X0363896Y0177052D01*
X0363146Y0177803D01*
X0362395Y0177803D01*
X0361645Y0177052D01*
X0361645Y0174800D01*
X0363896Y0174800D02*
X0359393Y0174800D01*
X0359393Y0177052D01*
X0360143Y0177803D01*
X0360894Y0177803D01*
X0361645Y0177052D01*
X0363146Y0179404D02*
X0363896Y0180155D01*
X0363896Y0180906D01*
X0363146Y0181656D01*
X0359393Y0181656D01*
X0359393Y0180906D02*
X0359393Y0182407D01*
X0360894Y0184008D02*
X0359393Y0185510D01*
X0363896Y0185510D01*
X0363896Y0187011D02*
X0363896Y0184008D01*
X0363896Y0188612D02*
X0363146Y0188612D01*
X0360143Y0191615D01*
X0359393Y0191615D01*
X0359393Y0188612D01*
X0360143Y0193216D02*
X0359393Y0193967D01*
X0359393Y0195468D01*
X0360143Y0196219D01*
X0363146Y0193216D01*
X0363896Y0193967D01*
X0363896Y0195468D01*
X0363146Y0196219D01*
X0360143Y0196219D01*
X0359393Y0197820D02*
X0359393Y0200072D01*
X0360143Y0200823D01*
X0363146Y0200823D01*
X0363896Y0200072D01*
X0363896Y0197820D01*
X0359393Y0197820D01*
X0360143Y0193216D02*
X0363146Y0193216D01*
X0361645Y0202424D02*
X0361645Y0205427D01*
X0363896Y0207028D02*
X0359393Y0207028D01*
X0360894Y0208529D01*
X0359393Y0210030D01*
X0363896Y0210030D01*
X0363146Y0211632D02*
X0363896Y0212382D01*
X0363896Y0213884D01*
X0363146Y0214634D01*
X0362395Y0214634D01*
X0361645Y0213884D01*
X0361645Y0213133D01*
X0361645Y0213884D02*
X0360894Y0214634D01*
X0360143Y0214634D01*
X0359393Y0213884D01*
X0359393Y0212382D01*
X0360143Y0211632D01*
X0363896Y0216236D02*
X0359393Y0219238D01*
X0359393Y0220840D02*
X0363896Y0220840D01*
X0361645Y0220840D02*
X0361645Y0223842D01*
X0363896Y0223842D02*
X0359393Y0223842D01*
X0360143Y0235593D02*
X0360894Y0235593D01*
X0361645Y0236343D01*
X0361645Y0237844D01*
X0362395Y0238595D01*
X0363146Y0238595D01*
X0363896Y0237844D01*
X0363896Y0236343D01*
X0363146Y0235593D01*
X0360143Y0235593D02*
X0359393Y0236343D01*
X0359393Y0237844D01*
X0360143Y0238595D01*
X0359393Y0240196D02*
X0360894Y0241698D01*
X0359393Y0243199D01*
X0363896Y0243199D01*
X0363896Y0244800D02*
X0363896Y0247052D01*
X0363146Y0247803D01*
X0362395Y0247803D01*
X0361645Y0247052D01*
X0361645Y0244800D01*
X0363896Y0244800D02*
X0359393Y0244800D01*
X0359393Y0247052D01*
X0360143Y0247803D01*
X0360894Y0247803D01*
X0361645Y0247052D01*
X0363146Y0249404D02*
X0363896Y0250155D01*
X0363896Y0250906D01*
X0363146Y0251656D01*
X0359393Y0251656D01*
X0359393Y0250906D02*
X0359393Y0252407D01*
X0360894Y0254008D02*
X0359393Y0255510D01*
X0363896Y0255510D01*
X0363896Y0257011D02*
X0363896Y0254008D01*
X0363896Y0258612D02*
X0363146Y0258612D01*
X0360143Y0261615D01*
X0359393Y0261615D01*
X0359393Y0258612D01*
X0360143Y0263216D02*
X0359393Y0263967D01*
X0359393Y0265468D01*
X0360143Y0266219D01*
X0363146Y0263216D01*
X0363896Y0263967D01*
X0363896Y0265468D01*
X0363146Y0266219D01*
X0360143Y0266219D01*
X0359393Y0267820D02*
X0359393Y0270072D01*
X0360143Y0270823D01*
X0363146Y0270823D01*
X0363896Y0270072D01*
X0363896Y0267820D01*
X0359393Y0267820D01*
X0360143Y0263216D02*
X0363146Y0263216D01*
X0361645Y0272424D02*
X0361645Y0275427D01*
X0363896Y0277028D02*
X0359393Y0277028D01*
X0360894Y0278529D01*
X0359393Y0280030D01*
X0363896Y0280030D01*
X0363146Y0281632D02*
X0363896Y0282382D01*
X0363896Y0283884D01*
X0363146Y0284634D01*
X0362395Y0284634D01*
X0361645Y0283884D01*
X0361645Y0283133D01*
X0361645Y0283884D02*
X0360894Y0284634D01*
X0360143Y0284634D01*
X0359393Y0283884D01*
X0359393Y0282382D01*
X0360143Y0281632D01*
X0363896Y0286236D02*
X0359393Y0289238D01*
X0359393Y0290840D02*
X0363896Y0290840D01*
X0361645Y0290840D02*
X0361645Y0293842D01*
X0363896Y0293842D02*
X0359393Y0293842D01*
X0375700Y0292341D02*
X0380204Y0292341D01*
X0380204Y0290840D02*
X0380204Y0293842D01*
X0377201Y0290840D02*
X0375700Y0292341D01*
X0376450Y0289238D02*
X0375700Y0288488D01*
X0375700Y0286986D01*
X0376450Y0286236D01*
X0376450Y0284634D02*
X0375700Y0283884D01*
X0375700Y0281632D01*
X0380204Y0281632D01*
X0380204Y0283884D01*
X0379453Y0284634D01*
X0376450Y0284634D01*
X0380204Y0286236D02*
X0377201Y0289238D01*
X0376450Y0289238D01*
X0380204Y0289238D02*
X0380204Y0286236D01*
X0363146Y0316593D02*
X0363896Y0317343D01*
X0363896Y0318844D01*
X0363146Y0319595D01*
X0362395Y0319595D01*
X0361645Y0318844D01*
X0361645Y0317343D01*
X0360894Y0316593D01*
X0360143Y0316593D01*
X0359393Y0317343D01*
X0359393Y0318844D01*
X0360143Y0319595D01*
X0359393Y0321196D02*
X0360894Y0322698D01*
X0359393Y0324199D01*
X0363896Y0324199D01*
X0363896Y0325800D02*
X0363896Y0328052D01*
X0363146Y0328803D01*
X0362395Y0328803D01*
X0361645Y0328052D01*
X0361645Y0325800D01*
X0363896Y0325800D02*
X0359393Y0325800D01*
X0359393Y0328052D01*
X0360143Y0328803D01*
X0360894Y0328803D01*
X0361645Y0328052D01*
X0363146Y0330404D02*
X0363896Y0331155D01*
X0363896Y0331906D01*
X0363146Y0332656D01*
X0359393Y0332656D01*
X0359393Y0331906D02*
X0359393Y0333407D01*
X0360894Y0335008D02*
X0359393Y0336510D01*
X0363896Y0336510D01*
X0363896Y0338011D02*
X0363896Y0335008D01*
X0363896Y0339612D02*
X0363146Y0339612D01*
X0360143Y0342615D01*
X0359393Y0342615D01*
X0359393Y0339612D01*
X0360143Y0344216D02*
X0359393Y0344967D01*
X0359393Y0346468D01*
X0360143Y0347219D01*
X0363146Y0344216D01*
X0363896Y0344967D01*
X0363896Y0346468D01*
X0363146Y0347219D01*
X0360143Y0347219D01*
X0359393Y0348820D02*
X0359393Y0351072D01*
X0360143Y0351823D01*
X0363146Y0351823D01*
X0363896Y0351072D01*
X0363896Y0348820D01*
X0359393Y0348820D01*
X0360143Y0344216D02*
X0363146Y0344216D01*
X0361645Y0353424D02*
X0361645Y0356427D01*
X0363896Y0358028D02*
X0359393Y0358028D01*
X0360894Y0359529D01*
X0359393Y0361030D01*
X0363896Y0361030D01*
X0363146Y0362632D02*
X0363896Y0363382D01*
X0363896Y0364884D01*
X0363146Y0365634D01*
X0362395Y0365634D01*
X0361645Y0364884D01*
X0361645Y0364133D01*
X0361645Y0364884D02*
X0360894Y0365634D01*
X0360143Y0365634D01*
X0359393Y0364884D01*
X0359393Y0363382D01*
X0360143Y0362632D01*
X0363896Y0367236D02*
X0359393Y0370238D01*
X0359393Y0371840D02*
X0363896Y0371840D01*
X0361645Y0371840D02*
X0361645Y0374842D01*
X0362146Y0374593D02*
X0362896Y0375343D01*
X0362896Y0376844D01*
X0362146Y0377595D01*
X0361395Y0377595D01*
X0360645Y0376844D01*
X0360645Y0375343D01*
X0359894Y0374593D01*
X0359143Y0374593D01*
X0358393Y0375343D01*
X0358393Y0376844D01*
X0359143Y0377595D01*
X0358393Y0379196D02*
X0359894Y0380698D01*
X0358393Y0382199D01*
X0362896Y0382199D01*
X0362896Y0383800D02*
X0362896Y0386052D01*
X0362146Y0386803D01*
X0361395Y0386803D01*
X0360645Y0386052D01*
X0360645Y0383800D01*
X0362896Y0383800D02*
X0358393Y0383800D01*
X0358393Y0386052D01*
X0359143Y0386803D01*
X0359894Y0386803D01*
X0360645Y0386052D01*
X0362146Y0388404D02*
X0362896Y0389155D01*
X0362896Y0389906D01*
X0362146Y0390656D01*
X0358393Y0390656D01*
X0358393Y0389906D02*
X0358393Y0391407D01*
X0359894Y0393008D02*
X0358393Y0394510D01*
X0362896Y0394510D01*
X0362896Y0396011D02*
X0362896Y0393008D01*
X0362896Y0397612D02*
X0362146Y0397612D01*
X0359143Y0400615D01*
X0358393Y0400615D01*
X0358393Y0397612D01*
X0359143Y0402216D02*
X0358393Y0402967D01*
X0358393Y0404468D01*
X0359143Y0405219D01*
X0362146Y0402216D01*
X0362896Y0402967D01*
X0362896Y0404468D01*
X0362146Y0405219D01*
X0359143Y0405219D01*
X0358393Y0406820D02*
X0358393Y0409072D01*
X0359143Y0409823D01*
X0362146Y0409823D01*
X0362896Y0409072D01*
X0362896Y0406820D01*
X0358393Y0406820D01*
X0359143Y0402216D02*
X0362146Y0402216D01*
X0360645Y0411424D02*
X0360645Y0414427D01*
X0362896Y0416028D02*
X0358393Y0416028D01*
X0359894Y0417529D01*
X0358393Y0419030D01*
X0362896Y0419030D01*
X0362146Y0420632D02*
X0362896Y0421382D01*
X0362896Y0422884D01*
X0362146Y0423634D01*
X0361395Y0423634D01*
X0360645Y0422884D01*
X0360645Y0422133D01*
X0360645Y0422884D02*
X0359894Y0423634D01*
X0359143Y0423634D01*
X0358393Y0422884D01*
X0358393Y0421382D01*
X0359143Y0420632D01*
X0362896Y0425236D02*
X0358393Y0428238D01*
X0358393Y0429840D02*
X0362896Y0429840D01*
X0360645Y0429840D02*
X0360645Y0432842D01*
X0359894Y0434593D02*
X0360645Y0435343D01*
X0360645Y0436844D01*
X0361395Y0437595D01*
X0362146Y0437595D01*
X0362896Y0436844D01*
X0362896Y0435343D01*
X0362146Y0434593D01*
X0362896Y0432842D02*
X0358393Y0432842D01*
X0359143Y0434593D02*
X0359894Y0434593D01*
X0359143Y0434593D02*
X0358393Y0435343D01*
X0358393Y0436844D01*
X0359143Y0437595D01*
X0358393Y0439196D02*
X0359894Y0440698D01*
X0358393Y0442199D01*
X0362896Y0442199D01*
X0362896Y0443800D02*
X0362896Y0446052D01*
X0362146Y0446803D01*
X0361395Y0446803D01*
X0360645Y0446052D01*
X0360645Y0443800D01*
X0362896Y0443800D02*
X0358393Y0443800D01*
X0358393Y0446052D01*
X0359143Y0446803D01*
X0359894Y0446803D01*
X0360645Y0446052D01*
X0362146Y0448404D02*
X0362896Y0449155D01*
X0362896Y0449906D01*
X0362146Y0450656D01*
X0358393Y0450656D01*
X0358393Y0449906D02*
X0358393Y0451407D01*
X0359894Y0453008D02*
X0358393Y0454510D01*
X0362896Y0454510D01*
X0362896Y0456011D02*
X0362896Y0453008D01*
X0362896Y0457612D02*
X0362146Y0457612D01*
X0359143Y0460615D01*
X0358393Y0460615D01*
X0358393Y0457612D01*
X0359143Y0462216D02*
X0358393Y0462967D01*
X0358393Y0464468D01*
X0359143Y0465219D01*
X0362146Y0462216D01*
X0362896Y0462967D01*
X0362896Y0464468D01*
X0362146Y0465219D01*
X0359143Y0465219D01*
X0358393Y0466820D02*
X0358393Y0469072D01*
X0359143Y0469823D01*
X0362146Y0469823D01*
X0362896Y0469072D01*
X0362896Y0466820D01*
X0358393Y0466820D01*
X0359143Y0462216D02*
X0362146Y0462216D01*
X0360645Y0471424D02*
X0360645Y0474427D01*
X0362896Y0476028D02*
X0358393Y0476028D01*
X0359894Y0477529D01*
X0358393Y0479030D01*
X0362896Y0479030D01*
X0362146Y0480632D02*
X0362896Y0481382D01*
X0362896Y0482884D01*
X0362146Y0483634D01*
X0361395Y0483634D01*
X0360645Y0482884D01*
X0360645Y0482133D01*
X0360645Y0482884D02*
X0359894Y0483634D01*
X0359143Y0483634D01*
X0358393Y0482884D01*
X0358393Y0481382D01*
X0359143Y0480632D01*
X0362896Y0485236D02*
X0358393Y0488238D01*
X0358393Y0489840D02*
X0362896Y0489840D01*
X0360645Y0489840D02*
X0360645Y0492842D01*
X0359894Y0494593D02*
X0360645Y0495343D01*
X0360645Y0496844D01*
X0361395Y0497595D01*
X0362146Y0497595D01*
X0362896Y0496844D01*
X0362896Y0495343D01*
X0362146Y0494593D01*
X0362896Y0492842D02*
X0358393Y0492842D01*
X0359143Y0494593D02*
X0359894Y0494593D01*
X0359143Y0494593D02*
X0358393Y0495343D01*
X0358393Y0496844D01*
X0359143Y0497595D01*
X0358393Y0499196D02*
X0359894Y0500698D01*
X0358393Y0502199D01*
X0362896Y0502199D01*
X0362896Y0503800D02*
X0358393Y0503800D01*
X0358393Y0506052D01*
X0359143Y0506803D01*
X0359894Y0506803D01*
X0360645Y0506052D01*
X0360645Y0503800D01*
X0362896Y0503800D02*
X0362896Y0506052D01*
X0362146Y0506803D01*
X0361395Y0506803D01*
X0360645Y0506052D01*
X0362146Y0508404D02*
X0362896Y0509155D01*
X0362896Y0509906D01*
X0362146Y0510656D01*
X0358393Y0510656D01*
X0358393Y0509906D02*
X0358393Y0511407D01*
X0359894Y0513008D02*
X0358393Y0514510D01*
X0362896Y0514510D01*
X0362896Y0516011D02*
X0362896Y0513008D01*
X0362896Y0517612D02*
X0362146Y0517612D01*
X0359143Y0520615D01*
X0358393Y0520615D01*
X0358393Y0517612D01*
X0359143Y0522216D02*
X0358393Y0522967D01*
X0358393Y0524468D01*
X0359143Y0525219D01*
X0362146Y0522216D01*
X0362896Y0522967D01*
X0362896Y0524468D01*
X0362146Y0525219D01*
X0359143Y0525219D01*
X0358393Y0526820D02*
X0358393Y0529072D01*
X0359143Y0529823D01*
X0362146Y0529823D01*
X0362896Y0529072D01*
X0362896Y0526820D01*
X0358393Y0526820D01*
X0359143Y0522216D02*
X0362146Y0522216D01*
X0360645Y0531424D02*
X0360645Y0534427D01*
X0362896Y0536028D02*
X0358393Y0536028D01*
X0359894Y0537529D01*
X0358393Y0539030D01*
X0362896Y0539030D01*
X0362146Y0540632D02*
X0362896Y0541382D01*
X0362896Y0542884D01*
X0362146Y0543634D01*
X0361395Y0543634D01*
X0360645Y0542884D01*
X0360645Y0542133D01*
X0360645Y0542884D02*
X0359894Y0543634D01*
X0359143Y0543634D01*
X0358393Y0542884D01*
X0358393Y0541382D01*
X0359143Y0540632D01*
X0362896Y0545236D02*
X0358393Y0548238D01*
X0358393Y0549840D02*
X0362896Y0549840D01*
X0360645Y0549840D02*
X0360645Y0552842D01*
X0362896Y0552842D02*
X0358393Y0552842D01*
X0374700Y0551341D02*
X0379204Y0551341D01*
X0379204Y0549840D02*
X0379204Y0552842D01*
X0376201Y0549840D02*
X0374700Y0551341D01*
X0375450Y0548238D02*
X0374700Y0547488D01*
X0374700Y0545236D01*
X0379204Y0545236D01*
X0379204Y0547488D01*
X0378453Y0548238D01*
X0375450Y0548238D01*
X0362896Y0499196D02*
X0358393Y0499196D01*
X0374700Y0492092D02*
X0374700Y0490590D01*
X0375450Y0489840D01*
X0376201Y0489840D01*
X0376952Y0490590D01*
X0376952Y0492842D01*
X0378453Y0492842D02*
X0375450Y0492842D01*
X0374700Y0492092D01*
X0378453Y0492842D02*
X0379204Y0492092D01*
X0379204Y0490590D01*
X0378453Y0489840D01*
X0378453Y0488238D02*
X0375450Y0488238D01*
X0374700Y0487488D01*
X0374700Y0485236D01*
X0379204Y0485236D01*
X0379204Y0487488D01*
X0378453Y0488238D01*
X0362896Y0439196D02*
X0358393Y0439196D01*
X0374700Y0432092D02*
X0374700Y0430590D01*
X0375450Y0429840D01*
X0376952Y0431341D02*
X0376952Y0432092D01*
X0377702Y0432842D01*
X0378453Y0432842D01*
X0379204Y0432092D01*
X0379204Y0430590D01*
X0378453Y0429840D01*
X0379204Y0428238D02*
X0379204Y0425236D01*
X0379204Y0426737D02*
X0374700Y0426737D01*
X0376201Y0425236D01*
X0375450Y0423634D02*
X0374700Y0422884D01*
X0374700Y0420632D01*
X0379204Y0420632D01*
X0379204Y0422884D01*
X0378453Y0423634D01*
X0375450Y0423634D01*
X0374700Y0432092D02*
X0375450Y0432842D01*
X0376201Y0432842D01*
X0376952Y0432092D01*
X0362896Y0379196D02*
X0358393Y0379196D01*
X0359393Y0374842D02*
X0363896Y0374842D01*
X0375700Y0374842D02*
X0375700Y0371840D01*
X0377952Y0371840D01*
X0377201Y0373341D01*
X0377201Y0374092D01*
X0377952Y0374842D01*
X0379453Y0374842D01*
X0380204Y0374092D01*
X0380204Y0372590D01*
X0379453Y0371840D01*
X0380204Y0370238D02*
X0380204Y0367236D01*
X0380204Y0368737D02*
X0375700Y0368737D01*
X0377201Y0367236D01*
X0376450Y0365634D02*
X0375700Y0364884D01*
X0375700Y0362632D01*
X0380204Y0362632D01*
X0380204Y0364884D01*
X0379453Y0365634D01*
X0376450Y0365634D01*
X0384801Y0337554D02*
X0384050Y0336803D01*
X0384050Y0333801D01*
X0384801Y0333050D01*
X0386302Y0333050D01*
X0387053Y0333801D01*
X0387053Y0336803D01*
X0386302Y0337554D01*
X0384801Y0337554D01*
X0388654Y0337554D02*
X0388654Y0333801D01*
X0389405Y0333050D01*
X0390906Y0333050D01*
X0391656Y0333801D01*
X0391656Y0337554D01*
X0393258Y0337554D02*
X0396260Y0337554D01*
X0394759Y0337554D02*
X0394759Y0333050D01*
X0363896Y0321196D02*
X0359393Y0321196D01*
X0359393Y0240196D02*
X0363896Y0240196D01*
X0376450Y0223842D02*
X0379453Y0220840D01*
X0380204Y0221590D01*
X0380204Y0223092D01*
X0379453Y0223842D01*
X0376450Y0223842D01*
X0375700Y0223092D01*
X0375700Y0221590D01*
X0376450Y0220840D01*
X0379453Y0220840D01*
X0380204Y0219238D02*
X0380204Y0216236D01*
X0377201Y0219238D01*
X0376450Y0219238D01*
X0375700Y0218488D01*
X0375700Y0216986D01*
X0376450Y0216236D01*
X0376450Y0214634D02*
X0375700Y0213884D01*
X0375700Y0211632D01*
X0380204Y0211632D01*
X0380204Y0213884D01*
X0379453Y0214634D01*
X0376450Y0214634D01*
X0363896Y0170196D02*
X0359393Y0170196D01*
X0375700Y0159092D02*
X0376450Y0159842D01*
X0379453Y0156840D01*
X0380204Y0157590D01*
X0380204Y0159092D01*
X0379453Y0159842D01*
X0376450Y0159842D01*
X0375700Y0159092D02*
X0375700Y0157590D01*
X0376450Y0156840D01*
X0379453Y0156840D01*
X0380204Y0155238D02*
X0380204Y0152236D01*
X0380204Y0153737D02*
X0375700Y0153737D01*
X0377201Y0152236D01*
X0376450Y0150634D02*
X0375700Y0149884D01*
X0375700Y0147632D01*
X0380204Y0147632D01*
X0380204Y0149884D01*
X0379453Y0150634D01*
X0376450Y0150634D01*
X0363896Y0106196D02*
X0359393Y0106196D01*
X0076050Y0276969D02*
X0076050Y0278470D01*
X0075299Y0279221D01*
X0071546Y0279221D01*
X0072297Y0280822D02*
X0075299Y0280822D01*
X0076050Y0281573D01*
X0076050Y0283074D01*
X0075299Y0283825D01*
X0075299Y0285426D02*
X0076050Y0286177D01*
X0076050Y0287678D01*
X0075299Y0288429D01*
X0076050Y0290030D02*
X0073047Y0293033D01*
X0072297Y0293033D01*
X0071546Y0292282D01*
X0071546Y0290781D01*
X0072297Y0290030D01*
X0072297Y0288429D02*
X0071546Y0287678D01*
X0071546Y0286177D01*
X0072297Y0285426D01*
X0075299Y0285426D01*
X0072297Y0283825D02*
X0071546Y0283074D01*
X0071546Y0281573D01*
X0072297Y0280822D01*
X0071546Y0276219D02*
X0075299Y0276219D01*
X0076050Y0276969D01*
X0076050Y0290030D02*
X0076050Y0293033D01*
X0076050Y0294634D02*
X0075299Y0294634D01*
X0072297Y0297637D01*
X0071546Y0297637D01*
X0071546Y0294634D01*
X0073798Y0299238D02*
X0071546Y0301490D01*
X0076050Y0301490D01*
X0076050Y0303842D02*
X0073047Y0306845D01*
X0072297Y0306845D01*
X0071546Y0306094D01*
X0071546Y0304593D01*
X0072297Y0303842D01*
X0073798Y0302241D02*
X0073798Y0299238D01*
X0076050Y0303842D02*
X0076050Y0306845D01*
X0075299Y0308446D02*
X0076050Y0309197D01*
X0076050Y0310698D01*
X0075299Y0311449D01*
X0073798Y0311449D01*
X0073047Y0310698D01*
X0073047Y0309947D01*
X0073798Y0308446D01*
X0071546Y0308446D01*
X0071546Y0311449D01*
X0068655Y0319299D02*
X0068655Y0325304D01*
X0067905Y0324554D02*
X0069406Y0324554D01*
X0070156Y0323803D01*
X0071758Y0323803D02*
X0072508Y0324554D01*
X0074010Y0324554D01*
X0074760Y0323803D01*
X0074760Y0323053D01*
X0074010Y0322302D01*
X0074760Y0321551D01*
X0074760Y0320801D01*
X0074010Y0320050D01*
X0072508Y0320050D01*
X0071758Y0320801D01*
X0070156Y0320801D02*
X0070156Y0321551D01*
X0069406Y0322302D01*
X0067905Y0322302D01*
X0067154Y0323053D01*
X0067154Y0323803D01*
X0067905Y0324554D01*
X0065553Y0324554D02*
X0065553Y0320801D01*
X0064802Y0320050D01*
X0063301Y0320050D01*
X0062550Y0320801D01*
X0062550Y0324554D01*
X0067154Y0320801D02*
X0067905Y0320050D01*
X0069406Y0320050D01*
X0070156Y0320801D01*
X0073259Y0322302D02*
X0074010Y0322302D01*
X0271238Y0632050D02*
X0274241Y0632050D01*
X0272739Y0632050D02*
X0272739Y0636554D01*
X0271238Y0635053D01*
X0275842Y0635803D02*
X0275842Y0632801D01*
X0278845Y0635803D01*
X0278845Y0632801D01*
X0278094Y0632050D01*
X0276593Y0632050D01*
X0275842Y0632801D01*
X0275842Y0635803D02*
X0276593Y0636554D01*
X0278094Y0636554D01*
X0278845Y0635803D01*
X0280446Y0635053D02*
X0282698Y0635053D01*
X0283449Y0634302D01*
X0283449Y0632801D01*
X0282698Y0632050D01*
X0280446Y0632050D01*
X0280446Y0630549D02*
X0280446Y0635053D01*
X0294593Y0615054D02*
X0293842Y0614303D01*
X0293842Y0611301D01*
X0294593Y0610550D01*
X0296094Y0610550D01*
X0296845Y0611301D01*
X0298446Y0611301D02*
X0298446Y0612051D01*
X0299197Y0612802D01*
X0300698Y0612802D01*
X0301449Y0612051D01*
X0301449Y0611301D01*
X0300698Y0610550D01*
X0299197Y0610550D01*
X0298446Y0611301D01*
X0299197Y0612802D02*
X0298446Y0613553D01*
X0298446Y0614303D01*
X0299197Y0615054D01*
X0300698Y0615054D01*
X0301449Y0614303D01*
X0301449Y0613553D01*
X0300698Y0612802D01*
X0296845Y0614303D02*
X0296094Y0615054D01*
X0294593Y0615054D01*
X0338238Y0615302D02*
X0341241Y0615302D01*
X0342842Y0614551D02*
X0344343Y0613050D01*
X0345845Y0614551D01*
X0345845Y0617554D01*
X0347446Y0616053D02*
X0348947Y0617554D01*
X0348947Y0613050D01*
X0347446Y0613050D02*
X0350449Y0613050D01*
X0342842Y0614551D02*
X0342842Y0617554D01*
X0341241Y0617554D02*
X0341241Y0613050D01*
X0338238Y0613050D02*
X0338238Y0617554D01*
D14*
X0069999Y0545750D02*
X0065795Y0545750D01*
X0067897Y0545750D02*
X0067897Y0552055D01*
X0065795Y0549954D01*
X0063554Y0552055D02*
X0059350Y0547852D01*
X0060401Y0548903D02*
X0063554Y0545750D01*
X0059350Y0545750D02*
X0059350Y0552055D01*
X0052950Y0533408D02*
X0052950Y0529204D01*
X0048746Y0533408D01*
X0047696Y0533408D01*
X0046645Y0532357D01*
X0046645Y0530255D01*
X0047696Y0529204D01*
X0049797Y0526963D02*
X0049797Y0522759D01*
X0050848Y0520517D02*
X0046645Y0520517D01*
X0050848Y0520517D02*
X0052950Y0518415D01*
X0050848Y0516313D01*
X0046645Y0516313D01*
X0046645Y0514072D02*
X0046645Y0509868D01*
X0049797Y0509868D01*
X0048746Y0511970D01*
X0048746Y0513021D01*
X0049797Y0514072D01*
X0051899Y0514072D01*
X0052950Y0513021D01*
X0052950Y0510919D01*
X0051899Y0509868D01*
X0051899Y0507626D02*
X0049797Y0507626D01*
X0049797Y0505524D01*
X0047696Y0503422D02*
X0051899Y0503422D01*
X0052950Y0504473D01*
X0052950Y0506575D01*
X0051899Y0507626D01*
X0047696Y0507626D02*
X0046645Y0506575D01*
X0046645Y0504473D01*
X0047696Y0503422D01*
D15*
X0067300Y0568800D03*
D16*
X0061050Y0568800D03*
X0086550Y0568800D03*
D17*
X0366044Y0543603D02*
X0368800Y0548524D01*
X0371556Y0543603D01*
X0366044Y0543603D01*
X0368800Y0488524D02*
X0366044Y0483603D01*
X0371556Y0483603D01*
X0368800Y0488524D01*
X0368800Y0428524D02*
X0366044Y0423603D01*
X0371556Y0423603D01*
X0368800Y0428524D01*
X0369800Y0370524D02*
X0367044Y0365603D01*
X0372556Y0365603D01*
X0369800Y0370524D01*
X0369800Y0289524D02*
X0367044Y0284603D01*
X0372556Y0284603D01*
X0369800Y0289524D01*
X0369800Y0219524D02*
X0367044Y0214603D01*
X0372556Y0214603D01*
X0369800Y0219524D01*
X0369800Y0155524D02*
X0367044Y0150603D01*
X0372556Y0150603D01*
X0369800Y0155524D01*
X0369800Y0073524D02*
X0367044Y0068603D01*
X0372556Y0068603D01*
X0369800Y0073524D01*
D18*
X0369800Y0073721D03*
X0369800Y0155721D03*
X0369800Y0219721D03*
X0369800Y0289721D03*
X0369800Y0370721D03*
X0368800Y0428721D03*
X0368800Y0488721D03*
X0368800Y0548721D03*
D19*
X0346741Y0628700D02*
X0346741Y0628750D01*
X0346775Y0628783D01*
X0346775Y0628800D01*
X0346741Y0628750D02*
X0346708Y0628783D01*
X0346708Y0628800D01*
X0346683Y0628783D02*
X0346616Y0628717D01*
X0346633Y0628700D01*
X0346666Y0628700D01*
X0346683Y0628717D01*
X0346683Y0628783D01*
X0346666Y0628800D01*
X0346633Y0628800D01*
X0346616Y0628783D01*
X0346616Y0628717D01*
X0346590Y0628700D02*
X0346524Y0628700D01*
X0346590Y0628767D01*
X0346590Y0628783D01*
X0346574Y0628800D01*
X0346540Y0628800D01*
X0346524Y0628783D01*
X0346498Y0628750D02*
X0346432Y0628750D01*
X0346406Y0628700D02*
X0346340Y0628700D01*
X0346314Y0628717D02*
X0346314Y0628783D01*
X0346298Y0628800D01*
X0346248Y0628800D01*
X0346248Y0628700D01*
X0346298Y0628700D01*
X0346314Y0628717D01*
X0346340Y0628767D02*
X0346373Y0628800D01*
X0346373Y0628700D01*
X0346222Y0628700D02*
X0346222Y0628767D01*
X0346189Y0628800D01*
X0346155Y0628767D01*
X0346155Y0628700D01*
X0346155Y0628750D02*
X0346222Y0628750D01*
X0346130Y0628750D02*
X0346113Y0628733D01*
X0346063Y0628733D01*
X0346038Y0628750D02*
X0346021Y0628733D01*
X0345971Y0628733D01*
X0345971Y0628700D02*
X0345971Y0628800D01*
X0346021Y0628800D01*
X0346038Y0628783D01*
X0346038Y0628750D01*
X0346063Y0628700D02*
X0346063Y0628800D01*
X0346113Y0628800D01*
X0346130Y0628783D01*
X0346130Y0628750D01*
X0345946Y0628800D02*
X0345879Y0628800D01*
X0345913Y0628800D02*
X0345913Y0628700D01*
X0170695Y0630883D02*
X0170695Y0630900D01*
X0170695Y0630883D02*
X0170662Y0630850D01*
X0170662Y0630800D01*
X0170662Y0630850D02*
X0170629Y0630883D01*
X0170629Y0630900D01*
X0170603Y0630883D02*
X0170537Y0630817D01*
X0170553Y0630800D01*
X0170587Y0630800D01*
X0170603Y0630817D01*
X0170603Y0630883D01*
X0170587Y0630900D01*
X0170553Y0630900D01*
X0170537Y0630883D01*
X0170537Y0630817D01*
X0170511Y0630800D02*
X0170445Y0630800D01*
X0170511Y0630867D01*
X0170511Y0630883D01*
X0170495Y0630900D01*
X0170461Y0630900D01*
X0170445Y0630883D01*
X0170419Y0630850D02*
X0170352Y0630850D01*
X0170327Y0630800D02*
X0170260Y0630800D01*
X0170235Y0630817D02*
X0170235Y0630883D01*
X0170218Y0630900D01*
X0170168Y0630900D01*
X0170168Y0630800D01*
X0170218Y0630800D01*
X0170235Y0630817D01*
X0170260Y0630867D02*
X0170294Y0630900D01*
X0170294Y0630800D01*
X0170143Y0630800D02*
X0170143Y0630867D01*
X0170110Y0630900D01*
X0170076Y0630867D01*
X0170076Y0630800D01*
X0170076Y0630850D02*
X0170143Y0630850D01*
X0170051Y0630850D02*
X0170034Y0630833D01*
X0169984Y0630833D01*
X0169959Y0630850D02*
X0169942Y0630833D01*
X0169892Y0630833D01*
X0169892Y0630800D02*
X0169892Y0630900D01*
X0169942Y0630900D01*
X0169959Y0630883D01*
X0169959Y0630850D01*
X0169984Y0630800D02*
X0169984Y0630900D01*
X0170034Y0630900D01*
X0170051Y0630883D01*
X0170051Y0630850D01*
X0169867Y0630900D02*
X0169800Y0630900D01*
X0169833Y0630900D02*
X0169833Y0630800D01*
X0388800Y0321900D02*
X0388867Y0321900D01*
X0388892Y0321900D02*
X0388942Y0321900D01*
X0388959Y0321883D01*
X0388959Y0321850D01*
X0388942Y0321833D01*
X0388892Y0321833D01*
X0388892Y0321800D02*
X0388892Y0321900D01*
X0388833Y0321900D02*
X0388833Y0321800D01*
X0388984Y0321800D02*
X0388984Y0321900D01*
X0389034Y0321900D01*
X0389051Y0321883D01*
X0389051Y0321850D01*
X0389034Y0321833D01*
X0388984Y0321833D01*
X0389076Y0321850D02*
X0389143Y0321850D01*
X0389143Y0321867D02*
X0389143Y0321800D01*
X0389168Y0321800D02*
X0389218Y0321800D01*
X0389235Y0321817D01*
X0389235Y0321883D01*
X0389218Y0321900D01*
X0389168Y0321900D01*
X0389168Y0321800D01*
X0389143Y0321867D02*
X0389110Y0321900D01*
X0389076Y0321867D01*
X0389076Y0321800D01*
X0389260Y0321800D02*
X0389327Y0321800D01*
X0389294Y0321800D02*
X0389294Y0321900D01*
X0389260Y0321867D01*
X0389352Y0321850D02*
X0389419Y0321850D01*
X0389445Y0321883D02*
X0389461Y0321900D01*
X0389495Y0321900D01*
X0389511Y0321883D01*
X0389511Y0321867D01*
X0389445Y0321800D01*
X0389511Y0321800D01*
X0389537Y0321817D02*
X0389603Y0321883D01*
X0389603Y0321817D01*
X0389587Y0321800D01*
X0389553Y0321800D01*
X0389537Y0321817D01*
X0389537Y0321883D01*
X0389553Y0321900D01*
X0389587Y0321900D01*
X0389603Y0321883D01*
X0389629Y0321883D02*
X0389662Y0321850D01*
X0389662Y0321800D01*
X0389662Y0321850D02*
X0389695Y0321883D01*
X0389695Y0321900D01*
X0389629Y0321900D02*
X0389629Y0321883D01*
X0348695Y0032900D02*
X0348695Y0032883D01*
X0348662Y0032850D01*
X0348662Y0032800D01*
X0348662Y0032850D02*
X0348629Y0032883D01*
X0348629Y0032900D01*
X0348603Y0032883D02*
X0348537Y0032817D01*
X0348553Y0032800D01*
X0348587Y0032800D01*
X0348603Y0032817D01*
X0348603Y0032883D01*
X0348587Y0032900D01*
X0348553Y0032900D01*
X0348537Y0032883D01*
X0348537Y0032817D01*
X0348511Y0032800D02*
X0348445Y0032800D01*
X0348511Y0032867D01*
X0348511Y0032883D01*
X0348495Y0032900D01*
X0348461Y0032900D01*
X0348445Y0032883D01*
X0348419Y0032850D02*
X0348352Y0032850D01*
X0348327Y0032800D02*
X0348260Y0032800D01*
X0348235Y0032817D02*
X0348235Y0032883D01*
X0348218Y0032900D01*
X0348168Y0032900D01*
X0348168Y0032800D01*
X0348218Y0032800D01*
X0348235Y0032817D01*
X0348260Y0032867D02*
X0348294Y0032900D01*
X0348294Y0032800D01*
X0348143Y0032800D02*
X0348143Y0032867D01*
X0348110Y0032900D01*
X0348076Y0032867D01*
X0348076Y0032800D01*
X0348076Y0032850D02*
X0348143Y0032850D01*
X0348051Y0032850D02*
X0348034Y0032833D01*
X0347984Y0032833D01*
X0347959Y0032850D02*
X0347942Y0032833D01*
X0347892Y0032833D01*
X0347892Y0032800D02*
X0347892Y0032900D01*
X0347942Y0032900D01*
X0347959Y0032883D01*
X0347959Y0032850D01*
X0347984Y0032800D02*
X0347984Y0032900D01*
X0348034Y0032900D01*
X0348051Y0032883D01*
X0348051Y0032850D01*
X0347867Y0032900D02*
X0347800Y0032900D01*
X0347833Y0032900D02*
X0347833Y0032800D01*
X0170695Y0033883D02*
X0170695Y0033900D01*
X0170695Y0033883D02*
X0170662Y0033850D01*
X0170662Y0033800D01*
X0170662Y0033850D02*
X0170629Y0033883D01*
X0170629Y0033900D01*
X0170603Y0033883D02*
X0170537Y0033817D01*
X0170553Y0033800D01*
X0170587Y0033800D01*
X0170603Y0033817D01*
X0170603Y0033883D01*
X0170587Y0033900D01*
X0170553Y0033900D01*
X0170537Y0033883D01*
X0170537Y0033817D01*
X0170511Y0033800D02*
X0170445Y0033800D01*
X0170511Y0033867D01*
X0170511Y0033883D01*
X0170495Y0033900D01*
X0170461Y0033900D01*
X0170445Y0033883D01*
X0170419Y0033850D02*
X0170352Y0033850D01*
X0170327Y0033800D02*
X0170260Y0033800D01*
X0170235Y0033817D02*
X0170235Y0033883D01*
X0170218Y0033900D01*
X0170168Y0033900D01*
X0170168Y0033800D01*
X0170218Y0033800D01*
X0170235Y0033817D01*
X0170260Y0033867D02*
X0170294Y0033900D01*
X0170294Y0033800D01*
X0170143Y0033800D02*
X0170143Y0033867D01*
X0170110Y0033900D01*
X0170076Y0033867D01*
X0170076Y0033800D01*
X0170076Y0033850D02*
X0170143Y0033850D01*
X0170051Y0033850D02*
X0170034Y0033833D01*
X0169984Y0033833D01*
X0169959Y0033850D02*
X0169942Y0033833D01*
X0169892Y0033833D01*
X0169892Y0033800D02*
X0169892Y0033900D01*
X0169942Y0033900D01*
X0169959Y0033883D01*
X0169959Y0033850D01*
X0169984Y0033800D02*
X0169984Y0033900D01*
X0170034Y0033900D01*
X0170051Y0033883D01*
X0170051Y0033850D01*
X0169867Y0033900D02*
X0169800Y0033900D01*
X0169833Y0033900D02*
X0169833Y0033800D01*
D20*
X0031300Y0557500D02*
X0028800Y0557500D01*
X0026300Y0557500D01*
X0026300Y0560000D02*
X0028800Y0560000D01*
X0031300Y0560000D01*
D21*
X0287800Y0623800D02*
X0287800Y0628800D01*
X0287800Y0633800D01*
X0291300Y0633800D02*
X0291300Y0628800D01*
X0291300Y0623800D01*
X0289300Y0037800D02*
X0289300Y0032800D01*
X0289300Y0027800D01*
X0285800Y0027800D02*
X0285800Y0032800D01*
X0285800Y0037800D01*
M02*
