G75*
%MOIN*%
%OFA0B0*%
%FSLAX25Y25*%
%IPPOS*%
%LPD*%
%AMOC8*
5,1,8,0,0,1.08239X$1,22.5*
%
%ADD10C,0.00000*%
%ADD11C,0.10039*%
%ADD12C,0.07500*%
%ADD13C,0.10500*%
%ADD14C,0.11850*%
%ADD15OC8,0.05200*%
%ADD16C,0.05200*%
%ADD17C,0.07087*%
%ADD18C,0.05937*%
%ADD19C,0.08250*%
%ADD20R,0.35000X0.16000*%
%ADD21R,0.35000X0.08500*%
%ADD22R,0.35000X0.05000*%
%ADD23R,0.35000X0.19500*%
%ADD24R,0.35000X0.35000*%
%ADD25C,0.05937*%
%ADD26C,0.10000*%
%ADD27OC8,0.10000*%
%ADD28OC8,0.06000*%
%ADD29C,0.01600*%
%ADD30C,0.06600*%
%ADD31C,0.05600*%
%ADD32C,0.10000*%
%ADD33R,0.03962X0.03962*%
%ADD34C,0.15000*%
D10*
X0001000Y0002800D02*
X0001000Y0602800D01*
X0602000Y0602800D01*
X0602000Y0002800D01*
X0001000Y0002800D01*
X0019701Y0027800D02*
X0019703Y0027958D01*
X0019709Y0028116D01*
X0019719Y0028274D01*
X0019733Y0028432D01*
X0019751Y0028589D01*
X0019772Y0028746D01*
X0019798Y0028902D01*
X0019828Y0029058D01*
X0019861Y0029213D01*
X0019899Y0029366D01*
X0019940Y0029519D01*
X0019985Y0029671D01*
X0020034Y0029822D01*
X0020087Y0029971D01*
X0020143Y0030119D01*
X0020203Y0030265D01*
X0020267Y0030410D01*
X0020335Y0030553D01*
X0020406Y0030695D01*
X0020480Y0030835D01*
X0020558Y0030972D01*
X0020640Y0031108D01*
X0020724Y0031242D01*
X0020813Y0031373D01*
X0020904Y0031502D01*
X0020999Y0031629D01*
X0021096Y0031754D01*
X0021197Y0031876D01*
X0021301Y0031995D01*
X0021408Y0032112D01*
X0021518Y0032226D01*
X0021631Y0032337D01*
X0021746Y0032446D01*
X0021864Y0032551D01*
X0021985Y0032653D01*
X0022108Y0032753D01*
X0022234Y0032849D01*
X0022362Y0032942D01*
X0022492Y0033032D01*
X0022625Y0033118D01*
X0022760Y0033202D01*
X0022896Y0033281D01*
X0023035Y0033358D01*
X0023176Y0033430D01*
X0023318Y0033500D01*
X0023462Y0033565D01*
X0023608Y0033627D01*
X0023755Y0033685D01*
X0023904Y0033740D01*
X0024054Y0033791D01*
X0024205Y0033838D01*
X0024357Y0033881D01*
X0024510Y0033920D01*
X0024665Y0033956D01*
X0024820Y0033987D01*
X0024976Y0034015D01*
X0025132Y0034039D01*
X0025289Y0034059D01*
X0025447Y0034075D01*
X0025604Y0034087D01*
X0025763Y0034095D01*
X0025921Y0034099D01*
X0026079Y0034099D01*
X0026237Y0034095D01*
X0026396Y0034087D01*
X0026553Y0034075D01*
X0026711Y0034059D01*
X0026868Y0034039D01*
X0027024Y0034015D01*
X0027180Y0033987D01*
X0027335Y0033956D01*
X0027490Y0033920D01*
X0027643Y0033881D01*
X0027795Y0033838D01*
X0027946Y0033791D01*
X0028096Y0033740D01*
X0028245Y0033685D01*
X0028392Y0033627D01*
X0028538Y0033565D01*
X0028682Y0033500D01*
X0028824Y0033430D01*
X0028965Y0033358D01*
X0029104Y0033281D01*
X0029240Y0033202D01*
X0029375Y0033118D01*
X0029508Y0033032D01*
X0029638Y0032942D01*
X0029766Y0032849D01*
X0029892Y0032753D01*
X0030015Y0032653D01*
X0030136Y0032551D01*
X0030254Y0032446D01*
X0030369Y0032337D01*
X0030482Y0032226D01*
X0030592Y0032112D01*
X0030699Y0031995D01*
X0030803Y0031876D01*
X0030904Y0031754D01*
X0031001Y0031629D01*
X0031096Y0031502D01*
X0031187Y0031373D01*
X0031276Y0031242D01*
X0031360Y0031108D01*
X0031442Y0030972D01*
X0031520Y0030835D01*
X0031594Y0030695D01*
X0031665Y0030553D01*
X0031733Y0030410D01*
X0031797Y0030265D01*
X0031857Y0030119D01*
X0031913Y0029971D01*
X0031966Y0029822D01*
X0032015Y0029671D01*
X0032060Y0029519D01*
X0032101Y0029366D01*
X0032139Y0029213D01*
X0032172Y0029058D01*
X0032202Y0028902D01*
X0032228Y0028746D01*
X0032249Y0028589D01*
X0032267Y0028432D01*
X0032281Y0028274D01*
X0032291Y0028116D01*
X0032297Y0027958D01*
X0032299Y0027800D01*
X0032297Y0027642D01*
X0032291Y0027484D01*
X0032281Y0027326D01*
X0032267Y0027168D01*
X0032249Y0027011D01*
X0032228Y0026854D01*
X0032202Y0026698D01*
X0032172Y0026542D01*
X0032139Y0026387D01*
X0032101Y0026234D01*
X0032060Y0026081D01*
X0032015Y0025929D01*
X0031966Y0025778D01*
X0031913Y0025629D01*
X0031857Y0025481D01*
X0031797Y0025335D01*
X0031733Y0025190D01*
X0031665Y0025047D01*
X0031594Y0024905D01*
X0031520Y0024765D01*
X0031442Y0024628D01*
X0031360Y0024492D01*
X0031276Y0024358D01*
X0031187Y0024227D01*
X0031096Y0024098D01*
X0031001Y0023971D01*
X0030904Y0023846D01*
X0030803Y0023724D01*
X0030699Y0023605D01*
X0030592Y0023488D01*
X0030482Y0023374D01*
X0030369Y0023263D01*
X0030254Y0023154D01*
X0030136Y0023049D01*
X0030015Y0022947D01*
X0029892Y0022847D01*
X0029766Y0022751D01*
X0029638Y0022658D01*
X0029508Y0022568D01*
X0029375Y0022482D01*
X0029240Y0022398D01*
X0029104Y0022319D01*
X0028965Y0022242D01*
X0028824Y0022170D01*
X0028682Y0022100D01*
X0028538Y0022035D01*
X0028392Y0021973D01*
X0028245Y0021915D01*
X0028096Y0021860D01*
X0027946Y0021809D01*
X0027795Y0021762D01*
X0027643Y0021719D01*
X0027490Y0021680D01*
X0027335Y0021644D01*
X0027180Y0021613D01*
X0027024Y0021585D01*
X0026868Y0021561D01*
X0026711Y0021541D01*
X0026553Y0021525D01*
X0026396Y0021513D01*
X0026237Y0021505D01*
X0026079Y0021501D01*
X0025921Y0021501D01*
X0025763Y0021505D01*
X0025604Y0021513D01*
X0025447Y0021525D01*
X0025289Y0021541D01*
X0025132Y0021561D01*
X0024976Y0021585D01*
X0024820Y0021613D01*
X0024665Y0021644D01*
X0024510Y0021680D01*
X0024357Y0021719D01*
X0024205Y0021762D01*
X0024054Y0021809D01*
X0023904Y0021860D01*
X0023755Y0021915D01*
X0023608Y0021973D01*
X0023462Y0022035D01*
X0023318Y0022100D01*
X0023176Y0022170D01*
X0023035Y0022242D01*
X0022896Y0022319D01*
X0022760Y0022398D01*
X0022625Y0022482D01*
X0022492Y0022568D01*
X0022362Y0022658D01*
X0022234Y0022751D01*
X0022108Y0022847D01*
X0021985Y0022947D01*
X0021864Y0023049D01*
X0021746Y0023154D01*
X0021631Y0023263D01*
X0021518Y0023374D01*
X0021408Y0023488D01*
X0021301Y0023605D01*
X0021197Y0023724D01*
X0021096Y0023846D01*
X0020999Y0023971D01*
X0020904Y0024098D01*
X0020813Y0024227D01*
X0020724Y0024358D01*
X0020640Y0024492D01*
X0020558Y0024628D01*
X0020480Y0024765D01*
X0020406Y0024905D01*
X0020335Y0025047D01*
X0020267Y0025190D01*
X0020203Y0025335D01*
X0020143Y0025481D01*
X0020087Y0025629D01*
X0020034Y0025778D01*
X0019985Y0025929D01*
X0019940Y0026081D01*
X0019899Y0026234D01*
X0019861Y0026387D01*
X0019828Y0026542D01*
X0019798Y0026698D01*
X0019772Y0026854D01*
X0019751Y0027011D01*
X0019733Y0027168D01*
X0019719Y0027326D01*
X0019709Y0027484D01*
X0019703Y0027642D01*
X0019701Y0027800D01*
X0019703Y0027958D01*
X0019709Y0028116D01*
X0019719Y0028274D01*
X0019733Y0028432D01*
X0019751Y0028589D01*
X0019772Y0028746D01*
X0019798Y0028902D01*
X0019828Y0029058D01*
X0019861Y0029213D01*
X0019899Y0029366D01*
X0019940Y0029519D01*
X0019985Y0029671D01*
X0020034Y0029822D01*
X0020087Y0029971D01*
X0020143Y0030119D01*
X0020203Y0030265D01*
X0020267Y0030410D01*
X0020335Y0030553D01*
X0020406Y0030695D01*
X0020480Y0030835D01*
X0020558Y0030972D01*
X0020640Y0031108D01*
X0020724Y0031242D01*
X0020813Y0031373D01*
X0020904Y0031502D01*
X0020999Y0031629D01*
X0021096Y0031754D01*
X0021197Y0031876D01*
X0021301Y0031995D01*
X0021408Y0032112D01*
X0021518Y0032226D01*
X0021631Y0032337D01*
X0021746Y0032446D01*
X0021864Y0032551D01*
X0021985Y0032653D01*
X0022108Y0032753D01*
X0022234Y0032849D01*
X0022362Y0032942D01*
X0022492Y0033032D01*
X0022625Y0033118D01*
X0022760Y0033202D01*
X0022896Y0033281D01*
X0023035Y0033358D01*
X0023176Y0033430D01*
X0023318Y0033500D01*
X0023462Y0033565D01*
X0023608Y0033627D01*
X0023755Y0033685D01*
X0023904Y0033740D01*
X0024054Y0033791D01*
X0024205Y0033838D01*
X0024357Y0033881D01*
X0024510Y0033920D01*
X0024665Y0033956D01*
X0024820Y0033987D01*
X0024976Y0034015D01*
X0025132Y0034039D01*
X0025289Y0034059D01*
X0025447Y0034075D01*
X0025604Y0034087D01*
X0025763Y0034095D01*
X0025921Y0034099D01*
X0026079Y0034099D01*
X0026237Y0034095D01*
X0026396Y0034087D01*
X0026553Y0034075D01*
X0026711Y0034059D01*
X0026868Y0034039D01*
X0027024Y0034015D01*
X0027180Y0033987D01*
X0027335Y0033956D01*
X0027490Y0033920D01*
X0027643Y0033881D01*
X0027795Y0033838D01*
X0027946Y0033791D01*
X0028096Y0033740D01*
X0028245Y0033685D01*
X0028392Y0033627D01*
X0028538Y0033565D01*
X0028682Y0033500D01*
X0028824Y0033430D01*
X0028965Y0033358D01*
X0029104Y0033281D01*
X0029240Y0033202D01*
X0029375Y0033118D01*
X0029508Y0033032D01*
X0029638Y0032942D01*
X0029766Y0032849D01*
X0029892Y0032753D01*
X0030015Y0032653D01*
X0030136Y0032551D01*
X0030254Y0032446D01*
X0030369Y0032337D01*
X0030482Y0032226D01*
X0030592Y0032112D01*
X0030699Y0031995D01*
X0030803Y0031876D01*
X0030904Y0031754D01*
X0031001Y0031629D01*
X0031096Y0031502D01*
X0031187Y0031373D01*
X0031276Y0031242D01*
X0031360Y0031108D01*
X0031442Y0030972D01*
X0031520Y0030835D01*
X0031594Y0030695D01*
X0031665Y0030553D01*
X0031733Y0030410D01*
X0031797Y0030265D01*
X0031857Y0030119D01*
X0031913Y0029971D01*
X0031966Y0029822D01*
X0032015Y0029671D01*
X0032060Y0029519D01*
X0032101Y0029366D01*
X0032139Y0029213D01*
X0032172Y0029058D01*
X0032202Y0028902D01*
X0032228Y0028746D01*
X0032249Y0028589D01*
X0032267Y0028432D01*
X0032281Y0028274D01*
X0032291Y0028116D01*
X0032297Y0027958D01*
X0032299Y0027800D01*
X0032297Y0027642D01*
X0032291Y0027484D01*
X0032281Y0027326D01*
X0032267Y0027168D01*
X0032249Y0027011D01*
X0032228Y0026854D01*
X0032202Y0026698D01*
X0032172Y0026542D01*
X0032139Y0026387D01*
X0032101Y0026234D01*
X0032060Y0026081D01*
X0032015Y0025929D01*
X0031966Y0025778D01*
X0031913Y0025629D01*
X0031857Y0025481D01*
X0031797Y0025335D01*
X0031733Y0025190D01*
X0031665Y0025047D01*
X0031594Y0024905D01*
X0031520Y0024765D01*
X0031442Y0024628D01*
X0031360Y0024492D01*
X0031276Y0024358D01*
X0031187Y0024227D01*
X0031096Y0024098D01*
X0031001Y0023971D01*
X0030904Y0023846D01*
X0030803Y0023724D01*
X0030699Y0023605D01*
X0030592Y0023488D01*
X0030482Y0023374D01*
X0030369Y0023263D01*
X0030254Y0023154D01*
X0030136Y0023049D01*
X0030015Y0022947D01*
X0029892Y0022847D01*
X0029766Y0022751D01*
X0029638Y0022658D01*
X0029508Y0022568D01*
X0029375Y0022482D01*
X0029240Y0022398D01*
X0029104Y0022319D01*
X0028965Y0022242D01*
X0028824Y0022170D01*
X0028682Y0022100D01*
X0028538Y0022035D01*
X0028392Y0021973D01*
X0028245Y0021915D01*
X0028096Y0021860D01*
X0027946Y0021809D01*
X0027795Y0021762D01*
X0027643Y0021719D01*
X0027490Y0021680D01*
X0027335Y0021644D01*
X0027180Y0021613D01*
X0027024Y0021585D01*
X0026868Y0021561D01*
X0026711Y0021541D01*
X0026553Y0021525D01*
X0026396Y0021513D01*
X0026237Y0021505D01*
X0026079Y0021501D01*
X0025921Y0021501D01*
X0025763Y0021505D01*
X0025604Y0021513D01*
X0025447Y0021525D01*
X0025289Y0021541D01*
X0025132Y0021561D01*
X0024976Y0021585D01*
X0024820Y0021613D01*
X0024665Y0021644D01*
X0024510Y0021680D01*
X0024357Y0021719D01*
X0024205Y0021762D01*
X0024054Y0021809D01*
X0023904Y0021860D01*
X0023755Y0021915D01*
X0023608Y0021973D01*
X0023462Y0022035D01*
X0023318Y0022100D01*
X0023176Y0022170D01*
X0023035Y0022242D01*
X0022896Y0022319D01*
X0022760Y0022398D01*
X0022625Y0022482D01*
X0022492Y0022568D01*
X0022362Y0022658D01*
X0022234Y0022751D01*
X0022108Y0022847D01*
X0021985Y0022947D01*
X0021864Y0023049D01*
X0021746Y0023154D01*
X0021631Y0023263D01*
X0021518Y0023374D01*
X0021408Y0023488D01*
X0021301Y0023605D01*
X0021197Y0023724D01*
X0021096Y0023846D01*
X0020999Y0023971D01*
X0020904Y0024098D01*
X0020813Y0024227D01*
X0020724Y0024358D01*
X0020640Y0024492D01*
X0020558Y0024628D01*
X0020480Y0024765D01*
X0020406Y0024905D01*
X0020335Y0025047D01*
X0020267Y0025190D01*
X0020203Y0025335D01*
X0020143Y0025481D01*
X0020087Y0025629D01*
X0020034Y0025778D01*
X0019985Y0025929D01*
X0019940Y0026081D01*
X0019899Y0026234D01*
X0019861Y0026387D01*
X0019828Y0026542D01*
X0019798Y0026698D01*
X0019772Y0026854D01*
X0019751Y0027011D01*
X0019733Y0027168D01*
X0019719Y0027326D01*
X0019709Y0027484D01*
X0019703Y0027642D01*
X0019701Y0027800D01*
X0569701Y0027800D02*
X0569703Y0027958D01*
X0569709Y0028116D01*
X0569719Y0028274D01*
X0569733Y0028432D01*
X0569751Y0028589D01*
X0569772Y0028746D01*
X0569798Y0028902D01*
X0569828Y0029058D01*
X0569861Y0029213D01*
X0569899Y0029366D01*
X0569940Y0029519D01*
X0569985Y0029671D01*
X0570034Y0029822D01*
X0570087Y0029971D01*
X0570143Y0030119D01*
X0570203Y0030265D01*
X0570267Y0030410D01*
X0570335Y0030553D01*
X0570406Y0030695D01*
X0570480Y0030835D01*
X0570558Y0030972D01*
X0570640Y0031108D01*
X0570724Y0031242D01*
X0570813Y0031373D01*
X0570904Y0031502D01*
X0570999Y0031629D01*
X0571096Y0031754D01*
X0571197Y0031876D01*
X0571301Y0031995D01*
X0571408Y0032112D01*
X0571518Y0032226D01*
X0571631Y0032337D01*
X0571746Y0032446D01*
X0571864Y0032551D01*
X0571985Y0032653D01*
X0572108Y0032753D01*
X0572234Y0032849D01*
X0572362Y0032942D01*
X0572492Y0033032D01*
X0572625Y0033118D01*
X0572760Y0033202D01*
X0572896Y0033281D01*
X0573035Y0033358D01*
X0573176Y0033430D01*
X0573318Y0033500D01*
X0573462Y0033565D01*
X0573608Y0033627D01*
X0573755Y0033685D01*
X0573904Y0033740D01*
X0574054Y0033791D01*
X0574205Y0033838D01*
X0574357Y0033881D01*
X0574510Y0033920D01*
X0574665Y0033956D01*
X0574820Y0033987D01*
X0574976Y0034015D01*
X0575132Y0034039D01*
X0575289Y0034059D01*
X0575447Y0034075D01*
X0575604Y0034087D01*
X0575763Y0034095D01*
X0575921Y0034099D01*
X0576079Y0034099D01*
X0576237Y0034095D01*
X0576396Y0034087D01*
X0576553Y0034075D01*
X0576711Y0034059D01*
X0576868Y0034039D01*
X0577024Y0034015D01*
X0577180Y0033987D01*
X0577335Y0033956D01*
X0577490Y0033920D01*
X0577643Y0033881D01*
X0577795Y0033838D01*
X0577946Y0033791D01*
X0578096Y0033740D01*
X0578245Y0033685D01*
X0578392Y0033627D01*
X0578538Y0033565D01*
X0578682Y0033500D01*
X0578824Y0033430D01*
X0578965Y0033358D01*
X0579104Y0033281D01*
X0579240Y0033202D01*
X0579375Y0033118D01*
X0579508Y0033032D01*
X0579638Y0032942D01*
X0579766Y0032849D01*
X0579892Y0032753D01*
X0580015Y0032653D01*
X0580136Y0032551D01*
X0580254Y0032446D01*
X0580369Y0032337D01*
X0580482Y0032226D01*
X0580592Y0032112D01*
X0580699Y0031995D01*
X0580803Y0031876D01*
X0580904Y0031754D01*
X0581001Y0031629D01*
X0581096Y0031502D01*
X0581187Y0031373D01*
X0581276Y0031242D01*
X0581360Y0031108D01*
X0581442Y0030972D01*
X0581520Y0030835D01*
X0581594Y0030695D01*
X0581665Y0030553D01*
X0581733Y0030410D01*
X0581797Y0030265D01*
X0581857Y0030119D01*
X0581913Y0029971D01*
X0581966Y0029822D01*
X0582015Y0029671D01*
X0582060Y0029519D01*
X0582101Y0029366D01*
X0582139Y0029213D01*
X0582172Y0029058D01*
X0582202Y0028902D01*
X0582228Y0028746D01*
X0582249Y0028589D01*
X0582267Y0028432D01*
X0582281Y0028274D01*
X0582291Y0028116D01*
X0582297Y0027958D01*
X0582299Y0027800D01*
X0582297Y0027642D01*
X0582291Y0027484D01*
X0582281Y0027326D01*
X0582267Y0027168D01*
X0582249Y0027011D01*
X0582228Y0026854D01*
X0582202Y0026698D01*
X0582172Y0026542D01*
X0582139Y0026387D01*
X0582101Y0026234D01*
X0582060Y0026081D01*
X0582015Y0025929D01*
X0581966Y0025778D01*
X0581913Y0025629D01*
X0581857Y0025481D01*
X0581797Y0025335D01*
X0581733Y0025190D01*
X0581665Y0025047D01*
X0581594Y0024905D01*
X0581520Y0024765D01*
X0581442Y0024628D01*
X0581360Y0024492D01*
X0581276Y0024358D01*
X0581187Y0024227D01*
X0581096Y0024098D01*
X0581001Y0023971D01*
X0580904Y0023846D01*
X0580803Y0023724D01*
X0580699Y0023605D01*
X0580592Y0023488D01*
X0580482Y0023374D01*
X0580369Y0023263D01*
X0580254Y0023154D01*
X0580136Y0023049D01*
X0580015Y0022947D01*
X0579892Y0022847D01*
X0579766Y0022751D01*
X0579638Y0022658D01*
X0579508Y0022568D01*
X0579375Y0022482D01*
X0579240Y0022398D01*
X0579104Y0022319D01*
X0578965Y0022242D01*
X0578824Y0022170D01*
X0578682Y0022100D01*
X0578538Y0022035D01*
X0578392Y0021973D01*
X0578245Y0021915D01*
X0578096Y0021860D01*
X0577946Y0021809D01*
X0577795Y0021762D01*
X0577643Y0021719D01*
X0577490Y0021680D01*
X0577335Y0021644D01*
X0577180Y0021613D01*
X0577024Y0021585D01*
X0576868Y0021561D01*
X0576711Y0021541D01*
X0576553Y0021525D01*
X0576396Y0021513D01*
X0576237Y0021505D01*
X0576079Y0021501D01*
X0575921Y0021501D01*
X0575763Y0021505D01*
X0575604Y0021513D01*
X0575447Y0021525D01*
X0575289Y0021541D01*
X0575132Y0021561D01*
X0574976Y0021585D01*
X0574820Y0021613D01*
X0574665Y0021644D01*
X0574510Y0021680D01*
X0574357Y0021719D01*
X0574205Y0021762D01*
X0574054Y0021809D01*
X0573904Y0021860D01*
X0573755Y0021915D01*
X0573608Y0021973D01*
X0573462Y0022035D01*
X0573318Y0022100D01*
X0573176Y0022170D01*
X0573035Y0022242D01*
X0572896Y0022319D01*
X0572760Y0022398D01*
X0572625Y0022482D01*
X0572492Y0022568D01*
X0572362Y0022658D01*
X0572234Y0022751D01*
X0572108Y0022847D01*
X0571985Y0022947D01*
X0571864Y0023049D01*
X0571746Y0023154D01*
X0571631Y0023263D01*
X0571518Y0023374D01*
X0571408Y0023488D01*
X0571301Y0023605D01*
X0571197Y0023724D01*
X0571096Y0023846D01*
X0570999Y0023971D01*
X0570904Y0024098D01*
X0570813Y0024227D01*
X0570724Y0024358D01*
X0570640Y0024492D01*
X0570558Y0024628D01*
X0570480Y0024765D01*
X0570406Y0024905D01*
X0570335Y0025047D01*
X0570267Y0025190D01*
X0570203Y0025335D01*
X0570143Y0025481D01*
X0570087Y0025629D01*
X0570034Y0025778D01*
X0569985Y0025929D01*
X0569940Y0026081D01*
X0569899Y0026234D01*
X0569861Y0026387D01*
X0569828Y0026542D01*
X0569798Y0026698D01*
X0569772Y0026854D01*
X0569751Y0027011D01*
X0569733Y0027168D01*
X0569719Y0027326D01*
X0569709Y0027484D01*
X0569703Y0027642D01*
X0569701Y0027800D01*
X0569703Y0027958D01*
X0569709Y0028116D01*
X0569719Y0028274D01*
X0569733Y0028432D01*
X0569751Y0028589D01*
X0569772Y0028746D01*
X0569798Y0028902D01*
X0569828Y0029058D01*
X0569861Y0029213D01*
X0569899Y0029366D01*
X0569940Y0029519D01*
X0569985Y0029671D01*
X0570034Y0029822D01*
X0570087Y0029971D01*
X0570143Y0030119D01*
X0570203Y0030265D01*
X0570267Y0030410D01*
X0570335Y0030553D01*
X0570406Y0030695D01*
X0570480Y0030835D01*
X0570558Y0030972D01*
X0570640Y0031108D01*
X0570724Y0031242D01*
X0570813Y0031373D01*
X0570904Y0031502D01*
X0570999Y0031629D01*
X0571096Y0031754D01*
X0571197Y0031876D01*
X0571301Y0031995D01*
X0571408Y0032112D01*
X0571518Y0032226D01*
X0571631Y0032337D01*
X0571746Y0032446D01*
X0571864Y0032551D01*
X0571985Y0032653D01*
X0572108Y0032753D01*
X0572234Y0032849D01*
X0572362Y0032942D01*
X0572492Y0033032D01*
X0572625Y0033118D01*
X0572760Y0033202D01*
X0572896Y0033281D01*
X0573035Y0033358D01*
X0573176Y0033430D01*
X0573318Y0033500D01*
X0573462Y0033565D01*
X0573608Y0033627D01*
X0573755Y0033685D01*
X0573904Y0033740D01*
X0574054Y0033791D01*
X0574205Y0033838D01*
X0574357Y0033881D01*
X0574510Y0033920D01*
X0574665Y0033956D01*
X0574820Y0033987D01*
X0574976Y0034015D01*
X0575132Y0034039D01*
X0575289Y0034059D01*
X0575447Y0034075D01*
X0575604Y0034087D01*
X0575763Y0034095D01*
X0575921Y0034099D01*
X0576079Y0034099D01*
X0576237Y0034095D01*
X0576396Y0034087D01*
X0576553Y0034075D01*
X0576711Y0034059D01*
X0576868Y0034039D01*
X0577024Y0034015D01*
X0577180Y0033987D01*
X0577335Y0033956D01*
X0577490Y0033920D01*
X0577643Y0033881D01*
X0577795Y0033838D01*
X0577946Y0033791D01*
X0578096Y0033740D01*
X0578245Y0033685D01*
X0578392Y0033627D01*
X0578538Y0033565D01*
X0578682Y0033500D01*
X0578824Y0033430D01*
X0578965Y0033358D01*
X0579104Y0033281D01*
X0579240Y0033202D01*
X0579375Y0033118D01*
X0579508Y0033032D01*
X0579638Y0032942D01*
X0579766Y0032849D01*
X0579892Y0032753D01*
X0580015Y0032653D01*
X0580136Y0032551D01*
X0580254Y0032446D01*
X0580369Y0032337D01*
X0580482Y0032226D01*
X0580592Y0032112D01*
X0580699Y0031995D01*
X0580803Y0031876D01*
X0580904Y0031754D01*
X0581001Y0031629D01*
X0581096Y0031502D01*
X0581187Y0031373D01*
X0581276Y0031242D01*
X0581360Y0031108D01*
X0581442Y0030972D01*
X0581520Y0030835D01*
X0581594Y0030695D01*
X0581665Y0030553D01*
X0581733Y0030410D01*
X0581797Y0030265D01*
X0581857Y0030119D01*
X0581913Y0029971D01*
X0581966Y0029822D01*
X0582015Y0029671D01*
X0582060Y0029519D01*
X0582101Y0029366D01*
X0582139Y0029213D01*
X0582172Y0029058D01*
X0582202Y0028902D01*
X0582228Y0028746D01*
X0582249Y0028589D01*
X0582267Y0028432D01*
X0582281Y0028274D01*
X0582291Y0028116D01*
X0582297Y0027958D01*
X0582299Y0027800D01*
X0582297Y0027642D01*
X0582291Y0027484D01*
X0582281Y0027326D01*
X0582267Y0027168D01*
X0582249Y0027011D01*
X0582228Y0026854D01*
X0582202Y0026698D01*
X0582172Y0026542D01*
X0582139Y0026387D01*
X0582101Y0026234D01*
X0582060Y0026081D01*
X0582015Y0025929D01*
X0581966Y0025778D01*
X0581913Y0025629D01*
X0581857Y0025481D01*
X0581797Y0025335D01*
X0581733Y0025190D01*
X0581665Y0025047D01*
X0581594Y0024905D01*
X0581520Y0024765D01*
X0581442Y0024628D01*
X0581360Y0024492D01*
X0581276Y0024358D01*
X0581187Y0024227D01*
X0581096Y0024098D01*
X0581001Y0023971D01*
X0580904Y0023846D01*
X0580803Y0023724D01*
X0580699Y0023605D01*
X0580592Y0023488D01*
X0580482Y0023374D01*
X0580369Y0023263D01*
X0580254Y0023154D01*
X0580136Y0023049D01*
X0580015Y0022947D01*
X0579892Y0022847D01*
X0579766Y0022751D01*
X0579638Y0022658D01*
X0579508Y0022568D01*
X0579375Y0022482D01*
X0579240Y0022398D01*
X0579104Y0022319D01*
X0578965Y0022242D01*
X0578824Y0022170D01*
X0578682Y0022100D01*
X0578538Y0022035D01*
X0578392Y0021973D01*
X0578245Y0021915D01*
X0578096Y0021860D01*
X0577946Y0021809D01*
X0577795Y0021762D01*
X0577643Y0021719D01*
X0577490Y0021680D01*
X0577335Y0021644D01*
X0577180Y0021613D01*
X0577024Y0021585D01*
X0576868Y0021561D01*
X0576711Y0021541D01*
X0576553Y0021525D01*
X0576396Y0021513D01*
X0576237Y0021505D01*
X0576079Y0021501D01*
X0575921Y0021501D01*
X0575763Y0021505D01*
X0575604Y0021513D01*
X0575447Y0021525D01*
X0575289Y0021541D01*
X0575132Y0021561D01*
X0574976Y0021585D01*
X0574820Y0021613D01*
X0574665Y0021644D01*
X0574510Y0021680D01*
X0574357Y0021719D01*
X0574205Y0021762D01*
X0574054Y0021809D01*
X0573904Y0021860D01*
X0573755Y0021915D01*
X0573608Y0021973D01*
X0573462Y0022035D01*
X0573318Y0022100D01*
X0573176Y0022170D01*
X0573035Y0022242D01*
X0572896Y0022319D01*
X0572760Y0022398D01*
X0572625Y0022482D01*
X0572492Y0022568D01*
X0572362Y0022658D01*
X0572234Y0022751D01*
X0572108Y0022847D01*
X0571985Y0022947D01*
X0571864Y0023049D01*
X0571746Y0023154D01*
X0571631Y0023263D01*
X0571518Y0023374D01*
X0571408Y0023488D01*
X0571301Y0023605D01*
X0571197Y0023724D01*
X0571096Y0023846D01*
X0570999Y0023971D01*
X0570904Y0024098D01*
X0570813Y0024227D01*
X0570724Y0024358D01*
X0570640Y0024492D01*
X0570558Y0024628D01*
X0570480Y0024765D01*
X0570406Y0024905D01*
X0570335Y0025047D01*
X0570267Y0025190D01*
X0570203Y0025335D01*
X0570143Y0025481D01*
X0570087Y0025629D01*
X0570034Y0025778D01*
X0569985Y0025929D01*
X0569940Y0026081D01*
X0569899Y0026234D01*
X0569861Y0026387D01*
X0569828Y0026542D01*
X0569798Y0026698D01*
X0569772Y0026854D01*
X0569751Y0027011D01*
X0569733Y0027168D01*
X0569719Y0027326D01*
X0569709Y0027484D01*
X0569703Y0027642D01*
X0569701Y0027800D01*
X0606000Y0002800D02*
X0606000Y0427800D01*
X1005000Y0427800D01*
X1005000Y0002800D01*
X0606000Y0002800D01*
X0623525Y0027800D02*
X0623527Y0027983D01*
X0623534Y0028167D01*
X0623545Y0028350D01*
X0623561Y0028533D01*
X0623581Y0028715D01*
X0623606Y0028897D01*
X0623635Y0029078D01*
X0623669Y0029258D01*
X0623707Y0029438D01*
X0623749Y0029616D01*
X0623796Y0029794D01*
X0623847Y0029970D01*
X0623902Y0030145D01*
X0623962Y0030318D01*
X0624026Y0030490D01*
X0624094Y0030661D01*
X0624166Y0030829D01*
X0624243Y0030996D01*
X0624323Y0031161D01*
X0624408Y0031324D01*
X0624496Y0031484D01*
X0624588Y0031643D01*
X0624685Y0031799D01*
X0624785Y0031953D01*
X0624889Y0032104D01*
X0624996Y0032253D01*
X0625107Y0032399D01*
X0625222Y0032542D01*
X0625340Y0032682D01*
X0625461Y0032820D01*
X0625586Y0032954D01*
X0625714Y0033086D01*
X0625846Y0033214D01*
X0625980Y0033339D01*
X0626118Y0033460D01*
X0626258Y0033578D01*
X0626401Y0033693D01*
X0626547Y0033804D01*
X0626696Y0033911D01*
X0626847Y0034015D01*
X0627001Y0034115D01*
X0627157Y0034212D01*
X0627316Y0034304D01*
X0627476Y0034392D01*
X0627639Y0034477D01*
X0627804Y0034557D01*
X0627971Y0034634D01*
X0628139Y0034706D01*
X0628310Y0034774D01*
X0628482Y0034838D01*
X0628655Y0034898D01*
X0628830Y0034953D01*
X0629006Y0035004D01*
X0629184Y0035051D01*
X0629362Y0035093D01*
X0629542Y0035131D01*
X0629722Y0035165D01*
X0629903Y0035194D01*
X0630085Y0035219D01*
X0630267Y0035239D01*
X0630450Y0035255D01*
X0630633Y0035266D01*
X0630817Y0035273D01*
X0631000Y0035275D01*
X0631183Y0035273D01*
X0631367Y0035266D01*
X0631550Y0035255D01*
X0631733Y0035239D01*
X0631915Y0035219D01*
X0632097Y0035194D01*
X0632278Y0035165D01*
X0632458Y0035131D01*
X0632638Y0035093D01*
X0632816Y0035051D01*
X0632994Y0035004D01*
X0633170Y0034953D01*
X0633345Y0034898D01*
X0633518Y0034838D01*
X0633690Y0034774D01*
X0633861Y0034706D01*
X0634029Y0034634D01*
X0634196Y0034557D01*
X0634361Y0034477D01*
X0634524Y0034392D01*
X0634684Y0034304D01*
X0634843Y0034212D01*
X0634999Y0034115D01*
X0635153Y0034015D01*
X0635304Y0033911D01*
X0635453Y0033804D01*
X0635599Y0033693D01*
X0635742Y0033578D01*
X0635882Y0033460D01*
X0636020Y0033339D01*
X0636154Y0033214D01*
X0636286Y0033086D01*
X0636414Y0032954D01*
X0636539Y0032820D01*
X0636660Y0032682D01*
X0636778Y0032542D01*
X0636893Y0032399D01*
X0637004Y0032253D01*
X0637111Y0032104D01*
X0637215Y0031953D01*
X0637315Y0031799D01*
X0637412Y0031643D01*
X0637504Y0031484D01*
X0637592Y0031324D01*
X0637677Y0031161D01*
X0637757Y0030996D01*
X0637834Y0030829D01*
X0637906Y0030661D01*
X0637974Y0030490D01*
X0638038Y0030318D01*
X0638098Y0030145D01*
X0638153Y0029970D01*
X0638204Y0029794D01*
X0638251Y0029616D01*
X0638293Y0029438D01*
X0638331Y0029258D01*
X0638365Y0029078D01*
X0638394Y0028897D01*
X0638419Y0028715D01*
X0638439Y0028533D01*
X0638455Y0028350D01*
X0638466Y0028167D01*
X0638473Y0027983D01*
X0638475Y0027800D01*
X0638473Y0027617D01*
X0638466Y0027433D01*
X0638455Y0027250D01*
X0638439Y0027067D01*
X0638419Y0026885D01*
X0638394Y0026703D01*
X0638365Y0026522D01*
X0638331Y0026342D01*
X0638293Y0026162D01*
X0638251Y0025984D01*
X0638204Y0025806D01*
X0638153Y0025630D01*
X0638098Y0025455D01*
X0638038Y0025282D01*
X0637974Y0025110D01*
X0637906Y0024939D01*
X0637834Y0024771D01*
X0637757Y0024604D01*
X0637677Y0024439D01*
X0637592Y0024276D01*
X0637504Y0024116D01*
X0637412Y0023957D01*
X0637315Y0023801D01*
X0637215Y0023647D01*
X0637111Y0023496D01*
X0637004Y0023347D01*
X0636893Y0023201D01*
X0636778Y0023058D01*
X0636660Y0022918D01*
X0636539Y0022780D01*
X0636414Y0022646D01*
X0636286Y0022514D01*
X0636154Y0022386D01*
X0636020Y0022261D01*
X0635882Y0022140D01*
X0635742Y0022022D01*
X0635599Y0021907D01*
X0635453Y0021796D01*
X0635304Y0021689D01*
X0635153Y0021585D01*
X0634999Y0021485D01*
X0634843Y0021388D01*
X0634684Y0021296D01*
X0634524Y0021208D01*
X0634361Y0021123D01*
X0634196Y0021043D01*
X0634029Y0020966D01*
X0633861Y0020894D01*
X0633690Y0020826D01*
X0633518Y0020762D01*
X0633345Y0020702D01*
X0633170Y0020647D01*
X0632994Y0020596D01*
X0632816Y0020549D01*
X0632638Y0020507D01*
X0632458Y0020469D01*
X0632278Y0020435D01*
X0632097Y0020406D01*
X0631915Y0020381D01*
X0631733Y0020361D01*
X0631550Y0020345D01*
X0631367Y0020334D01*
X0631183Y0020327D01*
X0631000Y0020325D01*
X0630817Y0020327D01*
X0630633Y0020334D01*
X0630450Y0020345D01*
X0630267Y0020361D01*
X0630085Y0020381D01*
X0629903Y0020406D01*
X0629722Y0020435D01*
X0629542Y0020469D01*
X0629362Y0020507D01*
X0629184Y0020549D01*
X0629006Y0020596D01*
X0628830Y0020647D01*
X0628655Y0020702D01*
X0628482Y0020762D01*
X0628310Y0020826D01*
X0628139Y0020894D01*
X0627971Y0020966D01*
X0627804Y0021043D01*
X0627639Y0021123D01*
X0627476Y0021208D01*
X0627316Y0021296D01*
X0627157Y0021388D01*
X0627001Y0021485D01*
X0626847Y0021585D01*
X0626696Y0021689D01*
X0626547Y0021796D01*
X0626401Y0021907D01*
X0626258Y0022022D01*
X0626118Y0022140D01*
X0625980Y0022261D01*
X0625846Y0022386D01*
X0625714Y0022514D01*
X0625586Y0022646D01*
X0625461Y0022780D01*
X0625340Y0022918D01*
X0625222Y0023058D01*
X0625107Y0023201D01*
X0624996Y0023347D01*
X0624889Y0023496D01*
X0624785Y0023647D01*
X0624685Y0023801D01*
X0624588Y0023957D01*
X0624496Y0024116D01*
X0624408Y0024276D01*
X0624323Y0024439D01*
X0624243Y0024604D01*
X0624166Y0024771D01*
X0624094Y0024939D01*
X0624026Y0025110D01*
X0623962Y0025282D01*
X0623902Y0025455D01*
X0623847Y0025630D01*
X0623796Y0025806D01*
X0623749Y0025984D01*
X0623707Y0026162D01*
X0623669Y0026342D01*
X0623635Y0026522D01*
X0623606Y0026703D01*
X0623581Y0026885D01*
X0623561Y0027067D01*
X0623545Y0027250D01*
X0623534Y0027433D01*
X0623527Y0027617D01*
X0623525Y0027800D01*
X0623527Y0027983D01*
X0623534Y0028167D01*
X0623545Y0028350D01*
X0623561Y0028533D01*
X0623581Y0028715D01*
X0623606Y0028897D01*
X0623635Y0029078D01*
X0623669Y0029258D01*
X0623707Y0029438D01*
X0623749Y0029616D01*
X0623796Y0029794D01*
X0623847Y0029970D01*
X0623902Y0030145D01*
X0623962Y0030318D01*
X0624026Y0030490D01*
X0624094Y0030661D01*
X0624166Y0030829D01*
X0624243Y0030996D01*
X0624323Y0031161D01*
X0624408Y0031324D01*
X0624496Y0031484D01*
X0624588Y0031643D01*
X0624685Y0031799D01*
X0624785Y0031953D01*
X0624889Y0032104D01*
X0624996Y0032253D01*
X0625107Y0032399D01*
X0625222Y0032542D01*
X0625340Y0032682D01*
X0625461Y0032820D01*
X0625586Y0032954D01*
X0625714Y0033086D01*
X0625846Y0033214D01*
X0625980Y0033339D01*
X0626118Y0033460D01*
X0626258Y0033578D01*
X0626401Y0033693D01*
X0626547Y0033804D01*
X0626696Y0033911D01*
X0626847Y0034015D01*
X0627001Y0034115D01*
X0627157Y0034212D01*
X0627316Y0034304D01*
X0627476Y0034392D01*
X0627639Y0034477D01*
X0627804Y0034557D01*
X0627971Y0034634D01*
X0628139Y0034706D01*
X0628310Y0034774D01*
X0628482Y0034838D01*
X0628655Y0034898D01*
X0628830Y0034953D01*
X0629006Y0035004D01*
X0629184Y0035051D01*
X0629362Y0035093D01*
X0629542Y0035131D01*
X0629722Y0035165D01*
X0629903Y0035194D01*
X0630085Y0035219D01*
X0630267Y0035239D01*
X0630450Y0035255D01*
X0630633Y0035266D01*
X0630817Y0035273D01*
X0631000Y0035275D01*
X0631183Y0035273D01*
X0631367Y0035266D01*
X0631550Y0035255D01*
X0631733Y0035239D01*
X0631915Y0035219D01*
X0632097Y0035194D01*
X0632278Y0035165D01*
X0632458Y0035131D01*
X0632638Y0035093D01*
X0632816Y0035051D01*
X0632994Y0035004D01*
X0633170Y0034953D01*
X0633345Y0034898D01*
X0633518Y0034838D01*
X0633690Y0034774D01*
X0633861Y0034706D01*
X0634029Y0034634D01*
X0634196Y0034557D01*
X0634361Y0034477D01*
X0634524Y0034392D01*
X0634684Y0034304D01*
X0634843Y0034212D01*
X0634999Y0034115D01*
X0635153Y0034015D01*
X0635304Y0033911D01*
X0635453Y0033804D01*
X0635599Y0033693D01*
X0635742Y0033578D01*
X0635882Y0033460D01*
X0636020Y0033339D01*
X0636154Y0033214D01*
X0636286Y0033086D01*
X0636414Y0032954D01*
X0636539Y0032820D01*
X0636660Y0032682D01*
X0636778Y0032542D01*
X0636893Y0032399D01*
X0637004Y0032253D01*
X0637111Y0032104D01*
X0637215Y0031953D01*
X0637315Y0031799D01*
X0637412Y0031643D01*
X0637504Y0031484D01*
X0637592Y0031324D01*
X0637677Y0031161D01*
X0637757Y0030996D01*
X0637834Y0030829D01*
X0637906Y0030661D01*
X0637974Y0030490D01*
X0638038Y0030318D01*
X0638098Y0030145D01*
X0638153Y0029970D01*
X0638204Y0029794D01*
X0638251Y0029616D01*
X0638293Y0029438D01*
X0638331Y0029258D01*
X0638365Y0029078D01*
X0638394Y0028897D01*
X0638419Y0028715D01*
X0638439Y0028533D01*
X0638455Y0028350D01*
X0638466Y0028167D01*
X0638473Y0027983D01*
X0638475Y0027800D01*
X0638473Y0027617D01*
X0638466Y0027433D01*
X0638455Y0027250D01*
X0638439Y0027067D01*
X0638419Y0026885D01*
X0638394Y0026703D01*
X0638365Y0026522D01*
X0638331Y0026342D01*
X0638293Y0026162D01*
X0638251Y0025984D01*
X0638204Y0025806D01*
X0638153Y0025630D01*
X0638098Y0025455D01*
X0638038Y0025282D01*
X0637974Y0025110D01*
X0637906Y0024939D01*
X0637834Y0024771D01*
X0637757Y0024604D01*
X0637677Y0024439D01*
X0637592Y0024276D01*
X0637504Y0024116D01*
X0637412Y0023957D01*
X0637315Y0023801D01*
X0637215Y0023647D01*
X0637111Y0023496D01*
X0637004Y0023347D01*
X0636893Y0023201D01*
X0636778Y0023058D01*
X0636660Y0022918D01*
X0636539Y0022780D01*
X0636414Y0022646D01*
X0636286Y0022514D01*
X0636154Y0022386D01*
X0636020Y0022261D01*
X0635882Y0022140D01*
X0635742Y0022022D01*
X0635599Y0021907D01*
X0635453Y0021796D01*
X0635304Y0021689D01*
X0635153Y0021585D01*
X0634999Y0021485D01*
X0634843Y0021388D01*
X0634684Y0021296D01*
X0634524Y0021208D01*
X0634361Y0021123D01*
X0634196Y0021043D01*
X0634029Y0020966D01*
X0633861Y0020894D01*
X0633690Y0020826D01*
X0633518Y0020762D01*
X0633345Y0020702D01*
X0633170Y0020647D01*
X0632994Y0020596D01*
X0632816Y0020549D01*
X0632638Y0020507D01*
X0632458Y0020469D01*
X0632278Y0020435D01*
X0632097Y0020406D01*
X0631915Y0020381D01*
X0631733Y0020361D01*
X0631550Y0020345D01*
X0631367Y0020334D01*
X0631183Y0020327D01*
X0631000Y0020325D01*
X0630817Y0020327D01*
X0630633Y0020334D01*
X0630450Y0020345D01*
X0630267Y0020361D01*
X0630085Y0020381D01*
X0629903Y0020406D01*
X0629722Y0020435D01*
X0629542Y0020469D01*
X0629362Y0020507D01*
X0629184Y0020549D01*
X0629006Y0020596D01*
X0628830Y0020647D01*
X0628655Y0020702D01*
X0628482Y0020762D01*
X0628310Y0020826D01*
X0628139Y0020894D01*
X0627971Y0020966D01*
X0627804Y0021043D01*
X0627639Y0021123D01*
X0627476Y0021208D01*
X0627316Y0021296D01*
X0627157Y0021388D01*
X0627001Y0021485D01*
X0626847Y0021585D01*
X0626696Y0021689D01*
X0626547Y0021796D01*
X0626401Y0021907D01*
X0626258Y0022022D01*
X0626118Y0022140D01*
X0625980Y0022261D01*
X0625846Y0022386D01*
X0625714Y0022514D01*
X0625586Y0022646D01*
X0625461Y0022780D01*
X0625340Y0022918D01*
X0625222Y0023058D01*
X0625107Y0023201D01*
X0624996Y0023347D01*
X0624889Y0023496D01*
X0624785Y0023647D01*
X0624685Y0023801D01*
X0624588Y0023957D01*
X0624496Y0024116D01*
X0624408Y0024276D01*
X0624323Y0024439D01*
X0624243Y0024604D01*
X0624166Y0024771D01*
X0624094Y0024939D01*
X0624026Y0025110D01*
X0623962Y0025282D01*
X0623902Y0025455D01*
X0623847Y0025630D01*
X0623796Y0025806D01*
X0623749Y0025984D01*
X0623707Y0026162D01*
X0623669Y0026342D01*
X0623635Y0026522D01*
X0623606Y0026703D01*
X0623581Y0026885D01*
X0623561Y0027067D01*
X0623545Y0027250D01*
X0623534Y0027433D01*
X0623527Y0027617D01*
X0623525Y0027800D01*
X0967525Y0027800D02*
X0967527Y0027983D01*
X0967534Y0028167D01*
X0967545Y0028350D01*
X0967561Y0028533D01*
X0967581Y0028715D01*
X0967606Y0028897D01*
X0967635Y0029078D01*
X0967669Y0029258D01*
X0967707Y0029438D01*
X0967749Y0029616D01*
X0967796Y0029794D01*
X0967847Y0029970D01*
X0967902Y0030145D01*
X0967962Y0030318D01*
X0968026Y0030490D01*
X0968094Y0030661D01*
X0968166Y0030829D01*
X0968243Y0030996D01*
X0968323Y0031161D01*
X0968408Y0031324D01*
X0968496Y0031484D01*
X0968588Y0031643D01*
X0968685Y0031799D01*
X0968785Y0031953D01*
X0968889Y0032104D01*
X0968996Y0032253D01*
X0969107Y0032399D01*
X0969222Y0032542D01*
X0969340Y0032682D01*
X0969461Y0032820D01*
X0969586Y0032954D01*
X0969714Y0033086D01*
X0969846Y0033214D01*
X0969980Y0033339D01*
X0970118Y0033460D01*
X0970258Y0033578D01*
X0970401Y0033693D01*
X0970547Y0033804D01*
X0970696Y0033911D01*
X0970847Y0034015D01*
X0971001Y0034115D01*
X0971157Y0034212D01*
X0971316Y0034304D01*
X0971476Y0034392D01*
X0971639Y0034477D01*
X0971804Y0034557D01*
X0971971Y0034634D01*
X0972139Y0034706D01*
X0972310Y0034774D01*
X0972482Y0034838D01*
X0972655Y0034898D01*
X0972830Y0034953D01*
X0973006Y0035004D01*
X0973184Y0035051D01*
X0973362Y0035093D01*
X0973542Y0035131D01*
X0973722Y0035165D01*
X0973903Y0035194D01*
X0974085Y0035219D01*
X0974267Y0035239D01*
X0974450Y0035255D01*
X0974633Y0035266D01*
X0974817Y0035273D01*
X0975000Y0035275D01*
X0975183Y0035273D01*
X0975367Y0035266D01*
X0975550Y0035255D01*
X0975733Y0035239D01*
X0975915Y0035219D01*
X0976097Y0035194D01*
X0976278Y0035165D01*
X0976458Y0035131D01*
X0976638Y0035093D01*
X0976816Y0035051D01*
X0976994Y0035004D01*
X0977170Y0034953D01*
X0977345Y0034898D01*
X0977518Y0034838D01*
X0977690Y0034774D01*
X0977861Y0034706D01*
X0978029Y0034634D01*
X0978196Y0034557D01*
X0978361Y0034477D01*
X0978524Y0034392D01*
X0978684Y0034304D01*
X0978843Y0034212D01*
X0978999Y0034115D01*
X0979153Y0034015D01*
X0979304Y0033911D01*
X0979453Y0033804D01*
X0979599Y0033693D01*
X0979742Y0033578D01*
X0979882Y0033460D01*
X0980020Y0033339D01*
X0980154Y0033214D01*
X0980286Y0033086D01*
X0980414Y0032954D01*
X0980539Y0032820D01*
X0980660Y0032682D01*
X0980778Y0032542D01*
X0980893Y0032399D01*
X0981004Y0032253D01*
X0981111Y0032104D01*
X0981215Y0031953D01*
X0981315Y0031799D01*
X0981412Y0031643D01*
X0981504Y0031484D01*
X0981592Y0031324D01*
X0981677Y0031161D01*
X0981757Y0030996D01*
X0981834Y0030829D01*
X0981906Y0030661D01*
X0981974Y0030490D01*
X0982038Y0030318D01*
X0982098Y0030145D01*
X0982153Y0029970D01*
X0982204Y0029794D01*
X0982251Y0029616D01*
X0982293Y0029438D01*
X0982331Y0029258D01*
X0982365Y0029078D01*
X0982394Y0028897D01*
X0982419Y0028715D01*
X0982439Y0028533D01*
X0982455Y0028350D01*
X0982466Y0028167D01*
X0982473Y0027983D01*
X0982475Y0027800D01*
X0982473Y0027617D01*
X0982466Y0027433D01*
X0982455Y0027250D01*
X0982439Y0027067D01*
X0982419Y0026885D01*
X0982394Y0026703D01*
X0982365Y0026522D01*
X0982331Y0026342D01*
X0982293Y0026162D01*
X0982251Y0025984D01*
X0982204Y0025806D01*
X0982153Y0025630D01*
X0982098Y0025455D01*
X0982038Y0025282D01*
X0981974Y0025110D01*
X0981906Y0024939D01*
X0981834Y0024771D01*
X0981757Y0024604D01*
X0981677Y0024439D01*
X0981592Y0024276D01*
X0981504Y0024116D01*
X0981412Y0023957D01*
X0981315Y0023801D01*
X0981215Y0023647D01*
X0981111Y0023496D01*
X0981004Y0023347D01*
X0980893Y0023201D01*
X0980778Y0023058D01*
X0980660Y0022918D01*
X0980539Y0022780D01*
X0980414Y0022646D01*
X0980286Y0022514D01*
X0980154Y0022386D01*
X0980020Y0022261D01*
X0979882Y0022140D01*
X0979742Y0022022D01*
X0979599Y0021907D01*
X0979453Y0021796D01*
X0979304Y0021689D01*
X0979153Y0021585D01*
X0978999Y0021485D01*
X0978843Y0021388D01*
X0978684Y0021296D01*
X0978524Y0021208D01*
X0978361Y0021123D01*
X0978196Y0021043D01*
X0978029Y0020966D01*
X0977861Y0020894D01*
X0977690Y0020826D01*
X0977518Y0020762D01*
X0977345Y0020702D01*
X0977170Y0020647D01*
X0976994Y0020596D01*
X0976816Y0020549D01*
X0976638Y0020507D01*
X0976458Y0020469D01*
X0976278Y0020435D01*
X0976097Y0020406D01*
X0975915Y0020381D01*
X0975733Y0020361D01*
X0975550Y0020345D01*
X0975367Y0020334D01*
X0975183Y0020327D01*
X0975000Y0020325D01*
X0974817Y0020327D01*
X0974633Y0020334D01*
X0974450Y0020345D01*
X0974267Y0020361D01*
X0974085Y0020381D01*
X0973903Y0020406D01*
X0973722Y0020435D01*
X0973542Y0020469D01*
X0973362Y0020507D01*
X0973184Y0020549D01*
X0973006Y0020596D01*
X0972830Y0020647D01*
X0972655Y0020702D01*
X0972482Y0020762D01*
X0972310Y0020826D01*
X0972139Y0020894D01*
X0971971Y0020966D01*
X0971804Y0021043D01*
X0971639Y0021123D01*
X0971476Y0021208D01*
X0971316Y0021296D01*
X0971157Y0021388D01*
X0971001Y0021485D01*
X0970847Y0021585D01*
X0970696Y0021689D01*
X0970547Y0021796D01*
X0970401Y0021907D01*
X0970258Y0022022D01*
X0970118Y0022140D01*
X0969980Y0022261D01*
X0969846Y0022386D01*
X0969714Y0022514D01*
X0969586Y0022646D01*
X0969461Y0022780D01*
X0969340Y0022918D01*
X0969222Y0023058D01*
X0969107Y0023201D01*
X0968996Y0023347D01*
X0968889Y0023496D01*
X0968785Y0023647D01*
X0968685Y0023801D01*
X0968588Y0023957D01*
X0968496Y0024116D01*
X0968408Y0024276D01*
X0968323Y0024439D01*
X0968243Y0024604D01*
X0968166Y0024771D01*
X0968094Y0024939D01*
X0968026Y0025110D01*
X0967962Y0025282D01*
X0967902Y0025455D01*
X0967847Y0025630D01*
X0967796Y0025806D01*
X0967749Y0025984D01*
X0967707Y0026162D01*
X0967669Y0026342D01*
X0967635Y0026522D01*
X0967606Y0026703D01*
X0967581Y0026885D01*
X0967561Y0027067D01*
X0967545Y0027250D01*
X0967534Y0027433D01*
X0967527Y0027617D01*
X0967525Y0027800D01*
X0967527Y0027983D01*
X0967534Y0028167D01*
X0967545Y0028350D01*
X0967561Y0028533D01*
X0967581Y0028715D01*
X0967606Y0028897D01*
X0967635Y0029078D01*
X0967669Y0029258D01*
X0967707Y0029438D01*
X0967749Y0029616D01*
X0967796Y0029794D01*
X0967847Y0029970D01*
X0967902Y0030145D01*
X0967962Y0030318D01*
X0968026Y0030490D01*
X0968094Y0030661D01*
X0968166Y0030829D01*
X0968243Y0030996D01*
X0968323Y0031161D01*
X0968408Y0031324D01*
X0968496Y0031484D01*
X0968588Y0031643D01*
X0968685Y0031799D01*
X0968785Y0031953D01*
X0968889Y0032104D01*
X0968996Y0032253D01*
X0969107Y0032399D01*
X0969222Y0032542D01*
X0969340Y0032682D01*
X0969461Y0032820D01*
X0969586Y0032954D01*
X0969714Y0033086D01*
X0969846Y0033214D01*
X0969980Y0033339D01*
X0970118Y0033460D01*
X0970258Y0033578D01*
X0970401Y0033693D01*
X0970547Y0033804D01*
X0970696Y0033911D01*
X0970847Y0034015D01*
X0971001Y0034115D01*
X0971157Y0034212D01*
X0971316Y0034304D01*
X0971476Y0034392D01*
X0971639Y0034477D01*
X0971804Y0034557D01*
X0971971Y0034634D01*
X0972139Y0034706D01*
X0972310Y0034774D01*
X0972482Y0034838D01*
X0972655Y0034898D01*
X0972830Y0034953D01*
X0973006Y0035004D01*
X0973184Y0035051D01*
X0973362Y0035093D01*
X0973542Y0035131D01*
X0973722Y0035165D01*
X0973903Y0035194D01*
X0974085Y0035219D01*
X0974267Y0035239D01*
X0974450Y0035255D01*
X0974633Y0035266D01*
X0974817Y0035273D01*
X0975000Y0035275D01*
X0975183Y0035273D01*
X0975367Y0035266D01*
X0975550Y0035255D01*
X0975733Y0035239D01*
X0975915Y0035219D01*
X0976097Y0035194D01*
X0976278Y0035165D01*
X0976458Y0035131D01*
X0976638Y0035093D01*
X0976816Y0035051D01*
X0976994Y0035004D01*
X0977170Y0034953D01*
X0977345Y0034898D01*
X0977518Y0034838D01*
X0977690Y0034774D01*
X0977861Y0034706D01*
X0978029Y0034634D01*
X0978196Y0034557D01*
X0978361Y0034477D01*
X0978524Y0034392D01*
X0978684Y0034304D01*
X0978843Y0034212D01*
X0978999Y0034115D01*
X0979153Y0034015D01*
X0979304Y0033911D01*
X0979453Y0033804D01*
X0979599Y0033693D01*
X0979742Y0033578D01*
X0979882Y0033460D01*
X0980020Y0033339D01*
X0980154Y0033214D01*
X0980286Y0033086D01*
X0980414Y0032954D01*
X0980539Y0032820D01*
X0980660Y0032682D01*
X0980778Y0032542D01*
X0980893Y0032399D01*
X0981004Y0032253D01*
X0981111Y0032104D01*
X0981215Y0031953D01*
X0981315Y0031799D01*
X0981412Y0031643D01*
X0981504Y0031484D01*
X0981592Y0031324D01*
X0981677Y0031161D01*
X0981757Y0030996D01*
X0981834Y0030829D01*
X0981906Y0030661D01*
X0981974Y0030490D01*
X0982038Y0030318D01*
X0982098Y0030145D01*
X0982153Y0029970D01*
X0982204Y0029794D01*
X0982251Y0029616D01*
X0982293Y0029438D01*
X0982331Y0029258D01*
X0982365Y0029078D01*
X0982394Y0028897D01*
X0982419Y0028715D01*
X0982439Y0028533D01*
X0982455Y0028350D01*
X0982466Y0028167D01*
X0982473Y0027983D01*
X0982475Y0027800D01*
X0982473Y0027617D01*
X0982466Y0027433D01*
X0982455Y0027250D01*
X0982439Y0027067D01*
X0982419Y0026885D01*
X0982394Y0026703D01*
X0982365Y0026522D01*
X0982331Y0026342D01*
X0982293Y0026162D01*
X0982251Y0025984D01*
X0982204Y0025806D01*
X0982153Y0025630D01*
X0982098Y0025455D01*
X0982038Y0025282D01*
X0981974Y0025110D01*
X0981906Y0024939D01*
X0981834Y0024771D01*
X0981757Y0024604D01*
X0981677Y0024439D01*
X0981592Y0024276D01*
X0981504Y0024116D01*
X0981412Y0023957D01*
X0981315Y0023801D01*
X0981215Y0023647D01*
X0981111Y0023496D01*
X0981004Y0023347D01*
X0980893Y0023201D01*
X0980778Y0023058D01*
X0980660Y0022918D01*
X0980539Y0022780D01*
X0980414Y0022646D01*
X0980286Y0022514D01*
X0980154Y0022386D01*
X0980020Y0022261D01*
X0979882Y0022140D01*
X0979742Y0022022D01*
X0979599Y0021907D01*
X0979453Y0021796D01*
X0979304Y0021689D01*
X0979153Y0021585D01*
X0978999Y0021485D01*
X0978843Y0021388D01*
X0978684Y0021296D01*
X0978524Y0021208D01*
X0978361Y0021123D01*
X0978196Y0021043D01*
X0978029Y0020966D01*
X0977861Y0020894D01*
X0977690Y0020826D01*
X0977518Y0020762D01*
X0977345Y0020702D01*
X0977170Y0020647D01*
X0976994Y0020596D01*
X0976816Y0020549D01*
X0976638Y0020507D01*
X0976458Y0020469D01*
X0976278Y0020435D01*
X0976097Y0020406D01*
X0975915Y0020381D01*
X0975733Y0020361D01*
X0975550Y0020345D01*
X0975367Y0020334D01*
X0975183Y0020327D01*
X0975000Y0020325D01*
X0974817Y0020327D01*
X0974633Y0020334D01*
X0974450Y0020345D01*
X0974267Y0020361D01*
X0974085Y0020381D01*
X0973903Y0020406D01*
X0973722Y0020435D01*
X0973542Y0020469D01*
X0973362Y0020507D01*
X0973184Y0020549D01*
X0973006Y0020596D01*
X0972830Y0020647D01*
X0972655Y0020702D01*
X0972482Y0020762D01*
X0972310Y0020826D01*
X0972139Y0020894D01*
X0971971Y0020966D01*
X0971804Y0021043D01*
X0971639Y0021123D01*
X0971476Y0021208D01*
X0971316Y0021296D01*
X0971157Y0021388D01*
X0971001Y0021485D01*
X0970847Y0021585D01*
X0970696Y0021689D01*
X0970547Y0021796D01*
X0970401Y0021907D01*
X0970258Y0022022D01*
X0970118Y0022140D01*
X0969980Y0022261D01*
X0969846Y0022386D01*
X0969714Y0022514D01*
X0969586Y0022646D01*
X0969461Y0022780D01*
X0969340Y0022918D01*
X0969222Y0023058D01*
X0969107Y0023201D01*
X0968996Y0023347D01*
X0968889Y0023496D01*
X0968785Y0023647D01*
X0968685Y0023801D01*
X0968588Y0023957D01*
X0968496Y0024116D01*
X0968408Y0024276D01*
X0968323Y0024439D01*
X0968243Y0024604D01*
X0968166Y0024771D01*
X0968094Y0024939D01*
X0968026Y0025110D01*
X0967962Y0025282D01*
X0967902Y0025455D01*
X0967847Y0025630D01*
X0967796Y0025806D01*
X0967749Y0025984D01*
X0967707Y0026162D01*
X0967669Y0026342D01*
X0967635Y0026522D01*
X0967606Y0026703D01*
X0967581Y0026885D01*
X0967561Y0027067D01*
X0967545Y0027250D01*
X0967534Y0027433D01*
X0967527Y0027617D01*
X0967525Y0027800D01*
X0967525Y0402800D02*
X0967527Y0402983D01*
X0967534Y0403167D01*
X0967545Y0403350D01*
X0967561Y0403533D01*
X0967581Y0403715D01*
X0967606Y0403897D01*
X0967635Y0404078D01*
X0967669Y0404258D01*
X0967707Y0404438D01*
X0967749Y0404616D01*
X0967796Y0404794D01*
X0967847Y0404970D01*
X0967902Y0405145D01*
X0967962Y0405318D01*
X0968026Y0405490D01*
X0968094Y0405661D01*
X0968166Y0405829D01*
X0968243Y0405996D01*
X0968323Y0406161D01*
X0968408Y0406324D01*
X0968496Y0406484D01*
X0968588Y0406643D01*
X0968685Y0406799D01*
X0968785Y0406953D01*
X0968889Y0407104D01*
X0968996Y0407253D01*
X0969107Y0407399D01*
X0969222Y0407542D01*
X0969340Y0407682D01*
X0969461Y0407820D01*
X0969586Y0407954D01*
X0969714Y0408086D01*
X0969846Y0408214D01*
X0969980Y0408339D01*
X0970118Y0408460D01*
X0970258Y0408578D01*
X0970401Y0408693D01*
X0970547Y0408804D01*
X0970696Y0408911D01*
X0970847Y0409015D01*
X0971001Y0409115D01*
X0971157Y0409212D01*
X0971316Y0409304D01*
X0971476Y0409392D01*
X0971639Y0409477D01*
X0971804Y0409557D01*
X0971971Y0409634D01*
X0972139Y0409706D01*
X0972310Y0409774D01*
X0972482Y0409838D01*
X0972655Y0409898D01*
X0972830Y0409953D01*
X0973006Y0410004D01*
X0973184Y0410051D01*
X0973362Y0410093D01*
X0973542Y0410131D01*
X0973722Y0410165D01*
X0973903Y0410194D01*
X0974085Y0410219D01*
X0974267Y0410239D01*
X0974450Y0410255D01*
X0974633Y0410266D01*
X0974817Y0410273D01*
X0975000Y0410275D01*
X0975183Y0410273D01*
X0975367Y0410266D01*
X0975550Y0410255D01*
X0975733Y0410239D01*
X0975915Y0410219D01*
X0976097Y0410194D01*
X0976278Y0410165D01*
X0976458Y0410131D01*
X0976638Y0410093D01*
X0976816Y0410051D01*
X0976994Y0410004D01*
X0977170Y0409953D01*
X0977345Y0409898D01*
X0977518Y0409838D01*
X0977690Y0409774D01*
X0977861Y0409706D01*
X0978029Y0409634D01*
X0978196Y0409557D01*
X0978361Y0409477D01*
X0978524Y0409392D01*
X0978684Y0409304D01*
X0978843Y0409212D01*
X0978999Y0409115D01*
X0979153Y0409015D01*
X0979304Y0408911D01*
X0979453Y0408804D01*
X0979599Y0408693D01*
X0979742Y0408578D01*
X0979882Y0408460D01*
X0980020Y0408339D01*
X0980154Y0408214D01*
X0980286Y0408086D01*
X0980414Y0407954D01*
X0980539Y0407820D01*
X0980660Y0407682D01*
X0980778Y0407542D01*
X0980893Y0407399D01*
X0981004Y0407253D01*
X0981111Y0407104D01*
X0981215Y0406953D01*
X0981315Y0406799D01*
X0981412Y0406643D01*
X0981504Y0406484D01*
X0981592Y0406324D01*
X0981677Y0406161D01*
X0981757Y0405996D01*
X0981834Y0405829D01*
X0981906Y0405661D01*
X0981974Y0405490D01*
X0982038Y0405318D01*
X0982098Y0405145D01*
X0982153Y0404970D01*
X0982204Y0404794D01*
X0982251Y0404616D01*
X0982293Y0404438D01*
X0982331Y0404258D01*
X0982365Y0404078D01*
X0982394Y0403897D01*
X0982419Y0403715D01*
X0982439Y0403533D01*
X0982455Y0403350D01*
X0982466Y0403167D01*
X0982473Y0402983D01*
X0982475Y0402800D01*
X0982473Y0402617D01*
X0982466Y0402433D01*
X0982455Y0402250D01*
X0982439Y0402067D01*
X0982419Y0401885D01*
X0982394Y0401703D01*
X0982365Y0401522D01*
X0982331Y0401342D01*
X0982293Y0401162D01*
X0982251Y0400984D01*
X0982204Y0400806D01*
X0982153Y0400630D01*
X0982098Y0400455D01*
X0982038Y0400282D01*
X0981974Y0400110D01*
X0981906Y0399939D01*
X0981834Y0399771D01*
X0981757Y0399604D01*
X0981677Y0399439D01*
X0981592Y0399276D01*
X0981504Y0399116D01*
X0981412Y0398957D01*
X0981315Y0398801D01*
X0981215Y0398647D01*
X0981111Y0398496D01*
X0981004Y0398347D01*
X0980893Y0398201D01*
X0980778Y0398058D01*
X0980660Y0397918D01*
X0980539Y0397780D01*
X0980414Y0397646D01*
X0980286Y0397514D01*
X0980154Y0397386D01*
X0980020Y0397261D01*
X0979882Y0397140D01*
X0979742Y0397022D01*
X0979599Y0396907D01*
X0979453Y0396796D01*
X0979304Y0396689D01*
X0979153Y0396585D01*
X0978999Y0396485D01*
X0978843Y0396388D01*
X0978684Y0396296D01*
X0978524Y0396208D01*
X0978361Y0396123D01*
X0978196Y0396043D01*
X0978029Y0395966D01*
X0977861Y0395894D01*
X0977690Y0395826D01*
X0977518Y0395762D01*
X0977345Y0395702D01*
X0977170Y0395647D01*
X0976994Y0395596D01*
X0976816Y0395549D01*
X0976638Y0395507D01*
X0976458Y0395469D01*
X0976278Y0395435D01*
X0976097Y0395406D01*
X0975915Y0395381D01*
X0975733Y0395361D01*
X0975550Y0395345D01*
X0975367Y0395334D01*
X0975183Y0395327D01*
X0975000Y0395325D01*
X0974817Y0395327D01*
X0974633Y0395334D01*
X0974450Y0395345D01*
X0974267Y0395361D01*
X0974085Y0395381D01*
X0973903Y0395406D01*
X0973722Y0395435D01*
X0973542Y0395469D01*
X0973362Y0395507D01*
X0973184Y0395549D01*
X0973006Y0395596D01*
X0972830Y0395647D01*
X0972655Y0395702D01*
X0972482Y0395762D01*
X0972310Y0395826D01*
X0972139Y0395894D01*
X0971971Y0395966D01*
X0971804Y0396043D01*
X0971639Y0396123D01*
X0971476Y0396208D01*
X0971316Y0396296D01*
X0971157Y0396388D01*
X0971001Y0396485D01*
X0970847Y0396585D01*
X0970696Y0396689D01*
X0970547Y0396796D01*
X0970401Y0396907D01*
X0970258Y0397022D01*
X0970118Y0397140D01*
X0969980Y0397261D01*
X0969846Y0397386D01*
X0969714Y0397514D01*
X0969586Y0397646D01*
X0969461Y0397780D01*
X0969340Y0397918D01*
X0969222Y0398058D01*
X0969107Y0398201D01*
X0968996Y0398347D01*
X0968889Y0398496D01*
X0968785Y0398647D01*
X0968685Y0398801D01*
X0968588Y0398957D01*
X0968496Y0399116D01*
X0968408Y0399276D01*
X0968323Y0399439D01*
X0968243Y0399604D01*
X0968166Y0399771D01*
X0968094Y0399939D01*
X0968026Y0400110D01*
X0967962Y0400282D01*
X0967902Y0400455D01*
X0967847Y0400630D01*
X0967796Y0400806D01*
X0967749Y0400984D01*
X0967707Y0401162D01*
X0967669Y0401342D01*
X0967635Y0401522D01*
X0967606Y0401703D01*
X0967581Y0401885D01*
X0967561Y0402067D01*
X0967545Y0402250D01*
X0967534Y0402433D01*
X0967527Y0402617D01*
X0967525Y0402800D01*
X0967527Y0402983D01*
X0967534Y0403167D01*
X0967545Y0403350D01*
X0967561Y0403533D01*
X0967581Y0403715D01*
X0967606Y0403897D01*
X0967635Y0404078D01*
X0967669Y0404258D01*
X0967707Y0404438D01*
X0967749Y0404616D01*
X0967796Y0404794D01*
X0967847Y0404970D01*
X0967902Y0405145D01*
X0967962Y0405318D01*
X0968026Y0405490D01*
X0968094Y0405661D01*
X0968166Y0405829D01*
X0968243Y0405996D01*
X0968323Y0406161D01*
X0968408Y0406324D01*
X0968496Y0406484D01*
X0968588Y0406643D01*
X0968685Y0406799D01*
X0968785Y0406953D01*
X0968889Y0407104D01*
X0968996Y0407253D01*
X0969107Y0407399D01*
X0969222Y0407542D01*
X0969340Y0407682D01*
X0969461Y0407820D01*
X0969586Y0407954D01*
X0969714Y0408086D01*
X0969846Y0408214D01*
X0969980Y0408339D01*
X0970118Y0408460D01*
X0970258Y0408578D01*
X0970401Y0408693D01*
X0970547Y0408804D01*
X0970696Y0408911D01*
X0970847Y0409015D01*
X0971001Y0409115D01*
X0971157Y0409212D01*
X0971316Y0409304D01*
X0971476Y0409392D01*
X0971639Y0409477D01*
X0971804Y0409557D01*
X0971971Y0409634D01*
X0972139Y0409706D01*
X0972310Y0409774D01*
X0972482Y0409838D01*
X0972655Y0409898D01*
X0972830Y0409953D01*
X0973006Y0410004D01*
X0973184Y0410051D01*
X0973362Y0410093D01*
X0973542Y0410131D01*
X0973722Y0410165D01*
X0973903Y0410194D01*
X0974085Y0410219D01*
X0974267Y0410239D01*
X0974450Y0410255D01*
X0974633Y0410266D01*
X0974817Y0410273D01*
X0975000Y0410275D01*
X0975183Y0410273D01*
X0975367Y0410266D01*
X0975550Y0410255D01*
X0975733Y0410239D01*
X0975915Y0410219D01*
X0976097Y0410194D01*
X0976278Y0410165D01*
X0976458Y0410131D01*
X0976638Y0410093D01*
X0976816Y0410051D01*
X0976994Y0410004D01*
X0977170Y0409953D01*
X0977345Y0409898D01*
X0977518Y0409838D01*
X0977690Y0409774D01*
X0977861Y0409706D01*
X0978029Y0409634D01*
X0978196Y0409557D01*
X0978361Y0409477D01*
X0978524Y0409392D01*
X0978684Y0409304D01*
X0978843Y0409212D01*
X0978999Y0409115D01*
X0979153Y0409015D01*
X0979304Y0408911D01*
X0979453Y0408804D01*
X0979599Y0408693D01*
X0979742Y0408578D01*
X0979882Y0408460D01*
X0980020Y0408339D01*
X0980154Y0408214D01*
X0980286Y0408086D01*
X0980414Y0407954D01*
X0980539Y0407820D01*
X0980660Y0407682D01*
X0980778Y0407542D01*
X0980893Y0407399D01*
X0981004Y0407253D01*
X0981111Y0407104D01*
X0981215Y0406953D01*
X0981315Y0406799D01*
X0981412Y0406643D01*
X0981504Y0406484D01*
X0981592Y0406324D01*
X0981677Y0406161D01*
X0981757Y0405996D01*
X0981834Y0405829D01*
X0981906Y0405661D01*
X0981974Y0405490D01*
X0982038Y0405318D01*
X0982098Y0405145D01*
X0982153Y0404970D01*
X0982204Y0404794D01*
X0982251Y0404616D01*
X0982293Y0404438D01*
X0982331Y0404258D01*
X0982365Y0404078D01*
X0982394Y0403897D01*
X0982419Y0403715D01*
X0982439Y0403533D01*
X0982455Y0403350D01*
X0982466Y0403167D01*
X0982473Y0402983D01*
X0982475Y0402800D01*
X0982473Y0402617D01*
X0982466Y0402433D01*
X0982455Y0402250D01*
X0982439Y0402067D01*
X0982419Y0401885D01*
X0982394Y0401703D01*
X0982365Y0401522D01*
X0982331Y0401342D01*
X0982293Y0401162D01*
X0982251Y0400984D01*
X0982204Y0400806D01*
X0982153Y0400630D01*
X0982098Y0400455D01*
X0982038Y0400282D01*
X0981974Y0400110D01*
X0981906Y0399939D01*
X0981834Y0399771D01*
X0981757Y0399604D01*
X0981677Y0399439D01*
X0981592Y0399276D01*
X0981504Y0399116D01*
X0981412Y0398957D01*
X0981315Y0398801D01*
X0981215Y0398647D01*
X0981111Y0398496D01*
X0981004Y0398347D01*
X0980893Y0398201D01*
X0980778Y0398058D01*
X0980660Y0397918D01*
X0980539Y0397780D01*
X0980414Y0397646D01*
X0980286Y0397514D01*
X0980154Y0397386D01*
X0980020Y0397261D01*
X0979882Y0397140D01*
X0979742Y0397022D01*
X0979599Y0396907D01*
X0979453Y0396796D01*
X0979304Y0396689D01*
X0979153Y0396585D01*
X0978999Y0396485D01*
X0978843Y0396388D01*
X0978684Y0396296D01*
X0978524Y0396208D01*
X0978361Y0396123D01*
X0978196Y0396043D01*
X0978029Y0395966D01*
X0977861Y0395894D01*
X0977690Y0395826D01*
X0977518Y0395762D01*
X0977345Y0395702D01*
X0977170Y0395647D01*
X0976994Y0395596D01*
X0976816Y0395549D01*
X0976638Y0395507D01*
X0976458Y0395469D01*
X0976278Y0395435D01*
X0976097Y0395406D01*
X0975915Y0395381D01*
X0975733Y0395361D01*
X0975550Y0395345D01*
X0975367Y0395334D01*
X0975183Y0395327D01*
X0975000Y0395325D01*
X0974817Y0395327D01*
X0974633Y0395334D01*
X0974450Y0395345D01*
X0974267Y0395361D01*
X0974085Y0395381D01*
X0973903Y0395406D01*
X0973722Y0395435D01*
X0973542Y0395469D01*
X0973362Y0395507D01*
X0973184Y0395549D01*
X0973006Y0395596D01*
X0972830Y0395647D01*
X0972655Y0395702D01*
X0972482Y0395762D01*
X0972310Y0395826D01*
X0972139Y0395894D01*
X0971971Y0395966D01*
X0971804Y0396043D01*
X0971639Y0396123D01*
X0971476Y0396208D01*
X0971316Y0396296D01*
X0971157Y0396388D01*
X0971001Y0396485D01*
X0970847Y0396585D01*
X0970696Y0396689D01*
X0970547Y0396796D01*
X0970401Y0396907D01*
X0970258Y0397022D01*
X0970118Y0397140D01*
X0969980Y0397261D01*
X0969846Y0397386D01*
X0969714Y0397514D01*
X0969586Y0397646D01*
X0969461Y0397780D01*
X0969340Y0397918D01*
X0969222Y0398058D01*
X0969107Y0398201D01*
X0968996Y0398347D01*
X0968889Y0398496D01*
X0968785Y0398647D01*
X0968685Y0398801D01*
X0968588Y0398957D01*
X0968496Y0399116D01*
X0968408Y0399276D01*
X0968323Y0399439D01*
X0968243Y0399604D01*
X0968166Y0399771D01*
X0968094Y0399939D01*
X0968026Y0400110D01*
X0967962Y0400282D01*
X0967902Y0400455D01*
X0967847Y0400630D01*
X0967796Y0400806D01*
X0967749Y0400984D01*
X0967707Y0401162D01*
X0967669Y0401342D01*
X0967635Y0401522D01*
X0967606Y0401703D01*
X0967581Y0401885D01*
X0967561Y0402067D01*
X0967545Y0402250D01*
X0967534Y0402433D01*
X0967527Y0402617D01*
X0967525Y0402800D01*
X0623525Y0402800D02*
X0623527Y0402983D01*
X0623534Y0403167D01*
X0623545Y0403350D01*
X0623561Y0403533D01*
X0623581Y0403715D01*
X0623606Y0403897D01*
X0623635Y0404078D01*
X0623669Y0404258D01*
X0623707Y0404438D01*
X0623749Y0404616D01*
X0623796Y0404794D01*
X0623847Y0404970D01*
X0623902Y0405145D01*
X0623962Y0405318D01*
X0624026Y0405490D01*
X0624094Y0405661D01*
X0624166Y0405829D01*
X0624243Y0405996D01*
X0624323Y0406161D01*
X0624408Y0406324D01*
X0624496Y0406484D01*
X0624588Y0406643D01*
X0624685Y0406799D01*
X0624785Y0406953D01*
X0624889Y0407104D01*
X0624996Y0407253D01*
X0625107Y0407399D01*
X0625222Y0407542D01*
X0625340Y0407682D01*
X0625461Y0407820D01*
X0625586Y0407954D01*
X0625714Y0408086D01*
X0625846Y0408214D01*
X0625980Y0408339D01*
X0626118Y0408460D01*
X0626258Y0408578D01*
X0626401Y0408693D01*
X0626547Y0408804D01*
X0626696Y0408911D01*
X0626847Y0409015D01*
X0627001Y0409115D01*
X0627157Y0409212D01*
X0627316Y0409304D01*
X0627476Y0409392D01*
X0627639Y0409477D01*
X0627804Y0409557D01*
X0627971Y0409634D01*
X0628139Y0409706D01*
X0628310Y0409774D01*
X0628482Y0409838D01*
X0628655Y0409898D01*
X0628830Y0409953D01*
X0629006Y0410004D01*
X0629184Y0410051D01*
X0629362Y0410093D01*
X0629542Y0410131D01*
X0629722Y0410165D01*
X0629903Y0410194D01*
X0630085Y0410219D01*
X0630267Y0410239D01*
X0630450Y0410255D01*
X0630633Y0410266D01*
X0630817Y0410273D01*
X0631000Y0410275D01*
X0631183Y0410273D01*
X0631367Y0410266D01*
X0631550Y0410255D01*
X0631733Y0410239D01*
X0631915Y0410219D01*
X0632097Y0410194D01*
X0632278Y0410165D01*
X0632458Y0410131D01*
X0632638Y0410093D01*
X0632816Y0410051D01*
X0632994Y0410004D01*
X0633170Y0409953D01*
X0633345Y0409898D01*
X0633518Y0409838D01*
X0633690Y0409774D01*
X0633861Y0409706D01*
X0634029Y0409634D01*
X0634196Y0409557D01*
X0634361Y0409477D01*
X0634524Y0409392D01*
X0634684Y0409304D01*
X0634843Y0409212D01*
X0634999Y0409115D01*
X0635153Y0409015D01*
X0635304Y0408911D01*
X0635453Y0408804D01*
X0635599Y0408693D01*
X0635742Y0408578D01*
X0635882Y0408460D01*
X0636020Y0408339D01*
X0636154Y0408214D01*
X0636286Y0408086D01*
X0636414Y0407954D01*
X0636539Y0407820D01*
X0636660Y0407682D01*
X0636778Y0407542D01*
X0636893Y0407399D01*
X0637004Y0407253D01*
X0637111Y0407104D01*
X0637215Y0406953D01*
X0637315Y0406799D01*
X0637412Y0406643D01*
X0637504Y0406484D01*
X0637592Y0406324D01*
X0637677Y0406161D01*
X0637757Y0405996D01*
X0637834Y0405829D01*
X0637906Y0405661D01*
X0637974Y0405490D01*
X0638038Y0405318D01*
X0638098Y0405145D01*
X0638153Y0404970D01*
X0638204Y0404794D01*
X0638251Y0404616D01*
X0638293Y0404438D01*
X0638331Y0404258D01*
X0638365Y0404078D01*
X0638394Y0403897D01*
X0638419Y0403715D01*
X0638439Y0403533D01*
X0638455Y0403350D01*
X0638466Y0403167D01*
X0638473Y0402983D01*
X0638475Y0402800D01*
X0638473Y0402617D01*
X0638466Y0402433D01*
X0638455Y0402250D01*
X0638439Y0402067D01*
X0638419Y0401885D01*
X0638394Y0401703D01*
X0638365Y0401522D01*
X0638331Y0401342D01*
X0638293Y0401162D01*
X0638251Y0400984D01*
X0638204Y0400806D01*
X0638153Y0400630D01*
X0638098Y0400455D01*
X0638038Y0400282D01*
X0637974Y0400110D01*
X0637906Y0399939D01*
X0637834Y0399771D01*
X0637757Y0399604D01*
X0637677Y0399439D01*
X0637592Y0399276D01*
X0637504Y0399116D01*
X0637412Y0398957D01*
X0637315Y0398801D01*
X0637215Y0398647D01*
X0637111Y0398496D01*
X0637004Y0398347D01*
X0636893Y0398201D01*
X0636778Y0398058D01*
X0636660Y0397918D01*
X0636539Y0397780D01*
X0636414Y0397646D01*
X0636286Y0397514D01*
X0636154Y0397386D01*
X0636020Y0397261D01*
X0635882Y0397140D01*
X0635742Y0397022D01*
X0635599Y0396907D01*
X0635453Y0396796D01*
X0635304Y0396689D01*
X0635153Y0396585D01*
X0634999Y0396485D01*
X0634843Y0396388D01*
X0634684Y0396296D01*
X0634524Y0396208D01*
X0634361Y0396123D01*
X0634196Y0396043D01*
X0634029Y0395966D01*
X0633861Y0395894D01*
X0633690Y0395826D01*
X0633518Y0395762D01*
X0633345Y0395702D01*
X0633170Y0395647D01*
X0632994Y0395596D01*
X0632816Y0395549D01*
X0632638Y0395507D01*
X0632458Y0395469D01*
X0632278Y0395435D01*
X0632097Y0395406D01*
X0631915Y0395381D01*
X0631733Y0395361D01*
X0631550Y0395345D01*
X0631367Y0395334D01*
X0631183Y0395327D01*
X0631000Y0395325D01*
X0630817Y0395327D01*
X0630633Y0395334D01*
X0630450Y0395345D01*
X0630267Y0395361D01*
X0630085Y0395381D01*
X0629903Y0395406D01*
X0629722Y0395435D01*
X0629542Y0395469D01*
X0629362Y0395507D01*
X0629184Y0395549D01*
X0629006Y0395596D01*
X0628830Y0395647D01*
X0628655Y0395702D01*
X0628482Y0395762D01*
X0628310Y0395826D01*
X0628139Y0395894D01*
X0627971Y0395966D01*
X0627804Y0396043D01*
X0627639Y0396123D01*
X0627476Y0396208D01*
X0627316Y0396296D01*
X0627157Y0396388D01*
X0627001Y0396485D01*
X0626847Y0396585D01*
X0626696Y0396689D01*
X0626547Y0396796D01*
X0626401Y0396907D01*
X0626258Y0397022D01*
X0626118Y0397140D01*
X0625980Y0397261D01*
X0625846Y0397386D01*
X0625714Y0397514D01*
X0625586Y0397646D01*
X0625461Y0397780D01*
X0625340Y0397918D01*
X0625222Y0398058D01*
X0625107Y0398201D01*
X0624996Y0398347D01*
X0624889Y0398496D01*
X0624785Y0398647D01*
X0624685Y0398801D01*
X0624588Y0398957D01*
X0624496Y0399116D01*
X0624408Y0399276D01*
X0624323Y0399439D01*
X0624243Y0399604D01*
X0624166Y0399771D01*
X0624094Y0399939D01*
X0624026Y0400110D01*
X0623962Y0400282D01*
X0623902Y0400455D01*
X0623847Y0400630D01*
X0623796Y0400806D01*
X0623749Y0400984D01*
X0623707Y0401162D01*
X0623669Y0401342D01*
X0623635Y0401522D01*
X0623606Y0401703D01*
X0623581Y0401885D01*
X0623561Y0402067D01*
X0623545Y0402250D01*
X0623534Y0402433D01*
X0623527Y0402617D01*
X0623525Y0402800D01*
X0623527Y0402983D01*
X0623534Y0403167D01*
X0623545Y0403350D01*
X0623561Y0403533D01*
X0623581Y0403715D01*
X0623606Y0403897D01*
X0623635Y0404078D01*
X0623669Y0404258D01*
X0623707Y0404438D01*
X0623749Y0404616D01*
X0623796Y0404794D01*
X0623847Y0404970D01*
X0623902Y0405145D01*
X0623962Y0405318D01*
X0624026Y0405490D01*
X0624094Y0405661D01*
X0624166Y0405829D01*
X0624243Y0405996D01*
X0624323Y0406161D01*
X0624408Y0406324D01*
X0624496Y0406484D01*
X0624588Y0406643D01*
X0624685Y0406799D01*
X0624785Y0406953D01*
X0624889Y0407104D01*
X0624996Y0407253D01*
X0625107Y0407399D01*
X0625222Y0407542D01*
X0625340Y0407682D01*
X0625461Y0407820D01*
X0625586Y0407954D01*
X0625714Y0408086D01*
X0625846Y0408214D01*
X0625980Y0408339D01*
X0626118Y0408460D01*
X0626258Y0408578D01*
X0626401Y0408693D01*
X0626547Y0408804D01*
X0626696Y0408911D01*
X0626847Y0409015D01*
X0627001Y0409115D01*
X0627157Y0409212D01*
X0627316Y0409304D01*
X0627476Y0409392D01*
X0627639Y0409477D01*
X0627804Y0409557D01*
X0627971Y0409634D01*
X0628139Y0409706D01*
X0628310Y0409774D01*
X0628482Y0409838D01*
X0628655Y0409898D01*
X0628830Y0409953D01*
X0629006Y0410004D01*
X0629184Y0410051D01*
X0629362Y0410093D01*
X0629542Y0410131D01*
X0629722Y0410165D01*
X0629903Y0410194D01*
X0630085Y0410219D01*
X0630267Y0410239D01*
X0630450Y0410255D01*
X0630633Y0410266D01*
X0630817Y0410273D01*
X0631000Y0410275D01*
X0631183Y0410273D01*
X0631367Y0410266D01*
X0631550Y0410255D01*
X0631733Y0410239D01*
X0631915Y0410219D01*
X0632097Y0410194D01*
X0632278Y0410165D01*
X0632458Y0410131D01*
X0632638Y0410093D01*
X0632816Y0410051D01*
X0632994Y0410004D01*
X0633170Y0409953D01*
X0633345Y0409898D01*
X0633518Y0409838D01*
X0633690Y0409774D01*
X0633861Y0409706D01*
X0634029Y0409634D01*
X0634196Y0409557D01*
X0634361Y0409477D01*
X0634524Y0409392D01*
X0634684Y0409304D01*
X0634843Y0409212D01*
X0634999Y0409115D01*
X0635153Y0409015D01*
X0635304Y0408911D01*
X0635453Y0408804D01*
X0635599Y0408693D01*
X0635742Y0408578D01*
X0635882Y0408460D01*
X0636020Y0408339D01*
X0636154Y0408214D01*
X0636286Y0408086D01*
X0636414Y0407954D01*
X0636539Y0407820D01*
X0636660Y0407682D01*
X0636778Y0407542D01*
X0636893Y0407399D01*
X0637004Y0407253D01*
X0637111Y0407104D01*
X0637215Y0406953D01*
X0637315Y0406799D01*
X0637412Y0406643D01*
X0637504Y0406484D01*
X0637592Y0406324D01*
X0637677Y0406161D01*
X0637757Y0405996D01*
X0637834Y0405829D01*
X0637906Y0405661D01*
X0637974Y0405490D01*
X0638038Y0405318D01*
X0638098Y0405145D01*
X0638153Y0404970D01*
X0638204Y0404794D01*
X0638251Y0404616D01*
X0638293Y0404438D01*
X0638331Y0404258D01*
X0638365Y0404078D01*
X0638394Y0403897D01*
X0638419Y0403715D01*
X0638439Y0403533D01*
X0638455Y0403350D01*
X0638466Y0403167D01*
X0638473Y0402983D01*
X0638475Y0402800D01*
X0638473Y0402617D01*
X0638466Y0402433D01*
X0638455Y0402250D01*
X0638439Y0402067D01*
X0638419Y0401885D01*
X0638394Y0401703D01*
X0638365Y0401522D01*
X0638331Y0401342D01*
X0638293Y0401162D01*
X0638251Y0400984D01*
X0638204Y0400806D01*
X0638153Y0400630D01*
X0638098Y0400455D01*
X0638038Y0400282D01*
X0637974Y0400110D01*
X0637906Y0399939D01*
X0637834Y0399771D01*
X0637757Y0399604D01*
X0637677Y0399439D01*
X0637592Y0399276D01*
X0637504Y0399116D01*
X0637412Y0398957D01*
X0637315Y0398801D01*
X0637215Y0398647D01*
X0637111Y0398496D01*
X0637004Y0398347D01*
X0636893Y0398201D01*
X0636778Y0398058D01*
X0636660Y0397918D01*
X0636539Y0397780D01*
X0636414Y0397646D01*
X0636286Y0397514D01*
X0636154Y0397386D01*
X0636020Y0397261D01*
X0635882Y0397140D01*
X0635742Y0397022D01*
X0635599Y0396907D01*
X0635453Y0396796D01*
X0635304Y0396689D01*
X0635153Y0396585D01*
X0634999Y0396485D01*
X0634843Y0396388D01*
X0634684Y0396296D01*
X0634524Y0396208D01*
X0634361Y0396123D01*
X0634196Y0396043D01*
X0634029Y0395966D01*
X0633861Y0395894D01*
X0633690Y0395826D01*
X0633518Y0395762D01*
X0633345Y0395702D01*
X0633170Y0395647D01*
X0632994Y0395596D01*
X0632816Y0395549D01*
X0632638Y0395507D01*
X0632458Y0395469D01*
X0632278Y0395435D01*
X0632097Y0395406D01*
X0631915Y0395381D01*
X0631733Y0395361D01*
X0631550Y0395345D01*
X0631367Y0395334D01*
X0631183Y0395327D01*
X0631000Y0395325D01*
X0630817Y0395327D01*
X0630633Y0395334D01*
X0630450Y0395345D01*
X0630267Y0395361D01*
X0630085Y0395381D01*
X0629903Y0395406D01*
X0629722Y0395435D01*
X0629542Y0395469D01*
X0629362Y0395507D01*
X0629184Y0395549D01*
X0629006Y0395596D01*
X0628830Y0395647D01*
X0628655Y0395702D01*
X0628482Y0395762D01*
X0628310Y0395826D01*
X0628139Y0395894D01*
X0627971Y0395966D01*
X0627804Y0396043D01*
X0627639Y0396123D01*
X0627476Y0396208D01*
X0627316Y0396296D01*
X0627157Y0396388D01*
X0627001Y0396485D01*
X0626847Y0396585D01*
X0626696Y0396689D01*
X0626547Y0396796D01*
X0626401Y0396907D01*
X0626258Y0397022D01*
X0626118Y0397140D01*
X0625980Y0397261D01*
X0625846Y0397386D01*
X0625714Y0397514D01*
X0625586Y0397646D01*
X0625461Y0397780D01*
X0625340Y0397918D01*
X0625222Y0398058D01*
X0625107Y0398201D01*
X0624996Y0398347D01*
X0624889Y0398496D01*
X0624785Y0398647D01*
X0624685Y0398801D01*
X0624588Y0398957D01*
X0624496Y0399116D01*
X0624408Y0399276D01*
X0624323Y0399439D01*
X0624243Y0399604D01*
X0624166Y0399771D01*
X0624094Y0399939D01*
X0624026Y0400110D01*
X0623962Y0400282D01*
X0623902Y0400455D01*
X0623847Y0400630D01*
X0623796Y0400806D01*
X0623749Y0400984D01*
X0623707Y0401162D01*
X0623669Y0401342D01*
X0623635Y0401522D01*
X0623606Y0401703D01*
X0623581Y0401885D01*
X0623561Y0402067D01*
X0623545Y0402250D01*
X0623534Y0402433D01*
X0623527Y0402617D01*
X0623525Y0402800D01*
X0569701Y0577800D02*
X0569703Y0577958D01*
X0569709Y0578116D01*
X0569719Y0578274D01*
X0569733Y0578432D01*
X0569751Y0578589D01*
X0569772Y0578746D01*
X0569798Y0578902D01*
X0569828Y0579058D01*
X0569861Y0579213D01*
X0569899Y0579366D01*
X0569940Y0579519D01*
X0569985Y0579671D01*
X0570034Y0579822D01*
X0570087Y0579971D01*
X0570143Y0580119D01*
X0570203Y0580265D01*
X0570267Y0580410D01*
X0570335Y0580553D01*
X0570406Y0580695D01*
X0570480Y0580835D01*
X0570558Y0580972D01*
X0570640Y0581108D01*
X0570724Y0581242D01*
X0570813Y0581373D01*
X0570904Y0581502D01*
X0570999Y0581629D01*
X0571096Y0581754D01*
X0571197Y0581876D01*
X0571301Y0581995D01*
X0571408Y0582112D01*
X0571518Y0582226D01*
X0571631Y0582337D01*
X0571746Y0582446D01*
X0571864Y0582551D01*
X0571985Y0582653D01*
X0572108Y0582753D01*
X0572234Y0582849D01*
X0572362Y0582942D01*
X0572492Y0583032D01*
X0572625Y0583118D01*
X0572760Y0583202D01*
X0572896Y0583281D01*
X0573035Y0583358D01*
X0573176Y0583430D01*
X0573318Y0583500D01*
X0573462Y0583565D01*
X0573608Y0583627D01*
X0573755Y0583685D01*
X0573904Y0583740D01*
X0574054Y0583791D01*
X0574205Y0583838D01*
X0574357Y0583881D01*
X0574510Y0583920D01*
X0574665Y0583956D01*
X0574820Y0583987D01*
X0574976Y0584015D01*
X0575132Y0584039D01*
X0575289Y0584059D01*
X0575447Y0584075D01*
X0575604Y0584087D01*
X0575763Y0584095D01*
X0575921Y0584099D01*
X0576079Y0584099D01*
X0576237Y0584095D01*
X0576396Y0584087D01*
X0576553Y0584075D01*
X0576711Y0584059D01*
X0576868Y0584039D01*
X0577024Y0584015D01*
X0577180Y0583987D01*
X0577335Y0583956D01*
X0577490Y0583920D01*
X0577643Y0583881D01*
X0577795Y0583838D01*
X0577946Y0583791D01*
X0578096Y0583740D01*
X0578245Y0583685D01*
X0578392Y0583627D01*
X0578538Y0583565D01*
X0578682Y0583500D01*
X0578824Y0583430D01*
X0578965Y0583358D01*
X0579104Y0583281D01*
X0579240Y0583202D01*
X0579375Y0583118D01*
X0579508Y0583032D01*
X0579638Y0582942D01*
X0579766Y0582849D01*
X0579892Y0582753D01*
X0580015Y0582653D01*
X0580136Y0582551D01*
X0580254Y0582446D01*
X0580369Y0582337D01*
X0580482Y0582226D01*
X0580592Y0582112D01*
X0580699Y0581995D01*
X0580803Y0581876D01*
X0580904Y0581754D01*
X0581001Y0581629D01*
X0581096Y0581502D01*
X0581187Y0581373D01*
X0581276Y0581242D01*
X0581360Y0581108D01*
X0581442Y0580972D01*
X0581520Y0580835D01*
X0581594Y0580695D01*
X0581665Y0580553D01*
X0581733Y0580410D01*
X0581797Y0580265D01*
X0581857Y0580119D01*
X0581913Y0579971D01*
X0581966Y0579822D01*
X0582015Y0579671D01*
X0582060Y0579519D01*
X0582101Y0579366D01*
X0582139Y0579213D01*
X0582172Y0579058D01*
X0582202Y0578902D01*
X0582228Y0578746D01*
X0582249Y0578589D01*
X0582267Y0578432D01*
X0582281Y0578274D01*
X0582291Y0578116D01*
X0582297Y0577958D01*
X0582299Y0577800D01*
X0582297Y0577642D01*
X0582291Y0577484D01*
X0582281Y0577326D01*
X0582267Y0577168D01*
X0582249Y0577011D01*
X0582228Y0576854D01*
X0582202Y0576698D01*
X0582172Y0576542D01*
X0582139Y0576387D01*
X0582101Y0576234D01*
X0582060Y0576081D01*
X0582015Y0575929D01*
X0581966Y0575778D01*
X0581913Y0575629D01*
X0581857Y0575481D01*
X0581797Y0575335D01*
X0581733Y0575190D01*
X0581665Y0575047D01*
X0581594Y0574905D01*
X0581520Y0574765D01*
X0581442Y0574628D01*
X0581360Y0574492D01*
X0581276Y0574358D01*
X0581187Y0574227D01*
X0581096Y0574098D01*
X0581001Y0573971D01*
X0580904Y0573846D01*
X0580803Y0573724D01*
X0580699Y0573605D01*
X0580592Y0573488D01*
X0580482Y0573374D01*
X0580369Y0573263D01*
X0580254Y0573154D01*
X0580136Y0573049D01*
X0580015Y0572947D01*
X0579892Y0572847D01*
X0579766Y0572751D01*
X0579638Y0572658D01*
X0579508Y0572568D01*
X0579375Y0572482D01*
X0579240Y0572398D01*
X0579104Y0572319D01*
X0578965Y0572242D01*
X0578824Y0572170D01*
X0578682Y0572100D01*
X0578538Y0572035D01*
X0578392Y0571973D01*
X0578245Y0571915D01*
X0578096Y0571860D01*
X0577946Y0571809D01*
X0577795Y0571762D01*
X0577643Y0571719D01*
X0577490Y0571680D01*
X0577335Y0571644D01*
X0577180Y0571613D01*
X0577024Y0571585D01*
X0576868Y0571561D01*
X0576711Y0571541D01*
X0576553Y0571525D01*
X0576396Y0571513D01*
X0576237Y0571505D01*
X0576079Y0571501D01*
X0575921Y0571501D01*
X0575763Y0571505D01*
X0575604Y0571513D01*
X0575447Y0571525D01*
X0575289Y0571541D01*
X0575132Y0571561D01*
X0574976Y0571585D01*
X0574820Y0571613D01*
X0574665Y0571644D01*
X0574510Y0571680D01*
X0574357Y0571719D01*
X0574205Y0571762D01*
X0574054Y0571809D01*
X0573904Y0571860D01*
X0573755Y0571915D01*
X0573608Y0571973D01*
X0573462Y0572035D01*
X0573318Y0572100D01*
X0573176Y0572170D01*
X0573035Y0572242D01*
X0572896Y0572319D01*
X0572760Y0572398D01*
X0572625Y0572482D01*
X0572492Y0572568D01*
X0572362Y0572658D01*
X0572234Y0572751D01*
X0572108Y0572847D01*
X0571985Y0572947D01*
X0571864Y0573049D01*
X0571746Y0573154D01*
X0571631Y0573263D01*
X0571518Y0573374D01*
X0571408Y0573488D01*
X0571301Y0573605D01*
X0571197Y0573724D01*
X0571096Y0573846D01*
X0570999Y0573971D01*
X0570904Y0574098D01*
X0570813Y0574227D01*
X0570724Y0574358D01*
X0570640Y0574492D01*
X0570558Y0574628D01*
X0570480Y0574765D01*
X0570406Y0574905D01*
X0570335Y0575047D01*
X0570267Y0575190D01*
X0570203Y0575335D01*
X0570143Y0575481D01*
X0570087Y0575629D01*
X0570034Y0575778D01*
X0569985Y0575929D01*
X0569940Y0576081D01*
X0569899Y0576234D01*
X0569861Y0576387D01*
X0569828Y0576542D01*
X0569798Y0576698D01*
X0569772Y0576854D01*
X0569751Y0577011D01*
X0569733Y0577168D01*
X0569719Y0577326D01*
X0569709Y0577484D01*
X0569703Y0577642D01*
X0569701Y0577800D01*
X0569703Y0577958D01*
X0569709Y0578116D01*
X0569719Y0578274D01*
X0569733Y0578432D01*
X0569751Y0578589D01*
X0569772Y0578746D01*
X0569798Y0578902D01*
X0569828Y0579058D01*
X0569861Y0579213D01*
X0569899Y0579366D01*
X0569940Y0579519D01*
X0569985Y0579671D01*
X0570034Y0579822D01*
X0570087Y0579971D01*
X0570143Y0580119D01*
X0570203Y0580265D01*
X0570267Y0580410D01*
X0570335Y0580553D01*
X0570406Y0580695D01*
X0570480Y0580835D01*
X0570558Y0580972D01*
X0570640Y0581108D01*
X0570724Y0581242D01*
X0570813Y0581373D01*
X0570904Y0581502D01*
X0570999Y0581629D01*
X0571096Y0581754D01*
X0571197Y0581876D01*
X0571301Y0581995D01*
X0571408Y0582112D01*
X0571518Y0582226D01*
X0571631Y0582337D01*
X0571746Y0582446D01*
X0571864Y0582551D01*
X0571985Y0582653D01*
X0572108Y0582753D01*
X0572234Y0582849D01*
X0572362Y0582942D01*
X0572492Y0583032D01*
X0572625Y0583118D01*
X0572760Y0583202D01*
X0572896Y0583281D01*
X0573035Y0583358D01*
X0573176Y0583430D01*
X0573318Y0583500D01*
X0573462Y0583565D01*
X0573608Y0583627D01*
X0573755Y0583685D01*
X0573904Y0583740D01*
X0574054Y0583791D01*
X0574205Y0583838D01*
X0574357Y0583881D01*
X0574510Y0583920D01*
X0574665Y0583956D01*
X0574820Y0583987D01*
X0574976Y0584015D01*
X0575132Y0584039D01*
X0575289Y0584059D01*
X0575447Y0584075D01*
X0575604Y0584087D01*
X0575763Y0584095D01*
X0575921Y0584099D01*
X0576079Y0584099D01*
X0576237Y0584095D01*
X0576396Y0584087D01*
X0576553Y0584075D01*
X0576711Y0584059D01*
X0576868Y0584039D01*
X0577024Y0584015D01*
X0577180Y0583987D01*
X0577335Y0583956D01*
X0577490Y0583920D01*
X0577643Y0583881D01*
X0577795Y0583838D01*
X0577946Y0583791D01*
X0578096Y0583740D01*
X0578245Y0583685D01*
X0578392Y0583627D01*
X0578538Y0583565D01*
X0578682Y0583500D01*
X0578824Y0583430D01*
X0578965Y0583358D01*
X0579104Y0583281D01*
X0579240Y0583202D01*
X0579375Y0583118D01*
X0579508Y0583032D01*
X0579638Y0582942D01*
X0579766Y0582849D01*
X0579892Y0582753D01*
X0580015Y0582653D01*
X0580136Y0582551D01*
X0580254Y0582446D01*
X0580369Y0582337D01*
X0580482Y0582226D01*
X0580592Y0582112D01*
X0580699Y0581995D01*
X0580803Y0581876D01*
X0580904Y0581754D01*
X0581001Y0581629D01*
X0581096Y0581502D01*
X0581187Y0581373D01*
X0581276Y0581242D01*
X0581360Y0581108D01*
X0581442Y0580972D01*
X0581520Y0580835D01*
X0581594Y0580695D01*
X0581665Y0580553D01*
X0581733Y0580410D01*
X0581797Y0580265D01*
X0581857Y0580119D01*
X0581913Y0579971D01*
X0581966Y0579822D01*
X0582015Y0579671D01*
X0582060Y0579519D01*
X0582101Y0579366D01*
X0582139Y0579213D01*
X0582172Y0579058D01*
X0582202Y0578902D01*
X0582228Y0578746D01*
X0582249Y0578589D01*
X0582267Y0578432D01*
X0582281Y0578274D01*
X0582291Y0578116D01*
X0582297Y0577958D01*
X0582299Y0577800D01*
X0582297Y0577642D01*
X0582291Y0577484D01*
X0582281Y0577326D01*
X0582267Y0577168D01*
X0582249Y0577011D01*
X0582228Y0576854D01*
X0582202Y0576698D01*
X0582172Y0576542D01*
X0582139Y0576387D01*
X0582101Y0576234D01*
X0582060Y0576081D01*
X0582015Y0575929D01*
X0581966Y0575778D01*
X0581913Y0575629D01*
X0581857Y0575481D01*
X0581797Y0575335D01*
X0581733Y0575190D01*
X0581665Y0575047D01*
X0581594Y0574905D01*
X0581520Y0574765D01*
X0581442Y0574628D01*
X0581360Y0574492D01*
X0581276Y0574358D01*
X0581187Y0574227D01*
X0581096Y0574098D01*
X0581001Y0573971D01*
X0580904Y0573846D01*
X0580803Y0573724D01*
X0580699Y0573605D01*
X0580592Y0573488D01*
X0580482Y0573374D01*
X0580369Y0573263D01*
X0580254Y0573154D01*
X0580136Y0573049D01*
X0580015Y0572947D01*
X0579892Y0572847D01*
X0579766Y0572751D01*
X0579638Y0572658D01*
X0579508Y0572568D01*
X0579375Y0572482D01*
X0579240Y0572398D01*
X0579104Y0572319D01*
X0578965Y0572242D01*
X0578824Y0572170D01*
X0578682Y0572100D01*
X0578538Y0572035D01*
X0578392Y0571973D01*
X0578245Y0571915D01*
X0578096Y0571860D01*
X0577946Y0571809D01*
X0577795Y0571762D01*
X0577643Y0571719D01*
X0577490Y0571680D01*
X0577335Y0571644D01*
X0577180Y0571613D01*
X0577024Y0571585D01*
X0576868Y0571561D01*
X0576711Y0571541D01*
X0576553Y0571525D01*
X0576396Y0571513D01*
X0576237Y0571505D01*
X0576079Y0571501D01*
X0575921Y0571501D01*
X0575763Y0571505D01*
X0575604Y0571513D01*
X0575447Y0571525D01*
X0575289Y0571541D01*
X0575132Y0571561D01*
X0574976Y0571585D01*
X0574820Y0571613D01*
X0574665Y0571644D01*
X0574510Y0571680D01*
X0574357Y0571719D01*
X0574205Y0571762D01*
X0574054Y0571809D01*
X0573904Y0571860D01*
X0573755Y0571915D01*
X0573608Y0571973D01*
X0573462Y0572035D01*
X0573318Y0572100D01*
X0573176Y0572170D01*
X0573035Y0572242D01*
X0572896Y0572319D01*
X0572760Y0572398D01*
X0572625Y0572482D01*
X0572492Y0572568D01*
X0572362Y0572658D01*
X0572234Y0572751D01*
X0572108Y0572847D01*
X0571985Y0572947D01*
X0571864Y0573049D01*
X0571746Y0573154D01*
X0571631Y0573263D01*
X0571518Y0573374D01*
X0571408Y0573488D01*
X0571301Y0573605D01*
X0571197Y0573724D01*
X0571096Y0573846D01*
X0570999Y0573971D01*
X0570904Y0574098D01*
X0570813Y0574227D01*
X0570724Y0574358D01*
X0570640Y0574492D01*
X0570558Y0574628D01*
X0570480Y0574765D01*
X0570406Y0574905D01*
X0570335Y0575047D01*
X0570267Y0575190D01*
X0570203Y0575335D01*
X0570143Y0575481D01*
X0570087Y0575629D01*
X0570034Y0575778D01*
X0569985Y0575929D01*
X0569940Y0576081D01*
X0569899Y0576234D01*
X0569861Y0576387D01*
X0569828Y0576542D01*
X0569798Y0576698D01*
X0569772Y0576854D01*
X0569751Y0577011D01*
X0569733Y0577168D01*
X0569719Y0577326D01*
X0569709Y0577484D01*
X0569703Y0577642D01*
X0569701Y0577800D01*
X0019701Y0577800D02*
X0019703Y0577958D01*
X0019709Y0578116D01*
X0019719Y0578274D01*
X0019733Y0578432D01*
X0019751Y0578589D01*
X0019772Y0578746D01*
X0019798Y0578902D01*
X0019828Y0579058D01*
X0019861Y0579213D01*
X0019899Y0579366D01*
X0019940Y0579519D01*
X0019985Y0579671D01*
X0020034Y0579822D01*
X0020087Y0579971D01*
X0020143Y0580119D01*
X0020203Y0580265D01*
X0020267Y0580410D01*
X0020335Y0580553D01*
X0020406Y0580695D01*
X0020480Y0580835D01*
X0020558Y0580972D01*
X0020640Y0581108D01*
X0020724Y0581242D01*
X0020813Y0581373D01*
X0020904Y0581502D01*
X0020999Y0581629D01*
X0021096Y0581754D01*
X0021197Y0581876D01*
X0021301Y0581995D01*
X0021408Y0582112D01*
X0021518Y0582226D01*
X0021631Y0582337D01*
X0021746Y0582446D01*
X0021864Y0582551D01*
X0021985Y0582653D01*
X0022108Y0582753D01*
X0022234Y0582849D01*
X0022362Y0582942D01*
X0022492Y0583032D01*
X0022625Y0583118D01*
X0022760Y0583202D01*
X0022896Y0583281D01*
X0023035Y0583358D01*
X0023176Y0583430D01*
X0023318Y0583500D01*
X0023462Y0583565D01*
X0023608Y0583627D01*
X0023755Y0583685D01*
X0023904Y0583740D01*
X0024054Y0583791D01*
X0024205Y0583838D01*
X0024357Y0583881D01*
X0024510Y0583920D01*
X0024665Y0583956D01*
X0024820Y0583987D01*
X0024976Y0584015D01*
X0025132Y0584039D01*
X0025289Y0584059D01*
X0025447Y0584075D01*
X0025604Y0584087D01*
X0025763Y0584095D01*
X0025921Y0584099D01*
X0026079Y0584099D01*
X0026237Y0584095D01*
X0026396Y0584087D01*
X0026553Y0584075D01*
X0026711Y0584059D01*
X0026868Y0584039D01*
X0027024Y0584015D01*
X0027180Y0583987D01*
X0027335Y0583956D01*
X0027490Y0583920D01*
X0027643Y0583881D01*
X0027795Y0583838D01*
X0027946Y0583791D01*
X0028096Y0583740D01*
X0028245Y0583685D01*
X0028392Y0583627D01*
X0028538Y0583565D01*
X0028682Y0583500D01*
X0028824Y0583430D01*
X0028965Y0583358D01*
X0029104Y0583281D01*
X0029240Y0583202D01*
X0029375Y0583118D01*
X0029508Y0583032D01*
X0029638Y0582942D01*
X0029766Y0582849D01*
X0029892Y0582753D01*
X0030015Y0582653D01*
X0030136Y0582551D01*
X0030254Y0582446D01*
X0030369Y0582337D01*
X0030482Y0582226D01*
X0030592Y0582112D01*
X0030699Y0581995D01*
X0030803Y0581876D01*
X0030904Y0581754D01*
X0031001Y0581629D01*
X0031096Y0581502D01*
X0031187Y0581373D01*
X0031276Y0581242D01*
X0031360Y0581108D01*
X0031442Y0580972D01*
X0031520Y0580835D01*
X0031594Y0580695D01*
X0031665Y0580553D01*
X0031733Y0580410D01*
X0031797Y0580265D01*
X0031857Y0580119D01*
X0031913Y0579971D01*
X0031966Y0579822D01*
X0032015Y0579671D01*
X0032060Y0579519D01*
X0032101Y0579366D01*
X0032139Y0579213D01*
X0032172Y0579058D01*
X0032202Y0578902D01*
X0032228Y0578746D01*
X0032249Y0578589D01*
X0032267Y0578432D01*
X0032281Y0578274D01*
X0032291Y0578116D01*
X0032297Y0577958D01*
X0032299Y0577800D01*
X0032297Y0577642D01*
X0032291Y0577484D01*
X0032281Y0577326D01*
X0032267Y0577168D01*
X0032249Y0577011D01*
X0032228Y0576854D01*
X0032202Y0576698D01*
X0032172Y0576542D01*
X0032139Y0576387D01*
X0032101Y0576234D01*
X0032060Y0576081D01*
X0032015Y0575929D01*
X0031966Y0575778D01*
X0031913Y0575629D01*
X0031857Y0575481D01*
X0031797Y0575335D01*
X0031733Y0575190D01*
X0031665Y0575047D01*
X0031594Y0574905D01*
X0031520Y0574765D01*
X0031442Y0574628D01*
X0031360Y0574492D01*
X0031276Y0574358D01*
X0031187Y0574227D01*
X0031096Y0574098D01*
X0031001Y0573971D01*
X0030904Y0573846D01*
X0030803Y0573724D01*
X0030699Y0573605D01*
X0030592Y0573488D01*
X0030482Y0573374D01*
X0030369Y0573263D01*
X0030254Y0573154D01*
X0030136Y0573049D01*
X0030015Y0572947D01*
X0029892Y0572847D01*
X0029766Y0572751D01*
X0029638Y0572658D01*
X0029508Y0572568D01*
X0029375Y0572482D01*
X0029240Y0572398D01*
X0029104Y0572319D01*
X0028965Y0572242D01*
X0028824Y0572170D01*
X0028682Y0572100D01*
X0028538Y0572035D01*
X0028392Y0571973D01*
X0028245Y0571915D01*
X0028096Y0571860D01*
X0027946Y0571809D01*
X0027795Y0571762D01*
X0027643Y0571719D01*
X0027490Y0571680D01*
X0027335Y0571644D01*
X0027180Y0571613D01*
X0027024Y0571585D01*
X0026868Y0571561D01*
X0026711Y0571541D01*
X0026553Y0571525D01*
X0026396Y0571513D01*
X0026237Y0571505D01*
X0026079Y0571501D01*
X0025921Y0571501D01*
X0025763Y0571505D01*
X0025604Y0571513D01*
X0025447Y0571525D01*
X0025289Y0571541D01*
X0025132Y0571561D01*
X0024976Y0571585D01*
X0024820Y0571613D01*
X0024665Y0571644D01*
X0024510Y0571680D01*
X0024357Y0571719D01*
X0024205Y0571762D01*
X0024054Y0571809D01*
X0023904Y0571860D01*
X0023755Y0571915D01*
X0023608Y0571973D01*
X0023462Y0572035D01*
X0023318Y0572100D01*
X0023176Y0572170D01*
X0023035Y0572242D01*
X0022896Y0572319D01*
X0022760Y0572398D01*
X0022625Y0572482D01*
X0022492Y0572568D01*
X0022362Y0572658D01*
X0022234Y0572751D01*
X0022108Y0572847D01*
X0021985Y0572947D01*
X0021864Y0573049D01*
X0021746Y0573154D01*
X0021631Y0573263D01*
X0021518Y0573374D01*
X0021408Y0573488D01*
X0021301Y0573605D01*
X0021197Y0573724D01*
X0021096Y0573846D01*
X0020999Y0573971D01*
X0020904Y0574098D01*
X0020813Y0574227D01*
X0020724Y0574358D01*
X0020640Y0574492D01*
X0020558Y0574628D01*
X0020480Y0574765D01*
X0020406Y0574905D01*
X0020335Y0575047D01*
X0020267Y0575190D01*
X0020203Y0575335D01*
X0020143Y0575481D01*
X0020087Y0575629D01*
X0020034Y0575778D01*
X0019985Y0575929D01*
X0019940Y0576081D01*
X0019899Y0576234D01*
X0019861Y0576387D01*
X0019828Y0576542D01*
X0019798Y0576698D01*
X0019772Y0576854D01*
X0019751Y0577011D01*
X0019733Y0577168D01*
X0019719Y0577326D01*
X0019709Y0577484D01*
X0019703Y0577642D01*
X0019701Y0577800D01*
X0019703Y0577958D01*
X0019709Y0578116D01*
X0019719Y0578274D01*
X0019733Y0578432D01*
X0019751Y0578589D01*
X0019772Y0578746D01*
X0019798Y0578902D01*
X0019828Y0579058D01*
X0019861Y0579213D01*
X0019899Y0579366D01*
X0019940Y0579519D01*
X0019985Y0579671D01*
X0020034Y0579822D01*
X0020087Y0579971D01*
X0020143Y0580119D01*
X0020203Y0580265D01*
X0020267Y0580410D01*
X0020335Y0580553D01*
X0020406Y0580695D01*
X0020480Y0580835D01*
X0020558Y0580972D01*
X0020640Y0581108D01*
X0020724Y0581242D01*
X0020813Y0581373D01*
X0020904Y0581502D01*
X0020999Y0581629D01*
X0021096Y0581754D01*
X0021197Y0581876D01*
X0021301Y0581995D01*
X0021408Y0582112D01*
X0021518Y0582226D01*
X0021631Y0582337D01*
X0021746Y0582446D01*
X0021864Y0582551D01*
X0021985Y0582653D01*
X0022108Y0582753D01*
X0022234Y0582849D01*
X0022362Y0582942D01*
X0022492Y0583032D01*
X0022625Y0583118D01*
X0022760Y0583202D01*
X0022896Y0583281D01*
X0023035Y0583358D01*
X0023176Y0583430D01*
X0023318Y0583500D01*
X0023462Y0583565D01*
X0023608Y0583627D01*
X0023755Y0583685D01*
X0023904Y0583740D01*
X0024054Y0583791D01*
X0024205Y0583838D01*
X0024357Y0583881D01*
X0024510Y0583920D01*
X0024665Y0583956D01*
X0024820Y0583987D01*
X0024976Y0584015D01*
X0025132Y0584039D01*
X0025289Y0584059D01*
X0025447Y0584075D01*
X0025604Y0584087D01*
X0025763Y0584095D01*
X0025921Y0584099D01*
X0026079Y0584099D01*
X0026237Y0584095D01*
X0026396Y0584087D01*
X0026553Y0584075D01*
X0026711Y0584059D01*
X0026868Y0584039D01*
X0027024Y0584015D01*
X0027180Y0583987D01*
X0027335Y0583956D01*
X0027490Y0583920D01*
X0027643Y0583881D01*
X0027795Y0583838D01*
X0027946Y0583791D01*
X0028096Y0583740D01*
X0028245Y0583685D01*
X0028392Y0583627D01*
X0028538Y0583565D01*
X0028682Y0583500D01*
X0028824Y0583430D01*
X0028965Y0583358D01*
X0029104Y0583281D01*
X0029240Y0583202D01*
X0029375Y0583118D01*
X0029508Y0583032D01*
X0029638Y0582942D01*
X0029766Y0582849D01*
X0029892Y0582753D01*
X0030015Y0582653D01*
X0030136Y0582551D01*
X0030254Y0582446D01*
X0030369Y0582337D01*
X0030482Y0582226D01*
X0030592Y0582112D01*
X0030699Y0581995D01*
X0030803Y0581876D01*
X0030904Y0581754D01*
X0031001Y0581629D01*
X0031096Y0581502D01*
X0031187Y0581373D01*
X0031276Y0581242D01*
X0031360Y0581108D01*
X0031442Y0580972D01*
X0031520Y0580835D01*
X0031594Y0580695D01*
X0031665Y0580553D01*
X0031733Y0580410D01*
X0031797Y0580265D01*
X0031857Y0580119D01*
X0031913Y0579971D01*
X0031966Y0579822D01*
X0032015Y0579671D01*
X0032060Y0579519D01*
X0032101Y0579366D01*
X0032139Y0579213D01*
X0032172Y0579058D01*
X0032202Y0578902D01*
X0032228Y0578746D01*
X0032249Y0578589D01*
X0032267Y0578432D01*
X0032281Y0578274D01*
X0032291Y0578116D01*
X0032297Y0577958D01*
X0032299Y0577800D01*
X0032297Y0577642D01*
X0032291Y0577484D01*
X0032281Y0577326D01*
X0032267Y0577168D01*
X0032249Y0577011D01*
X0032228Y0576854D01*
X0032202Y0576698D01*
X0032172Y0576542D01*
X0032139Y0576387D01*
X0032101Y0576234D01*
X0032060Y0576081D01*
X0032015Y0575929D01*
X0031966Y0575778D01*
X0031913Y0575629D01*
X0031857Y0575481D01*
X0031797Y0575335D01*
X0031733Y0575190D01*
X0031665Y0575047D01*
X0031594Y0574905D01*
X0031520Y0574765D01*
X0031442Y0574628D01*
X0031360Y0574492D01*
X0031276Y0574358D01*
X0031187Y0574227D01*
X0031096Y0574098D01*
X0031001Y0573971D01*
X0030904Y0573846D01*
X0030803Y0573724D01*
X0030699Y0573605D01*
X0030592Y0573488D01*
X0030482Y0573374D01*
X0030369Y0573263D01*
X0030254Y0573154D01*
X0030136Y0573049D01*
X0030015Y0572947D01*
X0029892Y0572847D01*
X0029766Y0572751D01*
X0029638Y0572658D01*
X0029508Y0572568D01*
X0029375Y0572482D01*
X0029240Y0572398D01*
X0029104Y0572319D01*
X0028965Y0572242D01*
X0028824Y0572170D01*
X0028682Y0572100D01*
X0028538Y0572035D01*
X0028392Y0571973D01*
X0028245Y0571915D01*
X0028096Y0571860D01*
X0027946Y0571809D01*
X0027795Y0571762D01*
X0027643Y0571719D01*
X0027490Y0571680D01*
X0027335Y0571644D01*
X0027180Y0571613D01*
X0027024Y0571585D01*
X0026868Y0571561D01*
X0026711Y0571541D01*
X0026553Y0571525D01*
X0026396Y0571513D01*
X0026237Y0571505D01*
X0026079Y0571501D01*
X0025921Y0571501D01*
X0025763Y0571505D01*
X0025604Y0571513D01*
X0025447Y0571525D01*
X0025289Y0571541D01*
X0025132Y0571561D01*
X0024976Y0571585D01*
X0024820Y0571613D01*
X0024665Y0571644D01*
X0024510Y0571680D01*
X0024357Y0571719D01*
X0024205Y0571762D01*
X0024054Y0571809D01*
X0023904Y0571860D01*
X0023755Y0571915D01*
X0023608Y0571973D01*
X0023462Y0572035D01*
X0023318Y0572100D01*
X0023176Y0572170D01*
X0023035Y0572242D01*
X0022896Y0572319D01*
X0022760Y0572398D01*
X0022625Y0572482D01*
X0022492Y0572568D01*
X0022362Y0572658D01*
X0022234Y0572751D01*
X0022108Y0572847D01*
X0021985Y0572947D01*
X0021864Y0573049D01*
X0021746Y0573154D01*
X0021631Y0573263D01*
X0021518Y0573374D01*
X0021408Y0573488D01*
X0021301Y0573605D01*
X0021197Y0573724D01*
X0021096Y0573846D01*
X0020999Y0573971D01*
X0020904Y0574098D01*
X0020813Y0574227D01*
X0020724Y0574358D01*
X0020640Y0574492D01*
X0020558Y0574628D01*
X0020480Y0574765D01*
X0020406Y0574905D01*
X0020335Y0575047D01*
X0020267Y0575190D01*
X0020203Y0575335D01*
X0020143Y0575481D01*
X0020087Y0575629D01*
X0020034Y0575778D01*
X0019985Y0575929D01*
X0019940Y0576081D01*
X0019899Y0576234D01*
X0019861Y0576387D01*
X0019828Y0576542D01*
X0019798Y0576698D01*
X0019772Y0576854D01*
X0019751Y0577011D01*
X0019733Y0577168D01*
X0019719Y0577326D01*
X0019709Y0577484D01*
X0019703Y0577642D01*
X0019701Y0577800D01*
D11*
X0058205Y0572820D02*
X0058205Y0562780D01*
X0073795Y0562780D02*
X0073795Y0572820D01*
X0136205Y0572820D02*
X0136205Y0562780D01*
X0151795Y0562780D02*
X0151795Y0572820D01*
X0627980Y0379595D02*
X0638020Y0379595D01*
X0638020Y0364005D02*
X0627980Y0364005D01*
X0692980Y0382005D02*
X0703020Y0382005D01*
X0703020Y0397595D02*
X0692980Y0397595D01*
D12*
X0647000Y0072800D03*
X0066000Y0294800D03*
D13*
X0055961Y0284761D03*
X0076039Y0284761D03*
X0076039Y0304839D03*
X0055961Y0304839D03*
X0636961Y0082839D03*
X0657039Y0082839D03*
X0657039Y0062761D03*
X0636961Y0062761D03*
D14*
X0770000Y0040725D02*
X0770000Y0028875D01*
X0896000Y0027875D02*
X0896000Y0039725D01*
X0986000Y0217175D02*
X0986000Y0229025D01*
X0895000Y0401875D02*
X0895000Y0413725D01*
X0771000Y0414725D02*
X0771000Y0402875D01*
X0575000Y0294025D02*
X0575000Y0282175D01*
X0336700Y0289675D02*
X0336700Y0301525D01*
X0401000Y0031725D02*
X0401000Y0019875D01*
X0206000Y0020875D02*
X0206000Y0032725D01*
X0377000Y0573875D02*
X0377000Y0585725D01*
X0205000Y0586725D02*
X0205000Y0574875D01*
D15*
X0337000Y0523800D03*
X0337000Y0503800D03*
X0442000Y0511800D03*
X0442000Y0531800D03*
X0289000Y0437800D03*
X0269000Y0437800D03*
X0289000Y0409800D03*
X0329000Y0409800D03*
X0336000Y0366800D03*
X0336000Y0346800D03*
X0442000Y0348800D03*
X0442000Y0368800D03*
X0633000Y0340800D03*
X0633000Y0320800D03*
X0744000Y0259800D03*
X0783000Y0255800D03*
X0803000Y0255800D03*
X0801000Y0283800D03*
X0801000Y0303800D03*
X0828000Y0311800D03*
X0868000Y0311800D03*
X0868000Y0294800D03*
X0868000Y0254800D03*
X0868000Y0230800D03*
X0866000Y0211800D03*
X0866000Y0190800D03*
X0826000Y0211800D03*
X0828000Y0230800D03*
X0744000Y0219800D03*
X0744000Y0203800D03*
X0744000Y0183800D03*
X0795000Y0155800D03*
X0795000Y0135800D03*
X0827000Y0135800D03*
X0867000Y0135800D03*
X0866000Y0150800D03*
X0867000Y0115800D03*
X0933000Y0115800D03*
X0933000Y0075800D03*
X0867000Y0075800D03*
X0803000Y0081800D03*
X0783000Y0081800D03*
X0732000Y0059800D03*
X0692000Y0059800D03*
X0692000Y0078800D03*
X0692000Y0098800D03*
X0451000Y0087800D03*
X0451000Y0067800D03*
X0334000Y0072800D03*
X0334000Y0092800D03*
X0332000Y0150800D03*
X0292000Y0150800D03*
X0292000Y0179800D03*
X0272000Y0179800D03*
X0211000Y0160800D03*
X0211000Y0210800D03*
X0211000Y0245800D03*
X0211000Y0265800D03*
X0211000Y0303800D03*
X0231000Y0303800D03*
X0231000Y0325800D03*
X0231000Y0385800D03*
X0333000Y0245800D03*
X0333000Y0225800D03*
X0451000Y0227800D03*
X0451000Y0247800D03*
X0868000Y0334800D03*
X0868000Y0374800D03*
X0933000Y0374800D03*
X0933000Y0334800D03*
X0933000Y0278800D03*
X0933000Y0238800D03*
X0933000Y0208800D03*
X0933000Y0168800D03*
D16*
X0898600Y0180800D02*
X0893400Y0180800D01*
X0888600Y0190800D02*
X0883400Y0190800D01*
X0893400Y0200800D02*
X0898600Y0200800D01*
X0868600Y0199800D02*
X0863400Y0199800D01*
X0828600Y0199800D02*
X0823400Y0199800D01*
X0825400Y0243800D02*
X0830600Y0243800D01*
X0865400Y0243800D02*
X0870600Y0243800D01*
X0893400Y0244800D02*
X0898600Y0244800D01*
X0903400Y0254800D02*
X0908600Y0254800D01*
X0898600Y0264800D02*
X0893400Y0264800D01*
X0893400Y0324800D02*
X0898600Y0324800D01*
X0903400Y0334800D02*
X0908600Y0334800D01*
X0898600Y0344800D02*
X0893400Y0344800D01*
X0870600Y0323800D02*
X0865400Y0323800D01*
X0830600Y0323800D02*
X0825400Y0323800D01*
X0764000Y0308400D02*
X0764000Y0303200D01*
X0754000Y0303200D02*
X0754000Y0308400D01*
X0744000Y0308400D02*
X0744000Y0303200D01*
X0744000Y0278400D02*
X0744000Y0273200D01*
X0754000Y0273200D02*
X0754000Y0278400D01*
X0764000Y0278400D02*
X0764000Y0273200D01*
X0700600Y0340800D02*
X0695400Y0340800D01*
X0660600Y0340800D02*
X0655400Y0340800D01*
X0660400Y0153800D02*
X0665600Y0153800D01*
X0665600Y0143800D02*
X0660400Y0143800D01*
X0660400Y0133800D02*
X0665600Y0133800D01*
X0665600Y0123800D02*
X0660400Y0123800D01*
X0690400Y0123800D02*
X0695600Y0123800D01*
X0695600Y0133800D02*
X0690400Y0133800D01*
X0690400Y0143800D02*
X0695600Y0143800D01*
X0695600Y0153800D02*
X0690400Y0153800D01*
X0732000Y0127400D02*
X0732000Y0122200D01*
X0742000Y0122200D02*
X0742000Y0127400D01*
X0752000Y0127400D02*
X0752000Y0122200D01*
X0752000Y0097400D02*
X0752000Y0092200D01*
X0742000Y0092200D02*
X0742000Y0097400D01*
X0732000Y0097400D02*
X0732000Y0092200D01*
X0824400Y0124800D02*
X0829600Y0124800D01*
X0864400Y0124800D02*
X0869600Y0124800D01*
X0883400Y0115800D02*
X0888600Y0115800D01*
X0893400Y0125800D02*
X0898600Y0125800D01*
X0898600Y0105800D02*
X0893400Y0105800D01*
X0334600Y0134800D02*
X0329400Y0134800D01*
X0294600Y0134800D02*
X0289400Y0134800D01*
X0251000Y0133400D02*
X0251000Y0128200D01*
X0241000Y0128200D02*
X0241000Y0133400D01*
X0231000Y0133400D02*
X0231000Y0128200D01*
X0231000Y0158200D02*
X0231000Y0163400D01*
X0241000Y0163400D02*
X0241000Y0158200D01*
X0251000Y0158200D02*
X0251000Y0163400D01*
X0168600Y0274800D02*
X0163400Y0274800D01*
X0163400Y0284800D02*
X0168600Y0284800D01*
X0168600Y0294800D02*
X0163400Y0294800D01*
X0163400Y0304800D02*
X0168600Y0304800D01*
X0138600Y0304800D02*
X0133400Y0304800D01*
X0133400Y0294800D02*
X0138600Y0294800D01*
X0138600Y0284800D02*
X0133400Y0284800D01*
X0133400Y0274800D02*
X0138600Y0274800D01*
X0286400Y0391800D02*
X0291600Y0391800D01*
X0326400Y0391800D02*
X0331600Y0391800D01*
X0251000Y0405200D02*
X0251000Y0410400D01*
X0241000Y0410400D02*
X0241000Y0405200D01*
X0231000Y0405200D02*
X0231000Y0410400D01*
X0231000Y0435200D02*
X0231000Y0440400D01*
X0241000Y0440400D02*
X0241000Y0435200D01*
X0251000Y0435200D02*
X0251000Y0440400D01*
X0093600Y0510800D02*
X0088400Y0510800D01*
X0053600Y0510800D02*
X0048400Y0510800D01*
D17*
X0055000Y0425800D03*
X0025000Y0425800D03*
X0025000Y0395800D03*
X0025000Y0375800D03*
X0055000Y0375800D03*
X0055000Y0395800D03*
X0055000Y0355800D03*
X0025000Y0355800D03*
X0663000Y0309800D03*
X0693000Y0309800D03*
X0693000Y0279800D03*
X0663000Y0279800D03*
X0663000Y0259800D03*
X0663000Y0239800D03*
X0693000Y0239800D03*
X0693000Y0259800D03*
D18*
X0828000Y0258769D02*
X0828000Y0252831D01*
X0828000Y0292831D02*
X0828000Y0298769D01*
X0828000Y0331831D02*
X0828000Y0337769D01*
X0828000Y0371831D02*
X0828000Y0377769D01*
X0826000Y0193769D02*
X0826000Y0187831D01*
X0826000Y0153769D02*
X0826000Y0147831D01*
X0827000Y0118769D02*
X0827000Y0112831D01*
X0827000Y0078769D02*
X0827000Y0072831D01*
X0333000Y0168831D02*
X0333000Y0174769D01*
X0333000Y0208831D02*
X0333000Y0214769D01*
X0337000Y0434831D02*
X0337000Y0440769D01*
X0337000Y0474831D02*
X0337000Y0480769D01*
D19*
X0575000Y0475925D02*
X0575000Y0467675D01*
X0575000Y0432925D02*
X0575000Y0424675D01*
X0575000Y0372925D02*
X0575000Y0364675D01*
X0575000Y0251925D02*
X0575000Y0243675D01*
X0575000Y0191925D02*
X0575000Y0183675D01*
X0575000Y0151925D02*
X0575000Y0143675D01*
X0575000Y0091925D02*
X0575000Y0083675D01*
X0959000Y0131675D02*
X0959000Y0139925D01*
X0984000Y0139925D02*
X0984000Y0131675D01*
X0984000Y0079925D02*
X0984000Y0071675D01*
X0959000Y0191675D02*
X0959000Y0199925D01*
X0986000Y0250675D02*
X0986000Y0258925D01*
X0986000Y0310675D02*
X0986000Y0318925D01*
X0960000Y0318925D02*
X0960000Y0310675D01*
X0960000Y0370675D02*
X0960000Y0378925D01*
X0575000Y0527675D02*
X0575000Y0535925D01*
D20*
X0388000Y0471400D03*
X0388100Y0404000D03*
X0389000Y0194400D03*
X0389100Y0127000D03*
D21*
X0388900Y0143900D03*
X0389100Y0177500D03*
X0387900Y0420900D03*
X0388100Y0454500D03*
D22*
X0388200Y0445200D03*
X0387700Y0437800D03*
X0387900Y0430500D03*
X0389200Y0168200D03*
X0388700Y0160800D03*
X0388900Y0153500D03*
D23*
X0515200Y0129100D03*
X0515200Y0192700D03*
X0514200Y0406100D03*
X0514200Y0469700D03*
D24*
X0514050Y0437750D03*
X0515050Y0160750D03*
D25*
X0175000Y0162800D03*
X0175000Y0152800D03*
X0115000Y0152800D03*
X0115000Y0162800D03*
X0115000Y0172800D03*
X0115000Y0092800D03*
X0115000Y0072800D03*
X0175000Y0072800D03*
X0175000Y0092800D03*
X0176000Y0346800D03*
X0176000Y0366800D03*
X0116000Y0366800D03*
X0116000Y0346800D03*
X0116000Y0426800D03*
X0116000Y0436800D03*
X0116000Y0446800D03*
X0176000Y0436800D03*
X0176000Y0426800D03*
D26*
X0261000Y0346800D03*
X0272000Y0245800D03*
X0514000Y0247800D03*
X0515000Y0348800D03*
X0260000Y0523800D03*
X0513000Y0531800D03*
X0252000Y0072800D03*
X0515000Y0067800D03*
D27*
X0515000Y0087800D03*
X0514000Y0227800D03*
X0515000Y0368800D03*
X0513000Y0511800D03*
X0260000Y0503800D03*
X0261000Y0366800D03*
X0272000Y0225800D03*
X0252000Y0092800D03*
D28*
X0280000Y0024800D03*
X0320000Y0024800D03*
X0365000Y0269800D03*
X0391000Y0269800D03*
X0451000Y0269800D03*
X0462000Y0309800D03*
X0482000Y0309800D03*
X0542000Y0309800D03*
X0402000Y0309800D03*
X0365000Y0309800D03*
X0807000Y0407800D03*
X0847000Y0407800D03*
X0304000Y0580800D03*
X0264000Y0580800D03*
X0805000Y0033800D03*
X0845000Y0033800D03*
D29*
X0158000Y0033172D02*
X0038717Y0033172D01*
X0038766Y0033088D02*
X0036962Y0036212D01*
X0034412Y0038762D01*
X0031288Y0040566D01*
X0027804Y0041499D01*
X0024196Y0041499D01*
X0020712Y0040566D01*
X0017588Y0038762D01*
X0015038Y0036212D01*
X0013234Y0033088D01*
X0012301Y0029604D01*
X0012301Y0025996D01*
X0013234Y0022512D01*
X0015038Y0019388D01*
X0017588Y0016838D01*
X0020712Y0015034D01*
X0024196Y0014101D01*
X0027804Y0014101D01*
X0031288Y0015034D01*
X0034412Y0016838D01*
X0036962Y0019388D01*
X0038766Y0022512D01*
X0039699Y0025996D01*
X0039699Y0029604D01*
X0038766Y0033088D01*
X0039171Y0031573D02*
X0158000Y0031573D01*
X0158000Y0029975D02*
X0039600Y0029975D01*
X0039699Y0028376D02*
X0158000Y0028376D01*
X0158000Y0026778D02*
X0039699Y0026778D01*
X0039480Y0025179D02*
X0158000Y0025179D01*
X0158000Y0023581D02*
X0039052Y0023581D01*
X0038460Y0021982D02*
X0158000Y0021982D01*
X0158000Y0020384D02*
X0037537Y0020384D01*
X0036359Y0018785D02*
X0158000Y0018785D01*
X0158000Y0017187D02*
X0034760Y0017187D01*
X0032247Y0015588D02*
X0158000Y0015588D01*
X0158000Y0013990D02*
X0008400Y0013990D01*
X0008400Y0015588D02*
X0019753Y0015588D01*
X0017240Y0017187D02*
X0008400Y0017187D01*
X0008400Y0018785D02*
X0015641Y0018785D01*
X0014463Y0020384D02*
X0008400Y0020384D01*
X0008400Y0021982D02*
X0013540Y0021982D01*
X0012948Y0023581D02*
X0008400Y0023581D01*
X0008400Y0025179D02*
X0012520Y0025179D01*
X0012301Y0026778D02*
X0008400Y0026778D01*
X0008400Y0028376D02*
X0012301Y0028376D01*
X0012400Y0029975D02*
X0008400Y0029975D01*
X0008400Y0031573D02*
X0012829Y0031573D01*
X0013283Y0033172D02*
X0008400Y0033172D01*
X0008400Y0034770D02*
X0014206Y0034770D01*
X0015195Y0036369D02*
X0008400Y0036369D01*
X0008400Y0037967D02*
X0016794Y0037967D01*
X0018980Y0039566D02*
X0008400Y0039566D01*
X0008400Y0041164D02*
X0022946Y0041164D01*
X0029054Y0041164D02*
X0158000Y0041164D01*
X0158000Y0039566D02*
X0033020Y0039566D01*
X0035206Y0037967D02*
X0158000Y0037967D01*
X0158000Y0036369D02*
X0036805Y0036369D01*
X0037794Y0034770D02*
X0158000Y0034770D01*
X0158000Y0042763D02*
X0008400Y0042763D01*
X0008400Y0044361D02*
X0158000Y0044361D01*
X0158000Y0045960D02*
X0008400Y0045960D01*
X0008400Y0047558D02*
X0158000Y0047558D01*
X0158000Y0049157D02*
X0008400Y0049157D01*
X0008400Y0050755D02*
X0158000Y0050755D01*
X0158000Y0052354D02*
X0008400Y0052354D01*
X0008400Y0053952D02*
X0158000Y0053952D01*
X0158000Y0055551D02*
X0008400Y0055551D01*
X0008400Y0057149D02*
X0158000Y0057149D01*
X0158000Y0058748D02*
X0008400Y0058748D01*
X0008400Y0060346D02*
X0158000Y0060346D01*
X0158000Y0061945D02*
X0008400Y0061945D01*
X0008400Y0063543D02*
X0110296Y0063543D01*
X0110998Y0063138D02*
X0108634Y0064503D01*
X0106703Y0066434D01*
X0105338Y0068798D01*
X0104631Y0071435D01*
X0104631Y0074165D01*
X0105338Y0076802D01*
X0106703Y0079166D01*
X0108634Y0081097D01*
X0110998Y0082462D01*
X0112260Y0082800D01*
X0110998Y0083138D01*
X0108634Y0084503D01*
X0106703Y0086434D01*
X0105338Y0088798D01*
X0104631Y0091435D01*
X0104631Y0094165D01*
X0105338Y0096802D01*
X0106703Y0099166D01*
X0108634Y0101097D01*
X0110998Y0102462D01*
X0113635Y0103168D01*
X0116365Y0103168D01*
X0119002Y0102462D01*
X0121366Y0101097D01*
X0123297Y0099166D01*
X0124662Y0096802D01*
X0125368Y0094165D01*
X0125368Y0091435D01*
X0124662Y0088798D01*
X0123297Y0086434D01*
X0121366Y0084503D01*
X0119002Y0083138D01*
X0117740Y0082800D01*
X0119002Y0082462D01*
X0121366Y0081097D01*
X0123297Y0079166D01*
X0124662Y0076802D01*
X0125368Y0074165D01*
X0125368Y0071435D01*
X0124662Y0068798D01*
X0123297Y0066434D01*
X0121366Y0064503D01*
X0119002Y0063138D01*
X0116365Y0062431D01*
X0113635Y0062431D01*
X0110998Y0063138D01*
X0107995Y0065142D02*
X0008400Y0065142D01*
X0008400Y0066740D02*
X0106526Y0066740D01*
X0105603Y0068339D02*
X0008400Y0068339D01*
X0008400Y0069937D02*
X0105033Y0069937D01*
X0104631Y0071536D02*
X0008400Y0071536D01*
X0008400Y0073134D02*
X0104631Y0073134D01*
X0104784Y0074733D02*
X0008400Y0074733D01*
X0008400Y0076332D02*
X0105212Y0076332D01*
X0105989Y0077930D02*
X0008400Y0077930D01*
X0008400Y0079529D02*
X0107065Y0079529D01*
X0108686Y0081127D02*
X0008400Y0081127D01*
X0008400Y0082726D02*
X0111982Y0082726D01*
X0108944Y0084324D02*
X0008400Y0084324D01*
X0008400Y0085923D02*
X0107214Y0085923D01*
X0106075Y0087521D02*
X0008400Y0087521D01*
X0008400Y0089120D02*
X0105252Y0089120D01*
X0104824Y0090718D02*
X0008400Y0090718D01*
X0008400Y0092317D02*
X0104631Y0092317D01*
X0104631Y0093915D02*
X0008400Y0093915D01*
X0008400Y0095514D02*
X0104993Y0095514D01*
X0105517Y0097112D02*
X0008400Y0097112D01*
X0008400Y0098711D02*
X0106440Y0098711D01*
X0107846Y0100309D02*
X0008400Y0100309D01*
X0008400Y0101908D02*
X0110038Y0101908D01*
X0119962Y0101908D02*
X0158000Y0101908D01*
X0158000Y0103506D02*
X0008400Y0103506D01*
X0008400Y0105105D02*
X0158000Y0105105D01*
X0158000Y0106703D02*
X0008400Y0106703D01*
X0008400Y0108302D02*
X0158000Y0108302D01*
X0158000Y0109900D02*
X0008400Y0109900D01*
X0008400Y0111499D02*
X0158000Y0111499D01*
X0158000Y0113097D02*
X0008400Y0113097D01*
X0008400Y0114696D02*
X0158000Y0114696D01*
X0158000Y0116294D02*
X0008400Y0116294D01*
X0008400Y0117893D02*
X0158000Y0117893D01*
X0158000Y0119491D02*
X0008400Y0119491D01*
X0008400Y0121090D02*
X0158000Y0121090D01*
X0158000Y0122688D02*
X0008400Y0122688D01*
X0008400Y0124287D02*
X0158000Y0124287D01*
X0158000Y0125885D02*
X0008400Y0125885D01*
X0008400Y0127484D02*
X0158000Y0127484D01*
X0158000Y0129082D02*
X0008400Y0129082D01*
X0008400Y0130681D02*
X0158000Y0130681D01*
X0158000Y0132279D02*
X0008400Y0132279D01*
X0008400Y0133878D02*
X0158000Y0133878D01*
X0158000Y0135476D02*
X0008400Y0135476D01*
X0008400Y0137075D02*
X0158000Y0137075D01*
X0158000Y0138673D02*
X0008400Y0138673D01*
X0008400Y0140272D02*
X0158000Y0140272D01*
X0158000Y0141870D02*
X0008400Y0141870D01*
X0008400Y0143469D02*
X0158000Y0143469D01*
X0158000Y0145068D02*
X0008400Y0145068D01*
X0008400Y0146666D02*
X0158000Y0146666D01*
X0158000Y0148265D02*
X0008400Y0148265D01*
X0008400Y0149863D02*
X0158000Y0149863D01*
X0158000Y0151462D02*
X0008400Y0151462D01*
X0008400Y0153060D02*
X0158000Y0153060D01*
X0158000Y0154659D02*
X0008400Y0154659D01*
X0008400Y0156257D02*
X0158000Y0156257D01*
X0158000Y0157856D02*
X0008400Y0157856D01*
X0008400Y0159454D02*
X0158000Y0159454D01*
X0158000Y0161053D02*
X0008400Y0161053D01*
X0008400Y0162651D02*
X0112815Y0162651D01*
X0113635Y0162431D02*
X0116365Y0162431D01*
X0119002Y0163138D01*
X0121366Y0164503D01*
X0123297Y0166434D01*
X0124662Y0168798D01*
X0125368Y0171435D01*
X0125368Y0174165D01*
X0124662Y0176802D01*
X0123297Y0179166D01*
X0121366Y0181097D01*
X0119002Y0182462D01*
X0116365Y0183168D01*
X0113635Y0183168D01*
X0110998Y0182462D01*
X0108634Y0181097D01*
X0106703Y0179166D01*
X0105338Y0176802D01*
X0104631Y0174165D01*
X0104631Y0171435D01*
X0105338Y0168798D01*
X0106703Y0166434D01*
X0108634Y0164503D01*
X0110998Y0163138D01*
X0113635Y0162431D01*
X0117185Y0162651D02*
X0158000Y0162651D01*
X0158000Y0164250D02*
X0120927Y0164250D01*
X0122711Y0165848D02*
X0158000Y0165848D01*
X0158000Y0167447D02*
X0123882Y0167447D01*
X0124728Y0169045D02*
X0158000Y0169045D01*
X0158000Y0170644D02*
X0125156Y0170644D01*
X0125368Y0172242D02*
X0158000Y0172242D01*
X0158000Y0173841D02*
X0125368Y0173841D01*
X0125027Y0175439D02*
X0158000Y0175439D01*
X0158000Y0177038D02*
X0124526Y0177038D01*
X0123603Y0178636D02*
X0158000Y0178636D01*
X0158000Y0180235D02*
X0122229Y0180235D01*
X0120091Y0181833D02*
X0158000Y0181833D01*
X0158000Y0183432D02*
X0008400Y0183432D01*
X0008400Y0185030D02*
X0158000Y0185030D01*
X0158000Y0186629D02*
X0008400Y0186629D01*
X0008400Y0188227D02*
X0158000Y0188227D01*
X0158000Y0189826D02*
X0008400Y0189826D01*
X0008400Y0191424D02*
X0158000Y0191424D01*
X0158000Y0193023D02*
X0008400Y0193023D01*
X0008400Y0194621D02*
X0158000Y0194621D01*
X0158000Y0196220D02*
X0008400Y0196220D01*
X0008400Y0197818D02*
X0158000Y0197818D01*
X0158000Y0199417D02*
X0008400Y0199417D01*
X0008400Y0201015D02*
X0158000Y0201015D01*
X0158000Y0202614D02*
X0008400Y0202614D01*
X0008400Y0204212D02*
X0158000Y0204212D01*
X0158000Y0205811D02*
X0008400Y0205811D01*
X0008400Y0207409D02*
X0158000Y0207409D01*
X0158000Y0209008D02*
X0008400Y0209008D01*
X0008400Y0210606D02*
X0158000Y0210606D01*
X0158000Y0212205D02*
X0008400Y0212205D01*
X0008400Y0213803D02*
X0158000Y0213803D01*
X0158000Y0215402D02*
X0008400Y0215402D01*
X0008400Y0217001D02*
X0158000Y0217001D01*
X0158000Y0218599D02*
X0008400Y0218599D01*
X0008400Y0220198D02*
X0158000Y0220198D01*
X0158000Y0221796D02*
X0008400Y0221796D01*
X0008400Y0223395D02*
X0158000Y0223395D01*
X0158000Y0224993D02*
X0008400Y0224993D01*
X0008400Y0226592D02*
X0158000Y0226592D01*
X0158000Y0228190D02*
X0008400Y0228190D01*
X0008400Y0229789D02*
X0158000Y0229789D01*
X0158000Y0231387D02*
X0008400Y0231387D01*
X0008400Y0232986D02*
X0158000Y0232986D01*
X0158000Y0234584D02*
X0008400Y0234584D01*
X0008400Y0236183D02*
X0158000Y0236183D01*
X0158000Y0237781D02*
X0008400Y0237781D01*
X0008400Y0239380D02*
X0158000Y0239380D01*
X0158000Y0240978D02*
X0008400Y0240978D01*
X0008400Y0242577D02*
X0158000Y0242577D01*
X0158000Y0244175D02*
X0008400Y0244175D01*
X0008400Y0245774D02*
X0158000Y0245774D01*
X0158000Y0247372D02*
X0008400Y0247372D01*
X0008400Y0248971D02*
X0158000Y0248971D01*
X0158000Y0250569D02*
X0008400Y0250569D01*
X0008400Y0252168D02*
X0158000Y0252168D01*
X0158000Y0253766D02*
X0008400Y0253766D01*
X0008400Y0255365D02*
X0158000Y0255365D01*
X0158000Y0256963D02*
X0008400Y0256963D01*
X0008400Y0258562D02*
X0158000Y0258562D01*
X0158000Y0260160D02*
X0008400Y0260160D01*
X0008400Y0261759D02*
X0158000Y0261759D01*
X0158000Y0263357D02*
X0008400Y0263357D01*
X0008400Y0264956D02*
X0131035Y0264956D01*
X0131411Y0264800D02*
X0140589Y0264800D01*
X0144265Y0266322D01*
X0147078Y0269135D01*
X0148600Y0272811D01*
X0148600Y0276789D01*
X0147078Y0280465D01*
X0144265Y0283278D01*
X0140589Y0284800D01*
X0131411Y0284800D01*
X0127735Y0283278D01*
X0124922Y0280465D01*
X0123400Y0276789D01*
X0123400Y0272811D01*
X0124922Y0269135D01*
X0127735Y0266322D01*
X0131411Y0264800D01*
X0127503Y0266554D02*
X0008400Y0266554D01*
X0008400Y0268153D02*
X0125905Y0268153D01*
X0124667Y0269751D02*
X0008400Y0269751D01*
X0008400Y0271350D02*
X0124005Y0271350D01*
X0123400Y0272948D02*
X0008400Y0272948D01*
X0008400Y0274547D02*
X0123400Y0274547D01*
X0123400Y0276145D02*
X0008400Y0276145D01*
X0008400Y0277744D02*
X0123796Y0277744D01*
X0124458Y0279342D02*
X0008400Y0279342D01*
X0008400Y0280941D02*
X0125399Y0280941D01*
X0126997Y0282539D02*
X0008400Y0282539D01*
X0008400Y0284138D02*
X0062711Y0284138D01*
X0061696Y0284410D02*
X0064532Y0283650D01*
X0067468Y0283650D01*
X0070304Y0284410D01*
X0072846Y0285878D01*
X0074922Y0287954D01*
X0076390Y0290496D01*
X0077150Y0293332D01*
X0077150Y0296268D01*
X0076390Y0299104D01*
X0074922Y0301646D01*
X0072846Y0303722D01*
X0070304Y0305190D01*
X0067468Y0305950D01*
X0064532Y0305950D01*
X0061696Y0305190D01*
X0059154Y0303722D01*
X0057078Y0301646D01*
X0055610Y0299104D01*
X0054850Y0296268D01*
X0054850Y0293332D01*
X0055610Y0290496D01*
X0057078Y0287954D01*
X0059154Y0285878D01*
X0061696Y0284410D01*
X0059398Y0285737D02*
X0008400Y0285737D01*
X0008400Y0287335D02*
X0057697Y0287335D01*
X0056512Y0288934D02*
X0008400Y0288934D01*
X0008400Y0290532D02*
X0055600Y0290532D01*
X0055172Y0292131D02*
X0008400Y0292131D01*
X0008400Y0293729D02*
X0054850Y0293729D01*
X0054850Y0295328D02*
X0008400Y0295328D01*
X0008400Y0296926D02*
X0055026Y0296926D01*
X0055455Y0298525D02*
X0008400Y0298525D01*
X0008400Y0300123D02*
X0056198Y0300123D01*
X0057153Y0301722D02*
X0008400Y0301722D01*
X0008400Y0303320D02*
X0058752Y0303320D01*
X0061226Y0304919D02*
X0008400Y0304919D01*
X0008400Y0306517D02*
X0123400Y0306517D01*
X0123400Y0306789D02*
X0123400Y0302811D01*
X0124647Y0299800D01*
X0123400Y0296789D01*
X0123400Y0292811D01*
X0124922Y0289135D01*
X0127735Y0286322D01*
X0131411Y0284800D01*
X0140589Y0284800D01*
X0144265Y0286322D01*
X0147078Y0289135D01*
X0148600Y0292811D01*
X0148600Y0296789D01*
X0147353Y0299800D01*
X0148600Y0302811D01*
X0148600Y0306789D01*
X0147078Y0310465D01*
X0144265Y0313278D01*
X0140589Y0314800D01*
X0131411Y0314800D01*
X0127735Y0313278D01*
X0124922Y0310465D01*
X0123400Y0306789D01*
X0123949Y0308116D02*
X0008400Y0308116D01*
X0008400Y0309714D02*
X0096337Y0309714D01*
X0097063Y0309295D02*
X0099657Y0308600D01*
X0102343Y0308600D01*
X0104937Y0309295D01*
X0106925Y0310443D01*
X0107173Y0310545D01*
X0109255Y0312627D01*
X0109357Y0312875D01*
X0110505Y0314863D01*
X0111200Y0317457D01*
X0111200Y0337599D01*
X0111998Y0337138D01*
X0114635Y0336431D01*
X0117365Y0336431D01*
X0120002Y0337138D01*
X0122366Y0338503D01*
X0124297Y0340434D01*
X0125662Y0342798D01*
X0126368Y0345435D01*
X0126368Y0348165D01*
X0125662Y0350802D01*
X0124297Y0353166D01*
X0122366Y0355097D01*
X0120002Y0356462D01*
X0118740Y0356800D01*
X0120002Y0357138D01*
X0122366Y0358503D01*
X0124297Y0360434D01*
X0125662Y0362798D01*
X0126368Y0365435D01*
X0126368Y0368165D01*
X0125662Y0370802D01*
X0124297Y0373166D01*
X0122366Y0375097D01*
X0120002Y0376462D01*
X0117365Y0377168D01*
X0114635Y0377168D01*
X0111998Y0376462D01*
X0109634Y0375097D01*
X0107703Y0373166D01*
X0106338Y0370802D01*
X0105631Y0368165D01*
X0105631Y0366309D01*
X0074980Y0393245D01*
X0074263Y0393962D01*
X0073975Y0394128D01*
X0073724Y0394348D01*
X0072815Y0394798D01*
X0071937Y0395305D01*
X0071615Y0395391D01*
X0071317Y0395539D01*
X0070322Y0395737D01*
X0069343Y0396000D01*
X0069010Y0396000D01*
X0068683Y0396065D01*
X0067671Y0396000D01*
X0065943Y0396000D01*
X0065943Y0397241D01*
X0065198Y0400024D01*
X0063757Y0402519D01*
X0061719Y0404557D01*
X0059224Y0405998D01*
X0056441Y0406743D01*
X0053559Y0406743D01*
X0050776Y0405998D01*
X0048281Y0404557D01*
X0046243Y0402519D01*
X0044802Y0400024D01*
X0044057Y0397241D01*
X0044057Y0396000D01*
X0039225Y0396000D01*
X0035193Y0400032D01*
X0033757Y0402519D01*
X0031719Y0404557D01*
X0029224Y0405998D01*
X0026441Y0406743D01*
X0023559Y0406743D01*
X0020776Y0405998D01*
X0018281Y0404557D01*
X0016243Y0402519D01*
X0014802Y0400024D01*
X0014057Y0397241D01*
X0014057Y0394359D01*
X0014802Y0391576D01*
X0016243Y0389081D01*
X0018281Y0387043D01*
X0020768Y0385607D01*
X0028737Y0377638D01*
X0031063Y0376295D01*
X0033657Y0375600D01*
X0064155Y0375600D01*
X0090800Y0352185D01*
X0090800Y0317457D01*
X0091495Y0314863D01*
X0092643Y0312875D01*
X0092745Y0312627D01*
X0094827Y0310545D01*
X0095075Y0310443D01*
X0097063Y0309295D01*
X0094060Y0311313D02*
X0008400Y0311313D01*
X0008400Y0312911D02*
X0092622Y0312911D01*
X0091699Y0314510D02*
X0008400Y0314510D01*
X0008400Y0316108D02*
X0091161Y0316108D01*
X0090800Y0317707D02*
X0008400Y0317707D01*
X0008400Y0319305D02*
X0090800Y0319305D01*
X0090800Y0320904D02*
X0008400Y0320904D01*
X0008400Y0322502D02*
X0090800Y0322502D01*
X0090800Y0324101D02*
X0008400Y0324101D01*
X0008400Y0325699D02*
X0090800Y0325699D01*
X0090800Y0327298D02*
X0008400Y0327298D01*
X0008400Y0328896D02*
X0090800Y0328896D01*
X0090800Y0330495D02*
X0008400Y0330495D01*
X0008400Y0332093D02*
X0090800Y0332093D01*
X0090800Y0333692D02*
X0008400Y0333692D01*
X0008400Y0335290D02*
X0090800Y0335290D01*
X0090800Y0336889D02*
X0008400Y0336889D01*
X0008400Y0338487D02*
X0090800Y0338487D01*
X0090800Y0340086D02*
X0008400Y0340086D01*
X0008400Y0341684D02*
X0090800Y0341684D01*
X0090800Y0343283D02*
X0008400Y0343283D01*
X0008400Y0344881D02*
X0023467Y0344881D01*
X0023559Y0344857D02*
X0026441Y0344857D01*
X0029224Y0345602D01*
X0031719Y0347043D01*
X0033757Y0349081D01*
X0035198Y0351576D01*
X0035943Y0354359D01*
X0035943Y0357241D01*
X0035198Y0360024D01*
X0033757Y0362519D01*
X0031719Y0364557D01*
X0029224Y0365998D01*
X0026441Y0366743D01*
X0023559Y0366743D01*
X0020776Y0365998D01*
X0018281Y0364557D01*
X0016243Y0362519D01*
X0014802Y0360024D01*
X0014057Y0357241D01*
X0014057Y0354359D01*
X0014802Y0351576D01*
X0016243Y0349081D01*
X0018281Y0347043D01*
X0020776Y0345602D01*
X0023559Y0344857D01*
X0026533Y0344881D02*
X0053467Y0344881D01*
X0053559Y0344857D02*
X0056441Y0344857D01*
X0059224Y0345602D01*
X0061719Y0347043D01*
X0063757Y0349081D01*
X0065198Y0351576D01*
X0065943Y0354359D01*
X0065943Y0357241D01*
X0065198Y0360024D01*
X0063757Y0362519D01*
X0061719Y0364557D01*
X0059224Y0365998D01*
X0056441Y0366743D01*
X0053559Y0366743D01*
X0050776Y0365998D01*
X0048281Y0364557D01*
X0046243Y0362519D01*
X0044802Y0360024D01*
X0044057Y0357241D01*
X0044057Y0354359D01*
X0044802Y0351576D01*
X0046243Y0349081D01*
X0048281Y0347043D01*
X0050776Y0345602D01*
X0053559Y0344857D01*
X0056533Y0344881D02*
X0090800Y0344881D01*
X0090800Y0346480D02*
X0060744Y0346480D01*
X0062755Y0348078D02*
X0090800Y0348078D01*
X0090800Y0349677D02*
X0064101Y0349677D01*
X0065024Y0351275D02*
X0090800Y0351275D01*
X0090016Y0352874D02*
X0065545Y0352874D01*
X0065943Y0354472D02*
X0088197Y0354472D01*
X0086378Y0356071D02*
X0065943Y0356071D01*
X0065828Y0357670D02*
X0084559Y0357670D01*
X0082740Y0359268D02*
X0065400Y0359268D01*
X0064711Y0360867D02*
X0080921Y0360867D01*
X0079102Y0362465D02*
X0063788Y0362465D01*
X0062213Y0364064D02*
X0077283Y0364064D01*
X0075464Y0365662D02*
X0059805Y0365662D01*
X0050195Y0365662D02*
X0029805Y0365662D01*
X0032213Y0364064D02*
X0047787Y0364064D01*
X0046212Y0362465D02*
X0033788Y0362465D01*
X0034711Y0360867D02*
X0045289Y0360867D01*
X0044600Y0359268D02*
X0035400Y0359268D01*
X0035828Y0357670D02*
X0044172Y0357670D01*
X0044057Y0356071D02*
X0035943Y0356071D01*
X0035943Y0354472D02*
X0044057Y0354472D01*
X0044455Y0352874D02*
X0035545Y0352874D01*
X0035024Y0351275D02*
X0044976Y0351275D01*
X0045899Y0349677D02*
X0034101Y0349677D01*
X0032755Y0348078D02*
X0047245Y0348078D01*
X0049256Y0346480D02*
X0030744Y0346480D01*
X0019256Y0346480D02*
X0008400Y0346480D01*
X0008400Y0348078D02*
X0017245Y0348078D01*
X0015899Y0349677D02*
X0008400Y0349677D01*
X0008400Y0351275D02*
X0014976Y0351275D01*
X0014455Y0352874D02*
X0008400Y0352874D01*
X0008400Y0354472D02*
X0014057Y0354472D01*
X0014057Y0356071D02*
X0008400Y0356071D01*
X0008400Y0357670D02*
X0014172Y0357670D01*
X0014600Y0359268D02*
X0008400Y0359268D01*
X0008400Y0360867D02*
X0015289Y0360867D01*
X0016212Y0362465D02*
X0008400Y0362465D01*
X0008400Y0364064D02*
X0017787Y0364064D01*
X0020195Y0365662D02*
X0008400Y0365662D01*
X0008400Y0367261D02*
X0073645Y0367261D01*
X0071826Y0368859D02*
X0008400Y0368859D01*
X0008400Y0370458D02*
X0070007Y0370458D01*
X0068188Y0372056D02*
X0008400Y0372056D01*
X0008400Y0373655D02*
X0066369Y0373655D01*
X0064550Y0375253D02*
X0008400Y0375253D01*
X0008400Y0376852D02*
X0030099Y0376852D01*
X0027925Y0378450D02*
X0008400Y0378450D01*
X0008400Y0380049D02*
X0026326Y0380049D01*
X0024728Y0381647D02*
X0008400Y0381647D01*
X0008400Y0383246D02*
X0023129Y0383246D01*
X0021531Y0384844D02*
X0008400Y0384844D01*
X0008400Y0386443D02*
X0019321Y0386443D01*
X0017283Y0388041D02*
X0008400Y0388041D01*
X0008400Y0389640D02*
X0015920Y0389640D01*
X0014997Y0391238D02*
X0008400Y0391238D01*
X0008400Y0392837D02*
X0014465Y0392837D01*
X0014057Y0394435D02*
X0008400Y0394435D01*
X0008400Y0396034D02*
X0014057Y0396034D01*
X0014162Y0397632D02*
X0008400Y0397632D01*
X0008400Y0399231D02*
X0014590Y0399231D01*
X0015267Y0400829D02*
X0008400Y0400829D01*
X0008400Y0402428D02*
X0016190Y0402428D01*
X0017750Y0404026D02*
X0008400Y0404026D01*
X0008400Y0405625D02*
X0020131Y0405625D01*
X0029869Y0405625D02*
X0050131Y0405625D01*
X0047750Y0404026D02*
X0032250Y0404026D01*
X0033810Y0402428D02*
X0046190Y0402428D01*
X0045267Y0400829D02*
X0034733Y0400829D01*
X0035994Y0399231D02*
X0044590Y0399231D01*
X0044162Y0397632D02*
X0037593Y0397632D01*
X0039191Y0396034D02*
X0044057Y0396034D01*
X0059869Y0405625D02*
X0158000Y0405625D01*
X0158000Y0407223D02*
X0008400Y0407223D01*
X0008400Y0408822D02*
X0158000Y0408822D01*
X0158000Y0410420D02*
X0008400Y0410420D01*
X0008400Y0412019D02*
X0158000Y0412019D01*
X0158000Y0413617D02*
X0008400Y0413617D01*
X0008400Y0415216D02*
X0022219Y0415216D01*
X0023559Y0414857D02*
X0026441Y0414857D01*
X0029224Y0415602D01*
X0031719Y0417043D01*
X0033757Y0419081D01*
X0035198Y0421576D01*
X0035943Y0424359D01*
X0035943Y0427241D01*
X0035198Y0430024D01*
X0033757Y0432519D01*
X0031719Y0434557D01*
X0029224Y0435998D01*
X0026441Y0436743D01*
X0023559Y0436743D01*
X0020776Y0435998D01*
X0018281Y0434557D01*
X0016243Y0432519D01*
X0014802Y0430024D01*
X0014057Y0427241D01*
X0014057Y0424359D01*
X0014802Y0421576D01*
X0016243Y0419081D01*
X0018281Y0417043D01*
X0020776Y0415602D01*
X0023559Y0414857D01*
X0027781Y0415216D02*
X0052219Y0415216D01*
X0053559Y0414857D02*
X0056441Y0414857D01*
X0059224Y0415602D01*
X0061719Y0417043D01*
X0063757Y0419081D01*
X0065198Y0421576D01*
X0065943Y0424359D01*
X0065943Y0427241D01*
X0065198Y0430024D01*
X0063757Y0432519D01*
X0061719Y0434557D01*
X0059224Y0435998D01*
X0056441Y0436743D01*
X0053559Y0436743D01*
X0050776Y0435998D01*
X0048281Y0434557D01*
X0046243Y0432519D01*
X0044802Y0430024D01*
X0044057Y0427241D01*
X0044057Y0424359D01*
X0044802Y0421576D01*
X0046243Y0419081D01*
X0048281Y0417043D01*
X0050776Y0415602D01*
X0053559Y0414857D01*
X0057781Y0415216D02*
X0158000Y0415216D01*
X0158000Y0416814D02*
X0061323Y0416814D01*
X0063089Y0418413D02*
X0158000Y0418413D01*
X0158000Y0420011D02*
X0064294Y0420011D01*
X0065207Y0421610D02*
X0158000Y0421610D01*
X0158000Y0423208D02*
X0065635Y0423208D01*
X0065943Y0424807D02*
X0158000Y0424807D01*
X0158000Y0426405D02*
X0065943Y0426405D01*
X0065739Y0428004D02*
X0158000Y0428004D01*
X0158000Y0429603D02*
X0065310Y0429603D01*
X0064518Y0431201D02*
X0158000Y0431201D01*
X0158000Y0432800D02*
X0063477Y0432800D01*
X0061878Y0434398D02*
X0158000Y0434398D01*
X0158000Y0435997D02*
X0059226Y0435997D01*
X0050774Y0435997D02*
X0029226Y0435997D01*
X0031878Y0434398D02*
X0048122Y0434398D01*
X0046523Y0432800D02*
X0033477Y0432800D01*
X0034518Y0431201D02*
X0045482Y0431201D01*
X0044690Y0429603D02*
X0035310Y0429603D01*
X0035739Y0428004D02*
X0044261Y0428004D01*
X0044057Y0426405D02*
X0035943Y0426405D01*
X0035943Y0424807D02*
X0044057Y0424807D01*
X0044365Y0423208D02*
X0035635Y0423208D01*
X0035207Y0421610D02*
X0044793Y0421610D01*
X0045706Y0420011D02*
X0034294Y0420011D01*
X0033089Y0418413D02*
X0046911Y0418413D01*
X0048677Y0416814D02*
X0031323Y0416814D01*
X0018677Y0416814D02*
X0008400Y0416814D01*
X0008400Y0418413D02*
X0016911Y0418413D01*
X0015706Y0420011D02*
X0008400Y0420011D01*
X0008400Y0421610D02*
X0014793Y0421610D01*
X0014365Y0423208D02*
X0008400Y0423208D01*
X0008400Y0424807D02*
X0014057Y0424807D01*
X0014057Y0426405D02*
X0008400Y0426405D01*
X0008400Y0428004D02*
X0014261Y0428004D01*
X0014690Y0429603D02*
X0008400Y0429603D01*
X0008400Y0431201D02*
X0015482Y0431201D01*
X0016523Y0432800D02*
X0008400Y0432800D01*
X0008400Y0434398D02*
X0018122Y0434398D01*
X0020774Y0435997D02*
X0008400Y0435997D01*
X0008400Y0437595D02*
X0111206Y0437595D01*
X0111998Y0437138D02*
X0114635Y0436431D01*
X0117365Y0436431D01*
X0120002Y0437138D01*
X0122366Y0438503D01*
X0124297Y0440434D01*
X0125662Y0442798D01*
X0126368Y0445435D01*
X0126368Y0448165D01*
X0125662Y0450802D01*
X0124297Y0453166D01*
X0122366Y0455097D01*
X0120002Y0456462D01*
X0117365Y0457168D01*
X0114635Y0457168D01*
X0111998Y0456462D01*
X0109634Y0455097D01*
X0107703Y0453166D01*
X0106338Y0450802D01*
X0105631Y0448165D01*
X0105631Y0445435D01*
X0106338Y0442798D01*
X0107703Y0440434D01*
X0109634Y0438503D01*
X0111998Y0437138D01*
X0108943Y0439194D02*
X0008400Y0439194D01*
X0008400Y0440792D02*
X0107496Y0440792D01*
X0106573Y0442391D02*
X0008400Y0442391D01*
X0008400Y0443989D02*
X0106019Y0443989D01*
X0105631Y0445588D02*
X0008400Y0445588D01*
X0008400Y0447186D02*
X0105631Y0447186D01*
X0105798Y0448785D02*
X0008400Y0448785D01*
X0008400Y0450383D02*
X0106226Y0450383D01*
X0107019Y0451982D02*
X0008400Y0451982D01*
X0008400Y0453580D02*
X0108117Y0453580D01*
X0109775Y0455179D02*
X0008400Y0455179D01*
X0008400Y0456777D02*
X0113175Y0456777D01*
X0118825Y0456777D02*
X0158000Y0456777D01*
X0158000Y0455179D02*
X0122225Y0455179D01*
X0123883Y0453580D02*
X0158000Y0453580D01*
X0158000Y0451982D02*
X0124981Y0451982D01*
X0125774Y0450383D02*
X0158000Y0450383D01*
X0158000Y0448785D02*
X0126202Y0448785D01*
X0126368Y0447186D02*
X0158000Y0447186D01*
X0158000Y0445588D02*
X0126368Y0445588D01*
X0125981Y0443989D02*
X0158000Y0443989D01*
X0158000Y0442391D02*
X0125427Y0442391D01*
X0124504Y0440792D02*
X0158000Y0440792D01*
X0158000Y0439194D02*
X0123057Y0439194D01*
X0120794Y0437595D02*
X0158000Y0437595D01*
X0158000Y0458376D02*
X0008400Y0458376D01*
X0008400Y0459974D02*
X0158000Y0459974D01*
X0158000Y0461573D02*
X0008400Y0461573D01*
X0008400Y0463171D02*
X0158000Y0463171D01*
X0158000Y0464770D02*
X0008400Y0464770D01*
X0008400Y0466368D02*
X0158000Y0466368D01*
X0158000Y0467967D02*
X0008400Y0467967D01*
X0008400Y0469565D02*
X0158000Y0469565D01*
X0158000Y0471164D02*
X0008400Y0471164D01*
X0008400Y0472762D02*
X0158000Y0472762D01*
X0158000Y0474361D02*
X0008400Y0474361D01*
X0008400Y0475959D02*
X0158000Y0475959D01*
X0158000Y0477558D02*
X0008400Y0477558D01*
X0008400Y0479156D02*
X0158000Y0479156D01*
X0158000Y0480755D02*
X0008400Y0480755D01*
X0008400Y0482353D02*
X0158000Y0482353D01*
X0158000Y0483952D02*
X0008400Y0483952D01*
X0008400Y0485550D02*
X0158000Y0485550D01*
X0158000Y0487149D02*
X0008400Y0487149D01*
X0008400Y0488747D02*
X0158000Y0488747D01*
X0158000Y0490346D02*
X0008400Y0490346D01*
X0008400Y0491944D02*
X0158000Y0491944D01*
X0158000Y0493543D02*
X0008400Y0493543D01*
X0008400Y0495141D02*
X0158000Y0495141D01*
X0158000Y0496740D02*
X0008400Y0496740D01*
X0008400Y0498339D02*
X0158000Y0498339D01*
X0158000Y0499937D02*
X0008400Y0499937D01*
X0008400Y0501536D02*
X0044635Y0501536D01*
X0046411Y0500800D02*
X0055589Y0500800D01*
X0059265Y0502322D01*
X0062078Y0505135D01*
X0063600Y0508811D01*
X0063600Y0512789D01*
X0062078Y0516465D01*
X0059265Y0519278D01*
X0055589Y0520800D01*
X0046411Y0520800D01*
X0042735Y0519278D01*
X0039922Y0516465D01*
X0038400Y0512789D01*
X0038400Y0508811D01*
X0039922Y0505135D01*
X0042735Y0502322D01*
X0046411Y0500800D01*
X0041924Y0503134D02*
X0008400Y0503134D01*
X0008400Y0504733D02*
X0040325Y0504733D01*
X0039427Y0506331D02*
X0008400Y0506331D01*
X0008400Y0507930D02*
X0038765Y0507930D01*
X0038400Y0509528D02*
X0008400Y0509528D01*
X0008400Y0511127D02*
X0038400Y0511127D01*
X0038400Y0512725D02*
X0008400Y0512725D01*
X0008400Y0514324D02*
X0039036Y0514324D01*
X0039698Y0515922D02*
X0008400Y0515922D01*
X0008400Y0517521D02*
X0040979Y0517521D01*
X0042577Y0519119D02*
X0008400Y0519119D01*
X0008400Y0520718D02*
X0046212Y0520718D01*
X0055788Y0520718D02*
X0086212Y0520718D01*
X0086411Y0520800D02*
X0082735Y0519278D01*
X0079922Y0516465D01*
X0078400Y0512789D01*
X0078400Y0508811D01*
X0079922Y0505135D01*
X0082735Y0502322D01*
X0086411Y0500800D01*
X0095589Y0500800D01*
X0099265Y0502322D01*
X0102078Y0505135D01*
X0103600Y0508811D01*
X0103600Y0512789D01*
X0102078Y0516465D01*
X0099265Y0519278D01*
X0095589Y0520800D01*
X0086411Y0520800D01*
X0082577Y0519119D02*
X0059423Y0519119D01*
X0061021Y0517521D02*
X0080979Y0517521D01*
X0079698Y0515922D02*
X0062302Y0515922D01*
X0062964Y0514324D02*
X0079036Y0514324D01*
X0078400Y0512725D02*
X0063600Y0512725D01*
X0063600Y0511127D02*
X0078400Y0511127D01*
X0078400Y0509528D02*
X0063600Y0509528D01*
X0063235Y0507930D02*
X0078765Y0507930D01*
X0079427Y0506331D02*
X0062573Y0506331D01*
X0061675Y0504733D02*
X0080325Y0504733D01*
X0081924Y0503134D02*
X0060076Y0503134D01*
X0057365Y0501536D02*
X0084635Y0501536D01*
X0097365Y0501536D02*
X0158000Y0501536D01*
X0158000Y0503134D02*
X0100076Y0503134D01*
X0101675Y0504733D02*
X0158000Y0504733D01*
X0158000Y0506331D02*
X0102573Y0506331D01*
X0103235Y0507930D02*
X0158000Y0507930D01*
X0158000Y0509528D02*
X0103600Y0509528D01*
X0103600Y0511127D02*
X0158000Y0511127D01*
X0158000Y0512725D02*
X0103600Y0512725D01*
X0102964Y0514324D02*
X0158000Y0514324D01*
X0158000Y0515922D02*
X0102302Y0515922D01*
X0101021Y0517521D02*
X0158000Y0517521D01*
X0158000Y0519119D02*
X0099423Y0519119D01*
X0095788Y0520718D02*
X0158000Y0520718D01*
X0158000Y0522316D02*
X0008400Y0522316D01*
X0008400Y0523915D02*
X0158000Y0523915D01*
X0158000Y0525513D02*
X0008400Y0525513D01*
X0008400Y0527112D02*
X0158000Y0527112D01*
X0158000Y0528710D02*
X0008400Y0528710D01*
X0008400Y0530309D02*
X0158000Y0530309D01*
X0158000Y0531907D02*
X0008400Y0531907D01*
X0008400Y0533506D02*
X0158000Y0533506D01*
X0158000Y0535104D02*
X0008400Y0535104D01*
X0008400Y0536703D02*
X0158000Y0536703D01*
X0158000Y0538301D02*
X0008400Y0538301D01*
X0008400Y0539900D02*
X0158000Y0539900D01*
X0158000Y0541498D02*
X0008400Y0541498D01*
X0008400Y0543097D02*
X0158000Y0543097D01*
X0158000Y0544695D02*
X0008400Y0544695D01*
X0008400Y0546294D02*
X0158000Y0546294D01*
X0158000Y0547892D02*
X0008400Y0547892D01*
X0008400Y0549491D02*
X0158000Y0549491D01*
X0158000Y0551089D02*
X0140560Y0551089D01*
X0140999Y0551207D02*
X0137840Y0550361D01*
X0134570Y0550361D01*
X0131411Y0551207D01*
X0128579Y0552842D01*
X0126266Y0555154D01*
X0124631Y0557986D01*
X0123785Y0561145D01*
X0123785Y0574455D01*
X0124631Y0577613D01*
X0126266Y0580446D01*
X0128579Y0582758D01*
X0131411Y0584393D01*
X0134570Y0585239D01*
X0137840Y0585239D01*
X0140999Y0584393D01*
X0143831Y0582758D01*
X0146143Y0580446D01*
X0147778Y0577613D01*
X0148624Y0574455D01*
X0148624Y0561145D01*
X0147778Y0557986D01*
X0146143Y0555154D01*
X0143831Y0552842D01*
X0140999Y0551207D01*
X0143564Y0552688D02*
X0158000Y0552688D01*
X0158000Y0554286D02*
X0145275Y0554286D01*
X0146565Y0555885D02*
X0158000Y0555885D01*
X0158000Y0557483D02*
X0147488Y0557483D01*
X0148072Y0559082D02*
X0158000Y0559082D01*
X0158000Y0560680D02*
X0148500Y0560680D01*
X0148624Y0562279D02*
X0158000Y0562279D01*
X0158000Y0563877D02*
X0148624Y0563877D01*
X0148624Y0565476D02*
X0158000Y0565476D01*
X0158000Y0567074D02*
X0148624Y0567074D01*
X0148624Y0568673D02*
X0158000Y0568673D01*
X0158000Y0570272D02*
X0148624Y0570272D01*
X0148624Y0571870D02*
X0158000Y0571870D01*
X0158000Y0573469D02*
X0148624Y0573469D01*
X0148460Y0575067D02*
X0158000Y0575067D01*
X0158000Y0576666D02*
X0148032Y0576666D01*
X0147402Y0578264D02*
X0158000Y0578264D01*
X0158000Y0579863D02*
X0146480Y0579863D01*
X0145127Y0581461D02*
X0158000Y0581461D01*
X0158000Y0583060D02*
X0143308Y0583060D01*
X0140009Y0584658D02*
X0158000Y0584658D01*
X0158000Y0586257D02*
X0036917Y0586257D01*
X0036962Y0586212D02*
X0034412Y0588762D01*
X0031288Y0590566D01*
X0027804Y0591499D01*
X0024196Y0591499D01*
X0020712Y0590566D01*
X0017588Y0588762D01*
X0015038Y0586212D01*
X0013234Y0583088D01*
X0012301Y0579604D01*
X0012301Y0575996D01*
X0013234Y0572512D01*
X0015038Y0569388D01*
X0017588Y0566838D01*
X0020712Y0565034D01*
X0024196Y0564101D01*
X0027804Y0564101D01*
X0031288Y0565034D01*
X0034412Y0566838D01*
X0036962Y0569388D01*
X0038766Y0572512D01*
X0039699Y0575996D01*
X0039699Y0579604D01*
X0038766Y0583088D01*
X0036962Y0586212D01*
X0037859Y0584658D02*
X0069991Y0584658D01*
X0069001Y0584393D02*
X0066169Y0582758D01*
X0063857Y0580446D01*
X0062222Y0577613D01*
X0061376Y0574455D01*
X0061376Y0561145D01*
X0062222Y0557986D01*
X0063857Y0555154D01*
X0066169Y0552842D01*
X0069001Y0551207D01*
X0072160Y0550361D01*
X0075430Y0550361D01*
X0078589Y0551207D01*
X0081421Y0552842D01*
X0083733Y0555154D01*
X0085369Y0557986D01*
X0086215Y0561145D01*
X0086215Y0574455D01*
X0085369Y0577613D01*
X0083733Y0580446D01*
X0081421Y0582758D01*
X0078589Y0584393D01*
X0075430Y0585239D01*
X0072160Y0585239D01*
X0069001Y0584393D01*
X0066692Y0583060D02*
X0038773Y0583060D01*
X0039201Y0581461D02*
X0064873Y0581461D01*
X0063520Y0579863D02*
X0039630Y0579863D01*
X0039699Y0578264D02*
X0062598Y0578264D01*
X0061968Y0576666D02*
X0039699Y0576666D01*
X0039450Y0575067D02*
X0061540Y0575067D01*
X0061376Y0573469D02*
X0039022Y0573469D01*
X0038395Y0571870D02*
X0061376Y0571870D01*
X0061376Y0570272D02*
X0037472Y0570272D01*
X0036247Y0568673D02*
X0061376Y0568673D01*
X0061376Y0567074D02*
X0034648Y0567074D01*
X0032053Y0565476D02*
X0061376Y0565476D01*
X0061376Y0563877D02*
X0008400Y0563877D01*
X0008400Y0562279D02*
X0061376Y0562279D01*
X0061500Y0560680D02*
X0008400Y0560680D01*
X0008400Y0559082D02*
X0061928Y0559082D01*
X0062512Y0557483D02*
X0008400Y0557483D01*
X0008400Y0555885D02*
X0063435Y0555885D01*
X0064725Y0554286D02*
X0008400Y0554286D01*
X0008400Y0552688D02*
X0066436Y0552688D01*
X0069440Y0551089D02*
X0008400Y0551089D01*
X0008400Y0565476D02*
X0019947Y0565476D01*
X0017352Y0567074D02*
X0008400Y0567074D01*
X0008400Y0568673D02*
X0015753Y0568673D01*
X0014528Y0570272D02*
X0008400Y0570272D01*
X0008400Y0571870D02*
X0013605Y0571870D01*
X0012978Y0573469D02*
X0008400Y0573469D01*
X0008400Y0575067D02*
X0012550Y0575067D01*
X0012301Y0576666D02*
X0008400Y0576666D01*
X0008400Y0578264D02*
X0012301Y0578264D01*
X0012370Y0579863D02*
X0008400Y0579863D01*
X0008400Y0581461D02*
X0012799Y0581461D01*
X0013227Y0583060D02*
X0008400Y0583060D01*
X0008400Y0584658D02*
X0014141Y0584658D01*
X0015083Y0586257D02*
X0008400Y0586257D01*
X0008400Y0587855D02*
X0016682Y0587855D01*
X0018786Y0589454D02*
X0008400Y0589454D01*
X0008400Y0591052D02*
X0022528Y0591052D01*
X0029472Y0591052D02*
X0158000Y0591052D01*
X0158000Y0589454D02*
X0033214Y0589454D01*
X0035318Y0587855D02*
X0158000Y0587855D01*
X0158000Y0592651D02*
X0008400Y0592651D01*
X0008400Y0594249D02*
X0158000Y0594249D01*
X0158000Y0595400D02*
X0158000Y0313387D01*
X0157735Y0313278D01*
X0154922Y0310465D01*
X0153400Y0306789D01*
X0153400Y0302811D01*
X0154647Y0299800D01*
X0153400Y0296789D01*
X0153400Y0292811D01*
X0154647Y0289800D01*
X0153400Y0286789D01*
X0153400Y0282811D01*
X0154647Y0279800D01*
X0153400Y0276789D01*
X0153400Y0272811D01*
X0154922Y0269135D01*
X0157735Y0266322D01*
X0158000Y0266213D01*
X0158000Y0010200D01*
X0008400Y0010200D01*
X0008400Y0595400D01*
X0158000Y0595400D01*
X0132400Y0584658D02*
X0077600Y0584658D01*
X0080899Y0583060D02*
X0129101Y0583060D01*
X0127282Y0581461D02*
X0082718Y0581461D01*
X0084070Y0579863D02*
X0125930Y0579863D01*
X0125007Y0578264D02*
X0084993Y0578264D01*
X0085623Y0576666D02*
X0124377Y0576666D01*
X0123949Y0575067D02*
X0086051Y0575067D01*
X0086215Y0573469D02*
X0123785Y0573469D01*
X0123785Y0571870D02*
X0086215Y0571870D01*
X0086215Y0570272D02*
X0123785Y0570272D01*
X0123785Y0568673D02*
X0086215Y0568673D01*
X0086215Y0567074D02*
X0123785Y0567074D01*
X0123785Y0565476D02*
X0086215Y0565476D01*
X0086215Y0563877D02*
X0123785Y0563877D01*
X0123785Y0562279D02*
X0086215Y0562279D01*
X0086090Y0560680D02*
X0123910Y0560680D01*
X0124338Y0559082D02*
X0085662Y0559082D01*
X0085078Y0557483D02*
X0124922Y0557483D01*
X0125845Y0555885D02*
X0084155Y0555885D01*
X0082865Y0554286D02*
X0127135Y0554286D01*
X0128846Y0552688D02*
X0081154Y0552688D01*
X0078150Y0551089D02*
X0131850Y0551089D01*
X0158000Y0404026D02*
X0062250Y0404026D01*
X0063810Y0402428D02*
X0158000Y0402428D01*
X0158000Y0400829D02*
X0064733Y0400829D01*
X0065410Y0399231D02*
X0158000Y0399231D01*
X0158000Y0397632D02*
X0065838Y0397632D01*
X0065943Y0396034D02*
X0068195Y0396034D01*
X0068841Y0396034D02*
X0158000Y0396034D01*
X0158000Y0394435D02*
X0073549Y0394435D01*
X0075444Y0392837D02*
X0158000Y0392837D01*
X0158000Y0391238D02*
X0077263Y0391238D01*
X0079082Y0389640D02*
X0158000Y0389640D01*
X0158000Y0388041D02*
X0080901Y0388041D01*
X0082720Y0386443D02*
X0158000Y0386443D01*
X0158000Y0384844D02*
X0084539Y0384844D01*
X0086358Y0383246D02*
X0158000Y0383246D01*
X0158000Y0381647D02*
X0088177Y0381647D01*
X0089996Y0380049D02*
X0158000Y0380049D01*
X0158000Y0378450D02*
X0091815Y0378450D01*
X0093634Y0376852D02*
X0113452Y0376852D01*
X0109904Y0375253D02*
X0095453Y0375253D01*
X0097272Y0373655D02*
X0108191Y0373655D01*
X0107062Y0372056D02*
X0099091Y0372056D01*
X0100910Y0370458D02*
X0106246Y0370458D01*
X0105817Y0368859D02*
X0102729Y0368859D01*
X0104548Y0367261D02*
X0105631Y0367261D01*
X0118548Y0376852D02*
X0158000Y0376852D01*
X0158000Y0375253D02*
X0122096Y0375253D01*
X0123809Y0373655D02*
X0158000Y0373655D01*
X0158000Y0372056D02*
X0124938Y0372056D01*
X0125754Y0370458D02*
X0158000Y0370458D01*
X0158000Y0368859D02*
X0126183Y0368859D01*
X0126368Y0367261D02*
X0158000Y0367261D01*
X0158000Y0365662D02*
X0126368Y0365662D01*
X0126001Y0364064D02*
X0158000Y0364064D01*
X0158000Y0362465D02*
X0125470Y0362465D01*
X0124547Y0360867D02*
X0158000Y0360867D01*
X0158000Y0359268D02*
X0123131Y0359268D01*
X0120923Y0357670D02*
X0158000Y0357670D01*
X0158000Y0356071D02*
X0120679Y0356071D01*
X0122991Y0354472D02*
X0158000Y0354472D01*
X0158000Y0352874D02*
X0124466Y0352874D01*
X0125389Y0351275D02*
X0158000Y0351275D01*
X0158000Y0349677D02*
X0125963Y0349677D01*
X0126368Y0348078D02*
X0158000Y0348078D01*
X0158000Y0346480D02*
X0126368Y0346480D01*
X0126220Y0344881D02*
X0158000Y0344881D01*
X0158000Y0343283D02*
X0125792Y0343283D01*
X0125019Y0341684D02*
X0158000Y0341684D01*
X0158000Y0340086D02*
X0123949Y0340086D01*
X0122339Y0338487D02*
X0158000Y0338487D01*
X0158000Y0336889D02*
X0119072Y0336889D01*
X0112928Y0336889D02*
X0111200Y0336889D01*
X0111200Y0335290D02*
X0158000Y0335290D01*
X0158000Y0333692D02*
X0111200Y0333692D01*
X0111200Y0332093D02*
X0158000Y0332093D01*
X0158000Y0330495D02*
X0111200Y0330495D01*
X0111200Y0328896D02*
X0158000Y0328896D01*
X0158000Y0327298D02*
X0111200Y0327298D01*
X0111200Y0325699D02*
X0158000Y0325699D01*
X0158000Y0324101D02*
X0111200Y0324101D01*
X0111200Y0322502D02*
X0158000Y0322502D01*
X0158000Y0320904D02*
X0111200Y0320904D01*
X0111200Y0319305D02*
X0158000Y0319305D01*
X0158000Y0317707D02*
X0111200Y0317707D01*
X0110839Y0316108D02*
X0158000Y0316108D01*
X0158000Y0314510D02*
X0141290Y0314510D01*
X0144631Y0312911D02*
X0157369Y0312911D01*
X0155771Y0311313D02*
X0146229Y0311313D01*
X0147388Y0309714D02*
X0154612Y0309714D01*
X0153949Y0308116D02*
X0148051Y0308116D01*
X0148600Y0306517D02*
X0153400Y0306517D01*
X0153400Y0304919D02*
X0148600Y0304919D01*
X0148600Y0303320D02*
X0153400Y0303320D01*
X0153851Y0301722D02*
X0148149Y0301722D01*
X0147487Y0300123D02*
X0154513Y0300123D01*
X0154119Y0298525D02*
X0147881Y0298525D01*
X0148543Y0296926D02*
X0153457Y0296926D01*
X0153400Y0295328D02*
X0148600Y0295328D01*
X0148600Y0293729D02*
X0153400Y0293729D01*
X0153682Y0292131D02*
X0148318Y0292131D01*
X0147656Y0290532D02*
X0154344Y0290532D01*
X0154288Y0288934D02*
X0146876Y0288934D01*
X0145277Y0287335D02*
X0153626Y0287335D01*
X0153400Y0285737D02*
X0142850Y0285737D01*
X0142187Y0284138D02*
X0153400Y0284138D01*
X0153512Y0282539D02*
X0145003Y0282539D01*
X0146601Y0280941D02*
X0154175Y0280941D01*
X0154458Y0279342D02*
X0147542Y0279342D01*
X0148204Y0277744D02*
X0153796Y0277744D01*
X0153400Y0276145D02*
X0148600Y0276145D01*
X0148600Y0274547D02*
X0153400Y0274547D01*
X0153400Y0272948D02*
X0148600Y0272948D01*
X0147995Y0271350D02*
X0154005Y0271350D01*
X0154667Y0269751D02*
X0147333Y0269751D01*
X0146095Y0268153D02*
X0155905Y0268153D01*
X0157503Y0266554D02*
X0144497Y0266554D01*
X0140965Y0264956D02*
X0158000Y0264956D01*
X0129813Y0284138D02*
X0069289Y0284138D01*
X0072602Y0285737D02*
X0129150Y0285737D01*
X0126723Y0287335D02*
X0074303Y0287335D01*
X0075488Y0288934D02*
X0125124Y0288934D01*
X0124344Y0290532D02*
X0076400Y0290532D01*
X0076828Y0292131D02*
X0123682Y0292131D01*
X0123400Y0293729D02*
X0077150Y0293729D01*
X0077150Y0295328D02*
X0123400Y0295328D01*
X0123457Y0296926D02*
X0076974Y0296926D01*
X0076545Y0298525D02*
X0124119Y0298525D01*
X0124513Y0300123D02*
X0075802Y0300123D01*
X0074847Y0301722D02*
X0123851Y0301722D01*
X0123400Y0303320D02*
X0073248Y0303320D01*
X0070774Y0304919D02*
X0123400Y0304919D01*
X0124612Y0309714D02*
X0105663Y0309714D01*
X0107940Y0311313D02*
X0125771Y0311313D01*
X0127369Y0312911D02*
X0109378Y0312911D01*
X0110301Y0314510D02*
X0130710Y0314510D01*
X0109909Y0181833D02*
X0008400Y0181833D01*
X0008400Y0180235D02*
X0107771Y0180235D01*
X0106397Y0178636D02*
X0008400Y0178636D01*
X0008400Y0177038D02*
X0105474Y0177038D01*
X0104973Y0175439D02*
X0008400Y0175439D01*
X0008400Y0173841D02*
X0104631Y0173841D01*
X0104631Y0172242D02*
X0008400Y0172242D01*
X0008400Y0170644D02*
X0104844Y0170644D01*
X0105272Y0169045D02*
X0008400Y0169045D01*
X0008400Y0167447D02*
X0106118Y0167447D01*
X0107289Y0165848D02*
X0008400Y0165848D01*
X0008400Y0164250D02*
X0109073Y0164250D01*
X0122154Y0100309D02*
X0158000Y0100309D01*
X0158000Y0098711D02*
X0123560Y0098711D01*
X0124483Y0097112D02*
X0158000Y0097112D01*
X0158000Y0095514D02*
X0125007Y0095514D01*
X0125368Y0093915D02*
X0158000Y0093915D01*
X0158000Y0092317D02*
X0125368Y0092317D01*
X0125176Y0090718D02*
X0158000Y0090718D01*
X0158000Y0089120D02*
X0124748Y0089120D01*
X0123925Y0087521D02*
X0158000Y0087521D01*
X0158000Y0085923D02*
X0122786Y0085923D01*
X0121056Y0084324D02*
X0158000Y0084324D01*
X0158000Y0082726D02*
X0118018Y0082726D01*
X0121314Y0081127D02*
X0158000Y0081127D01*
X0158000Y0079529D02*
X0122935Y0079529D01*
X0124011Y0077930D02*
X0158000Y0077930D01*
X0158000Y0076332D02*
X0124788Y0076332D01*
X0125216Y0074733D02*
X0158000Y0074733D01*
X0158000Y0073134D02*
X0125368Y0073134D01*
X0125368Y0071536D02*
X0158000Y0071536D01*
X0158000Y0069937D02*
X0124967Y0069937D01*
X0124397Y0068339D02*
X0158000Y0068339D01*
X0158000Y0066740D02*
X0123474Y0066740D01*
X0122005Y0065142D02*
X0158000Y0065142D01*
X0158000Y0063543D02*
X0119704Y0063543D01*
X0158000Y0012391D02*
X0008400Y0012391D01*
X0008400Y0010793D02*
X0158000Y0010793D01*
D30*
X0175000Y0092800D02*
X0175000Y0104800D01*
X0231000Y0160800D01*
X0231000Y0183800D01*
X0272000Y0225800D01*
X0335000Y0225800D01*
X0333000Y0225800D02*
X0333000Y0211800D01*
X0356300Y0177500D01*
X0389100Y0177500D01*
X0416000Y0177500D01*
X0417700Y0177500D01*
X0417300Y0177500D02*
X0425000Y0169800D01*
X0425000Y0160800D01*
X0451000Y0160800D01*
X0451000Y0227800D01*
X0485000Y0191800D02*
X0517000Y0191800D01*
X0485000Y0191800D02*
X0477000Y0183800D01*
X0477000Y0160800D01*
X0451000Y0160800D01*
X0451000Y0087800D01*
X0485000Y0127800D02*
X0477000Y0135800D01*
X0477000Y0160800D01*
X0485000Y0127800D02*
X0513900Y0127800D01*
X0425000Y0150000D02*
X0425000Y0160800D01*
X0425000Y0150000D02*
X0418900Y0143900D01*
X0358100Y0143900D01*
X0334000Y0119800D01*
X0334000Y0092800D01*
X0126000Y0284800D02*
X0111000Y0269800D01*
X0126000Y0284800D02*
X0136000Y0284800D01*
X0388800Y0421800D02*
X0413000Y0421800D01*
X0418000Y0427800D01*
X0418000Y0437800D01*
X0442000Y0437800D01*
X0442000Y0368800D01*
X0486000Y0406100D02*
X0476000Y0416100D01*
X0476000Y0436800D01*
X0443000Y0436800D01*
X0442000Y0437800D02*
X0442000Y0511800D01*
X0483000Y0468800D02*
X0476000Y0461800D01*
X0476000Y0436800D01*
X0486000Y0406100D02*
X0514200Y0406100D01*
X0516000Y0468800D02*
X0483000Y0468800D01*
X0418000Y0449800D02*
X0418000Y0437800D01*
X0418000Y0449800D02*
X0413300Y0454500D01*
X0388100Y0454500D01*
X0752000Y0124800D02*
X0778000Y0124800D01*
X0827000Y0075800D01*
D31*
X0868000Y0254800D02*
X0906000Y0254800D01*
X0906000Y0334800D02*
X0868000Y0334800D01*
X0725000Y0259800D02*
X0693000Y0259800D01*
X0663000Y0259800D02*
X0631000Y0259800D01*
X0515000Y0226800D02*
X0514000Y0227800D01*
X0451000Y0246800D02*
X0451000Y0247800D01*
X0417300Y0177500D02*
X0416000Y0177500D01*
X0388700Y0160800D02*
X0342000Y0160800D01*
X0332000Y0150800D01*
X0515050Y0160750D02*
X0518100Y0163800D01*
X0515200Y0129100D02*
X0513900Y0127800D01*
X0515200Y0088000D02*
X0515000Y0087800D01*
X0336700Y0295600D02*
X0329200Y0295600D01*
X0306000Y0318800D01*
X0306000Y0352800D01*
X0251000Y0407800D01*
X0329000Y0409800D02*
X0329000Y0412800D01*
X0354000Y0437800D01*
X0387700Y0437800D01*
X0388800Y0421800D02*
X0387900Y0420900D01*
X0362100Y0420900D01*
X0348000Y0406800D01*
X0348000Y0378800D01*
X0336000Y0366800D01*
X0413000Y0421800D02*
X0418000Y0426800D01*
X0418000Y0427800D01*
X0442000Y0437800D02*
X0443000Y0436800D01*
X0417700Y0449500D02*
X0413300Y0454500D01*
X0388100Y0454500D02*
X0387800Y0454800D01*
X0358000Y0454800D01*
X0337000Y0475800D01*
X0337000Y0477800D01*
X0513000Y0471800D02*
X0516000Y0468800D01*
X0514200Y0406100D02*
X0515000Y0405300D01*
X0101000Y0356800D02*
X0101000Y0318800D01*
X0101000Y0356800D02*
X0068000Y0385800D01*
X0035000Y0385800D01*
X0025000Y0395800D01*
D32*
X0336700Y0295600D02*
X0350900Y0309800D01*
X0365000Y0309800D01*
X0402000Y0309800D01*
X0462000Y0309800D02*
X0482000Y0309800D01*
X0515000Y0348800D02*
X0532000Y0348800D01*
X0553000Y0369800D01*
X0553000Y0439800D01*
X0550950Y0437750D01*
X0514050Y0437750D01*
X0553000Y0439800D02*
X0553000Y0507800D01*
X0529000Y0531800D01*
X0513000Y0531800D01*
X0513000Y0511800D02*
X0513000Y0471800D01*
X0515000Y0405300D02*
X0515000Y0368800D01*
X0451000Y0269800D02*
X0451000Y0247800D01*
X0391000Y0269800D02*
X0365000Y0269800D01*
X0515000Y0226800D02*
X0515000Y0190800D01*
X0518100Y0163800D02*
X0553000Y0163800D01*
X0553000Y0085800D01*
X0535000Y0067800D01*
X0515000Y0067800D01*
X0515200Y0088000D02*
X0515200Y0129100D01*
X0553000Y0163800D02*
X0553000Y0235800D01*
X0566000Y0247800D01*
X0575000Y0247800D01*
D33*
X0631000Y0259800D03*
X0725000Y0259800D03*
X0101000Y0318800D03*
D34*
X0336000Y0346800D02*
X0357000Y0346800D01*
X0388000Y0377800D01*
X0388000Y0403900D01*
X0388100Y0404000D01*
X0388000Y0471400D02*
X0388000Y0490800D01*
X0355000Y0523800D01*
X0337000Y0523800D01*
X0333000Y0245800D02*
X0361000Y0245800D01*
X0389000Y0217800D01*
X0389000Y0194400D01*
X0389100Y0127000D02*
X0389000Y0126900D01*
X0389000Y0095800D01*
X0366000Y0072800D01*
X0334000Y0072800D01*
M02*
