G75*
%MOIN*%
%OFA0B0*%
%FSLAX25Y25*%
%IPPOS*%
%LPD*%
%AMOC8*
5,1,8,0,0,1.08239X$1,22.5*
%
%ADD10C,0.13398*%
%ADD11C,0.15750*%
%ADD12C,0.10839*%
%ADD13C,0.08300*%
%ADD14C,0.11300*%
%ADD15C,0.12650*%
%ADD16OC8,0.06000*%
%ADD17C,0.06000*%
%ADD18C,0.07887*%
%ADD19C,0.06737*%
%ADD20C,0.09050*%
%ADD21R,0.35800X0.16800*%
%ADD22R,0.35800X0.09300*%
%ADD23R,0.35800X0.05800*%
%ADD24R,0.35800X0.20300*%
%ADD25R,0.35800X0.35800*%
%ADD26C,0.06737*%
%ADD27C,0.10800*%
%ADD28OC8,0.10800*%
%ADD29OC8,0.06800*%
%ADD30R,0.04762X0.04762*%
D10*
X0026000Y0027800D03*
X0026000Y0027800D03*
X0576000Y0027800D03*
X0576000Y0027800D03*
X0576000Y0577800D03*
X0576000Y0577800D03*
X0026000Y0577800D03*
X0026000Y0577800D03*
D11*
X0631000Y0402800D03*
X0631000Y0402800D03*
X0975000Y0402800D03*
X0975000Y0402800D03*
X0975000Y0027800D03*
X0975000Y0027800D03*
X0631000Y0027800D03*
X0631000Y0027800D03*
D12*
X0627980Y0364005D02*
X0638020Y0364005D01*
X0638020Y0379595D02*
X0627980Y0379595D01*
X0692980Y0382005D02*
X0703020Y0382005D01*
X0703020Y0397595D02*
X0692980Y0397595D01*
X0151795Y0562780D02*
X0151795Y0572820D01*
X0136205Y0572820D02*
X0136205Y0562780D01*
X0073795Y0562780D02*
X0073795Y0572820D01*
X0058205Y0572820D02*
X0058205Y0562780D01*
D13*
X0066000Y0294800D03*
X0647000Y0072800D03*
D14*
X0636961Y0082839D03*
X0657039Y0082839D03*
X0657039Y0062761D03*
X0636961Y0062761D03*
X0076039Y0284761D03*
X0055961Y0284761D03*
X0055961Y0304839D03*
X0076039Y0304839D03*
D15*
X0336700Y0301525D02*
X0336700Y0289675D01*
X0575000Y0294025D02*
X0575000Y0282175D01*
X0771000Y0402875D02*
X0771000Y0414725D01*
X0895000Y0413725D02*
X0895000Y0401875D01*
X0986000Y0229025D02*
X0986000Y0217175D01*
X0896000Y0039725D02*
X0896000Y0027875D01*
X0770000Y0028875D02*
X0770000Y0040725D01*
X0401000Y0031725D02*
X0401000Y0019875D01*
X0206000Y0020875D02*
X0206000Y0032725D01*
X0377000Y0573875D02*
X0377000Y0585725D01*
X0205000Y0586725D02*
X0205000Y0574875D01*
D16*
X0337000Y0523800D03*
X0337000Y0503800D03*
X0442000Y0511800D03*
X0442000Y0531800D03*
X0289000Y0437800D03*
X0269000Y0437800D03*
X0289000Y0409800D03*
X0329000Y0409800D03*
X0336000Y0366800D03*
X0336000Y0346800D03*
X0442000Y0348800D03*
X0442000Y0368800D03*
X0633000Y0340800D03*
X0633000Y0320800D03*
X0744000Y0259800D03*
X0783000Y0255800D03*
X0803000Y0255800D03*
X0801000Y0283800D03*
X0801000Y0303800D03*
X0828000Y0311800D03*
X0868000Y0311800D03*
X0868000Y0294800D03*
X0868000Y0254800D03*
X0868000Y0230800D03*
X0866000Y0211800D03*
X0866000Y0190800D03*
X0826000Y0211800D03*
X0828000Y0230800D03*
X0744000Y0219800D03*
X0744000Y0203800D03*
X0744000Y0183800D03*
X0795000Y0155800D03*
X0795000Y0135800D03*
X0827000Y0135800D03*
X0867000Y0135800D03*
X0866000Y0150800D03*
X0867000Y0115800D03*
X0933000Y0115800D03*
X0933000Y0075800D03*
X0867000Y0075800D03*
X0803000Y0081800D03*
X0783000Y0081800D03*
X0732000Y0059800D03*
X0692000Y0059800D03*
X0692000Y0078800D03*
X0692000Y0098800D03*
X0451000Y0087800D03*
X0451000Y0067800D03*
X0334000Y0072800D03*
X0334000Y0092800D03*
X0332000Y0150800D03*
X0292000Y0150800D03*
X0292000Y0179800D03*
X0272000Y0179800D03*
X0211000Y0160800D03*
X0211000Y0210800D03*
X0211000Y0245800D03*
X0211000Y0265800D03*
X0211000Y0303800D03*
X0231000Y0303800D03*
X0231000Y0325800D03*
X0231000Y0385800D03*
X0333000Y0245800D03*
X0333000Y0225800D03*
X0451000Y0227800D03*
X0451000Y0247800D03*
X0868000Y0334800D03*
X0868000Y0374800D03*
X0933000Y0374800D03*
X0933000Y0334800D03*
X0933000Y0278800D03*
X0933000Y0238800D03*
X0933000Y0208800D03*
X0933000Y0168800D03*
D17*
X0898600Y0180800D02*
X0893400Y0180800D01*
X0888600Y0190800D02*
X0883400Y0190800D01*
X0893400Y0200800D02*
X0898600Y0200800D01*
X0868600Y0199800D02*
X0863400Y0199800D01*
X0828600Y0199800D02*
X0823400Y0199800D01*
X0825400Y0243800D02*
X0830600Y0243800D01*
X0865400Y0243800D02*
X0870600Y0243800D01*
X0893400Y0244800D02*
X0898600Y0244800D01*
X0903400Y0254800D02*
X0908600Y0254800D01*
X0898600Y0264800D02*
X0893400Y0264800D01*
X0893400Y0324800D02*
X0898600Y0324800D01*
X0903400Y0334800D02*
X0908600Y0334800D01*
X0898600Y0344800D02*
X0893400Y0344800D01*
X0870600Y0323800D02*
X0865400Y0323800D01*
X0830600Y0323800D02*
X0825400Y0323800D01*
X0764000Y0308400D02*
X0764000Y0303200D01*
X0754000Y0303200D02*
X0754000Y0308400D01*
X0744000Y0308400D02*
X0744000Y0303200D01*
X0744000Y0278400D02*
X0744000Y0273200D01*
X0754000Y0273200D02*
X0754000Y0278400D01*
X0764000Y0278400D02*
X0764000Y0273200D01*
X0700600Y0340800D02*
X0695400Y0340800D01*
X0660600Y0340800D02*
X0655400Y0340800D01*
X0660400Y0153800D02*
X0665600Y0153800D01*
X0665600Y0143800D02*
X0660400Y0143800D01*
X0660400Y0133800D02*
X0665600Y0133800D01*
X0665600Y0123800D02*
X0660400Y0123800D01*
X0690400Y0123800D02*
X0695600Y0123800D01*
X0695600Y0133800D02*
X0690400Y0133800D01*
X0690400Y0143800D02*
X0695600Y0143800D01*
X0695600Y0153800D02*
X0690400Y0153800D01*
X0732000Y0127400D02*
X0732000Y0122200D01*
X0742000Y0122200D02*
X0742000Y0127400D01*
X0752000Y0127400D02*
X0752000Y0122200D01*
X0752000Y0097400D02*
X0752000Y0092200D01*
X0742000Y0092200D02*
X0742000Y0097400D01*
X0732000Y0097400D02*
X0732000Y0092200D01*
X0824400Y0124800D02*
X0829600Y0124800D01*
X0864400Y0124800D02*
X0869600Y0124800D01*
X0883400Y0115800D02*
X0888600Y0115800D01*
X0893400Y0125800D02*
X0898600Y0125800D01*
X0898600Y0105800D02*
X0893400Y0105800D01*
X0334600Y0134800D02*
X0329400Y0134800D01*
X0294600Y0134800D02*
X0289400Y0134800D01*
X0251000Y0133400D02*
X0251000Y0128200D01*
X0241000Y0128200D02*
X0241000Y0133400D01*
X0231000Y0133400D02*
X0231000Y0128200D01*
X0231000Y0158200D02*
X0231000Y0163400D01*
X0241000Y0163400D02*
X0241000Y0158200D01*
X0251000Y0158200D02*
X0251000Y0163400D01*
X0168600Y0274800D02*
X0163400Y0274800D01*
X0163400Y0284800D02*
X0168600Y0284800D01*
X0168600Y0294800D02*
X0163400Y0294800D01*
X0163400Y0304800D02*
X0168600Y0304800D01*
X0138600Y0304800D02*
X0133400Y0304800D01*
X0133400Y0294800D02*
X0138600Y0294800D01*
X0138600Y0284800D02*
X0133400Y0284800D01*
X0133400Y0274800D02*
X0138600Y0274800D01*
X0286400Y0391800D02*
X0291600Y0391800D01*
X0326400Y0391800D02*
X0331600Y0391800D01*
X0251000Y0405200D02*
X0251000Y0410400D01*
X0241000Y0410400D02*
X0241000Y0405200D01*
X0231000Y0405200D02*
X0231000Y0410400D01*
X0231000Y0435200D02*
X0231000Y0440400D01*
X0241000Y0440400D02*
X0241000Y0435200D01*
X0251000Y0435200D02*
X0251000Y0440400D01*
X0093600Y0510800D02*
X0088400Y0510800D01*
X0053600Y0510800D02*
X0048400Y0510800D01*
D18*
X0055000Y0425800D03*
X0025000Y0425800D03*
X0025000Y0395800D03*
X0025000Y0375800D03*
X0055000Y0375800D03*
X0055000Y0395800D03*
X0055000Y0355800D03*
X0025000Y0355800D03*
X0663000Y0309800D03*
X0693000Y0309800D03*
X0693000Y0279800D03*
X0663000Y0279800D03*
X0663000Y0259800D03*
X0663000Y0239800D03*
X0693000Y0239800D03*
X0693000Y0259800D03*
D19*
X0828000Y0258769D02*
X0828000Y0252831D01*
X0828000Y0292831D02*
X0828000Y0298769D01*
X0828000Y0331831D02*
X0828000Y0337769D01*
X0828000Y0371831D02*
X0828000Y0377769D01*
X0826000Y0193769D02*
X0826000Y0187831D01*
X0826000Y0153769D02*
X0826000Y0147831D01*
X0827000Y0118769D02*
X0827000Y0112831D01*
X0827000Y0078769D02*
X0827000Y0072831D01*
X0333000Y0168831D02*
X0333000Y0174769D01*
X0333000Y0208831D02*
X0333000Y0214769D01*
X0337000Y0434831D02*
X0337000Y0440769D01*
X0337000Y0474831D02*
X0337000Y0480769D01*
D20*
X0575000Y0475925D02*
X0575000Y0467675D01*
X0575000Y0432925D02*
X0575000Y0424675D01*
X0575000Y0372925D02*
X0575000Y0364675D01*
X0575000Y0251925D02*
X0575000Y0243675D01*
X0575000Y0191925D02*
X0575000Y0183675D01*
X0575000Y0151925D02*
X0575000Y0143675D01*
X0575000Y0091925D02*
X0575000Y0083675D01*
X0959000Y0131675D02*
X0959000Y0139925D01*
X0984000Y0139925D02*
X0984000Y0131675D01*
X0984000Y0079925D02*
X0984000Y0071675D01*
X0959000Y0191675D02*
X0959000Y0199925D01*
X0986000Y0250675D02*
X0986000Y0258925D01*
X0986000Y0310675D02*
X0986000Y0318925D01*
X0960000Y0318925D02*
X0960000Y0310675D01*
X0960000Y0370675D02*
X0960000Y0378925D01*
X0575000Y0527675D02*
X0575000Y0535925D01*
D21*
X0388000Y0471400D03*
X0388100Y0404000D03*
X0389000Y0194400D03*
X0389100Y0127000D03*
D22*
X0388900Y0143900D03*
X0389100Y0177500D03*
X0387900Y0420900D03*
X0388100Y0454500D03*
D23*
X0388200Y0445200D03*
X0387700Y0437800D03*
X0387900Y0430500D03*
X0389200Y0168200D03*
X0388700Y0160800D03*
X0388900Y0153500D03*
D24*
X0515200Y0129100D03*
X0515200Y0192700D03*
X0514200Y0406100D03*
X0514200Y0469700D03*
D25*
X0514050Y0437750D03*
X0515050Y0160750D03*
D26*
X0175000Y0162800D03*
X0175000Y0152800D03*
X0115000Y0152800D03*
X0115000Y0162800D03*
X0115000Y0172800D03*
X0115000Y0092800D03*
X0115000Y0072800D03*
X0175000Y0072800D03*
X0175000Y0092800D03*
X0176000Y0346800D03*
X0176000Y0366800D03*
X0116000Y0366800D03*
X0116000Y0346800D03*
X0116000Y0426800D03*
X0116000Y0436800D03*
X0116000Y0446800D03*
X0176000Y0436800D03*
X0176000Y0426800D03*
D27*
X0261000Y0346800D03*
X0272000Y0245800D03*
X0514000Y0247800D03*
X0515000Y0348800D03*
X0260000Y0523800D03*
X0513000Y0531800D03*
X0252000Y0072800D03*
X0515000Y0067800D03*
D28*
X0515000Y0087800D03*
X0514000Y0227800D03*
X0515000Y0368800D03*
X0513000Y0511800D03*
X0260000Y0503800D03*
X0261000Y0366800D03*
X0272000Y0225800D03*
X0252000Y0092800D03*
D29*
X0280000Y0024800D03*
X0320000Y0024800D03*
X0365000Y0269800D03*
X0391000Y0269800D03*
X0451000Y0269800D03*
X0462000Y0309800D03*
X0482000Y0309800D03*
X0542000Y0309800D03*
X0402000Y0309800D03*
X0365000Y0309800D03*
X0807000Y0407800D03*
X0847000Y0407800D03*
X0304000Y0580800D03*
X0264000Y0580800D03*
X0805000Y0033800D03*
X0845000Y0033800D03*
D30*
X0725000Y0259800D03*
X0631000Y0259800D03*
X0101000Y0318800D03*
M02*
