G75*
%MOIN*%
%OFA0B0*%
%FSLAX25Y25*%
%IPPOS*%
%LPD*%
%AMOC8*
5,1,8,0,0,1.08239X$1,22.5*
%
%ADD10C,0.10039*%
%ADD11C,0.07500*%
%ADD12C,0.10500*%
%ADD13C,0.11850*%
%ADD14OC8,0.05200*%
%ADD15C,0.05200*%
%ADD16C,0.07087*%
%ADD17C,0.05937*%
%ADD18C,0.08250*%
%ADD19C,0.05937*%
%ADD20C,0.10000*%
%ADD21OC8,0.10000*%
%ADD22OC8,0.06000*%
%ADD23C,0.01600*%
%ADD24C,0.06600*%
%ADD25C,0.10000*%
%ADD26C,0.05600*%
%ADD27R,0.03962X0.03962*%
%ADD28C,0.08600*%
%ADD29C,0.15000*%
D10*
X0627980Y0364005D02*
X0638020Y0364005D01*
X0638020Y0379595D02*
X0627980Y0379595D01*
X0692980Y0382005D02*
X0703020Y0382005D01*
X0703020Y0397595D02*
X0692980Y0397595D01*
X0151795Y0562780D02*
X0151795Y0572820D01*
X0136205Y0572820D02*
X0136205Y0562780D01*
X0073795Y0562780D02*
X0073795Y0572820D01*
X0058205Y0572820D02*
X0058205Y0562780D01*
D11*
X0066000Y0294800D03*
X0647000Y0072800D03*
D12*
X0636961Y0082839D03*
X0657039Y0082839D03*
X0657039Y0062761D03*
X0636961Y0062761D03*
X0076039Y0284761D03*
X0055961Y0284761D03*
X0055961Y0304839D03*
X0076039Y0304839D03*
D13*
X0336700Y0301525D02*
X0336700Y0289675D01*
X0575000Y0294025D02*
X0575000Y0282175D01*
X0771000Y0402875D02*
X0771000Y0414725D01*
X0895000Y0413725D02*
X0895000Y0401875D01*
X0986000Y0229025D02*
X0986000Y0217175D01*
X0896000Y0039725D02*
X0896000Y0027875D01*
X0770000Y0028875D02*
X0770000Y0040725D01*
X0401000Y0031725D02*
X0401000Y0019875D01*
X0206000Y0020875D02*
X0206000Y0032725D01*
X0377000Y0573875D02*
X0377000Y0585725D01*
X0205000Y0586725D02*
X0205000Y0574875D01*
D14*
X0337000Y0523800D03*
X0337000Y0503800D03*
X0442000Y0511800D03*
X0442000Y0531800D03*
X0289000Y0437800D03*
X0269000Y0437800D03*
X0289000Y0409800D03*
X0329000Y0409800D03*
X0336000Y0366800D03*
X0336000Y0346800D03*
X0442000Y0348800D03*
X0442000Y0368800D03*
X0633000Y0340800D03*
X0633000Y0320800D03*
X0744000Y0259800D03*
X0783000Y0255800D03*
X0803000Y0255800D03*
X0801000Y0283800D03*
X0801000Y0303800D03*
X0828000Y0311800D03*
X0868000Y0311800D03*
X0868000Y0294800D03*
X0868000Y0254800D03*
X0868000Y0230800D03*
X0866000Y0211800D03*
X0866000Y0190800D03*
X0826000Y0211800D03*
X0828000Y0230800D03*
X0744000Y0219800D03*
X0744000Y0203800D03*
X0744000Y0183800D03*
X0795000Y0155800D03*
X0795000Y0135800D03*
X0827000Y0135800D03*
X0867000Y0135800D03*
X0866000Y0150800D03*
X0867000Y0115800D03*
X0933000Y0115800D03*
X0933000Y0075800D03*
X0867000Y0075800D03*
X0803000Y0081800D03*
X0783000Y0081800D03*
X0732000Y0059800D03*
X0692000Y0059800D03*
X0692000Y0078800D03*
X0692000Y0098800D03*
X0451000Y0087800D03*
X0451000Y0067800D03*
X0334000Y0072800D03*
X0334000Y0092800D03*
X0332000Y0150800D03*
X0292000Y0150800D03*
X0292000Y0179800D03*
X0272000Y0179800D03*
X0211000Y0160800D03*
X0211000Y0210800D03*
X0211000Y0245800D03*
X0211000Y0265800D03*
X0211000Y0303800D03*
X0231000Y0303800D03*
X0231000Y0325800D03*
X0231000Y0385800D03*
X0333000Y0245800D03*
X0333000Y0225800D03*
X0451000Y0227800D03*
X0451000Y0247800D03*
X0868000Y0334800D03*
X0868000Y0374800D03*
X0933000Y0374800D03*
X0933000Y0334800D03*
X0933000Y0278800D03*
X0933000Y0238800D03*
X0933000Y0208800D03*
X0933000Y0168800D03*
D15*
X0898600Y0180800D02*
X0893400Y0180800D01*
X0888600Y0190800D02*
X0883400Y0190800D01*
X0893400Y0200800D02*
X0898600Y0200800D01*
X0868600Y0199800D02*
X0863400Y0199800D01*
X0828600Y0199800D02*
X0823400Y0199800D01*
X0825400Y0243800D02*
X0830600Y0243800D01*
X0865400Y0243800D02*
X0870600Y0243800D01*
X0893400Y0244800D02*
X0898600Y0244800D01*
X0903400Y0254800D02*
X0908600Y0254800D01*
X0898600Y0264800D02*
X0893400Y0264800D01*
X0893400Y0324800D02*
X0898600Y0324800D01*
X0903400Y0334800D02*
X0908600Y0334800D01*
X0898600Y0344800D02*
X0893400Y0344800D01*
X0870600Y0323800D02*
X0865400Y0323800D01*
X0830600Y0323800D02*
X0825400Y0323800D01*
X0764000Y0308400D02*
X0764000Y0303200D01*
X0754000Y0303200D02*
X0754000Y0308400D01*
X0744000Y0308400D02*
X0744000Y0303200D01*
X0744000Y0278400D02*
X0744000Y0273200D01*
X0754000Y0273200D02*
X0754000Y0278400D01*
X0764000Y0278400D02*
X0764000Y0273200D01*
X0700600Y0340800D02*
X0695400Y0340800D01*
X0660600Y0340800D02*
X0655400Y0340800D01*
X0660400Y0153800D02*
X0665600Y0153800D01*
X0665600Y0143800D02*
X0660400Y0143800D01*
X0660400Y0133800D02*
X0665600Y0133800D01*
X0665600Y0123800D02*
X0660400Y0123800D01*
X0690400Y0123800D02*
X0695600Y0123800D01*
X0695600Y0133800D02*
X0690400Y0133800D01*
X0690400Y0143800D02*
X0695600Y0143800D01*
X0695600Y0153800D02*
X0690400Y0153800D01*
X0732000Y0127400D02*
X0732000Y0122200D01*
X0742000Y0122200D02*
X0742000Y0127400D01*
X0752000Y0127400D02*
X0752000Y0122200D01*
X0752000Y0097400D02*
X0752000Y0092200D01*
X0742000Y0092200D02*
X0742000Y0097400D01*
X0732000Y0097400D02*
X0732000Y0092200D01*
X0824400Y0124800D02*
X0829600Y0124800D01*
X0864400Y0124800D02*
X0869600Y0124800D01*
X0883400Y0115800D02*
X0888600Y0115800D01*
X0893400Y0125800D02*
X0898600Y0125800D01*
X0898600Y0105800D02*
X0893400Y0105800D01*
X0334600Y0134800D02*
X0329400Y0134800D01*
X0294600Y0134800D02*
X0289400Y0134800D01*
X0251000Y0133400D02*
X0251000Y0128200D01*
X0241000Y0128200D02*
X0241000Y0133400D01*
X0231000Y0133400D02*
X0231000Y0128200D01*
X0231000Y0158200D02*
X0231000Y0163400D01*
X0241000Y0163400D02*
X0241000Y0158200D01*
X0251000Y0158200D02*
X0251000Y0163400D01*
X0168600Y0274800D02*
X0163400Y0274800D01*
X0163400Y0284800D02*
X0168600Y0284800D01*
X0168600Y0294800D02*
X0163400Y0294800D01*
X0163400Y0304800D02*
X0168600Y0304800D01*
X0138600Y0304800D02*
X0133400Y0304800D01*
X0133400Y0294800D02*
X0138600Y0294800D01*
X0138600Y0284800D02*
X0133400Y0284800D01*
X0133400Y0274800D02*
X0138600Y0274800D01*
X0286400Y0391800D02*
X0291600Y0391800D01*
X0326400Y0391800D02*
X0331600Y0391800D01*
X0251000Y0405200D02*
X0251000Y0410400D01*
X0241000Y0410400D02*
X0241000Y0405200D01*
X0231000Y0405200D02*
X0231000Y0410400D01*
X0231000Y0435200D02*
X0231000Y0440400D01*
X0241000Y0440400D02*
X0241000Y0435200D01*
X0251000Y0435200D02*
X0251000Y0440400D01*
X0093600Y0510800D02*
X0088400Y0510800D01*
X0053600Y0510800D02*
X0048400Y0510800D01*
D16*
X0055000Y0425800D03*
X0025000Y0425800D03*
X0025000Y0395800D03*
X0025000Y0375800D03*
X0055000Y0375800D03*
X0055000Y0395800D03*
X0055000Y0355800D03*
X0025000Y0355800D03*
X0663000Y0309800D03*
X0693000Y0309800D03*
X0693000Y0279800D03*
X0663000Y0279800D03*
X0663000Y0259800D03*
X0663000Y0239800D03*
X0693000Y0239800D03*
X0693000Y0259800D03*
D17*
X0828000Y0258769D02*
X0828000Y0252831D01*
X0828000Y0292831D02*
X0828000Y0298769D01*
X0828000Y0331831D02*
X0828000Y0337769D01*
X0828000Y0371831D02*
X0828000Y0377769D01*
X0826000Y0193769D02*
X0826000Y0187831D01*
X0826000Y0153769D02*
X0826000Y0147831D01*
X0827000Y0118769D02*
X0827000Y0112831D01*
X0827000Y0078769D02*
X0827000Y0072831D01*
X0333000Y0168831D02*
X0333000Y0174769D01*
X0333000Y0208831D02*
X0333000Y0214769D01*
X0337000Y0434831D02*
X0337000Y0440769D01*
X0337000Y0474831D02*
X0337000Y0480769D01*
D18*
X0575000Y0475925D02*
X0575000Y0467675D01*
X0575000Y0432925D02*
X0575000Y0424675D01*
X0575000Y0372925D02*
X0575000Y0364675D01*
X0575000Y0251925D02*
X0575000Y0243675D01*
X0575000Y0191925D02*
X0575000Y0183675D01*
X0575000Y0151925D02*
X0575000Y0143675D01*
X0575000Y0091925D02*
X0575000Y0083675D01*
X0959000Y0131675D02*
X0959000Y0139925D01*
X0984000Y0139925D02*
X0984000Y0131675D01*
X0984000Y0079925D02*
X0984000Y0071675D01*
X0959000Y0191675D02*
X0959000Y0199925D01*
X0986000Y0250675D02*
X0986000Y0258925D01*
X0986000Y0310675D02*
X0986000Y0318925D01*
X0960000Y0318925D02*
X0960000Y0310675D01*
X0960000Y0370675D02*
X0960000Y0378925D01*
X0575000Y0527675D02*
X0575000Y0535925D01*
D19*
X0176000Y0436800D03*
X0176000Y0426800D03*
X0116000Y0426800D03*
X0116000Y0436800D03*
X0116000Y0446800D03*
X0116000Y0366800D03*
X0116000Y0346800D03*
X0176000Y0346800D03*
X0176000Y0366800D03*
X0115000Y0172800D03*
X0115000Y0162800D03*
X0115000Y0152800D03*
X0175000Y0152800D03*
X0175000Y0162800D03*
X0175000Y0092800D03*
X0175000Y0072800D03*
X0115000Y0072800D03*
X0115000Y0092800D03*
D20*
X0252000Y0072800D03*
X0515000Y0067800D03*
X0514000Y0247800D03*
X0515000Y0348800D03*
X0272000Y0245800D03*
X0261000Y0346800D03*
X0260000Y0523800D03*
X0513000Y0531800D03*
D21*
X0513000Y0511800D03*
X0515000Y0368800D03*
X0514000Y0227800D03*
X0515000Y0087800D03*
X0272000Y0225800D03*
X0252000Y0092800D03*
X0261000Y0366800D03*
X0260000Y0503800D03*
D22*
X0264000Y0580800D03*
X0304000Y0580800D03*
X0365000Y0309800D03*
X0402000Y0309800D03*
X0462000Y0309800D03*
X0482000Y0309800D03*
X0542000Y0309800D03*
X0451000Y0269800D03*
X0391000Y0269800D03*
X0365000Y0269800D03*
X0320000Y0024800D03*
X0280000Y0024800D03*
X0805000Y0033800D03*
X0845000Y0033800D03*
X0847000Y0407800D03*
X0807000Y0407800D03*
D23*
X0008400Y0354864D02*
X0008400Y0010200D01*
X0155000Y0010200D01*
X0155000Y0215264D01*
X0141864Y0228400D01*
X0058367Y0228400D01*
X0055214Y0229245D01*
X0052386Y0230878D01*
X0017386Y0265878D01*
X0015078Y0268186D01*
X0013445Y0271014D01*
X0012600Y0274167D01*
X0012600Y0350664D01*
X0008400Y0354864D01*
X0008400Y0354472D02*
X0008791Y0354472D01*
X0008400Y0352874D02*
X0010390Y0352874D01*
X0011988Y0351275D02*
X0008400Y0351275D01*
X0008400Y0349677D02*
X0012600Y0349677D01*
X0012600Y0348078D02*
X0008400Y0348078D01*
X0008400Y0346480D02*
X0012600Y0346480D01*
X0012600Y0344881D02*
X0008400Y0344881D01*
X0008400Y0343283D02*
X0012600Y0343283D01*
X0012600Y0341684D02*
X0008400Y0341684D01*
X0008400Y0340086D02*
X0012600Y0340086D01*
X0012600Y0338487D02*
X0008400Y0338487D01*
X0008400Y0336889D02*
X0012600Y0336889D01*
X0012600Y0335290D02*
X0008400Y0335290D01*
X0008400Y0333692D02*
X0012600Y0333692D01*
X0012600Y0332093D02*
X0008400Y0332093D01*
X0008400Y0330495D02*
X0012600Y0330495D01*
X0012600Y0328896D02*
X0008400Y0328896D01*
X0008400Y0327298D02*
X0012600Y0327298D01*
X0012600Y0325699D02*
X0008400Y0325699D01*
X0008400Y0324101D02*
X0012600Y0324101D01*
X0012600Y0322502D02*
X0008400Y0322502D01*
X0008400Y0320904D02*
X0012600Y0320904D01*
X0012600Y0319305D02*
X0008400Y0319305D01*
X0008400Y0317707D02*
X0012600Y0317707D01*
X0012600Y0316108D02*
X0008400Y0316108D01*
X0008400Y0314510D02*
X0012600Y0314510D01*
X0012600Y0312911D02*
X0008400Y0312911D01*
X0008400Y0311313D02*
X0012600Y0311313D01*
X0012600Y0309714D02*
X0008400Y0309714D01*
X0008400Y0308116D02*
X0012600Y0308116D01*
X0012600Y0306517D02*
X0008400Y0306517D01*
X0008400Y0304919D02*
X0012600Y0304919D01*
X0012600Y0303320D02*
X0008400Y0303320D01*
X0008400Y0301722D02*
X0012600Y0301722D01*
X0012600Y0300123D02*
X0008400Y0300123D01*
X0008400Y0298525D02*
X0012600Y0298525D01*
X0012600Y0296926D02*
X0008400Y0296926D01*
X0008400Y0295328D02*
X0012600Y0295328D01*
X0012600Y0293729D02*
X0008400Y0293729D01*
X0008400Y0292131D02*
X0012600Y0292131D01*
X0012600Y0290532D02*
X0008400Y0290532D01*
X0008400Y0288934D02*
X0012600Y0288934D01*
X0012600Y0287335D02*
X0008400Y0287335D01*
X0008400Y0285737D02*
X0012600Y0285737D01*
X0012600Y0284138D02*
X0008400Y0284138D01*
X0008400Y0282539D02*
X0012600Y0282539D01*
X0012600Y0280941D02*
X0008400Y0280941D01*
X0008400Y0279342D02*
X0012600Y0279342D01*
X0012600Y0277744D02*
X0008400Y0277744D01*
X0008400Y0276145D02*
X0012600Y0276145D01*
X0012600Y0274547D02*
X0008400Y0274547D01*
X0008400Y0272948D02*
X0012927Y0272948D01*
X0013355Y0271350D02*
X0008400Y0271350D01*
X0008400Y0269751D02*
X0014174Y0269751D01*
X0015111Y0268153D02*
X0008400Y0268153D01*
X0008400Y0266554D02*
X0016709Y0266554D01*
X0018308Y0264956D02*
X0008400Y0264956D01*
X0008400Y0263357D02*
X0019906Y0263357D01*
X0021505Y0261759D02*
X0008400Y0261759D01*
X0008400Y0260160D02*
X0023103Y0260160D01*
X0024702Y0258562D02*
X0008400Y0258562D01*
X0008400Y0256963D02*
X0026300Y0256963D01*
X0027899Y0255365D02*
X0008400Y0255365D01*
X0008400Y0253766D02*
X0029497Y0253766D01*
X0031096Y0252168D02*
X0008400Y0252168D01*
X0008400Y0250569D02*
X0032694Y0250569D01*
X0034293Y0248971D02*
X0008400Y0248971D01*
X0008400Y0247372D02*
X0035892Y0247372D01*
X0037490Y0245774D02*
X0008400Y0245774D01*
X0008400Y0244175D02*
X0039089Y0244175D01*
X0040687Y0242577D02*
X0008400Y0242577D01*
X0008400Y0240978D02*
X0042286Y0240978D01*
X0043884Y0239380D02*
X0008400Y0239380D01*
X0008400Y0237781D02*
X0045483Y0237781D01*
X0047081Y0236183D02*
X0008400Y0236183D01*
X0008400Y0234584D02*
X0048680Y0234584D01*
X0050278Y0232986D02*
X0008400Y0232986D01*
X0008400Y0231387D02*
X0051877Y0231387D01*
X0054272Y0229789D02*
X0008400Y0229789D01*
X0008400Y0228190D02*
X0142074Y0228190D01*
X0143672Y0226592D02*
X0008400Y0226592D01*
X0008400Y0224993D02*
X0145271Y0224993D01*
X0146869Y0223395D02*
X0008400Y0223395D01*
X0008400Y0221796D02*
X0148468Y0221796D01*
X0150066Y0220198D02*
X0008400Y0220198D01*
X0008400Y0218599D02*
X0151665Y0218599D01*
X0153263Y0217001D02*
X0008400Y0217001D01*
X0008400Y0215402D02*
X0154862Y0215402D01*
X0155000Y0213803D02*
X0008400Y0213803D01*
X0008400Y0212205D02*
X0155000Y0212205D01*
X0155000Y0210606D02*
X0008400Y0210606D01*
X0008400Y0209008D02*
X0155000Y0209008D01*
X0155000Y0207409D02*
X0008400Y0207409D01*
X0008400Y0205811D02*
X0155000Y0205811D01*
X0155000Y0204212D02*
X0008400Y0204212D01*
X0008400Y0202614D02*
X0155000Y0202614D01*
X0155000Y0201015D02*
X0008400Y0201015D01*
X0008400Y0199417D02*
X0155000Y0199417D01*
X0155000Y0197818D02*
X0008400Y0197818D01*
X0008400Y0196220D02*
X0155000Y0196220D01*
X0155000Y0194621D02*
X0008400Y0194621D01*
X0008400Y0193023D02*
X0155000Y0193023D01*
X0155000Y0191424D02*
X0008400Y0191424D01*
X0008400Y0189826D02*
X0155000Y0189826D01*
X0155000Y0188227D02*
X0008400Y0188227D01*
X0008400Y0186629D02*
X0155000Y0186629D01*
X0155000Y0185030D02*
X0008400Y0185030D01*
X0008400Y0183432D02*
X0155000Y0183432D01*
X0155000Y0181833D02*
X0120091Y0181833D01*
X0119002Y0182462D02*
X0116365Y0183168D01*
X0113635Y0183168D01*
X0110998Y0182462D01*
X0108634Y0181097D01*
X0106703Y0179166D01*
X0105338Y0176802D01*
X0104631Y0174165D01*
X0104631Y0171435D01*
X0105338Y0168798D01*
X0106703Y0166434D01*
X0108634Y0164503D01*
X0110998Y0163138D01*
X0113635Y0162431D01*
X0116365Y0162431D01*
X0119002Y0163138D01*
X0121366Y0164503D01*
X0123297Y0166434D01*
X0124662Y0168798D01*
X0125368Y0171435D01*
X0125368Y0174165D01*
X0124662Y0176802D01*
X0123297Y0179166D01*
X0121366Y0181097D01*
X0119002Y0182462D01*
X0122229Y0180235D02*
X0155000Y0180235D01*
X0155000Y0178636D02*
X0123603Y0178636D01*
X0124526Y0177038D02*
X0155000Y0177038D01*
X0155000Y0175439D02*
X0125027Y0175439D01*
X0125368Y0173841D02*
X0155000Y0173841D01*
X0155000Y0172242D02*
X0125368Y0172242D01*
X0125156Y0170644D02*
X0155000Y0170644D01*
X0155000Y0169045D02*
X0124728Y0169045D01*
X0123882Y0167447D02*
X0155000Y0167447D01*
X0155000Y0165848D02*
X0122711Y0165848D01*
X0120927Y0164250D02*
X0155000Y0164250D01*
X0155000Y0162651D02*
X0117185Y0162651D01*
X0112815Y0162651D02*
X0008400Y0162651D01*
X0008400Y0161053D02*
X0155000Y0161053D01*
X0155000Y0159454D02*
X0008400Y0159454D01*
X0008400Y0157856D02*
X0155000Y0157856D01*
X0155000Y0156257D02*
X0008400Y0156257D01*
X0008400Y0154659D02*
X0155000Y0154659D01*
X0155000Y0153060D02*
X0008400Y0153060D01*
X0008400Y0151462D02*
X0155000Y0151462D01*
X0155000Y0149863D02*
X0008400Y0149863D01*
X0008400Y0148265D02*
X0155000Y0148265D01*
X0155000Y0146666D02*
X0008400Y0146666D01*
X0008400Y0145068D02*
X0155000Y0145068D01*
X0155000Y0143469D02*
X0008400Y0143469D01*
X0008400Y0141870D02*
X0155000Y0141870D01*
X0155000Y0140272D02*
X0008400Y0140272D01*
X0008400Y0138673D02*
X0155000Y0138673D01*
X0155000Y0137075D02*
X0008400Y0137075D01*
X0008400Y0135476D02*
X0155000Y0135476D01*
X0155000Y0133878D02*
X0008400Y0133878D01*
X0008400Y0132279D02*
X0155000Y0132279D01*
X0155000Y0130681D02*
X0008400Y0130681D01*
X0008400Y0129082D02*
X0155000Y0129082D01*
X0155000Y0127484D02*
X0008400Y0127484D01*
X0008400Y0125885D02*
X0155000Y0125885D01*
X0155000Y0124287D02*
X0008400Y0124287D01*
X0008400Y0122688D02*
X0155000Y0122688D01*
X0155000Y0121090D02*
X0008400Y0121090D01*
X0008400Y0119491D02*
X0155000Y0119491D01*
X0155000Y0117893D02*
X0008400Y0117893D01*
X0008400Y0116294D02*
X0155000Y0116294D01*
X0155000Y0114696D02*
X0008400Y0114696D01*
X0008400Y0113097D02*
X0155000Y0113097D01*
X0155000Y0111499D02*
X0008400Y0111499D01*
X0008400Y0109900D02*
X0155000Y0109900D01*
X0155000Y0108302D02*
X0008400Y0108302D01*
X0008400Y0106703D02*
X0155000Y0106703D01*
X0155000Y0105105D02*
X0008400Y0105105D01*
X0008400Y0103506D02*
X0155000Y0103506D01*
X0155000Y0101908D02*
X0119962Y0101908D01*
X0119002Y0102462D02*
X0116365Y0103168D01*
X0113635Y0103168D01*
X0110998Y0102462D01*
X0108634Y0101097D01*
X0106703Y0099166D01*
X0105338Y0096802D01*
X0104631Y0094165D01*
X0104631Y0091435D01*
X0105338Y0088798D01*
X0106703Y0086434D01*
X0108634Y0084503D01*
X0110998Y0083138D01*
X0112260Y0082800D01*
X0110998Y0082462D01*
X0108634Y0081097D01*
X0106703Y0079166D01*
X0105338Y0076802D01*
X0104631Y0074165D01*
X0104631Y0071435D01*
X0105338Y0068798D01*
X0106703Y0066434D01*
X0108634Y0064503D01*
X0110998Y0063138D01*
X0113635Y0062431D01*
X0116365Y0062431D01*
X0119002Y0063138D01*
X0121366Y0064503D01*
X0123297Y0066434D01*
X0124662Y0068798D01*
X0125368Y0071435D01*
X0125368Y0074165D01*
X0124662Y0076802D01*
X0123297Y0079166D01*
X0121366Y0081097D01*
X0119002Y0082462D01*
X0117740Y0082800D01*
X0119002Y0083138D01*
X0121366Y0084503D01*
X0123297Y0086434D01*
X0124662Y0088798D01*
X0125368Y0091435D01*
X0125368Y0094165D01*
X0124662Y0096802D01*
X0123297Y0099166D01*
X0121366Y0101097D01*
X0119002Y0102462D01*
X0122154Y0100309D02*
X0155000Y0100309D01*
X0155000Y0098711D02*
X0123560Y0098711D01*
X0124483Y0097112D02*
X0155000Y0097112D01*
X0155000Y0095514D02*
X0125007Y0095514D01*
X0125368Y0093915D02*
X0155000Y0093915D01*
X0155000Y0092317D02*
X0125368Y0092317D01*
X0125176Y0090718D02*
X0155000Y0090718D01*
X0155000Y0089120D02*
X0124748Y0089120D01*
X0123925Y0087521D02*
X0155000Y0087521D01*
X0155000Y0085923D02*
X0122786Y0085923D01*
X0121056Y0084324D02*
X0155000Y0084324D01*
X0155000Y0082726D02*
X0118018Y0082726D01*
X0121314Y0081127D02*
X0155000Y0081127D01*
X0155000Y0079529D02*
X0122935Y0079529D01*
X0124011Y0077930D02*
X0155000Y0077930D01*
X0155000Y0076332D02*
X0124788Y0076332D01*
X0125216Y0074733D02*
X0155000Y0074733D01*
X0155000Y0073134D02*
X0125368Y0073134D01*
X0125368Y0071536D02*
X0155000Y0071536D01*
X0155000Y0069937D02*
X0124967Y0069937D01*
X0124397Y0068339D02*
X0155000Y0068339D01*
X0155000Y0066740D02*
X0123474Y0066740D01*
X0122005Y0065142D02*
X0155000Y0065142D01*
X0155000Y0063543D02*
X0119704Y0063543D01*
X0110296Y0063543D02*
X0008400Y0063543D01*
X0008400Y0061945D02*
X0155000Y0061945D01*
X0155000Y0060346D02*
X0008400Y0060346D01*
X0008400Y0058748D02*
X0155000Y0058748D01*
X0155000Y0057149D02*
X0008400Y0057149D01*
X0008400Y0055551D02*
X0155000Y0055551D01*
X0155000Y0053952D02*
X0008400Y0053952D01*
X0008400Y0052354D02*
X0155000Y0052354D01*
X0155000Y0050755D02*
X0008400Y0050755D01*
X0008400Y0049157D02*
X0155000Y0049157D01*
X0155000Y0047558D02*
X0008400Y0047558D01*
X0008400Y0045960D02*
X0155000Y0045960D01*
X0155000Y0044361D02*
X0008400Y0044361D01*
X0008400Y0042763D02*
X0155000Y0042763D01*
X0155000Y0041164D02*
X0029054Y0041164D01*
X0027804Y0041499D02*
X0024196Y0041499D01*
X0020712Y0040566D01*
X0017588Y0038762D01*
X0015038Y0036212D01*
X0013234Y0033088D01*
X0012301Y0029604D01*
X0012301Y0025996D01*
X0013234Y0022512D01*
X0015038Y0019388D01*
X0017588Y0016838D01*
X0020712Y0015034D01*
X0024196Y0014101D01*
X0027804Y0014101D01*
X0031288Y0015034D01*
X0034412Y0016838D01*
X0036962Y0019388D01*
X0038766Y0022512D01*
X0039699Y0025996D01*
X0039699Y0029604D01*
X0038766Y0033088D01*
X0036962Y0036212D01*
X0034412Y0038762D01*
X0031288Y0040566D01*
X0027804Y0041499D01*
X0022946Y0041164D02*
X0008400Y0041164D01*
X0008400Y0039566D02*
X0018980Y0039566D01*
X0016794Y0037967D02*
X0008400Y0037967D01*
X0008400Y0036369D02*
X0015195Y0036369D01*
X0014206Y0034770D02*
X0008400Y0034770D01*
X0008400Y0033172D02*
X0013283Y0033172D01*
X0012829Y0031573D02*
X0008400Y0031573D01*
X0008400Y0029975D02*
X0012400Y0029975D01*
X0012301Y0028376D02*
X0008400Y0028376D01*
X0008400Y0026778D02*
X0012301Y0026778D01*
X0012520Y0025179D02*
X0008400Y0025179D01*
X0008400Y0023581D02*
X0012948Y0023581D01*
X0013540Y0021982D02*
X0008400Y0021982D01*
X0008400Y0020384D02*
X0014463Y0020384D01*
X0015641Y0018785D02*
X0008400Y0018785D01*
X0008400Y0017187D02*
X0017240Y0017187D01*
X0019753Y0015588D02*
X0008400Y0015588D01*
X0008400Y0013990D02*
X0155000Y0013990D01*
X0155000Y0015588D02*
X0032247Y0015588D01*
X0034760Y0017187D02*
X0155000Y0017187D01*
X0155000Y0018785D02*
X0036359Y0018785D01*
X0037537Y0020384D02*
X0155000Y0020384D01*
X0155000Y0021982D02*
X0038460Y0021982D01*
X0039052Y0023581D02*
X0155000Y0023581D01*
X0155000Y0025179D02*
X0039480Y0025179D01*
X0039699Y0026778D02*
X0155000Y0026778D01*
X0155000Y0028376D02*
X0039699Y0028376D01*
X0039600Y0029975D02*
X0155000Y0029975D01*
X0155000Y0031573D02*
X0039171Y0031573D01*
X0038717Y0033172D02*
X0155000Y0033172D01*
X0155000Y0034770D02*
X0037794Y0034770D01*
X0036805Y0036369D02*
X0155000Y0036369D01*
X0155000Y0037967D02*
X0035206Y0037967D01*
X0033020Y0039566D02*
X0155000Y0039566D01*
X0155000Y0012391D02*
X0008400Y0012391D01*
X0008400Y0010793D02*
X0155000Y0010793D01*
X0107995Y0065142D02*
X0008400Y0065142D01*
X0008400Y0066740D02*
X0106526Y0066740D01*
X0105603Y0068339D02*
X0008400Y0068339D01*
X0008400Y0069937D02*
X0105033Y0069937D01*
X0104631Y0071536D02*
X0008400Y0071536D01*
X0008400Y0073134D02*
X0104631Y0073134D01*
X0104784Y0074733D02*
X0008400Y0074733D01*
X0008400Y0076332D02*
X0105212Y0076332D01*
X0105989Y0077930D02*
X0008400Y0077930D01*
X0008400Y0079529D02*
X0107065Y0079529D01*
X0108686Y0081127D02*
X0008400Y0081127D01*
X0008400Y0082726D02*
X0111982Y0082726D01*
X0108944Y0084324D02*
X0008400Y0084324D01*
X0008400Y0085923D02*
X0107214Y0085923D01*
X0106075Y0087521D02*
X0008400Y0087521D01*
X0008400Y0089120D02*
X0105252Y0089120D01*
X0104824Y0090718D02*
X0008400Y0090718D01*
X0008400Y0092317D02*
X0104631Y0092317D01*
X0104631Y0093915D02*
X0008400Y0093915D01*
X0008400Y0095514D02*
X0104993Y0095514D01*
X0105517Y0097112D02*
X0008400Y0097112D01*
X0008400Y0098711D02*
X0106440Y0098711D01*
X0107846Y0100309D02*
X0008400Y0100309D01*
X0008400Y0101908D02*
X0110038Y0101908D01*
X0109073Y0164250D02*
X0008400Y0164250D01*
X0008400Y0165848D02*
X0107289Y0165848D01*
X0106118Y0167447D02*
X0008400Y0167447D01*
X0008400Y0169045D02*
X0105272Y0169045D01*
X0104844Y0170644D02*
X0008400Y0170644D01*
X0008400Y0172242D02*
X0104631Y0172242D01*
X0104631Y0173841D02*
X0008400Y0173841D01*
X0008400Y0175439D02*
X0104973Y0175439D01*
X0105474Y0177038D02*
X0008400Y0177038D01*
X0008400Y0178636D02*
X0106397Y0178636D01*
X0107771Y0180235D02*
X0008400Y0180235D01*
X0008400Y0181833D02*
X0109909Y0181833D01*
X0148632Y0253200D02*
X0065136Y0253200D01*
X0037400Y0280936D01*
X0037400Y0343400D01*
X0052975Y0343400D01*
X0075737Y0320638D01*
X0078063Y0319295D01*
X0080657Y0318600D01*
X0090800Y0318600D01*
X0090800Y0317457D01*
X0091495Y0314863D01*
X0092643Y0312875D01*
X0092745Y0312627D01*
X0094827Y0310545D01*
X0094831Y0310544D01*
X0100375Y0305000D01*
X0070633Y0305000D01*
X0070304Y0305190D01*
X0067468Y0305950D01*
X0064532Y0305950D01*
X0061696Y0305190D01*
X0059154Y0303722D01*
X0057078Y0301646D01*
X0055610Y0299104D01*
X0054850Y0296268D01*
X0054850Y0293332D01*
X0055610Y0290496D01*
X0057078Y0287954D01*
X0059154Y0285878D01*
X0061696Y0284410D01*
X0064532Y0283650D01*
X0067468Y0283650D01*
X0070304Y0284410D01*
X0070633Y0284600D01*
X0130928Y0284600D01*
X0127735Y0283278D01*
X0124922Y0280465D01*
X0123400Y0276789D01*
X0123400Y0272811D01*
X0124922Y0269135D01*
X0127735Y0266322D01*
X0131411Y0264800D01*
X0133911Y0264800D01*
X0134657Y0264600D01*
X0145343Y0264600D01*
X0147937Y0265295D01*
X0150263Y0266638D01*
X0152162Y0268537D01*
X0154289Y0270664D01*
X0154922Y0269135D01*
X0155000Y0269058D01*
X0155000Y0250336D01*
X0154614Y0250722D01*
X0151786Y0252355D01*
X0148632Y0253200D01*
X0152110Y0252168D02*
X0155000Y0252168D01*
X0155000Y0253766D02*
X0064570Y0253766D01*
X0062971Y0255365D02*
X0155000Y0255365D01*
X0155000Y0256963D02*
X0061373Y0256963D01*
X0059774Y0258562D02*
X0155000Y0258562D01*
X0155000Y0260160D02*
X0058176Y0260160D01*
X0056577Y0261759D02*
X0155000Y0261759D01*
X0155000Y0263357D02*
X0054979Y0263357D01*
X0053380Y0264956D02*
X0131035Y0264956D01*
X0127503Y0266554D02*
X0051782Y0266554D01*
X0050183Y0268153D02*
X0125905Y0268153D01*
X0124667Y0269751D02*
X0048585Y0269751D01*
X0046986Y0271350D02*
X0124005Y0271350D01*
X0123400Y0272948D02*
X0045388Y0272948D01*
X0043789Y0274547D02*
X0123400Y0274547D01*
X0123400Y0276145D02*
X0042191Y0276145D01*
X0040592Y0277744D02*
X0123796Y0277744D01*
X0124458Y0279342D02*
X0038994Y0279342D01*
X0037400Y0280941D02*
X0125399Y0280941D01*
X0126997Y0282539D02*
X0037400Y0282539D01*
X0037400Y0284138D02*
X0062711Y0284138D01*
X0059398Y0285737D02*
X0037400Y0285737D01*
X0037400Y0287335D02*
X0057697Y0287335D01*
X0056512Y0288934D02*
X0037400Y0288934D01*
X0037400Y0290532D02*
X0055600Y0290532D01*
X0055172Y0292131D02*
X0037400Y0292131D01*
X0037400Y0293729D02*
X0054850Y0293729D01*
X0054850Y0295328D02*
X0037400Y0295328D01*
X0037400Y0296926D02*
X0055026Y0296926D01*
X0055455Y0298525D02*
X0037400Y0298525D01*
X0037400Y0300123D02*
X0056198Y0300123D01*
X0057153Y0301722D02*
X0037400Y0301722D01*
X0037400Y0303320D02*
X0058752Y0303320D01*
X0061226Y0304919D02*
X0037400Y0304919D01*
X0037400Y0306517D02*
X0098858Y0306517D01*
X0097259Y0308116D02*
X0037400Y0308116D01*
X0037400Y0309714D02*
X0095661Y0309714D01*
X0094060Y0311313D02*
X0037400Y0311313D01*
X0037400Y0312911D02*
X0092622Y0312911D01*
X0091699Y0314510D02*
X0037400Y0314510D01*
X0037400Y0316108D02*
X0091161Y0316108D01*
X0090800Y0317707D02*
X0037400Y0317707D01*
X0037400Y0319305D02*
X0078045Y0319305D01*
X0075471Y0320904D02*
X0037400Y0320904D01*
X0037400Y0322502D02*
X0073873Y0322502D01*
X0072274Y0324101D02*
X0037400Y0324101D01*
X0037400Y0325699D02*
X0070676Y0325699D01*
X0069077Y0327298D02*
X0037400Y0327298D01*
X0037400Y0328896D02*
X0067479Y0328896D01*
X0065880Y0330495D02*
X0037400Y0330495D01*
X0037400Y0332093D02*
X0064282Y0332093D01*
X0062683Y0333692D02*
X0037400Y0333692D01*
X0037400Y0335290D02*
X0061085Y0335290D01*
X0059486Y0336889D02*
X0037400Y0336889D01*
X0037400Y0338487D02*
X0057888Y0338487D01*
X0056289Y0340086D02*
X0037400Y0340086D01*
X0037400Y0341684D02*
X0054691Y0341684D01*
X0053092Y0343283D02*
X0037400Y0343283D01*
X0067256Y0357969D02*
X0066555Y0360586D01*
X0064922Y0363414D01*
X0062614Y0365722D01*
X0059786Y0367355D01*
X0056632Y0368200D01*
X0030136Y0368200D01*
X0022400Y0375936D01*
X0022400Y0385167D01*
X0023559Y0384857D01*
X0026441Y0384857D01*
X0029224Y0385602D01*
X0031719Y0387043D01*
X0033757Y0389081D01*
X0035198Y0391576D01*
X0035943Y0394359D01*
X0035943Y0397241D01*
X0035365Y0399400D01*
X0044635Y0399400D01*
X0044057Y0397241D01*
X0044057Y0394359D01*
X0044802Y0391576D01*
X0046243Y0389081D01*
X0048281Y0387043D01*
X0050776Y0385602D01*
X0053559Y0384857D01*
X0056441Y0384857D01*
X0059215Y0385600D01*
X0125775Y0385600D01*
X0139800Y0371575D01*
X0139800Y0339000D01*
X0122863Y0339000D01*
X0124297Y0340434D01*
X0125662Y0342798D01*
X0126368Y0345435D01*
X0126368Y0348165D01*
X0125662Y0350802D01*
X0124297Y0353166D01*
X0122366Y0355097D01*
X0120002Y0356462D01*
X0118740Y0356800D01*
X0120002Y0357138D01*
X0122366Y0358503D01*
X0124297Y0360434D01*
X0125662Y0362798D01*
X0126368Y0365435D01*
X0126368Y0368165D01*
X0125662Y0370802D01*
X0124297Y0373166D01*
X0122366Y0375097D01*
X0120002Y0376462D01*
X0117365Y0377168D01*
X0114635Y0377168D01*
X0111998Y0376462D01*
X0109634Y0375097D01*
X0107703Y0373166D01*
X0106338Y0370802D01*
X0105631Y0368165D01*
X0105631Y0365435D01*
X0106338Y0362798D01*
X0107703Y0360434D01*
X0109634Y0358503D01*
X0111998Y0357138D01*
X0113260Y0356800D01*
X0111998Y0356462D01*
X0109634Y0355097D01*
X0107703Y0353166D01*
X0106338Y0350802D01*
X0105631Y0348165D01*
X0105631Y0345435D01*
X0106338Y0342798D01*
X0107703Y0340434D01*
X0109137Y0339000D01*
X0086225Y0339000D01*
X0067256Y0357969D01*
X0067555Y0357670D02*
X0111077Y0357670D01*
X0111321Y0356071D02*
X0069154Y0356071D01*
X0070752Y0354472D02*
X0109009Y0354472D01*
X0107534Y0352874D02*
X0072351Y0352874D01*
X0073949Y0351275D02*
X0106611Y0351275D01*
X0106037Y0349677D02*
X0075548Y0349677D01*
X0077147Y0348078D02*
X0105631Y0348078D01*
X0105631Y0346480D02*
X0078745Y0346480D01*
X0080344Y0344881D02*
X0105780Y0344881D01*
X0106208Y0343283D02*
X0081942Y0343283D01*
X0083541Y0341684D02*
X0106981Y0341684D01*
X0108051Y0340086D02*
X0085139Y0340086D01*
X0066908Y0359268D02*
X0108869Y0359268D01*
X0107453Y0360867D02*
X0066393Y0360867D01*
X0065470Y0362465D02*
X0106530Y0362465D01*
X0105999Y0364064D02*
X0064273Y0364064D01*
X0062674Y0365662D02*
X0105631Y0365662D01*
X0105631Y0367261D02*
X0059950Y0367261D01*
X0049321Y0386443D02*
X0030679Y0386443D01*
X0032717Y0388041D02*
X0047283Y0388041D01*
X0045920Y0389640D02*
X0034080Y0389640D01*
X0035002Y0391238D02*
X0044997Y0391238D01*
X0044465Y0392837D02*
X0035535Y0392837D01*
X0035943Y0394435D02*
X0044057Y0394435D01*
X0044057Y0396034D02*
X0035943Y0396034D01*
X0035838Y0397632D02*
X0044162Y0397632D01*
X0044590Y0399231D02*
X0035410Y0399231D01*
X0022400Y0384844D02*
X0126531Y0384844D01*
X0128129Y0383246D02*
X0022400Y0383246D01*
X0022400Y0381647D02*
X0129728Y0381647D01*
X0131326Y0380049D02*
X0022400Y0380049D01*
X0022400Y0378450D02*
X0132925Y0378450D01*
X0134523Y0376852D02*
X0118548Y0376852D01*
X0122096Y0375253D02*
X0136122Y0375253D01*
X0137720Y0373655D02*
X0123809Y0373655D01*
X0124938Y0372056D02*
X0139319Y0372056D01*
X0139800Y0370458D02*
X0125754Y0370458D01*
X0126183Y0368859D02*
X0139800Y0368859D01*
X0139800Y0367261D02*
X0126368Y0367261D01*
X0126368Y0365662D02*
X0139800Y0365662D01*
X0139800Y0364064D02*
X0126001Y0364064D01*
X0125470Y0362465D02*
X0139800Y0362465D01*
X0139800Y0360867D02*
X0124547Y0360867D01*
X0123131Y0359268D02*
X0139800Y0359268D01*
X0139800Y0357670D02*
X0120923Y0357670D01*
X0120679Y0356071D02*
X0139800Y0356071D01*
X0139800Y0354472D02*
X0122991Y0354472D01*
X0124466Y0352874D02*
X0139800Y0352874D01*
X0139800Y0351275D02*
X0125389Y0351275D01*
X0125963Y0349677D02*
X0139800Y0349677D01*
X0139800Y0348078D02*
X0126368Y0348078D01*
X0126368Y0346480D02*
X0139800Y0346480D01*
X0139800Y0344881D02*
X0126220Y0344881D01*
X0125792Y0343283D02*
X0139800Y0343283D01*
X0139800Y0341684D02*
X0125019Y0341684D01*
X0123949Y0340086D02*
X0139800Y0340086D01*
X0105817Y0368859D02*
X0029477Y0368859D01*
X0027879Y0370458D02*
X0106246Y0370458D01*
X0107062Y0372056D02*
X0026280Y0372056D01*
X0024682Y0373655D02*
X0108191Y0373655D01*
X0109904Y0375253D02*
X0023083Y0375253D01*
X0022400Y0376852D02*
X0113452Y0376852D01*
X0155000Y0424200D02*
X0070936Y0424200D01*
X0100922Y0454186D01*
X0102555Y0457014D01*
X0103400Y0460167D01*
X0103400Y0505664D01*
X0146127Y0548391D01*
X0147760Y0551218D01*
X0148605Y0554372D01*
X0148605Y0561072D01*
X0148624Y0561145D01*
X0148624Y0574455D01*
X0147778Y0577613D01*
X0146143Y0580446D01*
X0143831Y0582758D01*
X0140999Y0584393D01*
X0137840Y0585239D01*
X0134570Y0585239D01*
X0131411Y0584393D01*
X0128579Y0582758D01*
X0126266Y0580446D01*
X0124631Y0577613D01*
X0123785Y0574455D01*
X0123785Y0561145D01*
X0123790Y0561126D01*
X0083386Y0520722D01*
X0081078Y0518414D01*
X0079993Y0516535D01*
X0079922Y0516465D01*
X0079847Y0516282D01*
X0079445Y0515586D01*
X0079237Y0514810D01*
X0078400Y0512789D01*
X0078400Y0508811D01*
X0078600Y0508328D01*
X0078600Y0466936D01*
X0045078Y0433414D01*
X0043445Y0430586D01*
X0042600Y0427432D01*
X0042600Y0424200D01*
X0041136Y0424200D01*
X0037400Y0427936D01*
X0037400Y0478664D01*
X0060922Y0502186D01*
X0062288Y0504552D01*
X0083718Y0525981D01*
X0085350Y0528809D01*
X0086195Y0531963D01*
X0086195Y0561072D01*
X0086215Y0561145D01*
X0086215Y0565682D01*
X0086400Y0566372D01*
X0086400Y0569637D01*
X0086215Y0570328D01*
X0086215Y0574455D01*
X0085369Y0577613D01*
X0083733Y0580446D01*
X0081421Y0582758D01*
X0078589Y0584393D01*
X0075430Y0585239D01*
X0072160Y0585239D01*
X0069001Y0584393D01*
X0066169Y0582758D01*
X0063857Y0580446D01*
X0062222Y0577613D01*
X0061376Y0574455D01*
X0061376Y0561145D01*
X0061395Y0561072D01*
X0061395Y0538732D01*
X0043386Y0520722D01*
X0041078Y0518414D01*
X0039993Y0516535D01*
X0039922Y0516465D01*
X0039847Y0516282D01*
X0039712Y0516048D01*
X0017386Y0493722D01*
X0015078Y0491414D01*
X0013445Y0488586D01*
X0012600Y0485432D01*
X0012600Y0429936D01*
X0008400Y0425736D01*
X0008400Y0595400D01*
X0155000Y0595400D01*
X0155000Y0424200D01*
X0155000Y0424807D02*
X0071543Y0424807D01*
X0073142Y0426405D02*
X0155000Y0426405D01*
X0155000Y0428004D02*
X0074740Y0428004D01*
X0076339Y0429603D02*
X0155000Y0429603D01*
X0155000Y0431201D02*
X0077937Y0431201D01*
X0079536Y0432800D02*
X0155000Y0432800D01*
X0155000Y0434398D02*
X0081134Y0434398D01*
X0082733Y0435997D02*
X0155000Y0435997D01*
X0155000Y0437595D02*
X0120794Y0437595D01*
X0120002Y0437138D02*
X0122366Y0438503D01*
X0124297Y0440434D01*
X0125662Y0442798D01*
X0126368Y0445435D01*
X0126368Y0448165D01*
X0125662Y0450802D01*
X0124297Y0453166D01*
X0122366Y0455097D01*
X0120002Y0456462D01*
X0117365Y0457168D01*
X0114635Y0457168D01*
X0111998Y0456462D01*
X0109634Y0455097D01*
X0107703Y0453166D01*
X0106338Y0450802D01*
X0105631Y0448165D01*
X0105631Y0445435D01*
X0106338Y0442798D01*
X0107703Y0440434D01*
X0109634Y0438503D01*
X0111998Y0437138D01*
X0114635Y0436431D01*
X0117365Y0436431D01*
X0120002Y0437138D01*
X0123057Y0439194D02*
X0155000Y0439194D01*
X0155000Y0440792D02*
X0124504Y0440792D01*
X0125427Y0442391D02*
X0155000Y0442391D01*
X0155000Y0443989D02*
X0125981Y0443989D01*
X0126368Y0445588D02*
X0155000Y0445588D01*
X0155000Y0447186D02*
X0126368Y0447186D01*
X0126202Y0448785D02*
X0155000Y0448785D01*
X0155000Y0450383D02*
X0125774Y0450383D01*
X0124981Y0451982D02*
X0155000Y0451982D01*
X0155000Y0453580D02*
X0123883Y0453580D01*
X0122225Y0455179D02*
X0155000Y0455179D01*
X0155000Y0456777D02*
X0118825Y0456777D01*
X0113175Y0456777D02*
X0102418Y0456777D01*
X0102920Y0458376D02*
X0155000Y0458376D01*
X0155000Y0459974D02*
X0103348Y0459974D01*
X0103400Y0461573D02*
X0155000Y0461573D01*
X0155000Y0463171D02*
X0103400Y0463171D01*
X0103400Y0464770D02*
X0155000Y0464770D01*
X0155000Y0466368D02*
X0103400Y0466368D01*
X0103400Y0467967D02*
X0155000Y0467967D01*
X0155000Y0469565D02*
X0103400Y0469565D01*
X0103400Y0471164D02*
X0155000Y0471164D01*
X0155000Y0472762D02*
X0103400Y0472762D01*
X0103400Y0474361D02*
X0155000Y0474361D01*
X0155000Y0475959D02*
X0103400Y0475959D01*
X0103400Y0477558D02*
X0155000Y0477558D01*
X0155000Y0479156D02*
X0103400Y0479156D01*
X0103400Y0480755D02*
X0155000Y0480755D01*
X0155000Y0482353D02*
X0103400Y0482353D01*
X0103400Y0483952D02*
X0155000Y0483952D01*
X0155000Y0485550D02*
X0103400Y0485550D01*
X0103400Y0487149D02*
X0155000Y0487149D01*
X0155000Y0488747D02*
X0103400Y0488747D01*
X0103400Y0490346D02*
X0155000Y0490346D01*
X0155000Y0491944D02*
X0103400Y0491944D01*
X0103400Y0493543D02*
X0155000Y0493543D01*
X0155000Y0495141D02*
X0103400Y0495141D01*
X0103400Y0496740D02*
X0155000Y0496740D01*
X0155000Y0498339D02*
X0103400Y0498339D01*
X0103400Y0499937D02*
X0155000Y0499937D01*
X0155000Y0501536D02*
X0103400Y0501536D01*
X0103400Y0503134D02*
X0155000Y0503134D01*
X0155000Y0504733D02*
X0103400Y0504733D01*
X0104067Y0506331D02*
X0155000Y0506331D01*
X0155000Y0507930D02*
X0105666Y0507930D01*
X0107264Y0509528D02*
X0155000Y0509528D01*
X0155000Y0511127D02*
X0108863Y0511127D01*
X0110461Y0512725D02*
X0155000Y0512725D01*
X0155000Y0514324D02*
X0112060Y0514324D01*
X0113658Y0515922D02*
X0155000Y0515922D01*
X0155000Y0517521D02*
X0115257Y0517521D01*
X0116855Y0519119D02*
X0155000Y0519119D01*
X0155000Y0520718D02*
X0118454Y0520718D01*
X0120052Y0522316D02*
X0155000Y0522316D01*
X0155000Y0523915D02*
X0121651Y0523915D01*
X0123249Y0525513D02*
X0155000Y0525513D01*
X0155000Y0527112D02*
X0124848Y0527112D01*
X0126446Y0528710D02*
X0155000Y0528710D01*
X0155000Y0530309D02*
X0128045Y0530309D01*
X0129643Y0531907D02*
X0155000Y0531907D01*
X0155000Y0533506D02*
X0131242Y0533506D01*
X0132841Y0535104D02*
X0155000Y0535104D01*
X0155000Y0536703D02*
X0134439Y0536703D01*
X0136038Y0538301D02*
X0155000Y0538301D01*
X0155000Y0539900D02*
X0137636Y0539900D01*
X0139235Y0541498D02*
X0155000Y0541498D01*
X0155000Y0543097D02*
X0140833Y0543097D01*
X0142432Y0544695D02*
X0155000Y0544695D01*
X0155000Y0546294D02*
X0144030Y0546294D01*
X0145629Y0547892D02*
X0155000Y0547892D01*
X0155000Y0549491D02*
X0146762Y0549491D01*
X0147685Y0551089D02*
X0155000Y0551089D01*
X0155000Y0552688D02*
X0148153Y0552688D01*
X0148582Y0554286D02*
X0155000Y0554286D01*
X0155000Y0555885D02*
X0148605Y0555885D01*
X0148605Y0557483D02*
X0155000Y0557483D01*
X0155000Y0559082D02*
X0148605Y0559082D01*
X0148605Y0560680D02*
X0155000Y0560680D01*
X0155000Y0562279D02*
X0148624Y0562279D01*
X0148624Y0563877D02*
X0155000Y0563877D01*
X0155000Y0565476D02*
X0148624Y0565476D01*
X0148624Y0567074D02*
X0155000Y0567074D01*
X0155000Y0568673D02*
X0148624Y0568673D01*
X0148624Y0570272D02*
X0155000Y0570272D01*
X0155000Y0571870D02*
X0148624Y0571870D01*
X0148624Y0573469D02*
X0155000Y0573469D01*
X0155000Y0575067D02*
X0148460Y0575067D01*
X0148032Y0576666D02*
X0155000Y0576666D01*
X0155000Y0578264D02*
X0147402Y0578264D01*
X0146480Y0579863D02*
X0155000Y0579863D01*
X0155000Y0581461D02*
X0145127Y0581461D01*
X0143308Y0583060D02*
X0155000Y0583060D01*
X0155000Y0584658D02*
X0140009Y0584658D01*
X0132400Y0584658D02*
X0077600Y0584658D01*
X0080899Y0583060D02*
X0129101Y0583060D01*
X0127282Y0581461D02*
X0082718Y0581461D01*
X0084070Y0579863D02*
X0125930Y0579863D01*
X0125007Y0578264D02*
X0084993Y0578264D01*
X0085623Y0576666D02*
X0124377Y0576666D01*
X0123949Y0575067D02*
X0086051Y0575067D01*
X0086215Y0573469D02*
X0123785Y0573469D01*
X0123785Y0571870D02*
X0086215Y0571870D01*
X0086230Y0570272D02*
X0123785Y0570272D01*
X0123785Y0568673D02*
X0086400Y0568673D01*
X0086400Y0567074D02*
X0123785Y0567074D01*
X0123785Y0565476D02*
X0086215Y0565476D01*
X0086215Y0563877D02*
X0123785Y0563877D01*
X0123785Y0562279D02*
X0086215Y0562279D01*
X0086195Y0560680D02*
X0123344Y0560680D01*
X0121746Y0559082D02*
X0086195Y0559082D01*
X0086195Y0557483D02*
X0120147Y0557483D01*
X0118549Y0555885D02*
X0086195Y0555885D01*
X0086195Y0554286D02*
X0116950Y0554286D01*
X0115352Y0552688D02*
X0086195Y0552688D01*
X0086195Y0551089D02*
X0113753Y0551089D01*
X0112155Y0549491D02*
X0086195Y0549491D01*
X0086195Y0547892D02*
X0110556Y0547892D01*
X0108958Y0546294D02*
X0086195Y0546294D01*
X0086195Y0544695D02*
X0107359Y0544695D01*
X0105761Y0543097D02*
X0086195Y0543097D01*
X0086195Y0541498D02*
X0104162Y0541498D01*
X0102564Y0539900D02*
X0086195Y0539900D01*
X0086195Y0538301D02*
X0100965Y0538301D01*
X0099367Y0536703D02*
X0086195Y0536703D01*
X0086195Y0535104D02*
X0097768Y0535104D01*
X0096170Y0533506D02*
X0086195Y0533506D01*
X0086180Y0531907D02*
X0094571Y0531907D01*
X0092973Y0530309D02*
X0085752Y0530309D01*
X0085293Y0528710D02*
X0091374Y0528710D01*
X0089775Y0527112D02*
X0084370Y0527112D01*
X0083249Y0525513D02*
X0088177Y0525513D01*
X0086578Y0523915D02*
X0081651Y0523915D01*
X0080052Y0522316D02*
X0084980Y0522316D01*
X0083381Y0520718D02*
X0078454Y0520718D01*
X0076855Y0519119D02*
X0081783Y0519119D01*
X0080562Y0517521D02*
X0075257Y0517521D01*
X0073658Y0515922D02*
X0079639Y0515922D01*
X0079036Y0514324D02*
X0072060Y0514324D01*
X0070461Y0512725D02*
X0078400Y0512725D01*
X0078400Y0511127D02*
X0068863Y0511127D01*
X0067264Y0509528D02*
X0078400Y0509528D01*
X0078600Y0507930D02*
X0065666Y0507930D01*
X0064067Y0506331D02*
X0078600Y0506331D01*
X0078600Y0504733D02*
X0062469Y0504733D01*
X0061470Y0503134D02*
X0078600Y0503134D01*
X0078600Y0501536D02*
X0060272Y0501536D01*
X0058673Y0499937D02*
X0078600Y0499937D01*
X0078600Y0498339D02*
X0057075Y0498339D01*
X0055476Y0496740D02*
X0078600Y0496740D01*
X0078600Y0495141D02*
X0053878Y0495141D01*
X0052279Y0493543D02*
X0078600Y0493543D01*
X0078600Y0491944D02*
X0050681Y0491944D01*
X0049082Y0490346D02*
X0078600Y0490346D01*
X0078600Y0488747D02*
X0047484Y0488747D01*
X0045885Y0487149D02*
X0078600Y0487149D01*
X0078600Y0485550D02*
X0044287Y0485550D01*
X0042688Y0483952D02*
X0078600Y0483952D01*
X0078600Y0482353D02*
X0041090Y0482353D01*
X0039491Y0480755D02*
X0078600Y0480755D01*
X0078600Y0479156D02*
X0037893Y0479156D01*
X0037400Y0477558D02*
X0078600Y0477558D01*
X0078600Y0475959D02*
X0037400Y0475959D01*
X0037400Y0474361D02*
X0078600Y0474361D01*
X0078600Y0472762D02*
X0037400Y0472762D01*
X0037400Y0471164D02*
X0078600Y0471164D01*
X0078600Y0469565D02*
X0037400Y0469565D01*
X0037400Y0467967D02*
X0078600Y0467967D01*
X0078032Y0466368D02*
X0037400Y0466368D01*
X0037400Y0464770D02*
X0076434Y0464770D01*
X0074835Y0463171D02*
X0037400Y0463171D01*
X0037400Y0461573D02*
X0073237Y0461573D01*
X0071638Y0459974D02*
X0037400Y0459974D01*
X0037400Y0458376D02*
X0070039Y0458376D01*
X0068441Y0456777D02*
X0037400Y0456777D01*
X0037400Y0455179D02*
X0066842Y0455179D01*
X0065244Y0453580D02*
X0037400Y0453580D01*
X0037400Y0451982D02*
X0063645Y0451982D01*
X0062047Y0450383D02*
X0037400Y0450383D01*
X0037400Y0448785D02*
X0060448Y0448785D01*
X0058850Y0447186D02*
X0037400Y0447186D01*
X0037400Y0445588D02*
X0057251Y0445588D01*
X0055653Y0443989D02*
X0037400Y0443989D01*
X0037400Y0442391D02*
X0054054Y0442391D01*
X0052456Y0440792D02*
X0037400Y0440792D01*
X0037400Y0439194D02*
X0050857Y0439194D01*
X0049259Y0437595D02*
X0037400Y0437595D01*
X0037400Y0435997D02*
X0047660Y0435997D01*
X0046062Y0434398D02*
X0037400Y0434398D01*
X0037400Y0432800D02*
X0044723Y0432800D01*
X0043800Y0431201D02*
X0037400Y0431201D01*
X0037400Y0429603D02*
X0043181Y0429603D01*
X0042753Y0428004D02*
X0037400Y0428004D01*
X0038931Y0426405D02*
X0042600Y0426405D01*
X0042600Y0424807D02*
X0040529Y0424807D01*
X0012600Y0431201D02*
X0008400Y0431201D01*
X0008400Y0429603D02*
X0012266Y0429603D01*
X0010668Y0428004D02*
X0008400Y0428004D01*
X0008400Y0426405D02*
X0009069Y0426405D01*
X0008400Y0432800D02*
X0012600Y0432800D01*
X0012600Y0434398D02*
X0008400Y0434398D01*
X0008400Y0435997D02*
X0012600Y0435997D01*
X0012600Y0437595D02*
X0008400Y0437595D01*
X0008400Y0439194D02*
X0012600Y0439194D01*
X0012600Y0440792D02*
X0008400Y0440792D01*
X0008400Y0442391D02*
X0012600Y0442391D01*
X0012600Y0443989D02*
X0008400Y0443989D01*
X0008400Y0445588D02*
X0012600Y0445588D01*
X0012600Y0447186D02*
X0008400Y0447186D01*
X0008400Y0448785D02*
X0012600Y0448785D01*
X0012600Y0450383D02*
X0008400Y0450383D01*
X0008400Y0451982D02*
X0012600Y0451982D01*
X0012600Y0453580D02*
X0008400Y0453580D01*
X0008400Y0455179D02*
X0012600Y0455179D01*
X0012600Y0456777D02*
X0008400Y0456777D01*
X0008400Y0458376D02*
X0012600Y0458376D01*
X0012600Y0459974D02*
X0008400Y0459974D01*
X0008400Y0461573D02*
X0012600Y0461573D01*
X0012600Y0463171D02*
X0008400Y0463171D01*
X0008400Y0464770D02*
X0012600Y0464770D01*
X0012600Y0466368D02*
X0008400Y0466368D01*
X0008400Y0467967D02*
X0012600Y0467967D01*
X0012600Y0469565D02*
X0008400Y0469565D01*
X0008400Y0471164D02*
X0012600Y0471164D01*
X0012600Y0472762D02*
X0008400Y0472762D01*
X0008400Y0474361D02*
X0012600Y0474361D01*
X0012600Y0475959D02*
X0008400Y0475959D01*
X0008400Y0477558D02*
X0012600Y0477558D01*
X0012600Y0479156D02*
X0008400Y0479156D01*
X0008400Y0480755D02*
X0012600Y0480755D01*
X0012600Y0482353D02*
X0008400Y0482353D01*
X0008400Y0483952D02*
X0012600Y0483952D01*
X0012632Y0485550D02*
X0008400Y0485550D01*
X0008400Y0487149D02*
X0013060Y0487149D01*
X0013538Y0488747D02*
X0008400Y0488747D01*
X0008400Y0490346D02*
X0014461Y0490346D01*
X0015608Y0491944D02*
X0008400Y0491944D01*
X0008400Y0493543D02*
X0017207Y0493543D01*
X0018805Y0495141D02*
X0008400Y0495141D01*
X0008400Y0496740D02*
X0020404Y0496740D01*
X0022002Y0498339D02*
X0008400Y0498339D01*
X0008400Y0499937D02*
X0023601Y0499937D01*
X0025199Y0501536D02*
X0008400Y0501536D01*
X0008400Y0503134D02*
X0026798Y0503134D01*
X0028396Y0504733D02*
X0008400Y0504733D01*
X0008400Y0506331D02*
X0029995Y0506331D01*
X0031593Y0507930D02*
X0008400Y0507930D01*
X0008400Y0509528D02*
X0033192Y0509528D01*
X0034790Y0511127D02*
X0008400Y0511127D01*
X0008400Y0512725D02*
X0036389Y0512725D01*
X0037987Y0514324D02*
X0008400Y0514324D01*
X0008400Y0515922D02*
X0039586Y0515922D01*
X0040562Y0517521D02*
X0008400Y0517521D01*
X0008400Y0519119D02*
X0041783Y0519119D01*
X0043381Y0520718D02*
X0008400Y0520718D01*
X0008400Y0522316D02*
X0044980Y0522316D01*
X0046578Y0523915D02*
X0008400Y0523915D01*
X0008400Y0525513D02*
X0048177Y0525513D01*
X0049775Y0527112D02*
X0008400Y0527112D01*
X0008400Y0528710D02*
X0051374Y0528710D01*
X0052972Y0530309D02*
X0008400Y0530309D01*
X0008400Y0531907D02*
X0054571Y0531907D01*
X0056170Y0533506D02*
X0008400Y0533506D01*
X0008400Y0535104D02*
X0057768Y0535104D01*
X0059367Y0536703D02*
X0008400Y0536703D01*
X0008400Y0538301D02*
X0060965Y0538301D01*
X0061395Y0539900D02*
X0008400Y0539900D01*
X0008400Y0541498D02*
X0061395Y0541498D01*
X0061395Y0543097D02*
X0008400Y0543097D01*
X0008400Y0544695D02*
X0061395Y0544695D01*
X0061395Y0546294D02*
X0008400Y0546294D01*
X0008400Y0547892D02*
X0061395Y0547892D01*
X0061395Y0549491D02*
X0008400Y0549491D01*
X0008400Y0551089D02*
X0061395Y0551089D01*
X0061395Y0552688D02*
X0008400Y0552688D01*
X0008400Y0554286D02*
X0061395Y0554286D01*
X0061395Y0555885D02*
X0008400Y0555885D01*
X0008400Y0557483D02*
X0061395Y0557483D01*
X0061395Y0559082D02*
X0008400Y0559082D01*
X0008400Y0560680D02*
X0061395Y0560680D01*
X0061376Y0562279D02*
X0008400Y0562279D01*
X0008400Y0563877D02*
X0061376Y0563877D01*
X0061376Y0565476D02*
X0032053Y0565476D01*
X0031288Y0565034D02*
X0034412Y0566838D01*
X0036962Y0569388D01*
X0038766Y0572512D01*
X0039699Y0575996D01*
X0039699Y0579604D01*
X0038766Y0583088D01*
X0036962Y0586212D01*
X0034412Y0588762D01*
X0031288Y0590566D01*
X0027804Y0591499D01*
X0024196Y0591499D01*
X0020712Y0590566D01*
X0017588Y0588762D01*
X0015038Y0586212D01*
X0013234Y0583088D01*
X0012301Y0579604D01*
X0012301Y0575996D01*
X0013234Y0572512D01*
X0015038Y0569388D01*
X0017588Y0566838D01*
X0020712Y0565034D01*
X0024196Y0564101D01*
X0027804Y0564101D01*
X0031288Y0565034D01*
X0034648Y0567074D02*
X0061376Y0567074D01*
X0061376Y0568673D02*
X0036247Y0568673D01*
X0037472Y0570272D02*
X0061376Y0570272D01*
X0061376Y0571870D02*
X0038395Y0571870D01*
X0039022Y0573469D02*
X0061376Y0573469D01*
X0061540Y0575067D02*
X0039450Y0575067D01*
X0039699Y0576666D02*
X0061968Y0576666D01*
X0062598Y0578264D02*
X0039699Y0578264D01*
X0039630Y0579863D02*
X0063520Y0579863D01*
X0064873Y0581461D02*
X0039201Y0581461D01*
X0038773Y0583060D02*
X0066692Y0583060D01*
X0069991Y0584658D02*
X0037859Y0584658D01*
X0036917Y0586257D02*
X0155000Y0586257D01*
X0155000Y0587855D02*
X0035318Y0587855D01*
X0033214Y0589454D02*
X0155000Y0589454D01*
X0155000Y0591052D02*
X0029472Y0591052D01*
X0022528Y0591052D02*
X0008400Y0591052D01*
X0008400Y0589454D02*
X0018786Y0589454D01*
X0016682Y0587855D02*
X0008400Y0587855D01*
X0008400Y0586257D02*
X0015083Y0586257D01*
X0014141Y0584658D02*
X0008400Y0584658D01*
X0008400Y0583060D02*
X0013227Y0583060D01*
X0012799Y0581461D02*
X0008400Y0581461D01*
X0008400Y0579863D02*
X0012370Y0579863D01*
X0012301Y0578264D02*
X0008400Y0578264D01*
X0008400Y0576666D02*
X0012301Y0576666D01*
X0012550Y0575067D02*
X0008400Y0575067D01*
X0008400Y0573469D02*
X0012978Y0573469D01*
X0013605Y0571870D02*
X0008400Y0571870D01*
X0008400Y0570272D02*
X0014528Y0570272D01*
X0015753Y0568673D02*
X0008400Y0568673D01*
X0008400Y0567074D02*
X0017352Y0567074D01*
X0019947Y0565476D02*
X0008400Y0565476D01*
X0008400Y0592651D02*
X0155000Y0592651D01*
X0155000Y0594249D02*
X0008400Y0594249D01*
X0101495Y0455179D02*
X0109775Y0455179D01*
X0108117Y0453580D02*
X0100316Y0453580D01*
X0098718Y0451982D02*
X0107019Y0451982D01*
X0106226Y0450383D02*
X0097119Y0450383D01*
X0095521Y0448785D02*
X0105798Y0448785D01*
X0105631Y0447186D02*
X0093922Y0447186D01*
X0092324Y0445588D02*
X0105631Y0445588D01*
X0106019Y0443989D02*
X0090725Y0443989D01*
X0089127Y0442391D02*
X0106573Y0442391D01*
X0107496Y0440792D02*
X0087528Y0440792D01*
X0085930Y0439194D02*
X0108943Y0439194D01*
X0111206Y0437595D02*
X0084331Y0437595D01*
X0069289Y0284138D02*
X0129813Y0284138D01*
X0150118Y0266554D02*
X0155000Y0266554D01*
X0155000Y0264956D02*
X0146671Y0264956D01*
X0151778Y0268153D02*
X0155000Y0268153D01*
X0154667Y0269751D02*
X0153376Y0269751D01*
X0154767Y0250569D02*
X0155000Y0250569D01*
X0613400Y0250569D02*
X0640300Y0250569D01*
X0640300Y0248971D02*
X0613400Y0248971D01*
X0613400Y0247372D02*
X0640300Y0247372D01*
X0640300Y0245774D02*
X0613400Y0245774D01*
X0613400Y0244175D02*
X0640300Y0244175D01*
X0640300Y0242577D02*
X0613400Y0242577D01*
X0613400Y0240978D02*
X0640300Y0240978D01*
X0640300Y0239380D02*
X0613400Y0239380D01*
X0613400Y0237781D02*
X0640300Y0237781D01*
X0640300Y0236183D02*
X0613400Y0236183D01*
X0613400Y0234584D02*
X0640300Y0234584D01*
X0640300Y0232986D02*
X0613400Y0232986D01*
X0613400Y0231387D02*
X0640300Y0231387D01*
X0640300Y0229789D02*
X0613400Y0229789D01*
X0613400Y0228190D02*
X0640300Y0228190D01*
X0640300Y0226592D02*
X0613400Y0226592D01*
X0613400Y0224993D02*
X0640300Y0224993D01*
X0640300Y0223395D02*
X0613400Y0223395D01*
X0613400Y0221796D02*
X0640300Y0221796D01*
X0640300Y0220198D02*
X0613400Y0220198D01*
X0613400Y0218599D02*
X0640300Y0218599D01*
X0640300Y0217001D02*
X0613400Y0217001D01*
X0613400Y0215402D02*
X0640300Y0215402D01*
X0640300Y0213803D02*
X0613400Y0213803D01*
X0613400Y0212205D02*
X0640300Y0212205D01*
X0640300Y0210606D02*
X0613400Y0210606D01*
X0613400Y0209008D02*
X0640300Y0209008D01*
X0640300Y0207409D02*
X0613400Y0207409D01*
X0613400Y0205811D02*
X0640300Y0205811D01*
X0640300Y0204212D02*
X0613400Y0204212D01*
X0613400Y0202614D02*
X0640300Y0202614D01*
X0640300Y0201015D02*
X0613400Y0201015D01*
X0613400Y0199417D02*
X0640300Y0199417D01*
X0640300Y0197818D02*
X0613400Y0197818D01*
X0613400Y0196220D02*
X0640300Y0196220D01*
X0640300Y0194621D02*
X0613400Y0194621D01*
X0613400Y0193023D02*
X0640300Y0193023D01*
X0640300Y0191424D02*
X0613400Y0191424D01*
X0613400Y0189826D02*
X0640300Y0189826D01*
X0640300Y0188227D02*
X0613400Y0188227D01*
X0613400Y0186629D02*
X0640300Y0186629D01*
X0640300Y0185030D02*
X0613400Y0185030D01*
X0613400Y0183432D02*
X0640300Y0183432D01*
X0640300Y0181833D02*
X0613400Y0181833D01*
X0613400Y0180235D02*
X0640300Y0180235D01*
X0640300Y0178636D02*
X0613400Y0178636D01*
X0613400Y0177038D02*
X0640300Y0177038D01*
X0640300Y0175439D02*
X0613400Y0175439D01*
X0613400Y0173841D02*
X0640300Y0173841D01*
X0640300Y0172242D02*
X0613400Y0172242D01*
X0613400Y0170644D02*
X0640300Y0170644D01*
X0640300Y0169045D02*
X0613400Y0169045D01*
X0613400Y0167447D02*
X0640300Y0167447D01*
X0640300Y0165848D02*
X0613400Y0165848D01*
X0613400Y0164250D02*
X0640300Y0164250D01*
X0640300Y0162651D02*
X0613400Y0162651D01*
X0613400Y0161053D02*
X0640300Y0161053D01*
X0640300Y0159454D02*
X0613400Y0159454D01*
X0613400Y0157856D02*
X0640300Y0157856D01*
X0640300Y0156257D02*
X0613400Y0156257D01*
X0613400Y0154659D02*
X0640300Y0154659D01*
X0640300Y0153060D02*
X0613400Y0153060D01*
X0613400Y0151462D02*
X0639529Y0151462D01*
X0640334Y0152266D02*
X0638438Y0150370D01*
X0637029Y0147930D01*
X0636300Y0145209D01*
X0636300Y0075947D01*
X0635850Y0074268D01*
X0635850Y0071332D01*
X0636610Y0068496D01*
X0638078Y0065954D01*
X0640154Y0063878D01*
X0642696Y0062410D01*
X0645532Y0061650D01*
X0648468Y0061650D01*
X0651304Y0062410D01*
X0653846Y0063878D01*
X0655922Y0065954D01*
X0657390Y0068496D01*
X0658150Y0071332D01*
X0658150Y0074268D01*
X0657700Y0075947D01*
X0657700Y0113100D01*
X0664409Y0113100D01*
X0667021Y0113800D01*
X0667589Y0113800D01*
X0671265Y0115322D01*
X0674078Y0118135D01*
X0675600Y0121811D01*
X0675600Y0125789D01*
X0674078Y0129465D01*
X0671265Y0132278D01*
X0667589Y0133800D01*
X0671265Y0135322D01*
X0671305Y0135363D01*
X0680540Y0126128D01*
X0680400Y0125789D01*
X0680400Y0121811D01*
X0681922Y0118135D01*
X0682059Y0117998D01*
X0681252Y0097820D01*
X0681872Y0095072D01*
X0682000Y0094828D01*
X0682000Y0094658D01*
X0682188Y0094469D01*
X0683182Y0092577D01*
X0685093Y0090507D01*
X0687475Y0089002D01*
X0687737Y0088920D01*
X0687858Y0088800D01*
X0687772Y0088714D01*
X0685430Y0087362D01*
X0683438Y0085370D01*
X0682086Y0083028D01*
X0682000Y0082942D01*
X0682000Y0082821D01*
X0681300Y0080209D01*
X0681300Y0058391D01*
X0682000Y0055779D01*
X0682000Y0055658D01*
X0682086Y0055572D01*
X0683438Y0053230D01*
X0685430Y0051238D01*
X0687772Y0049886D01*
X0687858Y0049800D01*
X0687979Y0049800D01*
X0690591Y0049100D01*
X0693409Y0049100D01*
X0696021Y0049800D01*
X0696142Y0049800D01*
X0696228Y0049886D01*
X0698570Y0051238D01*
X0700562Y0053230D01*
X0701914Y0055572D01*
X0702000Y0055658D01*
X0702000Y0055779D01*
X0702700Y0058391D01*
X0702700Y0080209D01*
X0702000Y0082821D01*
X0702000Y0082942D01*
X0701914Y0083028D01*
X0700562Y0085370D01*
X0698570Y0087362D01*
X0696228Y0088714D01*
X0696142Y0088800D01*
X0696331Y0088988D01*
X0698222Y0089982D01*
X0700293Y0091893D01*
X0701798Y0094275D01*
X0701880Y0094537D01*
X0702000Y0094658D01*
X0702000Y0094924D01*
X0702635Y0096965D01*
X0703457Y0117515D01*
X0704078Y0118135D01*
X0705600Y0121811D01*
X0705600Y0125789D01*
X0704353Y0128800D01*
X0705600Y0131811D01*
X0705600Y0133100D01*
X0728409Y0133100D01*
X0731130Y0133829D01*
X0731820Y0134227D01*
X0731634Y0133804D01*
X0731511Y0132997D01*
X0731300Y0132209D01*
X0731300Y0131610D01*
X0731210Y0131018D01*
X0731300Y0130207D01*
X0731300Y0123391D01*
X0732000Y0120779D01*
X0732000Y0120211D01*
X0733522Y0116535D01*
X0736335Y0113722D01*
X0739486Y0112418D01*
X0734328Y0107260D01*
X0733989Y0107400D01*
X0730011Y0107400D01*
X0726335Y0105878D01*
X0723522Y0103065D01*
X0722000Y0099389D01*
X0722000Y0098821D01*
X0721300Y0096209D01*
X0721300Y0058391D01*
X0722000Y0055779D01*
X0722000Y0055658D01*
X0722086Y0055572D01*
X0723438Y0053230D01*
X0725430Y0051238D01*
X0727772Y0049886D01*
X0727858Y0049800D01*
X0727979Y0049800D01*
X0730591Y0049100D01*
X0733409Y0049100D01*
X0736021Y0049800D01*
X0736142Y0049800D01*
X0736228Y0049886D01*
X0738570Y0051238D01*
X0740562Y0053230D01*
X0741914Y0055572D01*
X0742000Y0055658D01*
X0742000Y0055779D01*
X0742700Y0058391D01*
X0742700Y0082200D01*
X0743989Y0082200D01*
X0747000Y0083447D01*
X0747946Y0083055D01*
X0747087Y0010200D01*
X0613400Y0010200D01*
X0613400Y0420400D01*
X0751925Y0420400D01*
X0750715Y0317863D01*
X0748335Y0316878D01*
X0745522Y0314065D01*
X0744000Y0310389D01*
X0744000Y0307889D01*
X0743800Y0307143D01*
X0743800Y0297406D01*
X0743713Y0296675D01*
X0743800Y0296069D01*
X0743800Y0295457D01*
X0743991Y0294746D01*
X0744096Y0294016D01*
X0744337Y0293454D01*
X0744495Y0292863D01*
X0744863Y0292225D01*
X0745154Y0291548D01*
X0745532Y0291067D01*
X0745838Y0290537D01*
X0746359Y0290016D01*
X0746815Y0289437D01*
X0747304Y0289071D01*
X0747737Y0288638D01*
X0748375Y0288270D01*
X0748965Y0287828D01*
X0749533Y0287601D01*
X0749762Y0287469D01*
X0749000Y0287153D01*
X0745989Y0288400D01*
X0742011Y0288400D01*
X0738335Y0286878D01*
X0735522Y0284065D01*
X0734000Y0280389D01*
X0734000Y0279821D01*
X0733300Y0277209D01*
X0733300Y0258391D01*
X0734000Y0255779D01*
X0734000Y0255658D01*
X0734086Y0255572D01*
X0735438Y0253230D01*
X0737430Y0251238D01*
X0739772Y0249886D01*
X0739858Y0249800D01*
X0739979Y0249800D01*
X0742591Y0249100D01*
X0745409Y0249100D01*
X0748021Y0249800D01*
X0748142Y0249800D01*
X0748228Y0249886D01*
X0749925Y0250866D01*
X0749666Y0228884D01*
X0748228Y0229714D01*
X0748142Y0229800D01*
X0748021Y0229800D01*
X0745409Y0230500D01*
X0742591Y0230500D01*
X0739979Y0229800D01*
X0739858Y0229800D01*
X0739772Y0229714D01*
X0737430Y0228362D01*
X0735438Y0226370D01*
X0734086Y0224028D01*
X0734000Y0223942D01*
X0734000Y0223821D01*
X0733300Y0221209D01*
X0733300Y0202391D01*
X0734000Y0199779D01*
X0734000Y0199658D01*
X0734086Y0199572D01*
X0735438Y0197230D01*
X0737430Y0195238D01*
X0739772Y0193886D01*
X0739858Y0193800D01*
X0739772Y0193714D01*
X0737430Y0192362D01*
X0735438Y0190370D01*
X0734086Y0188028D01*
X0734000Y0187942D01*
X0734000Y0187821D01*
X0733300Y0185209D01*
X0733300Y0165232D01*
X0722568Y0154500D01*
X0715700Y0154500D01*
X0715700Y0281209D01*
X0714971Y0283930D01*
X0713562Y0286370D01*
X0711570Y0288362D01*
X0709130Y0289771D01*
X0706409Y0290500D01*
X0695349Y0290500D01*
X0694441Y0290743D01*
X0691559Y0290743D01*
X0688776Y0289998D01*
X0688700Y0289954D01*
X0688700Y0296209D01*
X0687971Y0298930D01*
X0686986Y0300636D01*
X0688776Y0299602D01*
X0691559Y0298857D01*
X0694441Y0298857D01*
X0697224Y0299602D01*
X0699719Y0301043D01*
X0701757Y0303081D01*
X0702227Y0303895D01*
X0706562Y0308230D01*
X0707971Y0310670D01*
X0708700Y0313391D01*
X0708700Y0334758D01*
X0709078Y0335135D01*
X0710600Y0338811D01*
X0710600Y0342789D01*
X0709078Y0346465D01*
X0708700Y0346842D01*
X0708700Y0370943D01*
X0710646Y0372066D01*
X0712958Y0374379D01*
X0714593Y0377211D01*
X0715439Y0380370D01*
X0715439Y0383640D01*
X0714593Y0386799D01*
X0712958Y0389631D01*
X0710646Y0391943D01*
X0707813Y0393578D01*
X0704655Y0394424D01*
X0691345Y0394424D01*
X0688186Y0393578D01*
X0685354Y0391943D01*
X0683042Y0389631D01*
X0681407Y0386799D01*
X0680561Y0383640D01*
X0680561Y0380370D01*
X0681407Y0377211D01*
X0683042Y0374379D01*
X0685354Y0372066D01*
X0687300Y0370943D01*
X0687300Y0346842D01*
X0686922Y0346465D01*
X0685400Y0342789D01*
X0685400Y0338811D01*
X0686922Y0335135D01*
X0687300Y0334758D01*
X0687300Y0319232D01*
X0687095Y0319027D01*
X0686281Y0318557D01*
X0684243Y0316519D01*
X0682802Y0314024D01*
X0682057Y0311241D01*
X0682057Y0308359D01*
X0682802Y0305576D01*
X0683412Y0304520D01*
X0672227Y0315705D01*
X0671757Y0316519D01*
X0669719Y0318557D01*
X0668905Y0319027D01*
X0668700Y0319232D01*
X0668700Y0334758D01*
X0669078Y0335135D01*
X0670600Y0338811D01*
X0670600Y0342789D01*
X0669078Y0346465D01*
X0668095Y0347447D01*
X0667162Y0349063D01*
X0665263Y0350962D01*
X0662937Y0352305D01*
X0660343Y0353000D01*
X0657657Y0353000D01*
X0655063Y0352305D01*
X0653669Y0351500D01*
X0643700Y0351500D01*
X0643700Y0352943D01*
X0645646Y0354066D01*
X0647958Y0356379D01*
X0649593Y0359211D01*
X0650439Y0362370D01*
X0650439Y0365640D01*
X0649593Y0368799D01*
X0647958Y0371631D01*
X0645646Y0373943D01*
X0642813Y0375578D01*
X0639655Y0376424D01*
X0626345Y0376424D01*
X0623186Y0375578D01*
X0620354Y0373943D01*
X0618042Y0371631D01*
X0616407Y0368799D01*
X0615561Y0365640D01*
X0615561Y0362370D01*
X0616407Y0359211D01*
X0618042Y0356379D01*
X0620354Y0354066D01*
X0622300Y0352943D01*
X0622300Y0339391D01*
X0623000Y0336779D01*
X0623000Y0336658D01*
X0623086Y0336572D01*
X0624438Y0334230D01*
X0626430Y0332238D01*
X0628772Y0330886D01*
X0628858Y0330800D01*
X0628979Y0330800D01*
X0631591Y0330100D01*
X0647300Y0330100D01*
X0647300Y0313391D01*
X0648029Y0310670D01*
X0649438Y0308230D01*
X0653773Y0303895D01*
X0654243Y0303081D01*
X0656281Y0301043D01*
X0657095Y0300573D01*
X0667300Y0290368D01*
X0667300Y0289954D01*
X0667224Y0289998D01*
X0664441Y0290743D01*
X0661559Y0290743D01*
X0660651Y0290500D01*
X0649591Y0290500D01*
X0646870Y0289771D01*
X0644430Y0288362D01*
X0642438Y0286370D01*
X0641029Y0283930D01*
X0640300Y0281209D01*
X0640300Y0152391D01*
X0640334Y0152266D01*
X0638145Y0149863D02*
X0613400Y0149863D01*
X0613400Y0148265D02*
X0637222Y0148265D01*
X0636691Y0146666D02*
X0613400Y0146666D01*
X0613400Y0145068D02*
X0636300Y0145068D01*
X0636300Y0143469D02*
X0613400Y0143469D01*
X0613400Y0141870D02*
X0636300Y0141870D01*
X0636300Y0140272D02*
X0613400Y0140272D01*
X0613400Y0138673D02*
X0636300Y0138673D01*
X0636300Y0137075D02*
X0613400Y0137075D01*
X0613400Y0135476D02*
X0636300Y0135476D01*
X0636300Y0133878D02*
X0613400Y0133878D01*
X0613400Y0132279D02*
X0636300Y0132279D01*
X0636300Y0130681D02*
X0613400Y0130681D01*
X0613400Y0129082D02*
X0636300Y0129082D01*
X0636300Y0127484D02*
X0613400Y0127484D01*
X0613400Y0125885D02*
X0636300Y0125885D01*
X0636300Y0124287D02*
X0613400Y0124287D01*
X0613400Y0122688D02*
X0636300Y0122688D01*
X0636300Y0121090D02*
X0613400Y0121090D01*
X0613400Y0119491D02*
X0636300Y0119491D01*
X0636300Y0117893D02*
X0613400Y0117893D01*
X0613400Y0116294D02*
X0636300Y0116294D01*
X0636300Y0114696D02*
X0613400Y0114696D01*
X0613400Y0113097D02*
X0636300Y0113097D01*
X0636300Y0111499D02*
X0613400Y0111499D01*
X0613400Y0109900D02*
X0636300Y0109900D01*
X0636300Y0108302D02*
X0613400Y0108302D01*
X0613400Y0106703D02*
X0636300Y0106703D01*
X0636300Y0105105D02*
X0613400Y0105105D01*
X0613400Y0103506D02*
X0636300Y0103506D01*
X0636300Y0101908D02*
X0613400Y0101908D01*
X0613400Y0100309D02*
X0636300Y0100309D01*
X0636300Y0098711D02*
X0613400Y0098711D01*
X0613400Y0097112D02*
X0636300Y0097112D01*
X0636300Y0095514D02*
X0613400Y0095514D01*
X0613400Y0093915D02*
X0636300Y0093915D01*
X0636300Y0092317D02*
X0613400Y0092317D01*
X0613400Y0090718D02*
X0636300Y0090718D01*
X0636300Y0089120D02*
X0613400Y0089120D01*
X0613400Y0087521D02*
X0636300Y0087521D01*
X0636300Y0085923D02*
X0613400Y0085923D01*
X0613400Y0084324D02*
X0636300Y0084324D01*
X0636300Y0082726D02*
X0613400Y0082726D01*
X0613400Y0081127D02*
X0636300Y0081127D01*
X0636300Y0079529D02*
X0613400Y0079529D01*
X0613400Y0077930D02*
X0636300Y0077930D01*
X0636300Y0076332D02*
X0613400Y0076332D01*
X0613400Y0074733D02*
X0635975Y0074733D01*
X0635850Y0073134D02*
X0613400Y0073134D01*
X0613400Y0071536D02*
X0635850Y0071536D01*
X0636224Y0069937D02*
X0613400Y0069937D01*
X0613400Y0068339D02*
X0636701Y0068339D01*
X0637624Y0066740D02*
X0613400Y0066740D01*
X0613400Y0065142D02*
X0638890Y0065142D01*
X0640733Y0063543D02*
X0613400Y0063543D01*
X0613400Y0061945D02*
X0644431Y0061945D01*
X0649569Y0061945D02*
X0681300Y0061945D01*
X0681300Y0063543D02*
X0653267Y0063543D01*
X0655110Y0065142D02*
X0681300Y0065142D01*
X0681300Y0066740D02*
X0656376Y0066740D01*
X0657299Y0068339D02*
X0681300Y0068339D01*
X0681300Y0069937D02*
X0657776Y0069937D01*
X0658150Y0071536D02*
X0681300Y0071536D01*
X0681300Y0073134D02*
X0658150Y0073134D01*
X0658025Y0074733D02*
X0681300Y0074733D01*
X0681300Y0076332D02*
X0657700Y0076332D01*
X0657700Y0077930D02*
X0681300Y0077930D01*
X0681300Y0079529D02*
X0657700Y0079529D01*
X0657700Y0081127D02*
X0681546Y0081127D01*
X0681974Y0082726D02*
X0657700Y0082726D01*
X0657700Y0084324D02*
X0682834Y0084324D01*
X0683991Y0085923D02*
X0657700Y0085923D01*
X0657700Y0087521D02*
X0685705Y0087521D01*
X0687289Y0089120D02*
X0657700Y0089120D01*
X0657700Y0090718D02*
X0684898Y0090718D01*
X0683423Y0092317D02*
X0657700Y0092317D01*
X0657700Y0093915D02*
X0682480Y0093915D01*
X0681772Y0095514D02*
X0657700Y0095514D01*
X0657700Y0097112D02*
X0681412Y0097112D01*
X0681288Y0098711D02*
X0657700Y0098711D01*
X0657700Y0100309D02*
X0681352Y0100309D01*
X0681416Y0101908D02*
X0657700Y0101908D01*
X0657700Y0103506D02*
X0681480Y0103506D01*
X0681544Y0105105D02*
X0657700Y0105105D01*
X0657700Y0106703D02*
X0681608Y0106703D01*
X0681672Y0108302D02*
X0657700Y0108302D01*
X0657700Y0109900D02*
X0681735Y0109900D01*
X0681799Y0111499D02*
X0657700Y0111499D01*
X0657700Y0113097D02*
X0681863Y0113097D01*
X0681927Y0114696D02*
X0669752Y0114696D01*
X0672236Y0116294D02*
X0681991Y0116294D01*
X0682055Y0117893D02*
X0673835Y0117893D01*
X0674639Y0119491D02*
X0681361Y0119491D01*
X0680699Y0121090D02*
X0675301Y0121090D01*
X0675600Y0122688D02*
X0680400Y0122688D01*
X0680400Y0124287D02*
X0675600Y0124287D01*
X0675560Y0125885D02*
X0680440Y0125885D01*
X0679184Y0127484D02*
X0674898Y0127484D01*
X0674236Y0129082D02*
X0677586Y0129082D01*
X0675987Y0130681D02*
X0672861Y0130681D01*
X0674389Y0132279D02*
X0671260Y0132279D01*
X0672790Y0133878D02*
X0667777Y0133878D01*
X0667589Y0133800D02*
X0667021Y0133800D01*
X0667021Y0133800D01*
X0667589Y0133800D01*
X0703835Y0117893D02*
X0732960Y0117893D01*
X0732298Y0119491D02*
X0704639Y0119491D01*
X0705301Y0121090D02*
X0731917Y0121090D01*
X0731488Y0122688D02*
X0705600Y0122688D01*
X0705600Y0124287D02*
X0731300Y0124287D01*
X0731300Y0125885D02*
X0705560Y0125885D01*
X0704898Y0127484D02*
X0731300Y0127484D01*
X0731300Y0129082D02*
X0704470Y0129082D01*
X0705132Y0130681D02*
X0731247Y0130681D01*
X0731319Y0132279D02*
X0705600Y0132279D01*
X0703408Y0116294D02*
X0733764Y0116294D01*
X0735362Y0114696D02*
X0703344Y0114696D01*
X0703280Y0113097D02*
X0737845Y0113097D01*
X0738567Y0111499D02*
X0703216Y0111499D01*
X0703153Y0109900D02*
X0736968Y0109900D01*
X0735370Y0108302D02*
X0703089Y0108302D01*
X0703025Y0106703D02*
X0728329Y0106703D01*
X0725563Y0105105D02*
X0702961Y0105105D01*
X0702897Y0103506D02*
X0723964Y0103506D01*
X0723043Y0101908D02*
X0702833Y0101908D01*
X0702769Y0100309D02*
X0722381Y0100309D01*
X0721970Y0098711D02*
X0702705Y0098711D01*
X0702641Y0097112D02*
X0721542Y0097112D01*
X0721300Y0095514D02*
X0702183Y0095514D01*
X0701571Y0093915D02*
X0721300Y0093915D01*
X0721300Y0092317D02*
X0700560Y0092317D01*
X0699020Y0090718D02*
X0721300Y0090718D01*
X0721300Y0089120D02*
X0696580Y0089120D01*
X0696142Y0088800D02*
X0696021Y0088800D01*
X0696021Y0088800D01*
X0696142Y0088800D01*
X0698295Y0087521D02*
X0721300Y0087521D01*
X0721300Y0085923D02*
X0700009Y0085923D01*
X0701166Y0084324D02*
X0721300Y0084324D01*
X0721300Y0082726D02*
X0702026Y0082726D01*
X0702454Y0081127D02*
X0721300Y0081127D01*
X0721300Y0079529D02*
X0702700Y0079529D01*
X0702700Y0077930D02*
X0721300Y0077930D01*
X0721300Y0076332D02*
X0702700Y0076332D01*
X0702700Y0074733D02*
X0721300Y0074733D01*
X0721300Y0073134D02*
X0702700Y0073134D01*
X0702700Y0071536D02*
X0721300Y0071536D01*
X0721300Y0069937D02*
X0702700Y0069937D01*
X0702700Y0068339D02*
X0721300Y0068339D01*
X0721300Y0066740D02*
X0702700Y0066740D01*
X0702700Y0065142D02*
X0721300Y0065142D01*
X0721300Y0063543D02*
X0702700Y0063543D01*
X0702700Y0061945D02*
X0721300Y0061945D01*
X0721300Y0060346D02*
X0702700Y0060346D01*
X0702700Y0058748D02*
X0721300Y0058748D01*
X0721633Y0057149D02*
X0702367Y0057149D01*
X0701902Y0055551D02*
X0722098Y0055551D01*
X0723021Y0053952D02*
X0700979Y0053952D01*
X0699686Y0052354D02*
X0724314Y0052354D01*
X0726266Y0050755D02*
X0697734Y0050755D01*
X0693621Y0049157D02*
X0730379Y0049157D01*
X0733621Y0049157D02*
X0747547Y0049157D01*
X0747566Y0050755D02*
X0737734Y0050755D01*
X0739686Y0052354D02*
X0747584Y0052354D01*
X0747603Y0053952D02*
X0740979Y0053952D01*
X0741902Y0055551D02*
X0747622Y0055551D01*
X0747641Y0057149D02*
X0742367Y0057149D01*
X0742700Y0058748D02*
X0747660Y0058748D01*
X0747679Y0060346D02*
X0742700Y0060346D01*
X0742700Y0061945D02*
X0747697Y0061945D01*
X0747716Y0063543D02*
X0742700Y0063543D01*
X0742700Y0065142D02*
X0747735Y0065142D01*
X0747754Y0066740D02*
X0742700Y0066740D01*
X0742700Y0068339D02*
X0747773Y0068339D01*
X0747792Y0069937D02*
X0742700Y0069937D01*
X0742700Y0071536D02*
X0747811Y0071536D01*
X0747829Y0073134D02*
X0742700Y0073134D01*
X0742700Y0074733D02*
X0747848Y0074733D01*
X0747867Y0076332D02*
X0742700Y0076332D01*
X0742700Y0077930D02*
X0747886Y0077930D01*
X0747905Y0079529D02*
X0742700Y0079529D01*
X0742700Y0081127D02*
X0747924Y0081127D01*
X0747943Y0082726D02*
X0745258Y0082726D01*
X0747528Y0047558D02*
X0613400Y0047558D01*
X0613400Y0045960D02*
X0747509Y0045960D01*
X0747490Y0044361D02*
X0613400Y0044361D01*
X0613400Y0042763D02*
X0747471Y0042763D01*
X0747452Y0041164D02*
X0637602Y0041164D01*
X0636742Y0041661D02*
X0632958Y0042675D01*
X0629042Y0042675D01*
X0625258Y0041661D01*
X0621867Y0039703D01*
X0619097Y0036933D01*
X0617139Y0033542D01*
X0616125Y0029758D01*
X0616125Y0025842D01*
X0617139Y0022058D01*
X0619097Y0018667D01*
X0621867Y0015897D01*
X0625258Y0013939D01*
X0629042Y0012925D01*
X0632958Y0012925D01*
X0636742Y0013939D01*
X0640133Y0015897D01*
X0642903Y0018667D01*
X0644861Y0022058D01*
X0645875Y0025842D01*
X0645875Y0029758D01*
X0644861Y0033542D01*
X0642903Y0036933D01*
X0640133Y0039703D01*
X0636742Y0041661D01*
X0640271Y0039566D02*
X0747434Y0039566D01*
X0747415Y0037967D02*
X0641869Y0037967D01*
X0643229Y0036369D02*
X0747396Y0036369D01*
X0747377Y0034770D02*
X0644152Y0034770D01*
X0644960Y0033172D02*
X0747358Y0033172D01*
X0747339Y0031573D02*
X0645389Y0031573D01*
X0645817Y0029975D02*
X0747320Y0029975D01*
X0747302Y0028376D02*
X0645875Y0028376D01*
X0645875Y0026778D02*
X0747283Y0026778D01*
X0747264Y0025179D02*
X0645697Y0025179D01*
X0645269Y0023581D02*
X0747245Y0023581D01*
X0747226Y0021982D02*
X0644817Y0021982D01*
X0643894Y0020384D02*
X0747207Y0020384D01*
X0747188Y0018785D02*
X0642971Y0018785D01*
X0641423Y0017187D02*
X0747170Y0017187D01*
X0747151Y0015588D02*
X0639598Y0015588D01*
X0636830Y0013990D02*
X0747132Y0013990D01*
X0747113Y0012391D02*
X0613400Y0012391D01*
X0613400Y0010793D02*
X0747094Y0010793D01*
X0690379Y0049157D02*
X0613400Y0049157D01*
X0613400Y0050755D02*
X0686266Y0050755D01*
X0684314Y0052354D02*
X0613400Y0052354D01*
X0613400Y0053952D02*
X0683021Y0053952D01*
X0682098Y0055551D02*
X0613400Y0055551D01*
X0613400Y0057149D02*
X0681633Y0057149D01*
X0681300Y0058748D02*
X0613400Y0058748D01*
X0613400Y0060346D02*
X0681300Y0060346D01*
X0687858Y0088800D02*
X0687979Y0088800D01*
X0687979Y0088800D01*
X0687858Y0088800D01*
X0731214Y0133878D02*
X0731667Y0133878D01*
X0722727Y0154659D02*
X0715700Y0154659D01*
X0715700Y0156257D02*
X0724325Y0156257D01*
X0725924Y0157856D02*
X0715700Y0157856D01*
X0715700Y0159454D02*
X0727522Y0159454D01*
X0729121Y0161053D02*
X0715700Y0161053D01*
X0715700Y0162651D02*
X0730719Y0162651D01*
X0732318Y0164250D02*
X0715700Y0164250D01*
X0715700Y0165848D02*
X0733300Y0165848D01*
X0733300Y0167447D02*
X0715700Y0167447D01*
X0715700Y0169045D02*
X0733300Y0169045D01*
X0733300Y0170644D02*
X0715700Y0170644D01*
X0715700Y0172242D02*
X0733300Y0172242D01*
X0733300Y0173841D02*
X0715700Y0173841D01*
X0715700Y0175439D02*
X0733300Y0175439D01*
X0733300Y0177038D02*
X0715700Y0177038D01*
X0715700Y0178636D02*
X0733300Y0178636D01*
X0733300Y0180235D02*
X0715700Y0180235D01*
X0715700Y0181833D02*
X0733300Y0181833D01*
X0733300Y0183432D02*
X0715700Y0183432D01*
X0715700Y0185030D02*
X0733300Y0185030D01*
X0733681Y0186629D02*
X0715700Y0186629D01*
X0715700Y0188227D02*
X0734201Y0188227D01*
X0735124Y0189826D02*
X0715700Y0189826D01*
X0715700Y0191424D02*
X0736492Y0191424D01*
X0738574Y0193023D02*
X0715700Y0193023D01*
X0715700Y0194621D02*
X0738498Y0194621D01*
X0739858Y0193800D02*
X0739979Y0193800D01*
X0739979Y0193800D01*
X0739858Y0193800D01*
X0736448Y0196220D02*
X0715700Y0196220D01*
X0715700Y0197818D02*
X0735098Y0197818D01*
X0734175Y0199417D02*
X0715700Y0199417D01*
X0715700Y0201015D02*
X0733669Y0201015D01*
X0733300Y0202614D02*
X0715700Y0202614D01*
X0715700Y0204212D02*
X0733300Y0204212D01*
X0733300Y0205811D02*
X0715700Y0205811D01*
X0715700Y0207409D02*
X0733300Y0207409D01*
X0733300Y0209008D02*
X0715700Y0209008D01*
X0715700Y0210606D02*
X0733300Y0210606D01*
X0733300Y0212205D02*
X0715700Y0212205D01*
X0715700Y0213803D02*
X0733300Y0213803D01*
X0733300Y0215402D02*
X0715700Y0215402D01*
X0715700Y0217001D02*
X0733300Y0217001D01*
X0733300Y0218599D02*
X0715700Y0218599D01*
X0715700Y0220198D02*
X0733300Y0220198D01*
X0733457Y0221796D02*
X0715700Y0221796D01*
X0715700Y0223395D02*
X0733886Y0223395D01*
X0734643Y0224993D02*
X0715700Y0224993D01*
X0715700Y0226592D02*
X0735660Y0226592D01*
X0737258Y0228190D02*
X0715700Y0228190D01*
X0715700Y0229789D02*
X0739846Y0229789D01*
X0748154Y0229789D02*
X0749677Y0229789D01*
X0749696Y0231387D02*
X0715700Y0231387D01*
X0715700Y0232986D02*
X0749714Y0232986D01*
X0749733Y0234584D02*
X0715700Y0234584D01*
X0715700Y0236183D02*
X0749752Y0236183D01*
X0749771Y0237781D02*
X0715700Y0237781D01*
X0715700Y0239380D02*
X0749790Y0239380D01*
X0749809Y0240978D02*
X0715700Y0240978D01*
X0715700Y0242577D02*
X0749828Y0242577D01*
X0749846Y0244175D02*
X0715700Y0244175D01*
X0715700Y0245774D02*
X0749865Y0245774D01*
X0749884Y0247372D02*
X0715700Y0247372D01*
X0715700Y0248971D02*
X0749903Y0248971D01*
X0749922Y0250569D02*
X0749412Y0250569D01*
X0738588Y0250569D02*
X0715700Y0250569D01*
X0715700Y0252168D02*
X0736500Y0252168D01*
X0735128Y0253766D02*
X0715700Y0253766D01*
X0715700Y0255365D02*
X0734205Y0255365D01*
X0733683Y0256963D02*
X0715700Y0256963D01*
X0715700Y0258562D02*
X0733300Y0258562D01*
X0733300Y0260160D02*
X0715700Y0260160D01*
X0715700Y0261759D02*
X0733300Y0261759D01*
X0733300Y0263357D02*
X0715700Y0263357D01*
X0715700Y0264956D02*
X0733300Y0264956D01*
X0733300Y0266554D02*
X0715700Y0266554D01*
X0715700Y0268153D02*
X0733300Y0268153D01*
X0733300Y0269751D02*
X0715700Y0269751D01*
X0715700Y0271350D02*
X0733300Y0271350D01*
X0733300Y0272948D02*
X0715700Y0272948D01*
X0715700Y0274547D02*
X0733300Y0274547D01*
X0733300Y0276145D02*
X0715700Y0276145D01*
X0715700Y0277744D02*
X0733443Y0277744D01*
X0733872Y0279342D02*
X0715700Y0279342D01*
X0715700Y0280941D02*
X0734229Y0280941D01*
X0734891Y0282539D02*
X0715343Y0282539D01*
X0714851Y0284138D02*
X0735596Y0284138D01*
X0737194Y0285737D02*
X0713928Y0285737D01*
X0712597Y0287335D02*
X0739440Y0287335D01*
X0745843Y0290532D02*
X0695229Y0290532D01*
X0690771Y0290532D02*
X0688700Y0290532D01*
X0688700Y0292131D02*
X0744904Y0292131D01*
X0744219Y0293729D02*
X0688700Y0293729D01*
X0688700Y0295328D02*
X0743835Y0295328D01*
X0743743Y0296926D02*
X0688508Y0296926D01*
X0688079Y0298525D02*
X0743800Y0298525D01*
X0743800Y0300123D02*
X0698126Y0300123D01*
X0700398Y0301722D02*
X0743800Y0301722D01*
X0743800Y0303320D02*
X0701895Y0303320D01*
X0703251Y0304919D02*
X0743800Y0304919D01*
X0743800Y0306517D02*
X0704849Y0306517D01*
X0706448Y0308116D02*
X0744000Y0308116D01*
X0744000Y0309714D02*
X0707419Y0309714D01*
X0708143Y0311313D02*
X0744383Y0311313D01*
X0745045Y0312911D02*
X0708571Y0312911D01*
X0708700Y0314510D02*
X0745968Y0314510D01*
X0747566Y0316108D02*
X0708700Y0316108D01*
X0708700Y0317707D02*
X0750337Y0317707D01*
X0750732Y0319305D02*
X0708700Y0319305D01*
X0708700Y0320904D02*
X0750751Y0320904D01*
X0750770Y0322502D02*
X0708700Y0322502D01*
X0708700Y0324101D02*
X0750789Y0324101D01*
X0750808Y0325699D02*
X0708700Y0325699D01*
X0708700Y0327298D02*
X0750827Y0327298D01*
X0750845Y0328896D02*
X0708700Y0328896D01*
X0708700Y0330495D02*
X0750864Y0330495D01*
X0750883Y0332093D02*
X0708700Y0332093D01*
X0708700Y0333692D02*
X0750902Y0333692D01*
X0750921Y0335290D02*
X0709142Y0335290D01*
X0709804Y0336889D02*
X0750940Y0336889D01*
X0750959Y0338487D02*
X0710466Y0338487D01*
X0710600Y0340086D02*
X0750977Y0340086D01*
X0750996Y0341684D02*
X0710600Y0341684D01*
X0710395Y0343283D02*
X0751015Y0343283D01*
X0751034Y0344881D02*
X0709733Y0344881D01*
X0709062Y0346480D02*
X0751053Y0346480D01*
X0751072Y0348078D02*
X0708700Y0348078D01*
X0708700Y0349677D02*
X0751091Y0349677D01*
X0751109Y0351275D02*
X0708700Y0351275D01*
X0708700Y0352874D02*
X0751128Y0352874D01*
X0751147Y0354472D02*
X0708700Y0354472D01*
X0708700Y0356071D02*
X0751166Y0356071D01*
X0751185Y0357670D02*
X0708700Y0357670D01*
X0708700Y0359268D02*
X0751204Y0359268D01*
X0751222Y0360867D02*
X0708700Y0360867D01*
X0708700Y0362465D02*
X0751241Y0362465D01*
X0751260Y0364064D02*
X0708700Y0364064D01*
X0708700Y0365662D02*
X0751279Y0365662D01*
X0751298Y0367261D02*
X0708700Y0367261D01*
X0708700Y0368859D02*
X0751317Y0368859D01*
X0751336Y0370458D02*
X0708700Y0370458D01*
X0710628Y0372056D02*
X0751354Y0372056D01*
X0751373Y0373655D02*
X0712234Y0373655D01*
X0713463Y0375253D02*
X0751392Y0375253D01*
X0751411Y0376852D02*
X0714386Y0376852D01*
X0714925Y0378450D02*
X0751430Y0378450D01*
X0751449Y0380049D02*
X0715353Y0380049D01*
X0715439Y0381647D02*
X0751468Y0381647D01*
X0751486Y0383246D02*
X0715439Y0383246D01*
X0715117Y0384844D02*
X0751505Y0384844D01*
X0751524Y0386443D02*
X0714688Y0386443D01*
X0713876Y0388041D02*
X0751543Y0388041D01*
X0751562Y0389640D02*
X0712949Y0389640D01*
X0711350Y0391238D02*
X0751581Y0391238D01*
X0751599Y0392837D02*
X0709097Y0392837D01*
X0686903Y0392837D02*
X0642073Y0392837D01*
X0642903Y0393667D02*
X0640133Y0390897D01*
X0636742Y0388939D01*
X0632958Y0387925D01*
X0629042Y0387925D01*
X0625258Y0388939D01*
X0621867Y0390897D01*
X0619097Y0393667D01*
X0617139Y0397058D01*
X0616125Y0400842D01*
X0616125Y0404758D01*
X0617139Y0408542D01*
X0619097Y0411933D01*
X0621867Y0414703D01*
X0625258Y0416661D01*
X0629042Y0417675D01*
X0632958Y0417675D01*
X0636742Y0416661D01*
X0640133Y0414703D01*
X0642903Y0411933D01*
X0644861Y0408542D01*
X0645875Y0404758D01*
X0645875Y0400842D01*
X0644861Y0397058D01*
X0642903Y0393667D01*
X0643347Y0394435D02*
X0751618Y0394435D01*
X0751637Y0396034D02*
X0644270Y0396034D01*
X0645015Y0397632D02*
X0751656Y0397632D01*
X0751675Y0399231D02*
X0645443Y0399231D01*
X0645872Y0400829D02*
X0751694Y0400829D01*
X0751713Y0402428D02*
X0645875Y0402428D01*
X0645875Y0404026D02*
X0751731Y0404026D01*
X0751750Y0405625D02*
X0645643Y0405625D01*
X0645214Y0407223D02*
X0751769Y0407223D01*
X0751788Y0408822D02*
X0644699Y0408822D01*
X0643777Y0410420D02*
X0751807Y0410420D01*
X0751826Y0412019D02*
X0642818Y0412019D01*
X0641219Y0413617D02*
X0751845Y0413617D01*
X0751863Y0415216D02*
X0639245Y0415216D01*
X0636170Y0416814D02*
X0751882Y0416814D01*
X0751901Y0418413D02*
X0613400Y0418413D01*
X0613400Y0420011D02*
X0751920Y0420011D01*
X0684650Y0391238D02*
X0640475Y0391238D01*
X0637956Y0389640D02*
X0683051Y0389640D01*
X0682124Y0388041D02*
X0633392Y0388041D01*
X0628608Y0388041D02*
X0613400Y0388041D01*
X0613400Y0386443D02*
X0681312Y0386443D01*
X0680883Y0384844D02*
X0613400Y0384844D01*
X0613400Y0383246D02*
X0680561Y0383246D01*
X0680561Y0381647D02*
X0613400Y0381647D01*
X0613400Y0380049D02*
X0680647Y0380049D01*
X0681075Y0378450D02*
X0613400Y0378450D01*
X0613400Y0376852D02*
X0681614Y0376852D01*
X0682537Y0375253D02*
X0643376Y0375253D01*
X0645934Y0373655D02*
X0683766Y0373655D01*
X0685372Y0372056D02*
X0647532Y0372056D01*
X0648635Y0370458D02*
X0687300Y0370458D01*
X0687300Y0368859D02*
X0649558Y0368859D01*
X0650005Y0367261D02*
X0687300Y0367261D01*
X0687300Y0365662D02*
X0650433Y0365662D01*
X0650439Y0364064D02*
X0687300Y0364064D01*
X0687300Y0362465D02*
X0650439Y0362465D01*
X0650037Y0360867D02*
X0687300Y0360867D01*
X0687300Y0359268D02*
X0649608Y0359268D01*
X0648703Y0357670D02*
X0687300Y0357670D01*
X0687300Y0356071D02*
X0647650Y0356071D01*
X0646052Y0354472D02*
X0687300Y0354472D01*
X0687300Y0352874D02*
X0660813Y0352874D01*
X0657187Y0352874D02*
X0643700Y0352874D01*
X0622300Y0352874D02*
X0613400Y0352874D01*
X0613400Y0354472D02*
X0619948Y0354472D01*
X0618350Y0356071D02*
X0613400Y0356071D01*
X0613400Y0357670D02*
X0617297Y0357670D01*
X0616392Y0359268D02*
X0613400Y0359268D01*
X0613400Y0360867D02*
X0615963Y0360867D01*
X0615561Y0362465D02*
X0613400Y0362465D01*
X0613400Y0364064D02*
X0615561Y0364064D01*
X0615567Y0365662D02*
X0613400Y0365662D01*
X0613400Y0367261D02*
X0615995Y0367261D01*
X0616442Y0368859D02*
X0613400Y0368859D01*
X0613400Y0370458D02*
X0617365Y0370458D01*
X0618468Y0372056D02*
X0613400Y0372056D01*
X0613400Y0373655D02*
X0620066Y0373655D01*
X0622624Y0375253D02*
X0613400Y0375253D01*
X0613400Y0389640D02*
X0624044Y0389640D01*
X0621525Y0391238D02*
X0613400Y0391238D01*
X0613400Y0392837D02*
X0619927Y0392837D01*
X0618653Y0394435D02*
X0613400Y0394435D01*
X0613400Y0396034D02*
X0617730Y0396034D01*
X0616985Y0397632D02*
X0613400Y0397632D01*
X0613400Y0399231D02*
X0616557Y0399231D01*
X0616128Y0400829D02*
X0613400Y0400829D01*
X0613400Y0402428D02*
X0616125Y0402428D01*
X0616125Y0404026D02*
X0613400Y0404026D01*
X0613400Y0405625D02*
X0616357Y0405625D01*
X0616786Y0407223D02*
X0613400Y0407223D01*
X0613400Y0408822D02*
X0617301Y0408822D01*
X0618223Y0410420D02*
X0613400Y0410420D01*
X0613400Y0412019D02*
X0619182Y0412019D01*
X0620781Y0413617D02*
X0613400Y0413617D01*
X0613400Y0415216D02*
X0622755Y0415216D01*
X0625830Y0416814D02*
X0613400Y0416814D01*
X0613400Y0351275D02*
X0622300Y0351275D01*
X0622300Y0349677D02*
X0613400Y0349677D01*
X0613400Y0348078D02*
X0622300Y0348078D01*
X0622300Y0346480D02*
X0613400Y0346480D01*
X0613400Y0344881D02*
X0622300Y0344881D01*
X0622300Y0343283D02*
X0613400Y0343283D01*
X0613400Y0341684D02*
X0622300Y0341684D01*
X0622300Y0340086D02*
X0613400Y0340086D01*
X0613400Y0338487D02*
X0622542Y0338487D01*
X0622971Y0336889D02*
X0613400Y0336889D01*
X0613400Y0335290D02*
X0623826Y0335290D01*
X0624976Y0333692D02*
X0613400Y0333692D01*
X0613400Y0332093D02*
X0626680Y0332093D01*
X0630118Y0330495D02*
X0613400Y0330495D01*
X0613400Y0328896D02*
X0647300Y0328896D01*
X0647300Y0327298D02*
X0613400Y0327298D01*
X0613400Y0325699D02*
X0647300Y0325699D01*
X0647300Y0324101D02*
X0613400Y0324101D01*
X0613400Y0322502D02*
X0647300Y0322502D01*
X0647300Y0320904D02*
X0613400Y0320904D01*
X0613400Y0319305D02*
X0647300Y0319305D01*
X0647300Y0317707D02*
X0613400Y0317707D01*
X0613400Y0316108D02*
X0647300Y0316108D01*
X0647300Y0314510D02*
X0613400Y0314510D01*
X0613400Y0312911D02*
X0647429Y0312911D01*
X0647857Y0311313D02*
X0613400Y0311313D01*
X0613400Y0309714D02*
X0648581Y0309714D01*
X0649552Y0308116D02*
X0613400Y0308116D01*
X0613400Y0306517D02*
X0651151Y0306517D01*
X0652749Y0304919D02*
X0613400Y0304919D01*
X0613400Y0303320D02*
X0654105Y0303320D01*
X0655602Y0301722D02*
X0613400Y0301722D01*
X0613400Y0300123D02*
X0657545Y0300123D01*
X0659143Y0298525D02*
X0613400Y0298525D01*
X0613400Y0296926D02*
X0660742Y0296926D01*
X0662340Y0295328D02*
X0613400Y0295328D01*
X0613400Y0293729D02*
X0663939Y0293729D01*
X0665537Y0292131D02*
X0613400Y0292131D01*
X0613400Y0290532D02*
X0660771Y0290532D01*
X0665229Y0290532D02*
X0667136Y0290532D01*
X0683013Y0304919D02*
X0683182Y0304919D01*
X0682550Y0306517D02*
X0681415Y0306517D01*
X0682122Y0308116D02*
X0679816Y0308116D01*
X0678218Y0309714D02*
X0682057Y0309714D01*
X0682076Y0311313D02*
X0676619Y0311313D01*
X0675021Y0312911D02*
X0682504Y0312911D01*
X0683083Y0314510D02*
X0673422Y0314510D01*
X0671994Y0316108D02*
X0684006Y0316108D01*
X0685431Y0317707D02*
X0670569Y0317707D01*
X0668700Y0319305D02*
X0687300Y0319305D01*
X0687300Y0320904D02*
X0668700Y0320904D01*
X0668700Y0322502D02*
X0687300Y0322502D01*
X0687300Y0324101D02*
X0668700Y0324101D01*
X0668700Y0325699D02*
X0687300Y0325699D01*
X0687300Y0327298D02*
X0668700Y0327298D01*
X0668700Y0328896D02*
X0687300Y0328896D01*
X0687300Y0330495D02*
X0668700Y0330495D01*
X0668700Y0332093D02*
X0687300Y0332093D01*
X0687300Y0333692D02*
X0668700Y0333692D01*
X0669142Y0335290D02*
X0686858Y0335290D01*
X0686196Y0336889D02*
X0669804Y0336889D01*
X0670466Y0338487D02*
X0685534Y0338487D01*
X0685400Y0340086D02*
X0670600Y0340086D01*
X0670600Y0341684D02*
X0685400Y0341684D01*
X0685605Y0343283D02*
X0670395Y0343283D01*
X0669733Y0344881D02*
X0686267Y0344881D01*
X0686938Y0346480D02*
X0669062Y0346480D01*
X0667730Y0348078D02*
X0687300Y0348078D01*
X0687300Y0349677D02*
X0666548Y0349677D01*
X0664720Y0351275D02*
X0687300Y0351275D01*
X0687282Y0300123D02*
X0687874Y0300123D01*
X0710580Y0288934D02*
X0747441Y0288934D01*
X0748560Y0287335D02*
X0749440Y0287335D01*
X0694300Y0268857D02*
X0694300Y0250743D01*
X0691559Y0250743D01*
X0690651Y0250500D01*
X0688700Y0250500D01*
X0688700Y0269646D01*
X0688776Y0269602D01*
X0691559Y0268857D01*
X0694300Y0268857D01*
X0694300Y0268153D02*
X0688700Y0268153D01*
X0688700Y0266554D02*
X0694300Y0266554D01*
X0694300Y0264956D02*
X0688700Y0264956D01*
X0688700Y0263357D02*
X0694300Y0263357D01*
X0694300Y0261759D02*
X0688700Y0261759D01*
X0688700Y0260160D02*
X0694300Y0260160D01*
X0694300Y0258562D02*
X0688700Y0258562D01*
X0688700Y0256963D02*
X0694300Y0256963D01*
X0694300Y0255365D02*
X0688700Y0255365D01*
X0688700Y0253766D02*
X0694300Y0253766D01*
X0694300Y0252168D02*
X0688700Y0252168D01*
X0688700Y0250569D02*
X0690910Y0250569D01*
X0667300Y0250569D02*
X0665090Y0250569D01*
X0665349Y0250500D02*
X0664441Y0250743D01*
X0661700Y0250743D01*
X0661700Y0268857D01*
X0664441Y0268857D01*
X0667224Y0269602D01*
X0667300Y0269646D01*
X0667300Y0250500D01*
X0665349Y0250500D01*
X0667300Y0252168D02*
X0661700Y0252168D01*
X0661700Y0253766D02*
X0667300Y0253766D01*
X0667300Y0255365D02*
X0661700Y0255365D01*
X0661700Y0256963D02*
X0667300Y0256963D01*
X0667300Y0258562D02*
X0661700Y0258562D01*
X0661700Y0260160D02*
X0667300Y0260160D01*
X0667300Y0261759D02*
X0661700Y0261759D01*
X0661700Y0263357D02*
X0667300Y0263357D01*
X0667300Y0264956D02*
X0661700Y0264956D01*
X0661700Y0266554D02*
X0667300Y0266554D01*
X0667300Y0268153D02*
X0661700Y0268153D01*
X0640300Y0268153D02*
X0613400Y0268153D01*
X0613400Y0269751D02*
X0640300Y0269751D01*
X0640300Y0271350D02*
X0613400Y0271350D01*
X0613400Y0272948D02*
X0640300Y0272948D01*
X0640300Y0274547D02*
X0613400Y0274547D01*
X0613400Y0276145D02*
X0640300Y0276145D01*
X0640300Y0277744D02*
X0613400Y0277744D01*
X0613400Y0279342D02*
X0640300Y0279342D01*
X0640300Y0280941D02*
X0613400Y0280941D01*
X0613400Y0282539D02*
X0640657Y0282539D01*
X0641149Y0284138D02*
X0613400Y0284138D01*
X0613400Y0285737D02*
X0642072Y0285737D01*
X0643403Y0287335D02*
X0613400Y0287335D01*
X0613400Y0288934D02*
X0645420Y0288934D01*
X0640300Y0266554D02*
X0613400Y0266554D01*
X0613400Y0264956D02*
X0640300Y0264956D01*
X0640300Y0263357D02*
X0613400Y0263357D01*
X0613400Y0261759D02*
X0640300Y0261759D01*
X0640300Y0260160D02*
X0613400Y0260160D01*
X0613400Y0258562D02*
X0640300Y0258562D01*
X0640300Y0256963D02*
X0613400Y0256963D01*
X0613400Y0255365D02*
X0640300Y0255365D01*
X0640300Y0253766D02*
X0613400Y0253766D01*
X0613400Y0252168D02*
X0640300Y0252168D01*
X0624398Y0041164D02*
X0613400Y0041164D01*
X0613400Y0039566D02*
X0621729Y0039566D01*
X0620131Y0037967D02*
X0613400Y0037967D01*
X0613400Y0036369D02*
X0618771Y0036369D01*
X0617848Y0034770D02*
X0613400Y0034770D01*
X0613400Y0033172D02*
X0617040Y0033172D01*
X0616611Y0031573D02*
X0613400Y0031573D01*
X0613400Y0029975D02*
X0616183Y0029975D01*
X0616125Y0028376D02*
X0613400Y0028376D01*
X0613400Y0026778D02*
X0616125Y0026778D01*
X0616303Y0025179D02*
X0613400Y0025179D01*
X0613400Y0023581D02*
X0616731Y0023581D01*
X0617183Y0021982D02*
X0613400Y0021982D01*
X0613400Y0020384D02*
X0618106Y0020384D01*
X0619029Y0018785D02*
X0613400Y0018785D01*
X0613400Y0017187D02*
X0620577Y0017187D01*
X0622402Y0015588D02*
X0613400Y0015588D01*
X0613400Y0013990D02*
X0625170Y0013990D01*
D24*
X0692000Y0059800D02*
X0692000Y0078800D01*
X0703000Y0075800D02*
X0703000Y0100800D01*
X0726000Y0121800D01*
X0732000Y0124800D01*
X0742000Y0124800D02*
X0742000Y0130800D01*
X0754000Y0145800D01*
X0822000Y0144800D01*
X0829000Y0150800D01*
X0840000Y0150800D01*
X0826000Y0150800D02*
X0866000Y0150800D01*
X0896000Y0150800D01*
X0895000Y0151800D01*
X0932000Y0151800D01*
X0933000Y0150800D01*
X0933000Y0135800D01*
X0933000Y0115800D01*
X0896000Y0105800D02*
X0896000Y0033800D01*
X0896000Y0032800D01*
X0867000Y0075800D02*
X0827000Y0075800D01*
X0803000Y0081800D02*
X0827000Y0105800D01*
X0827000Y0135800D01*
X0795000Y0135800D02*
X0795000Y0115800D01*
X0787000Y0107800D01*
X0750000Y0107800D01*
X0742000Y0099800D01*
X0742000Y0094800D01*
X0732000Y0094800D02*
X0732000Y0059800D01*
X0770000Y0094800D02*
X0783000Y0081800D01*
X0770000Y0094800D02*
X0752000Y0094800D01*
X0692000Y0098800D02*
X0693000Y0123800D01*
X0677000Y0129800D02*
X0673000Y0133800D01*
X0660000Y0133800D01*
X0663000Y0143800D02*
X0647000Y0143800D01*
X0647000Y0123800D01*
X0663000Y0123800D01*
X0647000Y0123800D02*
X0647000Y0072800D01*
X0688000Y0133800D02*
X0678000Y0143800D01*
X0678000Y0239800D01*
X0678000Y0294800D01*
X0663000Y0309800D01*
X0658000Y0314800D01*
X0658000Y0340800D01*
X0659000Y0340800D02*
X0633000Y0340800D01*
X0633000Y0364005D01*
X0698000Y0382005D02*
X0698000Y0340800D01*
X0698000Y0314800D01*
X0693000Y0309800D01*
X0693000Y0279800D02*
X0705000Y0279800D01*
X0705000Y0153800D01*
X0693000Y0153800D01*
X0693000Y0143800D02*
X0727000Y0143800D01*
X0744000Y0160800D01*
X0744000Y0183800D01*
X0744000Y0203800D02*
X0744000Y0219800D01*
X0693000Y0239800D02*
X0678000Y0239800D01*
X0663000Y0239800D01*
X0663000Y0279800D02*
X0651000Y0279800D01*
X0651000Y0153800D01*
X0663000Y0153800D01*
X0661000Y0153800D01*
X0688000Y0133800D02*
X0693000Y0133800D01*
X0795000Y0155800D02*
X0826000Y0186800D01*
X0826000Y0190800D02*
X0826000Y0211800D01*
X0828000Y0230800D02*
X0828000Y0248800D01*
X0828000Y0255800D01*
X0828000Y0248800D02*
X0827000Y0247800D01*
X0811000Y0247800D01*
X0803000Y0255800D01*
X0783000Y0255800D02*
X0769000Y0255800D01*
X0754000Y0270800D01*
X0754000Y0275800D01*
X0744000Y0275800D02*
X0744000Y0259800D01*
X0764000Y0275800D02*
X0784000Y0275800D01*
X0792000Y0283800D01*
X0801000Y0283800D01*
X0828000Y0295800D02*
X0829000Y0294800D01*
X0868000Y0294800D01*
X0896000Y0294800D01*
X0896000Y0264800D01*
X0868000Y0254800D02*
X0868000Y0230800D01*
X0866000Y0211800D02*
X0866000Y0190800D01*
X0886000Y0190800D01*
X0896000Y0180800D02*
X0896000Y0150800D01*
X0896000Y0125800D01*
X0886000Y0115800D02*
X0867000Y0115800D01*
X0867000Y0135800D01*
X0933000Y0150800D02*
X0933000Y0168800D01*
X0933000Y0075800D02*
X0867000Y0075800D01*
X0933000Y0075800D02*
X0984000Y0075800D01*
X0933000Y0278800D02*
X0933000Y0314800D01*
X0933000Y0324800D01*
X0896000Y0324800D01*
X0896000Y0294800D01*
X0868000Y0311800D02*
X0868000Y0334800D01*
X0895000Y0343800D02*
X0896000Y0344800D01*
X0895000Y0343800D02*
X0895000Y0374800D01*
X0868000Y0374800D01*
X0828000Y0374800D01*
X0803000Y0374800D01*
X0802000Y0373800D01*
X0764000Y0336800D01*
X0764000Y0305800D01*
X0744000Y0305800D02*
X0744000Y0347800D01*
X0801000Y0303800D02*
X0821000Y0324800D01*
X0827000Y0324800D01*
X0828000Y0323800D01*
X0828000Y0334800D01*
X0828000Y0323800D02*
X0828000Y0311800D01*
X0895063Y0373800D02*
X0896063Y0374771D01*
X0895000Y0374800D01*
X0895063Y0373800D01*
X0895000Y0374800D02*
X0933000Y0374800D01*
X0960000Y0374800D01*
X0933000Y0334800D02*
X0933000Y0324800D01*
X0251000Y0407800D02*
X0251000Y0416800D01*
X0244000Y0423800D01*
X0211000Y0423800D01*
X0181000Y0453800D01*
X0147000Y0453800D01*
X0146000Y0452800D01*
X0231000Y0407800D02*
X0231000Y0385800D01*
X0231000Y0325800D02*
X0231000Y0302800D01*
X0232000Y0301800D01*
X0211000Y0245800D02*
X0211000Y0210800D01*
X0211000Y0160800D02*
X0211000Y0137800D01*
X0219000Y0129800D01*
X0230000Y0129800D01*
X0231000Y0130800D01*
X0251000Y0130800D02*
X0251000Y0120800D01*
X0238000Y0107800D01*
X0139000Y0107800D01*
X0138000Y0106800D01*
X0109000Y0269800D02*
X0124000Y0284800D01*
X0136000Y0284800D01*
D25*
X0147000Y0240800D02*
X0060000Y0240800D01*
X0025000Y0275800D01*
X0025000Y0355800D01*
X0055000Y0355800D01*
X0025000Y0355800D02*
X0010000Y0370800D01*
X0010000Y0409800D01*
X0024000Y0423800D01*
X0036000Y0411800D01*
X0165000Y0411800D01*
X0176000Y0422800D01*
X0176000Y0426800D01*
X0176000Y0436800D01*
X0091000Y0461800D02*
X0055000Y0425800D01*
X0025000Y0425800D02*
X0025000Y0424800D01*
X0024000Y0423800D01*
X0025000Y0425800D02*
X0025000Y0483800D01*
X0051000Y0509800D01*
X0051000Y0510800D01*
X0073795Y0533595D01*
X0073795Y0567800D01*
X0074000Y0568005D01*
X0091000Y0510800D02*
X0136205Y0556005D01*
X0136205Y0567800D01*
X0151000Y0578800D02*
X0152000Y0579800D01*
X0264000Y0580800D01*
X0304000Y0580800D02*
X0378000Y0580800D01*
X0377000Y0579800D02*
X0425000Y0531800D01*
X0442000Y0531800D01*
X0513000Y0531800D01*
X0575000Y0531800D01*
X0575000Y0471800D02*
X0575000Y0428800D01*
X0575000Y0368800D02*
X0515000Y0368800D01*
X0515000Y0348800D02*
X0442000Y0348800D01*
X0336000Y0346800D02*
X0332000Y0346800D01*
X0261000Y0346800D01*
X0147000Y0240800D02*
X0175000Y0212800D01*
X0175000Y0162800D01*
X0175000Y0152800D01*
X0252000Y0092800D02*
X0334000Y0092800D01*
X0334000Y0072800D02*
X0332000Y0072800D01*
X0252000Y0072800D01*
X0280000Y0024800D02*
X0143000Y0025800D01*
X0141000Y0023800D01*
X0320000Y0024800D02*
X0401000Y0025800D01*
X0401000Y0052800D01*
X0436000Y0087800D01*
X0515000Y0087800D02*
X0575000Y0087800D01*
X0575000Y0147800D02*
X0575000Y0187800D01*
X0575000Y0247800D02*
X0575000Y0288100D01*
X0575000Y0288800D02*
X0560068Y0288985D01*
X0542000Y0309800D01*
X0560185Y0288985D02*
X0542000Y0270800D01*
X0514000Y0270800D01*
X0514000Y0247800D01*
X0514000Y0270800D02*
X0463000Y0270800D01*
X0451000Y0269800D01*
X0575000Y0288800D02*
X0575000Y0368800D01*
X0337000Y0523800D02*
X0260000Y0523800D01*
X0091000Y0510800D02*
X0091000Y0461800D01*
X0896000Y0244800D02*
X0896000Y0222800D01*
X0896000Y0200800D01*
X0933000Y0208800D02*
X0933000Y0222800D01*
X0933000Y0238800D01*
X0959000Y0222800D02*
X0959000Y0195800D01*
X0959000Y0135800D02*
X0984000Y0135800D01*
X0986000Y0314800D02*
X0960000Y0314800D01*
D26*
X0868000Y0294800D02*
X0759000Y0294800D01*
X0754000Y0296800D01*
X0754000Y0305800D01*
X0659000Y0340800D02*
X0659000Y0342800D01*
X0560185Y0288985D02*
X0560068Y0288985D01*
X0336000Y0366800D02*
X0261000Y0366800D01*
X0176000Y0366800D01*
X0150000Y0375800D02*
X0130000Y0395800D01*
X0055000Y0395800D01*
X0055000Y0355800D02*
X0082000Y0328800D01*
X0141000Y0328800D01*
X0156000Y0313800D01*
X0156000Y0288800D01*
X0160000Y0284800D01*
X0163000Y0293800D02*
X0185000Y0293800D01*
X0195000Y0303800D01*
X0211000Y0303800D01*
X0166000Y0304800D02*
X0166000Y0315800D01*
X0150000Y0331800D01*
X0150000Y0375800D01*
X0101000Y0318800D02*
X0115000Y0304800D01*
X0136000Y0304800D01*
X0136000Y0294800D02*
X0144000Y0294800D01*
X0148000Y0290800D01*
X0148000Y0278800D01*
X0144000Y0274800D01*
X0136000Y0274800D01*
X0136000Y0294800D02*
X0139000Y0294800D01*
X0136000Y0294800D02*
X0066000Y0294800D01*
X0166000Y0274800D02*
X0186000Y0274800D01*
X0194000Y0266800D01*
X0211000Y0265800D01*
X0272000Y0179800D02*
X0251000Y0160800D01*
X0292000Y0150800D02*
X0292000Y0134800D01*
X0292000Y0150800D02*
X0292000Y0179800D01*
X0325000Y0179800D01*
X0333000Y0171800D01*
X0332000Y0150800D02*
X0332000Y0134800D01*
X0329000Y0391800D02*
X0329000Y0409800D01*
X0289000Y0409800D02*
X0289000Y0391800D01*
X0289000Y0409800D02*
X0289000Y0437800D01*
X0337000Y0437800D01*
X0337000Y0477800D02*
X0337000Y0503800D01*
X0260000Y0503800D01*
X0231000Y0474800D01*
X0231000Y0437800D01*
X0251000Y0437800D02*
X0269000Y0437800D01*
D27*
X0101000Y0318800D03*
X0631000Y0259800D03*
X0725000Y0259800D03*
D28*
X0896000Y0344800D02*
X0896063Y0374771D01*
X0895000Y0374800D02*
X0895000Y0407800D01*
X0420000Y0383800D02*
X0383000Y0346800D01*
X0332000Y0346800D01*
X0261000Y0346800D02*
X0176000Y0346800D01*
X0272000Y0245800D02*
X0333000Y0245800D01*
X0385000Y0245800D01*
X0420000Y0210800D01*
X0420000Y0103800D01*
X0403000Y0086800D01*
X0390000Y0072800D01*
X0332000Y0072800D01*
X0390000Y0073800D02*
X0403000Y0086800D01*
X0436000Y0087800D02*
X0438000Y0089800D01*
X0451000Y0089800D01*
X0451000Y0067800D02*
X0515000Y0067800D01*
X0252000Y0072800D02*
X0175000Y0072800D01*
X0175000Y0092800D02*
X0252000Y0092800D01*
X0420000Y0383800D02*
X0420000Y0486800D01*
X0383000Y0523800D01*
X0337000Y0523800D01*
D29*
X0738000Y0407800D02*
X0807000Y0407800D01*
X0847000Y0407800D02*
X0893000Y0407800D01*
X0986000Y0254800D02*
X0986000Y0222800D01*
X0959000Y0222800D01*
X0933000Y0222800D01*
X0896000Y0222800D01*
X0896000Y0033800D02*
X0845000Y0033800D01*
X0805000Y0033800D02*
X0713010Y0033800D01*
X0713010Y0031707D01*
X0695000Y0031800D01*
X0713010Y0031707D02*
X0733800Y0031600D01*
M02*
