%
M48
M72
T01C0.02362
T02C0.03200
T03C0.03937
T04C0.04000
T05C0.05000
T06C0.05500
T07C0.06693
T08C0.07000
T09C0.07900
T10C0.12598
T11C0.14950
%
T01
X101000Y318800
X631000Y259800
X725000Y259800
T02
X744000Y259800
X744000Y275800
X754000Y275800
X764000Y275800
X783000Y255800
X803000Y255800
X828000Y243800
X828000Y230800
X826000Y211800
X826000Y199800
X866000Y199800
X866000Y190800
X886000Y190800
X896000Y180800
X933000Y168800
X896000Y200800
X866000Y211800
X868000Y230800
X868000Y243800
X868000Y254800
X896000Y244800
X906000Y254800
X896000Y264800
X933000Y278800
X868000Y294800
X868000Y311800
X868000Y323800
X868000Y334800
X896000Y324800
X906000Y334800
X896000Y344800
X933000Y334800
X933000Y374800
X868000Y374800
X828000Y323800
X828000Y311800
X801000Y303800
X801000Y283800
X764000Y305800
X754000Y305800
X744000Y305800
X698000Y340800
X658000Y340800
X633000Y340800
X633000Y320800
X744000Y219800
X744000Y203800
X744000Y183800
X693000Y153800
X693000Y143800
X693000Y133800
X693000Y123800
X663000Y123800
X663000Y133800
X663000Y143800
X663000Y153800
X732000Y124800
X742000Y124800
X752000Y124800
X752000Y94800
X742000Y94800
X732000Y94800
X692000Y98800
X692000Y78800
X692000Y59800
X732000Y59800
X783000Y81800
X803000Y81800
X827000Y124800
X827000Y135800
X795000Y135800
X795000Y155800
X866000Y150800
X867000Y135800
X867000Y124800
X867000Y115800
X886000Y115800
X896000Y125800
X896000Y105800
X933000Y115800
X933000Y75800
X867000Y75800
X933000Y208800
X933000Y238800
X451000Y247800
X451000Y227800
X333000Y225800
X333000Y245800
X292000Y179800
X272000Y179800
X251000Y160800
X241000Y160800
X231000Y160800
X211000Y160800
X231000Y130800
X241000Y130800
X251000Y130800
X292000Y134800
X292000Y150800
X332000Y150800
X332000Y134800
X334000Y92800
X334000Y72800
X451000Y67800
X451000Y87800
X211000Y210800
X211000Y245800
X211000Y265800
X166000Y274800
X166000Y284800
X166000Y294800
X166000Y304800
X136000Y304800
X136000Y294800
X136000Y284800
X136000Y274800
X211000Y303800
X231000Y303800
X231000Y325800
X231000Y385800
X231000Y407800
X241000Y407800
X251000Y407800
X289000Y409800
X289000Y391800
X329000Y391800
X329000Y409800
X289000Y437800
X269000Y437800
X251000Y437800
X241000Y437800
X231000Y437800
X337000Y503800
X337000Y523800
X442000Y531800
X442000Y511800
X442000Y368800
X442000Y348800
X336000Y346800
X336000Y366800
X91000Y510800
X51000Y510800
T03
X116000Y446800
X116000Y436800
X116000Y426800
X176000Y426800
X176000Y436800
X176000Y366800
X176000Y346800
X116000Y346800
X116000Y366800
X55000Y375800
X55000Y395800
X25000Y395800
X25000Y375800
X25000Y355800
X55000Y355800
X55000Y425800
X25000Y425800
X337000Y437800
X337000Y477800
X663000Y309800
X693000Y309800
X693000Y279800
X663000Y279800
X663000Y259800
X663000Y239800
X693000Y239800
X693000Y259800
X828000Y255800
X828000Y295800
X828000Y334800
X828000Y374800
X826000Y190800
X826000Y150800
X827000Y115800
X827000Y75800
X333000Y171800
X333000Y211800
X175000Y162800
X175000Y152800
X115000Y152800
X115000Y162800
X115000Y172800
X115000Y92800
X115000Y72800
X175000Y72800
X175000Y92800
T04
X252000Y92800
X252000Y72800
X280000Y24800
X320000Y24800
X515000Y67800
X515000Y87800
X514000Y227800
X514000Y247800
X451000Y269800
X391000Y269800
X365000Y269800
X365000Y309800
X402000Y309800
X462000Y309800
X482000Y309800
X515000Y348800
X515000Y368800
X542000Y309800
X272000Y245800
X272000Y225800
X261000Y346800
X261000Y366800
X260000Y503800
X260000Y523800
X264000Y580800
X304000Y580800
X513000Y531800
X513000Y511800
X807000Y407800
X847000Y407800
X845000Y33800
X805000Y33800
T05
X647000Y72800
X66000Y294800
T06
X575000Y247800
X575000Y187800
X575000Y147800
X575000Y87800
X959000Y135800
X984000Y135800
X984000Y75800
X959000Y195800
X986000Y254800
X986000Y314800
X960000Y314800
X960000Y374800
X575000Y368800
X575000Y428800
X575000Y471800
X575000Y531800
T07
X698000Y397595
X698000Y382005
X633000Y379595
X633000Y364005
X151795Y567800
X136205Y567800
X73795Y567800
X58205Y567800
T08
X55961Y304839
X76039Y304839
X76039Y284761
X55961Y284761
X636961Y82839
X657039Y82839
X657039Y62761
X636961Y62761
T09
X770000Y34800
X896000Y33800
X986000Y223100
X895000Y407800
X771000Y408800
X575000Y288100
X336700Y295600
X401000Y25800
X206000Y26800
X377000Y579800
X205000Y580800
T10
X26000Y27800
X26000Y27800
X576000Y27800
X576000Y27800
X576000Y577800
X576000Y577800
X26000Y577800
X26000Y577800
T11
X631000Y402800
X631000Y402800
X975000Y402800
X975000Y402800
X975000Y27800
X975000Y27800
X631000Y27800
X631000Y27800
M30
