%
M48
M72
T01C0.02362
T02C0.03200
T03C0.03937
T04C0.04000
T05C0.05000
T06C0.06693
T07C0.07000
T08C0.07900
T09C0.14950
%
T01
X182800Y152800
X220800Y156800
X232800Y184800
X189800Y213800
X223800Y258800
X224800Y287800
X184800Y279800
X162800Y318800
X247800Y384800
X234800Y424800
X278800Y486800
X299800Y486800
X246800Y524800
X277800Y560800
X298800Y560800
X239800Y563800
X200500Y504100
X119800Y487800
X26800Y487800
X314800Y421800
X350800Y446800
X437800Y218800
X530800Y218800
X585800Y190800
X592800Y152800
X630800Y156800
X626800Y120800
X633800Y107800
X646800Y120800
X633800Y55800
X763800Y187800
X710800Y217800
X689800Y217800
X657800Y255800
X688800Y291800
X709800Y291800
X650800Y294800
X763800Y238800
X236800Y120800
X223800Y107800
X216800Y120800
X223800Y55800
T02
X468800Y131800
X468800Y141800
X468800Y151800
X468800Y161800
X498800Y161800
X498800Y151800
X498800Y141800
X498800Y131800
X439800Y279800
X439800Y299800
X464800Y299800
X504800Y299800
X93800Y568800
X53800Y568800
X28800Y568800
X28800Y548800
X58800Y313800
X58800Y303800
X58800Y293800
X58800Y283800
X88800Y283800
X88800Y293800
X88800Y303800
X88800Y313800
T03
X88800Y467800
X88800Y487800
X88800Y507800
X58800Y507800
X58800Y487800
X58800Y467800
X58800Y537800
X88800Y537800
X469800Y268800
X499800Y268800
X499800Y238800
X499800Y218800
X499800Y198800
X469800Y198800
X469800Y218800
X469800Y238800
T04
X669800Y359800
X709800Y359800
X706800Y32800
X666800Y32800
X296800Y32800
X256800Y32800
X258800Y628800
X298800Y628800
T05
X42800Y232800
X452800Y80800
T06
X439800Y323005
X439800Y338595
X504800Y334005
X504800Y349595
X93800Y603005
X93800Y618595
X28800Y607595
X28800Y592005
T07
X32761Y242839
X52839Y242839
X52839Y222761
X32761Y222761
X442761Y90839
X462839Y90839
X462839Y70761
X442761Y70761
T08
X347800Y32800
X169800Y33800
X388800Y321800
X580800Y361800
X757800Y359800
X798800Y187800
X757800Y32800
X579800Y33800
X346800Y628800
X169800Y630800
T09
X28800Y19800
X376800Y26800
X438800Y19800
X786800Y26800
X787800Y357800
X435800Y359800
X376800Y626800
X24800Y628800
M30
