G75*
%MOIN*%
%OFA0B0*%
%FSLAX25Y25*%
%IPPOS*%
%LPD*%
%AMOC8*
5,1,8,0,0,1.08239X$1,22.5*
%
%ADD10C,0.15750*%
%ADD11C,0.10839*%
%ADD12C,0.08300*%
%ADD13C,0.11300*%
%ADD14R,0.05918X0.06706*%
%ADD15C,0.06000*%
%ADD16C,0.07887*%
%ADD17R,0.04300X0.07400*%
%ADD18R,0.13398X0.07887*%
%ADD19R,0.03950X0.06312*%
%ADD20C,0.06600*%
%ADD21R,0.03937X0.06299*%
%ADD22R,0.09461X0.07887*%
%ADD23C,0.12650*%
%ADD24R,0.10249X0.10249*%
%ADD25OC8,0.06000*%
%ADD26R,0.06706X0.05918*%
%ADD27OC8,0.06800*%
%ADD28R,0.04762X0.04762*%
D10*
X0028800Y0019800D03*
X0376800Y0026800D03*
X0438800Y0019800D03*
X0786800Y0026800D03*
X0787800Y0357800D03*
X0435800Y0359800D03*
X0376800Y0626800D03*
X0024800Y0628800D03*
D11*
X0023780Y0607595D02*
X0033820Y0607595D01*
X0033820Y0592005D02*
X0023780Y0592005D01*
X0088780Y0603005D02*
X0098820Y0603005D01*
X0098820Y0618595D02*
X0088780Y0618595D01*
X0434780Y0338595D02*
X0444820Y0338595D01*
X0444820Y0323005D02*
X0434780Y0323005D01*
X0499780Y0334005D02*
X0509820Y0334005D01*
X0509820Y0349595D02*
X0499780Y0349595D01*
D12*
X0452800Y0080800D03*
X0042800Y0232800D03*
D13*
X0032761Y0222761D03*
X0052839Y0222761D03*
X0052839Y0242839D03*
X0032761Y0242839D03*
X0442761Y0090839D03*
X0462839Y0090839D03*
X0462839Y0070761D03*
X0442761Y0070761D03*
D14*
X0561060Y0095800D03*
X0568540Y0095800D03*
X0584060Y0095800D03*
X0591540Y0095800D03*
X0631060Y0081800D03*
X0638540Y0081800D03*
X0671060Y0106800D03*
X0678540Y0106800D03*
X0638540Y0142800D03*
X0631060Y0142800D03*
X0671060Y0169800D03*
X0678540Y0169800D03*
X0678540Y0188800D03*
X0671060Y0188800D03*
X0645540Y0206800D03*
X0638060Y0206800D03*
X0598540Y0254800D03*
X0591060Y0254800D03*
X0571540Y0254800D03*
X0564060Y0254800D03*
X0638060Y0281800D03*
X0645540Y0281800D03*
X0673060Y0262800D03*
X0680540Y0262800D03*
X0270540Y0232800D03*
X0263060Y0232800D03*
X0230540Y0216800D03*
X0223060Y0216800D03*
X0181540Y0247800D03*
X0174060Y0247800D03*
X0158540Y0247800D03*
X0151060Y0247800D03*
X0225060Y0276800D03*
X0232540Y0276800D03*
X0263060Y0295800D03*
X0270540Y0295800D03*
X0270540Y0316800D03*
X0263060Y0316800D03*
X0234540Y0335800D03*
X0227060Y0335800D03*
X0261060Y0386800D03*
X0268540Y0386800D03*
X0233540Y0403800D03*
X0226060Y0403800D03*
X0187540Y0447800D03*
X0180060Y0447800D03*
X0163540Y0447800D03*
X0156060Y0447800D03*
X0227060Y0475800D03*
X0234540Y0475800D03*
X0260060Y0457800D03*
X0267540Y0457800D03*
X0269540Y0531800D03*
X0262060Y0531800D03*
X0234540Y0550800D03*
X0227060Y0550800D03*
X0261060Y0169800D03*
X0268540Y0169800D03*
X0228540Y0142800D03*
X0221060Y0142800D03*
X0261060Y0106800D03*
X0268540Y0106800D03*
X0228540Y0081800D03*
X0221060Y0081800D03*
D15*
X0466200Y0131800D02*
X0471400Y0131800D01*
X0471400Y0141800D02*
X0466200Y0141800D01*
X0466200Y0151800D02*
X0471400Y0151800D01*
X0471400Y0161800D02*
X0466200Y0161800D01*
X0496200Y0161800D02*
X0501400Y0161800D01*
X0501400Y0151800D02*
X0496200Y0151800D01*
X0496200Y0141800D02*
X0501400Y0141800D01*
X0501400Y0131800D02*
X0496200Y0131800D01*
X0502200Y0299800D02*
X0507400Y0299800D01*
X0467400Y0299800D02*
X0462200Y0299800D01*
X0091400Y0303800D02*
X0086200Y0303800D01*
X0086200Y0293800D02*
X0091400Y0293800D01*
X0091400Y0283800D02*
X0086200Y0283800D01*
X0061400Y0283800D02*
X0056200Y0283800D01*
X0056200Y0293800D02*
X0061400Y0293800D01*
X0061400Y0303800D02*
X0056200Y0303800D01*
X0056200Y0313800D02*
X0061400Y0313800D01*
X0086200Y0313800D02*
X0091400Y0313800D01*
X0091200Y0568800D02*
X0096400Y0568800D01*
X0056400Y0568800D02*
X0051200Y0568800D01*
D16*
X0058800Y0537800D03*
X0088800Y0537800D03*
X0088800Y0507800D03*
X0088800Y0487800D03*
X0088800Y0467800D03*
X0058800Y0467800D03*
X0058800Y0487800D03*
X0058800Y0507800D03*
X0469800Y0268800D03*
X0499800Y0268800D03*
X0499800Y0238800D03*
X0499800Y0218800D03*
X0499800Y0198800D03*
X0469800Y0198800D03*
X0469800Y0218800D03*
X0469800Y0238800D03*
D17*
X0611500Y0286250D03*
X0618800Y0286250D03*
X0626100Y0286250D03*
X0626100Y0315350D03*
X0618800Y0315350D03*
X0611500Y0315350D03*
X0612800Y0143350D03*
X0605500Y0143350D03*
X0620100Y0143350D03*
X0620100Y0114250D03*
X0612800Y0114250D03*
X0605500Y0114250D03*
X0215100Y0418250D03*
X0207800Y0418250D03*
X0200500Y0418250D03*
X0200500Y0447350D03*
X0207800Y0447350D03*
X0215100Y0447350D03*
X0215100Y0555250D03*
X0207800Y0555250D03*
X0200500Y0555250D03*
X0200500Y0584350D03*
X0207800Y0584350D03*
X0215100Y0584350D03*
X0210100Y0276350D03*
X0202800Y0276350D03*
X0195500Y0276350D03*
X0195500Y0247250D03*
X0202800Y0247250D03*
X0210100Y0247250D03*
X0210100Y0143350D03*
X0202800Y0143350D03*
X0195500Y0143350D03*
X0195500Y0114250D03*
X0202800Y0114250D03*
X0210100Y0114250D03*
D18*
X0343800Y0128776D03*
X0343800Y0150824D03*
X0343800Y0188776D03*
X0343800Y0210824D03*
X0332800Y0256776D03*
X0332800Y0278824D03*
X0332800Y0347776D03*
X0332800Y0369824D03*
X0332800Y0424776D03*
X0332800Y0446824D03*
X0332800Y0491776D03*
X0332800Y0513824D03*
X0333800Y0565776D03*
X0333800Y0587824D03*
X0744800Y0318824D03*
X0744800Y0296776D03*
X0743800Y0244824D03*
X0743800Y0222776D03*
X0753800Y0150824D03*
X0753800Y0128776D03*
X0753800Y0080824D03*
X0753800Y0058776D03*
X0343800Y0058776D03*
X0343800Y0080824D03*
D19*
X0318702Y0076599D03*
X0306898Y0076599D03*
X0304898Y0139599D03*
X0316702Y0139599D03*
X0315702Y0201599D03*
X0303898Y0201599D03*
X0298898Y0277599D03*
X0310702Y0277599D03*
X0311702Y0355001D03*
X0299898Y0355001D03*
X0299898Y0430001D03*
X0311702Y0430001D03*
X0311702Y0497001D03*
X0299898Y0497001D03*
X0298898Y0573001D03*
X0310702Y0573001D03*
X0709898Y0304001D03*
X0721702Y0304001D03*
X0722702Y0228001D03*
X0710898Y0228001D03*
X0714898Y0139599D03*
X0726702Y0139599D03*
X0728702Y0076599D03*
X0716898Y0076599D03*
D20*
X0721700Y0069384D02*
X0723900Y0069384D01*
X0723900Y0060814D01*
X0721700Y0060814D01*
X0721700Y0069384D01*
X0721700Y0067413D02*
X0723900Y0067413D01*
X0721900Y0132384D02*
X0719700Y0132384D01*
X0721900Y0132384D02*
X0721900Y0123814D01*
X0719700Y0123814D01*
X0719700Y0132384D01*
X0719700Y0130413D02*
X0721900Y0130413D01*
X0717900Y0235216D02*
X0715700Y0235216D01*
X0715700Y0243786D01*
X0717900Y0243786D01*
X0717900Y0235216D01*
X0717900Y0241815D02*
X0715700Y0241815D01*
X0714700Y0311216D02*
X0716900Y0311216D01*
X0714700Y0311216D02*
X0714700Y0319786D01*
X0716900Y0319786D01*
X0716900Y0311216D01*
X0716900Y0317815D02*
X0714700Y0317815D01*
X0311900Y0132384D02*
X0309700Y0132384D01*
X0311900Y0132384D02*
X0311900Y0123814D01*
X0309700Y0123814D01*
X0309700Y0132384D01*
X0309700Y0130413D02*
X0311900Y0130413D01*
X0310900Y0194384D02*
X0308700Y0194384D01*
X0310900Y0194384D02*
X0310900Y0185814D01*
X0308700Y0185814D01*
X0308700Y0194384D01*
X0308700Y0192413D02*
X0310900Y0192413D01*
X0305900Y0270384D02*
X0303700Y0270384D01*
X0305900Y0270384D02*
X0305900Y0261814D01*
X0303700Y0261814D01*
X0303700Y0270384D01*
X0303700Y0268413D02*
X0305900Y0268413D01*
X0306900Y0362216D02*
X0304700Y0362216D01*
X0304700Y0370786D01*
X0306900Y0370786D01*
X0306900Y0362216D01*
X0306900Y0368815D02*
X0304700Y0368815D01*
X0304700Y0437216D02*
X0306900Y0437216D01*
X0304700Y0437216D02*
X0304700Y0445786D01*
X0306900Y0445786D01*
X0306900Y0437216D01*
X0306900Y0443815D02*
X0304700Y0443815D01*
X0304700Y0504216D02*
X0306900Y0504216D01*
X0304700Y0504216D02*
X0304700Y0512786D01*
X0306900Y0512786D01*
X0306900Y0504216D01*
X0306900Y0510815D02*
X0304700Y0510815D01*
X0303700Y0580216D02*
X0305900Y0580216D01*
X0303700Y0580216D02*
X0303700Y0588786D01*
X0305900Y0588786D01*
X0305900Y0580216D01*
X0305900Y0586815D02*
X0303700Y0586815D01*
X0311700Y0069384D02*
X0313900Y0069384D01*
X0313900Y0060814D01*
X0311700Y0060814D01*
X0311700Y0069384D01*
X0311700Y0067413D02*
X0313900Y0067413D01*
D21*
X0312800Y0076595D03*
X0310800Y0139595D03*
X0309800Y0201595D03*
X0304800Y0277595D03*
X0305800Y0355005D03*
X0305800Y0430005D03*
X0305800Y0497005D03*
X0304800Y0573005D03*
X0715800Y0304005D03*
X0716800Y0228005D03*
X0720800Y0139595D03*
X0722800Y0076595D03*
D22*
X0779800Y0078839D03*
X0779800Y0058761D03*
X0779800Y0140761D03*
X0779800Y0160839D03*
X0779800Y0204761D03*
X0779800Y0224839D03*
X0779800Y0264761D03*
X0779800Y0284839D03*
X0369800Y0294839D03*
X0369800Y0274761D03*
X0369800Y0224839D03*
X0369800Y0204761D03*
X0369800Y0160839D03*
X0369800Y0140761D03*
X0369800Y0078839D03*
X0369800Y0058761D03*
X0369800Y0355761D03*
X0369800Y0375839D03*
X0368800Y0413761D03*
X0368800Y0433839D03*
X0368800Y0473761D03*
X0368800Y0493839D03*
X0368800Y0533761D03*
X0368800Y0553839D03*
D23*
X0346800Y0622875D02*
X0346800Y0634725D01*
X0169800Y0636725D02*
X0169800Y0624875D01*
X0388800Y0327725D02*
X0388800Y0315875D01*
X0580800Y0355875D02*
X0580800Y0367725D01*
X0757800Y0365725D02*
X0757800Y0353875D01*
X0798800Y0193725D02*
X0798800Y0181875D01*
X0757800Y0038725D02*
X0757800Y0026875D01*
X0579800Y0027875D02*
X0579800Y0039725D01*
X0347800Y0038725D02*
X0347800Y0026875D01*
X0169800Y0027875D02*
X0169800Y0039725D01*
D24*
X0246800Y0055139D03*
X0246800Y0072461D03*
X0256139Y0088800D03*
X0273461Y0088800D03*
X0247800Y0123139D03*
X0247800Y0140461D03*
X0256139Y0154800D03*
X0273461Y0154800D03*
X0248800Y0185139D03*
X0248800Y0202461D03*
X0257139Y0216800D03*
X0274461Y0216800D03*
X0248800Y0246139D03*
X0248800Y0263461D03*
X0256139Y0279800D03*
X0273461Y0279800D03*
X0275461Y0335800D03*
X0258139Y0335800D03*
X0250800Y0352139D03*
X0250800Y0369461D03*
X0257139Y0403800D03*
X0274461Y0403800D03*
X0251800Y0420139D03*
X0251800Y0437461D03*
X0256139Y0476800D03*
X0273461Y0476800D03*
X0252800Y0494139D03*
X0252800Y0511461D03*
X0257139Y0550800D03*
X0252800Y0567139D03*
X0252800Y0584461D03*
X0274461Y0550800D03*
X0663800Y0315461D03*
X0663800Y0298139D03*
X0668139Y0281800D03*
X0685461Y0281800D03*
X0663800Y0242461D03*
X0663800Y0225139D03*
X0667139Y0207800D03*
X0684461Y0207800D03*
X0683461Y0154800D03*
X0666139Y0154800D03*
X0657800Y0140461D03*
X0657800Y0123139D03*
X0666139Y0088800D03*
X0683461Y0088800D03*
X0656800Y0072461D03*
X0656800Y0055139D03*
D25*
X0439800Y0279800D03*
X0439800Y0299800D03*
X0028800Y0548800D03*
X0028800Y0568800D03*
D26*
X0277800Y0573060D03*
X0277800Y0580540D03*
X0278800Y0505540D03*
X0278800Y0498060D03*
X0278800Y0437540D03*
X0278800Y0430060D03*
X0280800Y0362540D03*
X0280800Y0355060D03*
X0280800Y0261540D03*
X0280800Y0254060D03*
X0283800Y0196540D03*
X0283800Y0189060D03*
X0283800Y0134540D03*
X0283800Y0127060D03*
X0283800Y0070540D03*
X0283800Y0063060D03*
X0689800Y0229060D03*
X0689800Y0236540D03*
X0688800Y0304060D03*
X0688800Y0311540D03*
X0693800Y0134540D03*
X0693800Y0127060D03*
X0693800Y0070540D03*
X0693800Y0063060D03*
D27*
X0706800Y0032800D03*
X0666800Y0032800D03*
X0296800Y0032800D03*
X0256800Y0032800D03*
X0669800Y0359800D03*
X0709800Y0359800D03*
X0298800Y0628800D03*
X0258800Y0628800D03*
D28*
X0239800Y0563800D03*
X0277800Y0560800D03*
X0298800Y0560800D03*
X0246800Y0524800D03*
X0278800Y0486800D03*
X0299800Y0486800D03*
X0350800Y0446800D03*
X0314800Y0421800D03*
X0247800Y0384800D03*
X0234800Y0424800D03*
X0200500Y0504100D03*
X0119800Y0487800D03*
X0026800Y0487800D03*
X0162800Y0318800D03*
X0184800Y0279800D03*
X0224800Y0287800D03*
X0223800Y0258800D03*
X0189800Y0213800D03*
X0232800Y0184800D03*
X0220800Y0156800D03*
X0216800Y0120800D03*
X0223800Y0107800D03*
X0236800Y0120800D03*
X0182800Y0152800D03*
X0223800Y0055800D03*
X0437800Y0218800D03*
X0530800Y0218800D03*
X0585800Y0190800D03*
X0592800Y0152800D03*
X0630800Y0156800D03*
X0626800Y0120800D03*
X0633800Y0107800D03*
X0646800Y0120800D03*
X0633800Y0055800D03*
X0763800Y0187800D03*
X0710800Y0217800D03*
X0689800Y0217800D03*
X0657800Y0255800D03*
X0688800Y0291800D03*
X0709800Y0291800D03*
X0650800Y0294800D03*
X0763800Y0238800D03*
M02*
