G75*
%MOIN*%
%OFA0B0*%
%FSLAX25Y25*%
%IPPOS*%
%LPD*%
%AMOC8*
5,1,8,0,0,1.08239X$1,22.5*
%
%ADD10C,0.10039*%
%ADD11C,0.07500*%
%ADD12C,0.10500*%
%ADD13C,0.05200*%
%ADD14C,0.07087*%
%ADD15C,0.11850*%
%ADD16OC8,0.05200*%
%ADD17OC8,0.06000*%
%ADD18C,0.01600*%
%ADD19C,0.06600*%
%ADD20C,0.15000*%
%ADD21R,0.03962X0.03962*%
%ADD22C,0.05600*%
%ADD23C,0.04000*%
D10*
X0434780Y0323005D02*
X0444820Y0323005D01*
X0444820Y0338595D02*
X0434780Y0338595D01*
X0499780Y0334005D02*
X0509820Y0334005D01*
X0509820Y0349595D02*
X0499780Y0349595D01*
X0098820Y0603005D02*
X0088780Y0603005D01*
X0088780Y0618595D02*
X0098820Y0618595D01*
X0033820Y0607595D02*
X0023780Y0607595D01*
X0023780Y0592005D02*
X0033820Y0592005D01*
D11*
X0042800Y0232800D03*
X0452800Y0080800D03*
D12*
X0442761Y0090839D03*
X0462839Y0090839D03*
X0462839Y0070761D03*
X0442761Y0070761D03*
X0052839Y0222761D03*
X0032761Y0222761D03*
X0032761Y0242839D03*
X0052839Y0242839D03*
D13*
X0056200Y0283800D02*
X0061400Y0283800D01*
X0061400Y0293800D02*
X0056200Y0293800D01*
X0056200Y0303800D02*
X0061400Y0303800D01*
X0061400Y0313800D02*
X0056200Y0313800D01*
X0086200Y0313800D02*
X0091400Y0313800D01*
X0091400Y0303800D02*
X0086200Y0303800D01*
X0086200Y0293800D02*
X0091400Y0293800D01*
X0091400Y0283800D02*
X0086200Y0283800D01*
X0091200Y0568800D02*
X0096400Y0568800D01*
X0056400Y0568800D02*
X0051200Y0568800D01*
X0462200Y0299800D02*
X0467400Y0299800D01*
X0502200Y0299800D02*
X0507400Y0299800D01*
X0501400Y0161800D02*
X0496200Y0161800D01*
X0496200Y0151800D02*
X0501400Y0151800D01*
X0501400Y0141800D02*
X0496200Y0141800D01*
X0496200Y0131800D02*
X0501400Y0131800D01*
X0471400Y0131800D02*
X0466200Y0131800D01*
X0466200Y0141800D02*
X0471400Y0141800D01*
X0471400Y0151800D02*
X0466200Y0151800D01*
X0466200Y0161800D02*
X0471400Y0161800D01*
D14*
X0469800Y0198800D03*
X0469800Y0218800D03*
X0469800Y0238800D03*
X0499800Y0238800D03*
X0499800Y0218800D03*
X0499800Y0198800D03*
X0499800Y0268800D03*
X0469800Y0268800D03*
X0088800Y0467800D03*
X0088800Y0487800D03*
X0088800Y0507800D03*
X0058800Y0507800D03*
X0058800Y0487800D03*
X0058800Y0467800D03*
X0058800Y0537800D03*
X0088800Y0537800D03*
D15*
X0169800Y0624875D02*
X0169800Y0636725D01*
X0346800Y0634725D02*
X0346800Y0622875D01*
X0580800Y0367725D02*
X0580800Y0355875D01*
X0757800Y0353875D02*
X0757800Y0365725D01*
X0798800Y0193725D02*
X0798800Y0181875D01*
X0757800Y0038725D02*
X0757800Y0026875D01*
X0579800Y0027875D02*
X0579800Y0039725D01*
X0347800Y0038725D02*
X0347800Y0026875D01*
X0169800Y0027875D02*
X0169800Y0039725D01*
X0388800Y0315875D02*
X0388800Y0327725D01*
D16*
X0439800Y0299800D03*
X0439800Y0279800D03*
X0028800Y0548800D03*
X0028800Y0568800D03*
D17*
X0258800Y0628800D03*
X0298800Y0628800D03*
X0669800Y0359800D03*
X0709800Y0359800D03*
X0706800Y0032800D03*
X0666800Y0032800D03*
X0296800Y0032800D03*
X0256800Y0032800D03*
D18*
X0009200Y0009200D02*
X0009200Y0644400D01*
X0132800Y0644400D01*
X0132800Y0009200D01*
X0039236Y0009200D01*
X0040703Y0010667D01*
X0042661Y0014058D01*
X0043675Y0017842D01*
X0043675Y0021758D01*
X0042661Y0025542D01*
X0040703Y0028933D01*
X0037933Y0031703D01*
X0034542Y0033661D01*
X0030758Y0034675D01*
X0026842Y0034675D01*
X0023058Y0033661D01*
X0019667Y0031703D01*
X0016897Y0028933D01*
X0014939Y0025542D01*
X0013925Y0021758D01*
X0013925Y0017842D01*
X0014939Y0014058D01*
X0016897Y0010667D01*
X0018364Y0009200D01*
X0009200Y0009200D01*
X0009200Y0009793D02*
X0017771Y0009793D01*
X0016479Y0011391D02*
X0009200Y0011391D01*
X0009200Y0012990D02*
X0015556Y0012990D01*
X0014797Y0014588D02*
X0009200Y0014588D01*
X0009200Y0016187D02*
X0014368Y0016187D01*
X0013940Y0017785D02*
X0009200Y0017785D01*
X0009200Y0019384D02*
X0013925Y0019384D01*
X0013925Y0020982D02*
X0009200Y0020982D01*
X0009200Y0022581D02*
X0014145Y0022581D01*
X0014574Y0024179D02*
X0009200Y0024179D01*
X0009200Y0025778D02*
X0015075Y0025778D01*
X0015998Y0027376D02*
X0009200Y0027376D01*
X0009200Y0028975D02*
X0016938Y0028975D01*
X0018537Y0030573D02*
X0009200Y0030573D01*
X0009200Y0032172D02*
X0020478Y0032172D01*
X0023465Y0033770D02*
X0009200Y0033770D01*
X0009200Y0035369D02*
X0132800Y0035369D01*
X0132800Y0036967D02*
X0009200Y0036967D01*
X0009200Y0038566D02*
X0132800Y0038566D01*
X0132800Y0040164D02*
X0009200Y0040164D01*
X0009200Y0041763D02*
X0132800Y0041763D01*
X0132800Y0043361D02*
X0009200Y0043361D01*
X0009200Y0044960D02*
X0132800Y0044960D01*
X0132800Y0046558D02*
X0009200Y0046558D01*
X0009200Y0048157D02*
X0132800Y0048157D01*
X0132800Y0049755D02*
X0009200Y0049755D01*
X0009200Y0051354D02*
X0132800Y0051354D01*
X0132800Y0052952D02*
X0009200Y0052952D01*
X0009200Y0054551D02*
X0132800Y0054551D01*
X0132800Y0056149D02*
X0009200Y0056149D01*
X0009200Y0057748D02*
X0132800Y0057748D01*
X0132800Y0059346D02*
X0009200Y0059346D01*
X0009200Y0060945D02*
X0132800Y0060945D01*
X0132800Y0062543D02*
X0009200Y0062543D01*
X0009200Y0064142D02*
X0132800Y0064142D01*
X0132800Y0065740D02*
X0009200Y0065740D01*
X0009200Y0067339D02*
X0132800Y0067339D01*
X0132800Y0068937D02*
X0009200Y0068937D01*
X0009200Y0070536D02*
X0132800Y0070536D01*
X0132800Y0072134D02*
X0009200Y0072134D01*
X0009200Y0073733D02*
X0132800Y0073733D01*
X0132800Y0075332D02*
X0009200Y0075332D01*
X0009200Y0076930D02*
X0132800Y0076930D01*
X0132800Y0078529D02*
X0009200Y0078529D01*
X0009200Y0080127D02*
X0132800Y0080127D01*
X0132800Y0081726D02*
X0009200Y0081726D01*
X0009200Y0083324D02*
X0132800Y0083324D01*
X0132800Y0084923D02*
X0009200Y0084923D01*
X0009200Y0086521D02*
X0132800Y0086521D01*
X0132800Y0088120D02*
X0009200Y0088120D01*
X0009200Y0089718D02*
X0132800Y0089718D01*
X0132800Y0091317D02*
X0009200Y0091317D01*
X0009200Y0092915D02*
X0132800Y0092915D01*
X0132800Y0094514D02*
X0009200Y0094514D01*
X0009200Y0096112D02*
X0132800Y0096112D01*
X0132800Y0097711D02*
X0009200Y0097711D01*
X0009200Y0099309D02*
X0132800Y0099309D01*
X0132800Y0100908D02*
X0009200Y0100908D01*
X0009200Y0102506D02*
X0132800Y0102506D01*
X0132800Y0104105D02*
X0009200Y0104105D01*
X0009200Y0105703D02*
X0132800Y0105703D01*
X0132800Y0107302D02*
X0009200Y0107302D01*
X0009200Y0108900D02*
X0132800Y0108900D01*
X0132800Y0110499D02*
X0009200Y0110499D01*
X0009200Y0112097D02*
X0132800Y0112097D01*
X0132800Y0113696D02*
X0009200Y0113696D01*
X0009200Y0115294D02*
X0132800Y0115294D01*
X0132800Y0116893D02*
X0009200Y0116893D01*
X0009200Y0118491D02*
X0132800Y0118491D01*
X0132800Y0120090D02*
X0009200Y0120090D01*
X0009200Y0121688D02*
X0132800Y0121688D01*
X0132800Y0123287D02*
X0009200Y0123287D01*
X0009200Y0124885D02*
X0132800Y0124885D01*
X0132800Y0126484D02*
X0009200Y0126484D01*
X0009200Y0128082D02*
X0132800Y0128082D01*
X0132800Y0129681D02*
X0009200Y0129681D01*
X0009200Y0131279D02*
X0132800Y0131279D01*
X0132800Y0132878D02*
X0009200Y0132878D01*
X0009200Y0134476D02*
X0132800Y0134476D01*
X0132800Y0136075D02*
X0009200Y0136075D01*
X0009200Y0137673D02*
X0132800Y0137673D01*
X0132800Y0139272D02*
X0009200Y0139272D01*
X0009200Y0140870D02*
X0132800Y0140870D01*
X0132800Y0142469D02*
X0009200Y0142469D01*
X0009200Y0144068D02*
X0132800Y0144068D01*
X0132800Y0145666D02*
X0009200Y0145666D01*
X0009200Y0147265D02*
X0132800Y0147265D01*
X0132800Y0148863D02*
X0009200Y0148863D01*
X0009200Y0150462D02*
X0132800Y0150462D01*
X0132800Y0152060D02*
X0009200Y0152060D01*
X0009200Y0153659D02*
X0132800Y0153659D01*
X0132800Y0155257D02*
X0009200Y0155257D01*
X0009200Y0156856D02*
X0132800Y0156856D01*
X0132800Y0158454D02*
X0009200Y0158454D01*
X0009200Y0160053D02*
X0132800Y0160053D01*
X0132800Y0161651D02*
X0009200Y0161651D01*
X0009200Y0163250D02*
X0132800Y0163250D01*
X0132800Y0164848D02*
X0009200Y0164848D01*
X0009200Y0166447D02*
X0132800Y0166447D01*
X0132800Y0168045D02*
X0009200Y0168045D01*
X0009200Y0169644D02*
X0132800Y0169644D01*
X0132800Y0171242D02*
X0009200Y0171242D01*
X0009200Y0172841D02*
X0132800Y0172841D01*
X0132800Y0174439D02*
X0009200Y0174439D01*
X0009200Y0176038D02*
X0132800Y0176038D01*
X0132800Y0177636D02*
X0009200Y0177636D01*
X0009200Y0179235D02*
X0132800Y0179235D01*
X0132800Y0180833D02*
X0009200Y0180833D01*
X0009200Y0182432D02*
X0132800Y0182432D01*
X0132800Y0184030D02*
X0009200Y0184030D01*
X0009200Y0185629D02*
X0132800Y0185629D01*
X0132800Y0187227D02*
X0009200Y0187227D01*
X0009200Y0188826D02*
X0132800Y0188826D01*
X0132800Y0190424D02*
X0009200Y0190424D01*
X0009200Y0192023D02*
X0132800Y0192023D01*
X0132800Y0193621D02*
X0009200Y0193621D01*
X0009200Y0195220D02*
X0132800Y0195220D01*
X0132800Y0196818D02*
X0009200Y0196818D01*
X0009200Y0198417D02*
X0132800Y0198417D01*
X0132800Y0200015D02*
X0009200Y0200015D01*
X0009200Y0201614D02*
X0132800Y0201614D01*
X0132800Y0203212D02*
X0009200Y0203212D01*
X0009200Y0204811D02*
X0132800Y0204811D01*
X0132800Y0206409D02*
X0009200Y0206409D01*
X0009200Y0208008D02*
X0132800Y0208008D01*
X0132800Y0209606D02*
X0009200Y0209606D01*
X0009200Y0211205D02*
X0132800Y0211205D01*
X0132800Y0212803D02*
X0009200Y0212803D01*
X0009200Y0214402D02*
X0132800Y0214402D01*
X0132800Y0216001D02*
X0009200Y0216001D01*
X0009200Y0217599D02*
X0132800Y0217599D01*
X0132800Y0219198D02*
X0009200Y0219198D01*
X0009200Y0220796D02*
X0132800Y0220796D01*
X0132800Y0222395D02*
X0047047Y0222395D01*
X0047104Y0222410D02*
X0049646Y0223878D01*
X0051722Y0225954D01*
X0053190Y0228496D01*
X0053950Y0231332D01*
X0053950Y0234268D01*
X0053500Y0235947D01*
X0053500Y0273100D01*
X0060209Y0273100D01*
X0062821Y0273800D01*
X0063389Y0273800D01*
X0067065Y0275322D01*
X0069878Y0278135D01*
X0071400Y0281811D01*
X0071400Y0285789D01*
X0069878Y0289465D01*
X0067065Y0292278D01*
X0063389Y0293800D01*
X0067065Y0295322D01*
X0067105Y0295363D01*
X0076340Y0286128D01*
X0076200Y0285789D01*
X0076200Y0281811D01*
X0077722Y0278135D01*
X0080535Y0275322D01*
X0084211Y0273800D01*
X0093389Y0273800D01*
X0097065Y0275322D01*
X0099878Y0278135D01*
X0101400Y0281811D01*
X0101400Y0285789D01*
X0100153Y0288800D01*
X0101400Y0291811D01*
X0101400Y0295789D01*
X0100153Y0298800D01*
X0101400Y0301811D01*
X0101400Y0305789D01*
X0100153Y0308800D01*
X0101016Y0310884D01*
X0109362Y0319230D01*
X0110771Y0321670D01*
X0111500Y0324391D01*
X0111500Y0509209D01*
X0110771Y0511930D01*
X0109362Y0514370D01*
X0107370Y0516362D01*
X0104930Y0517771D01*
X0102209Y0518500D01*
X0091149Y0518500D01*
X0090241Y0518743D01*
X0087359Y0518743D01*
X0084576Y0517998D01*
X0084500Y0517954D01*
X0084500Y0524209D01*
X0083771Y0526930D01*
X0082786Y0528636D01*
X0084576Y0527602D01*
X0087359Y0526857D01*
X0090241Y0526857D01*
X0093024Y0527602D01*
X0095519Y0529043D01*
X0097557Y0531081D01*
X0098027Y0531895D01*
X0102362Y0536230D01*
X0103771Y0538670D01*
X0104500Y0541391D01*
X0104500Y0562758D01*
X0104878Y0563135D01*
X0106400Y0566811D01*
X0106400Y0570789D01*
X0104878Y0574465D01*
X0104500Y0574842D01*
X0104500Y0591943D01*
X0106446Y0593066D01*
X0108758Y0595379D01*
X0110393Y0598211D01*
X0111239Y0601370D01*
X0111239Y0604640D01*
X0110393Y0607799D01*
X0108758Y0610631D01*
X0106446Y0612943D01*
X0103613Y0614578D01*
X0100455Y0615424D01*
X0087145Y0615424D01*
X0083986Y0614578D01*
X0081154Y0612943D01*
X0078842Y0610631D01*
X0077207Y0607799D01*
X0076361Y0604640D01*
X0076361Y0601370D01*
X0077207Y0598211D01*
X0078842Y0595379D01*
X0081154Y0593066D01*
X0083100Y0591943D01*
X0083100Y0574842D01*
X0082722Y0574465D01*
X0081200Y0570789D01*
X0081200Y0566811D01*
X0082722Y0563135D01*
X0083100Y0562758D01*
X0083100Y0547232D01*
X0082895Y0547027D01*
X0082081Y0546557D01*
X0080043Y0544519D01*
X0078602Y0542024D01*
X0077857Y0539241D01*
X0077857Y0536359D01*
X0078602Y0533576D01*
X0079212Y0532520D01*
X0068027Y0543705D01*
X0067557Y0544519D01*
X0065519Y0546557D01*
X0064705Y0547027D01*
X0064500Y0547232D01*
X0064500Y0562758D01*
X0064878Y0563135D01*
X0066400Y0566811D01*
X0066400Y0570789D01*
X0064878Y0574465D01*
X0063895Y0575447D01*
X0062962Y0577063D01*
X0061063Y0578962D01*
X0058737Y0580305D01*
X0056143Y0581000D01*
X0053457Y0581000D01*
X0050863Y0580305D01*
X0049469Y0579500D01*
X0039500Y0579500D01*
X0039500Y0580943D01*
X0041446Y0582066D01*
X0043758Y0584379D01*
X0045393Y0587211D01*
X0046239Y0590370D01*
X0046239Y0593640D01*
X0045393Y0596799D01*
X0043758Y0599631D01*
X0041446Y0601943D01*
X0038613Y0603578D01*
X0035455Y0604424D01*
X0022145Y0604424D01*
X0018986Y0603578D01*
X0016154Y0601943D01*
X0013842Y0599631D01*
X0012207Y0596799D01*
X0011361Y0593640D01*
X0011361Y0590370D01*
X0012207Y0587211D01*
X0013842Y0584379D01*
X0016154Y0582066D01*
X0018100Y0580943D01*
X0018100Y0567391D01*
X0018800Y0564779D01*
X0018800Y0564658D01*
X0018886Y0564572D01*
X0020238Y0562230D01*
X0022230Y0560238D01*
X0024572Y0558886D01*
X0024658Y0558800D01*
X0024779Y0558800D01*
X0027391Y0558100D01*
X0043100Y0558100D01*
X0043100Y0541391D01*
X0043829Y0538670D01*
X0045238Y0536230D01*
X0049573Y0531895D01*
X0050043Y0531081D01*
X0052081Y0529043D01*
X0052895Y0528573D01*
X0063100Y0518368D01*
X0063100Y0517954D01*
X0063024Y0517998D01*
X0060241Y0518743D01*
X0057359Y0518743D01*
X0056451Y0518500D01*
X0045391Y0518500D01*
X0042670Y0517771D01*
X0040230Y0516362D01*
X0038238Y0514370D01*
X0036829Y0511930D01*
X0036100Y0509209D01*
X0036100Y0312391D01*
X0036134Y0312266D01*
X0034238Y0310370D01*
X0032829Y0307930D01*
X0032100Y0305209D01*
X0032100Y0235947D01*
X0031650Y0234268D01*
X0031650Y0231332D01*
X0032410Y0228496D01*
X0033878Y0225954D01*
X0035954Y0223878D01*
X0038496Y0222410D01*
X0041332Y0221650D01*
X0044268Y0221650D01*
X0047104Y0222410D01*
X0049762Y0223993D02*
X0132800Y0223993D01*
X0132800Y0225592D02*
X0051360Y0225592D01*
X0052436Y0227190D02*
X0132800Y0227190D01*
X0132800Y0228789D02*
X0053268Y0228789D01*
X0053697Y0230387D02*
X0132800Y0230387D01*
X0132800Y0231986D02*
X0053950Y0231986D01*
X0053950Y0233584D02*
X0132800Y0233584D01*
X0132800Y0235183D02*
X0053705Y0235183D01*
X0053500Y0236781D02*
X0132800Y0236781D01*
X0132800Y0238380D02*
X0053500Y0238380D01*
X0053500Y0239978D02*
X0132800Y0239978D01*
X0132800Y0241577D02*
X0053500Y0241577D01*
X0053500Y0243175D02*
X0132800Y0243175D01*
X0132800Y0244774D02*
X0053500Y0244774D01*
X0053500Y0246372D02*
X0132800Y0246372D01*
X0132800Y0247971D02*
X0053500Y0247971D01*
X0053500Y0249569D02*
X0132800Y0249569D01*
X0132800Y0251168D02*
X0053500Y0251168D01*
X0053500Y0252766D02*
X0132800Y0252766D01*
X0132800Y0254365D02*
X0053500Y0254365D01*
X0053500Y0255963D02*
X0132800Y0255963D01*
X0132800Y0257562D02*
X0053500Y0257562D01*
X0053500Y0259160D02*
X0132800Y0259160D01*
X0132800Y0260759D02*
X0053500Y0260759D01*
X0053500Y0262357D02*
X0132800Y0262357D01*
X0132800Y0263956D02*
X0053500Y0263956D01*
X0053500Y0265554D02*
X0132800Y0265554D01*
X0132800Y0267153D02*
X0053500Y0267153D01*
X0053500Y0268751D02*
X0132800Y0268751D01*
X0132800Y0270350D02*
X0053500Y0270350D01*
X0053500Y0271948D02*
X0132800Y0271948D01*
X0132800Y0273547D02*
X0061877Y0273547D01*
X0066637Y0275145D02*
X0080963Y0275145D01*
X0079114Y0276744D02*
X0068486Y0276744D01*
X0069963Y0278342D02*
X0077637Y0278342D01*
X0076975Y0279941D02*
X0070625Y0279941D01*
X0071288Y0281539D02*
X0076312Y0281539D01*
X0076200Y0283138D02*
X0071400Y0283138D01*
X0071400Y0284737D02*
X0076200Y0284737D01*
X0076133Y0286335D02*
X0071174Y0286335D01*
X0070512Y0287934D02*
X0074534Y0287934D01*
X0072936Y0289532D02*
X0069810Y0289532D01*
X0071337Y0291131D02*
X0068212Y0291131D01*
X0069739Y0292729D02*
X0065975Y0292729D01*
X0064663Y0294328D02*
X0068140Y0294328D01*
X0063389Y0293800D02*
X0062821Y0293800D01*
X0062821Y0293800D01*
X0063389Y0293800D01*
X0035779Y0311911D02*
X0009200Y0311911D01*
X0009200Y0310313D02*
X0034205Y0310313D01*
X0033282Y0308714D02*
X0009200Y0308714D01*
X0009200Y0307116D02*
X0032611Y0307116D01*
X0032183Y0305517D02*
X0009200Y0305517D01*
X0009200Y0303919D02*
X0032100Y0303919D01*
X0032100Y0302320D02*
X0009200Y0302320D01*
X0009200Y0300722D02*
X0032100Y0300722D01*
X0032100Y0299123D02*
X0009200Y0299123D01*
X0009200Y0297525D02*
X0032100Y0297525D01*
X0032100Y0295926D02*
X0009200Y0295926D01*
X0009200Y0294328D02*
X0032100Y0294328D01*
X0032100Y0292729D02*
X0009200Y0292729D01*
X0009200Y0291131D02*
X0032100Y0291131D01*
X0032100Y0289532D02*
X0009200Y0289532D01*
X0009200Y0287934D02*
X0032100Y0287934D01*
X0032100Y0286335D02*
X0009200Y0286335D01*
X0009200Y0284737D02*
X0032100Y0284737D01*
X0032100Y0283138D02*
X0009200Y0283138D01*
X0009200Y0281539D02*
X0032100Y0281539D01*
X0032100Y0279941D02*
X0009200Y0279941D01*
X0009200Y0278342D02*
X0032100Y0278342D01*
X0032100Y0276744D02*
X0009200Y0276744D01*
X0009200Y0275145D02*
X0032100Y0275145D01*
X0032100Y0273547D02*
X0009200Y0273547D01*
X0009200Y0271948D02*
X0032100Y0271948D01*
X0032100Y0270350D02*
X0009200Y0270350D01*
X0009200Y0268751D02*
X0032100Y0268751D01*
X0032100Y0267153D02*
X0009200Y0267153D01*
X0009200Y0265554D02*
X0032100Y0265554D01*
X0032100Y0263956D02*
X0009200Y0263956D01*
X0009200Y0262357D02*
X0032100Y0262357D01*
X0032100Y0260759D02*
X0009200Y0260759D01*
X0009200Y0259160D02*
X0032100Y0259160D01*
X0032100Y0257562D02*
X0009200Y0257562D01*
X0009200Y0255963D02*
X0032100Y0255963D01*
X0032100Y0254365D02*
X0009200Y0254365D01*
X0009200Y0252766D02*
X0032100Y0252766D01*
X0032100Y0251168D02*
X0009200Y0251168D01*
X0009200Y0249569D02*
X0032100Y0249569D01*
X0032100Y0247971D02*
X0009200Y0247971D01*
X0009200Y0246372D02*
X0032100Y0246372D01*
X0032100Y0244774D02*
X0009200Y0244774D01*
X0009200Y0243175D02*
X0032100Y0243175D01*
X0032100Y0241577D02*
X0009200Y0241577D01*
X0009200Y0239978D02*
X0032100Y0239978D01*
X0032100Y0238380D02*
X0009200Y0238380D01*
X0009200Y0236781D02*
X0032100Y0236781D01*
X0031895Y0235183D02*
X0009200Y0235183D01*
X0009200Y0233584D02*
X0031650Y0233584D01*
X0031650Y0231986D02*
X0009200Y0231986D01*
X0009200Y0230387D02*
X0031903Y0230387D01*
X0032332Y0228789D02*
X0009200Y0228789D01*
X0009200Y0227190D02*
X0033164Y0227190D01*
X0034240Y0225592D02*
X0009200Y0225592D01*
X0009200Y0223993D02*
X0035838Y0223993D01*
X0038553Y0222395D02*
X0009200Y0222395D01*
X0096637Y0275145D02*
X0132800Y0275145D01*
X0132800Y0276744D02*
X0098486Y0276744D01*
X0099963Y0278342D02*
X0132800Y0278342D01*
X0132800Y0279941D02*
X0100625Y0279941D01*
X0101288Y0281539D02*
X0132800Y0281539D01*
X0132800Y0283138D02*
X0101400Y0283138D01*
X0101400Y0284737D02*
X0132800Y0284737D01*
X0132800Y0286335D02*
X0101174Y0286335D01*
X0100512Y0287934D02*
X0132800Y0287934D01*
X0132800Y0289532D02*
X0100456Y0289532D01*
X0101118Y0291131D02*
X0132800Y0291131D01*
X0132800Y0292729D02*
X0101400Y0292729D01*
X0101400Y0294328D02*
X0132800Y0294328D01*
X0132800Y0295926D02*
X0101343Y0295926D01*
X0100681Y0297525D02*
X0132800Y0297525D01*
X0132800Y0299123D02*
X0100287Y0299123D01*
X0100949Y0300722D02*
X0132800Y0300722D01*
X0132800Y0302320D02*
X0101400Y0302320D01*
X0101400Y0303919D02*
X0132800Y0303919D01*
X0132800Y0305517D02*
X0101400Y0305517D01*
X0100851Y0307116D02*
X0132800Y0307116D01*
X0132800Y0308714D02*
X0100188Y0308714D01*
X0100779Y0310313D02*
X0132800Y0310313D01*
X0132800Y0311911D02*
X0102043Y0311911D01*
X0103642Y0313510D02*
X0132800Y0313510D01*
X0132800Y0315108D02*
X0105240Y0315108D01*
X0106839Y0316707D02*
X0132800Y0316707D01*
X0132800Y0318305D02*
X0108437Y0318305D01*
X0109751Y0319904D02*
X0132800Y0319904D01*
X0132800Y0321502D02*
X0110674Y0321502D01*
X0111154Y0323101D02*
X0132800Y0323101D01*
X0132800Y0324699D02*
X0111500Y0324699D01*
X0111500Y0326298D02*
X0132800Y0326298D01*
X0132800Y0327896D02*
X0111500Y0327896D01*
X0111500Y0329495D02*
X0132800Y0329495D01*
X0132800Y0331093D02*
X0111500Y0331093D01*
X0111500Y0332692D02*
X0132800Y0332692D01*
X0132800Y0334290D02*
X0111500Y0334290D01*
X0111500Y0335889D02*
X0132800Y0335889D01*
X0132800Y0337487D02*
X0111500Y0337487D01*
X0111500Y0339086D02*
X0132800Y0339086D01*
X0132800Y0340684D02*
X0111500Y0340684D01*
X0111500Y0342283D02*
X0132800Y0342283D01*
X0132800Y0343881D02*
X0111500Y0343881D01*
X0111500Y0345480D02*
X0132800Y0345480D01*
X0132800Y0347078D02*
X0111500Y0347078D01*
X0111500Y0348677D02*
X0132800Y0348677D01*
X0132800Y0350275D02*
X0111500Y0350275D01*
X0111500Y0351874D02*
X0132800Y0351874D01*
X0132800Y0353472D02*
X0111500Y0353472D01*
X0111500Y0355071D02*
X0132800Y0355071D01*
X0132800Y0356670D02*
X0111500Y0356670D01*
X0111500Y0358268D02*
X0132800Y0358268D01*
X0132800Y0359867D02*
X0111500Y0359867D01*
X0111500Y0361465D02*
X0132800Y0361465D01*
X0132800Y0363064D02*
X0111500Y0363064D01*
X0111500Y0364662D02*
X0132800Y0364662D01*
X0132800Y0366261D02*
X0111500Y0366261D01*
X0111500Y0367859D02*
X0132800Y0367859D01*
X0132800Y0369458D02*
X0111500Y0369458D01*
X0111500Y0371056D02*
X0132800Y0371056D01*
X0132800Y0372655D02*
X0111500Y0372655D01*
X0111500Y0374253D02*
X0132800Y0374253D01*
X0132800Y0375852D02*
X0111500Y0375852D01*
X0111500Y0377450D02*
X0132800Y0377450D01*
X0132800Y0379049D02*
X0111500Y0379049D01*
X0111500Y0380647D02*
X0132800Y0380647D01*
X0132800Y0382246D02*
X0111500Y0382246D01*
X0111500Y0383844D02*
X0132800Y0383844D01*
X0132800Y0385443D02*
X0111500Y0385443D01*
X0111500Y0387041D02*
X0132800Y0387041D01*
X0132800Y0388640D02*
X0111500Y0388640D01*
X0111500Y0390238D02*
X0132800Y0390238D01*
X0132800Y0391837D02*
X0111500Y0391837D01*
X0111500Y0393435D02*
X0132800Y0393435D01*
X0132800Y0395034D02*
X0111500Y0395034D01*
X0111500Y0396632D02*
X0132800Y0396632D01*
X0132800Y0398231D02*
X0111500Y0398231D01*
X0111500Y0399829D02*
X0132800Y0399829D01*
X0132800Y0401428D02*
X0111500Y0401428D01*
X0111500Y0403026D02*
X0132800Y0403026D01*
X0132800Y0404625D02*
X0111500Y0404625D01*
X0111500Y0406223D02*
X0132800Y0406223D01*
X0132800Y0407822D02*
X0111500Y0407822D01*
X0111500Y0409420D02*
X0132800Y0409420D01*
X0132800Y0411019D02*
X0111500Y0411019D01*
X0111500Y0412617D02*
X0132800Y0412617D01*
X0132800Y0414216D02*
X0111500Y0414216D01*
X0111500Y0415814D02*
X0132800Y0415814D01*
X0132800Y0417413D02*
X0111500Y0417413D01*
X0111500Y0419011D02*
X0132800Y0419011D01*
X0132800Y0420610D02*
X0111500Y0420610D01*
X0111500Y0422208D02*
X0132800Y0422208D01*
X0132800Y0423807D02*
X0111500Y0423807D01*
X0111500Y0425405D02*
X0132800Y0425405D01*
X0132800Y0427004D02*
X0111500Y0427004D01*
X0111500Y0428603D02*
X0132800Y0428603D01*
X0132800Y0430201D02*
X0111500Y0430201D01*
X0111500Y0431800D02*
X0132800Y0431800D01*
X0132800Y0433398D02*
X0111500Y0433398D01*
X0111500Y0434997D02*
X0132800Y0434997D01*
X0132800Y0436595D02*
X0111500Y0436595D01*
X0111500Y0438194D02*
X0132800Y0438194D01*
X0132800Y0439792D02*
X0111500Y0439792D01*
X0111500Y0441391D02*
X0132800Y0441391D01*
X0132800Y0442989D02*
X0111500Y0442989D01*
X0111500Y0444588D02*
X0132800Y0444588D01*
X0132800Y0446186D02*
X0111500Y0446186D01*
X0111500Y0447785D02*
X0132800Y0447785D01*
X0132800Y0449383D02*
X0111500Y0449383D01*
X0111500Y0450982D02*
X0132800Y0450982D01*
X0132800Y0452580D02*
X0111500Y0452580D01*
X0111500Y0454179D02*
X0132800Y0454179D01*
X0132800Y0455777D02*
X0111500Y0455777D01*
X0111500Y0457376D02*
X0132800Y0457376D01*
X0132800Y0458974D02*
X0111500Y0458974D01*
X0111500Y0460573D02*
X0132800Y0460573D01*
X0132800Y0462171D02*
X0111500Y0462171D01*
X0111500Y0463770D02*
X0132800Y0463770D01*
X0132800Y0465368D02*
X0111500Y0465368D01*
X0111500Y0466967D02*
X0132800Y0466967D01*
X0132800Y0468565D02*
X0111500Y0468565D01*
X0111500Y0470164D02*
X0132800Y0470164D01*
X0132800Y0471762D02*
X0111500Y0471762D01*
X0111500Y0473361D02*
X0132800Y0473361D01*
X0132800Y0474959D02*
X0111500Y0474959D01*
X0111500Y0476558D02*
X0132800Y0476558D01*
X0132800Y0478156D02*
X0111500Y0478156D01*
X0111500Y0479755D02*
X0132800Y0479755D01*
X0132800Y0481353D02*
X0111500Y0481353D01*
X0111500Y0482952D02*
X0132800Y0482952D01*
X0132800Y0484550D02*
X0111500Y0484550D01*
X0111500Y0486149D02*
X0132800Y0486149D01*
X0132800Y0487747D02*
X0111500Y0487747D01*
X0111500Y0489346D02*
X0132800Y0489346D01*
X0132800Y0490944D02*
X0111500Y0490944D01*
X0111500Y0492543D02*
X0132800Y0492543D01*
X0132800Y0494141D02*
X0111500Y0494141D01*
X0111500Y0495740D02*
X0132800Y0495740D01*
X0132800Y0497339D02*
X0111500Y0497339D01*
X0111500Y0498937D02*
X0132800Y0498937D01*
X0132800Y0500536D02*
X0111500Y0500536D01*
X0111500Y0502134D02*
X0132800Y0502134D01*
X0132800Y0503733D02*
X0111500Y0503733D01*
X0111500Y0505331D02*
X0132800Y0505331D01*
X0132800Y0506930D02*
X0111500Y0506930D01*
X0111500Y0508528D02*
X0132800Y0508528D01*
X0132800Y0510127D02*
X0111254Y0510127D01*
X0110826Y0511725D02*
X0132800Y0511725D01*
X0132800Y0513324D02*
X0109966Y0513324D01*
X0108810Y0514922D02*
X0132800Y0514922D01*
X0132800Y0516521D02*
X0107095Y0516521D01*
X0103630Y0518119D02*
X0132800Y0518119D01*
X0132800Y0519718D02*
X0084500Y0519718D01*
X0084500Y0521316D02*
X0132800Y0521316D01*
X0132800Y0522915D02*
X0084500Y0522915D01*
X0084418Y0524513D02*
X0132800Y0524513D01*
X0132800Y0526112D02*
X0083990Y0526112D01*
X0084389Y0527710D02*
X0083320Y0527710D01*
X0078461Y0534104D02*
X0077628Y0534104D01*
X0078033Y0535703D02*
X0076029Y0535703D01*
X0074431Y0537301D02*
X0077857Y0537301D01*
X0077857Y0538900D02*
X0072832Y0538900D01*
X0071234Y0540498D02*
X0078194Y0540498D01*
X0078645Y0542097D02*
X0069635Y0542097D01*
X0068037Y0543695D02*
X0079567Y0543695D01*
X0080818Y0545294D02*
X0066782Y0545294D01*
X0064938Y0546892D02*
X0082662Y0546892D01*
X0083100Y0548491D02*
X0064500Y0548491D01*
X0064500Y0550089D02*
X0083100Y0550089D01*
X0083100Y0551688D02*
X0064500Y0551688D01*
X0064500Y0553286D02*
X0083100Y0553286D01*
X0083100Y0554885D02*
X0064500Y0554885D01*
X0064500Y0556483D02*
X0083100Y0556483D01*
X0083100Y0558082D02*
X0064500Y0558082D01*
X0064500Y0559680D02*
X0083100Y0559680D01*
X0083100Y0561279D02*
X0064500Y0561279D01*
X0064620Y0562877D02*
X0082980Y0562877D01*
X0082167Y0564476D02*
X0065433Y0564476D01*
X0066095Y0566074D02*
X0081505Y0566074D01*
X0081200Y0567673D02*
X0066400Y0567673D01*
X0066400Y0569272D02*
X0081200Y0569272D01*
X0081234Y0570870D02*
X0066366Y0570870D01*
X0065704Y0572469D02*
X0081896Y0572469D01*
X0082558Y0574067D02*
X0065042Y0574067D01*
X0063769Y0575666D02*
X0083100Y0575666D01*
X0083100Y0577264D02*
X0062761Y0577264D01*
X0061162Y0578863D02*
X0083100Y0578863D01*
X0083100Y0580461D02*
X0058154Y0580461D01*
X0051446Y0580461D02*
X0039500Y0580461D01*
X0041434Y0582060D02*
X0083100Y0582060D01*
X0083100Y0583658D02*
X0043037Y0583658D01*
X0044265Y0585257D02*
X0083100Y0585257D01*
X0083100Y0586855D02*
X0045188Y0586855D01*
X0045726Y0588454D02*
X0083100Y0588454D01*
X0083100Y0590052D02*
X0046154Y0590052D01*
X0046239Y0591651D02*
X0083100Y0591651D01*
X0080972Y0593249D02*
X0046239Y0593249D01*
X0045916Y0594848D02*
X0079373Y0594848D01*
X0078226Y0596446D02*
X0045487Y0596446D01*
X0044673Y0598045D02*
X0077303Y0598045D01*
X0076823Y0599643D02*
X0043745Y0599643D01*
X0042147Y0601242D02*
X0076395Y0601242D01*
X0076361Y0602840D02*
X0039891Y0602840D01*
X0030542Y0614939D02*
X0026758Y0613925D01*
X0022842Y0613925D01*
X0019058Y0614939D01*
X0015667Y0616897D01*
X0012897Y0619667D01*
X0010939Y0623058D01*
X0009925Y0626842D01*
X0009925Y0630758D01*
X0010939Y0634542D01*
X0012897Y0637933D01*
X0015667Y0640703D01*
X0019058Y0642661D01*
X0022842Y0643675D01*
X0026758Y0643675D01*
X0030542Y0642661D01*
X0033933Y0640703D01*
X0036703Y0637933D01*
X0038661Y0634542D01*
X0039675Y0630758D01*
X0039675Y0626842D01*
X0038661Y0623058D01*
X0036703Y0619667D01*
X0033933Y0616897D01*
X0030542Y0614939D01*
X0031736Y0615628D02*
X0132800Y0615628D01*
X0132800Y0614030D02*
X0104563Y0614030D01*
X0106957Y0612431D02*
X0132800Y0612431D01*
X0132800Y0610833D02*
X0108556Y0610833D01*
X0109564Y0609234D02*
X0132800Y0609234D01*
X0132800Y0607636D02*
X0110437Y0607636D01*
X0110865Y0606037D02*
X0132800Y0606037D01*
X0132800Y0604439D02*
X0111239Y0604439D01*
X0111239Y0602840D02*
X0132800Y0602840D01*
X0132800Y0601242D02*
X0111205Y0601242D01*
X0110777Y0599643D02*
X0132800Y0599643D01*
X0132800Y0598045D02*
X0110297Y0598045D01*
X0109374Y0596446D02*
X0132800Y0596446D01*
X0132800Y0594848D02*
X0108227Y0594848D01*
X0106628Y0593249D02*
X0132800Y0593249D01*
X0132800Y0591651D02*
X0104500Y0591651D01*
X0104500Y0590052D02*
X0132800Y0590052D01*
X0132800Y0588454D02*
X0104500Y0588454D01*
X0104500Y0586855D02*
X0132800Y0586855D01*
X0132800Y0585257D02*
X0104500Y0585257D01*
X0104500Y0583658D02*
X0132800Y0583658D01*
X0132800Y0582060D02*
X0104500Y0582060D01*
X0104500Y0580461D02*
X0132800Y0580461D01*
X0132800Y0578863D02*
X0104500Y0578863D01*
X0104500Y0577264D02*
X0132800Y0577264D01*
X0132800Y0575666D02*
X0104500Y0575666D01*
X0105042Y0574067D02*
X0132800Y0574067D01*
X0132800Y0572469D02*
X0105704Y0572469D01*
X0106366Y0570870D02*
X0132800Y0570870D01*
X0132800Y0569272D02*
X0106400Y0569272D01*
X0106400Y0567673D02*
X0132800Y0567673D01*
X0132800Y0566074D02*
X0106095Y0566074D01*
X0105433Y0564476D02*
X0132800Y0564476D01*
X0132800Y0562877D02*
X0104620Y0562877D01*
X0104500Y0561279D02*
X0132800Y0561279D01*
X0132800Y0559680D02*
X0104500Y0559680D01*
X0104500Y0558082D02*
X0132800Y0558082D01*
X0132800Y0556483D02*
X0104500Y0556483D01*
X0104500Y0554885D02*
X0132800Y0554885D01*
X0132800Y0553286D02*
X0104500Y0553286D01*
X0104500Y0551688D02*
X0132800Y0551688D01*
X0132800Y0550089D02*
X0104500Y0550089D01*
X0104500Y0548491D02*
X0132800Y0548491D01*
X0132800Y0546892D02*
X0104500Y0546892D01*
X0104500Y0545294D02*
X0132800Y0545294D01*
X0132800Y0543695D02*
X0104500Y0543695D01*
X0104500Y0542097D02*
X0132800Y0542097D01*
X0132800Y0540498D02*
X0104261Y0540498D01*
X0103832Y0538900D02*
X0132800Y0538900D01*
X0132800Y0537301D02*
X0102981Y0537301D01*
X0101835Y0535703D02*
X0132800Y0535703D01*
X0132800Y0534104D02*
X0100236Y0534104D01*
X0098638Y0532506D02*
X0132800Y0532506D01*
X0132800Y0530907D02*
X0097383Y0530907D01*
X0095785Y0529309D02*
X0132800Y0529309D01*
X0132800Y0527710D02*
X0093211Y0527710D01*
X0085030Y0518119D02*
X0084500Y0518119D01*
X0084500Y0497646D02*
X0084576Y0497602D01*
X0087359Y0496857D01*
X0090100Y0496857D01*
X0090100Y0478743D01*
X0087359Y0478743D01*
X0086451Y0478500D01*
X0084500Y0478500D01*
X0084500Y0497646D01*
X0084500Y0497339D02*
X0085561Y0497339D01*
X0084500Y0495740D02*
X0090100Y0495740D01*
X0090100Y0494141D02*
X0084500Y0494141D01*
X0084500Y0492543D02*
X0090100Y0492543D01*
X0090100Y0490944D02*
X0084500Y0490944D01*
X0084500Y0489346D02*
X0090100Y0489346D01*
X0090100Y0487747D02*
X0084500Y0487747D01*
X0084500Y0486149D02*
X0090100Y0486149D01*
X0090100Y0484550D02*
X0084500Y0484550D01*
X0084500Y0482952D02*
X0090100Y0482952D01*
X0090100Y0481353D02*
X0084500Y0481353D01*
X0084500Y0479755D02*
X0090100Y0479755D01*
X0063100Y0479755D02*
X0057500Y0479755D01*
X0057500Y0478743D02*
X0057500Y0496857D01*
X0060241Y0496857D01*
X0063024Y0497602D01*
X0063100Y0497646D01*
X0063100Y0478500D01*
X0061149Y0478500D01*
X0060241Y0478743D01*
X0057500Y0478743D01*
X0057500Y0481353D02*
X0063100Y0481353D01*
X0063100Y0482952D02*
X0057500Y0482952D01*
X0057500Y0484550D02*
X0063100Y0484550D01*
X0063100Y0486149D02*
X0057500Y0486149D01*
X0057500Y0487747D02*
X0063100Y0487747D01*
X0063100Y0489346D02*
X0057500Y0489346D01*
X0057500Y0490944D02*
X0063100Y0490944D01*
X0063100Y0492543D02*
X0057500Y0492543D01*
X0057500Y0494141D02*
X0063100Y0494141D01*
X0063100Y0495740D02*
X0057500Y0495740D01*
X0062039Y0497339D02*
X0063100Y0497339D01*
X0063100Y0518119D02*
X0062570Y0518119D01*
X0061750Y0519718D02*
X0009200Y0519718D01*
X0009200Y0521316D02*
X0060152Y0521316D01*
X0058553Y0522915D02*
X0009200Y0522915D01*
X0009200Y0524513D02*
X0056955Y0524513D01*
X0055356Y0526112D02*
X0009200Y0526112D01*
X0009200Y0527710D02*
X0053758Y0527710D01*
X0051815Y0529309D02*
X0009200Y0529309D01*
X0009200Y0530907D02*
X0050217Y0530907D01*
X0048962Y0532506D02*
X0009200Y0532506D01*
X0009200Y0534104D02*
X0047364Y0534104D01*
X0045765Y0535703D02*
X0009200Y0535703D01*
X0009200Y0537301D02*
X0044619Y0537301D01*
X0043768Y0538900D02*
X0009200Y0538900D01*
X0009200Y0540498D02*
X0043339Y0540498D01*
X0043100Y0542097D02*
X0009200Y0542097D01*
X0009200Y0543695D02*
X0043100Y0543695D01*
X0043100Y0545294D02*
X0009200Y0545294D01*
X0009200Y0546892D02*
X0043100Y0546892D01*
X0043100Y0548491D02*
X0009200Y0548491D01*
X0009200Y0550089D02*
X0043100Y0550089D01*
X0043100Y0551688D02*
X0009200Y0551688D01*
X0009200Y0553286D02*
X0043100Y0553286D01*
X0043100Y0554885D02*
X0009200Y0554885D01*
X0009200Y0556483D02*
X0043100Y0556483D01*
X0043100Y0558082D02*
X0009200Y0558082D01*
X0009200Y0559680D02*
X0023196Y0559680D01*
X0021189Y0561279D02*
X0009200Y0561279D01*
X0009200Y0562877D02*
X0019864Y0562877D01*
X0018941Y0564476D02*
X0009200Y0564476D01*
X0009200Y0566074D02*
X0018453Y0566074D01*
X0018100Y0567673D02*
X0009200Y0567673D01*
X0009200Y0569272D02*
X0018100Y0569272D01*
X0018100Y0570870D02*
X0009200Y0570870D01*
X0009200Y0572469D02*
X0018100Y0572469D01*
X0018100Y0574067D02*
X0009200Y0574067D01*
X0009200Y0575666D02*
X0018100Y0575666D01*
X0018100Y0577264D02*
X0009200Y0577264D01*
X0009200Y0578863D02*
X0018100Y0578863D01*
X0018100Y0580461D02*
X0009200Y0580461D01*
X0009200Y0582060D02*
X0016166Y0582060D01*
X0014563Y0583658D02*
X0009200Y0583658D01*
X0009200Y0585257D02*
X0013335Y0585257D01*
X0012412Y0586855D02*
X0009200Y0586855D01*
X0009200Y0588454D02*
X0011874Y0588454D01*
X0011446Y0590052D02*
X0009200Y0590052D01*
X0009200Y0591651D02*
X0011361Y0591651D01*
X0011361Y0593249D02*
X0009200Y0593249D01*
X0009200Y0594848D02*
X0011684Y0594848D01*
X0012113Y0596446D02*
X0009200Y0596446D01*
X0009200Y0598045D02*
X0012927Y0598045D01*
X0013855Y0599643D02*
X0009200Y0599643D01*
X0009200Y0601242D02*
X0015453Y0601242D01*
X0017709Y0602840D02*
X0009200Y0602840D01*
X0009200Y0604439D02*
X0076361Y0604439D01*
X0076735Y0606037D02*
X0009200Y0606037D01*
X0009200Y0607636D02*
X0077163Y0607636D01*
X0078036Y0609234D02*
X0009200Y0609234D01*
X0009200Y0610833D02*
X0079044Y0610833D01*
X0080643Y0612431D02*
X0009200Y0612431D01*
X0009200Y0614030D02*
X0022450Y0614030D01*
X0027150Y0614030D02*
X0083037Y0614030D01*
X0039240Y0625219D02*
X0132800Y0625219D01*
X0132800Y0623621D02*
X0038812Y0623621D01*
X0038063Y0622022D02*
X0132800Y0622022D01*
X0132800Y0620424D02*
X0037140Y0620424D01*
X0035862Y0618825D02*
X0132800Y0618825D01*
X0132800Y0617227D02*
X0034263Y0617227D01*
X0039669Y0626818D02*
X0132800Y0626818D01*
X0132800Y0628416D02*
X0039675Y0628416D01*
X0039675Y0630015D02*
X0132800Y0630015D01*
X0132800Y0631613D02*
X0039446Y0631613D01*
X0039018Y0633212D02*
X0132800Y0633212D01*
X0132800Y0634810D02*
X0038506Y0634810D01*
X0037583Y0636409D02*
X0132800Y0636409D01*
X0132800Y0638008D02*
X0036629Y0638008D01*
X0035030Y0639606D02*
X0132800Y0639606D01*
X0132800Y0641205D02*
X0033065Y0641205D01*
X0030012Y0642803D02*
X0132800Y0642803D01*
X0019588Y0642803D02*
X0009200Y0642803D01*
X0009200Y0641205D02*
X0016535Y0641205D01*
X0014570Y0639606D02*
X0009200Y0639606D01*
X0009200Y0638008D02*
X0012971Y0638008D01*
X0012017Y0636409D02*
X0009200Y0636409D01*
X0009200Y0634810D02*
X0011094Y0634810D01*
X0010582Y0633212D02*
X0009200Y0633212D01*
X0009200Y0631613D02*
X0010154Y0631613D01*
X0009925Y0630015D02*
X0009200Y0630015D01*
X0009200Y0628416D02*
X0009925Y0628416D01*
X0009931Y0626818D02*
X0009200Y0626818D01*
X0009200Y0625219D02*
X0010360Y0625219D01*
X0010788Y0623621D02*
X0009200Y0623621D01*
X0009200Y0622022D02*
X0011537Y0622022D01*
X0012460Y0620424D02*
X0009200Y0620424D01*
X0009200Y0618825D02*
X0013738Y0618825D01*
X0015337Y0617227D02*
X0009200Y0617227D01*
X0009200Y0615628D02*
X0017864Y0615628D01*
X0009200Y0518119D02*
X0043970Y0518119D01*
X0040505Y0516521D02*
X0009200Y0516521D01*
X0009200Y0514922D02*
X0038790Y0514922D01*
X0037634Y0513324D02*
X0009200Y0513324D01*
X0009200Y0511725D02*
X0036774Y0511725D01*
X0036346Y0510127D02*
X0009200Y0510127D01*
X0009200Y0508528D02*
X0036100Y0508528D01*
X0036100Y0506930D02*
X0009200Y0506930D01*
X0009200Y0505331D02*
X0036100Y0505331D01*
X0036100Y0503733D02*
X0009200Y0503733D01*
X0009200Y0502134D02*
X0036100Y0502134D01*
X0036100Y0500536D02*
X0009200Y0500536D01*
X0009200Y0498937D02*
X0036100Y0498937D01*
X0036100Y0497339D02*
X0009200Y0497339D01*
X0009200Y0495740D02*
X0036100Y0495740D01*
X0036100Y0494141D02*
X0009200Y0494141D01*
X0009200Y0492543D02*
X0036100Y0492543D01*
X0036100Y0490944D02*
X0009200Y0490944D01*
X0009200Y0489346D02*
X0036100Y0489346D01*
X0036100Y0487747D02*
X0009200Y0487747D01*
X0009200Y0486149D02*
X0036100Y0486149D01*
X0036100Y0484550D02*
X0009200Y0484550D01*
X0009200Y0482952D02*
X0036100Y0482952D01*
X0036100Y0481353D02*
X0009200Y0481353D01*
X0009200Y0479755D02*
X0036100Y0479755D01*
X0036100Y0478156D02*
X0009200Y0478156D01*
X0009200Y0476558D02*
X0036100Y0476558D01*
X0036100Y0474959D02*
X0009200Y0474959D01*
X0009200Y0473361D02*
X0036100Y0473361D01*
X0036100Y0471762D02*
X0009200Y0471762D01*
X0009200Y0470164D02*
X0036100Y0470164D01*
X0036100Y0468565D02*
X0009200Y0468565D01*
X0009200Y0466967D02*
X0036100Y0466967D01*
X0036100Y0465368D02*
X0009200Y0465368D01*
X0009200Y0463770D02*
X0036100Y0463770D01*
X0036100Y0462171D02*
X0009200Y0462171D01*
X0009200Y0460573D02*
X0036100Y0460573D01*
X0036100Y0458974D02*
X0009200Y0458974D01*
X0009200Y0457376D02*
X0036100Y0457376D01*
X0036100Y0455777D02*
X0009200Y0455777D01*
X0009200Y0454179D02*
X0036100Y0454179D01*
X0036100Y0452580D02*
X0009200Y0452580D01*
X0009200Y0450982D02*
X0036100Y0450982D01*
X0036100Y0449383D02*
X0009200Y0449383D01*
X0009200Y0447785D02*
X0036100Y0447785D01*
X0036100Y0446186D02*
X0009200Y0446186D01*
X0009200Y0444588D02*
X0036100Y0444588D01*
X0036100Y0442989D02*
X0009200Y0442989D01*
X0009200Y0441391D02*
X0036100Y0441391D01*
X0036100Y0439792D02*
X0009200Y0439792D01*
X0009200Y0438194D02*
X0036100Y0438194D01*
X0036100Y0436595D02*
X0009200Y0436595D01*
X0009200Y0434997D02*
X0036100Y0434997D01*
X0036100Y0433398D02*
X0009200Y0433398D01*
X0009200Y0431800D02*
X0036100Y0431800D01*
X0036100Y0430201D02*
X0009200Y0430201D01*
X0009200Y0428603D02*
X0036100Y0428603D01*
X0036100Y0427004D02*
X0009200Y0427004D01*
X0009200Y0425405D02*
X0036100Y0425405D01*
X0036100Y0423807D02*
X0009200Y0423807D01*
X0009200Y0422208D02*
X0036100Y0422208D01*
X0036100Y0420610D02*
X0009200Y0420610D01*
X0009200Y0419011D02*
X0036100Y0419011D01*
X0036100Y0417413D02*
X0009200Y0417413D01*
X0009200Y0415814D02*
X0036100Y0415814D01*
X0036100Y0414216D02*
X0009200Y0414216D01*
X0009200Y0412617D02*
X0036100Y0412617D01*
X0036100Y0411019D02*
X0009200Y0411019D01*
X0009200Y0409420D02*
X0036100Y0409420D01*
X0036100Y0407822D02*
X0009200Y0407822D01*
X0009200Y0406223D02*
X0036100Y0406223D01*
X0036100Y0404625D02*
X0009200Y0404625D01*
X0009200Y0403026D02*
X0036100Y0403026D01*
X0036100Y0401428D02*
X0009200Y0401428D01*
X0009200Y0399829D02*
X0036100Y0399829D01*
X0036100Y0398231D02*
X0009200Y0398231D01*
X0009200Y0396632D02*
X0036100Y0396632D01*
X0036100Y0395034D02*
X0009200Y0395034D01*
X0009200Y0393435D02*
X0036100Y0393435D01*
X0036100Y0391837D02*
X0009200Y0391837D01*
X0009200Y0390238D02*
X0036100Y0390238D01*
X0036100Y0388640D02*
X0009200Y0388640D01*
X0009200Y0387041D02*
X0036100Y0387041D01*
X0036100Y0385443D02*
X0009200Y0385443D01*
X0009200Y0383844D02*
X0036100Y0383844D01*
X0036100Y0382246D02*
X0009200Y0382246D01*
X0009200Y0380647D02*
X0036100Y0380647D01*
X0036100Y0379049D02*
X0009200Y0379049D01*
X0009200Y0377450D02*
X0036100Y0377450D01*
X0036100Y0375852D02*
X0009200Y0375852D01*
X0009200Y0374253D02*
X0036100Y0374253D01*
X0036100Y0372655D02*
X0009200Y0372655D01*
X0009200Y0371056D02*
X0036100Y0371056D01*
X0036100Y0369458D02*
X0009200Y0369458D01*
X0009200Y0367859D02*
X0036100Y0367859D01*
X0036100Y0366261D02*
X0009200Y0366261D01*
X0009200Y0364662D02*
X0036100Y0364662D01*
X0036100Y0363064D02*
X0009200Y0363064D01*
X0009200Y0361465D02*
X0036100Y0361465D01*
X0036100Y0359867D02*
X0009200Y0359867D01*
X0009200Y0358268D02*
X0036100Y0358268D01*
X0036100Y0356670D02*
X0009200Y0356670D01*
X0009200Y0355071D02*
X0036100Y0355071D01*
X0036100Y0353472D02*
X0009200Y0353472D01*
X0009200Y0351874D02*
X0036100Y0351874D01*
X0036100Y0350275D02*
X0009200Y0350275D01*
X0009200Y0348677D02*
X0036100Y0348677D01*
X0036100Y0347078D02*
X0009200Y0347078D01*
X0009200Y0345480D02*
X0036100Y0345480D01*
X0036100Y0343881D02*
X0009200Y0343881D01*
X0009200Y0342283D02*
X0036100Y0342283D01*
X0036100Y0340684D02*
X0009200Y0340684D01*
X0009200Y0339086D02*
X0036100Y0339086D01*
X0036100Y0337487D02*
X0009200Y0337487D01*
X0009200Y0335889D02*
X0036100Y0335889D01*
X0036100Y0334290D02*
X0009200Y0334290D01*
X0009200Y0332692D02*
X0036100Y0332692D01*
X0036100Y0331093D02*
X0009200Y0331093D01*
X0009200Y0329495D02*
X0036100Y0329495D01*
X0036100Y0327896D02*
X0009200Y0327896D01*
X0009200Y0326298D02*
X0036100Y0326298D01*
X0036100Y0324699D02*
X0009200Y0324699D01*
X0009200Y0323101D02*
X0036100Y0323101D01*
X0036100Y0321502D02*
X0009200Y0321502D01*
X0009200Y0319904D02*
X0036100Y0319904D01*
X0036100Y0318305D02*
X0009200Y0318305D01*
X0009200Y0316707D02*
X0036100Y0316707D01*
X0036100Y0315108D02*
X0009200Y0315108D01*
X0009200Y0313510D02*
X0036100Y0313510D01*
X0034135Y0033770D02*
X0132800Y0033770D01*
X0132800Y0032172D02*
X0037122Y0032172D01*
X0039063Y0030573D02*
X0132800Y0030573D01*
X0132800Y0028975D02*
X0040662Y0028975D01*
X0041602Y0027376D02*
X0132800Y0027376D01*
X0132800Y0025778D02*
X0042525Y0025778D01*
X0043026Y0024179D02*
X0132800Y0024179D01*
X0132800Y0022581D02*
X0043455Y0022581D01*
X0043675Y0020982D02*
X0132800Y0020982D01*
X0132800Y0019384D02*
X0043675Y0019384D01*
X0043660Y0017785D02*
X0132800Y0017785D01*
X0132800Y0016187D02*
X0043232Y0016187D01*
X0042803Y0014588D02*
X0132800Y0014588D01*
X0132800Y0012990D02*
X0042044Y0012990D01*
X0041121Y0011391D02*
X0132800Y0011391D01*
X0132800Y0009793D02*
X0039829Y0009793D01*
X0419200Y0009793D02*
X0427771Y0009793D01*
X0428364Y0009200D02*
X0419200Y0009200D01*
X0419200Y0375400D01*
X0543781Y0375400D01*
X0542819Y0009200D01*
X0449236Y0009200D01*
X0450703Y0010667D01*
X0452661Y0014058D01*
X0453675Y0017842D01*
X0453675Y0021758D01*
X0452661Y0025542D01*
X0450703Y0028933D01*
X0447933Y0031703D01*
X0444542Y0033661D01*
X0440758Y0034675D01*
X0436842Y0034675D01*
X0433058Y0033661D01*
X0429667Y0031703D01*
X0426897Y0028933D01*
X0424939Y0025542D01*
X0423925Y0021758D01*
X0423925Y0017842D01*
X0424939Y0014058D01*
X0426897Y0010667D01*
X0428364Y0009200D01*
X0426479Y0011391D02*
X0419200Y0011391D01*
X0419200Y0012990D02*
X0425556Y0012990D01*
X0424797Y0014588D02*
X0419200Y0014588D01*
X0419200Y0016187D02*
X0424368Y0016187D01*
X0423940Y0017785D02*
X0419200Y0017785D01*
X0419200Y0019384D02*
X0423925Y0019384D01*
X0423925Y0020982D02*
X0419200Y0020982D01*
X0419200Y0022581D02*
X0424145Y0022581D01*
X0424574Y0024179D02*
X0419200Y0024179D01*
X0419200Y0025778D02*
X0425075Y0025778D01*
X0425998Y0027376D02*
X0419200Y0027376D01*
X0419200Y0028975D02*
X0426938Y0028975D01*
X0428537Y0030573D02*
X0419200Y0030573D01*
X0419200Y0032172D02*
X0430478Y0032172D01*
X0433465Y0033770D02*
X0419200Y0033770D01*
X0419200Y0035369D02*
X0542888Y0035369D01*
X0542892Y0036967D02*
X0419200Y0036967D01*
X0419200Y0038566D02*
X0542896Y0038566D01*
X0542901Y0040164D02*
X0419200Y0040164D01*
X0419200Y0041763D02*
X0542905Y0041763D01*
X0542909Y0043361D02*
X0419200Y0043361D01*
X0419200Y0044960D02*
X0542913Y0044960D01*
X0542917Y0046558D02*
X0419200Y0046558D01*
X0419200Y0048157D02*
X0542922Y0048157D01*
X0542926Y0049755D02*
X0419200Y0049755D01*
X0419200Y0051354D02*
X0542930Y0051354D01*
X0542934Y0052952D02*
X0419200Y0052952D01*
X0419200Y0054551D02*
X0542938Y0054551D01*
X0542943Y0056149D02*
X0419200Y0056149D01*
X0419200Y0057748D02*
X0542947Y0057748D01*
X0542951Y0059346D02*
X0419200Y0059346D01*
X0419200Y0060945D02*
X0542955Y0060945D01*
X0542959Y0062543D02*
X0419200Y0062543D01*
X0419200Y0064142D02*
X0542964Y0064142D01*
X0542968Y0065740D02*
X0419200Y0065740D01*
X0419200Y0067339D02*
X0542972Y0067339D01*
X0542976Y0068937D02*
X0419200Y0068937D01*
X0419200Y0070536D02*
X0448278Y0070536D01*
X0448496Y0070410D02*
X0451332Y0069650D01*
X0454268Y0069650D01*
X0457104Y0070410D01*
X0459646Y0071878D01*
X0461722Y0073954D01*
X0463190Y0076496D01*
X0463950Y0079332D01*
X0463950Y0082268D01*
X0463500Y0083947D01*
X0463500Y0121100D01*
X0470209Y0121100D01*
X0472821Y0121800D01*
X0473389Y0121800D01*
X0477065Y0123322D01*
X0479878Y0126135D01*
X0481400Y0129811D01*
X0481400Y0133789D01*
X0479878Y0137465D01*
X0477065Y0140278D01*
X0473389Y0141800D01*
X0477065Y0143322D01*
X0477094Y0143352D01*
X0477148Y0143320D01*
X0486340Y0134128D01*
X0486200Y0133789D01*
X0486200Y0129811D01*
X0487722Y0126135D01*
X0490535Y0123322D01*
X0494211Y0121800D01*
X0503389Y0121800D01*
X0507065Y0123322D01*
X0509878Y0126135D01*
X0511400Y0129811D01*
X0511400Y0133789D01*
X0510153Y0136800D01*
X0511400Y0139811D01*
X0511400Y0143789D01*
X0510153Y0146800D01*
X0511400Y0149811D01*
X0511400Y0153789D01*
X0510153Y0156800D01*
X0511016Y0158884D01*
X0518308Y0166176D01*
X0519260Y0167099D01*
X0519303Y0167171D01*
X0519362Y0167230D01*
X0520025Y0168379D01*
X0520706Y0169517D01*
X0520729Y0169598D01*
X0520771Y0169670D01*
X0521114Y0170951D01*
X0521477Y0172227D01*
X0521478Y0172311D01*
X0521500Y0172391D01*
X0521500Y0173718D01*
X0522478Y0237310D01*
X0522500Y0237391D01*
X0522500Y0238718D01*
X0522520Y0240044D01*
X0522500Y0240125D01*
X0522500Y0240209D01*
X0522157Y0241490D01*
X0521833Y0242776D01*
X0521792Y0242849D01*
X0521771Y0242930D01*
X0521108Y0244079D01*
X0520462Y0245237D01*
X0520404Y0245298D01*
X0520362Y0245370D01*
X0519424Y0246308D01*
X0518501Y0247260D01*
X0518429Y0247303D01*
X0518370Y0247362D01*
X0517221Y0248025D01*
X0516083Y0248706D01*
X0516002Y0248729D01*
X0515930Y0248771D01*
X0514649Y0249114D01*
X0513373Y0249477D01*
X0513289Y0249478D01*
X0513209Y0249500D01*
X0511882Y0249500D01*
X0510556Y0249520D01*
X0510475Y0249500D01*
X0502149Y0249500D01*
X0501241Y0249743D01*
X0498359Y0249743D01*
X0495576Y0248998D01*
X0495500Y0248954D01*
X0495500Y0255209D01*
X0494771Y0257930D01*
X0493786Y0259636D01*
X0495576Y0258602D01*
X0498359Y0257857D01*
X0501241Y0257857D01*
X0504024Y0258602D01*
X0506519Y0260043D01*
X0508557Y0262081D01*
X0509027Y0262895D01*
X0513362Y0267230D01*
X0514771Y0269670D01*
X0515500Y0272391D01*
X0515500Y0293758D01*
X0515878Y0294135D01*
X0517400Y0297811D01*
X0517400Y0301789D01*
X0515878Y0305465D01*
X0515500Y0305842D01*
X0515500Y0322943D01*
X0517446Y0324066D01*
X0519758Y0326379D01*
X0521393Y0329211D01*
X0522239Y0332370D01*
X0522239Y0335640D01*
X0521393Y0338799D01*
X0519758Y0341631D01*
X0517446Y0343943D01*
X0514613Y0345578D01*
X0511455Y0346424D01*
X0498145Y0346424D01*
X0494986Y0345578D01*
X0492154Y0343943D01*
X0489842Y0341631D01*
X0488207Y0338799D01*
X0487361Y0335640D01*
X0487361Y0332370D01*
X0488207Y0329211D01*
X0489842Y0326379D01*
X0492154Y0324066D01*
X0494100Y0322943D01*
X0494100Y0305842D01*
X0493722Y0305465D01*
X0492200Y0301789D01*
X0492200Y0297811D01*
X0493722Y0294135D01*
X0494100Y0293758D01*
X0494100Y0278232D01*
X0493895Y0278027D01*
X0493081Y0277557D01*
X0491043Y0275519D01*
X0489602Y0273024D01*
X0488857Y0270241D01*
X0488857Y0267359D01*
X0489602Y0264576D01*
X0490212Y0263520D01*
X0479027Y0274705D01*
X0478557Y0275519D01*
X0476519Y0277557D01*
X0475705Y0278027D01*
X0475500Y0278232D01*
X0475500Y0293758D01*
X0475878Y0294135D01*
X0477400Y0297811D01*
X0477400Y0301789D01*
X0475878Y0305465D01*
X0474895Y0306447D01*
X0473962Y0308063D01*
X0472063Y0309962D01*
X0469737Y0311305D01*
X0467143Y0312000D01*
X0464457Y0312000D01*
X0461863Y0311305D01*
X0460469Y0310500D01*
X0450500Y0310500D01*
X0450500Y0311943D01*
X0452446Y0313066D01*
X0454758Y0315379D01*
X0456393Y0318211D01*
X0457239Y0321370D01*
X0457239Y0324640D01*
X0456393Y0327799D01*
X0454758Y0330631D01*
X0452446Y0332943D01*
X0449613Y0334578D01*
X0446455Y0335424D01*
X0433145Y0335424D01*
X0429986Y0334578D01*
X0427154Y0332943D01*
X0424842Y0330631D01*
X0423207Y0327799D01*
X0422361Y0324640D01*
X0422361Y0321370D01*
X0423207Y0318211D01*
X0424842Y0315379D01*
X0427154Y0313066D01*
X0429100Y0311943D01*
X0429100Y0298391D01*
X0429800Y0295779D01*
X0429800Y0295658D01*
X0429886Y0295572D01*
X0431238Y0293230D01*
X0433230Y0291238D01*
X0435572Y0289886D01*
X0435658Y0289800D01*
X0435779Y0289800D01*
X0438391Y0289100D01*
X0454100Y0289100D01*
X0454100Y0272391D01*
X0454829Y0269670D01*
X0456238Y0267230D01*
X0460573Y0262895D01*
X0461043Y0262081D01*
X0463081Y0260043D01*
X0463895Y0259573D01*
X0474100Y0249368D01*
X0474100Y0248954D01*
X0474024Y0248998D01*
X0471241Y0249743D01*
X0468359Y0249743D01*
X0467451Y0249500D01*
X0457870Y0249500D01*
X0456530Y0249517D01*
X0456462Y0249500D01*
X0456391Y0249500D01*
X0455098Y0249153D01*
X0453800Y0248824D01*
X0453738Y0248789D01*
X0453670Y0248771D01*
X0452510Y0248101D01*
X0451342Y0247447D01*
X0451291Y0247397D01*
X0451230Y0247362D01*
X0450283Y0246415D01*
X0449324Y0245481D01*
X0449288Y0245420D01*
X0449238Y0245370D01*
X0448568Y0244210D01*
X0447884Y0243059D01*
X0447865Y0242991D01*
X0447829Y0242930D01*
X0447483Y0241636D01*
X0447119Y0240348D01*
X0447118Y0240277D01*
X0447100Y0240209D01*
X0447100Y0238870D01*
X0446118Y0163277D01*
X0446100Y0163209D01*
X0446100Y0161870D01*
X0446083Y0160530D01*
X0446100Y0160462D01*
X0446100Y0160391D01*
X0446134Y0160266D01*
X0444238Y0158370D01*
X0442829Y0155930D01*
X0442100Y0153209D01*
X0442100Y0083947D01*
X0441650Y0082268D01*
X0441650Y0079332D01*
X0442410Y0076496D01*
X0443878Y0073954D01*
X0445954Y0071878D01*
X0448496Y0070410D01*
X0445697Y0072134D02*
X0419200Y0072134D01*
X0419200Y0073733D02*
X0444099Y0073733D01*
X0443082Y0075332D02*
X0419200Y0075332D01*
X0419200Y0076930D02*
X0442294Y0076930D01*
X0441865Y0078529D02*
X0419200Y0078529D01*
X0419200Y0080127D02*
X0441650Y0080127D01*
X0441650Y0081726D02*
X0419200Y0081726D01*
X0419200Y0083324D02*
X0441933Y0083324D01*
X0442100Y0084923D02*
X0419200Y0084923D01*
X0419200Y0086521D02*
X0442100Y0086521D01*
X0442100Y0088120D02*
X0419200Y0088120D01*
X0419200Y0089718D02*
X0442100Y0089718D01*
X0442100Y0091317D02*
X0419200Y0091317D01*
X0419200Y0092915D02*
X0442100Y0092915D01*
X0442100Y0094514D02*
X0419200Y0094514D01*
X0419200Y0096112D02*
X0442100Y0096112D01*
X0442100Y0097711D02*
X0419200Y0097711D01*
X0419200Y0099309D02*
X0442100Y0099309D01*
X0442100Y0100908D02*
X0419200Y0100908D01*
X0419200Y0102506D02*
X0442100Y0102506D01*
X0442100Y0104105D02*
X0419200Y0104105D01*
X0419200Y0105703D02*
X0442100Y0105703D01*
X0442100Y0107302D02*
X0419200Y0107302D01*
X0419200Y0108900D02*
X0442100Y0108900D01*
X0442100Y0110499D02*
X0419200Y0110499D01*
X0419200Y0112097D02*
X0442100Y0112097D01*
X0442100Y0113696D02*
X0419200Y0113696D01*
X0419200Y0115294D02*
X0442100Y0115294D01*
X0442100Y0116893D02*
X0419200Y0116893D01*
X0419200Y0118491D02*
X0442100Y0118491D01*
X0442100Y0120090D02*
X0419200Y0120090D01*
X0419200Y0121688D02*
X0442100Y0121688D01*
X0442100Y0123287D02*
X0419200Y0123287D01*
X0419200Y0124885D02*
X0442100Y0124885D01*
X0442100Y0126484D02*
X0419200Y0126484D01*
X0419200Y0128082D02*
X0442100Y0128082D01*
X0442100Y0129681D02*
X0419200Y0129681D01*
X0419200Y0131279D02*
X0442100Y0131279D01*
X0442100Y0132878D02*
X0419200Y0132878D01*
X0419200Y0134476D02*
X0442100Y0134476D01*
X0442100Y0136075D02*
X0419200Y0136075D01*
X0419200Y0137673D02*
X0442100Y0137673D01*
X0442100Y0139272D02*
X0419200Y0139272D01*
X0419200Y0140870D02*
X0442100Y0140870D01*
X0442100Y0142469D02*
X0419200Y0142469D01*
X0419200Y0144068D02*
X0442100Y0144068D01*
X0442100Y0145666D02*
X0419200Y0145666D01*
X0419200Y0147265D02*
X0442100Y0147265D01*
X0442100Y0148863D02*
X0419200Y0148863D01*
X0419200Y0150462D02*
X0442100Y0150462D01*
X0442100Y0152060D02*
X0419200Y0152060D01*
X0419200Y0153659D02*
X0442221Y0153659D01*
X0442649Y0155257D02*
X0419200Y0155257D01*
X0419200Y0156856D02*
X0443364Y0156856D01*
X0444322Y0158454D02*
X0419200Y0158454D01*
X0419200Y0160053D02*
X0445921Y0160053D01*
X0446097Y0161651D02*
X0419200Y0161651D01*
X0419200Y0163250D02*
X0446111Y0163250D01*
X0446139Y0164848D02*
X0419200Y0164848D01*
X0419200Y0166447D02*
X0446159Y0166447D01*
X0446180Y0168045D02*
X0419200Y0168045D01*
X0419200Y0169644D02*
X0446201Y0169644D01*
X0446222Y0171242D02*
X0419200Y0171242D01*
X0419200Y0172841D02*
X0446242Y0172841D01*
X0446263Y0174439D02*
X0419200Y0174439D01*
X0419200Y0176038D02*
X0446284Y0176038D01*
X0446305Y0177636D02*
X0419200Y0177636D01*
X0419200Y0179235D02*
X0446326Y0179235D01*
X0446346Y0180833D02*
X0419200Y0180833D01*
X0419200Y0182432D02*
X0446367Y0182432D01*
X0446388Y0184030D02*
X0419200Y0184030D01*
X0419200Y0185629D02*
X0446409Y0185629D01*
X0446429Y0187227D02*
X0419200Y0187227D01*
X0419200Y0188826D02*
X0446450Y0188826D01*
X0446471Y0190424D02*
X0419200Y0190424D01*
X0419200Y0192023D02*
X0446492Y0192023D01*
X0446512Y0193621D02*
X0419200Y0193621D01*
X0419200Y0195220D02*
X0446533Y0195220D01*
X0446554Y0196818D02*
X0419200Y0196818D01*
X0419200Y0198417D02*
X0446575Y0198417D01*
X0446595Y0200015D02*
X0419200Y0200015D01*
X0419200Y0201614D02*
X0446616Y0201614D01*
X0446637Y0203212D02*
X0419200Y0203212D01*
X0419200Y0204811D02*
X0446658Y0204811D01*
X0446678Y0206409D02*
X0419200Y0206409D01*
X0419200Y0208008D02*
X0446699Y0208008D01*
X0446720Y0209606D02*
X0419200Y0209606D01*
X0419200Y0211205D02*
X0446741Y0211205D01*
X0446761Y0212803D02*
X0419200Y0212803D01*
X0419200Y0214402D02*
X0446782Y0214402D01*
X0446803Y0216001D02*
X0419200Y0216001D01*
X0419200Y0217599D02*
X0446824Y0217599D01*
X0446845Y0219198D02*
X0419200Y0219198D01*
X0419200Y0220796D02*
X0446865Y0220796D01*
X0446886Y0222395D02*
X0419200Y0222395D01*
X0419200Y0223993D02*
X0446907Y0223993D01*
X0446928Y0225592D02*
X0419200Y0225592D01*
X0419200Y0227190D02*
X0446948Y0227190D01*
X0446969Y0228789D02*
X0419200Y0228789D01*
X0419200Y0230387D02*
X0446990Y0230387D01*
X0447011Y0231986D02*
X0419200Y0231986D01*
X0419200Y0233584D02*
X0447031Y0233584D01*
X0447052Y0235183D02*
X0419200Y0235183D01*
X0419200Y0236781D02*
X0447073Y0236781D01*
X0447094Y0238380D02*
X0419200Y0238380D01*
X0419200Y0239978D02*
X0447100Y0239978D01*
X0447466Y0241577D02*
X0419200Y0241577D01*
X0419200Y0243175D02*
X0447953Y0243175D01*
X0448894Y0244774D02*
X0419200Y0244774D01*
X0419200Y0246372D02*
X0450239Y0246372D01*
X0452277Y0247971D02*
X0419200Y0247971D01*
X0419200Y0249569D02*
X0467710Y0249569D01*
X0471890Y0249569D02*
X0473899Y0249569D01*
X0472300Y0251168D02*
X0419200Y0251168D01*
X0419200Y0252766D02*
X0470702Y0252766D01*
X0469103Y0254365D02*
X0419200Y0254365D01*
X0419200Y0255963D02*
X0467505Y0255963D01*
X0465906Y0257562D02*
X0419200Y0257562D01*
X0419200Y0259160D02*
X0464308Y0259160D01*
X0462365Y0260759D02*
X0419200Y0260759D01*
X0419200Y0262357D02*
X0460883Y0262357D01*
X0459512Y0263956D02*
X0419200Y0263956D01*
X0419200Y0265554D02*
X0457914Y0265554D01*
X0456315Y0267153D02*
X0419200Y0267153D01*
X0419200Y0268751D02*
X0455360Y0268751D01*
X0454647Y0270350D02*
X0419200Y0270350D01*
X0419200Y0271948D02*
X0454219Y0271948D01*
X0454100Y0273547D02*
X0419200Y0273547D01*
X0419200Y0275145D02*
X0454100Y0275145D01*
X0454100Y0276744D02*
X0419200Y0276744D01*
X0419200Y0278342D02*
X0454100Y0278342D01*
X0454100Y0279941D02*
X0419200Y0279941D01*
X0419200Y0281539D02*
X0454100Y0281539D01*
X0454100Y0283138D02*
X0419200Y0283138D01*
X0419200Y0284737D02*
X0454100Y0284737D01*
X0454100Y0286335D02*
X0419200Y0286335D01*
X0419200Y0287934D02*
X0454100Y0287934D01*
X0436779Y0289532D02*
X0419200Y0289532D01*
X0419200Y0291131D02*
X0433416Y0291131D01*
X0431739Y0292729D02*
X0419200Y0292729D01*
X0419200Y0294328D02*
X0430604Y0294328D01*
X0429761Y0295926D02*
X0419200Y0295926D01*
X0419200Y0297525D02*
X0429332Y0297525D01*
X0429100Y0299123D02*
X0419200Y0299123D01*
X0419200Y0300722D02*
X0429100Y0300722D01*
X0429100Y0302320D02*
X0419200Y0302320D01*
X0419200Y0303919D02*
X0429100Y0303919D01*
X0429100Y0305517D02*
X0419200Y0305517D01*
X0419200Y0307116D02*
X0429100Y0307116D01*
X0429100Y0308714D02*
X0419200Y0308714D01*
X0419200Y0310313D02*
X0429100Y0310313D01*
X0429100Y0311911D02*
X0419200Y0311911D01*
X0419200Y0313510D02*
X0426711Y0313510D01*
X0425113Y0315108D02*
X0419200Y0315108D01*
X0419200Y0316707D02*
X0424075Y0316707D01*
X0423182Y0318305D02*
X0419200Y0318305D01*
X0419200Y0319904D02*
X0422753Y0319904D01*
X0422361Y0321502D02*
X0419200Y0321502D01*
X0419200Y0323101D02*
X0422361Y0323101D01*
X0422377Y0324699D02*
X0419200Y0324699D01*
X0419200Y0326298D02*
X0422805Y0326298D01*
X0423263Y0327896D02*
X0419200Y0327896D01*
X0419200Y0329495D02*
X0424186Y0329495D01*
X0425305Y0331093D02*
X0419200Y0331093D01*
X0419200Y0332692D02*
X0426903Y0332692D01*
X0429488Y0334290D02*
X0419200Y0334290D01*
X0419200Y0335889D02*
X0487427Y0335889D01*
X0487361Y0334290D02*
X0450112Y0334290D01*
X0452697Y0332692D02*
X0487361Y0332692D01*
X0487703Y0331093D02*
X0454295Y0331093D01*
X0455414Y0329495D02*
X0488131Y0329495D01*
X0488966Y0327896D02*
X0456337Y0327896D01*
X0456795Y0326298D02*
X0489923Y0326298D01*
X0491522Y0324699D02*
X0457223Y0324699D01*
X0457239Y0323101D02*
X0493827Y0323101D01*
X0494100Y0321502D02*
X0457239Y0321502D01*
X0456847Y0319904D02*
X0494100Y0319904D01*
X0494100Y0318305D02*
X0456418Y0318305D01*
X0455525Y0316707D02*
X0494100Y0316707D01*
X0494100Y0315108D02*
X0454487Y0315108D01*
X0452889Y0313510D02*
X0494100Y0313510D01*
X0494100Y0311911D02*
X0467474Y0311911D01*
X0464126Y0311911D02*
X0450500Y0311911D01*
X0471456Y0310313D02*
X0494100Y0310313D01*
X0494100Y0308714D02*
X0473311Y0308714D01*
X0474509Y0307116D02*
X0494100Y0307116D01*
X0493775Y0305517D02*
X0475825Y0305517D01*
X0476518Y0303919D02*
X0493082Y0303919D01*
X0492420Y0302320D02*
X0477180Y0302320D01*
X0477400Y0300722D02*
X0492200Y0300722D01*
X0492200Y0299123D02*
X0477400Y0299123D01*
X0477281Y0297525D02*
X0492319Y0297525D01*
X0492981Y0295926D02*
X0476619Y0295926D01*
X0475957Y0294328D02*
X0493643Y0294328D01*
X0494100Y0292729D02*
X0475500Y0292729D01*
X0475500Y0291131D02*
X0494100Y0291131D01*
X0494100Y0289532D02*
X0475500Y0289532D01*
X0475500Y0287934D02*
X0494100Y0287934D01*
X0494100Y0286335D02*
X0475500Y0286335D01*
X0475500Y0284737D02*
X0494100Y0284737D01*
X0494100Y0283138D02*
X0475500Y0283138D01*
X0475500Y0281539D02*
X0494100Y0281539D01*
X0494100Y0279941D02*
X0475500Y0279941D01*
X0475500Y0278342D02*
X0494100Y0278342D01*
X0492268Y0276744D02*
X0477332Y0276744D01*
X0478773Y0275145D02*
X0490827Y0275145D01*
X0489904Y0273547D02*
X0480185Y0273547D01*
X0481784Y0271948D02*
X0489314Y0271948D01*
X0488886Y0270350D02*
X0483382Y0270350D01*
X0484981Y0268751D02*
X0488857Y0268751D01*
X0488912Y0267153D02*
X0486579Y0267153D01*
X0488178Y0265554D02*
X0489340Y0265554D01*
X0489776Y0263956D02*
X0489961Y0263956D01*
X0494061Y0259160D02*
X0494610Y0259160D01*
X0494869Y0257562D02*
X0543471Y0257562D01*
X0543475Y0259160D02*
X0504990Y0259160D01*
X0507235Y0260759D02*
X0543480Y0260759D01*
X0543484Y0262357D02*
X0508717Y0262357D01*
X0510088Y0263956D02*
X0543488Y0263956D01*
X0543492Y0265554D02*
X0511686Y0265554D01*
X0513285Y0267153D02*
X0543496Y0267153D01*
X0543501Y0268751D02*
X0514240Y0268751D01*
X0514953Y0270350D02*
X0543505Y0270350D01*
X0543509Y0271948D02*
X0515381Y0271948D01*
X0515500Y0273547D02*
X0543513Y0273547D01*
X0543517Y0275145D02*
X0515500Y0275145D01*
X0515500Y0276744D02*
X0543522Y0276744D01*
X0543526Y0278342D02*
X0515500Y0278342D01*
X0515500Y0279941D02*
X0543530Y0279941D01*
X0543534Y0281539D02*
X0515500Y0281539D01*
X0515500Y0283138D02*
X0543538Y0283138D01*
X0543543Y0284737D02*
X0515500Y0284737D01*
X0515500Y0286335D02*
X0543547Y0286335D01*
X0543551Y0287934D02*
X0515500Y0287934D01*
X0515500Y0289532D02*
X0543555Y0289532D01*
X0543559Y0291131D02*
X0515500Y0291131D01*
X0515500Y0292729D02*
X0543564Y0292729D01*
X0543568Y0294328D02*
X0515957Y0294328D01*
X0516619Y0295926D02*
X0543572Y0295926D01*
X0543576Y0297525D02*
X0517281Y0297525D01*
X0517400Y0299123D02*
X0543580Y0299123D01*
X0543585Y0300722D02*
X0517400Y0300722D01*
X0517180Y0302320D02*
X0543589Y0302320D01*
X0543593Y0303919D02*
X0516518Y0303919D01*
X0515825Y0305517D02*
X0543597Y0305517D01*
X0543601Y0307116D02*
X0515500Y0307116D01*
X0515500Y0308714D02*
X0543606Y0308714D01*
X0543610Y0310313D02*
X0515500Y0310313D01*
X0515500Y0311911D02*
X0543614Y0311911D01*
X0543618Y0313510D02*
X0515500Y0313510D01*
X0515500Y0315108D02*
X0543622Y0315108D01*
X0543627Y0316707D02*
X0515500Y0316707D01*
X0515500Y0318305D02*
X0543631Y0318305D01*
X0543635Y0319904D02*
X0515500Y0319904D01*
X0515500Y0321502D02*
X0543639Y0321502D01*
X0543643Y0323101D02*
X0515773Y0323101D01*
X0518078Y0324699D02*
X0543648Y0324699D01*
X0543652Y0326298D02*
X0519677Y0326298D01*
X0520634Y0327896D02*
X0543656Y0327896D01*
X0543660Y0329495D02*
X0521469Y0329495D01*
X0521897Y0331093D02*
X0543664Y0331093D01*
X0543668Y0332692D02*
X0522239Y0332692D01*
X0522239Y0334290D02*
X0543673Y0334290D01*
X0543677Y0335889D02*
X0522173Y0335889D01*
X0521744Y0337487D02*
X0543681Y0337487D01*
X0543685Y0339086D02*
X0521227Y0339086D01*
X0520304Y0340684D02*
X0543689Y0340684D01*
X0543694Y0342283D02*
X0519106Y0342283D01*
X0517507Y0343881D02*
X0543698Y0343881D01*
X0543702Y0345480D02*
X0514783Y0345480D01*
X0494817Y0345480D02*
X0439829Y0345480D01*
X0441542Y0345939D02*
X0437758Y0344925D01*
X0433842Y0344925D01*
X0430058Y0345939D01*
X0426667Y0347897D01*
X0423897Y0350667D01*
X0421939Y0354058D01*
X0420925Y0357842D01*
X0420925Y0361758D01*
X0421939Y0365542D01*
X0423897Y0368933D01*
X0426667Y0371703D01*
X0430058Y0373661D01*
X0433842Y0374675D01*
X0437758Y0374675D01*
X0441542Y0373661D01*
X0444933Y0371703D01*
X0447703Y0368933D01*
X0449661Y0365542D01*
X0450675Y0361758D01*
X0450675Y0357842D01*
X0449661Y0354058D01*
X0447703Y0350667D01*
X0444933Y0347897D01*
X0441542Y0345939D01*
X0443516Y0347078D02*
X0543706Y0347078D01*
X0543710Y0348677D02*
X0445713Y0348677D01*
X0447312Y0350275D02*
X0543715Y0350275D01*
X0543719Y0351874D02*
X0448400Y0351874D01*
X0449323Y0353472D02*
X0543723Y0353472D01*
X0543727Y0355071D02*
X0449933Y0355071D01*
X0450361Y0356670D02*
X0543731Y0356670D01*
X0543736Y0358268D02*
X0450675Y0358268D01*
X0450675Y0359867D02*
X0543740Y0359867D01*
X0543744Y0361465D02*
X0450675Y0361465D01*
X0450325Y0363064D02*
X0543748Y0363064D01*
X0543752Y0364662D02*
X0449897Y0364662D01*
X0449246Y0366261D02*
X0543757Y0366261D01*
X0543761Y0367859D02*
X0448323Y0367859D01*
X0447179Y0369458D02*
X0543765Y0369458D01*
X0543769Y0371056D02*
X0445580Y0371056D01*
X0443285Y0372655D02*
X0543773Y0372655D01*
X0543778Y0374253D02*
X0439333Y0374253D01*
X0432267Y0374253D02*
X0419200Y0374253D01*
X0419200Y0372655D02*
X0428315Y0372655D01*
X0426020Y0371056D02*
X0419200Y0371056D01*
X0419200Y0369458D02*
X0424421Y0369458D01*
X0423277Y0367859D02*
X0419200Y0367859D01*
X0419200Y0366261D02*
X0422354Y0366261D01*
X0421703Y0364662D02*
X0419200Y0364662D01*
X0419200Y0363064D02*
X0421275Y0363064D01*
X0420925Y0361465D02*
X0419200Y0361465D01*
X0419200Y0359867D02*
X0420925Y0359867D01*
X0420925Y0358268D02*
X0419200Y0358268D01*
X0419200Y0356670D02*
X0421239Y0356670D01*
X0421667Y0355071D02*
X0419200Y0355071D01*
X0419200Y0353472D02*
X0422277Y0353472D01*
X0423200Y0351874D02*
X0419200Y0351874D01*
X0419200Y0350275D02*
X0424288Y0350275D01*
X0425887Y0348677D02*
X0419200Y0348677D01*
X0419200Y0347078D02*
X0428084Y0347078D01*
X0431771Y0345480D02*
X0419200Y0345480D01*
X0419200Y0343881D02*
X0492093Y0343881D01*
X0490494Y0342283D02*
X0419200Y0342283D01*
X0419200Y0340684D02*
X0489296Y0340684D01*
X0488373Y0339086D02*
X0419200Y0339086D01*
X0419200Y0337487D02*
X0487856Y0337487D01*
X0495298Y0255963D02*
X0543467Y0255963D01*
X0543463Y0254365D02*
X0495500Y0254365D01*
X0495500Y0252766D02*
X0543459Y0252766D01*
X0543455Y0251168D02*
X0495500Y0251168D01*
X0495500Y0249569D02*
X0497710Y0249569D01*
X0501890Y0249569D02*
X0543450Y0249569D01*
X0543446Y0247971D02*
X0517316Y0247971D01*
X0519362Y0246372D02*
X0543442Y0246372D01*
X0543438Y0244774D02*
X0520720Y0244774D01*
X0521629Y0243175D02*
X0543434Y0243175D01*
X0543429Y0241577D02*
X0522135Y0241577D01*
X0522519Y0239978D02*
X0543425Y0239978D01*
X0543421Y0238380D02*
X0522500Y0238380D01*
X0522470Y0236781D02*
X0543417Y0236781D01*
X0543413Y0235183D02*
X0522446Y0235183D01*
X0522421Y0233584D02*
X0543408Y0233584D01*
X0543404Y0231986D02*
X0522396Y0231986D01*
X0522372Y0230387D02*
X0543400Y0230387D01*
X0543396Y0228789D02*
X0522347Y0228789D01*
X0522323Y0227190D02*
X0543392Y0227190D01*
X0543387Y0225592D02*
X0522298Y0225592D01*
X0522273Y0223993D02*
X0543383Y0223993D01*
X0543379Y0222395D02*
X0522249Y0222395D01*
X0522224Y0220796D02*
X0543375Y0220796D01*
X0543371Y0219198D02*
X0522200Y0219198D01*
X0522175Y0217599D02*
X0543366Y0217599D01*
X0543362Y0216001D02*
X0522150Y0216001D01*
X0522126Y0214402D02*
X0543358Y0214402D01*
X0543354Y0212803D02*
X0522101Y0212803D01*
X0522077Y0211205D02*
X0543350Y0211205D01*
X0543345Y0209606D02*
X0522052Y0209606D01*
X0522028Y0208008D02*
X0543341Y0208008D01*
X0543337Y0206409D02*
X0522003Y0206409D01*
X0521978Y0204811D02*
X0543333Y0204811D01*
X0543329Y0203212D02*
X0521954Y0203212D01*
X0521929Y0201614D02*
X0543324Y0201614D01*
X0543320Y0200015D02*
X0521905Y0200015D01*
X0521880Y0198417D02*
X0543316Y0198417D01*
X0543312Y0196818D02*
X0521855Y0196818D01*
X0521831Y0195220D02*
X0543308Y0195220D01*
X0543303Y0193621D02*
X0521806Y0193621D01*
X0521782Y0192023D02*
X0543299Y0192023D01*
X0543295Y0190424D02*
X0521757Y0190424D01*
X0521732Y0188826D02*
X0543291Y0188826D01*
X0543287Y0187227D02*
X0521708Y0187227D01*
X0521683Y0185629D02*
X0543282Y0185629D01*
X0543278Y0184030D02*
X0521659Y0184030D01*
X0521634Y0182432D02*
X0543274Y0182432D01*
X0543270Y0180833D02*
X0521609Y0180833D01*
X0521585Y0179235D02*
X0543266Y0179235D01*
X0543262Y0177636D02*
X0521560Y0177636D01*
X0521536Y0176038D02*
X0543257Y0176038D01*
X0543253Y0174439D02*
X0521511Y0174439D01*
X0521500Y0172841D02*
X0543249Y0172841D01*
X0543245Y0171242D02*
X0521197Y0171242D01*
X0520756Y0169644D02*
X0543241Y0169644D01*
X0543236Y0168045D02*
X0519833Y0168045D01*
X0518587Y0166447D02*
X0543232Y0166447D01*
X0543228Y0164848D02*
X0516980Y0164848D01*
X0515382Y0163250D02*
X0543224Y0163250D01*
X0543220Y0161651D02*
X0513783Y0161651D01*
X0512185Y0160053D02*
X0543215Y0160053D01*
X0543211Y0158454D02*
X0510838Y0158454D01*
X0510176Y0156856D02*
X0543207Y0156856D01*
X0543203Y0155257D02*
X0510792Y0155257D01*
X0511400Y0153659D02*
X0543199Y0153659D01*
X0543194Y0152060D02*
X0511400Y0152060D01*
X0511400Y0150462D02*
X0543190Y0150462D01*
X0543186Y0148863D02*
X0511007Y0148863D01*
X0510345Y0147265D02*
X0543182Y0147265D01*
X0543178Y0145666D02*
X0510623Y0145666D01*
X0511285Y0144068D02*
X0543173Y0144068D01*
X0543169Y0142469D02*
X0511400Y0142469D01*
X0511400Y0140870D02*
X0543165Y0140870D01*
X0543161Y0139272D02*
X0511177Y0139272D01*
X0510515Y0137673D02*
X0543157Y0137673D01*
X0543152Y0136075D02*
X0510453Y0136075D01*
X0511115Y0134476D02*
X0543148Y0134476D01*
X0543144Y0132878D02*
X0511400Y0132878D01*
X0511400Y0131279D02*
X0543140Y0131279D01*
X0543136Y0129681D02*
X0511346Y0129681D01*
X0510684Y0128082D02*
X0543131Y0128082D01*
X0543127Y0126484D02*
X0510022Y0126484D01*
X0508628Y0124885D02*
X0543123Y0124885D01*
X0543119Y0123287D02*
X0506979Y0123287D01*
X0490621Y0123287D02*
X0476979Y0123287D01*
X0478628Y0124885D02*
X0488972Y0124885D01*
X0487578Y0126484D02*
X0480022Y0126484D01*
X0480684Y0128082D02*
X0486916Y0128082D01*
X0486254Y0129681D02*
X0481346Y0129681D01*
X0481400Y0131279D02*
X0486200Y0131279D01*
X0486200Y0132878D02*
X0481400Y0132878D01*
X0481115Y0134476D02*
X0485991Y0134476D01*
X0484393Y0136075D02*
X0480453Y0136075D01*
X0479669Y0137673D02*
X0482794Y0137673D01*
X0481196Y0139272D02*
X0478070Y0139272D01*
X0479597Y0140870D02*
X0475633Y0140870D01*
X0475004Y0142469D02*
X0477999Y0142469D01*
X0473389Y0141800D02*
X0472821Y0141800D01*
X0472821Y0141800D01*
X0473389Y0141800D01*
X0472404Y0121688D02*
X0543115Y0121688D01*
X0543110Y0120090D02*
X0463500Y0120090D01*
X0463500Y0118491D02*
X0543106Y0118491D01*
X0543102Y0116893D02*
X0463500Y0116893D01*
X0463500Y0115294D02*
X0543098Y0115294D01*
X0543094Y0113696D02*
X0463500Y0113696D01*
X0463500Y0112097D02*
X0543089Y0112097D01*
X0543085Y0110499D02*
X0463500Y0110499D01*
X0463500Y0108900D02*
X0543081Y0108900D01*
X0543077Y0107302D02*
X0463500Y0107302D01*
X0463500Y0105703D02*
X0543073Y0105703D01*
X0543069Y0104105D02*
X0463500Y0104105D01*
X0463500Y0102506D02*
X0543064Y0102506D01*
X0543060Y0100908D02*
X0463500Y0100908D01*
X0463500Y0099309D02*
X0543056Y0099309D01*
X0543052Y0097711D02*
X0463500Y0097711D01*
X0463500Y0096112D02*
X0543048Y0096112D01*
X0543043Y0094514D02*
X0463500Y0094514D01*
X0463500Y0092915D02*
X0543039Y0092915D01*
X0543035Y0091317D02*
X0463500Y0091317D01*
X0463500Y0089718D02*
X0543031Y0089718D01*
X0543027Y0088120D02*
X0463500Y0088120D01*
X0463500Y0086521D02*
X0543022Y0086521D01*
X0543018Y0084923D02*
X0463500Y0084923D01*
X0463667Y0083324D02*
X0543014Y0083324D01*
X0543010Y0081726D02*
X0463950Y0081726D01*
X0463950Y0080127D02*
X0543006Y0080127D01*
X0543001Y0078529D02*
X0463735Y0078529D01*
X0463306Y0076930D02*
X0542997Y0076930D01*
X0542993Y0075332D02*
X0462518Y0075332D01*
X0461501Y0073733D02*
X0542989Y0073733D01*
X0542985Y0072134D02*
X0459903Y0072134D01*
X0457322Y0070536D02*
X0542980Y0070536D01*
X0542884Y0033770D02*
X0444135Y0033770D01*
X0447122Y0032172D02*
X0542880Y0032172D01*
X0542876Y0030573D02*
X0449063Y0030573D01*
X0450662Y0028975D02*
X0542871Y0028975D01*
X0542867Y0027376D02*
X0451602Y0027376D01*
X0452525Y0025778D02*
X0542863Y0025778D01*
X0542859Y0024179D02*
X0453026Y0024179D01*
X0453455Y0022581D02*
X0542855Y0022581D01*
X0542850Y0020982D02*
X0453675Y0020982D01*
X0453675Y0019384D02*
X0542846Y0019384D01*
X0542842Y0017785D02*
X0453660Y0017785D01*
X0453232Y0016187D02*
X0542838Y0016187D01*
X0542834Y0014588D02*
X0452803Y0014588D01*
X0452044Y0012990D02*
X0542829Y0012990D01*
X0542825Y0011391D02*
X0451121Y0011391D01*
X0449829Y0009793D02*
X0542821Y0009793D01*
X0500652Y0209743D02*
X0498359Y0209743D01*
X0497451Y0209500D01*
X0495500Y0209500D01*
X0495500Y0228646D01*
X0495576Y0228602D01*
X0498359Y0227857D01*
X0500930Y0227857D01*
X0500652Y0209743D01*
X0500674Y0211205D02*
X0495500Y0211205D01*
X0495500Y0212803D02*
X0500699Y0212803D01*
X0500723Y0214402D02*
X0495500Y0214402D01*
X0495500Y0216001D02*
X0500748Y0216001D01*
X0500773Y0217599D02*
X0495500Y0217599D01*
X0495500Y0219198D02*
X0500797Y0219198D01*
X0500822Y0220796D02*
X0495500Y0220796D01*
X0495500Y0222395D02*
X0500846Y0222395D01*
X0500871Y0223993D02*
X0495500Y0223993D01*
X0495500Y0225592D02*
X0500896Y0225592D01*
X0500920Y0227190D02*
X0495500Y0227190D01*
X0495500Y0209606D02*
X0497849Y0209606D01*
X0474100Y0209606D02*
X0471751Y0209606D01*
X0472149Y0209500D02*
X0471241Y0209743D01*
X0468359Y0209743D01*
X0468123Y0209680D01*
X0468359Y0227857D01*
X0468359Y0227857D01*
X0471241Y0227857D01*
X0474024Y0228602D01*
X0474100Y0228646D01*
X0474100Y0209500D01*
X0472149Y0209500D01*
X0474100Y0211205D02*
X0468143Y0211205D01*
X0468163Y0212803D02*
X0474100Y0212803D01*
X0474100Y0214402D02*
X0468184Y0214402D01*
X0468205Y0216001D02*
X0474100Y0216001D01*
X0474100Y0217599D02*
X0468226Y0217599D01*
X0468246Y0219198D02*
X0474100Y0219198D01*
X0474100Y0220796D02*
X0468267Y0220796D01*
X0468288Y0222395D02*
X0474100Y0222395D01*
X0474100Y0223993D02*
X0468309Y0223993D01*
X0468329Y0225592D02*
X0474100Y0225592D01*
X0474100Y0227190D02*
X0468350Y0227190D01*
D19*
X0469800Y0238800D02*
X0457800Y0238800D01*
X0456800Y0161800D01*
X0468800Y0161800D01*
X0466800Y0161800D01*
X0468800Y0151800D02*
X0452800Y0151800D01*
X0452800Y0131800D01*
X0468800Y0131800D01*
X0468800Y0141800D02*
X0465800Y0141800D01*
X0468800Y0141800D02*
X0471800Y0141800D01*
X0478800Y0141800D01*
X0482800Y0137800D01*
X0493800Y0141800D02*
X0483800Y0151800D01*
X0484800Y0198800D01*
X0484800Y0253800D01*
X0469800Y0268800D01*
X0464800Y0273800D01*
X0464800Y0299800D01*
X0465800Y0299800D01*
X0464800Y0299800D02*
X0439800Y0299800D01*
X0439800Y0323005D01*
X0504800Y0334005D02*
X0504800Y0299800D01*
X0504800Y0273800D01*
X0499800Y0268800D01*
X0499800Y0238800D02*
X0511800Y0238800D01*
X0510800Y0173800D01*
X0498800Y0161800D01*
X0498800Y0141800D02*
X0493800Y0141800D01*
X0508800Y0108800D02*
X0508800Y0083800D01*
X0452800Y0080800D02*
X0452800Y0131800D01*
X0469800Y0198800D02*
X0484800Y0198800D01*
X0499800Y0198800D01*
X0347800Y0032800D02*
X0347800Y0031800D01*
X0098800Y0235800D02*
X0098800Y0260800D01*
X0088800Y0293800D02*
X0083800Y0293800D01*
X0073800Y0303800D01*
X0073800Y0467800D01*
X0073800Y0522800D01*
X0058800Y0537800D01*
X0053800Y0542800D01*
X0053800Y0568800D01*
X0054800Y0568800D01*
X0053800Y0568800D02*
X0028800Y0568800D01*
X0028800Y0592005D01*
X0093800Y0603005D02*
X0093800Y0568800D01*
X0093800Y0542800D01*
X0088800Y0537800D01*
X0088800Y0507800D02*
X0100800Y0507800D01*
X0100800Y0325800D01*
X0088800Y0313800D01*
X0058800Y0313800D02*
X0046800Y0313800D01*
X0046800Y0507800D01*
X0058800Y0507800D01*
X0058800Y0467800D02*
X0073800Y0467800D01*
X0088800Y0467800D01*
X0058800Y0313800D02*
X0056800Y0313800D01*
X0058800Y0303800D02*
X0042800Y0303800D01*
X0042800Y0283800D01*
X0058800Y0283800D01*
X0058800Y0293800D02*
X0055800Y0293800D01*
X0058800Y0293800D02*
X0061800Y0293800D01*
X0068800Y0293800D01*
X0072800Y0289800D01*
X0042800Y0283800D02*
X0042800Y0232800D01*
X0757800Y0032800D02*
X0757800Y0031800D01*
D20*
X0757800Y0032800D02*
X0706800Y0032800D01*
X0666800Y0032800D02*
X0576800Y0032800D01*
X0518810Y0032800D01*
X0518810Y0032707D01*
X0500800Y0030800D01*
X0518810Y0032707D02*
X0595600Y0032600D01*
X0347800Y0032800D02*
X0296800Y0032800D01*
X0256800Y0032800D02*
X0166800Y0032800D01*
X0108810Y0032800D01*
X0108810Y0032707D01*
X0090800Y0030800D01*
X0108810Y0032707D02*
X0185600Y0032600D01*
X0530800Y0359800D02*
X0669800Y0359800D01*
X0709800Y0359800D02*
X0755800Y0359800D01*
X0344800Y0628800D02*
X0298800Y0628800D01*
X0258800Y0628800D02*
X0119800Y0628800D01*
D21*
X0239800Y0563800D03*
X0277800Y0560800D03*
X0298800Y0560800D03*
X0246800Y0524800D03*
X0278800Y0486800D03*
X0299800Y0486800D03*
X0350800Y0446800D03*
X0314800Y0421800D03*
X0247800Y0384800D03*
X0234800Y0424800D03*
X0200500Y0504100D03*
X0119800Y0487800D03*
X0026800Y0487800D03*
X0162800Y0318800D03*
X0184800Y0279800D03*
X0224800Y0287800D03*
X0223800Y0258800D03*
X0189800Y0213800D03*
X0232800Y0184800D03*
X0220800Y0156800D03*
X0216800Y0120800D03*
X0223800Y0107800D03*
X0236800Y0120800D03*
X0182800Y0152800D03*
X0223800Y0055800D03*
X0437800Y0218800D03*
X0530800Y0218800D03*
X0585800Y0190800D03*
X0592800Y0152800D03*
X0630800Y0156800D03*
X0626800Y0120800D03*
X0633800Y0107800D03*
X0646800Y0120800D03*
X0633800Y0055800D03*
X0763800Y0187800D03*
X0710800Y0217800D03*
X0689800Y0217800D03*
X0657800Y0255800D03*
X0688800Y0291800D03*
X0709800Y0291800D03*
X0650800Y0294800D03*
X0763800Y0238800D03*
D22*
X0575800Y0033800D02*
X0576800Y0032800D01*
X0465800Y0299800D02*
X0465800Y0301800D01*
X0166800Y0032800D02*
X0165800Y0033800D01*
X0054800Y0568800D02*
X0054800Y0570800D01*
D23*
X0053800Y0570800D02*
X0053800Y0568800D01*
X0121800Y0529800D02*
X0122800Y0530800D01*
X0173800Y0530800D01*
X0200500Y0504100D01*
X0246800Y0524800D02*
X0246800Y0556800D01*
X0239800Y0563800D01*
X0277800Y0560800D02*
X0298800Y0560800D01*
X0299800Y0486800D02*
X0278800Y0486800D01*
X0325800Y0421800D02*
X0350800Y0446800D01*
X0325800Y0421800D02*
X0314800Y0421800D01*
X0244800Y0410800D02*
X0244800Y0387800D01*
X0247800Y0384800D01*
X0244800Y0410800D02*
X0234800Y0420800D01*
X0234800Y0424800D01*
X0162800Y0318800D02*
X0124800Y0318800D01*
X0184800Y0282800D02*
X0184800Y0279800D01*
X0184800Y0282800D02*
X0195800Y0293800D01*
X0218800Y0293800D01*
X0224800Y0287800D01*
X0223800Y0258800D02*
X0226800Y0255800D01*
X0226800Y0190800D01*
X0232800Y0184800D01*
X0213800Y0163800D02*
X0220800Y0156800D01*
X0213800Y0163800D02*
X0188800Y0163800D01*
X0182800Y0157800D01*
X0182800Y0152800D01*
X0216800Y0120800D02*
X0236800Y0120800D01*
X0223800Y0107800D02*
X0223800Y0055800D01*
X0347800Y0032800D02*
X0349800Y0032800D01*
X0468800Y0141800D02*
X0471800Y0142800D01*
X0471800Y0141800D01*
X0530800Y0190800D02*
X0530800Y0218800D01*
X0530800Y0190800D02*
X0585800Y0190800D01*
X0598800Y0163800D02*
X0623800Y0163800D01*
X0630800Y0156800D01*
X0598800Y0163800D02*
X0592800Y0157800D01*
X0592800Y0152800D01*
X0626800Y0120800D02*
X0646800Y0120800D01*
X0633800Y0107800D02*
X0633800Y0055800D01*
X0757800Y0032800D02*
X0759800Y0032800D01*
X0763800Y0187800D02*
X0763800Y0238800D01*
X0710800Y0217800D02*
X0689800Y0217800D01*
X0657800Y0255800D02*
X0657800Y0287800D01*
X0650800Y0294800D01*
X0688800Y0291800D02*
X0709800Y0291800D01*
X0757800Y0358800D02*
X0757800Y0359800D01*
X0756800Y0361800D01*
X0755800Y0359800D01*
X0464800Y0301800D02*
X0464800Y0299800D01*
X0189800Y0213800D02*
X0087800Y0213800D01*
X0086800Y0214800D01*
X0061800Y0293800D02*
X0061800Y0294800D01*
X0058800Y0293800D01*
X0344800Y0628800D02*
X0345800Y0630800D01*
X0346800Y0628800D01*
X0346800Y0627800D01*
X0496800Y0062800D02*
X0497800Y0061800D01*
M02*
