G75*
%MOIN*%
%OFA0B0*%
%FSLAX25Y25*%
%IPPOS*%
%LPD*%
%AMOC8*
5,1,8,0,0,1.08239X$1,22.5*
%
%ADD10C,0.00000*%
%ADD11R,0.22000X0.21000*%
%ADD12C,0.10039*%
%ADD13C,0.07500*%
%ADD14C,0.10500*%
%ADD15R,0.05118X0.05906*%
%ADD16C,0.05200*%
%ADD17C,0.07087*%
%ADD18R,0.03500X0.06600*%
%ADD19R,0.12598X0.07087*%
%ADD20R,0.03150X0.05512*%
%ADD21R,0.03150X0.07480*%
%ADD22C,0.06000*%
%ADD23R,0.08661X0.07087*%
%ADD24C,0.11850*%
%ADD25R,0.09449X0.09449*%
%ADD26OC8,0.05200*%
%ADD27R,0.05906X0.05118*%
%ADD28OC8,0.06000*%
%ADD29C,0.05600*%
%ADD30R,0.03962X0.03962*%
%ADD31C,0.04000*%
D10*
X0001800Y0001800D02*
X0001800Y0651800D01*
X0401800Y0651800D01*
X0402800Y0001800D01*
X0001800Y0001800D01*
X0021325Y0019800D02*
X0021327Y0019983D01*
X0021334Y0020167D01*
X0021345Y0020350D01*
X0021361Y0020533D01*
X0021381Y0020715D01*
X0021406Y0020897D01*
X0021435Y0021078D01*
X0021469Y0021258D01*
X0021507Y0021438D01*
X0021549Y0021616D01*
X0021596Y0021794D01*
X0021647Y0021970D01*
X0021702Y0022145D01*
X0021762Y0022318D01*
X0021826Y0022490D01*
X0021894Y0022661D01*
X0021966Y0022829D01*
X0022043Y0022996D01*
X0022123Y0023161D01*
X0022208Y0023324D01*
X0022296Y0023484D01*
X0022388Y0023643D01*
X0022485Y0023799D01*
X0022585Y0023953D01*
X0022689Y0024104D01*
X0022796Y0024253D01*
X0022907Y0024399D01*
X0023022Y0024542D01*
X0023140Y0024682D01*
X0023261Y0024820D01*
X0023386Y0024954D01*
X0023514Y0025086D01*
X0023646Y0025214D01*
X0023780Y0025339D01*
X0023918Y0025460D01*
X0024058Y0025578D01*
X0024201Y0025693D01*
X0024347Y0025804D01*
X0024496Y0025911D01*
X0024647Y0026015D01*
X0024801Y0026115D01*
X0024957Y0026212D01*
X0025116Y0026304D01*
X0025276Y0026392D01*
X0025439Y0026477D01*
X0025604Y0026557D01*
X0025771Y0026634D01*
X0025939Y0026706D01*
X0026110Y0026774D01*
X0026282Y0026838D01*
X0026455Y0026898D01*
X0026630Y0026953D01*
X0026806Y0027004D01*
X0026984Y0027051D01*
X0027162Y0027093D01*
X0027342Y0027131D01*
X0027522Y0027165D01*
X0027703Y0027194D01*
X0027885Y0027219D01*
X0028067Y0027239D01*
X0028250Y0027255D01*
X0028433Y0027266D01*
X0028617Y0027273D01*
X0028800Y0027275D01*
X0028983Y0027273D01*
X0029167Y0027266D01*
X0029350Y0027255D01*
X0029533Y0027239D01*
X0029715Y0027219D01*
X0029897Y0027194D01*
X0030078Y0027165D01*
X0030258Y0027131D01*
X0030438Y0027093D01*
X0030616Y0027051D01*
X0030794Y0027004D01*
X0030970Y0026953D01*
X0031145Y0026898D01*
X0031318Y0026838D01*
X0031490Y0026774D01*
X0031661Y0026706D01*
X0031829Y0026634D01*
X0031996Y0026557D01*
X0032161Y0026477D01*
X0032324Y0026392D01*
X0032484Y0026304D01*
X0032643Y0026212D01*
X0032799Y0026115D01*
X0032953Y0026015D01*
X0033104Y0025911D01*
X0033253Y0025804D01*
X0033399Y0025693D01*
X0033542Y0025578D01*
X0033682Y0025460D01*
X0033820Y0025339D01*
X0033954Y0025214D01*
X0034086Y0025086D01*
X0034214Y0024954D01*
X0034339Y0024820D01*
X0034460Y0024682D01*
X0034578Y0024542D01*
X0034693Y0024399D01*
X0034804Y0024253D01*
X0034911Y0024104D01*
X0035015Y0023953D01*
X0035115Y0023799D01*
X0035212Y0023643D01*
X0035304Y0023484D01*
X0035392Y0023324D01*
X0035477Y0023161D01*
X0035557Y0022996D01*
X0035634Y0022829D01*
X0035706Y0022661D01*
X0035774Y0022490D01*
X0035838Y0022318D01*
X0035898Y0022145D01*
X0035953Y0021970D01*
X0036004Y0021794D01*
X0036051Y0021616D01*
X0036093Y0021438D01*
X0036131Y0021258D01*
X0036165Y0021078D01*
X0036194Y0020897D01*
X0036219Y0020715D01*
X0036239Y0020533D01*
X0036255Y0020350D01*
X0036266Y0020167D01*
X0036273Y0019983D01*
X0036275Y0019800D01*
X0036273Y0019617D01*
X0036266Y0019433D01*
X0036255Y0019250D01*
X0036239Y0019067D01*
X0036219Y0018885D01*
X0036194Y0018703D01*
X0036165Y0018522D01*
X0036131Y0018342D01*
X0036093Y0018162D01*
X0036051Y0017984D01*
X0036004Y0017806D01*
X0035953Y0017630D01*
X0035898Y0017455D01*
X0035838Y0017282D01*
X0035774Y0017110D01*
X0035706Y0016939D01*
X0035634Y0016771D01*
X0035557Y0016604D01*
X0035477Y0016439D01*
X0035392Y0016276D01*
X0035304Y0016116D01*
X0035212Y0015957D01*
X0035115Y0015801D01*
X0035015Y0015647D01*
X0034911Y0015496D01*
X0034804Y0015347D01*
X0034693Y0015201D01*
X0034578Y0015058D01*
X0034460Y0014918D01*
X0034339Y0014780D01*
X0034214Y0014646D01*
X0034086Y0014514D01*
X0033954Y0014386D01*
X0033820Y0014261D01*
X0033682Y0014140D01*
X0033542Y0014022D01*
X0033399Y0013907D01*
X0033253Y0013796D01*
X0033104Y0013689D01*
X0032953Y0013585D01*
X0032799Y0013485D01*
X0032643Y0013388D01*
X0032484Y0013296D01*
X0032324Y0013208D01*
X0032161Y0013123D01*
X0031996Y0013043D01*
X0031829Y0012966D01*
X0031661Y0012894D01*
X0031490Y0012826D01*
X0031318Y0012762D01*
X0031145Y0012702D01*
X0030970Y0012647D01*
X0030794Y0012596D01*
X0030616Y0012549D01*
X0030438Y0012507D01*
X0030258Y0012469D01*
X0030078Y0012435D01*
X0029897Y0012406D01*
X0029715Y0012381D01*
X0029533Y0012361D01*
X0029350Y0012345D01*
X0029167Y0012334D01*
X0028983Y0012327D01*
X0028800Y0012325D01*
X0028617Y0012327D01*
X0028433Y0012334D01*
X0028250Y0012345D01*
X0028067Y0012361D01*
X0027885Y0012381D01*
X0027703Y0012406D01*
X0027522Y0012435D01*
X0027342Y0012469D01*
X0027162Y0012507D01*
X0026984Y0012549D01*
X0026806Y0012596D01*
X0026630Y0012647D01*
X0026455Y0012702D01*
X0026282Y0012762D01*
X0026110Y0012826D01*
X0025939Y0012894D01*
X0025771Y0012966D01*
X0025604Y0013043D01*
X0025439Y0013123D01*
X0025276Y0013208D01*
X0025116Y0013296D01*
X0024957Y0013388D01*
X0024801Y0013485D01*
X0024647Y0013585D01*
X0024496Y0013689D01*
X0024347Y0013796D01*
X0024201Y0013907D01*
X0024058Y0014022D01*
X0023918Y0014140D01*
X0023780Y0014261D01*
X0023646Y0014386D01*
X0023514Y0014514D01*
X0023386Y0014646D01*
X0023261Y0014780D01*
X0023140Y0014918D01*
X0023022Y0015058D01*
X0022907Y0015201D01*
X0022796Y0015347D01*
X0022689Y0015496D01*
X0022585Y0015647D01*
X0022485Y0015801D01*
X0022388Y0015957D01*
X0022296Y0016116D01*
X0022208Y0016276D01*
X0022123Y0016439D01*
X0022043Y0016604D01*
X0021966Y0016771D01*
X0021894Y0016939D01*
X0021826Y0017110D01*
X0021762Y0017282D01*
X0021702Y0017455D01*
X0021647Y0017630D01*
X0021596Y0017806D01*
X0021549Y0017984D01*
X0021507Y0018162D01*
X0021469Y0018342D01*
X0021435Y0018522D01*
X0021406Y0018703D01*
X0021381Y0018885D01*
X0021361Y0019067D01*
X0021345Y0019250D01*
X0021334Y0019433D01*
X0021327Y0019617D01*
X0021325Y0019800D01*
X0369325Y0026800D02*
X0369327Y0026983D01*
X0369334Y0027167D01*
X0369345Y0027350D01*
X0369361Y0027533D01*
X0369381Y0027715D01*
X0369406Y0027897D01*
X0369435Y0028078D01*
X0369469Y0028258D01*
X0369507Y0028438D01*
X0369549Y0028616D01*
X0369596Y0028794D01*
X0369647Y0028970D01*
X0369702Y0029145D01*
X0369762Y0029318D01*
X0369826Y0029490D01*
X0369894Y0029661D01*
X0369966Y0029829D01*
X0370043Y0029996D01*
X0370123Y0030161D01*
X0370208Y0030324D01*
X0370296Y0030484D01*
X0370388Y0030643D01*
X0370485Y0030799D01*
X0370585Y0030953D01*
X0370689Y0031104D01*
X0370796Y0031253D01*
X0370907Y0031399D01*
X0371022Y0031542D01*
X0371140Y0031682D01*
X0371261Y0031820D01*
X0371386Y0031954D01*
X0371514Y0032086D01*
X0371646Y0032214D01*
X0371780Y0032339D01*
X0371918Y0032460D01*
X0372058Y0032578D01*
X0372201Y0032693D01*
X0372347Y0032804D01*
X0372496Y0032911D01*
X0372647Y0033015D01*
X0372801Y0033115D01*
X0372957Y0033212D01*
X0373116Y0033304D01*
X0373276Y0033392D01*
X0373439Y0033477D01*
X0373604Y0033557D01*
X0373771Y0033634D01*
X0373939Y0033706D01*
X0374110Y0033774D01*
X0374282Y0033838D01*
X0374455Y0033898D01*
X0374630Y0033953D01*
X0374806Y0034004D01*
X0374984Y0034051D01*
X0375162Y0034093D01*
X0375342Y0034131D01*
X0375522Y0034165D01*
X0375703Y0034194D01*
X0375885Y0034219D01*
X0376067Y0034239D01*
X0376250Y0034255D01*
X0376433Y0034266D01*
X0376617Y0034273D01*
X0376800Y0034275D01*
X0376983Y0034273D01*
X0377167Y0034266D01*
X0377350Y0034255D01*
X0377533Y0034239D01*
X0377715Y0034219D01*
X0377897Y0034194D01*
X0378078Y0034165D01*
X0378258Y0034131D01*
X0378438Y0034093D01*
X0378616Y0034051D01*
X0378794Y0034004D01*
X0378970Y0033953D01*
X0379145Y0033898D01*
X0379318Y0033838D01*
X0379490Y0033774D01*
X0379661Y0033706D01*
X0379829Y0033634D01*
X0379996Y0033557D01*
X0380161Y0033477D01*
X0380324Y0033392D01*
X0380484Y0033304D01*
X0380643Y0033212D01*
X0380799Y0033115D01*
X0380953Y0033015D01*
X0381104Y0032911D01*
X0381253Y0032804D01*
X0381399Y0032693D01*
X0381542Y0032578D01*
X0381682Y0032460D01*
X0381820Y0032339D01*
X0381954Y0032214D01*
X0382086Y0032086D01*
X0382214Y0031954D01*
X0382339Y0031820D01*
X0382460Y0031682D01*
X0382578Y0031542D01*
X0382693Y0031399D01*
X0382804Y0031253D01*
X0382911Y0031104D01*
X0383015Y0030953D01*
X0383115Y0030799D01*
X0383212Y0030643D01*
X0383304Y0030484D01*
X0383392Y0030324D01*
X0383477Y0030161D01*
X0383557Y0029996D01*
X0383634Y0029829D01*
X0383706Y0029661D01*
X0383774Y0029490D01*
X0383838Y0029318D01*
X0383898Y0029145D01*
X0383953Y0028970D01*
X0384004Y0028794D01*
X0384051Y0028616D01*
X0384093Y0028438D01*
X0384131Y0028258D01*
X0384165Y0028078D01*
X0384194Y0027897D01*
X0384219Y0027715D01*
X0384239Y0027533D01*
X0384255Y0027350D01*
X0384266Y0027167D01*
X0384273Y0026983D01*
X0384275Y0026800D01*
X0384273Y0026617D01*
X0384266Y0026433D01*
X0384255Y0026250D01*
X0384239Y0026067D01*
X0384219Y0025885D01*
X0384194Y0025703D01*
X0384165Y0025522D01*
X0384131Y0025342D01*
X0384093Y0025162D01*
X0384051Y0024984D01*
X0384004Y0024806D01*
X0383953Y0024630D01*
X0383898Y0024455D01*
X0383838Y0024282D01*
X0383774Y0024110D01*
X0383706Y0023939D01*
X0383634Y0023771D01*
X0383557Y0023604D01*
X0383477Y0023439D01*
X0383392Y0023276D01*
X0383304Y0023116D01*
X0383212Y0022957D01*
X0383115Y0022801D01*
X0383015Y0022647D01*
X0382911Y0022496D01*
X0382804Y0022347D01*
X0382693Y0022201D01*
X0382578Y0022058D01*
X0382460Y0021918D01*
X0382339Y0021780D01*
X0382214Y0021646D01*
X0382086Y0021514D01*
X0381954Y0021386D01*
X0381820Y0021261D01*
X0381682Y0021140D01*
X0381542Y0021022D01*
X0381399Y0020907D01*
X0381253Y0020796D01*
X0381104Y0020689D01*
X0380953Y0020585D01*
X0380799Y0020485D01*
X0380643Y0020388D01*
X0380484Y0020296D01*
X0380324Y0020208D01*
X0380161Y0020123D01*
X0379996Y0020043D01*
X0379829Y0019966D01*
X0379661Y0019894D01*
X0379490Y0019826D01*
X0379318Y0019762D01*
X0379145Y0019702D01*
X0378970Y0019647D01*
X0378794Y0019596D01*
X0378616Y0019549D01*
X0378438Y0019507D01*
X0378258Y0019469D01*
X0378078Y0019435D01*
X0377897Y0019406D01*
X0377715Y0019381D01*
X0377533Y0019361D01*
X0377350Y0019345D01*
X0377167Y0019334D01*
X0376983Y0019327D01*
X0376800Y0019325D01*
X0376617Y0019327D01*
X0376433Y0019334D01*
X0376250Y0019345D01*
X0376067Y0019361D01*
X0375885Y0019381D01*
X0375703Y0019406D01*
X0375522Y0019435D01*
X0375342Y0019469D01*
X0375162Y0019507D01*
X0374984Y0019549D01*
X0374806Y0019596D01*
X0374630Y0019647D01*
X0374455Y0019702D01*
X0374282Y0019762D01*
X0374110Y0019826D01*
X0373939Y0019894D01*
X0373771Y0019966D01*
X0373604Y0020043D01*
X0373439Y0020123D01*
X0373276Y0020208D01*
X0373116Y0020296D01*
X0372957Y0020388D01*
X0372801Y0020485D01*
X0372647Y0020585D01*
X0372496Y0020689D01*
X0372347Y0020796D01*
X0372201Y0020907D01*
X0372058Y0021022D01*
X0371918Y0021140D01*
X0371780Y0021261D01*
X0371646Y0021386D01*
X0371514Y0021514D01*
X0371386Y0021646D01*
X0371261Y0021780D01*
X0371140Y0021918D01*
X0371022Y0022058D01*
X0370907Y0022201D01*
X0370796Y0022347D01*
X0370689Y0022496D01*
X0370585Y0022647D01*
X0370485Y0022801D01*
X0370388Y0022957D01*
X0370296Y0023116D01*
X0370208Y0023276D01*
X0370123Y0023439D01*
X0370043Y0023604D01*
X0369966Y0023771D01*
X0369894Y0023939D01*
X0369826Y0024110D01*
X0369762Y0024282D01*
X0369702Y0024455D01*
X0369647Y0024630D01*
X0369596Y0024806D01*
X0369549Y0024984D01*
X0369507Y0025162D01*
X0369469Y0025342D01*
X0369435Y0025522D01*
X0369406Y0025703D01*
X0369381Y0025885D01*
X0369361Y0026067D01*
X0369345Y0026250D01*
X0369334Y0026433D01*
X0369327Y0026617D01*
X0369325Y0026800D01*
X0411800Y0001800D02*
X0411800Y0382800D01*
X0812800Y0382800D01*
X0812800Y0001800D01*
X0411800Y0001800D01*
X0431325Y0019800D02*
X0431327Y0019983D01*
X0431334Y0020167D01*
X0431345Y0020350D01*
X0431361Y0020533D01*
X0431381Y0020715D01*
X0431406Y0020897D01*
X0431435Y0021078D01*
X0431469Y0021258D01*
X0431507Y0021438D01*
X0431549Y0021616D01*
X0431596Y0021794D01*
X0431647Y0021970D01*
X0431702Y0022145D01*
X0431762Y0022318D01*
X0431826Y0022490D01*
X0431894Y0022661D01*
X0431966Y0022829D01*
X0432043Y0022996D01*
X0432123Y0023161D01*
X0432208Y0023324D01*
X0432296Y0023484D01*
X0432388Y0023643D01*
X0432485Y0023799D01*
X0432585Y0023953D01*
X0432689Y0024104D01*
X0432796Y0024253D01*
X0432907Y0024399D01*
X0433022Y0024542D01*
X0433140Y0024682D01*
X0433261Y0024820D01*
X0433386Y0024954D01*
X0433514Y0025086D01*
X0433646Y0025214D01*
X0433780Y0025339D01*
X0433918Y0025460D01*
X0434058Y0025578D01*
X0434201Y0025693D01*
X0434347Y0025804D01*
X0434496Y0025911D01*
X0434647Y0026015D01*
X0434801Y0026115D01*
X0434957Y0026212D01*
X0435116Y0026304D01*
X0435276Y0026392D01*
X0435439Y0026477D01*
X0435604Y0026557D01*
X0435771Y0026634D01*
X0435939Y0026706D01*
X0436110Y0026774D01*
X0436282Y0026838D01*
X0436455Y0026898D01*
X0436630Y0026953D01*
X0436806Y0027004D01*
X0436984Y0027051D01*
X0437162Y0027093D01*
X0437342Y0027131D01*
X0437522Y0027165D01*
X0437703Y0027194D01*
X0437885Y0027219D01*
X0438067Y0027239D01*
X0438250Y0027255D01*
X0438433Y0027266D01*
X0438617Y0027273D01*
X0438800Y0027275D01*
X0438983Y0027273D01*
X0439167Y0027266D01*
X0439350Y0027255D01*
X0439533Y0027239D01*
X0439715Y0027219D01*
X0439897Y0027194D01*
X0440078Y0027165D01*
X0440258Y0027131D01*
X0440438Y0027093D01*
X0440616Y0027051D01*
X0440794Y0027004D01*
X0440970Y0026953D01*
X0441145Y0026898D01*
X0441318Y0026838D01*
X0441490Y0026774D01*
X0441661Y0026706D01*
X0441829Y0026634D01*
X0441996Y0026557D01*
X0442161Y0026477D01*
X0442324Y0026392D01*
X0442484Y0026304D01*
X0442643Y0026212D01*
X0442799Y0026115D01*
X0442953Y0026015D01*
X0443104Y0025911D01*
X0443253Y0025804D01*
X0443399Y0025693D01*
X0443542Y0025578D01*
X0443682Y0025460D01*
X0443820Y0025339D01*
X0443954Y0025214D01*
X0444086Y0025086D01*
X0444214Y0024954D01*
X0444339Y0024820D01*
X0444460Y0024682D01*
X0444578Y0024542D01*
X0444693Y0024399D01*
X0444804Y0024253D01*
X0444911Y0024104D01*
X0445015Y0023953D01*
X0445115Y0023799D01*
X0445212Y0023643D01*
X0445304Y0023484D01*
X0445392Y0023324D01*
X0445477Y0023161D01*
X0445557Y0022996D01*
X0445634Y0022829D01*
X0445706Y0022661D01*
X0445774Y0022490D01*
X0445838Y0022318D01*
X0445898Y0022145D01*
X0445953Y0021970D01*
X0446004Y0021794D01*
X0446051Y0021616D01*
X0446093Y0021438D01*
X0446131Y0021258D01*
X0446165Y0021078D01*
X0446194Y0020897D01*
X0446219Y0020715D01*
X0446239Y0020533D01*
X0446255Y0020350D01*
X0446266Y0020167D01*
X0446273Y0019983D01*
X0446275Y0019800D01*
X0446273Y0019617D01*
X0446266Y0019433D01*
X0446255Y0019250D01*
X0446239Y0019067D01*
X0446219Y0018885D01*
X0446194Y0018703D01*
X0446165Y0018522D01*
X0446131Y0018342D01*
X0446093Y0018162D01*
X0446051Y0017984D01*
X0446004Y0017806D01*
X0445953Y0017630D01*
X0445898Y0017455D01*
X0445838Y0017282D01*
X0445774Y0017110D01*
X0445706Y0016939D01*
X0445634Y0016771D01*
X0445557Y0016604D01*
X0445477Y0016439D01*
X0445392Y0016276D01*
X0445304Y0016116D01*
X0445212Y0015957D01*
X0445115Y0015801D01*
X0445015Y0015647D01*
X0444911Y0015496D01*
X0444804Y0015347D01*
X0444693Y0015201D01*
X0444578Y0015058D01*
X0444460Y0014918D01*
X0444339Y0014780D01*
X0444214Y0014646D01*
X0444086Y0014514D01*
X0443954Y0014386D01*
X0443820Y0014261D01*
X0443682Y0014140D01*
X0443542Y0014022D01*
X0443399Y0013907D01*
X0443253Y0013796D01*
X0443104Y0013689D01*
X0442953Y0013585D01*
X0442799Y0013485D01*
X0442643Y0013388D01*
X0442484Y0013296D01*
X0442324Y0013208D01*
X0442161Y0013123D01*
X0441996Y0013043D01*
X0441829Y0012966D01*
X0441661Y0012894D01*
X0441490Y0012826D01*
X0441318Y0012762D01*
X0441145Y0012702D01*
X0440970Y0012647D01*
X0440794Y0012596D01*
X0440616Y0012549D01*
X0440438Y0012507D01*
X0440258Y0012469D01*
X0440078Y0012435D01*
X0439897Y0012406D01*
X0439715Y0012381D01*
X0439533Y0012361D01*
X0439350Y0012345D01*
X0439167Y0012334D01*
X0438983Y0012327D01*
X0438800Y0012325D01*
X0438617Y0012327D01*
X0438433Y0012334D01*
X0438250Y0012345D01*
X0438067Y0012361D01*
X0437885Y0012381D01*
X0437703Y0012406D01*
X0437522Y0012435D01*
X0437342Y0012469D01*
X0437162Y0012507D01*
X0436984Y0012549D01*
X0436806Y0012596D01*
X0436630Y0012647D01*
X0436455Y0012702D01*
X0436282Y0012762D01*
X0436110Y0012826D01*
X0435939Y0012894D01*
X0435771Y0012966D01*
X0435604Y0013043D01*
X0435439Y0013123D01*
X0435276Y0013208D01*
X0435116Y0013296D01*
X0434957Y0013388D01*
X0434801Y0013485D01*
X0434647Y0013585D01*
X0434496Y0013689D01*
X0434347Y0013796D01*
X0434201Y0013907D01*
X0434058Y0014022D01*
X0433918Y0014140D01*
X0433780Y0014261D01*
X0433646Y0014386D01*
X0433514Y0014514D01*
X0433386Y0014646D01*
X0433261Y0014780D01*
X0433140Y0014918D01*
X0433022Y0015058D01*
X0432907Y0015201D01*
X0432796Y0015347D01*
X0432689Y0015496D01*
X0432585Y0015647D01*
X0432485Y0015801D01*
X0432388Y0015957D01*
X0432296Y0016116D01*
X0432208Y0016276D01*
X0432123Y0016439D01*
X0432043Y0016604D01*
X0431966Y0016771D01*
X0431894Y0016939D01*
X0431826Y0017110D01*
X0431762Y0017282D01*
X0431702Y0017455D01*
X0431647Y0017630D01*
X0431596Y0017806D01*
X0431549Y0017984D01*
X0431507Y0018162D01*
X0431469Y0018342D01*
X0431435Y0018522D01*
X0431406Y0018703D01*
X0431381Y0018885D01*
X0431361Y0019067D01*
X0431345Y0019250D01*
X0431334Y0019433D01*
X0431327Y0019617D01*
X0431325Y0019800D01*
X0779325Y0026800D02*
X0779327Y0026983D01*
X0779334Y0027167D01*
X0779345Y0027350D01*
X0779361Y0027533D01*
X0779381Y0027715D01*
X0779406Y0027897D01*
X0779435Y0028078D01*
X0779469Y0028258D01*
X0779507Y0028438D01*
X0779549Y0028616D01*
X0779596Y0028794D01*
X0779647Y0028970D01*
X0779702Y0029145D01*
X0779762Y0029318D01*
X0779826Y0029490D01*
X0779894Y0029661D01*
X0779966Y0029829D01*
X0780043Y0029996D01*
X0780123Y0030161D01*
X0780208Y0030324D01*
X0780296Y0030484D01*
X0780388Y0030643D01*
X0780485Y0030799D01*
X0780585Y0030953D01*
X0780689Y0031104D01*
X0780796Y0031253D01*
X0780907Y0031399D01*
X0781022Y0031542D01*
X0781140Y0031682D01*
X0781261Y0031820D01*
X0781386Y0031954D01*
X0781514Y0032086D01*
X0781646Y0032214D01*
X0781780Y0032339D01*
X0781918Y0032460D01*
X0782058Y0032578D01*
X0782201Y0032693D01*
X0782347Y0032804D01*
X0782496Y0032911D01*
X0782647Y0033015D01*
X0782801Y0033115D01*
X0782957Y0033212D01*
X0783116Y0033304D01*
X0783276Y0033392D01*
X0783439Y0033477D01*
X0783604Y0033557D01*
X0783771Y0033634D01*
X0783939Y0033706D01*
X0784110Y0033774D01*
X0784282Y0033838D01*
X0784455Y0033898D01*
X0784630Y0033953D01*
X0784806Y0034004D01*
X0784984Y0034051D01*
X0785162Y0034093D01*
X0785342Y0034131D01*
X0785522Y0034165D01*
X0785703Y0034194D01*
X0785885Y0034219D01*
X0786067Y0034239D01*
X0786250Y0034255D01*
X0786433Y0034266D01*
X0786617Y0034273D01*
X0786800Y0034275D01*
X0786983Y0034273D01*
X0787167Y0034266D01*
X0787350Y0034255D01*
X0787533Y0034239D01*
X0787715Y0034219D01*
X0787897Y0034194D01*
X0788078Y0034165D01*
X0788258Y0034131D01*
X0788438Y0034093D01*
X0788616Y0034051D01*
X0788794Y0034004D01*
X0788970Y0033953D01*
X0789145Y0033898D01*
X0789318Y0033838D01*
X0789490Y0033774D01*
X0789661Y0033706D01*
X0789829Y0033634D01*
X0789996Y0033557D01*
X0790161Y0033477D01*
X0790324Y0033392D01*
X0790484Y0033304D01*
X0790643Y0033212D01*
X0790799Y0033115D01*
X0790953Y0033015D01*
X0791104Y0032911D01*
X0791253Y0032804D01*
X0791399Y0032693D01*
X0791542Y0032578D01*
X0791682Y0032460D01*
X0791820Y0032339D01*
X0791954Y0032214D01*
X0792086Y0032086D01*
X0792214Y0031954D01*
X0792339Y0031820D01*
X0792460Y0031682D01*
X0792578Y0031542D01*
X0792693Y0031399D01*
X0792804Y0031253D01*
X0792911Y0031104D01*
X0793015Y0030953D01*
X0793115Y0030799D01*
X0793212Y0030643D01*
X0793304Y0030484D01*
X0793392Y0030324D01*
X0793477Y0030161D01*
X0793557Y0029996D01*
X0793634Y0029829D01*
X0793706Y0029661D01*
X0793774Y0029490D01*
X0793838Y0029318D01*
X0793898Y0029145D01*
X0793953Y0028970D01*
X0794004Y0028794D01*
X0794051Y0028616D01*
X0794093Y0028438D01*
X0794131Y0028258D01*
X0794165Y0028078D01*
X0794194Y0027897D01*
X0794219Y0027715D01*
X0794239Y0027533D01*
X0794255Y0027350D01*
X0794266Y0027167D01*
X0794273Y0026983D01*
X0794275Y0026800D01*
X0794273Y0026617D01*
X0794266Y0026433D01*
X0794255Y0026250D01*
X0794239Y0026067D01*
X0794219Y0025885D01*
X0794194Y0025703D01*
X0794165Y0025522D01*
X0794131Y0025342D01*
X0794093Y0025162D01*
X0794051Y0024984D01*
X0794004Y0024806D01*
X0793953Y0024630D01*
X0793898Y0024455D01*
X0793838Y0024282D01*
X0793774Y0024110D01*
X0793706Y0023939D01*
X0793634Y0023771D01*
X0793557Y0023604D01*
X0793477Y0023439D01*
X0793392Y0023276D01*
X0793304Y0023116D01*
X0793212Y0022957D01*
X0793115Y0022801D01*
X0793015Y0022647D01*
X0792911Y0022496D01*
X0792804Y0022347D01*
X0792693Y0022201D01*
X0792578Y0022058D01*
X0792460Y0021918D01*
X0792339Y0021780D01*
X0792214Y0021646D01*
X0792086Y0021514D01*
X0791954Y0021386D01*
X0791820Y0021261D01*
X0791682Y0021140D01*
X0791542Y0021022D01*
X0791399Y0020907D01*
X0791253Y0020796D01*
X0791104Y0020689D01*
X0790953Y0020585D01*
X0790799Y0020485D01*
X0790643Y0020388D01*
X0790484Y0020296D01*
X0790324Y0020208D01*
X0790161Y0020123D01*
X0789996Y0020043D01*
X0789829Y0019966D01*
X0789661Y0019894D01*
X0789490Y0019826D01*
X0789318Y0019762D01*
X0789145Y0019702D01*
X0788970Y0019647D01*
X0788794Y0019596D01*
X0788616Y0019549D01*
X0788438Y0019507D01*
X0788258Y0019469D01*
X0788078Y0019435D01*
X0787897Y0019406D01*
X0787715Y0019381D01*
X0787533Y0019361D01*
X0787350Y0019345D01*
X0787167Y0019334D01*
X0786983Y0019327D01*
X0786800Y0019325D01*
X0786617Y0019327D01*
X0786433Y0019334D01*
X0786250Y0019345D01*
X0786067Y0019361D01*
X0785885Y0019381D01*
X0785703Y0019406D01*
X0785522Y0019435D01*
X0785342Y0019469D01*
X0785162Y0019507D01*
X0784984Y0019549D01*
X0784806Y0019596D01*
X0784630Y0019647D01*
X0784455Y0019702D01*
X0784282Y0019762D01*
X0784110Y0019826D01*
X0783939Y0019894D01*
X0783771Y0019966D01*
X0783604Y0020043D01*
X0783439Y0020123D01*
X0783276Y0020208D01*
X0783116Y0020296D01*
X0782957Y0020388D01*
X0782801Y0020485D01*
X0782647Y0020585D01*
X0782496Y0020689D01*
X0782347Y0020796D01*
X0782201Y0020907D01*
X0782058Y0021022D01*
X0781918Y0021140D01*
X0781780Y0021261D01*
X0781646Y0021386D01*
X0781514Y0021514D01*
X0781386Y0021646D01*
X0781261Y0021780D01*
X0781140Y0021918D01*
X0781022Y0022058D01*
X0780907Y0022201D01*
X0780796Y0022347D01*
X0780689Y0022496D01*
X0780585Y0022647D01*
X0780485Y0022801D01*
X0780388Y0022957D01*
X0780296Y0023116D01*
X0780208Y0023276D01*
X0780123Y0023439D01*
X0780043Y0023604D01*
X0779966Y0023771D01*
X0779894Y0023939D01*
X0779826Y0024110D01*
X0779762Y0024282D01*
X0779702Y0024455D01*
X0779647Y0024630D01*
X0779596Y0024806D01*
X0779549Y0024984D01*
X0779507Y0025162D01*
X0779469Y0025342D01*
X0779435Y0025522D01*
X0779406Y0025703D01*
X0779381Y0025885D01*
X0779361Y0026067D01*
X0779345Y0026250D01*
X0779334Y0026433D01*
X0779327Y0026617D01*
X0779325Y0026800D01*
X0780325Y0357800D02*
X0780327Y0357983D01*
X0780334Y0358167D01*
X0780345Y0358350D01*
X0780361Y0358533D01*
X0780381Y0358715D01*
X0780406Y0358897D01*
X0780435Y0359078D01*
X0780469Y0359258D01*
X0780507Y0359438D01*
X0780549Y0359616D01*
X0780596Y0359794D01*
X0780647Y0359970D01*
X0780702Y0360145D01*
X0780762Y0360318D01*
X0780826Y0360490D01*
X0780894Y0360661D01*
X0780966Y0360829D01*
X0781043Y0360996D01*
X0781123Y0361161D01*
X0781208Y0361324D01*
X0781296Y0361484D01*
X0781388Y0361643D01*
X0781485Y0361799D01*
X0781585Y0361953D01*
X0781689Y0362104D01*
X0781796Y0362253D01*
X0781907Y0362399D01*
X0782022Y0362542D01*
X0782140Y0362682D01*
X0782261Y0362820D01*
X0782386Y0362954D01*
X0782514Y0363086D01*
X0782646Y0363214D01*
X0782780Y0363339D01*
X0782918Y0363460D01*
X0783058Y0363578D01*
X0783201Y0363693D01*
X0783347Y0363804D01*
X0783496Y0363911D01*
X0783647Y0364015D01*
X0783801Y0364115D01*
X0783957Y0364212D01*
X0784116Y0364304D01*
X0784276Y0364392D01*
X0784439Y0364477D01*
X0784604Y0364557D01*
X0784771Y0364634D01*
X0784939Y0364706D01*
X0785110Y0364774D01*
X0785282Y0364838D01*
X0785455Y0364898D01*
X0785630Y0364953D01*
X0785806Y0365004D01*
X0785984Y0365051D01*
X0786162Y0365093D01*
X0786342Y0365131D01*
X0786522Y0365165D01*
X0786703Y0365194D01*
X0786885Y0365219D01*
X0787067Y0365239D01*
X0787250Y0365255D01*
X0787433Y0365266D01*
X0787617Y0365273D01*
X0787800Y0365275D01*
X0787983Y0365273D01*
X0788167Y0365266D01*
X0788350Y0365255D01*
X0788533Y0365239D01*
X0788715Y0365219D01*
X0788897Y0365194D01*
X0789078Y0365165D01*
X0789258Y0365131D01*
X0789438Y0365093D01*
X0789616Y0365051D01*
X0789794Y0365004D01*
X0789970Y0364953D01*
X0790145Y0364898D01*
X0790318Y0364838D01*
X0790490Y0364774D01*
X0790661Y0364706D01*
X0790829Y0364634D01*
X0790996Y0364557D01*
X0791161Y0364477D01*
X0791324Y0364392D01*
X0791484Y0364304D01*
X0791643Y0364212D01*
X0791799Y0364115D01*
X0791953Y0364015D01*
X0792104Y0363911D01*
X0792253Y0363804D01*
X0792399Y0363693D01*
X0792542Y0363578D01*
X0792682Y0363460D01*
X0792820Y0363339D01*
X0792954Y0363214D01*
X0793086Y0363086D01*
X0793214Y0362954D01*
X0793339Y0362820D01*
X0793460Y0362682D01*
X0793578Y0362542D01*
X0793693Y0362399D01*
X0793804Y0362253D01*
X0793911Y0362104D01*
X0794015Y0361953D01*
X0794115Y0361799D01*
X0794212Y0361643D01*
X0794304Y0361484D01*
X0794392Y0361324D01*
X0794477Y0361161D01*
X0794557Y0360996D01*
X0794634Y0360829D01*
X0794706Y0360661D01*
X0794774Y0360490D01*
X0794838Y0360318D01*
X0794898Y0360145D01*
X0794953Y0359970D01*
X0795004Y0359794D01*
X0795051Y0359616D01*
X0795093Y0359438D01*
X0795131Y0359258D01*
X0795165Y0359078D01*
X0795194Y0358897D01*
X0795219Y0358715D01*
X0795239Y0358533D01*
X0795255Y0358350D01*
X0795266Y0358167D01*
X0795273Y0357983D01*
X0795275Y0357800D01*
X0795273Y0357617D01*
X0795266Y0357433D01*
X0795255Y0357250D01*
X0795239Y0357067D01*
X0795219Y0356885D01*
X0795194Y0356703D01*
X0795165Y0356522D01*
X0795131Y0356342D01*
X0795093Y0356162D01*
X0795051Y0355984D01*
X0795004Y0355806D01*
X0794953Y0355630D01*
X0794898Y0355455D01*
X0794838Y0355282D01*
X0794774Y0355110D01*
X0794706Y0354939D01*
X0794634Y0354771D01*
X0794557Y0354604D01*
X0794477Y0354439D01*
X0794392Y0354276D01*
X0794304Y0354116D01*
X0794212Y0353957D01*
X0794115Y0353801D01*
X0794015Y0353647D01*
X0793911Y0353496D01*
X0793804Y0353347D01*
X0793693Y0353201D01*
X0793578Y0353058D01*
X0793460Y0352918D01*
X0793339Y0352780D01*
X0793214Y0352646D01*
X0793086Y0352514D01*
X0792954Y0352386D01*
X0792820Y0352261D01*
X0792682Y0352140D01*
X0792542Y0352022D01*
X0792399Y0351907D01*
X0792253Y0351796D01*
X0792104Y0351689D01*
X0791953Y0351585D01*
X0791799Y0351485D01*
X0791643Y0351388D01*
X0791484Y0351296D01*
X0791324Y0351208D01*
X0791161Y0351123D01*
X0790996Y0351043D01*
X0790829Y0350966D01*
X0790661Y0350894D01*
X0790490Y0350826D01*
X0790318Y0350762D01*
X0790145Y0350702D01*
X0789970Y0350647D01*
X0789794Y0350596D01*
X0789616Y0350549D01*
X0789438Y0350507D01*
X0789258Y0350469D01*
X0789078Y0350435D01*
X0788897Y0350406D01*
X0788715Y0350381D01*
X0788533Y0350361D01*
X0788350Y0350345D01*
X0788167Y0350334D01*
X0787983Y0350327D01*
X0787800Y0350325D01*
X0787617Y0350327D01*
X0787433Y0350334D01*
X0787250Y0350345D01*
X0787067Y0350361D01*
X0786885Y0350381D01*
X0786703Y0350406D01*
X0786522Y0350435D01*
X0786342Y0350469D01*
X0786162Y0350507D01*
X0785984Y0350549D01*
X0785806Y0350596D01*
X0785630Y0350647D01*
X0785455Y0350702D01*
X0785282Y0350762D01*
X0785110Y0350826D01*
X0784939Y0350894D01*
X0784771Y0350966D01*
X0784604Y0351043D01*
X0784439Y0351123D01*
X0784276Y0351208D01*
X0784116Y0351296D01*
X0783957Y0351388D01*
X0783801Y0351485D01*
X0783647Y0351585D01*
X0783496Y0351689D01*
X0783347Y0351796D01*
X0783201Y0351907D01*
X0783058Y0352022D01*
X0782918Y0352140D01*
X0782780Y0352261D01*
X0782646Y0352386D01*
X0782514Y0352514D01*
X0782386Y0352646D01*
X0782261Y0352780D01*
X0782140Y0352918D01*
X0782022Y0353058D01*
X0781907Y0353201D01*
X0781796Y0353347D01*
X0781689Y0353496D01*
X0781585Y0353647D01*
X0781485Y0353801D01*
X0781388Y0353957D01*
X0781296Y0354116D01*
X0781208Y0354276D01*
X0781123Y0354439D01*
X0781043Y0354604D01*
X0780966Y0354771D01*
X0780894Y0354939D01*
X0780826Y0355110D01*
X0780762Y0355282D01*
X0780702Y0355455D01*
X0780647Y0355630D01*
X0780596Y0355806D01*
X0780549Y0355984D01*
X0780507Y0356162D01*
X0780469Y0356342D01*
X0780435Y0356522D01*
X0780406Y0356703D01*
X0780381Y0356885D01*
X0780361Y0357067D01*
X0780345Y0357250D01*
X0780334Y0357433D01*
X0780327Y0357617D01*
X0780325Y0357800D01*
X0428325Y0359800D02*
X0428327Y0359983D01*
X0428334Y0360167D01*
X0428345Y0360350D01*
X0428361Y0360533D01*
X0428381Y0360715D01*
X0428406Y0360897D01*
X0428435Y0361078D01*
X0428469Y0361258D01*
X0428507Y0361438D01*
X0428549Y0361616D01*
X0428596Y0361794D01*
X0428647Y0361970D01*
X0428702Y0362145D01*
X0428762Y0362318D01*
X0428826Y0362490D01*
X0428894Y0362661D01*
X0428966Y0362829D01*
X0429043Y0362996D01*
X0429123Y0363161D01*
X0429208Y0363324D01*
X0429296Y0363484D01*
X0429388Y0363643D01*
X0429485Y0363799D01*
X0429585Y0363953D01*
X0429689Y0364104D01*
X0429796Y0364253D01*
X0429907Y0364399D01*
X0430022Y0364542D01*
X0430140Y0364682D01*
X0430261Y0364820D01*
X0430386Y0364954D01*
X0430514Y0365086D01*
X0430646Y0365214D01*
X0430780Y0365339D01*
X0430918Y0365460D01*
X0431058Y0365578D01*
X0431201Y0365693D01*
X0431347Y0365804D01*
X0431496Y0365911D01*
X0431647Y0366015D01*
X0431801Y0366115D01*
X0431957Y0366212D01*
X0432116Y0366304D01*
X0432276Y0366392D01*
X0432439Y0366477D01*
X0432604Y0366557D01*
X0432771Y0366634D01*
X0432939Y0366706D01*
X0433110Y0366774D01*
X0433282Y0366838D01*
X0433455Y0366898D01*
X0433630Y0366953D01*
X0433806Y0367004D01*
X0433984Y0367051D01*
X0434162Y0367093D01*
X0434342Y0367131D01*
X0434522Y0367165D01*
X0434703Y0367194D01*
X0434885Y0367219D01*
X0435067Y0367239D01*
X0435250Y0367255D01*
X0435433Y0367266D01*
X0435617Y0367273D01*
X0435800Y0367275D01*
X0435983Y0367273D01*
X0436167Y0367266D01*
X0436350Y0367255D01*
X0436533Y0367239D01*
X0436715Y0367219D01*
X0436897Y0367194D01*
X0437078Y0367165D01*
X0437258Y0367131D01*
X0437438Y0367093D01*
X0437616Y0367051D01*
X0437794Y0367004D01*
X0437970Y0366953D01*
X0438145Y0366898D01*
X0438318Y0366838D01*
X0438490Y0366774D01*
X0438661Y0366706D01*
X0438829Y0366634D01*
X0438996Y0366557D01*
X0439161Y0366477D01*
X0439324Y0366392D01*
X0439484Y0366304D01*
X0439643Y0366212D01*
X0439799Y0366115D01*
X0439953Y0366015D01*
X0440104Y0365911D01*
X0440253Y0365804D01*
X0440399Y0365693D01*
X0440542Y0365578D01*
X0440682Y0365460D01*
X0440820Y0365339D01*
X0440954Y0365214D01*
X0441086Y0365086D01*
X0441214Y0364954D01*
X0441339Y0364820D01*
X0441460Y0364682D01*
X0441578Y0364542D01*
X0441693Y0364399D01*
X0441804Y0364253D01*
X0441911Y0364104D01*
X0442015Y0363953D01*
X0442115Y0363799D01*
X0442212Y0363643D01*
X0442304Y0363484D01*
X0442392Y0363324D01*
X0442477Y0363161D01*
X0442557Y0362996D01*
X0442634Y0362829D01*
X0442706Y0362661D01*
X0442774Y0362490D01*
X0442838Y0362318D01*
X0442898Y0362145D01*
X0442953Y0361970D01*
X0443004Y0361794D01*
X0443051Y0361616D01*
X0443093Y0361438D01*
X0443131Y0361258D01*
X0443165Y0361078D01*
X0443194Y0360897D01*
X0443219Y0360715D01*
X0443239Y0360533D01*
X0443255Y0360350D01*
X0443266Y0360167D01*
X0443273Y0359983D01*
X0443275Y0359800D01*
X0443273Y0359617D01*
X0443266Y0359433D01*
X0443255Y0359250D01*
X0443239Y0359067D01*
X0443219Y0358885D01*
X0443194Y0358703D01*
X0443165Y0358522D01*
X0443131Y0358342D01*
X0443093Y0358162D01*
X0443051Y0357984D01*
X0443004Y0357806D01*
X0442953Y0357630D01*
X0442898Y0357455D01*
X0442838Y0357282D01*
X0442774Y0357110D01*
X0442706Y0356939D01*
X0442634Y0356771D01*
X0442557Y0356604D01*
X0442477Y0356439D01*
X0442392Y0356276D01*
X0442304Y0356116D01*
X0442212Y0355957D01*
X0442115Y0355801D01*
X0442015Y0355647D01*
X0441911Y0355496D01*
X0441804Y0355347D01*
X0441693Y0355201D01*
X0441578Y0355058D01*
X0441460Y0354918D01*
X0441339Y0354780D01*
X0441214Y0354646D01*
X0441086Y0354514D01*
X0440954Y0354386D01*
X0440820Y0354261D01*
X0440682Y0354140D01*
X0440542Y0354022D01*
X0440399Y0353907D01*
X0440253Y0353796D01*
X0440104Y0353689D01*
X0439953Y0353585D01*
X0439799Y0353485D01*
X0439643Y0353388D01*
X0439484Y0353296D01*
X0439324Y0353208D01*
X0439161Y0353123D01*
X0438996Y0353043D01*
X0438829Y0352966D01*
X0438661Y0352894D01*
X0438490Y0352826D01*
X0438318Y0352762D01*
X0438145Y0352702D01*
X0437970Y0352647D01*
X0437794Y0352596D01*
X0437616Y0352549D01*
X0437438Y0352507D01*
X0437258Y0352469D01*
X0437078Y0352435D01*
X0436897Y0352406D01*
X0436715Y0352381D01*
X0436533Y0352361D01*
X0436350Y0352345D01*
X0436167Y0352334D01*
X0435983Y0352327D01*
X0435800Y0352325D01*
X0435617Y0352327D01*
X0435433Y0352334D01*
X0435250Y0352345D01*
X0435067Y0352361D01*
X0434885Y0352381D01*
X0434703Y0352406D01*
X0434522Y0352435D01*
X0434342Y0352469D01*
X0434162Y0352507D01*
X0433984Y0352549D01*
X0433806Y0352596D01*
X0433630Y0352647D01*
X0433455Y0352702D01*
X0433282Y0352762D01*
X0433110Y0352826D01*
X0432939Y0352894D01*
X0432771Y0352966D01*
X0432604Y0353043D01*
X0432439Y0353123D01*
X0432276Y0353208D01*
X0432116Y0353296D01*
X0431957Y0353388D01*
X0431801Y0353485D01*
X0431647Y0353585D01*
X0431496Y0353689D01*
X0431347Y0353796D01*
X0431201Y0353907D01*
X0431058Y0354022D01*
X0430918Y0354140D01*
X0430780Y0354261D01*
X0430646Y0354386D01*
X0430514Y0354514D01*
X0430386Y0354646D01*
X0430261Y0354780D01*
X0430140Y0354918D01*
X0430022Y0355058D01*
X0429907Y0355201D01*
X0429796Y0355347D01*
X0429689Y0355496D01*
X0429585Y0355647D01*
X0429485Y0355801D01*
X0429388Y0355957D01*
X0429296Y0356116D01*
X0429208Y0356276D01*
X0429123Y0356439D01*
X0429043Y0356604D01*
X0428966Y0356771D01*
X0428894Y0356939D01*
X0428826Y0357110D01*
X0428762Y0357282D01*
X0428702Y0357455D01*
X0428647Y0357630D01*
X0428596Y0357806D01*
X0428549Y0357984D01*
X0428507Y0358162D01*
X0428469Y0358342D01*
X0428435Y0358522D01*
X0428406Y0358703D01*
X0428381Y0358885D01*
X0428361Y0359067D01*
X0428345Y0359250D01*
X0428334Y0359433D01*
X0428327Y0359617D01*
X0428325Y0359800D01*
X0369325Y0626800D02*
X0369327Y0626983D01*
X0369334Y0627167D01*
X0369345Y0627350D01*
X0369361Y0627533D01*
X0369381Y0627715D01*
X0369406Y0627897D01*
X0369435Y0628078D01*
X0369469Y0628258D01*
X0369507Y0628438D01*
X0369549Y0628616D01*
X0369596Y0628794D01*
X0369647Y0628970D01*
X0369702Y0629145D01*
X0369762Y0629318D01*
X0369826Y0629490D01*
X0369894Y0629661D01*
X0369966Y0629829D01*
X0370043Y0629996D01*
X0370123Y0630161D01*
X0370208Y0630324D01*
X0370296Y0630484D01*
X0370388Y0630643D01*
X0370485Y0630799D01*
X0370585Y0630953D01*
X0370689Y0631104D01*
X0370796Y0631253D01*
X0370907Y0631399D01*
X0371022Y0631542D01*
X0371140Y0631682D01*
X0371261Y0631820D01*
X0371386Y0631954D01*
X0371514Y0632086D01*
X0371646Y0632214D01*
X0371780Y0632339D01*
X0371918Y0632460D01*
X0372058Y0632578D01*
X0372201Y0632693D01*
X0372347Y0632804D01*
X0372496Y0632911D01*
X0372647Y0633015D01*
X0372801Y0633115D01*
X0372957Y0633212D01*
X0373116Y0633304D01*
X0373276Y0633392D01*
X0373439Y0633477D01*
X0373604Y0633557D01*
X0373771Y0633634D01*
X0373939Y0633706D01*
X0374110Y0633774D01*
X0374282Y0633838D01*
X0374455Y0633898D01*
X0374630Y0633953D01*
X0374806Y0634004D01*
X0374984Y0634051D01*
X0375162Y0634093D01*
X0375342Y0634131D01*
X0375522Y0634165D01*
X0375703Y0634194D01*
X0375885Y0634219D01*
X0376067Y0634239D01*
X0376250Y0634255D01*
X0376433Y0634266D01*
X0376617Y0634273D01*
X0376800Y0634275D01*
X0376983Y0634273D01*
X0377167Y0634266D01*
X0377350Y0634255D01*
X0377533Y0634239D01*
X0377715Y0634219D01*
X0377897Y0634194D01*
X0378078Y0634165D01*
X0378258Y0634131D01*
X0378438Y0634093D01*
X0378616Y0634051D01*
X0378794Y0634004D01*
X0378970Y0633953D01*
X0379145Y0633898D01*
X0379318Y0633838D01*
X0379490Y0633774D01*
X0379661Y0633706D01*
X0379829Y0633634D01*
X0379996Y0633557D01*
X0380161Y0633477D01*
X0380324Y0633392D01*
X0380484Y0633304D01*
X0380643Y0633212D01*
X0380799Y0633115D01*
X0380953Y0633015D01*
X0381104Y0632911D01*
X0381253Y0632804D01*
X0381399Y0632693D01*
X0381542Y0632578D01*
X0381682Y0632460D01*
X0381820Y0632339D01*
X0381954Y0632214D01*
X0382086Y0632086D01*
X0382214Y0631954D01*
X0382339Y0631820D01*
X0382460Y0631682D01*
X0382578Y0631542D01*
X0382693Y0631399D01*
X0382804Y0631253D01*
X0382911Y0631104D01*
X0383015Y0630953D01*
X0383115Y0630799D01*
X0383212Y0630643D01*
X0383304Y0630484D01*
X0383392Y0630324D01*
X0383477Y0630161D01*
X0383557Y0629996D01*
X0383634Y0629829D01*
X0383706Y0629661D01*
X0383774Y0629490D01*
X0383838Y0629318D01*
X0383898Y0629145D01*
X0383953Y0628970D01*
X0384004Y0628794D01*
X0384051Y0628616D01*
X0384093Y0628438D01*
X0384131Y0628258D01*
X0384165Y0628078D01*
X0384194Y0627897D01*
X0384219Y0627715D01*
X0384239Y0627533D01*
X0384255Y0627350D01*
X0384266Y0627167D01*
X0384273Y0626983D01*
X0384275Y0626800D01*
X0384273Y0626617D01*
X0384266Y0626433D01*
X0384255Y0626250D01*
X0384239Y0626067D01*
X0384219Y0625885D01*
X0384194Y0625703D01*
X0384165Y0625522D01*
X0384131Y0625342D01*
X0384093Y0625162D01*
X0384051Y0624984D01*
X0384004Y0624806D01*
X0383953Y0624630D01*
X0383898Y0624455D01*
X0383838Y0624282D01*
X0383774Y0624110D01*
X0383706Y0623939D01*
X0383634Y0623771D01*
X0383557Y0623604D01*
X0383477Y0623439D01*
X0383392Y0623276D01*
X0383304Y0623116D01*
X0383212Y0622957D01*
X0383115Y0622801D01*
X0383015Y0622647D01*
X0382911Y0622496D01*
X0382804Y0622347D01*
X0382693Y0622201D01*
X0382578Y0622058D01*
X0382460Y0621918D01*
X0382339Y0621780D01*
X0382214Y0621646D01*
X0382086Y0621514D01*
X0381954Y0621386D01*
X0381820Y0621261D01*
X0381682Y0621140D01*
X0381542Y0621022D01*
X0381399Y0620907D01*
X0381253Y0620796D01*
X0381104Y0620689D01*
X0380953Y0620585D01*
X0380799Y0620485D01*
X0380643Y0620388D01*
X0380484Y0620296D01*
X0380324Y0620208D01*
X0380161Y0620123D01*
X0379996Y0620043D01*
X0379829Y0619966D01*
X0379661Y0619894D01*
X0379490Y0619826D01*
X0379318Y0619762D01*
X0379145Y0619702D01*
X0378970Y0619647D01*
X0378794Y0619596D01*
X0378616Y0619549D01*
X0378438Y0619507D01*
X0378258Y0619469D01*
X0378078Y0619435D01*
X0377897Y0619406D01*
X0377715Y0619381D01*
X0377533Y0619361D01*
X0377350Y0619345D01*
X0377167Y0619334D01*
X0376983Y0619327D01*
X0376800Y0619325D01*
X0376617Y0619327D01*
X0376433Y0619334D01*
X0376250Y0619345D01*
X0376067Y0619361D01*
X0375885Y0619381D01*
X0375703Y0619406D01*
X0375522Y0619435D01*
X0375342Y0619469D01*
X0375162Y0619507D01*
X0374984Y0619549D01*
X0374806Y0619596D01*
X0374630Y0619647D01*
X0374455Y0619702D01*
X0374282Y0619762D01*
X0374110Y0619826D01*
X0373939Y0619894D01*
X0373771Y0619966D01*
X0373604Y0620043D01*
X0373439Y0620123D01*
X0373276Y0620208D01*
X0373116Y0620296D01*
X0372957Y0620388D01*
X0372801Y0620485D01*
X0372647Y0620585D01*
X0372496Y0620689D01*
X0372347Y0620796D01*
X0372201Y0620907D01*
X0372058Y0621022D01*
X0371918Y0621140D01*
X0371780Y0621261D01*
X0371646Y0621386D01*
X0371514Y0621514D01*
X0371386Y0621646D01*
X0371261Y0621780D01*
X0371140Y0621918D01*
X0371022Y0622058D01*
X0370907Y0622201D01*
X0370796Y0622347D01*
X0370689Y0622496D01*
X0370585Y0622647D01*
X0370485Y0622801D01*
X0370388Y0622957D01*
X0370296Y0623116D01*
X0370208Y0623276D01*
X0370123Y0623439D01*
X0370043Y0623604D01*
X0369966Y0623771D01*
X0369894Y0623939D01*
X0369826Y0624110D01*
X0369762Y0624282D01*
X0369702Y0624455D01*
X0369647Y0624630D01*
X0369596Y0624806D01*
X0369549Y0624984D01*
X0369507Y0625162D01*
X0369469Y0625342D01*
X0369435Y0625522D01*
X0369406Y0625703D01*
X0369381Y0625885D01*
X0369361Y0626067D01*
X0369345Y0626250D01*
X0369334Y0626433D01*
X0369327Y0626617D01*
X0369325Y0626800D01*
X0017325Y0628800D02*
X0017327Y0628983D01*
X0017334Y0629167D01*
X0017345Y0629350D01*
X0017361Y0629533D01*
X0017381Y0629715D01*
X0017406Y0629897D01*
X0017435Y0630078D01*
X0017469Y0630258D01*
X0017507Y0630438D01*
X0017549Y0630616D01*
X0017596Y0630794D01*
X0017647Y0630970D01*
X0017702Y0631145D01*
X0017762Y0631318D01*
X0017826Y0631490D01*
X0017894Y0631661D01*
X0017966Y0631829D01*
X0018043Y0631996D01*
X0018123Y0632161D01*
X0018208Y0632324D01*
X0018296Y0632484D01*
X0018388Y0632643D01*
X0018485Y0632799D01*
X0018585Y0632953D01*
X0018689Y0633104D01*
X0018796Y0633253D01*
X0018907Y0633399D01*
X0019022Y0633542D01*
X0019140Y0633682D01*
X0019261Y0633820D01*
X0019386Y0633954D01*
X0019514Y0634086D01*
X0019646Y0634214D01*
X0019780Y0634339D01*
X0019918Y0634460D01*
X0020058Y0634578D01*
X0020201Y0634693D01*
X0020347Y0634804D01*
X0020496Y0634911D01*
X0020647Y0635015D01*
X0020801Y0635115D01*
X0020957Y0635212D01*
X0021116Y0635304D01*
X0021276Y0635392D01*
X0021439Y0635477D01*
X0021604Y0635557D01*
X0021771Y0635634D01*
X0021939Y0635706D01*
X0022110Y0635774D01*
X0022282Y0635838D01*
X0022455Y0635898D01*
X0022630Y0635953D01*
X0022806Y0636004D01*
X0022984Y0636051D01*
X0023162Y0636093D01*
X0023342Y0636131D01*
X0023522Y0636165D01*
X0023703Y0636194D01*
X0023885Y0636219D01*
X0024067Y0636239D01*
X0024250Y0636255D01*
X0024433Y0636266D01*
X0024617Y0636273D01*
X0024800Y0636275D01*
X0024983Y0636273D01*
X0025167Y0636266D01*
X0025350Y0636255D01*
X0025533Y0636239D01*
X0025715Y0636219D01*
X0025897Y0636194D01*
X0026078Y0636165D01*
X0026258Y0636131D01*
X0026438Y0636093D01*
X0026616Y0636051D01*
X0026794Y0636004D01*
X0026970Y0635953D01*
X0027145Y0635898D01*
X0027318Y0635838D01*
X0027490Y0635774D01*
X0027661Y0635706D01*
X0027829Y0635634D01*
X0027996Y0635557D01*
X0028161Y0635477D01*
X0028324Y0635392D01*
X0028484Y0635304D01*
X0028643Y0635212D01*
X0028799Y0635115D01*
X0028953Y0635015D01*
X0029104Y0634911D01*
X0029253Y0634804D01*
X0029399Y0634693D01*
X0029542Y0634578D01*
X0029682Y0634460D01*
X0029820Y0634339D01*
X0029954Y0634214D01*
X0030086Y0634086D01*
X0030214Y0633954D01*
X0030339Y0633820D01*
X0030460Y0633682D01*
X0030578Y0633542D01*
X0030693Y0633399D01*
X0030804Y0633253D01*
X0030911Y0633104D01*
X0031015Y0632953D01*
X0031115Y0632799D01*
X0031212Y0632643D01*
X0031304Y0632484D01*
X0031392Y0632324D01*
X0031477Y0632161D01*
X0031557Y0631996D01*
X0031634Y0631829D01*
X0031706Y0631661D01*
X0031774Y0631490D01*
X0031838Y0631318D01*
X0031898Y0631145D01*
X0031953Y0630970D01*
X0032004Y0630794D01*
X0032051Y0630616D01*
X0032093Y0630438D01*
X0032131Y0630258D01*
X0032165Y0630078D01*
X0032194Y0629897D01*
X0032219Y0629715D01*
X0032239Y0629533D01*
X0032255Y0629350D01*
X0032266Y0629167D01*
X0032273Y0628983D01*
X0032275Y0628800D01*
X0032273Y0628617D01*
X0032266Y0628433D01*
X0032255Y0628250D01*
X0032239Y0628067D01*
X0032219Y0627885D01*
X0032194Y0627703D01*
X0032165Y0627522D01*
X0032131Y0627342D01*
X0032093Y0627162D01*
X0032051Y0626984D01*
X0032004Y0626806D01*
X0031953Y0626630D01*
X0031898Y0626455D01*
X0031838Y0626282D01*
X0031774Y0626110D01*
X0031706Y0625939D01*
X0031634Y0625771D01*
X0031557Y0625604D01*
X0031477Y0625439D01*
X0031392Y0625276D01*
X0031304Y0625116D01*
X0031212Y0624957D01*
X0031115Y0624801D01*
X0031015Y0624647D01*
X0030911Y0624496D01*
X0030804Y0624347D01*
X0030693Y0624201D01*
X0030578Y0624058D01*
X0030460Y0623918D01*
X0030339Y0623780D01*
X0030214Y0623646D01*
X0030086Y0623514D01*
X0029954Y0623386D01*
X0029820Y0623261D01*
X0029682Y0623140D01*
X0029542Y0623022D01*
X0029399Y0622907D01*
X0029253Y0622796D01*
X0029104Y0622689D01*
X0028953Y0622585D01*
X0028799Y0622485D01*
X0028643Y0622388D01*
X0028484Y0622296D01*
X0028324Y0622208D01*
X0028161Y0622123D01*
X0027996Y0622043D01*
X0027829Y0621966D01*
X0027661Y0621894D01*
X0027490Y0621826D01*
X0027318Y0621762D01*
X0027145Y0621702D01*
X0026970Y0621647D01*
X0026794Y0621596D01*
X0026616Y0621549D01*
X0026438Y0621507D01*
X0026258Y0621469D01*
X0026078Y0621435D01*
X0025897Y0621406D01*
X0025715Y0621381D01*
X0025533Y0621361D01*
X0025350Y0621345D01*
X0025167Y0621334D01*
X0024983Y0621327D01*
X0024800Y0621325D01*
X0024617Y0621327D01*
X0024433Y0621334D01*
X0024250Y0621345D01*
X0024067Y0621361D01*
X0023885Y0621381D01*
X0023703Y0621406D01*
X0023522Y0621435D01*
X0023342Y0621469D01*
X0023162Y0621507D01*
X0022984Y0621549D01*
X0022806Y0621596D01*
X0022630Y0621647D01*
X0022455Y0621702D01*
X0022282Y0621762D01*
X0022110Y0621826D01*
X0021939Y0621894D01*
X0021771Y0621966D01*
X0021604Y0622043D01*
X0021439Y0622123D01*
X0021276Y0622208D01*
X0021116Y0622296D01*
X0020957Y0622388D01*
X0020801Y0622485D01*
X0020647Y0622585D01*
X0020496Y0622689D01*
X0020347Y0622796D01*
X0020201Y0622907D01*
X0020058Y0623022D01*
X0019918Y0623140D01*
X0019780Y0623261D01*
X0019646Y0623386D01*
X0019514Y0623514D01*
X0019386Y0623646D01*
X0019261Y0623780D01*
X0019140Y0623918D01*
X0019022Y0624058D01*
X0018907Y0624201D01*
X0018796Y0624347D01*
X0018689Y0624496D01*
X0018585Y0624647D01*
X0018485Y0624801D01*
X0018388Y0624957D01*
X0018296Y0625116D01*
X0018208Y0625276D01*
X0018123Y0625439D01*
X0018043Y0625604D01*
X0017966Y0625771D01*
X0017894Y0625939D01*
X0017826Y0626110D01*
X0017762Y0626282D01*
X0017702Y0626455D01*
X0017647Y0626630D01*
X0017596Y0626806D01*
X0017549Y0626984D01*
X0017507Y0627162D01*
X0017469Y0627342D01*
X0017435Y0627522D01*
X0017406Y0627703D01*
X0017381Y0627885D01*
X0017361Y0628067D01*
X0017345Y0628250D01*
X0017334Y0628433D01*
X0017327Y0628617D01*
X0017325Y0628800D01*
D11*
X0304800Y0591300D03*
X0305800Y0515300D03*
X0305800Y0447300D03*
X0305800Y0373300D03*
X0304800Y0259300D03*
X0308800Y0183300D03*
X0310800Y0121300D03*
X0310800Y0121300D03*
X0312800Y0058300D03*
X0716800Y0246300D03*
X0715800Y0322300D03*
X0720800Y0121300D03*
X0720800Y0121300D03*
X0722800Y0058300D03*
D12*
X0444820Y0323005D02*
X0434780Y0323005D01*
X0434780Y0338595D02*
X0444820Y0338595D01*
X0499780Y0334005D02*
X0509820Y0334005D01*
X0509820Y0349595D02*
X0499780Y0349595D01*
X0098820Y0603005D02*
X0088780Y0603005D01*
X0088780Y0618595D02*
X0098820Y0618595D01*
X0033820Y0607595D02*
X0023780Y0607595D01*
X0023780Y0592005D02*
X0033820Y0592005D01*
D13*
X0042800Y0232800D03*
X0452800Y0080800D03*
D14*
X0442761Y0090839D03*
X0462839Y0090839D03*
X0462839Y0070761D03*
X0442761Y0070761D03*
X0052839Y0222761D03*
X0032761Y0222761D03*
X0032761Y0242839D03*
X0052839Y0242839D03*
D15*
X0151060Y0247800D03*
X0158540Y0247800D03*
X0174060Y0247800D03*
X0181540Y0247800D03*
X0223060Y0216800D03*
X0230540Y0216800D03*
X0263060Y0232800D03*
X0270540Y0232800D03*
X0232540Y0276800D03*
X0225060Y0276800D03*
X0263060Y0295800D03*
X0270540Y0295800D03*
X0270540Y0316800D03*
X0263060Y0316800D03*
X0234540Y0335800D03*
X0227060Y0335800D03*
X0261060Y0386800D03*
X0268540Y0386800D03*
X0233540Y0403800D03*
X0226060Y0403800D03*
X0187540Y0447800D03*
X0180060Y0447800D03*
X0163540Y0447800D03*
X0156060Y0447800D03*
X0227060Y0475800D03*
X0234540Y0475800D03*
X0260060Y0457800D03*
X0267540Y0457800D03*
X0269540Y0531800D03*
X0262060Y0531800D03*
X0234540Y0550800D03*
X0227060Y0550800D03*
X0564060Y0254800D03*
X0571540Y0254800D03*
X0591060Y0254800D03*
X0598540Y0254800D03*
X0638060Y0281800D03*
X0645540Y0281800D03*
X0673060Y0262800D03*
X0680540Y0262800D03*
X0645540Y0206800D03*
X0638060Y0206800D03*
X0671060Y0188800D03*
X0678540Y0188800D03*
X0678540Y0169800D03*
X0671060Y0169800D03*
X0638540Y0142800D03*
X0631060Y0142800D03*
X0671060Y0106800D03*
X0678540Y0106800D03*
X0638540Y0081800D03*
X0631060Y0081800D03*
X0591540Y0095800D03*
X0584060Y0095800D03*
X0568540Y0095800D03*
X0561060Y0095800D03*
X0268540Y0106800D03*
X0261060Y0106800D03*
X0228540Y0081800D03*
X0221060Y0081800D03*
X0221060Y0142800D03*
X0228540Y0142800D03*
X0261060Y0169800D03*
X0268540Y0169800D03*
D16*
X0091400Y0283800D02*
X0086200Y0283800D01*
X0086200Y0293800D02*
X0091400Y0293800D01*
X0091400Y0303800D02*
X0086200Y0303800D01*
X0086200Y0313800D02*
X0091400Y0313800D01*
X0061400Y0313800D02*
X0056200Y0313800D01*
X0056200Y0303800D02*
X0061400Y0303800D01*
X0061400Y0293800D02*
X0056200Y0293800D01*
X0056200Y0283800D02*
X0061400Y0283800D01*
X0056400Y0568800D02*
X0051200Y0568800D01*
X0091200Y0568800D02*
X0096400Y0568800D01*
X0462200Y0299800D02*
X0467400Y0299800D01*
X0502200Y0299800D02*
X0507400Y0299800D01*
X0501400Y0161800D02*
X0496200Y0161800D01*
X0496200Y0151800D02*
X0501400Y0151800D01*
X0501400Y0141800D02*
X0496200Y0141800D01*
X0496200Y0131800D02*
X0501400Y0131800D01*
X0471400Y0131800D02*
X0466200Y0131800D01*
X0466200Y0141800D02*
X0471400Y0141800D01*
X0471400Y0151800D02*
X0466200Y0151800D01*
X0466200Y0161800D02*
X0471400Y0161800D01*
D17*
X0469800Y0198800D03*
X0469800Y0218800D03*
X0469800Y0238800D03*
X0499800Y0238800D03*
X0499800Y0218800D03*
X0499800Y0198800D03*
X0499800Y0268800D03*
X0469800Y0268800D03*
X0088800Y0467800D03*
X0088800Y0487800D03*
X0088800Y0507800D03*
X0058800Y0507800D03*
X0058800Y0487800D03*
X0058800Y0467800D03*
X0058800Y0537800D03*
X0088800Y0537800D03*
D18*
X0200500Y0555250D03*
X0207800Y0555250D03*
X0215100Y0555250D03*
X0215100Y0584350D03*
X0207800Y0584350D03*
X0200500Y0584350D03*
X0200500Y0447350D03*
X0207800Y0447350D03*
X0215100Y0447350D03*
X0215100Y0418250D03*
X0207800Y0418250D03*
X0200500Y0418250D03*
X0202800Y0276350D03*
X0195500Y0276350D03*
X0210100Y0276350D03*
X0210100Y0247250D03*
X0202800Y0247250D03*
X0195500Y0247250D03*
X0195500Y0143350D03*
X0202800Y0143350D03*
X0210100Y0143350D03*
X0210100Y0114250D03*
X0202800Y0114250D03*
X0195500Y0114250D03*
X0605500Y0114250D03*
X0612800Y0114250D03*
X0620100Y0114250D03*
X0620100Y0143350D03*
X0612800Y0143350D03*
X0605500Y0143350D03*
X0611500Y0286250D03*
X0618800Y0286250D03*
X0626100Y0286250D03*
X0626100Y0315350D03*
X0618800Y0315350D03*
X0611500Y0315350D03*
D19*
X0744800Y0318824D03*
X0744800Y0296776D03*
X0743800Y0244824D03*
X0743800Y0222776D03*
X0753800Y0150824D03*
X0753800Y0128776D03*
X0753800Y0080824D03*
X0753800Y0058776D03*
X0343800Y0058776D03*
X0343800Y0080824D03*
X0343800Y0128776D03*
X0343800Y0150824D03*
X0343800Y0188776D03*
X0343800Y0210824D03*
X0332800Y0256776D03*
X0332800Y0278824D03*
X0332800Y0347776D03*
X0332800Y0369824D03*
X0332800Y0424776D03*
X0332800Y0446824D03*
X0332800Y0491776D03*
X0332800Y0513824D03*
X0333800Y0565776D03*
X0333800Y0587824D03*
D20*
X0310702Y0573001D03*
X0298898Y0573001D03*
X0299898Y0497001D03*
X0311702Y0497001D03*
X0311702Y0430001D03*
X0299898Y0430001D03*
X0299898Y0355001D03*
X0311702Y0355001D03*
X0310702Y0277599D03*
X0298898Y0277599D03*
X0303898Y0201599D03*
X0315702Y0201599D03*
X0316702Y0139599D03*
X0304898Y0139599D03*
X0306898Y0076599D03*
X0318702Y0076599D03*
X0716898Y0076599D03*
X0728702Y0076599D03*
X0726702Y0139599D03*
X0714898Y0139599D03*
X0710898Y0228001D03*
X0722702Y0228001D03*
X0721702Y0304001D03*
X0709898Y0304001D03*
D21*
X0715800Y0305001D03*
X0716800Y0229001D03*
X0720800Y0138599D03*
X0722800Y0075599D03*
X0312800Y0075599D03*
X0310800Y0138599D03*
X0309800Y0200599D03*
X0304800Y0276599D03*
X0305800Y0356001D03*
X0305800Y0431001D03*
X0305800Y0498001D03*
X0304800Y0574001D03*
D22*
X0305800Y0580316D02*
X0303800Y0580316D01*
X0303800Y0588686D01*
X0305800Y0588686D01*
X0305800Y0580316D01*
X0305800Y0586315D02*
X0303800Y0586315D01*
X0304800Y0504316D02*
X0306800Y0504316D01*
X0304800Y0504316D02*
X0304800Y0512686D01*
X0306800Y0512686D01*
X0306800Y0504316D01*
X0306800Y0510315D02*
X0304800Y0510315D01*
X0304800Y0437316D02*
X0306800Y0437316D01*
X0304800Y0437316D02*
X0304800Y0445686D01*
X0306800Y0445686D01*
X0306800Y0437316D01*
X0306800Y0443315D02*
X0304800Y0443315D01*
X0304800Y0362316D02*
X0306800Y0362316D01*
X0304800Y0362316D02*
X0304800Y0370686D01*
X0306800Y0370686D01*
X0306800Y0362316D01*
X0306800Y0368315D02*
X0304800Y0368315D01*
X0303800Y0270284D02*
X0305800Y0270284D01*
X0305800Y0261914D01*
X0303800Y0261914D01*
X0303800Y0270284D01*
X0303800Y0267913D02*
X0305800Y0267913D01*
X0308800Y0194284D02*
X0310800Y0194284D01*
X0310800Y0185914D01*
X0308800Y0185914D01*
X0308800Y0194284D01*
X0308800Y0191913D02*
X0310800Y0191913D01*
X0309800Y0132284D02*
X0311800Y0132284D01*
X0311800Y0123914D01*
X0309800Y0123914D01*
X0309800Y0132284D01*
X0309800Y0129913D02*
X0311800Y0129913D01*
X0311800Y0069284D02*
X0313800Y0069284D01*
X0313800Y0060914D01*
X0311800Y0060914D01*
X0311800Y0069284D01*
X0311800Y0066913D02*
X0313800Y0066913D01*
X0715800Y0235316D02*
X0717800Y0235316D01*
X0715800Y0235316D02*
X0715800Y0243686D01*
X0717800Y0243686D01*
X0717800Y0235316D01*
X0717800Y0241315D02*
X0715800Y0241315D01*
X0716800Y0311316D02*
X0714800Y0311316D01*
X0714800Y0319686D01*
X0716800Y0319686D01*
X0716800Y0311316D01*
X0716800Y0317315D02*
X0714800Y0317315D01*
X0719800Y0132284D02*
X0721800Y0132284D01*
X0721800Y0123914D01*
X0719800Y0123914D01*
X0719800Y0132284D01*
X0719800Y0129913D02*
X0721800Y0129913D01*
X0721800Y0069284D02*
X0723800Y0069284D01*
X0723800Y0060914D01*
X0721800Y0060914D01*
X0721800Y0069284D01*
X0721800Y0066913D02*
X0723800Y0066913D01*
D23*
X0779800Y0058761D03*
X0779800Y0078839D03*
X0779800Y0140761D03*
X0779800Y0160839D03*
X0779800Y0204761D03*
X0779800Y0224839D03*
X0779800Y0264761D03*
X0779800Y0284839D03*
X0369800Y0294839D03*
X0369800Y0274761D03*
X0369800Y0224839D03*
X0369800Y0204761D03*
X0369800Y0160839D03*
X0369800Y0140761D03*
X0369800Y0078839D03*
X0369800Y0058761D03*
X0369800Y0355761D03*
X0369800Y0375839D03*
X0368800Y0413761D03*
X0368800Y0433839D03*
X0368800Y0473761D03*
X0368800Y0493839D03*
X0368800Y0533761D03*
X0368800Y0553839D03*
D24*
X0346800Y0622875D02*
X0346800Y0634725D01*
X0169800Y0636725D02*
X0169800Y0624875D01*
X0388800Y0327725D02*
X0388800Y0315875D01*
X0580800Y0355875D02*
X0580800Y0367725D01*
X0757800Y0365725D02*
X0757800Y0353875D01*
X0798800Y0193725D02*
X0798800Y0181875D01*
X0757800Y0038725D02*
X0757800Y0026875D01*
X0579800Y0027875D02*
X0579800Y0039725D01*
X0347800Y0038725D02*
X0347800Y0026875D01*
X0169800Y0027875D02*
X0169800Y0039725D01*
D25*
X0246800Y0055139D03*
X0246800Y0072461D03*
X0256139Y0088800D03*
X0273461Y0088800D03*
X0247800Y0123139D03*
X0247800Y0140461D03*
X0256139Y0154800D03*
X0273461Y0154800D03*
X0248800Y0185139D03*
X0248800Y0202461D03*
X0257139Y0216800D03*
X0274461Y0216800D03*
X0248800Y0246139D03*
X0248800Y0263461D03*
X0256139Y0279800D03*
X0273461Y0279800D03*
X0275461Y0335800D03*
X0258139Y0335800D03*
X0250800Y0352139D03*
X0250800Y0369461D03*
X0257139Y0403800D03*
X0274461Y0403800D03*
X0251800Y0420139D03*
X0251800Y0437461D03*
X0256139Y0476800D03*
X0273461Y0476800D03*
X0252800Y0494139D03*
X0252800Y0511461D03*
X0257139Y0550800D03*
X0252800Y0567139D03*
X0252800Y0584461D03*
X0274461Y0550800D03*
X0663800Y0315461D03*
X0663800Y0298139D03*
X0668139Y0281800D03*
X0685461Y0281800D03*
X0663800Y0242461D03*
X0663800Y0225139D03*
X0667139Y0207800D03*
X0684461Y0207800D03*
X0683461Y0154800D03*
X0666139Y0154800D03*
X0657800Y0140461D03*
X0657800Y0123139D03*
X0666139Y0088800D03*
X0683461Y0088800D03*
X0656800Y0072461D03*
X0656800Y0055139D03*
D26*
X0439800Y0279800D03*
X0439800Y0299800D03*
X0028800Y0548800D03*
X0028800Y0568800D03*
D27*
X0277800Y0573060D03*
X0277800Y0580540D03*
X0278800Y0505540D03*
X0278800Y0498060D03*
X0278800Y0437540D03*
X0278800Y0430060D03*
X0280800Y0362540D03*
X0280800Y0355060D03*
X0280800Y0261540D03*
X0280800Y0254060D03*
X0283800Y0196540D03*
X0283800Y0189060D03*
X0283800Y0134540D03*
X0283800Y0127060D03*
X0283800Y0070540D03*
X0283800Y0063060D03*
X0689800Y0229060D03*
X0689800Y0236540D03*
X0688800Y0304060D03*
X0688800Y0311540D03*
X0693800Y0134540D03*
X0693800Y0127060D03*
X0693800Y0070540D03*
X0693800Y0063060D03*
D28*
X0706800Y0032800D03*
X0666800Y0032800D03*
X0296800Y0032800D03*
X0256800Y0032800D03*
X0669800Y0359800D03*
X0709800Y0359800D03*
X0298800Y0628800D03*
X0258800Y0628800D03*
D29*
X0119800Y0487800D02*
X0088800Y0487800D01*
X0058800Y0487800D02*
X0026800Y0487800D01*
X0437800Y0218800D02*
X0469800Y0218800D01*
X0499800Y0218800D02*
X0530800Y0218800D01*
X0347800Y0056800D02*
X0347800Y0032800D01*
X0757800Y0032800D02*
X0757800Y0056800D01*
D30*
X0646800Y0120800D03*
X0633800Y0107800D03*
X0626800Y0120800D03*
X0630800Y0156800D03*
X0592800Y0152800D03*
X0585800Y0190800D03*
X0530800Y0218800D03*
X0437800Y0218800D03*
X0236800Y0120800D03*
X0223800Y0107800D03*
X0216800Y0120800D03*
X0220800Y0156800D03*
X0232800Y0184800D03*
X0189800Y0213800D03*
X0223800Y0258800D03*
X0224800Y0287800D03*
X0184800Y0279800D03*
X0162800Y0318800D03*
X0247800Y0384800D03*
X0234800Y0424800D03*
X0278800Y0486800D03*
X0299800Y0486800D03*
X0246800Y0524800D03*
X0277800Y0560800D03*
X0298800Y0560800D03*
X0239800Y0563800D03*
X0200500Y0504100D03*
X0119800Y0487800D03*
X0026800Y0487800D03*
X0314800Y0421800D03*
X0350800Y0446800D03*
X0650800Y0294800D03*
X0688800Y0291800D03*
X0709800Y0291800D03*
X0657800Y0255800D03*
X0689800Y0217800D03*
X0710800Y0217800D03*
X0763800Y0238800D03*
X0763800Y0187800D03*
X0633800Y0055800D03*
X0223800Y0055800D03*
X0182800Y0152800D03*
D31*
X0182800Y0128800D01*
X0186800Y0124800D01*
X0198800Y0124800D01*
X0202800Y0120800D01*
X0202800Y0114250D01*
X0195800Y0113950D02*
X0195500Y0114250D01*
X0195800Y0113950D02*
X0195800Y0103800D01*
X0191800Y0099800D01*
X0173800Y0099800D01*
X0163800Y0109800D01*
X0163800Y0202800D01*
X0195500Y0234500D01*
X0195500Y0247250D01*
X0194950Y0247800D01*
X0181540Y0247800D01*
X0174060Y0247800D02*
X0158540Y0247800D01*
X0151060Y0247800D02*
X0149800Y0246800D01*
X0113800Y0282800D01*
X0089800Y0282800D01*
X0088800Y0283800D01*
X0089800Y0302800D02*
X0088800Y0303800D01*
X0089800Y0302800D02*
X0093800Y0302800D01*
X0153800Y0362800D01*
X0153800Y0446800D01*
X0156060Y0447800D01*
X0163540Y0447800D02*
X0165800Y0446800D01*
X0177800Y0446800D01*
X0180060Y0447800D01*
X0187540Y0447800D02*
X0187800Y0447800D01*
X0187800Y0526800D01*
X0200800Y0539800D01*
X0200800Y0554950D01*
X0200500Y0555250D01*
X0207800Y0555250D02*
X0207800Y0539800D01*
X0225800Y0521800D01*
X0225800Y0477060D01*
X0227060Y0475800D01*
X0234540Y0475800D02*
X0253800Y0475800D01*
X0256139Y0476800D02*
X0253800Y0478800D01*
X0253800Y0490800D01*
X0252800Y0494139D01*
X0257800Y0506800D02*
X0254800Y0509800D01*
X0253800Y0510800D01*
X0246800Y0517800D01*
X0246800Y0524800D01*
X0252800Y0511461D02*
X0253800Y0510800D01*
X0257800Y0506800D02*
X0277800Y0506800D01*
X0278800Y0505540D01*
X0277800Y0506800D02*
X0277800Y0521800D01*
X0289800Y0533800D01*
X0368800Y0533800D01*
X0368800Y0533761D01*
X0368800Y0494800D01*
X0368800Y0493839D01*
X0368800Y0494800D02*
X0333800Y0494800D01*
X0332800Y0491776D01*
X0332776Y0491800D01*
X0314800Y0491800D01*
X0311702Y0494898D01*
X0311702Y0497001D01*
X0305800Y0506800D02*
X0305800Y0508501D01*
X0305800Y0510800D01*
X0329800Y0510800D01*
X0332800Y0513824D01*
X0305800Y0506800D02*
X0293800Y0506800D01*
X0289800Y0502800D01*
X0289800Y0467800D01*
X0289800Y0450800D01*
X0277800Y0438800D01*
X0278800Y0437540D01*
X0277800Y0438800D02*
X0253800Y0438800D01*
X0245250Y0447350D01*
X0215100Y0447350D01*
X0207800Y0447350D02*
X0207800Y0435800D01*
X0212800Y0430800D01*
X0228800Y0430800D01*
X0234800Y0424800D01*
X0251800Y0420139D02*
X0253800Y0418800D01*
X0253800Y0406800D01*
X0255291Y0405460D01*
X0253632Y0403800D01*
X0233540Y0403800D01*
X0226060Y0403800D02*
X0215100Y0414760D01*
X0215100Y0418250D01*
X0207800Y0418250D02*
X0207800Y0355060D01*
X0227060Y0335800D01*
X0234540Y0335800D02*
X0258139Y0335800D01*
X0257800Y0338800D01*
X0253800Y0342800D01*
X0253800Y0350800D01*
X0250800Y0352139D01*
X0258139Y0335800D02*
X0261800Y0334800D01*
X0261800Y0318800D01*
X0263060Y0316800D01*
X0270540Y0316800D02*
X0275461Y0321721D01*
X0275461Y0335800D01*
X0275461Y0349721D01*
X0280800Y0355060D01*
X0299839Y0355060D01*
X0299898Y0355001D01*
X0305800Y0356001D02*
X0305800Y0347800D01*
X0307800Y0345800D01*
X0330824Y0345800D01*
X0332800Y0347776D01*
X0333800Y0346800D01*
X0333800Y0321800D01*
X0369800Y0321800D01*
X0369800Y0355761D01*
X0369800Y0375839D02*
X0368800Y0394800D01*
X0368800Y0413761D01*
X0368800Y0390800D01*
X0353800Y0390800D01*
X0333800Y0410800D01*
X0333800Y0422800D01*
X0332800Y0424776D01*
X0329800Y0426800D01*
X0317800Y0438800D01*
X0305800Y0438800D01*
X0305800Y0441501D01*
X0299839Y0430060D02*
X0299898Y0430001D01*
X0299839Y0430060D02*
X0278800Y0430060D01*
X0278800Y0408139D01*
X0274461Y0403800D01*
X0273800Y0402800D01*
X0273800Y0390800D01*
X0268540Y0386800D01*
X0261060Y0386800D02*
X0257139Y0390721D01*
X0257139Y0403800D01*
X0255291Y0405460D01*
X0247800Y0384800D02*
X0247800Y0376132D01*
X0253338Y0370594D01*
X0250800Y0369461D01*
X0253338Y0370594D02*
X0253800Y0370800D01*
X0280800Y0370800D01*
X0280800Y0384800D01*
X0289800Y0393800D01*
X0329800Y0393800D01*
X0329800Y0370800D01*
X0332800Y0369824D01*
X0317977Y0355001D01*
X0311702Y0355001D01*
X0305800Y0366501D02*
X0305800Y0366800D01*
X0280800Y0370800D02*
X0280800Y0362540D01*
X0332800Y0369824D02*
X0333800Y0370800D01*
X0353800Y0390800D01*
X0314800Y0421800D02*
X0311702Y0424898D01*
X0311702Y0430001D01*
X0329800Y0446800D02*
X0332800Y0446824D01*
X0333800Y0446800D01*
X0350800Y0446800D01*
X0368800Y0446800D01*
X0368800Y0433839D01*
X0368800Y0473761D01*
X0329800Y0467800D02*
X0329800Y0446800D01*
X0329800Y0467800D02*
X0289800Y0467800D01*
X0278800Y0480800D02*
X0278800Y0486800D01*
X0278800Y0498060D01*
X0299898Y0497001D02*
X0299898Y0486898D01*
X0299800Y0486800D01*
X0278800Y0480800D02*
X0274800Y0476800D01*
X0273461Y0476800D01*
X0269800Y0474800D01*
X0269800Y0458800D01*
X0267540Y0457800D01*
X0260060Y0457800D02*
X0257800Y0458800D01*
X0257800Y0474800D01*
X0256139Y0476800D01*
X0253800Y0438800D02*
X0251800Y0437461D01*
X0200500Y0447350D02*
X0200500Y0504100D01*
X0215100Y0555250D02*
X0222610Y0555250D01*
X0227060Y0550800D01*
X0234540Y0550800D02*
X0251800Y0550800D01*
X0253800Y0552800D01*
X0253800Y0550800D01*
X0257139Y0550800D01*
X0257139Y0536721D01*
X0262060Y0531800D01*
X0269540Y0531800D02*
X0271800Y0531800D01*
X0276800Y0536800D01*
X0276800Y0550800D01*
X0274461Y0550800D01*
X0276800Y0550800D02*
X0277800Y0550800D01*
X0277800Y0560800D01*
X0277800Y0573060D01*
X0277800Y0580540D02*
X0277800Y0582800D01*
X0277800Y0606800D01*
X0297800Y0626800D01*
X0298800Y0628800D01*
X0346800Y0627800D02*
X0368800Y0606800D01*
X0368800Y0566800D01*
X0368800Y0553839D01*
X0368800Y0566800D02*
X0333800Y0566800D01*
X0333800Y0565776D01*
X0331800Y0565800D02*
X0314800Y0565800D01*
X0310702Y0569898D01*
X0310702Y0573001D01*
X0298898Y0573001D02*
X0298898Y0560898D01*
X0298800Y0560800D01*
X0289800Y0578800D02*
X0293800Y0582800D01*
X0301800Y0582800D01*
X0304800Y0584501D01*
X0305800Y0586800D01*
X0333800Y0586800D01*
X0333800Y0587824D01*
X0289800Y0578800D02*
X0289800Y0533800D01*
X0253800Y0552800D02*
X0253800Y0566800D01*
X0252800Y0567139D01*
X0239800Y0563800D02*
X0233800Y0569800D01*
X0212800Y0569800D01*
X0207800Y0574800D01*
X0207800Y0584350D01*
X0200500Y0584350D02*
X0200500Y0600100D01*
X0169800Y0630800D01*
X0215100Y0584350D02*
X0252689Y0584350D01*
X0252800Y0584461D01*
X0253800Y0582800D01*
X0277800Y0582800D01*
X0187540Y0447800D02*
X0187540Y0431210D01*
X0200500Y0418250D01*
X0162800Y0318800D02*
X0195500Y0286100D01*
X0195500Y0276350D01*
X0202800Y0276350D02*
X0202800Y0268800D01*
X0224800Y0246800D01*
X0248139Y0246800D01*
X0248800Y0246139D01*
X0249800Y0242800D01*
X0281800Y0242800D01*
X0280800Y0243800D01*
X0280800Y0254060D01*
X0281060Y0253800D01*
X0286800Y0253800D01*
X0288800Y0255800D01*
X0288800Y0271800D01*
X0294599Y0277599D01*
X0298898Y0277599D01*
X0310702Y0277599D02*
X0310702Y0278898D01*
X0310800Y0291800D01*
X0273461Y0291800D01*
X0273461Y0279800D01*
X0273800Y0278800D01*
X0273800Y0292540D01*
X0270540Y0295800D01*
X0263060Y0295800D02*
X0261800Y0294800D01*
X0255800Y0288800D01*
X0256139Y0279800D01*
X0253800Y0278800D01*
X0253800Y0270800D01*
X0249800Y0266800D01*
X0248800Y0263461D01*
X0245800Y0262800D01*
X0233800Y0274800D01*
X0232540Y0276800D01*
X0225060Y0276800D02*
X0224800Y0277060D01*
X0224800Y0287800D01*
X0210100Y0276350D02*
X0210100Y0272500D01*
X0223800Y0258800D01*
X0210100Y0247250D02*
X0210100Y0229760D01*
X0223060Y0216800D01*
X0230540Y0216800D02*
X0243800Y0216800D01*
X0249800Y0210800D01*
X0253800Y0214800D01*
X0257139Y0216800D01*
X0257800Y0218800D01*
X0261800Y0222800D01*
X0261800Y0230800D01*
X0263060Y0232800D01*
X0270540Y0232800D02*
X0270540Y0232060D01*
X0274800Y0227800D01*
X0274800Y0217139D01*
X0274461Y0216800D01*
X0277800Y0214800D01*
X0283800Y0208800D01*
X0283800Y0203800D01*
X0290800Y0210800D01*
X0312800Y0210800D01*
X0315800Y0207800D01*
X0315800Y0201698D01*
X0315702Y0201599D01*
X0303898Y0201599D02*
X0292599Y0201599D01*
X0291800Y0200800D01*
X0291800Y0191800D01*
X0287800Y0187800D01*
X0285060Y0187800D01*
X0283800Y0189060D01*
X0284540Y0189800D01*
X0283800Y0189060D02*
X0283800Y0175800D01*
X0292800Y0166800D01*
X0343800Y0166800D01*
X0343800Y0150824D01*
X0323076Y0128099D01*
X0310800Y0128099D01*
X0304898Y0139599D02*
X0297599Y0139599D01*
X0293800Y0135800D01*
X0293800Y0123800D01*
X0292800Y0122800D01*
X0248800Y0122800D01*
X0247800Y0123139D01*
X0248461Y0120800D01*
X0236800Y0120800D01*
X0223800Y0124800D02*
X0223800Y0107800D01*
X0216800Y0120800D02*
X0202800Y0134800D01*
X0202800Y0143350D01*
X0195800Y0143650D02*
X0195500Y0143350D01*
X0195800Y0143650D02*
X0195800Y0208800D01*
X0190800Y0213800D01*
X0189800Y0213800D01*
X0202800Y0247250D02*
X0202800Y0255800D01*
X0198800Y0259800D01*
X0187800Y0259800D01*
X0184800Y0262800D01*
X0184800Y0279800D01*
X0249800Y0210800D02*
X0249800Y0202800D01*
X0248800Y0202461D01*
X0249800Y0186800D02*
X0248800Y0185139D01*
X0248461Y0184800D01*
X0232800Y0184800D01*
X0249800Y0186800D02*
X0281800Y0186800D01*
X0283800Y0189060D01*
X0283800Y0196540D02*
X0283800Y0203800D01*
X0306800Y0190800D02*
X0309800Y0190099D01*
X0306800Y0190800D02*
X0321800Y0190800D01*
X0341800Y0210800D01*
X0343800Y0210824D01*
X0329800Y0224800D01*
X0329800Y0230800D01*
X0317800Y0242800D01*
X0329800Y0254800D01*
X0332800Y0256776D01*
X0333800Y0254800D01*
X0341800Y0246800D01*
X0369800Y0246800D01*
X0369800Y0274761D01*
X0369800Y0294839D02*
X0369800Y0321800D01*
X0388800Y0321800D01*
X0333800Y0321800D02*
X0333800Y0278800D01*
X0332800Y0278824D01*
X0329800Y0278800D01*
X0321800Y0270800D01*
X0321800Y0259800D01*
X0312800Y0250800D01*
X0304800Y0250800D01*
X0304800Y0266099D01*
X0281800Y0262800D02*
X0280800Y0261540D01*
X0281800Y0262800D02*
X0281800Y0270800D01*
X0273800Y0278800D01*
X0281800Y0242800D02*
X0317800Y0242800D01*
X0369800Y0246800D02*
X0369800Y0224839D01*
X0369800Y0204761D02*
X0369800Y0186800D01*
X0343800Y0186800D01*
X0343800Y0188776D01*
X0343800Y0186800D02*
X0343800Y0166800D01*
X0369800Y0160839D02*
X0369800Y0186800D01*
X0369800Y0140761D02*
X0369800Y0111800D01*
X0369800Y0078839D01*
X0343800Y0080800D02*
X0343800Y0080824D01*
X0337800Y0080800D01*
X0323800Y0066800D01*
X0312800Y0066800D01*
X0312800Y0065099D01*
X0306898Y0076599D02*
X0298599Y0076599D01*
X0292800Y0070800D01*
X0292800Y0063800D01*
X0291800Y0062800D01*
X0284060Y0062800D01*
X0283800Y0063060D01*
X0283800Y0059800D01*
X0278300Y0054300D01*
X0277800Y0054800D01*
X0249800Y0054800D01*
X0248813Y0054911D01*
X0247924Y0055800D01*
X0223800Y0055800D01*
X0246800Y0055139D02*
X0248813Y0054911D01*
X0246800Y0072461D02*
X0249800Y0074800D01*
X0253800Y0078800D01*
X0253800Y0086800D01*
X0256139Y0088800D01*
X0255800Y0089139D01*
X0255800Y0101800D01*
X0260800Y0106800D01*
X0261060Y0106800D01*
X0268540Y0106800D02*
X0269800Y0106800D01*
X0269800Y0090800D01*
X0273461Y0088800D01*
X0273800Y0088800D01*
X0283800Y0078800D01*
X0283800Y0070540D01*
X0283800Y0077800D01*
X0292800Y0086800D01*
X0318800Y0086800D01*
X0318800Y0079698D01*
X0318702Y0076599D01*
X0343800Y0080824D02*
X0343800Y0100800D01*
X0343800Y0111800D01*
X0343800Y0128776D01*
X0343800Y0111800D02*
X0369800Y0111800D01*
X0343800Y0100800D02*
X0299800Y0100800D01*
X0293800Y0106800D01*
X0293800Y0122800D01*
X0292800Y0122800D01*
X0283800Y0134540D02*
X0283800Y0142800D01*
X0291800Y0150800D01*
X0313800Y0150800D01*
X0316800Y0147800D01*
X0316800Y0140698D01*
X0316702Y0139599D01*
X0283800Y0143800D02*
X0283800Y0134540D01*
X0283800Y0143800D02*
X0273461Y0154139D01*
X0273461Y0154800D01*
X0269800Y0154800D01*
X0269800Y0170800D01*
X0268540Y0169800D01*
X0261060Y0169800D02*
X0256139Y0164879D01*
X0256139Y0154800D01*
X0253800Y0154800D01*
X0253800Y0146800D01*
X0249800Y0142800D01*
X0247800Y0140461D01*
X0245800Y0142800D01*
X0228540Y0142800D01*
X0221060Y0142800D02*
X0220800Y0143060D01*
X0220800Y0156800D01*
X0221060Y0142800D02*
X0220800Y0142540D01*
X0210100Y0143350D02*
X0209800Y0143050D01*
X0209800Y0138800D01*
X0223800Y0124800D01*
X0210100Y0114250D02*
X0210100Y0087500D01*
X0215800Y0081800D01*
X0221060Y0081800D01*
X0221800Y0082540D01*
X0228540Y0081800D02*
X0229800Y0082800D01*
X0237800Y0082800D01*
X0245800Y0074800D01*
X0246800Y0072461D01*
X0278300Y0054300D02*
X0297800Y0034800D01*
X0296800Y0032800D01*
X0340800Y0058800D02*
X0343800Y0058776D01*
X0340800Y0058800D02*
X0357800Y0058800D01*
X0369800Y0058761D01*
X0498800Y0131800D02*
X0499800Y0130800D01*
X0523800Y0130800D01*
X0559800Y0094800D01*
X0561060Y0095800D01*
X0568540Y0095800D02*
X0584060Y0095800D01*
X0591540Y0095800D02*
X0598800Y0095800D01*
X0605800Y0102800D01*
X0605800Y0113950D01*
X0605500Y0114250D01*
X0612800Y0114250D02*
X0612800Y0120800D01*
X0608800Y0124800D01*
X0596800Y0124800D01*
X0592800Y0128800D01*
X0592800Y0152800D01*
X0605500Y0143350D02*
X0605800Y0143650D01*
X0605800Y0170800D01*
X0585800Y0190800D01*
X0550800Y0152800D02*
X0548800Y0150800D01*
X0499800Y0150800D01*
X0498800Y0151800D01*
X0550800Y0152800D02*
X0550800Y0251800D01*
X0553800Y0254800D01*
X0564060Y0254800D01*
X0571540Y0254800D02*
X0591060Y0254800D01*
X0598800Y0257800D02*
X0611800Y0270800D01*
X0611800Y0285950D01*
X0611500Y0286250D01*
X0618800Y0286250D02*
X0618800Y0270800D01*
X0636800Y0252800D01*
X0636800Y0208060D01*
X0638060Y0206800D01*
X0645540Y0206800D02*
X0664800Y0206800D01*
X0667139Y0207800D02*
X0664800Y0209800D01*
X0664800Y0221800D01*
X0663800Y0225139D01*
X0668800Y0237800D02*
X0664800Y0241800D01*
X0657800Y0248800D01*
X0657800Y0255800D01*
X0668139Y0267721D02*
X0673060Y0262800D01*
X0668139Y0267721D02*
X0668139Y0281800D01*
X0664800Y0281800D01*
X0664800Y0283800D01*
X0662800Y0281800D01*
X0645540Y0281800D01*
X0638060Y0281800D02*
X0633610Y0286250D01*
X0626100Y0286250D01*
X0623800Y0300800D02*
X0618800Y0305800D01*
X0618800Y0315350D01*
X0611500Y0315350D02*
X0611500Y0331100D01*
X0580800Y0361800D01*
X0626100Y0315350D02*
X0663689Y0315350D01*
X0663800Y0315461D01*
X0664800Y0313800D01*
X0688800Y0313800D01*
X0688800Y0311540D01*
X0688800Y0313800D02*
X0688800Y0337800D01*
X0708800Y0357800D01*
X0709800Y0359800D01*
X0757800Y0358800D02*
X0779800Y0337800D01*
X0779800Y0297800D01*
X0779800Y0284839D01*
X0779800Y0297800D02*
X0744800Y0297800D01*
X0744800Y0296776D01*
X0742800Y0296800D02*
X0725800Y0296800D01*
X0721702Y0300898D01*
X0721702Y0304001D01*
X0709898Y0304001D02*
X0709898Y0291898D01*
X0709800Y0291800D01*
X0700800Y0309800D02*
X0704800Y0313800D01*
X0712800Y0313800D01*
X0715800Y0315501D01*
X0716800Y0317800D01*
X0744800Y0317800D01*
X0744800Y0318824D01*
X0700800Y0309800D02*
X0700800Y0264800D01*
X0779800Y0264800D01*
X0779800Y0264761D01*
X0779800Y0225800D01*
X0779800Y0224839D01*
X0779800Y0225800D02*
X0744800Y0225800D01*
X0743800Y0222776D01*
X0743776Y0222800D01*
X0725800Y0222800D01*
X0722702Y0225898D01*
X0722702Y0228001D01*
X0710898Y0228001D02*
X0710898Y0217898D01*
X0710800Y0217800D01*
X0689800Y0217800D02*
X0689800Y0211800D01*
X0685800Y0207800D01*
X0684461Y0207800D01*
X0680800Y0205800D01*
X0680800Y0189800D01*
X0678540Y0188800D01*
X0671060Y0188800D02*
X0668800Y0189800D01*
X0668800Y0205800D01*
X0667139Y0207800D01*
X0689800Y0217800D02*
X0689800Y0229060D01*
X0689800Y0236540D02*
X0688800Y0237800D01*
X0688800Y0252800D01*
X0700800Y0264800D01*
X0687800Y0267800D02*
X0687800Y0281800D01*
X0685461Y0281800D01*
X0687800Y0281800D02*
X0688800Y0281800D01*
X0688800Y0291800D01*
X0688800Y0304060D01*
X0664800Y0297800D02*
X0664800Y0283800D01*
X0664800Y0297800D02*
X0663800Y0298139D01*
X0650800Y0294800D02*
X0644800Y0300800D01*
X0623800Y0300800D01*
X0680540Y0262800D02*
X0682800Y0262800D01*
X0687800Y0267800D01*
X0664800Y0241800D02*
X0663800Y0242461D01*
X0668800Y0237800D02*
X0688800Y0237800D01*
X0716800Y0239501D02*
X0726501Y0239501D01*
X0732800Y0245800D01*
X0742824Y0245800D01*
X0743800Y0244824D01*
X0757776Y0244824D01*
X0763800Y0238800D01*
X0779800Y0204761D02*
X0779800Y0187800D01*
X0798800Y0187800D01*
X0779800Y0187800D02*
X0779800Y0160839D01*
X0761839Y0160839D01*
X0753800Y0152800D01*
X0741800Y0152800D01*
X0738800Y0149800D01*
X0738800Y0131800D01*
X0735800Y0128800D01*
X0718800Y0128800D01*
X0714898Y0139599D02*
X0707599Y0139599D01*
X0703800Y0135800D01*
X0703800Y0123800D01*
X0702800Y0122800D01*
X0658800Y0122800D01*
X0657800Y0123139D01*
X0658461Y0120800D01*
X0646800Y0120800D01*
X0633800Y0124800D02*
X0633800Y0107800D01*
X0620100Y0114250D02*
X0620100Y0087500D01*
X0625800Y0081800D01*
X0631060Y0081800D01*
X0631800Y0082540D01*
X0638540Y0081800D02*
X0639800Y0082800D01*
X0647800Y0082800D01*
X0655800Y0074800D01*
X0656800Y0072461D01*
X0659800Y0074800D01*
X0663800Y0078800D01*
X0663800Y0086800D01*
X0666139Y0088800D01*
X0665800Y0089139D01*
X0665800Y0101800D01*
X0670800Y0106800D01*
X0671060Y0106800D01*
X0678540Y0106800D02*
X0679800Y0106800D01*
X0679800Y0090800D01*
X0683461Y0088800D01*
X0683800Y0088800D01*
X0693800Y0078800D01*
X0693800Y0070540D01*
X0693800Y0077800D01*
X0702800Y0086800D01*
X0728800Y0086800D01*
X0728800Y0079698D01*
X0728702Y0076599D01*
X0722800Y0066800D02*
X0739800Y0066800D01*
X0753800Y0080800D01*
X0753800Y0080824D01*
X0753800Y0100800D01*
X0709800Y0100800D01*
X0703800Y0106800D01*
X0703800Y0122800D01*
X0702800Y0122800D01*
X0693800Y0134540D02*
X0693800Y0142800D01*
X0701800Y0150800D01*
X0723800Y0150800D01*
X0726800Y0147800D01*
X0726800Y0140698D01*
X0726702Y0139599D01*
X0753800Y0128776D02*
X0753800Y0111800D01*
X0753800Y0100800D01*
X0753800Y0111800D02*
X0779800Y0111800D01*
X0779800Y0078839D01*
X0779800Y0058761D02*
X0767800Y0058800D01*
X0750800Y0058800D01*
X0753800Y0058776D01*
X0716898Y0076599D02*
X0708599Y0076599D01*
X0702800Y0070800D01*
X0702800Y0063800D01*
X0701800Y0062800D01*
X0694060Y0062800D01*
X0693800Y0063060D01*
X0693800Y0059800D01*
X0688300Y0054300D01*
X0687800Y0054800D01*
X0659800Y0054800D01*
X0658813Y0054911D01*
X0657924Y0055800D01*
X0633800Y0055800D01*
X0656800Y0055139D02*
X0658813Y0054911D01*
X0688300Y0054300D02*
X0707800Y0034800D01*
X0706800Y0032800D01*
X0779800Y0111800D02*
X0779800Y0140761D01*
X0779800Y0187800D02*
X0763800Y0187800D01*
X0693800Y0143800D02*
X0693800Y0134540D01*
X0693800Y0143800D02*
X0683461Y0154139D01*
X0683461Y0154800D01*
X0679800Y0154800D01*
X0679800Y0170800D01*
X0678540Y0169800D01*
X0671060Y0169800D02*
X0666139Y0164879D01*
X0666139Y0154800D01*
X0663800Y0154800D01*
X0663800Y0146800D01*
X0659800Y0142800D01*
X0657800Y0140461D01*
X0655800Y0142800D01*
X0638540Y0142800D01*
X0631060Y0142800D02*
X0630800Y0143060D01*
X0630800Y0156800D01*
X0631060Y0142800D02*
X0630800Y0142540D01*
X0620100Y0143350D02*
X0619800Y0143050D01*
X0619800Y0138800D01*
X0633800Y0124800D01*
X0626800Y0120800D02*
X0612800Y0134800D01*
X0612800Y0143350D01*
M02*
