G75*
%MOIN*%
%OFA0B0*%
%FSLAX25Y25*%
%IPPOS*%
%LPD*%
%AMOC8*
5,1,8,0,0,1.08239X$1,22.5*
%
%ADD10C,0.15750*%
%ADD11C,0.10839*%
%ADD12C,0.08300*%
%ADD13C,0.11300*%
%ADD14C,0.06000*%
%ADD15C,0.07887*%
%ADD16C,0.12650*%
%ADD17OC8,0.06000*%
%ADD18OC8,0.06800*%
%ADD19R,0.04762X0.04762*%
D10*
X0028800Y0019800D03*
X0376800Y0026800D03*
X0438800Y0019800D03*
X0786800Y0026800D03*
X0787800Y0357800D03*
X0435800Y0359800D03*
X0376800Y0626800D03*
X0024800Y0628800D03*
D11*
X0023780Y0607595D02*
X0033820Y0607595D01*
X0033820Y0592005D02*
X0023780Y0592005D01*
X0088780Y0603005D02*
X0098820Y0603005D01*
X0098820Y0618595D02*
X0088780Y0618595D01*
X0434780Y0338595D02*
X0444820Y0338595D01*
X0444820Y0323005D02*
X0434780Y0323005D01*
X0499780Y0334005D02*
X0509820Y0334005D01*
X0509820Y0349595D02*
X0499780Y0349595D01*
D12*
X0452800Y0080800D03*
X0042800Y0232800D03*
D13*
X0032761Y0222761D03*
X0052839Y0222761D03*
X0052839Y0242839D03*
X0032761Y0242839D03*
X0442761Y0090839D03*
X0462839Y0090839D03*
X0462839Y0070761D03*
X0442761Y0070761D03*
D14*
X0466200Y0131800D02*
X0471400Y0131800D01*
X0471400Y0141800D02*
X0466200Y0141800D01*
X0466200Y0151800D02*
X0471400Y0151800D01*
X0471400Y0161800D02*
X0466200Y0161800D01*
X0496200Y0161800D02*
X0501400Y0161800D01*
X0501400Y0151800D02*
X0496200Y0151800D01*
X0496200Y0141800D02*
X0501400Y0141800D01*
X0501400Y0131800D02*
X0496200Y0131800D01*
X0502200Y0299800D02*
X0507400Y0299800D01*
X0467400Y0299800D02*
X0462200Y0299800D01*
X0091400Y0303800D02*
X0086200Y0303800D01*
X0086200Y0293800D02*
X0091400Y0293800D01*
X0091400Y0283800D02*
X0086200Y0283800D01*
X0061400Y0283800D02*
X0056200Y0283800D01*
X0056200Y0293800D02*
X0061400Y0293800D01*
X0061400Y0303800D02*
X0056200Y0303800D01*
X0056200Y0313800D02*
X0061400Y0313800D01*
X0086200Y0313800D02*
X0091400Y0313800D01*
X0091200Y0568800D02*
X0096400Y0568800D01*
X0056400Y0568800D02*
X0051200Y0568800D01*
D15*
X0058800Y0537800D03*
X0088800Y0537800D03*
X0088800Y0507800D03*
X0088800Y0487800D03*
X0088800Y0467800D03*
X0058800Y0467800D03*
X0058800Y0487800D03*
X0058800Y0507800D03*
X0469800Y0268800D03*
X0499800Y0268800D03*
X0499800Y0238800D03*
X0499800Y0218800D03*
X0499800Y0198800D03*
X0469800Y0198800D03*
X0469800Y0218800D03*
X0469800Y0238800D03*
D16*
X0388800Y0315875D02*
X0388800Y0327725D01*
X0580800Y0355875D02*
X0580800Y0367725D01*
X0757800Y0365725D02*
X0757800Y0353875D01*
X0798800Y0193725D02*
X0798800Y0181875D01*
X0757800Y0038725D02*
X0757800Y0026875D01*
X0579800Y0027875D02*
X0579800Y0039725D01*
X0347800Y0038725D02*
X0347800Y0026875D01*
X0169800Y0027875D02*
X0169800Y0039725D01*
X0169800Y0624875D02*
X0169800Y0636725D01*
X0346800Y0634725D02*
X0346800Y0622875D01*
D17*
X0028800Y0568800D03*
X0028800Y0548800D03*
X0439800Y0299800D03*
X0439800Y0279800D03*
D18*
X0669800Y0359800D03*
X0709800Y0359800D03*
X0706800Y0032800D03*
X0666800Y0032800D03*
X0296800Y0032800D03*
X0256800Y0032800D03*
X0258800Y0628800D03*
X0298800Y0628800D03*
D19*
X0239800Y0563800D03*
X0277800Y0560800D03*
X0298800Y0560800D03*
X0246800Y0524800D03*
X0278800Y0486800D03*
X0299800Y0486800D03*
X0350800Y0446800D03*
X0314800Y0421800D03*
X0247800Y0384800D03*
X0234800Y0424800D03*
X0200500Y0504100D03*
X0119800Y0487800D03*
X0026800Y0487800D03*
X0162800Y0318800D03*
X0184800Y0279800D03*
X0224800Y0287800D03*
X0223800Y0258800D03*
X0189800Y0213800D03*
X0232800Y0184800D03*
X0220800Y0156800D03*
X0216800Y0120800D03*
X0223800Y0107800D03*
X0236800Y0120800D03*
X0182800Y0152800D03*
X0223800Y0055800D03*
X0437800Y0218800D03*
X0530800Y0218800D03*
X0585800Y0190800D03*
X0592800Y0152800D03*
X0630800Y0156800D03*
X0626800Y0120800D03*
X0633800Y0107800D03*
X0646800Y0120800D03*
X0633800Y0055800D03*
X0763800Y0187800D03*
X0710800Y0217800D03*
X0689800Y0217800D03*
X0657800Y0255800D03*
X0688800Y0291800D03*
X0709800Y0291800D03*
X0650800Y0294800D03*
X0763800Y0238800D03*
M02*
