G75*
%MOIN*%
%OFA0B0*%
%FSLAX25Y25*%
%IPPOS*%
%LPD*%
%AMOC8*
5,1,8,0,0,1.08239X$1,22.5*
%
%ADD10C,0.00000*%
%ADD11C,0.10039*%
%ADD12C,0.07500*%
%ADD13C,0.10500*%
%ADD14R,0.05118X0.05906*%
%ADD15C,0.05200*%
%ADD16C,0.07087*%
%ADD17R,0.03500X0.06600*%
%ADD18R,0.12598X0.07087*%
%ADD19C,0.11850*%
%ADD20R,0.09449X0.09449*%
%ADD21OC8,0.05200*%
%ADD22R,0.05906X0.05118*%
%ADD23OC8,0.06000*%
%ADD24R,0.07087X0.08661*%
%ADD25R,0.03150X0.05512*%
%ADD26R,0.03150X0.07480*%
%ADD27C,0.06000*%
%ADD28C,0.20000*%
%ADD29R,0.05937X0.05937*%
%ADD30C,0.05543*%
%ADD31C,0.05600*%
%ADD32R,0.03962X0.03962*%
%ADD33C,0.04000*%
%ADD34C,0.02400*%
D10*
X0001800Y0001800D02*
X0001800Y0651800D01*
X0471800Y0651800D01*
X0472800Y0001800D01*
X0001800Y0001800D01*
X0021325Y0019800D02*
X0021327Y0019983D01*
X0021334Y0020167D01*
X0021345Y0020350D01*
X0021361Y0020533D01*
X0021381Y0020715D01*
X0021406Y0020897D01*
X0021435Y0021078D01*
X0021469Y0021258D01*
X0021507Y0021438D01*
X0021549Y0021616D01*
X0021596Y0021794D01*
X0021647Y0021970D01*
X0021702Y0022145D01*
X0021762Y0022318D01*
X0021826Y0022490D01*
X0021894Y0022661D01*
X0021966Y0022829D01*
X0022043Y0022996D01*
X0022123Y0023161D01*
X0022208Y0023324D01*
X0022296Y0023484D01*
X0022388Y0023643D01*
X0022485Y0023799D01*
X0022585Y0023953D01*
X0022689Y0024104D01*
X0022796Y0024253D01*
X0022907Y0024399D01*
X0023022Y0024542D01*
X0023140Y0024682D01*
X0023261Y0024820D01*
X0023386Y0024954D01*
X0023514Y0025086D01*
X0023646Y0025214D01*
X0023780Y0025339D01*
X0023918Y0025460D01*
X0024058Y0025578D01*
X0024201Y0025693D01*
X0024347Y0025804D01*
X0024496Y0025911D01*
X0024647Y0026015D01*
X0024801Y0026115D01*
X0024957Y0026212D01*
X0025116Y0026304D01*
X0025276Y0026392D01*
X0025439Y0026477D01*
X0025604Y0026557D01*
X0025771Y0026634D01*
X0025939Y0026706D01*
X0026110Y0026774D01*
X0026282Y0026838D01*
X0026455Y0026898D01*
X0026630Y0026953D01*
X0026806Y0027004D01*
X0026984Y0027051D01*
X0027162Y0027093D01*
X0027342Y0027131D01*
X0027522Y0027165D01*
X0027703Y0027194D01*
X0027885Y0027219D01*
X0028067Y0027239D01*
X0028250Y0027255D01*
X0028433Y0027266D01*
X0028617Y0027273D01*
X0028800Y0027275D01*
X0028983Y0027273D01*
X0029167Y0027266D01*
X0029350Y0027255D01*
X0029533Y0027239D01*
X0029715Y0027219D01*
X0029897Y0027194D01*
X0030078Y0027165D01*
X0030258Y0027131D01*
X0030438Y0027093D01*
X0030616Y0027051D01*
X0030794Y0027004D01*
X0030970Y0026953D01*
X0031145Y0026898D01*
X0031318Y0026838D01*
X0031490Y0026774D01*
X0031661Y0026706D01*
X0031829Y0026634D01*
X0031996Y0026557D01*
X0032161Y0026477D01*
X0032324Y0026392D01*
X0032484Y0026304D01*
X0032643Y0026212D01*
X0032799Y0026115D01*
X0032953Y0026015D01*
X0033104Y0025911D01*
X0033253Y0025804D01*
X0033399Y0025693D01*
X0033542Y0025578D01*
X0033682Y0025460D01*
X0033820Y0025339D01*
X0033954Y0025214D01*
X0034086Y0025086D01*
X0034214Y0024954D01*
X0034339Y0024820D01*
X0034460Y0024682D01*
X0034578Y0024542D01*
X0034693Y0024399D01*
X0034804Y0024253D01*
X0034911Y0024104D01*
X0035015Y0023953D01*
X0035115Y0023799D01*
X0035212Y0023643D01*
X0035304Y0023484D01*
X0035392Y0023324D01*
X0035477Y0023161D01*
X0035557Y0022996D01*
X0035634Y0022829D01*
X0035706Y0022661D01*
X0035774Y0022490D01*
X0035838Y0022318D01*
X0035898Y0022145D01*
X0035953Y0021970D01*
X0036004Y0021794D01*
X0036051Y0021616D01*
X0036093Y0021438D01*
X0036131Y0021258D01*
X0036165Y0021078D01*
X0036194Y0020897D01*
X0036219Y0020715D01*
X0036239Y0020533D01*
X0036255Y0020350D01*
X0036266Y0020167D01*
X0036273Y0019983D01*
X0036275Y0019800D01*
X0036273Y0019617D01*
X0036266Y0019433D01*
X0036255Y0019250D01*
X0036239Y0019067D01*
X0036219Y0018885D01*
X0036194Y0018703D01*
X0036165Y0018522D01*
X0036131Y0018342D01*
X0036093Y0018162D01*
X0036051Y0017984D01*
X0036004Y0017806D01*
X0035953Y0017630D01*
X0035898Y0017455D01*
X0035838Y0017282D01*
X0035774Y0017110D01*
X0035706Y0016939D01*
X0035634Y0016771D01*
X0035557Y0016604D01*
X0035477Y0016439D01*
X0035392Y0016276D01*
X0035304Y0016116D01*
X0035212Y0015957D01*
X0035115Y0015801D01*
X0035015Y0015647D01*
X0034911Y0015496D01*
X0034804Y0015347D01*
X0034693Y0015201D01*
X0034578Y0015058D01*
X0034460Y0014918D01*
X0034339Y0014780D01*
X0034214Y0014646D01*
X0034086Y0014514D01*
X0033954Y0014386D01*
X0033820Y0014261D01*
X0033682Y0014140D01*
X0033542Y0014022D01*
X0033399Y0013907D01*
X0033253Y0013796D01*
X0033104Y0013689D01*
X0032953Y0013585D01*
X0032799Y0013485D01*
X0032643Y0013388D01*
X0032484Y0013296D01*
X0032324Y0013208D01*
X0032161Y0013123D01*
X0031996Y0013043D01*
X0031829Y0012966D01*
X0031661Y0012894D01*
X0031490Y0012826D01*
X0031318Y0012762D01*
X0031145Y0012702D01*
X0030970Y0012647D01*
X0030794Y0012596D01*
X0030616Y0012549D01*
X0030438Y0012507D01*
X0030258Y0012469D01*
X0030078Y0012435D01*
X0029897Y0012406D01*
X0029715Y0012381D01*
X0029533Y0012361D01*
X0029350Y0012345D01*
X0029167Y0012334D01*
X0028983Y0012327D01*
X0028800Y0012325D01*
X0028617Y0012327D01*
X0028433Y0012334D01*
X0028250Y0012345D01*
X0028067Y0012361D01*
X0027885Y0012381D01*
X0027703Y0012406D01*
X0027522Y0012435D01*
X0027342Y0012469D01*
X0027162Y0012507D01*
X0026984Y0012549D01*
X0026806Y0012596D01*
X0026630Y0012647D01*
X0026455Y0012702D01*
X0026282Y0012762D01*
X0026110Y0012826D01*
X0025939Y0012894D01*
X0025771Y0012966D01*
X0025604Y0013043D01*
X0025439Y0013123D01*
X0025276Y0013208D01*
X0025116Y0013296D01*
X0024957Y0013388D01*
X0024801Y0013485D01*
X0024647Y0013585D01*
X0024496Y0013689D01*
X0024347Y0013796D01*
X0024201Y0013907D01*
X0024058Y0014022D01*
X0023918Y0014140D01*
X0023780Y0014261D01*
X0023646Y0014386D01*
X0023514Y0014514D01*
X0023386Y0014646D01*
X0023261Y0014780D01*
X0023140Y0014918D01*
X0023022Y0015058D01*
X0022907Y0015201D01*
X0022796Y0015347D01*
X0022689Y0015496D01*
X0022585Y0015647D01*
X0022485Y0015801D01*
X0022388Y0015957D01*
X0022296Y0016116D01*
X0022208Y0016276D01*
X0022123Y0016439D01*
X0022043Y0016604D01*
X0021966Y0016771D01*
X0021894Y0016939D01*
X0021826Y0017110D01*
X0021762Y0017282D01*
X0021702Y0017455D01*
X0021647Y0017630D01*
X0021596Y0017806D01*
X0021549Y0017984D01*
X0021507Y0018162D01*
X0021469Y0018342D01*
X0021435Y0018522D01*
X0021406Y0018703D01*
X0021381Y0018885D01*
X0021361Y0019067D01*
X0021345Y0019250D01*
X0021334Y0019433D01*
X0021327Y0019617D01*
X0021325Y0019800D01*
X0439325Y0026800D02*
X0439327Y0026983D01*
X0439334Y0027167D01*
X0439345Y0027350D01*
X0439361Y0027533D01*
X0439381Y0027715D01*
X0439406Y0027897D01*
X0439435Y0028078D01*
X0439469Y0028258D01*
X0439507Y0028438D01*
X0439549Y0028616D01*
X0439596Y0028794D01*
X0439647Y0028970D01*
X0439702Y0029145D01*
X0439762Y0029318D01*
X0439826Y0029490D01*
X0439894Y0029661D01*
X0439966Y0029829D01*
X0440043Y0029996D01*
X0440123Y0030161D01*
X0440208Y0030324D01*
X0440296Y0030484D01*
X0440388Y0030643D01*
X0440485Y0030799D01*
X0440585Y0030953D01*
X0440689Y0031104D01*
X0440796Y0031253D01*
X0440907Y0031399D01*
X0441022Y0031542D01*
X0441140Y0031682D01*
X0441261Y0031820D01*
X0441386Y0031954D01*
X0441514Y0032086D01*
X0441646Y0032214D01*
X0441780Y0032339D01*
X0441918Y0032460D01*
X0442058Y0032578D01*
X0442201Y0032693D01*
X0442347Y0032804D01*
X0442496Y0032911D01*
X0442647Y0033015D01*
X0442801Y0033115D01*
X0442957Y0033212D01*
X0443116Y0033304D01*
X0443276Y0033392D01*
X0443439Y0033477D01*
X0443604Y0033557D01*
X0443771Y0033634D01*
X0443939Y0033706D01*
X0444110Y0033774D01*
X0444282Y0033838D01*
X0444455Y0033898D01*
X0444630Y0033953D01*
X0444806Y0034004D01*
X0444984Y0034051D01*
X0445162Y0034093D01*
X0445342Y0034131D01*
X0445522Y0034165D01*
X0445703Y0034194D01*
X0445885Y0034219D01*
X0446067Y0034239D01*
X0446250Y0034255D01*
X0446433Y0034266D01*
X0446617Y0034273D01*
X0446800Y0034275D01*
X0446983Y0034273D01*
X0447167Y0034266D01*
X0447350Y0034255D01*
X0447533Y0034239D01*
X0447715Y0034219D01*
X0447897Y0034194D01*
X0448078Y0034165D01*
X0448258Y0034131D01*
X0448438Y0034093D01*
X0448616Y0034051D01*
X0448794Y0034004D01*
X0448970Y0033953D01*
X0449145Y0033898D01*
X0449318Y0033838D01*
X0449490Y0033774D01*
X0449661Y0033706D01*
X0449829Y0033634D01*
X0449996Y0033557D01*
X0450161Y0033477D01*
X0450324Y0033392D01*
X0450484Y0033304D01*
X0450643Y0033212D01*
X0450799Y0033115D01*
X0450953Y0033015D01*
X0451104Y0032911D01*
X0451253Y0032804D01*
X0451399Y0032693D01*
X0451542Y0032578D01*
X0451682Y0032460D01*
X0451820Y0032339D01*
X0451954Y0032214D01*
X0452086Y0032086D01*
X0452214Y0031954D01*
X0452339Y0031820D01*
X0452460Y0031682D01*
X0452578Y0031542D01*
X0452693Y0031399D01*
X0452804Y0031253D01*
X0452911Y0031104D01*
X0453015Y0030953D01*
X0453115Y0030799D01*
X0453212Y0030643D01*
X0453304Y0030484D01*
X0453392Y0030324D01*
X0453477Y0030161D01*
X0453557Y0029996D01*
X0453634Y0029829D01*
X0453706Y0029661D01*
X0453774Y0029490D01*
X0453838Y0029318D01*
X0453898Y0029145D01*
X0453953Y0028970D01*
X0454004Y0028794D01*
X0454051Y0028616D01*
X0454093Y0028438D01*
X0454131Y0028258D01*
X0454165Y0028078D01*
X0454194Y0027897D01*
X0454219Y0027715D01*
X0454239Y0027533D01*
X0454255Y0027350D01*
X0454266Y0027167D01*
X0454273Y0026983D01*
X0454275Y0026800D01*
X0454273Y0026617D01*
X0454266Y0026433D01*
X0454255Y0026250D01*
X0454239Y0026067D01*
X0454219Y0025885D01*
X0454194Y0025703D01*
X0454165Y0025522D01*
X0454131Y0025342D01*
X0454093Y0025162D01*
X0454051Y0024984D01*
X0454004Y0024806D01*
X0453953Y0024630D01*
X0453898Y0024455D01*
X0453838Y0024282D01*
X0453774Y0024110D01*
X0453706Y0023939D01*
X0453634Y0023771D01*
X0453557Y0023604D01*
X0453477Y0023439D01*
X0453392Y0023276D01*
X0453304Y0023116D01*
X0453212Y0022957D01*
X0453115Y0022801D01*
X0453015Y0022647D01*
X0452911Y0022496D01*
X0452804Y0022347D01*
X0452693Y0022201D01*
X0452578Y0022058D01*
X0452460Y0021918D01*
X0452339Y0021780D01*
X0452214Y0021646D01*
X0452086Y0021514D01*
X0451954Y0021386D01*
X0451820Y0021261D01*
X0451682Y0021140D01*
X0451542Y0021022D01*
X0451399Y0020907D01*
X0451253Y0020796D01*
X0451104Y0020689D01*
X0450953Y0020585D01*
X0450799Y0020485D01*
X0450643Y0020388D01*
X0450484Y0020296D01*
X0450324Y0020208D01*
X0450161Y0020123D01*
X0449996Y0020043D01*
X0449829Y0019966D01*
X0449661Y0019894D01*
X0449490Y0019826D01*
X0449318Y0019762D01*
X0449145Y0019702D01*
X0448970Y0019647D01*
X0448794Y0019596D01*
X0448616Y0019549D01*
X0448438Y0019507D01*
X0448258Y0019469D01*
X0448078Y0019435D01*
X0447897Y0019406D01*
X0447715Y0019381D01*
X0447533Y0019361D01*
X0447350Y0019345D01*
X0447167Y0019334D01*
X0446983Y0019327D01*
X0446800Y0019325D01*
X0446617Y0019327D01*
X0446433Y0019334D01*
X0446250Y0019345D01*
X0446067Y0019361D01*
X0445885Y0019381D01*
X0445703Y0019406D01*
X0445522Y0019435D01*
X0445342Y0019469D01*
X0445162Y0019507D01*
X0444984Y0019549D01*
X0444806Y0019596D01*
X0444630Y0019647D01*
X0444455Y0019702D01*
X0444282Y0019762D01*
X0444110Y0019826D01*
X0443939Y0019894D01*
X0443771Y0019966D01*
X0443604Y0020043D01*
X0443439Y0020123D01*
X0443276Y0020208D01*
X0443116Y0020296D01*
X0442957Y0020388D01*
X0442801Y0020485D01*
X0442647Y0020585D01*
X0442496Y0020689D01*
X0442347Y0020796D01*
X0442201Y0020907D01*
X0442058Y0021022D01*
X0441918Y0021140D01*
X0441780Y0021261D01*
X0441646Y0021386D01*
X0441514Y0021514D01*
X0441386Y0021646D01*
X0441261Y0021780D01*
X0441140Y0021918D01*
X0441022Y0022058D01*
X0440907Y0022201D01*
X0440796Y0022347D01*
X0440689Y0022496D01*
X0440585Y0022647D01*
X0440485Y0022801D01*
X0440388Y0022957D01*
X0440296Y0023116D01*
X0440208Y0023276D01*
X0440123Y0023439D01*
X0440043Y0023604D01*
X0439966Y0023771D01*
X0439894Y0023939D01*
X0439826Y0024110D01*
X0439762Y0024282D01*
X0439702Y0024455D01*
X0439647Y0024630D01*
X0439596Y0024806D01*
X0439549Y0024984D01*
X0439507Y0025162D01*
X0439469Y0025342D01*
X0439435Y0025522D01*
X0439406Y0025703D01*
X0439381Y0025885D01*
X0439361Y0026067D01*
X0439345Y0026250D01*
X0439334Y0026433D01*
X0439327Y0026617D01*
X0439325Y0026800D01*
X0478800Y0001800D02*
X0478800Y0386501D01*
X0859721Y0386501D01*
X0859721Y0001800D01*
X0478800Y0001800D01*
X0563650Y0060776D02*
X0563652Y0060888D01*
X0563658Y0060999D01*
X0563668Y0061111D01*
X0563682Y0061222D01*
X0563699Y0061332D01*
X0563721Y0061442D01*
X0563747Y0061551D01*
X0563776Y0061659D01*
X0563809Y0061765D01*
X0563846Y0061871D01*
X0563887Y0061975D01*
X0563932Y0062078D01*
X0563980Y0062179D01*
X0564031Y0062278D01*
X0564086Y0062375D01*
X0564145Y0062470D01*
X0564206Y0062564D01*
X0564271Y0062655D01*
X0564340Y0062743D01*
X0564411Y0062829D01*
X0564485Y0062913D01*
X0564563Y0062993D01*
X0564643Y0063071D01*
X0564726Y0063147D01*
X0564811Y0063219D01*
X0564899Y0063288D01*
X0564989Y0063354D01*
X0565082Y0063416D01*
X0565177Y0063476D01*
X0565274Y0063532D01*
X0565372Y0063584D01*
X0565473Y0063633D01*
X0565575Y0063678D01*
X0565679Y0063720D01*
X0565784Y0063758D01*
X0565891Y0063792D01*
X0565998Y0063822D01*
X0566107Y0063849D01*
X0566216Y0063871D01*
X0566327Y0063890D01*
X0566437Y0063905D01*
X0566549Y0063916D01*
X0566660Y0063923D01*
X0566772Y0063926D01*
X0566884Y0063925D01*
X0566996Y0063920D01*
X0567107Y0063911D01*
X0567218Y0063898D01*
X0567329Y0063881D01*
X0567439Y0063861D01*
X0567548Y0063836D01*
X0567656Y0063808D01*
X0567763Y0063775D01*
X0567869Y0063739D01*
X0567973Y0063699D01*
X0568076Y0063656D01*
X0568178Y0063609D01*
X0568277Y0063558D01*
X0568375Y0063504D01*
X0568471Y0063446D01*
X0568565Y0063385D01*
X0568656Y0063321D01*
X0568745Y0063254D01*
X0568832Y0063183D01*
X0568916Y0063109D01*
X0568998Y0063033D01*
X0569076Y0062953D01*
X0569152Y0062871D01*
X0569225Y0062786D01*
X0569295Y0062699D01*
X0569361Y0062609D01*
X0569425Y0062517D01*
X0569485Y0062423D01*
X0569542Y0062327D01*
X0569595Y0062228D01*
X0569645Y0062128D01*
X0569691Y0062027D01*
X0569734Y0061923D01*
X0569773Y0061818D01*
X0569808Y0061712D01*
X0569839Y0061605D01*
X0569867Y0061496D01*
X0569890Y0061387D01*
X0569910Y0061277D01*
X0569926Y0061166D01*
X0569938Y0061055D01*
X0569946Y0060944D01*
X0569950Y0060832D01*
X0569950Y0060720D01*
X0569946Y0060608D01*
X0569938Y0060497D01*
X0569926Y0060386D01*
X0569910Y0060275D01*
X0569890Y0060165D01*
X0569867Y0060056D01*
X0569839Y0059947D01*
X0569808Y0059840D01*
X0569773Y0059734D01*
X0569734Y0059629D01*
X0569691Y0059525D01*
X0569645Y0059424D01*
X0569595Y0059324D01*
X0569542Y0059225D01*
X0569485Y0059129D01*
X0569425Y0059035D01*
X0569361Y0058943D01*
X0569295Y0058853D01*
X0569225Y0058766D01*
X0569152Y0058681D01*
X0569076Y0058599D01*
X0568998Y0058519D01*
X0568916Y0058443D01*
X0568832Y0058369D01*
X0568745Y0058298D01*
X0568656Y0058231D01*
X0568565Y0058167D01*
X0568471Y0058106D01*
X0568375Y0058048D01*
X0568277Y0057994D01*
X0568178Y0057943D01*
X0568076Y0057896D01*
X0567973Y0057853D01*
X0567869Y0057813D01*
X0567763Y0057777D01*
X0567656Y0057744D01*
X0567548Y0057716D01*
X0567439Y0057691D01*
X0567329Y0057671D01*
X0567218Y0057654D01*
X0567107Y0057641D01*
X0566996Y0057632D01*
X0566884Y0057627D01*
X0566772Y0057626D01*
X0566660Y0057629D01*
X0566549Y0057636D01*
X0566437Y0057647D01*
X0566327Y0057662D01*
X0566216Y0057681D01*
X0566107Y0057703D01*
X0565998Y0057730D01*
X0565891Y0057760D01*
X0565784Y0057794D01*
X0565679Y0057832D01*
X0565575Y0057874D01*
X0565473Y0057919D01*
X0565372Y0057968D01*
X0565274Y0058020D01*
X0565177Y0058076D01*
X0565082Y0058136D01*
X0564989Y0058198D01*
X0564899Y0058264D01*
X0564811Y0058333D01*
X0564726Y0058405D01*
X0564643Y0058481D01*
X0564563Y0058559D01*
X0564485Y0058639D01*
X0564411Y0058723D01*
X0564340Y0058809D01*
X0564271Y0058897D01*
X0564206Y0058988D01*
X0564145Y0059082D01*
X0564086Y0059177D01*
X0564031Y0059274D01*
X0563980Y0059373D01*
X0563932Y0059474D01*
X0563887Y0059577D01*
X0563846Y0059681D01*
X0563809Y0059787D01*
X0563776Y0059893D01*
X0563747Y0060001D01*
X0563721Y0060110D01*
X0563699Y0060220D01*
X0563682Y0060330D01*
X0563668Y0060441D01*
X0563658Y0060553D01*
X0563652Y0060664D01*
X0563650Y0060776D01*
X0563650Y0182824D02*
X0563652Y0182936D01*
X0563658Y0183047D01*
X0563668Y0183159D01*
X0563682Y0183270D01*
X0563699Y0183380D01*
X0563721Y0183490D01*
X0563747Y0183599D01*
X0563776Y0183707D01*
X0563809Y0183813D01*
X0563846Y0183919D01*
X0563887Y0184023D01*
X0563932Y0184126D01*
X0563980Y0184227D01*
X0564031Y0184326D01*
X0564086Y0184423D01*
X0564145Y0184518D01*
X0564206Y0184612D01*
X0564271Y0184703D01*
X0564340Y0184791D01*
X0564411Y0184877D01*
X0564485Y0184961D01*
X0564563Y0185041D01*
X0564643Y0185119D01*
X0564726Y0185195D01*
X0564811Y0185267D01*
X0564899Y0185336D01*
X0564989Y0185402D01*
X0565082Y0185464D01*
X0565177Y0185524D01*
X0565274Y0185580D01*
X0565372Y0185632D01*
X0565473Y0185681D01*
X0565575Y0185726D01*
X0565679Y0185768D01*
X0565784Y0185806D01*
X0565891Y0185840D01*
X0565998Y0185870D01*
X0566107Y0185897D01*
X0566216Y0185919D01*
X0566327Y0185938D01*
X0566437Y0185953D01*
X0566549Y0185964D01*
X0566660Y0185971D01*
X0566772Y0185974D01*
X0566884Y0185973D01*
X0566996Y0185968D01*
X0567107Y0185959D01*
X0567218Y0185946D01*
X0567329Y0185929D01*
X0567439Y0185909D01*
X0567548Y0185884D01*
X0567656Y0185856D01*
X0567763Y0185823D01*
X0567869Y0185787D01*
X0567973Y0185747D01*
X0568076Y0185704D01*
X0568178Y0185657D01*
X0568277Y0185606D01*
X0568375Y0185552D01*
X0568471Y0185494D01*
X0568565Y0185433D01*
X0568656Y0185369D01*
X0568745Y0185302D01*
X0568832Y0185231D01*
X0568916Y0185157D01*
X0568998Y0185081D01*
X0569076Y0185001D01*
X0569152Y0184919D01*
X0569225Y0184834D01*
X0569295Y0184747D01*
X0569361Y0184657D01*
X0569425Y0184565D01*
X0569485Y0184471D01*
X0569542Y0184375D01*
X0569595Y0184276D01*
X0569645Y0184176D01*
X0569691Y0184075D01*
X0569734Y0183971D01*
X0569773Y0183866D01*
X0569808Y0183760D01*
X0569839Y0183653D01*
X0569867Y0183544D01*
X0569890Y0183435D01*
X0569910Y0183325D01*
X0569926Y0183214D01*
X0569938Y0183103D01*
X0569946Y0182992D01*
X0569950Y0182880D01*
X0569950Y0182768D01*
X0569946Y0182656D01*
X0569938Y0182545D01*
X0569926Y0182434D01*
X0569910Y0182323D01*
X0569890Y0182213D01*
X0569867Y0182104D01*
X0569839Y0181995D01*
X0569808Y0181888D01*
X0569773Y0181782D01*
X0569734Y0181677D01*
X0569691Y0181573D01*
X0569645Y0181472D01*
X0569595Y0181372D01*
X0569542Y0181273D01*
X0569485Y0181177D01*
X0569425Y0181083D01*
X0569361Y0180991D01*
X0569295Y0180901D01*
X0569225Y0180814D01*
X0569152Y0180729D01*
X0569076Y0180647D01*
X0568998Y0180567D01*
X0568916Y0180491D01*
X0568832Y0180417D01*
X0568745Y0180346D01*
X0568656Y0180279D01*
X0568565Y0180215D01*
X0568471Y0180154D01*
X0568375Y0180096D01*
X0568277Y0180042D01*
X0568178Y0179991D01*
X0568076Y0179944D01*
X0567973Y0179901D01*
X0567869Y0179861D01*
X0567763Y0179825D01*
X0567656Y0179792D01*
X0567548Y0179764D01*
X0567439Y0179739D01*
X0567329Y0179719D01*
X0567218Y0179702D01*
X0567107Y0179689D01*
X0566996Y0179680D01*
X0566884Y0179675D01*
X0566772Y0179674D01*
X0566660Y0179677D01*
X0566549Y0179684D01*
X0566437Y0179695D01*
X0566327Y0179710D01*
X0566216Y0179729D01*
X0566107Y0179751D01*
X0565998Y0179778D01*
X0565891Y0179808D01*
X0565784Y0179842D01*
X0565679Y0179880D01*
X0565575Y0179922D01*
X0565473Y0179967D01*
X0565372Y0180016D01*
X0565274Y0180068D01*
X0565177Y0180124D01*
X0565082Y0180184D01*
X0564989Y0180246D01*
X0564899Y0180312D01*
X0564811Y0180381D01*
X0564726Y0180453D01*
X0564643Y0180529D01*
X0564563Y0180607D01*
X0564485Y0180687D01*
X0564411Y0180771D01*
X0564340Y0180857D01*
X0564271Y0180945D01*
X0564206Y0181036D01*
X0564145Y0181130D01*
X0564086Y0181225D01*
X0564031Y0181322D01*
X0563980Y0181421D01*
X0563932Y0181522D01*
X0563887Y0181625D01*
X0563846Y0181729D01*
X0563809Y0181835D01*
X0563776Y0181941D01*
X0563747Y0182049D01*
X0563721Y0182158D01*
X0563699Y0182268D01*
X0563682Y0182378D01*
X0563668Y0182489D01*
X0563658Y0182601D01*
X0563652Y0182712D01*
X0563650Y0182824D01*
X0744831Y0136800D02*
X0744833Y0136888D01*
X0744839Y0136976D01*
X0744849Y0137064D01*
X0744863Y0137152D01*
X0744880Y0137238D01*
X0744902Y0137324D01*
X0744927Y0137408D01*
X0744957Y0137492D01*
X0744989Y0137574D01*
X0745026Y0137654D01*
X0745066Y0137733D01*
X0745110Y0137810D01*
X0745157Y0137885D01*
X0745207Y0137957D01*
X0745261Y0138028D01*
X0745317Y0138095D01*
X0745377Y0138161D01*
X0745439Y0138223D01*
X0745505Y0138283D01*
X0745572Y0138339D01*
X0745643Y0138393D01*
X0745715Y0138443D01*
X0745790Y0138490D01*
X0745867Y0138534D01*
X0745946Y0138574D01*
X0746026Y0138611D01*
X0746108Y0138643D01*
X0746192Y0138673D01*
X0746276Y0138698D01*
X0746362Y0138720D01*
X0746448Y0138737D01*
X0746536Y0138751D01*
X0746624Y0138761D01*
X0746712Y0138767D01*
X0746800Y0138769D01*
X0746888Y0138767D01*
X0746976Y0138761D01*
X0747064Y0138751D01*
X0747152Y0138737D01*
X0747238Y0138720D01*
X0747324Y0138698D01*
X0747408Y0138673D01*
X0747492Y0138643D01*
X0747574Y0138611D01*
X0747654Y0138574D01*
X0747733Y0138534D01*
X0747810Y0138490D01*
X0747885Y0138443D01*
X0747957Y0138393D01*
X0748028Y0138339D01*
X0748095Y0138283D01*
X0748161Y0138223D01*
X0748223Y0138161D01*
X0748283Y0138095D01*
X0748339Y0138028D01*
X0748393Y0137957D01*
X0748443Y0137885D01*
X0748490Y0137810D01*
X0748534Y0137733D01*
X0748574Y0137654D01*
X0748611Y0137574D01*
X0748643Y0137492D01*
X0748673Y0137408D01*
X0748698Y0137324D01*
X0748720Y0137238D01*
X0748737Y0137152D01*
X0748751Y0137064D01*
X0748761Y0136976D01*
X0748767Y0136888D01*
X0748769Y0136800D01*
X0748767Y0136712D01*
X0748761Y0136624D01*
X0748751Y0136536D01*
X0748737Y0136448D01*
X0748720Y0136362D01*
X0748698Y0136276D01*
X0748673Y0136192D01*
X0748643Y0136108D01*
X0748611Y0136026D01*
X0748574Y0135946D01*
X0748534Y0135867D01*
X0748490Y0135790D01*
X0748443Y0135715D01*
X0748393Y0135643D01*
X0748339Y0135572D01*
X0748283Y0135505D01*
X0748223Y0135439D01*
X0748161Y0135377D01*
X0748095Y0135317D01*
X0748028Y0135261D01*
X0747957Y0135207D01*
X0747885Y0135157D01*
X0747810Y0135110D01*
X0747733Y0135066D01*
X0747654Y0135026D01*
X0747574Y0134989D01*
X0747492Y0134957D01*
X0747408Y0134927D01*
X0747324Y0134902D01*
X0747238Y0134880D01*
X0747152Y0134863D01*
X0747064Y0134849D01*
X0746976Y0134839D01*
X0746888Y0134833D01*
X0746800Y0134831D01*
X0746712Y0134833D01*
X0746624Y0134839D01*
X0746536Y0134849D01*
X0746448Y0134863D01*
X0746362Y0134880D01*
X0746276Y0134902D01*
X0746192Y0134927D01*
X0746108Y0134957D01*
X0746026Y0134989D01*
X0745946Y0135026D01*
X0745867Y0135066D01*
X0745790Y0135110D01*
X0745715Y0135157D01*
X0745643Y0135207D01*
X0745572Y0135261D01*
X0745505Y0135317D01*
X0745439Y0135377D01*
X0745377Y0135439D01*
X0745317Y0135505D01*
X0745261Y0135572D01*
X0745207Y0135643D01*
X0745157Y0135715D01*
X0745110Y0135790D01*
X0745066Y0135867D01*
X0745026Y0135946D01*
X0744989Y0136026D01*
X0744957Y0136108D01*
X0744927Y0136192D01*
X0744902Y0136276D01*
X0744880Y0136362D01*
X0744863Y0136448D01*
X0744849Y0136536D01*
X0744839Y0136624D01*
X0744833Y0136712D01*
X0744831Y0136800D01*
X0744831Y0106800D02*
X0744833Y0106888D01*
X0744839Y0106976D01*
X0744849Y0107064D01*
X0744863Y0107152D01*
X0744880Y0107238D01*
X0744902Y0107324D01*
X0744927Y0107408D01*
X0744957Y0107492D01*
X0744989Y0107574D01*
X0745026Y0107654D01*
X0745066Y0107733D01*
X0745110Y0107810D01*
X0745157Y0107885D01*
X0745207Y0107957D01*
X0745261Y0108028D01*
X0745317Y0108095D01*
X0745377Y0108161D01*
X0745439Y0108223D01*
X0745505Y0108283D01*
X0745572Y0108339D01*
X0745643Y0108393D01*
X0745715Y0108443D01*
X0745790Y0108490D01*
X0745867Y0108534D01*
X0745946Y0108574D01*
X0746026Y0108611D01*
X0746108Y0108643D01*
X0746192Y0108673D01*
X0746276Y0108698D01*
X0746362Y0108720D01*
X0746448Y0108737D01*
X0746536Y0108751D01*
X0746624Y0108761D01*
X0746712Y0108767D01*
X0746800Y0108769D01*
X0746888Y0108767D01*
X0746976Y0108761D01*
X0747064Y0108751D01*
X0747152Y0108737D01*
X0747238Y0108720D01*
X0747324Y0108698D01*
X0747408Y0108673D01*
X0747492Y0108643D01*
X0747574Y0108611D01*
X0747654Y0108574D01*
X0747733Y0108534D01*
X0747810Y0108490D01*
X0747885Y0108443D01*
X0747957Y0108393D01*
X0748028Y0108339D01*
X0748095Y0108283D01*
X0748161Y0108223D01*
X0748223Y0108161D01*
X0748283Y0108095D01*
X0748339Y0108028D01*
X0748393Y0107957D01*
X0748443Y0107885D01*
X0748490Y0107810D01*
X0748534Y0107733D01*
X0748574Y0107654D01*
X0748611Y0107574D01*
X0748643Y0107492D01*
X0748673Y0107408D01*
X0748698Y0107324D01*
X0748720Y0107238D01*
X0748737Y0107152D01*
X0748751Y0107064D01*
X0748761Y0106976D01*
X0748767Y0106888D01*
X0748769Y0106800D01*
X0748767Y0106712D01*
X0748761Y0106624D01*
X0748751Y0106536D01*
X0748737Y0106448D01*
X0748720Y0106362D01*
X0748698Y0106276D01*
X0748673Y0106192D01*
X0748643Y0106108D01*
X0748611Y0106026D01*
X0748574Y0105946D01*
X0748534Y0105867D01*
X0748490Y0105790D01*
X0748443Y0105715D01*
X0748393Y0105643D01*
X0748339Y0105572D01*
X0748283Y0105505D01*
X0748223Y0105439D01*
X0748161Y0105377D01*
X0748095Y0105317D01*
X0748028Y0105261D01*
X0747957Y0105207D01*
X0747885Y0105157D01*
X0747810Y0105110D01*
X0747733Y0105066D01*
X0747654Y0105026D01*
X0747574Y0104989D01*
X0747492Y0104957D01*
X0747408Y0104927D01*
X0747324Y0104902D01*
X0747238Y0104880D01*
X0747152Y0104863D01*
X0747064Y0104849D01*
X0746976Y0104839D01*
X0746888Y0104833D01*
X0746800Y0104831D01*
X0746712Y0104833D01*
X0746624Y0104839D01*
X0746536Y0104849D01*
X0746448Y0104863D01*
X0746362Y0104880D01*
X0746276Y0104902D01*
X0746192Y0104927D01*
X0746108Y0104957D01*
X0746026Y0104989D01*
X0745946Y0105026D01*
X0745867Y0105066D01*
X0745790Y0105110D01*
X0745715Y0105157D01*
X0745643Y0105207D01*
X0745572Y0105261D01*
X0745505Y0105317D01*
X0745439Y0105377D01*
X0745377Y0105439D01*
X0745317Y0105505D01*
X0745261Y0105572D01*
X0745207Y0105643D01*
X0745157Y0105715D01*
X0745110Y0105790D01*
X0745066Y0105867D01*
X0745026Y0105946D01*
X0744989Y0106026D01*
X0744957Y0106108D01*
X0744927Y0106192D01*
X0744902Y0106276D01*
X0744880Y0106362D01*
X0744863Y0106448D01*
X0744849Y0106536D01*
X0744839Y0106624D01*
X0744833Y0106712D01*
X0744831Y0106800D01*
X0655800Y0394800D02*
X0482099Y0394800D01*
X0482099Y0628721D01*
X0655800Y0628721D01*
X0655800Y0394800D01*
X0624674Y0481800D02*
X0624676Y0481912D01*
X0624682Y0482023D01*
X0624692Y0482135D01*
X0624706Y0482246D01*
X0624723Y0482356D01*
X0624745Y0482466D01*
X0624771Y0482575D01*
X0624800Y0482683D01*
X0624833Y0482789D01*
X0624870Y0482895D01*
X0624911Y0482999D01*
X0624956Y0483102D01*
X0625004Y0483203D01*
X0625055Y0483302D01*
X0625110Y0483399D01*
X0625169Y0483494D01*
X0625230Y0483588D01*
X0625295Y0483679D01*
X0625364Y0483767D01*
X0625435Y0483853D01*
X0625509Y0483937D01*
X0625587Y0484017D01*
X0625667Y0484095D01*
X0625750Y0484171D01*
X0625835Y0484243D01*
X0625923Y0484312D01*
X0626013Y0484378D01*
X0626106Y0484440D01*
X0626201Y0484500D01*
X0626298Y0484556D01*
X0626396Y0484608D01*
X0626497Y0484657D01*
X0626599Y0484702D01*
X0626703Y0484744D01*
X0626808Y0484782D01*
X0626915Y0484816D01*
X0627022Y0484846D01*
X0627131Y0484873D01*
X0627240Y0484895D01*
X0627351Y0484914D01*
X0627461Y0484929D01*
X0627573Y0484940D01*
X0627684Y0484947D01*
X0627796Y0484950D01*
X0627908Y0484949D01*
X0628020Y0484944D01*
X0628131Y0484935D01*
X0628242Y0484922D01*
X0628353Y0484905D01*
X0628463Y0484885D01*
X0628572Y0484860D01*
X0628680Y0484832D01*
X0628787Y0484799D01*
X0628893Y0484763D01*
X0628997Y0484723D01*
X0629100Y0484680D01*
X0629202Y0484633D01*
X0629301Y0484582D01*
X0629399Y0484528D01*
X0629495Y0484470D01*
X0629589Y0484409D01*
X0629680Y0484345D01*
X0629769Y0484278D01*
X0629856Y0484207D01*
X0629940Y0484133D01*
X0630022Y0484057D01*
X0630100Y0483977D01*
X0630176Y0483895D01*
X0630249Y0483810D01*
X0630319Y0483723D01*
X0630385Y0483633D01*
X0630449Y0483541D01*
X0630509Y0483447D01*
X0630566Y0483351D01*
X0630619Y0483252D01*
X0630669Y0483152D01*
X0630715Y0483051D01*
X0630758Y0482947D01*
X0630797Y0482842D01*
X0630832Y0482736D01*
X0630863Y0482629D01*
X0630891Y0482520D01*
X0630914Y0482411D01*
X0630934Y0482301D01*
X0630950Y0482190D01*
X0630962Y0482079D01*
X0630970Y0481968D01*
X0630974Y0481856D01*
X0630974Y0481744D01*
X0630970Y0481632D01*
X0630962Y0481521D01*
X0630950Y0481410D01*
X0630934Y0481299D01*
X0630914Y0481189D01*
X0630891Y0481080D01*
X0630863Y0480971D01*
X0630832Y0480864D01*
X0630797Y0480758D01*
X0630758Y0480653D01*
X0630715Y0480549D01*
X0630669Y0480448D01*
X0630619Y0480348D01*
X0630566Y0480249D01*
X0630509Y0480153D01*
X0630449Y0480059D01*
X0630385Y0479967D01*
X0630319Y0479877D01*
X0630249Y0479790D01*
X0630176Y0479705D01*
X0630100Y0479623D01*
X0630022Y0479543D01*
X0629940Y0479467D01*
X0629856Y0479393D01*
X0629769Y0479322D01*
X0629680Y0479255D01*
X0629589Y0479191D01*
X0629495Y0479130D01*
X0629399Y0479072D01*
X0629301Y0479018D01*
X0629202Y0478967D01*
X0629100Y0478920D01*
X0628997Y0478877D01*
X0628893Y0478837D01*
X0628787Y0478801D01*
X0628680Y0478768D01*
X0628572Y0478740D01*
X0628463Y0478715D01*
X0628353Y0478695D01*
X0628242Y0478678D01*
X0628131Y0478665D01*
X0628020Y0478656D01*
X0627908Y0478651D01*
X0627796Y0478650D01*
X0627684Y0478653D01*
X0627573Y0478660D01*
X0627461Y0478671D01*
X0627351Y0478686D01*
X0627240Y0478705D01*
X0627131Y0478727D01*
X0627022Y0478754D01*
X0626915Y0478784D01*
X0626808Y0478818D01*
X0626703Y0478856D01*
X0626599Y0478898D01*
X0626497Y0478943D01*
X0626396Y0478992D01*
X0626298Y0479044D01*
X0626201Y0479100D01*
X0626106Y0479160D01*
X0626013Y0479222D01*
X0625923Y0479288D01*
X0625835Y0479357D01*
X0625750Y0479429D01*
X0625667Y0479505D01*
X0625587Y0479583D01*
X0625509Y0479663D01*
X0625435Y0479747D01*
X0625364Y0479833D01*
X0625295Y0479921D01*
X0625230Y0480012D01*
X0625169Y0480106D01*
X0625110Y0480201D01*
X0625055Y0480298D01*
X0625004Y0480397D01*
X0624956Y0480498D01*
X0624911Y0480601D01*
X0624870Y0480705D01*
X0624833Y0480811D01*
X0624800Y0480917D01*
X0624771Y0481025D01*
X0624745Y0481134D01*
X0624723Y0481244D01*
X0624706Y0481354D01*
X0624692Y0481465D01*
X0624682Y0481577D01*
X0624676Y0481688D01*
X0624674Y0481800D01*
X0502626Y0481800D02*
X0502628Y0481912D01*
X0502634Y0482023D01*
X0502644Y0482135D01*
X0502658Y0482246D01*
X0502675Y0482356D01*
X0502697Y0482466D01*
X0502723Y0482575D01*
X0502752Y0482683D01*
X0502785Y0482789D01*
X0502822Y0482895D01*
X0502863Y0482999D01*
X0502908Y0483102D01*
X0502956Y0483203D01*
X0503007Y0483302D01*
X0503062Y0483399D01*
X0503121Y0483494D01*
X0503182Y0483588D01*
X0503247Y0483679D01*
X0503316Y0483767D01*
X0503387Y0483853D01*
X0503461Y0483937D01*
X0503539Y0484017D01*
X0503619Y0484095D01*
X0503702Y0484171D01*
X0503787Y0484243D01*
X0503875Y0484312D01*
X0503965Y0484378D01*
X0504058Y0484440D01*
X0504153Y0484500D01*
X0504250Y0484556D01*
X0504348Y0484608D01*
X0504449Y0484657D01*
X0504551Y0484702D01*
X0504655Y0484744D01*
X0504760Y0484782D01*
X0504867Y0484816D01*
X0504974Y0484846D01*
X0505083Y0484873D01*
X0505192Y0484895D01*
X0505303Y0484914D01*
X0505413Y0484929D01*
X0505525Y0484940D01*
X0505636Y0484947D01*
X0505748Y0484950D01*
X0505860Y0484949D01*
X0505972Y0484944D01*
X0506083Y0484935D01*
X0506194Y0484922D01*
X0506305Y0484905D01*
X0506415Y0484885D01*
X0506524Y0484860D01*
X0506632Y0484832D01*
X0506739Y0484799D01*
X0506845Y0484763D01*
X0506949Y0484723D01*
X0507052Y0484680D01*
X0507154Y0484633D01*
X0507253Y0484582D01*
X0507351Y0484528D01*
X0507447Y0484470D01*
X0507541Y0484409D01*
X0507632Y0484345D01*
X0507721Y0484278D01*
X0507808Y0484207D01*
X0507892Y0484133D01*
X0507974Y0484057D01*
X0508052Y0483977D01*
X0508128Y0483895D01*
X0508201Y0483810D01*
X0508271Y0483723D01*
X0508337Y0483633D01*
X0508401Y0483541D01*
X0508461Y0483447D01*
X0508518Y0483351D01*
X0508571Y0483252D01*
X0508621Y0483152D01*
X0508667Y0483051D01*
X0508710Y0482947D01*
X0508749Y0482842D01*
X0508784Y0482736D01*
X0508815Y0482629D01*
X0508843Y0482520D01*
X0508866Y0482411D01*
X0508886Y0482301D01*
X0508902Y0482190D01*
X0508914Y0482079D01*
X0508922Y0481968D01*
X0508926Y0481856D01*
X0508926Y0481744D01*
X0508922Y0481632D01*
X0508914Y0481521D01*
X0508902Y0481410D01*
X0508886Y0481299D01*
X0508866Y0481189D01*
X0508843Y0481080D01*
X0508815Y0480971D01*
X0508784Y0480864D01*
X0508749Y0480758D01*
X0508710Y0480653D01*
X0508667Y0480549D01*
X0508621Y0480448D01*
X0508571Y0480348D01*
X0508518Y0480249D01*
X0508461Y0480153D01*
X0508401Y0480059D01*
X0508337Y0479967D01*
X0508271Y0479877D01*
X0508201Y0479790D01*
X0508128Y0479705D01*
X0508052Y0479623D01*
X0507974Y0479543D01*
X0507892Y0479467D01*
X0507808Y0479393D01*
X0507721Y0479322D01*
X0507632Y0479255D01*
X0507541Y0479191D01*
X0507447Y0479130D01*
X0507351Y0479072D01*
X0507253Y0479018D01*
X0507154Y0478967D01*
X0507052Y0478920D01*
X0506949Y0478877D01*
X0506845Y0478837D01*
X0506739Y0478801D01*
X0506632Y0478768D01*
X0506524Y0478740D01*
X0506415Y0478715D01*
X0506305Y0478695D01*
X0506194Y0478678D01*
X0506083Y0478665D01*
X0505972Y0478656D01*
X0505860Y0478651D01*
X0505748Y0478650D01*
X0505636Y0478653D01*
X0505525Y0478660D01*
X0505413Y0478671D01*
X0505303Y0478686D01*
X0505192Y0478705D01*
X0505083Y0478727D01*
X0504974Y0478754D01*
X0504867Y0478784D01*
X0504760Y0478818D01*
X0504655Y0478856D01*
X0504551Y0478898D01*
X0504449Y0478943D01*
X0504348Y0478992D01*
X0504250Y0479044D01*
X0504153Y0479100D01*
X0504058Y0479160D01*
X0503965Y0479222D01*
X0503875Y0479288D01*
X0503787Y0479357D01*
X0503702Y0479429D01*
X0503619Y0479505D01*
X0503539Y0479583D01*
X0503461Y0479663D01*
X0503387Y0479747D01*
X0503316Y0479833D01*
X0503247Y0479921D01*
X0503182Y0480012D01*
X0503121Y0480106D01*
X0503062Y0480201D01*
X0503007Y0480298D01*
X0502956Y0480397D01*
X0502908Y0480498D01*
X0502863Y0480601D01*
X0502822Y0480705D01*
X0502785Y0480811D01*
X0502752Y0480917D01*
X0502723Y0481025D01*
X0502697Y0481134D01*
X0502675Y0481244D01*
X0502658Y0481354D01*
X0502644Y0481465D01*
X0502634Y0481577D01*
X0502628Y0481688D01*
X0502626Y0481800D01*
X0542863Y0600800D02*
X0542865Y0600925D01*
X0542871Y0601050D01*
X0542881Y0601174D01*
X0542895Y0601298D01*
X0542912Y0601422D01*
X0542934Y0601545D01*
X0542960Y0601667D01*
X0542989Y0601789D01*
X0543022Y0601909D01*
X0543060Y0602028D01*
X0543100Y0602147D01*
X0543145Y0602263D01*
X0543193Y0602378D01*
X0543245Y0602492D01*
X0543301Y0602604D01*
X0543360Y0602714D01*
X0543422Y0602822D01*
X0543488Y0602929D01*
X0543557Y0603033D01*
X0543630Y0603134D01*
X0543705Y0603234D01*
X0543784Y0603331D01*
X0543866Y0603425D01*
X0543951Y0603517D01*
X0544038Y0603606D01*
X0544129Y0603692D01*
X0544222Y0603775D01*
X0544318Y0603856D01*
X0544416Y0603933D01*
X0544516Y0604007D01*
X0544619Y0604078D01*
X0544724Y0604145D01*
X0544832Y0604210D01*
X0544941Y0604270D01*
X0545052Y0604328D01*
X0545165Y0604381D01*
X0545279Y0604431D01*
X0545395Y0604478D01*
X0545512Y0604520D01*
X0545631Y0604559D01*
X0545751Y0604595D01*
X0545872Y0604626D01*
X0545994Y0604654D01*
X0546116Y0604677D01*
X0546240Y0604697D01*
X0546364Y0604713D01*
X0546488Y0604725D01*
X0546613Y0604733D01*
X0546738Y0604737D01*
X0546862Y0604737D01*
X0546987Y0604733D01*
X0547112Y0604725D01*
X0547236Y0604713D01*
X0547360Y0604697D01*
X0547484Y0604677D01*
X0547606Y0604654D01*
X0547728Y0604626D01*
X0547849Y0604595D01*
X0547969Y0604559D01*
X0548088Y0604520D01*
X0548205Y0604478D01*
X0548321Y0604431D01*
X0548435Y0604381D01*
X0548548Y0604328D01*
X0548659Y0604270D01*
X0548769Y0604210D01*
X0548876Y0604145D01*
X0548981Y0604078D01*
X0549084Y0604007D01*
X0549184Y0603933D01*
X0549282Y0603856D01*
X0549378Y0603775D01*
X0549471Y0603692D01*
X0549562Y0603606D01*
X0549649Y0603517D01*
X0549734Y0603425D01*
X0549816Y0603331D01*
X0549895Y0603234D01*
X0549970Y0603134D01*
X0550043Y0603033D01*
X0550112Y0602929D01*
X0550178Y0602822D01*
X0550240Y0602714D01*
X0550299Y0602604D01*
X0550355Y0602492D01*
X0550407Y0602378D01*
X0550455Y0602263D01*
X0550500Y0602147D01*
X0550540Y0602028D01*
X0550578Y0601909D01*
X0550611Y0601789D01*
X0550640Y0601667D01*
X0550666Y0601545D01*
X0550688Y0601422D01*
X0550705Y0601298D01*
X0550719Y0601174D01*
X0550729Y0601050D01*
X0550735Y0600925D01*
X0550737Y0600800D01*
X0550735Y0600675D01*
X0550729Y0600550D01*
X0550719Y0600426D01*
X0550705Y0600302D01*
X0550688Y0600178D01*
X0550666Y0600055D01*
X0550640Y0599933D01*
X0550611Y0599811D01*
X0550578Y0599691D01*
X0550540Y0599572D01*
X0550500Y0599453D01*
X0550455Y0599337D01*
X0550407Y0599222D01*
X0550355Y0599108D01*
X0550299Y0598996D01*
X0550240Y0598886D01*
X0550178Y0598778D01*
X0550112Y0598671D01*
X0550043Y0598567D01*
X0549970Y0598466D01*
X0549895Y0598366D01*
X0549816Y0598269D01*
X0549734Y0598175D01*
X0549649Y0598083D01*
X0549562Y0597994D01*
X0549471Y0597908D01*
X0549378Y0597825D01*
X0549282Y0597744D01*
X0549184Y0597667D01*
X0549084Y0597593D01*
X0548981Y0597522D01*
X0548876Y0597455D01*
X0548768Y0597390D01*
X0548659Y0597330D01*
X0548548Y0597272D01*
X0548435Y0597219D01*
X0548321Y0597169D01*
X0548205Y0597122D01*
X0548088Y0597080D01*
X0547969Y0597041D01*
X0547849Y0597005D01*
X0547728Y0596974D01*
X0547606Y0596946D01*
X0547484Y0596923D01*
X0547360Y0596903D01*
X0547236Y0596887D01*
X0547112Y0596875D01*
X0546987Y0596867D01*
X0546862Y0596863D01*
X0546738Y0596863D01*
X0546613Y0596867D01*
X0546488Y0596875D01*
X0546364Y0596887D01*
X0546240Y0596903D01*
X0546116Y0596923D01*
X0545994Y0596946D01*
X0545872Y0596974D01*
X0545751Y0597005D01*
X0545631Y0597041D01*
X0545512Y0597080D01*
X0545395Y0597122D01*
X0545279Y0597169D01*
X0545165Y0597219D01*
X0545052Y0597272D01*
X0544941Y0597330D01*
X0544831Y0597390D01*
X0544724Y0597455D01*
X0544619Y0597522D01*
X0544516Y0597593D01*
X0544416Y0597667D01*
X0544318Y0597744D01*
X0544222Y0597825D01*
X0544129Y0597908D01*
X0544038Y0597994D01*
X0543951Y0598083D01*
X0543866Y0598175D01*
X0543784Y0598269D01*
X0543705Y0598366D01*
X0543630Y0598466D01*
X0543557Y0598567D01*
X0543488Y0598671D01*
X0543422Y0598778D01*
X0543360Y0598886D01*
X0543301Y0598996D01*
X0543245Y0599108D01*
X0543193Y0599222D01*
X0543145Y0599337D01*
X0543100Y0599453D01*
X0543060Y0599572D01*
X0543022Y0599691D01*
X0542989Y0599811D01*
X0542960Y0599933D01*
X0542934Y0600055D01*
X0542912Y0600178D01*
X0542895Y0600302D01*
X0542881Y0600426D01*
X0542871Y0600550D01*
X0542865Y0600675D01*
X0542863Y0600800D01*
X0582863Y0600800D02*
X0582865Y0600925D01*
X0582871Y0601050D01*
X0582881Y0601174D01*
X0582895Y0601298D01*
X0582912Y0601422D01*
X0582934Y0601545D01*
X0582960Y0601667D01*
X0582989Y0601789D01*
X0583022Y0601909D01*
X0583060Y0602028D01*
X0583100Y0602147D01*
X0583145Y0602263D01*
X0583193Y0602378D01*
X0583245Y0602492D01*
X0583301Y0602604D01*
X0583360Y0602714D01*
X0583422Y0602822D01*
X0583488Y0602929D01*
X0583557Y0603033D01*
X0583630Y0603134D01*
X0583705Y0603234D01*
X0583784Y0603331D01*
X0583866Y0603425D01*
X0583951Y0603517D01*
X0584038Y0603606D01*
X0584129Y0603692D01*
X0584222Y0603775D01*
X0584318Y0603856D01*
X0584416Y0603933D01*
X0584516Y0604007D01*
X0584619Y0604078D01*
X0584724Y0604145D01*
X0584832Y0604210D01*
X0584941Y0604270D01*
X0585052Y0604328D01*
X0585165Y0604381D01*
X0585279Y0604431D01*
X0585395Y0604478D01*
X0585512Y0604520D01*
X0585631Y0604559D01*
X0585751Y0604595D01*
X0585872Y0604626D01*
X0585994Y0604654D01*
X0586116Y0604677D01*
X0586240Y0604697D01*
X0586364Y0604713D01*
X0586488Y0604725D01*
X0586613Y0604733D01*
X0586738Y0604737D01*
X0586862Y0604737D01*
X0586987Y0604733D01*
X0587112Y0604725D01*
X0587236Y0604713D01*
X0587360Y0604697D01*
X0587484Y0604677D01*
X0587606Y0604654D01*
X0587728Y0604626D01*
X0587849Y0604595D01*
X0587969Y0604559D01*
X0588088Y0604520D01*
X0588205Y0604478D01*
X0588321Y0604431D01*
X0588435Y0604381D01*
X0588548Y0604328D01*
X0588659Y0604270D01*
X0588769Y0604210D01*
X0588876Y0604145D01*
X0588981Y0604078D01*
X0589084Y0604007D01*
X0589184Y0603933D01*
X0589282Y0603856D01*
X0589378Y0603775D01*
X0589471Y0603692D01*
X0589562Y0603606D01*
X0589649Y0603517D01*
X0589734Y0603425D01*
X0589816Y0603331D01*
X0589895Y0603234D01*
X0589970Y0603134D01*
X0590043Y0603033D01*
X0590112Y0602929D01*
X0590178Y0602822D01*
X0590240Y0602714D01*
X0590299Y0602604D01*
X0590355Y0602492D01*
X0590407Y0602378D01*
X0590455Y0602263D01*
X0590500Y0602147D01*
X0590540Y0602028D01*
X0590578Y0601909D01*
X0590611Y0601789D01*
X0590640Y0601667D01*
X0590666Y0601545D01*
X0590688Y0601422D01*
X0590705Y0601298D01*
X0590719Y0601174D01*
X0590729Y0601050D01*
X0590735Y0600925D01*
X0590737Y0600800D01*
X0590735Y0600675D01*
X0590729Y0600550D01*
X0590719Y0600426D01*
X0590705Y0600302D01*
X0590688Y0600178D01*
X0590666Y0600055D01*
X0590640Y0599933D01*
X0590611Y0599811D01*
X0590578Y0599691D01*
X0590540Y0599572D01*
X0590500Y0599453D01*
X0590455Y0599337D01*
X0590407Y0599222D01*
X0590355Y0599108D01*
X0590299Y0598996D01*
X0590240Y0598886D01*
X0590178Y0598778D01*
X0590112Y0598671D01*
X0590043Y0598567D01*
X0589970Y0598466D01*
X0589895Y0598366D01*
X0589816Y0598269D01*
X0589734Y0598175D01*
X0589649Y0598083D01*
X0589562Y0597994D01*
X0589471Y0597908D01*
X0589378Y0597825D01*
X0589282Y0597744D01*
X0589184Y0597667D01*
X0589084Y0597593D01*
X0588981Y0597522D01*
X0588876Y0597455D01*
X0588768Y0597390D01*
X0588659Y0597330D01*
X0588548Y0597272D01*
X0588435Y0597219D01*
X0588321Y0597169D01*
X0588205Y0597122D01*
X0588088Y0597080D01*
X0587969Y0597041D01*
X0587849Y0597005D01*
X0587728Y0596974D01*
X0587606Y0596946D01*
X0587484Y0596923D01*
X0587360Y0596903D01*
X0587236Y0596887D01*
X0587112Y0596875D01*
X0586987Y0596867D01*
X0586862Y0596863D01*
X0586738Y0596863D01*
X0586613Y0596867D01*
X0586488Y0596875D01*
X0586364Y0596887D01*
X0586240Y0596903D01*
X0586116Y0596923D01*
X0585994Y0596946D01*
X0585872Y0596974D01*
X0585751Y0597005D01*
X0585631Y0597041D01*
X0585512Y0597080D01*
X0585395Y0597122D01*
X0585279Y0597169D01*
X0585165Y0597219D01*
X0585052Y0597272D01*
X0584941Y0597330D01*
X0584831Y0597390D01*
X0584724Y0597455D01*
X0584619Y0597522D01*
X0584516Y0597593D01*
X0584416Y0597667D01*
X0584318Y0597744D01*
X0584222Y0597825D01*
X0584129Y0597908D01*
X0584038Y0597994D01*
X0583951Y0598083D01*
X0583866Y0598175D01*
X0583784Y0598269D01*
X0583705Y0598366D01*
X0583630Y0598466D01*
X0583557Y0598567D01*
X0583488Y0598671D01*
X0583422Y0598778D01*
X0583360Y0598886D01*
X0583301Y0598996D01*
X0583245Y0599108D01*
X0583193Y0599222D01*
X0583145Y0599337D01*
X0583100Y0599453D01*
X0583060Y0599572D01*
X0583022Y0599691D01*
X0582989Y0599811D01*
X0582960Y0599933D01*
X0582934Y0600055D01*
X0582912Y0600178D01*
X0582895Y0600302D01*
X0582881Y0600426D01*
X0582871Y0600550D01*
X0582865Y0600675D01*
X0582863Y0600800D01*
X0579831Y0661800D02*
X0579833Y0661888D01*
X0579839Y0661976D01*
X0579849Y0662064D01*
X0579863Y0662152D01*
X0579880Y0662238D01*
X0579902Y0662324D01*
X0579927Y0662408D01*
X0579957Y0662492D01*
X0579989Y0662574D01*
X0580026Y0662654D01*
X0580066Y0662733D01*
X0580110Y0662810D01*
X0580157Y0662885D01*
X0580207Y0662957D01*
X0580261Y0663028D01*
X0580317Y0663095D01*
X0580377Y0663161D01*
X0580439Y0663223D01*
X0580505Y0663283D01*
X0580572Y0663339D01*
X0580643Y0663393D01*
X0580715Y0663443D01*
X0580790Y0663490D01*
X0580867Y0663534D01*
X0580946Y0663574D01*
X0581026Y0663611D01*
X0581108Y0663643D01*
X0581192Y0663673D01*
X0581276Y0663698D01*
X0581362Y0663720D01*
X0581448Y0663737D01*
X0581536Y0663751D01*
X0581624Y0663761D01*
X0581712Y0663767D01*
X0581800Y0663769D01*
X0581888Y0663767D01*
X0581976Y0663761D01*
X0582064Y0663751D01*
X0582152Y0663737D01*
X0582238Y0663720D01*
X0582324Y0663698D01*
X0582408Y0663673D01*
X0582492Y0663643D01*
X0582574Y0663611D01*
X0582654Y0663574D01*
X0582733Y0663534D01*
X0582810Y0663490D01*
X0582885Y0663443D01*
X0582957Y0663393D01*
X0583028Y0663339D01*
X0583095Y0663283D01*
X0583161Y0663223D01*
X0583223Y0663161D01*
X0583283Y0663095D01*
X0583339Y0663028D01*
X0583393Y0662957D01*
X0583443Y0662885D01*
X0583490Y0662810D01*
X0583534Y0662733D01*
X0583574Y0662654D01*
X0583611Y0662574D01*
X0583643Y0662492D01*
X0583673Y0662408D01*
X0583698Y0662324D01*
X0583720Y0662238D01*
X0583737Y0662152D01*
X0583751Y0662064D01*
X0583761Y0661976D01*
X0583767Y0661888D01*
X0583769Y0661800D01*
X0583767Y0661712D01*
X0583761Y0661624D01*
X0583751Y0661536D01*
X0583737Y0661448D01*
X0583720Y0661362D01*
X0583698Y0661276D01*
X0583673Y0661192D01*
X0583643Y0661108D01*
X0583611Y0661026D01*
X0583574Y0660946D01*
X0583534Y0660867D01*
X0583490Y0660790D01*
X0583443Y0660715D01*
X0583393Y0660643D01*
X0583339Y0660572D01*
X0583283Y0660505D01*
X0583223Y0660439D01*
X0583161Y0660377D01*
X0583095Y0660317D01*
X0583028Y0660261D01*
X0582957Y0660207D01*
X0582885Y0660157D01*
X0582810Y0660110D01*
X0582733Y0660066D01*
X0582654Y0660026D01*
X0582574Y0659989D01*
X0582492Y0659957D01*
X0582408Y0659927D01*
X0582324Y0659902D01*
X0582238Y0659880D01*
X0582152Y0659863D01*
X0582064Y0659849D01*
X0581976Y0659839D01*
X0581888Y0659833D01*
X0581800Y0659831D01*
X0581712Y0659833D01*
X0581624Y0659839D01*
X0581536Y0659849D01*
X0581448Y0659863D01*
X0581362Y0659880D01*
X0581276Y0659902D01*
X0581192Y0659927D01*
X0581108Y0659957D01*
X0581026Y0659989D01*
X0580946Y0660026D01*
X0580867Y0660066D01*
X0580790Y0660110D01*
X0580715Y0660157D01*
X0580643Y0660207D01*
X0580572Y0660261D01*
X0580505Y0660317D01*
X0580439Y0660377D01*
X0580377Y0660439D01*
X0580317Y0660505D01*
X0580261Y0660572D01*
X0580207Y0660643D01*
X0580157Y0660715D01*
X0580110Y0660790D01*
X0580066Y0660867D01*
X0580026Y0660946D01*
X0579989Y0661026D01*
X0579957Y0661108D01*
X0579927Y0661192D01*
X0579902Y0661276D01*
X0579880Y0661362D01*
X0579863Y0661448D01*
X0579849Y0661536D01*
X0579839Y0661624D01*
X0579833Y0661712D01*
X0579831Y0661800D01*
X0549831Y0661800D02*
X0549833Y0661888D01*
X0549839Y0661976D01*
X0549849Y0662064D01*
X0549863Y0662152D01*
X0549880Y0662238D01*
X0549902Y0662324D01*
X0549927Y0662408D01*
X0549957Y0662492D01*
X0549989Y0662574D01*
X0550026Y0662654D01*
X0550066Y0662733D01*
X0550110Y0662810D01*
X0550157Y0662885D01*
X0550207Y0662957D01*
X0550261Y0663028D01*
X0550317Y0663095D01*
X0550377Y0663161D01*
X0550439Y0663223D01*
X0550505Y0663283D01*
X0550572Y0663339D01*
X0550643Y0663393D01*
X0550715Y0663443D01*
X0550790Y0663490D01*
X0550867Y0663534D01*
X0550946Y0663574D01*
X0551026Y0663611D01*
X0551108Y0663643D01*
X0551192Y0663673D01*
X0551276Y0663698D01*
X0551362Y0663720D01*
X0551448Y0663737D01*
X0551536Y0663751D01*
X0551624Y0663761D01*
X0551712Y0663767D01*
X0551800Y0663769D01*
X0551888Y0663767D01*
X0551976Y0663761D01*
X0552064Y0663751D01*
X0552152Y0663737D01*
X0552238Y0663720D01*
X0552324Y0663698D01*
X0552408Y0663673D01*
X0552492Y0663643D01*
X0552574Y0663611D01*
X0552654Y0663574D01*
X0552733Y0663534D01*
X0552810Y0663490D01*
X0552885Y0663443D01*
X0552957Y0663393D01*
X0553028Y0663339D01*
X0553095Y0663283D01*
X0553161Y0663223D01*
X0553223Y0663161D01*
X0553283Y0663095D01*
X0553339Y0663028D01*
X0553393Y0662957D01*
X0553443Y0662885D01*
X0553490Y0662810D01*
X0553534Y0662733D01*
X0553574Y0662654D01*
X0553611Y0662574D01*
X0553643Y0662492D01*
X0553673Y0662408D01*
X0553698Y0662324D01*
X0553720Y0662238D01*
X0553737Y0662152D01*
X0553751Y0662064D01*
X0553761Y0661976D01*
X0553767Y0661888D01*
X0553769Y0661800D01*
X0553767Y0661712D01*
X0553761Y0661624D01*
X0553751Y0661536D01*
X0553737Y0661448D01*
X0553720Y0661362D01*
X0553698Y0661276D01*
X0553673Y0661192D01*
X0553643Y0661108D01*
X0553611Y0661026D01*
X0553574Y0660946D01*
X0553534Y0660867D01*
X0553490Y0660790D01*
X0553443Y0660715D01*
X0553393Y0660643D01*
X0553339Y0660572D01*
X0553283Y0660505D01*
X0553223Y0660439D01*
X0553161Y0660377D01*
X0553095Y0660317D01*
X0553028Y0660261D01*
X0552957Y0660207D01*
X0552885Y0660157D01*
X0552810Y0660110D01*
X0552733Y0660066D01*
X0552654Y0660026D01*
X0552574Y0659989D01*
X0552492Y0659957D01*
X0552408Y0659927D01*
X0552324Y0659902D01*
X0552238Y0659880D01*
X0552152Y0659863D01*
X0552064Y0659849D01*
X0551976Y0659839D01*
X0551888Y0659833D01*
X0551800Y0659831D01*
X0551712Y0659833D01*
X0551624Y0659839D01*
X0551536Y0659849D01*
X0551448Y0659863D01*
X0551362Y0659880D01*
X0551276Y0659902D01*
X0551192Y0659927D01*
X0551108Y0659957D01*
X0551026Y0659989D01*
X0550946Y0660026D01*
X0550867Y0660066D01*
X0550790Y0660110D01*
X0550715Y0660157D01*
X0550643Y0660207D01*
X0550572Y0660261D01*
X0550505Y0660317D01*
X0550439Y0660377D01*
X0550377Y0660439D01*
X0550317Y0660505D01*
X0550261Y0660572D01*
X0550207Y0660643D01*
X0550157Y0660715D01*
X0550110Y0660790D01*
X0550066Y0660867D01*
X0550026Y0660946D01*
X0549989Y0661026D01*
X0549957Y0661108D01*
X0549927Y0661192D01*
X0549902Y0661276D01*
X0549880Y0661362D01*
X0549863Y0661448D01*
X0549849Y0661536D01*
X0549839Y0661624D01*
X0549833Y0661712D01*
X0549831Y0661800D01*
X0439325Y0626800D02*
X0439327Y0626983D01*
X0439334Y0627167D01*
X0439345Y0627350D01*
X0439361Y0627533D01*
X0439381Y0627715D01*
X0439406Y0627897D01*
X0439435Y0628078D01*
X0439469Y0628258D01*
X0439507Y0628438D01*
X0439549Y0628616D01*
X0439596Y0628794D01*
X0439647Y0628970D01*
X0439702Y0629145D01*
X0439762Y0629318D01*
X0439826Y0629490D01*
X0439894Y0629661D01*
X0439966Y0629829D01*
X0440043Y0629996D01*
X0440123Y0630161D01*
X0440208Y0630324D01*
X0440296Y0630484D01*
X0440388Y0630643D01*
X0440485Y0630799D01*
X0440585Y0630953D01*
X0440689Y0631104D01*
X0440796Y0631253D01*
X0440907Y0631399D01*
X0441022Y0631542D01*
X0441140Y0631682D01*
X0441261Y0631820D01*
X0441386Y0631954D01*
X0441514Y0632086D01*
X0441646Y0632214D01*
X0441780Y0632339D01*
X0441918Y0632460D01*
X0442058Y0632578D01*
X0442201Y0632693D01*
X0442347Y0632804D01*
X0442496Y0632911D01*
X0442647Y0633015D01*
X0442801Y0633115D01*
X0442957Y0633212D01*
X0443116Y0633304D01*
X0443276Y0633392D01*
X0443439Y0633477D01*
X0443604Y0633557D01*
X0443771Y0633634D01*
X0443939Y0633706D01*
X0444110Y0633774D01*
X0444282Y0633838D01*
X0444455Y0633898D01*
X0444630Y0633953D01*
X0444806Y0634004D01*
X0444984Y0634051D01*
X0445162Y0634093D01*
X0445342Y0634131D01*
X0445522Y0634165D01*
X0445703Y0634194D01*
X0445885Y0634219D01*
X0446067Y0634239D01*
X0446250Y0634255D01*
X0446433Y0634266D01*
X0446617Y0634273D01*
X0446800Y0634275D01*
X0446983Y0634273D01*
X0447167Y0634266D01*
X0447350Y0634255D01*
X0447533Y0634239D01*
X0447715Y0634219D01*
X0447897Y0634194D01*
X0448078Y0634165D01*
X0448258Y0634131D01*
X0448438Y0634093D01*
X0448616Y0634051D01*
X0448794Y0634004D01*
X0448970Y0633953D01*
X0449145Y0633898D01*
X0449318Y0633838D01*
X0449490Y0633774D01*
X0449661Y0633706D01*
X0449829Y0633634D01*
X0449996Y0633557D01*
X0450161Y0633477D01*
X0450324Y0633392D01*
X0450484Y0633304D01*
X0450643Y0633212D01*
X0450799Y0633115D01*
X0450953Y0633015D01*
X0451104Y0632911D01*
X0451253Y0632804D01*
X0451399Y0632693D01*
X0451542Y0632578D01*
X0451682Y0632460D01*
X0451820Y0632339D01*
X0451954Y0632214D01*
X0452086Y0632086D01*
X0452214Y0631954D01*
X0452339Y0631820D01*
X0452460Y0631682D01*
X0452578Y0631542D01*
X0452693Y0631399D01*
X0452804Y0631253D01*
X0452911Y0631104D01*
X0453015Y0630953D01*
X0453115Y0630799D01*
X0453212Y0630643D01*
X0453304Y0630484D01*
X0453392Y0630324D01*
X0453477Y0630161D01*
X0453557Y0629996D01*
X0453634Y0629829D01*
X0453706Y0629661D01*
X0453774Y0629490D01*
X0453838Y0629318D01*
X0453898Y0629145D01*
X0453953Y0628970D01*
X0454004Y0628794D01*
X0454051Y0628616D01*
X0454093Y0628438D01*
X0454131Y0628258D01*
X0454165Y0628078D01*
X0454194Y0627897D01*
X0454219Y0627715D01*
X0454239Y0627533D01*
X0454255Y0627350D01*
X0454266Y0627167D01*
X0454273Y0626983D01*
X0454275Y0626800D01*
X0454273Y0626617D01*
X0454266Y0626433D01*
X0454255Y0626250D01*
X0454239Y0626067D01*
X0454219Y0625885D01*
X0454194Y0625703D01*
X0454165Y0625522D01*
X0454131Y0625342D01*
X0454093Y0625162D01*
X0454051Y0624984D01*
X0454004Y0624806D01*
X0453953Y0624630D01*
X0453898Y0624455D01*
X0453838Y0624282D01*
X0453774Y0624110D01*
X0453706Y0623939D01*
X0453634Y0623771D01*
X0453557Y0623604D01*
X0453477Y0623439D01*
X0453392Y0623276D01*
X0453304Y0623116D01*
X0453212Y0622957D01*
X0453115Y0622801D01*
X0453015Y0622647D01*
X0452911Y0622496D01*
X0452804Y0622347D01*
X0452693Y0622201D01*
X0452578Y0622058D01*
X0452460Y0621918D01*
X0452339Y0621780D01*
X0452214Y0621646D01*
X0452086Y0621514D01*
X0451954Y0621386D01*
X0451820Y0621261D01*
X0451682Y0621140D01*
X0451542Y0621022D01*
X0451399Y0620907D01*
X0451253Y0620796D01*
X0451104Y0620689D01*
X0450953Y0620585D01*
X0450799Y0620485D01*
X0450643Y0620388D01*
X0450484Y0620296D01*
X0450324Y0620208D01*
X0450161Y0620123D01*
X0449996Y0620043D01*
X0449829Y0619966D01*
X0449661Y0619894D01*
X0449490Y0619826D01*
X0449318Y0619762D01*
X0449145Y0619702D01*
X0448970Y0619647D01*
X0448794Y0619596D01*
X0448616Y0619549D01*
X0448438Y0619507D01*
X0448258Y0619469D01*
X0448078Y0619435D01*
X0447897Y0619406D01*
X0447715Y0619381D01*
X0447533Y0619361D01*
X0447350Y0619345D01*
X0447167Y0619334D01*
X0446983Y0619327D01*
X0446800Y0619325D01*
X0446617Y0619327D01*
X0446433Y0619334D01*
X0446250Y0619345D01*
X0446067Y0619361D01*
X0445885Y0619381D01*
X0445703Y0619406D01*
X0445522Y0619435D01*
X0445342Y0619469D01*
X0445162Y0619507D01*
X0444984Y0619549D01*
X0444806Y0619596D01*
X0444630Y0619647D01*
X0444455Y0619702D01*
X0444282Y0619762D01*
X0444110Y0619826D01*
X0443939Y0619894D01*
X0443771Y0619966D01*
X0443604Y0620043D01*
X0443439Y0620123D01*
X0443276Y0620208D01*
X0443116Y0620296D01*
X0442957Y0620388D01*
X0442801Y0620485D01*
X0442647Y0620585D01*
X0442496Y0620689D01*
X0442347Y0620796D01*
X0442201Y0620907D01*
X0442058Y0621022D01*
X0441918Y0621140D01*
X0441780Y0621261D01*
X0441646Y0621386D01*
X0441514Y0621514D01*
X0441386Y0621646D01*
X0441261Y0621780D01*
X0441140Y0621918D01*
X0441022Y0622058D01*
X0440907Y0622201D01*
X0440796Y0622347D01*
X0440689Y0622496D01*
X0440585Y0622647D01*
X0440485Y0622801D01*
X0440388Y0622957D01*
X0440296Y0623116D01*
X0440208Y0623276D01*
X0440123Y0623439D01*
X0440043Y0623604D01*
X0439966Y0623771D01*
X0439894Y0623939D01*
X0439826Y0624110D01*
X0439762Y0624282D01*
X0439702Y0624455D01*
X0439647Y0624630D01*
X0439596Y0624806D01*
X0439549Y0624984D01*
X0439507Y0625162D01*
X0439469Y0625342D01*
X0439435Y0625522D01*
X0439406Y0625703D01*
X0439381Y0625885D01*
X0439361Y0626067D01*
X0439345Y0626250D01*
X0439334Y0626433D01*
X0439327Y0626617D01*
X0439325Y0626800D01*
X0017325Y0628800D02*
X0017327Y0628983D01*
X0017334Y0629167D01*
X0017345Y0629350D01*
X0017361Y0629533D01*
X0017381Y0629715D01*
X0017406Y0629897D01*
X0017435Y0630078D01*
X0017469Y0630258D01*
X0017507Y0630438D01*
X0017549Y0630616D01*
X0017596Y0630794D01*
X0017647Y0630970D01*
X0017702Y0631145D01*
X0017762Y0631318D01*
X0017826Y0631490D01*
X0017894Y0631661D01*
X0017966Y0631829D01*
X0018043Y0631996D01*
X0018123Y0632161D01*
X0018208Y0632324D01*
X0018296Y0632484D01*
X0018388Y0632643D01*
X0018485Y0632799D01*
X0018585Y0632953D01*
X0018689Y0633104D01*
X0018796Y0633253D01*
X0018907Y0633399D01*
X0019022Y0633542D01*
X0019140Y0633682D01*
X0019261Y0633820D01*
X0019386Y0633954D01*
X0019514Y0634086D01*
X0019646Y0634214D01*
X0019780Y0634339D01*
X0019918Y0634460D01*
X0020058Y0634578D01*
X0020201Y0634693D01*
X0020347Y0634804D01*
X0020496Y0634911D01*
X0020647Y0635015D01*
X0020801Y0635115D01*
X0020957Y0635212D01*
X0021116Y0635304D01*
X0021276Y0635392D01*
X0021439Y0635477D01*
X0021604Y0635557D01*
X0021771Y0635634D01*
X0021939Y0635706D01*
X0022110Y0635774D01*
X0022282Y0635838D01*
X0022455Y0635898D01*
X0022630Y0635953D01*
X0022806Y0636004D01*
X0022984Y0636051D01*
X0023162Y0636093D01*
X0023342Y0636131D01*
X0023522Y0636165D01*
X0023703Y0636194D01*
X0023885Y0636219D01*
X0024067Y0636239D01*
X0024250Y0636255D01*
X0024433Y0636266D01*
X0024617Y0636273D01*
X0024800Y0636275D01*
X0024983Y0636273D01*
X0025167Y0636266D01*
X0025350Y0636255D01*
X0025533Y0636239D01*
X0025715Y0636219D01*
X0025897Y0636194D01*
X0026078Y0636165D01*
X0026258Y0636131D01*
X0026438Y0636093D01*
X0026616Y0636051D01*
X0026794Y0636004D01*
X0026970Y0635953D01*
X0027145Y0635898D01*
X0027318Y0635838D01*
X0027490Y0635774D01*
X0027661Y0635706D01*
X0027829Y0635634D01*
X0027996Y0635557D01*
X0028161Y0635477D01*
X0028324Y0635392D01*
X0028484Y0635304D01*
X0028643Y0635212D01*
X0028799Y0635115D01*
X0028953Y0635015D01*
X0029104Y0634911D01*
X0029253Y0634804D01*
X0029399Y0634693D01*
X0029542Y0634578D01*
X0029682Y0634460D01*
X0029820Y0634339D01*
X0029954Y0634214D01*
X0030086Y0634086D01*
X0030214Y0633954D01*
X0030339Y0633820D01*
X0030460Y0633682D01*
X0030578Y0633542D01*
X0030693Y0633399D01*
X0030804Y0633253D01*
X0030911Y0633104D01*
X0031015Y0632953D01*
X0031115Y0632799D01*
X0031212Y0632643D01*
X0031304Y0632484D01*
X0031392Y0632324D01*
X0031477Y0632161D01*
X0031557Y0631996D01*
X0031634Y0631829D01*
X0031706Y0631661D01*
X0031774Y0631490D01*
X0031838Y0631318D01*
X0031898Y0631145D01*
X0031953Y0630970D01*
X0032004Y0630794D01*
X0032051Y0630616D01*
X0032093Y0630438D01*
X0032131Y0630258D01*
X0032165Y0630078D01*
X0032194Y0629897D01*
X0032219Y0629715D01*
X0032239Y0629533D01*
X0032255Y0629350D01*
X0032266Y0629167D01*
X0032273Y0628983D01*
X0032275Y0628800D01*
X0032273Y0628617D01*
X0032266Y0628433D01*
X0032255Y0628250D01*
X0032239Y0628067D01*
X0032219Y0627885D01*
X0032194Y0627703D01*
X0032165Y0627522D01*
X0032131Y0627342D01*
X0032093Y0627162D01*
X0032051Y0626984D01*
X0032004Y0626806D01*
X0031953Y0626630D01*
X0031898Y0626455D01*
X0031838Y0626282D01*
X0031774Y0626110D01*
X0031706Y0625939D01*
X0031634Y0625771D01*
X0031557Y0625604D01*
X0031477Y0625439D01*
X0031392Y0625276D01*
X0031304Y0625116D01*
X0031212Y0624957D01*
X0031115Y0624801D01*
X0031015Y0624647D01*
X0030911Y0624496D01*
X0030804Y0624347D01*
X0030693Y0624201D01*
X0030578Y0624058D01*
X0030460Y0623918D01*
X0030339Y0623780D01*
X0030214Y0623646D01*
X0030086Y0623514D01*
X0029954Y0623386D01*
X0029820Y0623261D01*
X0029682Y0623140D01*
X0029542Y0623022D01*
X0029399Y0622907D01*
X0029253Y0622796D01*
X0029104Y0622689D01*
X0028953Y0622585D01*
X0028799Y0622485D01*
X0028643Y0622388D01*
X0028484Y0622296D01*
X0028324Y0622208D01*
X0028161Y0622123D01*
X0027996Y0622043D01*
X0027829Y0621966D01*
X0027661Y0621894D01*
X0027490Y0621826D01*
X0027318Y0621762D01*
X0027145Y0621702D01*
X0026970Y0621647D01*
X0026794Y0621596D01*
X0026616Y0621549D01*
X0026438Y0621507D01*
X0026258Y0621469D01*
X0026078Y0621435D01*
X0025897Y0621406D01*
X0025715Y0621381D01*
X0025533Y0621361D01*
X0025350Y0621345D01*
X0025167Y0621334D01*
X0024983Y0621327D01*
X0024800Y0621325D01*
X0024617Y0621327D01*
X0024433Y0621334D01*
X0024250Y0621345D01*
X0024067Y0621361D01*
X0023885Y0621381D01*
X0023703Y0621406D01*
X0023522Y0621435D01*
X0023342Y0621469D01*
X0023162Y0621507D01*
X0022984Y0621549D01*
X0022806Y0621596D01*
X0022630Y0621647D01*
X0022455Y0621702D01*
X0022282Y0621762D01*
X0022110Y0621826D01*
X0021939Y0621894D01*
X0021771Y0621966D01*
X0021604Y0622043D01*
X0021439Y0622123D01*
X0021276Y0622208D01*
X0021116Y0622296D01*
X0020957Y0622388D01*
X0020801Y0622485D01*
X0020647Y0622585D01*
X0020496Y0622689D01*
X0020347Y0622796D01*
X0020201Y0622907D01*
X0020058Y0623022D01*
X0019918Y0623140D01*
X0019780Y0623261D01*
X0019646Y0623386D01*
X0019514Y0623514D01*
X0019386Y0623646D01*
X0019261Y0623780D01*
X0019140Y0623918D01*
X0019022Y0624058D01*
X0018907Y0624201D01*
X0018796Y0624347D01*
X0018689Y0624496D01*
X0018585Y0624647D01*
X0018485Y0624801D01*
X0018388Y0624957D01*
X0018296Y0625116D01*
X0018208Y0625276D01*
X0018123Y0625439D01*
X0018043Y0625604D01*
X0017966Y0625771D01*
X0017894Y0625939D01*
X0017826Y0626110D01*
X0017762Y0626282D01*
X0017702Y0626455D01*
X0017647Y0626630D01*
X0017596Y0626806D01*
X0017549Y0626984D01*
X0017507Y0627162D01*
X0017469Y0627342D01*
X0017435Y0627522D01*
X0017406Y0627703D01*
X0017381Y0627885D01*
X0017361Y0628067D01*
X0017345Y0628250D01*
X0017334Y0628433D01*
X0017327Y0628617D01*
X0017325Y0628800D01*
D11*
X0023780Y0607595D02*
X0033820Y0607595D01*
X0033820Y0592005D02*
X0023780Y0592005D01*
X0088780Y0603005D02*
X0098820Y0603005D01*
X0098820Y0618595D02*
X0088780Y0618595D01*
D12*
X0042800Y0232800D03*
D13*
X0032761Y0222761D03*
X0032761Y0242839D03*
X0052839Y0242839D03*
X0052839Y0222761D03*
D14*
X0151060Y0247800D03*
X0158540Y0247800D03*
X0174060Y0247800D03*
X0181540Y0247800D03*
X0223060Y0216800D03*
X0230540Y0216800D03*
X0263060Y0232800D03*
X0270540Y0232800D03*
X0232540Y0276800D03*
X0225060Y0276800D03*
X0263060Y0295800D03*
X0270540Y0295800D03*
X0270540Y0316800D03*
X0263060Y0316800D03*
X0234540Y0335800D03*
X0227060Y0335800D03*
X0261060Y0386800D03*
X0268540Y0386800D03*
X0304060Y0379800D03*
X0311540Y0379800D03*
X0313540Y0404800D03*
X0306060Y0404800D03*
X0267540Y0457800D03*
X0260060Y0457800D03*
X0234540Y0475800D03*
X0227060Y0475800D03*
X0187540Y0447800D03*
X0180060Y0447800D03*
X0163540Y0447800D03*
X0156060Y0447800D03*
X0226060Y0403800D03*
X0233540Y0403800D03*
X0383060Y0478800D03*
X0390540Y0478800D03*
X0316540Y0541800D03*
X0309060Y0541800D03*
X0269540Y0531800D03*
X0262060Y0531800D03*
X0234540Y0550800D03*
X0227060Y0550800D03*
X0261060Y0169800D03*
X0268540Y0169800D03*
X0228540Y0142800D03*
X0221060Y0142800D03*
X0261060Y0106800D03*
X0268540Y0106800D03*
X0228540Y0081800D03*
X0221060Y0081800D03*
X0296060Y0053800D03*
X0303540Y0053800D03*
D15*
X0303800Y0074200D02*
X0303800Y0079400D01*
X0313800Y0084200D02*
X0313800Y0089400D01*
X0323800Y0079400D02*
X0323800Y0074200D01*
X0314800Y0130200D02*
X0314800Y0135400D01*
X0324800Y0140200D02*
X0324800Y0145400D01*
X0334800Y0135400D02*
X0334800Y0130200D01*
X0334800Y0199200D02*
X0334800Y0204400D01*
X0324800Y0209200D02*
X0324800Y0214400D01*
X0314800Y0204400D02*
X0314800Y0199200D01*
X0311800Y0276200D02*
X0311800Y0281400D01*
X0321800Y0286200D02*
X0321800Y0291400D01*
X0331800Y0281400D02*
X0331800Y0276200D01*
X0312400Y0344800D02*
X0307200Y0344800D01*
X0302400Y0354800D02*
X0297200Y0354800D01*
X0307200Y0364800D02*
X0312400Y0364800D01*
X0308400Y0418800D02*
X0303200Y0418800D01*
X0298400Y0428800D02*
X0293200Y0428800D01*
X0303200Y0438800D02*
X0308400Y0438800D01*
X0308200Y0490800D02*
X0313400Y0490800D01*
X0303400Y0500800D02*
X0298200Y0500800D01*
X0308200Y0510800D02*
X0313400Y0510800D01*
X0311400Y0564800D02*
X0306200Y0564800D01*
X0301400Y0574800D02*
X0296200Y0574800D01*
X0306200Y0584800D02*
X0311400Y0584800D01*
X0096400Y0568800D02*
X0091200Y0568800D01*
X0056400Y0568800D02*
X0051200Y0568800D01*
X0056200Y0313800D02*
X0061400Y0313800D01*
X0061400Y0303800D02*
X0056200Y0303800D01*
X0056200Y0293800D02*
X0061400Y0293800D01*
X0061400Y0283800D02*
X0056200Y0283800D01*
X0086200Y0283800D02*
X0091400Y0283800D01*
X0091400Y0293800D02*
X0086200Y0293800D01*
X0086200Y0303800D02*
X0091400Y0303800D01*
X0091400Y0313800D02*
X0086200Y0313800D01*
X0676800Y0139400D02*
X0676800Y0134200D01*
X0686800Y0134200D02*
X0686800Y0139400D01*
X0696800Y0139400D02*
X0696800Y0134200D01*
X0706800Y0134200D02*
X0706800Y0139400D01*
X0716800Y0139400D02*
X0716800Y0134200D01*
X0726800Y0134200D02*
X0726800Y0139400D01*
X0736800Y0139400D02*
X0736800Y0134200D01*
X0736800Y0109400D02*
X0736800Y0104200D01*
X0726800Y0104200D02*
X0726800Y0109400D01*
X0716800Y0109400D02*
X0716800Y0104200D01*
X0706800Y0104200D02*
X0706800Y0109400D01*
X0696800Y0109400D02*
X0696800Y0104200D01*
X0686800Y0104200D02*
X0686800Y0109400D01*
X0676800Y0109400D02*
X0676800Y0104200D01*
X0706800Y0059400D02*
X0706800Y0054200D01*
X0716800Y0054200D02*
X0716800Y0059400D01*
X0726800Y0059400D02*
X0726800Y0054200D01*
X0726800Y0029400D02*
X0726800Y0024200D01*
X0716800Y0024200D02*
X0716800Y0029400D01*
X0706800Y0029400D02*
X0706800Y0024200D01*
X0738200Y0253800D02*
X0743400Y0253800D01*
X0743400Y0263800D02*
X0738200Y0263800D01*
X0738200Y0273800D02*
X0743400Y0273800D01*
X0743400Y0283800D02*
X0738200Y0283800D01*
X0768200Y0283800D02*
X0773400Y0283800D01*
X0773400Y0273800D02*
X0768200Y0273800D01*
X0768200Y0263800D02*
X0773400Y0263800D01*
X0773400Y0253800D02*
X0768200Y0253800D01*
D16*
X0088800Y0467800D03*
X0088800Y0487800D03*
X0088800Y0507800D03*
X0088800Y0537800D03*
X0058800Y0537800D03*
X0058800Y0507800D03*
X0058800Y0487800D03*
X0058800Y0467800D03*
D17*
X0200500Y0447350D03*
X0207800Y0447350D03*
X0215100Y0447350D03*
X0215100Y0418250D03*
X0207800Y0418250D03*
X0200500Y0418250D03*
X0200500Y0555250D03*
X0207800Y0555250D03*
X0215100Y0555250D03*
X0215100Y0584350D03*
X0207800Y0584350D03*
X0200500Y0584350D03*
X0202800Y0276350D03*
X0195500Y0276350D03*
X0210100Y0276350D03*
X0210100Y0247250D03*
X0202800Y0247250D03*
X0195500Y0247250D03*
X0195500Y0143350D03*
X0202800Y0143350D03*
X0210100Y0143350D03*
X0210100Y0114250D03*
X0202800Y0114250D03*
X0195500Y0114250D03*
D18*
X0402800Y0256776D03*
X0402800Y0278824D03*
X0457800Y0269776D03*
X0457800Y0291824D03*
X0457800Y0240824D03*
X0457800Y0218776D03*
X0413800Y0210824D03*
X0413800Y0188776D03*
X0413800Y0150824D03*
X0413800Y0128776D03*
X0413800Y0080824D03*
X0413800Y0058776D03*
X0402800Y0347776D03*
X0402800Y0369824D03*
X0458800Y0378824D03*
X0458800Y0356776D03*
X0402800Y0424776D03*
X0402800Y0446824D03*
X0402800Y0489776D03*
X0402800Y0511824D03*
X0403800Y0565776D03*
X0403800Y0587824D03*
D19*
X0416800Y0622875D02*
X0416800Y0634725D01*
X0169800Y0636725D02*
X0169800Y0624875D01*
X0458800Y0327725D02*
X0458800Y0315875D01*
X0417800Y0038725D02*
X0417800Y0026875D01*
X0169800Y0027875D02*
X0169800Y0039725D01*
D20*
X0246800Y0055139D03*
X0246800Y0072461D03*
X0256139Y0088800D03*
X0273461Y0088800D03*
X0247800Y0123139D03*
X0247800Y0140461D03*
X0256139Y0154800D03*
X0273461Y0154800D03*
X0248800Y0185139D03*
X0248800Y0202461D03*
X0257139Y0216800D03*
X0274461Y0216800D03*
X0248800Y0246139D03*
X0248800Y0263461D03*
X0256139Y0279800D03*
X0273461Y0279800D03*
X0275461Y0335800D03*
X0258139Y0335800D03*
X0250800Y0352139D03*
X0250800Y0369461D03*
X0257139Y0403800D03*
X0251800Y0420139D03*
X0274461Y0403800D03*
X0251800Y0437461D03*
X0256139Y0476800D03*
X0273461Y0476800D03*
X0252800Y0494139D03*
X0252800Y0511461D03*
X0257139Y0550800D03*
X0252800Y0567139D03*
X0252800Y0584461D03*
X0274461Y0550800D03*
D21*
X0028800Y0548800D03*
X0028800Y0568800D03*
X0665800Y0211800D03*
X0685800Y0211800D03*
X0706800Y0186800D03*
X0726800Y0212800D03*
X0716800Y0221800D03*
X0746800Y0212800D03*
X0766800Y0212800D03*
X0786800Y0212800D03*
X0797800Y0226800D03*
X0766800Y0186800D03*
X0786800Y0181800D03*
X0756800Y0161800D03*
X0786800Y0141800D03*
X0786800Y0107800D03*
X0776800Y0097800D03*
X0766800Y0107800D03*
X0696800Y0161800D03*
X0716800Y0261800D03*
X0716800Y0273800D03*
X0716800Y0313800D03*
X0797800Y0266800D03*
D22*
X0458800Y0400060D03*
X0458800Y0407540D03*
X0302800Y0264540D03*
X0302800Y0257060D03*
X0280800Y0254060D03*
X0280800Y0261540D03*
X0283800Y0196540D03*
X0283800Y0189060D03*
X0307800Y0184540D03*
X0307800Y0177060D03*
X0283800Y0134540D03*
X0283800Y0127060D03*
X0314800Y0118540D03*
X0314800Y0111060D03*
X0283800Y0070540D03*
X0283800Y0063060D03*
X0280800Y0355060D03*
X0280800Y0362540D03*
X0278800Y0430060D03*
X0278800Y0437540D03*
X0278800Y0498060D03*
X0278800Y0505540D03*
X0277800Y0573060D03*
X0277800Y0580540D03*
D23*
X0258800Y0628800D03*
X0298800Y0628800D03*
X0686200Y0353800D03*
X0697000Y0353800D03*
X0691600Y0363800D03*
X0702400Y0363800D03*
X0713200Y0363800D03*
X0707800Y0353800D03*
X0718600Y0353800D03*
X0729400Y0353800D03*
X0724000Y0363800D03*
X0296800Y0032800D03*
X0256800Y0032800D03*
D24*
X0439761Y0057800D03*
X0459839Y0057800D03*
X0459839Y0083800D03*
X0439761Y0083800D03*
X0439761Y0107800D03*
X0459839Y0107800D03*
X0459839Y0133800D03*
X0439761Y0133800D03*
X0438761Y0484800D03*
X0458839Y0484800D03*
X0458839Y0514800D03*
X0438761Y0514800D03*
X0438761Y0539800D03*
X0458839Y0539800D03*
X0458839Y0566800D03*
X0438761Y0566800D03*
D25*
X0354702Y0560001D03*
X0342898Y0560001D03*
X0344898Y0488001D03*
X0356702Y0488001D03*
X0354702Y0416001D03*
X0342898Y0416001D03*
X0348898Y0356001D03*
X0360702Y0356001D03*
X0365702Y0255001D03*
X0353898Y0255001D03*
X0367898Y0177001D03*
X0379702Y0177001D03*
X0379702Y0120001D03*
X0367898Y0120001D03*
X0369702Y0070001D03*
X0357898Y0070001D03*
D26*
X0363800Y0071001D03*
X0373800Y0121001D03*
X0373800Y0178001D03*
X0359800Y0256001D03*
X0354800Y0357001D03*
X0348800Y0417001D03*
X0350800Y0489001D03*
X0348800Y0561001D03*
D27*
X0349800Y0567316D02*
X0347800Y0567316D01*
X0347800Y0575686D01*
X0349800Y0575686D01*
X0349800Y0567316D01*
X0349800Y0573315D02*
X0347800Y0573315D01*
X0349800Y0495316D02*
X0351800Y0495316D01*
X0349800Y0495316D02*
X0349800Y0503686D01*
X0351800Y0503686D01*
X0351800Y0495316D01*
X0351800Y0501315D02*
X0349800Y0501315D01*
X0349800Y0423316D02*
X0347800Y0423316D01*
X0347800Y0431686D01*
X0349800Y0431686D01*
X0349800Y0423316D01*
X0349800Y0429315D02*
X0347800Y0429315D01*
X0353800Y0363316D02*
X0355800Y0363316D01*
X0353800Y0363316D02*
X0353800Y0371686D01*
X0355800Y0371686D01*
X0355800Y0363316D01*
X0355800Y0369315D02*
X0353800Y0369315D01*
X0358800Y0262316D02*
X0360800Y0262316D01*
X0358800Y0262316D02*
X0358800Y0270686D01*
X0360800Y0270686D01*
X0360800Y0262316D01*
X0360800Y0268315D02*
X0358800Y0268315D01*
X0372800Y0184316D02*
X0374800Y0184316D01*
X0372800Y0184316D02*
X0372800Y0192686D01*
X0374800Y0192686D01*
X0374800Y0184316D01*
X0374800Y0190315D02*
X0372800Y0190315D01*
X0372800Y0127316D02*
X0374800Y0127316D01*
X0372800Y0127316D02*
X0372800Y0135686D01*
X0374800Y0135686D01*
X0374800Y0127316D01*
X0374800Y0133315D02*
X0372800Y0133315D01*
X0364800Y0077316D02*
X0362800Y0077316D01*
X0362800Y0085686D01*
X0364800Y0085686D01*
X0364800Y0077316D01*
X0364800Y0083315D02*
X0362800Y0083315D01*
D28*
X0658500Y0358800D03*
X0757100Y0358800D03*
D29*
X0566800Y0481800D03*
X0566800Y0121800D03*
D30*
X0566800Y0580800D03*
X0576800Y0580800D03*
D31*
X0682800Y0378800D02*
X0676800Y0372800D01*
X0676800Y0363200D01*
X0686200Y0353800D01*
X0686200Y0156200D01*
X0676800Y0146800D01*
X0676800Y0136800D01*
X0682800Y0121800D02*
X0686800Y0117800D01*
X0686800Y0106800D01*
X0696800Y0106800D02*
X0696800Y0031800D01*
X0701800Y0026800D01*
X0706800Y0026800D02*
X0716800Y0026800D01*
X0726800Y0026800D01*
X0726800Y0056800D02*
X0726800Y0106800D01*
X0716800Y0106800D02*
X0716800Y0056800D01*
X0706800Y0056800D02*
X0706800Y0106800D01*
X0682800Y0121800D02*
X0566800Y0121800D01*
X0696800Y0136800D02*
X0696800Y0161800D01*
X0706800Y0186800D02*
X0706800Y0136800D01*
X0716800Y0136800D02*
X0716800Y0221800D01*
X0726800Y0242800D02*
X0726800Y0136800D01*
X0756800Y0161800D02*
X0766800Y0161800D01*
X0766800Y0107800D01*
X0776800Y0097800D02*
X0776800Y0132800D01*
X0786800Y0141800D01*
X0766800Y0161800D02*
X0766800Y0186800D01*
X0766800Y0233800D01*
X0760800Y0247800D01*
X0760800Y0319800D01*
X0728800Y0341800D01*
X0728800Y0353200D01*
X0729400Y0353800D01*
X0718800Y0353000D02*
X0718800Y0338800D01*
X0722800Y0335800D01*
X0751800Y0314800D01*
X0751800Y0258800D01*
X0748800Y0253800D01*
X0740800Y0253800D01*
X0737800Y0253800D01*
X0726800Y0242800D01*
X0729800Y0263800D02*
X0740800Y0263800D01*
X0740800Y0273800D02*
X0716800Y0273800D01*
X0716800Y0261800D01*
X0740800Y0283800D02*
X0740800Y0308800D01*
X0735800Y0313800D01*
X0716800Y0313800D01*
X0740800Y0343800D02*
X0750800Y0336800D01*
X0773800Y0320800D01*
X0773800Y0283800D01*
X0770800Y0283800D01*
X0794800Y0238800D02*
X0797800Y0235800D01*
X0797800Y0226800D01*
X0797800Y0195800D01*
X0786800Y0184800D01*
X0786800Y0181800D01*
X0740800Y0343800D02*
X0740800Y0371800D01*
X0733800Y0378800D01*
X0682800Y0378800D01*
X0718600Y0353000D02*
X0718800Y0353000D01*
X0417800Y0056800D02*
X0417800Y0032800D01*
X0119800Y0487800D02*
X0088800Y0487800D01*
X0058800Y0487800D02*
X0026800Y0487800D01*
D32*
X0026800Y0487800D03*
X0119800Y0487800D03*
X0200500Y0504100D03*
X0246800Y0524800D03*
X0239800Y0563800D03*
X0277800Y0560800D03*
X0298800Y0560800D03*
X0299800Y0486800D03*
X0278800Y0486800D03*
X0234800Y0424800D03*
X0247800Y0384800D03*
X0323800Y0404800D03*
X0328800Y0383800D03*
X0420800Y0446800D03*
X0438761Y0463839D03*
X0224800Y0287800D03*
X0223800Y0258800D03*
X0184800Y0279800D03*
X0162800Y0318800D03*
X0189800Y0213800D03*
X0232800Y0184800D03*
X0220800Y0156800D03*
X0182800Y0152800D03*
X0216800Y0120800D03*
X0223800Y0107800D03*
X0236800Y0120800D03*
X0223800Y0055800D03*
X0440800Y0153800D03*
X0701800Y0026800D03*
X0794800Y0238800D03*
X0729800Y0263800D03*
X0718600Y0353000D03*
D33*
X0458800Y0356776D02*
X0458800Y0321800D01*
X0457800Y0320800D01*
X0457800Y0291824D01*
X0457800Y0269776D02*
X0457800Y0240824D01*
X0457800Y0218776D02*
X0457800Y0163800D01*
X0440800Y0153800D01*
X0439761Y0152761D01*
X0439761Y0133800D01*
X0439800Y0133839D01*
X0458839Y0131761D02*
X0459800Y0130800D01*
X0459800Y0107839D01*
X0459839Y0107800D01*
X0439761Y0107800D02*
X0439761Y0083800D01*
X0459839Y0083800D02*
X0459839Y0057800D01*
X0439761Y0057800D02*
X0438761Y0056800D01*
X0417800Y0056800D01*
X0413800Y0058776D02*
X0410800Y0058800D01*
X0413776Y0080800D02*
X0413800Y0080824D01*
X0413800Y0080800D01*
X0413800Y0080824D02*
X0413800Y0097800D01*
X0413800Y0128776D01*
X0413776Y0150800D02*
X0413800Y0150824D01*
X0413800Y0161800D01*
X0333800Y0161800D01*
X0334800Y0160800D01*
X0334800Y0132800D01*
X0335800Y0133800D01*
X0373800Y0133800D01*
X0373800Y0131501D01*
X0367898Y0120001D02*
X0333599Y0120001D01*
X0324800Y0128800D01*
X0324800Y0142800D01*
X0324800Y0147800D01*
X0284800Y0147800D01*
X0283800Y0142800D01*
X0283800Y0134540D01*
X0283800Y0127060D02*
X0283800Y0122800D01*
X0283800Y0116800D01*
X0302800Y0097800D01*
X0314800Y0097800D01*
X0314800Y0111060D01*
X0314800Y0118540D02*
X0323060Y0118540D01*
X0333800Y0107800D01*
X0376800Y0107800D01*
X0379800Y0110800D01*
X0379800Y0119902D01*
X0379702Y0120001D01*
X0383540Y0098060D02*
X0386800Y0097800D01*
X0363800Y0097800D01*
X0363800Y0081501D01*
X0363800Y0055800D01*
X0360800Y0052800D01*
X0328800Y0052800D01*
X0323800Y0057800D01*
X0323800Y0076800D01*
X0330800Y0086800D02*
X0313800Y0086800D01*
X0292800Y0086800D01*
X0283800Y0077800D01*
X0283800Y0070540D01*
X0283800Y0078800D01*
X0273800Y0088800D01*
X0273461Y0088800D01*
X0269800Y0090800D01*
X0269800Y0106800D01*
X0268540Y0106800D01*
X0261060Y0106800D02*
X0260800Y0106800D01*
X0255800Y0101800D01*
X0255800Y0089139D01*
X0256139Y0088800D01*
X0253800Y0086800D01*
X0253800Y0078800D01*
X0249800Y0074800D01*
X0246800Y0072461D01*
X0245800Y0074800D01*
X0237800Y0082800D01*
X0229800Y0082800D01*
X0228540Y0081800D01*
X0221800Y0082540D02*
X0221060Y0081800D01*
X0215800Y0081800D01*
X0210100Y0087500D01*
X0210100Y0114250D01*
X0202800Y0114250D02*
X0202800Y0120800D01*
X0198800Y0124800D01*
X0186800Y0124800D01*
X0182800Y0128800D01*
X0182800Y0152800D01*
X0195500Y0143350D02*
X0195800Y0143650D01*
X0195800Y0208800D01*
X0190800Y0213800D01*
X0189800Y0213800D01*
X0195500Y0234500D02*
X0163800Y0202800D01*
X0163800Y0109800D01*
X0173800Y0099800D01*
X0191800Y0099800D01*
X0195800Y0103800D01*
X0195800Y0113950D01*
X0195500Y0114250D01*
X0202800Y0134800D02*
X0216800Y0120800D01*
X0223800Y0124800D02*
X0223800Y0107800D01*
X0223800Y0124800D02*
X0209800Y0138800D01*
X0209800Y0143050D01*
X0210100Y0143350D01*
X0202800Y0143350D02*
X0202800Y0134800D01*
X0220800Y0142540D02*
X0221060Y0142800D01*
X0220800Y0143060D01*
X0220800Y0156800D01*
X0228540Y0142800D02*
X0245800Y0142800D01*
X0247800Y0140461D01*
X0249800Y0142800D01*
X0253800Y0146800D01*
X0253800Y0154800D01*
X0256139Y0154800D01*
X0256139Y0164879D01*
X0261060Y0169800D01*
X0268540Y0169800D02*
X0269800Y0170800D01*
X0269800Y0154800D01*
X0273461Y0154800D01*
X0273461Y0154139D01*
X0283800Y0143800D01*
X0283800Y0142800D01*
X0283800Y0122800D02*
X0248800Y0122800D01*
X0247800Y0123139D01*
X0248461Y0120800D01*
X0236800Y0120800D01*
X0283800Y0175800D02*
X0297800Y0161800D01*
X0308800Y0161800D01*
X0307800Y0162800D01*
X0307800Y0177060D01*
X0307800Y0184540D02*
X0308060Y0184800D01*
X0316800Y0184800D01*
X0332800Y0168800D01*
X0379800Y0168800D01*
X0379702Y0170898D01*
X0379702Y0177001D01*
X0367898Y0177001D02*
X0367698Y0176800D01*
X0342800Y0176800D01*
X0324800Y0194800D01*
X0324800Y0211800D01*
X0291800Y0211800D01*
X0283800Y0203800D01*
X0283800Y0196540D01*
X0284540Y0189800D02*
X0283800Y0189060D01*
X0285060Y0187800D01*
X0284800Y0176800D01*
X0283800Y0175800D02*
X0283800Y0189060D01*
X0281800Y0186800D01*
X0249800Y0186800D01*
X0248800Y0185139D01*
X0248461Y0184800D01*
X0232800Y0184800D01*
X0248800Y0202461D02*
X0249800Y0202800D01*
X0249800Y0210800D01*
X0243800Y0216800D01*
X0230540Y0216800D01*
X0223060Y0216800D02*
X0210100Y0229760D01*
X0210100Y0247250D01*
X0202800Y0247250D02*
X0202800Y0255800D01*
X0198800Y0259800D01*
X0187800Y0259800D01*
X0184800Y0262800D01*
X0184800Y0279800D01*
X0195500Y0276350D02*
X0195500Y0286100D01*
X0162800Y0318800D01*
X0113800Y0282800D02*
X0149800Y0246800D01*
X0151060Y0247800D01*
X0158540Y0247800D02*
X0174060Y0247800D01*
X0181540Y0247800D02*
X0194950Y0247800D01*
X0195500Y0247250D01*
X0195500Y0234500D01*
X0224800Y0246800D02*
X0248139Y0246800D01*
X0248800Y0246139D01*
X0249800Y0242800D01*
X0281800Y0242800D01*
X0302800Y0242800D01*
X0312800Y0232800D01*
X0399800Y0232800D01*
X0399800Y0224800D01*
X0412309Y0212312D01*
X0410797Y0210800D01*
X0402800Y0210800D01*
X0393800Y0201800D01*
X0374800Y0201800D01*
X0373800Y0200800D01*
X0373800Y0188501D01*
X0374800Y0201800D02*
X0334800Y0201800D01*
X0314800Y0201800D02*
X0312800Y0201800D01*
X0307800Y0196800D01*
X0307800Y0184540D01*
X0308800Y0161800D02*
X0333800Y0161800D01*
X0314800Y0132800D02*
X0314800Y0118540D01*
X0314800Y0097800D02*
X0363800Y0097800D01*
X0386800Y0097800D02*
X0413800Y0097800D01*
X0458839Y0131761D02*
X0459839Y0133800D01*
X0413800Y0161800D02*
X0413800Y0188776D01*
X0413800Y0210824D02*
X0412309Y0212312D01*
X0399800Y0232800D02*
X0399800Y0254800D01*
X0402800Y0256776D01*
X0403800Y0254800D01*
X0403800Y0278800D02*
X0402800Y0278824D01*
X0399800Y0278800D01*
X0359800Y0278800D01*
X0359800Y0266501D01*
X0359800Y0278800D02*
X0331800Y0278800D01*
X0321800Y0268800D02*
X0321800Y0288800D01*
X0273800Y0288800D01*
X0273800Y0292540D01*
X0270540Y0295800D01*
X0273800Y0294800D02*
X0273461Y0291800D01*
X0273461Y0279800D01*
X0273800Y0278800D01*
X0273800Y0288800D01*
X0273800Y0278800D02*
X0281800Y0270800D01*
X0281800Y0262800D01*
X0280800Y0261540D01*
X0280800Y0254060D02*
X0280800Y0243800D01*
X0281800Y0242800D01*
X0270540Y0232800D02*
X0270540Y0232060D01*
X0274800Y0227800D01*
X0274800Y0217139D01*
X0274461Y0216800D01*
X0277800Y0214800D01*
X0283800Y0208800D01*
X0283800Y0203800D01*
X0261800Y0222800D02*
X0257800Y0218800D01*
X0257139Y0216800D01*
X0253800Y0214800D01*
X0249800Y0210800D01*
X0261800Y0222800D02*
X0261800Y0230800D01*
X0263060Y0232800D01*
X0281060Y0253800D02*
X0280800Y0254060D01*
X0302800Y0257060D02*
X0302800Y0242800D01*
X0308800Y0264800D02*
X0329800Y0243800D01*
X0359800Y0243800D01*
X0365702Y0249898D01*
X0365702Y0255001D01*
X0353898Y0255001D02*
X0335599Y0255001D01*
X0321800Y0268800D01*
X0308800Y0264800D02*
X0303060Y0264800D01*
X0302800Y0264540D01*
X0302800Y0275800D01*
X0305800Y0278800D01*
X0311800Y0278800D01*
X0270540Y0316800D02*
X0275461Y0321721D01*
X0275461Y0335800D01*
X0275461Y0349721D01*
X0280800Y0355060D01*
X0299839Y0355060D01*
X0299800Y0354800D01*
X0348698Y0354800D01*
X0348898Y0356001D01*
X0354800Y0357001D02*
X0354800Y0367501D01*
X0354800Y0377800D01*
X0363800Y0377800D01*
X0396800Y0344800D01*
X0399824Y0344800D01*
X0402800Y0347776D01*
X0403800Y0346800D01*
X0403800Y0321800D01*
X0458800Y0321800D01*
X0403800Y0321800D02*
X0403800Y0278800D01*
X0357800Y0344800D02*
X0360800Y0347902D01*
X0360702Y0356001D01*
X0357800Y0344800D02*
X0309800Y0344800D01*
X0309800Y0364800D02*
X0320800Y0364800D01*
X0333800Y0377800D01*
X0354800Y0377800D01*
X0328800Y0383800D02*
X0324800Y0383800D01*
X0320800Y0379800D01*
X0311540Y0379800D01*
X0304060Y0379800D02*
X0280800Y0379800D01*
X0280800Y0370800D01*
X0280800Y0362540D01*
X0280800Y0370800D02*
X0253800Y0370800D01*
X0253338Y0370594D01*
X0247800Y0376132D01*
X0247800Y0384800D01*
X0257139Y0390721D02*
X0261060Y0386800D01*
X0257139Y0390721D02*
X0257139Y0403800D01*
X0255291Y0405460D01*
X0253632Y0403800D01*
X0233540Y0403800D01*
X0226060Y0403800D02*
X0215100Y0414760D01*
X0215100Y0418250D01*
X0207800Y0418250D02*
X0207800Y0355060D01*
X0227060Y0335800D01*
X0234540Y0335800D02*
X0251800Y0335800D01*
X0258139Y0335800D01*
X0261800Y0334800D01*
X0261800Y0318800D01*
X0263060Y0316800D01*
X0263060Y0295800D02*
X0261800Y0294800D01*
X0255800Y0288800D01*
X0256139Y0279800D01*
X0253800Y0278800D01*
X0253800Y0270800D01*
X0249800Y0266800D01*
X0248800Y0263461D01*
X0245800Y0262800D01*
X0233800Y0274800D01*
X0232540Y0276800D01*
X0225060Y0276800D02*
X0224800Y0277060D01*
X0224800Y0287800D01*
X0210100Y0276350D02*
X0210100Y0272500D01*
X0223800Y0258800D01*
X0224800Y0246800D02*
X0202800Y0268800D01*
X0202800Y0276350D01*
X0251800Y0335800D02*
X0251800Y0351800D01*
X0250800Y0352139D01*
X0250800Y0369461D02*
X0253338Y0370594D01*
X0268540Y0386800D02*
X0273800Y0390800D01*
X0273800Y0402800D01*
X0274461Y0403800D01*
X0278800Y0408139D01*
X0278800Y0428800D01*
X0295800Y0428800D01*
X0326800Y0428800D01*
X0339599Y0416001D01*
X0342898Y0416001D01*
X0348800Y0427501D02*
X0348800Y0438800D01*
X0387800Y0438800D01*
X0399800Y0426800D01*
X0402800Y0424776D01*
X0403800Y0422800D01*
X0403800Y0393800D01*
X0403800Y0370800D01*
X0402800Y0369824D01*
X0403800Y0393800D02*
X0289800Y0393800D01*
X0280800Y0384800D01*
X0280800Y0379800D01*
X0305800Y0405060D02*
X0306060Y0404800D01*
X0305800Y0405060D02*
X0305800Y0418800D01*
X0306800Y0419800D01*
X0322800Y0419800D01*
X0337800Y0404800D01*
X0354800Y0404800D01*
X0354702Y0408898D01*
X0354702Y0416001D01*
X0348800Y0438800D02*
X0305800Y0438800D01*
X0289800Y0450800D02*
X0289800Y0467800D01*
X0289800Y0502800D01*
X0297800Y0510800D01*
X0351800Y0510800D01*
X0350800Y0509800D01*
X0350800Y0499501D01*
X0344898Y0488001D02*
X0336599Y0488001D01*
X0323800Y0500800D01*
X0300800Y0500800D01*
X0299898Y0500898D01*
X0299800Y0486800D01*
X0310800Y0490800D02*
X0310800Y0478060D01*
X0356823Y0478531D01*
X0356702Y0478653D01*
X0356702Y0488001D01*
X0356823Y0478531D02*
X0383060Y0478800D01*
X0390540Y0478800D02*
X0391824Y0478800D01*
X0402800Y0489776D01*
X0402776Y0491800D01*
X0402800Y0490800D01*
X0398702Y0490898D01*
X0402800Y0489776D02*
X0403800Y0491800D01*
X0418800Y0491800D01*
X0418800Y0523800D01*
X0289800Y0523800D01*
X0289800Y0578800D01*
X0296800Y0584800D01*
X0308800Y0584800D01*
X0308800Y0586800D01*
X0348800Y0586800D01*
X0348800Y0571501D01*
X0342898Y0560001D02*
X0334599Y0560001D01*
X0318800Y0574800D01*
X0298800Y0574800D01*
X0298898Y0560898D01*
X0298800Y0560800D01*
X0308800Y0564800D02*
X0308800Y0552800D01*
X0310800Y0550800D01*
X0354800Y0550800D01*
X0354702Y0550898D01*
X0354702Y0560001D01*
X0373540Y0541540D02*
X0397800Y0565800D01*
X0403776Y0565800D01*
X0403800Y0565776D01*
X0403800Y0566800D01*
X0419800Y0566800D01*
X0438761Y0566800D01*
X0419800Y0566800D02*
X0419800Y0624800D01*
X0416800Y0626800D01*
X0403800Y0587824D02*
X0403800Y0586800D01*
X0348800Y0586800D01*
X0308800Y0552800D02*
X0308800Y0543060D01*
X0309060Y0541800D01*
X0316540Y0541800D02*
X0373540Y0541540D01*
X0351800Y0510800D02*
X0402800Y0510800D01*
X0402800Y0511824D01*
X0438761Y0514800D02*
X0438761Y0539800D01*
X0458839Y0539800D02*
X0458839Y0566800D01*
X0458839Y0514800D02*
X0458839Y0484800D01*
X0438761Y0484800D02*
X0438761Y0463839D01*
X0458800Y0443800D01*
X0458800Y0407540D01*
X0458800Y0400060D02*
X0458800Y0378824D01*
X0420800Y0446800D02*
X0403800Y0446800D01*
X0402800Y0446824D01*
X0399800Y0446800D01*
X0399800Y0467800D01*
X0289800Y0467800D01*
X0289800Y0450800D02*
X0277800Y0438800D01*
X0278800Y0437540D01*
X0277800Y0438800D02*
X0253800Y0438800D01*
X0245250Y0447350D01*
X0215100Y0447350D01*
X0207800Y0447350D02*
X0207800Y0435800D01*
X0212800Y0430800D01*
X0228800Y0430800D01*
X0234800Y0424800D01*
X0251800Y0420139D02*
X0253800Y0418800D01*
X0253800Y0406800D01*
X0255291Y0405460D01*
X0278800Y0428800D02*
X0278800Y0430060D01*
X0253800Y0438800D02*
X0251800Y0437461D01*
X0260060Y0457800D02*
X0257800Y0458800D01*
X0257800Y0474800D01*
X0256139Y0476800D01*
X0253800Y0478800D01*
X0253800Y0490800D01*
X0252800Y0494139D01*
X0257800Y0506800D02*
X0253800Y0510800D01*
X0246800Y0517800D01*
X0246800Y0524800D01*
X0252800Y0511461D02*
X0253800Y0510800D01*
X0257800Y0506800D02*
X0277800Y0506800D01*
X0278800Y0505540D01*
X0277800Y0506800D02*
X0277800Y0511800D01*
X0289800Y0523800D01*
X0276800Y0536800D02*
X0276800Y0550800D01*
X0274461Y0550800D01*
X0276800Y0550800D02*
X0277800Y0550800D01*
X0277800Y0560800D01*
X0277800Y0573060D01*
X0277800Y0580540D02*
X0277800Y0582800D01*
X0277800Y0606800D01*
X0297800Y0626800D01*
X0298800Y0628800D01*
X0277800Y0582800D02*
X0253800Y0582800D01*
X0252800Y0584461D01*
X0252689Y0584350D01*
X0215100Y0584350D01*
X0207800Y0584350D02*
X0207800Y0574800D01*
X0212800Y0569800D01*
X0233800Y0569800D01*
X0239800Y0563800D01*
X0234540Y0550800D02*
X0251800Y0550800D01*
X0253800Y0552800D01*
X0253800Y0550800D01*
X0257139Y0550800D01*
X0257139Y0536721D01*
X0262060Y0531800D01*
X0269540Y0531800D02*
X0271800Y0531800D01*
X0276800Y0536800D01*
X0253800Y0552800D02*
X0253800Y0566800D01*
X0252800Y0567139D01*
X0227060Y0550800D02*
X0222610Y0555250D01*
X0215100Y0555250D01*
X0207800Y0555250D02*
X0207800Y0539800D01*
X0225800Y0521800D01*
X0225800Y0477060D01*
X0227060Y0475800D01*
X0234540Y0475800D02*
X0253800Y0475800D01*
X0269800Y0474800D02*
X0269800Y0458800D01*
X0267540Y0457800D01*
X0269800Y0474800D02*
X0273461Y0476800D01*
X0274800Y0476800D01*
X0278800Y0480800D01*
X0278800Y0486800D01*
X0278800Y0498060D01*
X0200500Y0504100D02*
X0200500Y0447350D01*
X0187800Y0447800D02*
X0187800Y0526800D01*
X0200800Y0539800D01*
X0200800Y0554950D01*
X0200500Y0555250D01*
X0200500Y0584350D02*
X0200500Y0600100D01*
X0169800Y0630800D01*
X0163540Y0447800D02*
X0165800Y0446800D01*
X0177800Y0446800D01*
X0180060Y0447800D01*
X0187540Y0447800D02*
X0187800Y0447800D01*
X0187540Y0447800D02*
X0187540Y0431210D01*
X0200500Y0418250D01*
X0156060Y0447800D02*
X0153800Y0446800D01*
X0153800Y0362800D01*
X0093800Y0302800D01*
X0089800Y0302800D01*
X0088800Y0303800D01*
X0088800Y0283800D02*
X0089800Y0282800D01*
X0113800Y0282800D01*
X0313540Y0404800D02*
X0323540Y0404540D01*
X0323800Y0404800D01*
X0330800Y0086800D02*
X0348800Y0068800D01*
X0357698Y0068800D01*
X0357898Y0070001D01*
X0369702Y0070001D02*
X0369702Y0050702D01*
X0364800Y0045800D01*
X0311540Y0045800D01*
X0303540Y0053800D01*
X0303800Y0076800D01*
X0284060Y0062800D02*
X0283800Y0063060D01*
X0283800Y0060800D01*
X0290800Y0053800D01*
X0296060Y0053800D01*
X0283800Y0059800D02*
X0278300Y0054300D01*
X0277800Y0054800D01*
X0249800Y0054800D01*
X0248813Y0054911D01*
X0247924Y0055800D01*
X0223800Y0055800D01*
X0246800Y0055139D02*
X0248813Y0054911D01*
X0278300Y0054300D02*
X0297800Y0034800D01*
X0296800Y0032800D01*
X0283800Y0059800D02*
X0283800Y0060800D01*
D34*
X0696800Y0161800D02*
X0696800Y0262800D01*
X0691800Y0267800D01*
X0691600Y0363800D01*
X0702400Y0363800D02*
X0702800Y0267800D01*
X0706800Y0263800D01*
X0706800Y0186800D01*
X0716800Y0313800D02*
X0712800Y0318800D01*
X0712800Y0322800D01*
X0713200Y0363800D01*
M02*
