%
M48
M72
T01C0.02362
T02C0.03200
T03C0.03543
T04C0.03937
T05C0.04000
T06C0.05000
T07C0.06299
T08C0.06693
T09C0.07000
T10C0.07874
T11C0.07900
T12C0.13000
T13C0.14950
%
T01
X182800Y152800
X220800Y156800
X232800Y184800
X189800Y213800
X223800Y258800
X224800Y287800
X184800Y279800
X162800Y318800
X247800Y384800
X234800Y424800
X278800Y486800
X299800Y486800
X246800Y524800
X239800Y563800
X277800Y560800
X298800Y560800
X200500Y504100
X119800Y487800
X26800Y487800
X323800Y404800
X328800Y383800
X420800Y446800
X438761Y463839
X718600Y353000
X729800Y263800
X794800Y238800
X701800Y26800
X440800Y153800
X236800Y120800
X223800Y107800
X216800Y120800
X223800Y55800
T02
X303800Y76800
X313800Y86800
X323800Y76800
X314800Y132800
X324800Y142800
X334800Y132800
X334800Y201800
X324800Y211800
X314800Y201800
X311800Y278800
X321800Y288800
X331800Y278800
X309800Y344800
X299800Y354800
X309800Y364800
X305800Y418800
X295800Y428800
X305800Y438800
X310800Y490800
X300800Y500800
X310800Y510800
X308800Y564800
X298800Y574800
X308800Y584800
X93800Y568800
X53800Y568800
X28800Y568800
X28800Y548800
X58800Y313800
X58800Y303800
X58800Y293800
X58800Y283800
X88800Y283800
X88800Y293800
X88800Y303800
X88800Y313800
X665800Y211800
X685800Y211800
X706800Y186800
X726800Y212800
X716800Y221800
X746800Y212800
X766800Y212800
X786800Y212800
X797800Y226800
X770800Y253800
X770800Y263800
X770800Y273800
X770800Y283800
X797800Y266800
X740800Y263800
X740800Y253800
X716800Y261800
X716800Y273800
X740800Y273800
X740800Y283800
X716800Y313800
X766800Y186800
X786800Y181800
X756800Y161800
X736800Y136800
X726800Y136800
X716800Y136800
X706800Y136800
X696800Y136800
X686800Y136800
X676800Y136800
X696800Y161800
X696800Y106800
X686800Y106800
X676800Y106800
X706800Y106800
X716800Y106800
X726800Y106800
X736800Y106800
X766800Y107800
X776800Y97800
X786800Y107800
X786800Y141800
X726800Y56800
X716800Y56800
X706800Y56800
X706800Y26800
X716800Y26800
X726800Y26800
T03
X576800Y580800
X566800Y580800
T04
X551800Y661800
X581800Y661800
X566800Y481800
X746800Y136800
X746800Y106800
X566800Y121800
X88800Y467800
X88800Y487800
X88800Y507800
X88800Y537800
X58800Y537800
X58800Y507800
X58800Y487800
X58800Y467800
T05
X258800Y628800
X298800Y628800
X686200Y353800
X697000Y353800
X691600Y363800
X702400Y363800
X713200Y363800
X707800Y353800
X718600Y353800
X729400Y353800
X724000Y363800
X296800Y32800
X256800Y32800
T06
X42800Y232800
T07
X505776Y481800
X627824Y481800
X566800Y182824
X566800Y60776
T08
X28800Y592005
X28800Y607595
X93800Y603005
X93800Y618595
T09
X52839Y242839
X52839Y222761
X32761Y222761
X32761Y242839
T10
X546800Y600800
X586800Y600800
T11
X416800Y628800
X169800Y630800
X458800Y321800
X417800Y32800
X169800Y33800
T12
X658500Y358800
X757100Y358800
T13
X28800Y19800
X446800Y26800
X446800Y626800
X24800Y628800
M30
