G75*
%MOIN*%
%OFA0B0*%
%FSLAX25Y25*%
%IPPOS*%
%LPD*%
%AMOC8*
5,1,8,0,0,1.08239X$1,22.5*
%
%ADD10R,0.05118X0.05906*%
%ADD11R,0.03500X0.06600*%
%ADD12R,0.12598X0.07087*%
%ADD13R,0.09449X0.09449*%
%ADD14R,0.05906X0.05118*%
%ADD15R,0.07087X0.08661*%
%ADD16R,0.03150X0.05512*%
%ADD17C,0.06000*%
D10*
X0221060Y0081800D03*
X0228540Y0081800D03*
X0261060Y0106800D03*
X0268540Y0106800D03*
X0228540Y0142800D03*
X0221060Y0142800D03*
X0261060Y0169800D03*
X0268540Y0169800D03*
X0230540Y0216800D03*
X0223060Y0216800D03*
X0181540Y0247800D03*
X0174060Y0247800D03*
X0158540Y0247800D03*
X0151060Y0247800D03*
X0225060Y0276800D03*
X0232540Y0276800D03*
X0263060Y0295800D03*
X0270540Y0295800D03*
X0270540Y0316800D03*
X0263060Y0316800D03*
X0234540Y0335800D03*
X0227060Y0335800D03*
X0261060Y0386800D03*
X0268540Y0386800D03*
X0304060Y0379800D03*
X0311540Y0379800D03*
X0313540Y0404800D03*
X0306060Y0404800D03*
X0267540Y0457800D03*
X0260060Y0457800D03*
X0234540Y0475800D03*
X0227060Y0475800D03*
X0187540Y0447800D03*
X0180060Y0447800D03*
X0163540Y0447800D03*
X0156060Y0447800D03*
X0226060Y0403800D03*
X0233540Y0403800D03*
X0383060Y0478800D03*
X0390540Y0478800D03*
X0316540Y0541800D03*
X0309060Y0541800D03*
X0269540Y0531800D03*
X0262060Y0531800D03*
X0234540Y0550800D03*
X0227060Y0550800D03*
X0263060Y0232800D03*
X0270540Y0232800D03*
X0296060Y0053800D03*
X0303540Y0053800D03*
D11*
X0195500Y0114250D03*
X0202800Y0114250D03*
X0210100Y0114250D03*
X0210100Y0143350D03*
X0202800Y0143350D03*
X0195500Y0143350D03*
X0195500Y0247250D03*
X0202800Y0247250D03*
X0210100Y0247250D03*
X0210100Y0276350D03*
X0202800Y0276350D03*
X0195500Y0276350D03*
X0200500Y0418250D03*
X0207800Y0418250D03*
X0215100Y0418250D03*
X0215100Y0447350D03*
X0207800Y0447350D03*
X0200500Y0447350D03*
X0200500Y0555250D03*
X0207800Y0555250D03*
X0215100Y0555250D03*
X0215100Y0584350D03*
X0207800Y0584350D03*
X0200500Y0584350D03*
D12*
X0403800Y0587824D03*
X0403800Y0565776D03*
X0402800Y0511824D03*
X0402800Y0489776D03*
X0402800Y0446824D03*
X0402800Y0424776D03*
X0458800Y0378824D03*
X0458800Y0356776D03*
X0402800Y0347776D03*
X0402800Y0369824D03*
X0457800Y0291824D03*
X0457800Y0269776D03*
X0457800Y0240824D03*
X0457800Y0218776D03*
X0413800Y0210824D03*
X0413800Y0188776D03*
X0413800Y0150824D03*
X0413800Y0128776D03*
X0413800Y0080824D03*
X0413800Y0058776D03*
X0402800Y0256776D03*
X0402800Y0278824D03*
D13*
X0273461Y0279800D03*
X0256139Y0279800D03*
X0248800Y0263461D03*
X0248800Y0246139D03*
X0257139Y0216800D03*
X0248800Y0202461D03*
X0248800Y0185139D03*
X0256139Y0154800D03*
X0247800Y0140461D03*
X0247800Y0123139D03*
X0273461Y0154800D03*
X0274461Y0216800D03*
X0275461Y0335800D03*
X0258139Y0335800D03*
X0250800Y0352139D03*
X0250800Y0369461D03*
X0257139Y0403800D03*
X0251800Y0420139D03*
X0274461Y0403800D03*
X0251800Y0437461D03*
X0256139Y0476800D03*
X0273461Y0476800D03*
X0252800Y0494139D03*
X0252800Y0511461D03*
X0257139Y0550800D03*
X0252800Y0567139D03*
X0252800Y0584461D03*
X0274461Y0550800D03*
X0273461Y0088800D03*
X0256139Y0088800D03*
X0246800Y0072461D03*
X0246800Y0055139D03*
D14*
X0283800Y0063060D03*
X0283800Y0070540D03*
X0314800Y0111060D03*
X0314800Y0118540D03*
X0283800Y0127060D03*
X0283800Y0134540D03*
X0307800Y0177060D03*
X0307800Y0184540D03*
X0283800Y0189060D03*
X0283800Y0196540D03*
X0280800Y0254060D03*
X0280800Y0261540D03*
X0302800Y0264540D03*
X0302800Y0257060D03*
X0280800Y0355060D03*
X0280800Y0362540D03*
X0278800Y0430060D03*
X0278800Y0437540D03*
X0278800Y0498060D03*
X0278800Y0505540D03*
X0277800Y0573060D03*
X0277800Y0580540D03*
X0458800Y0407540D03*
X0458800Y0400060D03*
D15*
X0458839Y0484800D03*
X0438761Y0484800D03*
X0438761Y0514800D03*
X0458839Y0514800D03*
X0458839Y0539800D03*
X0438761Y0539800D03*
X0438761Y0566800D03*
X0458839Y0566800D03*
X0459839Y0133800D03*
X0439761Y0133800D03*
X0439761Y0107800D03*
X0459839Y0107800D03*
X0459839Y0083800D03*
X0439761Y0083800D03*
X0439761Y0057800D03*
X0459839Y0057800D03*
D16*
X0379702Y0120001D03*
X0373800Y0120005D03*
X0367898Y0120001D03*
X0369702Y0070001D03*
X0363800Y0070005D03*
X0357898Y0070001D03*
X0367898Y0177001D03*
X0373800Y0177005D03*
X0379702Y0177001D03*
X0365702Y0255001D03*
X0359800Y0255005D03*
X0353898Y0255001D03*
X0354800Y0356005D03*
X0360702Y0356001D03*
X0348898Y0356001D03*
X0348800Y0416005D03*
X0342898Y0416001D03*
X0354702Y0416001D03*
X0356702Y0488001D03*
X0350800Y0488005D03*
X0344898Y0488001D03*
X0342898Y0560001D03*
X0348800Y0560005D03*
X0354702Y0560001D03*
D17*
X0349800Y0567316D02*
X0347800Y0567316D01*
X0347800Y0575686D01*
X0349800Y0575686D01*
X0349800Y0567316D01*
X0349800Y0573315D02*
X0347800Y0573315D01*
X0349800Y0495316D02*
X0351800Y0495316D01*
X0349800Y0495316D02*
X0349800Y0503686D01*
X0351800Y0503686D01*
X0351800Y0495316D01*
X0351800Y0501315D02*
X0349800Y0501315D01*
X0349800Y0423316D02*
X0347800Y0423316D01*
X0347800Y0431686D01*
X0349800Y0431686D01*
X0349800Y0423316D01*
X0349800Y0429315D02*
X0347800Y0429315D01*
X0353800Y0363316D02*
X0355800Y0363316D01*
X0353800Y0363316D02*
X0353800Y0371686D01*
X0355800Y0371686D01*
X0355800Y0363316D01*
X0355800Y0369315D02*
X0353800Y0369315D01*
X0358800Y0262316D02*
X0360800Y0262316D01*
X0358800Y0262316D02*
X0358800Y0270686D01*
X0360800Y0270686D01*
X0360800Y0262316D01*
X0360800Y0268315D02*
X0358800Y0268315D01*
X0372800Y0184316D02*
X0374800Y0184316D01*
X0372800Y0184316D02*
X0372800Y0192686D01*
X0374800Y0192686D01*
X0374800Y0184316D01*
X0374800Y0190315D02*
X0372800Y0190315D01*
X0372800Y0127316D02*
X0374800Y0127316D01*
X0372800Y0127316D02*
X0372800Y0135686D01*
X0374800Y0135686D01*
X0374800Y0127316D01*
X0374800Y0133315D02*
X0372800Y0133315D01*
X0364800Y0077316D02*
X0362800Y0077316D01*
X0362800Y0085686D01*
X0364800Y0085686D01*
X0364800Y0077316D01*
X0364800Y0083315D02*
X0362800Y0083315D01*
M02*
