G75*
%MOIN*%
%OFA0B0*%
%FSLAX25Y25*%
%IPPOS*%
%LPD*%
%AMOC8*
5,1,8,0,0,1.08239X$1,22.5*
%
%ADD10C,0.15750*%
%ADD11C,0.04737*%
%ADD12C,0.10839*%
%ADD13C,0.08300*%
%ADD14C,0.11300*%
%ADD15R,0.05918X0.06706*%
%ADD16C,0.06000*%
%ADD17C,0.07887*%
%ADD18R,0.04300X0.07400*%
%ADD19R,0.13398X0.07887*%
%ADD20C,0.12650*%
%ADD21R,0.10249X0.10249*%
%ADD22OC8,0.06000*%
%ADD23R,0.06706X0.05918*%
%ADD24OC8,0.06800*%
%ADD25R,0.07887X0.09461*%
%ADD26R,0.03950X0.06312*%
%ADD27C,0.06600*%
%ADD28R,0.03937X0.06299*%
%ADD29C,0.20800*%
%ADD30C,0.07099*%
%ADD31R,0.06737X0.06737*%
%ADD32C,0.06343*%
%ADD33C,0.08674*%
%ADD34R,0.04762X0.04762*%
D10*
X0028800Y0019800D03*
X0446800Y0026800D03*
X0446800Y0626800D03*
X0024800Y0628800D03*
D11*
X0551800Y0661800D03*
X0581800Y0661800D03*
X0746800Y0136800D03*
X0746800Y0106800D03*
D12*
X0098820Y0603005D02*
X0088780Y0603005D01*
X0088780Y0618595D02*
X0098820Y0618595D01*
X0033820Y0607595D02*
X0023780Y0607595D01*
X0023780Y0592005D02*
X0033820Y0592005D01*
D13*
X0042800Y0232800D03*
D14*
X0032761Y0222761D03*
X0032761Y0242839D03*
X0052839Y0242839D03*
X0052839Y0222761D03*
D15*
X0151060Y0247800D03*
X0158540Y0247800D03*
X0174060Y0247800D03*
X0181540Y0247800D03*
X0223060Y0216800D03*
X0230540Y0216800D03*
X0263060Y0232800D03*
X0270540Y0232800D03*
X0232540Y0276800D03*
X0225060Y0276800D03*
X0263060Y0295800D03*
X0270540Y0295800D03*
X0270540Y0316800D03*
X0263060Y0316800D03*
X0234540Y0335800D03*
X0227060Y0335800D03*
X0261060Y0386800D03*
X0268540Y0386800D03*
X0304060Y0379800D03*
X0311540Y0379800D03*
X0313540Y0404800D03*
X0306060Y0404800D03*
X0267540Y0457800D03*
X0260060Y0457800D03*
X0234540Y0475800D03*
X0227060Y0475800D03*
X0187540Y0447800D03*
X0180060Y0447800D03*
X0163540Y0447800D03*
X0156060Y0447800D03*
X0226060Y0403800D03*
X0233540Y0403800D03*
X0383060Y0478800D03*
X0390540Y0478800D03*
X0316540Y0541800D03*
X0309060Y0541800D03*
X0269540Y0531800D03*
X0262060Y0531800D03*
X0234540Y0550800D03*
X0227060Y0550800D03*
X0261060Y0169800D03*
X0268540Y0169800D03*
X0228540Y0142800D03*
X0221060Y0142800D03*
X0261060Y0106800D03*
X0268540Y0106800D03*
X0228540Y0081800D03*
X0221060Y0081800D03*
X0296060Y0053800D03*
X0303540Y0053800D03*
D16*
X0303800Y0074200D02*
X0303800Y0079400D01*
X0313800Y0084200D02*
X0313800Y0089400D01*
X0323800Y0079400D02*
X0323800Y0074200D01*
X0314800Y0130200D02*
X0314800Y0135400D01*
X0324800Y0140200D02*
X0324800Y0145400D01*
X0334800Y0135400D02*
X0334800Y0130200D01*
X0334800Y0199200D02*
X0334800Y0204400D01*
X0324800Y0209200D02*
X0324800Y0214400D01*
X0314800Y0204400D02*
X0314800Y0199200D01*
X0311800Y0276200D02*
X0311800Y0281400D01*
X0321800Y0286200D02*
X0321800Y0291400D01*
X0331800Y0281400D02*
X0331800Y0276200D01*
X0312400Y0344800D02*
X0307200Y0344800D01*
X0302400Y0354800D02*
X0297200Y0354800D01*
X0307200Y0364800D02*
X0312400Y0364800D01*
X0308400Y0418800D02*
X0303200Y0418800D01*
X0298400Y0428800D02*
X0293200Y0428800D01*
X0303200Y0438800D02*
X0308400Y0438800D01*
X0308200Y0490800D02*
X0313400Y0490800D01*
X0303400Y0500800D02*
X0298200Y0500800D01*
X0308200Y0510800D02*
X0313400Y0510800D01*
X0311400Y0564800D02*
X0306200Y0564800D01*
X0301400Y0574800D02*
X0296200Y0574800D01*
X0306200Y0584800D02*
X0311400Y0584800D01*
X0096400Y0568800D02*
X0091200Y0568800D01*
X0056400Y0568800D02*
X0051200Y0568800D01*
X0056200Y0313800D02*
X0061400Y0313800D01*
X0061400Y0303800D02*
X0056200Y0303800D01*
X0056200Y0293800D02*
X0061400Y0293800D01*
X0061400Y0283800D02*
X0056200Y0283800D01*
X0086200Y0283800D02*
X0091400Y0283800D01*
X0091400Y0293800D02*
X0086200Y0293800D01*
X0086200Y0303800D02*
X0091400Y0303800D01*
X0091400Y0313800D02*
X0086200Y0313800D01*
X0676800Y0139400D02*
X0676800Y0134200D01*
X0686800Y0134200D02*
X0686800Y0139400D01*
X0696800Y0139400D02*
X0696800Y0134200D01*
X0706800Y0134200D02*
X0706800Y0139400D01*
X0716800Y0139400D02*
X0716800Y0134200D01*
X0726800Y0134200D02*
X0726800Y0139400D01*
X0736800Y0139400D02*
X0736800Y0134200D01*
X0736800Y0109400D02*
X0736800Y0104200D01*
X0726800Y0104200D02*
X0726800Y0109400D01*
X0716800Y0109400D02*
X0716800Y0104200D01*
X0706800Y0104200D02*
X0706800Y0109400D01*
X0696800Y0109400D02*
X0696800Y0104200D01*
X0686800Y0104200D02*
X0686800Y0109400D01*
X0676800Y0109400D02*
X0676800Y0104200D01*
X0706800Y0059400D02*
X0706800Y0054200D01*
X0716800Y0054200D02*
X0716800Y0059400D01*
X0726800Y0059400D02*
X0726800Y0054200D01*
X0726800Y0029400D02*
X0726800Y0024200D01*
X0716800Y0024200D02*
X0716800Y0029400D01*
X0706800Y0029400D02*
X0706800Y0024200D01*
X0738200Y0253800D02*
X0743400Y0253800D01*
X0743400Y0263800D02*
X0738200Y0263800D01*
X0738200Y0273800D02*
X0743400Y0273800D01*
X0743400Y0283800D02*
X0738200Y0283800D01*
X0768200Y0283800D02*
X0773400Y0283800D01*
X0773400Y0273800D02*
X0768200Y0273800D01*
X0768200Y0263800D02*
X0773400Y0263800D01*
X0773400Y0253800D02*
X0768200Y0253800D01*
D17*
X0088800Y0467800D03*
X0088800Y0487800D03*
X0088800Y0507800D03*
X0088800Y0537800D03*
X0058800Y0537800D03*
X0058800Y0507800D03*
X0058800Y0487800D03*
X0058800Y0467800D03*
D18*
X0200500Y0447350D03*
X0207800Y0447350D03*
X0215100Y0447350D03*
X0215100Y0418250D03*
X0207800Y0418250D03*
X0200500Y0418250D03*
X0200500Y0555250D03*
X0207800Y0555250D03*
X0215100Y0555250D03*
X0215100Y0584350D03*
X0207800Y0584350D03*
X0200500Y0584350D03*
X0202800Y0276350D03*
X0195500Y0276350D03*
X0210100Y0276350D03*
X0210100Y0247250D03*
X0202800Y0247250D03*
X0195500Y0247250D03*
X0195500Y0143350D03*
X0202800Y0143350D03*
X0210100Y0143350D03*
X0210100Y0114250D03*
X0202800Y0114250D03*
X0195500Y0114250D03*
D19*
X0402800Y0256776D03*
X0402800Y0278824D03*
X0457800Y0269776D03*
X0457800Y0291824D03*
X0457800Y0240824D03*
X0457800Y0218776D03*
X0413800Y0210824D03*
X0413800Y0188776D03*
X0413800Y0150824D03*
X0413800Y0128776D03*
X0413800Y0080824D03*
X0413800Y0058776D03*
X0402800Y0347776D03*
X0402800Y0369824D03*
X0458800Y0378824D03*
X0458800Y0356776D03*
X0402800Y0424776D03*
X0402800Y0446824D03*
X0402800Y0489776D03*
X0402800Y0511824D03*
X0403800Y0565776D03*
X0403800Y0587824D03*
D20*
X0416800Y0622875D02*
X0416800Y0634725D01*
X0169800Y0636725D02*
X0169800Y0624875D01*
X0458800Y0327725D02*
X0458800Y0315875D01*
X0417800Y0038725D02*
X0417800Y0026875D01*
X0169800Y0027875D02*
X0169800Y0039725D01*
D21*
X0246800Y0055139D03*
X0246800Y0072461D03*
X0256139Y0088800D03*
X0273461Y0088800D03*
X0247800Y0123139D03*
X0247800Y0140461D03*
X0256139Y0154800D03*
X0273461Y0154800D03*
X0248800Y0185139D03*
X0248800Y0202461D03*
X0257139Y0216800D03*
X0274461Y0216800D03*
X0248800Y0246139D03*
X0248800Y0263461D03*
X0256139Y0279800D03*
X0273461Y0279800D03*
X0275461Y0335800D03*
X0258139Y0335800D03*
X0250800Y0352139D03*
X0250800Y0369461D03*
X0257139Y0403800D03*
X0251800Y0420139D03*
X0274461Y0403800D03*
X0251800Y0437461D03*
X0256139Y0476800D03*
X0273461Y0476800D03*
X0252800Y0494139D03*
X0252800Y0511461D03*
X0257139Y0550800D03*
X0252800Y0567139D03*
X0252800Y0584461D03*
X0274461Y0550800D03*
D22*
X0028800Y0548800D03*
X0028800Y0568800D03*
X0665800Y0211800D03*
X0685800Y0211800D03*
X0706800Y0186800D03*
X0726800Y0212800D03*
X0716800Y0221800D03*
X0746800Y0212800D03*
X0766800Y0212800D03*
X0786800Y0212800D03*
X0797800Y0226800D03*
X0766800Y0186800D03*
X0786800Y0181800D03*
X0756800Y0161800D03*
X0786800Y0141800D03*
X0786800Y0107800D03*
X0776800Y0097800D03*
X0766800Y0107800D03*
X0696800Y0161800D03*
X0716800Y0261800D03*
X0716800Y0273800D03*
X0716800Y0313800D03*
X0797800Y0266800D03*
D23*
X0458800Y0400060D03*
X0458800Y0407540D03*
X0302800Y0264540D03*
X0302800Y0257060D03*
X0280800Y0254060D03*
X0280800Y0261540D03*
X0283800Y0196540D03*
X0283800Y0189060D03*
X0307800Y0184540D03*
X0307800Y0177060D03*
X0283800Y0134540D03*
X0283800Y0127060D03*
X0314800Y0118540D03*
X0314800Y0111060D03*
X0283800Y0070540D03*
X0283800Y0063060D03*
X0280800Y0355060D03*
X0280800Y0362540D03*
X0278800Y0430060D03*
X0278800Y0437540D03*
X0278800Y0498060D03*
X0278800Y0505540D03*
X0277800Y0573060D03*
X0277800Y0580540D03*
D24*
X0258800Y0628800D03*
X0298800Y0628800D03*
X0686200Y0353800D03*
X0697000Y0353800D03*
X0691600Y0363800D03*
X0702400Y0363800D03*
X0713200Y0363800D03*
X0707800Y0353800D03*
X0718600Y0353800D03*
X0729400Y0353800D03*
X0724000Y0363800D03*
X0296800Y0032800D03*
X0256800Y0032800D03*
D25*
X0439761Y0057800D03*
X0459839Y0057800D03*
X0459839Y0083800D03*
X0439761Y0083800D03*
X0439761Y0107800D03*
X0459839Y0107800D03*
X0459839Y0133800D03*
X0439761Y0133800D03*
X0438761Y0484800D03*
X0458839Y0484800D03*
X0458839Y0514800D03*
X0438761Y0514800D03*
X0438761Y0539800D03*
X0458839Y0539800D03*
X0458839Y0566800D03*
X0438761Y0566800D03*
D26*
X0354702Y0560001D03*
X0342898Y0560001D03*
X0344898Y0488001D03*
X0356702Y0488001D03*
X0354702Y0416001D03*
X0342898Y0416001D03*
X0348898Y0356001D03*
X0360702Y0356001D03*
X0365702Y0255001D03*
X0353898Y0255001D03*
X0367898Y0177001D03*
X0379702Y0177001D03*
X0379702Y0120001D03*
X0367898Y0120001D03*
X0369702Y0070001D03*
X0357898Y0070001D03*
D27*
X0362700Y0077216D02*
X0364900Y0077216D01*
X0362700Y0077216D02*
X0362700Y0085786D01*
X0364900Y0085786D01*
X0364900Y0077216D01*
X0364900Y0083815D02*
X0362700Y0083815D01*
X0372700Y0127216D02*
X0374900Y0127216D01*
X0372700Y0127216D02*
X0372700Y0135786D01*
X0374900Y0135786D01*
X0374900Y0127216D01*
X0374900Y0133815D02*
X0372700Y0133815D01*
X0372700Y0184216D02*
X0374900Y0184216D01*
X0372700Y0184216D02*
X0372700Y0192786D01*
X0374900Y0192786D01*
X0374900Y0184216D01*
X0374900Y0190815D02*
X0372700Y0190815D01*
X0360900Y0262216D02*
X0358700Y0262216D01*
X0358700Y0270786D01*
X0360900Y0270786D01*
X0360900Y0262216D01*
X0360900Y0268815D02*
X0358700Y0268815D01*
X0355900Y0363216D02*
X0353700Y0363216D01*
X0353700Y0371786D01*
X0355900Y0371786D01*
X0355900Y0363216D01*
X0355900Y0369815D02*
X0353700Y0369815D01*
X0349900Y0423216D02*
X0347700Y0423216D01*
X0347700Y0431786D01*
X0349900Y0431786D01*
X0349900Y0423216D01*
X0349900Y0429815D02*
X0347700Y0429815D01*
X0349700Y0495216D02*
X0351900Y0495216D01*
X0349700Y0495216D02*
X0349700Y0503786D01*
X0351900Y0503786D01*
X0351900Y0495216D01*
X0351900Y0501815D02*
X0349700Y0501815D01*
X0349900Y0567216D02*
X0347700Y0567216D01*
X0347700Y0575786D01*
X0349900Y0575786D01*
X0349900Y0567216D01*
X0349900Y0573815D02*
X0347700Y0573815D01*
D28*
X0348800Y0560005D03*
X0350800Y0488005D03*
X0348800Y0416005D03*
X0354800Y0356005D03*
X0359800Y0255005D03*
X0373800Y0177005D03*
X0373800Y0120005D03*
X0363800Y0070005D03*
D29*
X0658500Y0358800D03*
X0757100Y0358800D03*
D30*
X0627824Y0481800D03*
X0505776Y0481800D03*
X0566800Y0182824D03*
X0566800Y0060776D03*
D31*
X0566800Y0121800D03*
X0566800Y0481800D03*
D32*
X0566800Y0580800D03*
X0576800Y0580800D03*
D33*
X0586800Y0600800D03*
X0546800Y0600800D03*
D34*
X0438761Y0463839D03*
X0420800Y0446800D03*
X0328800Y0383800D03*
X0323800Y0404800D03*
X0247800Y0384800D03*
X0234800Y0424800D03*
X0278800Y0486800D03*
X0299800Y0486800D03*
X0246800Y0524800D03*
X0239800Y0563800D03*
X0277800Y0560800D03*
X0298800Y0560800D03*
X0200500Y0504100D03*
X0119800Y0487800D03*
X0026800Y0487800D03*
X0162800Y0318800D03*
X0184800Y0279800D03*
X0223800Y0258800D03*
X0224800Y0287800D03*
X0189800Y0213800D03*
X0232800Y0184800D03*
X0220800Y0156800D03*
X0182800Y0152800D03*
X0216800Y0120800D03*
X0223800Y0107800D03*
X0236800Y0120800D03*
X0223800Y0055800D03*
X0440800Y0153800D03*
X0701800Y0026800D03*
X0794800Y0238800D03*
X0729800Y0263800D03*
X0718600Y0353000D03*
M02*
