G75*
%MOIN*%
%OFA0B0*%
%FSLAX25Y25*%
%IPPOS*%
%LPD*%
%AMOC8*
5,1,8,0,0,1.08239X$1,22.5*
%
%ADD10C,0.10039*%
%ADD11C,0.07500*%
%ADD12C,0.10500*%
%ADD13C,0.05200*%
%ADD14C,0.07087*%
%ADD15C,0.11850*%
%ADD16OC8,0.05200*%
%ADD17OC8,0.06000*%
%ADD18C,0.20000*%
%ADD19R,0.05937X0.05937*%
%ADD20C,0.05543*%
%ADD21C,0.01600*%
%ADD22C,0.06600*%
%ADD23C,0.15000*%
%ADD24R,0.03962X0.03962*%
%ADD25C,0.05600*%
%ADD26C,0.04000*%
%ADD27C,0.02400*%
D10*
X0023780Y0592005D02*
X0033820Y0592005D01*
X0033820Y0607595D02*
X0023780Y0607595D01*
X0088780Y0603005D02*
X0098820Y0603005D01*
X0098820Y0618595D02*
X0088780Y0618595D01*
D11*
X0042800Y0232800D03*
D12*
X0032761Y0222761D03*
X0032761Y0242839D03*
X0052839Y0242839D03*
X0052839Y0222761D03*
D13*
X0056200Y0283800D02*
X0061400Y0283800D01*
X0061400Y0293800D02*
X0056200Y0293800D01*
X0056200Y0303800D02*
X0061400Y0303800D01*
X0061400Y0313800D02*
X0056200Y0313800D01*
X0086200Y0313800D02*
X0091400Y0313800D01*
X0091400Y0303800D02*
X0086200Y0303800D01*
X0086200Y0293800D02*
X0091400Y0293800D01*
X0091400Y0283800D02*
X0086200Y0283800D01*
X0297200Y0354800D02*
X0302400Y0354800D01*
X0307200Y0344800D02*
X0312400Y0344800D01*
X0312400Y0364800D02*
X0307200Y0364800D01*
X0308400Y0418800D02*
X0303200Y0418800D01*
X0298400Y0428800D02*
X0293200Y0428800D01*
X0303200Y0438800D02*
X0308400Y0438800D01*
X0308200Y0490800D02*
X0313400Y0490800D01*
X0303400Y0500800D02*
X0298200Y0500800D01*
X0308200Y0510800D02*
X0313400Y0510800D01*
X0311400Y0564800D02*
X0306200Y0564800D01*
X0301400Y0574800D02*
X0296200Y0574800D01*
X0306200Y0584800D02*
X0311400Y0584800D01*
X0096400Y0568800D02*
X0091200Y0568800D01*
X0056400Y0568800D02*
X0051200Y0568800D01*
X0321800Y0291400D02*
X0321800Y0286200D01*
X0311800Y0281400D02*
X0311800Y0276200D01*
X0331800Y0276200D02*
X0331800Y0281400D01*
X0324800Y0214400D02*
X0324800Y0209200D01*
X0314800Y0204400D02*
X0314800Y0199200D01*
X0334800Y0199200D02*
X0334800Y0204400D01*
X0324800Y0145400D02*
X0324800Y0140200D01*
X0314800Y0135400D02*
X0314800Y0130200D01*
X0334800Y0130200D02*
X0334800Y0135400D01*
X0313800Y0089400D02*
X0313800Y0084200D01*
X0303800Y0079400D02*
X0303800Y0074200D01*
X0323800Y0074200D02*
X0323800Y0079400D01*
X0676800Y0104200D02*
X0676800Y0109400D01*
X0686800Y0109400D02*
X0686800Y0104200D01*
X0696800Y0104200D02*
X0696800Y0109400D01*
X0706800Y0109400D02*
X0706800Y0104200D01*
X0716800Y0104200D02*
X0716800Y0109400D01*
X0726800Y0109400D02*
X0726800Y0104200D01*
X0736800Y0104200D02*
X0736800Y0109400D01*
X0736800Y0134200D02*
X0736800Y0139400D01*
X0726800Y0139400D02*
X0726800Y0134200D01*
X0716800Y0134200D02*
X0716800Y0139400D01*
X0706800Y0139400D02*
X0706800Y0134200D01*
X0696800Y0134200D02*
X0696800Y0139400D01*
X0686800Y0139400D02*
X0686800Y0134200D01*
X0676800Y0134200D02*
X0676800Y0139400D01*
X0706800Y0059400D02*
X0706800Y0054200D01*
X0716800Y0054200D02*
X0716800Y0059400D01*
X0726800Y0059400D02*
X0726800Y0054200D01*
X0726800Y0029400D02*
X0726800Y0024200D01*
X0716800Y0024200D02*
X0716800Y0029400D01*
X0706800Y0029400D02*
X0706800Y0024200D01*
X0738200Y0253800D02*
X0743400Y0253800D01*
X0743400Y0263800D02*
X0738200Y0263800D01*
X0738200Y0273800D02*
X0743400Y0273800D01*
X0743400Y0283800D02*
X0738200Y0283800D01*
X0768200Y0283800D02*
X0773400Y0283800D01*
X0773400Y0273800D02*
X0768200Y0273800D01*
X0768200Y0263800D02*
X0773400Y0263800D01*
X0773400Y0253800D02*
X0768200Y0253800D01*
D14*
X0088800Y0467800D03*
X0088800Y0487800D03*
X0088800Y0507800D03*
X0088800Y0537800D03*
X0058800Y0537800D03*
X0058800Y0507800D03*
X0058800Y0487800D03*
X0058800Y0467800D03*
D15*
X0169800Y0624875D02*
X0169800Y0636725D01*
X0416800Y0634725D02*
X0416800Y0622875D01*
X0458800Y0327725D02*
X0458800Y0315875D01*
X0417800Y0038725D02*
X0417800Y0026875D01*
X0169800Y0027875D02*
X0169800Y0039725D01*
D16*
X0665800Y0211800D03*
X0685800Y0211800D03*
X0706800Y0186800D03*
X0726800Y0212800D03*
X0716800Y0221800D03*
X0746800Y0212800D03*
X0766800Y0212800D03*
X0786800Y0212800D03*
X0797800Y0226800D03*
X0766800Y0186800D03*
X0786800Y0181800D03*
X0756800Y0161800D03*
X0786800Y0141800D03*
X0786800Y0107800D03*
X0776800Y0097800D03*
X0766800Y0107800D03*
X0696800Y0161800D03*
X0716800Y0261800D03*
X0716800Y0273800D03*
X0716800Y0313800D03*
X0797800Y0266800D03*
X0028800Y0548800D03*
X0028800Y0568800D03*
D17*
X0258800Y0628800D03*
X0298800Y0628800D03*
X0686200Y0353800D03*
X0697000Y0353800D03*
X0691600Y0363800D03*
X0702400Y0363800D03*
X0713200Y0363800D03*
X0707800Y0353800D03*
X0718600Y0353800D03*
X0729400Y0353800D03*
X0724000Y0363800D03*
X0296800Y0032800D03*
X0256800Y0032800D03*
D18*
X0658500Y0358800D03*
X0757100Y0358800D03*
D19*
X0566800Y0481800D03*
X0566800Y0121800D03*
D20*
X0566800Y0580800D03*
X0576800Y0580800D03*
D21*
X0009200Y0644400D02*
X0009200Y0009200D01*
X0018364Y0009200D01*
X0016897Y0010667D01*
X0014939Y0014058D01*
X0013925Y0017842D01*
X0013925Y0021758D01*
X0014939Y0025542D01*
X0016897Y0028933D01*
X0019667Y0031703D01*
X0023058Y0033661D01*
X0026842Y0034675D01*
X0030758Y0034675D01*
X0034542Y0033661D01*
X0037933Y0031703D01*
X0040703Y0028933D01*
X0042661Y0025542D01*
X0043675Y0021758D01*
X0043675Y0017842D01*
X0042661Y0014058D01*
X0040703Y0010667D01*
X0039236Y0009200D01*
X0132800Y0009200D01*
X0132800Y0644400D01*
X0009200Y0644400D01*
X0009200Y0642803D02*
X0019588Y0642803D01*
X0019058Y0642661D02*
X0015667Y0640703D01*
X0012897Y0637933D01*
X0010939Y0634542D01*
X0009925Y0630758D01*
X0009925Y0626842D01*
X0010939Y0623058D01*
X0012897Y0619667D01*
X0015667Y0616897D01*
X0019058Y0614939D01*
X0022842Y0613925D01*
X0026758Y0613925D01*
X0030542Y0614939D01*
X0033933Y0616897D01*
X0036703Y0619667D01*
X0038661Y0623058D01*
X0039675Y0626842D01*
X0039675Y0630758D01*
X0038661Y0634542D01*
X0036703Y0637933D01*
X0033933Y0640703D01*
X0030542Y0642661D01*
X0026758Y0643675D01*
X0022842Y0643675D01*
X0019058Y0642661D01*
X0016535Y0641205D02*
X0009200Y0641205D01*
X0009200Y0639606D02*
X0014570Y0639606D01*
X0012971Y0638008D02*
X0009200Y0638008D01*
X0009200Y0636409D02*
X0012017Y0636409D01*
X0011094Y0634810D02*
X0009200Y0634810D01*
X0009200Y0633212D02*
X0010582Y0633212D01*
X0010154Y0631613D02*
X0009200Y0631613D01*
X0009200Y0630015D02*
X0009925Y0630015D01*
X0009925Y0628416D02*
X0009200Y0628416D01*
X0009200Y0626818D02*
X0009931Y0626818D01*
X0010360Y0625219D02*
X0009200Y0625219D01*
X0009200Y0623621D02*
X0010788Y0623621D01*
X0011537Y0622022D02*
X0009200Y0622022D01*
X0009200Y0620424D02*
X0012460Y0620424D01*
X0013738Y0618825D02*
X0009200Y0618825D01*
X0009200Y0617227D02*
X0015337Y0617227D01*
X0017864Y0615628D02*
X0009200Y0615628D01*
X0009200Y0614030D02*
X0022450Y0614030D01*
X0027150Y0614030D02*
X0083037Y0614030D01*
X0083986Y0614578D02*
X0081154Y0612943D01*
X0078842Y0610631D01*
X0077207Y0607799D01*
X0076361Y0604640D01*
X0076361Y0601370D01*
X0077207Y0598211D01*
X0078842Y0595379D01*
X0081154Y0593066D01*
X0083100Y0591943D01*
X0083100Y0574842D01*
X0082722Y0574465D01*
X0081200Y0570789D01*
X0081200Y0566811D01*
X0082722Y0563135D01*
X0083100Y0562758D01*
X0083100Y0547232D01*
X0082895Y0547027D01*
X0082081Y0546557D01*
X0080043Y0544519D01*
X0078602Y0542024D01*
X0077857Y0539241D01*
X0077857Y0536359D01*
X0078602Y0533576D01*
X0079212Y0532520D01*
X0068027Y0543705D01*
X0067557Y0544519D01*
X0065519Y0546557D01*
X0064705Y0547027D01*
X0064500Y0547232D01*
X0064500Y0562758D01*
X0064878Y0563135D01*
X0066400Y0566811D01*
X0066400Y0570789D01*
X0064878Y0574465D01*
X0063895Y0575447D01*
X0062962Y0577063D01*
X0061063Y0578962D01*
X0058737Y0580305D01*
X0056143Y0581000D01*
X0053457Y0581000D01*
X0050863Y0580305D01*
X0049469Y0579500D01*
X0039500Y0579500D01*
X0039500Y0580943D01*
X0041446Y0582066D01*
X0043758Y0584379D01*
X0045393Y0587211D01*
X0046239Y0590370D01*
X0046239Y0593640D01*
X0045393Y0596799D01*
X0043758Y0599631D01*
X0041446Y0601943D01*
X0038613Y0603578D01*
X0035455Y0604424D01*
X0022145Y0604424D01*
X0018986Y0603578D01*
X0016154Y0601943D01*
X0013842Y0599631D01*
X0012207Y0596799D01*
X0011361Y0593640D01*
X0011361Y0590370D01*
X0012207Y0587211D01*
X0013842Y0584379D01*
X0016154Y0582066D01*
X0018100Y0580943D01*
X0018100Y0567391D01*
X0018800Y0564779D01*
X0018800Y0564658D01*
X0018886Y0564572D01*
X0020238Y0562230D01*
X0022230Y0560238D01*
X0024572Y0558886D01*
X0024658Y0558800D01*
X0024779Y0558800D01*
X0027391Y0558100D01*
X0043100Y0558100D01*
X0043100Y0541391D01*
X0043829Y0538670D01*
X0045238Y0536230D01*
X0049573Y0531895D01*
X0050043Y0531081D01*
X0052081Y0529043D01*
X0052895Y0528573D01*
X0063100Y0518368D01*
X0063100Y0517954D01*
X0063024Y0517998D01*
X0060241Y0518743D01*
X0057359Y0518743D01*
X0056451Y0518500D01*
X0045391Y0518500D01*
X0042670Y0517771D01*
X0040230Y0516362D01*
X0038238Y0514370D01*
X0036829Y0511930D01*
X0036100Y0509209D01*
X0036100Y0312391D01*
X0036134Y0312266D01*
X0034238Y0310370D01*
X0032829Y0307930D01*
X0032100Y0305209D01*
X0032100Y0235947D01*
X0031650Y0234268D01*
X0031650Y0231332D01*
X0032410Y0228496D01*
X0033878Y0225954D01*
X0035954Y0223878D01*
X0038496Y0222410D01*
X0041332Y0221650D01*
X0044268Y0221650D01*
X0047104Y0222410D01*
X0049646Y0223878D01*
X0051722Y0225954D01*
X0053190Y0228496D01*
X0053950Y0231332D01*
X0053950Y0234268D01*
X0053500Y0235947D01*
X0053500Y0273100D01*
X0060209Y0273100D01*
X0062821Y0273800D01*
X0063389Y0273800D01*
X0067065Y0275322D01*
X0069878Y0278135D01*
X0071400Y0281811D01*
X0071400Y0285789D01*
X0069878Y0289465D01*
X0067065Y0292278D01*
X0063389Y0293800D01*
X0067065Y0295322D01*
X0067105Y0295363D01*
X0067230Y0295238D01*
X0067230Y0295238D01*
X0076340Y0286128D01*
X0076200Y0285789D01*
X0076200Y0281811D01*
X0077722Y0278135D01*
X0080535Y0275322D01*
X0084211Y0273800D01*
X0093389Y0273800D01*
X0097065Y0275322D01*
X0099878Y0278135D01*
X0101400Y0281811D01*
X0101400Y0285789D01*
X0100153Y0288800D01*
X0101400Y0291811D01*
X0101400Y0295789D01*
X0100153Y0298800D01*
X0101400Y0301811D01*
X0101400Y0305789D01*
X0100153Y0308800D01*
X0101016Y0310884D01*
X0109362Y0319230D01*
X0110771Y0321670D01*
X0111500Y0324391D01*
X0111500Y0509209D01*
X0110771Y0511930D01*
X0109362Y0514370D01*
X0107370Y0516362D01*
X0104930Y0517771D01*
X0102209Y0518500D01*
X0091149Y0518500D01*
X0090241Y0518743D01*
X0087359Y0518743D01*
X0084576Y0517998D01*
X0084500Y0517954D01*
X0084500Y0524209D01*
X0083771Y0526930D01*
X0082786Y0528636D01*
X0084576Y0527602D01*
X0087359Y0526857D01*
X0090241Y0526857D01*
X0093024Y0527602D01*
X0095519Y0529043D01*
X0097557Y0531081D01*
X0098027Y0531895D01*
X0102362Y0536230D01*
X0103771Y0538670D01*
X0104500Y0541391D01*
X0104500Y0562758D01*
X0104878Y0563135D01*
X0106400Y0566811D01*
X0106400Y0570789D01*
X0104878Y0574465D01*
X0104500Y0574842D01*
X0104500Y0591943D01*
X0106446Y0593066D01*
X0108758Y0595379D01*
X0110393Y0598211D01*
X0111239Y0601370D01*
X0111239Y0604640D01*
X0110393Y0607799D01*
X0108758Y0610631D01*
X0106446Y0612943D01*
X0103613Y0614578D01*
X0100455Y0615424D01*
X0087145Y0615424D01*
X0083986Y0614578D01*
X0080643Y0612431D02*
X0009200Y0612431D01*
X0009200Y0610833D02*
X0079044Y0610833D01*
X0078036Y0609234D02*
X0009200Y0609234D01*
X0009200Y0607636D02*
X0077163Y0607636D01*
X0076735Y0606037D02*
X0009200Y0606037D01*
X0009200Y0604439D02*
X0076361Y0604439D01*
X0076361Y0602840D02*
X0039891Y0602840D01*
X0042147Y0601242D02*
X0076395Y0601242D01*
X0076823Y0599643D02*
X0043745Y0599643D01*
X0044673Y0598045D02*
X0077303Y0598045D01*
X0078226Y0596446D02*
X0045487Y0596446D01*
X0045916Y0594848D02*
X0079373Y0594848D01*
X0080972Y0593249D02*
X0046239Y0593249D01*
X0046239Y0591651D02*
X0083100Y0591651D01*
X0083100Y0590052D02*
X0046154Y0590052D01*
X0045726Y0588454D02*
X0083100Y0588454D01*
X0083100Y0586855D02*
X0045188Y0586855D01*
X0044265Y0585257D02*
X0083100Y0585257D01*
X0083100Y0583658D02*
X0043037Y0583658D01*
X0041434Y0582060D02*
X0083100Y0582060D01*
X0083100Y0580461D02*
X0058154Y0580461D01*
X0061162Y0578863D02*
X0083100Y0578863D01*
X0083100Y0577264D02*
X0062761Y0577264D01*
X0063769Y0575666D02*
X0083100Y0575666D01*
X0082558Y0574067D02*
X0065042Y0574067D01*
X0065704Y0572469D02*
X0081896Y0572469D01*
X0081234Y0570870D02*
X0066366Y0570870D01*
X0066400Y0569272D02*
X0081200Y0569272D01*
X0081200Y0567673D02*
X0066400Y0567673D01*
X0066095Y0566074D02*
X0081505Y0566074D01*
X0082167Y0564476D02*
X0065433Y0564476D01*
X0064620Y0562877D02*
X0082980Y0562877D01*
X0083100Y0561279D02*
X0064500Y0561279D01*
X0064500Y0559680D02*
X0083100Y0559680D01*
X0083100Y0558082D02*
X0064500Y0558082D01*
X0064500Y0556483D02*
X0083100Y0556483D01*
X0083100Y0554885D02*
X0064500Y0554885D01*
X0064500Y0553286D02*
X0083100Y0553286D01*
X0083100Y0551688D02*
X0064500Y0551688D01*
X0064500Y0550089D02*
X0083100Y0550089D01*
X0083100Y0548491D02*
X0064500Y0548491D01*
X0064938Y0546892D02*
X0082662Y0546892D01*
X0080818Y0545294D02*
X0066782Y0545294D01*
X0068037Y0543695D02*
X0079567Y0543695D01*
X0078645Y0542097D02*
X0069635Y0542097D01*
X0071234Y0540498D02*
X0078194Y0540498D01*
X0077857Y0538900D02*
X0072832Y0538900D01*
X0074431Y0537301D02*
X0077857Y0537301D01*
X0078033Y0535703D02*
X0076029Y0535703D01*
X0077628Y0534104D02*
X0078461Y0534104D01*
X0083320Y0527710D02*
X0084389Y0527710D01*
X0083990Y0526112D02*
X0132800Y0526112D01*
X0132800Y0527710D02*
X0093211Y0527710D01*
X0095785Y0529309D02*
X0132800Y0529309D01*
X0132800Y0530907D02*
X0097383Y0530907D01*
X0098638Y0532506D02*
X0132800Y0532506D01*
X0132800Y0534104D02*
X0100236Y0534104D01*
X0101835Y0535703D02*
X0132800Y0535703D01*
X0132800Y0537301D02*
X0102981Y0537301D01*
X0103832Y0538900D02*
X0132800Y0538900D01*
X0132800Y0540498D02*
X0104261Y0540498D01*
X0104500Y0542097D02*
X0132800Y0542097D01*
X0132800Y0543695D02*
X0104500Y0543695D01*
X0104500Y0545294D02*
X0132800Y0545294D01*
X0132800Y0546892D02*
X0104500Y0546892D01*
X0104500Y0548491D02*
X0132800Y0548491D01*
X0132800Y0550089D02*
X0104500Y0550089D01*
X0104500Y0551688D02*
X0132800Y0551688D01*
X0132800Y0553286D02*
X0104500Y0553286D01*
X0104500Y0554885D02*
X0132800Y0554885D01*
X0132800Y0556483D02*
X0104500Y0556483D01*
X0104500Y0558082D02*
X0132800Y0558082D01*
X0132800Y0559680D02*
X0104500Y0559680D01*
X0104500Y0561279D02*
X0132800Y0561279D01*
X0132800Y0562877D02*
X0104620Y0562877D01*
X0105433Y0564476D02*
X0132800Y0564476D01*
X0132800Y0566074D02*
X0106095Y0566074D01*
X0106400Y0567673D02*
X0132800Y0567673D01*
X0132800Y0569272D02*
X0106400Y0569272D01*
X0106366Y0570870D02*
X0132800Y0570870D01*
X0132800Y0572469D02*
X0105704Y0572469D01*
X0105042Y0574067D02*
X0132800Y0574067D01*
X0132800Y0575666D02*
X0104500Y0575666D01*
X0104500Y0577264D02*
X0132800Y0577264D01*
X0132800Y0578863D02*
X0104500Y0578863D01*
X0104500Y0580461D02*
X0132800Y0580461D01*
X0132800Y0582060D02*
X0104500Y0582060D01*
X0104500Y0583658D02*
X0132800Y0583658D01*
X0132800Y0585257D02*
X0104500Y0585257D01*
X0104500Y0586855D02*
X0132800Y0586855D01*
X0132800Y0588454D02*
X0104500Y0588454D01*
X0104500Y0590052D02*
X0132800Y0590052D01*
X0132800Y0591651D02*
X0104500Y0591651D01*
X0106628Y0593249D02*
X0132800Y0593249D01*
X0132800Y0594848D02*
X0108227Y0594848D01*
X0109374Y0596446D02*
X0132800Y0596446D01*
X0132800Y0598045D02*
X0110297Y0598045D01*
X0110777Y0599643D02*
X0132800Y0599643D01*
X0132800Y0601242D02*
X0111205Y0601242D01*
X0111239Y0602840D02*
X0132800Y0602840D01*
X0132800Y0604439D02*
X0111239Y0604439D01*
X0110865Y0606037D02*
X0132800Y0606037D01*
X0132800Y0607636D02*
X0110437Y0607636D01*
X0109564Y0609234D02*
X0132800Y0609234D01*
X0132800Y0610833D02*
X0108556Y0610833D01*
X0106957Y0612431D02*
X0132800Y0612431D01*
X0132800Y0614030D02*
X0104563Y0614030D01*
X0132800Y0615628D02*
X0031736Y0615628D01*
X0034263Y0617227D02*
X0132800Y0617227D01*
X0132800Y0618825D02*
X0035862Y0618825D01*
X0037140Y0620424D02*
X0132800Y0620424D01*
X0132800Y0622022D02*
X0038063Y0622022D01*
X0038812Y0623621D02*
X0132800Y0623621D01*
X0132800Y0625219D02*
X0039240Y0625219D01*
X0039669Y0626818D02*
X0132800Y0626818D01*
X0132800Y0628416D02*
X0039675Y0628416D01*
X0039675Y0630015D02*
X0132800Y0630015D01*
X0132800Y0631613D02*
X0039446Y0631613D01*
X0039018Y0633212D02*
X0132800Y0633212D01*
X0132800Y0634810D02*
X0038506Y0634810D01*
X0037583Y0636409D02*
X0132800Y0636409D01*
X0132800Y0638008D02*
X0036629Y0638008D01*
X0035030Y0639606D02*
X0132800Y0639606D01*
X0132800Y0641205D02*
X0033065Y0641205D01*
X0030012Y0642803D02*
X0132800Y0642803D01*
X0051446Y0580461D02*
X0039500Y0580461D01*
X0018100Y0580461D02*
X0009200Y0580461D01*
X0009200Y0578863D02*
X0018100Y0578863D01*
X0018100Y0577264D02*
X0009200Y0577264D01*
X0009200Y0575666D02*
X0018100Y0575666D01*
X0018100Y0574067D02*
X0009200Y0574067D01*
X0009200Y0572469D02*
X0018100Y0572469D01*
X0018100Y0570870D02*
X0009200Y0570870D01*
X0009200Y0569272D02*
X0018100Y0569272D01*
X0018100Y0567673D02*
X0009200Y0567673D01*
X0009200Y0566074D02*
X0018453Y0566074D01*
X0018941Y0564476D02*
X0009200Y0564476D01*
X0009200Y0562877D02*
X0019864Y0562877D01*
X0021189Y0561279D02*
X0009200Y0561279D01*
X0009200Y0559680D02*
X0023196Y0559680D01*
X0009200Y0558082D02*
X0043100Y0558082D01*
X0043100Y0556483D02*
X0009200Y0556483D01*
X0009200Y0554885D02*
X0043100Y0554885D01*
X0043100Y0553286D02*
X0009200Y0553286D01*
X0009200Y0551688D02*
X0043100Y0551688D01*
X0043100Y0550089D02*
X0009200Y0550089D01*
X0009200Y0548491D02*
X0043100Y0548491D01*
X0043100Y0546892D02*
X0009200Y0546892D01*
X0009200Y0545294D02*
X0043100Y0545294D01*
X0043100Y0543695D02*
X0009200Y0543695D01*
X0009200Y0542097D02*
X0043100Y0542097D01*
X0043339Y0540498D02*
X0009200Y0540498D01*
X0009200Y0538900D02*
X0043768Y0538900D01*
X0044619Y0537301D02*
X0009200Y0537301D01*
X0009200Y0535703D02*
X0045765Y0535703D01*
X0047364Y0534104D02*
X0009200Y0534104D01*
X0009200Y0532506D02*
X0048962Y0532506D01*
X0050217Y0530907D02*
X0009200Y0530907D01*
X0009200Y0529309D02*
X0051815Y0529309D01*
X0053758Y0527710D02*
X0009200Y0527710D01*
X0009200Y0526112D02*
X0055356Y0526112D01*
X0056955Y0524513D02*
X0009200Y0524513D01*
X0009200Y0522915D02*
X0058553Y0522915D01*
X0060152Y0521316D02*
X0009200Y0521316D01*
X0009200Y0519718D02*
X0061750Y0519718D01*
X0062570Y0518119D02*
X0063100Y0518119D01*
X0043970Y0518119D02*
X0009200Y0518119D01*
X0009200Y0516521D02*
X0040505Y0516521D01*
X0038790Y0514922D02*
X0009200Y0514922D01*
X0009200Y0513324D02*
X0037634Y0513324D01*
X0036774Y0511725D02*
X0009200Y0511725D01*
X0009200Y0510127D02*
X0036346Y0510127D01*
X0036100Y0508528D02*
X0009200Y0508528D01*
X0009200Y0506930D02*
X0036100Y0506930D01*
X0036100Y0505331D02*
X0009200Y0505331D01*
X0009200Y0503733D02*
X0036100Y0503733D01*
X0036100Y0502134D02*
X0009200Y0502134D01*
X0009200Y0500536D02*
X0036100Y0500536D01*
X0036100Y0498937D02*
X0009200Y0498937D01*
X0009200Y0497339D02*
X0036100Y0497339D01*
X0036100Y0495740D02*
X0009200Y0495740D01*
X0009200Y0494141D02*
X0036100Y0494141D01*
X0036100Y0492543D02*
X0009200Y0492543D01*
X0009200Y0490944D02*
X0036100Y0490944D01*
X0036100Y0489346D02*
X0009200Y0489346D01*
X0009200Y0487747D02*
X0036100Y0487747D01*
X0036100Y0486149D02*
X0009200Y0486149D01*
X0009200Y0484550D02*
X0036100Y0484550D01*
X0036100Y0482952D02*
X0009200Y0482952D01*
X0009200Y0481353D02*
X0036100Y0481353D01*
X0036100Y0479755D02*
X0009200Y0479755D01*
X0009200Y0478156D02*
X0036100Y0478156D01*
X0036100Y0476558D02*
X0009200Y0476558D01*
X0009200Y0474959D02*
X0036100Y0474959D01*
X0036100Y0473361D02*
X0009200Y0473361D01*
X0009200Y0471762D02*
X0036100Y0471762D01*
X0036100Y0470164D02*
X0009200Y0470164D01*
X0009200Y0468565D02*
X0036100Y0468565D01*
X0036100Y0466967D02*
X0009200Y0466967D01*
X0009200Y0465368D02*
X0036100Y0465368D01*
X0036100Y0463770D02*
X0009200Y0463770D01*
X0009200Y0462171D02*
X0036100Y0462171D01*
X0036100Y0460573D02*
X0009200Y0460573D01*
X0009200Y0458974D02*
X0036100Y0458974D01*
X0036100Y0457376D02*
X0009200Y0457376D01*
X0009200Y0455777D02*
X0036100Y0455777D01*
X0036100Y0454179D02*
X0009200Y0454179D01*
X0009200Y0452580D02*
X0036100Y0452580D01*
X0036100Y0450982D02*
X0009200Y0450982D01*
X0009200Y0449383D02*
X0036100Y0449383D01*
X0036100Y0447785D02*
X0009200Y0447785D01*
X0009200Y0446186D02*
X0036100Y0446186D01*
X0036100Y0444588D02*
X0009200Y0444588D01*
X0009200Y0442989D02*
X0036100Y0442989D01*
X0036100Y0441391D02*
X0009200Y0441391D01*
X0009200Y0439792D02*
X0036100Y0439792D01*
X0036100Y0438194D02*
X0009200Y0438194D01*
X0009200Y0436595D02*
X0036100Y0436595D01*
X0036100Y0434997D02*
X0009200Y0434997D01*
X0009200Y0433398D02*
X0036100Y0433398D01*
X0036100Y0431800D02*
X0009200Y0431800D01*
X0009200Y0430201D02*
X0036100Y0430201D01*
X0036100Y0428603D02*
X0009200Y0428603D01*
X0009200Y0427004D02*
X0036100Y0427004D01*
X0036100Y0425405D02*
X0009200Y0425405D01*
X0009200Y0423807D02*
X0036100Y0423807D01*
X0036100Y0422208D02*
X0009200Y0422208D01*
X0009200Y0420610D02*
X0036100Y0420610D01*
X0036100Y0419011D02*
X0009200Y0419011D01*
X0009200Y0417413D02*
X0036100Y0417413D01*
X0036100Y0415814D02*
X0009200Y0415814D01*
X0009200Y0414216D02*
X0036100Y0414216D01*
X0036100Y0412617D02*
X0009200Y0412617D01*
X0009200Y0411019D02*
X0036100Y0411019D01*
X0036100Y0409420D02*
X0009200Y0409420D01*
X0009200Y0407822D02*
X0036100Y0407822D01*
X0036100Y0406223D02*
X0009200Y0406223D01*
X0009200Y0404625D02*
X0036100Y0404625D01*
X0036100Y0403026D02*
X0009200Y0403026D01*
X0009200Y0401428D02*
X0036100Y0401428D01*
X0036100Y0399829D02*
X0009200Y0399829D01*
X0009200Y0398231D02*
X0036100Y0398231D01*
X0036100Y0396632D02*
X0009200Y0396632D01*
X0009200Y0395034D02*
X0036100Y0395034D01*
X0036100Y0393435D02*
X0009200Y0393435D01*
X0009200Y0391837D02*
X0036100Y0391837D01*
X0036100Y0390238D02*
X0009200Y0390238D01*
X0009200Y0388640D02*
X0036100Y0388640D01*
X0036100Y0387041D02*
X0009200Y0387041D01*
X0009200Y0385443D02*
X0036100Y0385443D01*
X0036100Y0383844D02*
X0009200Y0383844D01*
X0009200Y0382246D02*
X0036100Y0382246D01*
X0036100Y0380647D02*
X0009200Y0380647D01*
X0009200Y0379049D02*
X0036100Y0379049D01*
X0036100Y0377450D02*
X0009200Y0377450D01*
X0009200Y0375852D02*
X0036100Y0375852D01*
X0036100Y0374253D02*
X0009200Y0374253D01*
X0009200Y0372655D02*
X0036100Y0372655D01*
X0036100Y0371056D02*
X0009200Y0371056D01*
X0009200Y0369458D02*
X0036100Y0369458D01*
X0036100Y0367859D02*
X0009200Y0367859D01*
X0009200Y0366261D02*
X0036100Y0366261D01*
X0036100Y0364662D02*
X0009200Y0364662D01*
X0009200Y0363064D02*
X0036100Y0363064D01*
X0036100Y0361465D02*
X0009200Y0361465D01*
X0009200Y0359867D02*
X0036100Y0359867D01*
X0036100Y0358268D02*
X0009200Y0358268D01*
X0009200Y0356670D02*
X0036100Y0356670D01*
X0036100Y0355071D02*
X0009200Y0355071D01*
X0009200Y0353472D02*
X0036100Y0353472D01*
X0036100Y0351874D02*
X0009200Y0351874D01*
X0009200Y0350275D02*
X0036100Y0350275D01*
X0036100Y0348677D02*
X0009200Y0348677D01*
X0009200Y0347078D02*
X0036100Y0347078D01*
X0036100Y0345480D02*
X0009200Y0345480D01*
X0009200Y0343881D02*
X0036100Y0343881D01*
X0036100Y0342283D02*
X0009200Y0342283D01*
X0009200Y0340684D02*
X0036100Y0340684D01*
X0036100Y0339086D02*
X0009200Y0339086D01*
X0009200Y0337487D02*
X0036100Y0337487D01*
X0036100Y0335889D02*
X0009200Y0335889D01*
X0009200Y0334290D02*
X0036100Y0334290D01*
X0036100Y0332692D02*
X0009200Y0332692D01*
X0009200Y0331093D02*
X0036100Y0331093D01*
X0036100Y0329495D02*
X0009200Y0329495D01*
X0009200Y0327896D02*
X0036100Y0327896D01*
X0036100Y0326298D02*
X0009200Y0326298D01*
X0009200Y0324699D02*
X0036100Y0324699D01*
X0036100Y0323101D02*
X0009200Y0323101D01*
X0009200Y0321502D02*
X0036100Y0321502D01*
X0036100Y0319904D02*
X0009200Y0319904D01*
X0009200Y0318305D02*
X0036100Y0318305D01*
X0036100Y0316707D02*
X0009200Y0316707D01*
X0009200Y0315108D02*
X0036100Y0315108D01*
X0036100Y0313510D02*
X0009200Y0313510D01*
X0009200Y0311911D02*
X0035779Y0311911D01*
X0034205Y0310313D02*
X0009200Y0310313D01*
X0009200Y0308714D02*
X0033282Y0308714D01*
X0032611Y0307116D02*
X0009200Y0307116D01*
X0009200Y0305517D02*
X0032183Y0305517D01*
X0032100Y0303919D02*
X0009200Y0303919D01*
X0009200Y0302320D02*
X0032100Y0302320D01*
X0032100Y0300722D02*
X0009200Y0300722D01*
X0009200Y0299123D02*
X0032100Y0299123D01*
X0032100Y0297525D02*
X0009200Y0297525D01*
X0009200Y0295926D02*
X0032100Y0295926D01*
X0032100Y0294328D02*
X0009200Y0294328D01*
X0009200Y0292729D02*
X0032100Y0292729D01*
X0032100Y0291131D02*
X0009200Y0291131D01*
X0009200Y0289532D02*
X0032100Y0289532D01*
X0032100Y0287934D02*
X0009200Y0287934D01*
X0009200Y0286335D02*
X0032100Y0286335D01*
X0032100Y0284737D02*
X0009200Y0284737D01*
X0009200Y0283138D02*
X0032100Y0283138D01*
X0032100Y0281539D02*
X0009200Y0281539D01*
X0009200Y0279941D02*
X0032100Y0279941D01*
X0032100Y0278342D02*
X0009200Y0278342D01*
X0009200Y0276744D02*
X0032100Y0276744D01*
X0032100Y0275145D02*
X0009200Y0275145D01*
X0009200Y0273547D02*
X0032100Y0273547D01*
X0032100Y0271948D02*
X0009200Y0271948D01*
X0009200Y0270350D02*
X0032100Y0270350D01*
X0032100Y0268751D02*
X0009200Y0268751D01*
X0009200Y0267153D02*
X0032100Y0267153D01*
X0032100Y0265554D02*
X0009200Y0265554D01*
X0009200Y0263956D02*
X0032100Y0263956D01*
X0032100Y0262357D02*
X0009200Y0262357D01*
X0009200Y0260759D02*
X0032100Y0260759D01*
X0032100Y0259160D02*
X0009200Y0259160D01*
X0009200Y0257562D02*
X0032100Y0257562D01*
X0032100Y0255963D02*
X0009200Y0255963D01*
X0009200Y0254365D02*
X0032100Y0254365D01*
X0032100Y0252766D02*
X0009200Y0252766D01*
X0009200Y0251168D02*
X0032100Y0251168D01*
X0032100Y0249569D02*
X0009200Y0249569D01*
X0009200Y0247971D02*
X0032100Y0247971D01*
X0032100Y0246372D02*
X0009200Y0246372D01*
X0009200Y0244774D02*
X0032100Y0244774D01*
X0032100Y0243175D02*
X0009200Y0243175D01*
X0009200Y0241577D02*
X0032100Y0241577D01*
X0032100Y0239978D02*
X0009200Y0239978D01*
X0009200Y0238380D02*
X0032100Y0238380D01*
X0032100Y0236781D02*
X0009200Y0236781D01*
X0009200Y0235183D02*
X0031895Y0235183D01*
X0031650Y0233584D02*
X0009200Y0233584D01*
X0009200Y0231986D02*
X0031650Y0231986D01*
X0031903Y0230387D02*
X0009200Y0230387D01*
X0009200Y0228789D02*
X0032332Y0228789D01*
X0033164Y0227190D02*
X0009200Y0227190D01*
X0009200Y0225592D02*
X0034240Y0225592D01*
X0035838Y0223993D02*
X0009200Y0223993D01*
X0009200Y0222395D02*
X0038553Y0222395D01*
X0047047Y0222395D02*
X0132800Y0222395D01*
X0132800Y0223993D02*
X0049762Y0223993D01*
X0051360Y0225592D02*
X0132800Y0225592D01*
X0132800Y0227190D02*
X0052436Y0227190D01*
X0053268Y0228789D02*
X0132800Y0228789D01*
X0132800Y0230387D02*
X0053697Y0230387D01*
X0053950Y0231986D02*
X0132800Y0231986D01*
X0132800Y0233584D02*
X0053950Y0233584D01*
X0053705Y0235183D02*
X0132800Y0235183D01*
X0132800Y0236781D02*
X0053500Y0236781D01*
X0053500Y0238380D02*
X0132800Y0238380D01*
X0132800Y0239978D02*
X0053500Y0239978D01*
X0053500Y0241577D02*
X0132800Y0241577D01*
X0132800Y0243175D02*
X0053500Y0243175D01*
X0053500Y0244774D02*
X0132800Y0244774D01*
X0132800Y0246372D02*
X0053500Y0246372D01*
X0053500Y0247971D02*
X0132800Y0247971D01*
X0132800Y0249569D02*
X0053500Y0249569D01*
X0053500Y0251168D02*
X0132800Y0251168D01*
X0132800Y0252766D02*
X0053500Y0252766D01*
X0053500Y0254365D02*
X0132800Y0254365D01*
X0132800Y0255963D02*
X0053500Y0255963D01*
X0053500Y0257562D02*
X0132800Y0257562D01*
X0132800Y0259160D02*
X0053500Y0259160D01*
X0053500Y0260759D02*
X0132800Y0260759D01*
X0132800Y0262357D02*
X0053500Y0262357D01*
X0053500Y0263956D02*
X0132800Y0263956D01*
X0132800Y0265554D02*
X0053500Y0265554D01*
X0053500Y0267153D02*
X0132800Y0267153D01*
X0132800Y0268751D02*
X0053500Y0268751D01*
X0053500Y0270350D02*
X0132800Y0270350D01*
X0132800Y0271948D02*
X0053500Y0271948D01*
X0061877Y0273547D02*
X0132800Y0273547D01*
X0132800Y0275145D02*
X0096637Y0275145D01*
X0098486Y0276744D02*
X0132800Y0276744D01*
X0132800Y0278342D02*
X0099963Y0278342D01*
X0100625Y0279941D02*
X0132800Y0279941D01*
X0132800Y0281539D02*
X0101288Y0281539D01*
X0101400Y0283138D02*
X0132800Y0283138D01*
X0132800Y0284737D02*
X0101400Y0284737D01*
X0101174Y0286335D02*
X0132800Y0286335D01*
X0132800Y0287934D02*
X0100512Y0287934D01*
X0100456Y0289532D02*
X0132800Y0289532D01*
X0132800Y0291131D02*
X0101118Y0291131D01*
X0101400Y0292729D02*
X0132800Y0292729D01*
X0132800Y0294328D02*
X0101400Y0294328D01*
X0101343Y0295926D02*
X0132800Y0295926D01*
X0132800Y0297525D02*
X0100681Y0297525D01*
X0100287Y0299123D02*
X0132800Y0299123D01*
X0132800Y0300722D02*
X0100949Y0300722D01*
X0101400Y0302320D02*
X0132800Y0302320D01*
X0132800Y0303919D02*
X0101400Y0303919D01*
X0101400Y0305517D02*
X0132800Y0305517D01*
X0132800Y0307116D02*
X0100851Y0307116D01*
X0100188Y0308714D02*
X0132800Y0308714D01*
X0132800Y0310313D02*
X0100779Y0310313D01*
X0102043Y0311911D02*
X0132800Y0311911D01*
X0132800Y0313510D02*
X0103642Y0313510D01*
X0105240Y0315108D02*
X0132800Y0315108D01*
X0132800Y0316707D02*
X0106839Y0316707D01*
X0108437Y0318305D02*
X0132800Y0318305D01*
X0132800Y0319904D02*
X0109751Y0319904D01*
X0110674Y0321502D02*
X0132800Y0321502D01*
X0132800Y0323101D02*
X0111154Y0323101D01*
X0111500Y0324699D02*
X0132800Y0324699D01*
X0132800Y0326298D02*
X0111500Y0326298D01*
X0111500Y0327896D02*
X0132800Y0327896D01*
X0132800Y0329495D02*
X0111500Y0329495D01*
X0111500Y0331093D02*
X0132800Y0331093D01*
X0132800Y0332692D02*
X0111500Y0332692D01*
X0111500Y0334290D02*
X0132800Y0334290D01*
X0132800Y0335889D02*
X0111500Y0335889D01*
X0111500Y0337487D02*
X0132800Y0337487D01*
X0132800Y0339086D02*
X0111500Y0339086D01*
X0111500Y0340684D02*
X0132800Y0340684D01*
X0132800Y0342283D02*
X0111500Y0342283D01*
X0111500Y0343881D02*
X0132800Y0343881D01*
X0132800Y0345480D02*
X0111500Y0345480D01*
X0111500Y0347078D02*
X0132800Y0347078D01*
X0132800Y0348677D02*
X0111500Y0348677D01*
X0111500Y0350275D02*
X0132800Y0350275D01*
X0132800Y0351874D02*
X0111500Y0351874D01*
X0111500Y0353472D02*
X0132800Y0353472D01*
X0132800Y0355071D02*
X0111500Y0355071D01*
X0111500Y0356670D02*
X0132800Y0356670D01*
X0132800Y0358268D02*
X0111500Y0358268D01*
X0111500Y0359867D02*
X0132800Y0359867D01*
X0132800Y0361465D02*
X0111500Y0361465D01*
X0111500Y0363064D02*
X0132800Y0363064D01*
X0132800Y0364662D02*
X0111500Y0364662D01*
X0111500Y0366261D02*
X0132800Y0366261D01*
X0132800Y0367859D02*
X0111500Y0367859D01*
X0111500Y0369458D02*
X0132800Y0369458D01*
X0132800Y0371056D02*
X0111500Y0371056D01*
X0111500Y0372655D02*
X0132800Y0372655D01*
X0132800Y0374253D02*
X0111500Y0374253D01*
X0111500Y0375852D02*
X0132800Y0375852D01*
X0132800Y0377450D02*
X0111500Y0377450D01*
X0111500Y0379049D02*
X0132800Y0379049D01*
X0132800Y0380647D02*
X0111500Y0380647D01*
X0111500Y0382246D02*
X0132800Y0382246D01*
X0132800Y0383844D02*
X0111500Y0383844D01*
X0111500Y0385443D02*
X0132800Y0385443D01*
X0132800Y0387041D02*
X0111500Y0387041D01*
X0111500Y0388640D02*
X0132800Y0388640D01*
X0132800Y0390238D02*
X0111500Y0390238D01*
X0111500Y0391837D02*
X0132800Y0391837D01*
X0132800Y0393435D02*
X0111500Y0393435D01*
X0111500Y0395034D02*
X0132800Y0395034D01*
X0132800Y0396632D02*
X0111500Y0396632D01*
X0111500Y0398231D02*
X0132800Y0398231D01*
X0132800Y0399829D02*
X0111500Y0399829D01*
X0111500Y0401428D02*
X0132800Y0401428D01*
X0132800Y0403026D02*
X0111500Y0403026D01*
X0111500Y0404625D02*
X0132800Y0404625D01*
X0132800Y0406223D02*
X0111500Y0406223D01*
X0111500Y0407822D02*
X0132800Y0407822D01*
X0132800Y0409420D02*
X0111500Y0409420D01*
X0111500Y0411019D02*
X0132800Y0411019D01*
X0132800Y0412617D02*
X0111500Y0412617D01*
X0111500Y0414216D02*
X0132800Y0414216D01*
X0132800Y0415814D02*
X0111500Y0415814D01*
X0111500Y0417413D02*
X0132800Y0417413D01*
X0132800Y0419011D02*
X0111500Y0419011D01*
X0111500Y0420610D02*
X0132800Y0420610D01*
X0132800Y0422208D02*
X0111500Y0422208D01*
X0111500Y0423807D02*
X0132800Y0423807D01*
X0132800Y0425405D02*
X0111500Y0425405D01*
X0111500Y0427004D02*
X0132800Y0427004D01*
X0132800Y0428603D02*
X0111500Y0428603D01*
X0111500Y0430201D02*
X0132800Y0430201D01*
X0132800Y0431800D02*
X0111500Y0431800D01*
X0111500Y0433398D02*
X0132800Y0433398D01*
X0132800Y0434997D02*
X0111500Y0434997D01*
X0111500Y0436595D02*
X0132800Y0436595D01*
X0132800Y0438194D02*
X0111500Y0438194D01*
X0111500Y0439792D02*
X0132800Y0439792D01*
X0132800Y0441391D02*
X0111500Y0441391D01*
X0111500Y0442989D02*
X0132800Y0442989D01*
X0132800Y0444588D02*
X0111500Y0444588D01*
X0111500Y0446186D02*
X0132800Y0446186D01*
X0132800Y0447785D02*
X0111500Y0447785D01*
X0111500Y0449383D02*
X0132800Y0449383D01*
X0132800Y0450982D02*
X0111500Y0450982D01*
X0111500Y0452580D02*
X0132800Y0452580D01*
X0132800Y0454179D02*
X0111500Y0454179D01*
X0111500Y0455777D02*
X0132800Y0455777D01*
X0132800Y0457376D02*
X0111500Y0457376D01*
X0111500Y0458974D02*
X0132800Y0458974D01*
X0132800Y0460573D02*
X0111500Y0460573D01*
X0111500Y0462171D02*
X0132800Y0462171D01*
X0132800Y0463770D02*
X0111500Y0463770D01*
X0111500Y0465368D02*
X0132800Y0465368D01*
X0132800Y0466967D02*
X0111500Y0466967D01*
X0111500Y0468565D02*
X0132800Y0468565D01*
X0132800Y0470164D02*
X0111500Y0470164D01*
X0111500Y0471762D02*
X0132800Y0471762D01*
X0132800Y0473361D02*
X0111500Y0473361D01*
X0111500Y0474959D02*
X0132800Y0474959D01*
X0132800Y0476558D02*
X0111500Y0476558D01*
X0111500Y0478156D02*
X0132800Y0478156D01*
X0132800Y0479755D02*
X0111500Y0479755D01*
X0111500Y0481353D02*
X0132800Y0481353D01*
X0132800Y0482952D02*
X0111500Y0482952D01*
X0111500Y0484550D02*
X0132800Y0484550D01*
X0132800Y0486149D02*
X0111500Y0486149D01*
X0111500Y0487747D02*
X0132800Y0487747D01*
X0132800Y0489346D02*
X0111500Y0489346D01*
X0111500Y0490944D02*
X0132800Y0490944D01*
X0132800Y0492543D02*
X0111500Y0492543D01*
X0111500Y0494141D02*
X0132800Y0494141D01*
X0132800Y0495740D02*
X0111500Y0495740D01*
X0111500Y0497339D02*
X0132800Y0497339D01*
X0132800Y0498937D02*
X0111500Y0498937D01*
X0111500Y0500536D02*
X0132800Y0500536D01*
X0132800Y0502134D02*
X0111500Y0502134D01*
X0111500Y0503733D02*
X0132800Y0503733D01*
X0132800Y0505331D02*
X0111500Y0505331D01*
X0111500Y0506930D02*
X0132800Y0506930D01*
X0132800Y0508528D02*
X0111500Y0508528D01*
X0111254Y0510127D02*
X0132800Y0510127D01*
X0132800Y0511725D02*
X0110826Y0511725D01*
X0109966Y0513324D02*
X0132800Y0513324D01*
X0132800Y0514922D02*
X0108810Y0514922D01*
X0107095Y0516521D02*
X0132800Y0516521D01*
X0132800Y0518119D02*
X0103630Y0518119D01*
X0085030Y0518119D02*
X0084500Y0518119D01*
X0084500Y0519718D02*
X0132800Y0519718D01*
X0132800Y0521316D02*
X0084500Y0521316D01*
X0084500Y0522915D02*
X0132800Y0522915D01*
X0132800Y0524513D02*
X0084418Y0524513D01*
X0084500Y0497646D02*
X0084576Y0497602D01*
X0087359Y0496857D01*
X0090100Y0496857D01*
X0090100Y0478743D01*
X0087359Y0478743D01*
X0086451Y0478500D01*
X0084500Y0478500D01*
X0084500Y0497646D01*
X0084500Y0497339D02*
X0085561Y0497339D01*
X0084500Y0495740D02*
X0090100Y0495740D01*
X0090100Y0494141D02*
X0084500Y0494141D01*
X0084500Y0492543D02*
X0090100Y0492543D01*
X0090100Y0490944D02*
X0084500Y0490944D01*
X0084500Y0489346D02*
X0090100Y0489346D01*
X0090100Y0487747D02*
X0084500Y0487747D01*
X0084500Y0486149D02*
X0090100Y0486149D01*
X0090100Y0484550D02*
X0084500Y0484550D01*
X0084500Y0482952D02*
X0090100Y0482952D01*
X0090100Y0481353D02*
X0084500Y0481353D01*
X0084500Y0479755D02*
X0090100Y0479755D01*
X0063100Y0479755D02*
X0057500Y0479755D01*
X0057500Y0478743D02*
X0057500Y0496857D01*
X0060241Y0496857D01*
X0063024Y0497602D01*
X0063100Y0497646D01*
X0063100Y0478500D01*
X0061149Y0478500D01*
X0060241Y0478743D01*
X0057500Y0478743D01*
X0057500Y0481353D02*
X0063100Y0481353D01*
X0063100Y0482952D02*
X0057500Y0482952D01*
X0057500Y0484550D02*
X0063100Y0484550D01*
X0063100Y0486149D02*
X0057500Y0486149D01*
X0057500Y0487747D02*
X0063100Y0487747D01*
X0063100Y0489346D02*
X0057500Y0489346D01*
X0057500Y0490944D02*
X0063100Y0490944D01*
X0063100Y0492543D02*
X0057500Y0492543D01*
X0057500Y0494141D02*
X0063100Y0494141D01*
X0063100Y0495740D02*
X0057500Y0495740D01*
X0062039Y0497339D02*
X0063100Y0497339D01*
X0016166Y0582060D02*
X0009200Y0582060D01*
X0009200Y0583658D02*
X0014563Y0583658D01*
X0013335Y0585257D02*
X0009200Y0585257D01*
X0009200Y0586855D02*
X0012412Y0586855D01*
X0011874Y0588454D02*
X0009200Y0588454D01*
X0009200Y0590052D02*
X0011446Y0590052D01*
X0011361Y0591651D02*
X0009200Y0591651D01*
X0009200Y0593249D02*
X0011361Y0593249D01*
X0011684Y0594848D02*
X0009200Y0594848D01*
X0009200Y0596446D02*
X0012113Y0596446D01*
X0012927Y0598045D02*
X0009200Y0598045D01*
X0009200Y0599643D02*
X0013855Y0599643D01*
X0015453Y0601242D02*
X0009200Y0601242D01*
X0009200Y0602840D02*
X0017709Y0602840D01*
X0064663Y0294328D02*
X0068140Y0294328D01*
X0069739Y0292729D02*
X0065975Y0292729D01*
X0068212Y0291131D02*
X0071337Y0291131D01*
X0069810Y0289532D02*
X0072936Y0289532D01*
X0074534Y0287934D02*
X0070512Y0287934D01*
X0071174Y0286335D02*
X0076133Y0286335D01*
X0076200Y0284737D02*
X0071400Y0284737D01*
X0071400Y0283138D02*
X0076200Y0283138D01*
X0076312Y0281539D02*
X0071288Y0281539D01*
X0070625Y0279941D02*
X0076975Y0279941D01*
X0077637Y0278342D02*
X0069963Y0278342D01*
X0068486Y0276744D02*
X0079114Y0276744D01*
X0080963Y0275145D02*
X0066637Y0275145D01*
X0063389Y0293800D02*
X0062821Y0293800D01*
X0063389Y0293800D01*
X0062821Y0293800D02*
X0062821Y0293800D01*
X0009200Y0220796D02*
X0132800Y0220796D01*
X0132800Y0219198D02*
X0009200Y0219198D01*
X0009200Y0217599D02*
X0132800Y0217599D01*
X0132800Y0216001D02*
X0009200Y0216001D01*
X0009200Y0214402D02*
X0132800Y0214402D01*
X0132800Y0212803D02*
X0009200Y0212803D01*
X0009200Y0211205D02*
X0132800Y0211205D01*
X0132800Y0209606D02*
X0009200Y0209606D01*
X0009200Y0208008D02*
X0132800Y0208008D01*
X0132800Y0206409D02*
X0009200Y0206409D01*
X0009200Y0204811D02*
X0132800Y0204811D01*
X0132800Y0203212D02*
X0009200Y0203212D01*
X0009200Y0201614D02*
X0132800Y0201614D01*
X0132800Y0200015D02*
X0009200Y0200015D01*
X0009200Y0198417D02*
X0132800Y0198417D01*
X0132800Y0196818D02*
X0009200Y0196818D01*
X0009200Y0195220D02*
X0132800Y0195220D01*
X0132800Y0193621D02*
X0009200Y0193621D01*
X0009200Y0192023D02*
X0132800Y0192023D01*
X0132800Y0190424D02*
X0009200Y0190424D01*
X0009200Y0188826D02*
X0132800Y0188826D01*
X0132800Y0187227D02*
X0009200Y0187227D01*
X0009200Y0185629D02*
X0132800Y0185629D01*
X0132800Y0184030D02*
X0009200Y0184030D01*
X0009200Y0182432D02*
X0132800Y0182432D01*
X0132800Y0180833D02*
X0009200Y0180833D01*
X0009200Y0179235D02*
X0132800Y0179235D01*
X0132800Y0177636D02*
X0009200Y0177636D01*
X0009200Y0176038D02*
X0132800Y0176038D01*
X0132800Y0174439D02*
X0009200Y0174439D01*
X0009200Y0172841D02*
X0132800Y0172841D01*
X0132800Y0171242D02*
X0009200Y0171242D01*
X0009200Y0169644D02*
X0132800Y0169644D01*
X0132800Y0168045D02*
X0009200Y0168045D01*
X0009200Y0166447D02*
X0132800Y0166447D01*
X0132800Y0164848D02*
X0009200Y0164848D01*
X0009200Y0163250D02*
X0132800Y0163250D01*
X0132800Y0161651D02*
X0009200Y0161651D01*
X0009200Y0160053D02*
X0132800Y0160053D01*
X0132800Y0158454D02*
X0009200Y0158454D01*
X0009200Y0156856D02*
X0132800Y0156856D01*
X0132800Y0155257D02*
X0009200Y0155257D01*
X0009200Y0153659D02*
X0132800Y0153659D01*
X0132800Y0152060D02*
X0009200Y0152060D01*
X0009200Y0150462D02*
X0132800Y0150462D01*
X0132800Y0148863D02*
X0009200Y0148863D01*
X0009200Y0147265D02*
X0132800Y0147265D01*
X0132800Y0145666D02*
X0009200Y0145666D01*
X0009200Y0144068D02*
X0132800Y0144068D01*
X0132800Y0142469D02*
X0009200Y0142469D01*
X0009200Y0140870D02*
X0132800Y0140870D01*
X0132800Y0139272D02*
X0009200Y0139272D01*
X0009200Y0137673D02*
X0132800Y0137673D01*
X0132800Y0136075D02*
X0009200Y0136075D01*
X0009200Y0134476D02*
X0132800Y0134476D01*
X0132800Y0132878D02*
X0009200Y0132878D01*
X0009200Y0131279D02*
X0132800Y0131279D01*
X0132800Y0129681D02*
X0009200Y0129681D01*
X0009200Y0128082D02*
X0132800Y0128082D01*
X0132800Y0126484D02*
X0009200Y0126484D01*
X0009200Y0124885D02*
X0132800Y0124885D01*
X0132800Y0123287D02*
X0009200Y0123287D01*
X0009200Y0121688D02*
X0132800Y0121688D01*
X0132800Y0120090D02*
X0009200Y0120090D01*
X0009200Y0118491D02*
X0132800Y0118491D01*
X0132800Y0116893D02*
X0009200Y0116893D01*
X0009200Y0115294D02*
X0132800Y0115294D01*
X0132800Y0113696D02*
X0009200Y0113696D01*
X0009200Y0112097D02*
X0132800Y0112097D01*
X0132800Y0110499D02*
X0009200Y0110499D01*
X0009200Y0108900D02*
X0132800Y0108900D01*
X0132800Y0107302D02*
X0009200Y0107302D01*
X0009200Y0105703D02*
X0132800Y0105703D01*
X0132800Y0104105D02*
X0009200Y0104105D01*
X0009200Y0102506D02*
X0132800Y0102506D01*
X0132800Y0100908D02*
X0009200Y0100908D01*
X0009200Y0099309D02*
X0132800Y0099309D01*
X0132800Y0097711D02*
X0009200Y0097711D01*
X0009200Y0096112D02*
X0132800Y0096112D01*
X0132800Y0094514D02*
X0009200Y0094514D01*
X0009200Y0092915D02*
X0132800Y0092915D01*
X0132800Y0091317D02*
X0009200Y0091317D01*
X0009200Y0089718D02*
X0132800Y0089718D01*
X0132800Y0088120D02*
X0009200Y0088120D01*
X0009200Y0086521D02*
X0132800Y0086521D01*
X0132800Y0084923D02*
X0009200Y0084923D01*
X0009200Y0083324D02*
X0132800Y0083324D01*
X0132800Y0081726D02*
X0009200Y0081726D01*
X0009200Y0080127D02*
X0132800Y0080127D01*
X0132800Y0078529D02*
X0009200Y0078529D01*
X0009200Y0076930D02*
X0132800Y0076930D01*
X0132800Y0075332D02*
X0009200Y0075332D01*
X0009200Y0073733D02*
X0132800Y0073733D01*
X0132800Y0072134D02*
X0009200Y0072134D01*
X0009200Y0070536D02*
X0132800Y0070536D01*
X0132800Y0068937D02*
X0009200Y0068937D01*
X0009200Y0067339D02*
X0132800Y0067339D01*
X0132800Y0065740D02*
X0009200Y0065740D01*
X0009200Y0064142D02*
X0132800Y0064142D01*
X0132800Y0062543D02*
X0009200Y0062543D01*
X0009200Y0060945D02*
X0132800Y0060945D01*
X0132800Y0059346D02*
X0009200Y0059346D01*
X0009200Y0057748D02*
X0132800Y0057748D01*
X0132800Y0056149D02*
X0009200Y0056149D01*
X0009200Y0054551D02*
X0132800Y0054551D01*
X0132800Y0052952D02*
X0009200Y0052952D01*
X0009200Y0051354D02*
X0132800Y0051354D01*
X0132800Y0049755D02*
X0009200Y0049755D01*
X0009200Y0048157D02*
X0132800Y0048157D01*
X0132800Y0046558D02*
X0009200Y0046558D01*
X0009200Y0044960D02*
X0132800Y0044960D01*
X0132800Y0043361D02*
X0009200Y0043361D01*
X0009200Y0041763D02*
X0132800Y0041763D01*
X0132800Y0040164D02*
X0009200Y0040164D01*
X0009200Y0038566D02*
X0132800Y0038566D01*
X0132800Y0036967D02*
X0009200Y0036967D01*
X0009200Y0035369D02*
X0132800Y0035369D01*
X0132800Y0033770D02*
X0034135Y0033770D01*
X0037122Y0032172D02*
X0132800Y0032172D01*
X0132800Y0030573D02*
X0039063Y0030573D01*
X0040662Y0028975D02*
X0132800Y0028975D01*
X0132800Y0027376D02*
X0041602Y0027376D01*
X0042525Y0025778D02*
X0132800Y0025778D01*
X0132800Y0024179D02*
X0043026Y0024179D01*
X0043455Y0022581D02*
X0132800Y0022581D01*
X0132800Y0020982D02*
X0043675Y0020982D01*
X0043675Y0019384D02*
X0132800Y0019384D01*
X0132800Y0017785D02*
X0043660Y0017785D01*
X0043232Y0016187D02*
X0132800Y0016187D01*
X0132800Y0014588D02*
X0042803Y0014588D01*
X0042044Y0012990D02*
X0132800Y0012990D01*
X0132800Y0011391D02*
X0041121Y0011391D01*
X0039829Y0009793D02*
X0132800Y0009793D01*
X0023465Y0033770D02*
X0009200Y0033770D01*
X0009200Y0032172D02*
X0020478Y0032172D01*
X0018537Y0030573D02*
X0009200Y0030573D01*
X0009200Y0028975D02*
X0016938Y0028975D01*
X0015998Y0027376D02*
X0009200Y0027376D01*
X0009200Y0025778D02*
X0015075Y0025778D01*
X0014574Y0024179D02*
X0009200Y0024179D01*
X0009200Y0022581D02*
X0014145Y0022581D01*
X0013925Y0020982D02*
X0009200Y0020982D01*
X0009200Y0019384D02*
X0013925Y0019384D01*
X0013940Y0017785D02*
X0009200Y0017785D01*
X0009200Y0016187D02*
X0014368Y0016187D01*
X0014797Y0014588D02*
X0009200Y0014588D01*
X0009200Y0012990D02*
X0015556Y0012990D01*
X0016479Y0011391D02*
X0009200Y0011391D01*
X0009200Y0009793D02*
X0017771Y0009793D01*
X0488499Y0401200D02*
X0488499Y0622321D01*
X0649400Y0622321D01*
X0649400Y0401200D01*
X0488499Y0401200D01*
X0488499Y0401428D02*
X0649400Y0401428D01*
X0649400Y0403026D02*
X0488499Y0403026D01*
X0488499Y0404625D02*
X0649400Y0404625D01*
X0649400Y0406223D02*
X0488499Y0406223D01*
X0488499Y0407822D02*
X0649400Y0407822D01*
X0649400Y0409420D02*
X0488499Y0409420D01*
X0488499Y0411019D02*
X0649400Y0411019D01*
X0649400Y0412617D02*
X0488499Y0412617D01*
X0488499Y0414216D02*
X0649400Y0414216D01*
X0649400Y0415814D02*
X0488499Y0415814D01*
X0488499Y0417413D02*
X0649400Y0417413D01*
X0649400Y0419011D02*
X0488499Y0419011D01*
X0488499Y0420610D02*
X0649400Y0420610D01*
X0649400Y0422208D02*
X0488499Y0422208D01*
X0488499Y0423807D02*
X0649400Y0423807D01*
X0649400Y0425405D02*
X0488499Y0425405D01*
X0488499Y0427004D02*
X0649400Y0427004D01*
X0649400Y0428603D02*
X0488499Y0428603D01*
X0488499Y0430201D02*
X0649400Y0430201D01*
X0649400Y0431800D02*
X0488499Y0431800D01*
X0488499Y0433398D02*
X0649400Y0433398D01*
X0649400Y0434997D02*
X0488499Y0434997D01*
X0488499Y0436595D02*
X0649400Y0436595D01*
X0649400Y0438194D02*
X0488499Y0438194D01*
X0488499Y0439792D02*
X0649400Y0439792D01*
X0649400Y0441391D02*
X0488499Y0441391D01*
X0488499Y0442989D02*
X0649400Y0442989D01*
X0649400Y0444588D02*
X0488499Y0444588D01*
X0488499Y0446186D02*
X0649400Y0446186D01*
X0649400Y0447785D02*
X0488499Y0447785D01*
X0488499Y0449383D02*
X0649400Y0449383D01*
X0649400Y0450982D02*
X0488499Y0450982D01*
X0488499Y0452580D02*
X0649400Y0452580D01*
X0649400Y0454179D02*
X0488499Y0454179D01*
X0488499Y0455777D02*
X0649400Y0455777D01*
X0649400Y0457376D02*
X0488499Y0457376D01*
X0488499Y0458974D02*
X0649400Y0458974D01*
X0649400Y0460573D02*
X0488499Y0460573D01*
X0488499Y0462171D02*
X0649400Y0462171D01*
X0649400Y0463770D02*
X0488499Y0463770D01*
X0488499Y0465368D02*
X0649400Y0465368D01*
X0649400Y0466967D02*
X0488499Y0466967D01*
X0488499Y0468565D02*
X0649400Y0468565D01*
X0649400Y0470164D02*
X0488499Y0470164D01*
X0488499Y0471762D02*
X0649400Y0471762D01*
X0649400Y0473361D02*
X0632404Y0473361D01*
X0633233Y0473704D02*
X0635919Y0476391D01*
X0637373Y0479900D01*
X0637373Y0483700D01*
X0635919Y0487209D01*
X0633233Y0489896D01*
X0629723Y0491350D01*
X0625924Y0491350D01*
X0622414Y0489896D01*
X0619728Y0487209D01*
X0618274Y0483700D01*
X0618274Y0479900D01*
X0619728Y0476391D01*
X0622414Y0473704D01*
X0625924Y0472250D01*
X0629723Y0472250D01*
X0633233Y0473704D01*
X0634488Y0474959D02*
X0649400Y0474959D01*
X0649400Y0476558D02*
X0635989Y0476558D01*
X0636651Y0478156D02*
X0649400Y0478156D01*
X0649400Y0479755D02*
X0637313Y0479755D01*
X0637373Y0481353D02*
X0649400Y0481353D01*
X0649400Y0482952D02*
X0637373Y0482952D01*
X0637021Y0484550D02*
X0649400Y0484550D01*
X0649400Y0486149D02*
X0636359Y0486149D01*
X0635381Y0487747D02*
X0649400Y0487747D01*
X0649400Y0489346D02*
X0633783Y0489346D01*
X0630701Y0490944D02*
X0649400Y0490944D01*
X0649400Y0492543D02*
X0576000Y0492543D01*
X0576000Y0494141D02*
X0649400Y0494141D01*
X0649400Y0495740D02*
X0576000Y0495740D01*
X0576000Y0497339D02*
X0649400Y0497339D01*
X0649400Y0498937D02*
X0576000Y0498937D01*
X0576000Y0500536D02*
X0649400Y0500536D01*
X0649400Y0502134D02*
X0576000Y0502134D01*
X0576000Y0503733D02*
X0649400Y0503733D01*
X0649400Y0505331D02*
X0576000Y0505331D01*
X0576000Y0506930D02*
X0649400Y0506930D01*
X0649400Y0508528D02*
X0576000Y0508528D01*
X0576000Y0510127D02*
X0649400Y0510127D01*
X0649400Y0511725D02*
X0576000Y0511725D01*
X0576000Y0513324D02*
X0649400Y0513324D01*
X0649400Y0514922D02*
X0576000Y0514922D01*
X0576000Y0516521D02*
X0649400Y0516521D01*
X0649400Y0518119D02*
X0576000Y0518119D01*
X0576000Y0519718D02*
X0649400Y0519718D01*
X0649400Y0521316D02*
X0576000Y0521316D01*
X0576000Y0522915D02*
X0649400Y0522915D01*
X0649400Y0524513D02*
X0576000Y0524513D01*
X0576000Y0526112D02*
X0649400Y0526112D01*
X0649400Y0527710D02*
X0576000Y0527710D01*
X0576000Y0529309D02*
X0649400Y0529309D01*
X0649400Y0530907D02*
X0576000Y0530907D01*
X0576000Y0532506D02*
X0649400Y0532506D01*
X0649400Y0534104D02*
X0576000Y0534104D01*
X0576000Y0535703D02*
X0649400Y0535703D01*
X0649400Y0537301D02*
X0576000Y0537301D01*
X0576000Y0538900D02*
X0649400Y0538900D01*
X0649400Y0540498D02*
X0576000Y0540498D01*
X0576000Y0542097D02*
X0649400Y0542097D01*
X0649400Y0543695D02*
X0576000Y0543695D01*
X0576000Y0545294D02*
X0649400Y0545294D01*
X0649400Y0546892D02*
X0576000Y0546892D01*
X0576000Y0548491D02*
X0649400Y0548491D01*
X0649400Y0550089D02*
X0576000Y0550089D01*
X0576000Y0551688D02*
X0649400Y0551688D01*
X0649400Y0553286D02*
X0576000Y0553286D01*
X0576000Y0554885D02*
X0649400Y0554885D01*
X0649400Y0556483D02*
X0576000Y0556483D01*
X0576000Y0558082D02*
X0649400Y0558082D01*
X0649400Y0559680D02*
X0576000Y0559680D01*
X0576000Y0561279D02*
X0649400Y0561279D01*
X0649400Y0562877D02*
X0576000Y0562877D01*
X0576000Y0564476D02*
X0649400Y0564476D01*
X0649400Y0566074D02*
X0576000Y0566074D01*
X0576000Y0567673D02*
X0649400Y0567673D01*
X0649400Y0569272D02*
X0576000Y0569272D01*
X0576000Y0570870D02*
X0649400Y0570870D01*
X0649400Y0572469D02*
X0576000Y0572469D01*
X0576000Y0574067D02*
X0649400Y0574067D01*
X0649400Y0575666D02*
X0576000Y0575666D01*
X0576000Y0577264D02*
X0649400Y0577264D01*
X0649400Y0578863D02*
X0576000Y0578863D01*
X0576000Y0580461D02*
X0649400Y0580461D01*
X0649400Y0582060D02*
X0576000Y0582060D01*
X0576000Y0582630D02*
X0574599Y0586011D01*
X0572011Y0588599D01*
X0568630Y0590000D01*
X0564970Y0590000D01*
X0561589Y0588599D01*
X0559001Y0586011D01*
X0557600Y0582630D01*
X0557600Y0486448D01*
X0557431Y0486042D01*
X0557431Y0477558D01*
X0558406Y0475206D01*
X0560206Y0473406D01*
X0562558Y0472431D01*
X0571042Y0472431D01*
X0573394Y0473406D01*
X0575194Y0475206D01*
X0576168Y0477558D01*
X0576168Y0486042D01*
X0576000Y0486448D01*
X0576000Y0582630D01*
X0575574Y0583658D02*
X0649400Y0583658D01*
X0649400Y0585257D02*
X0574912Y0585257D01*
X0573756Y0586855D02*
X0649400Y0586855D01*
X0649400Y0588454D02*
X0572157Y0588454D01*
X0578528Y0594453D02*
X0577167Y0596810D01*
X0576463Y0599439D01*
X0576463Y0602161D01*
X0577167Y0604790D01*
X0578528Y0607147D01*
X0580453Y0609072D01*
X0582810Y0610433D01*
X0585439Y0611137D01*
X0588161Y0611137D01*
X0590790Y0610433D01*
X0593147Y0609072D01*
X0595072Y0607147D01*
X0596433Y0604790D01*
X0597137Y0602161D01*
X0597137Y0599439D01*
X0596433Y0596810D01*
X0595072Y0594453D01*
X0593147Y0592528D01*
X0590790Y0591167D01*
X0588161Y0590463D01*
X0585439Y0590463D01*
X0582810Y0591167D01*
X0580453Y0592528D01*
X0578528Y0594453D01*
X0578300Y0594848D02*
X0555300Y0594848D01*
X0555072Y0594453D02*
X0556433Y0596810D01*
X0557137Y0599439D01*
X0557137Y0602161D01*
X0556433Y0604790D01*
X0555072Y0607147D01*
X0553147Y0609072D01*
X0550790Y0610433D01*
X0548161Y0611137D01*
X0545439Y0611137D01*
X0542810Y0610433D01*
X0540453Y0609072D01*
X0538528Y0607147D01*
X0537167Y0604790D01*
X0536463Y0602161D01*
X0536463Y0599439D01*
X0537167Y0596810D01*
X0538528Y0594453D01*
X0540453Y0592528D01*
X0542810Y0591167D01*
X0545439Y0590463D01*
X0548161Y0590463D01*
X0550790Y0591167D01*
X0553147Y0592528D01*
X0555072Y0594453D01*
X0553868Y0593249D02*
X0579732Y0593249D01*
X0581973Y0591651D02*
X0551627Y0591651D01*
X0556222Y0596446D02*
X0577378Y0596446D01*
X0576837Y0598045D02*
X0556763Y0598045D01*
X0557137Y0599643D02*
X0576463Y0599643D01*
X0576463Y0601242D02*
X0557137Y0601242D01*
X0556955Y0602840D02*
X0576645Y0602840D01*
X0577073Y0604439D02*
X0556527Y0604439D01*
X0555712Y0606037D02*
X0577888Y0606037D01*
X0579017Y0607636D02*
X0554583Y0607636D01*
X0552865Y0609234D02*
X0580735Y0609234D01*
X0584304Y0610833D02*
X0549296Y0610833D01*
X0544304Y0610833D02*
X0488499Y0610833D01*
X0488499Y0612431D02*
X0649400Y0612431D01*
X0649400Y0610833D02*
X0589296Y0610833D01*
X0592865Y0609234D02*
X0649400Y0609234D01*
X0649400Y0607636D02*
X0594583Y0607636D01*
X0595712Y0606037D02*
X0649400Y0606037D01*
X0649400Y0604439D02*
X0596527Y0604439D01*
X0596955Y0602840D02*
X0649400Y0602840D01*
X0649400Y0601242D02*
X0597137Y0601242D01*
X0597137Y0599643D02*
X0649400Y0599643D01*
X0649400Y0598045D02*
X0596763Y0598045D01*
X0596222Y0596446D02*
X0649400Y0596446D01*
X0649400Y0594848D02*
X0595300Y0594848D01*
X0593868Y0593249D02*
X0649400Y0593249D01*
X0649400Y0591651D02*
X0591627Y0591651D01*
X0561443Y0588454D02*
X0488499Y0588454D01*
X0488499Y0590052D02*
X0649400Y0590052D01*
X0649400Y0614030D02*
X0488499Y0614030D01*
X0488499Y0615628D02*
X0649400Y0615628D01*
X0649400Y0617227D02*
X0488499Y0617227D01*
X0488499Y0618825D02*
X0649400Y0618825D01*
X0649400Y0620424D02*
X0488499Y0620424D01*
X0488499Y0622022D02*
X0649400Y0622022D01*
X0559844Y0586855D02*
X0488499Y0586855D01*
X0488499Y0585257D02*
X0558688Y0585257D01*
X0558026Y0583658D02*
X0488499Y0583658D01*
X0488499Y0582060D02*
X0557600Y0582060D01*
X0557600Y0580461D02*
X0488499Y0580461D01*
X0488499Y0578863D02*
X0557600Y0578863D01*
X0557600Y0577264D02*
X0488499Y0577264D01*
X0488499Y0575666D02*
X0557600Y0575666D01*
X0557600Y0574067D02*
X0488499Y0574067D01*
X0488499Y0572469D02*
X0557600Y0572469D01*
X0557600Y0570870D02*
X0488499Y0570870D01*
X0488499Y0569272D02*
X0557600Y0569272D01*
X0557600Y0567673D02*
X0488499Y0567673D01*
X0488499Y0566074D02*
X0557600Y0566074D01*
X0557600Y0564476D02*
X0488499Y0564476D01*
X0488499Y0562877D02*
X0557600Y0562877D01*
X0557600Y0561279D02*
X0488499Y0561279D01*
X0488499Y0559680D02*
X0557600Y0559680D01*
X0557600Y0558082D02*
X0488499Y0558082D01*
X0488499Y0556483D02*
X0557600Y0556483D01*
X0557600Y0554885D02*
X0488499Y0554885D01*
X0488499Y0553286D02*
X0557600Y0553286D01*
X0557600Y0551688D02*
X0488499Y0551688D01*
X0488499Y0550089D02*
X0557600Y0550089D01*
X0557600Y0548491D02*
X0488499Y0548491D01*
X0488499Y0546892D02*
X0557600Y0546892D01*
X0557600Y0545294D02*
X0488499Y0545294D01*
X0488499Y0543695D02*
X0557600Y0543695D01*
X0557600Y0542097D02*
X0488499Y0542097D01*
X0488499Y0540498D02*
X0557600Y0540498D01*
X0557600Y0538900D02*
X0488499Y0538900D01*
X0488499Y0537301D02*
X0557600Y0537301D01*
X0557600Y0535703D02*
X0488499Y0535703D01*
X0488499Y0534104D02*
X0557600Y0534104D01*
X0557600Y0532506D02*
X0488499Y0532506D01*
X0488499Y0530907D02*
X0557600Y0530907D01*
X0557600Y0529309D02*
X0488499Y0529309D01*
X0488499Y0527710D02*
X0557600Y0527710D01*
X0557600Y0526112D02*
X0488499Y0526112D01*
X0488499Y0524513D02*
X0557600Y0524513D01*
X0557600Y0522915D02*
X0488499Y0522915D01*
X0488499Y0521316D02*
X0557600Y0521316D01*
X0557600Y0519718D02*
X0488499Y0519718D01*
X0488499Y0518119D02*
X0557600Y0518119D01*
X0557600Y0516521D02*
X0488499Y0516521D01*
X0488499Y0514922D02*
X0557600Y0514922D01*
X0557600Y0513324D02*
X0488499Y0513324D01*
X0488499Y0511725D02*
X0557600Y0511725D01*
X0557600Y0510127D02*
X0488499Y0510127D01*
X0488499Y0508528D02*
X0557600Y0508528D01*
X0557600Y0506930D02*
X0488499Y0506930D01*
X0488499Y0505331D02*
X0557600Y0505331D01*
X0557600Y0503733D02*
X0488499Y0503733D01*
X0488499Y0502134D02*
X0557600Y0502134D01*
X0557600Y0500536D02*
X0488499Y0500536D01*
X0488499Y0498937D02*
X0557600Y0498937D01*
X0557600Y0497339D02*
X0488499Y0497339D01*
X0488499Y0495740D02*
X0557600Y0495740D01*
X0557600Y0494141D02*
X0488499Y0494141D01*
X0488499Y0492543D02*
X0557600Y0492543D01*
X0557600Y0490944D02*
X0508654Y0490944D01*
X0507676Y0491350D02*
X0511186Y0489896D01*
X0513872Y0487209D01*
X0515326Y0483700D01*
X0515326Y0479900D01*
X0513872Y0476391D01*
X0511186Y0473704D01*
X0507676Y0472250D01*
X0503877Y0472250D01*
X0500367Y0473704D01*
X0497681Y0476391D01*
X0496227Y0479900D01*
X0496227Y0483700D01*
X0497681Y0487209D01*
X0500367Y0489896D01*
X0503877Y0491350D01*
X0507676Y0491350D01*
X0511736Y0489346D02*
X0557600Y0489346D01*
X0557600Y0487747D02*
X0513334Y0487747D01*
X0514311Y0486149D02*
X0557476Y0486149D01*
X0557431Y0484550D02*
X0514974Y0484550D01*
X0515326Y0482952D02*
X0557431Y0482952D01*
X0557431Y0481353D02*
X0515326Y0481353D01*
X0515266Y0479755D02*
X0557431Y0479755D01*
X0557431Y0478156D02*
X0514604Y0478156D01*
X0513941Y0476558D02*
X0557846Y0476558D01*
X0558653Y0474959D02*
X0512441Y0474959D01*
X0510357Y0473361D02*
X0560315Y0473361D01*
X0573285Y0473361D02*
X0623243Y0473361D01*
X0621159Y0474959D02*
X0574947Y0474959D01*
X0575754Y0476558D02*
X0619659Y0476558D01*
X0618996Y0478156D02*
X0576168Y0478156D01*
X0576168Y0479755D02*
X0618334Y0479755D01*
X0618274Y0481353D02*
X0576168Y0481353D01*
X0576168Y0482952D02*
X0618274Y0482952D01*
X0618626Y0484550D02*
X0576168Y0484550D01*
X0576124Y0486149D02*
X0619289Y0486149D01*
X0620266Y0487747D02*
X0576000Y0487747D01*
X0576000Y0489346D02*
X0621864Y0489346D01*
X0624946Y0490944D02*
X0576000Y0490944D01*
X0502899Y0490944D02*
X0488499Y0490944D01*
X0488499Y0489346D02*
X0499817Y0489346D01*
X0498219Y0487747D02*
X0488499Y0487747D01*
X0488499Y0486149D02*
X0497241Y0486149D01*
X0496579Y0484550D02*
X0488499Y0484550D01*
X0488499Y0482952D02*
X0496227Y0482952D01*
X0496227Y0481353D02*
X0488499Y0481353D01*
X0488499Y0479755D02*
X0496287Y0479755D01*
X0496949Y0478156D02*
X0488499Y0478156D01*
X0488499Y0476558D02*
X0497611Y0476558D01*
X0499112Y0474959D02*
X0488499Y0474959D01*
X0488499Y0473361D02*
X0501196Y0473361D01*
X0488499Y0591651D02*
X0541973Y0591651D01*
X0539732Y0593249D02*
X0488499Y0593249D01*
X0488499Y0594848D02*
X0538300Y0594848D01*
X0537378Y0596446D02*
X0488499Y0596446D01*
X0488499Y0598045D02*
X0536837Y0598045D01*
X0536463Y0599643D02*
X0488499Y0599643D01*
X0488499Y0601242D02*
X0536463Y0601242D01*
X0536645Y0602840D02*
X0488499Y0602840D01*
X0488499Y0604439D02*
X0537073Y0604439D01*
X0537888Y0606037D02*
X0488499Y0606037D01*
X0488499Y0607636D02*
X0539017Y0607636D01*
X0540735Y0609234D02*
X0488499Y0609234D01*
X0644800Y0380101D02*
X0853321Y0380101D01*
X0853321Y0008200D01*
X0644800Y0008200D01*
X0644800Y0349729D01*
X0645377Y0348730D01*
X0648430Y0345677D01*
X0652170Y0343518D01*
X0656341Y0342400D01*
X0660659Y0342400D01*
X0664830Y0343518D01*
X0668570Y0345677D01*
X0671623Y0348730D01*
X0673782Y0352470D01*
X0674900Y0356641D01*
X0674900Y0360959D01*
X0673782Y0365130D01*
X0671623Y0368870D01*
X0668570Y0371923D01*
X0664830Y0374082D01*
X0660659Y0375200D01*
X0656341Y0375200D01*
X0652170Y0374082D01*
X0648430Y0371923D01*
X0645377Y0368870D01*
X0644800Y0367871D01*
X0644800Y0380101D01*
X0644800Y0379049D02*
X0853321Y0379049D01*
X0853321Y0377450D02*
X0644800Y0377450D01*
X0644800Y0375852D02*
X0853321Y0375852D01*
X0853321Y0374253D02*
X0762793Y0374253D01*
X0763430Y0374082D02*
X0759259Y0375200D01*
X0754941Y0375200D01*
X0750770Y0374082D01*
X0747030Y0371923D01*
X0743977Y0368870D01*
X0741818Y0365130D01*
X0740700Y0360959D01*
X0740700Y0356641D01*
X0741818Y0352470D01*
X0743977Y0348730D01*
X0747030Y0345677D01*
X0750770Y0343518D01*
X0754941Y0342400D01*
X0759259Y0342400D01*
X0763430Y0343518D01*
X0767170Y0345677D01*
X0770223Y0348730D01*
X0772382Y0352470D01*
X0773500Y0356641D01*
X0773500Y0360959D01*
X0772382Y0365130D01*
X0770223Y0368870D01*
X0767170Y0371923D01*
X0763430Y0374082D01*
X0765903Y0372655D02*
X0853321Y0372655D01*
X0853321Y0371056D02*
X0768037Y0371056D01*
X0769635Y0369458D02*
X0853321Y0369458D01*
X0853321Y0367859D02*
X0770807Y0367859D01*
X0771730Y0366261D02*
X0853321Y0366261D01*
X0853321Y0364662D02*
X0772508Y0364662D01*
X0772936Y0363064D02*
X0853321Y0363064D01*
X0853321Y0361465D02*
X0773364Y0361465D01*
X0773500Y0359867D02*
X0853321Y0359867D01*
X0853321Y0358268D02*
X0773500Y0358268D01*
X0773500Y0356670D02*
X0853321Y0356670D01*
X0853321Y0355071D02*
X0773079Y0355071D01*
X0772651Y0353472D02*
X0853321Y0353472D01*
X0853321Y0351874D02*
X0772038Y0351874D01*
X0771115Y0350275D02*
X0853321Y0350275D01*
X0853321Y0348677D02*
X0770170Y0348677D01*
X0768572Y0347078D02*
X0853321Y0347078D01*
X0853321Y0345480D02*
X0766829Y0345480D01*
X0764060Y0343881D02*
X0853321Y0343881D01*
X0853321Y0342283D02*
X0644800Y0342283D01*
X0644800Y0343881D02*
X0651540Y0343881D01*
X0648771Y0345480D02*
X0644800Y0345480D01*
X0644800Y0347078D02*
X0647028Y0347078D01*
X0645430Y0348677D02*
X0644800Y0348677D01*
X0644800Y0340684D02*
X0853321Y0340684D01*
X0853321Y0339086D02*
X0644800Y0339086D01*
X0644800Y0337487D02*
X0853321Y0337487D01*
X0853321Y0335889D02*
X0644800Y0335889D01*
X0644800Y0334290D02*
X0853321Y0334290D01*
X0853321Y0332692D02*
X0644800Y0332692D01*
X0644800Y0331093D02*
X0853321Y0331093D01*
X0853321Y0329495D02*
X0644800Y0329495D01*
X0644800Y0327896D02*
X0853321Y0327896D01*
X0853321Y0326298D02*
X0644800Y0326298D01*
X0644800Y0324699D02*
X0853321Y0324699D01*
X0853321Y0323101D02*
X0644800Y0323101D01*
X0644800Y0321502D02*
X0711774Y0321502D01*
X0713072Y0322800D02*
X0707800Y0317528D01*
X0707800Y0310072D01*
X0713072Y0304800D01*
X0720528Y0304800D01*
X0725800Y0310072D01*
X0725800Y0317528D01*
X0720528Y0322800D01*
X0713072Y0322800D01*
X0710176Y0319904D02*
X0644800Y0319904D01*
X0644800Y0318305D02*
X0708577Y0318305D01*
X0707800Y0316707D02*
X0644800Y0316707D01*
X0644800Y0315108D02*
X0707800Y0315108D01*
X0707800Y0313510D02*
X0644800Y0313510D01*
X0644800Y0311911D02*
X0707800Y0311911D01*
X0707800Y0310313D02*
X0644800Y0310313D01*
X0644800Y0308714D02*
X0709158Y0308714D01*
X0710756Y0307116D02*
X0644800Y0307116D01*
X0644800Y0305517D02*
X0712355Y0305517D01*
X0721245Y0305517D02*
X0853321Y0305517D01*
X0853321Y0303919D02*
X0644800Y0303919D01*
X0644800Y0302320D02*
X0853321Y0302320D01*
X0853321Y0300722D02*
X0644800Y0300722D01*
X0644800Y0299123D02*
X0853321Y0299123D01*
X0853321Y0297525D02*
X0644800Y0297525D01*
X0644800Y0295926D02*
X0853321Y0295926D01*
X0853321Y0294328D02*
X0644800Y0294328D01*
X0644800Y0292729D02*
X0736239Y0292729D01*
X0736410Y0292800D02*
X0733102Y0291430D01*
X0730570Y0288898D01*
X0729200Y0285590D01*
X0729200Y0282010D01*
X0730530Y0278800D01*
X0729200Y0275590D01*
X0729200Y0273000D01*
X0727970Y0273000D01*
X0725800Y0272101D01*
X0725800Y0277528D01*
X0720528Y0282800D01*
X0713072Y0282800D01*
X0707800Y0277528D01*
X0707800Y0270072D01*
X0710072Y0267800D01*
X0707800Y0265528D01*
X0707800Y0258072D01*
X0713072Y0252800D01*
X0720528Y0252800D01*
X0720600Y0252872D01*
X0720600Y0236970D01*
X0722001Y0233589D01*
X0724589Y0231001D01*
X0727970Y0229600D01*
X0788800Y0229600D01*
X0788800Y0223072D01*
X0794072Y0217800D01*
X0801528Y0217800D01*
X0806800Y0223072D01*
X0806800Y0230528D01*
X0802933Y0234395D01*
X0804000Y0236970D01*
X0804000Y0240630D01*
X0802599Y0244011D01*
X0802208Y0244402D01*
X0802207Y0244406D01*
X0800406Y0246207D01*
X0800402Y0246208D01*
X0800011Y0246599D01*
X0796630Y0248000D01*
X0780328Y0248000D01*
X0781030Y0248702D01*
X0782400Y0252010D01*
X0782400Y0255590D01*
X0781070Y0258800D01*
X0782400Y0262010D01*
X0782400Y0265590D01*
X0781070Y0268800D01*
X0782400Y0272010D01*
X0782400Y0275590D01*
X0781070Y0278800D01*
X0782400Y0282010D01*
X0782400Y0285590D01*
X0781030Y0288898D01*
X0778498Y0291430D01*
X0775190Y0292800D01*
X0766410Y0292800D01*
X0763102Y0291430D01*
X0760570Y0288898D01*
X0759200Y0285590D01*
X0759200Y0282010D01*
X0760530Y0278800D01*
X0759200Y0275590D01*
X0759200Y0272010D01*
X0760530Y0268800D01*
X0759200Y0265590D01*
X0759200Y0262010D01*
X0760530Y0258800D01*
X0759200Y0255590D01*
X0759200Y0252010D01*
X0760570Y0248702D01*
X0761272Y0248000D01*
X0750328Y0248000D01*
X0751030Y0248702D01*
X0752400Y0252010D01*
X0752400Y0255590D01*
X0751070Y0258800D01*
X0752400Y0262010D01*
X0752400Y0265590D01*
X0751070Y0268800D01*
X0752400Y0272010D01*
X0752400Y0275590D01*
X0751070Y0278800D01*
X0752400Y0282010D01*
X0752400Y0285590D01*
X0751030Y0288898D01*
X0748498Y0291430D01*
X0745190Y0292800D01*
X0736410Y0292800D01*
X0732803Y0291131D02*
X0644800Y0291131D01*
X0644800Y0289532D02*
X0731204Y0289532D01*
X0730171Y0287934D02*
X0644800Y0287934D01*
X0644800Y0286335D02*
X0729509Y0286335D01*
X0729200Y0284737D02*
X0644800Y0284737D01*
X0644800Y0283138D02*
X0729200Y0283138D01*
X0729395Y0281539D02*
X0721788Y0281539D01*
X0723387Y0279941D02*
X0730057Y0279941D01*
X0730340Y0278342D02*
X0724985Y0278342D01*
X0725800Y0276744D02*
X0729678Y0276744D01*
X0729200Y0275145D02*
X0725800Y0275145D01*
X0725800Y0273547D02*
X0729200Y0273547D01*
X0711812Y0281539D02*
X0644800Y0281539D01*
X0644800Y0279941D02*
X0710213Y0279941D01*
X0708615Y0278342D02*
X0644800Y0278342D01*
X0644800Y0276744D02*
X0707800Y0276744D01*
X0707800Y0275145D02*
X0644800Y0275145D01*
X0644800Y0273547D02*
X0707800Y0273547D01*
X0707800Y0271948D02*
X0644800Y0271948D01*
X0644800Y0270350D02*
X0707800Y0270350D01*
X0709121Y0268751D02*
X0644800Y0268751D01*
X0644800Y0267153D02*
X0709425Y0267153D01*
X0707826Y0265554D02*
X0644800Y0265554D01*
X0644800Y0263956D02*
X0707800Y0263956D01*
X0707800Y0262357D02*
X0644800Y0262357D01*
X0644800Y0260759D02*
X0707800Y0260759D01*
X0707800Y0259160D02*
X0644800Y0259160D01*
X0644800Y0257562D02*
X0708310Y0257562D01*
X0709909Y0255963D02*
X0644800Y0255963D01*
X0644800Y0254365D02*
X0711507Y0254365D01*
X0720600Y0252766D02*
X0644800Y0252766D01*
X0644800Y0251168D02*
X0720600Y0251168D01*
X0720600Y0249569D02*
X0644800Y0249569D01*
X0644800Y0247971D02*
X0720600Y0247971D01*
X0720600Y0246372D02*
X0644800Y0246372D01*
X0644800Y0244774D02*
X0720600Y0244774D01*
X0720600Y0243175D02*
X0644800Y0243175D01*
X0644800Y0241577D02*
X0720600Y0241577D01*
X0720600Y0239978D02*
X0644800Y0239978D01*
X0644800Y0238380D02*
X0720600Y0238380D01*
X0720678Y0236781D02*
X0644800Y0236781D01*
X0644800Y0235183D02*
X0721340Y0235183D01*
X0722005Y0233584D02*
X0644800Y0233584D01*
X0644800Y0231986D02*
X0723604Y0231986D01*
X0726070Y0230387D02*
X0720941Y0230387D01*
X0720528Y0230800D02*
X0713072Y0230800D01*
X0707800Y0225528D01*
X0707800Y0218072D01*
X0713072Y0212800D01*
X0717800Y0212800D01*
X0717800Y0209072D01*
X0723072Y0203800D01*
X0730528Y0203800D01*
X0735800Y0209072D01*
X0735800Y0216528D01*
X0730528Y0221800D01*
X0725800Y0221800D01*
X0725800Y0225528D01*
X0720528Y0230800D01*
X0722539Y0228789D02*
X0788800Y0228789D01*
X0788800Y0227190D02*
X0724138Y0227190D01*
X0725736Y0225592D02*
X0788800Y0225592D01*
X0788800Y0223993D02*
X0725800Y0223993D01*
X0725800Y0222395D02*
X0789478Y0222395D01*
X0791076Y0220796D02*
X0771532Y0220796D01*
X0770528Y0221800D02*
X0763072Y0221800D01*
X0757800Y0216528D01*
X0757800Y0209072D01*
X0763072Y0203800D01*
X0770528Y0203800D01*
X0775800Y0209072D01*
X0775800Y0216528D01*
X0770528Y0221800D01*
X0773130Y0219198D02*
X0792675Y0219198D01*
X0802925Y0219198D02*
X0853321Y0219198D01*
X0853321Y0220796D02*
X0804524Y0220796D01*
X0806122Y0222395D02*
X0853321Y0222395D01*
X0853321Y0223993D02*
X0806800Y0223993D01*
X0806800Y0225592D02*
X0853321Y0225592D01*
X0853321Y0227190D02*
X0806800Y0227190D01*
X0806800Y0228789D02*
X0853321Y0228789D01*
X0853321Y0230387D02*
X0806800Y0230387D01*
X0805342Y0231986D02*
X0853321Y0231986D01*
X0853321Y0233584D02*
X0803744Y0233584D01*
X0803260Y0235183D02*
X0853321Y0235183D01*
X0853321Y0236781D02*
X0803922Y0236781D01*
X0804000Y0238380D02*
X0853321Y0238380D01*
X0853321Y0239978D02*
X0804000Y0239978D01*
X0803608Y0241577D02*
X0853321Y0241577D01*
X0853321Y0243175D02*
X0802946Y0243175D01*
X0801839Y0244774D02*
X0853321Y0244774D01*
X0853321Y0246372D02*
X0800239Y0246372D01*
X0796701Y0247971D02*
X0853321Y0247971D01*
X0853321Y0249569D02*
X0781389Y0249569D01*
X0782051Y0251168D02*
X0853321Y0251168D01*
X0853321Y0252766D02*
X0782400Y0252766D01*
X0782400Y0254365D02*
X0853321Y0254365D01*
X0853321Y0255963D02*
X0782245Y0255963D01*
X0781583Y0257562D02*
X0853321Y0257562D01*
X0853321Y0259160D02*
X0781220Y0259160D01*
X0781882Y0260759D02*
X0853321Y0260759D01*
X0853321Y0262357D02*
X0782400Y0262357D01*
X0782400Y0263956D02*
X0853321Y0263956D01*
X0853321Y0265554D02*
X0782400Y0265554D01*
X0781753Y0267153D02*
X0853321Y0267153D01*
X0853321Y0268751D02*
X0781091Y0268751D01*
X0781712Y0270350D02*
X0853321Y0270350D01*
X0853321Y0271948D02*
X0782375Y0271948D01*
X0782400Y0273547D02*
X0853321Y0273547D01*
X0853321Y0275145D02*
X0782400Y0275145D01*
X0781922Y0276744D02*
X0853321Y0276744D01*
X0853321Y0278342D02*
X0781260Y0278342D01*
X0781543Y0279941D02*
X0853321Y0279941D01*
X0853321Y0281539D02*
X0782205Y0281539D01*
X0782400Y0283138D02*
X0853321Y0283138D01*
X0853321Y0284737D02*
X0782400Y0284737D01*
X0782091Y0286335D02*
X0853321Y0286335D01*
X0853321Y0287934D02*
X0781429Y0287934D01*
X0780396Y0289532D02*
X0853321Y0289532D01*
X0853321Y0291131D02*
X0778797Y0291131D01*
X0775361Y0292729D02*
X0853321Y0292729D01*
X0853321Y0307116D02*
X0722844Y0307116D01*
X0724442Y0308714D02*
X0853321Y0308714D01*
X0853321Y0310313D02*
X0725800Y0310313D01*
X0725800Y0311911D02*
X0853321Y0311911D01*
X0853321Y0313510D02*
X0725800Y0313510D01*
X0725800Y0315108D02*
X0853321Y0315108D01*
X0853321Y0316707D02*
X0725800Y0316707D01*
X0725023Y0318305D02*
X0853321Y0318305D01*
X0853321Y0319904D02*
X0723424Y0319904D01*
X0721826Y0321502D02*
X0853321Y0321502D01*
X0766239Y0292729D02*
X0745361Y0292729D01*
X0748797Y0291131D02*
X0762803Y0291131D01*
X0761204Y0289532D02*
X0750396Y0289532D01*
X0751429Y0287934D02*
X0760171Y0287934D01*
X0759509Y0286335D02*
X0752091Y0286335D01*
X0752400Y0284737D02*
X0759200Y0284737D01*
X0759200Y0283138D02*
X0752400Y0283138D01*
X0752205Y0281539D02*
X0759395Y0281539D01*
X0760057Y0279941D02*
X0751543Y0279941D01*
X0751260Y0278342D02*
X0760340Y0278342D01*
X0759678Y0276744D02*
X0751922Y0276744D01*
X0752400Y0275145D02*
X0759200Y0275145D01*
X0759200Y0273547D02*
X0752400Y0273547D01*
X0752375Y0271948D02*
X0759225Y0271948D01*
X0759888Y0270350D02*
X0751712Y0270350D01*
X0751091Y0268751D02*
X0760509Y0268751D01*
X0759847Y0267153D02*
X0751753Y0267153D01*
X0752400Y0265554D02*
X0759200Y0265554D01*
X0759200Y0263956D02*
X0752400Y0263956D01*
X0752400Y0262357D02*
X0759200Y0262357D01*
X0759718Y0260759D02*
X0751882Y0260759D01*
X0751220Y0259160D02*
X0760380Y0259160D01*
X0760017Y0257562D02*
X0751583Y0257562D01*
X0752245Y0255963D02*
X0759355Y0255963D01*
X0759200Y0254365D02*
X0752400Y0254365D01*
X0752400Y0252766D02*
X0759200Y0252766D01*
X0759549Y0251168D02*
X0752051Y0251168D01*
X0751389Y0249569D02*
X0760211Y0249569D01*
X0762068Y0220796D02*
X0731532Y0220796D01*
X0733130Y0219198D02*
X0760470Y0219198D01*
X0758871Y0217599D02*
X0734729Y0217599D01*
X0735800Y0216001D02*
X0757800Y0216001D01*
X0757800Y0214402D02*
X0735800Y0214402D01*
X0735800Y0212803D02*
X0757800Y0212803D01*
X0757800Y0211205D02*
X0735800Y0211205D01*
X0735800Y0209606D02*
X0757800Y0209606D01*
X0758864Y0208008D02*
X0734736Y0208008D01*
X0733137Y0206409D02*
X0760463Y0206409D01*
X0762061Y0204811D02*
X0731539Y0204811D01*
X0722061Y0204811D02*
X0691539Y0204811D01*
X0693137Y0206409D02*
X0720463Y0206409D01*
X0718864Y0208008D02*
X0694736Y0208008D01*
X0694800Y0208072D02*
X0689528Y0202800D01*
X0682072Y0202800D01*
X0676800Y0208072D01*
X0676800Y0215528D01*
X0682072Y0220800D01*
X0689528Y0220800D01*
X0694800Y0215528D01*
X0694800Y0208072D01*
X0694800Y0209606D02*
X0717800Y0209606D01*
X0717800Y0211205D02*
X0694800Y0211205D01*
X0694800Y0212803D02*
X0713069Y0212803D01*
X0711470Y0214402D02*
X0694800Y0214402D01*
X0694327Y0216001D02*
X0709872Y0216001D01*
X0708273Y0217599D02*
X0692729Y0217599D01*
X0691130Y0219198D02*
X0707800Y0219198D01*
X0707800Y0220796D02*
X0689532Y0220796D01*
X0682068Y0220796D02*
X0669532Y0220796D01*
X0669528Y0220800D02*
X0662072Y0220800D01*
X0656800Y0215528D01*
X0656800Y0208072D01*
X0662072Y0202800D01*
X0669528Y0202800D01*
X0674800Y0208072D01*
X0674800Y0215528D01*
X0669528Y0220800D01*
X0671130Y0219198D02*
X0680470Y0219198D01*
X0678871Y0217599D02*
X0672729Y0217599D01*
X0674327Y0216001D02*
X0677273Y0216001D01*
X0676800Y0214402D02*
X0674800Y0214402D01*
X0674800Y0212803D02*
X0676800Y0212803D01*
X0676800Y0211205D02*
X0674800Y0211205D01*
X0674800Y0209606D02*
X0676800Y0209606D01*
X0676864Y0208008D02*
X0674736Y0208008D01*
X0673137Y0206409D02*
X0678463Y0206409D01*
X0680061Y0204811D02*
X0671539Y0204811D01*
X0669940Y0203212D02*
X0681660Y0203212D01*
X0689940Y0203212D02*
X0853321Y0203212D01*
X0853321Y0201614D02*
X0644800Y0201614D01*
X0644800Y0203212D02*
X0661660Y0203212D01*
X0660061Y0204811D02*
X0644800Y0204811D01*
X0644800Y0206409D02*
X0658463Y0206409D01*
X0656864Y0208008D02*
X0644800Y0208008D01*
X0644800Y0209606D02*
X0656800Y0209606D01*
X0656800Y0211205D02*
X0644800Y0211205D01*
X0644800Y0212803D02*
X0656800Y0212803D01*
X0656800Y0214402D02*
X0644800Y0214402D01*
X0644800Y0216001D02*
X0657273Y0216001D01*
X0658871Y0217599D02*
X0644800Y0217599D01*
X0644800Y0219198D02*
X0660470Y0219198D01*
X0662068Y0220796D02*
X0644800Y0220796D01*
X0644800Y0222395D02*
X0707800Y0222395D01*
X0707800Y0223993D02*
X0644800Y0223993D01*
X0644800Y0225592D02*
X0707864Y0225592D01*
X0709462Y0227190D02*
X0644800Y0227190D01*
X0644800Y0228789D02*
X0711061Y0228789D01*
X0712659Y0230387D02*
X0644800Y0230387D01*
X0644800Y0200015D02*
X0853321Y0200015D01*
X0853321Y0198417D02*
X0644800Y0198417D01*
X0644800Y0196818D02*
X0853321Y0196818D01*
X0853321Y0195220D02*
X0771108Y0195220D01*
X0770528Y0195800D02*
X0763072Y0195800D01*
X0757800Y0190528D01*
X0757800Y0183072D01*
X0763072Y0177800D01*
X0770528Y0177800D01*
X0775800Y0183072D01*
X0775800Y0190528D01*
X0770528Y0195800D01*
X0772707Y0193621D02*
X0853321Y0193621D01*
X0853321Y0192023D02*
X0774305Y0192023D01*
X0775800Y0190424D02*
X0782696Y0190424D01*
X0783072Y0190800D02*
X0777800Y0185528D01*
X0777800Y0178072D01*
X0783072Y0172800D01*
X0790528Y0172800D01*
X0795800Y0178072D01*
X0795800Y0185528D01*
X0790528Y0190800D01*
X0783072Y0190800D01*
X0781098Y0188826D02*
X0775800Y0188826D01*
X0775800Y0187227D02*
X0779499Y0187227D01*
X0777901Y0185629D02*
X0775800Y0185629D01*
X0775800Y0184030D02*
X0777800Y0184030D01*
X0777800Y0182432D02*
X0775160Y0182432D01*
X0773561Y0180833D02*
X0777800Y0180833D01*
X0777800Y0179235D02*
X0771963Y0179235D01*
X0778236Y0177636D02*
X0644800Y0177636D01*
X0644800Y0176038D02*
X0779834Y0176038D01*
X0781433Y0174439D02*
X0644800Y0174439D01*
X0644800Y0172841D02*
X0783031Y0172841D01*
X0790569Y0172841D02*
X0853321Y0172841D01*
X0853321Y0174439D02*
X0792167Y0174439D01*
X0793766Y0176038D02*
X0853321Y0176038D01*
X0853321Y0177636D02*
X0795364Y0177636D01*
X0795800Y0179235D02*
X0853321Y0179235D01*
X0853321Y0180833D02*
X0795800Y0180833D01*
X0795800Y0182432D02*
X0853321Y0182432D01*
X0853321Y0184030D02*
X0795800Y0184030D01*
X0795699Y0185629D02*
X0853321Y0185629D01*
X0853321Y0187227D02*
X0794101Y0187227D01*
X0792502Y0188826D02*
X0853321Y0188826D01*
X0853321Y0190424D02*
X0790904Y0190424D01*
X0773137Y0206409D02*
X0853321Y0206409D01*
X0853321Y0204811D02*
X0771539Y0204811D01*
X0774736Y0208008D02*
X0853321Y0208008D01*
X0853321Y0209606D02*
X0775800Y0209606D01*
X0775800Y0211205D02*
X0853321Y0211205D01*
X0853321Y0212803D02*
X0775800Y0212803D01*
X0775800Y0214402D02*
X0853321Y0214402D01*
X0853321Y0216001D02*
X0775800Y0216001D01*
X0774729Y0217599D02*
X0853321Y0217599D01*
X0853321Y0171242D02*
X0644800Y0171242D01*
X0644800Y0169644D02*
X0691916Y0169644D01*
X0693072Y0170800D02*
X0687800Y0165528D01*
X0687800Y0158072D01*
X0693072Y0152800D01*
X0700528Y0152800D01*
X0705800Y0158072D01*
X0705800Y0165528D01*
X0700528Y0170800D01*
X0693072Y0170800D01*
X0690317Y0168045D02*
X0644800Y0168045D01*
X0644800Y0166447D02*
X0688719Y0166447D01*
X0687800Y0164848D02*
X0644800Y0164848D01*
X0644800Y0163250D02*
X0687800Y0163250D01*
X0687800Y0161651D02*
X0644800Y0161651D01*
X0644800Y0160053D02*
X0687800Y0160053D01*
X0687800Y0158454D02*
X0644800Y0158454D01*
X0644800Y0156856D02*
X0689016Y0156856D01*
X0690615Y0155257D02*
X0644800Y0155257D01*
X0644800Y0153659D02*
X0692213Y0153659D01*
X0695010Y0148400D02*
X0691702Y0147030D01*
X0689170Y0144498D01*
X0687800Y0141190D01*
X0687800Y0132410D01*
X0689170Y0129102D01*
X0691702Y0126570D01*
X0695010Y0125200D01*
X0698590Y0125200D01*
X0701800Y0126530D01*
X0705010Y0125200D01*
X0708590Y0125200D01*
X0711800Y0126530D01*
X0715010Y0125200D01*
X0718590Y0125200D01*
X0721800Y0126530D01*
X0725010Y0125200D01*
X0728590Y0125200D01*
X0731800Y0126530D01*
X0735010Y0125200D01*
X0738590Y0125200D01*
X0741898Y0126570D01*
X0744162Y0128835D01*
X0745135Y0128431D01*
X0748465Y0128431D01*
X0751540Y0129706D01*
X0753894Y0132060D01*
X0755168Y0135135D01*
X0755168Y0138465D01*
X0753894Y0141540D01*
X0751540Y0143894D01*
X0748465Y0145168D01*
X0745135Y0145168D01*
X0744162Y0144765D01*
X0741898Y0147030D01*
X0738590Y0148400D01*
X0735010Y0148400D01*
X0731800Y0147070D01*
X0728590Y0148400D01*
X0725010Y0148400D01*
X0721800Y0147070D01*
X0718590Y0148400D01*
X0715010Y0148400D01*
X0711800Y0147070D01*
X0708590Y0148400D01*
X0705010Y0148400D01*
X0701800Y0147070D01*
X0698590Y0148400D01*
X0695010Y0148400D01*
X0692269Y0147265D02*
X0681331Y0147265D01*
X0681898Y0147030D02*
X0678590Y0148400D01*
X0675010Y0148400D01*
X0671702Y0147030D01*
X0669170Y0144498D01*
X0667800Y0141190D01*
X0667800Y0132410D01*
X0669170Y0129102D01*
X0671702Y0126570D01*
X0675010Y0125200D01*
X0678590Y0125200D01*
X0681898Y0126570D01*
X0684430Y0129102D01*
X0685800Y0132410D01*
X0685800Y0141190D01*
X0684430Y0144498D01*
X0681898Y0147030D01*
X0683262Y0145666D02*
X0690338Y0145666D01*
X0688992Y0144068D02*
X0684608Y0144068D01*
X0685270Y0142469D02*
X0688330Y0142469D01*
X0687800Y0140870D02*
X0685800Y0140870D01*
X0685800Y0139272D02*
X0687800Y0139272D01*
X0687800Y0137673D02*
X0685800Y0137673D01*
X0685800Y0136075D02*
X0687800Y0136075D01*
X0687800Y0134476D02*
X0685800Y0134476D01*
X0685800Y0132878D02*
X0687800Y0132878D01*
X0688268Y0131279D02*
X0685332Y0131279D01*
X0684670Y0129681D02*
X0688930Y0129681D01*
X0690190Y0128082D02*
X0683410Y0128082D01*
X0681690Y0126484D02*
X0691910Y0126484D01*
X0695010Y0118400D02*
X0691800Y0117070D01*
X0688590Y0118400D01*
X0685010Y0118400D01*
X0681702Y0117030D01*
X0679170Y0114498D01*
X0677800Y0111190D01*
X0677800Y0102410D01*
X0679170Y0099102D01*
X0681702Y0096570D01*
X0685010Y0095200D01*
X0688590Y0095200D01*
X0691800Y0096530D01*
X0695010Y0095200D01*
X0698590Y0095200D01*
X0701800Y0096530D01*
X0705010Y0095200D01*
X0708590Y0095200D01*
X0711800Y0096530D01*
X0715010Y0095200D01*
X0718590Y0095200D01*
X0721800Y0096530D01*
X0725010Y0095200D01*
X0728590Y0095200D01*
X0731800Y0096530D01*
X0735010Y0095200D01*
X0738590Y0095200D01*
X0741898Y0096570D01*
X0744162Y0098835D01*
X0745135Y0098431D01*
X0748465Y0098431D01*
X0751540Y0099706D01*
X0753894Y0102060D01*
X0755168Y0105135D01*
X0755168Y0108465D01*
X0753894Y0111540D01*
X0751540Y0113894D01*
X0748465Y0115168D01*
X0745135Y0115168D01*
X0744162Y0114765D01*
X0741898Y0117030D01*
X0738590Y0118400D01*
X0735010Y0118400D01*
X0731800Y0117070D01*
X0728590Y0118400D01*
X0725010Y0118400D01*
X0721800Y0117070D01*
X0718590Y0118400D01*
X0715010Y0118400D01*
X0711800Y0117070D01*
X0708590Y0118400D01*
X0705010Y0118400D01*
X0701800Y0117070D01*
X0698590Y0118400D01*
X0695010Y0118400D01*
X0701690Y0126484D02*
X0701910Y0126484D01*
X0711690Y0126484D02*
X0711910Y0126484D01*
X0721690Y0126484D02*
X0721910Y0126484D01*
X0731690Y0126484D02*
X0731910Y0126484D01*
X0741690Y0126484D02*
X0853321Y0126484D01*
X0853321Y0128082D02*
X0743410Y0128082D01*
X0751481Y0129681D02*
X0853321Y0129681D01*
X0853321Y0131279D02*
X0753114Y0131279D01*
X0754233Y0132878D02*
X0782994Y0132878D01*
X0783072Y0132800D02*
X0790528Y0132800D01*
X0795800Y0138072D01*
X0795800Y0145528D01*
X0790528Y0150800D01*
X0783072Y0150800D01*
X0777800Y0145528D01*
X0777800Y0138072D01*
X0783072Y0132800D01*
X0781396Y0134476D02*
X0754896Y0134476D01*
X0755168Y0136075D02*
X0779797Y0136075D01*
X0778199Y0137673D02*
X0755168Y0137673D01*
X0754834Y0139272D02*
X0777800Y0139272D01*
X0777800Y0140870D02*
X0754172Y0140870D01*
X0752966Y0142469D02*
X0777800Y0142469D01*
X0777800Y0144068D02*
X0751123Y0144068D01*
X0743262Y0145666D02*
X0777938Y0145666D01*
X0779537Y0147265D02*
X0741331Y0147265D01*
X0750615Y0155257D02*
X0702985Y0155257D01*
X0701386Y0153659D02*
X0752213Y0153659D01*
X0753072Y0152800D02*
X0760528Y0152800D01*
X0765800Y0158072D01*
X0765800Y0165528D01*
X0760528Y0170800D01*
X0753072Y0170800D01*
X0747800Y0165528D01*
X0747800Y0158072D01*
X0753072Y0152800D01*
X0749016Y0156856D02*
X0704584Y0156856D01*
X0705800Y0158454D02*
X0747800Y0158454D01*
X0747800Y0160053D02*
X0705800Y0160053D01*
X0705800Y0161651D02*
X0747800Y0161651D01*
X0747800Y0163250D02*
X0705800Y0163250D01*
X0705800Y0164848D02*
X0747800Y0164848D01*
X0748719Y0166447D02*
X0704881Y0166447D01*
X0703283Y0168045D02*
X0750317Y0168045D01*
X0751916Y0169644D02*
X0701684Y0169644D01*
X0703072Y0177800D02*
X0710528Y0177800D01*
X0715800Y0183072D01*
X0715800Y0190528D01*
X0710528Y0195800D01*
X0703072Y0195800D01*
X0697800Y0190528D01*
X0697800Y0183072D01*
X0703072Y0177800D01*
X0701637Y0179235D02*
X0644800Y0179235D01*
X0644800Y0180833D02*
X0700039Y0180833D01*
X0698440Y0182432D02*
X0644800Y0182432D01*
X0644800Y0184030D02*
X0697800Y0184030D01*
X0697800Y0185629D02*
X0644800Y0185629D01*
X0644800Y0187227D02*
X0697800Y0187227D01*
X0697800Y0188826D02*
X0644800Y0188826D01*
X0644800Y0190424D02*
X0697800Y0190424D01*
X0699295Y0192023D02*
X0644800Y0192023D01*
X0644800Y0193621D02*
X0700893Y0193621D01*
X0702492Y0195220D02*
X0644800Y0195220D01*
X0644800Y0152060D02*
X0853321Y0152060D01*
X0853321Y0150462D02*
X0790866Y0150462D01*
X0792465Y0148863D02*
X0853321Y0148863D01*
X0853321Y0147265D02*
X0794063Y0147265D01*
X0795662Y0145666D02*
X0853321Y0145666D01*
X0853321Y0144068D02*
X0795800Y0144068D01*
X0795800Y0142469D02*
X0853321Y0142469D01*
X0853321Y0140870D02*
X0795800Y0140870D01*
X0795800Y0139272D02*
X0853321Y0139272D01*
X0853321Y0137673D02*
X0795401Y0137673D01*
X0793803Y0136075D02*
X0853321Y0136075D01*
X0853321Y0134476D02*
X0792204Y0134476D01*
X0790606Y0132878D02*
X0853321Y0132878D01*
X0853321Y0124885D02*
X0644800Y0124885D01*
X0644800Y0123287D02*
X0853321Y0123287D01*
X0853321Y0121688D02*
X0644800Y0121688D01*
X0644800Y0120090D02*
X0853321Y0120090D01*
X0853321Y0118491D02*
X0644800Y0118491D01*
X0644800Y0116893D02*
X0681565Y0116893D01*
X0679966Y0115294D02*
X0644800Y0115294D01*
X0644800Y0113696D02*
X0678838Y0113696D01*
X0678176Y0112097D02*
X0644800Y0112097D01*
X0644800Y0110499D02*
X0677800Y0110499D01*
X0677800Y0108900D02*
X0644800Y0108900D01*
X0644800Y0107302D02*
X0677800Y0107302D01*
X0677800Y0105703D02*
X0644800Y0105703D01*
X0644800Y0104105D02*
X0677800Y0104105D01*
X0677800Y0102506D02*
X0644800Y0102506D01*
X0644800Y0100908D02*
X0678422Y0100908D01*
X0679084Y0099309D02*
X0644800Y0099309D01*
X0644800Y0097711D02*
X0680561Y0097711D01*
X0682808Y0096112D02*
X0644800Y0096112D01*
X0644800Y0094514D02*
X0767800Y0094514D01*
X0767800Y0094072D02*
X0773072Y0088800D01*
X0780528Y0088800D01*
X0785800Y0094072D01*
X0785800Y0101528D01*
X0780528Y0106800D01*
X0775800Y0106800D01*
X0775800Y0111528D01*
X0770528Y0116800D01*
X0763072Y0116800D01*
X0757800Y0111528D01*
X0757800Y0104072D01*
X0763072Y0098800D01*
X0767800Y0098800D01*
X0767800Y0094072D01*
X0768957Y0092915D02*
X0644800Y0092915D01*
X0644800Y0091317D02*
X0770555Y0091317D01*
X0772154Y0089718D02*
X0644800Y0089718D01*
X0644800Y0088120D02*
X0853321Y0088120D01*
X0853321Y0089718D02*
X0781446Y0089718D01*
X0783045Y0091317D02*
X0853321Y0091317D01*
X0853321Y0092915D02*
X0784643Y0092915D01*
X0785800Y0094514D02*
X0853321Y0094514D01*
X0853321Y0096112D02*
X0785800Y0096112D01*
X0785800Y0097711D02*
X0853321Y0097711D01*
X0853321Y0099309D02*
X0785800Y0099309D01*
X0785800Y0100908D02*
X0853321Y0100908D01*
X0853321Y0102506D02*
X0784822Y0102506D01*
X0783223Y0104105D02*
X0853321Y0104105D01*
X0853321Y0105703D02*
X0781625Y0105703D01*
X0775800Y0107302D02*
X0853321Y0107302D01*
X0853321Y0108900D02*
X0775800Y0108900D01*
X0775800Y0110499D02*
X0853321Y0110499D01*
X0853321Y0112097D02*
X0775231Y0112097D01*
X0773632Y0113696D02*
X0853321Y0113696D01*
X0853321Y0115294D02*
X0772034Y0115294D01*
X0761566Y0115294D02*
X0743634Y0115294D01*
X0742035Y0116893D02*
X0853321Y0116893D01*
X0853321Y0086521D02*
X0644800Y0086521D01*
X0644800Y0084923D02*
X0853321Y0084923D01*
X0853321Y0083324D02*
X0644800Y0083324D01*
X0644800Y0081726D02*
X0853321Y0081726D01*
X0853321Y0080127D02*
X0644800Y0080127D01*
X0644800Y0078529D02*
X0853321Y0078529D01*
X0853321Y0076930D02*
X0644800Y0076930D01*
X0644800Y0075332D02*
X0853321Y0075332D01*
X0853321Y0073733D02*
X0644800Y0073733D01*
X0644800Y0072134D02*
X0853321Y0072134D01*
X0853321Y0070536D02*
X0644800Y0070536D01*
X0644800Y0068937D02*
X0853321Y0068937D01*
X0853321Y0067339D02*
X0731152Y0067339D01*
X0731898Y0067030D02*
X0728590Y0068400D01*
X0725010Y0068400D01*
X0721800Y0067070D01*
X0718590Y0068400D01*
X0715010Y0068400D01*
X0711800Y0067070D01*
X0708590Y0068400D01*
X0705010Y0068400D01*
X0701702Y0067030D01*
X0699170Y0064498D01*
X0697800Y0061190D01*
X0697800Y0052410D01*
X0699170Y0049102D01*
X0701702Y0046570D01*
X0705010Y0045200D01*
X0708590Y0045200D01*
X0711800Y0046530D01*
X0715010Y0045200D01*
X0718590Y0045200D01*
X0721800Y0046530D01*
X0725010Y0045200D01*
X0728590Y0045200D01*
X0731898Y0046570D01*
X0734430Y0049102D01*
X0735800Y0052410D01*
X0735800Y0061190D01*
X0734430Y0064498D01*
X0731898Y0067030D01*
X0733187Y0065740D02*
X0853321Y0065740D01*
X0853321Y0064142D02*
X0734577Y0064142D01*
X0735239Y0062543D02*
X0853321Y0062543D01*
X0853321Y0060945D02*
X0735800Y0060945D01*
X0735800Y0059346D02*
X0853321Y0059346D01*
X0853321Y0057748D02*
X0735800Y0057748D01*
X0735800Y0056149D02*
X0853321Y0056149D01*
X0853321Y0054551D02*
X0735800Y0054551D01*
X0735800Y0052952D02*
X0853321Y0052952D01*
X0853321Y0051354D02*
X0735363Y0051354D01*
X0734700Y0049755D02*
X0853321Y0049755D01*
X0853321Y0048157D02*
X0733485Y0048157D01*
X0731869Y0046558D02*
X0853321Y0046558D01*
X0853321Y0044960D02*
X0644800Y0044960D01*
X0644800Y0046558D02*
X0701730Y0046558D01*
X0700115Y0048157D02*
X0644800Y0048157D01*
X0644800Y0049755D02*
X0698899Y0049755D01*
X0698237Y0051354D02*
X0644800Y0051354D01*
X0644800Y0052952D02*
X0697800Y0052952D01*
X0697800Y0054551D02*
X0644800Y0054551D01*
X0644800Y0056149D02*
X0697800Y0056149D01*
X0697800Y0057748D02*
X0644800Y0057748D01*
X0644800Y0059346D02*
X0697800Y0059346D01*
X0697800Y0060945D02*
X0644800Y0060945D01*
X0644800Y0062543D02*
X0698361Y0062543D01*
X0699023Y0064142D02*
X0644800Y0064142D01*
X0644800Y0065740D02*
X0700413Y0065740D01*
X0702448Y0067339D02*
X0644800Y0067339D01*
X0644800Y0043361D02*
X0853321Y0043361D01*
X0853321Y0041763D02*
X0644800Y0041763D01*
X0644800Y0040164D02*
X0853321Y0040164D01*
X0853321Y0038566D02*
X0644800Y0038566D01*
X0644800Y0036967D02*
X0701639Y0036967D01*
X0701702Y0037030D02*
X0700672Y0036000D01*
X0699970Y0036000D01*
X0696589Y0034599D01*
X0696198Y0034208D01*
X0696194Y0034207D01*
X0694393Y0032406D01*
X0694392Y0032402D01*
X0694001Y0032011D01*
X0692600Y0028630D01*
X0692600Y0024970D01*
X0694001Y0021589D01*
X0694392Y0021198D01*
X0694393Y0021194D01*
X0696194Y0019393D01*
X0696198Y0019392D01*
X0696589Y0019001D01*
X0699970Y0017600D01*
X0700672Y0017600D01*
X0701702Y0016570D01*
X0705010Y0015200D01*
X0708590Y0015200D01*
X0711800Y0016530D01*
X0715010Y0015200D01*
X0718590Y0015200D01*
X0721800Y0016530D01*
X0725010Y0015200D01*
X0728590Y0015200D01*
X0731898Y0016570D01*
X0734430Y0019102D01*
X0735800Y0022410D01*
X0735800Y0031190D01*
X0734430Y0034498D01*
X0731898Y0037030D01*
X0728590Y0038400D01*
X0725010Y0038400D01*
X0721800Y0037070D01*
X0718590Y0038400D01*
X0715010Y0038400D01*
X0711800Y0037070D01*
X0708590Y0038400D01*
X0705010Y0038400D01*
X0701702Y0037030D01*
X0698446Y0035369D02*
X0644800Y0035369D01*
X0644800Y0033770D02*
X0695757Y0033770D01*
X0694161Y0032172D02*
X0644800Y0032172D01*
X0644800Y0030573D02*
X0693405Y0030573D01*
X0692743Y0028975D02*
X0644800Y0028975D01*
X0644800Y0027376D02*
X0692600Y0027376D01*
X0692600Y0025778D02*
X0644800Y0025778D01*
X0644800Y0024179D02*
X0692928Y0024179D01*
X0693590Y0022581D02*
X0644800Y0022581D01*
X0644800Y0020982D02*
X0694605Y0020982D01*
X0696206Y0019384D02*
X0644800Y0019384D01*
X0644800Y0017785D02*
X0699523Y0017785D01*
X0702628Y0016187D02*
X0644800Y0016187D01*
X0644800Y0014588D02*
X0853321Y0014588D01*
X0853321Y0012990D02*
X0644800Y0012990D01*
X0644800Y0011391D02*
X0853321Y0011391D01*
X0853321Y0009793D02*
X0644800Y0009793D01*
X0710972Y0016187D02*
X0712628Y0016187D01*
X0720972Y0016187D02*
X0722628Y0016187D01*
X0730972Y0016187D02*
X0853321Y0016187D01*
X0853321Y0017785D02*
X0733113Y0017785D01*
X0734547Y0019384D02*
X0853321Y0019384D01*
X0853321Y0020982D02*
X0735209Y0020982D01*
X0735800Y0022581D02*
X0853321Y0022581D01*
X0853321Y0024179D02*
X0735800Y0024179D01*
X0735800Y0025778D02*
X0853321Y0025778D01*
X0853321Y0027376D02*
X0735800Y0027376D01*
X0735800Y0028975D02*
X0853321Y0028975D01*
X0853321Y0030573D02*
X0735800Y0030573D01*
X0735393Y0032172D02*
X0853321Y0032172D01*
X0853321Y0033770D02*
X0734731Y0033770D01*
X0733559Y0035369D02*
X0853321Y0035369D01*
X0853321Y0036967D02*
X0731961Y0036967D01*
X0722448Y0067339D02*
X0721152Y0067339D01*
X0712448Y0067339D02*
X0711152Y0067339D01*
X0710792Y0096112D02*
X0712808Y0096112D01*
X0720792Y0096112D02*
X0722808Y0096112D01*
X0730792Y0096112D02*
X0732808Y0096112D01*
X0740792Y0096112D02*
X0767800Y0096112D01*
X0767800Y0097711D02*
X0743039Y0097711D01*
X0750584Y0099309D02*
X0762563Y0099309D01*
X0760964Y0100908D02*
X0752743Y0100908D01*
X0754079Y0102506D02*
X0759366Y0102506D01*
X0757800Y0104105D02*
X0754742Y0104105D01*
X0755168Y0105703D02*
X0757800Y0105703D01*
X0757800Y0107302D02*
X0755168Y0107302D01*
X0754988Y0108900D02*
X0757800Y0108900D01*
X0757800Y0110499D02*
X0754326Y0110499D01*
X0753338Y0112097D02*
X0758369Y0112097D01*
X0759968Y0113696D02*
X0751739Y0113696D01*
X0732269Y0147265D02*
X0731331Y0147265D01*
X0722269Y0147265D02*
X0721331Y0147265D01*
X0712269Y0147265D02*
X0711331Y0147265D01*
X0702269Y0147265D02*
X0701331Y0147265D01*
X0672269Y0147265D02*
X0644800Y0147265D01*
X0644800Y0148863D02*
X0781135Y0148863D01*
X0782734Y0150462D02*
X0644800Y0150462D01*
X0644800Y0145666D02*
X0670338Y0145666D01*
X0668992Y0144068D02*
X0644800Y0144068D01*
X0644800Y0142469D02*
X0668330Y0142469D01*
X0667800Y0140870D02*
X0644800Y0140870D01*
X0644800Y0139272D02*
X0667800Y0139272D01*
X0667800Y0137673D02*
X0644800Y0137673D01*
X0644800Y0136075D02*
X0667800Y0136075D01*
X0667800Y0134476D02*
X0644800Y0134476D01*
X0644800Y0132878D02*
X0667800Y0132878D01*
X0668268Y0131279D02*
X0644800Y0131279D01*
X0644800Y0129681D02*
X0668930Y0129681D01*
X0670190Y0128082D02*
X0644800Y0128082D01*
X0644800Y0126484D02*
X0671910Y0126484D01*
X0690792Y0096112D02*
X0692808Y0096112D01*
X0700792Y0096112D02*
X0702808Y0096112D01*
X0761386Y0153659D02*
X0853321Y0153659D01*
X0853321Y0155257D02*
X0762985Y0155257D01*
X0764584Y0156856D02*
X0853321Y0156856D01*
X0853321Y0158454D02*
X0765800Y0158454D01*
X0765800Y0160053D02*
X0853321Y0160053D01*
X0853321Y0161651D02*
X0765800Y0161651D01*
X0765800Y0163250D02*
X0853321Y0163250D01*
X0853321Y0164848D02*
X0765800Y0164848D01*
X0764881Y0166447D02*
X0853321Y0166447D01*
X0853321Y0168045D02*
X0763283Y0168045D01*
X0761684Y0169644D02*
X0853321Y0169644D01*
X0761637Y0179235D02*
X0711963Y0179235D01*
X0713561Y0180833D02*
X0760039Y0180833D01*
X0758440Y0182432D02*
X0715160Y0182432D01*
X0715800Y0184030D02*
X0757800Y0184030D01*
X0757800Y0185629D02*
X0715800Y0185629D01*
X0715800Y0187227D02*
X0757800Y0187227D01*
X0757800Y0188826D02*
X0715800Y0188826D01*
X0715800Y0190424D02*
X0757800Y0190424D01*
X0759295Y0192023D02*
X0714305Y0192023D01*
X0712707Y0193621D02*
X0760893Y0193621D01*
X0762492Y0195220D02*
X0711108Y0195220D01*
X0716770Y0343800D02*
X0720430Y0343800D01*
X0721879Y0344400D01*
X0722494Y0344400D01*
X0722929Y0344835D01*
X0723811Y0345201D01*
X0724202Y0345592D01*
X0724206Y0345593D01*
X0724260Y0345647D01*
X0725506Y0344400D01*
X0733294Y0344400D01*
X0738800Y0349906D01*
X0738800Y0357694D01*
X0733294Y0363200D01*
X0725506Y0363200D01*
X0724000Y0361694D01*
X0722600Y0363094D01*
X0722600Y0367694D01*
X0717094Y0373200D01*
X0709306Y0373200D01*
X0707800Y0371694D01*
X0706294Y0373200D01*
X0698506Y0373200D01*
X0697000Y0371694D01*
X0695494Y0373200D01*
X0687706Y0373200D01*
X0682200Y0367694D01*
X0682200Y0363094D01*
X0676800Y0357694D01*
X0676800Y0349906D01*
X0682306Y0344400D01*
X0690094Y0344400D01*
X0695600Y0349906D01*
X0695600Y0354506D01*
X0697000Y0355906D01*
X0698506Y0354400D01*
X0706294Y0354400D01*
X0707800Y0355906D01*
X0709200Y0354506D01*
X0709200Y0349906D01*
X0710435Y0348671D01*
X0710801Y0347789D01*
X0711192Y0347398D01*
X0711193Y0347394D01*
X0712994Y0345593D01*
X0712998Y0345592D01*
X0713389Y0345201D01*
X0714271Y0344835D01*
X0714706Y0344400D01*
X0715321Y0344400D01*
X0716770Y0343800D01*
X0716573Y0343881D02*
X0665460Y0343881D01*
X0668229Y0345480D02*
X0681226Y0345480D01*
X0679628Y0347078D02*
X0669972Y0347078D01*
X0671570Y0348677D02*
X0678029Y0348677D01*
X0676800Y0350275D02*
X0672515Y0350275D01*
X0673438Y0351874D02*
X0676800Y0351874D01*
X0676800Y0353472D02*
X0674051Y0353472D01*
X0674479Y0355071D02*
X0676800Y0355071D01*
X0676800Y0356670D02*
X0674900Y0356670D01*
X0674900Y0358268D02*
X0677374Y0358268D01*
X0678973Y0359867D02*
X0674900Y0359867D01*
X0674764Y0361465D02*
X0680571Y0361465D01*
X0682170Y0363064D02*
X0674336Y0363064D01*
X0673908Y0364662D02*
X0682200Y0364662D01*
X0682200Y0366261D02*
X0673130Y0366261D01*
X0672207Y0367859D02*
X0682365Y0367859D01*
X0683964Y0369458D02*
X0671035Y0369458D01*
X0669437Y0371056D02*
X0685563Y0371056D01*
X0687161Y0372655D02*
X0667303Y0372655D01*
X0664193Y0374253D02*
X0751407Y0374253D01*
X0748297Y0372655D02*
X0717639Y0372655D01*
X0719237Y0371056D02*
X0746163Y0371056D01*
X0744565Y0369458D02*
X0720836Y0369458D01*
X0722434Y0367859D02*
X0743393Y0367859D01*
X0742470Y0366261D02*
X0722600Y0366261D01*
X0722600Y0364662D02*
X0741692Y0364662D01*
X0741264Y0363064D02*
X0733430Y0363064D01*
X0735029Y0361465D02*
X0740836Y0361465D01*
X0740700Y0359867D02*
X0736627Y0359867D01*
X0738226Y0358268D02*
X0740700Y0358268D01*
X0740700Y0356670D02*
X0738800Y0356670D01*
X0738800Y0355071D02*
X0741121Y0355071D01*
X0741549Y0353472D02*
X0738800Y0353472D01*
X0738800Y0351874D02*
X0742162Y0351874D01*
X0743085Y0350275D02*
X0738800Y0350275D01*
X0737571Y0348677D02*
X0744030Y0348677D01*
X0745628Y0347078D02*
X0735972Y0347078D01*
X0734374Y0345480D02*
X0747371Y0345480D01*
X0750140Y0343881D02*
X0720627Y0343881D01*
X0724091Y0345480D02*
X0724426Y0345480D01*
X0713109Y0345480D02*
X0691174Y0345480D01*
X0692772Y0347078D02*
X0711508Y0347078D01*
X0710429Y0348677D02*
X0694371Y0348677D01*
X0695600Y0350275D02*
X0709200Y0350275D01*
X0709200Y0351874D02*
X0695600Y0351874D01*
X0695600Y0353472D02*
X0709200Y0353472D01*
X0708635Y0355071D02*
X0706965Y0355071D01*
X0722630Y0363064D02*
X0725370Y0363064D01*
X0708761Y0372655D02*
X0706839Y0372655D01*
X0697961Y0372655D02*
X0696039Y0372655D01*
X0696165Y0355071D02*
X0697835Y0355071D01*
X0652807Y0374253D02*
X0644800Y0374253D01*
X0644800Y0372655D02*
X0649697Y0372655D01*
X0647563Y0371056D02*
X0644800Y0371056D01*
X0644800Y0369458D02*
X0645965Y0369458D01*
D22*
X0417800Y0032800D02*
X0417800Y0031800D01*
X0098800Y0235800D02*
X0098800Y0260800D01*
X0072800Y0289800D02*
X0068800Y0293800D01*
X0061800Y0293800D01*
X0058800Y0293800D01*
X0055800Y0293800D01*
X0058800Y0303800D02*
X0042800Y0303800D01*
X0042800Y0283800D01*
X0058800Y0283800D01*
X0042800Y0283800D02*
X0042800Y0232800D01*
X0083800Y0293800D02*
X0073800Y0303800D01*
X0073800Y0467800D01*
X0073800Y0522800D01*
X0058800Y0537800D01*
X0053800Y0542800D01*
X0053800Y0568800D01*
X0054800Y0568800D01*
X0053800Y0568800D02*
X0028800Y0568800D01*
X0028800Y0592005D01*
X0093800Y0603005D02*
X0093800Y0568800D01*
X0093800Y0542800D01*
X0088800Y0537800D01*
X0088800Y0507800D02*
X0100800Y0507800D01*
X0100800Y0325800D01*
X0088800Y0313800D01*
X0088800Y0293800D02*
X0083800Y0293800D01*
X0058800Y0313800D02*
X0046800Y0313800D01*
X0046800Y0507800D01*
X0058800Y0507800D01*
X0058800Y0467800D02*
X0073800Y0467800D01*
X0088800Y0467800D01*
X0058800Y0313800D02*
X0056800Y0313800D01*
D23*
X0090800Y0030800D02*
X0108810Y0032707D01*
X0108810Y0032800D01*
X0166800Y0032800D01*
X0256800Y0032800D01*
X0296800Y0032800D02*
X0417800Y0032800D01*
X0185600Y0032600D02*
X0108810Y0032707D01*
X0119800Y0628800D02*
X0258800Y0628800D01*
X0298800Y0628800D02*
X0414800Y0628800D01*
D24*
X0298800Y0560800D03*
X0277800Y0560800D03*
X0239800Y0563800D03*
X0246800Y0524800D03*
X0278800Y0486800D03*
X0299800Y0486800D03*
X0234800Y0424800D03*
X0247800Y0384800D03*
X0323800Y0404800D03*
X0328800Y0383800D03*
X0420800Y0446800D03*
X0438761Y0463839D03*
X0224800Y0287800D03*
X0223800Y0258800D03*
X0184800Y0279800D03*
X0162800Y0318800D03*
X0189800Y0213800D03*
X0232800Y0184800D03*
X0220800Y0156800D03*
X0182800Y0152800D03*
X0216800Y0120800D03*
X0223800Y0107800D03*
X0236800Y0120800D03*
X0223800Y0055800D03*
X0440800Y0153800D03*
X0701800Y0026800D03*
X0794800Y0238800D03*
X0729800Y0263800D03*
X0718600Y0353000D03*
X0200500Y0504100D03*
X0119800Y0487800D03*
X0026800Y0487800D03*
D25*
X0054800Y0568800D02*
X0054800Y0570800D01*
X0566800Y0580800D02*
X0566800Y0481800D01*
X0718600Y0353800D02*
X0718600Y0353000D01*
X0729800Y0263800D02*
X0729800Y0238800D01*
X0794800Y0238800D01*
X0706800Y0026800D02*
X0701800Y0026800D01*
X0166800Y0032800D02*
X0165800Y0033800D01*
D26*
X0223800Y0055800D02*
X0223800Y0107800D01*
X0216800Y0120800D02*
X0236800Y0120800D01*
X0249800Y0153800D02*
X0189800Y0213800D01*
X0087800Y0213800D01*
X0086800Y0214800D01*
X0061800Y0293800D02*
X0061800Y0294800D01*
X0058800Y0293800D01*
X0124800Y0318800D02*
X0162800Y0318800D01*
X0195800Y0293800D02*
X0218800Y0293800D01*
X0224800Y0287800D01*
X0223800Y0258800D02*
X0226800Y0255800D01*
X0226800Y0190800D01*
X0232800Y0184800D01*
X0213800Y0163800D02*
X0220800Y0156800D01*
X0213800Y0163800D02*
X0188800Y0163800D01*
X0182800Y0157800D01*
X0182800Y0152800D01*
X0249800Y0153800D02*
X0440800Y0153800D01*
X0419800Y0032800D02*
X0417800Y0032800D01*
X0184800Y0279800D02*
X0184800Y0282800D01*
X0195800Y0293800D01*
X0247800Y0384800D02*
X0244800Y0387800D01*
X0244800Y0410800D01*
X0234800Y0420800D01*
X0234800Y0424800D01*
X0240800Y0463800D02*
X0200500Y0504100D01*
X0173800Y0530800D01*
X0122800Y0530800D01*
X0121800Y0529800D01*
X0053800Y0568800D02*
X0053800Y0570800D01*
X0239800Y0563800D02*
X0246800Y0556800D01*
X0246800Y0524800D01*
X0277800Y0560800D02*
X0298800Y0560800D01*
X0299800Y0486800D02*
X0278800Y0486800D01*
X0240800Y0463800D02*
X0419800Y0463800D01*
X0438761Y0463839D01*
X0420800Y0446800D02*
X0420800Y0404800D01*
X0323800Y0404800D01*
X0328800Y0383800D02*
X0328800Y0363800D01*
X0309800Y0344800D01*
X0416800Y0627800D02*
X0416800Y0628800D01*
X0415800Y0630800D01*
X0414800Y0628800D01*
D27*
X0696800Y0375800D02*
X0724800Y0374800D01*
X0724000Y0363800D01*
M02*
