G75*
%MOIN*%
%OFA0B0*%
%FSLAX25Y25*%
%IPPOS*%
%LPD*%
%AMOC8*
5,1,8,0,0,1.08239X$1,22.5*
%
%ADD10R,0.05118X0.05906*%
%ADD11R,0.03500X0.06600*%
%ADD12R,0.12598X0.07087*%
%ADD13R,0.05512X0.03150*%
%ADD14C,0.06000*%
%ADD15R,0.03150X0.05512*%
%ADD16R,0.09449X0.09449*%
%ADD17R,0.05906X0.05118*%
%ADD18R,0.07087X0.12598*%
%ADD19R,0.07087X0.08661*%
D10*
X0209060Y0094000D03*
X0216540Y0094000D03*
X0249060Y0119000D03*
X0256540Y0119000D03*
X0256540Y0197000D03*
X0249060Y0197000D03*
X0252060Y0225000D03*
X0259540Y0225000D03*
X0226540Y0243000D03*
X0219060Y0243000D03*
X0213540Y0185000D03*
X0206060Y0185000D03*
X0252060Y0311000D03*
X0259540Y0311000D03*
X0226540Y0330000D03*
X0219060Y0330000D03*
X0297060Y0220000D03*
X0304540Y0220000D03*
D11*
X0207100Y0334450D03*
X0199800Y0334450D03*
X0192500Y0334450D03*
X0192500Y0363550D03*
X0199800Y0363550D03*
X0207100Y0363550D03*
X0197100Y0154550D03*
X0189800Y0154550D03*
X0182500Y0154550D03*
X0182500Y0125450D03*
X0189800Y0125450D03*
X0197100Y0125450D03*
D12*
X0363800Y0094024D03*
X0363800Y0071976D03*
X0364800Y0156976D03*
X0364800Y0179024D03*
X0365800Y0274976D03*
X0365800Y0297024D03*
X0365800Y0354976D03*
X0365800Y0377024D03*
D13*
X0305001Y0163902D03*
X0305005Y0158000D03*
X0305001Y0152098D03*
X0305001Y0084902D03*
X0305005Y0079000D03*
X0305001Y0073098D03*
D14*
X0312316Y0078000D02*
X0312316Y0080000D01*
X0320686Y0080000D01*
X0320686Y0078000D01*
X0312316Y0078000D01*
X0312316Y0157000D02*
X0312316Y0159000D01*
X0320686Y0159000D01*
X0320686Y0157000D01*
X0312316Y0157000D01*
X0313800Y0271516D02*
X0315800Y0271516D01*
X0313800Y0271516D02*
X0313800Y0279886D01*
X0315800Y0279886D01*
X0315800Y0271516D01*
X0315800Y0277515D02*
X0313800Y0277515D01*
X0314800Y0359516D02*
X0312800Y0359516D01*
X0312800Y0367886D01*
X0314800Y0367886D01*
X0314800Y0359516D01*
X0314800Y0365515D02*
X0312800Y0365515D01*
D15*
X0313800Y0352205D03*
X0319702Y0352201D03*
X0307898Y0352201D03*
X0308898Y0264201D03*
X0314800Y0264205D03*
X0320702Y0264201D03*
D16*
X0265461Y0244000D03*
X0248139Y0244000D03*
X0244800Y0261339D03*
X0244800Y0278661D03*
X0249139Y0330000D03*
X0244800Y0346339D03*
X0244800Y0363661D03*
X0266461Y0330000D03*
X0261461Y0182000D03*
X0244139Y0182000D03*
X0235800Y0167661D03*
X0235800Y0150339D03*
X0244139Y0101000D03*
X0234800Y0084661D03*
X0234800Y0067339D03*
X0261461Y0101000D03*
D17*
X0151800Y0127260D03*
X0151800Y0134740D03*
X0151800Y0146260D03*
X0151800Y0153740D03*
X0152800Y0174260D03*
X0152800Y0181740D03*
X0152800Y0194260D03*
X0152800Y0201740D03*
X0266800Y0265260D03*
X0266800Y0272740D03*
X0264800Y0353260D03*
X0264800Y0360740D03*
X0271800Y0161740D03*
X0271800Y0154260D03*
X0271800Y0082740D03*
X0271800Y0075260D03*
D18*
X0296776Y0203000D03*
X0318824Y0203000D03*
X0332776Y0203000D03*
X0332776Y0221000D03*
X0354824Y0221000D03*
X0354824Y0203000D03*
D19*
X0395761Y0131000D03*
X0395761Y0105000D03*
X0395761Y0079000D03*
X0415839Y0079000D03*
X0415839Y0105000D03*
X0415839Y0131000D03*
X0415839Y0051000D03*
X0395761Y0051000D03*
X0396761Y0305000D03*
X0396761Y0330000D03*
X0396761Y0353000D03*
X0396761Y0376000D03*
X0416839Y0376000D03*
X0416839Y0353000D03*
X0416839Y0330000D03*
X0416839Y0305000D03*
M02*
