%
M48
M72
T01C0.01500
T02C0.02362
T03C0.03200
T04C0.03937
T05C0.04000
T06C0.04400
T07C0.04500
T08C0.05000
T09C0.06693
T10C0.07000
T11C0.07900
T12C0.11600
T13C0.13000
T14C0.14950
%
T01
X294800Y282000
X299800Y277000
X299800Y287000
X294800Y292000
X304800Y292000
X309800Y287000
X314800Y292000
X319800Y287000
X324800Y292000
X329800Y287000
X334800Y292000
X334800Y282000
X329800Y277000
X324800Y282000
X304800Y282000
X298800Y365000
X293800Y370000
X298800Y375000
X303800Y370000
X308800Y375000
X303800Y380000
X293800Y380000
X313800Y380000
X318800Y375000
X323800Y370000
X328800Y365000
X333800Y370000
X328800Y375000
X323800Y380000
X333800Y380000
X332800Y178000
X327800Y173000
X332800Y168000
X327800Y163000
X332800Y158000
X327800Y153000
X332800Y148000
X327800Y143000
X332800Y138000
X322800Y138000
X317800Y143000
X322800Y148000
X322800Y168000
X317800Y173000
X322800Y178000
X322800Y99000
X317800Y94000
X322800Y89000
X327800Y84000
X332800Y89000
X327800Y94000
X332800Y99000
X332800Y79000
X327800Y74000
X332800Y69000
X327800Y64000
X332800Y59000
X322800Y59000
X317800Y64000
X322800Y69000
T02
X384800Y131000
X296800Y240000
X269800Y232000
X213800Y159000
X194800Y185000
X173800Y185000
X177800Y213000
X121800Y242000
X208800Y383000
X220800Y67000
X383800Y312000
X267800Y753000
X28800Y242000
T03
X30800Y303000
X30800Y323000
X55800Y323000
X95800Y323000
X89800Y185000
X89800Y175000
X89800Y165000
X89800Y155000
X59800Y155000
X59800Y165000
X59800Y175000
X59800Y185000
X229800Y456000
X239800Y456000
X249800Y456000
X249800Y486000
X239800Y486000
X229800Y486000
X229800Y536000
X219800Y536000
X209800Y536000
X199800Y536000
X199800Y566000
X209800Y566000
X219800Y566000
X229800Y566000
X239800Y566000
X249800Y566000
X259800Y566000
X259800Y536000
X249800Y536000
X239800Y536000
X219800Y591000
X229800Y616000
X239800Y648000
X239800Y688000
X239800Y699000
X239800Y739000
X208800Y676000
X188800Y676000
X280800Y694000
X280800Y704000
X280800Y714000
X280800Y724000
X310800Y724000
X310800Y714000
X310800Y704000
X310800Y694000
X310800Y647000
X312800Y614000
X289800Y616000
X279800Y591000
X312800Y574000
X302800Y530000
X312800Y520000
X322800Y530000
X344800Y574000
X344800Y614000
X351800Y704000
X351800Y714000
X351800Y724000
X290800Y647000
X302800Y481000
X322800Y481000
T04
X269800Y536000
X269800Y566000
X90800Y292000
X90800Y262000
X90800Y242000
X90800Y222000
X60800Y222000
X60800Y242000
X60800Y262000
X60800Y292000
T05
X223800Y408000
X263800Y408000
X252400Y774000
X241600Y774000
X236200Y784000
X225400Y784000
X214600Y784000
X209200Y774000
X220000Y774000
X230800Y774000
X247000Y784000
X227800Y32000
X267800Y32000
T06
X338800Y646000
X338800Y686000
T07
X85800Y579000
T08
X45800Y104000
T09
X30800Y346205
X30800Y361795
X95800Y357205
X95800Y372795
T10
X55839Y114039
X55839Y93961
X35761Y93961
X35761Y114039
T11
X157800Y33000
X346800Y32000
X388800Y212000
X346800Y409000
X163800Y408000
T12
X85800Y519950
X85800Y638050
T13
X181500Y779000
X280100Y779000
T14
X26800Y26000
X26800Y401000
X26800Y456000
X26800Y781000
X351800Y781000
X351800Y456000
X376800Y401000
X376800Y26000
M30
