G75*
%MOIN*%
%OFA0B0*%
%FSLAX25Y25*%
%IPPOS*%
%LPD*%
%AMOC8*
5,1,8,0,0,1.08239X$1,22.5*
%
%ADD10C,0.00800*%
%ADD11C,0.00400*%
%ADD12C,0.00600*%
%ADD13C,0.00500*%
%ADD14C,0.00700*%
%ADD15R,0.02000X0.08000*%
%ADD16R,0.07500X0.02000*%
%ADD17C,0.00000*%
%ADD18C,0.01200*%
%ADD19C,0.01600*%
%ADD20C,0.01000*%
%ADD21R,0.01181X0.08268*%
%ADD22R,0.04000X0.01500*%
%ADD23C,0.02400*%
%ADD24R,0.03400X0.02400*%
%ADD25R,0.73000X0.03000*%
%ADD26R,1.22000X0.02000*%
%ADD27R,0.03200X0.28500*%
%ADD28R,0.03200X0.18500*%
%ADD29R,0.02400X0.03400*%
%ADD30C,0.00200*%
%ADD31R,0.10000X0.02000*%
%ADD32R,0.03000X0.07500*%
D10*
X0041469Y0091402D02*
X0050131Y0091402D01*
X0058398Y0099669D02*
X0058398Y0108331D01*
X0050131Y0116598D02*
X0041469Y0116598D01*
X0039107Y0104000D02*
X0039109Y0104164D01*
X0039115Y0104328D01*
X0039125Y0104492D01*
X0039139Y0104656D01*
X0039157Y0104819D01*
X0039179Y0104982D01*
X0039206Y0105144D01*
X0039236Y0105306D01*
X0039270Y0105466D01*
X0039308Y0105626D01*
X0039349Y0105785D01*
X0039395Y0105943D01*
X0039445Y0106099D01*
X0039498Y0106255D01*
X0039555Y0106409D01*
X0039616Y0106561D01*
X0039681Y0106712D01*
X0039750Y0106862D01*
X0039822Y0107009D01*
X0039897Y0107155D01*
X0039977Y0107299D01*
X0040059Y0107441D01*
X0040145Y0107581D01*
X0040235Y0107718D01*
X0040328Y0107854D01*
X0040424Y0107987D01*
X0040524Y0108118D01*
X0040626Y0108246D01*
X0040732Y0108372D01*
X0040841Y0108495D01*
X0040953Y0108615D01*
X0041067Y0108733D01*
X0041185Y0108847D01*
X0041305Y0108959D01*
X0041428Y0109068D01*
X0041554Y0109174D01*
X0041682Y0109276D01*
X0041813Y0109376D01*
X0041946Y0109472D01*
X0042082Y0109565D01*
X0042219Y0109655D01*
X0042359Y0109741D01*
X0042501Y0109823D01*
X0042645Y0109903D01*
X0042791Y0109978D01*
X0042938Y0110050D01*
X0043088Y0110119D01*
X0043239Y0110184D01*
X0043391Y0110245D01*
X0043545Y0110302D01*
X0043701Y0110355D01*
X0043857Y0110405D01*
X0044015Y0110451D01*
X0044174Y0110492D01*
X0044334Y0110530D01*
X0044494Y0110564D01*
X0044656Y0110594D01*
X0044818Y0110621D01*
X0044981Y0110643D01*
X0045144Y0110661D01*
X0045308Y0110675D01*
X0045472Y0110685D01*
X0045636Y0110691D01*
X0045800Y0110693D01*
X0045964Y0110691D01*
X0046128Y0110685D01*
X0046292Y0110675D01*
X0046456Y0110661D01*
X0046619Y0110643D01*
X0046782Y0110621D01*
X0046944Y0110594D01*
X0047106Y0110564D01*
X0047266Y0110530D01*
X0047426Y0110492D01*
X0047585Y0110451D01*
X0047743Y0110405D01*
X0047899Y0110355D01*
X0048055Y0110302D01*
X0048209Y0110245D01*
X0048361Y0110184D01*
X0048512Y0110119D01*
X0048662Y0110050D01*
X0048809Y0109978D01*
X0048955Y0109903D01*
X0049099Y0109823D01*
X0049241Y0109741D01*
X0049381Y0109655D01*
X0049518Y0109565D01*
X0049654Y0109472D01*
X0049787Y0109376D01*
X0049918Y0109276D01*
X0050046Y0109174D01*
X0050172Y0109068D01*
X0050295Y0108959D01*
X0050415Y0108847D01*
X0050533Y0108733D01*
X0050647Y0108615D01*
X0050759Y0108495D01*
X0050868Y0108372D01*
X0050974Y0108246D01*
X0051076Y0108118D01*
X0051176Y0107987D01*
X0051272Y0107854D01*
X0051365Y0107718D01*
X0051455Y0107581D01*
X0051541Y0107441D01*
X0051623Y0107299D01*
X0051703Y0107155D01*
X0051778Y0107009D01*
X0051850Y0106862D01*
X0051919Y0106712D01*
X0051984Y0106561D01*
X0052045Y0106409D01*
X0052102Y0106255D01*
X0052155Y0106099D01*
X0052205Y0105943D01*
X0052251Y0105785D01*
X0052292Y0105626D01*
X0052330Y0105466D01*
X0052364Y0105306D01*
X0052394Y0105144D01*
X0052421Y0104982D01*
X0052443Y0104819D01*
X0052461Y0104656D01*
X0052475Y0104492D01*
X0052485Y0104328D01*
X0052491Y0104164D01*
X0052493Y0104000D01*
X0052491Y0103836D01*
X0052485Y0103672D01*
X0052475Y0103508D01*
X0052461Y0103344D01*
X0052443Y0103181D01*
X0052421Y0103018D01*
X0052394Y0102856D01*
X0052364Y0102694D01*
X0052330Y0102534D01*
X0052292Y0102374D01*
X0052251Y0102215D01*
X0052205Y0102057D01*
X0052155Y0101901D01*
X0052102Y0101745D01*
X0052045Y0101591D01*
X0051984Y0101439D01*
X0051919Y0101288D01*
X0051850Y0101138D01*
X0051778Y0100991D01*
X0051703Y0100845D01*
X0051623Y0100701D01*
X0051541Y0100559D01*
X0051455Y0100419D01*
X0051365Y0100282D01*
X0051272Y0100146D01*
X0051176Y0100013D01*
X0051076Y0099882D01*
X0050974Y0099754D01*
X0050868Y0099628D01*
X0050759Y0099505D01*
X0050647Y0099385D01*
X0050533Y0099267D01*
X0050415Y0099153D01*
X0050295Y0099041D01*
X0050172Y0098932D01*
X0050046Y0098826D01*
X0049918Y0098724D01*
X0049787Y0098624D01*
X0049654Y0098528D01*
X0049518Y0098435D01*
X0049381Y0098345D01*
X0049241Y0098259D01*
X0049099Y0098177D01*
X0048955Y0098097D01*
X0048809Y0098022D01*
X0048662Y0097950D01*
X0048512Y0097881D01*
X0048361Y0097816D01*
X0048209Y0097755D01*
X0048055Y0097698D01*
X0047899Y0097645D01*
X0047743Y0097595D01*
X0047585Y0097549D01*
X0047426Y0097508D01*
X0047266Y0097470D01*
X0047106Y0097436D01*
X0046944Y0097406D01*
X0046782Y0097379D01*
X0046619Y0097357D01*
X0046456Y0097339D01*
X0046292Y0097325D01*
X0046128Y0097315D01*
X0045964Y0097309D01*
X0045800Y0097307D01*
X0045636Y0097309D01*
X0045472Y0097315D01*
X0045308Y0097325D01*
X0045144Y0097339D01*
X0044981Y0097357D01*
X0044818Y0097379D01*
X0044656Y0097406D01*
X0044494Y0097436D01*
X0044334Y0097470D01*
X0044174Y0097508D01*
X0044015Y0097549D01*
X0043857Y0097595D01*
X0043701Y0097645D01*
X0043545Y0097698D01*
X0043391Y0097755D01*
X0043239Y0097816D01*
X0043088Y0097881D01*
X0042938Y0097950D01*
X0042791Y0098022D01*
X0042645Y0098097D01*
X0042501Y0098177D01*
X0042359Y0098259D01*
X0042219Y0098345D01*
X0042082Y0098435D01*
X0041946Y0098528D01*
X0041813Y0098624D01*
X0041682Y0098724D01*
X0041554Y0098826D01*
X0041428Y0098932D01*
X0041305Y0099041D01*
X0041185Y0099153D01*
X0041067Y0099267D01*
X0040953Y0099385D01*
X0040841Y0099505D01*
X0040732Y0099628D01*
X0040626Y0099754D01*
X0040524Y0099882D01*
X0040424Y0100013D01*
X0040328Y0100146D01*
X0040235Y0100282D01*
X0040145Y0100419D01*
X0040059Y0100559D01*
X0039977Y0100701D01*
X0039897Y0100845D01*
X0039822Y0100991D01*
X0039750Y0101138D01*
X0039681Y0101288D01*
X0039616Y0101439D01*
X0039555Y0101591D01*
X0039498Y0101745D01*
X0039445Y0101901D01*
X0039395Y0102057D01*
X0039349Y0102215D01*
X0039308Y0102374D01*
X0039270Y0102534D01*
X0039236Y0102694D01*
X0039206Y0102856D01*
X0039179Y0103018D01*
X0039157Y0103181D01*
X0039139Y0103344D01*
X0039125Y0103508D01*
X0039115Y0103672D01*
X0039109Y0103836D01*
X0039107Y0104000D01*
X0033202Y0099669D02*
X0033202Y0108331D01*
X0049796Y0339098D02*
X0011312Y0339098D01*
X0011312Y0346185D01*
X0020859Y0346185D01*
X0020859Y0361913D01*
X0011312Y0361913D01*
X0011312Y0346185D01*
X0011312Y0361913D02*
X0011312Y0369000D01*
X0049796Y0369000D01*
X0049796Y0339098D01*
X0076312Y0350098D02*
X0114796Y0350098D01*
X0114796Y0380000D01*
X0076312Y0380000D01*
X0076312Y0372913D01*
X0085859Y0372913D01*
X0085859Y0357185D01*
X0076312Y0357185D01*
X0076312Y0350098D01*
X0076312Y0357185D02*
X0076312Y0372913D01*
X0235800Y0162268D02*
X0231863Y0158240D01*
X0239737Y0158240D01*
X0235800Y0162268D01*
X0253560Y0178063D02*
X0249532Y0182000D01*
X0253560Y0185937D01*
X0253560Y0178063D01*
X0256040Y0240063D02*
X0256040Y0247937D01*
X0260068Y0244000D01*
X0256040Y0240063D01*
X0248737Y0269240D02*
X0240863Y0269240D01*
X0244800Y0273268D01*
X0248737Y0269240D01*
X0257040Y0326063D02*
X0257040Y0333937D01*
X0261068Y0330000D01*
X0257040Y0326063D01*
X0248737Y0354240D02*
X0240863Y0354240D01*
X0244800Y0358268D01*
X0248737Y0354240D01*
X0253560Y0104937D02*
X0253560Y0097063D01*
X0249532Y0101000D01*
X0253560Y0104937D01*
X0234800Y0079268D02*
X0238737Y0075240D01*
X0230863Y0075240D01*
X0234800Y0079268D01*
D11*
X0023496Y0079869D02*
X0023496Y0082170D01*
X0024263Y0082938D01*
X0025031Y0082938D01*
X0025798Y0082170D01*
X0025798Y0079869D01*
X0025798Y0082170D02*
X0026565Y0082938D01*
X0027333Y0082938D01*
X0028100Y0082170D01*
X0028100Y0079869D01*
X0023496Y0079869D01*
X0023496Y0084472D02*
X0027333Y0084472D01*
X0028100Y0085240D01*
X0028100Y0086774D01*
X0027333Y0087542D01*
X0023496Y0087542D01*
X0025798Y0089076D02*
X0025798Y0092146D01*
X0025031Y0093680D02*
X0025798Y0094448D01*
X0025798Y0095982D01*
X0026565Y0096750D01*
X0027333Y0096750D01*
X0028100Y0095982D01*
X0028100Y0094448D01*
X0027333Y0093680D01*
X0025031Y0093680D02*
X0024263Y0093680D01*
X0023496Y0094448D01*
X0023496Y0095982D01*
X0024263Y0096750D01*
X0023496Y0098284D02*
X0025031Y0099819D01*
X0023496Y0101354D01*
X0028100Y0101354D01*
X0028100Y0102888D02*
X0025031Y0102888D01*
X0023496Y0104423D01*
X0025031Y0105957D01*
X0028100Y0105957D01*
X0025798Y0105957D02*
X0025798Y0102888D01*
X0025798Y0107492D02*
X0025798Y0110561D01*
X0026565Y0112096D02*
X0028100Y0113631D01*
X0026565Y0115165D01*
X0023496Y0115165D01*
X0023496Y0112096D02*
X0026565Y0112096D01*
X0028100Y0098284D02*
X0023496Y0098284D01*
X0063496Y0104992D02*
X0068100Y0108061D01*
X0065798Y0109596D02*
X0065798Y0112665D01*
X0068100Y0111898D02*
X0063496Y0111898D01*
X0065798Y0109596D01*
X0063496Y0108061D02*
X0068100Y0104992D01*
X0067050Y0222000D02*
X0065800Y0222000D01*
X0067050Y0222000D02*
X0067050Y0229500D01*
X0070800Y0232000D02*
X0065800Y0234500D01*
X0067050Y0234500D02*
X0067050Y0242000D01*
X0065800Y0242000D01*
X0070800Y0232000D02*
X0072050Y0232000D01*
X0072050Y0262000D01*
X0065800Y0262000D01*
X0079550Y0262000D02*
X0079550Y0232000D01*
X0080800Y0232000D01*
X0085800Y0234500D01*
X0084550Y0234500D02*
X0084550Y0242000D01*
X0085800Y0242000D01*
X0084550Y0229500D02*
X0084550Y0222000D01*
X0085800Y0222000D01*
X0085800Y0262000D02*
X0079550Y0262000D01*
X0077050Y0289500D02*
X0077050Y0292000D01*
X0077050Y0294500D01*
X0074550Y0294500D01*
X0074550Y0292000D01*
X0065800Y0292000D01*
X0074550Y0292000D02*
X0074550Y0289500D01*
X0077050Y0289500D01*
X0077050Y0292000D02*
X0085800Y0292000D01*
X0085876Y0342562D02*
X0085876Y0347166D01*
X0088178Y0347166D01*
X0088946Y0346399D01*
X0088946Y0344864D01*
X0088178Y0344097D01*
X0085876Y0344097D01*
X0087411Y0344097D02*
X0088946Y0342562D01*
X0090480Y0343330D02*
X0091248Y0342562D01*
X0092782Y0342562D01*
X0093550Y0343330D01*
X0093550Y0346399D01*
X0092782Y0347166D01*
X0091248Y0347166D01*
X0090480Y0346399D01*
X0090480Y0343330D01*
X0095084Y0342562D02*
X0098153Y0342562D01*
X0099688Y0343330D02*
X0100455Y0342562D01*
X0101990Y0342562D01*
X0102757Y0343330D01*
X0102757Y0344864D01*
X0101223Y0344864D01*
X0102757Y0346399D02*
X0101990Y0347166D01*
X0100455Y0347166D01*
X0099688Y0346399D01*
X0099688Y0343330D01*
X0095084Y0342562D02*
X0095084Y0347166D01*
X0104292Y0347166D02*
X0106594Y0347166D01*
X0107361Y0346399D01*
X0107361Y0343330D01*
X0106594Y0342562D01*
X0104292Y0342562D01*
X0104292Y0347166D01*
X0108896Y0345631D02*
X0110431Y0347166D01*
X0110431Y0342562D01*
X0111965Y0342562D02*
X0108896Y0342562D01*
X0084342Y0347166D02*
X0081272Y0347166D01*
X0079738Y0347166D02*
X0079738Y0342562D01*
X0076669Y0347166D01*
X0076669Y0342562D01*
X0075134Y0343330D02*
X0075134Y0346399D01*
X0074367Y0347166D01*
X0072832Y0347166D01*
X0072065Y0346399D01*
X0072065Y0343330D01*
X0072832Y0342562D01*
X0074367Y0342562D01*
X0075134Y0343330D01*
X0070530Y0343330D02*
X0069763Y0342562D01*
X0068228Y0342562D01*
X0067461Y0343330D01*
X0067461Y0346399D01*
X0068228Y0347166D01*
X0069763Y0347166D01*
X0070530Y0346399D01*
X0082807Y0347166D02*
X0082807Y0342562D01*
X0046965Y0335399D02*
X0046198Y0336166D01*
X0043896Y0336166D01*
X0043896Y0331562D01*
X0046198Y0331562D01*
X0046965Y0332330D01*
X0046965Y0335399D01*
X0042361Y0335399D02*
X0041594Y0336166D01*
X0040059Y0336166D01*
X0039292Y0335399D01*
X0039292Y0332330D01*
X0040059Y0331562D01*
X0041594Y0331562D01*
X0042361Y0332330D01*
X0042361Y0333864D01*
X0040827Y0333864D01*
X0037757Y0333864D02*
X0036990Y0333097D01*
X0034688Y0333097D01*
X0036223Y0333097D02*
X0037757Y0331562D01*
X0037757Y0333864D02*
X0037757Y0335399D01*
X0036990Y0336166D01*
X0034688Y0336166D01*
X0034688Y0331562D01*
X0033154Y0331562D02*
X0030084Y0331562D01*
X0030084Y0336166D01*
X0033154Y0336166D01*
X0031619Y0333864D02*
X0030084Y0333864D01*
X0028550Y0331562D02*
X0028550Y0336166D01*
X0025480Y0336166D02*
X0025480Y0331562D01*
X0027015Y0333097D01*
X0028550Y0331562D01*
X0023946Y0332330D02*
X0023946Y0335399D01*
X0023178Y0336166D01*
X0021644Y0336166D01*
X0020876Y0335399D01*
X0020876Y0332330D01*
X0021644Y0331562D01*
X0023178Y0331562D01*
X0023946Y0332330D01*
X0019342Y0333864D02*
X0018574Y0333097D01*
X0016272Y0333097D01*
X0016272Y0331562D02*
X0016272Y0336166D01*
X0018574Y0336166D01*
X0019342Y0335399D01*
X0019342Y0333864D01*
X0143763Y0199165D02*
X0146833Y0196096D01*
X0147600Y0196863D01*
X0147600Y0198398D01*
X0146833Y0199165D01*
X0143763Y0199165D01*
X0142996Y0198398D01*
X0142996Y0196863D01*
X0143763Y0196096D01*
X0146833Y0196096D01*
X0147600Y0194561D02*
X0147600Y0191492D01*
X0147600Y0193027D02*
X0142996Y0193027D01*
X0144531Y0191492D01*
X0147600Y0185477D02*
X0147600Y0182408D01*
X0147600Y0183942D02*
X0142996Y0183942D01*
X0144531Y0182408D01*
X0147600Y0180873D02*
X0147600Y0177804D01*
X0147600Y0179339D02*
X0142996Y0179339D01*
X0144531Y0177804D01*
X0143763Y0176269D02*
X0142996Y0175502D01*
X0142996Y0173967D01*
X0143763Y0173200D01*
X0146833Y0173200D01*
X0147600Y0173967D01*
X0147600Y0175502D01*
X0146833Y0176269D01*
X0157996Y0174735D02*
X0162600Y0174735D01*
X0162600Y0176269D02*
X0162600Y0173200D01*
X0159531Y0173200D02*
X0157996Y0174735D01*
X0159531Y0177804D02*
X0161833Y0177804D01*
X0162600Y0178571D01*
X0162600Y0180873D01*
X0159531Y0180873D01*
X0161065Y0186888D02*
X0161065Y0189190D01*
X0160298Y0189957D01*
X0158763Y0189957D01*
X0157996Y0189190D01*
X0157996Y0186888D01*
X0162600Y0186888D01*
X0161065Y0188423D02*
X0162600Y0189957D01*
X0162600Y0191492D02*
X0159531Y0194561D01*
X0158763Y0194561D01*
X0157996Y0193794D01*
X0157996Y0192259D01*
X0158763Y0191492D01*
X0162600Y0191492D02*
X0162600Y0194561D01*
X0162600Y0196096D02*
X0162600Y0199165D01*
X0162600Y0197631D02*
X0157996Y0197631D01*
X0159531Y0196096D01*
X0159298Y0153665D02*
X0159298Y0150596D01*
X0156996Y0152898D01*
X0161600Y0152898D01*
X0161600Y0149061D02*
X0161600Y0145992D01*
X0161600Y0147527D02*
X0156996Y0147527D01*
X0158531Y0145992D01*
X0157763Y0144457D02*
X0156996Y0143690D01*
X0156996Y0142156D01*
X0157763Y0141388D01*
X0160833Y0141388D01*
X0161600Y0142156D01*
X0161600Y0143690D01*
X0160833Y0144457D01*
X0160833Y0136373D02*
X0161600Y0135606D01*
X0161600Y0134071D01*
X0160833Y0133304D01*
X0157763Y0136373D01*
X0160833Y0136373D01*
X0160833Y0133304D02*
X0157763Y0133304D01*
X0156996Y0134071D01*
X0156996Y0135606D01*
X0157763Y0136373D01*
X0161600Y0131769D02*
X0161600Y0128700D01*
X0161600Y0130235D02*
X0156996Y0130235D01*
X0158531Y0128700D01*
X0146600Y0128700D02*
X0141996Y0128700D01*
X0141996Y0131002D01*
X0142763Y0131769D01*
X0144298Y0131769D01*
X0145065Y0131002D01*
X0145065Y0128700D01*
X0145065Y0130235D02*
X0146600Y0131769D01*
X0146600Y0133304D02*
X0143531Y0136373D01*
X0142763Y0136373D01*
X0141996Y0135606D01*
X0141996Y0134071D01*
X0142763Y0133304D01*
X0146600Y0133304D02*
X0146600Y0136373D01*
X0145833Y0137908D02*
X0145065Y0137908D01*
X0144298Y0138675D01*
X0144298Y0140210D01*
X0145065Y0140977D01*
X0145833Y0140977D01*
X0146600Y0140210D01*
X0146600Y0138675D01*
X0145833Y0137908D01*
X0144298Y0138675D02*
X0143531Y0137908D01*
X0142763Y0137908D01*
X0141996Y0138675D01*
X0141996Y0140210D01*
X0142763Y0140977D01*
X0143531Y0140977D01*
X0144298Y0140210D01*
X0143531Y0145992D02*
X0141996Y0147527D01*
X0146600Y0147527D01*
X0146600Y0149061D02*
X0146600Y0145992D01*
X0145833Y0150596D02*
X0146600Y0151363D01*
X0146600Y0153665D01*
X0143531Y0153665D01*
X0143531Y0150596D02*
X0145833Y0150596D01*
X0205000Y0175200D02*
X0208069Y0175200D01*
X0206535Y0175200D02*
X0206535Y0179804D01*
X0205000Y0178269D01*
X0209604Y0178269D02*
X0209604Y0175967D01*
X0210371Y0175200D01*
X0212673Y0175200D01*
X0212673Y0178269D01*
X0212673Y0190200D02*
X0209604Y0190200D01*
X0212673Y0193269D01*
X0212673Y0194037D01*
X0211906Y0194804D01*
X0210371Y0194804D01*
X0209604Y0194037D01*
X0208069Y0194037D02*
X0207302Y0194804D01*
X0205767Y0194804D01*
X0205000Y0194037D01*
X0205000Y0190967D01*
X0205767Y0190200D01*
X0207302Y0190200D01*
X0208069Y0190967D01*
X0223263Y0166165D02*
X0222496Y0165398D01*
X0222496Y0163863D01*
X0223263Y0163096D01*
X0226333Y0163096D01*
X0227100Y0163863D01*
X0227100Y0165398D01*
X0226333Y0166165D01*
X0224798Y0166165D01*
X0224798Y0164631D01*
X0224031Y0161561D02*
X0224798Y0160794D01*
X0225565Y0161561D01*
X0226333Y0161561D01*
X0227100Y0160794D01*
X0227100Y0159259D01*
X0226333Y0158492D01*
X0224798Y0160027D02*
X0224798Y0160794D01*
X0224031Y0161561D02*
X0223263Y0161561D01*
X0222496Y0160794D01*
X0222496Y0159259D01*
X0223263Y0158492D01*
X0222496Y0156957D02*
X0222496Y0153888D01*
X0222496Y0155423D02*
X0227100Y0155423D01*
X0226333Y0152353D02*
X0227100Y0151586D01*
X0227100Y0149284D01*
X0222496Y0149284D01*
X0222496Y0151586D01*
X0223263Y0152353D01*
X0224031Y0152353D01*
X0224798Y0151586D01*
X0224798Y0149284D01*
X0224031Y0147750D02*
X0224798Y0146982D01*
X0224798Y0145448D01*
X0224031Y0144680D01*
X0223263Y0144680D01*
X0222496Y0145448D01*
X0222496Y0146982D01*
X0223263Y0147750D01*
X0224031Y0147750D01*
X0224798Y0146982D02*
X0225565Y0147750D01*
X0226333Y0147750D01*
X0227100Y0146982D01*
X0227100Y0145448D01*
X0226333Y0144680D01*
X0225565Y0144680D01*
X0224798Y0145448D01*
X0227100Y0143146D02*
X0227100Y0140076D01*
X0227100Y0141611D02*
X0222496Y0141611D01*
X0224031Y0140076D01*
X0224798Y0138542D02*
X0224798Y0136240D01*
X0224031Y0135472D01*
X0223263Y0135472D01*
X0222496Y0136240D01*
X0222496Y0137774D01*
X0223263Y0138542D01*
X0226333Y0138542D01*
X0227100Y0137774D01*
X0227100Y0136240D01*
X0226333Y0135472D01*
X0226333Y0133938D02*
X0227100Y0133170D01*
X0227100Y0131636D01*
X0226333Y0130868D01*
X0226333Y0129334D02*
X0227100Y0128567D01*
X0227100Y0126265D01*
X0222496Y0126265D01*
X0222496Y0128567D01*
X0223263Y0129334D01*
X0224031Y0129334D01*
X0224798Y0128567D01*
X0224798Y0126265D01*
X0224798Y0128567D02*
X0225565Y0129334D01*
X0226333Y0129334D01*
X0224798Y0130868D02*
X0224031Y0132403D01*
X0224031Y0133170D01*
X0224798Y0133938D01*
X0226333Y0133938D01*
X0224798Y0130868D02*
X0222496Y0130868D01*
X0222496Y0133938D01*
X0222496Y0124730D02*
X0227100Y0124730D01*
X0227100Y0121661D02*
X0222496Y0121661D01*
X0224031Y0123195D01*
X0222496Y0124730D01*
X0223263Y0120126D02*
X0222496Y0119359D01*
X0222496Y0117824D01*
X0223263Y0117057D01*
X0224031Y0117057D01*
X0224798Y0117824D01*
X0224798Y0119359D01*
X0225565Y0120126D01*
X0226333Y0120126D01*
X0227100Y0119359D01*
X0227100Y0117824D01*
X0226333Y0117057D01*
X0227100Y0115522D02*
X0227100Y0112453D01*
X0227100Y0113987D02*
X0222496Y0113987D01*
X0224031Y0112453D01*
X0215673Y0103804D02*
X0214139Y0103037D01*
X0212604Y0101502D01*
X0214906Y0101502D01*
X0215673Y0100735D01*
X0215673Y0099967D01*
X0214906Y0099200D01*
X0213371Y0099200D01*
X0212604Y0099967D01*
X0212604Y0101502D01*
X0211069Y0103037D02*
X0210302Y0103804D01*
X0208767Y0103804D01*
X0208000Y0103037D01*
X0208000Y0099967D01*
X0208767Y0099200D01*
X0210302Y0099200D01*
X0211069Y0099967D01*
X0209535Y0088804D02*
X0208000Y0087269D01*
X0209535Y0088804D02*
X0209535Y0084200D01*
X0211069Y0084200D02*
X0208000Y0084200D01*
X0212604Y0084967D02*
X0212604Y0087269D01*
X0212604Y0084967D02*
X0213371Y0084200D01*
X0215673Y0084200D01*
X0215673Y0087269D01*
X0221496Y0082398D02*
X0221496Y0080863D01*
X0222263Y0080096D01*
X0225333Y0080096D01*
X0226100Y0080863D01*
X0226100Y0082398D01*
X0225333Y0083165D01*
X0223798Y0083165D01*
X0223798Y0081631D01*
X0222263Y0083165D02*
X0221496Y0082398D01*
X0222263Y0078561D02*
X0223031Y0078561D01*
X0223798Y0077794D01*
X0224565Y0078561D01*
X0225333Y0078561D01*
X0226100Y0077794D01*
X0226100Y0076259D01*
X0225333Y0075492D01*
X0223798Y0077027D02*
X0223798Y0077794D01*
X0222263Y0078561D02*
X0221496Y0077794D01*
X0221496Y0076259D01*
X0222263Y0075492D01*
X0221496Y0073957D02*
X0221496Y0070888D01*
X0221496Y0072423D02*
X0226100Y0072423D01*
X0225333Y0069353D02*
X0226100Y0068586D01*
X0226100Y0066284D01*
X0221496Y0066284D01*
X0221496Y0068586D01*
X0222263Y0069353D01*
X0223031Y0069353D01*
X0223798Y0068586D01*
X0223798Y0066284D01*
X0223031Y0064750D02*
X0223798Y0063982D01*
X0223798Y0062448D01*
X0223031Y0061680D01*
X0222263Y0061680D01*
X0221496Y0062448D01*
X0221496Y0063982D01*
X0222263Y0064750D01*
X0223031Y0064750D01*
X0223798Y0063982D02*
X0224565Y0064750D01*
X0225333Y0064750D01*
X0226100Y0063982D01*
X0226100Y0062448D01*
X0225333Y0061680D01*
X0224565Y0061680D01*
X0223798Y0062448D01*
X0226100Y0060146D02*
X0226100Y0057076D01*
X0226100Y0058611D02*
X0221496Y0058611D01*
X0223031Y0057076D01*
X0223798Y0055542D02*
X0223798Y0053240D01*
X0223031Y0052472D01*
X0222263Y0052472D01*
X0221496Y0053240D01*
X0221496Y0054774D01*
X0222263Y0055542D01*
X0225333Y0055542D01*
X0226100Y0054774D01*
X0226100Y0053240D01*
X0225333Y0052472D01*
X0225333Y0050938D02*
X0226100Y0050170D01*
X0226100Y0048636D01*
X0225333Y0047868D01*
X0225333Y0046334D02*
X0226100Y0045567D01*
X0226100Y0043265D01*
X0221496Y0043265D01*
X0221496Y0045567D01*
X0222263Y0046334D01*
X0223031Y0046334D01*
X0223798Y0045567D01*
X0223798Y0043265D01*
X0223798Y0045567D02*
X0224565Y0046334D01*
X0225333Y0046334D01*
X0223798Y0047868D02*
X0223031Y0049403D01*
X0223031Y0050170D01*
X0223798Y0050938D01*
X0225333Y0050938D01*
X0223798Y0047868D02*
X0221496Y0047868D01*
X0221496Y0050938D01*
X0221496Y0041730D02*
X0226100Y0041730D01*
X0226100Y0038661D02*
X0221496Y0038661D01*
X0223031Y0040195D01*
X0221496Y0041730D01*
X0222263Y0037126D02*
X0221496Y0036359D01*
X0221496Y0034824D01*
X0222263Y0034057D01*
X0223031Y0034057D01*
X0223798Y0034824D01*
X0223798Y0036359D01*
X0224565Y0037126D01*
X0225333Y0037126D01*
X0226100Y0036359D01*
X0226100Y0034824D01*
X0225333Y0034057D01*
X0226100Y0032522D02*
X0226100Y0029453D01*
X0226100Y0030987D02*
X0221496Y0030987D01*
X0223031Y0029453D01*
X0227300Y0067100D02*
X0227300Y0084900D01*
X0225333Y0069353D02*
X0224565Y0069353D01*
X0223798Y0068586D01*
X0242300Y0067100D02*
X0242300Y0084900D01*
X0243496Y0082398D02*
X0245798Y0080096D01*
X0245798Y0083165D01*
X0248100Y0082398D02*
X0243496Y0082398D01*
X0243496Y0077027D02*
X0248100Y0077027D01*
X0248100Y0078561D02*
X0248100Y0075492D01*
X0247333Y0073957D02*
X0244263Y0073957D01*
X0243496Y0073190D01*
X0243496Y0070888D01*
X0248100Y0070888D01*
X0248100Y0073190D01*
X0247333Y0073957D01*
X0245031Y0075492D02*
X0243496Y0077027D01*
X0243900Y0093500D02*
X0261700Y0093500D01*
X0263531Y0080165D02*
X0265065Y0077863D01*
X0266600Y0080165D01*
X0266600Y0077863D02*
X0261996Y0077863D01*
X0262763Y0076329D02*
X0265833Y0073259D01*
X0266600Y0074027D01*
X0266600Y0075561D01*
X0265833Y0076329D01*
X0262763Y0076329D01*
X0261996Y0075561D01*
X0261996Y0074027D01*
X0262763Y0073259D01*
X0265833Y0073259D01*
X0265833Y0071725D02*
X0266600Y0070957D01*
X0266600Y0069423D01*
X0265833Y0068656D01*
X0262763Y0071725D01*
X0265833Y0071725D01*
X0265833Y0068656D02*
X0262763Y0068656D01*
X0261996Y0069423D01*
X0261996Y0070957D01*
X0262763Y0071725D01*
X0266600Y0067121D02*
X0266600Y0064052D01*
X0266600Y0065586D02*
X0261996Y0065586D01*
X0263531Y0064052D01*
X0276996Y0072492D02*
X0276996Y0074794D01*
X0277763Y0075561D01*
X0279298Y0075561D01*
X0280065Y0074794D01*
X0280065Y0072492D01*
X0280065Y0074027D02*
X0281600Y0075561D01*
X0280833Y0077096D02*
X0281600Y0077863D01*
X0281600Y0079398D01*
X0280833Y0080165D01*
X0279298Y0080165D01*
X0278531Y0079398D01*
X0278531Y0078631D01*
X0279298Y0077096D01*
X0276996Y0077096D01*
X0276996Y0080165D01*
X0276996Y0072492D02*
X0281600Y0072492D01*
X0295890Y0073322D02*
X0295890Y0070253D01*
X0298192Y0070253D01*
X0297425Y0071788D01*
X0297425Y0072555D01*
X0298192Y0073322D01*
X0299727Y0073322D01*
X0300494Y0072555D01*
X0300494Y0071020D01*
X0299727Y0070253D01*
X0298192Y0068718D02*
X0298192Y0065649D01*
X0295890Y0067951D01*
X0300494Y0067951D01*
X0300494Y0064115D02*
X0300494Y0061045D01*
X0297425Y0064115D01*
X0296657Y0064115D01*
X0295890Y0063347D01*
X0295890Y0061813D01*
X0296657Y0061045D01*
X0295890Y0059511D02*
X0300494Y0059511D01*
X0295890Y0056441D01*
X0300494Y0056441D01*
X0298959Y0054907D02*
X0300494Y0053372D01*
X0298959Y0051837D01*
X0295890Y0051837D01*
X0295890Y0054907D02*
X0298959Y0054907D01*
X0299727Y0074857D02*
X0296657Y0077926D01*
X0299727Y0077926D01*
X0300494Y0077159D01*
X0300494Y0075624D01*
X0299727Y0074857D01*
X0296657Y0074857D01*
X0295890Y0075624D01*
X0295890Y0077159D01*
X0296657Y0077926D01*
X0295890Y0079461D02*
X0300494Y0079461D01*
X0298192Y0079461D02*
X0298192Y0082530D01*
X0297425Y0084065D02*
X0298192Y0084832D01*
X0298192Y0086367D01*
X0298959Y0087134D01*
X0299727Y0087134D01*
X0300494Y0086367D01*
X0300494Y0084832D01*
X0299727Y0084065D01*
X0300494Y0082530D02*
X0295890Y0082530D01*
X0296657Y0084065D02*
X0297425Y0084065D01*
X0296657Y0084065D02*
X0295890Y0084832D01*
X0295890Y0086367D01*
X0296657Y0087134D01*
X0295890Y0130837D02*
X0298959Y0130837D01*
X0300494Y0132372D01*
X0298959Y0133907D01*
X0295890Y0133907D01*
X0295890Y0135441D02*
X0300494Y0138511D01*
X0295890Y0138511D01*
X0296657Y0140045D02*
X0295890Y0140813D01*
X0295890Y0142347D01*
X0296657Y0143115D01*
X0297425Y0143115D01*
X0300494Y0140045D01*
X0300494Y0143115D01*
X0298192Y0144649D02*
X0298192Y0147718D01*
X0298192Y0149253D02*
X0297425Y0150788D01*
X0297425Y0151555D01*
X0298192Y0152322D01*
X0299727Y0152322D01*
X0300494Y0151555D01*
X0300494Y0150020D01*
X0299727Y0149253D01*
X0298192Y0149253D02*
X0295890Y0149253D01*
X0295890Y0152322D01*
X0296657Y0153857D02*
X0295890Y0154624D01*
X0295890Y0156159D01*
X0296657Y0156926D01*
X0299727Y0153857D01*
X0300494Y0154624D01*
X0300494Y0156159D01*
X0299727Y0156926D01*
X0296657Y0156926D01*
X0295890Y0158461D02*
X0300494Y0158461D01*
X0298192Y0158461D02*
X0298192Y0161530D01*
X0297425Y0163065D02*
X0298192Y0163832D01*
X0298192Y0165367D01*
X0298959Y0166134D01*
X0299727Y0166134D01*
X0300494Y0165367D01*
X0300494Y0163832D01*
X0299727Y0163065D01*
X0300494Y0161530D02*
X0295890Y0161530D01*
X0296657Y0163065D02*
X0297425Y0163065D01*
X0296657Y0163065D02*
X0295890Y0163832D01*
X0295890Y0165367D01*
X0296657Y0166134D01*
X0296657Y0153857D02*
X0299727Y0153857D01*
X0300494Y0146951D02*
X0295890Y0146951D01*
X0298192Y0144649D01*
X0300494Y0135441D02*
X0295890Y0135441D01*
X0281600Y0151492D02*
X0276996Y0151492D01*
X0276996Y0153794D01*
X0277763Y0154561D01*
X0279298Y0154561D01*
X0280065Y0153794D01*
X0280065Y0151492D01*
X0280065Y0153027D02*
X0281600Y0154561D01*
X0280833Y0156096D02*
X0281600Y0156863D01*
X0281600Y0158398D01*
X0280833Y0159165D01*
X0280065Y0159165D01*
X0279298Y0158398D01*
X0279298Y0157631D01*
X0279298Y0158398D02*
X0278531Y0159165D01*
X0277763Y0159165D01*
X0276996Y0158398D01*
X0276996Y0156863D01*
X0277763Y0156096D01*
X0266600Y0156863D02*
X0261996Y0156863D01*
X0262763Y0155329D02*
X0265833Y0152259D01*
X0266600Y0153027D01*
X0266600Y0154561D01*
X0265833Y0155329D01*
X0262763Y0155329D01*
X0261996Y0154561D01*
X0261996Y0153027D01*
X0262763Y0152259D01*
X0265833Y0152259D01*
X0265833Y0150725D02*
X0266600Y0149957D01*
X0266600Y0148423D01*
X0265833Y0147656D01*
X0262763Y0150725D01*
X0265833Y0150725D01*
X0265833Y0147656D02*
X0262763Y0147656D01*
X0261996Y0148423D01*
X0261996Y0149957D01*
X0262763Y0150725D01*
X0266600Y0146121D02*
X0266600Y0143052D01*
X0266600Y0144586D02*
X0261996Y0144586D01*
X0263531Y0143052D01*
X0262010Y0128804D02*
X0260475Y0128804D01*
X0259708Y0128037D01*
X0262010Y0128804D02*
X0262777Y0128037D01*
X0262777Y0127269D01*
X0259708Y0124200D01*
X0262777Y0124200D01*
X0258173Y0124200D02*
X0255104Y0124200D01*
X0256639Y0124200D02*
X0256639Y0128804D01*
X0255104Y0127269D01*
X0253569Y0126502D02*
X0253569Y0128037D01*
X0252802Y0128804D01*
X0250500Y0128804D01*
X0250500Y0124200D01*
X0250500Y0125735D02*
X0252802Y0125735D01*
X0253569Y0126502D01*
X0252035Y0125735D02*
X0253569Y0124200D01*
X0254475Y0114304D02*
X0253708Y0113537D01*
X0254475Y0114304D02*
X0256010Y0114304D01*
X0256777Y0113537D01*
X0256777Y0112769D01*
X0253708Y0109700D01*
X0256777Y0109700D01*
X0257406Y0109200D02*
X0255871Y0109200D01*
X0255104Y0109967D01*
X0258173Y0113037D01*
X0258173Y0109967D01*
X0257406Y0109200D01*
X0255104Y0109967D02*
X0255104Y0113037D01*
X0255871Y0113804D01*
X0257406Y0113804D01*
X0258173Y0113037D01*
X0261700Y0108500D02*
X0243900Y0108500D01*
X0244500Y0109700D02*
X0246802Y0109700D01*
X0247569Y0110467D01*
X0247569Y0113537D01*
X0246802Y0114304D01*
X0244500Y0114304D01*
X0244500Y0109700D01*
X0249104Y0109700D02*
X0252173Y0109700D01*
X0252035Y0109200D02*
X0252035Y0113804D01*
X0250500Y0112269D01*
X0249104Y0112769D02*
X0250639Y0114304D01*
X0250639Y0109700D01*
X0250500Y0109200D02*
X0253569Y0109200D01*
X0243300Y0150100D02*
X0243300Y0167900D01*
X0244496Y0166165D02*
X0245263Y0164631D01*
X0246798Y0163096D01*
X0246798Y0165398D01*
X0247565Y0166165D01*
X0248333Y0166165D01*
X0249100Y0165398D01*
X0249100Y0163863D01*
X0248333Y0163096D01*
X0246798Y0163096D01*
X0245263Y0161561D02*
X0244496Y0160794D01*
X0244496Y0158492D01*
X0249100Y0158492D01*
X0249100Y0160794D01*
X0248333Y0161561D01*
X0245263Y0161561D01*
X0243900Y0174500D02*
X0261700Y0174500D01*
X0257406Y0187200D02*
X0255871Y0187200D01*
X0255104Y0187967D01*
X0258173Y0191037D01*
X0258173Y0187967D01*
X0257406Y0187200D01*
X0255104Y0187967D02*
X0255104Y0191037D01*
X0255871Y0191804D01*
X0257406Y0191804D01*
X0258173Y0191037D01*
X0261700Y0189500D02*
X0243900Y0189500D01*
X0244500Y0190700D02*
X0246802Y0190700D01*
X0247569Y0191467D01*
X0247569Y0194537D01*
X0246802Y0195304D01*
X0244500Y0195304D01*
X0244500Y0190700D01*
X0249104Y0191467D02*
X0249104Y0192235D01*
X0249871Y0193002D01*
X0251406Y0193002D01*
X0252173Y0192235D01*
X0252173Y0191467D01*
X0251406Y0190700D01*
X0249871Y0190700D01*
X0249104Y0191467D01*
X0249871Y0193002D02*
X0249104Y0193769D01*
X0249104Y0194537D01*
X0249871Y0195304D01*
X0251406Y0195304D01*
X0252173Y0194537D01*
X0252173Y0193769D01*
X0251406Y0193002D01*
X0252035Y0191804D02*
X0252035Y0187200D01*
X0253569Y0187200D02*
X0250500Y0187200D01*
X0250500Y0190269D02*
X0252035Y0191804D01*
X0253569Y0202200D02*
X0252035Y0203735D01*
X0252802Y0203735D02*
X0250500Y0203735D01*
X0250500Y0202200D02*
X0250500Y0206804D01*
X0252802Y0206804D01*
X0253569Y0206037D01*
X0253569Y0204502D01*
X0252802Y0203735D01*
X0255104Y0202967D02*
X0255871Y0202200D01*
X0257406Y0202200D01*
X0258173Y0202967D01*
X0258173Y0206037D01*
X0257406Y0206804D01*
X0255871Y0206804D01*
X0255104Y0206037D01*
X0255104Y0205269D01*
X0255871Y0204502D01*
X0258173Y0204502D01*
X0258871Y0215200D02*
X0258104Y0215967D01*
X0261173Y0219037D01*
X0261173Y0215967D01*
X0260406Y0215200D01*
X0258871Y0215200D01*
X0258104Y0215967D02*
X0258104Y0219037D01*
X0258871Y0219804D01*
X0260406Y0219804D01*
X0261173Y0219037D01*
X0256569Y0215200D02*
X0253500Y0215200D01*
X0255035Y0215200D02*
X0255035Y0219804D01*
X0253500Y0218269D01*
X0253500Y0230200D02*
X0253500Y0234804D01*
X0255802Y0234804D01*
X0256569Y0234037D01*
X0256569Y0232502D01*
X0255802Y0231735D01*
X0253500Y0231735D01*
X0255035Y0231735D02*
X0256569Y0230200D01*
X0256292Y0230700D02*
X0258594Y0230700D01*
X0259361Y0231467D01*
X0259361Y0234537D01*
X0258594Y0235304D01*
X0256292Y0235304D01*
X0256292Y0230700D01*
X0258104Y0230967D02*
X0258871Y0230200D01*
X0260406Y0230200D01*
X0261173Y0230967D01*
X0261173Y0231735D01*
X0260406Y0232502D01*
X0258104Y0232502D01*
X0258104Y0230967D01*
X0258104Y0232502D02*
X0259639Y0234037D01*
X0261173Y0234804D01*
X0260896Y0234537D02*
X0261663Y0235304D01*
X0263198Y0235304D01*
X0263965Y0234537D01*
X0263965Y0233769D01*
X0263198Y0233002D01*
X0263965Y0232235D01*
X0263965Y0231467D01*
X0263198Y0230700D01*
X0261663Y0230700D01*
X0260896Y0231467D01*
X0262431Y0233002D02*
X0263198Y0233002D01*
X0265700Y0236500D02*
X0247900Y0236500D01*
X0247900Y0251500D02*
X0265700Y0251500D01*
X0261600Y0266700D02*
X0256996Y0266700D01*
X0256996Y0269002D01*
X0257763Y0269769D01*
X0259298Y0269769D01*
X0260065Y0269002D01*
X0260065Y0266700D01*
X0260065Y0268235D02*
X0261600Y0269769D01*
X0261600Y0271304D02*
X0261600Y0274373D01*
X0261600Y0272839D02*
X0256996Y0272839D01*
X0258531Y0271304D01*
X0258100Y0271794D02*
X0257333Y0272561D01*
X0254263Y0272561D01*
X0253496Y0271794D01*
X0253496Y0269492D01*
X0258100Y0269492D01*
X0258100Y0271794D01*
X0258100Y0274096D02*
X0255031Y0277165D01*
X0254263Y0277165D01*
X0253496Y0276398D01*
X0253496Y0274863D01*
X0254263Y0274096D01*
X0258100Y0274096D02*
X0258100Y0277165D01*
X0252300Y0278900D02*
X0252300Y0261100D01*
X0237300Y0261100D02*
X0237300Y0278900D01*
X0235333Y0277165D02*
X0233798Y0277165D01*
X0233798Y0275631D01*
X0232263Y0277165D02*
X0231496Y0276398D01*
X0231496Y0274863D01*
X0232263Y0274096D01*
X0235333Y0274096D01*
X0236100Y0274863D01*
X0236100Y0276398D01*
X0235333Y0277165D01*
X0235333Y0272561D02*
X0236100Y0271794D01*
X0236100Y0270259D01*
X0235333Y0269492D01*
X0233798Y0271027D02*
X0233798Y0271794D01*
X0234565Y0272561D01*
X0235333Y0272561D01*
X0233798Y0271794D02*
X0233031Y0272561D01*
X0232263Y0272561D01*
X0231496Y0271794D01*
X0231496Y0270259D01*
X0232263Y0269492D01*
X0231496Y0267957D02*
X0231496Y0264888D01*
X0231496Y0266423D02*
X0236100Y0266423D01*
X0235333Y0263353D02*
X0236100Y0262586D01*
X0236100Y0260284D01*
X0231496Y0260284D01*
X0231496Y0262586D01*
X0232263Y0263353D01*
X0233031Y0263353D01*
X0233798Y0262586D01*
X0233798Y0260284D01*
X0233031Y0258750D02*
X0233798Y0257982D01*
X0233798Y0256448D01*
X0233031Y0255680D01*
X0232263Y0255680D01*
X0231496Y0256448D01*
X0231496Y0257982D01*
X0232263Y0258750D01*
X0233031Y0258750D01*
X0233798Y0257982D02*
X0234565Y0258750D01*
X0235333Y0258750D01*
X0236100Y0257982D01*
X0236100Y0256448D01*
X0235333Y0255680D01*
X0234565Y0255680D01*
X0233798Y0256448D01*
X0236100Y0254146D02*
X0236100Y0251076D01*
X0236100Y0252611D02*
X0231496Y0252611D01*
X0233031Y0251076D01*
X0233798Y0249542D02*
X0233798Y0247240D01*
X0233031Y0246472D01*
X0232263Y0246472D01*
X0231496Y0247240D01*
X0231496Y0248774D01*
X0232263Y0249542D01*
X0235333Y0249542D01*
X0236100Y0248774D01*
X0236100Y0247240D01*
X0235333Y0246472D01*
X0235333Y0244938D02*
X0236100Y0244170D01*
X0236100Y0242636D01*
X0235333Y0241868D01*
X0235333Y0240334D02*
X0236100Y0239567D01*
X0236100Y0237265D01*
X0231496Y0237265D01*
X0231496Y0239567D01*
X0232263Y0240334D01*
X0233031Y0240334D01*
X0233798Y0239567D01*
X0233798Y0237265D01*
X0233798Y0239567D02*
X0234565Y0240334D01*
X0235333Y0240334D01*
X0233798Y0241868D02*
X0233031Y0243403D01*
X0233031Y0244170D01*
X0233798Y0244938D01*
X0235333Y0244938D01*
X0233798Y0241868D02*
X0231496Y0241868D01*
X0231496Y0244938D01*
X0225673Y0248200D02*
X0222604Y0248200D01*
X0224139Y0248200D02*
X0224139Y0252804D01*
X0222604Y0251269D01*
X0221069Y0252037D02*
X0220302Y0252804D01*
X0218767Y0252804D01*
X0218000Y0252037D01*
X0218000Y0248967D01*
X0218767Y0248200D01*
X0220302Y0248200D01*
X0221069Y0248967D01*
X0219535Y0237804D02*
X0218000Y0236269D01*
X0219535Y0237804D02*
X0219535Y0233200D01*
X0221069Y0233200D02*
X0218000Y0233200D01*
X0222604Y0233967D02*
X0223371Y0233200D01*
X0225673Y0233200D01*
X0225673Y0236269D01*
X0222604Y0236269D02*
X0222604Y0233967D01*
X0231496Y0232661D02*
X0233031Y0234195D01*
X0231496Y0235730D01*
X0236100Y0235730D01*
X0236100Y0232661D02*
X0231496Y0232661D01*
X0232263Y0231126D02*
X0231496Y0230359D01*
X0231496Y0228824D01*
X0232263Y0228057D01*
X0233031Y0228057D01*
X0233798Y0228824D01*
X0233798Y0230359D01*
X0234565Y0231126D01*
X0235333Y0231126D01*
X0236100Y0230359D01*
X0236100Y0228824D01*
X0235333Y0228057D01*
X0236100Y0226522D02*
X0236100Y0223453D01*
X0236100Y0224987D02*
X0231496Y0224987D01*
X0233031Y0223453D01*
X0233798Y0262586D02*
X0234565Y0263353D01*
X0235333Y0263353D01*
X0253500Y0301200D02*
X0256569Y0301200D01*
X0255035Y0301200D02*
X0255035Y0305804D01*
X0253500Y0304269D01*
X0258104Y0305037D02*
X0258871Y0305804D01*
X0260406Y0305804D01*
X0261173Y0305037D01*
X0258104Y0301967D01*
X0258871Y0301200D01*
X0260406Y0301200D01*
X0261173Y0301967D01*
X0261173Y0305037D01*
X0258104Y0305037D02*
X0258104Y0301967D01*
X0258871Y0316200D02*
X0258104Y0316967D01*
X0258104Y0317735D01*
X0258871Y0318502D01*
X0260406Y0318502D01*
X0261173Y0317735D01*
X0261173Y0316967D01*
X0260406Y0316200D01*
X0258871Y0316200D01*
X0259594Y0316700D02*
X0257292Y0316700D01*
X0257292Y0321304D01*
X0259594Y0321304D01*
X0260361Y0320537D01*
X0260361Y0317467D01*
X0259594Y0316700D01*
X0258871Y0318502D02*
X0258104Y0319269D01*
X0258104Y0320037D01*
X0258871Y0320804D01*
X0260406Y0320804D01*
X0261173Y0320037D01*
X0261173Y0319269D01*
X0260406Y0318502D01*
X0261896Y0317467D02*
X0261896Y0316700D01*
X0261896Y0317467D02*
X0264965Y0320537D01*
X0264965Y0321304D01*
X0261896Y0321304D01*
X0266700Y0322500D02*
X0248900Y0322500D01*
X0253500Y0320804D02*
X0255802Y0320804D01*
X0256569Y0320037D01*
X0256569Y0318502D01*
X0255802Y0317735D01*
X0253500Y0317735D01*
X0255035Y0317735D02*
X0256569Y0316200D01*
X0253500Y0316200D02*
X0253500Y0320804D01*
X0248900Y0337500D02*
X0266700Y0337500D01*
X0271531Y0354700D02*
X0269996Y0356235D01*
X0274600Y0356235D01*
X0274600Y0357769D02*
X0274600Y0354700D01*
X0273833Y0359304D02*
X0270763Y0362373D01*
X0273833Y0362373D01*
X0274600Y0361606D01*
X0274600Y0360071D01*
X0273833Y0359304D01*
X0270763Y0359304D01*
X0269996Y0360071D01*
X0269996Y0361606D01*
X0270763Y0362373D01*
X0270763Y0363908D02*
X0269996Y0364675D01*
X0269996Y0366210D01*
X0270763Y0366977D01*
X0273833Y0363908D01*
X0274600Y0364675D01*
X0274600Y0366210D01*
X0273833Y0366977D01*
X0270763Y0366977D01*
X0269996Y0368512D02*
X0274600Y0368512D01*
X0273065Y0368512D02*
X0271531Y0370814D01*
X0273065Y0368512D02*
X0274600Y0370814D01*
X0273833Y0363908D02*
X0270763Y0363908D01*
X0259600Y0362373D02*
X0259600Y0359304D01*
X0256531Y0362373D01*
X0255763Y0362373D01*
X0254996Y0361606D01*
X0254996Y0360071D01*
X0255763Y0359304D01*
X0255798Y0359096D02*
X0255031Y0360631D01*
X0255031Y0361398D01*
X0255798Y0362165D01*
X0257333Y0362165D01*
X0258100Y0361398D01*
X0258100Y0359863D01*
X0257333Y0359096D01*
X0257298Y0357769D02*
X0258065Y0357002D01*
X0258065Y0354700D01*
X0258100Y0354492D02*
X0258100Y0356794D01*
X0257333Y0357561D01*
X0254263Y0357561D01*
X0253496Y0356794D01*
X0253496Y0354492D01*
X0258100Y0354492D01*
X0259600Y0354700D02*
X0254996Y0354700D01*
X0254996Y0357002D01*
X0255763Y0357769D01*
X0257298Y0357769D01*
X0258065Y0356235D02*
X0259600Y0357769D01*
X0255798Y0359096D02*
X0253496Y0359096D01*
X0253496Y0362165D01*
X0252300Y0363900D02*
X0252300Y0346100D01*
X0237300Y0346100D02*
X0237300Y0363900D01*
X0235333Y0362165D02*
X0233798Y0362165D01*
X0233798Y0360631D01*
X0232263Y0362165D02*
X0231496Y0361398D01*
X0231496Y0359863D01*
X0232263Y0359096D01*
X0235333Y0359096D01*
X0236100Y0359863D01*
X0236100Y0361398D01*
X0235333Y0362165D01*
X0235333Y0357561D02*
X0236100Y0356794D01*
X0236100Y0355259D01*
X0235333Y0354492D01*
X0233798Y0356027D02*
X0233798Y0356794D01*
X0234565Y0357561D01*
X0235333Y0357561D01*
X0233798Y0356794D02*
X0233031Y0357561D01*
X0232263Y0357561D01*
X0231496Y0356794D01*
X0231496Y0355259D01*
X0232263Y0354492D01*
X0231496Y0352957D02*
X0231496Y0349888D01*
X0231496Y0351423D02*
X0236100Y0351423D01*
X0235333Y0348353D02*
X0236100Y0347586D01*
X0236100Y0345284D01*
X0231496Y0345284D01*
X0231496Y0347586D01*
X0232263Y0348353D01*
X0233031Y0348353D01*
X0233798Y0347586D01*
X0233798Y0345284D01*
X0233031Y0343750D02*
X0233798Y0342982D01*
X0233798Y0341448D01*
X0233031Y0340680D01*
X0232263Y0340680D01*
X0231496Y0341448D01*
X0231496Y0342982D01*
X0232263Y0343750D01*
X0233031Y0343750D01*
X0233798Y0342982D02*
X0234565Y0343750D01*
X0235333Y0343750D01*
X0236100Y0342982D01*
X0236100Y0341448D01*
X0235333Y0340680D01*
X0234565Y0340680D01*
X0233798Y0341448D01*
X0236100Y0339146D02*
X0236100Y0336076D01*
X0236100Y0337611D02*
X0231496Y0337611D01*
X0233031Y0336076D01*
X0233798Y0334542D02*
X0233798Y0332240D01*
X0233031Y0331472D01*
X0232263Y0331472D01*
X0231496Y0332240D01*
X0231496Y0333774D01*
X0232263Y0334542D01*
X0235333Y0334542D01*
X0236100Y0333774D01*
X0236100Y0332240D01*
X0235333Y0331472D01*
X0235333Y0329938D02*
X0236100Y0329170D01*
X0236100Y0327636D01*
X0235333Y0326868D01*
X0235333Y0325334D02*
X0236100Y0324567D01*
X0236100Y0322265D01*
X0231496Y0322265D01*
X0231496Y0324567D01*
X0232263Y0325334D01*
X0233031Y0325334D01*
X0233798Y0324567D01*
X0233798Y0322265D01*
X0233798Y0324567D02*
X0234565Y0325334D01*
X0235333Y0325334D01*
X0233798Y0326868D02*
X0233031Y0328403D01*
X0233031Y0329170D01*
X0233798Y0329938D01*
X0235333Y0329938D01*
X0233798Y0326868D02*
X0231496Y0326868D01*
X0231496Y0329938D01*
X0225673Y0335967D02*
X0224906Y0335200D01*
X0223371Y0335200D01*
X0222604Y0335967D01*
X0221069Y0335967D02*
X0220302Y0335200D01*
X0218767Y0335200D01*
X0218000Y0335967D01*
X0218000Y0339037D01*
X0218767Y0339804D01*
X0220302Y0339804D01*
X0221069Y0339037D01*
X0222604Y0339804D02*
X0222604Y0337502D01*
X0224139Y0338269D01*
X0224906Y0338269D01*
X0225673Y0337502D01*
X0225673Y0335967D01*
X0225673Y0339804D02*
X0222604Y0339804D01*
X0219535Y0324804D02*
X0219535Y0320200D01*
X0221069Y0320200D02*
X0218000Y0320200D01*
X0218000Y0323269D02*
X0219535Y0324804D01*
X0222604Y0323269D02*
X0222604Y0320967D01*
X0223371Y0320200D01*
X0225673Y0320200D01*
X0225673Y0323269D01*
X0231496Y0320730D02*
X0236100Y0320730D01*
X0236100Y0317661D02*
X0231496Y0317661D01*
X0233031Y0319195D01*
X0231496Y0320730D01*
X0232263Y0316126D02*
X0231496Y0315359D01*
X0231496Y0313824D01*
X0232263Y0313057D01*
X0233031Y0313057D01*
X0233798Y0313824D01*
X0233798Y0315359D01*
X0234565Y0316126D01*
X0235333Y0316126D01*
X0236100Y0315359D01*
X0236100Y0313824D01*
X0235333Y0313057D01*
X0236100Y0311522D02*
X0236100Y0308453D01*
X0236100Y0309987D02*
X0231496Y0309987D01*
X0233031Y0308453D01*
X0233798Y0347586D02*
X0234565Y0348353D01*
X0235333Y0348353D01*
X0271996Y0280512D02*
X0276600Y0280512D01*
X0275065Y0280512D02*
X0273531Y0282814D01*
X0275065Y0280512D02*
X0276600Y0282814D01*
X0275833Y0278977D02*
X0272763Y0278977D01*
X0275833Y0275908D01*
X0276600Y0276675D01*
X0276600Y0278210D01*
X0275833Y0278977D01*
X0275833Y0275908D02*
X0272763Y0275908D01*
X0271996Y0276675D01*
X0271996Y0278210D01*
X0272763Y0278977D01*
X0272763Y0274373D02*
X0275833Y0271304D01*
X0276600Y0272071D01*
X0276600Y0273606D01*
X0275833Y0274373D01*
X0272763Y0274373D01*
X0271996Y0273606D01*
X0271996Y0272071D01*
X0272763Y0271304D01*
X0275833Y0271304D01*
X0276600Y0269769D02*
X0276600Y0266700D01*
X0276600Y0268235D02*
X0271996Y0268235D01*
X0273531Y0266700D01*
X0293723Y0229804D02*
X0293723Y0225200D01*
X0295257Y0225200D02*
X0292188Y0225200D01*
X0292188Y0228269D02*
X0293723Y0229804D01*
X0296792Y0229037D02*
X0297559Y0229804D01*
X0299094Y0229804D01*
X0299861Y0229037D01*
X0296792Y0225967D01*
X0297559Y0225200D01*
X0299094Y0225200D01*
X0299861Y0225967D01*
X0299861Y0229037D01*
X0301396Y0228269D02*
X0303698Y0228269D01*
X0304465Y0227502D01*
X0304465Y0225200D01*
X0301396Y0225200D02*
X0301396Y0228269D01*
X0296792Y0229037D02*
X0296792Y0225967D01*
X0297559Y0214804D02*
X0296792Y0214037D01*
X0296792Y0210967D01*
X0297559Y0210200D01*
X0299094Y0210200D01*
X0299861Y0210967D01*
X0301396Y0210967D02*
X0302163Y0210200D01*
X0303698Y0210200D01*
X0304465Y0210967D01*
X0304465Y0211735D01*
X0303698Y0212502D01*
X0302931Y0212502D01*
X0303698Y0212502D02*
X0304465Y0213269D01*
X0304465Y0214037D01*
X0303698Y0214804D01*
X0302163Y0214804D01*
X0301396Y0214037D01*
X0299861Y0214037D02*
X0299094Y0214804D01*
X0297559Y0214804D01*
X0304188Y0213769D02*
X0305723Y0215304D01*
X0305723Y0210700D01*
X0307257Y0210700D02*
X0304188Y0210700D01*
X0308792Y0211467D02*
X0308792Y0214537D01*
X0309559Y0215304D01*
X0311094Y0215304D01*
X0311861Y0214537D01*
X0308792Y0211467D01*
X0309559Y0210700D01*
X0311094Y0210700D01*
X0311861Y0211467D01*
X0311861Y0214537D01*
X0313396Y0215304D02*
X0314931Y0213769D01*
X0316465Y0215304D01*
X0316465Y0210700D01*
X0313396Y0210700D02*
X0313396Y0215304D01*
X0313396Y0195304D02*
X0316465Y0195304D01*
X0316465Y0194537D01*
X0313396Y0191467D01*
X0313396Y0190700D01*
X0311861Y0191467D02*
X0311094Y0190700D01*
X0309559Y0190700D01*
X0308792Y0191467D01*
X0307257Y0190700D02*
X0305723Y0192235D01*
X0306490Y0192235D02*
X0304188Y0192235D01*
X0304188Y0190700D02*
X0304188Y0195304D01*
X0306490Y0195304D01*
X0307257Y0194537D01*
X0307257Y0193002D01*
X0306490Y0192235D01*
X0308792Y0194537D02*
X0309559Y0195304D01*
X0311094Y0195304D01*
X0311861Y0194537D01*
X0311861Y0193769D01*
X0311094Y0193002D01*
X0311861Y0192235D01*
X0311861Y0191467D01*
X0311094Y0193002D02*
X0310327Y0193002D01*
X0340188Y0192235D02*
X0342490Y0192235D01*
X0343257Y0193002D01*
X0343257Y0194537D01*
X0342490Y0195304D01*
X0340188Y0195304D01*
X0340188Y0190700D01*
X0341723Y0192235D02*
X0343257Y0190700D01*
X0344792Y0191467D02*
X0345559Y0190700D01*
X0347094Y0190700D01*
X0347861Y0191467D01*
X0347861Y0192235D01*
X0347094Y0193002D01*
X0346327Y0193002D01*
X0347094Y0193002D02*
X0347861Y0193769D01*
X0347861Y0194537D01*
X0347094Y0195304D01*
X0345559Y0195304D01*
X0344792Y0194537D01*
X0349396Y0195304D02*
X0349396Y0193002D01*
X0350931Y0193769D01*
X0351698Y0193769D01*
X0352465Y0193002D01*
X0352465Y0191467D01*
X0351698Y0190700D01*
X0350163Y0190700D01*
X0349396Y0191467D01*
X0349396Y0195304D02*
X0352465Y0195304D01*
X0351698Y0208700D02*
X0350163Y0208700D01*
X0349396Y0209467D01*
X0349396Y0211002D01*
X0351698Y0211002D01*
X0352465Y0210235D01*
X0352465Y0209467D01*
X0351698Y0208700D01*
X0352465Y0210700D02*
X0352465Y0215304D01*
X0350931Y0213769D01*
X0349396Y0215304D01*
X0349396Y0210700D01*
X0349396Y0211002D02*
X0350931Y0212537D01*
X0352465Y0213304D01*
X0347861Y0212537D02*
X0347861Y0211769D01*
X0347094Y0211002D01*
X0347861Y0210235D01*
X0347861Y0209467D01*
X0347094Y0208700D01*
X0345559Y0208700D01*
X0344792Y0209467D01*
X0345559Y0210700D02*
X0344792Y0211467D01*
X0347861Y0214537D01*
X0347861Y0211467D01*
X0347094Y0210700D01*
X0345559Y0210700D01*
X0346327Y0211002D02*
X0347094Y0211002D01*
X0347861Y0212537D02*
X0347094Y0213304D01*
X0345559Y0213304D01*
X0344792Y0212537D01*
X0344792Y0211467D02*
X0344792Y0214537D01*
X0345559Y0215304D01*
X0347094Y0215304D01*
X0347861Y0214537D01*
X0343257Y0212537D02*
X0343257Y0211002D01*
X0342490Y0210235D01*
X0340188Y0210235D01*
X0340188Y0210700D02*
X0343257Y0210700D01*
X0341723Y0210700D02*
X0341723Y0215304D01*
X0340188Y0213769D01*
X0340188Y0213304D02*
X0342490Y0213304D01*
X0343257Y0212537D01*
X0341723Y0210235D02*
X0343257Y0208700D01*
X0340188Y0208700D02*
X0340188Y0213304D01*
X0340188Y0228700D02*
X0343257Y0228700D01*
X0341723Y0228700D02*
X0341723Y0233304D01*
X0340188Y0231769D01*
X0344792Y0232537D02*
X0344792Y0229467D01*
X0347861Y0232537D01*
X0347861Y0229467D01*
X0347094Y0228700D01*
X0345559Y0228700D01*
X0344792Y0229467D01*
X0344792Y0232537D02*
X0345559Y0233304D01*
X0347094Y0233304D01*
X0347861Y0232537D01*
X0349396Y0233304D02*
X0350931Y0231769D01*
X0352465Y0233304D01*
X0352465Y0228700D01*
X0349396Y0228700D02*
X0349396Y0233304D01*
X0340061Y0255094D02*
X0338526Y0255094D01*
X0337759Y0255861D01*
X0338526Y0257396D02*
X0340061Y0257396D01*
X0340828Y0256629D01*
X0340828Y0255861D01*
X0340061Y0255094D01*
X0338526Y0257396D02*
X0337759Y0258163D01*
X0337759Y0258931D01*
X0338526Y0259698D01*
X0340061Y0259698D01*
X0340828Y0258931D01*
X0336224Y0259698D02*
X0336224Y0255094D01*
X0336224Y0257396D02*
X0333155Y0257396D01*
X0331620Y0255861D02*
X0330853Y0255094D01*
X0329318Y0255094D01*
X0328551Y0255861D01*
X0331620Y0258931D01*
X0331620Y0255861D01*
X0333155Y0255094D02*
X0333155Y0259698D01*
X0331620Y0258931D02*
X0330853Y0259698D01*
X0329318Y0259698D01*
X0328551Y0258931D01*
X0328551Y0255861D01*
X0327016Y0255861D02*
X0326249Y0255094D01*
X0324714Y0255094D01*
X0323947Y0255861D01*
X0323947Y0257396D02*
X0325481Y0258163D01*
X0326249Y0258163D01*
X0327016Y0257396D01*
X0327016Y0255861D01*
X0323947Y0257396D02*
X0323947Y0259698D01*
X0327016Y0259698D01*
X0322412Y0257396D02*
X0319343Y0257396D01*
X0321645Y0259698D01*
X0321645Y0255094D01*
X0317808Y0255094D02*
X0314739Y0255094D01*
X0317808Y0258163D01*
X0317808Y0258931D01*
X0317041Y0259698D01*
X0315506Y0259698D01*
X0314739Y0258931D01*
X0313204Y0258931D02*
X0313204Y0257396D01*
X0312437Y0256629D01*
X0310135Y0256629D01*
X0308600Y0256629D02*
X0307066Y0255094D01*
X0305531Y0256629D01*
X0305531Y0259698D01*
X0308600Y0259698D02*
X0308600Y0256629D01*
X0310135Y0255094D02*
X0310135Y0259698D01*
X0312437Y0259698D01*
X0313204Y0258931D01*
X0353496Y0276200D02*
X0353496Y0278502D01*
X0354263Y0279269D01*
X0355798Y0279269D01*
X0356565Y0278502D01*
X0356565Y0276200D01*
X0356565Y0277735D02*
X0358100Y0279269D01*
X0358100Y0280804D02*
X0357333Y0280804D01*
X0354263Y0283873D01*
X0353496Y0283873D01*
X0353496Y0280804D01*
X0353496Y0276200D02*
X0358100Y0276200D01*
X0373496Y0277735D02*
X0378100Y0277735D01*
X0378100Y0279269D02*
X0378100Y0276200D01*
X0375031Y0276200D02*
X0373496Y0277735D01*
X0374263Y0280804D02*
X0373496Y0281571D01*
X0373496Y0283106D01*
X0374263Y0283873D01*
X0377333Y0280804D01*
X0378100Y0281571D01*
X0378100Y0283106D01*
X0377333Y0283873D01*
X0374263Y0283873D01*
X0373496Y0285408D02*
X0375031Y0286942D01*
X0373496Y0288477D01*
X0378100Y0288477D01*
X0378100Y0285408D02*
X0373496Y0285408D01*
X0374263Y0280804D02*
X0377333Y0280804D01*
X0339061Y0343094D02*
X0337526Y0343094D01*
X0336759Y0343861D01*
X0337526Y0345396D02*
X0339061Y0345396D01*
X0339828Y0344629D01*
X0339828Y0343861D01*
X0339061Y0343094D01*
X0337526Y0345396D02*
X0336759Y0346163D01*
X0336759Y0346931D01*
X0337526Y0347698D01*
X0339061Y0347698D01*
X0339828Y0346931D01*
X0335224Y0347698D02*
X0335224Y0343094D01*
X0335224Y0345396D02*
X0332155Y0345396D01*
X0330620Y0343861D02*
X0329853Y0343094D01*
X0328318Y0343094D01*
X0327551Y0343861D01*
X0330620Y0346931D01*
X0330620Y0343861D01*
X0332155Y0343094D02*
X0332155Y0347698D01*
X0330620Y0346931D02*
X0329853Y0347698D01*
X0328318Y0347698D01*
X0327551Y0346931D01*
X0327551Y0343861D01*
X0326016Y0343861D02*
X0325249Y0343094D01*
X0323714Y0343094D01*
X0322947Y0343861D01*
X0322947Y0345396D02*
X0324481Y0346163D01*
X0325249Y0346163D01*
X0326016Y0345396D01*
X0326016Y0343861D01*
X0322947Y0345396D02*
X0322947Y0347698D01*
X0326016Y0347698D01*
X0321412Y0345396D02*
X0318343Y0345396D01*
X0320645Y0347698D01*
X0320645Y0343094D01*
X0316808Y0343094D02*
X0313739Y0343094D01*
X0316808Y0346163D01*
X0316808Y0346931D01*
X0316041Y0347698D01*
X0314506Y0347698D01*
X0313739Y0346931D01*
X0312204Y0346931D02*
X0312204Y0345396D01*
X0311437Y0344629D01*
X0309135Y0344629D01*
X0307600Y0344629D02*
X0307600Y0347698D01*
X0309135Y0347698D02*
X0311437Y0347698D01*
X0312204Y0346931D01*
X0309135Y0347698D02*
X0309135Y0343094D01*
X0307600Y0344629D02*
X0306066Y0343094D01*
X0304531Y0344629D01*
X0304531Y0347698D01*
X0353496Y0356200D02*
X0353496Y0358502D01*
X0354263Y0359269D01*
X0355798Y0359269D01*
X0356565Y0358502D01*
X0356565Y0356200D01*
X0356565Y0357735D02*
X0358100Y0359269D01*
X0355798Y0360804D02*
X0355798Y0363873D01*
X0353496Y0363106D02*
X0355798Y0360804D01*
X0358100Y0363106D02*
X0353496Y0363106D01*
X0353496Y0356200D02*
X0358100Y0356200D01*
X0373496Y0357735D02*
X0375031Y0356200D01*
X0373496Y0357735D02*
X0378100Y0357735D01*
X0378100Y0359269D02*
X0378100Y0356200D01*
X0377333Y0360804D02*
X0374263Y0363873D01*
X0377333Y0363873D01*
X0378100Y0363106D01*
X0378100Y0361571D01*
X0377333Y0360804D01*
X0374263Y0360804D01*
X0373496Y0361571D01*
X0373496Y0363106D01*
X0374263Y0363873D01*
X0373496Y0365408D02*
X0375031Y0366942D01*
X0373496Y0368477D01*
X0378100Y0368477D01*
X0378100Y0365408D02*
X0373496Y0365408D01*
X0372496Y0170477D02*
X0377100Y0170477D01*
X0377100Y0167408D02*
X0372496Y0167408D01*
X0374031Y0168942D01*
X0372496Y0170477D01*
X0373263Y0165873D02*
X0372496Y0165106D01*
X0372496Y0163571D01*
X0373263Y0162804D01*
X0376333Y0162804D01*
X0373263Y0165873D01*
X0376333Y0165873D01*
X0377100Y0165106D01*
X0377100Y0163571D01*
X0376333Y0162804D01*
X0377100Y0161269D02*
X0377100Y0158200D01*
X0377100Y0159735D02*
X0372496Y0159735D01*
X0374031Y0158200D01*
X0357100Y0158200D02*
X0352496Y0158200D01*
X0352496Y0160502D01*
X0353263Y0161269D01*
X0354798Y0161269D01*
X0355565Y0160502D01*
X0355565Y0158200D01*
X0355565Y0159735D02*
X0357100Y0161269D01*
X0357100Y0162804D02*
X0357100Y0165873D01*
X0357100Y0164339D02*
X0352496Y0164339D01*
X0354031Y0162804D01*
X0353263Y0167408D02*
X0352496Y0168175D01*
X0352496Y0169710D01*
X0353263Y0170477D01*
X0356333Y0167408D01*
X0357100Y0168175D01*
X0357100Y0169710D01*
X0356333Y0170477D01*
X0353263Y0170477D01*
X0353263Y0167408D02*
X0356333Y0167408D01*
X0356100Y0085477D02*
X0356100Y0082408D01*
X0356100Y0083942D02*
X0351496Y0083942D01*
X0353031Y0082408D01*
X0356100Y0080873D02*
X0356100Y0077804D01*
X0356100Y0079339D02*
X0351496Y0079339D01*
X0353031Y0077804D01*
X0353798Y0076269D02*
X0354565Y0075502D01*
X0354565Y0073200D01*
X0354565Y0074735D02*
X0356100Y0076269D01*
X0353798Y0076269D02*
X0352263Y0076269D01*
X0351496Y0075502D01*
X0351496Y0073200D01*
X0356100Y0073200D01*
X0371496Y0074735D02*
X0376100Y0074735D01*
X0376100Y0076269D02*
X0376100Y0073200D01*
X0373031Y0073200D02*
X0371496Y0074735D01*
X0372263Y0077804D02*
X0371496Y0078571D01*
X0371496Y0080106D01*
X0372263Y0080873D01*
X0375333Y0077804D01*
X0376100Y0078571D01*
X0376100Y0080106D01*
X0375333Y0080873D01*
X0372263Y0080873D01*
X0371496Y0082408D02*
X0373031Y0083942D01*
X0371496Y0085477D01*
X0376100Y0085477D01*
X0376100Y0082408D02*
X0371496Y0082408D01*
X0372263Y0077804D02*
X0375333Y0077804D01*
X0265065Y0156863D02*
X0263531Y0159165D01*
X0265065Y0156863D02*
X0266600Y0159165D01*
X0228300Y0167900D02*
X0228300Y0150100D01*
X0226333Y0152353D02*
X0225565Y0152353D01*
X0224798Y0151586D01*
D12*
X0223800Y0044000D02*
X0271800Y0044000D01*
X0271887Y0043998D01*
X0271974Y0043992D01*
X0272061Y0043983D01*
X0272147Y0043970D01*
X0272233Y0043953D01*
X0272318Y0043932D01*
X0272401Y0043907D01*
X0272484Y0043879D01*
X0272565Y0043848D01*
X0272645Y0043813D01*
X0272723Y0043774D01*
X0272800Y0043732D01*
X0272875Y0043687D01*
X0272947Y0043638D01*
X0273018Y0043587D01*
X0273086Y0043532D01*
X0273151Y0043475D01*
X0273214Y0043414D01*
X0273275Y0043351D01*
X0273332Y0043286D01*
X0273387Y0043218D01*
X0273438Y0043147D01*
X0273487Y0043075D01*
X0273532Y0043000D01*
X0273574Y0042923D01*
X0273613Y0042845D01*
X0273648Y0042765D01*
X0273679Y0042684D01*
X0273707Y0042601D01*
X0273732Y0042518D01*
X0273753Y0042433D01*
X0273770Y0042347D01*
X0273783Y0042261D01*
X0273792Y0042174D01*
X0273798Y0042087D01*
X0273800Y0042000D01*
X0273800Y0022000D01*
X0273798Y0021913D01*
X0273792Y0021826D01*
X0273783Y0021739D01*
X0273770Y0021653D01*
X0273753Y0021567D01*
X0273732Y0021482D01*
X0273707Y0021399D01*
X0273679Y0021316D01*
X0273648Y0021235D01*
X0273613Y0021155D01*
X0273574Y0021077D01*
X0273532Y0021000D01*
X0273487Y0020925D01*
X0273438Y0020853D01*
X0273387Y0020782D01*
X0273332Y0020714D01*
X0273275Y0020649D01*
X0273214Y0020586D01*
X0273151Y0020525D01*
X0273086Y0020468D01*
X0273018Y0020413D01*
X0272947Y0020362D01*
X0272875Y0020313D01*
X0272800Y0020268D01*
X0272723Y0020226D01*
X0272645Y0020187D01*
X0272565Y0020152D01*
X0272484Y0020121D01*
X0272401Y0020093D01*
X0272318Y0020068D01*
X0272233Y0020047D01*
X0272147Y0020030D01*
X0272061Y0020017D01*
X0271974Y0020008D01*
X0271887Y0020002D01*
X0271800Y0020000D01*
X0223800Y0020000D01*
X0223713Y0020002D01*
X0223626Y0020008D01*
X0223539Y0020017D01*
X0223453Y0020030D01*
X0223367Y0020047D01*
X0223282Y0020068D01*
X0223199Y0020093D01*
X0223116Y0020121D01*
X0223035Y0020152D01*
X0222955Y0020187D01*
X0222877Y0020226D01*
X0222800Y0020268D01*
X0222725Y0020313D01*
X0222653Y0020362D01*
X0222582Y0020413D01*
X0222514Y0020468D01*
X0222449Y0020525D01*
X0222386Y0020586D01*
X0222325Y0020649D01*
X0222268Y0020714D01*
X0222213Y0020782D01*
X0222162Y0020853D01*
X0222113Y0020925D01*
X0222068Y0021000D01*
X0222026Y0021077D01*
X0221987Y0021155D01*
X0221952Y0021235D01*
X0221921Y0021316D01*
X0221893Y0021399D01*
X0221868Y0021482D01*
X0221847Y0021567D01*
X0221830Y0021653D01*
X0221817Y0021739D01*
X0221808Y0021826D01*
X0221802Y0021913D01*
X0221800Y0022000D01*
X0221800Y0042000D01*
X0221802Y0042087D01*
X0221808Y0042174D01*
X0221817Y0042261D01*
X0221830Y0042347D01*
X0221847Y0042433D01*
X0221868Y0042518D01*
X0221893Y0042601D01*
X0221921Y0042684D01*
X0221952Y0042765D01*
X0221987Y0042845D01*
X0222026Y0042923D01*
X0222068Y0043000D01*
X0222113Y0043075D01*
X0222162Y0043147D01*
X0222213Y0043218D01*
X0222268Y0043286D01*
X0222325Y0043351D01*
X0222386Y0043414D01*
X0222449Y0043475D01*
X0222514Y0043532D01*
X0222582Y0043587D01*
X0222653Y0043638D01*
X0222725Y0043687D01*
X0222800Y0043732D01*
X0222877Y0043774D01*
X0222955Y0043813D01*
X0223035Y0043848D01*
X0223116Y0043879D01*
X0223199Y0043907D01*
X0223282Y0043932D01*
X0223367Y0043953D01*
X0223453Y0043970D01*
X0223539Y0043983D01*
X0223626Y0043992D01*
X0223713Y0043998D01*
X0223800Y0044000D01*
X0232800Y0032000D02*
X0256800Y0032000D01*
X0260300Y0032000D02*
X0262800Y0032000D01*
X0095296Y0216839D02*
X0056198Y0216839D01*
X0056198Y0296760D01*
X0095296Y0296760D01*
X0095296Y0216839D01*
X0086300Y0190000D02*
X0078800Y0190000D01*
X0078798Y0189874D01*
X0078792Y0189749D01*
X0078782Y0189624D01*
X0078768Y0189499D01*
X0078751Y0189374D01*
X0078729Y0189250D01*
X0078704Y0189127D01*
X0078674Y0189005D01*
X0078641Y0188884D01*
X0078604Y0188764D01*
X0078564Y0188645D01*
X0078519Y0188528D01*
X0078471Y0188411D01*
X0078419Y0188297D01*
X0078364Y0188184D01*
X0078305Y0188073D01*
X0078243Y0187964D01*
X0078177Y0187857D01*
X0078108Y0187752D01*
X0078036Y0187649D01*
X0077961Y0187548D01*
X0077882Y0187450D01*
X0077800Y0187355D01*
X0077716Y0187262D01*
X0077628Y0187172D01*
X0077538Y0187084D01*
X0077445Y0187000D01*
X0077350Y0186918D01*
X0077252Y0186839D01*
X0077151Y0186764D01*
X0077048Y0186692D01*
X0076943Y0186623D01*
X0076836Y0186557D01*
X0076727Y0186495D01*
X0076616Y0186436D01*
X0076503Y0186381D01*
X0076389Y0186329D01*
X0076272Y0186281D01*
X0076155Y0186236D01*
X0076036Y0186196D01*
X0075916Y0186159D01*
X0075795Y0186126D01*
X0075673Y0186096D01*
X0075550Y0186071D01*
X0075426Y0186049D01*
X0075301Y0186032D01*
X0075176Y0186018D01*
X0075051Y0186008D01*
X0074926Y0186002D01*
X0074800Y0186000D01*
X0074674Y0186002D01*
X0074549Y0186008D01*
X0074424Y0186018D01*
X0074299Y0186032D01*
X0074174Y0186049D01*
X0074050Y0186071D01*
X0073927Y0186096D01*
X0073805Y0186126D01*
X0073684Y0186159D01*
X0073564Y0186196D01*
X0073445Y0186236D01*
X0073328Y0186281D01*
X0073211Y0186329D01*
X0073097Y0186381D01*
X0072984Y0186436D01*
X0072873Y0186495D01*
X0072764Y0186557D01*
X0072657Y0186623D01*
X0072552Y0186692D01*
X0072449Y0186764D01*
X0072348Y0186839D01*
X0072250Y0186918D01*
X0072155Y0187000D01*
X0072062Y0187084D01*
X0071972Y0187172D01*
X0071884Y0187262D01*
X0071800Y0187355D01*
X0071718Y0187450D01*
X0071639Y0187548D01*
X0071564Y0187649D01*
X0071492Y0187752D01*
X0071423Y0187857D01*
X0071357Y0187964D01*
X0071295Y0188073D01*
X0071236Y0188184D01*
X0071181Y0188297D01*
X0071129Y0188411D01*
X0071081Y0188528D01*
X0071036Y0188645D01*
X0070996Y0188764D01*
X0070959Y0188884D01*
X0070926Y0189005D01*
X0070896Y0189127D01*
X0070871Y0189250D01*
X0070849Y0189374D01*
X0070832Y0189499D01*
X0070818Y0189624D01*
X0070808Y0189749D01*
X0070802Y0189874D01*
X0070800Y0190000D01*
X0063300Y0190000D01*
X0063300Y0150000D01*
X0086300Y0150000D01*
X0086300Y0190000D01*
X0035800Y0298500D02*
X0025800Y0298500D01*
X0025740Y0298502D01*
X0025679Y0298507D01*
X0025620Y0298516D01*
X0025561Y0298529D01*
X0025502Y0298545D01*
X0025445Y0298565D01*
X0025390Y0298588D01*
X0025335Y0298615D01*
X0025283Y0298644D01*
X0025232Y0298677D01*
X0025183Y0298713D01*
X0025137Y0298751D01*
X0025093Y0298793D01*
X0025051Y0298837D01*
X0025013Y0298883D01*
X0024977Y0298932D01*
X0024944Y0298983D01*
X0024915Y0299035D01*
X0024888Y0299090D01*
X0024865Y0299145D01*
X0024845Y0299202D01*
X0024829Y0299261D01*
X0024816Y0299320D01*
X0024807Y0299379D01*
X0024802Y0299440D01*
X0024800Y0299500D01*
X0024800Y0326500D01*
X0024802Y0326560D01*
X0024807Y0326621D01*
X0024816Y0326680D01*
X0024829Y0326739D01*
X0024845Y0326798D01*
X0024865Y0326855D01*
X0024888Y0326910D01*
X0024915Y0326965D01*
X0024944Y0327017D01*
X0024977Y0327068D01*
X0025013Y0327117D01*
X0025051Y0327163D01*
X0025093Y0327207D01*
X0025137Y0327249D01*
X0025183Y0327287D01*
X0025232Y0327323D01*
X0025283Y0327356D01*
X0025335Y0327385D01*
X0025390Y0327412D01*
X0025445Y0327435D01*
X0025502Y0327455D01*
X0025561Y0327471D01*
X0025620Y0327484D01*
X0025679Y0327493D01*
X0025740Y0327498D01*
X0025800Y0327500D01*
X0035800Y0327500D01*
X0035860Y0327498D01*
X0035921Y0327493D01*
X0035980Y0327484D01*
X0036039Y0327471D01*
X0036098Y0327455D01*
X0036155Y0327435D01*
X0036210Y0327412D01*
X0036265Y0327385D01*
X0036317Y0327356D01*
X0036368Y0327323D01*
X0036417Y0327287D01*
X0036463Y0327249D01*
X0036507Y0327207D01*
X0036549Y0327163D01*
X0036587Y0327117D01*
X0036623Y0327068D01*
X0036656Y0327017D01*
X0036685Y0326965D01*
X0036712Y0326910D01*
X0036735Y0326855D01*
X0036755Y0326798D01*
X0036771Y0326739D01*
X0036784Y0326680D01*
X0036793Y0326621D01*
X0036798Y0326560D01*
X0036800Y0326500D01*
X0036800Y0299500D01*
X0036798Y0299440D01*
X0036793Y0299379D01*
X0036784Y0299320D01*
X0036771Y0299261D01*
X0036755Y0299202D01*
X0036735Y0299145D01*
X0036712Y0299090D01*
X0036685Y0299035D01*
X0036656Y0298983D01*
X0036623Y0298932D01*
X0036587Y0298883D01*
X0036549Y0298837D01*
X0036507Y0298793D01*
X0036463Y0298751D01*
X0036417Y0298713D01*
X0036368Y0298677D01*
X0036317Y0298644D01*
X0036265Y0298615D01*
X0036210Y0298588D01*
X0036155Y0298565D01*
X0036098Y0298545D01*
X0036039Y0298529D01*
X0035980Y0298516D01*
X0035921Y0298507D01*
X0035860Y0298502D01*
X0035800Y0298500D01*
X0030800Y0307000D02*
X0030800Y0311700D01*
X0030800Y0314200D02*
X0030800Y0319000D01*
X0066800Y0320000D02*
X0066800Y0326000D01*
X0066802Y0326060D01*
X0066807Y0326121D01*
X0066816Y0326180D01*
X0066829Y0326239D01*
X0066845Y0326298D01*
X0066865Y0326355D01*
X0066888Y0326410D01*
X0066915Y0326465D01*
X0066944Y0326517D01*
X0066977Y0326568D01*
X0067013Y0326617D01*
X0067051Y0326663D01*
X0067093Y0326707D01*
X0067137Y0326749D01*
X0067183Y0326787D01*
X0067232Y0326823D01*
X0067283Y0326856D01*
X0067335Y0326885D01*
X0067390Y0326912D01*
X0067445Y0326935D01*
X0067502Y0326955D01*
X0067561Y0326971D01*
X0067620Y0326984D01*
X0067679Y0326993D01*
X0067740Y0326998D01*
X0067800Y0327000D01*
X0083800Y0327000D01*
X0083860Y0326998D01*
X0083921Y0326993D01*
X0083980Y0326984D01*
X0084039Y0326971D01*
X0084098Y0326955D01*
X0084155Y0326935D01*
X0084210Y0326912D01*
X0084265Y0326885D01*
X0084317Y0326856D01*
X0084368Y0326823D01*
X0084417Y0326787D01*
X0084463Y0326749D01*
X0084507Y0326707D01*
X0084549Y0326663D01*
X0084587Y0326617D01*
X0084623Y0326568D01*
X0084656Y0326517D01*
X0084685Y0326465D01*
X0084712Y0326410D01*
X0084735Y0326355D01*
X0084755Y0326298D01*
X0084771Y0326239D01*
X0084784Y0326180D01*
X0084793Y0326121D01*
X0084798Y0326060D01*
X0084800Y0326000D01*
X0084800Y0320000D01*
X0084798Y0319940D01*
X0084793Y0319879D01*
X0084784Y0319820D01*
X0084771Y0319761D01*
X0084755Y0319702D01*
X0084735Y0319645D01*
X0084712Y0319590D01*
X0084685Y0319535D01*
X0084656Y0319483D01*
X0084623Y0319432D01*
X0084587Y0319383D01*
X0084549Y0319337D01*
X0084507Y0319293D01*
X0084463Y0319251D01*
X0084417Y0319213D01*
X0084368Y0319177D01*
X0084317Y0319144D01*
X0084265Y0319115D01*
X0084210Y0319088D01*
X0084155Y0319065D01*
X0084098Y0319045D01*
X0084039Y0319029D01*
X0083980Y0319016D01*
X0083921Y0319007D01*
X0083860Y0319002D01*
X0083800Y0319000D01*
X0067800Y0319000D01*
X0067740Y0319002D01*
X0067679Y0319007D01*
X0067620Y0319016D01*
X0067561Y0319029D01*
X0067502Y0319045D01*
X0067445Y0319065D01*
X0067390Y0319088D01*
X0067335Y0319115D01*
X0067283Y0319144D01*
X0067232Y0319177D01*
X0067183Y0319213D01*
X0067137Y0319251D01*
X0067093Y0319293D01*
X0067051Y0319337D01*
X0067013Y0319383D01*
X0066977Y0319432D01*
X0066944Y0319483D01*
X0066915Y0319535D01*
X0066888Y0319590D01*
X0066865Y0319645D01*
X0066845Y0319702D01*
X0066829Y0319761D01*
X0066816Y0319820D01*
X0066807Y0319879D01*
X0066802Y0319940D01*
X0066800Y0320000D01*
X0073300Y0323000D02*
X0075800Y0323000D01*
X0075800Y0320500D01*
X0075800Y0323000D02*
X0075800Y0325500D01*
X0075800Y0323000D02*
X0079800Y0325500D01*
X0079800Y0320500D01*
X0075800Y0323000D01*
X0081800Y0323000D01*
X0194800Y0539500D02*
X0194800Y0547000D01*
X0194926Y0547002D01*
X0195051Y0547008D01*
X0195176Y0547018D01*
X0195301Y0547032D01*
X0195426Y0547049D01*
X0195550Y0547071D01*
X0195673Y0547096D01*
X0195795Y0547126D01*
X0195916Y0547159D01*
X0196036Y0547196D01*
X0196155Y0547236D01*
X0196272Y0547281D01*
X0196389Y0547329D01*
X0196503Y0547381D01*
X0196616Y0547436D01*
X0196727Y0547495D01*
X0196836Y0547557D01*
X0196943Y0547623D01*
X0197048Y0547692D01*
X0197151Y0547764D01*
X0197252Y0547839D01*
X0197350Y0547918D01*
X0197445Y0548000D01*
X0197538Y0548084D01*
X0197628Y0548172D01*
X0197716Y0548262D01*
X0197800Y0548355D01*
X0197882Y0548450D01*
X0197961Y0548548D01*
X0198036Y0548649D01*
X0198108Y0548752D01*
X0198177Y0548857D01*
X0198243Y0548964D01*
X0198305Y0549073D01*
X0198364Y0549184D01*
X0198419Y0549297D01*
X0198471Y0549411D01*
X0198519Y0549528D01*
X0198564Y0549645D01*
X0198604Y0549764D01*
X0198641Y0549884D01*
X0198674Y0550005D01*
X0198704Y0550127D01*
X0198729Y0550250D01*
X0198751Y0550374D01*
X0198768Y0550499D01*
X0198782Y0550624D01*
X0198792Y0550749D01*
X0198798Y0550874D01*
X0198800Y0551000D01*
X0198798Y0551126D01*
X0198792Y0551251D01*
X0198782Y0551376D01*
X0198768Y0551501D01*
X0198751Y0551626D01*
X0198729Y0551750D01*
X0198704Y0551873D01*
X0198674Y0551995D01*
X0198641Y0552116D01*
X0198604Y0552236D01*
X0198564Y0552355D01*
X0198519Y0552472D01*
X0198471Y0552589D01*
X0198419Y0552703D01*
X0198364Y0552816D01*
X0198305Y0552927D01*
X0198243Y0553036D01*
X0198177Y0553143D01*
X0198108Y0553248D01*
X0198036Y0553351D01*
X0197961Y0553452D01*
X0197882Y0553550D01*
X0197800Y0553645D01*
X0197716Y0553738D01*
X0197628Y0553828D01*
X0197538Y0553916D01*
X0197445Y0554000D01*
X0197350Y0554082D01*
X0197252Y0554161D01*
X0197151Y0554236D01*
X0197048Y0554308D01*
X0196943Y0554377D01*
X0196836Y0554443D01*
X0196727Y0554505D01*
X0196616Y0554564D01*
X0196503Y0554619D01*
X0196389Y0554671D01*
X0196272Y0554719D01*
X0196155Y0554764D01*
X0196036Y0554804D01*
X0195916Y0554841D01*
X0195795Y0554874D01*
X0195673Y0554904D01*
X0195550Y0554929D01*
X0195426Y0554951D01*
X0195301Y0554968D01*
X0195176Y0554982D01*
X0195051Y0554992D01*
X0194926Y0554998D01*
X0194800Y0555000D01*
X0194800Y0562500D01*
X0264800Y0562500D01*
X0264800Y0539500D01*
X0194800Y0539500D01*
X0221800Y0490500D02*
X0221800Y0477500D01*
X0221800Y0464500D01*
X0221800Y0451500D01*
X0257800Y0451500D01*
X0257800Y0464500D01*
X0257800Y0477500D01*
X0257800Y0490500D01*
X0221800Y0490500D01*
X0221800Y0477500D02*
X0223800Y0477500D01*
X0223800Y0464500D01*
X0221800Y0464500D01*
X0226800Y0463500D02*
X0226800Y0478500D01*
X0232800Y0478500D01*
X0232800Y0463500D01*
X0226800Y0463500D01*
X0236800Y0463500D02*
X0236800Y0478500D01*
X0242800Y0478500D01*
X0242800Y0463500D01*
X0236800Y0463500D01*
X0246800Y0463500D02*
X0246800Y0478500D01*
X0252800Y0478500D01*
X0252800Y0463500D01*
X0246800Y0463500D01*
X0255800Y0464500D02*
X0255800Y0477500D01*
X0257800Y0477500D01*
X0257800Y0464500D02*
X0255800Y0464500D01*
X0267800Y0420000D02*
X0219800Y0420000D01*
X0219713Y0419998D01*
X0219626Y0419992D01*
X0219539Y0419983D01*
X0219453Y0419970D01*
X0219367Y0419953D01*
X0219282Y0419932D01*
X0219199Y0419907D01*
X0219116Y0419879D01*
X0219035Y0419848D01*
X0218955Y0419813D01*
X0218877Y0419774D01*
X0218800Y0419732D01*
X0218725Y0419687D01*
X0218653Y0419638D01*
X0218582Y0419587D01*
X0218514Y0419532D01*
X0218449Y0419475D01*
X0218386Y0419414D01*
X0218325Y0419351D01*
X0218268Y0419286D01*
X0218213Y0419218D01*
X0218162Y0419147D01*
X0218113Y0419075D01*
X0218068Y0419000D01*
X0218026Y0418923D01*
X0217987Y0418845D01*
X0217952Y0418765D01*
X0217921Y0418684D01*
X0217893Y0418601D01*
X0217868Y0418518D01*
X0217847Y0418433D01*
X0217830Y0418347D01*
X0217817Y0418261D01*
X0217808Y0418174D01*
X0217802Y0418087D01*
X0217800Y0418000D01*
X0217800Y0398000D01*
X0217802Y0397913D01*
X0217808Y0397826D01*
X0217817Y0397739D01*
X0217830Y0397653D01*
X0217847Y0397567D01*
X0217868Y0397482D01*
X0217893Y0397399D01*
X0217921Y0397316D01*
X0217952Y0397235D01*
X0217987Y0397155D01*
X0218026Y0397077D01*
X0218068Y0397000D01*
X0218113Y0396925D01*
X0218162Y0396853D01*
X0218213Y0396782D01*
X0218268Y0396714D01*
X0218325Y0396649D01*
X0218386Y0396586D01*
X0218449Y0396525D01*
X0218514Y0396468D01*
X0218582Y0396413D01*
X0218653Y0396362D01*
X0218725Y0396313D01*
X0218800Y0396268D01*
X0218877Y0396226D01*
X0218955Y0396187D01*
X0219035Y0396152D01*
X0219116Y0396121D01*
X0219199Y0396093D01*
X0219282Y0396068D01*
X0219367Y0396047D01*
X0219453Y0396030D01*
X0219539Y0396017D01*
X0219626Y0396008D01*
X0219713Y0396002D01*
X0219800Y0396000D01*
X0267800Y0396000D01*
X0267887Y0396002D01*
X0267974Y0396008D01*
X0268061Y0396017D01*
X0268147Y0396030D01*
X0268233Y0396047D01*
X0268318Y0396068D01*
X0268401Y0396093D01*
X0268484Y0396121D01*
X0268565Y0396152D01*
X0268645Y0396187D01*
X0268723Y0396226D01*
X0268800Y0396268D01*
X0268875Y0396313D01*
X0268947Y0396362D01*
X0269018Y0396413D01*
X0269086Y0396468D01*
X0269151Y0396525D01*
X0269214Y0396586D01*
X0269275Y0396649D01*
X0269332Y0396714D01*
X0269387Y0396782D01*
X0269438Y0396853D01*
X0269487Y0396925D01*
X0269532Y0397000D01*
X0269574Y0397077D01*
X0269613Y0397155D01*
X0269648Y0397235D01*
X0269679Y0397316D01*
X0269707Y0397399D01*
X0269732Y0397482D01*
X0269753Y0397567D01*
X0269770Y0397653D01*
X0269783Y0397739D01*
X0269792Y0397826D01*
X0269798Y0397913D01*
X0269800Y0398000D01*
X0269800Y0418000D01*
X0269798Y0418087D01*
X0269792Y0418174D01*
X0269783Y0418261D01*
X0269770Y0418347D01*
X0269753Y0418433D01*
X0269732Y0418518D01*
X0269707Y0418601D01*
X0269679Y0418684D01*
X0269648Y0418765D01*
X0269613Y0418845D01*
X0269574Y0418923D01*
X0269532Y0419000D01*
X0269487Y0419075D01*
X0269438Y0419147D01*
X0269387Y0419218D01*
X0269332Y0419286D01*
X0269275Y0419351D01*
X0269214Y0419414D01*
X0269151Y0419475D01*
X0269086Y0419532D01*
X0269018Y0419587D01*
X0268947Y0419638D01*
X0268875Y0419687D01*
X0268800Y0419732D01*
X0268723Y0419774D01*
X0268645Y0419813D01*
X0268565Y0419848D01*
X0268484Y0419879D01*
X0268401Y0419907D01*
X0268318Y0419932D01*
X0268233Y0419953D01*
X0268147Y0419970D01*
X0268061Y0419983D01*
X0267974Y0419992D01*
X0267887Y0419998D01*
X0267800Y0420000D01*
X0258800Y0408000D02*
X0256300Y0408000D01*
X0252800Y0408000D02*
X0228800Y0408000D01*
X0298300Y0472000D02*
X0298300Y0490000D01*
X0298302Y0490060D01*
X0298307Y0490121D01*
X0298316Y0490180D01*
X0298329Y0490239D01*
X0298345Y0490298D01*
X0298365Y0490355D01*
X0298388Y0490410D01*
X0298415Y0490465D01*
X0298444Y0490517D01*
X0298477Y0490568D01*
X0298513Y0490617D01*
X0298551Y0490663D01*
X0298593Y0490707D01*
X0298637Y0490749D01*
X0298683Y0490787D01*
X0298732Y0490823D01*
X0298783Y0490856D01*
X0298835Y0490885D01*
X0298890Y0490912D01*
X0298945Y0490935D01*
X0299002Y0490955D01*
X0299061Y0490971D01*
X0299120Y0490984D01*
X0299179Y0490993D01*
X0299240Y0490998D01*
X0299300Y0491000D01*
X0326300Y0491000D01*
X0326360Y0490998D01*
X0326421Y0490993D01*
X0326480Y0490984D01*
X0326539Y0490971D01*
X0326598Y0490955D01*
X0326655Y0490935D01*
X0326710Y0490912D01*
X0326765Y0490885D01*
X0326817Y0490856D01*
X0326868Y0490823D01*
X0326917Y0490787D01*
X0326963Y0490749D01*
X0327007Y0490707D01*
X0327049Y0490663D01*
X0327087Y0490617D01*
X0327123Y0490568D01*
X0327156Y0490517D01*
X0327185Y0490465D01*
X0327212Y0490410D01*
X0327235Y0490355D01*
X0327255Y0490298D01*
X0327271Y0490239D01*
X0327284Y0490180D01*
X0327293Y0490121D01*
X0327298Y0490060D01*
X0327300Y0490000D01*
X0327300Y0472000D01*
X0327298Y0471940D01*
X0327293Y0471879D01*
X0327284Y0471820D01*
X0327271Y0471761D01*
X0327255Y0471702D01*
X0327235Y0471645D01*
X0327212Y0471590D01*
X0327185Y0471535D01*
X0327156Y0471483D01*
X0327123Y0471432D01*
X0327087Y0471383D01*
X0327049Y0471337D01*
X0327007Y0471293D01*
X0326963Y0471251D01*
X0326917Y0471213D01*
X0326868Y0471177D01*
X0326817Y0471144D01*
X0326765Y0471115D01*
X0326710Y0471088D01*
X0326655Y0471065D01*
X0326598Y0471045D01*
X0326539Y0471029D01*
X0326480Y0471016D01*
X0326421Y0471007D01*
X0326360Y0471002D01*
X0326300Y0471000D01*
X0299300Y0471000D01*
X0299240Y0471002D01*
X0299179Y0471007D01*
X0299120Y0471016D01*
X0299061Y0471029D01*
X0299002Y0471045D01*
X0298945Y0471065D01*
X0298890Y0471088D01*
X0298835Y0471115D01*
X0298783Y0471144D01*
X0298732Y0471177D01*
X0298683Y0471213D01*
X0298637Y0471251D01*
X0298593Y0471293D01*
X0298551Y0471337D01*
X0298513Y0471383D01*
X0298477Y0471432D01*
X0298444Y0471483D01*
X0298415Y0471535D01*
X0298388Y0471590D01*
X0298365Y0471645D01*
X0298345Y0471702D01*
X0298329Y0471761D01*
X0298316Y0471820D01*
X0298307Y0471879D01*
X0298302Y0471940D01*
X0298300Y0472000D01*
X0306800Y0481000D02*
X0311600Y0481000D01*
X0314100Y0481000D02*
X0318800Y0481000D01*
X0294800Y0530000D02*
X0294805Y0530442D01*
X0294822Y0530883D01*
X0294849Y0531324D01*
X0294887Y0531764D01*
X0294935Y0532203D01*
X0294995Y0532641D01*
X0295065Y0533077D01*
X0295146Y0533512D01*
X0295237Y0533944D01*
X0295339Y0534374D01*
X0295452Y0534801D01*
X0295575Y0535225D01*
X0295708Y0535646D01*
X0295852Y0536064D01*
X0296006Y0536478D01*
X0296170Y0536888D01*
X0296344Y0537294D01*
X0296528Y0537696D01*
X0296722Y0538093D01*
X0296925Y0538485D01*
X0297138Y0538872D01*
X0297361Y0539254D01*
X0297593Y0539630D01*
X0297834Y0540000D01*
X0298083Y0540365D01*
X0298342Y0540723D01*
X0298610Y0541074D01*
X0298886Y0541419D01*
X0299170Y0541757D01*
X0299463Y0542088D01*
X0299764Y0542412D01*
X0300072Y0542728D01*
X0300388Y0543036D01*
X0300712Y0543337D01*
X0301043Y0543630D01*
X0301381Y0543914D01*
X0301726Y0544190D01*
X0302077Y0544458D01*
X0302435Y0544717D01*
X0302800Y0544966D01*
X0303170Y0545207D01*
X0303546Y0545439D01*
X0303928Y0545662D01*
X0304315Y0545875D01*
X0304707Y0546078D01*
X0305104Y0546272D01*
X0305506Y0546456D01*
X0305912Y0546630D01*
X0306322Y0546794D01*
X0306736Y0546948D01*
X0307154Y0547092D01*
X0307575Y0547225D01*
X0307999Y0547348D01*
X0308426Y0547461D01*
X0308856Y0547563D01*
X0309288Y0547654D01*
X0309723Y0547735D01*
X0310159Y0547805D01*
X0310597Y0547865D01*
X0311036Y0547913D01*
X0311476Y0547951D01*
X0311917Y0547978D01*
X0312358Y0547995D01*
X0312800Y0548000D01*
X0313242Y0547995D01*
X0313683Y0547978D01*
X0314124Y0547951D01*
X0314564Y0547913D01*
X0315003Y0547865D01*
X0315441Y0547805D01*
X0315877Y0547735D01*
X0316312Y0547654D01*
X0316744Y0547563D01*
X0317174Y0547461D01*
X0317601Y0547348D01*
X0318025Y0547225D01*
X0318446Y0547092D01*
X0318864Y0546948D01*
X0319278Y0546794D01*
X0319688Y0546630D01*
X0320094Y0546456D01*
X0320496Y0546272D01*
X0320893Y0546078D01*
X0321285Y0545875D01*
X0321672Y0545662D01*
X0322054Y0545439D01*
X0322430Y0545207D01*
X0322800Y0544966D01*
X0323165Y0544717D01*
X0323523Y0544458D01*
X0323874Y0544190D01*
X0324219Y0543914D01*
X0324557Y0543630D01*
X0324888Y0543337D01*
X0325212Y0543036D01*
X0325528Y0542728D01*
X0325836Y0542412D01*
X0326137Y0542088D01*
X0326430Y0541757D01*
X0326714Y0541419D01*
X0326990Y0541074D01*
X0327258Y0540723D01*
X0327517Y0540365D01*
X0327766Y0540000D01*
X0328007Y0539630D01*
X0328239Y0539254D01*
X0328462Y0538872D01*
X0328675Y0538485D01*
X0328878Y0538093D01*
X0329072Y0537696D01*
X0329256Y0537294D01*
X0329430Y0536888D01*
X0329594Y0536478D01*
X0329748Y0536064D01*
X0329892Y0535646D01*
X0330025Y0535225D01*
X0330148Y0534801D01*
X0330261Y0534374D01*
X0330363Y0533944D01*
X0330454Y0533512D01*
X0330535Y0533077D01*
X0330605Y0532641D01*
X0330665Y0532203D01*
X0330713Y0531764D01*
X0330751Y0531324D01*
X0330778Y0530883D01*
X0330795Y0530442D01*
X0330800Y0530000D01*
X0330795Y0529558D01*
X0330778Y0529117D01*
X0330751Y0528676D01*
X0330713Y0528236D01*
X0330665Y0527797D01*
X0330605Y0527359D01*
X0330535Y0526923D01*
X0330454Y0526488D01*
X0330363Y0526056D01*
X0330261Y0525626D01*
X0330148Y0525199D01*
X0330025Y0524775D01*
X0329892Y0524354D01*
X0329748Y0523936D01*
X0329594Y0523522D01*
X0329430Y0523112D01*
X0329256Y0522706D01*
X0329072Y0522304D01*
X0328878Y0521907D01*
X0328675Y0521515D01*
X0328462Y0521128D01*
X0328239Y0520746D01*
X0328007Y0520370D01*
X0327766Y0520000D01*
X0327517Y0519635D01*
X0327258Y0519277D01*
X0326990Y0518926D01*
X0326714Y0518581D01*
X0326430Y0518243D01*
X0326137Y0517912D01*
X0325836Y0517588D01*
X0325528Y0517272D01*
X0325212Y0516964D01*
X0324888Y0516663D01*
X0324557Y0516370D01*
X0324219Y0516086D01*
X0323874Y0515810D01*
X0323523Y0515542D01*
X0323165Y0515283D01*
X0322800Y0515034D01*
X0322430Y0514793D01*
X0322054Y0514561D01*
X0321672Y0514338D01*
X0321285Y0514125D01*
X0320893Y0513922D01*
X0320496Y0513728D01*
X0320094Y0513544D01*
X0319688Y0513370D01*
X0319278Y0513206D01*
X0318864Y0513052D01*
X0318446Y0512908D01*
X0318025Y0512775D01*
X0317601Y0512652D01*
X0317174Y0512539D01*
X0316744Y0512437D01*
X0316312Y0512346D01*
X0315877Y0512265D01*
X0315441Y0512195D01*
X0315003Y0512135D01*
X0314564Y0512087D01*
X0314124Y0512049D01*
X0313683Y0512022D01*
X0313242Y0512005D01*
X0312800Y0512000D01*
X0312358Y0512005D01*
X0311917Y0512022D01*
X0311476Y0512049D01*
X0311036Y0512087D01*
X0310597Y0512135D01*
X0310159Y0512195D01*
X0309723Y0512265D01*
X0309288Y0512346D01*
X0308856Y0512437D01*
X0308426Y0512539D01*
X0307999Y0512652D01*
X0307575Y0512775D01*
X0307154Y0512908D01*
X0306736Y0513052D01*
X0306322Y0513206D01*
X0305912Y0513370D01*
X0305506Y0513544D01*
X0305104Y0513728D01*
X0304707Y0513922D01*
X0304315Y0514125D01*
X0303928Y0514338D01*
X0303546Y0514561D01*
X0303170Y0514793D01*
X0302800Y0515034D01*
X0302435Y0515283D01*
X0302077Y0515542D01*
X0301726Y0515810D01*
X0301381Y0516086D01*
X0301043Y0516370D01*
X0300712Y0516663D01*
X0300388Y0516964D01*
X0300072Y0517272D01*
X0299764Y0517588D01*
X0299463Y0517912D01*
X0299170Y0518243D01*
X0298886Y0518581D01*
X0298610Y0518926D01*
X0298342Y0519277D01*
X0298083Y0519635D01*
X0297834Y0520000D01*
X0297593Y0520370D01*
X0297361Y0520746D01*
X0297138Y0521128D01*
X0296925Y0521515D01*
X0296722Y0521907D01*
X0296528Y0522304D01*
X0296344Y0522706D01*
X0296170Y0523112D01*
X0296006Y0523522D01*
X0295852Y0523936D01*
X0295708Y0524354D01*
X0295575Y0524775D01*
X0295452Y0525199D01*
X0295339Y0525626D01*
X0295237Y0526056D01*
X0295146Y0526488D01*
X0295065Y0526923D01*
X0294995Y0527359D01*
X0294935Y0527797D01*
X0294887Y0528236D01*
X0294849Y0528676D01*
X0294822Y0529117D01*
X0294805Y0529558D01*
X0294800Y0530000D01*
X0298900Y0541700D02*
X0296800Y0543800D01*
X0298900Y0545900D01*
X0301000Y0543800D01*
X0309300Y0581500D02*
X0316300Y0581500D01*
X0316360Y0581502D01*
X0316421Y0581507D01*
X0316480Y0581516D01*
X0316539Y0581529D01*
X0316598Y0581545D01*
X0316655Y0581565D01*
X0316710Y0581588D01*
X0316765Y0581615D01*
X0316817Y0581644D01*
X0316868Y0581677D01*
X0316917Y0581713D01*
X0316963Y0581751D01*
X0317007Y0581793D01*
X0317049Y0581837D01*
X0317087Y0581883D01*
X0317123Y0581932D01*
X0317156Y0581983D01*
X0317185Y0582035D01*
X0317212Y0582090D01*
X0317235Y0582145D01*
X0317255Y0582202D01*
X0317271Y0582261D01*
X0317284Y0582320D01*
X0317293Y0582379D01*
X0317298Y0582440D01*
X0317300Y0582500D01*
X0317300Y0584000D01*
X0316800Y0584500D01*
X0316800Y0603500D01*
X0317300Y0604000D01*
X0317300Y0605500D01*
X0317298Y0605560D01*
X0317293Y0605621D01*
X0317284Y0605680D01*
X0317271Y0605739D01*
X0317255Y0605798D01*
X0317235Y0605855D01*
X0317212Y0605910D01*
X0317185Y0605965D01*
X0317156Y0606017D01*
X0317123Y0606068D01*
X0317087Y0606117D01*
X0317049Y0606163D01*
X0317007Y0606207D01*
X0316963Y0606249D01*
X0316917Y0606287D01*
X0316868Y0606323D01*
X0316817Y0606356D01*
X0316765Y0606385D01*
X0316710Y0606412D01*
X0316655Y0606435D01*
X0316598Y0606455D01*
X0316539Y0606471D01*
X0316480Y0606484D01*
X0316421Y0606493D01*
X0316360Y0606498D01*
X0316300Y0606500D01*
X0309300Y0606500D01*
X0309240Y0606498D01*
X0309179Y0606493D01*
X0309120Y0606484D01*
X0309061Y0606471D01*
X0309002Y0606455D01*
X0308945Y0606435D01*
X0308890Y0606412D01*
X0308835Y0606385D01*
X0308783Y0606356D01*
X0308732Y0606323D01*
X0308683Y0606287D01*
X0308637Y0606249D01*
X0308593Y0606207D01*
X0308551Y0606163D01*
X0308513Y0606117D01*
X0308477Y0606068D01*
X0308444Y0606017D01*
X0308415Y0605965D01*
X0308388Y0605910D01*
X0308365Y0605855D01*
X0308345Y0605798D01*
X0308329Y0605739D01*
X0308316Y0605680D01*
X0308307Y0605621D01*
X0308302Y0605560D01*
X0308300Y0605500D01*
X0308300Y0604000D01*
X0308800Y0603500D01*
X0308800Y0584500D01*
X0308300Y0584000D01*
X0308300Y0582500D01*
X0308302Y0582440D01*
X0308307Y0582379D01*
X0308316Y0582320D01*
X0308329Y0582261D01*
X0308345Y0582202D01*
X0308365Y0582145D01*
X0308388Y0582090D01*
X0308415Y0582035D01*
X0308444Y0581983D01*
X0308477Y0581932D01*
X0308513Y0581883D01*
X0308551Y0581837D01*
X0308593Y0581793D01*
X0308637Y0581751D01*
X0308683Y0581713D01*
X0308732Y0581677D01*
X0308783Y0581644D01*
X0308835Y0581615D01*
X0308890Y0581588D01*
X0308945Y0581565D01*
X0309002Y0581545D01*
X0309061Y0581529D01*
X0309120Y0581516D01*
X0309179Y0581507D01*
X0309240Y0581502D01*
X0309300Y0581500D01*
X0340300Y0582500D02*
X0340300Y0584000D01*
X0340800Y0584500D01*
X0340800Y0603500D01*
X0340300Y0604000D01*
X0340300Y0605500D01*
X0340302Y0605560D01*
X0340307Y0605621D01*
X0340316Y0605680D01*
X0340329Y0605739D01*
X0340345Y0605798D01*
X0340365Y0605855D01*
X0340388Y0605910D01*
X0340415Y0605965D01*
X0340444Y0606017D01*
X0340477Y0606068D01*
X0340513Y0606117D01*
X0340551Y0606163D01*
X0340593Y0606207D01*
X0340637Y0606249D01*
X0340683Y0606287D01*
X0340732Y0606323D01*
X0340783Y0606356D01*
X0340835Y0606385D01*
X0340890Y0606412D01*
X0340945Y0606435D01*
X0341002Y0606455D01*
X0341061Y0606471D01*
X0341120Y0606484D01*
X0341179Y0606493D01*
X0341240Y0606498D01*
X0341300Y0606500D01*
X0348300Y0606500D01*
X0348360Y0606498D01*
X0348421Y0606493D01*
X0348480Y0606484D01*
X0348539Y0606471D01*
X0348598Y0606455D01*
X0348655Y0606435D01*
X0348710Y0606412D01*
X0348765Y0606385D01*
X0348817Y0606356D01*
X0348868Y0606323D01*
X0348917Y0606287D01*
X0348963Y0606249D01*
X0349007Y0606207D01*
X0349049Y0606163D01*
X0349087Y0606117D01*
X0349123Y0606068D01*
X0349156Y0606017D01*
X0349185Y0605965D01*
X0349212Y0605910D01*
X0349235Y0605855D01*
X0349255Y0605798D01*
X0349271Y0605739D01*
X0349284Y0605680D01*
X0349293Y0605621D01*
X0349298Y0605560D01*
X0349300Y0605500D01*
X0349300Y0604000D01*
X0348800Y0603500D01*
X0348800Y0584500D01*
X0349300Y0584000D01*
X0349300Y0582500D01*
X0349298Y0582440D01*
X0349293Y0582379D01*
X0349284Y0582320D01*
X0349271Y0582261D01*
X0349255Y0582202D01*
X0349235Y0582145D01*
X0349212Y0582090D01*
X0349185Y0582035D01*
X0349156Y0581983D01*
X0349123Y0581932D01*
X0349087Y0581883D01*
X0349049Y0581837D01*
X0349007Y0581793D01*
X0348963Y0581751D01*
X0348917Y0581713D01*
X0348868Y0581677D01*
X0348817Y0581644D01*
X0348765Y0581615D01*
X0348710Y0581588D01*
X0348655Y0581565D01*
X0348598Y0581545D01*
X0348539Y0581529D01*
X0348480Y0581516D01*
X0348421Y0581507D01*
X0348360Y0581502D01*
X0348300Y0581500D01*
X0341300Y0581500D01*
X0341240Y0581502D01*
X0341179Y0581507D01*
X0341120Y0581516D01*
X0341061Y0581529D01*
X0341002Y0581545D01*
X0340945Y0581565D01*
X0340890Y0581588D01*
X0340835Y0581615D01*
X0340783Y0581644D01*
X0340732Y0581677D01*
X0340683Y0581713D01*
X0340637Y0581751D01*
X0340593Y0581793D01*
X0340551Y0581837D01*
X0340513Y0581883D01*
X0340477Y0581932D01*
X0340444Y0581983D01*
X0340415Y0582035D01*
X0340388Y0582090D01*
X0340365Y0582145D01*
X0340345Y0582202D01*
X0340329Y0582261D01*
X0340316Y0582320D01*
X0340307Y0582379D01*
X0340302Y0582440D01*
X0340300Y0582500D01*
X0314300Y0637000D02*
X0287300Y0637000D01*
X0287240Y0637002D01*
X0287179Y0637007D01*
X0287120Y0637016D01*
X0287061Y0637029D01*
X0287002Y0637045D01*
X0286945Y0637065D01*
X0286890Y0637088D01*
X0286835Y0637115D01*
X0286783Y0637144D01*
X0286732Y0637177D01*
X0286683Y0637213D01*
X0286637Y0637251D01*
X0286593Y0637293D01*
X0286551Y0637337D01*
X0286513Y0637383D01*
X0286477Y0637432D01*
X0286444Y0637483D01*
X0286415Y0637535D01*
X0286388Y0637590D01*
X0286365Y0637645D01*
X0286345Y0637702D01*
X0286329Y0637761D01*
X0286316Y0637820D01*
X0286307Y0637879D01*
X0286302Y0637940D01*
X0286300Y0638000D01*
X0286300Y0656000D01*
X0286302Y0656060D01*
X0286307Y0656121D01*
X0286316Y0656180D01*
X0286329Y0656239D01*
X0286345Y0656298D01*
X0286365Y0656355D01*
X0286388Y0656410D01*
X0286415Y0656465D01*
X0286444Y0656517D01*
X0286477Y0656568D01*
X0286513Y0656617D01*
X0286551Y0656663D01*
X0286593Y0656707D01*
X0286637Y0656749D01*
X0286683Y0656787D01*
X0286732Y0656823D01*
X0286783Y0656856D01*
X0286835Y0656885D01*
X0286890Y0656912D01*
X0286945Y0656935D01*
X0287002Y0656955D01*
X0287061Y0656971D01*
X0287120Y0656984D01*
X0287179Y0656993D01*
X0287240Y0656998D01*
X0287300Y0657000D01*
X0314300Y0657000D01*
X0314360Y0656998D01*
X0314421Y0656993D01*
X0314480Y0656984D01*
X0314539Y0656971D01*
X0314598Y0656955D01*
X0314655Y0656935D01*
X0314710Y0656912D01*
X0314765Y0656885D01*
X0314817Y0656856D01*
X0314868Y0656823D01*
X0314917Y0656787D01*
X0314963Y0656749D01*
X0315007Y0656707D01*
X0315049Y0656663D01*
X0315087Y0656617D01*
X0315123Y0656568D01*
X0315156Y0656517D01*
X0315185Y0656465D01*
X0315212Y0656410D01*
X0315235Y0656355D01*
X0315255Y0656298D01*
X0315271Y0656239D01*
X0315284Y0656180D01*
X0315293Y0656121D01*
X0315298Y0656060D01*
X0315300Y0656000D01*
X0315300Y0638000D01*
X0315298Y0637940D01*
X0315293Y0637879D01*
X0315284Y0637820D01*
X0315271Y0637761D01*
X0315255Y0637702D01*
X0315235Y0637645D01*
X0315212Y0637590D01*
X0315185Y0637535D01*
X0315156Y0637483D01*
X0315123Y0637432D01*
X0315087Y0637383D01*
X0315049Y0637337D01*
X0315007Y0637293D01*
X0314963Y0637251D01*
X0314917Y0637213D01*
X0314868Y0637177D01*
X0314817Y0637144D01*
X0314765Y0637115D01*
X0314710Y0637088D01*
X0314655Y0637065D01*
X0314598Y0637045D01*
X0314539Y0637029D01*
X0314480Y0637016D01*
X0314421Y0637007D01*
X0314360Y0637002D01*
X0314300Y0637000D01*
X0306800Y0647000D02*
X0302100Y0647000D01*
X0299600Y0647000D02*
X0294800Y0647000D01*
X0284300Y0689000D02*
X0307300Y0689000D01*
X0307300Y0729000D01*
X0299800Y0729000D01*
X0299798Y0728874D01*
X0299792Y0728749D01*
X0299782Y0728624D01*
X0299768Y0728499D01*
X0299751Y0728374D01*
X0299729Y0728250D01*
X0299704Y0728127D01*
X0299674Y0728005D01*
X0299641Y0727884D01*
X0299604Y0727764D01*
X0299564Y0727645D01*
X0299519Y0727528D01*
X0299471Y0727411D01*
X0299419Y0727297D01*
X0299364Y0727184D01*
X0299305Y0727073D01*
X0299243Y0726964D01*
X0299177Y0726857D01*
X0299108Y0726752D01*
X0299036Y0726649D01*
X0298961Y0726548D01*
X0298882Y0726450D01*
X0298800Y0726355D01*
X0298716Y0726262D01*
X0298628Y0726172D01*
X0298538Y0726084D01*
X0298445Y0726000D01*
X0298350Y0725918D01*
X0298252Y0725839D01*
X0298151Y0725764D01*
X0298048Y0725692D01*
X0297943Y0725623D01*
X0297836Y0725557D01*
X0297727Y0725495D01*
X0297616Y0725436D01*
X0297503Y0725381D01*
X0297389Y0725329D01*
X0297272Y0725281D01*
X0297155Y0725236D01*
X0297036Y0725196D01*
X0296916Y0725159D01*
X0296795Y0725126D01*
X0296673Y0725096D01*
X0296550Y0725071D01*
X0296426Y0725049D01*
X0296301Y0725032D01*
X0296176Y0725018D01*
X0296051Y0725008D01*
X0295926Y0725002D01*
X0295800Y0725000D01*
X0295674Y0725002D01*
X0295549Y0725008D01*
X0295424Y0725018D01*
X0295299Y0725032D01*
X0295174Y0725049D01*
X0295050Y0725071D01*
X0294927Y0725096D01*
X0294805Y0725126D01*
X0294684Y0725159D01*
X0294564Y0725196D01*
X0294445Y0725236D01*
X0294328Y0725281D01*
X0294211Y0725329D01*
X0294097Y0725381D01*
X0293984Y0725436D01*
X0293873Y0725495D01*
X0293764Y0725557D01*
X0293657Y0725623D01*
X0293552Y0725692D01*
X0293449Y0725764D01*
X0293348Y0725839D01*
X0293250Y0725918D01*
X0293155Y0726000D01*
X0293062Y0726084D01*
X0292972Y0726172D01*
X0292884Y0726262D01*
X0292800Y0726355D01*
X0292718Y0726450D01*
X0292639Y0726548D01*
X0292564Y0726649D01*
X0292492Y0726752D01*
X0292423Y0726857D01*
X0292357Y0726964D01*
X0292295Y0727073D01*
X0292236Y0727184D01*
X0292181Y0727297D01*
X0292129Y0727411D01*
X0292081Y0727528D01*
X0292036Y0727645D01*
X0291996Y0727764D01*
X0291959Y0727884D01*
X0291926Y0728005D01*
X0291896Y0728127D01*
X0291871Y0728250D01*
X0291849Y0728374D01*
X0291832Y0728499D01*
X0291818Y0728624D01*
X0291808Y0728749D01*
X0291802Y0728874D01*
X0291800Y0729000D01*
X0284300Y0729000D01*
X0284300Y0689000D01*
X0271300Y0620500D02*
X0269800Y0620500D01*
X0269300Y0620000D01*
X0250300Y0620000D01*
X0249800Y0620500D01*
X0248300Y0620500D01*
X0248240Y0620498D01*
X0248179Y0620493D01*
X0248120Y0620484D01*
X0248061Y0620471D01*
X0248002Y0620455D01*
X0247945Y0620435D01*
X0247890Y0620412D01*
X0247835Y0620385D01*
X0247783Y0620356D01*
X0247732Y0620323D01*
X0247683Y0620287D01*
X0247637Y0620249D01*
X0247593Y0620207D01*
X0247551Y0620163D01*
X0247513Y0620117D01*
X0247477Y0620068D01*
X0247444Y0620017D01*
X0247415Y0619965D01*
X0247388Y0619910D01*
X0247365Y0619855D01*
X0247345Y0619798D01*
X0247329Y0619739D01*
X0247316Y0619680D01*
X0247307Y0619621D01*
X0247302Y0619560D01*
X0247300Y0619500D01*
X0247300Y0612500D01*
X0247302Y0612440D01*
X0247307Y0612379D01*
X0247316Y0612320D01*
X0247329Y0612261D01*
X0247345Y0612202D01*
X0247365Y0612145D01*
X0247388Y0612090D01*
X0247415Y0612035D01*
X0247444Y0611983D01*
X0247477Y0611932D01*
X0247513Y0611883D01*
X0247551Y0611837D01*
X0247593Y0611793D01*
X0247637Y0611751D01*
X0247683Y0611713D01*
X0247732Y0611677D01*
X0247783Y0611644D01*
X0247835Y0611615D01*
X0247890Y0611588D01*
X0247945Y0611565D01*
X0248002Y0611545D01*
X0248061Y0611529D01*
X0248120Y0611516D01*
X0248179Y0611507D01*
X0248240Y0611502D01*
X0248300Y0611500D01*
X0249800Y0611500D01*
X0250300Y0612000D01*
X0269300Y0612000D01*
X0269800Y0611500D01*
X0271300Y0611500D01*
X0271360Y0611502D01*
X0271421Y0611507D01*
X0271480Y0611516D01*
X0271539Y0611529D01*
X0271598Y0611545D01*
X0271655Y0611565D01*
X0271710Y0611588D01*
X0271765Y0611615D01*
X0271817Y0611644D01*
X0271868Y0611677D01*
X0271917Y0611713D01*
X0271963Y0611751D01*
X0272007Y0611793D01*
X0272049Y0611837D01*
X0272087Y0611883D01*
X0272123Y0611932D01*
X0272156Y0611983D01*
X0272185Y0612035D01*
X0272212Y0612090D01*
X0272235Y0612145D01*
X0272255Y0612202D01*
X0272271Y0612261D01*
X0272284Y0612320D01*
X0272293Y0612379D01*
X0272298Y0612440D01*
X0272300Y0612500D01*
X0272300Y0619500D01*
X0272298Y0619560D01*
X0272293Y0619621D01*
X0272284Y0619680D01*
X0272271Y0619739D01*
X0272255Y0619798D01*
X0272235Y0619855D01*
X0272212Y0619910D01*
X0272185Y0619965D01*
X0272156Y0620017D01*
X0272123Y0620068D01*
X0272087Y0620117D01*
X0272049Y0620163D01*
X0272007Y0620207D01*
X0271963Y0620249D01*
X0271917Y0620287D01*
X0271868Y0620323D01*
X0271817Y0620356D01*
X0271765Y0620385D01*
X0271710Y0620412D01*
X0271655Y0620435D01*
X0271598Y0620455D01*
X0271539Y0620471D01*
X0271480Y0620484D01*
X0271421Y0620493D01*
X0271360Y0620498D01*
X0271300Y0620500D01*
X0261300Y0595500D02*
X0259800Y0595500D01*
X0259300Y0595000D01*
X0240300Y0595000D01*
X0239800Y0595500D01*
X0238300Y0595500D01*
X0238240Y0595498D01*
X0238179Y0595493D01*
X0238120Y0595484D01*
X0238061Y0595471D01*
X0238002Y0595455D01*
X0237945Y0595435D01*
X0237890Y0595412D01*
X0237835Y0595385D01*
X0237783Y0595356D01*
X0237732Y0595323D01*
X0237683Y0595287D01*
X0237637Y0595249D01*
X0237593Y0595207D01*
X0237551Y0595163D01*
X0237513Y0595117D01*
X0237477Y0595068D01*
X0237444Y0595017D01*
X0237415Y0594965D01*
X0237388Y0594910D01*
X0237365Y0594855D01*
X0237345Y0594798D01*
X0237329Y0594739D01*
X0237316Y0594680D01*
X0237307Y0594621D01*
X0237302Y0594560D01*
X0237300Y0594500D01*
X0237300Y0587500D01*
X0237302Y0587440D01*
X0237307Y0587379D01*
X0237316Y0587320D01*
X0237329Y0587261D01*
X0237345Y0587202D01*
X0237365Y0587145D01*
X0237388Y0587090D01*
X0237415Y0587035D01*
X0237444Y0586983D01*
X0237477Y0586932D01*
X0237513Y0586883D01*
X0237551Y0586837D01*
X0237593Y0586793D01*
X0237637Y0586751D01*
X0237683Y0586713D01*
X0237732Y0586677D01*
X0237783Y0586644D01*
X0237835Y0586615D01*
X0237890Y0586588D01*
X0237945Y0586565D01*
X0238002Y0586545D01*
X0238061Y0586529D01*
X0238120Y0586516D01*
X0238179Y0586507D01*
X0238240Y0586502D01*
X0238300Y0586500D01*
X0239800Y0586500D01*
X0240300Y0587000D01*
X0259300Y0587000D01*
X0259800Y0586500D01*
X0261300Y0586500D01*
X0261360Y0586502D01*
X0261421Y0586507D01*
X0261480Y0586516D01*
X0261539Y0586529D01*
X0261598Y0586545D01*
X0261655Y0586565D01*
X0261710Y0586588D01*
X0261765Y0586615D01*
X0261817Y0586644D01*
X0261868Y0586677D01*
X0261917Y0586713D01*
X0261963Y0586751D01*
X0262007Y0586793D01*
X0262049Y0586837D01*
X0262087Y0586883D01*
X0262123Y0586932D01*
X0262156Y0586983D01*
X0262185Y0587035D01*
X0262212Y0587090D01*
X0262235Y0587145D01*
X0262255Y0587202D01*
X0262271Y0587261D01*
X0262284Y0587320D01*
X0262293Y0587379D01*
X0262298Y0587440D01*
X0262300Y0587500D01*
X0262300Y0594500D01*
X0262298Y0594560D01*
X0262293Y0594621D01*
X0262284Y0594680D01*
X0262271Y0594739D01*
X0262255Y0594798D01*
X0262235Y0594855D01*
X0262212Y0594910D01*
X0262185Y0594965D01*
X0262156Y0595017D01*
X0262123Y0595068D01*
X0262087Y0595117D01*
X0262049Y0595163D01*
X0262007Y0595207D01*
X0261963Y0595249D01*
X0261917Y0595287D01*
X0261868Y0595323D01*
X0261817Y0595356D01*
X0261765Y0595385D01*
X0261710Y0595412D01*
X0261655Y0595435D01*
X0261598Y0595455D01*
X0261539Y0595471D01*
X0261480Y0595484D01*
X0261421Y0595493D01*
X0261360Y0595498D01*
X0261300Y0595500D01*
X0243300Y0655500D02*
X0236300Y0655500D01*
X0236240Y0655502D01*
X0236179Y0655507D01*
X0236120Y0655516D01*
X0236061Y0655529D01*
X0236002Y0655545D01*
X0235945Y0655565D01*
X0235890Y0655588D01*
X0235835Y0655615D01*
X0235783Y0655644D01*
X0235732Y0655677D01*
X0235683Y0655713D01*
X0235637Y0655751D01*
X0235593Y0655793D01*
X0235551Y0655837D01*
X0235513Y0655883D01*
X0235477Y0655932D01*
X0235444Y0655983D01*
X0235415Y0656035D01*
X0235388Y0656090D01*
X0235365Y0656145D01*
X0235345Y0656202D01*
X0235329Y0656261D01*
X0235316Y0656320D01*
X0235307Y0656379D01*
X0235302Y0656440D01*
X0235300Y0656500D01*
X0235300Y0658000D01*
X0235800Y0658500D01*
X0235800Y0677500D01*
X0235300Y0678000D01*
X0235300Y0679500D01*
X0235302Y0679560D01*
X0235307Y0679621D01*
X0235316Y0679680D01*
X0235329Y0679739D01*
X0235345Y0679798D01*
X0235365Y0679855D01*
X0235388Y0679910D01*
X0235415Y0679965D01*
X0235444Y0680017D01*
X0235477Y0680068D01*
X0235513Y0680117D01*
X0235551Y0680163D01*
X0235593Y0680207D01*
X0235637Y0680249D01*
X0235683Y0680287D01*
X0235732Y0680323D01*
X0235783Y0680356D01*
X0235835Y0680385D01*
X0235890Y0680412D01*
X0235945Y0680435D01*
X0236002Y0680455D01*
X0236061Y0680471D01*
X0236120Y0680484D01*
X0236179Y0680493D01*
X0236240Y0680498D01*
X0236300Y0680500D01*
X0243300Y0680500D01*
X0243360Y0680498D01*
X0243421Y0680493D01*
X0243480Y0680484D01*
X0243539Y0680471D01*
X0243598Y0680455D01*
X0243655Y0680435D01*
X0243710Y0680412D01*
X0243765Y0680385D01*
X0243817Y0680356D01*
X0243868Y0680323D01*
X0243917Y0680287D01*
X0243963Y0680249D01*
X0244007Y0680207D01*
X0244049Y0680163D01*
X0244087Y0680117D01*
X0244123Y0680068D01*
X0244156Y0680017D01*
X0244185Y0679965D01*
X0244212Y0679910D01*
X0244235Y0679855D01*
X0244255Y0679798D01*
X0244271Y0679739D01*
X0244284Y0679680D01*
X0244293Y0679621D01*
X0244298Y0679560D01*
X0244300Y0679500D01*
X0244300Y0678000D01*
X0243800Y0677500D01*
X0243800Y0658500D01*
X0244300Y0658000D01*
X0244300Y0656500D01*
X0244298Y0656440D01*
X0244293Y0656379D01*
X0244284Y0656320D01*
X0244271Y0656261D01*
X0244255Y0656202D01*
X0244235Y0656145D01*
X0244212Y0656090D01*
X0244185Y0656035D01*
X0244156Y0655983D01*
X0244123Y0655932D01*
X0244087Y0655883D01*
X0244049Y0655837D01*
X0244007Y0655793D01*
X0243963Y0655751D01*
X0243917Y0655713D01*
X0243868Y0655677D01*
X0243817Y0655644D01*
X0243765Y0655615D01*
X0243710Y0655588D01*
X0243655Y0655565D01*
X0243598Y0655545D01*
X0243539Y0655529D01*
X0243480Y0655516D01*
X0243421Y0655507D01*
X0243360Y0655502D01*
X0243300Y0655500D01*
X0243300Y0706500D02*
X0236300Y0706500D01*
X0236240Y0706502D01*
X0236179Y0706507D01*
X0236120Y0706516D01*
X0236061Y0706529D01*
X0236002Y0706545D01*
X0235945Y0706565D01*
X0235890Y0706588D01*
X0235835Y0706615D01*
X0235783Y0706644D01*
X0235732Y0706677D01*
X0235683Y0706713D01*
X0235637Y0706751D01*
X0235593Y0706793D01*
X0235551Y0706837D01*
X0235513Y0706883D01*
X0235477Y0706932D01*
X0235444Y0706983D01*
X0235415Y0707035D01*
X0235388Y0707090D01*
X0235365Y0707145D01*
X0235345Y0707202D01*
X0235329Y0707261D01*
X0235316Y0707320D01*
X0235307Y0707379D01*
X0235302Y0707440D01*
X0235300Y0707500D01*
X0235300Y0709000D01*
X0235800Y0709500D01*
X0235800Y0728500D01*
X0235300Y0729000D01*
X0235300Y0730500D01*
X0235302Y0730560D01*
X0235307Y0730621D01*
X0235316Y0730680D01*
X0235329Y0730739D01*
X0235345Y0730798D01*
X0235365Y0730855D01*
X0235388Y0730910D01*
X0235415Y0730965D01*
X0235444Y0731017D01*
X0235477Y0731068D01*
X0235513Y0731117D01*
X0235551Y0731163D01*
X0235593Y0731207D01*
X0235637Y0731249D01*
X0235683Y0731287D01*
X0235732Y0731323D01*
X0235783Y0731356D01*
X0235835Y0731385D01*
X0235890Y0731412D01*
X0235945Y0731435D01*
X0236002Y0731455D01*
X0236061Y0731471D01*
X0236120Y0731484D01*
X0236179Y0731493D01*
X0236240Y0731498D01*
X0236300Y0731500D01*
X0243300Y0731500D01*
X0243360Y0731498D01*
X0243421Y0731493D01*
X0243480Y0731484D01*
X0243539Y0731471D01*
X0243598Y0731455D01*
X0243655Y0731435D01*
X0243710Y0731412D01*
X0243765Y0731385D01*
X0243817Y0731356D01*
X0243868Y0731323D01*
X0243917Y0731287D01*
X0243963Y0731249D01*
X0244007Y0731207D01*
X0244049Y0731163D01*
X0244087Y0731117D01*
X0244123Y0731068D01*
X0244156Y0731017D01*
X0244185Y0730965D01*
X0244212Y0730910D01*
X0244235Y0730855D01*
X0244255Y0730798D01*
X0244271Y0730739D01*
X0244284Y0730680D01*
X0244293Y0730621D01*
X0244298Y0730560D01*
X0244300Y0730500D01*
X0244300Y0729000D01*
X0243800Y0728500D01*
X0243800Y0709500D01*
X0244300Y0709000D01*
X0244300Y0707500D01*
X0244298Y0707440D01*
X0244293Y0707379D01*
X0244284Y0707320D01*
X0244271Y0707261D01*
X0244255Y0707202D01*
X0244235Y0707145D01*
X0244212Y0707090D01*
X0244185Y0707035D01*
X0244156Y0706983D01*
X0244123Y0706932D01*
X0244087Y0706883D01*
X0244049Y0706837D01*
X0244007Y0706793D01*
X0243963Y0706751D01*
X0243917Y0706713D01*
X0243868Y0706677D01*
X0243817Y0706644D01*
X0243765Y0706615D01*
X0243710Y0706588D01*
X0243655Y0706565D01*
X0243598Y0706545D01*
X0243539Y0706529D01*
X0243480Y0706516D01*
X0243421Y0706507D01*
X0243360Y0706502D01*
X0243300Y0706500D01*
X0213300Y0685000D02*
X0213300Y0667000D01*
X0213298Y0666940D01*
X0213293Y0666879D01*
X0213284Y0666820D01*
X0213271Y0666761D01*
X0213255Y0666702D01*
X0213235Y0666645D01*
X0213212Y0666590D01*
X0213185Y0666535D01*
X0213156Y0666483D01*
X0213123Y0666432D01*
X0213087Y0666383D01*
X0213049Y0666337D01*
X0213007Y0666293D01*
X0212963Y0666251D01*
X0212917Y0666213D01*
X0212868Y0666177D01*
X0212817Y0666144D01*
X0212765Y0666115D01*
X0212710Y0666088D01*
X0212655Y0666065D01*
X0212598Y0666045D01*
X0212539Y0666029D01*
X0212480Y0666016D01*
X0212421Y0666007D01*
X0212360Y0666002D01*
X0212300Y0666000D01*
X0185300Y0666000D01*
X0185240Y0666002D01*
X0185179Y0666007D01*
X0185120Y0666016D01*
X0185061Y0666029D01*
X0185002Y0666045D01*
X0184945Y0666065D01*
X0184890Y0666088D01*
X0184835Y0666115D01*
X0184783Y0666144D01*
X0184732Y0666177D01*
X0184683Y0666213D01*
X0184637Y0666251D01*
X0184593Y0666293D01*
X0184551Y0666337D01*
X0184513Y0666383D01*
X0184477Y0666432D01*
X0184444Y0666483D01*
X0184415Y0666535D01*
X0184388Y0666590D01*
X0184365Y0666645D01*
X0184345Y0666702D01*
X0184329Y0666761D01*
X0184316Y0666820D01*
X0184307Y0666879D01*
X0184302Y0666940D01*
X0184300Y0667000D01*
X0184300Y0685000D01*
X0184302Y0685060D01*
X0184307Y0685121D01*
X0184316Y0685180D01*
X0184329Y0685239D01*
X0184345Y0685298D01*
X0184365Y0685355D01*
X0184388Y0685410D01*
X0184415Y0685465D01*
X0184444Y0685517D01*
X0184477Y0685568D01*
X0184513Y0685617D01*
X0184551Y0685663D01*
X0184593Y0685707D01*
X0184637Y0685749D01*
X0184683Y0685787D01*
X0184732Y0685823D01*
X0184783Y0685856D01*
X0184835Y0685885D01*
X0184890Y0685912D01*
X0184945Y0685935D01*
X0185002Y0685955D01*
X0185061Y0685971D01*
X0185120Y0685984D01*
X0185179Y0685993D01*
X0185240Y0685998D01*
X0185300Y0686000D01*
X0212300Y0686000D01*
X0212360Y0685998D01*
X0212421Y0685993D01*
X0212480Y0685984D01*
X0212539Y0685971D01*
X0212598Y0685955D01*
X0212655Y0685935D01*
X0212710Y0685912D01*
X0212765Y0685885D01*
X0212817Y0685856D01*
X0212868Y0685823D01*
X0212917Y0685787D01*
X0212963Y0685749D01*
X0213007Y0685707D01*
X0213049Y0685663D01*
X0213087Y0685617D01*
X0213123Y0685568D01*
X0213156Y0685517D01*
X0213185Y0685465D01*
X0213212Y0685410D01*
X0213235Y0685355D01*
X0213255Y0685298D01*
X0213271Y0685239D01*
X0213284Y0685180D01*
X0213293Y0685121D01*
X0213298Y0685060D01*
X0213300Y0685000D01*
X0204800Y0676000D02*
X0200000Y0676000D01*
X0197500Y0676000D02*
X0192800Y0676000D01*
X0191300Y0766500D02*
X0172300Y0766500D01*
X0169800Y0769000D01*
X0169800Y0808500D01*
X0169800Y0809000D01*
X0169800Y0821000D01*
X0169800Y0823000D01*
X0179800Y0823000D01*
X0189800Y0823000D01*
X0271800Y0823000D01*
X0271800Y0821000D01*
X0271300Y0821000D01*
X0271300Y0811500D01*
X0271298Y0811402D01*
X0271292Y0811304D01*
X0271283Y0811206D01*
X0271269Y0811109D01*
X0271252Y0811012D01*
X0271231Y0810916D01*
X0271206Y0810821D01*
X0271178Y0810727D01*
X0271145Y0810635D01*
X0271110Y0810543D01*
X0271070Y0810453D01*
X0271028Y0810365D01*
X0270981Y0810278D01*
X0270932Y0810194D01*
X0270879Y0810111D01*
X0270823Y0810031D01*
X0270763Y0809952D01*
X0270701Y0809876D01*
X0270636Y0809803D01*
X0270568Y0809732D01*
X0270497Y0809664D01*
X0270424Y0809599D01*
X0270348Y0809537D01*
X0270269Y0809477D01*
X0270189Y0809421D01*
X0270106Y0809368D01*
X0270022Y0809319D01*
X0269935Y0809272D01*
X0269847Y0809230D01*
X0269757Y0809190D01*
X0269665Y0809155D01*
X0269573Y0809122D01*
X0269479Y0809094D01*
X0269384Y0809069D01*
X0269288Y0809048D01*
X0269191Y0809031D01*
X0269094Y0809017D01*
X0268996Y0809008D01*
X0268898Y0809002D01*
X0268800Y0809000D01*
X0268300Y0809000D02*
X0271800Y0809000D01*
X0291800Y0809000D01*
X0291800Y0808500D01*
X0291800Y0768500D01*
X0289800Y0766500D01*
X0270300Y0766500D01*
X0268300Y0768500D01*
X0268300Y0809000D01*
X0267300Y0809000D01*
X0267300Y0806000D01*
X0194300Y0806000D01*
X0194300Y0809000D01*
X0267300Y0809000D01*
X0271800Y0823000D02*
X0281800Y0823000D01*
X0291800Y0823000D01*
X0291800Y0821000D01*
X0291800Y0809000D01*
X0291800Y0823000D02*
X0291800Y0825000D01*
X0261300Y0825000D01*
X0200300Y0825000D01*
X0169800Y0825000D01*
X0169800Y0823000D01*
X0169800Y0809000D02*
X0189800Y0809000D01*
X0193300Y0809000D01*
X0193300Y0768500D01*
X0191300Y0766500D01*
X0175000Y0779000D02*
X0175002Y0779161D01*
X0175008Y0779321D01*
X0175018Y0779482D01*
X0175032Y0779642D01*
X0175050Y0779802D01*
X0175071Y0779961D01*
X0175097Y0780120D01*
X0175127Y0780278D01*
X0175160Y0780435D01*
X0175198Y0780592D01*
X0175239Y0780747D01*
X0175284Y0780901D01*
X0175333Y0781054D01*
X0175386Y0781206D01*
X0175442Y0781357D01*
X0175503Y0781506D01*
X0175566Y0781654D01*
X0175634Y0781800D01*
X0175705Y0781944D01*
X0175779Y0782086D01*
X0175857Y0782227D01*
X0175939Y0782365D01*
X0176024Y0782502D01*
X0176112Y0782636D01*
X0176204Y0782768D01*
X0176299Y0782898D01*
X0176397Y0783026D01*
X0176498Y0783151D01*
X0176602Y0783273D01*
X0176709Y0783393D01*
X0176819Y0783510D01*
X0176932Y0783625D01*
X0177048Y0783736D01*
X0177167Y0783845D01*
X0177288Y0783950D01*
X0177412Y0784053D01*
X0177538Y0784153D01*
X0177666Y0784249D01*
X0177797Y0784342D01*
X0177931Y0784432D01*
X0178066Y0784519D01*
X0178204Y0784602D01*
X0178343Y0784682D01*
X0178485Y0784758D01*
X0178628Y0784831D01*
X0178773Y0784900D01*
X0178920Y0784966D01*
X0179068Y0785028D01*
X0179218Y0785086D01*
X0179369Y0785141D01*
X0179522Y0785192D01*
X0179676Y0785239D01*
X0179831Y0785282D01*
X0179987Y0785321D01*
X0180143Y0785357D01*
X0180301Y0785388D01*
X0180459Y0785416D01*
X0180618Y0785440D01*
X0180778Y0785460D01*
X0180938Y0785476D01*
X0181098Y0785488D01*
X0181259Y0785496D01*
X0181420Y0785500D01*
X0181580Y0785500D01*
X0181741Y0785496D01*
X0181902Y0785488D01*
X0182062Y0785476D01*
X0182222Y0785460D01*
X0182382Y0785440D01*
X0182541Y0785416D01*
X0182699Y0785388D01*
X0182857Y0785357D01*
X0183013Y0785321D01*
X0183169Y0785282D01*
X0183324Y0785239D01*
X0183478Y0785192D01*
X0183631Y0785141D01*
X0183782Y0785086D01*
X0183932Y0785028D01*
X0184080Y0784966D01*
X0184227Y0784900D01*
X0184372Y0784831D01*
X0184515Y0784758D01*
X0184657Y0784682D01*
X0184796Y0784602D01*
X0184934Y0784519D01*
X0185069Y0784432D01*
X0185203Y0784342D01*
X0185334Y0784249D01*
X0185462Y0784153D01*
X0185588Y0784053D01*
X0185712Y0783950D01*
X0185833Y0783845D01*
X0185952Y0783736D01*
X0186068Y0783625D01*
X0186181Y0783510D01*
X0186291Y0783393D01*
X0186398Y0783273D01*
X0186502Y0783151D01*
X0186603Y0783026D01*
X0186701Y0782898D01*
X0186796Y0782768D01*
X0186888Y0782636D01*
X0186976Y0782502D01*
X0187061Y0782365D01*
X0187143Y0782227D01*
X0187221Y0782086D01*
X0187295Y0781944D01*
X0187366Y0781800D01*
X0187434Y0781654D01*
X0187497Y0781506D01*
X0187558Y0781357D01*
X0187614Y0781206D01*
X0187667Y0781054D01*
X0187716Y0780901D01*
X0187761Y0780747D01*
X0187802Y0780592D01*
X0187840Y0780435D01*
X0187873Y0780278D01*
X0187903Y0780120D01*
X0187929Y0779961D01*
X0187950Y0779802D01*
X0187968Y0779642D01*
X0187982Y0779482D01*
X0187992Y0779321D01*
X0187998Y0779161D01*
X0188000Y0779000D01*
X0187998Y0778839D01*
X0187992Y0778679D01*
X0187982Y0778518D01*
X0187968Y0778358D01*
X0187950Y0778198D01*
X0187929Y0778039D01*
X0187903Y0777880D01*
X0187873Y0777722D01*
X0187840Y0777565D01*
X0187802Y0777408D01*
X0187761Y0777253D01*
X0187716Y0777099D01*
X0187667Y0776946D01*
X0187614Y0776794D01*
X0187558Y0776643D01*
X0187497Y0776494D01*
X0187434Y0776346D01*
X0187366Y0776200D01*
X0187295Y0776056D01*
X0187221Y0775914D01*
X0187143Y0775773D01*
X0187061Y0775635D01*
X0186976Y0775498D01*
X0186888Y0775364D01*
X0186796Y0775232D01*
X0186701Y0775102D01*
X0186603Y0774974D01*
X0186502Y0774849D01*
X0186398Y0774727D01*
X0186291Y0774607D01*
X0186181Y0774490D01*
X0186068Y0774375D01*
X0185952Y0774264D01*
X0185833Y0774155D01*
X0185712Y0774050D01*
X0185588Y0773947D01*
X0185462Y0773847D01*
X0185334Y0773751D01*
X0185203Y0773658D01*
X0185069Y0773568D01*
X0184934Y0773481D01*
X0184796Y0773398D01*
X0184657Y0773318D01*
X0184515Y0773242D01*
X0184372Y0773169D01*
X0184227Y0773100D01*
X0184080Y0773034D01*
X0183932Y0772972D01*
X0183782Y0772914D01*
X0183631Y0772859D01*
X0183478Y0772808D01*
X0183324Y0772761D01*
X0183169Y0772718D01*
X0183013Y0772679D01*
X0182857Y0772643D01*
X0182699Y0772612D01*
X0182541Y0772584D01*
X0182382Y0772560D01*
X0182222Y0772540D01*
X0182062Y0772524D01*
X0181902Y0772512D01*
X0181741Y0772504D01*
X0181580Y0772500D01*
X0181420Y0772500D01*
X0181259Y0772504D01*
X0181098Y0772512D01*
X0180938Y0772524D01*
X0180778Y0772540D01*
X0180618Y0772560D01*
X0180459Y0772584D01*
X0180301Y0772612D01*
X0180143Y0772643D01*
X0179987Y0772679D01*
X0179831Y0772718D01*
X0179676Y0772761D01*
X0179522Y0772808D01*
X0179369Y0772859D01*
X0179218Y0772914D01*
X0179068Y0772972D01*
X0178920Y0773034D01*
X0178773Y0773100D01*
X0178628Y0773169D01*
X0178485Y0773242D01*
X0178343Y0773318D01*
X0178204Y0773398D01*
X0178066Y0773481D01*
X0177931Y0773568D01*
X0177797Y0773658D01*
X0177666Y0773751D01*
X0177538Y0773847D01*
X0177412Y0773947D01*
X0177288Y0774050D01*
X0177167Y0774155D01*
X0177048Y0774264D01*
X0176932Y0774375D01*
X0176819Y0774490D01*
X0176709Y0774607D01*
X0176602Y0774727D01*
X0176498Y0774849D01*
X0176397Y0774974D01*
X0176299Y0775102D01*
X0176204Y0775232D01*
X0176112Y0775364D01*
X0176024Y0775498D01*
X0175939Y0775635D01*
X0175857Y0775773D01*
X0175779Y0775914D01*
X0175705Y0776056D01*
X0175634Y0776200D01*
X0175566Y0776346D01*
X0175503Y0776494D01*
X0175442Y0776643D01*
X0175386Y0776794D01*
X0175333Y0776946D01*
X0175284Y0777099D01*
X0175239Y0777253D01*
X0175198Y0777408D01*
X0175160Y0777565D01*
X0175127Y0777722D01*
X0175097Y0777880D01*
X0175071Y0778039D01*
X0175050Y0778198D01*
X0175032Y0778358D01*
X0175018Y0778518D01*
X0175008Y0778679D01*
X0175002Y0778839D01*
X0175000Y0779000D01*
X0193300Y0809000D02*
X0194300Y0809000D01*
X0192800Y0809000D02*
X0192702Y0809002D01*
X0192604Y0809008D01*
X0192506Y0809017D01*
X0192409Y0809031D01*
X0192312Y0809048D01*
X0192216Y0809069D01*
X0192121Y0809094D01*
X0192027Y0809122D01*
X0191935Y0809155D01*
X0191843Y0809190D01*
X0191753Y0809230D01*
X0191665Y0809272D01*
X0191578Y0809319D01*
X0191494Y0809368D01*
X0191411Y0809421D01*
X0191331Y0809477D01*
X0191252Y0809537D01*
X0191176Y0809599D01*
X0191103Y0809664D01*
X0191032Y0809732D01*
X0190964Y0809803D01*
X0190899Y0809876D01*
X0190837Y0809952D01*
X0190777Y0810031D01*
X0190721Y0810111D01*
X0190668Y0810194D01*
X0190619Y0810278D01*
X0190572Y0810365D01*
X0190530Y0810453D01*
X0190490Y0810543D01*
X0190455Y0810635D01*
X0190422Y0810727D01*
X0190394Y0810821D01*
X0190369Y0810916D01*
X0190348Y0811012D01*
X0190331Y0811109D01*
X0190317Y0811206D01*
X0190308Y0811304D01*
X0190302Y0811402D01*
X0190300Y0811500D01*
X0190300Y0821000D01*
X0189800Y0821000D01*
X0189800Y0823000D01*
X0196300Y0825000D02*
X0196398Y0825002D01*
X0196496Y0825008D01*
X0196594Y0825017D01*
X0196691Y0825031D01*
X0196788Y0825048D01*
X0196884Y0825069D01*
X0196979Y0825094D01*
X0197073Y0825122D01*
X0197165Y0825155D01*
X0197257Y0825190D01*
X0197347Y0825230D01*
X0197435Y0825272D01*
X0197522Y0825319D01*
X0197606Y0825368D01*
X0197689Y0825421D01*
X0197769Y0825477D01*
X0197848Y0825537D01*
X0197924Y0825599D01*
X0197997Y0825664D01*
X0198068Y0825732D01*
X0198136Y0825803D01*
X0198201Y0825876D01*
X0198263Y0825952D01*
X0198323Y0826031D01*
X0198379Y0826111D01*
X0198432Y0826194D01*
X0198481Y0826278D01*
X0198528Y0826365D01*
X0198570Y0826453D01*
X0198610Y0826543D01*
X0198645Y0826635D01*
X0198678Y0826727D01*
X0198706Y0826821D01*
X0198731Y0826916D01*
X0198752Y0827012D01*
X0198769Y0827109D01*
X0198783Y0827206D01*
X0198792Y0827304D01*
X0198798Y0827402D01*
X0198800Y0827500D01*
X0198800Y0847500D01*
X0198802Y0847587D01*
X0198808Y0847674D01*
X0198817Y0847761D01*
X0198830Y0847847D01*
X0198847Y0847933D01*
X0198868Y0848018D01*
X0198893Y0848101D01*
X0198921Y0848184D01*
X0198952Y0848265D01*
X0198987Y0848345D01*
X0199026Y0848423D01*
X0199068Y0848500D01*
X0199113Y0848575D01*
X0199162Y0848647D01*
X0199213Y0848718D01*
X0199268Y0848786D01*
X0199325Y0848851D01*
X0199386Y0848914D01*
X0199449Y0848975D01*
X0199514Y0849032D01*
X0199582Y0849087D01*
X0199653Y0849138D01*
X0199725Y0849187D01*
X0199800Y0849232D01*
X0199877Y0849274D01*
X0199955Y0849313D01*
X0200035Y0849348D01*
X0200116Y0849379D01*
X0200199Y0849407D01*
X0200282Y0849432D01*
X0200367Y0849453D01*
X0200453Y0849470D01*
X0200539Y0849483D01*
X0200626Y0849492D01*
X0200713Y0849498D01*
X0200800Y0849500D01*
X0201800Y0849500D01*
X0259800Y0849500D01*
X0260800Y0849500D01*
X0260887Y0849498D01*
X0260974Y0849492D01*
X0261061Y0849483D01*
X0261147Y0849470D01*
X0261233Y0849453D01*
X0261318Y0849432D01*
X0261401Y0849407D01*
X0261484Y0849379D01*
X0261565Y0849348D01*
X0261645Y0849313D01*
X0261723Y0849274D01*
X0261800Y0849232D01*
X0261875Y0849187D01*
X0261947Y0849138D01*
X0262018Y0849087D01*
X0262086Y0849032D01*
X0262151Y0848975D01*
X0262214Y0848914D01*
X0262275Y0848851D01*
X0262332Y0848786D01*
X0262387Y0848718D01*
X0262438Y0848647D01*
X0262487Y0848575D01*
X0262532Y0848500D01*
X0262574Y0848423D01*
X0262613Y0848345D01*
X0262648Y0848265D01*
X0262679Y0848184D01*
X0262707Y0848101D01*
X0262732Y0848018D01*
X0262753Y0847933D01*
X0262770Y0847847D01*
X0262783Y0847761D01*
X0262792Y0847674D01*
X0262798Y0847587D01*
X0262800Y0847500D01*
X0262800Y0827500D01*
X0262802Y0827402D01*
X0262808Y0827304D01*
X0262817Y0827206D01*
X0262831Y0827109D01*
X0262848Y0827012D01*
X0262869Y0826916D01*
X0262894Y0826821D01*
X0262922Y0826727D01*
X0262955Y0826635D01*
X0262990Y0826543D01*
X0263030Y0826453D01*
X0263072Y0826365D01*
X0263119Y0826278D01*
X0263168Y0826194D01*
X0263221Y0826111D01*
X0263277Y0826031D01*
X0263337Y0825952D01*
X0263399Y0825876D01*
X0263464Y0825803D01*
X0263532Y0825732D01*
X0263603Y0825664D01*
X0263676Y0825599D01*
X0263752Y0825537D01*
X0263831Y0825477D01*
X0263911Y0825421D01*
X0263994Y0825368D01*
X0264078Y0825319D01*
X0264165Y0825272D01*
X0264253Y0825230D01*
X0264343Y0825190D01*
X0264435Y0825155D01*
X0264527Y0825122D01*
X0264621Y0825094D01*
X0264716Y0825069D01*
X0264812Y0825048D01*
X0264909Y0825031D01*
X0265006Y0825017D01*
X0265104Y0825008D01*
X0265202Y0825002D01*
X0265300Y0825000D01*
X0273600Y0779000D02*
X0273602Y0779161D01*
X0273608Y0779321D01*
X0273618Y0779482D01*
X0273632Y0779642D01*
X0273650Y0779802D01*
X0273671Y0779961D01*
X0273697Y0780120D01*
X0273727Y0780278D01*
X0273760Y0780435D01*
X0273798Y0780592D01*
X0273839Y0780747D01*
X0273884Y0780901D01*
X0273933Y0781054D01*
X0273986Y0781206D01*
X0274042Y0781357D01*
X0274103Y0781506D01*
X0274166Y0781654D01*
X0274234Y0781800D01*
X0274305Y0781944D01*
X0274379Y0782086D01*
X0274457Y0782227D01*
X0274539Y0782365D01*
X0274624Y0782502D01*
X0274712Y0782636D01*
X0274804Y0782768D01*
X0274899Y0782898D01*
X0274997Y0783026D01*
X0275098Y0783151D01*
X0275202Y0783273D01*
X0275309Y0783393D01*
X0275419Y0783510D01*
X0275532Y0783625D01*
X0275648Y0783736D01*
X0275767Y0783845D01*
X0275888Y0783950D01*
X0276012Y0784053D01*
X0276138Y0784153D01*
X0276266Y0784249D01*
X0276397Y0784342D01*
X0276531Y0784432D01*
X0276666Y0784519D01*
X0276804Y0784602D01*
X0276943Y0784682D01*
X0277085Y0784758D01*
X0277228Y0784831D01*
X0277373Y0784900D01*
X0277520Y0784966D01*
X0277668Y0785028D01*
X0277818Y0785086D01*
X0277969Y0785141D01*
X0278122Y0785192D01*
X0278276Y0785239D01*
X0278431Y0785282D01*
X0278587Y0785321D01*
X0278743Y0785357D01*
X0278901Y0785388D01*
X0279059Y0785416D01*
X0279218Y0785440D01*
X0279378Y0785460D01*
X0279538Y0785476D01*
X0279698Y0785488D01*
X0279859Y0785496D01*
X0280020Y0785500D01*
X0280180Y0785500D01*
X0280341Y0785496D01*
X0280502Y0785488D01*
X0280662Y0785476D01*
X0280822Y0785460D01*
X0280982Y0785440D01*
X0281141Y0785416D01*
X0281299Y0785388D01*
X0281457Y0785357D01*
X0281613Y0785321D01*
X0281769Y0785282D01*
X0281924Y0785239D01*
X0282078Y0785192D01*
X0282231Y0785141D01*
X0282382Y0785086D01*
X0282532Y0785028D01*
X0282680Y0784966D01*
X0282827Y0784900D01*
X0282972Y0784831D01*
X0283115Y0784758D01*
X0283257Y0784682D01*
X0283396Y0784602D01*
X0283534Y0784519D01*
X0283669Y0784432D01*
X0283803Y0784342D01*
X0283934Y0784249D01*
X0284062Y0784153D01*
X0284188Y0784053D01*
X0284312Y0783950D01*
X0284433Y0783845D01*
X0284552Y0783736D01*
X0284668Y0783625D01*
X0284781Y0783510D01*
X0284891Y0783393D01*
X0284998Y0783273D01*
X0285102Y0783151D01*
X0285203Y0783026D01*
X0285301Y0782898D01*
X0285396Y0782768D01*
X0285488Y0782636D01*
X0285576Y0782502D01*
X0285661Y0782365D01*
X0285743Y0782227D01*
X0285821Y0782086D01*
X0285895Y0781944D01*
X0285966Y0781800D01*
X0286034Y0781654D01*
X0286097Y0781506D01*
X0286158Y0781357D01*
X0286214Y0781206D01*
X0286267Y0781054D01*
X0286316Y0780901D01*
X0286361Y0780747D01*
X0286402Y0780592D01*
X0286440Y0780435D01*
X0286473Y0780278D01*
X0286503Y0780120D01*
X0286529Y0779961D01*
X0286550Y0779802D01*
X0286568Y0779642D01*
X0286582Y0779482D01*
X0286592Y0779321D01*
X0286598Y0779161D01*
X0286600Y0779000D01*
X0286598Y0778839D01*
X0286592Y0778679D01*
X0286582Y0778518D01*
X0286568Y0778358D01*
X0286550Y0778198D01*
X0286529Y0778039D01*
X0286503Y0777880D01*
X0286473Y0777722D01*
X0286440Y0777565D01*
X0286402Y0777408D01*
X0286361Y0777253D01*
X0286316Y0777099D01*
X0286267Y0776946D01*
X0286214Y0776794D01*
X0286158Y0776643D01*
X0286097Y0776494D01*
X0286034Y0776346D01*
X0285966Y0776200D01*
X0285895Y0776056D01*
X0285821Y0775914D01*
X0285743Y0775773D01*
X0285661Y0775635D01*
X0285576Y0775498D01*
X0285488Y0775364D01*
X0285396Y0775232D01*
X0285301Y0775102D01*
X0285203Y0774974D01*
X0285102Y0774849D01*
X0284998Y0774727D01*
X0284891Y0774607D01*
X0284781Y0774490D01*
X0284668Y0774375D01*
X0284552Y0774264D01*
X0284433Y0774155D01*
X0284312Y0774050D01*
X0284188Y0773947D01*
X0284062Y0773847D01*
X0283934Y0773751D01*
X0283803Y0773658D01*
X0283669Y0773568D01*
X0283534Y0773481D01*
X0283396Y0773398D01*
X0283257Y0773318D01*
X0283115Y0773242D01*
X0282972Y0773169D01*
X0282827Y0773100D01*
X0282680Y0773034D01*
X0282532Y0772972D01*
X0282382Y0772914D01*
X0282231Y0772859D01*
X0282078Y0772808D01*
X0281924Y0772761D01*
X0281769Y0772718D01*
X0281613Y0772679D01*
X0281457Y0772643D01*
X0281299Y0772612D01*
X0281141Y0772584D01*
X0280982Y0772560D01*
X0280822Y0772540D01*
X0280662Y0772524D01*
X0280502Y0772512D01*
X0280341Y0772504D01*
X0280180Y0772500D01*
X0280020Y0772500D01*
X0279859Y0772504D01*
X0279698Y0772512D01*
X0279538Y0772524D01*
X0279378Y0772540D01*
X0279218Y0772560D01*
X0279059Y0772584D01*
X0278901Y0772612D01*
X0278743Y0772643D01*
X0278587Y0772679D01*
X0278431Y0772718D01*
X0278276Y0772761D01*
X0278122Y0772808D01*
X0277969Y0772859D01*
X0277818Y0772914D01*
X0277668Y0772972D01*
X0277520Y0773034D01*
X0277373Y0773100D01*
X0277228Y0773169D01*
X0277085Y0773242D01*
X0276943Y0773318D01*
X0276804Y0773398D01*
X0276666Y0773481D01*
X0276531Y0773568D01*
X0276397Y0773658D01*
X0276266Y0773751D01*
X0276138Y0773847D01*
X0276012Y0773947D01*
X0275888Y0774050D01*
X0275767Y0774155D01*
X0275648Y0774264D01*
X0275532Y0774375D01*
X0275419Y0774490D01*
X0275309Y0774607D01*
X0275202Y0774727D01*
X0275098Y0774849D01*
X0274997Y0774974D01*
X0274899Y0775102D01*
X0274804Y0775232D01*
X0274712Y0775364D01*
X0274624Y0775498D01*
X0274539Y0775635D01*
X0274457Y0775773D01*
X0274379Y0775914D01*
X0274305Y0776056D01*
X0274234Y0776200D01*
X0274166Y0776346D01*
X0274103Y0776494D01*
X0274042Y0776643D01*
X0273986Y0776794D01*
X0273933Y0776946D01*
X0273884Y0777099D01*
X0273839Y0777253D01*
X0273798Y0777408D01*
X0273760Y0777565D01*
X0273727Y0777722D01*
X0273697Y0777880D01*
X0273671Y0778039D01*
X0273650Y0778198D01*
X0273632Y0778358D01*
X0273618Y0778518D01*
X0273608Y0778679D01*
X0273602Y0778839D01*
X0273600Y0779000D01*
X0333800Y0674000D02*
X0343800Y0674000D01*
X0343800Y0658000D01*
X0333800Y0658000D01*
X0333800Y0674000D01*
X0338800Y0668500D02*
X0338800Y0666000D01*
X0341300Y0666000D01*
X0341300Y0665000D01*
X0338800Y0666000D02*
X0338800Y0660000D01*
X0341300Y0662000D02*
X0338800Y0666000D01*
X0336300Y0666000D01*
X0338800Y0666000D02*
X0336300Y0662000D01*
X0341300Y0662000D01*
X0343800Y0701500D02*
X0346300Y0701500D01*
X0343800Y0701500D02*
X0343800Y0726500D01*
X0346300Y0726500D01*
X0357300Y0726500D02*
X0360500Y0726500D01*
X0360500Y0701500D01*
X0357300Y0701500D01*
X0357300Y0703000D02*
X0357300Y0709000D01*
X0358800Y0709000D01*
X0359300Y0708500D01*
X0355300Y0708500D01*
X0355800Y0709000D01*
X0357300Y0709000D01*
X0357300Y0710500D01*
X0356800Y0710000D01*
X0356300Y0709500D01*
X0355800Y0709000D01*
X0356300Y0709500D02*
X0358300Y0709500D01*
X0357800Y0710000D01*
X0356800Y0710000D01*
X0357300Y0710500D02*
X0357800Y0710000D01*
X0358300Y0709500D02*
X0358800Y0709000D01*
D13*
X0362046Y0708606D02*
X0362797Y0709356D01*
X0365799Y0706354D01*
X0366550Y0707105D01*
X0366550Y0708606D01*
X0365799Y0709356D01*
X0362797Y0709356D01*
X0362046Y0708606D02*
X0362046Y0707105D01*
X0362797Y0706354D01*
X0365799Y0706354D01*
X0366550Y0704753D02*
X0366550Y0701750D01*
X0366550Y0703251D02*
X0362046Y0703251D01*
X0363547Y0701750D01*
X0362046Y0710958D02*
X0366550Y0710958D01*
X0365049Y0710958D02*
X0363547Y0713210D01*
X0365049Y0710958D02*
X0366550Y0713210D01*
X0350050Y0672149D02*
X0350050Y0669146D01*
X0350050Y0670647D02*
X0345546Y0670647D01*
X0347047Y0669146D01*
X0346297Y0667545D02*
X0345546Y0666794D01*
X0345546Y0664542D01*
X0350050Y0664542D01*
X0350050Y0666794D01*
X0349299Y0667545D01*
X0346297Y0667545D01*
X0342050Y0701750D02*
X0337546Y0701750D01*
X0337546Y0704002D01*
X0338297Y0704753D01*
X0339798Y0704753D01*
X0340549Y0704002D01*
X0340549Y0701750D01*
X0340549Y0703251D02*
X0342050Y0704753D01*
X0342050Y0706354D02*
X0342050Y0709356D01*
X0342050Y0707855D02*
X0337546Y0707855D01*
X0339047Y0706354D01*
X0339047Y0710958D02*
X0339798Y0711708D01*
X0339798Y0713960D01*
X0338297Y0713960D02*
X0337546Y0713210D01*
X0337546Y0711708D01*
X0338297Y0710958D01*
X0339047Y0710958D01*
X0341299Y0710958D02*
X0342050Y0711708D01*
X0342050Y0713210D01*
X0341299Y0713960D01*
X0338297Y0713960D01*
X0300010Y0641753D02*
X0300760Y0641002D01*
X0300760Y0638750D01*
X0297758Y0638750D02*
X0297758Y0641753D01*
X0300010Y0641753D01*
X0296156Y0642503D02*
X0293154Y0639501D01*
X0293905Y0638750D01*
X0295406Y0638750D01*
X0296156Y0639501D01*
X0296156Y0642503D01*
X0295406Y0643254D01*
X0293905Y0643254D01*
X0293154Y0642503D01*
X0293154Y0639501D01*
X0291553Y0638750D02*
X0288550Y0638750D01*
X0290051Y0638750D02*
X0290051Y0643254D01*
X0288550Y0641753D01*
X0288301Y0658750D02*
X0289802Y0658750D01*
X0290553Y0659501D01*
X0292154Y0661002D02*
X0295156Y0661002D01*
X0294406Y0663254D02*
X0292154Y0661002D01*
X0290553Y0662503D02*
X0289802Y0663254D01*
X0288301Y0663254D01*
X0287550Y0662503D01*
X0287550Y0659501D01*
X0288301Y0658750D01*
X0294406Y0658750D02*
X0294406Y0663254D01*
X0294297Y0691022D02*
X0297299Y0691022D01*
X0298050Y0691773D01*
X0298050Y0693274D01*
X0297299Y0694025D01*
X0294297Y0694025D01*
X0293546Y0693274D01*
X0293546Y0691773D01*
X0294297Y0691022D01*
X0293546Y0695626D02*
X0293546Y0697878D01*
X0294297Y0698629D01*
X0295798Y0698629D01*
X0296549Y0697878D01*
X0296549Y0695626D01*
X0298050Y0695626D02*
X0293546Y0695626D01*
X0295047Y0700230D02*
X0293546Y0701732D01*
X0295047Y0703233D01*
X0298050Y0703233D01*
X0298050Y0704834D02*
X0295047Y0707837D01*
X0294297Y0707837D01*
X0293546Y0707086D01*
X0293546Y0705585D01*
X0294297Y0704834D01*
X0295798Y0703233D02*
X0295798Y0700230D01*
X0295047Y0700230D02*
X0298050Y0700230D01*
X0298050Y0704834D02*
X0298050Y0707837D01*
X0298050Y0709438D02*
X0297299Y0709438D01*
X0294297Y0712441D01*
X0293546Y0712441D01*
X0293546Y0709438D01*
X0294297Y0714042D02*
X0297299Y0714042D01*
X0298050Y0714793D01*
X0298050Y0716294D01*
X0297299Y0717045D01*
X0295798Y0717045D01*
X0295798Y0715543D01*
X0294297Y0714042D02*
X0293546Y0714793D01*
X0293546Y0716294D01*
X0294297Y0717045D01*
X0293546Y0718646D02*
X0293546Y0720898D01*
X0294297Y0721649D01*
X0295798Y0721649D01*
X0296549Y0720898D01*
X0296549Y0718646D01*
X0298050Y0718646D02*
X0293546Y0718646D01*
X0292223Y0730250D02*
X0295226Y0733253D01*
X0295226Y0734003D01*
X0294475Y0734754D01*
X0292974Y0734754D01*
X0292223Y0734003D01*
X0290622Y0734003D02*
X0289871Y0734754D01*
X0288370Y0734754D01*
X0287619Y0734003D01*
X0287619Y0731001D01*
X0288370Y0730250D01*
X0289871Y0730250D01*
X0290622Y0731001D01*
X0292223Y0730250D02*
X0295226Y0730250D01*
X0286051Y0730250D02*
X0284550Y0730250D01*
X0285301Y0730250D02*
X0285301Y0734754D01*
X0286051Y0734754D02*
X0284550Y0734754D01*
X0260802Y0771750D02*
X0259301Y0771750D01*
X0258550Y0772501D01*
X0258550Y0774002D02*
X0260051Y0774753D01*
X0260802Y0774753D01*
X0261553Y0774002D01*
X0261553Y0772501D01*
X0260802Y0771750D01*
X0258550Y0774002D02*
X0258550Y0776254D01*
X0261553Y0776254D01*
X0260802Y0781750D02*
X0261553Y0782501D01*
X0261553Y0785503D01*
X0260802Y0786254D01*
X0259301Y0786254D01*
X0258550Y0785503D01*
X0258550Y0784753D01*
X0259301Y0784002D01*
X0261553Y0784002D01*
X0260802Y0781750D02*
X0259301Y0781750D01*
X0258550Y0782501D01*
X0285046Y0790001D02*
X0285797Y0789250D01*
X0285046Y0790001D02*
X0285046Y0791502D01*
X0285797Y0792253D01*
X0286547Y0792253D01*
X0289550Y0789250D01*
X0289550Y0792253D01*
X0291051Y0793854D02*
X0289550Y0795355D01*
X0289550Y0794605D01*
X0288799Y0794605D01*
X0288799Y0795355D01*
X0289550Y0795355D01*
X0288799Y0796923D02*
X0289550Y0797674D01*
X0289550Y0799175D01*
X0288799Y0799926D01*
X0287298Y0799926D01*
X0286547Y0799175D01*
X0286547Y0798424D01*
X0287298Y0796923D01*
X0285046Y0796923D01*
X0285046Y0799926D01*
X0287298Y0801527D02*
X0285046Y0803779D01*
X0289550Y0803779D01*
X0287298Y0804530D02*
X0287298Y0801527D01*
X0249799Y0729649D02*
X0249049Y0729649D01*
X0248298Y0728898D01*
X0248298Y0726646D01*
X0249799Y0726646D01*
X0250550Y0727397D01*
X0250550Y0728898D01*
X0249799Y0729649D01*
X0246797Y0728147D02*
X0248298Y0726646D01*
X0246797Y0728147D02*
X0246046Y0729649D01*
X0242050Y0726549D02*
X0237546Y0726549D01*
X0239047Y0725047D01*
X0237546Y0723546D01*
X0242050Y0723546D01*
X0242050Y0721945D02*
X0242050Y0718942D01*
X0242050Y0720443D02*
X0237546Y0720443D01*
X0239047Y0718942D01*
X0246046Y0719690D02*
X0246797Y0720441D01*
X0248298Y0720441D01*
X0249049Y0719690D01*
X0249049Y0717438D01*
X0250550Y0717438D02*
X0246046Y0717438D01*
X0246046Y0719690D01*
X0247547Y0722042D02*
X0246046Y0723543D01*
X0250550Y0723543D01*
X0250550Y0722042D02*
X0250550Y0725045D01*
X0250550Y0720441D02*
X0249049Y0718939D01*
X0249799Y0678649D02*
X0250550Y0677898D01*
X0250550Y0676397D01*
X0249799Y0675646D01*
X0248298Y0675646D02*
X0247547Y0677147D01*
X0247547Y0677898D01*
X0248298Y0678649D01*
X0249799Y0678649D01*
X0248298Y0675646D02*
X0246046Y0675646D01*
X0246046Y0678649D01*
X0242050Y0675549D02*
X0237546Y0675549D01*
X0239047Y0674047D01*
X0237546Y0672546D01*
X0242050Y0672546D01*
X0242050Y0670945D02*
X0242050Y0667942D01*
X0242050Y0669443D02*
X0237546Y0669443D01*
X0239047Y0667942D01*
X0246046Y0668690D02*
X0246797Y0669441D01*
X0248298Y0669441D01*
X0249049Y0668690D01*
X0249049Y0666438D01*
X0250550Y0666438D02*
X0246046Y0666438D01*
X0246046Y0668690D01*
X0247547Y0671042D02*
X0246046Y0672543D01*
X0250550Y0672543D01*
X0250550Y0671042D02*
X0250550Y0674045D01*
X0250550Y0669441D02*
X0249049Y0667939D01*
X0257507Y0618454D02*
X0257507Y0613950D01*
X0256006Y0613950D02*
X0259008Y0613950D01*
X0260609Y0614701D02*
X0263612Y0617703D01*
X0263612Y0614701D01*
X0262861Y0613950D01*
X0261360Y0613950D01*
X0260609Y0614701D01*
X0260609Y0617703D01*
X0261360Y0618454D01*
X0262861Y0618454D01*
X0263612Y0617703D01*
X0265213Y0618454D02*
X0265213Y0613950D01*
X0265213Y0615451D02*
X0267465Y0616953D01*
X0265213Y0615451D02*
X0267465Y0613950D01*
X0268697Y0610254D02*
X0267946Y0609503D01*
X0268697Y0610254D02*
X0270198Y0610254D01*
X0270949Y0609503D01*
X0270949Y0608753D01*
X0270198Y0608002D01*
X0270949Y0607251D01*
X0270949Y0606501D01*
X0270198Y0605750D01*
X0268697Y0605750D01*
X0267946Y0606501D01*
X0266345Y0605750D02*
X0263342Y0605750D01*
X0264843Y0605750D02*
X0264843Y0610254D01*
X0263342Y0608753D01*
X0261741Y0609503D02*
X0261741Y0608002D01*
X0260990Y0607251D01*
X0258738Y0607251D01*
X0258738Y0605750D02*
X0258738Y0610254D01*
X0260990Y0610254D01*
X0261741Y0609503D01*
X0260239Y0607251D02*
X0261741Y0605750D01*
X0256006Y0616953D02*
X0257507Y0618454D01*
X0269447Y0608002D02*
X0270198Y0608002D01*
X0257465Y0591953D02*
X0255213Y0590451D01*
X0257465Y0588950D01*
X0255213Y0588950D02*
X0255213Y0593454D01*
X0253612Y0592703D02*
X0250609Y0589701D01*
X0251360Y0588950D01*
X0252861Y0588950D01*
X0253612Y0589701D01*
X0253612Y0592703D01*
X0252861Y0593454D01*
X0251360Y0593454D01*
X0250609Y0592703D01*
X0250609Y0589701D01*
X0249008Y0588950D02*
X0246006Y0588950D01*
X0247507Y0588950D02*
X0247507Y0593454D01*
X0246006Y0591953D01*
X0248738Y0585254D02*
X0250990Y0585254D01*
X0251741Y0584503D01*
X0251741Y0583002D01*
X0250990Y0582251D01*
X0248738Y0582251D01*
X0248738Y0580750D02*
X0248738Y0585254D01*
X0250239Y0582251D02*
X0251741Y0580750D01*
X0253342Y0580750D02*
X0256345Y0580750D01*
X0254843Y0580750D02*
X0254843Y0585254D01*
X0253342Y0583753D01*
X0257946Y0583002D02*
X0260949Y0583002D01*
X0260198Y0585254D02*
X0257946Y0583002D01*
X0260198Y0580750D02*
X0260198Y0585254D01*
X0259514Y0553254D02*
X0258013Y0553254D01*
X0257262Y0552503D01*
X0257262Y0549501D01*
X0258013Y0548750D01*
X0259514Y0548750D01*
X0260265Y0549501D01*
X0260265Y0552503D01*
X0259514Y0553254D01*
X0261866Y0553254D02*
X0264118Y0553254D01*
X0264869Y0552503D01*
X0264869Y0551002D01*
X0264118Y0550251D01*
X0261866Y0550251D01*
X0261866Y0548750D02*
X0261866Y0553254D01*
X0263368Y0550251D02*
X0264869Y0548750D01*
X0255661Y0553254D02*
X0252659Y0553254D01*
X0254160Y0553254D02*
X0254160Y0548750D01*
X0251057Y0551002D02*
X0250307Y0550251D01*
X0248055Y0550251D01*
X0248055Y0548750D02*
X0248055Y0553254D01*
X0250307Y0553254D01*
X0251057Y0552503D01*
X0251057Y0551002D01*
X0246453Y0551002D02*
X0243451Y0551002D01*
X0243451Y0551753D02*
X0244952Y0553254D01*
X0246453Y0551753D01*
X0246453Y0548750D01*
X0243451Y0548750D02*
X0243451Y0551753D01*
X0241849Y0552503D02*
X0241099Y0553254D01*
X0238847Y0553254D01*
X0238847Y0548750D01*
X0241099Y0548750D01*
X0241849Y0549501D01*
X0241849Y0552503D01*
X0237245Y0551753D02*
X0237245Y0548750D01*
X0237245Y0551002D02*
X0234243Y0551002D01*
X0234243Y0551753D02*
X0235744Y0553254D01*
X0237245Y0551753D01*
X0234243Y0551753D02*
X0234243Y0548750D01*
X0232641Y0549501D02*
X0232641Y0553254D01*
X0229639Y0553254D02*
X0229639Y0549501D01*
X0230390Y0548750D01*
X0231891Y0548750D01*
X0232641Y0549501D01*
X0228038Y0548750D02*
X0225035Y0548750D01*
X0228038Y0551753D01*
X0228038Y0552503D01*
X0227287Y0553254D01*
X0225786Y0553254D01*
X0225035Y0552503D01*
X0223434Y0552503D02*
X0220431Y0549501D01*
X0221182Y0548750D01*
X0222683Y0548750D01*
X0223434Y0549501D01*
X0223434Y0552503D01*
X0222683Y0553254D01*
X0221182Y0553254D01*
X0220431Y0552503D01*
X0220431Y0549501D01*
X0218830Y0548750D02*
X0215827Y0548750D01*
X0217328Y0548750D02*
X0217328Y0553254D01*
X0215827Y0551753D01*
X0214226Y0552503D02*
X0213475Y0553254D01*
X0211974Y0553254D01*
X0211223Y0552503D01*
X0211223Y0549501D01*
X0211974Y0548750D01*
X0213475Y0548750D01*
X0214226Y0549501D01*
X0209622Y0550251D02*
X0209622Y0553254D01*
X0209622Y0550251D02*
X0208121Y0548750D01*
X0206619Y0550251D01*
X0206619Y0553254D01*
X0205051Y0553254D02*
X0203550Y0553254D01*
X0204301Y0553254D02*
X0204301Y0548750D01*
X0205051Y0548750D02*
X0203550Y0548750D01*
X0193050Y0548424D02*
X0188546Y0548424D01*
X0190047Y0546923D01*
X0189297Y0545322D02*
X0188546Y0544571D01*
X0188546Y0543070D01*
X0189297Y0542319D01*
X0192299Y0542319D01*
X0193050Y0543070D01*
X0193050Y0544571D01*
X0192299Y0545322D01*
X0193050Y0546923D02*
X0193050Y0549926D01*
X0193050Y0540751D02*
X0193050Y0539250D01*
X0193050Y0540001D02*
X0188546Y0540001D01*
X0188546Y0540751D02*
X0188546Y0539250D01*
X0244989Y0449754D02*
X0244238Y0449003D01*
X0244238Y0448253D01*
X0244989Y0447502D01*
X0246490Y0447502D01*
X0247241Y0446751D01*
X0247241Y0446001D01*
X0246490Y0445250D01*
X0244989Y0445250D01*
X0244238Y0446001D01*
X0244989Y0449754D02*
X0246490Y0449754D01*
X0247241Y0449003D01*
X0248842Y0449754D02*
X0248842Y0445250D01*
X0250343Y0446751D01*
X0251845Y0445250D01*
X0251845Y0449754D01*
X0253446Y0449003D02*
X0254197Y0449754D01*
X0255698Y0449754D01*
X0256449Y0449003D01*
X0256449Y0448253D01*
X0253446Y0445250D01*
X0256449Y0445250D01*
X0247698Y0414253D02*
X0245446Y0414253D01*
X0245446Y0409749D01*
X0245446Y0411250D02*
X0247698Y0411250D01*
X0248449Y0412001D01*
X0248449Y0413502D01*
X0247698Y0414253D01*
X0243845Y0415003D02*
X0240842Y0412001D01*
X0241593Y0411250D01*
X0243094Y0411250D01*
X0243845Y0412001D01*
X0243845Y0415003D01*
X0243094Y0415754D01*
X0241593Y0415754D01*
X0240842Y0415003D01*
X0240842Y0412001D01*
X0239241Y0411250D02*
X0236238Y0411250D01*
X0237739Y0411250D02*
X0237739Y0415754D01*
X0236238Y0414253D01*
X0258842Y0393503D02*
X0258842Y0390501D01*
X0259593Y0389750D01*
X0261094Y0389750D01*
X0261845Y0390501D01*
X0263446Y0390501D02*
X0263446Y0391251D01*
X0264197Y0392002D01*
X0265698Y0392002D01*
X0266449Y0391251D01*
X0266449Y0390501D01*
X0265698Y0389750D01*
X0264197Y0389750D01*
X0263446Y0390501D01*
X0264197Y0392002D02*
X0263446Y0392753D01*
X0263446Y0393503D01*
X0264197Y0394254D01*
X0265698Y0394254D01*
X0266449Y0393503D01*
X0266449Y0392753D01*
X0265698Y0392002D01*
X0261845Y0393503D02*
X0261094Y0394254D01*
X0259593Y0394254D01*
X0258842Y0393503D01*
X0288800Y0385000D02*
X0288800Y0335000D01*
X0338800Y0335000D01*
X0338800Y0385000D01*
X0288800Y0385000D01*
X0300550Y0472750D02*
X0303553Y0472750D01*
X0302051Y0472750D02*
X0302051Y0477254D01*
X0300550Y0475753D01*
X0305154Y0476503D02*
X0305905Y0477254D01*
X0307406Y0477254D01*
X0308156Y0476503D01*
X0305154Y0473501D01*
X0305905Y0472750D01*
X0307406Y0472750D01*
X0308156Y0473501D01*
X0308156Y0476503D01*
X0309758Y0475753D02*
X0312010Y0475753D01*
X0312760Y0475002D01*
X0312760Y0472750D01*
X0309758Y0472750D02*
X0309758Y0475753D01*
X0305154Y0476503D02*
X0305154Y0473501D01*
X0305655Y0492750D02*
X0305655Y0497254D01*
X0304154Y0495753D01*
X0302553Y0496503D02*
X0301802Y0497254D01*
X0300301Y0497254D01*
X0299550Y0496503D01*
X0299550Y0493501D01*
X0300301Y0492750D01*
X0301802Y0492750D01*
X0302553Y0493501D01*
X0304154Y0492750D02*
X0307156Y0492750D01*
X0308758Y0492750D02*
X0311760Y0495753D01*
X0311760Y0496503D01*
X0311010Y0497254D01*
X0309508Y0497254D01*
X0308758Y0496503D01*
X0308758Y0492750D02*
X0311760Y0492750D01*
X0312047Y0515626D02*
X0310546Y0517128D01*
X0312047Y0518629D01*
X0315050Y0518629D01*
X0315050Y0520230D02*
X0310546Y0520230D01*
X0310546Y0522482D01*
X0311297Y0523233D01*
X0314299Y0523233D01*
X0315050Y0522482D01*
X0315050Y0520230D01*
X0312798Y0518629D02*
X0312798Y0515626D01*
X0312047Y0515626D02*
X0315050Y0515626D01*
X0314299Y0524834D02*
X0315050Y0525585D01*
X0315050Y0527086D01*
X0314299Y0527837D01*
X0312798Y0527837D01*
X0312047Y0527086D01*
X0312047Y0526336D01*
X0312798Y0524834D01*
X0310546Y0524834D01*
X0310546Y0527837D01*
X0311297Y0529438D02*
X0312047Y0529438D01*
X0312798Y0530189D01*
X0312798Y0531690D01*
X0313549Y0532441D01*
X0314299Y0532441D01*
X0315050Y0531690D01*
X0315050Y0530189D01*
X0314299Y0529438D01*
X0313549Y0529438D01*
X0312798Y0530189D01*
X0312798Y0531690D02*
X0312047Y0532441D01*
X0311297Y0532441D01*
X0310546Y0531690D01*
X0310546Y0530189D01*
X0311297Y0529438D01*
X0311297Y0534042D02*
X0310546Y0534793D01*
X0310546Y0536294D01*
X0311297Y0537045D01*
X0314299Y0534042D01*
X0315050Y0534793D01*
X0315050Y0536294D01*
X0314299Y0537045D01*
X0311297Y0537045D01*
X0310546Y0538646D02*
X0315050Y0538646D01*
X0312798Y0538646D02*
X0312798Y0541649D01*
X0310546Y0541649D02*
X0315050Y0541649D01*
X0314299Y0534042D02*
X0311297Y0534042D01*
X0332046Y0534294D02*
X0332046Y0532793D01*
X0332797Y0532042D01*
X0335799Y0532042D01*
X0336550Y0532793D01*
X0336550Y0534294D01*
X0335799Y0535045D01*
X0335799Y0536646D02*
X0336550Y0537397D01*
X0336550Y0538898D01*
X0335799Y0539649D01*
X0335049Y0539649D01*
X0334298Y0538898D01*
X0334298Y0538147D01*
X0334298Y0538898D02*
X0333547Y0539649D01*
X0332797Y0539649D01*
X0332046Y0538898D01*
X0332046Y0537397D01*
X0332797Y0536646D01*
X0332797Y0535045D02*
X0332046Y0534294D01*
X0332046Y0530474D02*
X0332046Y0528973D01*
X0332046Y0529723D02*
X0336550Y0529723D01*
X0336550Y0528973D02*
X0336550Y0530474D01*
X0337049Y0582250D02*
X0337049Y0584502D01*
X0336298Y0585253D01*
X0334797Y0585253D01*
X0334046Y0584502D01*
X0334046Y0582250D01*
X0338550Y0582250D01*
X0337049Y0583751D02*
X0338550Y0585253D01*
X0338550Y0586854D02*
X0338550Y0589856D01*
X0338550Y0588355D02*
X0334046Y0588355D01*
X0335547Y0586854D01*
X0335547Y0591458D02*
X0334797Y0591458D01*
X0334046Y0592208D01*
X0334046Y0593710D01*
X0334797Y0594460D01*
X0335547Y0594460D01*
X0336298Y0593710D01*
X0336298Y0592208D01*
X0335547Y0591458D01*
X0336298Y0592208D02*
X0337049Y0591458D01*
X0337799Y0591458D01*
X0338550Y0592208D01*
X0338550Y0593710D01*
X0337799Y0594460D01*
X0337049Y0594460D01*
X0336298Y0593710D01*
X0342546Y0592956D02*
X0347050Y0592956D01*
X0347050Y0589954D02*
X0342546Y0589954D01*
X0344047Y0591455D01*
X0342546Y0592956D01*
X0342546Y0586851D02*
X0347050Y0586851D01*
X0347050Y0585350D02*
X0347050Y0588353D01*
X0344047Y0585350D02*
X0342546Y0586851D01*
X0323550Y0592438D02*
X0319046Y0592438D01*
X0319046Y0594690D01*
X0319797Y0595441D01*
X0321298Y0595441D01*
X0322049Y0594690D01*
X0322049Y0592438D01*
X0322049Y0593939D02*
X0323550Y0595441D01*
X0323550Y0597042D02*
X0323550Y0600045D01*
X0323550Y0598543D02*
X0319046Y0598543D01*
X0320547Y0597042D01*
X0319046Y0601646D02*
X0319046Y0604649D01*
X0319797Y0604649D01*
X0322799Y0601646D01*
X0323550Y0601646D01*
X0315050Y0601549D02*
X0310546Y0601549D01*
X0312047Y0600047D01*
X0310546Y0598546D01*
X0315050Y0598546D01*
X0315050Y0596945D02*
X0315050Y0593942D01*
X0315050Y0595443D02*
X0310546Y0595443D01*
X0312047Y0593942D01*
X0210949Y0660501D02*
X0210198Y0659750D01*
X0208697Y0659750D01*
X0207946Y0660501D01*
X0210949Y0663503D01*
X0210949Y0660501D01*
X0210949Y0663503D02*
X0210198Y0664254D01*
X0208697Y0664254D01*
X0207946Y0663503D01*
X0207946Y0660501D01*
X0206345Y0659750D02*
X0203342Y0659750D01*
X0204843Y0659750D02*
X0204843Y0664254D01*
X0203342Y0662753D01*
X0201741Y0663503D02*
X0200990Y0664254D01*
X0199489Y0664254D01*
X0198738Y0663503D01*
X0198738Y0660501D01*
X0199489Y0659750D01*
X0200990Y0659750D01*
X0201741Y0660501D01*
X0200741Y0679750D02*
X0197738Y0679750D01*
X0199239Y0679750D02*
X0199239Y0684254D01*
X0197738Y0682753D01*
X0202342Y0683503D02*
X0202342Y0680501D01*
X0205345Y0683503D01*
X0205345Y0680501D01*
X0204594Y0679750D01*
X0203093Y0679750D01*
X0202342Y0680501D01*
X0202342Y0683503D02*
X0203093Y0684254D01*
X0204594Y0684254D01*
X0205345Y0683503D01*
X0206946Y0682753D02*
X0209198Y0682753D01*
X0209949Y0682002D01*
X0209949Y0679750D01*
X0206946Y0679750D02*
X0206946Y0682753D01*
X0204053Y0771750D02*
X0201050Y0771750D01*
X0202551Y0771750D02*
X0202551Y0776254D01*
X0201050Y0774753D01*
X0201801Y0781750D02*
X0203302Y0781750D01*
X0204053Y0782501D01*
X0204053Y0783251D01*
X0203302Y0784002D01*
X0201050Y0784002D01*
X0201050Y0782501D01*
X0201801Y0781750D01*
X0201050Y0784002D02*
X0202551Y0785503D01*
X0204053Y0786254D01*
X0206405Y0812750D02*
X0205654Y0813501D01*
X0208656Y0816503D01*
X0208656Y0813501D01*
X0207906Y0812750D01*
X0206405Y0812750D01*
X0205654Y0813501D02*
X0205654Y0816503D01*
X0206405Y0817254D01*
X0207906Y0817254D01*
X0208656Y0816503D01*
X0210258Y0816503D02*
X0211008Y0817254D01*
X0212510Y0817254D01*
X0213260Y0816503D01*
X0213260Y0813501D01*
X0212510Y0812750D01*
X0211008Y0812750D01*
X0210258Y0813501D01*
X0211008Y0815002D02*
X0213260Y0815002D01*
X0211008Y0815002D02*
X0210258Y0815753D01*
X0210258Y0816503D01*
X0204053Y0817254D02*
X0201050Y0817254D01*
X0201050Y0812750D01*
X0201050Y0815002D02*
X0202551Y0815002D01*
X0180468Y0423754D02*
X0177466Y0423754D01*
X0177466Y0421502D01*
X0178967Y0422253D01*
X0179718Y0422253D01*
X0180468Y0421502D01*
X0180468Y0420001D01*
X0179718Y0419250D01*
X0178216Y0419250D01*
X0177466Y0420001D01*
X0175864Y0419250D02*
X0172862Y0419250D01*
X0174363Y0419250D02*
X0174363Y0423754D01*
X0172862Y0422253D01*
X0171260Y0423003D02*
X0170510Y0423754D01*
X0168258Y0423754D01*
X0168258Y0419250D01*
X0170510Y0419250D01*
X0171260Y0420001D01*
X0171260Y0423003D01*
X0166656Y0423754D02*
X0166656Y0419250D01*
X0163654Y0423754D01*
X0163654Y0419250D01*
X0162053Y0420001D02*
X0162053Y0421502D01*
X0160551Y0421502D01*
X0159050Y0423003D02*
X0159801Y0423754D01*
X0161302Y0423754D01*
X0162053Y0423003D01*
X0162053Y0420001D02*
X0161302Y0419250D01*
X0159801Y0419250D01*
X0159050Y0420001D01*
X0159050Y0423003D01*
X0189800Y0369000D02*
X0189800Y0344000D01*
X0189800Y0329000D01*
X0209800Y0329000D01*
X0209800Y0369000D01*
X0189800Y0369000D01*
X0189800Y0344000D02*
X0189802Y0344141D01*
X0189808Y0344282D01*
X0189818Y0344422D01*
X0189832Y0344562D01*
X0189850Y0344702D01*
X0189871Y0344841D01*
X0189897Y0344980D01*
X0189926Y0345118D01*
X0189960Y0345254D01*
X0189997Y0345390D01*
X0190038Y0345525D01*
X0190083Y0345659D01*
X0190132Y0345791D01*
X0190184Y0345922D01*
X0190240Y0346051D01*
X0190300Y0346178D01*
X0190363Y0346304D01*
X0190429Y0346428D01*
X0190500Y0346551D01*
X0190573Y0346671D01*
X0190650Y0346789D01*
X0190730Y0346905D01*
X0190814Y0347018D01*
X0190900Y0347129D01*
X0190990Y0347238D01*
X0191083Y0347344D01*
X0191178Y0347447D01*
X0191277Y0347548D01*
X0191378Y0347646D01*
X0191482Y0347741D01*
X0191589Y0347833D01*
X0191698Y0347922D01*
X0191810Y0348007D01*
X0191924Y0348090D01*
X0192040Y0348170D01*
X0192159Y0348246D01*
X0192280Y0348318D01*
X0192402Y0348388D01*
X0192527Y0348453D01*
X0192653Y0348516D01*
X0192781Y0348574D01*
X0192911Y0348629D01*
X0193042Y0348681D01*
X0193175Y0348728D01*
X0193309Y0348772D01*
X0193444Y0348813D01*
X0193580Y0348849D01*
X0193717Y0348881D01*
X0193855Y0348910D01*
X0193993Y0348935D01*
X0194133Y0348955D01*
X0194273Y0348972D01*
X0194413Y0348985D01*
X0194554Y0348994D01*
X0194694Y0348999D01*
X0194835Y0349000D01*
X0194976Y0348997D01*
X0195117Y0348990D01*
X0195257Y0348979D01*
X0195397Y0348964D01*
X0195537Y0348945D01*
X0195676Y0348923D01*
X0195814Y0348896D01*
X0195952Y0348866D01*
X0196088Y0348831D01*
X0196224Y0348793D01*
X0196358Y0348751D01*
X0196492Y0348705D01*
X0196624Y0348656D01*
X0196754Y0348602D01*
X0196883Y0348545D01*
X0197010Y0348485D01*
X0197136Y0348421D01*
X0197259Y0348353D01*
X0197381Y0348282D01*
X0197501Y0348208D01*
X0197618Y0348130D01*
X0197733Y0348049D01*
X0197846Y0347965D01*
X0197957Y0347878D01*
X0198065Y0347787D01*
X0198170Y0347694D01*
X0198273Y0347597D01*
X0198373Y0347498D01*
X0198470Y0347396D01*
X0198564Y0347291D01*
X0198655Y0347184D01*
X0198743Y0347074D01*
X0198828Y0346962D01*
X0198910Y0346847D01*
X0198989Y0346730D01*
X0199064Y0346611D01*
X0199136Y0346490D01*
X0199204Y0346367D01*
X0199269Y0346242D01*
X0199331Y0346115D01*
X0199388Y0345986D01*
X0199443Y0345856D01*
X0199493Y0345725D01*
X0199540Y0345592D01*
X0199583Y0345458D01*
X0199622Y0345322D01*
X0199657Y0345186D01*
X0199689Y0345049D01*
X0199716Y0344911D01*
X0199740Y0344772D01*
X0199760Y0344632D01*
X0199776Y0344492D01*
X0199788Y0344352D01*
X0199796Y0344211D01*
X0199800Y0344070D01*
X0199800Y0343930D01*
X0199796Y0343789D01*
X0199788Y0343648D01*
X0199776Y0343508D01*
X0199760Y0343368D01*
X0199740Y0343228D01*
X0199716Y0343089D01*
X0199689Y0342951D01*
X0199657Y0342814D01*
X0199622Y0342678D01*
X0199583Y0342542D01*
X0199540Y0342408D01*
X0199493Y0342275D01*
X0199443Y0342144D01*
X0199388Y0342014D01*
X0199331Y0341885D01*
X0199269Y0341758D01*
X0199204Y0341633D01*
X0199136Y0341510D01*
X0199064Y0341389D01*
X0198989Y0341270D01*
X0198910Y0341153D01*
X0198828Y0341038D01*
X0198743Y0340926D01*
X0198655Y0340816D01*
X0198564Y0340709D01*
X0198470Y0340604D01*
X0198373Y0340502D01*
X0198273Y0340403D01*
X0198170Y0340306D01*
X0198065Y0340213D01*
X0197957Y0340122D01*
X0197846Y0340035D01*
X0197733Y0339951D01*
X0197618Y0339870D01*
X0197501Y0339792D01*
X0197381Y0339718D01*
X0197259Y0339647D01*
X0197136Y0339579D01*
X0197010Y0339515D01*
X0196883Y0339455D01*
X0196754Y0339398D01*
X0196624Y0339344D01*
X0196492Y0339295D01*
X0196358Y0339249D01*
X0196224Y0339207D01*
X0196088Y0339169D01*
X0195952Y0339134D01*
X0195814Y0339104D01*
X0195676Y0339077D01*
X0195537Y0339055D01*
X0195397Y0339036D01*
X0195257Y0339021D01*
X0195117Y0339010D01*
X0194976Y0339003D01*
X0194835Y0339000D01*
X0194694Y0339001D01*
X0194554Y0339006D01*
X0194413Y0339015D01*
X0194273Y0339028D01*
X0194133Y0339045D01*
X0193993Y0339065D01*
X0193855Y0339090D01*
X0193717Y0339119D01*
X0193580Y0339151D01*
X0193444Y0339187D01*
X0193309Y0339228D01*
X0193175Y0339272D01*
X0193042Y0339319D01*
X0192911Y0339371D01*
X0192781Y0339426D01*
X0192653Y0339484D01*
X0192527Y0339547D01*
X0192402Y0339612D01*
X0192280Y0339682D01*
X0192159Y0339754D01*
X0192040Y0339830D01*
X0191924Y0339910D01*
X0191810Y0339993D01*
X0191698Y0340078D01*
X0191589Y0340167D01*
X0191482Y0340259D01*
X0191378Y0340354D01*
X0191277Y0340452D01*
X0191178Y0340553D01*
X0191083Y0340656D01*
X0190990Y0340762D01*
X0190900Y0340871D01*
X0190814Y0340982D01*
X0190730Y0341095D01*
X0190650Y0341211D01*
X0190573Y0341329D01*
X0190500Y0341449D01*
X0190429Y0341572D01*
X0190363Y0341696D01*
X0190300Y0341822D01*
X0190240Y0341949D01*
X0190184Y0342078D01*
X0190132Y0342209D01*
X0190083Y0342341D01*
X0190038Y0342475D01*
X0189997Y0342610D01*
X0189960Y0342746D01*
X0189926Y0342882D01*
X0189897Y0343020D01*
X0189871Y0343159D01*
X0189850Y0343298D01*
X0189832Y0343438D01*
X0189818Y0343578D01*
X0189808Y0343718D01*
X0189802Y0343859D01*
X0189800Y0344000D01*
X0125800Y0316503D02*
X0122797Y0313501D01*
X0123548Y0312750D01*
X0125049Y0312750D01*
X0125800Y0313501D01*
X0125800Y0316503D01*
X0125049Y0317254D01*
X0123548Y0317254D01*
X0122797Y0316503D01*
X0122797Y0313501D01*
X0121196Y0312750D02*
X0118193Y0312750D01*
X0119694Y0312750D02*
X0119694Y0317254D01*
X0118193Y0315753D01*
X0116592Y0315002D02*
X0113589Y0315002D01*
X0111988Y0315002D02*
X0111988Y0313501D01*
X0111237Y0312750D01*
X0109736Y0312750D01*
X0108985Y0313501D01*
X0108985Y0315002D02*
X0110487Y0315753D01*
X0111237Y0315753D01*
X0111988Y0315002D01*
X0111988Y0317254D02*
X0108985Y0317254D01*
X0108985Y0315002D01*
X0107384Y0315753D02*
X0106633Y0315002D01*
X0107384Y0314251D01*
X0107384Y0313501D01*
X0106633Y0312750D01*
X0105132Y0312750D01*
X0104381Y0313501D01*
X0102780Y0313501D02*
X0102780Y0316503D01*
X0102029Y0317254D01*
X0100528Y0317254D01*
X0099777Y0316503D01*
X0099777Y0313501D01*
X0100528Y0312750D01*
X0102029Y0312750D01*
X0102780Y0313501D01*
X0104381Y0316503D02*
X0105132Y0317254D01*
X0106633Y0317254D01*
X0107384Y0316503D01*
X0107384Y0315753D01*
X0106633Y0315002D02*
X0105883Y0315002D01*
X0098176Y0313501D02*
X0098176Y0316503D01*
X0097425Y0317254D01*
X0095174Y0317254D01*
X0095174Y0312750D01*
X0097425Y0312750D01*
X0098176Y0313501D01*
X0093572Y0313501D02*
X0092822Y0312750D01*
X0091320Y0312750D01*
X0090570Y0313501D01*
X0090570Y0314251D01*
X0091320Y0315002D01*
X0092822Y0315002D01*
X0093572Y0314251D01*
X0093572Y0313501D01*
X0092822Y0315002D02*
X0093572Y0315753D01*
X0093572Y0316503D01*
X0092822Y0317254D01*
X0091320Y0317254D01*
X0090570Y0316503D01*
X0090570Y0315753D01*
X0091320Y0315002D01*
X0088968Y0315002D02*
X0085966Y0315002D01*
X0088218Y0317254D01*
X0088218Y0312750D01*
X0084364Y0312750D02*
X0081362Y0312750D01*
X0082863Y0312750D02*
X0082863Y0317254D01*
X0081362Y0315753D01*
X0079760Y0315002D02*
X0076758Y0315002D01*
X0079010Y0317254D01*
X0079010Y0312750D01*
X0075156Y0312750D02*
X0075156Y0317254D01*
X0072154Y0317254D02*
X0072154Y0312750D01*
X0070553Y0312750D02*
X0067550Y0312750D01*
X0069051Y0312750D02*
X0069051Y0317254D01*
X0067550Y0315753D01*
X0072154Y0317254D02*
X0075156Y0312750D01*
X0075156Y0328250D02*
X0072154Y0328250D01*
X0073655Y0328250D02*
X0073655Y0332754D01*
X0072154Y0331253D01*
X0070553Y0332003D02*
X0070553Y0329001D01*
X0069802Y0328250D01*
X0067550Y0328250D01*
X0067550Y0332754D01*
X0069802Y0332754D01*
X0070553Y0332003D01*
X0076758Y0331253D02*
X0078259Y0332754D01*
X0078259Y0328250D01*
X0076758Y0328250D02*
X0079760Y0328250D01*
X0043050Y0322646D02*
X0042299Y0322646D01*
X0039297Y0325649D01*
X0038546Y0325649D01*
X0038546Y0322646D01*
X0039297Y0321045D02*
X0038546Y0320294D01*
X0038546Y0318793D01*
X0039297Y0318042D01*
X0042299Y0318042D01*
X0043050Y0318793D01*
X0043050Y0320294D01*
X0042299Y0321045D01*
X0023550Y0320294D02*
X0023550Y0318793D01*
X0022799Y0318042D01*
X0019797Y0321045D01*
X0022799Y0321045D01*
X0023550Y0320294D01*
X0023550Y0322646D02*
X0020547Y0322646D01*
X0020547Y0324898D01*
X0021298Y0325649D01*
X0023550Y0325649D01*
X0019797Y0321045D02*
X0019046Y0320294D01*
X0019046Y0318793D01*
X0019797Y0318042D01*
X0022799Y0318042D01*
X0023550Y0316441D02*
X0023550Y0313438D01*
X0023550Y0314939D02*
X0019046Y0314939D01*
X0020547Y0313438D01*
X0063550Y0195754D02*
X0063550Y0192001D01*
X0064301Y0191250D01*
X0065802Y0191250D01*
X0066553Y0192001D01*
X0066553Y0195754D01*
X0068154Y0195003D02*
X0068905Y0195754D01*
X0070406Y0195754D01*
X0071156Y0195003D01*
X0072758Y0195003D02*
X0073508Y0195754D01*
X0075010Y0195754D01*
X0075760Y0195003D01*
X0075760Y0194253D01*
X0075010Y0193502D01*
X0075760Y0192751D01*
X0075760Y0192001D01*
X0075010Y0191250D01*
X0073508Y0191250D01*
X0072758Y0192001D01*
X0071156Y0192001D02*
X0071156Y0192751D01*
X0070406Y0193502D01*
X0068905Y0193502D01*
X0068154Y0194253D01*
X0068154Y0195003D01*
X0069655Y0196504D02*
X0069655Y0190499D01*
X0068905Y0191250D02*
X0070406Y0191250D01*
X0071156Y0192001D01*
X0068905Y0191250D02*
X0068154Y0192001D01*
X0072546Y0182649D02*
X0072546Y0179646D01*
X0074798Y0179646D01*
X0074047Y0181147D01*
X0074047Y0181898D01*
X0074798Y0182649D01*
X0076299Y0182649D01*
X0077050Y0181898D01*
X0077050Y0180397D01*
X0076299Y0179646D01*
X0077050Y0178045D02*
X0077050Y0175042D01*
X0074047Y0178045D01*
X0073297Y0178045D01*
X0072546Y0177294D01*
X0072546Y0175793D01*
X0073297Y0175042D01*
X0074798Y0173441D02*
X0074798Y0170438D01*
X0072546Y0172690D01*
X0077050Y0172690D01*
X0073297Y0168837D02*
X0072546Y0168837D01*
X0072546Y0165834D01*
X0073297Y0164233D02*
X0072546Y0163482D01*
X0072546Y0161981D01*
X0073297Y0161230D01*
X0073297Y0159629D02*
X0072546Y0158878D01*
X0072546Y0157377D01*
X0073297Y0156626D01*
X0076299Y0156626D01*
X0077050Y0157377D01*
X0077050Y0158878D01*
X0076299Y0159629D01*
X0077050Y0161230D02*
X0074047Y0164233D01*
X0073297Y0164233D01*
X0076299Y0165834D02*
X0077050Y0165834D01*
X0076299Y0165834D02*
X0073297Y0168837D01*
X0077050Y0164233D02*
X0077050Y0161230D01*
X0076299Y0155025D02*
X0077050Y0154274D01*
X0077050Y0152773D01*
X0076299Y0152022D01*
X0073297Y0152022D01*
X0072546Y0152773D01*
X0072546Y0154274D01*
X0073297Y0155025D01*
X0072546Y0150421D02*
X0076299Y0150421D01*
X0077050Y0149670D01*
X0077050Y0148169D01*
X0076299Y0147419D01*
X0072546Y0147419D01*
X0074259Y0193502D02*
X0075010Y0193502D01*
X0153801Y0048754D02*
X0153050Y0048003D01*
X0153050Y0045001D01*
X0153801Y0044250D01*
X0155302Y0044250D01*
X0156053Y0045001D01*
X0156053Y0046502D01*
X0154551Y0046502D01*
X0156053Y0048003D02*
X0155302Y0048754D01*
X0153801Y0048754D01*
X0157654Y0048754D02*
X0160656Y0044250D01*
X0160656Y0048754D01*
X0162258Y0048754D02*
X0164510Y0048754D01*
X0165260Y0048003D01*
X0165260Y0045001D01*
X0164510Y0044250D01*
X0162258Y0044250D01*
X0162258Y0048754D01*
X0157654Y0048754D02*
X0157654Y0044250D01*
X0179800Y0120000D02*
X0179800Y0135000D01*
X0179800Y0160000D01*
X0199800Y0160000D01*
X0199800Y0120000D01*
X0179800Y0120000D01*
X0179800Y0135000D02*
X0179802Y0135141D01*
X0179808Y0135282D01*
X0179818Y0135422D01*
X0179832Y0135562D01*
X0179850Y0135702D01*
X0179871Y0135841D01*
X0179897Y0135980D01*
X0179926Y0136118D01*
X0179960Y0136254D01*
X0179997Y0136390D01*
X0180038Y0136525D01*
X0180083Y0136659D01*
X0180132Y0136791D01*
X0180184Y0136922D01*
X0180240Y0137051D01*
X0180300Y0137178D01*
X0180363Y0137304D01*
X0180429Y0137428D01*
X0180500Y0137551D01*
X0180573Y0137671D01*
X0180650Y0137789D01*
X0180730Y0137905D01*
X0180814Y0138018D01*
X0180900Y0138129D01*
X0180990Y0138238D01*
X0181083Y0138344D01*
X0181178Y0138447D01*
X0181277Y0138548D01*
X0181378Y0138646D01*
X0181482Y0138741D01*
X0181589Y0138833D01*
X0181698Y0138922D01*
X0181810Y0139007D01*
X0181924Y0139090D01*
X0182040Y0139170D01*
X0182159Y0139246D01*
X0182280Y0139318D01*
X0182402Y0139388D01*
X0182527Y0139453D01*
X0182653Y0139516D01*
X0182781Y0139574D01*
X0182911Y0139629D01*
X0183042Y0139681D01*
X0183175Y0139728D01*
X0183309Y0139772D01*
X0183444Y0139813D01*
X0183580Y0139849D01*
X0183717Y0139881D01*
X0183855Y0139910D01*
X0183993Y0139935D01*
X0184133Y0139955D01*
X0184273Y0139972D01*
X0184413Y0139985D01*
X0184554Y0139994D01*
X0184694Y0139999D01*
X0184835Y0140000D01*
X0184976Y0139997D01*
X0185117Y0139990D01*
X0185257Y0139979D01*
X0185397Y0139964D01*
X0185537Y0139945D01*
X0185676Y0139923D01*
X0185814Y0139896D01*
X0185952Y0139866D01*
X0186088Y0139831D01*
X0186224Y0139793D01*
X0186358Y0139751D01*
X0186492Y0139705D01*
X0186624Y0139656D01*
X0186754Y0139602D01*
X0186883Y0139545D01*
X0187010Y0139485D01*
X0187136Y0139421D01*
X0187259Y0139353D01*
X0187381Y0139282D01*
X0187501Y0139208D01*
X0187618Y0139130D01*
X0187733Y0139049D01*
X0187846Y0138965D01*
X0187957Y0138878D01*
X0188065Y0138787D01*
X0188170Y0138694D01*
X0188273Y0138597D01*
X0188373Y0138498D01*
X0188470Y0138396D01*
X0188564Y0138291D01*
X0188655Y0138184D01*
X0188743Y0138074D01*
X0188828Y0137962D01*
X0188910Y0137847D01*
X0188989Y0137730D01*
X0189064Y0137611D01*
X0189136Y0137490D01*
X0189204Y0137367D01*
X0189269Y0137242D01*
X0189331Y0137115D01*
X0189388Y0136986D01*
X0189443Y0136856D01*
X0189493Y0136725D01*
X0189540Y0136592D01*
X0189583Y0136458D01*
X0189622Y0136322D01*
X0189657Y0136186D01*
X0189689Y0136049D01*
X0189716Y0135911D01*
X0189740Y0135772D01*
X0189760Y0135632D01*
X0189776Y0135492D01*
X0189788Y0135352D01*
X0189796Y0135211D01*
X0189800Y0135070D01*
X0189800Y0134930D01*
X0189796Y0134789D01*
X0189788Y0134648D01*
X0189776Y0134508D01*
X0189760Y0134368D01*
X0189740Y0134228D01*
X0189716Y0134089D01*
X0189689Y0133951D01*
X0189657Y0133814D01*
X0189622Y0133678D01*
X0189583Y0133542D01*
X0189540Y0133408D01*
X0189493Y0133275D01*
X0189443Y0133144D01*
X0189388Y0133014D01*
X0189331Y0132885D01*
X0189269Y0132758D01*
X0189204Y0132633D01*
X0189136Y0132510D01*
X0189064Y0132389D01*
X0188989Y0132270D01*
X0188910Y0132153D01*
X0188828Y0132038D01*
X0188743Y0131926D01*
X0188655Y0131816D01*
X0188564Y0131709D01*
X0188470Y0131604D01*
X0188373Y0131502D01*
X0188273Y0131403D01*
X0188170Y0131306D01*
X0188065Y0131213D01*
X0187957Y0131122D01*
X0187846Y0131035D01*
X0187733Y0130951D01*
X0187618Y0130870D01*
X0187501Y0130792D01*
X0187381Y0130718D01*
X0187259Y0130647D01*
X0187136Y0130579D01*
X0187010Y0130515D01*
X0186883Y0130455D01*
X0186754Y0130398D01*
X0186624Y0130344D01*
X0186492Y0130295D01*
X0186358Y0130249D01*
X0186224Y0130207D01*
X0186088Y0130169D01*
X0185952Y0130134D01*
X0185814Y0130104D01*
X0185676Y0130077D01*
X0185537Y0130055D01*
X0185397Y0130036D01*
X0185257Y0130021D01*
X0185117Y0130010D01*
X0184976Y0130003D01*
X0184835Y0130000D01*
X0184694Y0130001D01*
X0184554Y0130006D01*
X0184413Y0130015D01*
X0184273Y0130028D01*
X0184133Y0130045D01*
X0183993Y0130065D01*
X0183855Y0130090D01*
X0183717Y0130119D01*
X0183580Y0130151D01*
X0183444Y0130187D01*
X0183309Y0130228D01*
X0183175Y0130272D01*
X0183042Y0130319D01*
X0182911Y0130371D01*
X0182781Y0130426D01*
X0182653Y0130484D01*
X0182527Y0130547D01*
X0182402Y0130612D01*
X0182280Y0130682D01*
X0182159Y0130754D01*
X0182040Y0130830D01*
X0181924Y0130910D01*
X0181810Y0130993D01*
X0181698Y0131078D01*
X0181589Y0131167D01*
X0181482Y0131259D01*
X0181378Y0131354D01*
X0181277Y0131452D01*
X0181178Y0131553D01*
X0181083Y0131656D01*
X0180990Y0131762D01*
X0180900Y0131871D01*
X0180814Y0131982D01*
X0180730Y0132095D01*
X0180650Y0132211D01*
X0180573Y0132329D01*
X0180500Y0132449D01*
X0180429Y0132572D01*
X0180363Y0132696D01*
X0180300Y0132822D01*
X0180240Y0132949D01*
X0180184Y0133078D01*
X0180132Y0133209D01*
X0180083Y0133341D01*
X0180038Y0133475D01*
X0179997Y0133610D01*
X0179960Y0133746D01*
X0179926Y0133882D01*
X0179897Y0134020D01*
X0179871Y0134159D01*
X0179850Y0134298D01*
X0179832Y0134438D01*
X0179818Y0134578D01*
X0179808Y0134718D01*
X0179802Y0134859D01*
X0179800Y0135000D01*
X0241739Y0039754D02*
X0240238Y0038253D01*
X0241739Y0039754D02*
X0241739Y0035250D01*
X0240238Y0035250D02*
X0243241Y0035250D01*
X0244842Y0036001D02*
X0247845Y0039003D01*
X0247845Y0036001D01*
X0247094Y0035250D01*
X0245593Y0035250D01*
X0244842Y0036001D01*
X0244842Y0039003D01*
X0245593Y0039754D01*
X0247094Y0039754D01*
X0247845Y0039003D01*
X0249446Y0038253D02*
X0251698Y0038253D01*
X0252449Y0037502D01*
X0252449Y0036001D01*
X0251698Y0035250D01*
X0249446Y0035250D01*
X0249446Y0033749D02*
X0249446Y0038253D01*
X0263593Y0018254D02*
X0262842Y0017503D01*
X0262842Y0014501D01*
X0263593Y0013750D01*
X0265094Y0013750D01*
X0265845Y0014501D01*
X0267446Y0014501D02*
X0268197Y0013750D01*
X0269698Y0013750D01*
X0270449Y0014501D01*
X0270449Y0017503D01*
X0269698Y0018254D01*
X0268197Y0018254D01*
X0267446Y0017503D01*
X0267446Y0016753D01*
X0268197Y0016002D01*
X0270449Y0016002D01*
X0265845Y0017503D02*
X0265094Y0018254D01*
X0263593Y0018254D01*
X0287800Y0054000D02*
X0337800Y0054000D01*
X0337800Y0104000D01*
X0287800Y0104000D01*
X0287800Y0054000D01*
X0287800Y0133000D02*
X0337800Y0133000D01*
X0337800Y0183000D01*
X0287800Y0183000D01*
X0287800Y0133000D01*
X0342050Y0047754D02*
X0342050Y0043250D01*
X0342050Y0045502D02*
X0345053Y0045502D01*
X0346654Y0044751D02*
X0348155Y0043250D01*
X0349656Y0044751D01*
X0349656Y0047754D01*
X0351258Y0047003D02*
X0352008Y0047754D01*
X0353510Y0047754D01*
X0354260Y0047003D01*
X0354260Y0046253D01*
X0351258Y0043250D01*
X0354260Y0043250D01*
X0346654Y0044751D02*
X0346654Y0047754D01*
X0345053Y0047754D02*
X0345053Y0043250D01*
X0357343Y0056904D02*
X0356593Y0057654D01*
X0357343Y0056904D02*
X0358844Y0056904D01*
X0359595Y0057654D01*
X0359595Y0058405D01*
X0358844Y0059155D01*
X0357343Y0059155D01*
X0356593Y0059906D01*
X0356593Y0060657D01*
X0357343Y0061407D01*
X0358844Y0061407D01*
X0359595Y0060657D01*
X0361196Y0061407D02*
X0362698Y0059906D01*
X0364199Y0061407D01*
X0364199Y0056904D01*
X0365800Y0056904D02*
X0368052Y0056904D01*
X0368803Y0057654D01*
X0368803Y0058405D01*
X0368052Y0059155D01*
X0365800Y0059155D01*
X0365800Y0056904D02*
X0365800Y0061407D01*
X0368052Y0061407D01*
X0368803Y0060657D01*
X0368803Y0059906D01*
X0368052Y0059155D01*
X0370404Y0057654D02*
X0371155Y0056904D01*
X0371906Y0056904D01*
X0372656Y0057654D01*
X0372656Y0061407D01*
X0371906Y0061407D02*
X0373407Y0061407D01*
X0375008Y0059906D02*
X0376510Y0061407D01*
X0376510Y0056904D01*
X0378011Y0056904D02*
X0375008Y0056904D01*
X0379612Y0056904D02*
X0379612Y0057654D01*
X0382615Y0060657D01*
X0382615Y0061407D01*
X0379612Y0061407D01*
X0384216Y0060657D02*
X0384216Y0057654D01*
X0387219Y0060657D01*
X0387219Y0057654D01*
X0386468Y0056904D01*
X0384967Y0056904D01*
X0384216Y0057654D01*
X0384216Y0060657D02*
X0384967Y0061407D01*
X0386468Y0061407D01*
X0387219Y0060657D01*
X0388820Y0061407D02*
X0391072Y0061407D01*
X0391823Y0060657D01*
X0391823Y0057654D01*
X0391072Y0056904D01*
X0388820Y0056904D01*
X0388820Y0061407D01*
X0393424Y0059155D02*
X0396427Y0059155D01*
X0398028Y0056904D02*
X0398028Y0061407D01*
X0399529Y0059906D01*
X0401030Y0061407D01*
X0401030Y0056904D01*
X0402632Y0057654D02*
X0403382Y0056904D01*
X0404884Y0056904D01*
X0405634Y0057654D01*
X0405634Y0058405D01*
X0404884Y0059155D01*
X0404133Y0059155D01*
X0404884Y0059155D02*
X0405634Y0059906D01*
X0405634Y0060657D01*
X0404884Y0061407D01*
X0403382Y0061407D01*
X0402632Y0060657D01*
X0407236Y0056904D02*
X0410238Y0061407D01*
X0411840Y0061407D02*
X0411840Y0056904D01*
X0411840Y0059155D02*
X0414842Y0059155D01*
X0414842Y0056904D02*
X0414842Y0061407D01*
X0415573Y0068596D02*
X0415573Y0073100D01*
X0414072Y0071599D01*
X0412471Y0073100D02*
X0410969Y0073100D01*
X0411720Y0073100D02*
X0411720Y0069347D01*
X0410969Y0068596D01*
X0410219Y0068596D01*
X0409468Y0069347D01*
X0407867Y0069347D02*
X0407116Y0068596D01*
X0404864Y0068596D01*
X0404864Y0073100D01*
X0407116Y0073100D01*
X0407867Y0072350D01*
X0407867Y0071599D01*
X0407116Y0070848D01*
X0404864Y0070848D01*
X0407116Y0070848D02*
X0407867Y0070098D01*
X0407867Y0069347D01*
X0403263Y0068596D02*
X0403263Y0073100D01*
X0401762Y0071599D01*
X0400260Y0073100D01*
X0400260Y0068596D01*
X0398659Y0069347D02*
X0397908Y0068596D01*
X0396407Y0068596D01*
X0395656Y0069347D01*
X0396407Y0070848D02*
X0397908Y0070848D01*
X0398659Y0070098D01*
X0398659Y0069347D01*
X0396407Y0070848D02*
X0395656Y0071599D01*
X0395656Y0072350D01*
X0396407Y0073100D01*
X0397908Y0073100D01*
X0398659Y0072350D01*
X0401762Y0084153D02*
X0401762Y0090158D01*
X0402512Y0089407D02*
X0403263Y0088657D01*
X0402512Y0089407D02*
X0401011Y0089407D01*
X0400260Y0088657D01*
X0400260Y0087906D01*
X0401011Y0087155D01*
X0402512Y0087155D01*
X0403263Y0086405D01*
X0403263Y0085654D01*
X0402512Y0084904D01*
X0401011Y0084904D01*
X0400260Y0085654D01*
X0398659Y0085654D02*
X0397908Y0084904D01*
X0396407Y0084904D01*
X0395656Y0085654D01*
X0395656Y0089407D01*
X0398659Y0089407D02*
X0398659Y0085654D01*
X0398779Y0094596D02*
X0400280Y0094596D01*
X0401031Y0095347D01*
X0401031Y0099100D01*
X0402632Y0098350D02*
X0403383Y0099100D01*
X0404884Y0099100D01*
X0405634Y0098350D01*
X0407236Y0098350D02*
X0407986Y0099100D01*
X0409488Y0099100D01*
X0410238Y0098350D01*
X0410238Y0097599D01*
X0407236Y0094596D01*
X0410238Y0094596D01*
X0411840Y0095347D02*
X0414842Y0098350D01*
X0414842Y0095347D01*
X0414092Y0094596D01*
X0412590Y0094596D01*
X0411840Y0095347D01*
X0411840Y0098350D01*
X0412590Y0099100D01*
X0414092Y0099100D01*
X0414842Y0098350D01*
X0411720Y0089407D02*
X0410219Y0089407D01*
X0409468Y0088657D01*
X0409468Y0087906D01*
X0410219Y0087155D01*
X0412471Y0087155D01*
X0412471Y0085654D02*
X0412471Y0088657D01*
X0411720Y0089407D01*
X0412471Y0085654D02*
X0411720Y0084904D01*
X0410219Y0084904D01*
X0409468Y0085654D01*
X0407867Y0084904D02*
X0404864Y0084904D01*
X0406365Y0084904D02*
X0406365Y0089407D01*
X0404864Y0087906D01*
X0404133Y0093846D02*
X0404133Y0099851D01*
X0402632Y0098350D02*
X0402632Y0097599D01*
X0403383Y0096848D01*
X0404884Y0096848D01*
X0405634Y0096098D01*
X0405634Y0095347D01*
X0404884Y0094596D01*
X0403383Y0094596D01*
X0402632Y0095347D01*
X0398779Y0094596D02*
X0398028Y0095347D01*
X0398028Y0099100D01*
X0398028Y0110904D02*
X0398028Y0115407D01*
X0399529Y0113906D01*
X0401030Y0115407D01*
X0401030Y0110904D01*
X0402632Y0111654D02*
X0403382Y0110904D01*
X0404884Y0110904D01*
X0405634Y0111654D01*
X0405634Y0112405D01*
X0404884Y0113155D01*
X0404133Y0113155D01*
X0404884Y0113155D02*
X0405634Y0113906D01*
X0405634Y0114657D01*
X0404884Y0115407D01*
X0403382Y0115407D01*
X0402632Y0114657D01*
X0407236Y0110904D02*
X0410238Y0115407D01*
X0411840Y0115407D02*
X0411840Y0110904D01*
X0411840Y0113155D02*
X0414842Y0113155D01*
X0414842Y0110904D02*
X0414842Y0115407D01*
X0415573Y0120596D02*
X0415573Y0125100D01*
X0414072Y0123599D01*
X0412471Y0125100D02*
X0410969Y0125100D01*
X0411720Y0125100D02*
X0411720Y0121347D01*
X0410969Y0120596D01*
X0410219Y0120596D01*
X0409468Y0121347D01*
X0407867Y0121347D02*
X0407116Y0120596D01*
X0404864Y0120596D01*
X0404864Y0125100D01*
X0407116Y0125100D01*
X0407867Y0124350D01*
X0407867Y0123599D01*
X0407116Y0122848D01*
X0404864Y0122848D01*
X0407116Y0122848D02*
X0407867Y0122098D01*
X0407867Y0121347D01*
X0403263Y0120596D02*
X0403263Y0125100D01*
X0401762Y0123599D01*
X0400260Y0125100D01*
X0400260Y0120596D01*
X0398659Y0121347D02*
X0397908Y0120596D01*
X0396407Y0120596D01*
X0395656Y0121347D01*
X0396407Y0122848D02*
X0397908Y0122848D01*
X0398659Y0122098D01*
X0398659Y0121347D01*
X0396407Y0122848D02*
X0395656Y0123599D01*
X0395656Y0124350D01*
X0396407Y0125100D01*
X0397908Y0125100D01*
X0398659Y0124350D01*
X0396427Y0113155D02*
X0393424Y0113155D01*
X0391823Y0111654D02*
X0391823Y0114657D01*
X0391072Y0115407D01*
X0388820Y0115407D01*
X0388820Y0110904D01*
X0391072Y0110904D01*
X0391823Y0111654D01*
X0387219Y0111654D02*
X0386468Y0110904D01*
X0384967Y0110904D01*
X0384216Y0111654D01*
X0387219Y0114657D01*
X0387219Y0111654D01*
X0387219Y0114657D02*
X0386468Y0115407D01*
X0384967Y0115407D01*
X0384216Y0114657D01*
X0384216Y0111654D01*
X0382615Y0114657D02*
X0379612Y0111654D01*
X0379612Y0110904D01*
X0378011Y0110904D02*
X0375008Y0110904D01*
X0376510Y0110904D02*
X0376510Y0115407D01*
X0375008Y0113906D01*
X0373407Y0115407D02*
X0371906Y0115407D01*
X0372656Y0115407D02*
X0372656Y0111654D01*
X0371906Y0110904D01*
X0371155Y0110904D01*
X0370404Y0111654D01*
X0368803Y0111654D02*
X0368052Y0110904D01*
X0365800Y0110904D01*
X0365800Y0115407D01*
X0368052Y0115407D01*
X0368803Y0114657D01*
X0368803Y0113906D01*
X0368052Y0113155D01*
X0365800Y0113155D01*
X0368052Y0113155D02*
X0368803Y0112405D01*
X0368803Y0111654D01*
X0364199Y0110904D02*
X0364199Y0115407D01*
X0362698Y0113906D01*
X0361196Y0115407D01*
X0361196Y0110904D01*
X0359595Y0111654D02*
X0358844Y0110904D01*
X0357343Y0110904D01*
X0356593Y0111654D01*
X0357343Y0113155D02*
X0358844Y0113155D01*
X0359595Y0112405D01*
X0359595Y0111654D01*
X0357343Y0113155D02*
X0356593Y0113906D01*
X0356593Y0114657D01*
X0357343Y0115407D01*
X0358844Y0115407D01*
X0359595Y0114657D01*
X0379612Y0115407D02*
X0382615Y0115407D01*
X0382615Y0114657D01*
X0396407Y0136904D02*
X0397908Y0136904D01*
X0398659Y0137654D01*
X0398659Y0141407D01*
X0400260Y0140657D02*
X0401011Y0141407D01*
X0402512Y0141407D01*
X0403263Y0140657D01*
X0404864Y0140657D02*
X0405615Y0141407D01*
X0407116Y0141407D01*
X0407867Y0140657D01*
X0407867Y0139906D01*
X0404864Y0136904D01*
X0407867Y0136904D01*
X0409468Y0136904D02*
X0412471Y0136904D01*
X0410969Y0136904D02*
X0410969Y0141407D01*
X0409468Y0139906D01*
X0403263Y0138405D02*
X0402512Y0139155D01*
X0401011Y0139155D01*
X0400260Y0139906D01*
X0400260Y0140657D01*
X0401762Y0142158D02*
X0401762Y0136153D01*
X0402512Y0136904D02*
X0403263Y0137654D01*
X0403263Y0138405D01*
X0402512Y0136904D02*
X0401011Y0136904D01*
X0400260Y0137654D01*
X0396407Y0136904D02*
X0395656Y0137654D01*
X0395656Y0141407D01*
X0414072Y0120596D02*
X0417075Y0120596D01*
X0418676Y0120596D02*
X0418676Y0121347D01*
X0421678Y0124350D01*
X0421678Y0125100D01*
X0418676Y0125100D01*
X0423280Y0124350D02*
X0424030Y0125100D01*
X0425532Y0125100D01*
X0426282Y0124350D01*
X0423280Y0121347D01*
X0424030Y0120596D01*
X0425532Y0120596D01*
X0426282Y0121347D01*
X0426282Y0124350D01*
X0427884Y0125100D02*
X0430136Y0125100D01*
X0430886Y0124350D01*
X0430886Y0121347D01*
X0430136Y0120596D01*
X0427884Y0120596D01*
X0427884Y0125100D01*
X0423280Y0124350D02*
X0423280Y0121347D01*
X0432488Y0122848D02*
X0435490Y0122848D01*
X0437092Y0120596D02*
X0437092Y0125100D01*
X0438593Y0123599D01*
X0440094Y0125100D01*
X0440094Y0120596D01*
X0441696Y0121347D02*
X0442446Y0120596D01*
X0443947Y0120596D01*
X0444698Y0121347D01*
X0444698Y0122098D01*
X0443947Y0122848D01*
X0443197Y0122848D01*
X0443947Y0122848D02*
X0444698Y0123599D01*
X0444698Y0124350D01*
X0443947Y0125100D01*
X0442446Y0125100D01*
X0441696Y0124350D01*
X0446299Y0120596D02*
X0449302Y0125100D01*
X0450903Y0125100D02*
X0450903Y0120596D01*
X0450903Y0122848D02*
X0453906Y0122848D01*
X0453906Y0125100D02*
X0453906Y0120596D01*
X0453906Y0073100D02*
X0453906Y0068596D01*
X0453906Y0070848D02*
X0450903Y0070848D01*
X0450903Y0068596D02*
X0450903Y0073100D01*
X0449302Y0073100D02*
X0446299Y0068596D01*
X0444698Y0069347D02*
X0443947Y0068596D01*
X0442446Y0068596D01*
X0441696Y0069347D01*
X0440094Y0068596D02*
X0440094Y0073100D01*
X0438593Y0071599D01*
X0437092Y0073100D01*
X0437092Y0068596D01*
X0435490Y0070848D02*
X0432488Y0070848D01*
X0430886Y0069347D02*
X0430886Y0072350D01*
X0430136Y0073100D01*
X0427884Y0073100D01*
X0427884Y0068596D01*
X0430136Y0068596D01*
X0430886Y0069347D01*
X0426282Y0069347D02*
X0425532Y0068596D01*
X0424030Y0068596D01*
X0423280Y0069347D01*
X0426282Y0072350D01*
X0426282Y0069347D01*
X0423280Y0069347D02*
X0423280Y0072350D01*
X0424030Y0073100D01*
X0425532Y0073100D01*
X0426282Y0072350D01*
X0421678Y0072350D02*
X0418676Y0069347D01*
X0418676Y0068596D01*
X0417075Y0068596D02*
X0414072Y0068596D01*
X0418676Y0073100D02*
X0421678Y0073100D01*
X0421678Y0072350D01*
X0414092Y0045100D02*
X0412590Y0045100D01*
X0411840Y0044350D01*
X0411840Y0043599D01*
X0412590Y0042848D01*
X0414092Y0042848D01*
X0414842Y0042098D01*
X0414842Y0041347D01*
X0414092Y0040596D01*
X0412590Y0040596D01*
X0411840Y0041347D01*
X0411840Y0042098D01*
X0412590Y0042848D01*
X0414092Y0042848D02*
X0414842Y0043599D01*
X0414842Y0044350D01*
X0414092Y0045100D01*
X0410238Y0040596D02*
X0407236Y0040596D01*
X0408737Y0040596D02*
X0408737Y0045100D01*
X0407236Y0043599D01*
X0405634Y0044350D02*
X0404884Y0045100D01*
X0403383Y0045100D01*
X0402632Y0044350D01*
X0402632Y0043599D01*
X0403383Y0042848D01*
X0404884Y0042848D01*
X0405634Y0042098D01*
X0405634Y0041347D01*
X0404884Y0040596D01*
X0403383Y0040596D01*
X0402632Y0041347D01*
X0401031Y0041347D02*
X0401031Y0045100D01*
X0398028Y0045100D02*
X0398028Y0041347D01*
X0398779Y0040596D01*
X0400280Y0040596D01*
X0401031Y0041347D01*
X0404133Y0039846D02*
X0404133Y0045851D01*
X0361196Y0056904D02*
X0361196Y0061407D01*
X0441696Y0072350D02*
X0442446Y0073100D01*
X0443947Y0073100D01*
X0444698Y0072350D01*
X0444698Y0071599D01*
X0443947Y0070848D01*
X0444698Y0070098D01*
X0444698Y0069347D01*
X0443947Y0070848D02*
X0443197Y0070848D01*
X0394759Y0223250D02*
X0394759Y0227754D01*
X0393258Y0227754D02*
X0396260Y0227754D01*
X0391656Y0227754D02*
X0391656Y0224001D01*
X0390906Y0223250D01*
X0389405Y0223250D01*
X0388654Y0224001D01*
X0388654Y0227754D01*
X0387053Y0227003D02*
X0386302Y0227754D01*
X0384801Y0227754D01*
X0384050Y0227003D01*
X0384050Y0224001D01*
X0384801Y0223250D01*
X0386302Y0223250D01*
X0387053Y0224001D01*
X0387053Y0227003D01*
X0399779Y0294596D02*
X0401280Y0294596D01*
X0402031Y0295347D01*
X0402031Y0299100D01*
X0403632Y0298350D02*
X0404383Y0299100D01*
X0405884Y0299100D01*
X0406634Y0298350D01*
X0405884Y0296848D02*
X0404383Y0296848D01*
X0403632Y0297599D01*
X0403632Y0298350D01*
X0405133Y0299851D02*
X0405133Y0293846D01*
X0404383Y0294596D02*
X0405884Y0294596D01*
X0406634Y0295347D01*
X0406634Y0296098D01*
X0405884Y0296848D01*
X0408236Y0297599D02*
X0409737Y0299100D01*
X0409737Y0294596D01*
X0408236Y0294596D02*
X0411238Y0294596D01*
X0412840Y0294596D02*
X0412840Y0295347D01*
X0415842Y0298350D01*
X0415842Y0299100D01*
X0412840Y0299100D01*
X0412840Y0310904D02*
X0412840Y0315407D01*
X0411238Y0315407D02*
X0408236Y0310904D01*
X0406634Y0311654D02*
X0405884Y0310904D01*
X0404382Y0310904D01*
X0403632Y0311654D01*
X0402030Y0310904D02*
X0402030Y0315407D01*
X0400529Y0313906D01*
X0399028Y0315407D01*
X0399028Y0310904D01*
X0397427Y0313155D02*
X0394424Y0313155D01*
X0392823Y0311654D02*
X0392823Y0314657D01*
X0392072Y0315407D01*
X0389820Y0315407D01*
X0389820Y0310904D01*
X0392072Y0310904D01*
X0392823Y0311654D01*
X0388219Y0311654D02*
X0387468Y0310904D01*
X0385967Y0310904D01*
X0385216Y0311654D01*
X0388219Y0314657D01*
X0388219Y0311654D01*
X0388219Y0314657D02*
X0387468Y0315407D01*
X0385967Y0315407D01*
X0385216Y0314657D01*
X0385216Y0311654D01*
X0383615Y0314657D02*
X0380612Y0311654D01*
X0380612Y0310904D01*
X0379011Y0310904D02*
X0376008Y0310904D01*
X0377510Y0310904D02*
X0377510Y0315407D01*
X0376008Y0313906D01*
X0374407Y0315407D02*
X0372906Y0315407D01*
X0373656Y0315407D02*
X0373656Y0311654D01*
X0372906Y0310904D01*
X0372155Y0310904D01*
X0371404Y0311654D01*
X0369803Y0311654D02*
X0369052Y0310904D01*
X0366800Y0310904D01*
X0366800Y0315407D01*
X0369052Y0315407D01*
X0369803Y0314657D01*
X0369803Y0313906D01*
X0369052Y0313155D01*
X0366800Y0313155D01*
X0369052Y0313155D02*
X0369803Y0312405D01*
X0369803Y0311654D01*
X0365199Y0310904D02*
X0365199Y0315407D01*
X0363698Y0313906D01*
X0362196Y0315407D01*
X0362196Y0310904D01*
X0360595Y0311654D02*
X0359844Y0310904D01*
X0358343Y0310904D01*
X0357593Y0311654D01*
X0358343Y0313155D02*
X0359844Y0313155D01*
X0360595Y0312405D01*
X0360595Y0311654D01*
X0358343Y0313155D02*
X0357593Y0313906D01*
X0357593Y0314657D01*
X0358343Y0315407D01*
X0359844Y0315407D01*
X0360595Y0314657D01*
X0380612Y0315407D02*
X0383615Y0315407D01*
X0383615Y0314657D01*
X0396656Y0320347D02*
X0397407Y0319596D01*
X0398908Y0319596D01*
X0399659Y0320347D01*
X0399659Y0321098D01*
X0398908Y0321848D01*
X0397407Y0321848D01*
X0396656Y0322599D01*
X0396656Y0323350D01*
X0397407Y0324100D01*
X0398908Y0324100D01*
X0399659Y0323350D01*
X0401260Y0324100D02*
X0402762Y0322599D01*
X0404263Y0324100D01*
X0404263Y0319596D01*
X0405864Y0319596D02*
X0405864Y0324100D01*
X0408116Y0324100D01*
X0408867Y0323350D01*
X0408867Y0322599D01*
X0408116Y0321848D01*
X0405864Y0321848D01*
X0405864Y0319596D02*
X0408116Y0319596D01*
X0408867Y0320347D01*
X0408867Y0321098D01*
X0408116Y0321848D01*
X0410468Y0320347D02*
X0411219Y0319596D01*
X0411969Y0319596D01*
X0412720Y0320347D01*
X0412720Y0324100D01*
X0411969Y0324100D02*
X0413471Y0324100D01*
X0415072Y0322599D02*
X0416573Y0324100D01*
X0416573Y0319596D01*
X0415072Y0319596D02*
X0418075Y0319596D01*
X0419676Y0319596D02*
X0419676Y0320347D01*
X0422678Y0323350D01*
X0422678Y0324100D01*
X0419676Y0324100D01*
X0424280Y0323350D02*
X0424280Y0320347D01*
X0427282Y0323350D01*
X0427282Y0320347D01*
X0426532Y0319596D01*
X0425030Y0319596D01*
X0424280Y0320347D01*
X0424280Y0323350D02*
X0425030Y0324100D01*
X0426532Y0324100D01*
X0427282Y0323350D01*
X0428884Y0324100D02*
X0428884Y0319596D01*
X0431136Y0319596D01*
X0431886Y0320347D01*
X0431886Y0323350D01*
X0431136Y0324100D01*
X0428884Y0324100D01*
X0433488Y0321848D02*
X0436490Y0321848D01*
X0438092Y0319596D02*
X0438092Y0324100D01*
X0439593Y0322599D01*
X0441094Y0324100D01*
X0441094Y0319596D01*
X0442696Y0320347D02*
X0443446Y0319596D01*
X0444947Y0319596D01*
X0445698Y0320347D01*
X0445698Y0321098D01*
X0444947Y0321848D01*
X0444197Y0321848D01*
X0444947Y0321848D02*
X0445698Y0322599D01*
X0445698Y0323350D01*
X0444947Y0324100D01*
X0443446Y0324100D01*
X0442696Y0323350D01*
X0447299Y0319596D02*
X0450302Y0324100D01*
X0451903Y0324100D02*
X0451903Y0319596D01*
X0451903Y0321848D02*
X0454906Y0321848D01*
X0454906Y0324100D02*
X0454906Y0319596D01*
X0454906Y0365596D02*
X0454906Y0370100D01*
X0454906Y0367848D02*
X0451903Y0367848D01*
X0451903Y0365596D02*
X0451903Y0370100D01*
X0450302Y0370100D02*
X0447299Y0365596D01*
X0445698Y0366347D02*
X0444947Y0365596D01*
X0443446Y0365596D01*
X0442696Y0366347D01*
X0441094Y0365596D02*
X0441094Y0370100D01*
X0439593Y0368599D01*
X0438092Y0370100D01*
X0438092Y0365596D01*
X0436490Y0367848D02*
X0433488Y0367848D01*
X0431886Y0366347D02*
X0431136Y0365596D01*
X0428884Y0365596D01*
X0428884Y0370100D01*
X0431136Y0370100D01*
X0431886Y0369350D01*
X0431886Y0366347D01*
X0427282Y0366347D02*
X0426532Y0365596D01*
X0425030Y0365596D01*
X0424280Y0366347D01*
X0427282Y0369350D01*
X0427282Y0366347D01*
X0424280Y0366347D02*
X0424280Y0369350D01*
X0425030Y0370100D01*
X0426532Y0370100D01*
X0427282Y0369350D01*
X0422678Y0369350D02*
X0419676Y0366347D01*
X0419676Y0365596D01*
X0418075Y0365596D02*
X0415072Y0365596D01*
X0416573Y0365596D02*
X0416573Y0370100D01*
X0415072Y0368599D01*
X0413471Y0370100D02*
X0411969Y0370100D01*
X0412720Y0370100D02*
X0412720Y0366347D01*
X0411969Y0365596D01*
X0411219Y0365596D01*
X0410468Y0366347D01*
X0408867Y0366347D02*
X0408116Y0365596D01*
X0405864Y0365596D01*
X0405864Y0370100D01*
X0408116Y0370100D01*
X0408867Y0369350D01*
X0408867Y0368599D01*
X0408116Y0367848D01*
X0405864Y0367848D01*
X0408116Y0367848D02*
X0408867Y0367098D01*
X0408867Y0366347D01*
X0411238Y0363407D02*
X0408236Y0358904D01*
X0406634Y0359654D02*
X0405884Y0358904D01*
X0404382Y0358904D01*
X0403632Y0359654D01*
X0402030Y0358904D02*
X0402030Y0363407D01*
X0400529Y0361906D01*
X0399028Y0363407D01*
X0399028Y0358904D01*
X0397427Y0361155D02*
X0394424Y0361155D01*
X0392823Y0359654D02*
X0392823Y0362657D01*
X0392072Y0363407D01*
X0389820Y0363407D01*
X0389820Y0358904D01*
X0392072Y0358904D01*
X0392823Y0359654D01*
X0388219Y0359654D02*
X0387468Y0358904D01*
X0385967Y0358904D01*
X0385216Y0359654D01*
X0388219Y0362657D01*
X0388219Y0359654D01*
X0388219Y0362657D02*
X0387468Y0363407D01*
X0385967Y0363407D01*
X0385216Y0362657D01*
X0385216Y0359654D01*
X0383615Y0362657D02*
X0380612Y0359654D01*
X0380612Y0358904D01*
X0379011Y0358904D02*
X0376008Y0358904D01*
X0377510Y0358904D02*
X0377510Y0363407D01*
X0376008Y0361906D01*
X0374407Y0363407D02*
X0372906Y0363407D01*
X0373656Y0363407D02*
X0373656Y0359654D01*
X0372906Y0358904D01*
X0372155Y0358904D01*
X0371404Y0359654D01*
X0369803Y0359654D02*
X0369052Y0358904D01*
X0366800Y0358904D01*
X0366800Y0363407D01*
X0369052Y0363407D01*
X0369803Y0362657D01*
X0369803Y0361906D01*
X0369052Y0361155D01*
X0366800Y0361155D01*
X0369052Y0361155D02*
X0369803Y0360405D01*
X0369803Y0359654D01*
X0365199Y0358904D02*
X0365199Y0363407D01*
X0363698Y0361906D01*
X0362196Y0363407D01*
X0362196Y0358904D01*
X0360595Y0359654D02*
X0359844Y0358904D01*
X0358343Y0358904D01*
X0357593Y0359654D01*
X0358343Y0361155D02*
X0359844Y0361155D01*
X0360595Y0360405D01*
X0360595Y0359654D01*
X0358343Y0361155D02*
X0357593Y0361906D01*
X0357593Y0362657D01*
X0358343Y0363407D01*
X0359844Y0363407D01*
X0360595Y0362657D01*
X0380612Y0363407D02*
X0383615Y0363407D01*
X0383615Y0362657D01*
X0396656Y0366347D02*
X0397407Y0365596D01*
X0398908Y0365596D01*
X0399659Y0366347D01*
X0399659Y0367098D01*
X0398908Y0367848D01*
X0397407Y0367848D01*
X0396656Y0368599D01*
X0396656Y0369350D01*
X0397407Y0370100D01*
X0398908Y0370100D01*
X0399659Y0369350D01*
X0401260Y0370100D02*
X0401260Y0365596D01*
X0404263Y0365596D02*
X0404263Y0370100D01*
X0402762Y0368599D01*
X0401260Y0370100D01*
X0404382Y0363407D02*
X0405884Y0363407D01*
X0406634Y0362657D01*
X0406634Y0361906D01*
X0405884Y0361155D01*
X0406634Y0360405D01*
X0406634Y0359654D01*
X0405884Y0361155D02*
X0405133Y0361155D01*
X0403632Y0362657D02*
X0404382Y0363407D01*
X0412840Y0363407D02*
X0412840Y0358904D01*
X0412840Y0361155D02*
X0415842Y0361155D01*
X0415842Y0358904D02*
X0415842Y0363407D01*
X0419676Y0370100D02*
X0422678Y0370100D01*
X0422678Y0369350D01*
X0412720Y0381904D02*
X0412720Y0386407D01*
X0410468Y0384155D01*
X0413471Y0384155D01*
X0408867Y0381904D02*
X0405864Y0381904D01*
X0407365Y0381904D02*
X0407365Y0386407D01*
X0405864Y0384906D01*
X0404263Y0385657D02*
X0403512Y0386407D01*
X0402011Y0386407D01*
X0401260Y0385657D01*
X0401260Y0384906D01*
X0402011Y0384155D01*
X0403512Y0384155D01*
X0404263Y0383405D01*
X0404263Y0382654D01*
X0403512Y0381904D01*
X0402011Y0381904D01*
X0401260Y0382654D01*
X0399659Y0382654D02*
X0399659Y0386407D01*
X0396656Y0386407D02*
X0396656Y0382654D01*
X0397407Y0381904D01*
X0398908Y0381904D01*
X0399659Y0382654D01*
X0402762Y0381153D02*
X0402762Y0387158D01*
X0405133Y0347851D02*
X0405133Y0341846D01*
X0404383Y0342596D02*
X0405884Y0342596D01*
X0406634Y0343347D01*
X0406634Y0344098D01*
X0405884Y0344848D01*
X0404383Y0344848D01*
X0403632Y0345599D01*
X0403632Y0346350D01*
X0404383Y0347100D01*
X0405884Y0347100D01*
X0406634Y0346350D01*
X0408236Y0345599D02*
X0409737Y0347100D01*
X0409737Y0342596D01*
X0408236Y0342596D02*
X0411238Y0342596D01*
X0412840Y0343347D02*
X0413590Y0342596D01*
X0415092Y0342596D01*
X0415842Y0343347D01*
X0415842Y0344848D01*
X0415092Y0345599D01*
X0414341Y0345599D01*
X0412840Y0344848D01*
X0412840Y0347100D01*
X0415842Y0347100D01*
X0413471Y0340407D02*
X0411969Y0339657D01*
X0410468Y0338155D01*
X0412720Y0338155D01*
X0413471Y0337405D01*
X0413471Y0336654D01*
X0412720Y0335904D01*
X0411219Y0335904D01*
X0410468Y0336654D01*
X0410468Y0338155D01*
X0408867Y0335904D02*
X0405864Y0335904D01*
X0407365Y0335904D02*
X0407365Y0340407D01*
X0405864Y0338906D01*
X0404263Y0339657D02*
X0403512Y0340407D01*
X0402011Y0340407D01*
X0401260Y0339657D01*
X0401260Y0338906D01*
X0402011Y0338155D01*
X0403512Y0338155D01*
X0404263Y0337405D01*
X0404263Y0336654D01*
X0403512Y0335904D01*
X0402011Y0335904D01*
X0401260Y0336654D01*
X0399659Y0336654D02*
X0399659Y0340407D01*
X0399779Y0342596D02*
X0401280Y0342596D01*
X0402031Y0343347D01*
X0402031Y0347100D01*
X0399028Y0347100D02*
X0399028Y0343347D01*
X0399779Y0342596D01*
X0402762Y0341158D02*
X0402762Y0335153D01*
X0399659Y0336654D02*
X0398908Y0335904D01*
X0397407Y0335904D01*
X0396656Y0336654D01*
X0396656Y0340407D01*
X0403632Y0343347D02*
X0404383Y0342596D01*
X0401260Y0324100D02*
X0401260Y0319596D01*
X0404382Y0315407D02*
X0405884Y0315407D01*
X0406634Y0314657D01*
X0406634Y0313906D01*
X0405884Y0313155D01*
X0406634Y0312405D01*
X0406634Y0311654D01*
X0405884Y0313155D02*
X0405133Y0313155D01*
X0403632Y0314657D02*
X0404382Y0315407D01*
X0412840Y0313155D02*
X0415842Y0313155D01*
X0415842Y0310904D02*
X0415842Y0315407D01*
X0403632Y0295347D02*
X0404383Y0294596D01*
X0399779Y0294596D02*
X0399028Y0295347D01*
X0399028Y0299100D01*
X0444197Y0367848D02*
X0444947Y0367848D01*
X0445698Y0367098D01*
X0445698Y0366347D01*
X0444947Y0367848D02*
X0445698Y0368599D01*
X0445698Y0369350D01*
X0444947Y0370100D01*
X0443446Y0370100D01*
X0442696Y0369350D01*
X0350449Y0393250D02*
X0347446Y0393250D01*
X0348947Y0393250D02*
X0348947Y0397754D01*
X0347446Y0396253D01*
X0345845Y0397754D02*
X0345845Y0394751D01*
X0344343Y0393250D01*
X0342842Y0394751D01*
X0342842Y0397754D01*
X0341241Y0397754D02*
X0341241Y0393250D01*
X0341241Y0395502D02*
X0338238Y0395502D01*
X0338238Y0393250D02*
X0338238Y0397754D01*
X0339800Y0297000D02*
X0289800Y0297000D01*
X0289800Y0247000D01*
X0339800Y0247000D01*
X0339800Y0297000D01*
D14*
X0180748Y0754350D02*
X0178646Y0754350D01*
X0177595Y0755401D01*
X0177595Y0757503D02*
X0179697Y0758554D01*
X0180748Y0758554D01*
X0181799Y0757503D01*
X0181799Y0755401D01*
X0180748Y0754350D01*
X0177595Y0757503D02*
X0177595Y0760655D01*
X0181799Y0760655D01*
X0175354Y0760655D02*
X0171150Y0754350D01*
X0175354Y0754350D02*
X0171150Y0760655D01*
X0069897Y0306255D02*
X0067795Y0304154D01*
X0069897Y0306255D02*
X0069897Y0299950D01*
X0067795Y0299950D02*
X0071999Y0299950D01*
X0065554Y0299950D02*
X0062401Y0303103D01*
X0061350Y0302052D02*
X0065554Y0306255D01*
X0061350Y0306255D02*
X0061350Y0299950D01*
X0054950Y0287608D02*
X0054950Y0283404D01*
X0050746Y0287608D01*
X0049696Y0287608D01*
X0048645Y0286557D01*
X0048645Y0284455D01*
X0049696Y0283404D01*
X0051797Y0281163D02*
X0051797Y0276959D01*
X0052848Y0274717D02*
X0048645Y0274717D01*
X0052848Y0274717D02*
X0054950Y0272615D01*
X0052848Y0270513D01*
X0048645Y0270513D01*
X0048645Y0268272D02*
X0048645Y0264068D01*
X0051797Y0264068D01*
X0050746Y0266170D01*
X0050746Y0267221D01*
X0051797Y0268272D01*
X0053899Y0268272D01*
X0054950Y0267221D01*
X0054950Y0265119D01*
X0053899Y0264068D01*
X0053899Y0261826D02*
X0051797Y0261826D01*
X0051797Y0259724D01*
X0049696Y0257622D02*
X0053899Y0257622D01*
X0054950Y0258673D01*
X0054950Y0260775D01*
X0053899Y0261826D01*
X0049696Y0261826D02*
X0048645Y0260775D01*
X0048645Y0258673D01*
X0049696Y0257622D01*
D15*
X0069300Y0323000D03*
D16*
X0063050Y0323000D03*
X0088550Y0323000D03*
D17*
X0163833Y0408000D02*
X0163833Y0408100D01*
X0163800Y0408100D02*
X0163867Y0408100D01*
X0163892Y0408100D02*
X0163942Y0408100D01*
X0163959Y0408083D01*
X0163959Y0408050D01*
X0163942Y0408033D01*
X0163892Y0408033D01*
X0163892Y0408000D02*
X0163892Y0408100D01*
X0163984Y0408100D02*
X0164034Y0408100D01*
X0164051Y0408083D01*
X0164051Y0408050D01*
X0164034Y0408033D01*
X0163984Y0408033D01*
X0163984Y0408000D02*
X0163984Y0408100D01*
X0164076Y0408067D02*
X0164110Y0408100D01*
X0164143Y0408067D01*
X0164143Y0408000D01*
X0164168Y0408000D02*
X0164218Y0408000D01*
X0164235Y0408017D01*
X0164235Y0408083D01*
X0164218Y0408100D01*
X0164168Y0408100D01*
X0164168Y0408000D01*
X0164143Y0408050D02*
X0164076Y0408050D01*
X0164076Y0408067D02*
X0164076Y0408000D01*
X0164260Y0408000D02*
X0164327Y0408000D01*
X0164294Y0408000D02*
X0164294Y0408100D01*
X0164260Y0408067D01*
X0164352Y0408050D02*
X0164419Y0408050D01*
X0164445Y0408083D02*
X0164461Y0408100D01*
X0164495Y0408100D01*
X0164511Y0408083D01*
X0164511Y0408067D01*
X0164445Y0408000D01*
X0164511Y0408000D01*
X0164537Y0408017D02*
X0164603Y0408083D01*
X0164603Y0408017D01*
X0164587Y0408000D01*
X0164553Y0408000D01*
X0164537Y0408017D01*
X0164537Y0408083D01*
X0164553Y0408100D01*
X0164587Y0408100D01*
X0164603Y0408083D01*
X0164629Y0408083D02*
X0164662Y0408050D01*
X0164662Y0408000D01*
X0164662Y0408050D02*
X0164695Y0408083D01*
X0164695Y0408100D01*
X0164629Y0408100D02*
X0164629Y0408083D01*
X0345879Y0409000D02*
X0345946Y0409000D01*
X0345971Y0409000D02*
X0346021Y0409000D01*
X0346038Y0408983D01*
X0346038Y0408950D01*
X0346021Y0408933D01*
X0345971Y0408933D01*
X0345971Y0408900D02*
X0345971Y0409000D01*
X0345913Y0409000D02*
X0345913Y0408900D01*
X0346063Y0408900D02*
X0346063Y0409000D01*
X0346113Y0409000D01*
X0346130Y0408983D01*
X0346130Y0408950D01*
X0346113Y0408933D01*
X0346063Y0408933D01*
X0346155Y0408950D02*
X0346222Y0408950D01*
X0346222Y0408967D02*
X0346222Y0408900D01*
X0346248Y0408900D02*
X0346298Y0408900D01*
X0346314Y0408917D01*
X0346314Y0408983D01*
X0346298Y0409000D01*
X0346248Y0409000D01*
X0346248Y0408900D01*
X0346222Y0408967D02*
X0346189Y0409000D01*
X0346155Y0408967D01*
X0346155Y0408900D01*
X0346340Y0408900D02*
X0346406Y0408900D01*
X0346373Y0408900D02*
X0346373Y0409000D01*
X0346340Y0408967D01*
X0346432Y0408950D02*
X0346498Y0408950D01*
X0346524Y0408983D02*
X0346540Y0409000D01*
X0346574Y0409000D01*
X0346590Y0408983D01*
X0346590Y0408967D01*
X0346524Y0408900D01*
X0346590Y0408900D01*
X0346616Y0408917D02*
X0346683Y0408983D01*
X0346683Y0408917D01*
X0346666Y0408900D01*
X0346633Y0408900D01*
X0346616Y0408917D01*
X0346616Y0408983D01*
X0346633Y0409000D01*
X0346666Y0409000D01*
X0346683Y0408983D01*
X0346708Y0408983D02*
X0346741Y0408950D01*
X0346741Y0408900D01*
X0346741Y0408950D02*
X0346775Y0408983D01*
X0346775Y0409000D01*
X0346708Y0409000D02*
X0346708Y0408983D01*
X0388800Y0212100D02*
X0388867Y0212100D01*
X0388892Y0212100D02*
X0388942Y0212100D01*
X0388959Y0212083D01*
X0388959Y0212050D01*
X0388942Y0212033D01*
X0388892Y0212033D01*
X0388892Y0212000D02*
X0388892Y0212100D01*
X0388833Y0212100D02*
X0388833Y0212000D01*
X0388984Y0212000D02*
X0388984Y0212100D01*
X0389034Y0212100D01*
X0389051Y0212083D01*
X0389051Y0212050D01*
X0389034Y0212033D01*
X0388984Y0212033D01*
X0389076Y0212050D02*
X0389143Y0212050D01*
X0389143Y0212067D02*
X0389143Y0212000D01*
X0389168Y0212000D02*
X0389218Y0212000D01*
X0389235Y0212017D01*
X0389235Y0212083D01*
X0389218Y0212100D01*
X0389168Y0212100D01*
X0389168Y0212000D01*
X0389143Y0212067D02*
X0389110Y0212100D01*
X0389076Y0212067D01*
X0389076Y0212000D01*
X0389260Y0212000D02*
X0389327Y0212000D01*
X0389294Y0212000D02*
X0389294Y0212100D01*
X0389260Y0212067D01*
X0389352Y0212050D02*
X0389419Y0212050D01*
X0389445Y0212083D02*
X0389461Y0212100D01*
X0389495Y0212100D01*
X0389511Y0212083D01*
X0389511Y0212067D01*
X0389445Y0212000D01*
X0389511Y0212000D01*
X0389537Y0212017D02*
X0389603Y0212083D01*
X0389603Y0212017D01*
X0389587Y0212000D01*
X0389553Y0212000D01*
X0389537Y0212017D01*
X0389537Y0212083D01*
X0389553Y0212100D01*
X0389587Y0212100D01*
X0389603Y0212083D01*
X0389629Y0212083D02*
X0389662Y0212050D01*
X0389662Y0212000D01*
X0389662Y0212050D02*
X0389695Y0212083D01*
X0389695Y0212100D01*
X0389629Y0212100D02*
X0389629Y0212083D01*
X0347695Y0032100D02*
X0347695Y0032083D01*
X0347662Y0032050D01*
X0347662Y0032000D01*
X0347662Y0032050D02*
X0347629Y0032083D01*
X0347629Y0032100D01*
X0347603Y0032083D02*
X0347537Y0032017D01*
X0347553Y0032000D01*
X0347587Y0032000D01*
X0347603Y0032017D01*
X0347603Y0032083D01*
X0347587Y0032100D01*
X0347553Y0032100D01*
X0347537Y0032083D01*
X0347537Y0032017D01*
X0347511Y0032000D02*
X0347445Y0032000D01*
X0347511Y0032067D01*
X0347511Y0032083D01*
X0347495Y0032100D01*
X0347461Y0032100D01*
X0347445Y0032083D01*
X0347419Y0032050D02*
X0347352Y0032050D01*
X0347327Y0032000D02*
X0347260Y0032000D01*
X0347235Y0032017D02*
X0347235Y0032083D01*
X0347218Y0032100D01*
X0347168Y0032100D01*
X0347168Y0032000D01*
X0347218Y0032000D01*
X0347235Y0032017D01*
X0347260Y0032067D02*
X0347294Y0032100D01*
X0347294Y0032000D01*
X0347143Y0032000D02*
X0347143Y0032067D01*
X0347110Y0032100D01*
X0347076Y0032067D01*
X0347076Y0032000D01*
X0347076Y0032050D02*
X0347143Y0032050D01*
X0347051Y0032050D02*
X0347034Y0032033D01*
X0346984Y0032033D01*
X0346959Y0032050D02*
X0346942Y0032033D01*
X0346892Y0032033D01*
X0346892Y0032000D02*
X0346892Y0032100D01*
X0346942Y0032100D01*
X0346959Y0032083D01*
X0346959Y0032050D01*
X0346984Y0032000D02*
X0346984Y0032100D01*
X0347034Y0032100D01*
X0347051Y0032083D01*
X0347051Y0032050D01*
X0346867Y0032100D02*
X0346800Y0032100D01*
X0346833Y0032100D02*
X0346833Y0032000D01*
X0158695Y0033083D02*
X0158695Y0033100D01*
X0158695Y0033083D02*
X0158662Y0033050D01*
X0158662Y0033000D01*
X0158662Y0033050D02*
X0158629Y0033083D01*
X0158629Y0033100D01*
X0158603Y0033083D02*
X0158537Y0033017D01*
X0158553Y0033000D01*
X0158587Y0033000D01*
X0158603Y0033017D01*
X0158603Y0033083D01*
X0158587Y0033100D01*
X0158553Y0033100D01*
X0158537Y0033083D01*
X0158537Y0033017D01*
X0158511Y0033000D02*
X0158445Y0033000D01*
X0158511Y0033067D01*
X0158511Y0033083D01*
X0158495Y0033100D01*
X0158461Y0033100D01*
X0158445Y0033083D01*
X0158419Y0033050D02*
X0158352Y0033050D01*
X0158327Y0033000D02*
X0158260Y0033000D01*
X0158235Y0033017D02*
X0158235Y0033083D01*
X0158218Y0033100D01*
X0158168Y0033100D01*
X0158168Y0033000D01*
X0158218Y0033000D01*
X0158235Y0033017D01*
X0158260Y0033067D02*
X0158294Y0033100D01*
X0158294Y0033000D01*
X0158143Y0033000D02*
X0158143Y0033067D01*
X0158110Y0033100D01*
X0158076Y0033067D01*
X0158076Y0033000D01*
X0158076Y0033050D02*
X0158143Y0033050D01*
X0158051Y0033050D02*
X0158034Y0033033D01*
X0157984Y0033033D01*
X0157959Y0033050D02*
X0157942Y0033033D01*
X0157892Y0033033D01*
X0157892Y0033000D02*
X0157892Y0033100D01*
X0157942Y0033100D01*
X0157959Y0033083D01*
X0157959Y0033050D01*
X0157984Y0033000D02*
X0157984Y0033100D01*
X0158034Y0033100D01*
X0158051Y0033083D01*
X0158051Y0033050D01*
X0157867Y0033100D02*
X0157800Y0033100D01*
X0157833Y0033100D02*
X0157833Y0033000D01*
D18*
X0033300Y0311700D02*
X0030800Y0311700D01*
X0028300Y0311700D01*
X0028300Y0314200D02*
X0030800Y0314200D01*
X0033300Y0314200D01*
X0197500Y0673500D02*
X0197500Y0676000D01*
X0197500Y0678500D01*
X0200000Y0678500D02*
X0200000Y0676000D01*
X0200000Y0673500D01*
X0299600Y0649500D02*
X0299600Y0647000D01*
X0299600Y0644500D01*
X0302100Y0644500D02*
X0302100Y0647000D01*
X0302100Y0649500D01*
X0311600Y0483500D02*
X0311600Y0481000D01*
X0311600Y0478500D01*
X0314100Y0478500D02*
X0314100Y0481000D01*
X0314100Y0483500D01*
D19*
X0256300Y0413000D02*
X0256300Y0408000D01*
X0256300Y0403000D01*
X0252800Y0403000D02*
X0252800Y0408000D01*
X0252800Y0413000D01*
X0256800Y0037000D02*
X0256800Y0032000D01*
X0256800Y0027000D01*
X0260300Y0027000D02*
X0260300Y0032000D01*
X0260300Y0037000D01*
D20*
X0401076Y0079000D02*
X0405997Y0076244D01*
X0405997Y0081756D01*
X0401076Y0079000D01*
X0405603Y0102244D02*
X0405603Y0107756D01*
X0410524Y0105000D01*
X0405603Y0102244D01*
X0405997Y0128244D02*
X0401076Y0131000D01*
X0405997Y0133756D01*
X0405997Y0128244D01*
X0405603Y0053756D02*
X0410524Y0051000D01*
X0405603Y0048244D01*
X0405603Y0053756D01*
X0406603Y0302244D02*
X0406603Y0307756D01*
X0411524Y0305000D01*
X0406603Y0302244D01*
X0406997Y0327244D02*
X0402076Y0330000D01*
X0406997Y0332756D01*
X0406997Y0327244D01*
X0406603Y0350244D02*
X0406603Y0355756D01*
X0411524Y0353000D01*
X0406603Y0350244D01*
X0406997Y0373244D02*
X0402076Y0376000D01*
X0406997Y0378756D01*
X0406997Y0373244D01*
D21*
X0401879Y0376000D03*
X0411721Y0353000D03*
X0401879Y0330000D03*
X0411721Y0305000D03*
X0400879Y0131000D03*
X0410721Y0105000D03*
X0400879Y0079000D03*
X0410721Y0051000D03*
D22*
X0249800Y0471750D03*
X0249800Y0474250D03*
X0249800Y0476750D03*
X0239800Y0476750D03*
X0239800Y0474250D03*
X0239800Y0471750D03*
X0229800Y0471750D03*
X0229800Y0474250D03*
X0229800Y0476750D03*
D23*
X0227300Y0591000D02*
X0233800Y0591000D01*
X0237300Y0616000D02*
X0243800Y0616000D01*
X0265800Y0591000D02*
X0272300Y0591000D01*
X0275800Y0616000D02*
X0282300Y0616000D01*
D24*
X0284000Y0616000D03*
X0274000Y0616000D03*
X0274000Y0591000D03*
X0264000Y0591000D03*
X0245600Y0616000D03*
X0235600Y0616000D03*
X0235600Y0591000D03*
X0225600Y0591000D03*
D25*
X0230800Y0807500D03*
D26*
X0230800Y0824000D03*
D27*
X0230700Y0791750D03*
X0220000Y0791750D03*
X0209200Y0791750D03*
X0241600Y0791750D03*
X0252400Y0791750D03*
D28*
X0247000Y0796750D03*
X0236100Y0796750D03*
X0225400Y0796750D03*
X0214600Y0796750D03*
D29*
X0239800Y0733200D03*
X0239800Y0704800D03*
X0239800Y0682200D03*
X0239800Y0653800D03*
X0312800Y0608200D03*
X0312800Y0579800D03*
X0344800Y0579800D03*
X0344800Y0608200D03*
D30*
X0297600Y0530000D02*
X0297605Y0530373D01*
X0297618Y0530746D01*
X0297641Y0531118D01*
X0297673Y0531490D01*
X0297714Y0531861D01*
X0297765Y0532230D01*
X0297824Y0532599D01*
X0297892Y0532965D01*
X0297969Y0533330D01*
X0298056Y0533693D01*
X0298151Y0534054D01*
X0298255Y0534412D01*
X0298367Y0534768D01*
X0298489Y0535121D01*
X0298619Y0535470D01*
X0298757Y0535817D01*
X0298904Y0536160D01*
X0299059Y0536499D01*
X0299223Y0536834D01*
X0299395Y0537165D01*
X0299575Y0537492D01*
X0299763Y0537814D01*
X0299958Y0538132D01*
X0300162Y0538445D01*
X0300373Y0538752D01*
X0300591Y0539055D01*
X0300817Y0539352D01*
X0301050Y0539643D01*
X0301290Y0539928D01*
X0301538Y0540208D01*
X0301791Y0540481D01*
X0302052Y0540748D01*
X0302319Y0541009D01*
X0302592Y0541262D01*
X0302872Y0541510D01*
X0303157Y0541750D01*
X0303448Y0541983D01*
X0303745Y0542209D01*
X0304048Y0542427D01*
X0304355Y0542638D01*
X0304668Y0542842D01*
X0304986Y0543037D01*
X0305308Y0543225D01*
X0305635Y0543405D01*
X0305966Y0543577D01*
X0306301Y0543741D01*
X0306640Y0543896D01*
X0306983Y0544043D01*
X0307330Y0544181D01*
X0307679Y0544311D01*
X0308032Y0544433D01*
X0308388Y0544545D01*
X0308746Y0544649D01*
X0309107Y0544744D01*
X0309470Y0544831D01*
X0309835Y0544908D01*
X0310201Y0544976D01*
X0310570Y0545035D01*
X0310939Y0545086D01*
X0311310Y0545127D01*
X0311682Y0545159D01*
X0312054Y0545182D01*
X0312427Y0545195D01*
X0312800Y0545200D01*
X0313173Y0545195D01*
X0313546Y0545182D01*
X0313918Y0545159D01*
X0314290Y0545127D01*
X0314661Y0545086D01*
X0315030Y0545035D01*
X0315399Y0544976D01*
X0315765Y0544908D01*
X0316130Y0544831D01*
X0316493Y0544744D01*
X0316854Y0544649D01*
X0317212Y0544545D01*
X0317568Y0544433D01*
X0317921Y0544311D01*
X0318270Y0544181D01*
X0318617Y0544043D01*
X0318960Y0543896D01*
X0319299Y0543741D01*
X0319634Y0543577D01*
X0319965Y0543405D01*
X0320292Y0543225D01*
X0320614Y0543037D01*
X0320932Y0542842D01*
X0321245Y0542638D01*
X0321552Y0542427D01*
X0321855Y0542209D01*
X0322152Y0541983D01*
X0322443Y0541750D01*
X0322728Y0541510D01*
X0323008Y0541262D01*
X0323281Y0541009D01*
X0323548Y0540748D01*
X0323809Y0540481D01*
X0324062Y0540208D01*
X0324310Y0539928D01*
X0324550Y0539643D01*
X0324783Y0539352D01*
X0325009Y0539055D01*
X0325227Y0538752D01*
X0325438Y0538445D01*
X0325642Y0538132D01*
X0325837Y0537814D01*
X0326025Y0537492D01*
X0326205Y0537165D01*
X0326377Y0536834D01*
X0326541Y0536499D01*
X0326696Y0536160D01*
X0326843Y0535817D01*
X0326981Y0535470D01*
X0327111Y0535121D01*
X0327233Y0534768D01*
X0327345Y0534412D01*
X0327449Y0534054D01*
X0327544Y0533693D01*
X0327631Y0533330D01*
X0327708Y0532965D01*
X0327776Y0532599D01*
X0327835Y0532230D01*
X0327886Y0531861D01*
X0327927Y0531490D01*
X0327959Y0531118D01*
X0327982Y0530746D01*
X0327995Y0530373D01*
X0328000Y0530000D01*
X0327995Y0529627D01*
X0327982Y0529254D01*
X0327959Y0528882D01*
X0327927Y0528510D01*
X0327886Y0528139D01*
X0327835Y0527770D01*
X0327776Y0527401D01*
X0327708Y0527035D01*
X0327631Y0526670D01*
X0327544Y0526307D01*
X0327449Y0525946D01*
X0327345Y0525588D01*
X0327233Y0525232D01*
X0327111Y0524879D01*
X0326981Y0524530D01*
X0326843Y0524183D01*
X0326696Y0523840D01*
X0326541Y0523501D01*
X0326377Y0523166D01*
X0326205Y0522835D01*
X0326025Y0522508D01*
X0325837Y0522186D01*
X0325642Y0521868D01*
X0325438Y0521555D01*
X0325227Y0521248D01*
X0325009Y0520945D01*
X0324783Y0520648D01*
X0324550Y0520357D01*
X0324310Y0520072D01*
X0324062Y0519792D01*
X0323809Y0519519D01*
X0323548Y0519252D01*
X0323281Y0518991D01*
X0323008Y0518738D01*
X0322728Y0518490D01*
X0322443Y0518250D01*
X0322152Y0518017D01*
X0321855Y0517791D01*
X0321552Y0517573D01*
X0321245Y0517362D01*
X0320932Y0517158D01*
X0320614Y0516963D01*
X0320292Y0516775D01*
X0319965Y0516595D01*
X0319634Y0516423D01*
X0319299Y0516259D01*
X0318960Y0516104D01*
X0318617Y0515957D01*
X0318270Y0515819D01*
X0317921Y0515689D01*
X0317568Y0515567D01*
X0317212Y0515455D01*
X0316854Y0515351D01*
X0316493Y0515256D01*
X0316130Y0515169D01*
X0315765Y0515092D01*
X0315399Y0515024D01*
X0315030Y0514965D01*
X0314661Y0514914D01*
X0314290Y0514873D01*
X0313918Y0514841D01*
X0313546Y0514818D01*
X0313173Y0514805D01*
X0312800Y0514800D01*
X0312427Y0514805D01*
X0312054Y0514818D01*
X0311682Y0514841D01*
X0311310Y0514873D01*
X0310939Y0514914D01*
X0310570Y0514965D01*
X0310201Y0515024D01*
X0309835Y0515092D01*
X0309470Y0515169D01*
X0309107Y0515256D01*
X0308746Y0515351D01*
X0308388Y0515455D01*
X0308032Y0515567D01*
X0307679Y0515689D01*
X0307330Y0515819D01*
X0306983Y0515957D01*
X0306640Y0516104D01*
X0306301Y0516259D01*
X0305966Y0516423D01*
X0305635Y0516595D01*
X0305308Y0516775D01*
X0304986Y0516963D01*
X0304668Y0517158D01*
X0304355Y0517362D01*
X0304048Y0517573D01*
X0303745Y0517791D01*
X0303448Y0518017D01*
X0303157Y0518250D01*
X0302872Y0518490D01*
X0302592Y0518738D01*
X0302319Y0518991D01*
X0302052Y0519252D01*
X0301791Y0519519D01*
X0301538Y0519792D01*
X0301290Y0520072D01*
X0301050Y0520357D01*
X0300817Y0520648D01*
X0300591Y0520945D01*
X0300373Y0521248D01*
X0300162Y0521555D01*
X0299958Y0521868D01*
X0299763Y0522186D01*
X0299575Y0522508D01*
X0299395Y0522835D01*
X0299223Y0523166D01*
X0299059Y0523501D01*
X0298904Y0523840D01*
X0298757Y0524183D01*
X0298619Y0524530D01*
X0298489Y0524879D01*
X0298367Y0525232D01*
X0298255Y0525588D01*
X0298151Y0525946D01*
X0298056Y0526307D01*
X0297969Y0526670D01*
X0297892Y0527035D01*
X0297824Y0527401D01*
X0297765Y0527770D01*
X0297714Y0528139D01*
X0297673Y0528510D01*
X0297641Y0528882D01*
X0297618Y0529254D01*
X0297605Y0529627D01*
X0297600Y0530000D01*
D31*
X0338800Y0671500D03*
D32*
X0338800Y0677750D03*
X0338800Y0654250D03*
M02*
