G75*
%MOIN*%
%OFA0B0*%
%FSLAX25Y25*%
%IPPOS*%
%LPD*%
%AMOC8*
5,1,8,0,0,1.08239X$1,22.5*
%
%ADD10C,0.00000*%
%ADD11C,0.10039*%
%ADD12C,0.07500*%
%ADD13C,0.10500*%
%ADD14R,0.05118X0.05906*%
%ADD15C,0.05200*%
%ADD16C,0.07087*%
%ADD17R,0.03500X0.06600*%
%ADD18R,0.12598X0.07087*%
%ADD19R,0.05512X0.03150*%
%ADD20R,0.07480X0.03150*%
%ADD21C,0.06000*%
%ADD22R,0.25000X0.50000*%
%ADD23R,0.03500X0.03500*%
%ADD24R,0.03150X0.05512*%
%ADD25R,0.03150X0.07480*%
%ADD26R,0.50000X0.25000*%
%ADD27C,0.11850*%
%ADD28R,0.09449X0.09449*%
%ADD29OC8,0.05200*%
%ADD30R,0.05906X0.05118*%
%ADD31OC8,0.06000*%
%ADD32R,0.07087X0.12598*%
%ADD33R,0.07087X0.08661*%
%ADD34C,0.20000*%
%ADD35R,0.06750X0.06750*%
%ADD36C,0.06600*%
%ADD37C,0.05600*%
%ADD38R,0.03962X0.03962*%
%ADD39C,0.04000*%
%ADD40C,0.10000*%
%ADD41C,0.02400*%
D10*
X0001800Y0001000D02*
X0001800Y0426000D01*
X0426800Y0426000D01*
X0426800Y0001000D01*
X0001800Y0001000D01*
X0019325Y0026000D02*
X0019327Y0026183D01*
X0019334Y0026367D01*
X0019345Y0026550D01*
X0019361Y0026733D01*
X0019381Y0026915D01*
X0019406Y0027097D01*
X0019435Y0027278D01*
X0019469Y0027458D01*
X0019507Y0027638D01*
X0019549Y0027816D01*
X0019596Y0027994D01*
X0019647Y0028170D01*
X0019702Y0028345D01*
X0019762Y0028518D01*
X0019826Y0028690D01*
X0019894Y0028861D01*
X0019966Y0029029D01*
X0020043Y0029196D01*
X0020123Y0029361D01*
X0020208Y0029524D01*
X0020296Y0029684D01*
X0020388Y0029843D01*
X0020485Y0029999D01*
X0020585Y0030153D01*
X0020689Y0030304D01*
X0020796Y0030453D01*
X0020907Y0030599D01*
X0021022Y0030742D01*
X0021140Y0030882D01*
X0021261Y0031020D01*
X0021386Y0031154D01*
X0021514Y0031286D01*
X0021646Y0031414D01*
X0021780Y0031539D01*
X0021918Y0031660D01*
X0022058Y0031778D01*
X0022201Y0031893D01*
X0022347Y0032004D01*
X0022496Y0032111D01*
X0022647Y0032215D01*
X0022801Y0032315D01*
X0022957Y0032412D01*
X0023116Y0032504D01*
X0023276Y0032592D01*
X0023439Y0032677D01*
X0023604Y0032757D01*
X0023771Y0032834D01*
X0023939Y0032906D01*
X0024110Y0032974D01*
X0024282Y0033038D01*
X0024455Y0033098D01*
X0024630Y0033153D01*
X0024806Y0033204D01*
X0024984Y0033251D01*
X0025162Y0033293D01*
X0025342Y0033331D01*
X0025522Y0033365D01*
X0025703Y0033394D01*
X0025885Y0033419D01*
X0026067Y0033439D01*
X0026250Y0033455D01*
X0026433Y0033466D01*
X0026617Y0033473D01*
X0026800Y0033475D01*
X0026983Y0033473D01*
X0027167Y0033466D01*
X0027350Y0033455D01*
X0027533Y0033439D01*
X0027715Y0033419D01*
X0027897Y0033394D01*
X0028078Y0033365D01*
X0028258Y0033331D01*
X0028438Y0033293D01*
X0028616Y0033251D01*
X0028794Y0033204D01*
X0028970Y0033153D01*
X0029145Y0033098D01*
X0029318Y0033038D01*
X0029490Y0032974D01*
X0029661Y0032906D01*
X0029829Y0032834D01*
X0029996Y0032757D01*
X0030161Y0032677D01*
X0030324Y0032592D01*
X0030484Y0032504D01*
X0030643Y0032412D01*
X0030799Y0032315D01*
X0030953Y0032215D01*
X0031104Y0032111D01*
X0031253Y0032004D01*
X0031399Y0031893D01*
X0031542Y0031778D01*
X0031682Y0031660D01*
X0031820Y0031539D01*
X0031954Y0031414D01*
X0032086Y0031286D01*
X0032214Y0031154D01*
X0032339Y0031020D01*
X0032460Y0030882D01*
X0032578Y0030742D01*
X0032693Y0030599D01*
X0032804Y0030453D01*
X0032911Y0030304D01*
X0033015Y0030153D01*
X0033115Y0029999D01*
X0033212Y0029843D01*
X0033304Y0029684D01*
X0033392Y0029524D01*
X0033477Y0029361D01*
X0033557Y0029196D01*
X0033634Y0029029D01*
X0033706Y0028861D01*
X0033774Y0028690D01*
X0033838Y0028518D01*
X0033898Y0028345D01*
X0033953Y0028170D01*
X0034004Y0027994D01*
X0034051Y0027816D01*
X0034093Y0027638D01*
X0034131Y0027458D01*
X0034165Y0027278D01*
X0034194Y0027097D01*
X0034219Y0026915D01*
X0034239Y0026733D01*
X0034255Y0026550D01*
X0034266Y0026367D01*
X0034273Y0026183D01*
X0034275Y0026000D01*
X0034273Y0025817D01*
X0034266Y0025633D01*
X0034255Y0025450D01*
X0034239Y0025267D01*
X0034219Y0025085D01*
X0034194Y0024903D01*
X0034165Y0024722D01*
X0034131Y0024542D01*
X0034093Y0024362D01*
X0034051Y0024184D01*
X0034004Y0024006D01*
X0033953Y0023830D01*
X0033898Y0023655D01*
X0033838Y0023482D01*
X0033774Y0023310D01*
X0033706Y0023139D01*
X0033634Y0022971D01*
X0033557Y0022804D01*
X0033477Y0022639D01*
X0033392Y0022476D01*
X0033304Y0022316D01*
X0033212Y0022157D01*
X0033115Y0022001D01*
X0033015Y0021847D01*
X0032911Y0021696D01*
X0032804Y0021547D01*
X0032693Y0021401D01*
X0032578Y0021258D01*
X0032460Y0021118D01*
X0032339Y0020980D01*
X0032214Y0020846D01*
X0032086Y0020714D01*
X0031954Y0020586D01*
X0031820Y0020461D01*
X0031682Y0020340D01*
X0031542Y0020222D01*
X0031399Y0020107D01*
X0031253Y0019996D01*
X0031104Y0019889D01*
X0030953Y0019785D01*
X0030799Y0019685D01*
X0030643Y0019588D01*
X0030484Y0019496D01*
X0030324Y0019408D01*
X0030161Y0019323D01*
X0029996Y0019243D01*
X0029829Y0019166D01*
X0029661Y0019094D01*
X0029490Y0019026D01*
X0029318Y0018962D01*
X0029145Y0018902D01*
X0028970Y0018847D01*
X0028794Y0018796D01*
X0028616Y0018749D01*
X0028438Y0018707D01*
X0028258Y0018669D01*
X0028078Y0018635D01*
X0027897Y0018606D01*
X0027715Y0018581D01*
X0027533Y0018561D01*
X0027350Y0018545D01*
X0027167Y0018534D01*
X0026983Y0018527D01*
X0026800Y0018525D01*
X0026617Y0018527D01*
X0026433Y0018534D01*
X0026250Y0018545D01*
X0026067Y0018561D01*
X0025885Y0018581D01*
X0025703Y0018606D01*
X0025522Y0018635D01*
X0025342Y0018669D01*
X0025162Y0018707D01*
X0024984Y0018749D01*
X0024806Y0018796D01*
X0024630Y0018847D01*
X0024455Y0018902D01*
X0024282Y0018962D01*
X0024110Y0019026D01*
X0023939Y0019094D01*
X0023771Y0019166D01*
X0023604Y0019243D01*
X0023439Y0019323D01*
X0023276Y0019408D01*
X0023116Y0019496D01*
X0022957Y0019588D01*
X0022801Y0019685D01*
X0022647Y0019785D01*
X0022496Y0019889D01*
X0022347Y0019996D01*
X0022201Y0020107D01*
X0022058Y0020222D01*
X0021918Y0020340D01*
X0021780Y0020461D01*
X0021646Y0020586D01*
X0021514Y0020714D01*
X0021386Y0020846D01*
X0021261Y0020980D01*
X0021140Y0021118D01*
X0021022Y0021258D01*
X0020907Y0021401D01*
X0020796Y0021547D01*
X0020689Y0021696D01*
X0020585Y0021847D01*
X0020485Y0022001D01*
X0020388Y0022157D01*
X0020296Y0022316D01*
X0020208Y0022476D01*
X0020123Y0022639D01*
X0020043Y0022804D01*
X0019966Y0022971D01*
X0019894Y0023139D01*
X0019826Y0023310D01*
X0019762Y0023482D01*
X0019702Y0023655D01*
X0019647Y0023830D01*
X0019596Y0024006D01*
X0019549Y0024184D01*
X0019507Y0024362D01*
X0019469Y0024542D01*
X0019435Y0024722D01*
X0019406Y0024903D01*
X0019381Y0025085D01*
X0019361Y0025267D01*
X0019345Y0025450D01*
X0019334Y0025633D01*
X0019327Y0025817D01*
X0019325Y0026000D01*
X0019325Y0401000D02*
X0019327Y0401183D01*
X0019334Y0401367D01*
X0019345Y0401550D01*
X0019361Y0401733D01*
X0019381Y0401915D01*
X0019406Y0402097D01*
X0019435Y0402278D01*
X0019469Y0402458D01*
X0019507Y0402638D01*
X0019549Y0402816D01*
X0019596Y0402994D01*
X0019647Y0403170D01*
X0019702Y0403345D01*
X0019762Y0403518D01*
X0019826Y0403690D01*
X0019894Y0403861D01*
X0019966Y0404029D01*
X0020043Y0404196D01*
X0020123Y0404361D01*
X0020208Y0404524D01*
X0020296Y0404684D01*
X0020388Y0404843D01*
X0020485Y0404999D01*
X0020585Y0405153D01*
X0020689Y0405304D01*
X0020796Y0405453D01*
X0020907Y0405599D01*
X0021022Y0405742D01*
X0021140Y0405882D01*
X0021261Y0406020D01*
X0021386Y0406154D01*
X0021514Y0406286D01*
X0021646Y0406414D01*
X0021780Y0406539D01*
X0021918Y0406660D01*
X0022058Y0406778D01*
X0022201Y0406893D01*
X0022347Y0407004D01*
X0022496Y0407111D01*
X0022647Y0407215D01*
X0022801Y0407315D01*
X0022957Y0407412D01*
X0023116Y0407504D01*
X0023276Y0407592D01*
X0023439Y0407677D01*
X0023604Y0407757D01*
X0023771Y0407834D01*
X0023939Y0407906D01*
X0024110Y0407974D01*
X0024282Y0408038D01*
X0024455Y0408098D01*
X0024630Y0408153D01*
X0024806Y0408204D01*
X0024984Y0408251D01*
X0025162Y0408293D01*
X0025342Y0408331D01*
X0025522Y0408365D01*
X0025703Y0408394D01*
X0025885Y0408419D01*
X0026067Y0408439D01*
X0026250Y0408455D01*
X0026433Y0408466D01*
X0026617Y0408473D01*
X0026800Y0408475D01*
X0026983Y0408473D01*
X0027167Y0408466D01*
X0027350Y0408455D01*
X0027533Y0408439D01*
X0027715Y0408419D01*
X0027897Y0408394D01*
X0028078Y0408365D01*
X0028258Y0408331D01*
X0028438Y0408293D01*
X0028616Y0408251D01*
X0028794Y0408204D01*
X0028970Y0408153D01*
X0029145Y0408098D01*
X0029318Y0408038D01*
X0029490Y0407974D01*
X0029661Y0407906D01*
X0029829Y0407834D01*
X0029996Y0407757D01*
X0030161Y0407677D01*
X0030324Y0407592D01*
X0030484Y0407504D01*
X0030643Y0407412D01*
X0030799Y0407315D01*
X0030953Y0407215D01*
X0031104Y0407111D01*
X0031253Y0407004D01*
X0031399Y0406893D01*
X0031542Y0406778D01*
X0031682Y0406660D01*
X0031820Y0406539D01*
X0031954Y0406414D01*
X0032086Y0406286D01*
X0032214Y0406154D01*
X0032339Y0406020D01*
X0032460Y0405882D01*
X0032578Y0405742D01*
X0032693Y0405599D01*
X0032804Y0405453D01*
X0032911Y0405304D01*
X0033015Y0405153D01*
X0033115Y0404999D01*
X0033212Y0404843D01*
X0033304Y0404684D01*
X0033392Y0404524D01*
X0033477Y0404361D01*
X0033557Y0404196D01*
X0033634Y0404029D01*
X0033706Y0403861D01*
X0033774Y0403690D01*
X0033838Y0403518D01*
X0033898Y0403345D01*
X0033953Y0403170D01*
X0034004Y0402994D01*
X0034051Y0402816D01*
X0034093Y0402638D01*
X0034131Y0402458D01*
X0034165Y0402278D01*
X0034194Y0402097D01*
X0034219Y0401915D01*
X0034239Y0401733D01*
X0034255Y0401550D01*
X0034266Y0401367D01*
X0034273Y0401183D01*
X0034275Y0401000D01*
X0034273Y0400817D01*
X0034266Y0400633D01*
X0034255Y0400450D01*
X0034239Y0400267D01*
X0034219Y0400085D01*
X0034194Y0399903D01*
X0034165Y0399722D01*
X0034131Y0399542D01*
X0034093Y0399362D01*
X0034051Y0399184D01*
X0034004Y0399006D01*
X0033953Y0398830D01*
X0033898Y0398655D01*
X0033838Y0398482D01*
X0033774Y0398310D01*
X0033706Y0398139D01*
X0033634Y0397971D01*
X0033557Y0397804D01*
X0033477Y0397639D01*
X0033392Y0397476D01*
X0033304Y0397316D01*
X0033212Y0397157D01*
X0033115Y0397001D01*
X0033015Y0396847D01*
X0032911Y0396696D01*
X0032804Y0396547D01*
X0032693Y0396401D01*
X0032578Y0396258D01*
X0032460Y0396118D01*
X0032339Y0395980D01*
X0032214Y0395846D01*
X0032086Y0395714D01*
X0031954Y0395586D01*
X0031820Y0395461D01*
X0031682Y0395340D01*
X0031542Y0395222D01*
X0031399Y0395107D01*
X0031253Y0394996D01*
X0031104Y0394889D01*
X0030953Y0394785D01*
X0030799Y0394685D01*
X0030643Y0394588D01*
X0030484Y0394496D01*
X0030324Y0394408D01*
X0030161Y0394323D01*
X0029996Y0394243D01*
X0029829Y0394166D01*
X0029661Y0394094D01*
X0029490Y0394026D01*
X0029318Y0393962D01*
X0029145Y0393902D01*
X0028970Y0393847D01*
X0028794Y0393796D01*
X0028616Y0393749D01*
X0028438Y0393707D01*
X0028258Y0393669D01*
X0028078Y0393635D01*
X0027897Y0393606D01*
X0027715Y0393581D01*
X0027533Y0393561D01*
X0027350Y0393545D01*
X0027167Y0393534D01*
X0026983Y0393527D01*
X0026800Y0393525D01*
X0026617Y0393527D01*
X0026433Y0393534D01*
X0026250Y0393545D01*
X0026067Y0393561D01*
X0025885Y0393581D01*
X0025703Y0393606D01*
X0025522Y0393635D01*
X0025342Y0393669D01*
X0025162Y0393707D01*
X0024984Y0393749D01*
X0024806Y0393796D01*
X0024630Y0393847D01*
X0024455Y0393902D01*
X0024282Y0393962D01*
X0024110Y0394026D01*
X0023939Y0394094D01*
X0023771Y0394166D01*
X0023604Y0394243D01*
X0023439Y0394323D01*
X0023276Y0394408D01*
X0023116Y0394496D01*
X0022957Y0394588D01*
X0022801Y0394685D01*
X0022647Y0394785D01*
X0022496Y0394889D01*
X0022347Y0394996D01*
X0022201Y0395107D01*
X0022058Y0395222D01*
X0021918Y0395340D01*
X0021780Y0395461D01*
X0021646Y0395586D01*
X0021514Y0395714D01*
X0021386Y0395846D01*
X0021261Y0395980D01*
X0021140Y0396118D01*
X0021022Y0396258D01*
X0020907Y0396401D01*
X0020796Y0396547D01*
X0020689Y0396696D01*
X0020585Y0396847D01*
X0020485Y0397001D01*
X0020388Y0397157D01*
X0020296Y0397316D01*
X0020208Y0397476D01*
X0020123Y0397639D01*
X0020043Y0397804D01*
X0019966Y0397971D01*
X0019894Y0398139D01*
X0019826Y0398310D01*
X0019762Y0398482D01*
X0019702Y0398655D01*
X0019647Y0398830D01*
X0019596Y0399006D01*
X0019549Y0399184D01*
X0019507Y0399362D01*
X0019469Y0399542D01*
X0019435Y0399722D01*
X0019406Y0399903D01*
X0019381Y0400085D01*
X0019361Y0400267D01*
X0019345Y0400450D01*
X0019334Y0400633D01*
X0019327Y0400817D01*
X0019325Y0401000D01*
X0001800Y0431000D02*
X0001800Y0806000D01*
X0376800Y0806000D01*
X0376800Y0431000D01*
X0001800Y0431000D01*
X0019325Y0456000D02*
X0019327Y0456183D01*
X0019334Y0456367D01*
X0019345Y0456550D01*
X0019361Y0456733D01*
X0019381Y0456915D01*
X0019406Y0457097D01*
X0019435Y0457278D01*
X0019469Y0457458D01*
X0019507Y0457638D01*
X0019549Y0457816D01*
X0019596Y0457994D01*
X0019647Y0458170D01*
X0019702Y0458345D01*
X0019762Y0458518D01*
X0019826Y0458690D01*
X0019894Y0458861D01*
X0019966Y0459029D01*
X0020043Y0459196D01*
X0020123Y0459361D01*
X0020208Y0459524D01*
X0020296Y0459684D01*
X0020388Y0459843D01*
X0020485Y0459999D01*
X0020585Y0460153D01*
X0020689Y0460304D01*
X0020796Y0460453D01*
X0020907Y0460599D01*
X0021022Y0460742D01*
X0021140Y0460882D01*
X0021261Y0461020D01*
X0021386Y0461154D01*
X0021514Y0461286D01*
X0021646Y0461414D01*
X0021780Y0461539D01*
X0021918Y0461660D01*
X0022058Y0461778D01*
X0022201Y0461893D01*
X0022347Y0462004D01*
X0022496Y0462111D01*
X0022647Y0462215D01*
X0022801Y0462315D01*
X0022957Y0462412D01*
X0023116Y0462504D01*
X0023276Y0462592D01*
X0023439Y0462677D01*
X0023604Y0462757D01*
X0023771Y0462834D01*
X0023939Y0462906D01*
X0024110Y0462974D01*
X0024282Y0463038D01*
X0024455Y0463098D01*
X0024630Y0463153D01*
X0024806Y0463204D01*
X0024984Y0463251D01*
X0025162Y0463293D01*
X0025342Y0463331D01*
X0025522Y0463365D01*
X0025703Y0463394D01*
X0025885Y0463419D01*
X0026067Y0463439D01*
X0026250Y0463455D01*
X0026433Y0463466D01*
X0026617Y0463473D01*
X0026800Y0463475D01*
X0026983Y0463473D01*
X0027167Y0463466D01*
X0027350Y0463455D01*
X0027533Y0463439D01*
X0027715Y0463419D01*
X0027897Y0463394D01*
X0028078Y0463365D01*
X0028258Y0463331D01*
X0028438Y0463293D01*
X0028616Y0463251D01*
X0028794Y0463204D01*
X0028970Y0463153D01*
X0029145Y0463098D01*
X0029318Y0463038D01*
X0029490Y0462974D01*
X0029661Y0462906D01*
X0029829Y0462834D01*
X0029996Y0462757D01*
X0030161Y0462677D01*
X0030324Y0462592D01*
X0030484Y0462504D01*
X0030643Y0462412D01*
X0030799Y0462315D01*
X0030953Y0462215D01*
X0031104Y0462111D01*
X0031253Y0462004D01*
X0031399Y0461893D01*
X0031542Y0461778D01*
X0031682Y0461660D01*
X0031820Y0461539D01*
X0031954Y0461414D01*
X0032086Y0461286D01*
X0032214Y0461154D01*
X0032339Y0461020D01*
X0032460Y0460882D01*
X0032578Y0460742D01*
X0032693Y0460599D01*
X0032804Y0460453D01*
X0032911Y0460304D01*
X0033015Y0460153D01*
X0033115Y0459999D01*
X0033212Y0459843D01*
X0033304Y0459684D01*
X0033392Y0459524D01*
X0033477Y0459361D01*
X0033557Y0459196D01*
X0033634Y0459029D01*
X0033706Y0458861D01*
X0033774Y0458690D01*
X0033838Y0458518D01*
X0033898Y0458345D01*
X0033953Y0458170D01*
X0034004Y0457994D01*
X0034051Y0457816D01*
X0034093Y0457638D01*
X0034131Y0457458D01*
X0034165Y0457278D01*
X0034194Y0457097D01*
X0034219Y0456915D01*
X0034239Y0456733D01*
X0034255Y0456550D01*
X0034266Y0456367D01*
X0034273Y0456183D01*
X0034275Y0456000D01*
X0034273Y0455817D01*
X0034266Y0455633D01*
X0034255Y0455450D01*
X0034239Y0455267D01*
X0034219Y0455085D01*
X0034194Y0454903D01*
X0034165Y0454722D01*
X0034131Y0454542D01*
X0034093Y0454362D01*
X0034051Y0454184D01*
X0034004Y0454006D01*
X0033953Y0453830D01*
X0033898Y0453655D01*
X0033838Y0453482D01*
X0033774Y0453310D01*
X0033706Y0453139D01*
X0033634Y0452971D01*
X0033557Y0452804D01*
X0033477Y0452639D01*
X0033392Y0452476D01*
X0033304Y0452316D01*
X0033212Y0452157D01*
X0033115Y0452001D01*
X0033015Y0451847D01*
X0032911Y0451696D01*
X0032804Y0451547D01*
X0032693Y0451401D01*
X0032578Y0451258D01*
X0032460Y0451118D01*
X0032339Y0450980D01*
X0032214Y0450846D01*
X0032086Y0450714D01*
X0031954Y0450586D01*
X0031820Y0450461D01*
X0031682Y0450340D01*
X0031542Y0450222D01*
X0031399Y0450107D01*
X0031253Y0449996D01*
X0031104Y0449889D01*
X0030953Y0449785D01*
X0030799Y0449685D01*
X0030643Y0449588D01*
X0030484Y0449496D01*
X0030324Y0449408D01*
X0030161Y0449323D01*
X0029996Y0449243D01*
X0029829Y0449166D01*
X0029661Y0449094D01*
X0029490Y0449026D01*
X0029318Y0448962D01*
X0029145Y0448902D01*
X0028970Y0448847D01*
X0028794Y0448796D01*
X0028616Y0448749D01*
X0028438Y0448707D01*
X0028258Y0448669D01*
X0028078Y0448635D01*
X0027897Y0448606D01*
X0027715Y0448581D01*
X0027533Y0448561D01*
X0027350Y0448545D01*
X0027167Y0448534D01*
X0026983Y0448527D01*
X0026800Y0448525D01*
X0026617Y0448527D01*
X0026433Y0448534D01*
X0026250Y0448545D01*
X0026067Y0448561D01*
X0025885Y0448581D01*
X0025703Y0448606D01*
X0025522Y0448635D01*
X0025342Y0448669D01*
X0025162Y0448707D01*
X0024984Y0448749D01*
X0024806Y0448796D01*
X0024630Y0448847D01*
X0024455Y0448902D01*
X0024282Y0448962D01*
X0024110Y0449026D01*
X0023939Y0449094D01*
X0023771Y0449166D01*
X0023604Y0449243D01*
X0023439Y0449323D01*
X0023276Y0449408D01*
X0023116Y0449496D01*
X0022957Y0449588D01*
X0022801Y0449685D01*
X0022647Y0449785D01*
X0022496Y0449889D01*
X0022347Y0449996D01*
X0022201Y0450107D01*
X0022058Y0450222D01*
X0021918Y0450340D01*
X0021780Y0450461D01*
X0021646Y0450586D01*
X0021514Y0450714D01*
X0021386Y0450846D01*
X0021261Y0450980D01*
X0021140Y0451118D01*
X0021022Y0451258D01*
X0020907Y0451401D01*
X0020796Y0451547D01*
X0020689Y0451696D01*
X0020585Y0451847D01*
X0020485Y0452001D01*
X0020388Y0452157D01*
X0020296Y0452316D01*
X0020208Y0452476D01*
X0020123Y0452639D01*
X0020043Y0452804D01*
X0019966Y0452971D01*
X0019894Y0453139D01*
X0019826Y0453310D01*
X0019762Y0453482D01*
X0019702Y0453655D01*
X0019647Y0453830D01*
X0019596Y0454006D01*
X0019549Y0454184D01*
X0019507Y0454362D01*
X0019469Y0454542D01*
X0019435Y0454722D01*
X0019406Y0454903D01*
X0019381Y0455085D01*
X0019361Y0455267D01*
X0019345Y0455450D01*
X0019334Y0455633D01*
X0019327Y0455817D01*
X0019325Y0456000D01*
X0080000Y0519950D02*
X0080002Y0520102D01*
X0080008Y0520254D01*
X0080018Y0520405D01*
X0080032Y0520556D01*
X0080050Y0520707D01*
X0080071Y0520857D01*
X0080097Y0521007D01*
X0080127Y0521156D01*
X0080160Y0521304D01*
X0080198Y0521451D01*
X0080239Y0521597D01*
X0080284Y0521742D01*
X0080333Y0521886D01*
X0080385Y0522029D01*
X0080441Y0522170D01*
X0080501Y0522309D01*
X0080565Y0522447D01*
X0080632Y0522583D01*
X0080703Y0522718D01*
X0080777Y0522850D01*
X0080855Y0522980D01*
X0080936Y0523109D01*
X0081020Y0523235D01*
X0081108Y0523359D01*
X0081199Y0523481D01*
X0081293Y0523600D01*
X0081390Y0523717D01*
X0081490Y0523831D01*
X0081593Y0523942D01*
X0081699Y0524051D01*
X0081808Y0524157D01*
X0081919Y0524260D01*
X0082033Y0524360D01*
X0082150Y0524457D01*
X0082269Y0524551D01*
X0082391Y0524642D01*
X0082515Y0524730D01*
X0082641Y0524814D01*
X0082770Y0524895D01*
X0082900Y0524973D01*
X0083032Y0525047D01*
X0083167Y0525118D01*
X0083303Y0525185D01*
X0083441Y0525249D01*
X0083580Y0525309D01*
X0083721Y0525365D01*
X0083864Y0525417D01*
X0084008Y0525466D01*
X0084153Y0525511D01*
X0084299Y0525552D01*
X0084446Y0525590D01*
X0084594Y0525623D01*
X0084743Y0525653D01*
X0084893Y0525679D01*
X0085043Y0525700D01*
X0085194Y0525718D01*
X0085345Y0525732D01*
X0085496Y0525742D01*
X0085648Y0525748D01*
X0085800Y0525750D01*
X0085952Y0525748D01*
X0086104Y0525742D01*
X0086255Y0525732D01*
X0086406Y0525718D01*
X0086557Y0525700D01*
X0086707Y0525679D01*
X0086857Y0525653D01*
X0087006Y0525623D01*
X0087154Y0525590D01*
X0087301Y0525552D01*
X0087447Y0525511D01*
X0087592Y0525466D01*
X0087736Y0525417D01*
X0087879Y0525365D01*
X0088020Y0525309D01*
X0088159Y0525249D01*
X0088297Y0525185D01*
X0088433Y0525118D01*
X0088568Y0525047D01*
X0088700Y0524973D01*
X0088830Y0524895D01*
X0088959Y0524814D01*
X0089085Y0524730D01*
X0089209Y0524642D01*
X0089331Y0524551D01*
X0089450Y0524457D01*
X0089567Y0524360D01*
X0089681Y0524260D01*
X0089792Y0524157D01*
X0089901Y0524051D01*
X0090007Y0523942D01*
X0090110Y0523831D01*
X0090210Y0523717D01*
X0090307Y0523600D01*
X0090401Y0523481D01*
X0090492Y0523359D01*
X0090580Y0523235D01*
X0090664Y0523109D01*
X0090745Y0522980D01*
X0090823Y0522850D01*
X0090897Y0522718D01*
X0090968Y0522583D01*
X0091035Y0522447D01*
X0091099Y0522309D01*
X0091159Y0522170D01*
X0091215Y0522029D01*
X0091267Y0521886D01*
X0091316Y0521742D01*
X0091361Y0521597D01*
X0091402Y0521451D01*
X0091440Y0521304D01*
X0091473Y0521156D01*
X0091503Y0521007D01*
X0091529Y0520857D01*
X0091550Y0520707D01*
X0091568Y0520556D01*
X0091582Y0520405D01*
X0091592Y0520254D01*
X0091598Y0520102D01*
X0091600Y0519950D01*
X0091598Y0519798D01*
X0091592Y0519646D01*
X0091582Y0519495D01*
X0091568Y0519344D01*
X0091550Y0519193D01*
X0091529Y0519043D01*
X0091503Y0518893D01*
X0091473Y0518744D01*
X0091440Y0518596D01*
X0091402Y0518449D01*
X0091361Y0518303D01*
X0091316Y0518158D01*
X0091267Y0518014D01*
X0091215Y0517871D01*
X0091159Y0517730D01*
X0091099Y0517591D01*
X0091035Y0517453D01*
X0090968Y0517317D01*
X0090897Y0517182D01*
X0090823Y0517050D01*
X0090745Y0516920D01*
X0090664Y0516791D01*
X0090580Y0516665D01*
X0090492Y0516541D01*
X0090401Y0516419D01*
X0090307Y0516300D01*
X0090210Y0516183D01*
X0090110Y0516069D01*
X0090007Y0515958D01*
X0089901Y0515849D01*
X0089792Y0515743D01*
X0089681Y0515640D01*
X0089567Y0515540D01*
X0089450Y0515443D01*
X0089331Y0515349D01*
X0089209Y0515258D01*
X0089085Y0515170D01*
X0088959Y0515086D01*
X0088830Y0515005D01*
X0088700Y0514927D01*
X0088568Y0514853D01*
X0088433Y0514782D01*
X0088297Y0514715D01*
X0088159Y0514651D01*
X0088020Y0514591D01*
X0087879Y0514535D01*
X0087736Y0514483D01*
X0087592Y0514434D01*
X0087447Y0514389D01*
X0087301Y0514348D01*
X0087154Y0514310D01*
X0087006Y0514277D01*
X0086857Y0514247D01*
X0086707Y0514221D01*
X0086557Y0514200D01*
X0086406Y0514182D01*
X0086255Y0514168D01*
X0086104Y0514158D01*
X0085952Y0514152D01*
X0085800Y0514150D01*
X0085648Y0514152D01*
X0085496Y0514158D01*
X0085345Y0514168D01*
X0085194Y0514182D01*
X0085043Y0514200D01*
X0084893Y0514221D01*
X0084743Y0514247D01*
X0084594Y0514277D01*
X0084446Y0514310D01*
X0084299Y0514348D01*
X0084153Y0514389D01*
X0084008Y0514434D01*
X0083864Y0514483D01*
X0083721Y0514535D01*
X0083580Y0514591D01*
X0083441Y0514651D01*
X0083303Y0514715D01*
X0083167Y0514782D01*
X0083032Y0514853D01*
X0082900Y0514927D01*
X0082770Y0515005D01*
X0082641Y0515086D01*
X0082515Y0515170D01*
X0082391Y0515258D01*
X0082269Y0515349D01*
X0082150Y0515443D01*
X0082033Y0515540D01*
X0081919Y0515640D01*
X0081808Y0515743D01*
X0081699Y0515849D01*
X0081593Y0515958D01*
X0081490Y0516069D01*
X0081390Y0516183D01*
X0081293Y0516300D01*
X0081199Y0516419D01*
X0081108Y0516541D01*
X0081020Y0516665D01*
X0080936Y0516791D01*
X0080855Y0516920D01*
X0080777Y0517050D01*
X0080703Y0517182D01*
X0080632Y0517317D01*
X0080565Y0517453D01*
X0080501Y0517591D01*
X0080441Y0517730D01*
X0080385Y0517871D01*
X0080333Y0518014D01*
X0080284Y0518158D01*
X0080239Y0518303D01*
X0080198Y0518449D01*
X0080160Y0518596D01*
X0080127Y0518744D01*
X0080097Y0518893D01*
X0080071Y0519043D01*
X0080050Y0519193D01*
X0080032Y0519344D01*
X0080018Y0519495D01*
X0080008Y0519646D01*
X0080002Y0519798D01*
X0080000Y0519950D01*
X0080000Y0638050D02*
X0080002Y0638202D01*
X0080008Y0638354D01*
X0080018Y0638505D01*
X0080032Y0638656D01*
X0080050Y0638807D01*
X0080071Y0638957D01*
X0080097Y0639107D01*
X0080127Y0639256D01*
X0080160Y0639404D01*
X0080198Y0639551D01*
X0080239Y0639697D01*
X0080284Y0639842D01*
X0080333Y0639986D01*
X0080385Y0640129D01*
X0080441Y0640270D01*
X0080501Y0640409D01*
X0080565Y0640547D01*
X0080632Y0640683D01*
X0080703Y0640818D01*
X0080777Y0640950D01*
X0080855Y0641080D01*
X0080936Y0641209D01*
X0081020Y0641335D01*
X0081108Y0641459D01*
X0081199Y0641581D01*
X0081293Y0641700D01*
X0081390Y0641817D01*
X0081490Y0641931D01*
X0081593Y0642042D01*
X0081699Y0642151D01*
X0081808Y0642257D01*
X0081919Y0642360D01*
X0082033Y0642460D01*
X0082150Y0642557D01*
X0082269Y0642651D01*
X0082391Y0642742D01*
X0082515Y0642830D01*
X0082641Y0642914D01*
X0082770Y0642995D01*
X0082900Y0643073D01*
X0083032Y0643147D01*
X0083167Y0643218D01*
X0083303Y0643285D01*
X0083441Y0643349D01*
X0083580Y0643409D01*
X0083721Y0643465D01*
X0083864Y0643517D01*
X0084008Y0643566D01*
X0084153Y0643611D01*
X0084299Y0643652D01*
X0084446Y0643690D01*
X0084594Y0643723D01*
X0084743Y0643753D01*
X0084893Y0643779D01*
X0085043Y0643800D01*
X0085194Y0643818D01*
X0085345Y0643832D01*
X0085496Y0643842D01*
X0085648Y0643848D01*
X0085800Y0643850D01*
X0085952Y0643848D01*
X0086104Y0643842D01*
X0086255Y0643832D01*
X0086406Y0643818D01*
X0086557Y0643800D01*
X0086707Y0643779D01*
X0086857Y0643753D01*
X0087006Y0643723D01*
X0087154Y0643690D01*
X0087301Y0643652D01*
X0087447Y0643611D01*
X0087592Y0643566D01*
X0087736Y0643517D01*
X0087879Y0643465D01*
X0088020Y0643409D01*
X0088159Y0643349D01*
X0088297Y0643285D01*
X0088433Y0643218D01*
X0088568Y0643147D01*
X0088700Y0643073D01*
X0088830Y0642995D01*
X0088959Y0642914D01*
X0089085Y0642830D01*
X0089209Y0642742D01*
X0089331Y0642651D01*
X0089450Y0642557D01*
X0089567Y0642460D01*
X0089681Y0642360D01*
X0089792Y0642257D01*
X0089901Y0642151D01*
X0090007Y0642042D01*
X0090110Y0641931D01*
X0090210Y0641817D01*
X0090307Y0641700D01*
X0090401Y0641581D01*
X0090492Y0641459D01*
X0090580Y0641335D01*
X0090664Y0641209D01*
X0090745Y0641080D01*
X0090823Y0640950D01*
X0090897Y0640818D01*
X0090968Y0640683D01*
X0091035Y0640547D01*
X0091099Y0640409D01*
X0091159Y0640270D01*
X0091215Y0640129D01*
X0091267Y0639986D01*
X0091316Y0639842D01*
X0091361Y0639697D01*
X0091402Y0639551D01*
X0091440Y0639404D01*
X0091473Y0639256D01*
X0091503Y0639107D01*
X0091529Y0638957D01*
X0091550Y0638807D01*
X0091568Y0638656D01*
X0091582Y0638505D01*
X0091592Y0638354D01*
X0091598Y0638202D01*
X0091600Y0638050D01*
X0091598Y0637898D01*
X0091592Y0637746D01*
X0091582Y0637595D01*
X0091568Y0637444D01*
X0091550Y0637293D01*
X0091529Y0637143D01*
X0091503Y0636993D01*
X0091473Y0636844D01*
X0091440Y0636696D01*
X0091402Y0636549D01*
X0091361Y0636403D01*
X0091316Y0636258D01*
X0091267Y0636114D01*
X0091215Y0635971D01*
X0091159Y0635830D01*
X0091099Y0635691D01*
X0091035Y0635553D01*
X0090968Y0635417D01*
X0090897Y0635282D01*
X0090823Y0635150D01*
X0090745Y0635020D01*
X0090664Y0634891D01*
X0090580Y0634765D01*
X0090492Y0634641D01*
X0090401Y0634519D01*
X0090307Y0634400D01*
X0090210Y0634283D01*
X0090110Y0634169D01*
X0090007Y0634058D01*
X0089901Y0633949D01*
X0089792Y0633843D01*
X0089681Y0633740D01*
X0089567Y0633640D01*
X0089450Y0633543D01*
X0089331Y0633449D01*
X0089209Y0633358D01*
X0089085Y0633270D01*
X0088959Y0633186D01*
X0088830Y0633105D01*
X0088700Y0633027D01*
X0088568Y0632953D01*
X0088433Y0632882D01*
X0088297Y0632815D01*
X0088159Y0632751D01*
X0088020Y0632691D01*
X0087879Y0632635D01*
X0087736Y0632583D01*
X0087592Y0632534D01*
X0087447Y0632489D01*
X0087301Y0632448D01*
X0087154Y0632410D01*
X0087006Y0632377D01*
X0086857Y0632347D01*
X0086707Y0632321D01*
X0086557Y0632300D01*
X0086406Y0632282D01*
X0086255Y0632268D01*
X0086104Y0632258D01*
X0085952Y0632252D01*
X0085800Y0632250D01*
X0085648Y0632252D01*
X0085496Y0632258D01*
X0085345Y0632268D01*
X0085194Y0632282D01*
X0085043Y0632300D01*
X0084893Y0632321D01*
X0084743Y0632347D01*
X0084594Y0632377D01*
X0084446Y0632410D01*
X0084299Y0632448D01*
X0084153Y0632489D01*
X0084008Y0632534D01*
X0083864Y0632583D01*
X0083721Y0632635D01*
X0083580Y0632691D01*
X0083441Y0632751D01*
X0083303Y0632815D01*
X0083167Y0632882D01*
X0083032Y0632953D01*
X0082900Y0633027D01*
X0082770Y0633105D01*
X0082641Y0633186D01*
X0082515Y0633270D01*
X0082391Y0633358D01*
X0082269Y0633449D01*
X0082150Y0633543D01*
X0082033Y0633640D01*
X0081919Y0633740D01*
X0081808Y0633843D01*
X0081699Y0633949D01*
X0081593Y0634058D01*
X0081490Y0634169D01*
X0081390Y0634283D01*
X0081293Y0634400D01*
X0081199Y0634519D01*
X0081108Y0634641D01*
X0081020Y0634765D01*
X0080936Y0634891D01*
X0080855Y0635020D01*
X0080777Y0635150D01*
X0080703Y0635282D01*
X0080632Y0635417D01*
X0080565Y0635553D01*
X0080501Y0635691D01*
X0080441Y0635830D01*
X0080385Y0635971D01*
X0080333Y0636114D01*
X0080284Y0636258D01*
X0080239Y0636403D01*
X0080198Y0636549D01*
X0080160Y0636696D01*
X0080127Y0636844D01*
X0080097Y0636993D01*
X0080071Y0637143D01*
X0080050Y0637293D01*
X0080032Y0637444D01*
X0080018Y0637595D01*
X0080008Y0637746D01*
X0080002Y0637898D01*
X0080000Y0638050D01*
X0019325Y0781000D02*
X0019327Y0781183D01*
X0019334Y0781367D01*
X0019345Y0781550D01*
X0019361Y0781733D01*
X0019381Y0781915D01*
X0019406Y0782097D01*
X0019435Y0782278D01*
X0019469Y0782458D01*
X0019507Y0782638D01*
X0019549Y0782816D01*
X0019596Y0782994D01*
X0019647Y0783170D01*
X0019702Y0783345D01*
X0019762Y0783518D01*
X0019826Y0783690D01*
X0019894Y0783861D01*
X0019966Y0784029D01*
X0020043Y0784196D01*
X0020123Y0784361D01*
X0020208Y0784524D01*
X0020296Y0784684D01*
X0020388Y0784843D01*
X0020485Y0784999D01*
X0020585Y0785153D01*
X0020689Y0785304D01*
X0020796Y0785453D01*
X0020907Y0785599D01*
X0021022Y0785742D01*
X0021140Y0785882D01*
X0021261Y0786020D01*
X0021386Y0786154D01*
X0021514Y0786286D01*
X0021646Y0786414D01*
X0021780Y0786539D01*
X0021918Y0786660D01*
X0022058Y0786778D01*
X0022201Y0786893D01*
X0022347Y0787004D01*
X0022496Y0787111D01*
X0022647Y0787215D01*
X0022801Y0787315D01*
X0022957Y0787412D01*
X0023116Y0787504D01*
X0023276Y0787592D01*
X0023439Y0787677D01*
X0023604Y0787757D01*
X0023771Y0787834D01*
X0023939Y0787906D01*
X0024110Y0787974D01*
X0024282Y0788038D01*
X0024455Y0788098D01*
X0024630Y0788153D01*
X0024806Y0788204D01*
X0024984Y0788251D01*
X0025162Y0788293D01*
X0025342Y0788331D01*
X0025522Y0788365D01*
X0025703Y0788394D01*
X0025885Y0788419D01*
X0026067Y0788439D01*
X0026250Y0788455D01*
X0026433Y0788466D01*
X0026617Y0788473D01*
X0026800Y0788475D01*
X0026983Y0788473D01*
X0027167Y0788466D01*
X0027350Y0788455D01*
X0027533Y0788439D01*
X0027715Y0788419D01*
X0027897Y0788394D01*
X0028078Y0788365D01*
X0028258Y0788331D01*
X0028438Y0788293D01*
X0028616Y0788251D01*
X0028794Y0788204D01*
X0028970Y0788153D01*
X0029145Y0788098D01*
X0029318Y0788038D01*
X0029490Y0787974D01*
X0029661Y0787906D01*
X0029829Y0787834D01*
X0029996Y0787757D01*
X0030161Y0787677D01*
X0030324Y0787592D01*
X0030484Y0787504D01*
X0030643Y0787412D01*
X0030799Y0787315D01*
X0030953Y0787215D01*
X0031104Y0787111D01*
X0031253Y0787004D01*
X0031399Y0786893D01*
X0031542Y0786778D01*
X0031682Y0786660D01*
X0031820Y0786539D01*
X0031954Y0786414D01*
X0032086Y0786286D01*
X0032214Y0786154D01*
X0032339Y0786020D01*
X0032460Y0785882D01*
X0032578Y0785742D01*
X0032693Y0785599D01*
X0032804Y0785453D01*
X0032911Y0785304D01*
X0033015Y0785153D01*
X0033115Y0784999D01*
X0033212Y0784843D01*
X0033304Y0784684D01*
X0033392Y0784524D01*
X0033477Y0784361D01*
X0033557Y0784196D01*
X0033634Y0784029D01*
X0033706Y0783861D01*
X0033774Y0783690D01*
X0033838Y0783518D01*
X0033898Y0783345D01*
X0033953Y0783170D01*
X0034004Y0782994D01*
X0034051Y0782816D01*
X0034093Y0782638D01*
X0034131Y0782458D01*
X0034165Y0782278D01*
X0034194Y0782097D01*
X0034219Y0781915D01*
X0034239Y0781733D01*
X0034255Y0781550D01*
X0034266Y0781367D01*
X0034273Y0781183D01*
X0034275Y0781000D01*
X0034273Y0780817D01*
X0034266Y0780633D01*
X0034255Y0780450D01*
X0034239Y0780267D01*
X0034219Y0780085D01*
X0034194Y0779903D01*
X0034165Y0779722D01*
X0034131Y0779542D01*
X0034093Y0779362D01*
X0034051Y0779184D01*
X0034004Y0779006D01*
X0033953Y0778830D01*
X0033898Y0778655D01*
X0033838Y0778482D01*
X0033774Y0778310D01*
X0033706Y0778139D01*
X0033634Y0777971D01*
X0033557Y0777804D01*
X0033477Y0777639D01*
X0033392Y0777476D01*
X0033304Y0777316D01*
X0033212Y0777157D01*
X0033115Y0777001D01*
X0033015Y0776847D01*
X0032911Y0776696D01*
X0032804Y0776547D01*
X0032693Y0776401D01*
X0032578Y0776258D01*
X0032460Y0776118D01*
X0032339Y0775980D01*
X0032214Y0775846D01*
X0032086Y0775714D01*
X0031954Y0775586D01*
X0031820Y0775461D01*
X0031682Y0775340D01*
X0031542Y0775222D01*
X0031399Y0775107D01*
X0031253Y0774996D01*
X0031104Y0774889D01*
X0030953Y0774785D01*
X0030799Y0774685D01*
X0030643Y0774588D01*
X0030484Y0774496D01*
X0030324Y0774408D01*
X0030161Y0774323D01*
X0029996Y0774243D01*
X0029829Y0774166D01*
X0029661Y0774094D01*
X0029490Y0774026D01*
X0029318Y0773962D01*
X0029145Y0773902D01*
X0028970Y0773847D01*
X0028794Y0773796D01*
X0028616Y0773749D01*
X0028438Y0773707D01*
X0028258Y0773669D01*
X0028078Y0773635D01*
X0027897Y0773606D01*
X0027715Y0773581D01*
X0027533Y0773561D01*
X0027350Y0773545D01*
X0027167Y0773534D01*
X0026983Y0773527D01*
X0026800Y0773525D01*
X0026617Y0773527D01*
X0026433Y0773534D01*
X0026250Y0773545D01*
X0026067Y0773561D01*
X0025885Y0773581D01*
X0025703Y0773606D01*
X0025522Y0773635D01*
X0025342Y0773669D01*
X0025162Y0773707D01*
X0024984Y0773749D01*
X0024806Y0773796D01*
X0024630Y0773847D01*
X0024455Y0773902D01*
X0024282Y0773962D01*
X0024110Y0774026D01*
X0023939Y0774094D01*
X0023771Y0774166D01*
X0023604Y0774243D01*
X0023439Y0774323D01*
X0023276Y0774408D01*
X0023116Y0774496D01*
X0022957Y0774588D01*
X0022801Y0774685D01*
X0022647Y0774785D01*
X0022496Y0774889D01*
X0022347Y0774996D01*
X0022201Y0775107D01*
X0022058Y0775222D01*
X0021918Y0775340D01*
X0021780Y0775461D01*
X0021646Y0775586D01*
X0021514Y0775714D01*
X0021386Y0775846D01*
X0021261Y0775980D01*
X0021140Y0776118D01*
X0021022Y0776258D01*
X0020907Y0776401D01*
X0020796Y0776547D01*
X0020689Y0776696D01*
X0020585Y0776847D01*
X0020485Y0777001D01*
X0020388Y0777157D01*
X0020296Y0777316D01*
X0020208Y0777476D01*
X0020123Y0777639D01*
X0020043Y0777804D01*
X0019966Y0777971D01*
X0019894Y0778139D01*
X0019826Y0778310D01*
X0019762Y0778482D01*
X0019702Y0778655D01*
X0019647Y0778830D01*
X0019596Y0779006D01*
X0019549Y0779184D01*
X0019507Y0779362D01*
X0019469Y0779542D01*
X0019435Y0779722D01*
X0019406Y0779903D01*
X0019381Y0780085D01*
X0019361Y0780267D01*
X0019345Y0780450D01*
X0019334Y0780633D01*
X0019327Y0780817D01*
X0019325Y0781000D01*
X0267831Y0566000D02*
X0267833Y0566088D01*
X0267839Y0566176D01*
X0267849Y0566264D01*
X0267863Y0566352D01*
X0267880Y0566438D01*
X0267902Y0566524D01*
X0267927Y0566608D01*
X0267957Y0566692D01*
X0267989Y0566774D01*
X0268026Y0566854D01*
X0268066Y0566933D01*
X0268110Y0567010D01*
X0268157Y0567085D01*
X0268207Y0567157D01*
X0268261Y0567228D01*
X0268317Y0567295D01*
X0268377Y0567361D01*
X0268439Y0567423D01*
X0268505Y0567483D01*
X0268572Y0567539D01*
X0268643Y0567593D01*
X0268715Y0567643D01*
X0268790Y0567690D01*
X0268867Y0567734D01*
X0268946Y0567774D01*
X0269026Y0567811D01*
X0269108Y0567843D01*
X0269192Y0567873D01*
X0269276Y0567898D01*
X0269362Y0567920D01*
X0269448Y0567937D01*
X0269536Y0567951D01*
X0269624Y0567961D01*
X0269712Y0567967D01*
X0269800Y0567969D01*
X0269888Y0567967D01*
X0269976Y0567961D01*
X0270064Y0567951D01*
X0270152Y0567937D01*
X0270238Y0567920D01*
X0270324Y0567898D01*
X0270408Y0567873D01*
X0270492Y0567843D01*
X0270574Y0567811D01*
X0270654Y0567774D01*
X0270733Y0567734D01*
X0270810Y0567690D01*
X0270885Y0567643D01*
X0270957Y0567593D01*
X0271028Y0567539D01*
X0271095Y0567483D01*
X0271161Y0567423D01*
X0271223Y0567361D01*
X0271283Y0567295D01*
X0271339Y0567228D01*
X0271393Y0567157D01*
X0271443Y0567085D01*
X0271490Y0567010D01*
X0271534Y0566933D01*
X0271574Y0566854D01*
X0271611Y0566774D01*
X0271643Y0566692D01*
X0271673Y0566608D01*
X0271698Y0566524D01*
X0271720Y0566438D01*
X0271737Y0566352D01*
X0271751Y0566264D01*
X0271761Y0566176D01*
X0271767Y0566088D01*
X0271769Y0566000D01*
X0271767Y0565912D01*
X0271761Y0565824D01*
X0271751Y0565736D01*
X0271737Y0565648D01*
X0271720Y0565562D01*
X0271698Y0565476D01*
X0271673Y0565392D01*
X0271643Y0565308D01*
X0271611Y0565226D01*
X0271574Y0565146D01*
X0271534Y0565067D01*
X0271490Y0564990D01*
X0271443Y0564915D01*
X0271393Y0564843D01*
X0271339Y0564772D01*
X0271283Y0564705D01*
X0271223Y0564639D01*
X0271161Y0564577D01*
X0271095Y0564517D01*
X0271028Y0564461D01*
X0270957Y0564407D01*
X0270885Y0564357D01*
X0270810Y0564310D01*
X0270733Y0564266D01*
X0270654Y0564226D01*
X0270574Y0564189D01*
X0270492Y0564157D01*
X0270408Y0564127D01*
X0270324Y0564102D01*
X0270238Y0564080D01*
X0270152Y0564063D01*
X0270064Y0564049D01*
X0269976Y0564039D01*
X0269888Y0564033D01*
X0269800Y0564031D01*
X0269712Y0564033D01*
X0269624Y0564039D01*
X0269536Y0564049D01*
X0269448Y0564063D01*
X0269362Y0564080D01*
X0269276Y0564102D01*
X0269192Y0564127D01*
X0269108Y0564157D01*
X0269026Y0564189D01*
X0268946Y0564226D01*
X0268867Y0564266D01*
X0268790Y0564310D01*
X0268715Y0564357D01*
X0268643Y0564407D01*
X0268572Y0564461D01*
X0268505Y0564517D01*
X0268439Y0564577D01*
X0268377Y0564639D01*
X0268317Y0564705D01*
X0268261Y0564772D01*
X0268207Y0564843D01*
X0268157Y0564915D01*
X0268110Y0564990D01*
X0268066Y0565067D01*
X0268026Y0565146D01*
X0267989Y0565226D01*
X0267957Y0565308D01*
X0267927Y0565392D01*
X0267902Y0565476D01*
X0267880Y0565562D01*
X0267863Y0565648D01*
X0267849Y0565736D01*
X0267839Y0565824D01*
X0267833Y0565912D01*
X0267831Y0566000D01*
X0267831Y0536000D02*
X0267833Y0536088D01*
X0267839Y0536176D01*
X0267849Y0536264D01*
X0267863Y0536352D01*
X0267880Y0536438D01*
X0267902Y0536524D01*
X0267927Y0536608D01*
X0267957Y0536692D01*
X0267989Y0536774D01*
X0268026Y0536854D01*
X0268066Y0536933D01*
X0268110Y0537010D01*
X0268157Y0537085D01*
X0268207Y0537157D01*
X0268261Y0537228D01*
X0268317Y0537295D01*
X0268377Y0537361D01*
X0268439Y0537423D01*
X0268505Y0537483D01*
X0268572Y0537539D01*
X0268643Y0537593D01*
X0268715Y0537643D01*
X0268790Y0537690D01*
X0268867Y0537734D01*
X0268946Y0537774D01*
X0269026Y0537811D01*
X0269108Y0537843D01*
X0269192Y0537873D01*
X0269276Y0537898D01*
X0269362Y0537920D01*
X0269448Y0537937D01*
X0269536Y0537951D01*
X0269624Y0537961D01*
X0269712Y0537967D01*
X0269800Y0537969D01*
X0269888Y0537967D01*
X0269976Y0537961D01*
X0270064Y0537951D01*
X0270152Y0537937D01*
X0270238Y0537920D01*
X0270324Y0537898D01*
X0270408Y0537873D01*
X0270492Y0537843D01*
X0270574Y0537811D01*
X0270654Y0537774D01*
X0270733Y0537734D01*
X0270810Y0537690D01*
X0270885Y0537643D01*
X0270957Y0537593D01*
X0271028Y0537539D01*
X0271095Y0537483D01*
X0271161Y0537423D01*
X0271223Y0537361D01*
X0271283Y0537295D01*
X0271339Y0537228D01*
X0271393Y0537157D01*
X0271443Y0537085D01*
X0271490Y0537010D01*
X0271534Y0536933D01*
X0271574Y0536854D01*
X0271611Y0536774D01*
X0271643Y0536692D01*
X0271673Y0536608D01*
X0271698Y0536524D01*
X0271720Y0536438D01*
X0271737Y0536352D01*
X0271751Y0536264D01*
X0271761Y0536176D01*
X0271767Y0536088D01*
X0271769Y0536000D01*
X0271767Y0535912D01*
X0271761Y0535824D01*
X0271751Y0535736D01*
X0271737Y0535648D01*
X0271720Y0535562D01*
X0271698Y0535476D01*
X0271673Y0535392D01*
X0271643Y0535308D01*
X0271611Y0535226D01*
X0271574Y0535146D01*
X0271534Y0535067D01*
X0271490Y0534990D01*
X0271443Y0534915D01*
X0271393Y0534843D01*
X0271339Y0534772D01*
X0271283Y0534705D01*
X0271223Y0534639D01*
X0271161Y0534577D01*
X0271095Y0534517D01*
X0271028Y0534461D01*
X0270957Y0534407D01*
X0270885Y0534357D01*
X0270810Y0534310D01*
X0270733Y0534266D01*
X0270654Y0534226D01*
X0270574Y0534189D01*
X0270492Y0534157D01*
X0270408Y0534127D01*
X0270324Y0534102D01*
X0270238Y0534080D01*
X0270152Y0534063D01*
X0270064Y0534049D01*
X0269976Y0534039D01*
X0269888Y0534033D01*
X0269800Y0534031D01*
X0269712Y0534033D01*
X0269624Y0534039D01*
X0269536Y0534049D01*
X0269448Y0534063D01*
X0269362Y0534080D01*
X0269276Y0534102D01*
X0269192Y0534127D01*
X0269108Y0534157D01*
X0269026Y0534189D01*
X0268946Y0534226D01*
X0268867Y0534266D01*
X0268790Y0534310D01*
X0268715Y0534357D01*
X0268643Y0534407D01*
X0268572Y0534461D01*
X0268505Y0534517D01*
X0268439Y0534577D01*
X0268377Y0534639D01*
X0268317Y0534705D01*
X0268261Y0534772D01*
X0268207Y0534843D01*
X0268157Y0534915D01*
X0268110Y0534990D01*
X0268066Y0535067D01*
X0268026Y0535146D01*
X0267989Y0535226D01*
X0267957Y0535308D01*
X0267927Y0535392D01*
X0267902Y0535476D01*
X0267880Y0535562D01*
X0267863Y0535648D01*
X0267849Y0535736D01*
X0267839Y0535824D01*
X0267833Y0535912D01*
X0267831Y0536000D01*
X0344325Y0456000D02*
X0344327Y0456183D01*
X0344334Y0456367D01*
X0344345Y0456550D01*
X0344361Y0456733D01*
X0344381Y0456915D01*
X0344406Y0457097D01*
X0344435Y0457278D01*
X0344469Y0457458D01*
X0344507Y0457638D01*
X0344549Y0457816D01*
X0344596Y0457994D01*
X0344647Y0458170D01*
X0344702Y0458345D01*
X0344762Y0458518D01*
X0344826Y0458690D01*
X0344894Y0458861D01*
X0344966Y0459029D01*
X0345043Y0459196D01*
X0345123Y0459361D01*
X0345208Y0459524D01*
X0345296Y0459684D01*
X0345388Y0459843D01*
X0345485Y0459999D01*
X0345585Y0460153D01*
X0345689Y0460304D01*
X0345796Y0460453D01*
X0345907Y0460599D01*
X0346022Y0460742D01*
X0346140Y0460882D01*
X0346261Y0461020D01*
X0346386Y0461154D01*
X0346514Y0461286D01*
X0346646Y0461414D01*
X0346780Y0461539D01*
X0346918Y0461660D01*
X0347058Y0461778D01*
X0347201Y0461893D01*
X0347347Y0462004D01*
X0347496Y0462111D01*
X0347647Y0462215D01*
X0347801Y0462315D01*
X0347957Y0462412D01*
X0348116Y0462504D01*
X0348276Y0462592D01*
X0348439Y0462677D01*
X0348604Y0462757D01*
X0348771Y0462834D01*
X0348939Y0462906D01*
X0349110Y0462974D01*
X0349282Y0463038D01*
X0349455Y0463098D01*
X0349630Y0463153D01*
X0349806Y0463204D01*
X0349984Y0463251D01*
X0350162Y0463293D01*
X0350342Y0463331D01*
X0350522Y0463365D01*
X0350703Y0463394D01*
X0350885Y0463419D01*
X0351067Y0463439D01*
X0351250Y0463455D01*
X0351433Y0463466D01*
X0351617Y0463473D01*
X0351800Y0463475D01*
X0351983Y0463473D01*
X0352167Y0463466D01*
X0352350Y0463455D01*
X0352533Y0463439D01*
X0352715Y0463419D01*
X0352897Y0463394D01*
X0353078Y0463365D01*
X0353258Y0463331D01*
X0353438Y0463293D01*
X0353616Y0463251D01*
X0353794Y0463204D01*
X0353970Y0463153D01*
X0354145Y0463098D01*
X0354318Y0463038D01*
X0354490Y0462974D01*
X0354661Y0462906D01*
X0354829Y0462834D01*
X0354996Y0462757D01*
X0355161Y0462677D01*
X0355324Y0462592D01*
X0355484Y0462504D01*
X0355643Y0462412D01*
X0355799Y0462315D01*
X0355953Y0462215D01*
X0356104Y0462111D01*
X0356253Y0462004D01*
X0356399Y0461893D01*
X0356542Y0461778D01*
X0356682Y0461660D01*
X0356820Y0461539D01*
X0356954Y0461414D01*
X0357086Y0461286D01*
X0357214Y0461154D01*
X0357339Y0461020D01*
X0357460Y0460882D01*
X0357578Y0460742D01*
X0357693Y0460599D01*
X0357804Y0460453D01*
X0357911Y0460304D01*
X0358015Y0460153D01*
X0358115Y0459999D01*
X0358212Y0459843D01*
X0358304Y0459684D01*
X0358392Y0459524D01*
X0358477Y0459361D01*
X0358557Y0459196D01*
X0358634Y0459029D01*
X0358706Y0458861D01*
X0358774Y0458690D01*
X0358838Y0458518D01*
X0358898Y0458345D01*
X0358953Y0458170D01*
X0359004Y0457994D01*
X0359051Y0457816D01*
X0359093Y0457638D01*
X0359131Y0457458D01*
X0359165Y0457278D01*
X0359194Y0457097D01*
X0359219Y0456915D01*
X0359239Y0456733D01*
X0359255Y0456550D01*
X0359266Y0456367D01*
X0359273Y0456183D01*
X0359275Y0456000D01*
X0359273Y0455817D01*
X0359266Y0455633D01*
X0359255Y0455450D01*
X0359239Y0455267D01*
X0359219Y0455085D01*
X0359194Y0454903D01*
X0359165Y0454722D01*
X0359131Y0454542D01*
X0359093Y0454362D01*
X0359051Y0454184D01*
X0359004Y0454006D01*
X0358953Y0453830D01*
X0358898Y0453655D01*
X0358838Y0453482D01*
X0358774Y0453310D01*
X0358706Y0453139D01*
X0358634Y0452971D01*
X0358557Y0452804D01*
X0358477Y0452639D01*
X0358392Y0452476D01*
X0358304Y0452316D01*
X0358212Y0452157D01*
X0358115Y0452001D01*
X0358015Y0451847D01*
X0357911Y0451696D01*
X0357804Y0451547D01*
X0357693Y0451401D01*
X0357578Y0451258D01*
X0357460Y0451118D01*
X0357339Y0450980D01*
X0357214Y0450846D01*
X0357086Y0450714D01*
X0356954Y0450586D01*
X0356820Y0450461D01*
X0356682Y0450340D01*
X0356542Y0450222D01*
X0356399Y0450107D01*
X0356253Y0449996D01*
X0356104Y0449889D01*
X0355953Y0449785D01*
X0355799Y0449685D01*
X0355643Y0449588D01*
X0355484Y0449496D01*
X0355324Y0449408D01*
X0355161Y0449323D01*
X0354996Y0449243D01*
X0354829Y0449166D01*
X0354661Y0449094D01*
X0354490Y0449026D01*
X0354318Y0448962D01*
X0354145Y0448902D01*
X0353970Y0448847D01*
X0353794Y0448796D01*
X0353616Y0448749D01*
X0353438Y0448707D01*
X0353258Y0448669D01*
X0353078Y0448635D01*
X0352897Y0448606D01*
X0352715Y0448581D01*
X0352533Y0448561D01*
X0352350Y0448545D01*
X0352167Y0448534D01*
X0351983Y0448527D01*
X0351800Y0448525D01*
X0351617Y0448527D01*
X0351433Y0448534D01*
X0351250Y0448545D01*
X0351067Y0448561D01*
X0350885Y0448581D01*
X0350703Y0448606D01*
X0350522Y0448635D01*
X0350342Y0448669D01*
X0350162Y0448707D01*
X0349984Y0448749D01*
X0349806Y0448796D01*
X0349630Y0448847D01*
X0349455Y0448902D01*
X0349282Y0448962D01*
X0349110Y0449026D01*
X0348939Y0449094D01*
X0348771Y0449166D01*
X0348604Y0449243D01*
X0348439Y0449323D01*
X0348276Y0449408D01*
X0348116Y0449496D01*
X0347957Y0449588D01*
X0347801Y0449685D01*
X0347647Y0449785D01*
X0347496Y0449889D01*
X0347347Y0449996D01*
X0347201Y0450107D01*
X0347058Y0450222D01*
X0346918Y0450340D01*
X0346780Y0450461D01*
X0346646Y0450586D01*
X0346514Y0450714D01*
X0346386Y0450846D01*
X0346261Y0450980D01*
X0346140Y0451118D01*
X0346022Y0451258D01*
X0345907Y0451401D01*
X0345796Y0451547D01*
X0345689Y0451696D01*
X0345585Y0451847D01*
X0345485Y0452001D01*
X0345388Y0452157D01*
X0345296Y0452316D01*
X0345208Y0452476D01*
X0345123Y0452639D01*
X0345043Y0452804D01*
X0344966Y0452971D01*
X0344894Y0453139D01*
X0344826Y0453310D01*
X0344762Y0453482D01*
X0344702Y0453655D01*
X0344647Y0453830D01*
X0344596Y0454006D01*
X0344549Y0454184D01*
X0344507Y0454362D01*
X0344469Y0454542D01*
X0344435Y0454722D01*
X0344406Y0454903D01*
X0344381Y0455085D01*
X0344361Y0455267D01*
X0344345Y0455450D01*
X0344334Y0455633D01*
X0344327Y0455817D01*
X0344325Y0456000D01*
X0369325Y0401000D02*
X0369327Y0401183D01*
X0369334Y0401367D01*
X0369345Y0401550D01*
X0369361Y0401733D01*
X0369381Y0401915D01*
X0369406Y0402097D01*
X0369435Y0402278D01*
X0369469Y0402458D01*
X0369507Y0402638D01*
X0369549Y0402816D01*
X0369596Y0402994D01*
X0369647Y0403170D01*
X0369702Y0403345D01*
X0369762Y0403518D01*
X0369826Y0403690D01*
X0369894Y0403861D01*
X0369966Y0404029D01*
X0370043Y0404196D01*
X0370123Y0404361D01*
X0370208Y0404524D01*
X0370296Y0404684D01*
X0370388Y0404843D01*
X0370485Y0404999D01*
X0370585Y0405153D01*
X0370689Y0405304D01*
X0370796Y0405453D01*
X0370907Y0405599D01*
X0371022Y0405742D01*
X0371140Y0405882D01*
X0371261Y0406020D01*
X0371386Y0406154D01*
X0371514Y0406286D01*
X0371646Y0406414D01*
X0371780Y0406539D01*
X0371918Y0406660D01*
X0372058Y0406778D01*
X0372201Y0406893D01*
X0372347Y0407004D01*
X0372496Y0407111D01*
X0372647Y0407215D01*
X0372801Y0407315D01*
X0372957Y0407412D01*
X0373116Y0407504D01*
X0373276Y0407592D01*
X0373439Y0407677D01*
X0373604Y0407757D01*
X0373771Y0407834D01*
X0373939Y0407906D01*
X0374110Y0407974D01*
X0374282Y0408038D01*
X0374455Y0408098D01*
X0374630Y0408153D01*
X0374806Y0408204D01*
X0374984Y0408251D01*
X0375162Y0408293D01*
X0375342Y0408331D01*
X0375522Y0408365D01*
X0375703Y0408394D01*
X0375885Y0408419D01*
X0376067Y0408439D01*
X0376250Y0408455D01*
X0376433Y0408466D01*
X0376617Y0408473D01*
X0376800Y0408475D01*
X0376983Y0408473D01*
X0377167Y0408466D01*
X0377350Y0408455D01*
X0377533Y0408439D01*
X0377715Y0408419D01*
X0377897Y0408394D01*
X0378078Y0408365D01*
X0378258Y0408331D01*
X0378438Y0408293D01*
X0378616Y0408251D01*
X0378794Y0408204D01*
X0378970Y0408153D01*
X0379145Y0408098D01*
X0379318Y0408038D01*
X0379490Y0407974D01*
X0379661Y0407906D01*
X0379829Y0407834D01*
X0379996Y0407757D01*
X0380161Y0407677D01*
X0380324Y0407592D01*
X0380484Y0407504D01*
X0380643Y0407412D01*
X0380799Y0407315D01*
X0380953Y0407215D01*
X0381104Y0407111D01*
X0381253Y0407004D01*
X0381399Y0406893D01*
X0381542Y0406778D01*
X0381682Y0406660D01*
X0381820Y0406539D01*
X0381954Y0406414D01*
X0382086Y0406286D01*
X0382214Y0406154D01*
X0382339Y0406020D01*
X0382460Y0405882D01*
X0382578Y0405742D01*
X0382693Y0405599D01*
X0382804Y0405453D01*
X0382911Y0405304D01*
X0383015Y0405153D01*
X0383115Y0404999D01*
X0383212Y0404843D01*
X0383304Y0404684D01*
X0383392Y0404524D01*
X0383477Y0404361D01*
X0383557Y0404196D01*
X0383634Y0404029D01*
X0383706Y0403861D01*
X0383774Y0403690D01*
X0383838Y0403518D01*
X0383898Y0403345D01*
X0383953Y0403170D01*
X0384004Y0402994D01*
X0384051Y0402816D01*
X0384093Y0402638D01*
X0384131Y0402458D01*
X0384165Y0402278D01*
X0384194Y0402097D01*
X0384219Y0401915D01*
X0384239Y0401733D01*
X0384255Y0401550D01*
X0384266Y0401367D01*
X0384273Y0401183D01*
X0384275Y0401000D01*
X0384273Y0400817D01*
X0384266Y0400633D01*
X0384255Y0400450D01*
X0384239Y0400267D01*
X0384219Y0400085D01*
X0384194Y0399903D01*
X0384165Y0399722D01*
X0384131Y0399542D01*
X0384093Y0399362D01*
X0384051Y0399184D01*
X0384004Y0399006D01*
X0383953Y0398830D01*
X0383898Y0398655D01*
X0383838Y0398482D01*
X0383774Y0398310D01*
X0383706Y0398139D01*
X0383634Y0397971D01*
X0383557Y0397804D01*
X0383477Y0397639D01*
X0383392Y0397476D01*
X0383304Y0397316D01*
X0383212Y0397157D01*
X0383115Y0397001D01*
X0383015Y0396847D01*
X0382911Y0396696D01*
X0382804Y0396547D01*
X0382693Y0396401D01*
X0382578Y0396258D01*
X0382460Y0396118D01*
X0382339Y0395980D01*
X0382214Y0395846D01*
X0382086Y0395714D01*
X0381954Y0395586D01*
X0381820Y0395461D01*
X0381682Y0395340D01*
X0381542Y0395222D01*
X0381399Y0395107D01*
X0381253Y0394996D01*
X0381104Y0394889D01*
X0380953Y0394785D01*
X0380799Y0394685D01*
X0380643Y0394588D01*
X0380484Y0394496D01*
X0380324Y0394408D01*
X0380161Y0394323D01*
X0379996Y0394243D01*
X0379829Y0394166D01*
X0379661Y0394094D01*
X0379490Y0394026D01*
X0379318Y0393962D01*
X0379145Y0393902D01*
X0378970Y0393847D01*
X0378794Y0393796D01*
X0378616Y0393749D01*
X0378438Y0393707D01*
X0378258Y0393669D01*
X0378078Y0393635D01*
X0377897Y0393606D01*
X0377715Y0393581D01*
X0377533Y0393561D01*
X0377350Y0393545D01*
X0377167Y0393534D01*
X0376983Y0393527D01*
X0376800Y0393525D01*
X0376617Y0393527D01*
X0376433Y0393534D01*
X0376250Y0393545D01*
X0376067Y0393561D01*
X0375885Y0393581D01*
X0375703Y0393606D01*
X0375522Y0393635D01*
X0375342Y0393669D01*
X0375162Y0393707D01*
X0374984Y0393749D01*
X0374806Y0393796D01*
X0374630Y0393847D01*
X0374455Y0393902D01*
X0374282Y0393962D01*
X0374110Y0394026D01*
X0373939Y0394094D01*
X0373771Y0394166D01*
X0373604Y0394243D01*
X0373439Y0394323D01*
X0373276Y0394408D01*
X0373116Y0394496D01*
X0372957Y0394588D01*
X0372801Y0394685D01*
X0372647Y0394785D01*
X0372496Y0394889D01*
X0372347Y0394996D01*
X0372201Y0395107D01*
X0372058Y0395222D01*
X0371918Y0395340D01*
X0371780Y0395461D01*
X0371646Y0395586D01*
X0371514Y0395714D01*
X0371386Y0395846D01*
X0371261Y0395980D01*
X0371140Y0396118D01*
X0371022Y0396258D01*
X0370907Y0396401D01*
X0370796Y0396547D01*
X0370689Y0396696D01*
X0370585Y0396847D01*
X0370485Y0397001D01*
X0370388Y0397157D01*
X0370296Y0397316D01*
X0370208Y0397476D01*
X0370123Y0397639D01*
X0370043Y0397804D01*
X0369966Y0397971D01*
X0369894Y0398139D01*
X0369826Y0398310D01*
X0369762Y0398482D01*
X0369702Y0398655D01*
X0369647Y0398830D01*
X0369596Y0399006D01*
X0369549Y0399184D01*
X0369507Y0399362D01*
X0369469Y0399542D01*
X0369435Y0399722D01*
X0369406Y0399903D01*
X0369381Y0400085D01*
X0369361Y0400267D01*
X0369345Y0400450D01*
X0369334Y0400633D01*
X0369327Y0400817D01*
X0369325Y0401000D01*
X0369325Y0026000D02*
X0369327Y0026183D01*
X0369334Y0026367D01*
X0369345Y0026550D01*
X0369361Y0026733D01*
X0369381Y0026915D01*
X0369406Y0027097D01*
X0369435Y0027278D01*
X0369469Y0027458D01*
X0369507Y0027638D01*
X0369549Y0027816D01*
X0369596Y0027994D01*
X0369647Y0028170D01*
X0369702Y0028345D01*
X0369762Y0028518D01*
X0369826Y0028690D01*
X0369894Y0028861D01*
X0369966Y0029029D01*
X0370043Y0029196D01*
X0370123Y0029361D01*
X0370208Y0029524D01*
X0370296Y0029684D01*
X0370388Y0029843D01*
X0370485Y0029999D01*
X0370585Y0030153D01*
X0370689Y0030304D01*
X0370796Y0030453D01*
X0370907Y0030599D01*
X0371022Y0030742D01*
X0371140Y0030882D01*
X0371261Y0031020D01*
X0371386Y0031154D01*
X0371514Y0031286D01*
X0371646Y0031414D01*
X0371780Y0031539D01*
X0371918Y0031660D01*
X0372058Y0031778D01*
X0372201Y0031893D01*
X0372347Y0032004D01*
X0372496Y0032111D01*
X0372647Y0032215D01*
X0372801Y0032315D01*
X0372957Y0032412D01*
X0373116Y0032504D01*
X0373276Y0032592D01*
X0373439Y0032677D01*
X0373604Y0032757D01*
X0373771Y0032834D01*
X0373939Y0032906D01*
X0374110Y0032974D01*
X0374282Y0033038D01*
X0374455Y0033098D01*
X0374630Y0033153D01*
X0374806Y0033204D01*
X0374984Y0033251D01*
X0375162Y0033293D01*
X0375342Y0033331D01*
X0375522Y0033365D01*
X0375703Y0033394D01*
X0375885Y0033419D01*
X0376067Y0033439D01*
X0376250Y0033455D01*
X0376433Y0033466D01*
X0376617Y0033473D01*
X0376800Y0033475D01*
X0376983Y0033473D01*
X0377167Y0033466D01*
X0377350Y0033455D01*
X0377533Y0033439D01*
X0377715Y0033419D01*
X0377897Y0033394D01*
X0378078Y0033365D01*
X0378258Y0033331D01*
X0378438Y0033293D01*
X0378616Y0033251D01*
X0378794Y0033204D01*
X0378970Y0033153D01*
X0379145Y0033098D01*
X0379318Y0033038D01*
X0379490Y0032974D01*
X0379661Y0032906D01*
X0379829Y0032834D01*
X0379996Y0032757D01*
X0380161Y0032677D01*
X0380324Y0032592D01*
X0380484Y0032504D01*
X0380643Y0032412D01*
X0380799Y0032315D01*
X0380953Y0032215D01*
X0381104Y0032111D01*
X0381253Y0032004D01*
X0381399Y0031893D01*
X0381542Y0031778D01*
X0381682Y0031660D01*
X0381820Y0031539D01*
X0381954Y0031414D01*
X0382086Y0031286D01*
X0382214Y0031154D01*
X0382339Y0031020D01*
X0382460Y0030882D01*
X0382578Y0030742D01*
X0382693Y0030599D01*
X0382804Y0030453D01*
X0382911Y0030304D01*
X0383015Y0030153D01*
X0383115Y0029999D01*
X0383212Y0029843D01*
X0383304Y0029684D01*
X0383392Y0029524D01*
X0383477Y0029361D01*
X0383557Y0029196D01*
X0383634Y0029029D01*
X0383706Y0028861D01*
X0383774Y0028690D01*
X0383838Y0028518D01*
X0383898Y0028345D01*
X0383953Y0028170D01*
X0384004Y0027994D01*
X0384051Y0027816D01*
X0384093Y0027638D01*
X0384131Y0027458D01*
X0384165Y0027278D01*
X0384194Y0027097D01*
X0384219Y0026915D01*
X0384239Y0026733D01*
X0384255Y0026550D01*
X0384266Y0026367D01*
X0384273Y0026183D01*
X0384275Y0026000D01*
X0384273Y0025817D01*
X0384266Y0025633D01*
X0384255Y0025450D01*
X0384239Y0025267D01*
X0384219Y0025085D01*
X0384194Y0024903D01*
X0384165Y0024722D01*
X0384131Y0024542D01*
X0384093Y0024362D01*
X0384051Y0024184D01*
X0384004Y0024006D01*
X0383953Y0023830D01*
X0383898Y0023655D01*
X0383838Y0023482D01*
X0383774Y0023310D01*
X0383706Y0023139D01*
X0383634Y0022971D01*
X0383557Y0022804D01*
X0383477Y0022639D01*
X0383392Y0022476D01*
X0383304Y0022316D01*
X0383212Y0022157D01*
X0383115Y0022001D01*
X0383015Y0021847D01*
X0382911Y0021696D01*
X0382804Y0021547D01*
X0382693Y0021401D01*
X0382578Y0021258D01*
X0382460Y0021118D01*
X0382339Y0020980D01*
X0382214Y0020846D01*
X0382086Y0020714D01*
X0381954Y0020586D01*
X0381820Y0020461D01*
X0381682Y0020340D01*
X0381542Y0020222D01*
X0381399Y0020107D01*
X0381253Y0019996D01*
X0381104Y0019889D01*
X0380953Y0019785D01*
X0380799Y0019685D01*
X0380643Y0019588D01*
X0380484Y0019496D01*
X0380324Y0019408D01*
X0380161Y0019323D01*
X0379996Y0019243D01*
X0379829Y0019166D01*
X0379661Y0019094D01*
X0379490Y0019026D01*
X0379318Y0018962D01*
X0379145Y0018902D01*
X0378970Y0018847D01*
X0378794Y0018796D01*
X0378616Y0018749D01*
X0378438Y0018707D01*
X0378258Y0018669D01*
X0378078Y0018635D01*
X0377897Y0018606D01*
X0377715Y0018581D01*
X0377533Y0018561D01*
X0377350Y0018545D01*
X0377167Y0018534D01*
X0376983Y0018527D01*
X0376800Y0018525D01*
X0376617Y0018527D01*
X0376433Y0018534D01*
X0376250Y0018545D01*
X0376067Y0018561D01*
X0375885Y0018581D01*
X0375703Y0018606D01*
X0375522Y0018635D01*
X0375342Y0018669D01*
X0375162Y0018707D01*
X0374984Y0018749D01*
X0374806Y0018796D01*
X0374630Y0018847D01*
X0374455Y0018902D01*
X0374282Y0018962D01*
X0374110Y0019026D01*
X0373939Y0019094D01*
X0373771Y0019166D01*
X0373604Y0019243D01*
X0373439Y0019323D01*
X0373276Y0019408D01*
X0373116Y0019496D01*
X0372957Y0019588D01*
X0372801Y0019685D01*
X0372647Y0019785D01*
X0372496Y0019889D01*
X0372347Y0019996D01*
X0372201Y0020107D01*
X0372058Y0020222D01*
X0371918Y0020340D01*
X0371780Y0020461D01*
X0371646Y0020586D01*
X0371514Y0020714D01*
X0371386Y0020846D01*
X0371261Y0020980D01*
X0371140Y0021118D01*
X0371022Y0021258D01*
X0370907Y0021401D01*
X0370796Y0021547D01*
X0370689Y0021696D01*
X0370585Y0021847D01*
X0370485Y0022001D01*
X0370388Y0022157D01*
X0370296Y0022316D01*
X0370208Y0022476D01*
X0370123Y0022639D01*
X0370043Y0022804D01*
X0369966Y0022971D01*
X0369894Y0023139D01*
X0369826Y0023310D01*
X0369762Y0023482D01*
X0369702Y0023655D01*
X0369647Y0023830D01*
X0369596Y0024006D01*
X0369549Y0024184D01*
X0369507Y0024362D01*
X0369469Y0024542D01*
X0369435Y0024722D01*
X0369406Y0024903D01*
X0369381Y0025085D01*
X0369361Y0025267D01*
X0369345Y0025450D01*
X0369334Y0025633D01*
X0369327Y0025817D01*
X0369325Y0026000D01*
X0344325Y0781000D02*
X0344327Y0781183D01*
X0344334Y0781367D01*
X0344345Y0781550D01*
X0344361Y0781733D01*
X0344381Y0781915D01*
X0344406Y0782097D01*
X0344435Y0782278D01*
X0344469Y0782458D01*
X0344507Y0782638D01*
X0344549Y0782816D01*
X0344596Y0782994D01*
X0344647Y0783170D01*
X0344702Y0783345D01*
X0344762Y0783518D01*
X0344826Y0783690D01*
X0344894Y0783861D01*
X0344966Y0784029D01*
X0345043Y0784196D01*
X0345123Y0784361D01*
X0345208Y0784524D01*
X0345296Y0784684D01*
X0345388Y0784843D01*
X0345485Y0784999D01*
X0345585Y0785153D01*
X0345689Y0785304D01*
X0345796Y0785453D01*
X0345907Y0785599D01*
X0346022Y0785742D01*
X0346140Y0785882D01*
X0346261Y0786020D01*
X0346386Y0786154D01*
X0346514Y0786286D01*
X0346646Y0786414D01*
X0346780Y0786539D01*
X0346918Y0786660D01*
X0347058Y0786778D01*
X0347201Y0786893D01*
X0347347Y0787004D01*
X0347496Y0787111D01*
X0347647Y0787215D01*
X0347801Y0787315D01*
X0347957Y0787412D01*
X0348116Y0787504D01*
X0348276Y0787592D01*
X0348439Y0787677D01*
X0348604Y0787757D01*
X0348771Y0787834D01*
X0348939Y0787906D01*
X0349110Y0787974D01*
X0349282Y0788038D01*
X0349455Y0788098D01*
X0349630Y0788153D01*
X0349806Y0788204D01*
X0349984Y0788251D01*
X0350162Y0788293D01*
X0350342Y0788331D01*
X0350522Y0788365D01*
X0350703Y0788394D01*
X0350885Y0788419D01*
X0351067Y0788439D01*
X0351250Y0788455D01*
X0351433Y0788466D01*
X0351617Y0788473D01*
X0351800Y0788475D01*
X0351983Y0788473D01*
X0352167Y0788466D01*
X0352350Y0788455D01*
X0352533Y0788439D01*
X0352715Y0788419D01*
X0352897Y0788394D01*
X0353078Y0788365D01*
X0353258Y0788331D01*
X0353438Y0788293D01*
X0353616Y0788251D01*
X0353794Y0788204D01*
X0353970Y0788153D01*
X0354145Y0788098D01*
X0354318Y0788038D01*
X0354490Y0787974D01*
X0354661Y0787906D01*
X0354829Y0787834D01*
X0354996Y0787757D01*
X0355161Y0787677D01*
X0355324Y0787592D01*
X0355484Y0787504D01*
X0355643Y0787412D01*
X0355799Y0787315D01*
X0355953Y0787215D01*
X0356104Y0787111D01*
X0356253Y0787004D01*
X0356399Y0786893D01*
X0356542Y0786778D01*
X0356682Y0786660D01*
X0356820Y0786539D01*
X0356954Y0786414D01*
X0357086Y0786286D01*
X0357214Y0786154D01*
X0357339Y0786020D01*
X0357460Y0785882D01*
X0357578Y0785742D01*
X0357693Y0785599D01*
X0357804Y0785453D01*
X0357911Y0785304D01*
X0358015Y0785153D01*
X0358115Y0784999D01*
X0358212Y0784843D01*
X0358304Y0784684D01*
X0358392Y0784524D01*
X0358477Y0784361D01*
X0358557Y0784196D01*
X0358634Y0784029D01*
X0358706Y0783861D01*
X0358774Y0783690D01*
X0358838Y0783518D01*
X0358898Y0783345D01*
X0358953Y0783170D01*
X0359004Y0782994D01*
X0359051Y0782816D01*
X0359093Y0782638D01*
X0359131Y0782458D01*
X0359165Y0782278D01*
X0359194Y0782097D01*
X0359219Y0781915D01*
X0359239Y0781733D01*
X0359255Y0781550D01*
X0359266Y0781367D01*
X0359273Y0781183D01*
X0359275Y0781000D01*
X0359273Y0780817D01*
X0359266Y0780633D01*
X0359255Y0780450D01*
X0359239Y0780267D01*
X0359219Y0780085D01*
X0359194Y0779903D01*
X0359165Y0779722D01*
X0359131Y0779542D01*
X0359093Y0779362D01*
X0359051Y0779184D01*
X0359004Y0779006D01*
X0358953Y0778830D01*
X0358898Y0778655D01*
X0358838Y0778482D01*
X0358774Y0778310D01*
X0358706Y0778139D01*
X0358634Y0777971D01*
X0358557Y0777804D01*
X0358477Y0777639D01*
X0358392Y0777476D01*
X0358304Y0777316D01*
X0358212Y0777157D01*
X0358115Y0777001D01*
X0358015Y0776847D01*
X0357911Y0776696D01*
X0357804Y0776547D01*
X0357693Y0776401D01*
X0357578Y0776258D01*
X0357460Y0776118D01*
X0357339Y0775980D01*
X0357214Y0775846D01*
X0357086Y0775714D01*
X0356954Y0775586D01*
X0356820Y0775461D01*
X0356682Y0775340D01*
X0356542Y0775222D01*
X0356399Y0775107D01*
X0356253Y0774996D01*
X0356104Y0774889D01*
X0355953Y0774785D01*
X0355799Y0774685D01*
X0355643Y0774588D01*
X0355484Y0774496D01*
X0355324Y0774408D01*
X0355161Y0774323D01*
X0354996Y0774243D01*
X0354829Y0774166D01*
X0354661Y0774094D01*
X0354490Y0774026D01*
X0354318Y0773962D01*
X0354145Y0773902D01*
X0353970Y0773847D01*
X0353794Y0773796D01*
X0353616Y0773749D01*
X0353438Y0773707D01*
X0353258Y0773669D01*
X0353078Y0773635D01*
X0352897Y0773606D01*
X0352715Y0773581D01*
X0352533Y0773561D01*
X0352350Y0773545D01*
X0352167Y0773534D01*
X0351983Y0773527D01*
X0351800Y0773525D01*
X0351617Y0773527D01*
X0351433Y0773534D01*
X0351250Y0773545D01*
X0351067Y0773561D01*
X0350885Y0773581D01*
X0350703Y0773606D01*
X0350522Y0773635D01*
X0350342Y0773669D01*
X0350162Y0773707D01*
X0349984Y0773749D01*
X0349806Y0773796D01*
X0349630Y0773847D01*
X0349455Y0773902D01*
X0349282Y0773962D01*
X0349110Y0774026D01*
X0348939Y0774094D01*
X0348771Y0774166D01*
X0348604Y0774243D01*
X0348439Y0774323D01*
X0348276Y0774408D01*
X0348116Y0774496D01*
X0347957Y0774588D01*
X0347801Y0774685D01*
X0347647Y0774785D01*
X0347496Y0774889D01*
X0347347Y0774996D01*
X0347201Y0775107D01*
X0347058Y0775222D01*
X0346918Y0775340D01*
X0346780Y0775461D01*
X0346646Y0775586D01*
X0346514Y0775714D01*
X0346386Y0775846D01*
X0346261Y0775980D01*
X0346140Y0776118D01*
X0346022Y0776258D01*
X0345907Y0776401D01*
X0345796Y0776547D01*
X0345689Y0776696D01*
X0345585Y0776847D01*
X0345485Y0777001D01*
X0345388Y0777157D01*
X0345296Y0777316D01*
X0345208Y0777476D01*
X0345123Y0777639D01*
X0345043Y0777804D01*
X0344966Y0777971D01*
X0344894Y0778139D01*
X0344826Y0778310D01*
X0344762Y0778482D01*
X0344702Y0778655D01*
X0344647Y0778830D01*
X0344596Y0779006D01*
X0344549Y0779184D01*
X0344507Y0779362D01*
X0344469Y0779542D01*
X0344435Y0779722D01*
X0344406Y0779903D01*
X0344381Y0780085D01*
X0344361Y0780267D01*
X0344345Y0780450D01*
X0344334Y0780633D01*
X0344327Y0780817D01*
X0344325Y0781000D01*
D11*
X0100820Y0372795D02*
X0090780Y0372795D01*
X0090780Y0357205D02*
X0100820Y0357205D01*
X0035820Y0361795D02*
X0025780Y0361795D01*
X0025780Y0346205D02*
X0035820Y0346205D01*
D12*
X0045800Y0104000D03*
D13*
X0055839Y0093961D03*
X0055839Y0114039D03*
X0035761Y0114039D03*
X0035761Y0093961D03*
D14*
X0209060Y0094000D03*
X0216540Y0094000D03*
X0249060Y0119000D03*
X0256540Y0119000D03*
X0256540Y0197000D03*
X0249060Y0197000D03*
X0252060Y0225000D03*
X0259540Y0225000D03*
X0226540Y0243000D03*
X0219060Y0243000D03*
X0213540Y0185000D03*
X0206060Y0185000D03*
X0252060Y0311000D03*
X0259540Y0311000D03*
X0226540Y0330000D03*
X0219060Y0330000D03*
X0297060Y0220000D03*
X0304540Y0220000D03*
D15*
X0249800Y0453400D02*
X0249800Y0458600D01*
X0239800Y0458600D02*
X0239800Y0453400D01*
X0229800Y0453400D02*
X0229800Y0458600D01*
X0229800Y0483400D02*
X0229800Y0488600D01*
X0239800Y0488600D02*
X0239800Y0483400D01*
X0249800Y0483400D02*
X0249800Y0488600D01*
X0249800Y0533400D02*
X0249800Y0538600D01*
X0239800Y0538600D02*
X0239800Y0533400D01*
X0229800Y0533400D02*
X0229800Y0538600D01*
X0219800Y0538600D02*
X0219800Y0533400D01*
X0209800Y0533400D02*
X0209800Y0538600D01*
X0199800Y0538600D02*
X0199800Y0533400D01*
X0199800Y0563400D02*
X0199800Y0568600D01*
X0209800Y0568600D02*
X0209800Y0563400D01*
X0219800Y0563400D02*
X0219800Y0568600D01*
X0229800Y0568600D02*
X0229800Y0563400D01*
X0239800Y0563400D02*
X0239800Y0568600D01*
X0249800Y0568600D02*
X0249800Y0563400D01*
X0259800Y0563400D02*
X0259800Y0568600D01*
X0259800Y0538600D02*
X0259800Y0533400D01*
X0278200Y0694000D02*
X0283400Y0694000D01*
X0283400Y0704000D02*
X0278200Y0704000D01*
X0278200Y0714000D02*
X0283400Y0714000D01*
X0283400Y0724000D02*
X0278200Y0724000D01*
X0308200Y0724000D02*
X0313400Y0724000D01*
X0313400Y0714000D02*
X0308200Y0714000D01*
X0308200Y0704000D02*
X0313400Y0704000D01*
X0313400Y0694000D02*
X0308200Y0694000D01*
X0349200Y0704000D02*
X0354400Y0704000D01*
X0354400Y0714000D02*
X0349200Y0714000D01*
X0349200Y0724000D02*
X0354400Y0724000D01*
X0098400Y0323000D02*
X0093200Y0323000D01*
X0058400Y0323000D02*
X0053200Y0323000D01*
X0057200Y0185000D02*
X0062400Y0185000D01*
X0062400Y0175000D02*
X0057200Y0175000D01*
X0057200Y0165000D02*
X0062400Y0165000D01*
X0062400Y0155000D02*
X0057200Y0155000D01*
X0087200Y0155000D02*
X0092400Y0155000D01*
X0092400Y0165000D02*
X0087200Y0165000D01*
X0087200Y0175000D02*
X0092400Y0175000D01*
X0092400Y0185000D02*
X0087200Y0185000D01*
D16*
X0090800Y0222000D03*
X0090800Y0242000D03*
X0090800Y0262000D03*
X0090800Y0292000D03*
X0060800Y0292000D03*
X0060800Y0262000D03*
X0060800Y0242000D03*
X0060800Y0222000D03*
D17*
X0182500Y0154550D03*
X0189800Y0154550D03*
X0197100Y0154550D03*
X0197100Y0125450D03*
X0189800Y0125450D03*
X0182500Y0125450D03*
X0192500Y0334450D03*
X0199800Y0334450D03*
X0207100Y0334450D03*
X0207100Y0363550D03*
X0199800Y0363550D03*
X0192500Y0363550D03*
D18*
X0363800Y0094024D03*
X0363800Y0071976D03*
X0364800Y0156976D03*
X0364800Y0179024D03*
X0365800Y0274976D03*
X0365800Y0297024D03*
X0365800Y0354976D03*
X0365800Y0377024D03*
D19*
X0305001Y0163902D03*
X0305001Y0152098D03*
X0305001Y0084902D03*
X0305001Y0073098D03*
D20*
X0306001Y0079000D03*
X0306001Y0158000D03*
D21*
X0312316Y0157000D02*
X0312316Y0159000D01*
X0320686Y0159000D01*
X0320686Y0157000D01*
X0312316Y0157000D01*
X0312316Y0080000D02*
X0312316Y0078000D01*
X0312316Y0080000D02*
X0320686Y0080000D01*
X0320686Y0078000D01*
X0312316Y0078000D01*
X0313800Y0271516D02*
X0315800Y0271516D01*
X0313800Y0271516D02*
X0313800Y0279886D01*
X0315800Y0279886D01*
X0315800Y0271516D01*
X0315800Y0277515D02*
X0313800Y0277515D01*
X0314800Y0359516D02*
X0312800Y0359516D01*
X0312800Y0367886D01*
X0314800Y0367886D01*
X0314800Y0359516D01*
X0314800Y0365515D02*
X0312800Y0365515D01*
D22*
X0325300Y0158000D03*
X0325300Y0079000D03*
D23*
X0327800Y0074000D03*
X0332800Y0079000D03*
X0327800Y0084000D03*
X0332800Y0089000D03*
X0327800Y0094000D03*
X0332800Y0099000D03*
X0322800Y0099000D03*
X0317800Y0094000D03*
X0322800Y0089000D03*
X0322800Y0069000D03*
X0317800Y0064000D03*
X0322800Y0059000D03*
X0327800Y0064000D03*
X0332800Y0059000D03*
X0332800Y0069000D03*
X0332800Y0138000D03*
X0327800Y0143000D03*
X0332800Y0148000D03*
X0327800Y0153000D03*
X0332800Y0158000D03*
X0327800Y0163000D03*
X0332800Y0168000D03*
X0327800Y0173000D03*
X0332800Y0178000D03*
X0322800Y0178000D03*
X0317800Y0173000D03*
X0322800Y0168000D03*
X0322800Y0148000D03*
X0317800Y0143000D03*
X0322800Y0138000D03*
X0329800Y0277000D03*
X0324800Y0282000D03*
X0319800Y0287000D03*
X0314800Y0292000D03*
X0309800Y0287000D03*
X0304800Y0292000D03*
X0304800Y0282000D03*
X0299800Y0277000D03*
X0294800Y0282000D03*
X0299800Y0287000D03*
X0294800Y0292000D03*
X0324800Y0292000D03*
X0329800Y0287000D03*
X0334800Y0292000D03*
X0334800Y0282000D03*
X0328800Y0365000D03*
X0323800Y0370000D03*
X0318800Y0375000D03*
X0313800Y0380000D03*
X0308800Y0375000D03*
X0303800Y0370000D03*
X0298800Y0365000D03*
X0293800Y0370000D03*
X0298800Y0375000D03*
X0293800Y0380000D03*
X0303800Y0380000D03*
X0323800Y0380000D03*
X0328800Y0375000D03*
X0333800Y0370000D03*
X0333800Y0380000D03*
D24*
X0319702Y0352201D03*
X0307898Y0352201D03*
X0308898Y0264201D03*
X0320702Y0264201D03*
D25*
X0314800Y0265201D03*
X0313800Y0353201D03*
D26*
X0313800Y0372500D03*
X0314800Y0284500D03*
D27*
X0346800Y0403075D02*
X0346800Y0414925D01*
X0388800Y0217925D02*
X0388800Y0206075D01*
X0346800Y0037925D02*
X0346800Y0026075D01*
X0157800Y0027075D02*
X0157800Y0038925D01*
X0163800Y0402075D02*
X0163800Y0413925D01*
D28*
X0244800Y0363661D03*
X0244800Y0346339D03*
X0249139Y0330000D03*
X0266461Y0330000D03*
X0244800Y0278661D03*
X0244800Y0261339D03*
X0248139Y0244000D03*
X0265461Y0244000D03*
X0261461Y0182000D03*
X0244139Y0182000D03*
X0235800Y0167661D03*
X0235800Y0150339D03*
X0244139Y0101000D03*
X0234800Y0084661D03*
X0234800Y0067339D03*
X0261461Y0101000D03*
D29*
X0302800Y0481000D03*
X0322800Y0481000D03*
X0312800Y0520000D03*
X0302800Y0530000D03*
X0322800Y0530000D03*
X0312800Y0574000D03*
X0312800Y0614000D03*
X0310800Y0647000D03*
X0290800Y0647000D03*
X0289800Y0616000D03*
X0279800Y0591000D03*
X0239800Y0648000D03*
X0229800Y0616000D03*
X0219800Y0591000D03*
X0208800Y0676000D03*
X0188800Y0676000D03*
X0239800Y0688000D03*
X0239800Y0699000D03*
X0239800Y0739000D03*
X0344800Y0614000D03*
X0344800Y0574000D03*
X0030800Y0323000D03*
X0030800Y0303000D03*
D30*
X0152800Y0201740D03*
X0152800Y0194260D03*
X0152800Y0181740D03*
X0152800Y0174260D03*
X0151800Y0153740D03*
X0151800Y0146260D03*
X0151800Y0134740D03*
X0151800Y0127260D03*
X0266800Y0265260D03*
X0266800Y0272740D03*
X0264800Y0353260D03*
X0264800Y0360740D03*
X0271800Y0161740D03*
X0271800Y0154260D03*
X0271800Y0082740D03*
X0271800Y0075260D03*
D31*
X0267800Y0032000D03*
X0227800Y0032000D03*
X0223800Y0408000D03*
X0263800Y0408000D03*
X0252400Y0774000D03*
X0241600Y0774000D03*
X0236200Y0784000D03*
X0225400Y0784000D03*
X0214600Y0784000D03*
X0209200Y0774000D03*
X0220000Y0774000D03*
X0230800Y0774000D03*
X0247000Y0784000D03*
D32*
X0332776Y0221000D03*
X0332776Y0203000D03*
X0318824Y0203000D03*
X0296776Y0203000D03*
X0354824Y0203000D03*
X0354824Y0221000D03*
D33*
X0396761Y0305000D03*
X0396761Y0330000D03*
X0396761Y0353000D03*
X0396761Y0376000D03*
X0416839Y0376000D03*
X0416839Y0353000D03*
X0416839Y0330000D03*
X0416839Y0305000D03*
X0415839Y0131000D03*
X0415839Y0105000D03*
X0415839Y0079000D03*
X0395761Y0079000D03*
X0395761Y0105000D03*
X0395761Y0131000D03*
X0395761Y0051000D03*
X0415839Y0051000D03*
D34*
X0280100Y0779000D03*
X0181500Y0779000D03*
D35*
X0085800Y0579000D03*
D36*
X0338800Y0646000D03*
X0338800Y0686000D03*
D37*
X0320800Y0704000D01*
X0310800Y0704000D01*
X0301800Y0704000D01*
X0290800Y0715000D01*
X0290800Y0732000D01*
X0283800Y0739000D01*
X0239800Y0739000D01*
X0241600Y0753000D02*
X0241600Y0774000D01*
X0241600Y0753000D02*
X0267800Y0753000D01*
X0254800Y0714000D02*
X0239800Y0699000D01*
X0239800Y0688000D01*
X0254800Y0714000D02*
X0280800Y0714000D01*
X0280800Y0704000D02*
X0289800Y0704000D01*
X0300800Y0693000D01*
X0300800Y0634000D01*
X0312800Y0617000D01*
X0312800Y0614000D01*
X0344800Y0614000D01*
X0312800Y0574000D02*
X0312800Y0520000D01*
X0302800Y0530000D02*
X0302800Y0481000D01*
X0302800Y0530000D02*
X0279800Y0553000D01*
X0279800Y0591000D01*
X0289800Y0601000D01*
X0289800Y0616000D01*
X0290800Y0647000D02*
X0280800Y0647000D01*
X0266800Y0647000D01*
X0249800Y0632000D01*
X0249800Y0566000D01*
X0239800Y0566000D02*
X0239800Y0648000D01*
X0229800Y0616000D02*
X0229800Y0566000D01*
X0219800Y0566000D02*
X0219800Y0591000D01*
X0209200Y0585400D02*
X0199800Y0576000D01*
X0199800Y0566000D01*
X0209800Y0551000D02*
X0209800Y0536000D01*
X0219800Y0536000D02*
X0219800Y0461000D01*
X0224800Y0456000D01*
X0229800Y0456000D01*
X0239800Y0456000D01*
X0249800Y0456000D01*
X0249800Y0486000D02*
X0249800Y0536000D01*
X0239800Y0536000D02*
X0239800Y0486000D01*
X0229800Y0486000D02*
X0229800Y0536000D01*
X0209800Y0551000D02*
X0113800Y0551000D01*
X0085800Y0579000D01*
X0209200Y0774000D02*
X0199800Y0783400D01*
X0199800Y0793000D01*
X0205800Y0799000D01*
X0305800Y0799000D01*
X0305800Y0738000D01*
X0300800Y0733000D01*
X0300800Y0716000D01*
X0302800Y0714000D01*
X0310800Y0714000D01*
X0351800Y0714000D01*
X0351800Y0724000D02*
X0310800Y0724000D01*
X0280800Y0694000D02*
X0280800Y0647000D01*
X0209200Y0672000D02*
X0209200Y0585400D01*
X0209200Y0672000D02*
X0209200Y0676000D01*
X0208800Y0676000D01*
X0209200Y0676000D02*
X0209200Y0774000D01*
X0121800Y0242000D02*
X0090800Y0242000D01*
X0060800Y0242000D02*
X0028800Y0242000D01*
D38*
X0028800Y0242000D03*
X0121800Y0242000D03*
X0173800Y0185000D03*
X0194800Y0185000D03*
X0177800Y0213000D03*
X0213800Y0159000D03*
X0220800Y0067000D03*
X0269800Y0232000D03*
X0296800Y0240000D03*
X0383800Y0312000D03*
X0384800Y0131000D03*
X0208800Y0383000D03*
X0267800Y0753000D03*
D39*
X0263800Y0408000D02*
X0264800Y0386740D01*
X0264800Y0360740D01*
X0256060Y0360740D01*
X0252800Y0364000D01*
X0245139Y0364000D01*
X0244800Y0363661D01*
X0207211Y0363661D01*
X0207100Y0363550D01*
X0199800Y0363550D02*
X0199800Y0374000D01*
X0208800Y0383000D01*
X0192500Y0379300D02*
X0192500Y0363550D01*
X0192500Y0379300D02*
X0163800Y0408000D01*
X0192500Y0334450D02*
X0192800Y0334150D01*
X0192800Y0319000D01*
X0152800Y0279000D01*
X0152540Y0202000D01*
X0152800Y0201740D01*
X0152800Y0194260D02*
X0152800Y0181740D01*
X0152800Y0175000D02*
X0152800Y0174260D01*
X0152800Y0175000D02*
X0089800Y0175000D01*
X0089800Y0155000D02*
X0092800Y0154000D01*
X0151800Y0154000D01*
X0151800Y0146260D02*
X0151800Y0134740D01*
X0151800Y0127260D02*
X0151800Y0119000D01*
X0159800Y0111000D01*
X0178800Y0111000D01*
X0182800Y0115000D01*
X0182800Y0125150D01*
X0182500Y0125450D01*
X0189800Y0125450D02*
X0189800Y0132000D01*
X0170800Y0151000D01*
X0170800Y0182000D01*
X0173800Y0185000D01*
X0182800Y0208000D02*
X0182800Y0154850D01*
X0182500Y0154550D01*
X0189800Y0154550D02*
X0189800Y0146000D01*
X0193800Y0142000D01*
X0229461Y0142000D01*
X0235800Y0150339D01*
X0267879Y0150339D01*
X0271800Y0154260D01*
X0280060Y0154260D01*
X0279942Y0152102D01*
X0279945Y0152098D01*
X0305001Y0152098D01*
X0305001Y0163902D02*
X0286902Y0182000D01*
X0271800Y0182000D01*
X0271800Y0161740D01*
X0279942Y0152102D02*
X0279800Y0149520D01*
X0279800Y0118000D01*
X0364800Y0118000D01*
X0364800Y0094024D01*
X0363800Y0094024D01*
X0361776Y0094000D01*
X0350800Y0094000D01*
X0335800Y0079000D01*
X0306001Y0079000D01*
X0305001Y0084902D02*
X0273961Y0084902D01*
X0271800Y0082740D01*
X0271800Y0090661D01*
X0261461Y0101000D01*
X0257800Y0103000D01*
X0257800Y0119000D01*
X0256540Y0119000D01*
X0249060Y0119000D02*
X0248800Y0119000D01*
X0243800Y0114000D01*
X0243800Y0101339D01*
X0244139Y0101000D01*
X0241800Y0099000D01*
X0241800Y0091000D01*
X0237800Y0087000D01*
X0234800Y0084661D01*
X0233800Y0087000D01*
X0225800Y0095000D01*
X0217800Y0095000D01*
X0216540Y0094000D01*
X0209800Y0094740D02*
X0209060Y0094000D01*
X0204800Y0094000D01*
X0197100Y0101700D01*
X0197100Y0125450D01*
X0197100Y0154550D02*
X0196800Y0154850D01*
X0196800Y0166000D01*
X0199800Y0169000D01*
X0206800Y0169000D01*
X0213800Y0162000D01*
X0213800Y0159000D01*
X0234222Y0169506D02*
X0218728Y0185000D01*
X0213540Y0185000D01*
X0206060Y0185000D02*
X0194800Y0185000D01*
X0182800Y0208000D02*
X0291776Y0208000D01*
X0296776Y0203000D01*
X0296776Y0220000D01*
X0297060Y0220000D01*
X0304540Y0220000D02*
X0304540Y0221000D01*
X0332776Y0221000D01*
X0332776Y0203000D02*
X0318824Y0203000D01*
X0315800Y0231000D02*
X0285800Y0231000D01*
X0279800Y0237000D01*
X0279800Y0270000D01*
X0276800Y0273000D01*
X0267060Y0273000D01*
X0266800Y0272740D01*
X0266800Y0299000D01*
X0282800Y0315000D01*
X0313800Y0315000D01*
X0365800Y0315000D01*
X0365800Y0297024D01*
X0365800Y0274976D02*
X0366800Y0274976D01*
X0366800Y0221000D01*
X0354824Y0221000D01*
X0354824Y0212000D01*
X0354824Y0203000D01*
X0364800Y0203000D01*
X0364800Y0179024D01*
X0346041Y0179024D01*
X0322666Y0155649D01*
X0315800Y0231000D02*
X0320702Y0236098D01*
X0320702Y0264201D01*
X0320702Y0250358D01*
X0308898Y0243098D02*
X0305800Y0240000D01*
X0296800Y0240000D01*
X0308898Y0243098D02*
X0308898Y0264201D01*
X0314800Y0275701D02*
X0314800Y0276000D01*
X0317800Y0276000D01*
X0317800Y0274976D01*
X0365800Y0274976D01*
X0390800Y0305000D02*
X0383800Y0312000D01*
X0390800Y0305000D02*
X0396761Y0305000D01*
X0396761Y0330000D02*
X0396761Y0353000D01*
X0396761Y0376000D02*
X0395737Y0377024D01*
X0365800Y0377024D01*
X0348776Y0377024D01*
X0347800Y0378000D01*
X0347800Y0407000D01*
X0346800Y0408000D01*
X0347800Y0378000D02*
X0347800Y0335000D01*
X0342800Y0330000D01*
X0323800Y0330000D01*
X0319702Y0335098D01*
X0319702Y0352201D01*
X0313800Y0353201D02*
X0313800Y0315000D01*
X0303800Y0330000D02*
X0307898Y0336098D01*
X0307898Y0352201D01*
X0303800Y0330000D02*
X0266461Y0330000D01*
X0266461Y0317921D01*
X0259540Y0311000D01*
X0252060Y0311000D02*
X0249139Y0313921D01*
X0249139Y0330000D01*
X0244800Y0334339D01*
X0244800Y0346339D01*
X0249139Y0330000D02*
X0226540Y0330000D01*
X0219060Y0330000D02*
X0214610Y0334450D01*
X0207100Y0334450D01*
X0199800Y0334450D02*
X0199800Y0319000D01*
X0217800Y0301000D01*
X0217800Y0244260D01*
X0219060Y0243000D01*
X0226540Y0243000D02*
X0245800Y0243000D01*
X0248139Y0244000D02*
X0245800Y0246000D01*
X0245800Y0258000D01*
X0244800Y0261339D01*
X0244800Y0278661D02*
X0260879Y0278661D01*
X0266800Y0272740D01*
X0266800Y0265260D02*
X0266800Y0245339D01*
X0265461Y0244000D01*
X0261800Y0242000D01*
X0261800Y0234000D01*
X0263800Y0232000D01*
X0269800Y0232000D01*
X0261800Y0234000D02*
X0261800Y0226000D01*
X0259540Y0225000D01*
X0252060Y0225000D02*
X0249800Y0226000D01*
X0249800Y0242000D01*
X0248139Y0244000D01*
X0257800Y0198000D02*
X0256540Y0197000D01*
X0257800Y0198000D02*
X0257800Y0182000D01*
X0261461Y0182000D01*
X0261461Y0181339D01*
X0271800Y0182000D01*
X0249060Y0197000D02*
X0244139Y0192079D01*
X0244139Y0182000D01*
X0241800Y0182000D01*
X0241800Y0174000D01*
X0237800Y0170000D01*
X0235800Y0167661D01*
X0234222Y0169506D01*
X0233800Y0170000D01*
X0235800Y0150339D02*
X0234461Y0149000D01*
X0271800Y0075260D02*
X0266170Y0069630D01*
X0267800Y0068000D01*
X0267800Y0032000D01*
X0263879Y0067339D02*
X0266170Y0069630D01*
X0263879Y0067339D02*
X0234800Y0067339D01*
X0234461Y0067000D01*
X0220800Y0067000D01*
X0271800Y0075260D02*
X0293540Y0075260D01*
X0295800Y0073000D01*
X0304902Y0073000D01*
X0305001Y0073098D01*
X0346800Y0032000D02*
X0363776Y0048976D01*
X0363776Y0050000D01*
X0364737Y0050961D01*
X0395761Y0051000D01*
X0415839Y0051000D02*
X0415839Y0079000D01*
X0415839Y0105000D02*
X0415839Y0131000D01*
X0395761Y0131000D02*
X0393761Y0130961D01*
X0384800Y0131000D01*
X0395761Y0105000D02*
X0395761Y0079000D01*
X0364800Y0118000D02*
X0364800Y0156976D01*
X0363800Y0071976D02*
X0363776Y0070000D01*
X0363776Y0050000D01*
X0416839Y0305000D02*
X0416839Y0330000D01*
X0416839Y0353000D02*
X0416839Y0376000D01*
X0365800Y0354976D02*
X0365800Y0315000D01*
X0266461Y0330000D02*
X0264800Y0331661D01*
X0264800Y0353260D01*
X0178800Y0213000D02*
X0182800Y0208000D01*
X0178800Y0213000D02*
X0177800Y0213000D01*
D40*
X0267800Y0032000D02*
X0346800Y0032000D01*
X0354824Y0212000D02*
X0388800Y0212000D01*
X0346800Y0408000D02*
X0346800Y0409000D01*
X0346800Y0408000D02*
X0263800Y0408000D01*
D41*
X0219800Y0591000D02*
X0219800Y0692000D01*
X0214800Y0697000D01*
X0214600Y0784000D01*
X0225400Y0784000D02*
X0225800Y0697000D01*
X0229800Y0693000D01*
X0229800Y0616000D01*
X0235800Y0739000D02*
X0239800Y0739000D01*
X0235800Y0739000D02*
X0235800Y0747000D01*
X0236200Y0784000D01*
M02*
