%
M48
M72
T01C0.03200
T02C0.04000
T03C0.04331
T04C0.04400
T05C0.04700
T06C0.04724
T07C0.05512
T08C0.06693
T09C0.07900
T10C0.08661
T11C0.14950
%
T01
X43871Y201000
X73871Y201000
X433871Y200000
X433871Y220000
X465871Y74000
X465871Y54000
X468871Y372000
X448871Y372000
T02
X448871Y425000
X468871Y425000
X408371Y570000
X319371Y570000
X282871Y883500
X272871Y903500
X282871Y933500
X325871Y934000
X385871Y934000
X403871Y936000
X403871Y909000
X403871Y962000
X443871Y962000
X443871Y936000
X443871Y909000
X168871Y904000
X168871Y925000
X168871Y948000
X168871Y969000
X128871Y969000
X128871Y948000
X128871Y925000
X108871Y904000
X91371Y932000
X61371Y942000
X41371Y932000
X70371Y576000
X159371Y576000
X382871Y220000
X382871Y200000
X403871Y55000
X423871Y55000
T03
X347123Y109819
X347123Y143283
X301619Y182583
X301619Y214079
X150044Y224906
X150044Y182583
X104997Y143283
X104997Y121630
X85280Y438740
X85280Y465315
T04
X198871Y989000
X198871Y1029000
X335871Y1099000
X375871Y1099000
T05
X335871Y1021000
X443871Y1021000
X168871Y1031000
X60871Y1031000
T06
X67871Y817000
X77871Y697000
X157871Y697000
X167871Y817000
X343871Y814000
X353871Y694000
X433871Y694000
X443871Y814000
T07
X96713Y225000
X77028Y225000
X62713Y144000
X43028Y144000
T08
X229280Y538000
X244871Y538000
X260461Y538000
X260461Y611000
X244871Y611000
X229280Y611000
X433076Y263000
X448666Y263000
X453076Y331000
X468666Y331000
X471871Y152386
X471871Y136795
X471871Y121205
X471871Y105614
X422871Y104614
X422871Y120205
X422871Y135795
X422871Y151386
T09
X198871Y1064000
X426871Y1099000
T10
X388430Y324567
X388430Y302913
T11
X40871Y44000
X42871Y470000
X38871Y529000
X38871Y1104000
X458871Y1104000
X458871Y529000
X474871Y470000
X377871Y131000
M30
