G75*
%MOIN*%
%OFA0B0*%
%FSLAX25Y25*%
%IPPOS*%
%LPD*%
%AMOC8*
5,1,8,0,0,1.08239X$1,22.5*
%
%ADD10C,0.10000*%
%ADD11C,0.10039*%
%ADD12R,0.06496X0.06496*%
%ADD13C,0.06496*%
%ADD14C,0.10000*%
%ADD15OC8,0.10000*%
%ADD16OC8,0.05200*%
%ADD17R,0.12661X0.12661*%
%ADD18C,0.12661*%
%ADD19C,0.07087*%
%ADD20C,0.11850*%
%ADD21OC8,0.06000*%
%ADD22C,0.06000*%
%ADD23OC8,0.07050*%
%ADD24C,0.06600*%
%ADD25C,0.08600*%
%ADD26C,0.01600*%
%ADD27C,0.15000*%
%ADD28C,0.05600*%
D10*
X0038028Y0144000D02*
X0048028Y0144000D01*
X0057713Y0144000D02*
X0067713Y0144000D01*
X0072028Y0225000D02*
X0082028Y0225000D01*
X0091713Y0225000D02*
X0101713Y0225000D01*
X0077871Y0697000D02*
X0067871Y0703000D01*
X0067871Y0817000D01*
X0067871Y0932000D01*
X0066371Y0931000D02*
X0062798Y0932183D01*
X0061871Y0934256D01*
X0061871Y0969000D01*
X0062871Y0970000D01*
X0063871Y0970000D01*
X0062871Y0969000D01*
X0061871Y0969000D01*
X0060871Y0969000D01*
X0060871Y1031500D01*
X0062871Y0969000D02*
X0128871Y0969000D01*
X0128871Y0925000D01*
X0170871Y0989000D02*
X0198871Y0989000D01*
X0198871Y1029000D02*
X0198871Y1069000D01*
X0168871Y1031000D02*
X0168871Y0814000D01*
X0167871Y0817000D01*
X0062798Y0932183D02*
X0041371Y0932000D01*
X0272871Y0903500D02*
X0282871Y0903500D01*
X0282871Y0883500D01*
X0282871Y0690000D01*
X0349871Y0690000D01*
X0353871Y0694000D01*
X0383871Y0724000D01*
X0435871Y0724000D01*
X0443871Y0732000D01*
X0443871Y0814000D01*
X0443871Y0909000D01*
X0443871Y0936000D01*
X0443871Y0962000D01*
X0443871Y1021000D01*
X0426871Y1099000D02*
X0375871Y1099000D01*
X0344871Y1021000D02*
X0403871Y0962000D01*
X0403871Y0936000D01*
X0403871Y0934000D01*
X0385871Y0934000D01*
X0403871Y0934000D02*
X0403871Y0909000D01*
X0403871Y0874000D01*
X0343871Y0814000D01*
X0325871Y0934000D02*
X0283371Y0934000D01*
X0282871Y0933500D01*
X0335871Y1021000D02*
X0344871Y1021000D01*
X0335871Y1021000D02*
X0335871Y1099000D01*
X0282871Y0690000D02*
X0274871Y0690000D01*
X0388430Y0302913D02*
X0468784Y0302913D01*
X0468871Y0306000D01*
X0480871Y0295000D01*
X0480871Y0158000D01*
X0475257Y0152386D01*
X0471871Y0152386D01*
X0470871Y0151386D01*
X0422871Y0151386D01*
X0468871Y0306000D02*
X0468871Y0329795D01*
X0468666Y0331000D01*
X0468666Y0371205D01*
X0468871Y0372000D01*
X0468871Y0425000D01*
D11*
X0468666Y0336020D02*
X0468666Y0325980D01*
X0453076Y0325980D02*
X0453076Y0336020D01*
X0448666Y0268020D02*
X0448666Y0257980D01*
X0433076Y0257980D02*
X0433076Y0268020D01*
X0427891Y0151386D02*
X0417851Y0151386D01*
X0417851Y0135795D02*
X0427891Y0135795D01*
X0427891Y0120205D02*
X0417851Y0120205D01*
X0417851Y0104614D02*
X0427891Y0104614D01*
X0466851Y0105614D02*
X0476891Y0105614D01*
X0476891Y0121205D02*
X0466851Y0121205D01*
X0466851Y0136795D02*
X0476891Y0136795D01*
X0476891Y0152386D02*
X0466851Y0152386D01*
X0260461Y0532980D02*
X0260461Y0543020D01*
X0244871Y0543020D02*
X0244871Y0532980D01*
X0229280Y0532980D02*
X0229280Y0543020D01*
X0229280Y0605980D02*
X0229280Y0616020D01*
X0244871Y0616020D02*
X0244871Y0605980D01*
X0260461Y0605980D02*
X0260461Y0616020D01*
D12*
X0301619Y0182583D03*
X0347123Y0143283D03*
D13*
X0347123Y0109819D03*
X0301619Y0214079D03*
X0150044Y0224906D03*
X0150044Y0182583D03*
X0104997Y0143283D03*
X0104997Y0121630D03*
X0085280Y0438740D03*
X0085280Y0465315D03*
D14*
X0382871Y0200000D03*
X0403871Y0055000D03*
X0468871Y0425000D03*
D15*
X0448871Y0425000D03*
X0382871Y0220000D03*
X0423871Y0055000D03*
D16*
X0465871Y0054000D03*
X0465871Y0074000D03*
X0433871Y0200000D03*
X0433871Y0220000D03*
X0448871Y0372000D03*
X0468871Y0372000D03*
X0073871Y0201000D03*
X0043871Y0201000D03*
D17*
X0388430Y0302913D03*
D18*
X0388430Y0324567D03*
D19*
X0353871Y0694000D03*
X0343871Y0814000D03*
X0433871Y0694000D03*
X0443871Y0814000D03*
X0167871Y0817000D03*
X0157871Y0697000D03*
X0077871Y0697000D03*
X0067871Y0817000D03*
D20*
X0198871Y1058075D02*
X0198871Y1069925D01*
X0420946Y1099000D02*
X0432796Y1099000D01*
D21*
X0443871Y0962000D03*
X0443871Y0936000D03*
X0443871Y0909000D03*
X0403871Y0909000D03*
X0403871Y0936000D03*
X0385871Y0934000D03*
X0403871Y0962000D03*
X0325871Y0934000D03*
X0168871Y0925000D03*
X0168871Y0904000D03*
X0168871Y0948000D03*
X0168871Y0969000D03*
X0128871Y0969000D03*
X0128871Y0948000D03*
X0128871Y0925000D03*
X0108871Y0904000D03*
X0070371Y0576000D03*
X0159371Y0576000D03*
X0319371Y0570000D03*
X0408371Y0570000D03*
D22*
X0282871Y0880500D02*
X0282871Y0886500D01*
X0272871Y0900500D02*
X0272871Y0906500D01*
X0282871Y0930500D02*
X0282871Y0936500D01*
X0094371Y0932000D02*
X0088371Y0932000D01*
X0064371Y0942000D02*
X0058371Y0942000D01*
X0044371Y0932000D02*
X0038371Y0932000D01*
D23*
X0060871Y1031000D03*
X0168871Y1031000D03*
X0335871Y1021000D03*
X0443871Y1021000D03*
D24*
X0375871Y1099000D03*
X0335871Y1099000D03*
X0198871Y1029000D03*
X0198871Y0989000D03*
D25*
X0157871Y0697000D02*
X0159371Y0576000D01*
X0197871Y0538000D01*
X0229280Y0538000D01*
X0260461Y0538000D02*
X0375871Y0538000D01*
X0407871Y0570000D01*
X0408371Y0570000D01*
X0407871Y0668000D01*
X0433871Y0694000D01*
X0433076Y0263000D02*
X0432871Y0262795D01*
X0432871Y0241000D01*
X0451871Y0222000D01*
X0451871Y0201000D01*
X0450871Y0200000D01*
X0433871Y0200000D01*
X0397871Y0200000D01*
X0397871Y0142000D01*
X0403871Y0136000D01*
X0422666Y0136000D01*
X0422871Y0135795D01*
X0470871Y0135795D01*
X0471871Y0136795D01*
X0471871Y0105614D02*
X0470871Y0104614D01*
X0425871Y0104614D01*
X0425485Y0105000D01*
X0383871Y0105000D01*
X0348587Y0141283D01*
X0347123Y0143283D01*
X0316619Y0199079D02*
X0301619Y0214079D01*
X0316619Y0199079D02*
X0381950Y0199079D01*
X0382871Y0200000D01*
X0397871Y0200000D01*
X0422871Y0104614D02*
X0425871Y0104614D01*
X0422871Y0104614D02*
X0422871Y0054000D01*
X0465871Y0054000D01*
D26*
X0471264Y0044758D02*
X0493303Y0044758D01*
X0493307Y0043160D02*
X0193724Y0043160D01*
X0193714Y0044758D02*
X0417478Y0044758D01*
X0416301Y0045438D02*
X0418691Y0044058D01*
X0419149Y0043600D01*
X0420343Y0043600D01*
X0421462Y0043300D01*
X0467280Y0043300D01*
X0470001Y0044029D01*
X0472441Y0045438D01*
X0474433Y0047430D01*
X0475842Y0049870D01*
X0476571Y0052591D01*
X0476571Y0055409D01*
X0475842Y0058130D01*
X0474433Y0060570D01*
X0472441Y0062562D01*
X0470001Y0063971D01*
X0467280Y0064700D01*
X0433571Y0064700D01*
X0433571Y0093914D01*
X0472280Y0093914D01*
X0473326Y0094194D01*
X0478394Y0094194D01*
X0481298Y0094973D01*
X0483902Y0096476D01*
X0486029Y0098602D01*
X0487532Y0101206D01*
X0488310Y0104111D01*
X0488310Y0107118D01*
X0487532Y0110022D01*
X0486029Y0112626D01*
X0483902Y0114752D01*
X0481298Y0116256D01*
X0478394Y0117034D01*
X0465348Y0117034D01*
X0462443Y0116256D01*
X0460813Y0115314D01*
X0432080Y0115314D01*
X0429394Y0116034D01*
X0416348Y0116034D01*
X0415102Y0115700D01*
X0388391Y0115700D01*
X0385057Y0119128D01*
X0386390Y0119897D01*
X0388974Y0122481D01*
X0390800Y0125644D01*
X0391746Y0129173D01*
X0391746Y0132827D01*
X0391685Y0133054D01*
X0395309Y0129430D01*
X0397301Y0127438D01*
X0399741Y0126029D01*
X0402462Y0125300D01*
X0413190Y0125300D01*
X0413443Y0125154D01*
X0416348Y0124376D01*
X0429394Y0124376D01*
X0432080Y0125095D01*
X0472280Y0125095D01*
X0473326Y0125376D01*
X0478394Y0125376D01*
X0481298Y0126154D01*
X0483902Y0127657D01*
X0486029Y0129783D01*
X0487532Y0132387D01*
X0488310Y0135292D01*
X0488310Y0138299D01*
X0487532Y0141203D01*
X0486029Y0143807D01*
X0485245Y0144591D01*
X0486029Y0145374D01*
X0487532Y0147978D01*
X0487737Y0148744D01*
X0487871Y0148878D01*
X0489993Y0151000D01*
X0491494Y0153600D01*
X0492271Y0156499D01*
X0492271Y0293750D01*
X0492325Y0293996D01*
X0492271Y0295248D01*
X0492271Y0296501D01*
X0492206Y0296744D01*
X0492195Y0296995D01*
X0491818Y0298190D01*
X0491494Y0299400D01*
X0491368Y0299618D01*
X0491293Y0299858D01*
X0490620Y0300915D01*
X0489993Y0302000D01*
X0489815Y0302177D01*
X0489680Y0302389D01*
X0488757Y0303236D01*
X0487871Y0304122D01*
X0487653Y0304248D01*
X0480271Y0311015D01*
X0480271Y0329262D01*
X0480361Y0330226D01*
X0480271Y0330757D01*
X0480271Y0331296D01*
X0480086Y0331987D01*
X0480086Y0337523D01*
X0480066Y0337597D01*
X0480066Y0369735D01*
X0480271Y0370499D01*
X0480271Y0370556D01*
X0480285Y0370611D01*
X0480271Y0372056D01*
X0480271Y0423499D01*
X0480271Y0426501D01*
X0479494Y0429400D01*
X0477993Y0432000D01*
X0475871Y0434122D01*
X0473271Y0435623D01*
X0470372Y0436400D01*
X0467370Y0436400D01*
X0464471Y0435623D01*
X0461871Y0434122D01*
X0459749Y0432000D01*
X0458248Y0429400D01*
X0457471Y0426501D01*
X0457471Y0373470D01*
X0457266Y0372706D01*
X0457266Y0372649D01*
X0457252Y0372593D01*
X0457266Y0371149D01*
X0457266Y0337597D01*
X0457246Y0337523D01*
X0457246Y0331323D01*
X0457176Y0330570D01*
X0457246Y0330154D01*
X0457246Y0324477D01*
X0457471Y0323639D01*
X0457471Y0314313D01*
X0398742Y0314313D01*
X0398386Y0314670D01*
X0396034Y0315644D01*
X0380826Y0315644D01*
X0378474Y0314670D01*
X0376674Y0312869D01*
X0375699Y0310517D01*
X0375699Y0295310D01*
X0376674Y0292957D01*
X0378474Y0291157D01*
X0380826Y0290183D01*
X0396034Y0290183D01*
X0398386Y0291157D01*
X0398742Y0291513D01*
X0467804Y0291513D01*
X0469471Y0289985D01*
X0469471Y0163805D01*
X0465348Y0163805D01*
X0462443Y0163027D01*
X0462025Y0162786D01*
X0429467Y0162786D01*
X0429394Y0162805D01*
X0416348Y0162805D01*
X0413443Y0162027D01*
X0410839Y0160524D01*
X0408713Y0158398D01*
X0408571Y0158151D01*
X0408571Y0189300D01*
X0452280Y0189300D01*
X0455001Y0190029D01*
X0457441Y0191438D01*
X0458441Y0192438D01*
X0460433Y0194430D01*
X0461842Y0196870D01*
X0462571Y0199591D01*
X0462571Y0223409D01*
X0461842Y0226130D01*
X0460433Y0228570D01*
X0443571Y0245432D01*
X0443571Y0253319D01*
X0443717Y0253572D01*
X0444495Y0256477D01*
X0444495Y0269523D01*
X0443717Y0272428D01*
X0442214Y0275032D01*
X0440087Y0277158D01*
X0437483Y0278661D01*
X0434579Y0279439D01*
X0431572Y0279439D01*
X0428668Y0278661D01*
X0426064Y0277158D01*
X0423938Y0275032D01*
X0422434Y0272428D01*
X0421656Y0269523D01*
X0421656Y0256477D01*
X0422171Y0254555D01*
X0422171Y0239591D01*
X0422900Y0236870D01*
X0424309Y0234430D01*
X0426301Y0232438D01*
X0441171Y0217568D01*
X0441171Y0210700D01*
X0386984Y0210700D01*
X0384372Y0211400D01*
X0381370Y0211400D01*
X0378471Y0210623D01*
X0377008Y0209779D01*
X0321051Y0209779D01*
X0308189Y0222641D01*
X0305749Y0224050D01*
X0303028Y0224779D01*
X0300210Y0224779D01*
X0297489Y0224050D01*
X0295049Y0222641D01*
X0293057Y0220649D01*
X0291648Y0218209D01*
X0290919Y0215487D01*
X0290919Y0212670D01*
X0291648Y0209949D01*
X0293057Y0207509D01*
X0310049Y0190517D01*
X0312489Y0189108D01*
X0315210Y0188379D01*
X0383358Y0188379D01*
X0384184Y0188600D01*
X0384372Y0188600D01*
X0386984Y0189300D01*
X0387171Y0189300D01*
X0387171Y0141322D01*
X0386390Y0142103D01*
X0383226Y0143929D01*
X0379698Y0144875D01*
X0376044Y0144875D01*
X0372515Y0143929D01*
X0369351Y0142103D01*
X0366768Y0139519D01*
X0366194Y0138526D01*
X0356779Y0148208D01*
X0356376Y0148758D01*
X0355797Y0150157D01*
X0353996Y0151957D01*
X0352788Y0152457D01*
X0352727Y0152506D01*
X0350149Y0153643D01*
X0347365Y0154073D01*
X0344564Y0153768D01*
X0341938Y0152749D01*
X0341648Y0152536D01*
X0340249Y0151957D01*
X0338449Y0150157D01*
X0337949Y0148949D01*
X0337900Y0148888D01*
X0336764Y0146310D01*
X0336333Y0143526D01*
X0336638Y0140725D01*
X0337658Y0138098D01*
X0337870Y0137809D01*
X0338449Y0136410D01*
X0339819Y0135040D01*
X0339934Y0134834D01*
X0340396Y0134359D01*
X0340787Y0133825D01*
X0341374Y0133354D01*
X0375271Y0098496D01*
X0375309Y0098430D01*
X0376252Y0097487D01*
X0377182Y0096530D01*
X0377247Y0096492D01*
X0377301Y0096438D01*
X0378456Y0095771D01*
X0379602Y0095088D01*
X0379675Y0095067D01*
X0379741Y0095029D01*
X0381030Y0094684D01*
X0382313Y0094321D01*
X0382389Y0094320D01*
X0382462Y0094300D01*
X0383796Y0094300D01*
X0385130Y0094281D01*
X0385204Y0094300D01*
X0412171Y0094300D01*
X0412171Y0052591D01*
X0412471Y0051472D01*
X0412471Y0050278D01*
X0412929Y0049820D01*
X0414309Y0047430D01*
X0416301Y0045438D01*
X0415382Y0046357D02*
X0193704Y0046357D01*
X0193694Y0047955D02*
X0414005Y0047955D01*
X0413083Y0049554D02*
X0193683Y0049554D01*
X0193673Y0051152D02*
X0412471Y0051152D01*
X0412171Y0052751D02*
X0193663Y0052751D01*
X0193653Y0054349D02*
X0412171Y0054349D01*
X0412171Y0055948D02*
X0193643Y0055948D01*
X0193633Y0057546D02*
X0412171Y0057546D01*
X0412171Y0059145D02*
X0193623Y0059145D01*
X0193612Y0060743D02*
X0412171Y0060743D01*
X0412171Y0062342D02*
X0193602Y0062342D01*
X0193592Y0063940D02*
X0412171Y0063940D01*
X0412171Y0065539D02*
X0193582Y0065539D01*
X0193572Y0067137D02*
X0412171Y0067137D01*
X0412171Y0068736D02*
X0193562Y0068736D01*
X0193552Y0070334D02*
X0412171Y0070334D01*
X0412171Y0071933D02*
X0193541Y0071933D01*
X0193531Y0073532D02*
X0412171Y0073532D01*
X0412171Y0075130D02*
X0193521Y0075130D01*
X0193511Y0076729D02*
X0412171Y0076729D01*
X0412171Y0078327D02*
X0193501Y0078327D01*
X0193491Y0079926D02*
X0412171Y0079926D01*
X0412171Y0081524D02*
X0193481Y0081524D01*
X0193471Y0083123D02*
X0412171Y0083123D01*
X0412171Y0084721D02*
X0193460Y0084721D01*
X0193450Y0086320D02*
X0412171Y0086320D01*
X0412171Y0087918D02*
X0193440Y0087918D01*
X0193430Y0089517D02*
X0412171Y0089517D01*
X0412171Y0091115D02*
X0193420Y0091115D01*
X0193410Y0092714D02*
X0412171Y0092714D01*
X0415197Y0124684D02*
X0390246Y0124684D01*
X0390971Y0126282D02*
X0399302Y0126282D01*
X0396858Y0127881D02*
X0391400Y0127881D01*
X0391746Y0129479D02*
X0395259Y0129479D01*
X0393661Y0131078D02*
X0391746Y0131078D01*
X0391746Y0132676D02*
X0392062Y0132676D01*
X0389323Y0123085D02*
X0493145Y0123085D01*
X0493148Y0121487D02*
X0387980Y0121487D01*
X0386375Y0119888D02*
X0493151Y0119888D01*
X0493155Y0118290D02*
X0385872Y0118290D01*
X0387427Y0116691D02*
X0464069Y0116691D01*
X0479672Y0116691D02*
X0493158Y0116691D01*
X0493161Y0115093D02*
X0483312Y0115093D01*
X0485160Y0113494D02*
X0493164Y0113494D01*
X0493167Y0111896D02*
X0486450Y0111896D01*
X0487373Y0110297D02*
X0493171Y0110297D01*
X0493174Y0108699D02*
X0487887Y0108699D01*
X0488310Y0107100D02*
X0493177Y0107100D01*
X0493180Y0105502D02*
X0488310Y0105502D01*
X0488255Y0103903D02*
X0493184Y0103903D01*
X0493187Y0102305D02*
X0487826Y0102305D01*
X0487243Y0100706D02*
X0493190Y0100706D01*
X0493193Y0099108D02*
X0486320Y0099108D01*
X0484935Y0097509D02*
X0493197Y0097509D01*
X0493200Y0095911D02*
X0482923Y0095911D01*
X0478833Y0094312D02*
X0493203Y0094312D01*
X0493206Y0092714D02*
X0433571Y0092714D01*
X0433571Y0091115D02*
X0493210Y0091115D01*
X0493213Y0089517D02*
X0433571Y0089517D01*
X0433571Y0087918D02*
X0493216Y0087918D01*
X0493219Y0086320D02*
X0433571Y0086320D01*
X0433571Y0084721D02*
X0493223Y0084721D01*
X0493226Y0083123D02*
X0433571Y0083123D01*
X0433571Y0081524D02*
X0493229Y0081524D01*
X0493232Y0079926D02*
X0433571Y0079926D01*
X0433571Y0078327D02*
X0493235Y0078327D01*
X0493239Y0076729D02*
X0433571Y0076729D01*
X0433571Y0075130D02*
X0493242Y0075130D01*
X0493245Y0073532D02*
X0433571Y0073532D01*
X0433571Y0071933D02*
X0493248Y0071933D01*
X0493252Y0070334D02*
X0433571Y0070334D01*
X0433571Y0068736D02*
X0493255Y0068736D01*
X0493258Y0067137D02*
X0433571Y0067137D01*
X0433571Y0065539D02*
X0493261Y0065539D01*
X0493265Y0063940D02*
X0470053Y0063940D01*
X0472661Y0062342D02*
X0493268Y0062342D01*
X0493271Y0060743D02*
X0474259Y0060743D01*
X0475256Y0059145D02*
X0493274Y0059145D01*
X0493278Y0057546D02*
X0475998Y0057546D01*
X0476426Y0055948D02*
X0493281Y0055948D01*
X0493284Y0054349D02*
X0476571Y0054349D01*
X0476571Y0052751D02*
X0493287Y0052751D01*
X0493291Y0051152D02*
X0476185Y0051152D01*
X0475659Y0049554D02*
X0493294Y0049554D01*
X0493297Y0047955D02*
X0474736Y0047955D01*
X0473360Y0046357D02*
X0493300Y0046357D01*
X0493310Y0041561D02*
X0193734Y0041561D01*
X0193744Y0039963D02*
X0493313Y0039963D01*
X0493316Y0038364D02*
X0193754Y0038364D01*
X0193765Y0036766D02*
X0493320Y0036766D01*
X0493323Y0035167D02*
X0193775Y0035167D01*
X0193785Y0033569D02*
X0493326Y0033569D01*
X0493329Y0031970D02*
X0193795Y0031970D01*
X0193805Y0030372D02*
X0493333Y0030372D01*
X0493336Y0028773D02*
X0193815Y0028773D01*
X0193825Y0027175D02*
X0493339Y0027175D01*
X0493342Y0025576D02*
X0193836Y0025576D01*
X0193846Y0023978D02*
X0493346Y0023978D01*
X0493349Y0022379D02*
X0193856Y0022379D01*
X0193866Y0020781D02*
X0313310Y0020781D01*
X0363795Y0110297D02*
X0193298Y0110297D01*
X0193308Y0108699D02*
X0365349Y0108699D01*
X0366903Y0107100D02*
X0193318Y0107100D01*
X0193329Y0105502D02*
X0368458Y0105502D01*
X0370012Y0103903D02*
X0193339Y0103903D01*
X0193349Y0102305D02*
X0371567Y0102305D01*
X0373121Y0100706D02*
X0193359Y0100706D01*
X0193369Y0099108D02*
X0374676Y0099108D01*
X0376230Y0097509D02*
X0193379Y0097509D01*
X0193389Y0095911D02*
X0378214Y0095911D01*
X0382417Y0094312D02*
X0193400Y0094312D01*
X0193288Y0111896D02*
X0362240Y0111896D01*
X0360686Y0113494D02*
X0193278Y0113494D01*
X0193268Y0115093D02*
X0359131Y0115093D01*
X0357577Y0116691D02*
X0193258Y0116691D01*
X0193247Y0118290D02*
X0356022Y0118290D01*
X0354468Y0119888D02*
X0193237Y0119888D01*
X0193227Y0121487D02*
X0352913Y0121487D01*
X0351359Y0123085D02*
X0193217Y0123085D01*
X0193207Y0124684D02*
X0349804Y0124684D01*
X0348250Y0126282D02*
X0193197Y0126282D01*
X0193187Y0127881D02*
X0346696Y0127881D01*
X0345141Y0129479D02*
X0193177Y0129479D01*
X0193166Y0131078D02*
X0343587Y0131078D01*
X0342032Y0132676D02*
X0193156Y0132676D01*
X0193146Y0134275D02*
X0340457Y0134275D01*
X0338986Y0135873D02*
X0193136Y0135873D01*
X0193126Y0137472D02*
X0338009Y0137472D01*
X0337280Y0139070D02*
X0193116Y0139070D01*
X0193106Y0140669D02*
X0336660Y0140669D01*
X0336470Y0142268D02*
X0193095Y0142268D01*
X0193085Y0143866D02*
X0336386Y0143866D01*
X0336633Y0145465D02*
X0193075Y0145465D01*
X0193065Y0147063D02*
X0337095Y0147063D01*
X0337800Y0148662D02*
X0193055Y0148662D01*
X0193045Y0150260D02*
X0338552Y0150260D01*
X0340151Y0151859D02*
X0193035Y0151859D01*
X0193024Y0153457D02*
X0343763Y0153457D01*
X0350571Y0153457D02*
X0387171Y0153457D01*
X0387171Y0151859D02*
X0354095Y0151859D01*
X0355693Y0150260D02*
X0387171Y0150260D01*
X0387171Y0148662D02*
X0356447Y0148662D01*
X0357892Y0147063D02*
X0387171Y0147063D01*
X0387171Y0145465D02*
X0359447Y0145465D01*
X0361001Y0143866D02*
X0372405Y0143866D01*
X0369637Y0142268D02*
X0362555Y0142268D01*
X0364110Y0140669D02*
X0367918Y0140669D01*
X0366509Y0139070D02*
X0365664Y0139070D01*
X0383336Y0143866D02*
X0387171Y0143866D01*
X0387171Y0142268D02*
X0386105Y0142268D01*
X0387171Y0155056D02*
X0193014Y0155056D01*
X0193004Y0156654D02*
X0387171Y0156654D01*
X0387171Y0158253D02*
X0192994Y0158253D01*
X0192984Y0159851D02*
X0387171Y0159851D01*
X0387171Y0161450D02*
X0192974Y0161450D01*
X0192964Y0163048D02*
X0387171Y0163048D01*
X0387171Y0164647D02*
X0192953Y0164647D01*
X0192943Y0166245D02*
X0387171Y0166245D01*
X0387171Y0167844D02*
X0192933Y0167844D01*
X0192923Y0169442D02*
X0387171Y0169442D01*
X0387171Y0171041D02*
X0192913Y0171041D01*
X0192903Y0172639D02*
X0387171Y0172639D01*
X0387171Y0174238D02*
X0192893Y0174238D01*
X0192882Y0175836D02*
X0387171Y0175836D01*
X0387171Y0177435D02*
X0192872Y0177435D01*
X0192862Y0179033D02*
X0387171Y0179033D01*
X0387171Y0180632D02*
X0192852Y0180632D01*
X0192842Y0182230D02*
X0387171Y0182230D01*
X0387171Y0183829D02*
X0192832Y0183829D01*
X0192822Y0185427D02*
X0387171Y0185427D01*
X0387171Y0187026D02*
X0192812Y0187026D01*
X0192801Y0188624D02*
X0314294Y0188624D01*
X0310558Y0190223D02*
X0192791Y0190223D01*
X0192781Y0191821D02*
X0308744Y0191821D01*
X0307146Y0193420D02*
X0192771Y0193420D01*
X0192761Y0195018D02*
X0305547Y0195018D01*
X0303949Y0196617D02*
X0192751Y0196617D01*
X0192741Y0198215D02*
X0302350Y0198215D01*
X0300752Y0199814D02*
X0192730Y0199814D01*
X0192720Y0201412D02*
X0299153Y0201412D01*
X0297555Y0203011D02*
X0192710Y0203011D01*
X0192700Y0204609D02*
X0295956Y0204609D01*
X0294358Y0206208D02*
X0192690Y0206208D01*
X0192680Y0207806D02*
X0292885Y0207806D01*
X0291962Y0209405D02*
X0192670Y0209405D01*
X0192659Y0211003D02*
X0291365Y0211003D01*
X0290937Y0212602D02*
X0192649Y0212602D01*
X0192639Y0214201D02*
X0290919Y0214201D01*
X0291002Y0215799D02*
X0192629Y0215799D01*
X0192619Y0217398D02*
X0291431Y0217398D01*
X0292103Y0218996D02*
X0192609Y0218996D01*
X0192599Y0220595D02*
X0293026Y0220595D01*
X0294601Y0222193D02*
X0192588Y0222193D01*
X0192578Y0223792D02*
X0297042Y0223792D01*
X0306196Y0223792D02*
X0434947Y0223792D01*
X0433349Y0225390D02*
X0192568Y0225390D01*
X0192558Y0226989D02*
X0431750Y0226989D01*
X0430152Y0228587D02*
X0192548Y0228587D01*
X0192538Y0230186D02*
X0428553Y0230186D01*
X0426955Y0231784D02*
X0192528Y0231784D01*
X0192517Y0233383D02*
X0425356Y0233383D01*
X0423991Y0234981D02*
X0192507Y0234981D01*
X0192497Y0236580D02*
X0423068Y0236580D01*
X0422549Y0238178D02*
X0192487Y0238178D01*
X0192477Y0239777D02*
X0422171Y0239777D01*
X0422171Y0241375D02*
X0192467Y0241375D01*
X0192457Y0242974D02*
X0422171Y0242974D01*
X0422171Y0244572D02*
X0192447Y0244572D01*
X0192436Y0246171D02*
X0422171Y0246171D01*
X0422171Y0247769D02*
X0192426Y0247769D01*
X0192416Y0249368D02*
X0422171Y0249368D01*
X0422171Y0250966D02*
X0192406Y0250966D01*
X0192396Y0252565D02*
X0422171Y0252565D01*
X0422171Y0254163D02*
X0192386Y0254163D01*
X0192376Y0255762D02*
X0421848Y0255762D01*
X0421656Y0257360D02*
X0192365Y0257360D01*
X0192355Y0258959D02*
X0421656Y0258959D01*
X0421656Y0260557D02*
X0192345Y0260557D01*
X0192335Y0262156D02*
X0421656Y0262156D01*
X0421656Y0263754D02*
X0192325Y0263754D01*
X0192315Y0265353D02*
X0421656Y0265353D01*
X0421656Y0266951D02*
X0192305Y0266951D01*
X0192294Y0268550D02*
X0421656Y0268550D01*
X0421823Y0270148D02*
X0192284Y0270148D01*
X0192274Y0271747D02*
X0422252Y0271747D01*
X0422964Y0273345D02*
X0192264Y0273345D01*
X0192254Y0274944D02*
X0423887Y0274944D01*
X0425448Y0276542D02*
X0192244Y0276542D01*
X0192234Y0278141D02*
X0427767Y0278141D01*
X0438384Y0278141D02*
X0469471Y0278141D01*
X0469471Y0279739D02*
X0192223Y0279739D01*
X0192213Y0281338D02*
X0469471Y0281338D01*
X0469471Y0282937D02*
X0192203Y0282937D01*
X0192193Y0284535D02*
X0469471Y0284535D01*
X0469471Y0286134D02*
X0192183Y0286134D01*
X0192173Y0287732D02*
X0469471Y0287732D01*
X0469471Y0289331D02*
X0192163Y0289331D01*
X0192152Y0290929D02*
X0379024Y0290929D01*
X0377103Y0292528D02*
X0192142Y0292528D01*
X0192132Y0294126D02*
X0376189Y0294126D01*
X0375699Y0295725D02*
X0192122Y0295725D01*
X0192112Y0297323D02*
X0375699Y0297323D01*
X0375699Y0298922D02*
X0192102Y0298922D01*
X0192092Y0300520D02*
X0375699Y0300520D01*
X0375699Y0302119D02*
X0192082Y0302119D01*
X0192071Y0303717D02*
X0375699Y0303717D01*
X0375699Y0305316D02*
X0192061Y0305316D01*
X0192051Y0306914D02*
X0375699Y0306914D01*
X0375699Y0308513D02*
X0192041Y0308513D01*
X0192031Y0310111D02*
X0375699Y0310111D01*
X0376193Y0311710D02*
X0192021Y0311710D01*
X0192011Y0313308D02*
X0377112Y0313308D01*
X0379046Y0314907D02*
X0192000Y0314907D01*
X0191990Y0316505D02*
X0457471Y0316505D01*
X0457471Y0314907D02*
X0397814Y0314907D01*
X0397836Y0290929D02*
X0468441Y0290929D01*
X0469471Y0276542D02*
X0440703Y0276542D01*
X0442264Y0274944D02*
X0469471Y0274944D01*
X0469471Y0273345D02*
X0443187Y0273345D01*
X0443899Y0271747D02*
X0469471Y0271747D01*
X0469471Y0270148D02*
X0444328Y0270148D01*
X0444495Y0268550D02*
X0469471Y0268550D01*
X0469471Y0266951D02*
X0444495Y0266951D01*
X0444495Y0265353D02*
X0469471Y0265353D01*
X0469471Y0263754D02*
X0444495Y0263754D01*
X0444495Y0262156D02*
X0469471Y0262156D01*
X0469471Y0260557D02*
X0444495Y0260557D01*
X0444495Y0258959D02*
X0469471Y0258959D01*
X0469471Y0257360D02*
X0444495Y0257360D01*
X0444304Y0255762D02*
X0469471Y0255762D01*
X0469471Y0254163D02*
X0443875Y0254163D01*
X0443571Y0252565D02*
X0469471Y0252565D01*
X0469471Y0250966D02*
X0443571Y0250966D01*
X0443571Y0249368D02*
X0469471Y0249368D01*
X0469471Y0247769D02*
X0443571Y0247769D01*
X0443571Y0246171D02*
X0469471Y0246171D01*
X0469471Y0244572D02*
X0444431Y0244572D01*
X0446029Y0242974D02*
X0469471Y0242974D01*
X0469471Y0241375D02*
X0447628Y0241375D01*
X0449226Y0239777D02*
X0469471Y0239777D01*
X0469471Y0238178D02*
X0450825Y0238178D01*
X0452423Y0236580D02*
X0469471Y0236580D01*
X0469471Y0234981D02*
X0454022Y0234981D01*
X0455620Y0233383D02*
X0469471Y0233383D01*
X0469471Y0231784D02*
X0457219Y0231784D01*
X0458817Y0230186D02*
X0469471Y0230186D01*
X0469471Y0228587D02*
X0460416Y0228587D01*
X0461346Y0226989D02*
X0469471Y0226989D01*
X0469471Y0225390D02*
X0462040Y0225390D01*
X0462468Y0223792D02*
X0469471Y0223792D01*
X0469471Y0222193D02*
X0462571Y0222193D01*
X0462571Y0220595D02*
X0469471Y0220595D01*
X0469471Y0218996D02*
X0462571Y0218996D01*
X0462571Y0217398D02*
X0469471Y0217398D01*
X0469471Y0215799D02*
X0462571Y0215799D01*
X0462571Y0214201D02*
X0469471Y0214201D01*
X0469471Y0212602D02*
X0462571Y0212602D01*
X0462571Y0211003D02*
X0469471Y0211003D01*
X0469471Y0209405D02*
X0462571Y0209405D01*
X0462571Y0207806D02*
X0469471Y0207806D01*
X0469471Y0206208D02*
X0462571Y0206208D01*
X0462571Y0204609D02*
X0469471Y0204609D01*
X0469471Y0203011D02*
X0462571Y0203011D01*
X0462571Y0201412D02*
X0469471Y0201412D01*
X0469471Y0199814D02*
X0462571Y0199814D01*
X0462202Y0198215D02*
X0469471Y0198215D01*
X0469471Y0196617D02*
X0461696Y0196617D01*
X0460773Y0195018D02*
X0469471Y0195018D01*
X0469471Y0193420D02*
X0459423Y0193420D01*
X0457824Y0191821D02*
X0469471Y0191821D01*
X0469471Y0190223D02*
X0455336Y0190223D01*
X0441171Y0211003D02*
X0385851Y0211003D01*
X0379890Y0211003D02*
X0319826Y0211003D01*
X0318228Y0212602D02*
X0441171Y0212602D01*
X0441171Y0214201D02*
X0316629Y0214201D01*
X0315031Y0215799D02*
X0441171Y0215799D01*
X0441171Y0217398D02*
X0313432Y0217398D01*
X0311834Y0218996D02*
X0439743Y0218996D01*
X0438144Y0220595D02*
X0310235Y0220595D01*
X0308637Y0222193D02*
X0436546Y0222193D01*
X0462521Y0163048D02*
X0408571Y0163048D01*
X0408571Y0161450D02*
X0412443Y0161450D01*
X0410167Y0159851D02*
X0408571Y0159851D01*
X0408571Y0158253D02*
X0408629Y0158253D01*
X0408571Y0164647D02*
X0469471Y0164647D01*
X0469471Y0166245D02*
X0408571Y0166245D01*
X0408571Y0167844D02*
X0469471Y0167844D01*
X0469471Y0169442D02*
X0408571Y0169442D01*
X0408571Y0171041D02*
X0469471Y0171041D01*
X0469471Y0172639D02*
X0408571Y0172639D01*
X0408571Y0174238D02*
X0469471Y0174238D01*
X0469471Y0175836D02*
X0408571Y0175836D01*
X0408571Y0177435D02*
X0469471Y0177435D01*
X0469471Y0179033D02*
X0408571Y0179033D01*
X0408571Y0180632D02*
X0469471Y0180632D01*
X0469471Y0182230D02*
X0408571Y0182230D01*
X0408571Y0183829D02*
X0469471Y0183829D01*
X0469471Y0185427D02*
X0408571Y0185427D01*
X0408571Y0187026D02*
X0469471Y0187026D01*
X0469471Y0188624D02*
X0408571Y0188624D01*
X0387171Y0188624D02*
X0384463Y0188624D01*
X0430545Y0124684D02*
X0493142Y0124684D01*
X0493138Y0126282D02*
X0481521Y0126282D01*
X0484126Y0127881D02*
X0493135Y0127881D01*
X0493132Y0129479D02*
X0485725Y0129479D01*
X0486776Y0131078D02*
X0493129Y0131078D01*
X0493125Y0132676D02*
X0487609Y0132676D01*
X0488038Y0134275D02*
X0493122Y0134275D01*
X0493119Y0135873D02*
X0488310Y0135873D01*
X0488310Y0137472D02*
X0493116Y0137472D01*
X0493112Y0139070D02*
X0488103Y0139070D01*
X0487675Y0140669D02*
X0493109Y0140669D01*
X0493106Y0142268D02*
X0486917Y0142268D01*
X0485970Y0143866D02*
X0493103Y0143866D01*
X0493099Y0145465D02*
X0486081Y0145465D01*
X0487004Y0147063D02*
X0493096Y0147063D01*
X0493093Y0148662D02*
X0487715Y0148662D01*
X0489253Y0150260D02*
X0493090Y0150260D01*
X0493087Y0151859D02*
X0490489Y0151859D01*
X0491412Y0153457D02*
X0493083Y0153457D01*
X0493080Y0155056D02*
X0491884Y0155056D01*
X0492271Y0156654D02*
X0493077Y0156654D01*
X0493074Y0158253D02*
X0492271Y0158253D01*
X0492271Y0159851D02*
X0493070Y0159851D01*
X0493067Y0161450D02*
X0492271Y0161450D01*
X0492271Y0163048D02*
X0493064Y0163048D01*
X0493061Y0164647D02*
X0492271Y0164647D01*
X0492271Y0166245D02*
X0493057Y0166245D01*
X0493054Y0167844D02*
X0492271Y0167844D01*
X0492271Y0169442D02*
X0493051Y0169442D01*
X0493048Y0171041D02*
X0492271Y0171041D01*
X0492271Y0172639D02*
X0493044Y0172639D01*
X0493041Y0174238D02*
X0492271Y0174238D01*
X0492271Y0175836D02*
X0493038Y0175836D01*
X0493035Y0177435D02*
X0492271Y0177435D01*
X0492271Y0179033D02*
X0493031Y0179033D01*
X0493028Y0180632D02*
X0492271Y0180632D01*
X0492271Y0182230D02*
X0493025Y0182230D01*
X0493022Y0183829D02*
X0492271Y0183829D01*
X0492271Y0185427D02*
X0493019Y0185427D01*
X0493015Y0187026D02*
X0492271Y0187026D01*
X0492271Y0188624D02*
X0493012Y0188624D01*
X0493009Y0190223D02*
X0492271Y0190223D01*
X0492271Y0191821D02*
X0493006Y0191821D01*
X0493002Y0193420D02*
X0492271Y0193420D01*
X0492271Y0195018D02*
X0492999Y0195018D01*
X0492996Y0196617D02*
X0492271Y0196617D01*
X0492271Y0198215D02*
X0492993Y0198215D01*
X0492989Y0199814D02*
X0492271Y0199814D01*
X0492271Y0201412D02*
X0492986Y0201412D01*
X0492983Y0203011D02*
X0492271Y0203011D01*
X0492271Y0204609D02*
X0492980Y0204609D01*
X0492976Y0206208D02*
X0492271Y0206208D01*
X0492271Y0207806D02*
X0492973Y0207806D01*
X0492970Y0209405D02*
X0492271Y0209405D01*
X0492271Y0211003D02*
X0492967Y0211003D01*
X0492964Y0212602D02*
X0492271Y0212602D01*
X0492271Y0214201D02*
X0492960Y0214201D01*
X0492957Y0215799D02*
X0492271Y0215799D01*
X0492271Y0217398D02*
X0492954Y0217398D01*
X0492951Y0218996D02*
X0492271Y0218996D01*
X0492271Y0220595D02*
X0492947Y0220595D01*
X0492944Y0222193D02*
X0492271Y0222193D01*
X0492271Y0223792D02*
X0492941Y0223792D01*
X0492938Y0225390D02*
X0492271Y0225390D01*
X0492271Y0226989D02*
X0492934Y0226989D01*
X0492931Y0228587D02*
X0492271Y0228587D01*
X0492271Y0230186D02*
X0492928Y0230186D01*
X0492925Y0231784D02*
X0492271Y0231784D01*
X0492271Y0233383D02*
X0492921Y0233383D01*
X0492918Y0234981D02*
X0492271Y0234981D01*
X0492271Y0236580D02*
X0492915Y0236580D01*
X0492912Y0238178D02*
X0492271Y0238178D01*
X0492271Y0239777D02*
X0492908Y0239777D01*
X0492905Y0241375D02*
X0492271Y0241375D01*
X0492271Y0242974D02*
X0492902Y0242974D01*
X0492899Y0244572D02*
X0492271Y0244572D01*
X0492271Y0246171D02*
X0492896Y0246171D01*
X0492892Y0247769D02*
X0492271Y0247769D01*
X0492271Y0249368D02*
X0492889Y0249368D01*
X0492886Y0250966D02*
X0492271Y0250966D01*
X0492271Y0252565D02*
X0492883Y0252565D01*
X0492879Y0254163D02*
X0492271Y0254163D01*
X0492271Y0255762D02*
X0492876Y0255762D01*
X0492873Y0257360D02*
X0492271Y0257360D01*
X0492271Y0258959D02*
X0492870Y0258959D01*
X0492866Y0260557D02*
X0492271Y0260557D01*
X0492271Y0262156D02*
X0492863Y0262156D01*
X0492860Y0263754D02*
X0492271Y0263754D01*
X0492271Y0265353D02*
X0492857Y0265353D01*
X0492853Y0266951D02*
X0492271Y0266951D01*
X0492271Y0268550D02*
X0492850Y0268550D01*
X0492847Y0270148D02*
X0492271Y0270148D01*
X0492271Y0271747D02*
X0492844Y0271747D01*
X0492840Y0273345D02*
X0492271Y0273345D01*
X0492271Y0274944D02*
X0492837Y0274944D01*
X0492834Y0276542D02*
X0492271Y0276542D01*
X0492271Y0278141D02*
X0492831Y0278141D01*
X0492828Y0279739D02*
X0492271Y0279739D01*
X0492271Y0281338D02*
X0492824Y0281338D01*
X0492821Y0282937D02*
X0492271Y0282937D01*
X0492271Y0284535D02*
X0492818Y0284535D01*
X0492815Y0286134D02*
X0492271Y0286134D01*
X0492271Y0287732D02*
X0492811Y0287732D01*
X0492808Y0289331D02*
X0492271Y0289331D01*
X0492271Y0290929D02*
X0492805Y0290929D01*
X0492802Y0292528D02*
X0492271Y0292528D01*
X0492320Y0294126D02*
X0492798Y0294126D01*
X0492795Y0295725D02*
X0492271Y0295725D01*
X0492091Y0297323D02*
X0492792Y0297323D01*
X0492789Y0298922D02*
X0491622Y0298922D01*
X0490871Y0300520D02*
X0492785Y0300520D01*
X0492782Y0302119D02*
X0489874Y0302119D01*
X0488276Y0303717D02*
X0492779Y0303717D01*
X0492776Y0305316D02*
X0486488Y0305316D01*
X0484744Y0306914D02*
X0492772Y0306914D01*
X0492769Y0308513D02*
X0483001Y0308513D01*
X0481257Y0310111D02*
X0492766Y0310111D01*
X0492763Y0311710D02*
X0480271Y0311710D01*
X0480271Y0313308D02*
X0492760Y0313308D01*
X0492756Y0314907D02*
X0480271Y0314907D01*
X0480271Y0316505D02*
X0492753Y0316505D01*
X0492750Y0318104D02*
X0480271Y0318104D01*
X0480271Y0319702D02*
X0492747Y0319702D01*
X0492743Y0321301D02*
X0480271Y0321301D01*
X0480271Y0322899D02*
X0492740Y0322899D01*
X0492737Y0324498D02*
X0480271Y0324498D01*
X0480271Y0326096D02*
X0492734Y0326096D01*
X0492730Y0327695D02*
X0480271Y0327695D01*
X0480274Y0329293D02*
X0492727Y0329293D01*
X0492724Y0330892D02*
X0480271Y0330892D01*
X0480086Y0332490D02*
X0492721Y0332490D01*
X0492717Y0334089D02*
X0480086Y0334089D01*
X0480086Y0335687D02*
X0492714Y0335687D01*
X0492711Y0337286D02*
X0480086Y0337286D01*
X0480066Y0338884D02*
X0492708Y0338884D01*
X0492704Y0340483D02*
X0480066Y0340483D01*
X0480066Y0342081D02*
X0492701Y0342081D01*
X0492698Y0343680D02*
X0480066Y0343680D01*
X0480066Y0345278D02*
X0492695Y0345278D01*
X0492692Y0346877D02*
X0480066Y0346877D01*
X0480066Y0348475D02*
X0492688Y0348475D01*
X0492685Y0350074D02*
X0480066Y0350074D01*
X0480066Y0351672D02*
X0492682Y0351672D01*
X0492679Y0353271D02*
X0480066Y0353271D01*
X0480066Y0354870D02*
X0492675Y0354870D01*
X0492672Y0356468D02*
X0480066Y0356468D01*
X0480066Y0358067D02*
X0492669Y0358067D01*
X0492666Y0359665D02*
X0480066Y0359665D01*
X0480066Y0361264D02*
X0492662Y0361264D01*
X0492659Y0362862D02*
X0480066Y0362862D01*
X0480066Y0364461D02*
X0492656Y0364461D01*
X0492653Y0366059D02*
X0480066Y0366059D01*
X0480066Y0367658D02*
X0492649Y0367658D01*
X0492646Y0369256D02*
X0480066Y0369256D01*
X0480283Y0370855D02*
X0492643Y0370855D01*
X0492640Y0372453D02*
X0480271Y0372453D01*
X0480271Y0374052D02*
X0492636Y0374052D01*
X0492633Y0375650D02*
X0480271Y0375650D01*
X0480271Y0377249D02*
X0492630Y0377249D01*
X0492627Y0378847D02*
X0480271Y0378847D01*
X0480271Y0380446D02*
X0492624Y0380446D01*
X0492620Y0382044D02*
X0480271Y0382044D01*
X0480271Y0383643D02*
X0492617Y0383643D01*
X0492614Y0385241D02*
X0480271Y0385241D01*
X0480271Y0386840D02*
X0492611Y0386840D01*
X0492607Y0388438D02*
X0480271Y0388438D01*
X0480271Y0390037D02*
X0492604Y0390037D01*
X0492601Y0391635D02*
X0480271Y0391635D01*
X0480271Y0393234D02*
X0492598Y0393234D01*
X0492594Y0394832D02*
X0480271Y0394832D01*
X0480271Y0396431D02*
X0492591Y0396431D01*
X0492588Y0398029D02*
X0480271Y0398029D01*
X0480271Y0399628D02*
X0492585Y0399628D01*
X0492581Y0401226D02*
X0480271Y0401226D01*
X0480271Y0402825D02*
X0492578Y0402825D01*
X0492575Y0404423D02*
X0480271Y0404423D01*
X0480271Y0406022D02*
X0492572Y0406022D01*
X0492568Y0407620D02*
X0480271Y0407620D01*
X0480271Y0409219D02*
X0492565Y0409219D01*
X0492562Y0410817D02*
X0480271Y0410817D01*
X0480271Y0412416D02*
X0492559Y0412416D01*
X0492556Y0414014D02*
X0480271Y0414014D01*
X0480271Y0415613D02*
X0492552Y0415613D01*
X0492549Y0417211D02*
X0480271Y0417211D01*
X0480271Y0418810D02*
X0492546Y0418810D01*
X0492543Y0420408D02*
X0480271Y0420408D01*
X0480271Y0422007D02*
X0492539Y0422007D01*
X0492536Y0423605D02*
X0480271Y0423605D01*
X0480271Y0425204D02*
X0492533Y0425204D01*
X0492530Y0426803D02*
X0480190Y0426803D01*
X0479762Y0428401D02*
X0492526Y0428401D01*
X0492523Y0430000D02*
X0479148Y0430000D01*
X0478225Y0431598D02*
X0492520Y0431598D01*
X0492517Y0433197D02*
X0476796Y0433197D01*
X0474705Y0434795D02*
X0492513Y0434795D01*
X0492510Y0436394D02*
X0470396Y0436394D01*
X0467346Y0436394D02*
X0191230Y0436394D01*
X0191220Y0437992D02*
X0492507Y0437992D01*
X0492504Y0439591D02*
X0191210Y0439591D01*
X0191199Y0441189D02*
X0492501Y0441189D01*
X0492497Y0442788D02*
X0191189Y0442788D01*
X0191179Y0444386D02*
X0492494Y0444386D01*
X0492491Y0445985D02*
X0191169Y0445985D01*
X0191159Y0447583D02*
X0492488Y0447583D01*
X0492484Y0449182D02*
X0191149Y0449182D01*
X0191139Y0450780D02*
X0492481Y0450780D01*
X0492478Y0452379D02*
X0191129Y0452379D01*
X0191118Y0453977D02*
X0492475Y0453977D01*
X0492471Y0455576D02*
X0191108Y0455576D01*
X0191098Y0457174D02*
X0469336Y0457174D01*
X0469515Y0457071D02*
X0473044Y0456125D01*
X0476698Y0456125D01*
X0480226Y0457071D01*
X0483390Y0458897D01*
X0485974Y0461481D01*
X0487800Y0464644D01*
X0488746Y0468173D01*
X0488746Y0471827D01*
X0487800Y0475356D01*
X0485974Y0478519D01*
X0483390Y0481103D01*
X0480226Y0482929D01*
X0476698Y0483875D01*
X0473044Y0483875D01*
X0469515Y0482929D01*
X0466351Y0481103D01*
X0463768Y0478519D01*
X0461941Y0475356D01*
X0460996Y0471827D01*
X0460996Y0468173D01*
X0461941Y0464644D01*
X0463768Y0461481D01*
X0466351Y0458897D01*
X0469515Y0457071D01*
X0466567Y0458773D02*
X0191088Y0458773D01*
X0191078Y0460371D02*
X0464877Y0460371D01*
X0463486Y0461970D02*
X0191068Y0461970D01*
X0191058Y0463568D02*
X0462563Y0463568D01*
X0461801Y0465167D02*
X0191047Y0465167D01*
X0191037Y0466765D02*
X0461373Y0466765D01*
X0460996Y0468364D02*
X0191027Y0468364D01*
X0191017Y0469962D02*
X0460996Y0469962D01*
X0460996Y0471561D02*
X0191007Y0471561D01*
X0190997Y0473159D02*
X0461353Y0473159D01*
X0461781Y0474758D02*
X0190987Y0474758D01*
X0190976Y0476356D02*
X0462519Y0476356D01*
X0463442Y0477955D02*
X0190966Y0477955D01*
X0190956Y0479553D02*
X0464802Y0479553D01*
X0466437Y0481152D02*
X0190946Y0481152D01*
X0190936Y0482750D02*
X0469205Y0482750D01*
X0480536Y0482750D02*
X0492416Y0482750D01*
X0492420Y0481152D02*
X0483305Y0481152D01*
X0484940Y0479553D02*
X0492423Y0479553D01*
X0492426Y0477955D02*
X0486300Y0477955D01*
X0487222Y0476356D02*
X0492429Y0476356D01*
X0492433Y0474758D02*
X0487960Y0474758D01*
X0488389Y0473159D02*
X0492436Y0473159D01*
X0492439Y0471561D02*
X0488746Y0471561D01*
X0488746Y0469962D02*
X0492442Y0469962D01*
X0492445Y0468364D02*
X0488746Y0468364D01*
X0488369Y0466765D02*
X0492449Y0466765D01*
X0492452Y0465167D02*
X0487940Y0465167D01*
X0487179Y0463568D02*
X0492455Y0463568D01*
X0492458Y0461970D02*
X0486256Y0461970D01*
X0484864Y0460371D02*
X0492462Y0460371D01*
X0492465Y0458773D02*
X0483175Y0458773D01*
X0480406Y0457174D02*
X0492468Y0457174D01*
X0492413Y0484349D02*
X0190926Y0484349D01*
X0190916Y0485947D02*
X0492410Y0485947D01*
X0492407Y0487546D02*
X0190905Y0487546D01*
X0190901Y0488301D02*
X0492405Y0488301D01*
X0493350Y0021957D01*
X0193871Y0020000D01*
X0190901Y0488301D01*
X0193898Y0488301D02*
X0194871Y0282000D01*
X0098871Y0280000D01*
X0099849Y0488301D01*
X0193898Y0488301D01*
X0193901Y0487546D02*
X0099845Y0487546D01*
X0099838Y0485947D02*
X0193909Y0485947D01*
X0193916Y0484349D02*
X0099830Y0484349D01*
X0099823Y0482750D02*
X0193924Y0482750D01*
X0193931Y0481152D02*
X0099815Y0481152D01*
X0099808Y0479553D02*
X0193939Y0479553D01*
X0193947Y0477955D02*
X0099800Y0477955D01*
X0099793Y0476356D02*
X0193954Y0476356D01*
X0193962Y0474758D02*
X0099785Y0474758D01*
X0099778Y0473159D02*
X0193969Y0473159D01*
X0193977Y0471561D02*
X0099770Y0471561D01*
X0099763Y0469962D02*
X0193984Y0469962D01*
X0193992Y0468364D02*
X0099755Y0468364D01*
X0099748Y0466765D02*
X0193999Y0466765D01*
X0194007Y0465167D02*
X0099740Y0465167D01*
X0099733Y0463568D02*
X0194014Y0463568D01*
X0194022Y0461970D02*
X0099725Y0461970D01*
X0099718Y0460371D02*
X0194029Y0460371D01*
X0194037Y0458773D02*
X0099710Y0458773D01*
X0099703Y0457174D02*
X0194045Y0457174D01*
X0194052Y0455576D02*
X0099695Y0455576D01*
X0099688Y0453977D02*
X0194060Y0453977D01*
X0194067Y0452379D02*
X0099680Y0452379D01*
X0099673Y0450780D02*
X0194075Y0450780D01*
X0194082Y0449182D02*
X0099665Y0449182D01*
X0099658Y0447583D02*
X0194090Y0447583D01*
X0194097Y0445985D02*
X0099650Y0445985D01*
X0099643Y0444386D02*
X0194105Y0444386D01*
X0194112Y0442788D02*
X0099635Y0442788D01*
X0099628Y0441189D02*
X0194120Y0441189D01*
X0194128Y0439591D02*
X0099620Y0439591D01*
X0099613Y0437992D02*
X0194135Y0437992D01*
X0194143Y0436394D02*
X0099605Y0436394D01*
X0099598Y0434795D02*
X0194150Y0434795D01*
X0194158Y0433197D02*
X0099590Y0433197D01*
X0099583Y0431598D02*
X0194165Y0431598D01*
X0194173Y0430000D02*
X0099575Y0430000D01*
X0099568Y0428401D02*
X0194180Y0428401D01*
X0194188Y0426803D02*
X0099560Y0426803D01*
X0099553Y0425204D02*
X0194195Y0425204D01*
X0194203Y0423605D02*
X0099545Y0423605D01*
X0099538Y0422007D02*
X0194210Y0422007D01*
X0194218Y0420408D02*
X0099530Y0420408D01*
X0099523Y0418810D02*
X0194226Y0418810D01*
X0194233Y0417211D02*
X0099515Y0417211D01*
X0099508Y0415613D02*
X0194241Y0415613D01*
X0194248Y0414014D02*
X0099500Y0414014D01*
X0099493Y0412416D02*
X0194256Y0412416D01*
X0194263Y0410817D02*
X0099485Y0410817D01*
X0099478Y0409219D02*
X0194271Y0409219D01*
X0194278Y0407620D02*
X0099470Y0407620D01*
X0099462Y0406022D02*
X0194286Y0406022D01*
X0194293Y0404423D02*
X0099455Y0404423D01*
X0099448Y0402825D02*
X0194301Y0402825D01*
X0194308Y0401226D02*
X0099440Y0401226D01*
X0099432Y0399628D02*
X0194316Y0399628D01*
X0194324Y0398029D02*
X0099425Y0398029D01*
X0099417Y0396431D02*
X0194331Y0396431D01*
X0194339Y0394832D02*
X0099410Y0394832D01*
X0099402Y0393234D02*
X0194346Y0393234D01*
X0194354Y0391635D02*
X0099395Y0391635D01*
X0099387Y0390037D02*
X0194361Y0390037D01*
X0194369Y0388438D02*
X0099380Y0388438D01*
X0099372Y0386840D02*
X0194376Y0386840D01*
X0194384Y0385241D02*
X0099365Y0385241D01*
X0099357Y0383643D02*
X0194391Y0383643D01*
X0194399Y0382044D02*
X0099350Y0382044D01*
X0099342Y0380446D02*
X0194406Y0380446D01*
X0194414Y0378847D02*
X0099335Y0378847D01*
X0099327Y0377249D02*
X0194422Y0377249D01*
X0194429Y0375650D02*
X0099320Y0375650D01*
X0099312Y0374052D02*
X0194437Y0374052D01*
X0194444Y0372453D02*
X0099305Y0372453D01*
X0099297Y0370855D02*
X0194452Y0370855D01*
X0194459Y0369256D02*
X0099290Y0369256D01*
X0099282Y0367658D02*
X0194467Y0367658D01*
X0194474Y0366059D02*
X0099275Y0366059D01*
X0099267Y0364461D02*
X0194482Y0364461D01*
X0194489Y0362862D02*
X0099260Y0362862D01*
X0099252Y0361264D02*
X0194497Y0361264D01*
X0194505Y0359665D02*
X0099245Y0359665D01*
X0099237Y0358067D02*
X0194512Y0358067D01*
X0194520Y0356468D02*
X0099230Y0356468D01*
X0099222Y0354870D02*
X0194527Y0354870D01*
X0194535Y0353271D02*
X0099215Y0353271D01*
X0099207Y0351672D02*
X0194542Y0351672D01*
X0194550Y0350074D02*
X0099200Y0350074D01*
X0099192Y0348475D02*
X0194557Y0348475D01*
X0194565Y0346877D02*
X0099185Y0346877D01*
X0099177Y0345278D02*
X0194572Y0345278D01*
X0194580Y0343680D02*
X0099170Y0343680D01*
X0099162Y0342081D02*
X0194587Y0342081D01*
X0194595Y0340483D02*
X0099155Y0340483D01*
X0099147Y0338884D02*
X0194603Y0338884D01*
X0194610Y0337286D02*
X0099140Y0337286D01*
X0099132Y0335687D02*
X0194618Y0335687D01*
X0194625Y0334089D02*
X0099125Y0334089D01*
X0099117Y0332490D02*
X0194633Y0332490D01*
X0194640Y0330892D02*
X0099110Y0330892D01*
X0099102Y0329293D02*
X0194648Y0329293D01*
X0194655Y0327695D02*
X0099095Y0327695D01*
X0099087Y0326096D02*
X0194663Y0326096D01*
X0194670Y0324498D02*
X0099080Y0324498D01*
X0099072Y0322899D02*
X0194678Y0322899D01*
X0194685Y0321301D02*
X0099065Y0321301D01*
X0099057Y0319702D02*
X0194693Y0319702D01*
X0194701Y0318104D02*
X0099050Y0318104D01*
X0099042Y0316505D02*
X0194708Y0316505D01*
X0194716Y0314907D02*
X0099035Y0314907D01*
X0099027Y0313308D02*
X0194723Y0313308D01*
X0194731Y0311710D02*
X0099020Y0311710D01*
X0099012Y0310111D02*
X0194738Y0310111D01*
X0194746Y0308513D02*
X0099005Y0308513D01*
X0098997Y0306914D02*
X0194753Y0306914D01*
X0194761Y0305316D02*
X0098990Y0305316D01*
X0098982Y0303717D02*
X0194768Y0303717D01*
X0194776Y0302119D02*
X0098975Y0302119D01*
X0098967Y0300520D02*
X0194784Y0300520D01*
X0194791Y0298922D02*
X0098960Y0298922D01*
X0098952Y0297323D02*
X0194799Y0297323D01*
X0194806Y0295725D02*
X0098945Y0295725D01*
X0098937Y0294126D02*
X0194814Y0294126D01*
X0194821Y0292528D02*
X0098930Y0292528D01*
X0098922Y0290929D02*
X0194829Y0290929D01*
X0194836Y0289331D02*
X0098915Y0289331D01*
X0098907Y0287732D02*
X0194844Y0287732D01*
X0194851Y0286134D02*
X0098900Y0286134D01*
X0098892Y0284535D02*
X0194859Y0284535D01*
X0194866Y0282937D02*
X0098885Y0282937D01*
X0098877Y0281338D02*
X0163094Y0281338D01*
X0191980Y0318104D02*
X0457471Y0318104D01*
X0457471Y0319702D02*
X0191970Y0319702D01*
X0191960Y0321301D02*
X0457471Y0321301D01*
X0457471Y0322899D02*
X0191950Y0322899D01*
X0191940Y0324498D02*
X0457246Y0324498D01*
X0457246Y0326096D02*
X0191929Y0326096D01*
X0191919Y0327695D02*
X0457246Y0327695D01*
X0457246Y0329293D02*
X0191909Y0329293D01*
X0191899Y0330892D02*
X0457206Y0330892D01*
X0457246Y0332490D02*
X0191889Y0332490D01*
X0191879Y0334089D02*
X0457246Y0334089D01*
X0457246Y0335687D02*
X0191869Y0335687D01*
X0191858Y0337286D02*
X0457246Y0337286D01*
X0457266Y0338884D02*
X0191848Y0338884D01*
X0191838Y0340483D02*
X0457266Y0340483D01*
X0457266Y0342081D02*
X0191828Y0342081D01*
X0191818Y0343680D02*
X0457266Y0343680D01*
X0457266Y0345278D02*
X0191808Y0345278D01*
X0191798Y0346877D02*
X0457266Y0346877D01*
X0457266Y0348475D02*
X0191788Y0348475D01*
X0191777Y0350074D02*
X0457266Y0350074D01*
X0457266Y0351672D02*
X0191767Y0351672D01*
X0191757Y0353271D02*
X0457266Y0353271D01*
X0457266Y0354870D02*
X0191747Y0354870D01*
X0191737Y0356468D02*
X0457266Y0356468D01*
X0457266Y0358067D02*
X0191727Y0358067D01*
X0191717Y0359665D02*
X0457266Y0359665D01*
X0457266Y0361264D02*
X0191706Y0361264D01*
X0191696Y0362862D02*
X0457266Y0362862D01*
X0457266Y0364461D02*
X0191686Y0364461D01*
X0191676Y0366059D02*
X0457266Y0366059D01*
X0457266Y0367658D02*
X0191666Y0367658D01*
X0191656Y0369256D02*
X0457266Y0369256D01*
X0457266Y0370855D02*
X0191646Y0370855D01*
X0191635Y0372453D02*
X0457253Y0372453D01*
X0457471Y0374052D02*
X0191625Y0374052D01*
X0191615Y0375650D02*
X0457471Y0375650D01*
X0457471Y0377249D02*
X0191605Y0377249D01*
X0191595Y0378847D02*
X0457471Y0378847D01*
X0457471Y0380446D02*
X0191585Y0380446D01*
X0191575Y0382044D02*
X0457471Y0382044D01*
X0457471Y0383643D02*
X0191564Y0383643D01*
X0191554Y0385241D02*
X0457471Y0385241D01*
X0457471Y0386840D02*
X0191544Y0386840D01*
X0191534Y0388438D02*
X0457471Y0388438D01*
X0457471Y0390037D02*
X0191524Y0390037D01*
X0191514Y0391635D02*
X0457471Y0391635D01*
X0457471Y0393234D02*
X0191504Y0393234D01*
X0191493Y0394832D02*
X0457471Y0394832D01*
X0457471Y0396431D02*
X0191483Y0396431D01*
X0191473Y0398029D02*
X0457471Y0398029D01*
X0457471Y0399628D02*
X0191463Y0399628D01*
X0191453Y0401226D02*
X0457471Y0401226D01*
X0457471Y0402825D02*
X0191443Y0402825D01*
X0191433Y0404423D02*
X0457471Y0404423D01*
X0457471Y0406022D02*
X0191423Y0406022D01*
X0191412Y0407620D02*
X0457471Y0407620D01*
X0457471Y0409219D02*
X0191402Y0409219D01*
X0191392Y0410817D02*
X0457471Y0410817D01*
X0457471Y0412416D02*
X0191382Y0412416D01*
X0191372Y0414014D02*
X0457471Y0414014D01*
X0457471Y0415613D02*
X0191362Y0415613D01*
X0191352Y0417211D02*
X0457471Y0417211D01*
X0457471Y0418810D02*
X0191341Y0418810D01*
X0191331Y0420408D02*
X0457471Y0420408D01*
X0457471Y0422007D02*
X0191321Y0422007D01*
X0191311Y0423605D02*
X0457471Y0423605D01*
X0457471Y0425204D02*
X0191301Y0425204D01*
X0191291Y0426803D02*
X0457552Y0426803D01*
X0457980Y0428401D02*
X0191281Y0428401D01*
X0191270Y0430000D02*
X0458594Y0430000D01*
X0459517Y0431598D02*
X0191260Y0431598D01*
X0191250Y0433197D02*
X0460945Y0433197D01*
X0463036Y0434795D02*
X0191240Y0434795D01*
X0196532Y0527291D02*
X0197906Y0527300D01*
X0219374Y0527300D01*
X0220142Y0525968D01*
X0222268Y0523842D01*
X0224872Y0522339D01*
X0227777Y0521561D01*
X0230784Y0521561D01*
X0233688Y0522339D01*
X0236292Y0523842D01*
X0238418Y0525968D01*
X0239922Y0528572D01*
X0240700Y0531477D01*
X0240700Y0544523D01*
X0239922Y0547428D01*
X0238418Y0550032D01*
X0236292Y0552158D01*
X0233688Y0553661D01*
X0230784Y0554439D01*
X0227777Y0554439D01*
X0224872Y0553661D01*
X0222268Y0552158D01*
X0220142Y0550032D01*
X0219374Y0548700D01*
X0202262Y0548700D01*
X0170016Y0580528D01*
X0168553Y0698541D01*
X0167790Y0701253D01*
X0166351Y0703676D01*
X0164334Y0705643D01*
X0161877Y0707021D01*
X0159147Y0707717D01*
X0156330Y0707682D01*
X0153618Y0706919D01*
X0151195Y0705480D01*
X0149228Y0703463D01*
X0147850Y0701006D01*
X0147154Y0698276D01*
X0148671Y0575899D01*
X0148680Y0574521D01*
X0148689Y0574491D01*
X0148689Y0574459D01*
X0149062Y0573132D01*
X0149427Y0571805D01*
X0149443Y0571777D01*
X0149452Y0571747D01*
X0150156Y0570562D01*
X0150852Y0569374D01*
X0150875Y0569352D01*
X0150891Y0569324D01*
X0151877Y0568362D01*
X0190329Y0530410D01*
X0191301Y0529438D01*
X0191332Y0529420D01*
X0191357Y0529395D01*
X0192550Y0528717D01*
X0193741Y0528029D01*
X0193775Y0528020D01*
X0193806Y0528002D01*
X0195135Y0527656D01*
X0196462Y0527300D01*
X0196498Y0527300D01*
X0196532Y0527291D01*
X0195683Y0527509D02*
X0052746Y0527509D01*
X0052746Y0527173D02*
X0051800Y0523644D01*
X0049974Y0520481D01*
X0047390Y0517897D01*
X0044226Y0516071D01*
X0040698Y0515125D01*
X0037044Y0515125D01*
X0033515Y0516071D01*
X0030351Y0517897D01*
X0027768Y0520481D01*
X0025941Y0523644D01*
X0024996Y0527173D01*
X0024996Y0530827D01*
X0025941Y0534356D01*
X0027768Y0537519D01*
X0030351Y0540103D01*
X0033515Y0541929D01*
X0037044Y0542875D01*
X0040698Y0542875D01*
X0044226Y0541929D01*
X0047390Y0540103D01*
X0049974Y0537519D01*
X0051800Y0534356D01*
X0052746Y0530827D01*
X0052746Y0527173D01*
X0052407Y0525910D02*
X0220201Y0525910D01*
X0221799Y0524312D02*
X0051979Y0524312D01*
X0051263Y0522713D02*
X0224224Y0522713D01*
X0234337Y0522713D02*
X0255405Y0522713D01*
X0256054Y0522339D02*
X0258958Y0521561D01*
X0261965Y0521561D01*
X0264869Y0522339D01*
X0267473Y0523842D01*
X0269599Y0525968D01*
X0270368Y0527300D01*
X0377280Y0527300D01*
X0380001Y0528029D01*
X0382441Y0529438D01*
X0413758Y0560755D01*
X0414941Y0561438D01*
X0414960Y0561457D01*
X0414984Y0561471D01*
X0415957Y0562454D01*
X0416933Y0563430D01*
X0416947Y0563454D01*
X0416966Y0563474D01*
X0417651Y0564674D01*
X0418342Y0565870D01*
X0418349Y0565897D01*
X0418363Y0565921D01*
X0418713Y0567257D01*
X0419071Y0568591D01*
X0419071Y0568619D01*
X0419078Y0568646D01*
X0419071Y0570028D01*
X0419071Y0571409D01*
X0419064Y0571435D01*
X0418593Y0663591D01*
X0442433Y0687430D01*
X0443842Y0689870D01*
X0444571Y0692591D01*
X0444571Y0695409D01*
X0443842Y0698130D01*
X0442433Y0700570D01*
X0440441Y0702562D01*
X0438001Y0703971D01*
X0435280Y0704700D01*
X0432462Y0704700D01*
X0429741Y0703971D01*
X0427301Y0702562D01*
X0401281Y0676543D01*
X0401257Y0676528D01*
X0400284Y0675546D01*
X0399309Y0674570D01*
X0399295Y0674546D01*
X0399275Y0674526D01*
X0398590Y0673326D01*
X0397900Y0672130D01*
X0397893Y0672103D01*
X0397879Y0672079D01*
X0397528Y0670743D01*
X0397171Y0669409D01*
X0397171Y0669381D01*
X0397164Y0669354D01*
X0397171Y0667972D01*
X0397171Y0666591D01*
X0397178Y0666565D01*
X0397646Y0574907D01*
X0371439Y0548700D01*
X0270368Y0548700D01*
X0269599Y0550032D01*
X0267473Y0552158D01*
X0264869Y0553661D01*
X0261965Y0554439D01*
X0258958Y0554439D01*
X0256054Y0553661D01*
X0253450Y0552158D01*
X0251323Y0550032D01*
X0249820Y0547428D01*
X0249042Y0544523D01*
X0249042Y0531477D01*
X0249820Y0528572D01*
X0251323Y0525968D01*
X0253450Y0523842D01*
X0256054Y0522339D01*
X0252980Y0524312D02*
X0236762Y0524312D01*
X0238360Y0525910D02*
X0251382Y0525910D01*
X0250434Y0527509D02*
X0239308Y0527509D01*
X0240065Y0529107D02*
X0249677Y0529107D01*
X0249248Y0530706D02*
X0240493Y0530706D01*
X0240700Y0532304D02*
X0249042Y0532304D01*
X0249042Y0533903D02*
X0240700Y0533903D01*
X0240700Y0535501D02*
X0249042Y0535501D01*
X0249042Y0537100D02*
X0240700Y0537100D01*
X0240700Y0538698D02*
X0249042Y0538698D01*
X0249042Y0540297D02*
X0240700Y0540297D01*
X0240700Y0541895D02*
X0249042Y0541895D01*
X0249042Y0543494D02*
X0240700Y0543494D01*
X0240547Y0545092D02*
X0249194Y0545092D01*
X0249623Y0546691D02*
X0240119Y0546691D01*
X0239424Y0548289D02*
X0250318Y0548289D01*
X0251240Y0549888D02*
X0238501Y0549888D01*
X0236963Y0551486D02*
X0252778Y0551486D01*
X0255056Y0553085D02*
X0234686Y0553085D01*
X0223874Y0553085D02*
X0197819Y0553085D01*
X0196200Y0554683D02*
X0377422Y0554683D01*
X0375824Y0553085D02*
X0265867Y0553085D01*
X0268145Y0551486D02*
X0374225Y0551486D01*
X0372627Y0549888D02*
X0269682Y0549888D01*
X0269541Y0525910D02*
X0445334Y0525910D01*
X0444996Y0527173D02*
X0445941Y0523644D01*
X0447768Y0520481D01*
X0450351Y0517897D01*
X0453515Y0516071D01*
X0457044Y0515125D01*
X0460698Y0515125D01*
X0464226Y0516071D01*
X0467390Y0517897D01*
X0469974Y0520481D01*
X0471800Y0523644D01*
X0472746Y0527173D01*
X0472746Y0530827D01*
X0471800Y0534356D01*
X0469974Y0537519D01*
X0467390Y0540103D01*
X0464226Y0541929D01*
X0460698Y0542875D01*
X0457044Y0542875D01*
X0453515Y0541929D01*
X0450351Y0540103D01*
X0447768Y0537519D01*
X0445941Y0534356D01*
X0444996Y0530827D01*
X0444996Y0527173D01*
X0444996Y0527509D02*
X0378059Y0527509D01*
X0381868Y0529107D02*
X0444996Y0529107D01*
X0444996Y0530706D02*
X0383709Y0530706D01*
X0385307Y0532304D02*
X0445392Y0532304D01*
X0445820Y0533903D02*
X0386906Y0533903D01*
X0388504Y0535501D02*
X0446603Y0535501D01*
X0447526Y0537100D02*
X0390103Y0537100D01*
X0391701Y0538698D02*
X0448947Y0538698D01*
X0450688Y0540297D02*
X0393300Y0540297D01*
X0394898Y0541895D02*
X0453456Y0541895D01*
X0446479Y0522713D02*
X0265518Y0522713D01*
X0267943Y0524312D02*
X0445763Y0524312D01*
X0447402Y0521115D02*
X0050340Y0521115D01*
X0049009Y0519516D02*
X0448732Y0519516D01*
X0450331Y0517918D02*
X0047411Y0517918D01*
X0044657Y0516319D02*
X0453085Y0516319D01*
X0464657Y0516319D02*
X0477471Y0516319D01*
X0477471Y0514721D02*
X0020271Y0514721D01*
X0020271Y0516319D02*
X0033085Y0516319D01*
X0030331Y0517918D02*
X0020271Y0517918D01*
X0020271Y0519516D02*
X0028732Y0519516D01*
X0027402Y0521115D02*
X0020271Y0521115D01*
X0020271Y0522713D02*
X0026479Y0522713D01*
X0025763Y0524312D02*
X0020271Y0524312D01*
X0020271Y0525910D02*
X0025334Y0525910D01*
X0024996Y0527509D02*
X0020271Y0527509D01*
X0020271Y0529107D02*
X0024996Y0529107D01*
X0024996Y0530706D02*
X0020271Y0530706D01*
X0020271Y0532304D02*
X0025392Y0532304D01*
X0025820Y0533903D02*
X0020271Y0533903D01*
X0020271Y0535501D02*
X0026603Y0535501D01*
X0027526Y0537100D02*
X0020271Y0537100D01*
X0020271Y0538698D02*
X0028947Y0538698D01*
X0030688Y0540297D02*
X0020271Y0540297D01*
X0020271Y0541895D02*
X0033456Y0541895D01*
X0044285Y0541895D02*
X0178692Y0541895D01*
X0180312Y0540297D02*
X0047054Y0540297D01*
X0048795Y0538698D02*
X0181931Y0538698D01*
X0183551Y0537100D02*
X0050216Y0537100D01*
X0051139Y0535501D02*
X0185170Y0535501D01*
X0186790Y0533903D02*
X0051922Y0533903D01*
X0052350Y0532304D02*
X0188410Y0532304D01*
X0190029Y0530706D02*
X0052746Y0530706D01*
X0052746Y0529107D02*
X0191863Y0529107D01*
X0201058Y0549888D02*
X0220059Y0549888D01*
X0221597Y0551486D02*
X0199439Y0551486D01*
X0194580Y0556282D02*
X0379021Y0556282D01*
X0380619Y0557880D02*
X0192961Y0557880D01*
X0191341Y0559479D02*
X0382218Y0559479D01*
X0383816Y0561077D02*
X0189722Y0561077D01*
X0188102Y0562676D02*
X0385415Y0562676D01*
X0387013Y0564274D02*
X0186483Y0564274D01*
X0184863Y0565873D02*
X0388612Y0565873D01*
X0390210Y0567472D02*
X0183244Y0567472D01*
X0181624Y0569070D02*
X0391809Y0569070D01*
X0393407Y0570669D02*
X0180004Y0570669D01*
X0178385Y0572267D02*
X0395006Y0572267D01*
X0396604Y0573866D02*
X0176765Y0573866D01*
X0175146Y0575464D02*
X0397643Y0575464D01*
X0397635Y0577063D02*
X0173526Y0577063D01*
X0171907Y0578661D02*
X0397627Y0578661D01*
X0397618Y0580260D02*
X0170287Y0580260D01*
X0169999Y0581858D02*
X0397610Y0581858D01*
X0397602Y0583457D02*
X0169979Y0583457D01*
X0169959Y0585055D02*
X0397594Y0585055D01*
X0397586Y0586654D02*
X0169940Y0586654D01*
X0169920Y0588252D02*
X0397578Y0588252D01*
X0397569Y0589851D02*
X0169900Y0589851D01*
X0169880Y0591449D02*
X0397561Y0591449D01*
X0397553Y0593048D02*
X0169860Y0593048D01*
X0169841Y0594646D02*
X0227457Y0594646D01*
X0227777Y0594561D02*
X0230784Y0594561D01*
X0233688Y0595339D01*
X0236292Y0596842D01*
X0238418Y0598968D01*
X0239922Y0601572D01*
X0240700Y0604477D01*
X0240700Y0617523D01*
X0239922Y0620428D01*
X0238685Y0622570D01*
X0238685Y0665578D01*
X0238694Y0665599D01*
X0238685Y0667407D01*
X0238685Y0669216D01*
X0238676Y0669237D01*
X0238480Y0710613D01*
X0238480Y0712421D01*
X0238472Y0712441D01*
X0238472Y0712464D01*
X0237772Y0714132D01*
X0237080Y0715802D01*
X0237064Y0715818D01*
X0237055Y0715839D01*
X0235770Y0717111D01*
X0217749Y0735133D01*
X0251261Y0734990D01*
X0251261Y0622924D01*
X0249820Y0620428D01*
X0249042Y0617523D01*
X0249042Y0604477D01*
X0249820Y0601572D01*
X0251323Y0598968D01*
X0253450Y0596842D01*
X0256054Y0595339D01*
X0258958Y0594561D01*
X0261965Y0594561D01*
X0264869Y0595339D01*
X0267473Y0596842D01*
X0269599Y0598968D01*
X0271103Y0601572D01*
X0271881Y0604477D01*
X0271881Y0617523D01*
X0271103Y0620428D01*
X0269661Y0622924D01*
X0269661Y0734911D01*
X0477471Y0734023D01*
X0477471Y0510400D01*
X0020271Y0510400D01*
X0020271Y0735977D01*
X0191615Y0735245D01*
X0220098Y0706762D01*
X0220285Y0667364D01*
X0220285Y0623174D01*
X0220142Y0623032D01*
X0218639Y0620428D01*
X0217861Y0617523D01*
X0217861Y0604477D01*
X0218639Y0601572D01*
X0220142Y0598968D01*
X0222268Y0596842D01*
X0224872Y0595339D01*
X0227777Y0594561D01*
X0231103Y0594646D02*
X0258639Y0594646D01*
X0262284Y0594646D02*
X0397545Y0594646D01*
X0397537Y0596245D02*
X0266438Y0596245D01*
X0268474Y0597843D02*
X0397529Y0597843D01*
X0397521Y0599442D02*
X0269873Y0599442D01*
X0270796Y0601040D02*
X0397512Y0601040D01*
X0397504Y0602639D02*
X0271389Y0602639D01*
X0271817Y0604237D02*
X0397496Y0604237D01*
X0397488Y0605836D02*
X0271881Y0605836D01*
X0271881Y0607434D02*
X0397480Y0607434D01*
X0397472Y0609033D02*
X0271881Y0609033D01*
X0271881Y0610631D02*
X0397463Y0610631D01*
X0397455Y0612230D02*
X0271881Y0612230D01*
X0271881Y0613828D02*
X0397447Y0613828D01*
X0397439Y0615427D02*
X0271881Y0615427D01*
X0271881Y0617025D02*
X0397431Y0617025D01*
X0397423Y0618624D02*
X0271586Y0618624D01*
X0271158Y0620222D02*
X0397414Y0620222D01*
X0397406Y0621821D02*
X0270298Y0621821D01*
X0269661Y0623419D02*
X0397398Y0623419D01*
X0397390Y0625018D02*
X0269661Y0625018D01*
X0269661Y0626616D02*
X0397382Y0626616D01*
X0397374Y0628215D02*
X0269661Y0628215D01*
X0269661Y0629813D02*
X0397366Y0629813D01*
X0397357Y0631412D02*
X0269661Y0631412D01*
X0269661Y0633010D02*
X0397349Y0633010D01*
X0397341Y0634609D02*
X0269661Y0634609D01*
X0269661Y0636208D02*
X0397333Y0636208D01*
X0397325Y0637806D02*
X0269661Y0637806D01*
X0269661Y0639405D02*
X0397317Y0639405D01*
X0397308Y0641003D02*
X0269661Y0641003D01*
X0269661Y0642602D02*
X0397300Y0642602D01*
X0397292Y0644200D02*
X0269661Y0644200D01*
X0269661Y0645799D02*
X0397284Y0645799D01*
X0397276Y0647397D02*
X0269661Y0647397D01*
X0269661Y0648996D02*
X0397268Y0648996D01*
X0397260Y0650594D02*
X0269661Y0650594D01*
X0269661Y0652193D02*
X0397251Y0652193D01*
X0397243Y0653791D02*
X0269661Y0653791D01*
X0269661Y0655390D02*
X0397235Y0655390D01*
X0397227Y0656988D02*
X0269661Y0656988D01*
X0269661Y0658587D02*
X0397219Y0658587D01*
X0397211Y0660185D02*
X0269661Y0660185D01*
X0269661Y0661784D02*
X0397202Y0661784D01*
X0397194Y0663382D02*
X0269661Y0663382D01*
X0269661Y0664981D02*
X0397186Y0664981D01*
X0397174Y0666579D02*
X0269661Y0666579D01*
X0269661Y0668178D02*
X0397170Y0668178D01*
X0397269Y0669776D02*
X0269661Y0669776D01*
X0269661Y0671375D02*
X0397694Y0671375D01*
X0398387Y0672973D02*
X0269661Y0672973D01*
X0269661Y0674572D02*
X0399311Y0674572D01*
X0400903Y0676170D02*
X0269661Y0676170D01*
X0269661Y0677769D02*
X0402508Y0677769D01*
X0404106Y0679367D02*
X0269661Y0679367D01*
X0269661Y0680966D02*
X0405705Y0680966D01*
X0407303Y0682564D02*
X0269661Y0682564D01*
X0269661Y0684163D02*
X0408902Y0684163D01*
X0410500Y0685761D02*
X0269661Y0685761D01*
X0269661Y0687360D02*
X0412099Y0687360D01*
X0413697Y0688958D02*
X0269661Y0688958D01*
X0269661Y0690557D02*
X0415296Y0690557D01*
X0416894Y0692155D02*
X0269661Y0692155D01*
X0269661Y0693754D02*
X0418493Y0693754D01*
X0420091Y0695352D02*
X0269661Y0695352D01*
X0269661Y0696951D02*
X0421690Y0696951D01*
X0423288Y0698549D02*
X0269661Y0698549D01*
X0269661Y0700148D02*
X0424887Y0700148D01*
X0426485Y0701746D02*
X0269661Y0701746D01*
X0269661Y0703345D02*
X0428657Y0703345D01*
X0439085Y0703345D02*
X0477471Y0703345D01*
X0477471Y0704943D02*
X0269661Y0704943D01*
X0269661Y0706542D02*
X0477471Y0706542D01*
X0477471Y0708141D02*
X0269661Y0708141D01*
X0269661Y0709739D02*
X0477471Y0709739D01*
X0477471Y0711338D02*
X0269661Y0711338D01*
X0269661Y0712936D02*
X0477471Y0712936D01*
X0477471Y0714535D02*
X0269661Y0714535D01*
X0269661Y0716133D02*
X0477471Y0716133D01*
X0477471Y0717732D02*
X0269661Y0717732D01*
X0269661Y0719330D02*
X0477471Y0719330D01*
X0477471Y0720929D02*
X0269661Y0720929D01*
X0269661Y0722527D02*
X0477471Y0722527D01*
X0477471Y0724126D02*
X0269661Y0724126D01*
X0269661Y0725724D02*
X0477471Y0725724D01*
X0477471Y0727323D02*
X0269661Y0727323D01*
X0269661Y0728921D02*
X0477471Y0728921D01*
X0477471Y0730520D02*
X0269661Y0730520D01*
X0269661Y0732118D02*
X0477471Y0732118D01*
X0477471Y0733717D02*
X0269661Y0733717D01*
X0251261Y0733717D02*
X0219165Y0733717D01*
X0220763Y0732118D02*
X0251261Y0732118D01*
X0251261Y0730520D02*
X0222362Y0730520D01*
X0223960Y0728921D02*
X0251261Y0728921D01*
X0251261Y0727323D02*
X0225559Y0727323D01*
X0227157Y0725724D02*
X0251261Y0725724D01*
X0251261Y0724126D02*
X0228756Y0724126D01*
X0230355Y0722527D02*
X0251261Y0722527D01*
X0251261Y0720929D02*
X0231953Y0720929D01*
X0233552Y0719330D02*
X0251261Y0719330D01*
X0251261Y0717732D02*
X0235150Y0717732D01*
X0236758Y0716133D02*
X0251261Y0716133D01*
X0251261Y0714535D02*
X0237605Y0714535D01*
X0238273Y0712936D02*
X0251261Y0712936D01*
X0251261Y0711338D02*
X0238480Y0711338D01*
X0238484Y0709739D02*
X0251261Y0709739D01*
X0251261Y0708141D02*
X0238492Y0708141D01*
X0238500Y0706542D02*
X0251261Y0706542D01*
X0251261Y0704943D02*
X0238507Y0704943D01*
X0238515Y0703345D02*
X0251261Y0703345D01*
X0251261Y0701746D02*
X0238522Y0701746D01*
X0238530Y0700148D02*
X0251261Y0700148D01*
X0251261Y0698549D02*
X0238537Y0698549D01*
X0238545Y0696951D02*
X0251261Y0696951D01*
X0251261Y0695352D02*
X0238553Y0695352D01*
X0238560Y0693754D02*
X0251261Y0693754D01*
X0251261Y0692155D02*
X0238568Y0692155D01*
X0238575Y0690557D02*
X0251261Y0690557D01*
X0251261Y0688958D02*
X0238583Y0688958D01*
X0238590Y0687360D02*
X0251261Y0687360D01*
X0251261Y0685761D02*
X0238598Y0685761D01*
X0238606Y0684163D02*
X0251261Y0684163D01*
X0251261Y0682564D02*
X0238613Y0682564D01*
X0238621Y0680966D02*
X0251261Y0680966D01*
X0251261Y0679367D02*
X0238628Y0679367D01*
X0238636Y0677769D02*
X0251261Y0677769D01*
X0251261Y0676170D02*
X0238644Y0676170D01*
X0238651Y0674572D02*
X0251261Y0674572D01*
X0251261Y0672973D02*
X0238659Y0672973D01*
X0238666Y0671375D02*
X0251261Y0671375D01*
X0251261Y0669776D02*
X0238674Y0669776D01*
X0238685Y0668178D02*
X0251261Y0668178D01*
X0251261Y0666579D02*
X0238689Y0666579D01*
X0238685Y0664981D02*
X0251261Y0664981D01*
X0251261Y0663382D02*
X0238685Y0663382D01*
X0238685Y0661784D02*
X0251261Y0661784D01*
X0251261Y0660185D02*
X0238685Y0660185D01*
X0238685Y0658587D02*
X0251261Y0658587D01*
X0251261Y0656988D02*
X0238685Y0656988D01*
X0238685Y0655390D02*
X0251261Y0655390D01*
X0251261Y0653791D02*
X0238685Y0653791D01*
X0238685Y0652193D02*
X0251261Y0652193D01*
X0251261Y0650594D02*
X0238685Y0650594D01*
X0238685Y0648996D02*
X0251261Y0648996D01*
X0251261Y0647397D02*
X0238685Y0647397D01*
X0238685Y0645799D02*
X0251261Y0645799D01*
X0251261Y0644200D02*
X0238685Y0644200D01*
X0238685Y0642602D02*
X0251261Y0642602D01*
X0251261Y0641003D02*
X0238685Y0641003D01*
X0238685Y0639405D02*
X0251261Y0639405D01*
X0251261Y0637806D02*
X0238685Y0637806D01*
X0238685Y0636208D02*
X0251261Y0636208D01*
X0251261Y0634609D02*
X0238685Y0634609D01*
X0238685Y0633010D02*
X0251261Y0633010D01*
X0251261Y0631412D02*
X0238685Y0631412D01*
X0238685Y0629813D02*
X0251261Y0629813D01*
X0251261Y0628215D02*
X0238685Y0628215D01*
X0238685Y0626616D02*
X0251261Y0626616D01*
X0251261Y0625018D02*
X0238685Y0625018D01*
X0238685Y0623419D02*
X0251261Y0623419D01*
X0250624Y0621821D02*
X0239117Y0621821D01*
X0239977Y0620222D02*
X0249765Y0620222D01*
X0249337Y0618624D02*
X0240405Y0618624D01*
X0240700Y0617025D02*
X0249042Y0617025D01*
X0249042Y0615427D02*
X0240700Y0615427D01*
X0240700Y0613828D02*
X0249042Y0613828D01*
X0249042Y0612230D02*
X0240700Y0612230D01*
X0240700Y0610631D02*
X0249042Y0610631D01*
X0249042Y0609033D02*
X0240700Y0609033D01*
X0240700Y0607434D02*
X0249042Y0607434D01*
X0249042Y0605836D02*
X0240700Y0605836D01*
X0240636Y0604237D02*
X0249106Y0604237D01*
X0249534Y0602639D02*
X0240207Y0602639D01*
X0239614Y0601040D02*
X0250127Y0601040D01*
X0251050Y0599442D02*
X0238692Y0599442D01*
X0237293Y0597843D02*
X0252449Y0597843D01*
X0254485Y0596245D02*
X0235257Y0596245D01*
X0223303Y0596245D02*
X0169821Y0596245D01*
X0169801Y0597843D02*
X0221268Y0597843D01*
X0219869Y0599442D02*
X0169781Y0599442D01*
X0169761Y0601040D02*
X0218946Y0601040D01*
X0218353Y0602639D02*
X0169741Y0602639D01*
X0169722Y0604237D02*
X0217925Y0604237D01*
X0217861Y0605836D02*
X0169702Y0605836D01*
X0169682Y0607434D02*
X0217861Y0607434D01*
X0217861Y0609033D02*
X0169662Y0609033D01*
X0169642Y0610631D02*
X0217861Y0610631D01*
X0217861Y0612230D02*
X0169623Y0612230D01*
X0169603Y0613828D02*
X0217861Y0613828D01*
X0217861Y0615427D02*
X0169583Y0615427D01*
X0169563Y0617025D02*
X0217861Y0617025D01*
X0218156Y0618624D02*
X0169543Y0618624D01*
X0169523Y0620222D02*
X0218584Y0620222D01*
X0219443Y0621821D02*
X0169504Y0621821D01*
X0169484Y0623419D02*
X0220285Y0623419D01*
X0220285Y0625018D02*
X0169464Y0625018D01*
X0169444Y0626616D02*
X0220285Y0626616D01*
X0220285Y0628215D02*
X0169424Y0628215D01*
X0169405Y0629813D02*
X0220285Y0629813D01*
X0220285Y0631412D02*
X0169385Y0631412D01*
X0169365Y0633010D02*
X0220285Y0633010D01*
X0220285Y0634609D02*
X0169345Y0634609D01*
X0169325Y0636208D02*
X0220285Y0636208D01*
X0220285Y0637806D02*
X0169305Y0637806D01*
X0169286Y0639405D02*
X0220285Y0639405D01*
X0220285Y0641003D02*
X0169266Y0641003D01*
X0169246Y0642602D02*
X0220285Y0642602D01*
X0220285Y0644200D02*
X0169226Y0644200D01*
X0169206Y0645799D02*
X0220285Y0645799D01*
X0220285Y0647397D02*
X0169187Y0647397D01*
X0169167Y0648996D02*
X0220285Y0648996D01*
X0220285Y0650594D02*
X0169147Y0650594D01*
X0169127Y0652193D02*
X0220285Y0652193D01*
X0220285Y0653791D02*
X0169107Y0653791D01*
X0169088Y0655390D02*
X0220285Y0655390D01*
X0220285Y0656988D02*
X0169068Y0656988D01*
X0169048Y0658587D02*
X0220285Y0658587D01*
X0220285Y0660185D02*
X0169028Y0660185D01*
X0169008Y0661784D02*
X0220285Y0661784D01*
X0220285Y0663382D02*
X0168988Y0663382D01*
X0168969Y0664981D02*
X0220285Y0664981D01*
X0220285Y0666579D02*
X0168949Y0666579D01*
X0168929Y0668178D02*
X0220281Y0668178D01*
X0220274Y0669776D02*
X0168909Y0669776D01*
X0168889Y0671375D02*
X0220266Y0671375D01*
X0220258Y0672973D02*
X0168870Y0672973D01*
X0168850Y0674572D02*
X0220251Y0674572D01*
X0220243Y0676170D02*
X0168830Y0676170D01*
X0168810Y0677769D02*
X0220236Y0677769D01*
X0220228Y0679367D02*
X0168790Y0679367D01*
X0168770Y0680966D02*
X0220221Y0680966D01*
X0220213Y0682564D02*
X0168751Y0682564D01*
X0168731Y0684163D02*
X0220205Y0684163D01*
X0220198Y0685761D02*
X0168711Y0685761D01*
X0168691Y0687360D02*
X0220190Y0687360D01*
X0220183Y0688958D02*
X0168671Y0688958D01*
X0168652Y0690557D02*
X0220175Y0690557D01*
X0220168Y0692155D02*
X0168632Y0692155D01*
X0168612Y0693754D02*
X0220160Y0693754D01*
X0220152Y0695352D02*
X0168592Y0695352D01*
X0168572Y0696951D02*
X0220145Y0696951D01*
X0220137Y0698549D02*
X0168550Y0698549D01*
X0168101Y0700148D02*
X0220130Y0700148D01*
X0220122Y0701746D02*
X0167497Y0701746D01*
X0166547Y0703345D02*
X0220115Y0703345D01*
X0220107Y0704943D02*
X0165051Y0704943D01*
X0162731Y0706542D02*
X0220099Y0706542D01*
X0218720Y0708141D02*
X0020271Y0708141D01*
X0020271Y0709739D02*
X0217121Y0709739D01*
X0215523Y0711338D02*
X0020271Y0711338D01*
X0020271Y0712936D02*
X0213924Y0712936D01*
X0212326Y0714535D02*
X0020271Y0714535D01*
X0020271Y0716133D02*
X0210727Y0716133D01*
X0209129Y0717732D02*
X0020271Y0717732D01*
X0020271Y0719330D02*
X0207530Y0719330D01*
X0205931Y0720929D02*
X0020271Y0720929D01*
X0020271Y0722527D02*
X0204333Y0722527D01*
X0202734Y0724126D02*
X0020271Y0724126D01*
X0020271Y0725724D02*
X0201136Y0725724D01*
X0199537Y0727323D02*
X0020271Y0727323D01*
X0020271Y0728921D02*
X0197939Y0728921D01*
X0196340Y0730520D02*
X0020271Y0730520D01*
X0020271Y0732118D02*
X0194742Y0732118D01*
X0193143Y0733717D02*
X0020271Y0733717D01*
X0020271Y0735315D02*
X0175111Y0735315D01*
X0152983Y0706542D02*
X0020271Y0706542D01*
X0020271Y0704943D02*
X0150672Y0704943D01*
X0149162Y0703345D02*
X0020271Y0703345D01*
X0020271Y0701746D02*
X0148265Y0701746D01*
X0147631Y0700148D02*
X0020271Y0700148D01*
X0020271Y0698549D02*
X0147224Y0698549D01*
X0147171Y0696951D02*
X0020271Y0696951D01*
X0020271Y0695352D02*
X0147190Y0695352D01*
X0147210Y0693754D02*
X0020271Y0693754D01*
X0020271Y0692155D02*
X0147230Y0692155D01*
X0147250Y0690557D02*
X0020271Y0690557D01*
X0020271Y0688958D02*
X0147270Y0688958D01*
X0147290Y0687360D02*
X0020271Y0687360D01*
X0020271Y0685761D02*
X0147309Y0685761D01*
X0147329Y0684163D02*
X0020271Y0684163D01*
X0020271Y0682564D02*
X0147349Y0682564D01*
X0147369Y0680966D02*
X0020271Y0680966D01*
X0020271Y0679367D02*
X0147389Y0679367D01*
X0147408Y0677769D02*
X0020271Y0677769D01*
X0020271Y0676170D02*
X0147428Y0676170D01*
X0147448Y0674572D02*
X0020271Y0674572D01*
X0020271Y0672973D02*
X0147468Y0672973D01*
X0147488Y0671375D02*
X0020271Y0671375D01*
X0020271Y0669776D02*
X0147508Y0669776D01*
X0147527Y0668178D02*
X0020271Y0668178D01*
X0020271Y0666579D02*
X0147547Y0666579D01*
X0147567Y0664981D02*
X0020271Y0664981D01*
X0020271Y0663382D02*
X0147587Y0663382D01*
X0147607Y0661784D02*
X0020271Y0661784D01*
X0020271Y0660185D02*
X0147626Y0660185D01*
X0147646Y0658587D02*
X0020271Y0658587D01*
X0020271Y0656988D02*
X0147666Y0656988D01*
X0147686Y0655390D02*
X0020271Y0655390D01*
X0020271Y0653791D02*
X0147706Y0653791D01*
X0147726Y0652193D02*
X0020271Y0652193D01*
X0020271Y0650594D02*
X0147745Y0650594D01*
X0147765Y0648996D02*
X0020271Y0648996D01*
X0020271Y0647397D02*
X0147785Y0647397D01*
X0147805Y0645799D02*
X0020271Y0645799D01*
X0020271Y0644200D02*
X0147825Y0644200D01*
X0147844Y0642602D02*
X0020271Y0642602D01*
X0020271Y0641003D02*
X0147864Y0641003D01*
X0147884Y0639405D02*
X0020271Y0639405D01*
X0020271Y0637806D02*
X0147904Y0637806D01*
X0147924Y0636208D02*
X0020271Y0636208D01*
X0020271Y0634609D02*
X0147943Y0634609D01*
X0147963Y0633010D02*
X0020271Y0633010D01*
X0020271Y0631412D02*
X0147983Y0631412D01*
X0148003Y0629813D02*
X0020271Y0629813D01*
X0020271Y0628215D02*
X0148023Y0628215D01*
X0148043Y0626616D02*
X0020271Y0626616D01*
X0020271Y0625018D02*
X0148062Y0625018D01*
X0148082Y0623419D02*
X0020271Y0623419D01*
X0020271Y0621821D02*
X0148102Y0621821D01*
X0148122Y0620222D02*
X0020271Y0620222D01*
X0020271Y0618624D02*
X0148142Y0618624D01*
X0148161Y0617025D02*
X0020271Y0617025D01*
X0020271Y0615427D02*
X0148181Y0615427D01*
X0148201Y0613828D02*
X0020271Y0613828D01*
X0020271Y0612230D02*
X0148221Y0612230D01*
X0148241Y0610631D02*
X0020271Y0610631D01*
X0020271Y0609033D02*
X0148261Y0609033D01*
X0148280Y0607434D02*
X0020271Y0607434D01*
X0020271Y0605836D02*
X0148300Y0605836D01*
X0148320Y0604237D02*
X0020271Y0604237D01*
X0020271Y0602639D02*
X0148340Y0602639D01*
X0148360Y0601040D02*
X0020271Y0601040D01*
X0020271Y0599442D02*
X0148379Y0599442D01*
X0148399Y0597843D02*
X0020271Y0597843D01*
X0020271Y0596245D02*
X0148419Y0596245D01*
X0148439Y0594646D02*
X0020271Y0594646D01*
X0020271Y0593048D02*
X0148459Y0593048D01*
X0148479Y0591449D02*
X0020271Y0591449D01*
X0020271Y0589851D02*
X0148498Y0589851D01*
X0148518Y0588252D02*
X0020271Y0588252D01*
X0020271Y0586654D02*
X0148538Y0586654D01*
X0148558Y0585055D02*
X0020271Y0585055D01*
X0020271Y0583457D02*
X0148578Y0583457D01*
X0148597Y0581858D02*
X0020271Y0581858D01*
X0020271Y0580260D02*
X0148617Y0580260D01*
X0148637Y0578661D02*
X0020271Y0578661D01*
X0020271Y0577063D02*
X0148657Y0577063D01*
X0148674Y0575464D02*
X0020271Y0575464D01*
X0020271Y0573866D02*
X0148856Y0573866D01*
X0149300Y0572267D02*
X0020271Y0572267D01*
X0020271Y0570669D02*
X0150092Y0570669D01*
X0151152Y0569070D02*
X0020271Y0569070D01*
X0020271Y0567472D02*
X0152780Y0567472D01*
X0154399Y0565873D02*
X0020271Y0565873D01*
X0020271Y0564274D02*
X0156019Y0564274D01*
X0157638Y0562676D02*
X0020271Y0562676D01*
X0020271Y0561077D02*
X0159258Y0561077D01*
X0160877Y0559479D02*
X0020271Y0559479D01*
X0020271Y0557880D02*
X0162497Y0557880D01*
X0164116Y0556282D02*
X0020271Y0556282D01*
X0020271Y0554683D02*
X0165736Y0554683D01*
X0167355Y0553085D02*
X0020271Y0553085D01*
X0020271Y0551486D02*
X0168975Y0551486D01*
X0170595Y0549888D02*
X0020271Y0549888D01*
X0020271Y0548289D02*
X0172214Y0548289D01*
X0173834Y0546691D02*
X0020271Y0546691D01*
X0020271Y0545092D02*
X0175453Y0545092D01*
X0177073Y0543494D02*
X0020271Y0543494D01*
X0020271Y0513122D02*
X0477471Y0513122D01*
X0477471Y0511524D02*
X0020271Y0511524D01*
X0396497Y0543494D02*
X0477471Y0543494D01*
X0477471Y0545092D02*
X0398095Y0545092D01*
X0399694Y0546691D02*
X0477471Y0546691D01*
X0477471Y0548289D02*
X0401292Y0548289D01*
X0402891Y0549888D02*
X0477471Y0549888D01*
X0477471Y0551486D02*
X0404489Y0551486D01*
X0406088Y0553085D02*
X0477471Y0553085D01*
X0477471Y0554683D02*
X0407686Y0554683D01*
X0409285Y0556282D02*
X0477471Y0556282D01*
X0477471Y0557880D02*
X0410883Y0557880D01*
X0412482Y0559479D02*
X0477471Y0559479D01*
X0477471Y0561077D02*
X0414317Y0561077D01*
X0416179Y0562676D02*
X0477471Y0562676D01*
X0477471Y0564274D02*
X0417423Y0564274D01*
X0418342Y0565873D02*
X0477471Y0565873D01*
X0477471Y0567472D02*
X0418771Y0567472D01*
X0419076Y0569070D02*
X0477471Y0569070D01*
X0477471Y0570669D02*
X0419071Y0570669D01*
X0419059Y0572267D02*
X0477471Y0572267D01*
X0477471Y0573866D02*
X0419051Y0573866D01*
X0419043Y0575464D02*
X0477471Y0575464D01*
X0477471Y0577063D02*
X0419035Y0577063D01*
X0419027Y0578661D02*
X0477471Y0578661D01*
X0477471Y0580260D02*
X0419019Y0580260D01*
X0419010Y0581858D02*
X0477471Y0581858D01*
X0477471Y0583457D02*
X0419002Y0583457D01*
X0418994Y0585055D02*
X0477471Y0585055D01*
X0477471Y0586654D02*
X0418986Y0586654D01*
X0418978Y0588252D02*
X0477471Y0588252D01*
X0477471Y0589851D02*
X0418970Y0589851D01*
X0418962Y0591449D02*
X0477471Y0591449D01*
X0477471Y0593048D02*
X0418953Y0593048D01*
X0418945Y0594646D02*
X0477471Y0594646D01*
X0477471Y0596245D02*
X0418937Y0596245D01*
X0418929Y0597843D02*
X0477471Y0597843D01*
X0477471Y0599442D02*
X0418921Y0599442D01*
X0418913Y0601040D02*
X0477471Y0601040D01*
X0477471Y0602639D02*
X0418904Y0602639D01*
X0418896Y0604237D02*
X0477471Y0604237D01*
X0477471Y0605836D02*
X0418888Y0605836D01*
X0418880Y0607434D02*
X0477471Y0607434D01*
X0477471Y0609033D02*
X0418872Y0609033D01*
X0418864Y0610631D02*
X0477471Y0610631D01*
X0477471Y0612230D02*
X0418856Y0612230D01*
X0418847Y0613828D02*
X0477471Y0613828D01*
X0477471Y0615427D02*
X0418839Y0615427D01*
X0418831Y0617025D02*
X0477471Y0617025D01*
X0477471Y0618624D02*
X0418823Y0618624D01*
X0418815Y0620222D02*
X0477471Y0620222D01*
X0477471Y0621821D02*
X0418807Y0621821D01*
X0418798Y0623419D02*
X0477471Y0623419D01*
X0477471Y0625018D02*
X0418790Y0625018D01*
X0418782Y0626616D02*
X0477471Y0626616D01*
X0477471Y0628215D02*
X0418774Y0628215D01*
X0418766Y0629813D02*
X0477471Y0629813D01*
X0477471Y0631412D02*
X0418758Y0631412D01*
X0418750Y0633010D02*
X0477471Y0633010D01*
X0477471Y0634609D02*
X0418741Y0634609D01*
X0418733Y0636208D02*
X0477471Y0636208D01*
X0477471Y0637806D02*
X0418725Y0637806D01*
X0418717Y0639405D02*
X0477471Y0639405D01*
X0477471Y0641003D02*
X0418709Y0641003D01*
X0418701Y0642602D02*
X0477471Y0642602D01*
X0477471Y0644200D02*
X0418692Y0644200D01*
X0418684Y0645799D02*
X0477471Y0645799D01*
X0477471Y0647397D02*
X0418676Y0647397D01*
X0418668Y0648996D02*
X0477471Y0648996D01*
X0477471Y0650594D02*
X0418660Y0650594D01*
X0418652Y0652193D02*
X0477471Y0652193D01*
X0477471Y0653791D02*
X0418643Y0653791D01*
X0418635Y0655390D02*
X0477471Y0655390D01*
X0477471Y0656988D02*
X0418627Y0656988D01*
X0418619Y0658587D02*
X0477471Y0658587D01*
X0477471Y0660185D02*
X0418611Y0660185D01*
X0418603Y0661784D02*
X0477471Y0661784D01*
X0477471Y0663382D02*
X0418595Y0663382D01*
X0419984Y0664981D02*
X0477471Y0664981D01*
X0477471Y0666579D02*
X0421582Y0666579D01*
X0423181Y0668178D02*
X0477471Y0668178D01*
X0477471Y0669776D02*
X0424779Y0669776D01*
X0426378Y0671375D02*
X0477471Y0671375D01*
X0477471Y0672973D02*
X0427976Y0672973D01*
X0429575Y0674572D02*
X0477471Y0674572D01*
X0477471Y0676170D02*
X0431173Y0676170D01*
X0432772Y0677769D02*
X0477471Y0677769D01*
X0477471Y0679367D02*
X0434370Y0679367D01*
X0435969Y0680966D02*
X0477471Y0680966D01*
X0477471Y0682564D02*
X0437567Y0682564D01*
X0439166Y0684163D02*
X0477471Y0684163D01*
X0477471Y0685761D02*
X0440764Y0685761D01*
X0442363Y0687360D02*
X0477471Y0687360D01*
X0477471Y0688958D02*
X0443315Y0688958D01*
X0444026Y0690557D02*
X0477471Y0690557D01*
X0477471Y0692155D02*
X0444454Y0692155D01*
X0444571Y0693754D02*
X0477471Y0693754D01*
X0477471Y0695352D02*
X0444571Y0695352D01*
X0444158Y0696951D02*
X0477471Y0696951D01*
X0477471Y0698549D02*
X0443600Y0698549D01*
X0442677Y0700148D02*
X0477471Y0700148D01*
X0477471Y0701746D02*
X0441256Y0701746D01*
X0464285Y0541895D02*
X0477471Y0541895D01*
X0477471Y0540297D02*
X0467054Y0540297D01*
X0468795Y0538698D02*
X0477471Y0538698D01*
X0477471Y0537100D02*
X0470216Y0537100D01*
X0471139Y0535501D02*
X0477471Y0535501D01*
X0477471Y0533903D02*
X0471922Y0533903D01*
X0472350Y0532304D02*
X0477471Y0532304D01*
X0477471Y0530706D02*
X0472746Y0530706D01*
X0472746Y0529107D02*
X0477471Y0529107D01*
X0477471Y0527509D02*
X0472746Y0527509D01*
X0472407Y0525910D02*
X0477471Y0525910D01*
X0477471Y0524312D02*
X0471979Y0524312D01*
X0471263Y0522713D02*
X0477471Y0522713D01*
X0477471Y0521115D02*
X0470340Y0521115D01*
X0469009Y0519516D02*
X0477471Y0519516D01*
X0477471Y0517918D02*
X0467411Y0517918D01*
D27*
X0039871Y0440000D02*
X0039871Y0143000D01*
X0103871Y0143000D01*
X0143454Y0182583D01*
X0150044Y0182583D01*
X0169871Y0205079D02*
X0150044Y0224906D01*
X0130776Y0224906D01*
X0109871Y0225000D01*
X0096713Y0225000D01*
X0072871Y0225000D01*
X0088965Y0224906D01*
X0073871Y0226000D02*
X0073871Y0201000D01*
X0072871Y0225000D02*
X0072871Y0227000D01*
X0073871Y0226000D01*
X0072871Y0227000D02*
X0072871Y0412000D01*
X0072611Y0426740D01*
X0085280Y0438740D01*
X0085280Y0465315D02*
X0065186Y0465315D01*
X0039871Y0440000D01*
X0169871Y0205079D02*
X0169871Y0144000D01*
X0147501Y0121630D01*
X0104997Y0121630D01*
D28*
X0229280Y0611000D02*
X0229485Y0611205D01*
X0229485Y0667386D01*
X0229280Y0710591D01*
X0108871Y0831000D01*
X0108871Y0904000D01*
X0108871Y0914500D01*
X0091371Y0932000D01*
X0260371Y0933500D02*
X0260664Y0788004D01*
X0260461Y0786801D01*
X0260461Y0611000D01*
X0260666Y0786795D02*
X0260664Y0788004D01*
X0260371Y0933500D02*
X0282871Y0933500D01*
M02*
