G75*
%MOIN*%
%OFA0B0*%
%FSLAX25Y25*%
%IPPOS*%
%LPD*%
%AMOC8*
5,1,8,0,0,1.08239X$1,22.5*
%
%ADD10C,0.15750*%
%ADD11C,0.10800*%
%ADD12C,0.10839*%
%ADD13R,0.07296X0.07296*%
%ADD14C,0.07296*%
%ADD15C,0.10800*%
%ADD16OC8,0.10800*%
%ADD17OC8,0.06000*%
%ADD18R,0.13461X0.13461*%
%ADD19C,0.13461*%
%ADD20C,0.07887*%
%ADD21C,0.12650*%
%ADD22OC8,0.06800*%
%ADD23C,0.06800*%
%ADD24OC8,0.07850*%
%ADD25C,0.07400*%
D10*
X0040871Y0044000D03*
X0042871Y0470000D03*
X0038871Y0529000D03*
X0038871Y1104000D03*
X0458871Y1104000D03*
X0458871Y0529000D03*
X0474871Y0470000D03*
X0377871Y0131000D03*
D11*
X0101713Y0225000D02*
X0091713Y0225000D01*
X0082028Y0225000D02*
X0072028Y0225000D01*
X0067713Y0144000D02*
X0057713Y0144000D01*
X0048028Y0144000D02*
X0038028Y0144000D01*
D12*
X0229280Y0532980D02*
X0229280Y0543020D01*
X0244871Y0543020D02*
X0244871Y0532980D01*
X0260461Y0532980D02*
X0260461Y0543020D01*
X0260461Y0605980D02*
X0260461Y0616020D01*
X0244871Y0616020D02*
X0244871Y0605980D01*
X0229280Y0605980D02*
X0229280Y0616020D01*
X0433076Y0268020D02*
X0433076Y0257980D01*
X0448666Y0257980D02*
X0448666Y0268020D01*
X0453076Y0325980D02*
X0453076Y0336020D01*
X0468666Y0336020D02*
X0468666Y0325980D01*
X0466851Y0152386D02*
X0476891Y0152386D01*
X0476891Y0136795D02*
X0466851Y0136795D01*
X0466851Y0121205D02*
X0476891Y0121205D01*
X0476891Y0105614D02*
X0466851Y0105614D01*
X0427891Y0104614D02*
X0417851Y0104614D01*
X0417851Y0120205D02*
X0427891Y0120205D01*
X0427891Y0135795D02*
X0417851Y0135795D01*
X0417851Y0151386D02*
X0427891Y0151386D01*
D13*
X0347123Y0143283D03*
X0301619Y0182583D03*
D14*
X0301619Y0214079D03*
X0347123Y0109819D03*
X0150044Y0182583D03*
X0150044Y0224906D03*
X0104997Y0143283D03*
X0104997Y0121630D03*
X0085280Y0438740D03*
X0085280Y0465315D03*
D15*
X0382871Y0200000D03*
X0403871Y0055000D03*
X0468871Y0425000D03*
D16*
X0448871Y0425000D03*
X0382871Y0220000D03*
X0423871Y0055000D03*
D17*
X0465871Y0054000D03*
X0465871Y0074000D03*
X0433871Y0200000D03*
X0433871Y0220000D03*
X0448871Y0372000D03*
X0468871Y0372000D03*
X0073871Y0201000D03*
X0043871Y0201000D03*
D18*
X0388430Y0302913D03*
D19*
X0388430Y0324567D03*
D20*
X0353871Y0694000D03*
X0343871Y0814000D03*
X0433871Y0694000D03*
X0443871Y0814000D03*
X0167871Y0817000D03*
X0157871Y0697000D03*
X0077871Y0697000D03*
X0067871Y0817000D03*
D21*
X0198871Y1058075D02*
X0198871Y1069925D01*
X0420946Y1099000D02*
X0432796Y1099000D01*
D22*
X0443871Y0962000D03*
X0443871Y0936000D03*
X0443871Y0909000D03*
X0403871Y0909000D03*
X0403871Y0936000D03*
X0385871Y0934000D03*
X0403871Y0962000D03*
X0325871Y0934000D03*
X0168871Y0925000D03*
X0168871Y0904000D03*
X0168871Y0948000D03*
X0168871Y0969000D03*
X0128871Y0969000D03*
X0128871Y0948000D03*
X0128871Y0925000D03*
X0108871Y0904000D03*
X0070371Y0576000D03*
X0159371Y0576000D03*
X0319371Y0570000D03*
X0408371Y0570000D03*
D23*
X0282871Y0880500D02*
X0282871Y0886500D01*
X0272871Y0900500D02*
X0272871Y0906500D01*
X0282871Y0930500D02*
X0282871Y0936500D01*
X0094371Y0932000D02*
X0088371Y0932000D01*
X0064371Y0942000D02*
X0058371Y0942000D01*
X0044371Y0932000D02*
X0038371Y0932000D01*
D24*
X0060871Y1031000D03*
X0168871Y1031000D03*
X0335871Y1021000D03*
X0443871Y1021000D03*
D25*
X0375871Y1099000D03*
X0335871Y1099000D03*
X0198871Y1029000D03*
X0198871Y0989000D03*
M02*
