G75*
%MOIN*%
%OFA0B0*%
%FSLAX25Y25*%
%IPPOS*%
%LPD*%
%AMOC8*
5,1,8,0,0,1.08239X$1,22.5*
%
%ADD10C,0.00600*%
%ADD11C,0.00800*%
%ADD12C,0.00400*%
%ADD13C,0.00500*%
%ADD14C,0.00700*%
%ADD15R,0.02500X0.10000*%
%ADD16R,0.10000X0.02500*%
%ADD17C,0.01200*%
%ADD18C,0.00000*%
%ADD19C,0.01600*%
%ADD20R,0.07500X0.03500*%
%ADD21R,0.05500X0.03000*%
%ADD22R,0.03500X0.07500*%
%ADD23R,0.03000X0.05500*%
%ADD24R,0.10000X0.02000*%
%ADD25R,0.03000X0.07500*%
%ADD26R,0.02000X0.10000*%
%ADD27R,0.07500X0.03000*%
D10*
X0056505Y0132300D02*
X0055437Y0133368D01*
X0056505Y0132300D02*
X0057572Y0132300D01*
X0058640Y0133368D01*
X0058640Y0138705D01*
X0057572Y0138705D02*
X0059708Y0138705D01*
X0061883Y0137638D02*
X0062950Y0138705D01*
X0065086Y0138705D01*
X0066153Y0137638D01*
X0066153Y0136570D01*
X0061883Y0132300D01*
X0066153Y0132300D01*
X0065085Y0152300D02*
X0062950Y0152300D01*
X0061883Y0153368D01*
X0066153Y0157638D01*
X0066153Y0153368D01*
X0065085Y0152300D01*
X0061883Y0153368D02*
X0061883Y0157638D01*
X0062950Y0158705D01*
X0065085Y0158705D01*
X0066153Y0157638D01*
X0059708Y0157638D02*
X0058640Y0158705D01*
X0056505Y0158705D01*
X0055437Y0157638D01*
X0055437Y0153368D01*
X0059708Y0157638D01*
X0059708Y0153368D01*
X0058640Y0152300D01*
X0056505Y0152300D01*
X0055437Y0153368D01*
X0053262Y0152300D02*
X0048992Y0152300D01*
X0051127Y0152300D02*
X0051127Y0158705D01*
X0048992Y0156570D01*
X0046837Y0153368D02*
X0046837Y0152300D01*
X0045769Y0152300D01*
X0045769Y0153368D01*
X0046837Y0153368D01*
X0043594Y0152300D02*
X0039323Y0152300D01*
X0041459Y0152300D02*
X0041459Y0158705D01*
X0039323Y0156570D01*
X0037148Y0154435D02*
X0036081Y0155503D01*
X0032878Y0155503D01*
X0032878Y0153368D01*
X0033946Y0152300D01*
X0036081Y0152300D01*
X0037148Y0153368D01*
X0037148Y0154435D01*
X0035013Y0157638D02*
X0037148Y0158705D01*
X0035013Y0157638D02*
X0032878Y0155503D01*
X0030703Y0157638D02*
X0029635Y0158705D01*
X0027500Y0158705D01*
X0026432Y0157638D01*
X0026432Y0153368D01*
X0030703Y0157638D01*
X0030703Y0153368D01*
X0029635Y0152300D01*
X0027500Y0152300D01*
X0026432Y0153368D01*
X0022122Y0155503D02*
X0019987Y0155503D01*
X0017812Y0156570D02*
X0017812Y0157638D01*
X0016744Y0158705D01*
X0014609Y0158705D01*
X0013541Y0157638D01*
X0011366Y0158705D02*
X0011366Y0152300D01*
X0007096Y0158705D01*
X0007096Y0152300D01*
X0004934Y0152300D02*
X0002799Y0152300D01*
X0003867Y0152300D02*
X0003867Y0158705D01*
X0004934Y0158705D02*
X0002799Y0158705D01*
X0000624Y0157638D02*
X-0000444Y0158705D01*
X-0003646Y0158705D01*
X-0003646Y0152300D01*
X-0003646Y0154435D02*
X-0000444Y0154435D01*
X0000624Y0155503D01*
X0000624Y0157638D01*
X0013541Y0152300D02*
X0017812Y0156570D01*
X0019987Y0158705D02*
X0019987Y0152300D01*
X0017812Y0152300D02*
X0013541Y0152300D01*
X0019987Y0158705D02*
X0024257Y0158705D01*
X0048871Y0196000D02*
X0048871Y0201000D01*
X0048871Y0206000D01*
X0068871Y0206000D01*
X0068871Y0201000D01*
X0068871Y0196000D01*
X0048871Y0196000D01*
X0048871Y0201000D02*
X0046871Y0201000D01*
X0047541Y0233300D02*
X0051812Y0237570D01*
X0051812Y0238638D01*
X0050744Y0239705D01*
X0048609Y0239705D01*
X0047541Y0238638D01*
X0045366Y0239705D02*
X0045366Y0233300D01*
X0041096Y0239705D01*
X0041096Y0233300D01*
X0038934Y0233300D02*
X0036799Y0233300D01*
X0037867Y0233300D02*
X0037867Y0239705D01*
X0038934Y0239705D02*
X0036799Y0239705D01*
X0034624Y0238638D02*
X0034624Y0236503D01*
X0033556Y0235435D01*
X0030354Y0235435D01*
X0030354Y0233300D02*
X0030354Y0239705D01*
X0033556Y0239705D01*
X0034624Y0238638D01*
X0047541Y0233300D02*
X0051812Y0233300D01*
X0053987Y0233300D02*
X0053987Y0239705D01*
X0058257Y0239705D01*
X0060432Y0238638D02*
X0061500Y0239705D01*
X0063635Y0239705D01*
X0064703Y0238638D01*
X0060432Y0234368D01*
X0061500Y0233300D01*
X0063635Y0233300D01*
X0064703Y0234368D01*
X0064703Y0238638D01*
X0066878Y0236503D02*
X0070081Y0236503D01*
X0071148Y0235435D01*
X0071148Y0234368D01*
X0070081Y0233300D01*
X0067946Y0233300D01*
X0066878Y0234368D01*
X0066878Y0236503D01*
X0069013Y0238638D01*
X0071148Y0239705D01*
X0073323Y0237570D02*
X0075459Y0239705D01*
X0075459Y0233300D01*
X0077594Y0233300D02*
X0073323Y0233300D01*
X0079769Y0233300D02*
X0080837Y0233300D01*
X0080837Y0234368D01*
X0079769Y0234368D01*
X0079769Y0233300D01*
X0082992Y0233300D02*
X0087262Y0233300D01*
X0085127Y0233300D02*
X0085127Y0239705D01*
X0082992Y0237570D01*
X0089437Y0238638D02*
X0089437Y0234368D01*
X0093708Y0238638D01*
X0093708Y0234368D01*
X0092640Y0233300D01*
X0090505Y0233300D01*
X0089437Y0234368D01*
X0089437Y0238638D02*
X0090505Y0239705D01*
X0092640Y0239705D01*
X0093708Y0238638D01*
X0095883Y0238638D02*
X0096950Y0239705D01*
X0099085Y0239705D01*
X0100153Y0238638D01*
X0095883Y0234368D01*
X0096950Y0233300D01*
X0099085Y0233300D01*
X0100153Y0234368D01*
X0100153Y0238638D01*
X0095883Y0238638D02*
X0095883Y0234368D01*
X0098018Y0219705D02*
X0095883Y0217570D01*
X0098018Y0219705D02*
X0098018Y0213300D01*
X0095883Y0213300D02*
X0100153Y0213300D01*
X0092640Y0214368D02*
X0092640Y0219705D01*
X0091572Y0219705D02*
X0093708Y0219705D01*
X0092640Y0214368D02*
X0091572Y0213300D01*
X0090505Y0213300D01*
X0089437Y0214368D01*
X0070871Y0201000D02*
X0068871Y0201000D01*
X0060432Y0234368D02*
X0060432Y0238638D01*
X0056122Y0236503D02*
X0053987Y0236503D01*
X0064371Y0554000D02*
X0165371Y0554000D01*
X0165458Y0554002D01*
X0165545Y0554008D01*
X0165632Y0554017D01*
X0165718Y0554030D01*
X0165804Y0554047D01*
X0165889Y0554068D01*
X0165972Y0554093D01*
X0166055Y0554121D01*
X0166136Y0554152D01*
X0166216Y0554187D01*
X0166294Y0554226D01*
X0166371Y0554268D01*
X0166446Y0554313D01*
X0166518Y0554362D01*
X0166589Y0554413D01*
X0166657Y0554468D01*
X0166722Y0554525D01*
X0166785Y0554586D01*
X0166846Y0554649D01*
X0166903Y0554714D01*
X0166958Y0554782D01*
X0167009Y0554853D01*
X0167058Y0554925D01*
X0167103Y0555000D01*
X0167145Y0555077D01*
X0167184Y0555155D01*
X0167219Y0555235D01*
X0167250Y0555316D01*
X0167278Y0555399D01*
X0167303Y0555482D01*
X0167324Y0555567D01*
X0167341Y0555653D01*
X0167354Y0555739D01*
X0167363Y0555826D01*
X0167369Y0555913D01*
X0167371Y0556000D01*
X0167371Y0596000D01*
X0167369Y0596087D01*
X0167363Y0596174D01*
X0167354Y0596261D01*
X0167341Y0596347D01*
X0167324Y0596433D01*
X0167303Y0596518D01*
X0167278Y0596601D01*
X0167250Y0596684D01*
X0167219Y0596765D01*
X0167184Y0596845D01*
X0167145Y0596923D01*
X0167103Y0597000D01*
X0167058Y0597075D01*
X0167009Y0597147D01*
X0166958Y0597218D01*
X0166903Y0597286D01*
X0166846Y0597351D01*
X0166785Y0597414D01*
X0166722Y0597475D01*
X0166657Y0597532D01*
X0166589Y0597587D01*
X0166518Y0597638D01*
X0166446Y0597687D01*
X0166371Y0597732D01*
X0166294Y0597774D01*
X0166216Y0597813D01*
X0166136Y0597848D01*
X0166055Y0597879D01*
X0165972Y0597907D01*
X0165889Y0597932D01*
X0165804Y0597953D01*
X0165718Y0597970D01*
X0165632Y0597983D01*
X0165545Y0597992D01*
X0165458Y0597998D01*
X0165371Y0598000D01*
X0064371Y0598000D01*
X0064284Y0597998D01*
X0064197Y0597992D01*
X0064110Y0597983D01*
X0064024Y0597970D01*
X0063938Y0597953D01*
X0063853Y0597932D01*
X0063770Y0597907D01*
X0063687Y0597879D01*
X0063606Y0597848D01*
X0063526Y0597813D01*
X0063448Y0597774D01*
X0063371Y0597732D01*
X0063296Y0597687D01*
X0063224Y0597638D01*
X0063153Y0597587D01*
X0063085Y0597532D01*
X0063020Y0597475D01*
X0062957Y0597414D01*
X0062896Y0597351D01*
X0062839Y0597286D01*
X0062784Y0597218D01*
X0062733Y0597147D01*
X0062684Y0597075D01*
X0062639Y0597000D01*
X0062597Y0596923D01*
X0062558Y0596845D01*
X0062523Y0596765D01*
X0062492Y0596684D01*
X0062464Y0596601D01*
X0062439Y0596518D01*
X0062418Y0596433D01*
X0062401Y0596347D01*
X0062388Y0596261D01*
X0062379Y0596174D01*
X0062373Y0596087D01*
X0062371Y0596000D01*
X0062371Y0556000D01*
X0062373Y0555913D01*
X0062379Y0555826D01*
X0062388Y0555739D01*
X0062401Y0555653D01*
X0062418Y0555567D01*
X0062439Y0555482D01*
X0062464Y0555399D01*
X0062492Y0555316D01*
X0062523Y0555235D01*
X0062558Y0555155D01*
X0062597Y0555077D01*
X0062639Y0555000D01*
X0062684Y0554925D01*
X0062733Y0554853D01*
X0062784Y0554782D01*
X0062839Y0554714D01*
X0062896Y0554649D01*
X0062957Y0554586D01*
X0063020Y0554525D01*
X0063085Y0554468D01*
X0063153Y0554413D01*
X0063224Y0554362D01*
X0063296Y0554313D01*
X0063371Y0554268D01*
X0063448Y0554226D01*
X0063526Y0554187D01*
X0063606Y0554152D01*
X0063687Y0554121D01*
X0063770Y0554093D01*
X0063853Y0554068D01*
X0063938Y0554047D01*
X0064024Y0554030D01*
X0064110Y0554017D01*
X0064197Y0554008D01*
X0064284Y0554002D01*
X0064371Y0554000D01*
X0076871Y0576000D02*
X0141371Y0576000D01*
X0144871Y0576000D02*
X0152871Y0576000D01*
X0267371Y0871000D02*
X0287371Y0871000D01*
X0287371Y0948500D01*
X0267371Y0948500D01*
X0267371Y0871000D01*
X0272871Y0923500D02*
X0272871Y0931500D01*
X0274371Y0931500D01*
X0274871Y0931000D01*
X0270871Y0931000D01*
X0271371Y0931500D01*
X0272871Y0931500D01*
X0272871Y0933000D01*
X0272371Y0932500D01*
X0271871Y0932000D01*
X0271371Y0931500D01*
X0271871Y0932000D02*
X0273871Y0932000D01*
X0273371Y0932500D01*
X0272371Y0932500D01*
X0272871Y0933000D02*
X0273371Y0932500D01*
X0273871Y0932000D02*
X0274371Y0931500D01*
X0327871Y0983000D02*
X0327871Y1059000D01*
X0327873Y1059087D01*
X0327879Y1059174D01*
X0327888Y1059261D01*
X0327901Y1059347D01*
X0327918Y1059433D01*
X0327939Y1059518D01*
X0327964Y1059601D01*
X0327992Y1059684D01*
X0328023Y1059765D01*
X0328058Y1059845D01*
X0328097Y1059923D01*
X0328139Y1060000D01*
X0328184Y1060075D01*
X0328233Y1060147D01*
X0328284Y1060218D01*
X0328339Y1060286D01*
X0328396Y1060351D01*
X0328457Y1060414D01*
X0328520Y1060475D01*
X0328585Y1060532D01*
X0328653Y1060587D01*
X0328724Y1060638D01*
X0328796Y1060687D01*
X0328871Y1060732D01*
X0328948Y1060774D01*
X0329026Y1060813D01*
X0329106Y1060848D01*
X0329187Y1060879D01*
X0329270Y1060907D01*
X0329353Y1060932D01*
X0329438Y1060953D01*
X0329524Y1060970D01*
X0329610Y1060983D01*
X0329697Y1060992D01*
X0329784Y1060998D01*
X0329871Y1061000D01*
X0449871Y1061000D01*
X0449958Y1060998D01*
X0450045Y1060992D01*
X0450132Y1060983D01*
X0450218Y1060970D01*
X0450304Y1060953D01*
X0450389Y1060932D01*
X0450472Y1060907D01*
X0450555Y1060879D01*
X0450636Y1060848D01*
X0450716Y1060813D01*
X0450794Y1060774D01*
X0450871Y1060732D01*
X0450946Y1060687D01*
X0451018Y1060638D01*
X0451089Y1060587D01*
X0451157Y1060532D01*
X0451222Y1060475D01*
X0451285Y1060414D01*
X0451346Y1060351D01*
X0451403Y1060286D01*
X0451458Y1060218D01*
X0451509Y1060147D01*
X0451558Y1060075D01*
X0451603Y1060000D01*
X0451645Y1059923D01*
X0451684Y1059845D01*
X0451719Y1059765D01*
X0451750Y1059684D01*
X0451778Y1059601D01*
X0451803Y1059518D01*
X0451824Y1059433D01*
X0451841Y1059347D01*
X0451854Y1059261D01*
X0451863Y1059174D01*
X0451869Y1059087D01*
X0451871Y1059000D01*
X0451871Y0983000D01*
X0451869Y0982913D01*
X0451863Y0982826D01*
X0451854Y0982739D01*
X0451841Y0982653D01*
X0451824Y0982567D01*
X0451803Y0982482D01*
X0451778Y0982399D01*
X0451750Y0982316D01*
X0451719Y0982235D01*
X0451684Y0982155D01*
X0451645Y0982077D01*
X0451603Y0982000D01*
X0451558Y0981925D01*
X0451509Y0981853D01*
X0451458Y0981782D01*
X0451403Y0981714D01*
X0451346Y0981649D01*
X0451285Y0981586D01*
X0451222Y0981525D01*
X0451157Y0981468D01*
X0451089Y0981413D01*
X0451018Y0981362D01*
X0450946Y0981313D01*
X0450871Y0981268D01*
X0450794Y0981226D01*
X0450716Y0981187D01*
X0450636Y0981152D01*
X0450555Y0981121D01*
X0450472Y0981093D01*
X0450389Y0981068D01*
X0450304Y0981047D01*
X0450218Y0981030D01*
X0450132Y0981017D01*
X0450045Y0981008D01*
X0449958Y0981002D01*
X0449871Y0981000D01*
X0329871Y0981000D01*
X0329784Y0981002D01*
X0329697Y0981008D01*
X0329610Y0981017D01*
X0329524Y0981030D01*
X0329438Y0981047D01*
X0329353Y0981068D01*
X0329270Y0981093D01*
X0329187Y0981121D01*
X0329106Y0981152D01*
X0329026Y0981187D01*
X0328948Y0981226D01*
X0328871Y0981268D01*
X0328796Y0981313D01*
X0328724Y0981362D01*
X0328653Y0981413D01*
X0328585Y0981468D01*
X0328520Y0981525D01*
X0328457Y0981586D01*
X0328396Y0981649D01*
X0328339Y0981714D01*
X0328284Y0981782D01*
X0328233Y0981853D01*
X0328184Y0981925D01*
X0328139Y0982000D01*
X0328097Y0982077D01*
X0328058Y0982155D01*
X0328023Y0982235D01*
X0327992Y0982316D01*
X0327964Y0982399D01*
X0327939Y0982482D01*
X0327918Y0982567D01*
X0327901Y0982653D01*
X0327888Y0982739D01*
X0327879Y0982826D01*
X0327873Y0982913D01*
X0327871Y0983000D01*
X0331371Y0943000D02*
X0334871Y0943000D01*
X0335371Y0942500D01*
X0376371Y0942500D01*
X0376871Y0943000D01*
X0380371Y0943000D01*
X0380431Y0942998D01*
X0380492Y0942993D01*
X0380551Y0942984D01*
X0380610Y0942971D01*
X0380669Y0942955D01*
X0380726Y0942935D01*
X0380781Y0942912D01*
X0380836Y0942885D01*
X0380888Y0942856D01*
X0380939Y0942823D01*
X0380988Y0942787D01*
X0381034Y0942749D01*
X0381078Y0942707D01*
X0381120Y0942663D01*
X0381158Y0942617D01*
X0381194Y0942568D01*
X0381227Y0942517D01*
X0381256Y0942465D01*
X0381283Y0942410D01*
X0381306Y0942355D01*
X0381326Y0942298D01*
X0381342Y0942239D01*
X0381355Y0942180D01*
X0381364Y0942121D01*
X0381369Y0942060D01*
X0381371Y0942000D01*
X0381371Y0936500D01*
X0381371Y0931500D02*
X0381371Y0926000D01*
X0381369Y0925940D01*
X0381364Y0925879D01*
X0381355Y0925820D01*
X0381342Y0925761D01*
X0381326Y0925702D01*
X0381306Y0925645D01*
X0381283Y0925590D01*
X0381256Y0925535D01*
X0381227Y0925483D01*
X0381194Y0925432D01*
X0381158Y0925383D01*
X0381120Y0925337D01*
X0381078Y0925293D01*
X0381034Y0925251D01*
X0380988Y0925213D01*
X0380939Y0925177D01*
X0380888Y0925144D01*
X0380836Y0925115D01*
X0380781Y0925088D01*
X0380726Y0925065D01*
X0380669Y0925045D01*
X0380610Y0925029D01*
X0380551Y0925016D01*
X0380492Y0925007D01*
X0380431Y0925002D01*
X0380371Y0925000D01*
X0376871Y0925000D01*
X0376371Y0925500D01*
X0335371Y0925500D01*
X0334871Y0925000D01*
X0331371Y0925000D01*
X0331311Y0925002D01*
X0331250Y0925007D01*
X0331191Y0925016D01*
X0331132Y0925029D01*
X0331073Y0925045D01*
X0331016Y0925065D01*
X0330961Y0925088D01*
X0330906Y0925115D01*
X0330854Y0925144D01*
X0330803Y0925177D01*
X0330754Y0925213D01*
X0330708Y0925251D01*
X0330664Y0925293D01*
X0330622Y0925337D01*
X0330584Y0925383D01*
X0330548Y0925432D01*
X0330515Y0925483D01*
X0330486Y0925535D01*
X0330459Y0925590D01*
X0330436Y0925645D01*
X0330416Y0925702D01*
X0330400Y0925761D01*
X0330387Y0925820D01*
X0330378Y0925879D01*
X0330373Y0925940D01*
X0330371Y0926000D01*
X0330371Y0931500D01*
X0330371Y0936500D02*
X0330371Y0942000D01*
X0330373Y0942060D01*
X0330378Y0942121D01*
X0330387Y0942180D01*
X0330400Y0942239D01*
X0330416Y0942298D01*
X0330436Y0942355D01*
X0330459Y0942410D01*
X0330486Y0942465D01*
X0330515Y0942517D01*
X0330548Y0942568D01*
X0330584Y0942617D01*
X0330622Y0942663D01*
X0330664Y0942707D01*
X0330708Y0942749D01*
X0330754Y0942787D01*
X0330803Y0942823D01*
X0330854Y0942856D01*
X0330906Y0942885D01*
X0330961Y0942912D01*
X0331016Y0942935D01*
X0331073Y0942955D01*
X0331132Y0942971D01*
X0331191Y0942984D01*
X0331250Y0942993D01*
X0331311Y0942998D01*
X0331371Y0943000D01*
X0344371Y1021000D02*
X0359871Y1021000D01*
X0363371Y1021000D02*
X0435371Y1021000D01*
X0447871Y0970000D02*
X0399871Y0970000D01*
X0399784Y0969998D01*
X0399697Y0969992D01*
X0399610Y0969983D01*
X0399524Y0969970D01*
X0399438Y0969953D01*
X0399353Y0969932D01*
X0399270Y0969907D01*
X0399187Y0969879D01*
X0399106Y0969848D01*
X0399026Y0969813D01*
X0398948Y0969774D01*
X0398871Y0969732D01*
X0398796Y0969687D01*
X0398724Y0969638D01*
X0398653Y0969587D01*
X0398585Y0969532D01*
X0398520Y0969475D01*
X0398457Y0969414D01*
X0398396Y0969351D01*
X0398339Y0969286D01*
X0398284Y0969218D01*
X0398233Y0969147D01*
X0398184Y0969075D01*
X0398139Y0969000D01*
X0398097Y0968923D01*
X0398058Y0968845D01*
X0398023Y0968765D01*
X0397992Y0968684D01*
X0397964Y0968601D01*
X0397939Y0968518D01*
X0397918Y0968433D01*
X0397901Y0968347D01*
X0397888Y0968261D01*
X0397879Y0968174D01*
X0397873Y0968087D01*
X0397871Y0968000D01*
X0397871Y0956000D01*
X0397873Y0955913D01*
X0397879Y0955826D01*
X0397888Y0955739D01*
X0397901Y0955653D01*
X0397918Y0955567D01*
X0397939Y0955482D01*
X0397964Y0955399D01*
X0397992Y0955316D01*
X0398023Y0955235D01*
X0398058Y0955155D01*
X0398097Y0955077D01*
X0398139Y0955000D01*
X0398184Y0954925D01*
X0398233Y0954853D01*
X0398284Y0954782D01*
X0398339Y0954714D01*
X0398396Y0954649D01*
X0398457Y0954586D01*
X0398520Y0954525D01*
X0398585Y0954468D01*
X0398653Y0954413D01*
X0398724Y0954362D01*
X0398796Y0954313D01*
X0398871Y0954268D01*
X0398948Y0954226D01*
X0399026Y0954187D01*
X0399106Y0954152D01*
X0399187Y0954121D01*
X0399270Y0954093D01*
X0399353Y0954068D01*
X0399438Y0954047D01*
X0399524Y0954030D01*
X0399610Y0954017D01*
X0399697Y0954008D01*
X0399784Y0954002D01*
X0399871Y0954000D01*
X0447871Y0954000D01*
X0447958Y0954002D01*
X0448045Y0954008D01*
X0448132Y0954017D01*
X0448218Y0954030D01*
X0448304Y0954047D01*
X0448389Y0954068D01*
X0448472Y0954093D01*
X0448555Y0954121D01*
X0448636Y0954152D01*
X0448716Y0954187D01*
X0448794Y0954226D01*
X0448871Y0954268D01*
X0448946Y0954313D01*
X0449018Y0954362D01*
X0449089Y0954413D01*
X0449157Y0954468D01*
X0449222Y0954525D01*
X0449285Y0954586D01*
X0449346Y0954649D01*
X0449403Y0954714D01*
X0449458Y0954782D01*
X0449509Y0954853D01*
X0449558Y0954925D01*
X0449603Y0955000D01*
X0449645Y0955077D01*
X0449684Y0955155D01*
X0449719Y0955235D01*
X0449750Y0955316D01*
X0449778Y0955399D01*
X0449803Y0955482D01*
X0449824Y0955567D01*
X0449841Y0955653D01*
X0449854Y0955739D01*
X0449863Y0955826D01*
X0449869Y0955913D01*
X0449871Y0956000D01*
X0449871Y0968000D01*
X0449869Y0968087D01*
X0449863Y0968174D01*
X0449854Y0968261D01*
X0449841Y0968347D01*
X0449824Y0968433D01*
X0449803Y0968518D01*
X0449778Y0968601D01*
X0449750Y0968684D01*
X0449719Y0968765D01*
X0449684Y0968845D01*
X0449645Y0968923D01*
X0449603Y0969000D01*
X0449558Y0969075D01*
X0449509Y0969147D01*
X0449458Y0969218D01*
X0449403Y0969286D01*
X0449346Y0969351D01*
X0449285Y0969414D01*
X0449222Y0969475D01*
X0449157Y0969532D01*
X0449089Y0969587D01*
X0449018Y0969638D01*
X0448946Y0969687D01*
X0448871Y0969732D01*
X0448794Y0969774D01*
X0448716Y0969813D01*
X0448636Y0969848D01*
X0448555Y0969879D01*
X0448472Y0969907D01*
X0448389Y0969932D01*
X0448304Y0969953D01*
X0448218Y0969970D01*
X0448132Y0969983D01*
X0448045Y0969992D01*
X0447958Y0969998D01*
X0447871Y0970000D01*
X0438871Y0962000D02*
X0414871Y0962000D01*
X0411371Y0962000D02*
X0408871Y0962000D01*
X0399871Y0944000D02*
X0447871Y0944000D01*
X0447958Y0943998D01*
X0448045Y0943992D01*
X0448132Y0943983D01*
X0448218Y0943970D01*
X0448304Y0943953D01*
X0448389Y0943932D01*
X0448472Y0943907D01*
X0448555Y0943879D01*
X0448636Y0943848D01*
X0448716Y0943813D01*
X0448794Y0943774D01*
X0448871Y0943732D01*
X0448946Y0943687D01*
X0449018Y0943638D01*
X0449089Y0943587D01*
X0449157Y0943532D01*
X0449222Y0943475D01*
X0449285Y0943414D01*
X0449346Y0943351D01*
X0449403Y0943286D01*
X0449458Y0943218D01*
X0449509Y0943147D01*
X0449558Y0943075D01*
X0449603Y0943000D01*
X0449645Y0942923D01*
X0449684Y0942845D01*
X0449719Y0942765D01*
X0449750Y0942684D01*
X0449778Y0942601D01*
X0449803Y0942518D01*
X0449824Y0942433D01*
X0449841Y0942347D01*
X0449854Y0942261D01*
X0449863Y0942174D01*
X0449869Y0942087D01*
X0449871Y0942000D01*
X0449871Y0930000D01*
X0449869Y0929913D01*
X0449863Y0929826D01*
X0449854Y0929739D01*
X0449841Y0929653D01*
X0449824Y0929567D01*
X0449803Y0929482D01*
X0449778Y0929399D01*
X0449750Y0929316D01*
X0449719Y0929235D01*
X0449684Y0929155D01*
X0449645Y0929077D01*
X0449603Y0929000D01*
X0449558Y0928925D01*
X0449509Y0928853D01*
X0449458Y0928782D01*
X0449403Y0928714D01*
X0449346Y0928649D01*
X0449285Y0928586D01*
X0449222Y0928525D01*
X0449157Y0928468D01*
X0449089Y0928413D01*
X0449018Y0928362D01*
X0448946Y0928313D01*
X0448871Y0928268D01*
X0448794Y0928226D01*
X0448716Y0928187D01*
X0448636Y0928152D01*
X0448555Y0928121D01*
X0448472Y0928093D01*
X0448389Y0928068D01*
X0448304Y0928047D01*
X0448218Y0928030D01*
X0448132Y0928017D01*
X0448045Y0928008D01*
X0447958Y0928002D01*
X0447871Y0928000D01*
X0399871Y0928000D01*
X0399784Y0928002D01*
X0399697Y0928008D01*
X0399610Y0928017D01*
X0399524Y0928030D01*
X0399438Y0928047D01*
X0399353Y0928068D01*
X0399270Y0928093D01*
X0399187Y0928121D01*
X0399106Y0928152D01*
X0399026Y0928187D01*
X0398948Y0928226D01*
X0398871Y0928268D01*
X0398796Y0928313D01*
X0398724Y0928362D01*
X0398653Y0928413D01*
X0398585Y0928468D01*
X0398520Y0928525D01*
X0398457Y0928586D01*
X0398396Y0928649D01*
X0398339Y0928714D01*
X0398284Y0928782D01*
X0398233Y0928853D01*
X0398184Y0928925D01*
X0398139Y0929000D01*
X0398097Y0929077D01*
X0398058Y0929155D01*
X0398023Y0929235D01*
X0397992Y0929316D01*
X0397964Y0929399D01*
X0397939Y0929482D01*
X0397918Y0929567D01*
X0397901Y0929653D01*
X0397888Y0929739D01*
X0397879Y0929826D01*
X0397873Y0929913D01*
X0397871Y0930000D01*
X0397871Y0942000D01*
X0397873Y0942087D01*
X0397879Y0942174D01*
X0397888Y0942261D01*
X0397901Y0942347D01*
X0397918Y0942433D01*
X0397939Y0942518D01*
X0397964Y0942601D01*
X0397992Y0942684D01*
X0398023Y0942765D01*
X0398058Y0942845D01*
X0398097Y0942923D01*
X0398139Y0943000D01*
X0398184Y0943075D01*
X0398233Y0943147D01*
X0398284Y0943218D01*
X0398339Y0943286D01*
X0398396Y0943351D01*
X0398457Y0943414D01*
X0398520Y0943475D01*
X0398585Y0943532D01*
X0398653Y0943587D01*
X0398724Y0943638D01*
X0398796Y0943687D01*
X0398871Y0943732D01*
X0398948Y0943774D01*
X0399026Y0943813D01*
X0399106Y0943848D01*
X0399187Y0943879D01*
X0399270Y0943907D01*
X0399353Y0943932D01*
X0399438Y0943953D01*
X0399524Y0943970D01*
X0399610Y0943983D01*
X0399697Y0943992D01*
X0399784Y0943998D01*
X0399871Y0944000D01*
X0408871Y0936000D02*
X0411371Y0936000D01*
X0414871Y0936000D02*
X0438871Y0936000D01*
X0447871Y0917000D02*
X0399871Y0917000D01*
X0399784Y0916998D01*
X0399697Y0916992D01*
X0399610Y0916983D01*
X0399524Y0916970D01*
X0399438Y0916953D01*
X0399353Y0916932D01*
X0399270Y0916907D01*
X0399187Y0916879D01*
X0399106Y0916848D01*
X0399026Y0916813D01*
X0398948Y0916774D01*
X0398871Y0916732D01*
X0398796Y0916687D01*
X0398724Y0916638D01*
X0398653Y0916587D01*
X0398585Y0916532D01*
X0398520Y0916475D01*
X0398457Y0916414D01*
X0398396Y0916351D01*
X0398339Y0916286D01*
X0398284Y0916218D01*
X0398233Y0916147D01*
X0398184Y0916075D01*
X0398139Y0916000D01*
X0398097Y0915923D01*
X0398058Y0915845D01*
X0398023Y0915765D01*
X0397992Y0915684D01*
X0397964Y0915601D01*
X0397939Y0915518D01*
X0397918Y0915433D01*
X0397901Y0915347D01*
X0397888Y0915261D01*
X0397879Y0915174D01*
X0397873Y0915087D01*
X0397871Y0915000D01*
X0397871Y0903000D01*
X0397873Y0902913D01*
X0397879Y0902826D01*
X0397888Y0902739D01*
X0397901Y0902653D01*
X0397918Y0902567D01*
X0397939Y0902482D01*
X0397964Y0902399D01*
X0397992Y0902316D01*
X0398023Y0902235D01*
X0398058Y0902155D01*
X0398097Y0902077D01*
X0398139Y0902000D01*
X0398184Y0901925D01*
X0398233Y0901853D01*
X0398284Y0901782D01*
X0398339Y0901714D01*
X0398396Y0901649D01*
X0398457Y0901586D01*
X0398520Y0901525D01*
X0398585Y0901468D01*
X0398653Y0901413D01*
X0398724Y0901362D01*
X0398796Y0901313D01*
X0398871Y0901268D01*
X0398948Y0901226D01*
X0399026Y0901187D01*
X0399106Y0901152D01*
X0399187Y0901121D01*
X0399270Y0901093D01*
X0399353Y0901068D01*
X0399438Y0901047D01*
X0399524Y0901030D01*
X0399610Y0901017D01*
X0399697Y0901008D01*
X0399784Y0901002D01*
X0399871Y0901000D01*
X0447871Y0901000D01*
X0447958Y0901002D01*
X0448045Y0901008D01*
X0448132Y0901017D01*
X0448218Y0901030D01*
X0448304Y0901047D01*
X0448389Y0901068D01*
X0448472Y0901093D01*
X0448555Y0901121D01*
X0448636Y0901152D01*
X0448716Y0901187D01*
X0448794Y0901226D01*
X0448871Y0901268D01*
X0448946Y0901313D01*
X0449018Y0901362D01*
X0449089Y0901413D01*
X0449157Y0901468D01*
X0449222Y0901525D01*
X0449285Y0901586D01*
X0449346Y0901649D01*
X0449403Y0901714D01*
X0449458Y0901782D01*
X0449509Y0901853D01*
X0449558Y0901925D01*
X0449603Y0902000D01*
X0449645Y0902077D01*
X0449684Y0902155D01*
X0449719Y0902235D01*
X0449750Y0902316D01*
X0449778Y0902399D01*
X0449803Y0902482D01*
X0449824Y0902567D01*
X0449841Y0902653D01*
X0449854Y0902739D01*
X0449863Y0902826D01*
X0449869Y0902913D01*
X0449871Y0903000D01*
X0449871Y0915000D01*
X0449869Y0915087D01*
X0449863Y0915174D01*
X0449854Y0915261D01*
X0449841Y0915347D01*
X0449824Y0915433D01*
X0449803Y0915518D01*
X0449778Y0915601D01*
X0449750Y0915684D01*
X0449719Y0915765D01*
X0449684Y0915845D01*
X0449645Y0915923D01*
X0449603Y0916000D01*
X0449558Y0916075D01*
X0449509Y0916147D01*
X0449458Y0916218D01*
X0449403Y0916286D01*
X0449346Y0916351D01*
X0449285Y0916414D01*
X0449222Y0916475D01*
X0449157Y0916532D01*
X0449089Y0916587D01*
X0449018Y0916638D01*
X0448946Y0916687D01*
X0448871Y0916732D01*
X0448794Y0916774D01*
X0448716Y0916813D01*
X0448636Y0916848D01*
X0448555Y0916879D01*
X0448472Y0916907D01*
X0448389Y0916932D01*
X0448304Y0916953D01*
X0448218Y0916970D01*
X0448132Y0916983D01*
X0448045Y0916992D01*
X0447958Y0916998D01*
X0447871Y0917000D01*
X0438871Y0909000D02*
X0414871Y0909000D01*
X0411371Y0909000D02*
X0408871Y0909000D01*
X0363871Y1094000D02*
X0347871Y1094000D01*
X0347871Y1104000D01*
X0363871Y1104000D01*
X0363871Y1094000D01*
X0359871Y1096500D02*
X0355871Y1099000D01*
X0355871Y1096500D01*
X0355871Y1099000D02*
X0355871Y1101500D01*
X0355871Y1099000D02*
X0359871Y1101500D01*
X0359871Y1096500D01*
X0361871Y1099000D02*
X0355871Y1099000D01*
X0353371Y1099000D01*
X0203871Y1017000D02*
X0203871Y1001000D01*
X0193871Y1001000D01*
X0193871Y1017000D01*
X0203871Y1017000D01*
X0198871Y1011500D02*
X0198871Y1009000D01*
X0196371Y1009000D01*
X0198871Y1009000D02*
X0201371Y1009000D01*
X0198871Y1009000D02*
X0198871Y1003000D01*
X0201371Y1005000D02*
X0196371Y1005000D01*
X0198871Y1009000D01*
X0201371Y1005000D01*
X0176871Y0993000D02*
X0176871Y1069000D01*
X0176869Y1069087D01*
X0176863Y1069174D01*
X0176854Y1069261D01*
X0176841Y1069347D01*
X0176824Y1069433D01*
X0176803Y1069518D01*
X0176778Y1069601D01*
X0176750Y1069684D01*
X0176719Y1069765D01*
X0176684Y1069845D01*
X0176645Y1069923D01*
X0176603Y1070000D01*
X0176558Y1070075D01*
X0176509Y1070147D01*
X0176458Y1070218D01*
X0176403Y1070286D01*
X0176346Y1070351D01*
X0176285Y1070414D01*
X0176222Y1070475D01*
X0176157Y1070532D01*
X0176089Y1070587D01*
X0176018Y1070638D01*
X0175946Y1070687D01*
X0175871Y1070732D01*
X0175794Y1070774D01*
X0175716Y1070813D01*
X0175636Y1070848D01*
X0175555Y1070879D01*
X0175472Y1070907D01*
X0175389Y1070932D01*
X0175304Y1070953D01*
X0175218Y1070970D01*
X0175132Y1070983D01*
X0175045Y1070992D01*
X0174958Y1070998D01*
X0174871Y1071000D01*
X0054871Y1071000D01*
X0054784Y1070998D01*
X0054697Y1070992D01*
X0054610Y1070983D01*
X0054524Y1070970D01*
X0054438Y1070953D01*
X0054353Y1070932D01*
X0054270Y1070907D01*
X0054187Y1070879D01*
X0054106Y1070848D01*
X0054026Y1070813D01*
X0053948Y1070774D01*
X0053871Y1070732D01*
X0053796Y1070687D01*
X0053724Y1070638D01*
X0053653Y1070587D01*
X0053585Y1070532D01*
X0053520Y1070475D01*
X0053457Y1070414D01*
X0053396Y1070351D01*
X0053339Y1070286D01*
X0053284Y1070218D01*
X0053233Y1070147D01*
X0053184Y1070075D01*
X0053139Y1070000D01*
X0053097Y1069923D01*
X0053058Y1069845D01*
X0053023Y1069765D01*
X0052992Y1069684D01*
X0052964Y1069601D01*
X0052939Y1069518D01*
X0052918Y1069433D01*
X0052901Y1069347D01*
X0052888Y1069261D01*
X0052879Y1069174D01*
X0052873Y1069087D01*
X0052871Y1069000D01*
X0052871Y0993000D01*
X0052873Y0992913D01*
X0052879Y0992826D01*
X0052888Y0992739D01*
X0052901Y0992653D01*
X0052918Y0992567D01*
X0052939Y0992482D01*
X0052964Y0992399D01*
X0052992Y0992316D01*
X0053023Y0992235D01*
X0053058Y0992155D01*
X0053097Y0992077D01*
X0053139Y0992000D01*
X0053184Y0991925D01*
X0053233Y0991853D01*
X0053284Y0991782D01*
X0053339Y0991714D01*
X0053396Y0991649D01*
X0053457Y0991586D01*
X0053520Y0991525D01*
X0053585Y0991468D01*
X0053653Y0991413D01*
X0053724Y0991362D01*
X0053796Y0991313D01*
X0053871Y0991268D01*
X0053948Y0991226D01*
X0054026Y0991187D01*
X0054106Y0991152D01*
X0054187Y0991121D01*
X0054270Y0991093D01*
X0054353Y0991068D01*
X0054438Y0991047D01*
X0054524Y0991030D01*
X0054610Y0991017D01*
X0054697Y0991008D01*
X0054784Y0991002D01*
X0054871Y0991000D01*
X0174871Y0991000D01*
X0174958Y0991002D01*
X0175045Y0991008D01*
X0175132Y0991017D01*
X0175218Y0991030D01*
X0175304Y0991047D01*
X0175389Y0991068D01*
X0175472Y0991093D01*
X0175555Y0991121D01*
X0175636Y0991152D01*
X0175716Y0991187D01*
X0175794Y0991226D01*
X0175871Y0991268D01*
X0175946Y0991313D01*
X0176018Y0991362D01*
X0176089Y0991413D01*
X0176157Y0991468D01*
X0176222Y0991525D01*
X0176285Y0991586D01*
X0176346Y0991649D01*
X0176403Y0991714D01*
X0176458Y0991782D01*
X0176509Y0991853D01*
X0176558Y0991925D01*
X0176603Y0992000D01*
X0176645Y0992077D01*
X0176684Y0992155D01*
X0176719Y0992235D01*
X0176750Y0992316D01*
X0176778Y0992399D01*
X0176803Y0992482D01*
X0176824Y0992567D01*
X0176841Y0992653D01*
X0176854Y0992739D01*
X0176863Y0992826D01*
X0176869Y0992913D01*
X0176871Y0993000D01*
X0172871Y0977000D02*
X0124871Y0977000D01*
X0124784Y0976998D01*
X0124697Y0976992D01*
X0124610Y0976983D01*
X0124524Y0976970D01*
X0124438Y0976953D01*
X0124353Y0976932D01*
X0124270Y0976907D01*
X0124187Y0976879D01*
X0124106Y0976848D01*
X0124026Y0976813D01*
X0123948Y0976774D01*
X0123871Y0976732D01*
X0123796Y0976687D01*
X0123724Y0976638D01*
X0123653Y0976587D01*
X0123585Y0976532D01*
X0123520Y0976475D01*
X0123457Y0976414D01*
X0123396Y0976351D01*
X0123339Y0976286D01*
X0123284Y0976218D01*
X0123233Y0976147D01*
X0123184Y0976075D01*
X0123139Y0976000D01*
X0123097Y0975923D01*
X0123058Y0975845D01*
X0123023Y0975765D01*
X0122992Y0975684D01*
X0122964Y0975601D01*
X0122939Y0975518D01*
X0122918Y0975433D01*
X0122901Y0975347D01*
X0122888Y0975261D01*
X0122879Y0975174D01*
X0122873Y0975087D01*
X0122871Y0975000D01*
X0122871Y0963000D01*
X0122873Y0962913D01*
X0122879Y0962826D01*
X0122888Y0962739D01*
X0122901Y0962653D01*
X0122918Y0962567D01*
X0122939Y0962482D01*
X0122964Y0962399D01*
X0122992Y0962316D01*
X0123023Y0962235D01*
X0123058Y0962155D01*
X0123097Y0962077D01*
X0123139Y0962000D01*
X0123184Y0961925D01*
X0123233Y0961853D01*
X0123284Y0961782D01*
X0123339Y0961714D01*
X0123396Y0961649D01*
X0123457Y0961586D01*
X0123520Y0961525D01*
X0123585Y0961468D01*
X0123653Y0961413D01*
X0123724Y0961362D01*
X0123796Y0961313D01*
X0123871Y0961268D01*
X0123948Y0961226D01*
X0124026Y0961187D01*
X0124106Y0961152D01*
X0124187Y0961121D01*
X0124270Y0961093D01*
X0124353Y0961068D01*
X0124438Y0961047D01*
X0124524Y0961030D01*
X0124610Y0961017D01*
X0124697Y0961008D01*
X0124784Y0961002D01*
X0124871Y0961000D01*
X0172871Y0961000D01*
X0172958Y0961002D01*
X0173045Y0961008D01*
X0173132Y0961017D01*
X0173218Y0961030D01*
X0173304Y0961047D01*
X0173389Y0961068D01*
X0173472Y0961093D01*
X0173555Y0961121D01*
X0173636Y0961152D01*
X0173716Y0961187D01*
X0173794Y0961226D01*
X0173871Y0961268D01*
X0173946Y0961313D01*
X0174018Y0961362D01*
X0174089Y0961413D01*
X0174157Y0961468D01*
X0174222Y0961525D01*
X0174285Y0961586D01*
X0174346Y0961649D01*
X0174403Y0961714D01*
X0174458Y0961782D01*
X0174509Y0961853D01*
X0174558Y0961925D01*
X0174603Y0962000D01*
X0174645Y0962077D01*
X0174684Y0962155D01*
X0174719Y0962235D01*
X0174750Y0962316D01*
X0174778Y0962399D01*
X0174803Y0962482D01*
X0174824Y0962567D01*
X0174841Y0962653D01*
X0174854Y0962739D01*
X0174863Y0962826D01*
X0174869Y0962913D01*
X0174871Y0963000D01*
X0174871Y0975000D01*
X0174869Y0975087D01*
X0174863Y0975174D01*
X0174854Y0975261D01*
X0174841Y0975347D01*
X0174824Y0975433D01*
X0174803Y0975518D01*
X0174778Y0975601D01*
X0174750Y0975684D01*
X0174719Y0975765D01*
X0174684Y0975845D01*
X0174645Y0975923D01*
X0174603Y0976000D01*
X0174558Y0976075D01*
X0174509Y0976147D01*
X0174458Y0976218D01*
X0174403Y0976286D01*
X0174346Y0976351D01*
X0174285Y0976414D01*
X0174222Y0976475D01*
X0174157Y0976532D01*
X0174089Y0976587D01*
X0174018Y0976638D01*
X0173946Y0976687D01*
X0173871Y0976732D01*
X0173794Y0976774D01*
X0173716Y0976813D01*
X0173636Y0976848D01*
X0173555Y0976879D01*
X0173472Y0976907D01*
X0173389Y0976932D01*
X0173304Y0976953D01*
X0173218Y0976970D01*
X0173132Y0976983D01*
X0173045Y0976992D01*
X0172958Y0976998D01*
X0172871Y0977000D01*
X0163871Y0969000D02*
X0161371Y0969000D01*
X0157871Y0969000D02*
X0133871Y0969000D01*
X0124871Y0956000D02*
X0172871Y0956000D01*
X0172958Y0955998D01*
X0173045Y0955992D01*
X0173132Y0955983D01*
X0173218Y0955970D01*
X0173304Y0955953D01*
X0173389Y0955932D01*
X0173472Y0955907D01*
X0173555Y0955879D01*
X0173636Y0955848D01*
X0173716Y0955813D01*
X0173794Y0955774D01*
X0173871Y0955732D01*
X0173946Y0955687D01*
X0174018Y0955638D01*
X0174089Y0955587D01*
X0174157Y0955532D01*
X0174222Y0955475D01*
X0174285Y0955414D01*
X0174346Y0955351D01*
X0174403Y0955286D01*
X0174458Y0955218D01*
X0174509Y0955147D01*
X0174558Y0955075D01*
X0174603Y0955000D01*
X0174645Y0954923D01*
X0174684Y0954845D01*
X0174719Y0954765D01*
X0174750Y0954684D01*
X0174778Y0954601D01*
X0174803Y0954518D01*
X0174824Y0954433D01*
X0174841Y0954347D01*
X0174854Y0954261D01*
X0174863Y0954174D01*
X0174869Y0954087D01*
X0174871Y0954000D01*
X0174871Y0942000D01*
X0174869Y0941913D01*
X0174863Y0941826D01*
X0174854Y0941739D01*
X0174841Y0941653D01*
X0174824Y0941567D01*
X0174803Y0941482D01*
X0174778Y0941399D01*
X0174750Y0941316D01*
X0174719Y0941235D01*
X0174684Y0941155D01*
X0174645Y0941077D01*
X0174603Y0941000D01*
X0174558Y0940925D01*
X0174509Y0940853D01*
X0174458Y0940782D01*
X0174403Y0940714D01*
X0174346Y0940649D01*
X0174285Y0940586D01*
X0174222Y0940525D01*
X0174157Y0940468D01*
X0174089Y0940413D01*
X0174018Y0940362D01*
X0173946Y0940313D01*
X0173871Y0940268D01*
X0173794Y0940226D01*
X0173716Y0940187D01*
X0173636Y0940152D01*
X0173555Y0940121D01*
X0173472Y0940093D01*
X0173389Y0940068D01*
X0173304Y0940047D01*
X0173218Y0940030D01*
X0173132Y0940017D01*
X0173045Y0940008D01*
X0172958Y0940002D01*
X0172871Y0940000D01*
X0124871Y0940000D01*
X0124784Y0940002D01*
X0124697Y0940008D01*
X0124610Y0940017D01*
X0124524Y0940030D01*
X0124438Y0940047D01*
X0124353Y0940068D01*
X0124270Y0940093D01*
X0124187Y0940121D01*
X0124106Y0940152D01*
X0124026Y0940187D01*
X0123948Y0940226D01*
X0123871Y0940268D01*
X0123796Y0940313D01*
X0123724Y0940362D01*
X0123653Y0940413D01*
X0123585Y0940468D01*
X0123520Y0940525D01*
X0123457Y0940586D01*
X0123396Y0940649D01*
X0123339Y0940714D01*
X0123284Y0940782D01*
X0123233Y0940853D01*
X0123184Y0940925D01*
X0123139Y0941000D01*
X0123097Y0941077D01*
X0123058Y0941155D01*
X0123023Y0941235D01*
X0122992Y0941316D01*
X0122964Y0941399D01*
X0122939Y0941482D01*
X0122918Y0941567D01*
X0122901Y0941653D01*
X0122888Y0941739D01*
X0122879Y0941826D01*
X0122873Y0941913D01*
X0122871Y0942000D01*
X0122871Y0954000D01*
X0122873Y0954087D01*
X0122879Y0954174D01*
X0122888Y0954261D01*
X0122901Y0954347D01*
X0122918Y0954433D01*
X0122939Y0954518D01*
X0122964Y0954601D01*
X0122992Y0954684D01*
X0123023Y0954765D01*
X0123058Y0954845D01*
X0123097Y0954923D01*
X0123139Y0955000D01*
X0123184Y0955075D01*
X0123233Y0955147D01*
X0123284Y0955218D01*
X0123339Y0955286D01*
X0123396Y0955351D01*
X0123457Y0955414D01*
X0123520Y0955475D01*
X0123585Y0955532D01*
X0123653Y0955587D01*
X0123724Y0955638D01*
X0123796Y0955687D01*
X0123871Y0955732D01*
X0123948Y0955774D01*
X0124026Y0955813D01*
X0124106Y0955848D01*
X0124187Y0955879D01*
X0124270Y0955907D01*
X0124353Y0955932D01*
X0124438Y0955953D01*
X0124524Y0955970D01*
X0124610Y0955983D01*
X0124697Y0955992D01*
X0124784Y0955998D01*
X0124871Y0956000D01*
X0133871Y0948000D02*
X0157871Y0948000D01*
X0161371Y0948000D02*
X0163871Y0948000D01*
X0172871Y0933000D02*
X0124871Y0933000D01*
X0124784Y0932998D01*
X0124697Y0932992D01*
X0124610Y0932983D01*
X0124524Y0932970D01*
X0124438Y0932953D01*
X0124353Y0932932D01*
X0124270Y0932907D01*
X0124187Y0932879D01*
X0124106Y0932848D01*
X0124026Y0932813D01*
X0123948Y0932774D01*
X0123871Y0932732D01*
X0123796Y0932687D01*
X0123724Y0932638D01*
X0123653Y0932587D01*
X0123585Y0932532D01*
X0123520Y0932475D01*
X0123457Y0932414D01*
X0123396Y0932351D01*
X0123339Y0932286D01*
X0123284Y0932218D01*
X0123233Y0932147D01*
X0123184Y0932075D01*
X0123139Y0932000D01*
X0123097Y0931923D01*
X0123058Y0931845D01*
X0123023Y0931765D01*
X0122992Y0931684D01*
X0122964Y0931601D01*
X0122939Y0931518D01*
X0122918Y0931433D01*
X0122901Y0931347D01*
X0122888Y0931261D01*
X0122879Y0931174D01*
X0122873Y0931087D01*
X0122871Y0931000D01*
X0122871Y0919000D01*
X0122873Y0918913D01*
X0122879Y0918826D01*
X0122888Y0918739D01*
X0122901Y0918653D01*
X0122918Y0918567D01*
X0122939Y0918482D01*
X0122964Y0918399D01*
X0122992Y0918316D01*
X0123023Y0918235D01*
X0123058Y0918155D01*
X0123097Y0918077D01*
X0123139Y0918000D01*
X0123184Y0917925D01*
X0123233Y0917853D01*
X0123284Y0917782D01*
X0123339Y0917714D01*
X0123396Y0917649D01*
X0123457Y0917586D01*
X0123520Y0917525D01*
X0123585Y0917468D01*
X0123653Y0917413D01*
X0123724Y0917362D01*
X0123796Y0917313D01*
X0123871Y0917268D01*
X0123948Y0917226D01*
X0124026Y0917187D01*
X0124106Y0917152D01*
X0124187Y0917121D01*
X0124270Y0917093D01*
X0124353Y0917068D01*
X0124438Y0917047D01*
X0124524Y0917030D01*
X0124610Y0917017D01*
X0124697Y0917008D01*
X0124784Y0917002D01*
X0124871Y0917000D01*
X0172871Y0917000D01*
X0172958Y0917002D01*
X0173045Y0917008D01*
X0173132Y0917017D01*
X0173218Y0917030D01*
X0173304Y0917047D01*
X0173389Y0917068D01*
X0173472Y0917093D01*
X0173555Y0917121D01*
X0173636Y0917152D01*
X0173716Y0917187D01*
X0173794Y0917226D01*
X0173871Y0917268D01*
X0173946Y0917313D01*
X0174018Y0917362D01*
X0174089Y0917413D01*
X0174157Y0917468D01*
X0174222Y0917525D01*
X0174285Y0917586D01*
X0174346Y0917649D01*
X0174403Y0917714D01*
X0174458Y0917782D01*
X0174509Y0917853D01*
X0174558Y0917925D01*
X0174603Y0918000D01*
X0174645Y0918077D01*
X0174684Y0918155D01*
X0174719Y0918235D01*
X0174750Y0918316D01*
X0174778Y0918399D01*
X0174803Y0918482D01*
X0174824Y0918567D01*
X0174841Y0918653D01*
X0174854Y0918739D01*
X0174863Y0918826D01*
X0174869Y0918913D01*
X0174871Y0919000D01*
X0174871Y0931000D01*
X0174869Y0931087D01*
X0174863Y0931174D01*
X0174854Y0931261D01*
X0174841Y0931347D01*
X0174824Y0931433D01*
X0174803Y0931518D01*
X0174778Y0931601D01*
X0174750Y0931684D01*
X0174719Y0931765D01*
X0174684Y0931845D01*
X0174645Y0931923D01*
X0174603Y0932000D01*
X0174558Y0932075D01*
X0174509Y0932147D01*
X0174458Y0932218D01*
X0174403Y0932286D01*
X0174346Y0932351D01*
X0174285Y0932414D01*
X0174222Y0932475D01*
X0174157Y0932532D01*
X0174089Y0932587D01*
X0174018Y0932638D01*
X0173946Y0932687D01*
X0173871Y0932732D01*
X0173794Y0932774D01*
X0173716Y0932813D01*
X0173636Y0932848D01*
X0173555Y0932879D01*
X0173472Y0932907D01*
X0173389Y0932932D01*
X0173304Y0932953D01*
X0173218Y0932970D01*
X0173132Y0932983D01*
X0173045Y0932992D01*
X0172958Y0932998D01*
X0172871Y0933000D01*
X0163871Y0925000D02*
X0161371Y0925000D01*
X0157871Y0925000D02*
X0133871Y0925000D01*
X0118371Y0912500D02*
X0159371Y0912500D01*
X0159871Y0913000D01*
X0163371Y0913000D01*
X0163431Y0912998D01*
X0163492Y0912993D01*
X0163551Y0912984D01*
X0163610Y0912971D01*
X0163669Y0912955D01*
X0163726Y0912935D01*
X0163781Y0912912D01*
X0163836Y0912885D01*
X0163888Y0912856D01*
X0163939Y0912823D01*
X0163988Y0912787D01*
X0164034Y0912749D01*
X0164078Y0912707D01*
X0164120Y0912663D01*
X0164158Y0912617D01*
X0164194Y0912568D01*
X0164227Y0912517D01*
X0164256Y0912465D01*
X0164283Y0912410D01*
X0164306Y0912355D01*
X0164326Y0912298D01*
X0164342Y0912239D01*
X0164355Y0912180D01*
X0164364Y0912121D01*
X0164369Y0912060D01*
X0164371Y0912000D01*
X0164371Y0906500D01*
X0164371Y0901500D02*
X0164371Y0896000D01*
X0164369Y0895940D01*
X0164364Y0895879D01*
X0164355Y0895820D01*
X0164342Y0895761D01*
X0164326Y0895702D01*
X0164306Y0895645D01*
X0164283Y0895590D01*
X0164256Y0895535D01*
X0164227Y0895483D01*
X0164194Y0895432D01*
X0164158Y0895383D01*
X0164120Y0895337D01*
X0164078Y0895293D01*
X0164034Y0895251D01*
X0163988Y0895213D01*
X0163939Y0895177D01*
X0163888Y0895144D01*
X0163836Y0895115D01*
X0163781Y0895088D01*
X0163726Y0895065D01*
X0163669Y0895045D01*
X0163610Y0895029D01*
X0163551Y0895016D01*
X0163492Y0895007D01*
X0163431Y0895002D01*
X0163371Y0895000D01*
X0159871Y0895000D01*
X0159371Y0895500D01*
X0118371Y0895500D01*
X0117871Y0895000D01*
X0114371Y0895000D01*
X0114311Y0895002D01*
X0114250Y0895007D01*
X0114191Y0895016D01*
X0114132Y0895029D01*
X0114073Y0895045D01*
X0114016Y0895065D01*
X0113961Y0895088D01*
X0113906Y0895115D01*
X0113854Y0895144D01*
X0113803Y0895177D01*
X0113754Y0895213D01*
X0113708Y0895251D01*
X0113664Y0895293D01*
X0113622Y0895337D01*
X0113584Y0895383D01*
X0113548Y0895432D01*
X0113515Y0895483D01*
X0113486Y0895535D01*
X0113459Y0895590D01*
X0113436Y0895645D01*
X0113416Y0895702D01*
X0113400Y0895761D01*
X0113387Y0895820D01*
X0113378Y0895879D01*
X0113373Y0895940D01*
X0113371Y0896000D01*
X0113371Y0901500D01*
X0113371Y0906500D02*
X0113371Y0912000D01*
X0113373Y0912060D01*
X0113378Y0912121D01*
X0113387Y0912180D01*
X0113400Y0912239D01*
X0113416Y0912298D01*
X0113436Y0912355D01*
X0113459Y0912410D01*
X0113486Y0912465D01*
X0113515Y0912517D01*
X0113548Y0912568D01*
X0113584Y0912617D01*
X0113622Y0912663D01*
X0113664Y0912707D01*
X0113708Y0912749D01*
X0113754Y0912787D01*
X0113803Y0912823D01*
X0113854Y0912856D01*
X0113906Y0912885D01*
X0113961Y0912912D01*
X0114016Y0912935D01*
X0114073Y0912955D01*
X0114132Y0912971D01*
X0114191Y0912984D01*
X0114250Y0912993D01*
X0114311Y0912998D01*
X0114371Y0913000D01*
X0117871Y0913000D01*
X0118371Y0912500D01*
X0106371Y0927500D02*
X0106371Y0947500D01*
X0028871Y0947500D01*
X0028871Y0927500D01*
X0106371Y0927500D01*
X0090871Y0942000D02*
X0090371Y0942500D01*
X0089871Y0943000D01*
X0089371Y0943500D01*
X0088871Y0944000D01*
X0088871Y0940000D01*
X0089371Y0940500D01*
X0089371Y0942000D01*
X0081371Y0942000D01*
X0089371Y0942000D02*
X0089371Y0943500D01*
X0089871Y0943000D02*
X0089871Y0941000D01*
X0090371Y0941500D01*
X0090371Y0942500D01*
X0090871Y0942000D02*
X0090371Y0941500D01*
X0090871Y0942000D02*
X0089371Y0942000D01*
X0089871Y0941000D02*
X0089371Y0940500D01*
X0069371Y1031000D02*
X0141371Y1031000D01*
X0144871Y1031000D02*
X0160371Y1031000D01*
X0313371Y0592000D02*
X0414371Y0592000D01*
X0414458Y0591998D01*
X0414545Y0591992D01*
X0414632Y0591983D01*
X0414718Y0591970D01*
X0414804Y0591953D01*
X0414889Y0591932D01*
X0414972Y0591907D01*
X0415055Y0591879D01*
X0415136Y0591848D01*
X0415216Y0591813D01*
X0415294Y0591774D01*
X0415371Y0591732D01*
X0415446Y0591687D01*
X0415518Y0591638D01*
X0415589Y0591587D01*
X0415657Y0591532D01*
X0415722Y0591475D01*
X0415785Y0591414D01*
X0415846Y0591351D01*
X0415903Y0591286D01*
X0415958Y0591218D01*
X0416009Y0591147D01*
X0416058Y0591075D01*
X0416103Y0591000D01*
X0416145Y0590923D01*
X0416184Y0590845D01*
X0416219Y0590765D01*
X0416250Y0590684D01*
X0416278Y0590601D01*
X0416303Y0590518D01*
X0416324Y0590433D01*
X0416341Y0590347D01*
X0416354Y0590261D01*
X0416363Y0590174D01*
X0416369Y0590087D01*
X0416371Y0590000D01*
X0416371Y0550000D01*
X0416369Y0549913D01*
X0416363Y0549826D01*
X0416354Y0549739D01*
X0416341Y0549653D01*
X0416324Y0549567D01*
X0416303Y0549482D01*
X0416278Y0549399D01*
X0416250Y0549316D01*
X0416219Y0549235D01*
X0416184Y0549155D01*
X0416145Y0549077D01*
X0416103Y0549000D01*
X0416058Y0548925D01*
X0416009Y0548853D01*
X0415958Y0548782D01*
X0415903Y0548714D01*
X0415846Y0548649D01*
X0415785Y0548586D01*
X0415722Y0548525D01*
X0415657Y0548468D01*
X0415589Y0548413D01*
X0415518Y0548362D01*
X0415446Y0548313D01*
X0415371Y0548268D01*
X0415294Y0548226D01*
X0415216Y0548187D01*
X0415136Y0548152D01*
X0415055Y0548121D01*
X0414972Y0548093D01*
X0414889Y0548068D01*
X0414804Y0548047D01*
X0414718Y0548030D01*
X0414632Y0548017D01*
X0414545Y0548008D01*
X0414458Y0548002D01*
X0414371Y0548000D01*
X0313371Y0548000D01*
X0313284Y0548002D01*
X0313197Y0548008D01*
X0313110Y0548017D01*
X0313024Y0548030D01*
X0312938Y0548047D01*
X0312853Y0548068D01*
X0312770Y0548093D01*
X0312687Y0548121D01*
X0312606Y0548152D01*
X0312526Y0548187D01*
X0312448Y0548226D01*
X0312371Y0548268D01*
X0312296Y0548313D01*
X0312224Y0548362D01*
X0312153Y0548413D01*
X0312085Y0548468D01*
X0312020Y0548525D01*
X0311957Y0548586D01*
X0311896Y0548649D01*
X0311839Y0548714D01*
X0311784Y0548782D01*
X0311733Y0548853D01*
X0311684Y0548925D01*
X0311639Y0549000D01*
X0311597Y0549077D01*
X0311558Y0549155D01*
X0311523Y0549235D01*
X0311492Y0549316D01*
X0311464Y0549399D01*
X0311439Y0549482D01*
X0311418Y0549567D01*
X0311401Y0549653D01*
X0311388Y0549739D01*
X0311379Y0549826D01*
X0311373Y0549913D01*
X0311371Y0550000D01*
X0311371Y0590000D01*
X0311373Y0590087D01*
X0311379Y0590174D01*
X0311388Y0590261D01*
X0311401Y0590347D01*
X0311418Y0590433D01*
X0311439Y0590518D01*
X0311464Y0590601D01*
X0311492Y0590684D01*
X0311523Y0590765D01*
X0311558Y0590845D01*
X0311597Y0590923D01*
X0311639Y0591000D01*
X0311684Y0591075D01*
X0311733Y0591147D01*
X0311784Y0591218D01*
X0311839Y0591286D01*
X0311896Y0591351D01*
X0311957Y0591414D01*
X0312020Y0591475D01*
X0312085Y0591532D01*
X0312153Y0591587D01*
X0312224Y0591638D01*
X0312296Y0591687D01*
X0312371Y0591732D01*
X0312448Y0591774D01*
X0312526Y0591813D01*
X0312606Y0591848D01*
X0312687Y0591879D01*
X0312770Y0591907D01*
X0312853Y0591932D01*
X0312938Y0591953D01*
X0313024Y0591970D01*
X0313110Y0591983D01*
X0313197Y0591992D01*
X0313284Y0591998D01*
X0313371Y0592000D01*
X0325871Y0570000D02*
X0390371Y0570000D01*
X0393871Y0570000D02*
X0401871Y0570000D01*
X0459871Y0430000D02*
X0459871Y0420000D01*
X0462371Y0420000D01*
X0462371Y0425000D01*
X0462371Y0430000D01*
X0459871Y0430000D01*
X0431371Y0425000D02*
X0431379Y0425675D01*
X0431404Y0426349D01*
X0431446Y0427023D01*
X0431503Y0427695D01*
X0431578Y0428366D01*
X0431669Y0429035D01*
X0431776Y0429701D01*
X0431899Y0430365D01*
X0432039Y0431025D01*
X0432195Y0431682D01*
X0432367Y0432335D01*
X0432555Y0432983D01*
X0432759Y0433626D01*
X0432979Y0434264D01*
X0433214Y0434897D01*
X0433464Y0435524D01*
X0433730Y0436144D01*
X0434011Y0436758D01*
X0434307Y0437364D01*
X0434618Y0437963D01*
X0434944Y0438555D01*
X0435283Y0439138D01*
X0435638Y0439712D01*
X0436006Y0440278D01*
X0436387Y0440835D01*
X0436783Y0441382D01*
X0437191Y0441919D01*
X0437613Y0442446D01*
X0438048Y0442962D01*
X0438495Y0443468D01*
X0438954Y0443962D01*
X0439426Y0444445D01*
X0439909Y0444917D01*
X0440403Y0445376D01*
X0440909Y0445823D01*
X0441425Y0446258D01*
X0441952Y0446680D01*
X0442489Y0447088D01*
X0443036Y0447484D01*
X0443593Y0447865D01*
X0444159Y0448233D01*
X0444733Y0448588D01*
X0445316Y0448927D01*
X0445908Y0449253D01*
X0446507Y0449564D01*
X0447113Y0449860D01*
X0447727Y0450141D01*
X0448347Y0450407D01*
X0448974Y0450657D01*
X0449607Y0450892D01*
X0450245Y0451112D01*
X0450888Y0451316D01*
X0451536Y0451504D01*
X0452189Y0451676D01*
X0452846Y0451832D01*
X0453506Y0451972D01*
X0454170Y0452095D01*
X0454836Y0452202D01*
X0455505Y0452293D01*
X0456176Y0452368D01*
X0456848Y0452425D01*
X0457522Y0452467D01*
X0458196Y0452492D01*
X0458871Y0452500D01*
X0459546Y0452492D01*
X0460220Y0452467D01*
X0460894Y0452425D01*
X0461566Y0452368D01*
X0462237Y0452293D01*
X0462906Y0452202D01*
X0463572Y0452095D01*
X0464236Y0451972D01*
X0464896Y0451832D01*
X0465553Y0451676D01*
X0466206Y0451504D01*
X0466854Y0451316D01*
X0467497Y0451112D01*
X0468135Y0450892D01*
X0468768Y0450657D01*
X0469395Y0450407D01*
X0470015Y0450141D01*
X0470629Y0449860D01*
X0471235Y0449564D01*
X0471834Y0449253D01*
X0472426Y0448927D01*
X0473009Y0448588D01*
X0473583Y0448233D01*
X0474149Y0447865D01*
X0474706Y0447484D01*
X0475253Y0447088D01*
X0475790Y0446680D01*
X0476317Y0446258D01*
X0476833Y0445823D01*
X0477339Y0445376D01*
X0477833Y0444917D01*
X0478316Y0444445D01*
X0478788Y0443962D01*
X0479247Y0443468D01*
X0479694Y0442962D01*
X0480129Y0442446D01*
X0480551Y0441919D01*
X0480959Y0441382D01*
X0481355Y0440835D01*
X0481736Y0440278D01*
X0482104Y0439712D01*
X0482459Y0439138D01*
X0482798Y0438555D01*
X0483124Y0437963D01*
X0483435Y0437364D01*
X0483731Y0436758D01*
X0484012Y0436144D01*
X0484278Y0435524D01*
X0484528Y0434897D01*
X0484763Y0434264D01*
X0484983Y0433626D01*
X0485187Y0432983D01*
X0485375Y0432335D01*
X0485547Y0431682D01*
X0485703Y0431025D01*
X0485843Y0430365D01*
X0485966Y0429701D01*
X0486073Y0429035D01*
X0486164Y0428366D01*
X0486239Y0427695D01*
X0486296Y0427023D01*
X0486338Y0426349D01*
X0486363Y0425675D01*
X0486371Y0425000D01*
X0486363Y0424325D01*
X0486338Y0423651D01*
X0486296Y0422977D01*
X0486239Y0422305D01*
X0486164Y0421634D01*
X0486073Y0420965D01*
X0485966Y0420299D01*
X0485843Y0419635D01*
X0485703Y0418975D01*
X0485547Y0418318D01*
X0485375Y0417665D01*
X0485187Y0417017D01*
X0484983Y0416374D01*
X0484763Y0415736D01*
X0484528Y0415103D01*
X0484278Y0414476D01*
X0484012Y0413856D01*
X0483731Y0413242D01*
X0483435Y0412636D01*
X0483124Y0412037D01*
X0482798Y0411445D01*
X0482459Y0410862D01*
X0482104Y0410288D01*
X0481736Y0409722D01*
X0481355Y0409165D01*
X0480959Y0408618D01*
X0480551Y0408081D01*
X0480129Y0407554D01*
X0479694Y0407038D01*
X0479247Y0406532D01*
X0478788Y0406038D01*
X0478316Y0405555D01*
X0477833Y0405083D01*
X0477339Y0404624D01*
X0476833Y0404177D01*
X0476317Y0403742D01*
X0475790Y0403320D01*
X0475253Y0402912D01*
X0474706Y0402516D01*
X0474149Y0402135D01*
X0473583Y0401767D01*
X0473009Y0401412D01*
X0472426Y0401073D01*
X0471834Y0400747D01*
X0471235Y0400436D01*
X0470629Y0400140D01*
X0470015Y0399859D01*
X0469395Y0399593D01*
X0468768Y0399343D01*
X0468135Y0399108D01*
X0467497Y0398888D01*
X0466854Y0398684D01*
X0466206Y0398496D01*
X0465553Y0398324D01*
X0464896Y0398168D01*
X0464236Y0398028D01*
X0463572Y0397905D01*
X0462906Y0397798D01*
X0462237Y0397707D01*
X0461566Y0397632D01*
X0460894Y0397575D01*
X0460220Y0397533D01*
X0459546Y0397508D01*
X0458871Y0397500D01*
X0458196Y0397508D01*
X0457522Y0397533D01*
X0456848Y0397575D01*
X0456176Y0397632D01*
X0455505Y0397707D01*
X0454836Y0397798D01*
X0454170Y0397905D01*
X0453506Y0398028D01*
X0452846Y0398168D01*
X0452189Y0398324D01*
X0451536Y0398496D01*
X0450888Y0398684D01*
X0450245Y0398888D01*
X0449607Y0399108D01*
X0448974Y0399343D01*
X0448347Y0399593D01*
X0447727Y0399859D01*
X0447113Y0400140D01*
X0446507Y0400436D01*
X0445908Y0400747D01*
X0445316Y0401073D01*
X0444733Y0401412D01*
X0444159Y0401767D01*
X0443593Y0402135D01*
X0443036Y0402516D01*
X0442489Y0402912D01*
X0441952Y0403320D01*
X0441425Y0403742D01*
X0440909Y0404177D01*
X0440403Y0404624D01*
X0439909Y0405083D01*
X0439426Y0405555D01*
X0438954Y0406038D01*
X0438495Y0406532D01*
X0438048Y0407038D01*
X0437613Y0407554D01*
X0437191Y0408081D01*
X0436783Y0408618D01*
X0436387Y0409165D01*
X0436006Y0409722D01*
X0435638Y0410288D01*
X0435283Y0410862D01*
X0434944Y0411445D01*
X0434618Y0412037D01*
X0434307Y0412636D01*
X0434011Y0413242D01*
X0433730Y0413856D01*
X0433464Y0414476D01*
X0433214Y0415103D01*
X0432979Y0415736D01*
X0432759Y0416374D01*
X0432555Y0417017D01*
X0432367Y0417665D01*
X0432195Y0418318D01*
X0432039Y0418975D01*
X0431899Y0419635D01*
X0431776Y0420299D01*
X0431669Y0420965D01*
X0431578Y0421634D01*
X0431503Y0422305D01*
X0431446Y0422977D01*
X0431404Y0423651D01*
X0431379Y0424325D01*
X0431371Y0425000D01*
X0454371Y0425000D02*
X0456371Y0425000D01*
X0462371Y0425000D02*
X0463371Y0425000D01*
X0476371Y0425000D02*
X0481371Y0425000D01*
X0478871Y0427500D02*
X0478871Y0422500D01*
X0472371Y0382000D02*
X0445371Y0382000D01*
X0445311Y0381998D01*
X0445250Y0381993D01*
X0445191Y0381984D01*
X0445132Y0381971D01*
X0445073Y0381955D01*
X0445016Y0381935D01*
X0444961Y0381912D01*
X0444906Y0381885D01*
X0444854Y0381856D01*
X0444803Y0381823D01*
X0444754Y0381787D01*
X0444708Y0381749D01*
X0444664Y0381707D01*
X0444622Y0381663D01*
X0444584Y0381617D01*
X0444548Y0381568D01*
X0444515Y0381517D01*
X0444486Y0381465D01*
X0444459Y0381410D01*
X0444436Y0381355D01*
X0444416Y0381298D01*
X0444400Y0381239D01*
X0444387Y0381180D01*
X0444378Y0381121D01*
X0444373Y0381060D01*
X0444371Y0381000D01*
X0444371Y0363000D01*
X0444373Y0362940D01*
X0444378Y0362879D01*
X0444387Y0362820D01*
X0444400Y0362761D01*
X0444416Y0362702D01*
X0444436Y0362645D01*
X0444459Y0362590D01*
X0444486Y0362535D01*
X0444515Y0362483D01*
X0444548Y0362432D01*
X0444584Y0362383D01*
X0444622Y0362337D01*
X0444664Y0362293D01*
X0444708Y0362251D01*
X0444754Y0362213D01*
X0444803Y0362177D01*
X0444854Y0362144D01*
X0444906Y0362115D01*
X0444961Y0362088D01*
X0445016Y0362065D01*
X0445073Y0362045D01*
X0445132Y0362029D01*
X0445191Y0362016D01*
X0445250Y0362007D01*
X0445311Y0362002D01*
X0445371Y0362000D01*
X0472371Y0362000D01*
X0472431Y0362002D01*
X0472492Y0362007D01*
X0472551Y0362016D01*
X0472610Y0362029D01*
X0472669Y0362045D01*
X0472726Y0362065D01*
X0472781Y0362088D01*
X0472836Y0362115D01*
X0472888Y0362144D01*
X0472939Y0362177D01*
X0472988Y0362213D01*
X0473034Y0362251D01*
X0473078Y0362293D01*
X0473120Y0362337D01*
X0473158Y0362383D01*
X0473194Y0362432D01*
X0473227Y0362483D01*
X0473256Y0362535D01*
X0473283Y0362590D01*
X0473306Y0362645D01*
X0473326Y0362702D01*
X0473342Y0362761D01*
X0473355Y0362820D01*
X0473364Y0362879D01*
X0473369Y0362940D01*
X0473371Y0363000D01*
X0473371Y0381000D01*
X0473369Y0381060D01*
X0473364Y0381121D01*
X0473355Y0381180D01*
X0473342Y0381239D01*
X0473326Y0381298D01*
X0473306Y0381355D01*
X0473283Y0381410D01*
X0473256Y0381465D01*
X0473227Y0381517D01*
X0473194Y0381568D01*
X0473158Y0381617D01*
X0473120Y0381663D01*
X0473078Y0381707D01*
X0473034Y0381749D01*
X0472988Y0381787D01*
X0472939Y0381823D01*
X0472888Y0381856D01*
X0472836Y0381885D01*
X0472781Y0381912D01*
X0472726Y0381935D01*
X0472669Y0381955D01*
X0472610Y0381971D01*
X0472551Y0381984D01*
X0472492Y0381993D01*
X0472431Y0381998D01*
X0472371Y0382000D01*
X0464871Y0372000D02*
X0460071Y0372000D01*
X0457571Y0372000D02*
X0452871Y0372000D01*
X0442871Y0224500D02*
X0424871Y0224500D01*
X0424811Y0224498D01*
X0424750Y0224493D01*
X0424691Y0224484D01*
X0424632Y0224471D01*
X0424573Y0224455D01*
X0424516Y0224435D01*
X0424461Y0224412D01*
X0424406Y0224385D01*
X0424354Y0224356D01*
X0424303Y0224323D01*
X0424254Y0224287D01*
X0424208Y0224249D01*
X0424164Y0224207D01*
X0424122Y0224163D01*
X0424084Y0224117D01*
X0424048Y0224068D01*
X0424015Y0224017D01*
X0423986Y0223965D01*
X0423959Y0223910D01*
X0423936Y0223855D01*
X0423916Y0223798D01*
X0423900Y0223739D01*
X0423887Y0223680D01*
X0423878Y0223621D01*
X0423873Y0223560D01*
X0423871Y0223500D01*
X0423871Y0196500D01*
X0423873Y0196440D01*
X0423878Y0196379D01*
X0423887Y0196320D01*
X0423900Y0196261D01*
X0423916Y0196202D01*
X0423936Y0196145D01*
X0423959Y0196090D01*
X0423986Y0196035D01*
X0424015Y0195983D01*
X0424048Y0195932D01*
X0424084Y0195883D01*
X0424122Y0195837D01*
X0424164Y0195793D01*
X0424208Y0195751D01*
X0424254Y0195713D01*
X0424303Y0195677D01*
X0424354Y0195644D01*
X0424406Y0195615D01*
X0424461Y0195588D01*
X0424516Y0195565D01*
X0424573Y0195545D01*
X0424632Y0195529D01*
X0424691Y0195516D01*
X0424750Y0195507D01*
X0424811Y0195502D01*
X0424871Y0195500D01*
X0442871Y0195500D01*
X0442931Y0195502D01*
X0442992Y0195507D01*
X0443051Y0195516D01*
X0443110Y0195529D01*
X0443169Y0195545D01*
X0443226Y0195565D01*
X0443281Y0195588D01*
X0443336Y0195615D01*
X0443388Y0195644D01*
X0443439Y0195677D01*
X0443488Y0195713D01*
X0443534Y0195751D01*
X0443578Y0195793D01*
X0443620Y0195837D01*
X0443658Y0195883D01*
X0443694Y0195932D01*
X0443727Y0195983D01*
X0443756Y0196035D01*
X0443783Y0196090D01*
X0443806Y0196145D01*
X0443826Y0196202D01*
X0443842Y0196261D01*
X0443855Y0196320D01*
X0443864Y0196379D01*
X0443869Y0196440D01*
X0443871Y0196500D01*
X0443871Y0223500D01*
X0443869Y0223560D01*
X0443864Y0223621D01*
X0443855Y0223680D01*
X0443842Y0223739D01*
X0443826Y0223798D01*
X0443806Y0223855D01*
X0443783Y0223910D01*
X0443756Y0223965D01*
X0443727Y0224017D01*
X0443694Y0224068D01*
X0443658Y0224117D01*
X0443620Y0224163D01*
X0443578Y0224207D01*
X0443534Y0224249D01*
X0443488Y0224287D01*
X0443439Y0224323D01*
X0443388Y0224356D01*
X0443336Y0224385D01*
X0443281Y0224412D01*
X0443226Y0224435D01*
X0443169Y0224455D01*
X0443110Y0224471D01*
X0443051Y0224484D01*
X0442992Y0224493D01*
X0442931Y0224498D01*
X0442871Y0224500D01*
X0433871Y0216000D02*
X0433871Y0211300D01*
X0433871Y0208800D02*
X0433871Y0204000D01*
X0387871Y0206500D02*
X0387871Y0209000D01*
X0377871Y0209000D01*
X0377871Y0206500D01*
X0382871Y0206500D01*
X0387871Y0206500D01*
X0382871Y0206500D02*
X0382871Y0205500D01*
X0355371Y0210000D02*
X0355379Y0210675D01*
X0355404Y0211349D01*
X0355446Y0212023D01*
X0355503Y0212695D01*
X0355578Y0213366D01*
X0355669Y0214035D01*
X0355776Y0214701D01*
X0355899Y0215365D01*
X0356039Y0216025D01*
X0356195Y0216682D01*
X0356367Y0217335D01*
X0356555Y0217983D01*
X0356759Y0218626D01*
X0356979Y0219264D01*
X0357214Y0219897D01*
X0357464Y0220524D01*
X0357730Y0221144D01*
X0358011Y0221758D01*
X0358307Y0222364D01*
X0358618Y0222963D01*
X0358944Y0223555D01*
X0359283Y0224138D01*
X0359638Y0224712D01*
X0360006Y0225278D01*
X0360387Y0225835D01*
X0360783Y0226382D01*
X0361191Y0226919D01*
X0361613Y0227446D01*
X0362048Y0227962D01*
X0362495Y0228468D01*
X0362954Y0228962D01*
X0363426Y0229445D01*
X0363909Y0229917D01*
X0364403Y0230376D01*
X0364909Y0230823D01*
X0365425Y0231258D01*
X0365952Y0231680D01*
X0366489Y0232088D01*
X0367036Y0232484D01*
X0367593Y0232865D01*
X0368159Y0233233D01*
X0368733Y0233588D01*
X0369316Y0233927D01*
X0369908Y0234253D01*
X0370507Y0234564D01*
X0371113Y0234860D01*
X0371727Y0235141D01*
X0372347Y0235407D01*
X0372974Y0235657D01*
X0373607Y0235892D01*
X0374245Y0236112D01*
X0374888Y0236316D01*
X0375536Y0236504D01*
X0376189Y0236676D01*
X0376846Y0236832D01*
X0377506Y0236972D01*
X0378170Y0237095D01*
X0378836Y0237202D01*
X0379505Y0237293D01*
X0380176Y0237368D01*
X0380848Y0237425D01*
X0381522Y0237467D01*
X0382196Y0237492D01*
X0382871Y0237500D01*
X0383546Y0237492D01*
X0384220Y0237467D01*
X0384894Y0237425D01*
X0385566Y0237368D01*
X0386237Y0237293D01*
X0386906Y0237202D01*
X0387572Y0237095D01*
X0388236Y0236972D01*
X0388896Y0236832D01*
X0389553Y0236676D01*
X0390206Y0236504D01*
X0390854Y0236316D01*
X0391497Y0236112D01*
X0392135Y0235892D01*
X0392768Y0235657D01*
X0393395Y0235407D01*
X0394015Y0235141D01*
X0394629Y0234860D01*
X0395235Y0234564D01*
X0395834Y0234253D01*
X0396426Y0233927D01*
X0397009Y0233588D01*
X0397583Y0233233D01*
X0398149Y0232865D01*
X0398706Y0232484D01*
X0399253Y0232088D01*
X0399790Y0231680D01*
X0400317Y0231258D01*
X0400833Y0230823D01*
X0401339Y0230376D01*
X0401833Y0229917D01*
X0402316Y0229445D01*
X0402788Y0228962D01*
X0403247Y0228468D01*
X0403694Y0227962D01*
X0404129Y0227446D01*
X0404551Y0226919D01*
X0404959Y0226382D01*
X0405355Y0225835D01*
X0405736Y0225278D01*
X0406104Y0224712D01*
X0406459Y0224138D01*
X0406798Y0223555D01*
X0407124Y0222963D01*
X0407435Y0222364D01*
X0407731Y0221758D01*
X0408012Y0221144D01*
X0408278Y0220524D01*
X0408528Y0219897D01*
X0408763Y0219264D01*
X0408983Y0218626D01*
X0409187Y0217983D01*
X0409375Y0217335D01*
X0409547Y0216682D01*
X0409703Y0216025D01*
X0409843Y0215365D01*
X0409966Y0214701D01*
X0410073Y0214035D01*
X0410164Y0213366D01*
X0410239Y0212695D01*
X0410296Y0212023D01*
X0410338Y0211349D01*
X0410363Y0210675D01*
X0410371Y0210000D01*
X0410363Y0209325D01*
X0410338Y0208651D01*
X0410296Y0207977D01*
X0410239Y0207305D01*
X0410164Y0206634D01*
X0410073Y0205965D01*
X0409966Y0205299D01*
X0409843Y0204635D01*
X0409703Y0203975D01*
X0409547Y0203318D01*
X0409375Y0202665D01*
X0409187Y0202017D01*
X0408983Y0201374D01*
X0408763Y0200736D01*
X0408528Y0200103D01*
X0408278Y0199476D01*
X0408012Y0198856D01*
X0407731Y0198242D01*
X0407435Y0197636D01*
X0407124Y0197037D01*
X0406798Y0196445D01*
X0406459Y0195862D01*
X0406104Y0195288D01*
X0405736Y0194722D01*
X0405355Y0194165D01*
X0404959Y0193618D01*
X0404551Y0193081D01*
X0404129Y0192554D01*
X0403694Y0192038D01*
X0403247Y0191532D01*
X0402788Y0191038D01*
X0402316Y0190555D01*
X0401833Y0190083D01*
X0401339Y0189624D01*
X0400833Y0189177D01*
X0400317Y0188742D01*
X0399790Y0188320D01*
X0399253Y0187912D01*
X0398706Y0187516D01*
X0398149Y0187135D01*
X0397583Y0186767D01*
X0397009Y0186412D01*
X0396426Y0186073D01*
X0395834Y0185747D01*
X0395235Y0185436D01*
X0394629Y0185140D01*
X0394015Y0184859D01*
X0393395Y0184593D01*
X0392768Y0184343D01*
X0392135Y0184108D01*
X0391497Y0183888D01*
X0390854Y0183684D01*
X0390206Y0183496D01*
X0389553Y0183324D01*
X0388896Y0183168D01*
X0388236Y0183028D01*
X0387572Y0182905D01*
X0386906Y0182798D01*
X0386237Y0182707D01*
X0385566Y0182632D01*
X0384894Y0182575D01*
X0384220Y0182533D01*
X0383546Y0182508D01*
X0382871Y0182500D01*
X0382196Y0182508D01*
X0381522Y0182533D01*
X0380848Y0182575D01*
X0380176Y0182632D01*
X0379505Y0182707D01*
X0378836Y0182798D01*
X0378170Y0182905D01*
X0377506Y0183028D01*
X0376846Y0183168D01*
X0376189Y0183324D01*
X0375536Y0183496D01*
X0374888Y0183684D01*
X0374245Y0183888D01*
X0373607Y0184108D01*
X0372974Y0184343D01*
X0372347Y0184593D01*
X0371727Y0184859D01*
X0371113Y0185140D01*
X0370507Y0185436D01*
X0369908Y0185747D01*
X0369316Y0186073D01*
X0368733Y0186412D01*
X0368159Y0186767D01*
X0367593Y0187135D01*
X0367036Y0187516D01*
X0366489Y0187912D01*
X0365952Y0188320D01*
X0365425Y0188742D01*
X0364909Y0189177D01*
X0364403Y0189624D01*
X0363909Y0190083D01*
X0363426Y0190555D01*
X0362954Y0191038D01*
X0362495Y0191532D01*
X0362048Y0192038D01*
X0361613Y0192554D01*
X0361191Y0193081D01*
X0360783Y0193618D01*
X0360387Y0194165D01*
X0360006Y0194722D01*
X0359638Y0195288D01*
X0359283Y0195862D01*
X0358944Y0196445D01*
X0358618Y0197037D01*
X0358307Y0197636D01*
X0358011Y0198242D01*
X0357730Y0198856D01*
X0357464Y0199476D01*
X0357214Y0200103D01*
X0356979Y0200736D01*
X0356759Y0201374D01*
X0356555Y0202017D01*
X0356367Y0202665D01*
X0356195Y0203318D01*
X0356039Y0203975D01*
X0355899Y0204635D01*
X0355776Y0205299D01*
X0355669Y0205965D01*
X0355578Y0206634D01*
X0355503Y0207305D01*
X0355446Y0207977D01*
X0355404Y0208651D01*
X0355379Y0209325D01*
X0355371Y0210000D01*
X0382871Y0212500D02*
X0382871Y0214500D01*
X0382871Y0192500D02*
X0382871Y0187500D01*
X0385371Y0190000D02*
X0380371Y0190000D01*
X0393871Y0057500D02*
X0393871Y0052500D01*
X0391371Y0055000D02*
X0396371Y0055000D01*
X0409371Y0055000D02*
X0410371Y0055000D01*
X0410371Y0060000D01*
X0412871Y0060000D01*
X0412871Y0050000D01*
X0410371Y0050000D01*
X0410371Y0055000D01*
X0386371Y0055000D02*
X0386379Y0055675D01*
X0386404Y0056349D01*
X0386446Y0057023D01*
X0386503Y0057695D01*
X0386578Y0058366D01*
X0386669Y0059035D01*
X0386776Y0059701D01*
X0386899Y0060365D01*
X0387039Y0061025D01*
X0387195Y0061682D01*
X0387367Y0062335D01*
X0387555Y0062983D01*
X0387759Y0063626D01*
X0387979Y0064264D01*
X0388214Y0064897D01*
X0388464Y0065524D01*
X0388730Y0066144D01*
X0389011Y0066758D01*
X0389307Y0067364D01*
X0389618Y0067963D01*
X0389944Y0068555D01*
X0390283Y0069138D01*
X0390638Y0069712D01*
X0391006Y0070278D01*
X0391387Y0070835D01*
X0391783Y0071382D01*
X0392191Y0071919D01*
X0392613Y0072446D01*
X0393048Y0072962D01*
X0393495Y0073468D01*
X0393954Y0073962D01*
X0394426Y0074445D01*
X0394909Y0074917D01*
X0395403Y0075376D01*
X0395909Y0075823D01*
X0396425Y0076258D01*
X0396952Y0076680D01*
X0397489Y0077088D01*
X0398036Y0077484D01*
X0398593Y0077865D01*
X0399159Y0078233D01*
X0399733Y0078588D01*
X0400316Y0078927D01*
X0400908Y0079253D01*
X0401507Y0079564D01*
X0402113Y0079860D01*
X0402727Y0080141D01*
X0403347Y0080407D01*
X0403974Y0080657D01*
X0404607Y0080892D01*
X0405245Y0081112D01*
X0405888Y0081316D01*
X0406536Y0081504D01*
X0407189Y0081676D01*
X0407846Y0081832D01*
X0408506Y0081972D01*
X0409170Y0082095D01*
X0409836Y0082202D01*
X0410505Y0082293D01*
X0411176Y0082368D01*
X0411848Y0082425D01*
X0412522Y0082467D01*
X0413196Y0082492D01*
X0413871Y0082500D01*
X0414546Y0082492D01*
X0415220Y0082467D01*
X0415894Y0082425D01*
X0416566Y0082368D01*
X0417237Y0082293D01*
X0417906Y0082202D01*
X0418572Y0082095D01*
X0419236Y0081972D01*
X0419896Y0081832D01*
X0420553Y0081676D01*
X0421206Y0081504D01*
X0421854Y0081316D01*
X0422497Y0081112D01*
X0423135Y0080892D01*
X0423768Y0080657D01*
X0424395Y0080407D01*
X0425015Y0080141D01*
X0425629Y0079860D01*
X0426235Y0079564D01*
X0426834Y0079253D01*
X0427426Y0078927D01*
X0428009Y0078588D01*
X0428583Y0078233D01*
X0429149Y0077865D01*
X0429706Y0077484D01*
X0430253Y0077088D01*
X0430790Y0076680D01*
X0431317Y0076258D01*
X0431833Y0075823D01*
X0432339Y0075376D01*
X0432833Y0074917D01*
X0433316Y0074445D01*
X0433788Y0073962D01*
X0434247Y0073468D01*
X0434694Y0072962D01*
X0435129Y0072446D01*
X0435551Y0071919D01*
X0435959Y0071382D01*
X0436355Y0070835D01*
X0436736Y0070278D01*
X0437104Y0069712D01*
X0437459Y0069138D01*
X0437798Y0068555D01*
X0438124Y0067963D01*
X0438435Y0067364D01*
X0438731Y0066758D01*
X0439012Y0066144D01*
X0439278Y0065524D01*
X0439528Y0064897D01*
X0439763Y0064264D01*
X0439983Y0063626D01*
X0440187Y0062983D01*
X0440375Y0062335D01*
X0440547Y0061682D01*
X0440703Y0061025D01*
X0440843Y0060365D01*
X0440966Y0059701D01*
X0441073Y0059035D01*
X0441164Y0058366D01*
X0441239Y0057695D01*
X0441296Y0057023D01*
X0441338Y0056349D01*
X0441363Y0055675D01*
X0441371Y0055000D01*
X0441363Y0054325D01*
X0441338Y0053651D01*
X0441296Y0052977D01*
X0441239Y0052305D01*
X0441164Y0051634D01*
X0441073Y0050965D01*
X0440966Y0050299D01*
X0440843Y0049635D01*
X0440703Y0048975D01*
X0440547Y0048318D01*
X0440375Y0047665D01*
X0440187Y0047017D01*
X0439983Y0046374D01*
X0439763Y0045736D01*
X0439528Y0045103D01*
X0439278Y0044476D01*
X0439012Y0043856D01*
X0438731Y0043242D01*
X0438435Y0042636D01*
X0438124Y0042037D01*
X0437798Y0041445D01*
X0437459Y0040862D01*
X0437104Y0040288D01*
X0436736Y0039722D01*
X0436355Y0039165D01*
X0435959Y0038618D01*
X0435551Y0038081D01*
X0435129Y0037554D01*
X0434694Y0037038D01*
X0434247Y0036532D01*
X0433788Y0036038D01*
X0433316Y0035555D01*
X0432833Y0035083D01*
X0432339Y0034624D01*
X0431833Y0034177D01*
X0431317Y0033742D01*
X0430790Y0033320D01*
X0430253Y0032912D01*
X0429706Y0032516D01*
X0429149Y0032135D01*
X0428583Y0031767D01*
X0428009Y0031412D01*
X0427426Y0031073D01*
X0426834Y0030747D01*
X0426235Y0030436D01*
X0425629Y0030140D01*
X0425015Y0029859D01*
X0424395Y0029593D01*
X0423768Y0029343D01*
X0423135Y0029108D01*
X0422497Y0028888D01*
X0421854Y0028684D01*
X0421206Y0028496D01*
X0420553Y0028324D01*
X0419896Y0028168D01*
X0419236Y0028028D01*
X0418572Y0027905D01*
X0417906Y0027798D01*
X0417237Y0027707D01*
X0416566Y0027632D01*
X0415894Y0027575D01*
X0415220Y0027533D01*
X0414546Y0027508D01*
X0413871Y0027500D01*
X0413196Y0027508D01*
X0412522Y0027533D01*
X0411848Y0027575D01*
X0411176Y0027632D01*
X0410505Y0027707D01*
X0409836Y0027798D01*
X0409170Y0027905D01*
X0408506Y0028028D01*
X0407846Y0028168D01*
X0407189Y0028324D01*
X0406536Y0028496D01*
X0405888Y0028684D01*
X0405245Y0028888D01*
X0404607Y0029108D01*
X0403974Y0029343D01*
X0403347Y0029593D01*
X0402727Y0029859D01*
X0402113Y0030140D01*
X0401507Y0030436D01*
X0400908Y0030747D01*
X0400316Y0031073D01*
X0399733Y0031412D01*
X0399159Y0031767D01*
X0398593Y0032135D01*
X0398036Y0032516D01*
X0397489Y0032912D01*
X0396952Y0033320D01*
X0396425Y0033742D01*
X0395909Y0034177D01*
X0395403Y0034624D01*
X0394909Y0035083D01*
X0394426Y0035555D01*
X0393954Y0036038D01*
X0393495Y0036532D01*
X0393048Y0037038D01*
X0392613Y0037554D01*
X0392191Y0038081D01*
X0391783Y0038618D01*
X0391387Y0039165D01*
X0391006Y0039722D01*
X0390638Y0040288D01*
X0390283Y0040862D01*
X0389944Y0041445D01*
X0389618Y0042037D01*
X0389307Y0042636D01*
X0389011Y0043242D01*
X0388730Y0043856D01*
X0388464Y0044476D01*
X0388214Y0045103D01*
X0387979Y0045736D01*
X0387759Y0046374D01*
X0387555Y0047017D01*
X0387367Y0047665D01*
X0387195Y0048318D01*
X0387039Y0048975D01*
X0386899Y0049635D01*
X0386776Y0050299D01*
X0386669Y0050965D01*
X0386578Y0051634D01*
X0386503Y0052305D01*
X0386446Y0052977D01*
X0386404Y0053651D01*
X0386379Y0054325D01*
X0386371Y0055000D01*
X0416371Y0055000D02*
X0418371Y0055000D01*
X0455871Y0050500D02*
X0455871Y0077500D01*
X0455873Y0077560D01*
X0455878Y0077621D01*
X0455887Y0077680D01*
X0455900Y0077739D01*
X0455916Y0077798D01*
X0455936Y0077855D01*
X0455959Y0077910D01*
X0455986Y0077965D01*
X0456015Y0078017D01*
X0456048Y0078068D01*
X0456084Y0078117D01*
X0456122Y0078163D01*
X0456164Y0078207D01*
X0456208Y0078249D01*
X0456254Y0078287D01*
X0456303Y0078323D01*
X0456354Y0078356D01*
X0456406Y0078385D01*
X0456461Y0078412D01*
X0456516Y0078435D01*
X0456573Y0078455D01*
X0456632Y0078471D01*
X0456691Y0078484D01*
X0456750Y0078493D01*
X0456811Y0078498D01*
X0456871Y0078500D01*
X0474871Y0078500D01*
X0474931Y0078498D01*
X0474992Y0078493D01*
X0475051Y0078484D01*
X0475110Y0078471D01*
X0475169Y0078455D01*
X0475226Y0078435D01*
X0475281Y0078412D01*
X0475336Y0078385D01*
X0475388Y0078356D01*
X0475439Y0078323D01*
X0475488Y0078287D01*
X0475534Y0078249D01*
X0475578Y0078207D01*
X0475620Y0078163D01*
X0475658Y0078117D01*
X0475694Y0078068D01*
X0475727Y0078017D01*
X0475756Y0077965D01*
X0475783Y0077910D01*
X0475806Y0077855D01*
X0475826Y0077798D01*
X0475842Y0077739D01*
X0475855Y0077680D01*
X0475864Y0077621D01*
X0475869Y0077560D01*
X0475871Y0077500D01*
X0475871Y0050500D01*
X0475869Y0050440D01*
X0475864Y0050379D01*
X0475855Y0050320D01*
X0475842Y0050261D01*
X0475826Y0050202D01*
X0475806Y0050145D01*
X0475783Y0050090D01*
X0475756Y0050035D01*
X0475727Y0049983D01*
X0475694Y0049932D01*
X0475658Y0049883D01*
X0475620Y0049837D01*
X0475578Y0049793D01*
X0475534Y0049751D01*
X0475488Y0049713D01*
X0475439Y0049677D01*
X0475388Y0049644D01*
X0475336Y0049615D01*
X0475281Y0049588D01*
X0475226Y0049565D01*
X0475169Y0049545D01*
X0475110Y0049529D01*
X0475051Y0049516D01*
X0474992Y0049507D01*
X0474931Y0049502D01*
X0474871Y0049500D01*
X0456871Y0049500D01*
X0456811Y0049502D01*
X0456750Y0049507D01*
X0456691Y0049516D01*
X0456632Y0049529D01*
X0456573Y0049545D01*
X0456516Y0049565D01*
X0456461Y0049588D01*
X0456406Y0049615D01*
X0456354Y0049644D01*
X0456303Y0049677D01*
X0456254Y0049713D01*
X0456208Y0049751D01*
X0456164Y0049793D01*
X0456122Y0049837D01*
X0456084Y0049883D01*
X0456048Y0049932D01*
X0456015Y0049983D01*
X0455986Y0050035D01*
X0455959Y0050090D01*
X0455936Y0050145D01*
X0455916Y0050202D01*
X0455900Y0050261D01*
X0455887Y0050320D01*
X0455878Y0050379D01*
X0455873Y0050440D01*
X0455871Y0050500D01*
X0465871Y0058000D02*
X0465871Y0062700D01*
X0465871Y0065200D02*
X0465871Y0070000D01*
D11*
X0452875Y0098409D02*
X0491359Y0098409D01*
X0491359Y0105496D01*
X0481812Y0105496D01*
X0481812Y0152406D01*
X0491359Y0152406D01*
X0491359Y0159492D01*
X0452875Y0159492D01*
X0452875Y0098409D01*
X0442359Y0097409D02*
X0403875Y0097409D01*
X0403875Y0158492D01*
X0442359Y0158492D01*
X0442359Y0151406D01*
X0432812Y0151406D01*
X0432812Y0104496D01*
X0442359Y0104496D01*
X0442359Y0151406D01*
X0442359Y0104496D02*
X0442359Y0097409D01*
X0491359Y0105496D02*
X0491359Y0152406D01*
X0455871Y0244004D02*
X0455871Y0282488D01*
X0448784Y0282488D01*
X0448784Y0272941D01*
X0433056Y0272941D01*
X0433056Y0282488D01*
X0425969Y0282488D01*
X0425969Y0244004D01*
X0455871Y0244004D01*
X0448784Y0282488D02*
X0433056Y0282488D01*
X0445871Y0311512D02*
X0445871Y0349996D01*
X0475772Y0349996D01*
X0475772Y0311512D01*
X0468686Y0311512D01*
X0468686Y0321059D01*
X0452957Y0321059D01*
X0452957Y0311512D01*
X0468686Y0311512D01*
X0452957Y0311512D02*
X0445871Y0311512D01*
X0267666Y0519004D02*
X0267666Y0557488D01*
X0260580Y0557488D01*
X0260580Y0547941D01*
X0229261Y0547941D01*
X0229261Y0557488D01*
X0222174Y0557488D01*
X0222174Y0519004D01*
X0267666Y0519004D01*
X0260580Y0557488D02*
X0229261Y0557488D01*
X0222174Y0592004D02*
X0267666Y0592004D01*
X0267666Y0630488D01*
X0260580Y0630488D01*
X0260580Y0620941D01*
X0229261Y0620941D01*
X0229261Y0630488D01*
X0222174Y0630488D01*
X0222174Y0592004D01*
X0229261Y0630488D02*
X0260580Y0630488D01*
D12*
X0219238Y0618254D02*
X0217703Y0619789D01*
X0214634Y0619789D01*
X0214634Y0616720D02*
X0217703Y0616720D01*
X0219238Y0618254D01*
X0219238Y0615185D02*
X0214634Y0615185D01*
X0216936Y0615185D02*
X0216936Y0612116D01*
X0219238Y0612116D02*
X0214634Y0612116D01*
X0214634Y0610581D02*
X0217703Y0607512D01*
X0216936Y0608279D02*
X0219238Y0610581D01*
X0219238Y0607512D02*
X0214634Y0607512D01*
X0215401Y0605977D02*
X0214634Y0605210D01*
X0214634Y0602908D01*
X0219238Y0602908D01*
X0219238Y0605210D01*
X0218470Y0605977D01*
X0217703Y0605977D01*
X0216936Y0605210D01*
X0216936Y0602908D01*
X0218470Y0601373D02*
X0215401Y0601373D01*
X0214634Y0600606D01*
X0214634Y0598304D01*
X0219238Y0598304D01*
X0219238Y0600606D01*
X0218470Y0601373D01*
X0216936Y0605210D02*
X0216169Y0605977D01*
X0215401Y0605977D01*
X0214634Y0596769D02*
X0214634Y0593700D01*
X0219238Y0593700D01*
X0216936Y0593700D02*
X0216936Y0595235D01*
X0217703Y0560601D02*
X0214634Y0560601D01*
X0217703Y0560601D02*
X0219238Y0559066D01*
X0217703Y0557531D01*
X0214634Y0557531D01*
X0214634Y0555997D02*
X0219238Y0555997D01*
X0216936Y0555997D02*
X0216936Y0552927D01*
X0219238Y0552927D02*
X0214634Y0552927D01*
X0214634Y0548324D02*
X0219238Y0548324D01*
X0219238Y0551393D01*
X0218470Y0546789D02*
X0215401Y0546789D01*
X0214634Y0546022D01*
X0214634Y0544487D01*
X0215401Y0543720D01*
X0218470Y0543720D01*
X0219238Y0544487D01*
X0219238Y0546022D01*
X0218470Y0546789D01*
X0219238Y0542185D02*
X0217703Y0540650D01*
X0217703Y0541418D02*
X0217703Y0539116D01*
X0219238Y0539116D02*
X0214634Y0539116D01*
X0214634Y0541418D01*
X0215401Y0542185D01*
X0216936Y0542185D01*
X0217703Y0541418D01*
X0214634Y0537581D02*
X0214634Y0534512D01*
X0214634Y0536046D02*
X0219238Y0536046D01*
X0219238Y0532977D02*
X0214634Y0532977D01*
X0214634Y0529908D02*
X0219238Y0532977D01*
X0219238Y0529908D02*
X0214634Y0529908D01*
X0215401Y0528373D02*
X0214634Y0527606D01*
X0214634Y0526071D01*
X0215401Y0525304D01*
X0218470Y0525304D01*
X0219238Y0526071D01*
X0219238Y0527606D01*
X0218470Y0528373D01*
X0215401Y0528373D01*
X0215401Y0523769D02*
X0214634Y0523002D01*
X0214634Y0521467D01*
X0215401Y0520700D01*
X0218470Y0520700D01*
X0219238Y0521467D01*
X0219238Y0523002D01*
X0218470Y0523769D01*
X0156813Y0263804D02*
X0156813Y0259200D01*
X0155279Y0259200D02*
X0158348Y0259200D01*
X0155279Y0262269D02*
X0156813Y0263804D01*
X0153744Y0263037D02*
X0152977Y0263804D01*
X0151442Y0263804D01*
X0150675Y0263037D01*
X0150675Y0262269D01*
X0151442Y0261502D01*
X0152977Y0261502D01*
X0153744Y0260735D01*
X0153744Y0259967D01*
X0152977Y0259200D01*
X0151442Y0259200D01*
X0150675Y0259967D01*
X0149140Y0259967D02*
X0149140Y0263804D01*
X0146071Y0263804D02*
X0146071Y0259967D01*
X0146838Y0259200D01*
X0148373Y0259200D01*
X0149140Y0259967D01*
X0152209Y0258433D02*
X0152209Y0264571D01*
X0339259Y0015804D02*
X0339259Y0011967D01*
X0340026Y0011200D01*
X0341561Y0011200D01*
X0342328Y0011967D01*
X0342328Y0015804D01*
X0343863Y0015037D02*
X0344630Y0015804D01*
X0346165Y0015804D01*
X0346932Y0015037D01*
X0348467Y0015037D02*
X0349234Y0015804D01*
X0350769Y0015804D01*
X0351536Y0015037D01*
X0351536Y0014269D01*
X0350769Y0013502D01*
X0351536Y0012735D01*
X0351536Y0011967D01*
X0350769Y0011200D01*
X0349234Y0011200D01*
X0348467Y0011967D01*
X0346932Y0011967D02*
X0346932Y0012735D01*
X0346165Y0013502D01*
X0344630Y0013502D01*
X0343863Y0014269D01*
X0343863Y0015037D01*
X0345398Y0016571D02*
X0345398Y0010433D01*
X0346165Y0011200D02*
X0346932Y0011967D01*
X0346165Y0011200D02*
X0344630Y0011200D01*
X0343863Y0011967D01*
X0350002Y0013502D02*
X0350769Y0013502D01*
X0405571Y0161428D02*
X0405571Y0166032D01*
X0407873Y0166032D01*
X0408640Y0165265D01*
X0408640Y0163730D01*
X0407873Y0162963D01*
X0405571Y0162963D01*
X0410175Y0162196D02*
X0410942Y0161428D01*
X0412477Y0161428D01*
X0413244Y0162196D01*
X0413244Y0165265D01*
X0412477Y0166032D01*
X0410942Y0166032D01*
X0410175Y0165265D01*
X0410175Y0162196D01*
X0414779Y0161428D02*
X0416313Y0162963D01*
X0417848Y0161428D01*
X0417848Y0166032D01*
X0419383Y0166032D02*
X0419383Y0161428D01*
X0422452Y0161428D01*
X0423987Y0161428D02*
X0423987Y0166032D01*
X0426289Y0166032D01*
X0427056Y0165265D01*
X0427056Y0163730D01*
X0426289Y0162963D01*
X0423987Y0162963D01*
X0425521Y0162963D02*
X0427056Y0161428D01*
X0428590Y0161428D02*
X0430125Y0161428D01*
X0429358Y0161428D02*
X0429358Y0166032D01*
X0430125Y0166032D02*
X0428590Y0166032D01*
X0431660Y0166032D02*
X0434729Y0166032D01*
X0436264Y0164498D02*
X0437798Y0166032D01*
X0439333Y0164498D01*
X0439333Y0161428D01*
X0440868Y0162196D02*
X0441635Y0161428D01*
X0443170Y0161428D01*
X0443937Y0162196D01*
X0445472Y0161428D02*
X0448541Y0161428D01*
X0447006Y0163730D02*
X0445472Y0163730D01*
X0443937Y0165265D02*
X0443170Y0166032D01*
X0441635Y0166032D01*
X0440868Y0165265D01*
X0440868Y0162196D01*
X0439333Y0163730D02*
X0436264Y0163730D01*
X0436264Y0164498D02*
X0436264Y0161428D01*
X0433194Y0163730D02*
X0431660Y0163730D01*
X0431660Y0161428D02*
X0431660Y0166032D01*
X0422452Y0166032D02*
X0419383Y0166032D01*
X0419383Y0163730D02*
X0420917Y0163730D01*
X0414779Y0166032D02*
X0414779Y0161428D01*
X0445472Y0161428D02*
X0445472Y0166032D01*
X0448541Y0166032D01*
X0454571Y0167032D02*
X0456873Y0167032D01*
X0457640Y0166265D01*
X0457640Y0164730D01*
X0456873Y0163963D01*
X0454571Y0163963D01*
X0454571Y0162428D02*
X0454571Y0167032D01*
X0459175Y0166265D02*
X0459175Y0163196D01*
X0459942Y0162428D01*
X0461477Y0162428D01*
X0462244Y0163196D01*
X0462244Y0166265D01*
X0461477Y0167032D01*
X0459942Y0167032D01*
X0459175Y0166265D01*
X0463779Y0167032D02*
X0463779Y0162428D01*
X0465313Y0163963D01*
X0466848Y0162428D01*
X0466848Y0167032D01*
X0468383Y0167032D02*
X0468383Y0162428D01*
X0471452Y0162428D01*
X0472987Y0162428D02*
X0472987Y0167032D01*
X0475289Y0167032D01*
X0476056Y0166265D01*
X0476056Y0164730D01*
X0475289Y0163963D01*
X0472987Y0163963D01*
X0474521Y0163963D02*
X0476056Y0162428D01*
X0477590Y0162428D02*
X0479892Y0162428D01*
X0480660Y0163196D01*
X0480660Y0166265D01*
X0479892Y0167032D01*
X0477590Y0167032D01*
X0477590Y0162428D01*
X0482194Y0162428D02*
X0485264Y0162428D01*
X0483729Y0164730D02*
X0482194Y0164730D01*
X0482194Y0167032D02*
X0482194Y0162428D01*
X0482194Y0167032D02*
X0485264Y0167032D01*
X0486798Y0167032D02*
X0489868Y0167032D01*
X0491402Y0167032D02*
X0491402Y0162428D01*
X0494472Y0162428D01*
X0496006Y0163196D02*
X0496773Y0162428D01*
X0498308Y0162428D01*
X0499075Y0163196D01*
X0496006Y0163196D02*
X0496006Y0166265D01*
X0496773Y0167032D01*
X0498308Y0167032D01*
X0499075Y0166265D01*
X0500610Y0167032D02*
X0503679Y0167032D01*
X0502145Y0167032D02*
X0502145Y0162428D01*
X0494472Y0167032D02*
X0491402Y0167032D01*
X0491402Y0164730D02*
X0492937Y0164730D01*
X0488333Y0162428D02*
X0488333Y0167032D01*
X0471452Y0167032D02*
X0468383Y0167032D01*
X0468383Y0164730D02*
X0469917Y0164730D01*
X0423033Y0245700D02*
X0418429Y0245700D01*
X0418429Y0248002D01*
X0419196Y0248769D01*
X0420731Y0248769D01*
X0421498Y0248002D01*
X0421498Y0245700D01*
X0422266Y0250304D02*
X0419196Y0250304D01*
X0418429Y0251071D01*
X0418429Y0252606D01*
X0419196Y0253373D01*
X0422266Y0253373D01*
X0423033Y0252606D01*
X0423033Y0251071D01*
X0422266Y0250304D01*
X0423033Y0254908D02*
X0421498Y0256442D01*
X0423033Y0257977D01*
X0418429Y0257977D01*
X0418429Y0259512D02*
X0423033Y0259512D01*
X0423033Y0262581D01*
X0423033Y0264116D02*
X0418429Y0264116D01*
X0418429Y0266418D01*
X0419196Y0267185D01*
X0420731Y0267185D01*
X0421498Y0266418D01*
X0421498Y0264116D01*
X0421498Y0265650D02*
X0423033Y0267185D01*
X0422266Y0268720D02*
X0423033Y0269487D01*
X0423033Y0271022D01*
X0422266Y0271789D01*
X0420731Y0271789D01*
X0420731Y0270254D01*
X0419196Y0268720D02*
X0422266Y0268720D01*
X0419196Y0268720D02*
X0418429Y0269487D01*
X0418429Y0271022D01*
X0419196Y0271789D01*
X0418429Y0273324D02*
X0418429Y0275626D01*
X0419196Y0276393D01*
X0422266Y0276393D01*
X0423033Y0275626D01*
X0423033Y0273324D01*
X0418429Y0273324D01*
X0419964Y0277927D02*
X0418429Y0279462D01*
X0423033Y0279462D01*
X0423033Y0277927D02*
X0423033Y0280997D01*
X0418429Y0262581D02*
X0418429Y0259512D01*
X0420731Y0259512D02*
X0420731Y0261046D01*
X0418429Y0254908D02*
X0423033Y0254908D01*
X0478705Y0316472D02*
X0478705Y0318774D01*
X0479472Y0319542D01*
X0481007Y0319542D01*
X0481774Y0318774D01*
X0481774Y0316472D01*
X0483309Y0316472D02*
X0478705Y0316472D01*
X0479472Y0321076D02*
X0482541Y0321076D01*
X0483309Y0321844D01*
X0483309Y0323378D01*
X0482541Y0324146D01*
X0479472Y0324146D01*
X0478705Y0323378D01*
X0478705Y0321844D01*
X0479472Y0321076D01*
X0478705Y0325680D02*
X0483309Y0325680D01*
X0481774Y0327215D01*
X0483309Y0328750D01*
X0478705Y0328750D01*
X0478705Y0330284D02*
X0483309Y0330284D01*
X0483309Y0333354D01*
X0483309Y0334888D02*
X0478705Y0334888D01*
X0478705Y0337190D01*
X0479472Y0337957D01*
X0481007Y0337957D01*
X0481774Y0337190D01*
X0481774Y0334888D01*
X0481774Y0336423D02*
X0483309Y0337957D01*
X0482541Y0339492D02*
X0479472Y0339492D01*
X0478705Y0340259D01*
X0478705Y0341794D01*
X0479472Y0342561D01*
X0481007Y0342561D02*
X0481007Y0341027D01*
X0481007Y0342561D02*
X0482541Y0342561D01*
X0483309Y0341794D01*
X0483309Y0340259D01*
X0482541Y0339492D01*
X0483309Y0344096D02*
X0483309Y0346398D01*
X0482541Y0347165D01*
X0479472Y0347165D01*
X0478705Y0346398D01*
X0478705Y0344096D01*
X0483309Y0344096D01*
X0478705Y0333354D02*
X0478705Y0330284D01*
X0481007Y0330284D02*
X0481007Y0331819D01*
X0404536Y0475200D02*
X0401467Y0475200D01*
X0404536Y0478269D01*
X0404536Y0479037D01*
X0403769Y0479804D01*
X0402234Y0479804D01*
X0401467Y0479037D01*
X0399932Y0479037D02*
X0399165Y0479804D01*
X0397630Y0479804D01*
X0396863Y0479037D01*
X0396863Y0478269D01*
X0397630Y0477502D01*
X0399165Y0477502D01*
X0399932Y0476735D01*
X0399932Y0475967D01*
X0399165Y0475200D01*
X0397630Y0475200D01*
X0396863Y0475967D01*
X0395328Y0475967D02*
X0395328Y0479804D01*
X0392259Y0479804D02*
X0392259Y0475967D01*
X0393026Y0475200D01*
X0394561Y0475200D01*
X0395328Y0475967D01*
X0398398Y0474433D02*
X0398398Y0480571D01*
D13*
X0464164Y0360254D02*
X0463413Y0359503D01*
X0463413Y0356501D01*
X0464164Y0355750D01*
X0465665Y0355750D01*
X0466416Y0356501D01*
X0468017Y0358002D02*
X0471019Y0358002D01*
X0470269Y0360254D02*
X0468017Y0358002D01*
X0466416Y0359503D02*
X0465665Y0360254D01*
X0464164Y0360254D01*
X0470269Y0360254D02*
X0470269Y0355750D01*
X0421370Y0204356D02*
X0422121Y0203606D01*
X0422121Y0202105D01*
X0421370Y0201354D01*
X0421370Y0199753D02*
X0422121Y0199002D01*
X0422121Y0197501D01*
X0421370Y0196750D01*
X0418368Y0196750D01*
X0417617Y0197501D01*
X0417617Y0199002D01*
X0418368Y0199753D01*
X0418368Y0201354D02*
X0417617Y0202105D01*
X0417617Y0203606D01*
X0418368Y0204356D01*
X0419118Y0204356D01*
X0419869Y0203606D01*
X0420620Y0204356D01*
X0421370Y0204356D01*
X0419869Y0203606D02*
X0419869Y0202855D01*
X0362871Y0161000D02*
X0362871Y0007457D01*
X0089249Y0007457D01*
X0089249Y0161000D01*
X0362871Y0161000D01*
X0315792Y0169000D02*
X0315792Y0269000D01*
X0135871Y0269000D01*
X0135871Y0169000D01*
X0315792Y0169000D01*
X0477617Y0076149D02*
X0477617Y0073146D01*
X0479869Y0073146D01*
X0479118Y0074647D01*
X0479118Y0075398D01*
X0479869Y0076149D01*
X0481370Y0076149D01*
X0482121Y0075398D01*
X0482121Y0073897D01*
X0481370Y0073146D01*
X0481370Y0071545D02*
X0482121Y0070794D01*
X0482121Y0069293D01*
X0481370Y0068542D01*
X0478368Y0068542D01*
X0477617Y0069293D01*
X0477617Y0070794D01*
X0478368Y0071545D01*
X0478871Y0609000D02*
X0308871Y0609000D01*
X0308871Y0889000D01*
X0478871Y0889000D01*
X0478871Y0609000D01*
X0432633Y0902750D02*
X0430381Y0902750D01*
X0429631Y0903501D01*
X0429631Y0905753D01*
X0432633Y0905753D02*
X0432633Y0902750D01*
X0428029Y0902750D02*
X0425027Y0902750D01*
X0426528Y0902750D02*
X0426528Y0907254D01*
X0425027Y0905753D01*
X0423425Y0906503D02*
X0420423Y0903501D01*
X0421173Y0902750D01*
X0422675Y0902750D01*
X0423425Y0903501D01*
X0423425Y0906503D01*
X0422675Y0907254D01*
X0421173Y0907254D01*
X0420423Y0906503D01*
X0420423Y0903501D01*
X0418872Y0903501D02*
X0418872Y0902750D01*
X0418121Y0902750D01*
X0418121Y0903501D01*
X0418872Y0903501D01*
X0412331Y0918750D02*
X0409329Y0918750D01*
X0412331Y0921753D01*
X0412331Y0922503D01*
X0411581Y0923254D01*
X0410079Y0923254D01*
X0409329Y0922503D01*
X0406226Y0923254D02*
X0406226Y0918750D01*
X0404725Y0918750D02*
X0407727Y0918750D01*
X0404725Y0921753D02*
X0406226Y0923254D01*
X0403123Y0922503D02*
X0402373Y0923254D01*
X0400872Y0923254D01*
X0400121Y0922503D01*
X0400121Y0919501D01*
X0400872Y0918750D01*
X0402373Y0918750D01*
X0403123Y0919501D01*
X0402373Y0945750D02*
X0403123Y0946501D01*
X0402373Y0945750D02*
X0400872Y0945750D01*
X0400121Y0946501D01*
X0400121Y0949503D01*
X0400872Y0950254D01*
X0402373Y0950254D01*
X0403123Y0949503D01*
X0404725Y0948753D02*
X0406226Y0950254D01*
X0406226Y0945750D01*
X0404725Y0945750D02*
X0407727Y0945750D01*
X0409329Y0948002D02*
X0412331Y0948002D01*
X0411581Y0945750D02*
X0411581Y0950254D01*
X0409329Y0948002D01*
X0418121Y0955750D02*
X0421123Y0955750D01*
X0419622Y0955750D02*
X0419622Y0960254D01*
X0418121Y0958753D01*
X0422725Y0958753D02*
X0424977Y0958753D01*
X0425727Y0958002D01*
X0425727Y0955750D01*
X0422725Y0955750D02*
X0422725Y0958753D01*
X0411581Y0971750D02*
X0412331Y0972501D01*
X0412331Y0973251D01*
X0411581Y0974002D01*
X0410830Y0974002D01*
X0411581Y0974002D02*
X0412331Y0974753D01*
X0412331Y0975503D01*
X0411581Y0976254D01*
X0410079Y0976254D01*
X0409329Y0975503D01*
X0409329Y0972501D02*
X0410079Y0971750D01*
X0411581Y0971750D01*
X0407727Y0971750D02*
X0404725Y0971750D01*
X0406226Y0971750D02*
X0406226Y0976254D01*
X0404725Y0974753D01*
X0403123Y0975503D02*
X0402373Y0976254D01*
X0400872Y0976254D01*
X0400121Y0975503D01*
X0400121Y0972501D01*
X0400872Y0971750D01*
X0402373Y0971750D01*
X0403123Y0972501D01*
X0419622Y0934254D02*
X0419622Y0929750D01*
X0418121Y0929750D02*
X0421123Y0929750D01*
X0422725Y0930501D02*
X0425727Y0933503D01*
X0425727Y0930501D01*
X0424977Y0929750D01*
X0423475Y0929750D01*
X0422725Y0930501D01*
X0422725Y0933503D01*
X0423475Y0934254D01*
X0424977Y0934254D01*
X0425727Y0933503D01*
X0427329Y0932753D02*
X0429581Y0932753D01*
X0430331Y0932002D01*
X0430331Y0930501D01*
X0429581Y0929750D01*
X0427329Y0929750D01*
X0427329Y0928249D02*
X0427329Y0932753D01*
X0419622Y0934254D02*
X0418121Y0932753D01*
X0380019Y0923154D02*
X0380019Y0922403D01*
X0377017Y0919401D01*
X0377017Y0918650D01*
X0375416Y0918650D02*
X0373914Y0920151D01*
X0374665Y0920151D02*
X0372413Y0920151D01*
X0372413Y0918650D02*
X0372413Y0923154D01*
X0374665Y0923154D01*
X0375416Y0922403D01*
X0375416Y0920902D01*
X0374665Y0920151D01*
X0377017Y0923154D02*
X0380019Y0923154D01*
X0371519Y0932050D02*
X0371519Y0936554D01*
X0370018Y0935053D01*
X0368517Y0936554D01*
X0368517Y0932050D01*
X0366916Y0932050D02*
X0363913Y0932050D01*
X0366916Y0935053D01*
X0366916Y0935803D01*
X0366165Y0936554D01*
X0364664Y0936554D01*
X0363913Y0935803D01*
X0364185Y1088250D02*
X0362683Y1088250D01*
X0361933Y1089001D01*
X0364935Y1092003D01*
X0364935Y1089001D01*
X0364185Y1088250D01*
X0361933Y1089001D02*
X0361933Y1092003D01*
X0362683Y1092754D01*
X0364185Y1092754D01*
X0364935Y1092003D01*
X0366537Y1092003D02*
X0367287Y1092754D01*
X0368788Y1092754D01*
X0369539Y1092003D01*
X0366537Y1089001D01*
X0367287Y1088250D01*
X0368788Y1088250D01*
X0369539Y1089001D01*
X0369539Y1092003D01*
X0371140Y1090502D02*
X0374143Y1090502D01*
X0373392Y1092754D02*
X0371140Y1090502D01*
X0373392Y1088250D02*
X0373392Y1092754D01*
X0366537Y1092003D02*
X0366537Y1089001D01*
X0360331Y1090502D02*
X0357329Y1090502D01*
X0359581Y1092754D01*
X0359581Y1088250D01*
X0355727Y1088250D02*
X0355727Y1092754D01*
X0352725Y1092754D02*
X0355727Y1088250D01*
X0352725Y1088250D02*
X0352725Y1092754D01*
X0349622Y1092754D02*
X0349622Y1088250D01*
X0348121Y1088250D02*
X0351123Y1088250D01*
X0348121Y1091253D02*
X0349622Y1092754D01*
X0350373Y1105750D02*
X0348121Y1105750D01*
X0348121Y1110254D01*
X0350373Y1110254D01*
X0351123Y1109503D01*
X0351123Y1106501D01*
X0350373Y1105750D01*
X0352725Y1105750D02*
X0355727Y1108753D01*
X0355727Y1109503D01*
X0354977Y1110254D01*
X0353475Y1110254D01*
X0352725Y1109503D01*
X0352725Y1105750D02*
X0355727Y1105750D01*
X0285121Y0941753D02*
X0285121Y0938750D01*
X0285121Y0940251D02*
X0280617Y0940251D01*
X0282118Y0938750D01*
X0275121Y0937606D02*
X0275121Y0936105D01*
X0274370Y0935354D01*
X0272869Y0936855D02*
X0272869Y0937606D01*
X0273620Y0938356D01*
X0274370Y0938356D01*
X0275121Y0937606D01*
X0272869Y0937606D02*
X0272118Y0938356D01*
X0271368Y0938356D01*
X0270617Y0937606D01*
X0270617Y0936105D01*
X0271368Y0935354D01*
X0275121Y0921856D02*
X0275121Y0918854D01*
X0275121Y0920355D02*
X0270617Y0920355D01*
X0272118Y0918854D01*
X0272118Y0896253D02*
X0271368Y0896253D01*
X0270617Y0895502D01*
X0270617Y0894001D01*
X0271368Y0893250D01*
X0272118Y0896253D02*
X0275121Y0893250D01*
X0275121Y0896253D01*
X0281368Y0876753D02*
X0282118Y0876753D01*
X0282869Y0876002D01*
X0283620Y0876753D01*
X0284370Y0876753D01*
X0285121Y0876002D01*
X0285121Y0874501D01*
X0284370Y0873750D01*
X0282869Y0875251D02*
X0282869Y0876002D01*
X0281368Y0876753D02*
X0280617Y0876002D01*
X0280617Y0874501D01*
X0281368Y0873750D01*
X0280665Y0861254D02*
X0281416Y0860503D01*
X0281416Y0859002D01*
X0280665Y0858251D01*
X0278413Y0858251D01*
X0278413Y0856750D02*
X0278413Y0861254D01*
X0280665Y0861254D01*
X0279914Y0858251D02*
X0281416Y0856750D01*
X0283017Y0859002D02*
X0286019Y0859002D01*
X0285269Y0861254D02*
X0283017Y0859002D01*
X0285269Y0856750D02*
X0285269Y0861254D01*
X0210121Y1008042D02*
X0210121Y1010294D01*
X0209370Y1011045D01*
X0206368Y1011045D01*
X0205617Y1010294D01*
X0205617Y1008042D01*
X0210121Y1008042D01*
X0210121Y1012646D02*
X0210121Y1015649D01*
X0210121Y1014147D02*
X0205617Y1014147D01*
X0207118Y1012646D01*
X0192621Y1014898D02*
X0188117Y1014898D01*
X0190369Y1012646D01*
X0190369Y1015649D01*
X0191870Y1011045D02*
X0192621Y1010294D01*
X0192621Y1008793D01*
X0191870Y1008042D01*
X0188868Y1011045D01*
X0191870Y1011045D01*
X0188868Y1011045D02*
X0188117Y1010294D01*
X0188117Y1008793D01*
X0188868Y1008042D01*
X0191870Y1008042D01*
X0191870Y1006441D02*
X0192621Y1005690D01*
X0192621Y1004189D01*
X0191870Y1003438D01*
X0188868Y1006441D01*
X0191870Y1006441D01*
X0188868Y1006441D02*
X0188117Y1005690D01*
X0188117Y1004189D01*
X0188868Y1003438D01*
X0191870Y1003438D01*
X0190369Y1001837D02*
X0190369Y0998834D01*
X0188117Y1001086D01*
X0192621Y1001086D01*
X0192621Y0997233D02*
X0188117Y0997233D01*
X0188117Y0994230D02*
X0192621Y0997233D01*
X0192621Y0994230D02*
X0188117Y0994230D01*
X0188117Y0991128D02*
X0192621Y0991128D01*
X0192621Y0992629D02*
X0192621Y0989626D01*
X0189618Y0989626D02*
X0188117Y0991128D01*
X0171519Y0959254D02*
X0171519Y0958503D01*
X0168517Y0955501D01*
X0168517Y0954750D01*
X0166916Y0955501D02*
X0166165Y0954750D01*
X0164664Y0954750D01*
X0163913Y0955501D01*
X0163913Y0958503D01*
X0164664Y0959254D01*
X0166165Y0959254D01*
X0166916Y0958503D01*
X0168517Y0959254D02*
X0171519Y0959254D01*
X0170769Y0938254D02*
X0171519Y0937503D01*
X0168517Y0934501D01*
X0169268Y0933750D01*
X0170769Y0933750D01*
X0171519Y0934501D01*
X0171519Y0937503D01*
X0170769Y0938254D02*
X0169268Y0938254D01*
X0168517Y0937503D01*
X0168517Y0934501D01*
X0166916Y0933750D02*
X0163913Y0933750D01*
X0165414Y0933750D02*
X0165414Y0938254D01*
X0163913Y0936753D01*
X0162312Y0937503D02*
X0161561Y0938254D01*
X0160060Y0938254D01*
X0159309Y0937503D01*
X0159309Y0934501D01*
X0160060Y0933750D01*
X0161561Y0933750D01*
X0162312Y0934501D01*
X0153519Y0929002D02*
X0153519Y0927501D01*
X0152769Y0926750D01*
X0150517Y0926750D01*
X0150517Y0925249D02*
X0150517Y0929753D01*
X0152769Y0929753D01*
X0153519Y0929002D01*
X0148916Y0930503D02*
X0145913Y0927501D01*
X0146664Y0926750D01*
X0148165Y0926750D01*
X0148916Y0927501D01*
X0148916Y0930503D01*
X0148165Y0931254D01*
X0146664Y0931254D01*
X0145913Y0930503D01*
X0145913Y0927501D01*
X0144312Y0926750D02*
X0141309Y0926750D01*
X0142810Y0926750D02*
X0142810Y0931254D01*
X0141309Y0929753D01*
X0145913Y0949750D02*
X0148916Y0949750D01*
X0147414Y0949750D02*
X0147414Y0954254D01*
X0145913Y0952753D01*
X0150517Y0952753D02*
X0152769Y0952753D01*
X0153519Y0952002D01*
X0153519Y0949750D01*
X0150517Y0949750D02*
X0150517Y0952753D01*
X0151268Y0970750D02*
X0153519Y0970750D01*
X0153519Y0973753D01*
X0150517Y0973753D02*
X0150517Y0971501D01*
X0151268Y0970750D01*
X0148916Y0970750D02*
X0145913Y0970750D01*
X0147414Y0970750D02*
X0147414Y0975254D01*
X0145913Y0973753D01*
X0144312Y0974503D02*
X0141309Y0971501D01*
X0142060Y0970750D01*
X0143561Y0970750D01*
X0144312Y0971501D01*
X0144312Y0974503D01*
X0143561Y0975254D01*
X0142060Y0975254D01*
X0141309Y0974503D01*
X0141309Y0971501D01*
X0139758Y0971501D02*
X0139758Y0970750D01*
X0139007Y0970750D01*
X0139007Y0971501D01*
X0139758Y0971501D01*
X0160060Y0915254D02*
X0159309Y0914503D01*
X0159309Y0911501D01*
X0160060Y0910750D01*
X0161561Y0910750D01*
X0162312Y0911501D01*
X0163913Y0910750D02*
X0166916Y0910750D01*
X0165414Y0910750D02*
X0165414Y0915254D01*
X0163913Y0913753D01*
X0162312Y0914503D02*
X0161561Y0915254D01*
X0160060Y0915254D01*
X0168517Y0913753D02*
X0170018Y0915254D01*
X0170018Y0910750D01*
X0168517Y0910750D02*
X0171519Y0910750D01*
X0162269Y0893154D02*
X0163019Y0892403D01*
X0163019Y0891653D01*
X0160017Y0888650D01*
X0163019Y0888650D01*
X0162269Y0893154D02*
X0160768Y0893154D01*
X0160017Y0892403D01*
X0158416Y0892403D02*
X0157665Y0893154D01*
X0155413Y0893154D01*
X0155413Y0888650D01*
X0155413Y0890151D02*
X0157665Y0890151D01*
X0158416Y0890902D01*
X0158416Y0892403D01*
X0156914Y0890151D02*
X0158416Y0888650D01*
X0154519Y0902050D02*
X0154519Y0906554D01*
X0153018Y0905053D01*
X0151517Y0906554D01*
X0151517Y0902050D01*
X0149916Y0902050D02*
X0146913Y0902050D01*
X0149916Y0905053D01*
X0149916Y0905803D01*
X0149165Y0906554D01*
X0147664Y0906554D01*
X0146913Y0905803D01*
X0099623Y0929750D02*
X0096621Y0929750D01*
X0098122Y0929750D02*
X0098122Y0934254D01*
X0096621Y0932753D01*
X0095477Y0939750D02*
X0093975Y0939750D01*
X0093225Y0940501D01*
X0094726Y0942002D02*
X0095477Y0942002D01*
X0096227Y0941251D01*
X0096227Y0940501D01*
X0095477Y0939750D01*
X0095477Y0942002D02*
X0096227Y0942753D01*
X0096227Y0943503D01*
X0095477Y0944254D01*
X0093975Y0944254D01*
X0093225Y0943503D01*
X0079727Y0939750D02*
X0076725Y0939750D01*
X0078226Y0939750D02*
X0078226Y0944254D01*
X0076725Y0942753D01*
X0054123Y0942753D02*
X0054123Y0943503D01*
X0053373Y0944254D01*
X0051872Y0944254D01*
X0051121Y0943503D01*
X0054123Y0942753D02*
X0051121Y0939750D01*
X0054123Y0939750D01*
X0034623Y0933503D02*
X0034623Y0932753D01*
X0033873Y0932002D01*
X0034623Y0931251D01*
X0034623Y0930501D01*
X0033873Y0929750D01*
X0032372Y0929750D01*
X0031621Y0930501D01*
X0033122Y0932002D02*
X0033873Y0932002D01*
X0034623Y0933503D02*
X0033873Y0934254D01*
X0032372Y0934254D01*
X0031621Y0933503D01*
X0019121Y0933105D02*
X0018370Y0932354D01*
X0019121Y0933105D02*
X0019121Y0934606D01*
X0018370Y0935356D01*
X0017620Y0935356D01*
X0016869Y0934606D01*
X0016869Y0933855D01*
X0016869Y0934606D02*
X0016118Y0935356D01*
X0015368Y0935356D01*
X0014617Y0934606D01*
X0014617Y0933105D01*
X0015368Y0932354D01*
X0015368Y0930753D02*
X0016869Y0930753D01*
X0017620Y0930002D01*
X0017620Y0927750D01*
X0019121Y0927750D02*
X0014617Y0927750D01*
X0014617Y0930002D01*
X0015368Y0930753D01*
X0017620Y0929251D02*
X0019121Y0930753D01*
X0032871Y0892000D02*
X0032871Y0612000D01*
X0202871Y0612000D01*
X0202871Y0892000D01*
X0032871Y0892000D01*
X0190309Y1048250D02*
X0190309Y1052754D01*
X0190309Y1050502D02*
X0193312Y1050502D01*
X0194913Y1049751D02*
X0194913Y1052754D01*
X0193312Y1052754D02*
X0193312Y1048250D01*
X0194913Y1049751D02*
X0196414Y1048250D01*
X0197916Y1049751D01*
X0197916Y1052754D01*
X0199517Y1050502D02*
X0202519Y1050502D01*
X0201018Y1052003D02*
X0201018Y1049001D01*
X0438117Y1090438D02*
X0442621Y1090438D01*
X0440369Y1090438D02*
X0440369Y1093441D01*
X0441120Y1095042D02*
X0438117Y1095042D01*
X0438117Y1093441D02*
X0442621Y1093441D01*
X0441120Y1095042D02*
X0442621Y1096543D01*
X0441120Y1098045D01*
X0438117Y1098045D01*
X0440369Y1099646D02*
X0440369Y1102649D01*
X0055226Y0212254D02*
X0055226Y0207750D01*
X0053725Y0207750D02*
X0056727Y0207750D01*
X0053725Y0210753D02*
X0055226Y0212254D01*
X0052123Y0211503D02*
X0052123Y0210002D01*
X0051373Y0209251D01*
X0049121Y0209251D01*
X0049121Y0207750D02*
X0049121Y0212254D01*
X0051373Y0212254D01*
X0052123Y0211503D01*
X0050622Y0209251D02*
X0052123Y0207750D01*
X0052123Y0194254D02*
X0052123Y0191251D01*
X0050622Y0189750D01*
X0049121Y0191251D01*
X0049121Y0194254D01*
X0053725Y0192753D02*
X0053725Y0189750D01*
X0053725Y0192002D02*
X0056727Y0192002D01*
X0056727Y0192753D02*
X0056727Y0189750D01*
X0058329Y0189750D02*
X0058329Y0194254D01*
X0060581Y0194254D01*
X0061331Y0193503D01*
X0061331Y0192002D01*
X0060581Y0191251D01*
X0058329Y0191251D01*
X0059830Y0191251D02*
X0061331Y0189750D01*
X0062933Y0189750D02*
X0064434Y0189750D01*
X0063683Y0189750D02*
X0063683Y0194254D01*
X0062933Y0194254D02*
X0064434Y0194254D01*
X0066002Y0193503D02*
X0066002Y0192753D01*
X0066753Y0192002D01*
X0068254Y0192002D01*
X0069004Y0191251D01*
X0069004Y0190501D01*
X0068254Y0189750D01*
X0066753Y0189750D01*
X0066002Y0190501D01*
X0066002Y0193503D02*
X0066753Y0194254D01*
X0068254Y0194254D01*
X0069004Y0193503D01*
X0070606Y0194254D02*
X0073608Y0194254D01*
X0072107Y0194254D02*
X0072107Y0189750D01*
X0075210Y0190501D02*
X0075960Y0189750D01*
X0077462Y0189750D01*
X0078212Y0190501D01*
X0078212Y0193503D01*
X0077462Y0194254D01*
X0075960Y0194254D01*
X0075210Y0193503D01*
X0075210Y0190501D01*
X0079814Y0191251D02*
X0082066Y0191251D01*
X0082816Y0192002D01*
X0082816Y0193503D01*
X0082066Y0194254D01*
X0079814Y0194254D01*
X0079814Y0189750D01*
X0081315Y0191251D02*
X0082816Y0189750D01*
X0084418Y0192002D02*
X0087420Y0192002D01*
X0089022Y0190501D02*
X0089022Y0189750D01*
X0089022Y0190501D02*
X0092024Y0193503D01*
X0092024Y0194254D01*
X0089022Y0194254D01*
X0094376Y0190501D02*
X0094376Y0189750D01*
X0095127Y0189750D01*
X0095127Y0190501D01*
X0094376Y0190501D01*
X0095127Y0189750D02*
X0093625Y0188249D01*
X0096695Y0190501D02*
X0097445Y0189750D01*
X0098947Y0189750D01*
X0099697Y0190501D01*
X0099697Y0192002D01*
X0098947Y0192753D01*
X0098196Y0192753D01*
X0096695Y0192002D01*
X0096695Y0194254D01*
X0099697Y0194254D01*
X0056727Y0192753D02*
X0055226Y0194254D01*
X0053725Y0192753D01*
D14*
X0147935Y0545850D02*
X0150037Y0545850D01*
X0151088Y0546901D01*
X0153330Y0545850D02*
X0157533Y0545850D01*
X0155432Y0545850D02*
X0155432Y0552155D01*
X0153330Y0550054D01*
X0151088Y0551104D02*
X0150037Y0552155D01*
X0147935Y0552155D01*
X0146884Y0551104D01*
X0146884Y0546901D01*
X0147935Y0545850D01*
X0159775Y0545850D02*
X0159775Y0546901D01*
X0163979Y0551104D01*
X0163979Y0552155D01*
X0159775Y0552155D01*
X0132979Y0579350D02*
X0132979Y0583554D01*
X0128775Y0583554D02*
X0128775Y0580401D01*
X0129826Y0579350D01*
X0132979Y0579350D01*
X0126533Y0579350D02*
X0122330Y0579350D01*
X0124432Y0579350D02*
X0124432Y0585655D01*
X0122330Y0583554D01*
X0120158Y0580401D02*
X0120158Y0579350D01*
X0119107Y0579350D01*
X0119107Y0580401D01*
X0120158Y0580401D01*
X0163381Y0982850D02*
X0165483Y0982850D01*
X0166533Y0983901D01*
X0168775Y0983901D02*
X0168775Y0984952D01*
X0169826Y0986003D01*
X0171928Y0986003D01*
X0172979Y0984952D01*
X0172979Y0983901D01*
X0171928Y0982850D01*
X0169826Y0982850D01*
X0168775Y0983901D01*
X0169826Y0986003D02*
X0168775Y0987054D01*
X0168775Y0988104D01*
X0169826Y0989155D01*
X0171928Y0989155D01*
X0172979Y0988104D01*
X0172979Y0987054D01*
X0171928Y0986003D01*
X0166533Y0988104D02*
X0165483Y0989155D01*
X0163381Y0989155D01*
X0162330Y0988104D01*
X0162330Y0983901D01*
X0163381Y0982850D01*
X0132979Y1041350D02*
X0132979Y1045554D01*
X0128775Y1045554D02*
X0128775Y1042401D01*
X0129826Y1041350D01*
X0132979Y1041350D01*
X0126533Y1041350D02*
X0122330Y1041350D01*
X0124432Y1041350D02*
X0124432Y1047655D01*
X0122330Y1045554D01*
X0330221Y1063901D02*
X0331272Y1062850D01*
X0333374Y1062850D01*
X0334424Y1063901D01*
X0336666Y1063901D02*
X0337717Y1062850D01*
X0339819Y1062850D01*
X0340870Y1063901D01*
X0340870Y1068104D01*
X0339819Y1069155D01*
X0337717Y1069155D01*
X0336666Y1068104D01*
X0336666Y1067054D01*
X0337717Y1066003D01*
X0340870Y1066003D01*
X0334424Y1068104D02*
X0333374Y1069155D01*
X0331272Y1069155D01*
X0330221Y1068104D01*
X0330221Y1063901D01*
X0372323Y1010655D02*
X0372323Y1004350D01*
X0374424Y1004350D02*
X0370221Y1004350D01*
X0370221Y1008554D02*
X0372323Y1010655D01*
X0376666Y1008554D02*
X0376666Y1005401D01*
X0377717Y1004350D01*
X0380870Y1004350D01*
X0380870Y1008554D01*
X0373432Y0579655D02*
X0373432Y0573350D01*
X0375533Y0573350D02*
X0371330Y0573350D01*
X0369158Y0573350D02*
X0368107Y0573350D01*
X0368107Y0574401D01*
X0369158Y0574401D01*
X0369158Y0573350D01*
X0371330Y0577554D02*
X0373432Y0579655D01*
X0377775Y0577554D02*
X0377775Y0574401D01*
X0378826Y0573350D01*
X0381979Y0573350D01*
X0381979Y0577554D01*
X0396935Y0546155D02*
X0395884Y0545104D01*
X0395884Y0540901D01*
X0396935Y0539850D01*
X0399037Y0539850D01*
X0400088Y0540901D01*
X0402330Y0539850D02*
X0406533Y0539850D01*
X0404432Y0539850D02*
X0404432Y0546155D01*
X0402330Y0544054D01*
X0400088Y0545104D02*
X0399037Y0546155D01*
X0396935Y0546155D01*
X0408775Y0545104D02*
X0408775Y0544054D01*
X0409826Y0543003D01*
X0411928Y0543003D01*
X0412979Y0541952D01*
X0412979Y0540901D01*
X0411928Y0539850D01*
X0409826Y0539850D01*
X0408775Y0540901D01*
X0408775Y0541952D01*
X0409826Y0543003D01*
X0411928Y0543003D02*
X0412979Y0544054D01*
X0412979Y0545104D01*
X0411928Y0546155D01*
X0409826Y0546155D01*
X0408775Y0545104D01*
X0422281Y0408455D02*
X0421230Y0407404D01*
X0421230Y0403201D01*
X0422281Y0402150D01*
X0424383Y0402150D01*
X0425433Y0403201D01*
X0427675Y0402150D02*
X0431879Y0402150D01*
X0429777Y0402150D02*
X0429777Y0408455D01*
X0427675Y0406354D01*
X0425433Y0407404D02*
X0424383Y0408455D01*
X0422281Y0408455D01*
X0366321Y0246099D02*
X0366321Y0241895D01*
X0362117Y0246099D01*
X0361066Y0246099D01*
X0360015Y0245048D01*
X0360015Y0242946D01*
X0361066Y0241895D01*
X0361066Y0239654D02*
X0360015Y0238603D01*
X0360015Y0236501D01*
X0361066Y0235450D01*
X0365270Y0235450D01*
X0366321Y0236501D01*
X0366321Y0238603D01*
X0365270Y0239654D01*
X0440372Y0077855D02*
X0439321Y0076804D01*
X0439321Y0072601D01*
X0440372Y0071550D01*
X0442474Y0071550D01*
X0443524Y0072601D01*
X0445766Y0072601D02*
X0446817Y0071550D01*
X0448919Y0071550D01*
X0449970Y0072601D01*
X0449970Y0073652D01*
X0448919Y0074703D01*
X0445766Y0074703D01*
X0445766Y0072601D01*
X0445766Y0074703D02*
X0447868Y0076804D01*
X0449970Y0077855D01*
X0443524Y0076804D02*
X0442474Y0077855D01*
X0440372Y0077855D01*
D15*
X0416121Y0055000D03*
X0456621Y0425000D03*
D16*
X0382871Y0212250D03*
D17*
X0431371Y0211300D02*
X0433871Y0211300D01*
X0436371Y0211300D01*
X0436371Y0208800D02*
X0433871Y0208800D01*
X0431371Y0208800D01*
X0463371Y0065200D02*
X0465871Y0065200D01*
X0468371Y0065200D01*
X0468371Y0062700D02*
X0465871Y0062700D01*
X0463371Y0062700D01*
X0460071Y0369500D02*
X0460071Y0372000D01*
X0460071Y0374500D01*
X0457571Y0374500D02*
X0457571Y0372000D01*
X0457571Y0369500D01*
D18*
X0410871Y0280276D02*
X0068351Y0280276D01*
X0068351Y0485000D01*
X0410871Y0485000D01*
X0410871Y0280276D01*
X0198812Y1063900D02*
X0198812Y1063950D01*
X0198845Y1063983D01*
X0198845Y1064000D01*
X0198812Y1063950D02*
X0198779Y1063983D01*
X0198779Y1064000D01*
X0198753Y1063983D02*
X0198687Y1063917D01*
X0198703Y1063900D01*
X0198737Y1063900D01*
X0198753Y1063917D01*
X0198753Y1063983D01*
X0198737Y1064000D01*
X0198703Y1064000D01*
X0198687Y1063983D01*
X0198687Y1063917D01*
X0198661Y1063900D02*
X0198595Y1063900D01*
X0198661Y1063967D01*
X0198661Y1063983D01*
X0198645Y1064000D01*
X0198611Y1064000D01*
X0198595Y1063983D01*
X0198569Y1063950D02*
X0198503Y1063950D01*
X0198477Y1063900D02*
X0198410Y1063900D01*
X0198385Y1063917D02*
X0198385Y1063983D01*
X0198368Y1064000D01*
X0198318Y1064000D01*
X0198318Y1063900D01*
X0198368Y1063900D01*
X0198385Y1063917D01*
X0198410Y1063967D02*
X0198444Y1064000D01*
X0198444Y1063900D01*
X0198293Y1063900D02*
X0198293Y1063967D01*
X0198260Y1064000D01*
X0198226Y1063967D01*
X0198226Y1063900D01*
X0198226Y1063950D02*
X0198293Y1063950D01*
X0198201Y1063950D02*
X0198184Y1063933D01*
X0198134Y1063933D01*
X0198109Y1063950D02*
X0198092Y1063933D01*
X0198042Y1063933D01*
X0198042Y1063900D02*
X0198042Y1064000D01*
X0198092Y1064000D01*
X0198109Y1063983D01*
X0198109Y1063950D01*
X0198134Y1063900D02*
X0198134Y1064000D01*
X0198184Y1064000D01*
X0198201Y1063983D01*
X0198201Y1063950D01*
X0198017Y1064000D02*
X0197950Y1064000D01*
X0197983Y1064000D02*
X0197983Y1063900D01*
X0426871Y1098079D02*
X0426871Y1098146D01*
X0426871Y1098171D02*
X0426871Y1098221D01*
X0426887Y1098238D01*
X0426921Y1098238D01*
X0426938Y1098221D01*
X0426938Y1098171D01*
X0426971Y1098171D02*
X0426871Y1098171D01*
X0426871Y1098113D02*
X0426971Y1098113D01*
X0426971Y1098263D02*
X0426871Y1098263D01*
X0426871Y1098313D01*
X0426887Y1098330D01*
X0426921Y1098330D01*
X0426938Y1098313D01*
X0426938Y1098263D01*
X0426921Y1098355D02*
X0426921Y1098422D01*
X0426904Y1098422D02*
X0426971Y1098422D01*
X0426971Y1098448D02*
X0426971Y1098498D01*
X0426954Y1098514D01*
X0426887Y1098514D01*
X0426871Y1098498D01*
X0426871Y1098448D01*
X0426971Y1098448D01*
X0426904Y1098422D02*
X0426871Y1098389D01*
X0426904Y1098355D01*
X0426971Y1098355D01*
X0426971Y1098540D02*
X0426971Y1098606D01*
X0426971Y1098573D02*
X0426871Y1098573D01*
X0426904Y1098540D01*
X0426921Y1098632D02*
X0426921Y1098698D01*
X0426887Y1098724D02*
X0426871Y1098740D01*
X0426871Y1098774D01*
X0426887Y1098790D01*
X0426904Y1098790D01*
X0426971Y1098724D01*
X0426971Y1098790D01*
X0426954Y1098816D02*
X0426887Y1098883D01*
X0426954Y1098883D01*
X0426971Y1098866D01*
X0426971Y1098833D01*
X0426954Y1098816D01*
X0426887Y1098816D01*
X0426871Y1098833D01*
X0426871Y1098866D01*
X0426887Y1098883D01*
X0426887Y1098908D02*
X0426921Y1098941D01*
X0426971Y1098941D01*
X0426921Y1098941D02*
X0426887Y1098975D01*
X0426871Y1098975D01*
X0426871Y1098908D02*
X0426887Y1098908D01*
D19*
X0414871Y0967000D02*
X0414871Y0962000D01*
X0414871Y0957000D01*
X0411371Y0957000D02*
X0411371Y0962000D01*
X0411371Y0967000D01*
X0411371Y0941000D02*
X0411371Y0936000D01*
X0411371Y0931000D01*
X0414871Y0931000D02*
X0414871Y0936000D01*
X0414871Y0941000D01*
X0414871Y0914000D02*
X0414871Y0909000D01*
X0414871Y0904000D01*
X0411371Y0904000D02*
X0411371Y0909000D01*
X0411371Y0914000D01*
X0363371Y1013500D02*
X0363371Y1021000D01*
X0363371Y1028500D01*
X0359871Y1028500D02*
X0359871Y1021000D01*
X0359871Y1013500D01*
X0390371Y0577500D02*
X0390371Y0570000D01*
X0390371Y0562500D01*
X0393871Y0562500D02*
X0393871Y0570000D01*
X0393871Y0577500D01*
X0161371Y0920000D02*
X0161371Y0925000D01*
X0161371Y0930000D01*
X0157871Y0930000D02*
X0157871Y0925000D01*
X0157871Y0920000D01*
X0157871Y0943000D02*
X0157871Y0948000D01*
X0157871Y0953000D01*
X0161371Y0953000D02*
X0161371Y0948000D01*
X0161371Y0943000D01*
X0161371Y0964000D02*
X0161371Y0969000D01*
X0161371Y0974000D01*
X0157871Y0974000D02*
X0157871Y0969000D01*
X0157871Y0964000D01*
X0144871Y1023500D02*
X0144871Y1031000D01*
X0144871Y1038500D01*
X0141371Y1038500D02*
X0141371Y1031000D01*
X0141371Y1023500D01*
X0141371Y0583500D02*
X0141371Y0576000D01*
X0141371Y0568500D01*
X0144871Y0568500D02*
X0144871Y0576000D01*
X0144871Y0583500D01*
D20*
X0025121Y0933750D03*
X0025121Y0940250D03*
D21*
X0026121Y0937000D03*
D22*
X0274621Y0867250D03*
X0281121Y0867250D03*
D23*
X0277871Y0868250D03*
D24*
X0198871Y1014500D03*
D25*
X0198871Y1020750D03*
X0198871Y0997250D03*
D26*
X0350371Y1099000D03*
D27*
X0344121Y1099000D03*
X0367621Y1099000D03*
M02*
