G75*
%MOIN*%
%OFA0B0*%
%FSLAX25Y25*%
%IPPOS*%
%LPD*%
%AMOC8*
5,1,8,0,0,1.08239X$1,22.5*
%
%ADD10C,0.00000*%
%ADD11C,0.10000*%
%ADD12C,0.10039*%
%ADD13R,0.06496X0.06496*%
%ADD14C,0.06496*%
%ADD15C,0.10000*%
%ADD16OC8,0.10000*%
%ADD17OC8,0.05200*%
%ADD18R,0.12661X0.12661*%
%ADD19C,0.12661*%
%ADD20C,0.07087*%
%ADD21C,0.11850*%
%ADD22OC8,0.06000*%
%ADD23C,0.06000*%
%ADD24OC8,0.07050*%
%ADD25C,0.06600*%
D10*
X0015871Y0001000D02*
X0015871Y0494701D01*
X0498792Y0494701D01*
X0499792Y0001000D01*
X0015871Y0001000D01*
X0033396Y0044000D02*
X0033398Y0044183D01*
X0033405Y0044367D01*
X0033416Y0044550D01*
X0033432Y0044733D01*
X0033452Y0044915D01*
X0033477Y0045097D01*
X0033506Y0045278D01*
X0033540Y0045458D01*
X0033578Y0045638D01*
X0033620Y0045816D01*
X0033667Y0045994D01*
X0033718Y0046170D01*
X0033773Y0046345D01*
X0033833Y0046518D01*
X0033897Y0046690D01*
X0033965Y0046861D01*
X0034037Y0047029D01*
X0034114Y0047196D01*
X0034194Y0047361D01*
X0034279Y0047524D01*
X0034367Y0047684D01*
X0034459Y0047843D01*
X0034556Y0047999D01*
X0034656Y0048153D01*
X0034760Y0048304D01*
X0034867Y0048453D01*
X0034978Y0048599D01*
X0035093Y0048742D01*
X0035211Y0048882D01*
X0035332Y0049020D01*
X0035457Y0049154D01*
X0035585Y0049286D01*
X0035717Y0049414D01*
X0035851Y0049539D01*
X0035989Y0049660D01*
X0036129Y0049778D01*
X0036272Y0049893D01*
X0036418Y0050004D01*
X0036567Y0050111D01*
X0036718Y0050215D01*
X0036872Y0050315D01*
X0037028Y0050412D01*
X0037187Y0050504D01*
X0037347Y0050592D01*
X0037510Y0050677D01*
X0037675Y0050757D01*
X0037842Y0050834D01*
X0038010Y0050906D01*
X0038181Y0050974D01*
X0038353Y0051038D01*
X0038526Y0051098D01*
X0038701Y0051153D01*
X0038877Y0051204D01*
X0039055Y0051251D01*
X0039233Y0051293D01*
X0039413Y0051331D01*
X0039593Y0051365D01*
X0039774Y0051394D01*
X0039956Y0051419D01*
X0040138Y0051439D01*
X0040321Y0051455D01*
X0040504Y0051466D01*
X0040688Y0051473D01*
X0040871Y0051475D01*
X0041054Y0051473D01*
X0041238Y0051466D01*
X0041421Y0051455D01*
X0041604Y0051439D01*
X0041786Y0051419D01*
X0041968Y0051394D01*
X0042149Y0051365D01*
X0042329Y0051331D01*
X0042509Y0051293D01*
X0042687Y0051251D01*
X0042865Y0051204D01*
X0043041Y0051153D01*
X0043216Y0051098D01*
X0043389Y0051038D01*
X0043561Y0050974D01*
X0043732Y0050906D01*
X0043900Y0050834D01*
X0044067Y0050757D01*
X0044232Y0050677D01*
X0044395Y0050592D01*
X0044555Y0050504D01*
X0044714Y0050412D01*
X0044870Y0050315D01*
X0045024Y0050215D01*
X0045175Y0050111D01*
X0045324Y0050004D01*
X0045470Y0049893D01*
X0045613Y0049778D01*
X0045753Y0049660D01*
X0045891Y0049539D01*
X0046025Y0049414D01*
X0046157Y0049286D01*
X0046285Y0049154D01*
X0046410Y0049020D01*
X0046531Y0048882D01*
X0046649Y0048742D01*
X0046764Y0048599D01*
X0046875Y0048453D01*
X0046982Y0048304D01*
X0047086Y0048153D01*
X0047186Y0047999D01*
X0047283Y0047843D01*
X0047375Y0047684D01*
X0047463Y0047524D01*
X0047548Y0047361D01*
X0047628Y0047196D01*
X0047705Y0047029D01*
X0047777Y0046861D01*
X0047845Y0046690D01*
X0047909Y0046518D01*
X0047969Y0046345D01*
X0048024Y0046170D01*
X0048075Y0045994D01*
X0048122Y0045816D01*
X0048164Y0045638D01*
X0048202Y0045458D01*
X0048236Y0045278D01*
X0048265Y0045097D01*
X0048290Y0044915D01*
X0048310Y0044733D01*
X0048326Y0044550D01*
X0048337Y0044367D01*
X0048344Y0044183D01*
X0048346Y0044000D01*
X0048344Y0043817D01*
X0048337Y0043633D01*
X0048326Y0043450D01*
X0048310Y0043267D01*
X0048290Y0043085D01*
X0048265Y0042903D01*
X0048236Y0042722D01*
X0048202Y0042542D01*
X0048164Y0042362D01*
X0048122Y0042184D01*
X0048075Y0042006D01*
X0048024Y0041830D01*
X0047969Y0041655D01*
X0047909Y0041482D01*
X0047845Y0041310D01*
X0047777Y0041139D01*
X0047705Y0040971D01*
X0047628Y0040804D01*
X0047548Y0040639D01*
X0047463Y0040476D01*
X0047375Y0040316D01*
X0047283Y0040157D01*
X0047186Y0040001D01*
X0047086Y0039847D01*
X0046982Y0039696D01*
X0046875Y0039547D01*
X0046764Y0039401D01*
X0046649Y0039258D01*
X0046531Y0039118D01*
X0046410Y0038980D01*
X0046285Y0038846D01*
X0046157Y0038714D01*
X0046025Y0038586D01*
X0045891Y0038461D01*
X0045753Y0038340D01*
X0045613Y0038222D01*
X0045470Y0038107D01*
X0045324Y0037996D01*
X0045175Y0037889D01*
X0045024Y0037785D01*
X0044870Y0037685D01*
X0044714Y0037588D01*
X0044555Y0037496D01*
X0044395Y0037408D01*
X0044232Y0037323D01*
X0044067Y0037243D01*
X0043900Y0037166D01*
X0043732Y0037094D01*
X0043561Y0037026D01*
X0043389Y0036962D01*
X0043216Y0036902D01*
X0043041Y0036847D01*
X0042865Y0036796D01*
X0042687Y0036749D01*
X0042509Y0036707D01*
X0042329Y0036669D01*
X0042149Y0036635D01*
X0041968Y0036606D01*
X0041786Y0036581D01*
X0041604Y0036561D01*
X0041421Y0036545D01*
X0041238Y0036534D01*
X0041054Y0036527D01*
X0040871Y0036525D01*
X0040688Y0036527D01*
X0040504Y0036534D01*
X0040321Y0036545D01*
X0040138Y0036561D01*
X0039956Y0036581D01*
X0039774Y0036606D01*
X0039593Y0036635D01*
X0039413Y0036669D01*
X0039233Y0036707D01*
X0039055Y0036749D01*
X0038877Y0036796D01*
X0038701Y0036847D01*
X0038526Y0036902D01*
X0038353Y0036962D01*
X0038181Y0037026D01*
X0038010Y0037094D01*
X0037842Y0037166D01*
X0037675Y0037243D01*
X0037510Y0037323D01*
X0037347Y0037408D01*
X0037187Y0037496D01*
X0037028Y0037588D01*
X0036872Y0037685D01*
X0036718Y0037785D01*
X0036567Y0037889D01*
X0036418Y0037996D01*
X0036272Y0038107D01*
X0036129Y0038222D01*
X0035989Y0038340D01*
X0035851Y0038461D01*
X0035717Y0038586D01*
X0035585Y0038714D01*
X0035457Y0038846D01*
X0035332Y0038980D01*
X0035211Y0039118D01*
X0035093Y0039258D01*
X0034978Y0039401D01*
X0034867Y0039547D01*
X0034760Y0039696D01*
X0034656Y0039847D01*
X0034556Y0040001D01*
X0034459Y0040157D01*
X0034367Y0040316D01*
X0034279Y0040476D01*
X0034194Y0040639D01*
X0034114Y0040804D01*
X0034037Y0040971D01*
X0033965Y0041139D01*
X0033897Y0041310D01*
X0033833Y0041482D01*
X0033773Y0041655D01*
X0033718Y0041830D01*
X0033667Y0042006D01*
X0033620Y0042184D01*
X0033578Y0042362D01*
X0033540Y0042542D01*
X0033506Y0042722D01*
X0033477Y0042903D01*
X0033452Y0043085D01*
X0033432Y0043267D01*
X0033416Y0043450D01*
X0033405Y0043633D01*
X0033398Y0043817D01*
X0033396Y0044000D01*
X0035396Y0470000D02*
X0035398Y0470183D01*
X0035405Y0470367D01*
X0035416Y0470550D01*
X0035432Y0470733D01*
X0035452Y0470915D01*
X0035477Y0471097D01*
X0035506Y0471278D01*
X0035540Y0471458D01*
X0035578Y0471638D01*
X0035620Y0471816D01*
X0035667Y0471994D01*
X0035718Y0472170D01*
X0035773Y0472345D01*
X0035833Y0472518D01*
X0035897Y0472690D01*
X0035965Y0472861D01*
X0036037Y0473029D01*
X0036114Y0473196D01*
X0036194Y0473361D01*
X0036279Y0473524D01*
X0036367Y0473684D01*
X0036459Y0473843D01*
X0036556Y0473999D01*
X0036656Y0474153D01*
X0036760Y0474304D01*
X0036867Y0474453D01*
X0036978Y0474599D01*
X0037093Y0474742D01*
X0037211Y0474882D01*
X0037332Y0475020D01*
X0037457Y0475154D01*
X0037585Y0475286D01*
X0037717Y0475414D01*
X0037851Y0475539D01*
X0037989Y0475660D01*
X0038129Y0475778D01*
X0038272Y0475893D01*
X0038418Y0476004D01*
X0038567Y0476111D01*
X0038718Y0476215D01*
X0038872Y0476315D01*
X0039028Y0476412D01*
X0039187Y0476504D01*
X0039347Y0476592D01*
X0039510Y0476677D01*
X0039675Y0476757D01*
X0039842Y0476834D01*
X0040010Y0476906D01*
X0040181Y0476974D01*
X0040353Y0477038D01*
X0040526Y0477098D01*
X0040701Y0477153D01*
X0040877Y0477204D01*
X0041055Y0477251D01*
X0041233Y0477293D01*
X0041413Y0477331D01*
X0041593Y0477365D01*
X0041774Y0477394D01*
X0041956Y0477419D01*
X0042138Y0477439D01*
X0042321Y0477455D01*
X0042504Y0477466D01*
X0042688Y0477473D01*
X0042871Y0477475D01*
X0043054Y0477473D01*
X0043238Y0477466D01*
X0043421Y0477455D01*
X0043604Y0477439D01*
X0043786Y0477419D01*
X0043968Y0477394D01*
X0044149Y0477365D01*
X0044329Y0477331D01*
X0044509Y0477293D01*
X0044687Y0477251D01*
X0044865Y0477204D01*
X0045041Y0477153D01*
X0045216Y0477098D01*
X0045389Y0477038D01*
X0045561Y0476974D01*
X0045732Y0476906D01*
X0045900Y0476834D01*
X0046067Y0476757D01*
X0046232Y0476677D01*
X0046395Y0476592D01*
X0046555Y0476504D01*
X0046714Y0476412D01*
X0046870Y0476315D01*
X0047024Y0476215D01*
X0047175Y0476111D01*
X0047324Y0476004D01*
X0047470Y0475893D01*
X0047613Y0475778D01*
X0047753Y0475660D01*
X0047891Y0475539D01*
X0048025Y0475414D01*
X0048157Y0475286D01*
X0048285Y0475154D01*
X0048410Y0475020D01*
X0048531Y0474882D01*
X0048649Y0474742D01*
X0048764Y0474599D01*
X0048875Y0474453D01*
X0048982Y0474304D01*
X0049086Y0474153D01*
X0049186Y0473999D01*
X0049283Y0473843D01*
X0049375Y0473684D01*
X0049463Y0473524D01*
X0049548Y0473361D01*
X0049628Y0473196D01*
X0049705Y0473029D01*
X0049777Y0472861D01*
X0049845Y0472690D01*
X0049909Y0472518D01*
X0049969Y0472345D01*
X0050024Y0472170D01*
X0050075Y0471994D01*
X0050122Y0471816D01*
X0050164Y0471638D01*
X0050202Y0471458D01*
X0050236Y0471278D01*
X0050265Y0471097D01*
X0050290Y0470915D01*
X0050310Y0470733D01*
X0050326Y0470550D01*
X0050337Y0470367D01*
X0050344Y0470183D01*
X0050346Y0470000D01*
X0050344Y0469817D01*
X0050337Y0469633D01*
X0050326Y0469450D01*
X0050310Y0469267D01*
X0050290Y0469085D01*
X0050265Y0468903D01*
X0050236Y0468722D01*
X0050202Y0468542D01*
X0050164Y0468362D01*
X0050122Y0468184D01*
X0050075Y0468006D01*
X0050024Y0467830D01*
X0049969Y0467655D01*
X0049909Y0467482D01*
X0049845Y0467310D01*
X0049777Y0467139D01*
X0049705Y0466971D01*
X0049628Y0466804D01*
X0049548Y0466639D01*
X0049463Y0466476D01*
X0049375Y0466316D01*
X0049283Y0466157D01*
X0049186Y0466001D01*
X0049086Y0465847D01*
X0048982Y0465696D01*
X0048875Y0465547D01*
X0048764Y0465401D01*
X0048649Y0465258D01*
X0048531Y0465118D01*
X0048410Y0464980D01*
X0048285Y0464846D01*
X0048157Y0464714D01*
X0048025Y0464586D01*
X0047891Y0464461D01*
X0047753Y0464340D01*
X0047613Y0464222D01*
X0047470Y0464107D01*
X0047324Y0463996D01*
X0047175Y0463889D01*
X0047024Y0463785D01*
X0046870Y0463685D01*
X0046714Y0463588D01*
X0046555Y0463496D01*
X0046395Y0463408D01*
X0046232Y0463323D01*
X0046067Y0463243D01*
X0045900Y0463166D01*
X0045732Y0463094D01*
X0045561Y0463026D01*
X0045389Y0462962D01*
X0045216Y0462902D01*
X0045041Y0462847D01*
X0044865Y0462796D01*
X0044687Y0462749D01*
X0044509Y0462707D01*
X0044329Y0462669D01*
X0044149Y0462635D01*
X0043968Y0462606D01*
X0043786Y0462581D01*
X0043604Y0462561D01*
X0043421Y0462545D01*
X0043238Y0462534D01*
X0043054Y0462527D01*
X0042871Y0462525D01*
X0042688Y0462527D01*
X0042504Y0462534D01*
X0042321Y0462545D01*
X0042138Y0462561D01*
X0041956Y0462581D01*
X0041774Y0462606D01*
X0041593Y0462635D01*
X0041413Y0462669D01*
X0041233Y0462707D01*
X0041055Y0462749D01*
X0040877Y0462796D01*
X0040701Y0462847D01*
X0040526Y0462902D01*
X0040353Y0462962D01*
X0040181Y0463026D01*
X0040010Y0463094D01*
X0039842Y0463166D01*
X0039675Y0463243D01*
X0039510Y0463323D01*
X0039347Y0463408D01*
X0039187Y0463496D01*
X0039028Y0463588D01*
X0038872Y0463685D01*
X0038718Y0463785D01*
X0038567Y0463889D01*
X0038418Y0463996D01*
X0038272Y0464107D01*
X0038129Y0464222D01*
X0037989Y0464340D01*
X0037851Y0464461D01*
X0037717Y0464586D01*
X0037585Y0464714D01*
X0037457Y0464846D01*
X0037332Y0464980D01*
X0037211Y0465118D01*
X0037093Y0465258D01*
X0036978Y0465401D01*
X0036867Y0465547D01*
X0036760Y0465696D01*
X0036656Y0465847D01*
X0036556Y0466001D01*
X0036459Y0466157D01*
X0036367Y0466316D01*
X0036279Y0466476D01*
X0036194Y0466639D01*
X0036114Y0466804D01*
X0036037Y0466971D01*
X0035965Y0467139D01*
X0035897Y0467310D01*
X0035833Y0467482D01*
X0035773Y0467655D01*
X0035718Y0467830D01*
X0035667Y0468006D01*
X0035620Y0468184D01*
X0035578Y0468362D01*
X0035540Y0468542D01*
X0035506Y0468722D01*
X0035477Y0468903D01*
X0035452Y0469085D01*
X0035432Y0469267D01*
X0035416Y0469450D01*
X0035405Y0469633D01*
X0035398Y0469817D01*
X0035396Y0470000D01*
X0013871Y0504000D02*
X0483871Y0504000D01*
X0483871Y1129000D01*
X0013871Y1129000D01*
X0013871Y0504000D01*
X0031396Y0529000D02*
X0031398Y0529183D01*
X0031405Y0529367D01*
X0031416Y0529550D01*
X0031432Y0529733D01*
X0031452Y0529915D01*
X0031477Y0530097D01*
X0031506Y0530278D01*
X0031540Y0530458D01*
X0031578Y0530638D01*
X0031620Y0530816D01*
X0031667Y0530994D01*
X0031718Y0531170D01*
X0031773Y0531345D01*
X0031833Y0531518D01*
X0031897Y0531690D01*
X0031965Y0531861D01*
X0032037Y0532029D01*
X0032114Y0532196D01*
X0032194Y0532361D01*
X0032279Y0532524D01*
X0032367Y0532684D01*
X0032459Y0532843D01*
X0032556Y0532999D01*
X0032656Y0533153D01*
X0032760Y0533304D01*
X0032867Y0533453D01*
X0032978Y0533599D01*
X0033093Y0533742D01*
X0033211Y0533882D01*
X0033332Y0534020D01*
X0033457Y0534154D01*
X0033585Y0534286D01*
X0033717Y0534414D01*
X0033851Y0534539D01*
X0033989Y0534660D01*
X0034129Y0534778D01*
X0034272Y0534893D01*
X0034418Y0535004D01*
X0034567Y0535111D01*
X0034718Y0535215D01*
X0034872Y0535315D01*
X0035028Y0535412D01*
X0035187Y0535504D01*
X0035347Y0535592D01*
X0035510Y0535677D01*
X0035675Y0535757D01*
X0035842Y0535834D01*
X0036010Y0535906D01*
X0036181Y0535974D01*
X0036353Y0536038D01*
X0036526Y0536098D01*
X0036701Y0536153D01*
X0036877Y0536204D01*
X0037055Y0536251D01*
X0037233Y0536293D01*
X0037413Y0536331D01*
X0037593Y0536365D01*
X0037774Y0536394D01*
X0037956Y0536419D01*
X0038138Y0536439D01*
X0038321Y0536455D01*
X0038504Y0536466D01*
X0038688Y0536473D01*
X0038871Y0536475D01*
X0039054Y0536473D01*
X0039238Y0536466D01*
X0039421Y0536455D01*
X0039604Y0536439D01*
X0039786Y0536419D01*
X0039968Y0536394D01*
X0040149Y0536365D01*
X0040329Y0536331D01*
X0040509Y0536293D01*
X0040687Y0536251D01*
X0040865Y0536204D01*
X0041041Y0536153D01*
X0041216Y0536098D01*
X0041389Y0536038D01*
X0041561Y0535974D01*
X0041732Y0535906D01*
X0041900Y0535834D01*
X0042067Y0535757D01*
X0042232Y0535677D01*
X0042395Y0535592D01*
X0042555Y0535504D01*
X0042714Y0535412D01*
X0042870Y0535315D01*
X0043024Y0535215D01*
X0043175Y0535111D01*
X0043324Y0535004D01*
X0043470Y0534893D01*
X0043613Y0534778D01*
X0043753Y0534660D01*
X0043891Y0534539D01*
X0044025Y0534414D01*
X0044157Y0534286D01*
X0044285Y0534154D01*
X0044410Y0534020D01*
X0044531Y0533882D01*
X0044649Y0533742D01*
X0044764Y0533599D01*
X0044875Y0533453D01*
X0044982Y0533304D01*
X0045086Y0533153D01*
X0045186Y0532999D01*
X0045283Y0532843D01*
X0045375Y0532684D01*
X0045463Y0532524D01*
X0045548Y0532361D01*
X0045628Y0532196D01*
X0045705Y0532029D01*
X0045777Y0531861D01*
X0045845Y0531690D01*
X0045909Y0531518D01*
X0045969Y0531345D01*
X0046024Y0531170D01*
X0046075Y0530994D01*
X0046122Y0530816D01*
X0046164Y0530638D01*
X0046202Y0530458D01*
X0046236Y0530278D01*
X0046265Y0530097D01*
X0046290Y0529915D01*
X0046310Y0529733D01*
X0046326Y0529550D01*
X0046337Y0529367D01*
X0046344Y0529183D01*
X0046346Y0529000D01*
X0046344Y0528817D01*
X0046337Y0528633D01*
X0046326Y0528450D01*
X0046310Y0528267D01*
X0046290Y0528085D01*
X0046265Y0527903D01*
X0046236Y0527722D01*
X0046202Y0527542D01*
X0046164Y0527362D01*
X0046122Y0527184D01*
X0046075Y0527006D01*
X0046024Y0526830D01*
X0045969Y0526655D01*
X0045909Y0526482D01*
X0045845Y0526310D01*
X0045777Y0526139D01*
X0045705Y0525971D01*
X0045628Y0525804D01*
X0045548Y0525639D01*
X0045463Y0525476D01*
X0045375Y0525316D01*
X0045283Y0525157D01*
X0045186Y0525001D01*
X0045086Y0524847D01*
X0044982Y0524696D01*
X0044875Y0524547D01*
X0044764Y0524401D01*
X0044649Y0524258D01*
X0044531Y0524118D01*
X0044410Y0523980D01*
X0044285Y0523846D01*
X0044157Y0523714D01*
X0044025Y0523586D01*
X0043891Y0523461D01*
X0043753Y0523340D01*
X0043613Y0523222D01*
X0043470Y0523107D01*
X0043324Y0522996D01*
X0043175Y0522889D01*
X0043024Y0522785D01*
X0042870Y0522685D01*
X0042714Y0522588D01*
X0042555Y0522496D01*
X0042395Y0522408D01*
X0042232Y0522323D01*
X0042067Y0522243D01*
X0041900Y0522166D01*
X0041732Y0522094D01*
X0041561Y0522026D01*
X0041389Y0521962D01*
X0041216Y0521902D01*
X0041041Y0521847D01*
X0040865Y0521796D01*
X0040687Y0521749D01*
X0040509Y0521707D01*
X0040329Y0521669D01*
X0040149Y0521635D01*
X0039968Y0521606D01*
X0039786Y0521581D01*
X0039604Y0521561D01*
X0039421Y0521545D01*
X0039238Y0521534D01*
X0039054Y0521527D01*
X0038871Y0521525D01*
X0038688Y0521527D01*
X0038504Y0521534D01*
X0038321Y0521545D01*
X0038138Y0521561D01*
X0037956Y0521581D01*
X0037774Y0521606D01*
X0037593Y0521635D01*
X0037413Y0521669D01*
X0037233Y0521707D01*
X0037055Y0521749D01*
X0036877Y0521796D01*
X0036701Y0521847D01*
X0036526Y0521902D01*
X0036353Y0521962D01*
X0036181Y0522026D01*
X0036010Y0522094D01*
X0035842Y0522166D01*
X0035675Y0522243D01*
X0035510Y0522323D01*
X0035347Y0522408D01*
X0035187Y0522496D01*
X0035028Y0522588D01*
X0034872Y0522685D01*
X0034718Y0522785D01*
X0034567Y0522889D01*
X0034418Y0522996D01*
X0034272Y0523107D01*
X0034129Y0523222D01*
X0033989Y0523340D01*
X0033851Y0523461D01*
X0033717Y0523586D01*
X0033585Y0523714D01*
X0033457Y0523846D01*
X0033332Y0523980D01*
X0033211Y0524118D01*
X0033093Y0524258D01*
X0032978Y0524401D01*
X0032867Y0524547D01*
X0032760Y0524696D01*
X0032656Y0524847D01*
X0032556Y0525001D01*
X0032459Y0525157D01*
X0032367Y0525316D01*
X0032279Y0525476D01*
X0032194Y0525639D01*
X0032114Y0525804D01*
X0032037Y0525971D01*
X0031965Y0526139D01*
X0031897Y0526310D01*
X0031833Y0526482D01*
X0031773Y0526655D01*
X0031718Y0526830D01*
X0031667Y0527006D01*
X0031620Y0527184D01*
X0031578Y0527362D01*
X0031540Y0527542D01*
X0031506Y0527722D01*
X0031477Y0527903D01*
X0031452Y0528085D01*
X0031432Y0528267D01*
X0031416Y0528450D01*
X0031405Y0528633D01*
X0031398Y0528817D01*
X0031396Y0529000D01*
X0031396Y1104000D02*
X0031398Y1104183D01*
X0031405Y1104367D01*
X0031416Y1104550D01*
X0031432Y1104733D01*
X0031452Y1104915D01*
X0031477Y1105097D01*
X0031506Y1105278D01*
X0031540Y1105458D01*
X0031578Y1105638D01*
X0031620Y1105816D01*
X0031667Y1105994D01*
X0031718Y1106170D01*
X0031773Y1106345D01*
X0031833Y1106518D01*
X0031897Y1106690D01*
X0031965Y1106861D01*
X0032037Y1107029D01*
X0032114Y1107196D01*
X0032194Y1107361D01*
X0032279Y1107524D01*
X0032367Y1107684D01*
X0032459Y1107843D01*
X0032556Y1107999D01*
X0032656Y1108153D01*
X0032760Y1108304D01*
X0032867Y1108453D01*
X0032978Y1108599D01*
X0033093Y1108742D01*
X0033211Y1108882D01*
X0033332Y1109020D01*
X0033457Y1109154D01*
X0033585Y1109286D01*
X0033717Y1109414D01*
X0033851Y1109539D01*
X0033989Y1109660D01*
X0034129Y1109778D01*
X0034272Y1109893D01*
X0034418Y1110004D01*
X0034567Y1110111D01*
X0034718Y1110215D01*
X0034872Y1110315D01*
X0035028Y1110412D01*
X0035187Y1110504D01*
X0035347Y1110592D01*
X0035510Y1110677D01*
X0035675Y1110757D01*
X0035842Y1110834D01*
X0036010Y1110906D01*
X0036181Y1110974D01*
X0036353Y1111038D01*
X0036526Y1111098D01*
X0036701Y1111153D01*
X0036877Y1111204D01*
X0037055Y1111251D01*
X0037233Y1111293D01*
X0037413Y1111331D01*
X0037593Y1111365D01*
X0037774Y1111394D01*
X0037956Y1111419D01*
X0038138Y1111439D01*
X0038321Y1111455D01*
X0038504Y1111466D01*
X0038688Y1111473D01*
X0038871Y1111475D01*
X0039054Y1111473D01*
X0039238Y1111466D01*
X0039421Y1111455D01*
X0039604Y1111439D01*
X0039786Y1111419D01*
X0039968Y1111394D01*
X0040149Y1111365D01*
X0040329Y1111331D01*
X0040509Y1111293D01*
X0040687Y1111251D01*
X0040865Y1111204D01*
X0041041Y1111153D01*
X0041216Y1111098D01*
X0041389Y1111038D01*
X0041561Y1110974D01*
X0041732Y1110906D01*
X0041900Y1110834D01*
X0042067Y1110757D01*
X0042232Y1110677D01*
X0042395Y1110592D01*
X0042555Y1110504D01*
X0042714Y1110412D01*
X0042870Y1110315D01*
X0043024Y1110215D01*
X0043175Y1110111D01*
X0043324Y1110004D01*
X0043470Y1109893D01*
X0043613Y1109778D01*
X0043753Y1109660D01*
X0043891Y1109539D01*
X0044025Y1109414D01*
X0044157Y1109286D01*
X0044285Y1109154D01*
X0044410Y1109020D01*
X0044531Y1108882D01*
X0044649Y1108742D01*
X0044764Y1108599D01*
X0044875Y1108453D01*
X0044982Y1108304D01*
X0045086Y1108153D01*
X0045186Y1107999D01*
X0045283Y1107843D01*
X0045375Y1107684D01*
X0045463Y1107524D01*
X0045548Y1107361D01*
X0045628Y1107196D01*
X0045705Y1107029D01*
X0045777Y1106861D01*
X0045845Y1106690D01*
X0045909Y1106518D01*
X0045969Y1106345D01*
X0046024Y1106170D01*
X0046075Y1105994D01*
X0046122Y1105816D01*
X0046164Y1105638D01*
X0046202Y1105458D01*
X0046236Y1105278D01*
X0046265Y1105097D01*
X0046290Y1104915D01*
X0046310Y1104733D01*
X0046326Y1104550D01*
X0046337Y1104367D01*
X0046344Y1104183D01*
X0046346Y1104000D01*
X0046344Y1103817D01*
X0046337Y1103633D01*
X0046326Y1103450D01*
X0046310Y1103267D01*
X0046290Y1103085D01*
X0046265Y1102903D01*
X0046236Y1102722D01*
X0046202Y1102542D01*
X0046164Y1102362D01*
X0046122Y1102184D01*
X0046075Y1102006D01*
X0046024Y1101830D01*
X0045969Y1101655D01*
X0045909Y1101482D01*
X0045845Y1101310D01*
X0045777Y1101139D01*
X0045705Y1100971D01*
X0045628Y1100804D01*
X0045548Y1100639D01*
X0045463Y1100476D01*
X0045375Y1100316D01*
X0045283Y1100157D01*
X0045186Y1100001D01*
X0045086Y1099847D01*
X0044982Y1099696D01*
X0044875Y1099547D01*
X0044764Y1099401D01*
X0044649Y1099258D01*
X0044531Y1099118D01*
X0044410Y1098980D01*
X0044285Y1098846D01*
X0044157Y1098714D01*
X0044025Y1098586D01*
X0043891Y1098461D01*
X0043753Y1098340D01*
X0043613Y1098222D01*
X0043470Y1098107D01*
X0043324Y1097996D01*
X0043175Y1097889D01*
X0043024Y1097785D01*
X0042870Y1097685D01*
X0042714Y1097588D01*
X0042555Y1097496D01*
X0042395Y1097408D01*
X0042232Y1097323D01*
X0042067Y1097243D01*
X0041900Y1097166D01*
X0041732Y1097094D01*
X0041561Y1097026D01*
X0041389Y1096962D01*
X0041216Y1096902D01*
X0041041Y1096847D01*
X0040865Y1096796D01*
X0040687Y1096749D01*
X0040509Y1096707D01*
X0040329Y1096669D01*
X0040149Y1096635D01*
X0039968Y1096606D01*
X0039786Y1096581D01*
X0039604Y1096561D01*
X0039421Y1096545D01*
X0039238Y1096534D01*
X0039054Y1096527D01*
X0038871Y1096525D01*
X0038688Y1096527D01*
X0038504Y1096534D01*
X0038321Y1096545D01*
X0038138Y1096561D01*
X0037956Y1096581D01*
X0037774Y1096606D01*
X0037593Y1096635D01*
X0037413Y1096669D01*
X0037233Y1096707D01*
X0037055Y1096749D01*
X0036877Y1096796D01*
X0036701Y1096847D01*
X0036526Y1096902D01*
X0036353Y1096962D01*
X0036181Y1097026D01*
X0036010Y1097094D01*
X0035842Y1097166D01*
X0035675Y1097243D01*
X0035510Y1097323D01*
X0035347Y1097408D01*
X0035187Y1097496D01*
X0035028Y1097588D01*
X0034872Y1097685D01*
X0034718Y1097785D01*
X0034567Y1097889D01*
X0034418Y1097996D01*
X0034272Y1098107D01*
X0034129Y1098222D01*
X0033989Y1098340D01*
X0033851Y1098461D01*
X0033717Y1098586D01*
X0033585Y1098714D01*
X0033457Y1098846D01*
X0033332Y1098980D01*
X0033211Y1099118D01*
X0033093Y1099258D01*
X0032978Y1099401D01*
X0032867Y1099547D01*
X0032760Y1099696D01*
X0032656Y1099847D01*
X0032556Y1100001D01*
X0032459Y1100157D01*
X0032367Y1100316D01*
X0032279Y1100476D01*
X0032194Y1100639D01*
X0032114Y1100804D01*
X0032037Y1100971D01*
X0031965Y1101139D01*
X0031897Y1101310D01*
X0031833Y1101482D01*
X0031773Y1101655D01*
X0031718Y1101830D01*
X0031667Y1102006D01*
X0031620Y1102184D01*
X0031578Y1102362D01*
X0031540Y1102542D01*
X0031506Y1102722D01*
X0031477Y1102903D01*
X0031452Y1103085D01*
X0031432Y1103267D01*
X0031416Y1103450D01*
X0031405Y1103633D01*
X0031398Y1103817D01*
X0031396Y1104000D01*
X0451396Y1104000D02*
X0451398Y1104183D01*
X0451405Y1104367D01*
X0451416Y1104550D01*
X0451432Y1104733D01*
X0451452Y1104915D01*
X0451477Y1105097D01*
X0451506Y1105278D01*
X0451540Y1105458D01*
X0451578Y1105638D01*
X0451620Y1105816D01*
X0451667Y1105994D01*
X0451718Y1106170D01*
X0451773Y1106345D01*
X0451833Y1106518D01*
X0451897Y1106690D01*
X0451965Y1106861D01*
X0452037Y1107029D01*
X0452114Y1107196D01*
X0452194Y1107361D01*
X0452279Y1107524D01*
X0452367Y1107684D01*
X0452459Y1107843D01*
X0452556Y1107999D01*
X0452656Y1108153D01*
X0452760Y1108304D01*
X0452867Y1108453D01*
X0452978Y1108599D01*
X0453093Y1108742D01*
X0453211Y1108882D01*
X0453332Y1109020D01*
X0453457Y1109154D01*
X0453585Y1109286D01*
X0453717Y1109414D01*
X0453851Y1109539D01*
X0453989Y1109660D01*
X0454129Y1109778D01*
X0454272Y1109893D01*
X0454418Y1110004D01*
X0454567Y1110111D01*
X0454718Y1110215D01*
X0454872Y1110315D01*
X0455028Y1110412D01*
X0455187Y1110504D01*
X0455347Y1110592D01*
X0455510Y1110677D01*
X0455675Y1110757D01*
X0455842Y1110834D01*
X0456010Y1110906D01*
X0456181Y1110974D01*
X0456353Y1111038D01*
X0456526Y1111098D01*
X0456701Y1111153D01*
X0456877Y1111204D01*
X0457055Y1111251D01*
X0457233Y1111293D01*
X0457413Y1111331D01*
X0457593Y1111365D01*
X0457774Y1111394D01*
X0457956Y1111419D01*
X0458138Y1111439D01*
X0458321Y1111455D01*
X0458504Y1111466D01*
X0458688Y1111473D01*
X0458871Y1111475D01*
X0459054Y1111473D01*
X0459238Y1111466D01*
X0459421Y1111455D01*
X0459604Y1111439D01*
X0459786Y1111419D01*
X0459968Y1111394D01*
X0460149Y1111365D01*
X0460329Y1111331D01*
X0460509Y1111293D01*
X0460687Y1111251D01*
X0460865Y1111204D01*
X0461041Y1111153D01*
X0461216Y1111098D01*
X0461389Y1111038D01*
X0461561Y1110974D01*
X0461732Y1110906D01*
X0461900Y1110834D01*
X0462067Y1110757D01*
X0462232Y1110677D01*
X0462395Y1110592D01*
X0462555Y1110504D01*
X0462714Y1110412D01*
X0462870Y1110315D01*
X0463024Y1110215D01*
X0463175Y1110111D01*
X0463324Y1110004D01*
X0463470Y1109893D01*
X0463613Y1109778D01*
X0463753Y1109660D01*
X0463891Y1109539D01*
X0464025Y1109414D01*
X0464157Y1109286D01*
X0464285Y1109154D01*
X0464410Y1109020D01*
X0464531Y1108882D01*
X0464649Y1108742D01*
X0464764Y1108599D01*
X0464875Y1108453D01*
X0464982Y1108304D01*
X0465086Y1108153D01*
X0465186Y1107999D01*
X0465283Y1107843D01*
X0465375Y1107684D01*
X0465463Y1107524D01*
X0465548Y1107361D01*
X0465628Y1107196D01*
X0465705Y1107029D01*
X0465777Y1106861D01*
X0465845Y1106690D01*
X0465909Y1106518D01*
X0465969Y1106345D01*
X0466024Y1106170D01*
X0466075Y1105994D01*
X0466122Y1105816D01*
X0466164Y1105638D01*
X0466202Y1105458D01*
X0466236Y1105278D01*
X0466265Y1105097D01*
X0466290Y1104915D01*
X0466310Y1104733D01*
X0466326Y1104550D01*
X0466337Y1104367D01*
X0466344Y1104183D01*
X0466346Y1104000D01*
X0466344Y1103817D01*
X0466337Y1103633D01*
X0466326Y1103450D01*
X0466310Y1103267D01*
X0466290Y1103085D01*
X0466265Y1102903D01*
X0466236Y1102722D01*
X0466202Y1102542D01*
X0466164Y1102362D01*
X0466122Y1102184D01*
X0466075Y1102006D01*
X0466024Y1101830D01*
X0465969Y1101655D01*
X0465909Y1101482D01*
X0465845Y1101310D01*
X0465777Y1101139D01*
X0465705Y1100971D01*
X0465628Y1100804D01*
X0465548Y1100639D01*
X0465463Y1100476D01*
X0465375Y1100316D01*
X0465283Y1100157D01*
X0465186Y1100001D01*
X0465086Y1099847D01*
X0464982Y1099696D01*
X0464875Y1099547D01*
X0464764Y1099401D01*
X0464649Y1099258D01*
X0464531Y1099118D01*
X0464410Y1098980D01*
X0464285Y1098846D01*
X0464157Y1098714D01*
X0464025Y1098586D01*
X0463891Y1098461D01*
X0463753Y1098340D01*
X0463613Y1098222D01*
X0463470Y1098107D01*
X0463324Y1097996D01*
X0463175Y1097889D01*
X0463024Y1097785D01*
X0462870Y1097685D01*
X0462714Y1097588D01*
X0462555Y1097496D01*
X0462395Y1097408D01*
X0462232Y1097323D01*
X0462067Y1097243D01*
X0461900Y1097166D01*
X0461732Y1097094D01*
X0461561Y1097026D01*
X0461389Y1096962D01*
X0461216Y1096902D01*
X0461041Y1096847D01*
X0460865Y1096796D01*
X0460687Y1096749D01*
X0460509Y1096707D01*
X0460329Y1096669D01*
X0460149Y1096635D01*
X0459968Y1096606D01*
X0459786Y1096581D01*
X0459604Y1096561D01*
X0459421Y1096545D01*
X0459238Y1096534D01*
X0459054Y1096527D01*
X0458871Y1096525D01*
X0458688Y1096527D01*
X0458504Y1096534D01*
X0458321Y1096545D01*
X0458138Y1096561D01*
X0457956Y1096581D01*
X0457774Y1096606D01*
X0457593Y1096635D01*
X0457413Y1096669D01*
X0457233Y1096707D01*
X0457055Y1096749D01*
X0456877Y1096796D01*
X0456701Y1096847D01*
X0456526Y1096902D01*
X0456353Y1096962D01*
X0456181Y1097026D01*
X0456010Y1097094D01*
X0455842Y1097166D01*
X0455675Y1097243D01*
X0455510Y1097323D01*
X0455347Y1097408D01*
X0455187Y1097496D01*
X0455028Y1097588D01*
X0454872Y1097685D01*
X0454718Y1097785D01*
X0454567Y1097889D01*
X0454418Y1097996D01*
X0454272Y1098107D01*
X0454129Y1098222D01*
X0453989Y1098340D01*
X0453851Y1098461D01*
X0453717Y1098586D01*
X0453585Y1098714D01*
X0453457Y1098846D01*
X0453332Y1098980D01*
X0453211Y1099118D01*
X0453093Y1099258D01*
X0452978Y1099401D01*
X0452867Y1099547D01*
X0452760Y1099696D01*
X0452656Y1099847D01*
X0452556Y1100001D01*
X0452459Y1100157D01*
X0452367Y1100316D01*
X0452279Y1100476D01*
X0452194Y1100639D01*
X0452114Y1100804D01*
X0452037Y1100971D01*
X0451965Y1101139D01*
X0451897Y1101310D01*
X0451833Y1101482D01*
X0451773Y1101655D01*
X0451718Y1101830D01*
X0451667Y1102006D01*
X0451620Y1102184D01*
X0451578Y1102362D01*
X0451540Y1102542D01*
X0451506Y1102722D01*
X0451477Y1102903D01*
X0451452Y1103085D01*
X0451432Y1103267D01*
X0451416Y1103450D01*
X0451405Y1103633D01*
X0451398Y1103817D01*
X0451396Y1104000D01*
X0451396Y0529000D02*
X0451398Y0529183D01*
X0451405Y0529367D01*
X0451416Y0529550D01*
X0451432Y0529733D01*
X0451452Y0529915D01*
X0451477Y0530097D01*
X0451506Y0530278D01*
X0451540Y0530458D01*
X0451578Y0530638D01*
X0451620Y0530816D01*
X0451667Y0530994D01*
X0451718Y0531170D01*
X0451773Y0531345D01*
X0451833Y0531518D01*
X0451897Y0531690D01*
X0451965Y0531861D01*
X0452037Y0532029D01*
X0452114Y0532196D01*
X0452194Y0532361D01*
X0452279Y0532524D01*
X0452367Y0532684D01*
X0452459Y0532843D01*
X0452556Y0532999D01*
X0452656Y0533153D01*
X0452760Y0533304D01*
X0452867Y0533453D01*
X0452978Y0533599D01*
X0453093Y0533742D01*
X0453211Y0533882D01*
X0453332Y0534020D01*
X0453457Y0534154D01*
X0453585Y0534286D01*
X0453717Y0534414D01*
X0453851Y0534539D01*
X0453989Y0534660D01*
X0454129Y0534778D01*
X0454272Y0534893D01*
X0454418Y0535004D01*
X0454567Y0535111D01*
X0454718Y0535215D01*
X0454872Y0535315D01*
X0455028Y0535412D01*
X0455187Y0535504D01*
X0455347Y0535592D01*
X0455510Y0535677D01*
X0455675Y0535757D01*
X0455842Y0535834D01*
X0456010Y0535906D01*
X0456181Y0535974D01*
X0456353Y0536038D01*
X0456526Y0536098D01*
X0456701Y0536153D01*
X0456877Y0536204D01*
X0457055Y0536251D01*
X0457233Y0536293D01*
X0457413Y0536331D01*
X0457593Y0536365D01*
X0457774Y0536394D01*
X0457956Y0536419D01*
X0458138Y0536439D01*
X0458321Y0536455D01*
X0458504Y0536466D01*
X0458688Y0536473D01*
X0458871Y0536475D01*
X0459054Y0536473D01*
X0459238Y0536466D01*
X0459421Y0536455D01*
X0459604Y0536439D01*
X0459786Y0536419D01*
X0459968Y0536394D01*
X0460149Y0536365D01*
X0460329Y0536331D01*
X0460509Y0536293D01*
X0460687Y0536251D01*
X0460865Y0536204D01*
X0461041Y0536153D01*
X0461216Y0536098D01*
X0461389Y0536038D01*
X0461561Y0535974D01*
X0461732Y0535906D01*
X0461900Y0535834D01*
X0462067Y0535757D01*
X0462232Y0535677D01*
X0462395Y0535592D01*
X0462555Y0535504D01*
X0462714Y0535412D01*
X0462870Y0535315D01*
X0463024Y0535215D01*
X0463175Y0535111D01*
X0463324Y0535004D01*
X0463470Y0534893D01*
X0463613Y0534778D01*
X0463753Y0534660D01*
X0463891Y0534539D01*
X0464025Y0534414D01*
X0464157Y0534286D01*
X0464285Y0534154D01*
X0464410Y0534020D01*
X0464531Y0533882D01*
X0464649Y0533742D01*
X0464764Y0533599D01*
X0464875Y0533453D01*
X0464982Y0533304D01*
X0465086Y0533153D01*
X0465186Y0532999D01*
X0465283Y0532843D01*
X0465375Y0532684D01*
X0465463Y0532524D01*
X0465548Y0532361D01*
X0465628Y0532196D01*
X0465705Y0532029D01*
X0465777Y0531861D01*
X0465845Y0531690D01*
X0465909Y0531518D01*
X0465969Y0531345D01*
X0466024Y0531170D01*
X0466075Y0530994D01*
X0466122Y0530816D01*
X0466164Y0530638D01*
X0466202Y0530458D01*
X0466236Y0530278D01*
X0466265Y0530097D01*
X0466290Y0529915D01*
X0466310Y0529733D01*
X0466326Y0529550D01*
X0466337Y0529367D01*
X0466344Y0529183D01*
X0466346Y0529000D01*
X0466344Y0528817D01*
X0466337Y0528633D01*
X0466326Y0528450D01*
X0466310Y0528267D01*
X0466290Y0528085D01*
X0466265Y0527903D01*
X0466236Y0527722D01*
X0466202Y0527542D01*
X0466164Y0527362D01*
X0466122Y0527184D01*
X0466075Y0527006D01*
X0466024Y0526830D01*
X0465969Y0526655D01*
X0465909Y0526482D01*
X0465845Y0526310D01*
X0465777Y0526139D01*
X0465705Y0525971D01*
X0465628Y0525804D01*
X0465548Y0525639D01*
X0465463Y0525476D01*
X0465375Y0525316D01*
X0465283Y0525157D01*
X0465186Y0525001D01*
X0465086Y0524847D01*
X0464982Y0524696D01*
X0464875Y0524547D01*
X0464764Y0524401D01*
X0464649Y0524258D01*
X0464531Y0524118D01*
X0464410Y0523980D01*
X0464285Y0523846D01*
X0464157Y0523714D01*
X0464025Y0523586D01*
X0463891Y0523461D01*
X0463753Y0523340D01*
X0463613Y0523222D01*
X0463470Y0523107D01*
X0463324Y0522996D01*
X0463175Y0522889D01*
X0463024Y0522785D01*
X0462870Y0522685D01*
X0462714Y0522588D01*
X0462555Y0522496D01*
X0462395Y0522408D01*
X0462232Y0522323D01*
X0462067Y0522243D01*
X0461900Y0522166D01*
X0461732Y0522094D01*
X0461561Y0522026D01*
X0461389Y0521962D01*
X0461216Y0521902D01*
X0461041Y0521847D01*
X0460865Y0521796D01*
X0460687Y0521749D01*
X0460509Y0521707D01*
X0460329Y0521669D01*
X0460149Y0521635D01*
X0459968Y0521606D01*
X0459786Y0521581D01*
X0459604Y0521561D01*
X0459421Y0521545D01*
X0459238Y0521534D01*
X0459054Y0521527D01*
X0458871Y0521525D01*
X0458688Y0521527D01*
X0458504Y0521534D01*
X0458321Y0521545D01*
X0458138Y0521561D01*
X0457956Y0521581D01*
X0457774Y0521606D01*
X0457593Y0521635D01*
X0457413Y0521669D01*
X0457233Y0521707D01*
X0457055Y0521749D01*
X0456877Y0521796D01*
X0456701Y0521847D01*
X0456526Y0521902D01*
X0456353Y0521962D01*
X0456181Y0522026D01*
X0456010Y0522094D01*
X0455842Y0522166D01*
X0455675Y0522243D01*
X0455510Y0522323D01*
X0455347Y0522408D01*
X0455187Y0522496D01*
X0455028Y0522588D01*
X0454872Y0522685D01*
X0454718Y0522785D01*
X0454567Y0522889D01*
X0454418Y0522996D01*
X0454272Y0523107D01*
X0454129Y0523222D01*
X0453989Y0523340D01*
X0453851Y0523461D01*
X0453717Y0523586D01*
X0453585Y0523714D01*
X0453457Y0523846D01*
X0453332Y0523980D01*
X0453211Y0524118D01*
X0453093Y0524258D01*
X0452978Y0524401D01*
X0452867Y0524547D01*
X0452760Y0524696D01*
X0452656Y0524847D01*
X0452556Y0525001D01*
X0452459Y0525157D01*
X0452367Y0525316D01*
X0452279Y0525476D01*
X0452194Y0525639D01*
X0452114Y0525804D01*
X0452037Y0525971D01*
X0451965Y0526139D01*
X0451897Y0526310D01*
X0451833Y0526482D01*
X0451773Y0526655D01*
X0451718Y0526830D01*
X0451667Y0527006D01*
X0451620Y0527184D01*
X0451578Y0527362D01*
X0451540Y0527542D01*
X0451506Y0527722D01*
X0451477Y0527903D01*
X0451452Y0528085D01*
X0451432Y0528267D01*
X0451416Y0528450D01*
X0451405Y0528633D01*
X0451398Y0528817D01*
X0451396Y0529000D01*
X0467396Y0470000D02*
X0467398Y0470183D01*
X0467405Y0470367D01*
X0467416Y0470550D01*
X0467432Y0470733D01*
X0467452Y0470915D01*
X0467477Y0471097D01*
X0467506Y0471278D01*
X0467540Y0471458D01*
X0467578Y0471638D01*
X0467620Y0471816D01*
X0467667Y0471994D01*
X0467718Y0472170D01*
X0467773Y0472345D01*
X0467833Y0472518D01*
X0467897Y0472690D01*
X0467965Y0472861D01*
X0468037Y0473029D01*
X0468114Y0473196D01*
X0468194Y0473361D01*
X0468279Y0473524D01*
X0468367Y0473684D01*
X0468459Y0473843D01*
X0468556Y0473999D01*
X0468656Y0474153D01*
X0468760Y0474304D01*
X0468867Y0474453D01*
X0468978Y0474599D01*
X0469093Y0474742D01*
X0469211Y0474882D01*
X0469332Y0475020D01*
X0469457Y0475154D01*
X0469585Y0475286D01*
X0469717Y0475414D01*
X0469851Y0475539D01*
X0469989Y0475660D01*
X0470129Y0475778D01*
X0470272Y0475893D01*
X0470418Y0476004D01*
X0470567Y0476111D01*
X0470718Y0476215D01*
X0470872Y0476315D01*
X0471028Y0476412D01*
X0471187Y0476504D01*
X0471347Y0476592D01*
X0471510Y0476677D01*
X0471675Y0476757D01*
X0471842Y0476834D01*
X0472010Y0476906D01*
X0472181Y0476974D01*
X0472353Y0477038D01*
X0472526Y0477098D01*
X0472701Y0477153D01*
X0472877Y0477204D01*
X0473055Y0477251D01*
X0473233Y0477293D01*
X0473413Y0477331D01*
X0473593Y0477365D01*
X0473774Y0477394D01*
X0473956Y0477419D01*
X0474138Y0477439D01*
X0474321Y0477455D01*
X0474504Y0477466D01*
X0474688Y0477473D01*
X0474871Y0477475D01*
X0475054Y0477473D01*
X0475238Y0477466D01*
X0475421Y0477455D01*
X0475604Y0477439D01*
X0475786Y0477419D01*
X0475968Y0477394D01*
X0476149Y0477365D01*
X0476329Y0477331D01*
X0476509Y0477293D01*
X0476687Y0477251D01*
X0476865Y0477204D01*
X0477041Y0477153D01*
X0477216Y0477098D01*
X0477389Y0477038D01*
X0477561Y0476974D01*
X0477732Y0476906D01*
X0477900Y0476834D01*
X0478067Y0476757D01*
X0478232Y0476677D01*
X0478395Y0476592D01*
X0478555Y0476504D01*
X0478714Y0476412D01*
X0478870Y0476315D01*
X0479024Y0476215D01*
X0479175Y0476111D01*
X0479324Y0476004D01*
X0479470Y0475893D01*
X0479613Y0475778D01*
X0479753Y0475660D01*
X0479891Y0475539D01*
X0480025Y0475414D01*
X0480157Y0475286D01*
X0480285Y0475154D01*
X0480410Y0475020D01*
X0480531Y0474882D01*
X0480649Y0474742D01*
X0480764Y0474599D01*
X0480875Y0474453D01*
X0480982Y0474304D01*
X0481086Y0474153D01*
X0481186Y0473999D01*
X0481283Y0473843D01*
X0481375Y0473684D01*
X0481463Y0473524D01*
X0481548Y0473361D01*
X0481628Y0473196D01*
X0481705Y0473029D01*
X0481777Y0472861D01*
X0481845Y0472690D01*
X0481909Y0472518D01*
X0481969Y0472345D01*
X0482024Y0472170D01*
X0482075Y0471994D01*
X0482122Y0471816D01*
X0482164Y0471638D01*
X0482202Y0471458D01*
X0482236Y0471278D01*
X0482265Y0471097D01*
X0482290Y0470915D01*
X0482310Y0470733D01*
X0482326Y0470550D01*
X0482337Y0470367D01*
X0482344Y0470183D01*
X0482346Y0470000D01*
X0482344Y0469817D01*
X0482337Y0469633D01*
X0482326Y0469450D01*
X0482310Y0469267D01*
X0482290Y0469085D01*
X0482265Y0468903D01*
X0482236Y0468722D01*
X0482202Y0468542D01*
X0482164Y0468362D01*
X0482122Y0468184D01*
X0482075Y0468006D01*
X0482024Y0467830D01*
X0481969Y0467655D01*
X0481909Y0467482D01*
X0481845Y0467310D01*
X0481777Y0467139D01*
X0481705Y0466971D01*
X0481628Y0466804D01*
X0481548Y0466639D01*
X0481463Y0466476D01*
X0481375Y0466316D01*
X0481283Y0466157D01*
X0481186Y0466001D01*
X0481086Y0465847D01*
X0480982Y0465696D01*
X0480875Y0465547D01*
X0480764Y0465401D01*
X0480649Y0465258D01*
X0480531Y0465118D01*
X0480410Y0464980D01*
X0480285Y0464846D01*
X0480157Y0464714D01*
X0480025Y0464586D01*
X0479891Y0464461D01*
X0479753Y0464340D01*
X0479613Y0464222D01*
X0479470Y0464107D01*
X0479324Y0463996D01*
X0479175Y0463889D01*
X0479024Y0463785D01*
X0478870Y0463685D01*
X0478714Y0463588D01*
X0478555Y0463496D01*
X0478395Y0463408D01*
X0478232Y0463323D01*
X0478067Y0463243D01*
X0477900Y0463166D01*
X0477732Y0463094D01*
X0477561Y0463026D01*
X0477389Y0462962D01*
X0477216Y0462902D01*
X0477041Y0462847D01*
X0476865Y0462796D01*
X0476687Y0462749D01*
X0476509Y0462707D01*
X0476329Y0462669D01*
X0476149Y0462635D01*
X0475968Y0462606D01*
X0475786Y0462581D01*
X0475604Y0462561D01*
X0475421Y0462545D01*
X0475238Y0462534D01*
X0475054Y0462527D01*
X0474871Y0462525D01*
X0474688Y0462527D01*
X0474504Y0462534D01*
X0474321Y0462545D01*
X0474138Y0462561D01*
X0473956Y0462581D01*
X0473774Y0462606D01*
X0473593Y0462635D01*
X0473413Y0462669D01*
X0473233Y0462707D01*
X0473055Y0462749D01*
X0472877Y0462796D01*
X0472701Y0462847D01*
X0472526Y0462902D01*
X0472353Y0462962D01*
X0472181Y0463026D01*
X0472010Y0463094D01*
X0471842Y0463166D01*
X0471675Y0463243D01*
X0471510Y0463323D01*
X0471347Y0463408D01*
X0471187Y0463496D01*
X0471028Y0463588D01*
X0470872Y0463685D01*
X0470718Y0463785D01*
X0470567Y0463889D01*
X0470418Y0463996D01*
X0470272Y0464107D01*
X0470129Y0464222D01*
X0469989Y0464340D01*
X0469851Y0464461D01*
X0469717Y0464586D01*
X0469585Y0464714D01*
X0469457Y0464846D01*
X0469332Y0464980D01*
X0469211Y0465118D01*
X0469093Y0465258D01*
X0468978Y0465401D01*
X0468867Y0465547D01*
X0468760Y0465696D01*
X0468656Y0465847D01*
X0468556Y0466001D01*
X0468459Y0466157D01*
X0468367Y0466316D01*
X0468279Y0466476D01*
X0468194Y0466639D01*
X0468114Y0466804D01*
X0468037Y0466971D01*
X0467965Y0467139D01*
X0467897Y0467310D01*
X0467833Y0467482D01*
X0467773Y0467655D01*
X0467718Y0467830D01*
X0467667Y0468006D01*
X0467620Y0468184D01*
X0467578Y0468362D01*
X0467540Y0468542D01*
X0467506Y0468722D01*
X0467477Y0468903D01*
X0467452Y0469085D01*
X0467432Y0469267D01*
X0467416Y0469450D01*
X0467405Y0469633D01*
X0467398Y0469817D01*
X0467396Y0470000D01*
X0370396Y0131000D02*
X0370398Y0131183D01*
X0370405Y0131367D01*
X0370416Y0131550D01*
X0370432Y0131733D01*
X0370452Y0131915D01*
X0370477Y0132097D01*
X0370506Y0132278D01*
X0370540Y0132458D01*
X0370578Y0132638D01*
X0370620Y0132816D01*
X0370667Y0132994D01*
X0370718Y0133170D01*
X0370773Y0133345D01*
X0370833Y0133518D01*
X0370897Y0133690D01*
X0370965Y0133861D01*
X0371037Y0134029D01*
X0371114Y0134196D01*
X0371194Y0134361D01*
X0371279Y0134524D01*
X0371367Y0134684D01*
X0371459Y0134843D01*
X0371556Y0134999D01*
X0371656Y0135153D01*
X0371760Y0135304D01*
X0371867Y0135453D01*
X0371978Y0135599D01*
X0372093Y0135742D01*
X0372211Y0135882D01*
X0372332Y0136020D01*
X0372457Y0136154D01*
X0372585Y0136286D01*
X0372717Y0136414D01*
X0372851Y0136539D01*
X0372989Y0136660D01*
X0373129Y0136778D01*
X0373272Y0136893D01*
X0373418Y0137004D01*
X0373567Y0137111D01*
X0373718Y0137215D01*
X0373872Y0137315D01*
X0374028Y0137412D01*
X0374187Y0137504D01*
X0374347Y0137592D01*
X0374510Y0137677D01*
X0374675Y0137757D01*
X0374842Y0137834D01*
X0375010Y0137906D01*
X0375181Y0137974D01*
X0375353Y0138038D01*
X0375526Y0138098D01*
X0375701Y0138153D01*
X0375877Y0138204D01*
X0376055Y0138251D01*
X0376233Y0138293D01*
X0376413Y0138331D01*
X0376593Y0138365D01*
X0376774Y0138394D01*
X0376956Y0138419D01*
X0377138Y0138439D01*
X0377321Y0138455D01*
X0377504Y0138466D01*
X0377688Y0138473D01*
X0377871Y0138475D01*
X0378054Y0138473D01*
X0378238Y0138466D01*
X0378421Y0138455D01*
X0378604Y0138439D01*
X0378786Y0138419D01*
X0378968Y0138394D01*
X0379149Y0138365D01*
X0379329Y0138331D01*
X0379509Y0138293D01*
X0379687Y0138251D01*
X0379865Y0138204D01*
X0380041Y0138153D01*
X0380216Y0138098D01*
X0380389Y0138038D01*
X0380561Y0137974D01*
X0380732Y0137906D01*
X0380900Y0137834D01*
X0381067Y0137757D01*
X0381232Y0137677D01*
X0381395Y0137592D01*
X0381555Y0137504D01*
X0381714Y0137412D01*
X0381870Y0137315D01*
X0382024Y0137215D01*
X0382175Y0137111D01*
X0382324Y0137004D01*
X0382470Y0136893D01*
X0382613Y0136778D01*
X0382753Y0136660D01*
X0382891Y0136539D01*
X0383025Y0136414D01*
X0383157Y0136286D01*
X0383285Y0136154D01*
X0383410Y0136020D01*
X0383531Y0135882D01*
X0383649Y0135742D01*
X0383764Y0135599D01*
X0383875Y0135453D01*
X0383982Y0135304D01*
X0384086Y0135153D01*
X0384186Y0134999D01*
X0384283Y0134843D01*
X0384375Y0134684D01*
X0384463Y0134524D01*
X0384548Y0134361D01*
X0384628Y0134196D01*
X0384705Y0134029D01*
X0384777Y0133861D01*
X0384845Y0133690D01*
X0384909Y0133518D01*
X0384969Y0133345D01*
X0385024Y0133170D01*
X0385075Y0132994D01*
X0385122Y0132816D01*
X0385164Y0132638D01*
X0385202Y0132458D01*
X0385236Y0132278D01*
X0385265Y0132097D01*
X0385290Y0131915D01*
X0385310Y0131733D01*
X0385326Y0131550D01*
X0385337Y0131367D01*
X0385344Y0131183D01*
X0385346Y0131000D01*
X0385344Y0130817D01*
X0385337Y0130633D01*
X0385326Y0130450D01*
X0385310Y0130267D01*
X0385290Y0130085D01*
X0385265Y0129903D01*
X0385236Y0129722D01*
X0385202Y0129542D01*
X0385164Y0129362D01*
X0385122Y0129184D01*
X0385075Y0129006D01*
X0385024Y0128830D01*
X0384969Y0128655D01*
X0384909Y0128482D01*
X0384845Y0128310D01*
X0384777Y0128139D01*
X0384705Y0127971D01*
X0384628Y0127804D01*
X0384548Y0127639D01*
X0384463Y0127476D01*
X0384375Y0127316D01*
X0384283Y0127157D01*
X0384186Y0127001D01*
X0384086Y0126847D01*
X0383982Y0126696D01*
X0383875Y0126547D01*
X0383764Y0126401D01*
X0383649Y0126258D01*
X0383531Y0126118D01*
X0383410Y0125980D01*
X0383285Y0125846D01*
X0383157Y0125714D01*
X0383025Y0125586D01*
X0382891Y0125461D01*
X0382753Y0125340D01*
X0382613Y0125222D01*
X0382470Y0125107D01*
X0382324Y0124996D01*
X0382175Y0124889D01*
X0382024Y0124785D01*
X0381870Y0124685D01*
X0381714Y0124588D01*
X0381555Y0124496D01*
X0381395Y0124408D01*
X0381232Y0124323D01*
X0381067Y0124243D01*
X0380900Y0124166D01*
X0380732Y0124094D01*
X0380561Y0124026D01*
X0380389Y0123962D01*
X0380216Y0123902D01*
X0380041Y0123847D01*
X0379865Y0123796D01*
X0379687Y0123749D01*
X0379509Y0123707D01*
X0379329Y0123669D01*
X0379149Y0123635D01*
X0378968Y0123606D01*
X0378786Y0123581D01*
X0378604Y0123561D01*
X0378421Y0123545D01*
X0378238Y0123534D01*
X0378054Y0123527D01*
X0377871Y0123525D01*
X0377688Y0123527D01*
X0377504Y0123534D01*
X0377321Y0123545D01*
X0377138Y0123561D01*
X0376956Y0123581D01*
X0376774Y0123606D01*
X0376593Y0123635D01*
X0376413Y0123669D01*
X0376233Y0123707D01*
X0376055Y0123749D01*
X0375877Y0123796D01*
X0375701Y0123847D01*
X0375526Y0123902D01*
X0375353Y0123962D01*
X0375181Y0124026D01*
X0375010Y0124094D01*
X0374842Y0124166D01*
X0374675Y0124243D01*
X0374510Y0124323D01*
X0374347Y0124408D01*
X0374187Y0124496D01*
X0374028Y0124588D01*
X0373872Y0124685D01*
X0373718Y0124785D01*
X0373567Y0124889D01*
X0373418Y0124996D01*
X0373272Y0125107D01*
X0373129Y0125222D01*
X0372989Y0125340D01*
X0372851Y0125461D01*
X0372717Y0125586D01*
X0372585Y0125714D01*
X0372457Y0125846D01*
X0372332Y0125980D01*
X0372211Y0126118D01*
X0372093Y0126258D01*
X0371978Y0126401D01*
X0371867Y0126547D01*
X0371760Y0126696D01*
X0371656Y0126847D01*
X0371556Y0127001D01*
X0371459Y0127157D01*
X0371367Y0127316D01*
X0371279Y0127476D01*
X0371194Y0127639D01*
X0371114Y0127804D01*
X0371037Y0127971D01*
X0370965Y0128139D01*
X0370897Y0128310D01*
X0370833Y0128482D01*
X0370773Y0128655D01*
X0370718Y0128830D01*
X0370667Y0129006D01*
X0370620Y0129184D01*
X0370578Y0129362D01*
X0370540Y0129542D01*
X0370506Y0129722D01*
X0370477Y0129903D01*
X0370452Y0130085D01*
X0370432Y0130267D01*
X0370416Y0130450D01*
X0370405Y0130633D01*
X0370398Y0130817D01*
X0370396Y0131000D01*
D11*
X0101713Y0225000D02*
X0091713Y0225000D01*
X0082028Y0225000D02*
X0072028Y0225000D01*
X0067713Y0144000D02*
X0057713Y0144000D01*
X0048028Y0144000D02*
X0038028Y0144000D01*
D12*
X0229280Y0532980D02*
X0229280Y0543020D01*
X0244871Y0543020D02*
X0244871Y0532980D01*
X0260461Y0532980D02*
X0260461Y0543020D01*
X0260461Y0605980D02*
X0260461Y0616020D01*
X0244871Y0616020D02*
X0244871Y0605980D01*
X0229280Y0605980D02*
X0229280Y0616020D01*
X0433076Y0268020D02*
X0433076Y0257980D01*
X0448666Y0257980D02*
X0448666Y0268020D01*
X0453076Y0325980D02*
X0453076Y0336020D01*
X0468666Y0336020D02*
X0468666Y0325980D01*
X0466851Y0152386D02*
X0476891Y0152386D01*
X0476891Y0136795D02*
X0466851Y0136795D01*
X0466851Y0121205D02*
X0476891Y0121205D01*
X0476891Y0105614D02*
X0466851Y0105614D01*
X0427891Y0104614D02*
X0417851Y0104614D01*
X0417851Y0120205D02*
X0427891Y0120205D01*
X0427891Y0135795D02*
X0417851Y0135795D01*
X0417851Y0151386D02*
X0427891Y0151386D01*
D13*
X0347123Y0143283D03*
X0301619Y0182583D03*
D14*
X0301619Y0214079D03*
X0347123Y0109819D03*
X0150044Y0182583D03*
X0150044Y0224906D03*
X0104997Y0143283D03*
X0104997Y0121630D03*
X0085280Y0438740D03*
X0085280Y0465315D03*
D15*
X0382871Y0200000D03*
X0403871Y0055000D03*
X0468871Y0425000D03*
D16*
X0448871Y0425000D03*
X0382871Y0220000D03*
X0423871Y0055000D03*
D17*
X0465871Y0054000D03*
X0465871Y0074000D03*
X0433871Y0200000D03*
X0433871Y0220000D03*
X0448871Y0372000D03*
X0468871Y0372000D03*
X0073871Y0201000D03*
X0043871Y0201000D03*
D18*
X0388430Y0302913D03*
D19*
X0388430Y0324567D03*
D20*
X0353871Y0694000D03*
X0343871Y0814000D03*
X0433871Y0694000D03*
X0443871Y0814000D03*
X0167871Y0817000D03*
X0157871Y0697000D03*
X0077871Y0697000D03*
X0067871Y0817000D03*
D21*
X0198871Y1058075D02*
X0198871Y1069925D01*
X0420946Y1099000D02*
X0432796Y1099000D01*
D22*
X0443871Y0962000D03*
X0443871Y0936000D03*
X0443871Y0909000D03*
X0403871Y0909000D03*
X0403871Y0936000D03*
X0385871Y0934000D03*
X0403871Y0962000D03*
X0325871Y0934000D03*
X0168871Y0925000D03*
X0168871Y0904000D03*
X0168871Y0948000D03*
X0168871Y0969000D03*
X0128871Y0969000D03*
X0128871Y0948000D03*
X0128871Y0925000D03*
X0108871Y0904000D03*
X0070371Y0576000D03*
X0159371Y0576000D03*
X0319371Y0570000D03*
X0408371Y0570000D03*
D23*
X0282871Y0880500D02*
X0282871Y0886500D01*
X0272871Y0900500D02*
X0272871Y0906500D01*
X0282871Y0930500D02*
X0282871Y0936500D01*
X0094371Y0932000D02*
X0088371Y0932000D01*
X0064371Y0942000D02*
X0058371Y0942000D01*
X0044371Y0932000D02*
X0038371Y0932000D01*
D24*
X0060871Y1031000D03*
X0168871Y1031000D03*
X0335871Y1021000D03*
X0443871Y1021000D03*
D25*
X0375871Y1099000D03*
X0335871Y1099000D03*
X0198871Y1029000D03*
X0198871Y0989000D03*
M02*
