G75*
%MOIN*%
%OFA0B0*%
%FSLAX25Y25*%
%IPPOS*%
%LPD*%
%AMOC8*
5,1,8,0,0,1.08239X$1,22.5*
%
%ADD10C,0.00500*%
%ADD11C,0.01600*%
%ADD12C,0.00600*%
%ADD13R,0.03500X0.07500*%
%ADD14R,0.03000X0.05500*%
%ADD15R,0.07500X0.03500*%
%ADD16R,0.05500X0.03000*%
%ADD17R,0.02000X0.10000*%
%ADD18R,0.07500X0.03000*%
%ADD19R,0.10000X0.02000*%
%ADD20R,0.03000X0.07500*%
%ADD21C,0.00800*%
D10*
X0106800Y0006800D02*
X0106800Y0176800D01*
X0386800Y0176800D01*
X0386800Y0006800D01*
X0106800Y0006800D01*
X0107800Y0251800D02*
X0387800Y0251800D01*
X0387800Y0421800D01*
X0107800Y0421800D01*
X0107800Y0251800D01*
X0304550Y0446301D02*
X0305301Y0445550D01*
X0306802Y0445550D01*
X0307553Y0446301D01*
X0307553Y0447051D01*
X0306802Y0447802D01*
X0306051Y0447802D01*
X0306802Y0447802D02*
X0307553Y0448553D01*
X0307553Y0449303D01*
X0306802Y0450054D01*
X0305301Y0450054D01*
X0304550Y0449303D01*
X0324050Y0455550D02*
X0327053Y0458553D01*
X0327053Y0459303D01*
X0326302Y0460054D01*
X0324801Y0460054D01*
X0324050Y0459303D01*
X0324050Y0455550D02*
X0327053Y0455550D01*
X0349654Y0455550D02*
X0352656Y0455550D01*
X0351155Y0455550D02*
X0351155Y0460054D01*
X0349654Y0458553D01*
X0366154Y0459303D02*
X0366905Y0460054D01*
X0368406Y0460054D01*
X0369156Y0459303D01*
X0369156Y0458553D01*
X0368406Y0457802D01*
X0369156Y0457051D01*
X0369156Y0456301D01*
X0368406Y0455550D01*
X0366905Y0455550D01*
X0366154Y0456301D01*
X0367655Y0457802D02*
X0368406Y0457802D01*
X0371051Y0450054D02*
X0369550Y0448553D01*
X0371051Y0450054D02*
X0371051Y0445550D01*
X0369550Y0445550D02*
X0372553Y0445550D01*
X0389800Y0487800D02*
X0389800Y0657800D01*
X0109800Y0657800D01*
X0109800Y0487800D01*
X0389800Y0487800D01*
X0429047Y0589946D02*
X0427546Y0591447D01*
X0432050Y0591447D01*
X0432050Y0589946D02*
X0432050Y0592949D01*
X0437546Y0594093D02*
X0437546Y0595594D01*
X0438297Y0596345D01*
X0439047Y0596345D01*
X0439798Y0595594D01*
X0440549Y0596345D01*
X0441299Y0596345D01*
X0442050Y0595594D01*
X0442050Y0594093D01*
X0441299Y0593342D01*
X0439798Y0594843D02*
X0439798Y0595594D01*
X0438297Y0593342D02*
X0437546Y0594093D01*
X0439047Y0609842D02*
X0437546Y0611343D01*
X0442050Y0611343D01*
X0442050Y0609842D02*
X0442050Y0612845D01*
X0442050Y0635446D02*
X0439047Y0638449D01*
X0438297Y0638449D01*
X0437546Y0637698D01*
X0437546Y0636197D01*
X0438297Y0635446D01*
X0442050Y0635446D02*
X0442050Y0638449D01*
X0431299Y0654946D02*
X0432050Y0655697D01*
X0432050Y0657198D01*
X0431299Y0657949D01*
X0430549Y0657949D01*
X0429798Y0657198D01*
X0429798Y0656447D01*
X0429798Y0657198D02*
X0429047Y0657949D01*
X0428297Y0657949D01*
X0427546Y0657198D01*
X0427546Y0655697D01*
X0428297Y0654946D01*
X0433905Y0227054D02*
X0433154Y0226303D01*
X0433905Y0227054D02*
X0435406Y0227054D01*
X0436156Y0226303D01*
X0436156Y0225553D01*
X0435406Y0224802D01*
X0436156Y0224051D01*
X0436156Y0223301D01*
X0435406Y0222550D01*
X0433905Y0222550D01*
X0433154Y0223301D01*
X0434655Y0224802D02*
X0435406Y0224802D01*
X0438051Y0217054D02*
X0438051Y0212550D01*
X0436550Y0212550D02*
X0439553Y0212550D01*
X0436550Y0215553D02*
X0438051Y0217054D01*
X0419656Y0222550D02*
X0416654Y0222550D01*
X0418155Y0222550D02*
X0418155Y0227054D01*
X0416654Y0225553D01*
X0394053Y0225553D02*
X0391050Y0222550D01*
X0394053Y0222550D01*
X0394053Y0225553D02*
X0394053Y0226303D01*
X0393302Y0227054D01*
X0391801Y0227054D01*
X0391050Y0226303D01*
X0374553Y0216303D02*
X0374553Y0215553D01*
X0373802Y0214802D01*
X0374553Y0214051D01*
X0374553Y0213301D01*
X0373802Y0212550D01*
X0372301Y0212550D01*
X0371550Y0213301D01*
X0373051Y0214802D02*
X0373802Y0214802D01*
X0374553Y0216303D02*
X0373802Y0217054D01*
X0372301Y0217054D01*
X0371550Y0216303D01*
D11*
X0414800Y0311800D02*
X0419800Y0311800D01*
X0424800Y0311800D01*
X0424800Y0315300D02*
X0419800Y0315300D01*
X0414800Y0315300D01*
X0440800Y0315300D02*
X0445800Y0315300D01*
X0450800Y0315300D01*
X0450800Y0311800D02*
X0445800Y0311800D01*
X0440800Y0311800D01*
X0466800Y0311800D02*
X0471800Y0311800D01*
X0476800Y0311800D01*
X0476800Y0315300D02*
X0471800Y0315300D01*
X0466800Y0315300D01*
X0522300Y0298800D02*
X0529800Y0298800D01*
X0537300Y0298800D01*
X0537300Y0295300D02*
X0529800Y0295300D01*
X0522300Y0295300D01*
X0523300Y0382800D02*
X0530800Y0382800D01*
X0538300Y0382800D01*
X0538300Y0386300D02*
X0530800Y0386300D01*
X0523300Y0386300D01*
X0470800Y0434300D02*
X0465800Y0434300D01*
X0460800Y0434300D01*
X0460800Y0437800D02*
X0465800Y0437800D01*
X0470800Y0437800D01*
X0446800Y0437800D02*
X0441800Y0437800D01*
X0436800Y0437800D01*
X0436800Y0434300D02*
X0441800Y0434300D01*
X0446800Y0434300D01*
X0422800Y0434300D02*
X0417800Y0434300D01*
X0412800Y0434300D01*
X0412800Y0437800D02*
X0417800Y0437800D01*
X0422800Y0437800D01*
X0422800Y0529300D02*
X0417800Y0529300D01*
X0417800Y0532800D02*
X0422800Y0532800D01*
X0427800Y0532800D01*
X0427800Y0529300D02*
X0422800Y0529300D01*
X0440800Y0529300D02*
X0445800Y0529300D01*
X0450800Y0529300D01*
X0450800Y0532800D02*
X0445800Y0532800D01*
X0440800Y0532800D01*
X0461800Y0532800D02*
X0466800Y0532800D01*
X0471800Y0532800D01*
X0471800Y0529300D02*
X0466800Y0529300D01*
X0461800Y0529300D01*
X0521300Y0545800D02*
X0528800Y0545800D01*
X0536300Y0545800D01*
X0536300Y0549300D02*
X0528800Y0549300D01*
X0521300Y0549300D01*
X0518800Y0125800D02*
X0511300Y0125800D01*
X0511300Y0122300D02*
X0518800Y0122300D01*
X0526300Y0122300D01*
X0526300Y0125800D02*
X0518800Y0125800D01*
X0464800Y0074300D02*
X0459800Y0074300D01*
X0454800Y0074300D01*
X0454800Y0070800D02*
X0459800Y0070800D01*
X0464800Y0070800D01*
X0438800Y0070800D02*
X0433800Y0070800D01*
X0428800Y0070800D01*
X0428800Y0074300D02*
X0433800Y0074300D01*
X0438800Y0074300D01*
X0411800Y0074300D02*
X0406800Y0074300D01*
X0401800Y0074300D01*
X0401800Y0070800D02*
X0406800Y0070800D01*
X0411800Y0070800D01*
D12*
X0406800Y0070800D02*
X0406800Y0046800D01*
X0398800Y0037800D02*
X0398802Y0037713D01*
X0398808Y0037626D01*
X0398817Y0037539D01*
X0398830Y0037453D01*
X0398847Y0037367D01*
X0398868Y0037282D01*
X0398893Y0037199D01*
X0398921Y0037116D01*
X0398952Y0037035D01*
X0398987Y0036955D01*
X0399026Y0036877D01*
X0399068Y0036800D01*
X0399113Y0036725D01*
X0399162Y0036653D01*
X0399213Y0036582D01*
X0399268Y0036514D01*
X0399325Y0036449D01*
X0399386Y0036386D01*
X0399449Y0036325D01*
X0399514Y0036268D01*
X0399582Y0036213D01*
X0399653Y0036162D01*
X0399725Y0036113D01*
X0399800Y0036068D01*
X0399877Y0036026D01*
X0399955Y0035987D01*
X0400035Y0035952D01*
X0400116Y0035921D01*
X0400199Y0035893D01*
X0400282Y0035868D01*
X0400367Y0035847D01*
X0400453Y0035830D01*
X0400539Y0035817D01*
X0400626Y0035808D01*
X0400713Y0035802D01*
X0400800Y0035800D01*
X0412800Y0035800D01*
X0412887Y0035802D01*
X0412974Y0035808D01*
X0413061Y0035817D01*
X0413147Y0035830D01*
X0413233Y0035847D01*
X0413318Y0035868D01*
X0413401Y0035893D01*
X0413484Y0035921D01*
X0413565Y0035952D01*
X0413645Y0035987D01*
X0413723Y0036026D01*
X0413800Y0036068D01*
X0413875Y0036113D01*
X0413947Y0036162D01*
X0414018Y0036213D01*
X0414086Y0036268D01*
X0414151Y0036325D01*
X0414214Y0036386D01*
X0414275Y0036449D01*
X0414332Y0036514D01*
X0414387Y0036582D01*
X0414438Y0036653D01*
X0414487Y0036725D01*
X0414532Y0036800D01*
X0414574Y0036877D01*
X0414613Y0036955D01*
X0414648Y0037035D01*
X0414679Y0037116D01*
X0414707Y0037199D01*
X0414732Y0037282D01*
X0414753Y0037367D01*
X0414770Y0037453D01*
X0414783Y0037539D01*
X0414792Y0037626D01*
X0414798Y0037713D01*
X0414800Y0037800D01*
X0414800Y0085800D01*
X0414798Y0085887D01*
X0414792Y0085974D01*
X0414783Y0086061D01*
X0414770Y0086147D01*
X0414753Y0086233D01*
X0414732Y0086318D01*
X0414707Y0086401D01*
X0414679Y0086484D01*
X0414648Y0086565D01*
X0414613Y0086645D01*
X0414574Y0086723D01*
X0414532Y0086800D01*
X0414487Y0086875D01*
X0414438Y0086947D01*
X0414387Y0087018D01*
X0414332Y0087086D01*
X0414275Y0087151D01*
X0414214Y0087214D01*
X0414151Y0087275D01*
X0414086Y0087332D01*
X0414018Y0087387D01*
X0413947Y0087438D01*
X0413875Y0087487D01*
X0413800Y0087532D01*
X0413723Y0087574D01*
X0413645Y0087613D01*
X0413565Y0087648D01*
X0413484Y0087679D01*
X0413401Y0087707D01*
X0413318Y0087732D01*
X0413233Y0087753D01*
X0413147Y0087770D01*
X0413061Y0087783D01*
X0412974Y0087792D01*
X0412887Y0087798D01*
X0412800Y0087800D01*
X0400800Y0087800D01*
X0400713Y0087798D01*
X0400626Y0087792D01*
X0400539Y0087783D01*
X0400453Y0087770D01*
X0400367Y0087753D01*
X0400282Y0087732D01*
X0400199Y0087707D01*
X0400116Y0087679D01*
X0400035Y0087648D01*
X0399955Y0087613D01*
X0399877Y0087574D01*
X0399800Y0087532D01*
X0399725Y0087487D01*
X0399653Y0087438D01*
X0399582Y0087387D01*
X0399514Y0087332D01*
X0399449Y0087275D01*
X0399386Y0087214D01*
X0399325Y0087151D01*
X0399268Y0087086D01*
X0399213Y0087018D01*
X0399162Y0086947D01*
X0399113Y0086875D01*
X0399068Y0086800D01*
X0399026Y0086723D01*
X0398987Y0086645D01*
X0398952Y0086565D01*
X0398921Y0086484D01*
X0398893Y0086401D01*
X0398868Y0086318D01*
X0398847Y0086233D01*
X0398830Y0086147D01*
X0398817Y0086061D01*
X0398808Y0085974D01*
X0398802Y0085887D01*
X0398800Y0085800D01*
X0398800Y0037800D01*
X0425800Y0037800D02*
X0425800Y0085800D01*
X0425802Y0085887D01*
X0425808Y0085974D01*
X0425817Y0086061D01*
X0425830Y0086147D01*
X0425847Y0086233D01*
X0425868Y0086318D01*
X0425893Y0086401D01*
X0425921Y0086484D01*
X0425952Y0086565D01*
X0425987Y0086645D01*
X0426026Y0086723D01*
X0426068Y0086800D01*
X0426113Y0086875D01*
X0426162Y0086947D01*
X0426213Y0087018D01*
X0426268Y0087086D01*
X0426325Y0087151D01*
X0426386Y0087214D01*
X0426449Y0087275D01*
X0426514Y0087332D01*
X0426582Y0087387D01*
X0426653Y0087438D01*
X0426725Y0087487D01*
X0426800Y0087532D01*
X0426877Y0087574D01*
X0426955Y0087613D01*
X0427035Y0087648D01*
X0427116Y0087679D01*
X0427199Y0087707D01*
X0427282Y0087732D01*
X0427367Y0087753D01*
X0427453Y0087770D01*
X0427539Y0087783D01*
X0427626Y0087792D01*
X0427713Y0087798D01*
X0427800Y0087800D01*
X0439800Y0087800D01*
X0439887Y0087798D01*
X0439974Y0087792D01*
X0440061Y0087783D01*
X0440147Y0087770D01*
X0440233Y0087753D01*
X0440318Y0087732D01*
X0440401Y0087707D01*
X0440484Y0087679D01*
X0440565Y0087648D01*
X0440645Y0087613D01*
X0440723Y0087574D01*
X0440800Y0087532D01*
X0440875Y0087487D01*
X0440947Y0087438D01*
X0441018Y0087387D01*
X0441086Y0087332D01*
X0441151Y0087275D01*
X0441214Y0087214D01*
X0441275Y0087151D01*
X0441332Y0087086D01*
X0441387Y0087018D01*
X0441438Y0086947D01*
X0441487Y0086875D01*
X0441532Y0086800D01*
X0441574Y0086723D01*
X0441613Y0086645D01*
X0441648Y0086565D01*
X0441679Y0086484D01*
X0441707Y0086401D01*
X0441732Y0086318D01*
X0441753Y0086233D01*
X0441770Y0086147D01*
X0441783Y0086061D01*
X0441792Y0085974D01*
X0441798Y0085887D01*
X0441800Y0085800D01*
X0441800Y0037800D01*
X0441798Y0037713D01*
X0441792Y0037626D01*
X0441783Y0037539D01*
X0441770Y0037453D01*
X0441753Y0037367D01*
X0441732Y0037282D01*
X0441707Y0037199D01*
X0441679Y0037116D01*
X0441648Y0037035D01*
X0441613Y0036955D01*
X0441574Y0036877D01*
X0441532Y0036800D01*
X0441487Y0036725D01*
X0441438Y0036653D01*
X0441387Y0036582D01*
X0441332Y0036514D01*
X0441275Y0036449D01*
X0441214Y0036386D01*
X0441151Y0036325D01*
X0441086Y0036268D01*
X0441018Y0036213D01*
X0440947Y0036162D01*
X0440875Y0036113D01*
X0440800Y0036068D01*
X0440723Y0036026D01*
X0440645Y0035987D01*
X0440565Y0035952D01*
X0440484Y0035921D01*
X0440401Y0035893D01*
X0440318Y0035868D01*
X0440233Y0035847D01*
X0440147Y0035830D01*
X0440061Y0035817D01*
X0439974Y0035808D01*
X0439887Y0035802D01*
X0439800Y0035800D01*
X0427800Y0035800D01*
X0427713Y0035802D01*
X0427626Y0035808D01*
X0427539Y0035817D01*
X0427453Y0035830D01*
X0427367Y0035847D01*
X0427282Y0035868D01*
X0427199Y0035893D01*
X0427116Y0035921D01*
X0427035Y0035952D01*
X0426955Y0035987D01*
X0426877Y0036026D01*
X0426800Y0036068D01*
X0426725Y0036113D01*
X0426653Y0036162D01*
X0426582Y0036213D01*
X0426514Y0036268D01*
X0426449Y0036325D01*
X0426386Y0036386D01*
X0426325Y0036449D01*
X0426268Y0036514D01*
X0426213Y0036582D01*
X0426162Y0036653D01*
X0426113Y0036725D01*
X0426068Y0036800D01*
X0426026Y0036877D01*
X0425987Y0036955D01*
X0425952Y0037035D01*
X0425921Y0037116D01*
X0425893Y0037199D01*
X0425868Y0037282D01*
X0425847Y0037367D01*
X0425830Y0037453D01*
X0425817Y0037539D01*
X0425808Y0037626D01*
X0425802Y0037713D01*
X0425800Y0037800D01*
X0433800Y0046800D02*
X0433800Y0070800D01*
X0433800Y0074300D02*
X0433800Y0076800D01*
X0451800Y0085800D02*
X0451800Y0037800D01*
X0451802Y0037713D01*
X0451808Y0037626D01*
X0451817Y0037539D01*
X0451830Y0037453D01*
X0451847Y0037367D01*
X0451868Y0037282D01*
X0451893Y0037199D01*
X0451921Y0037116D01*
X0451952Y0037035D01*
X0451987Y0036955D01*
X0452026Y0036877D01*
X0452068Y0036800D01*
X0452113Y0036725D01*
X0452162Y0036653D01*
X0452213Y0036582D01*
X0452268Y0036514D01*
X0452325Y0036449D01*
X0452386Y0036386D01*
X0452449Y0036325D01*
X0452514Y0036268D01*
X0452582Y0036213D01*
X0452653Y0036162D01*
X0452725Y0036113D01*
X0452800Y0036068D01*
X0452877Y0036026D01*
X0452955Y0035987D01*
X0453035Y0035952D01*
X0453116Y0035921D01*
X0453199Y0035893D01*
X0453282Y0035868D01*
X0453367Y0035847D01*
X0453453Y0035830D01*
X0453539Y0035817D01*
X0453626Y0035808D01*
X0453713Y0035802D01*
X0453800Y0035800D01*
X0465800Y0035800D01*
X0465887Y0035802D01*
X0465974Y0035808D01*
X0466061Y0035817D01*
X0466147Y0035830D01*
X0466233Y0035847D01*
X0466318Y0035868D01*
X0466401Y0035893D01*
X0466484Y0035921D01*
X0466565Y0035952D01*
X0466645Y0035987D01*
X0466723Y0036026D01*
X0466800Y0036068D01*
X0466875Y0036113D01*
X0466947Y0036162D01*
X0467018Y0036213D01*
X0467086Y0036268D01*
X0467151Y0036325D01*
X0467214Y0036386D01*
X0467275Y0036449D01*
X0467332Y0036514D01*
X0467387Y0036582D01*
X0467438Y0036653D01*
X0467487Y0036725D01*
X0467532Y0036800D01*
X0467574Y0036877D01*
X0467613Y0036955D01*
X0467648Y0037035D01*
X0467679Y0037116D01*
X0467707Y0037199D01*
X0467732Y0037282D01*
X0467753Y0037367D01*
X0467770Y0037453D01*
X0467783Y0037539D01*
X0467792Y0037626D01*
X0467798Y0037713D01*
X0467800Y0037800D01*
X0467800Y0085800D01*
X0467798Y0085887D01*
X0467792Y0085974D01*
X0467783Y0086061D01*
X0467770Y0086147D01*
X0467753Y0086233D01*
X0467732Y0086318D01*
X0467707Y0086401D01*
X0467679Y0086484D01*
X0467648Y0086565D01*
X0467613Y0086645D01*
X0467574Y0086723D01*
X0467532Y0086800D01*
X0467487Y0086875D01*
X0467438Y0086947D01*
X0467387Y0087018D01*
X0467332Y0087086D01*
X0467275Y0087151D01*
X0467214Y0087214D01*
X0467151Y0087275D01*
X0467086Y0087332D01*
X0467018Y0087387D01*
X0466947Y0087438D01*
X0466875Y0087487D01*
X0466800Y0087532D01*
X0466723Y0087574D01*
X0466645Y0087613D01*
X0466565Y0087648D01*
X0466484Y0087679D01*
X0466401Y0087707D01*
X0466318Y0087732D01*
X0466233Y0087753D01*
X0466147Y0087770D01*
X0466061Y0087783D01*
X0465974Y0087792D01*
X0465887Y0087798D01*
X0465800Y0087800D01*
X0453800Y0087800D01*
X0453713Y0087798D01*
X0453626Y0087792D01*
X0453539Y0087783D01*
X0453453Y0087770D01*
X0453367Y0087753D01*
X0453282Y0087732D01*
X0453199Y0087707D01*
X0453116Y0087679D01*
X0453035Y0087648D01*
X0452955Y0087613D01*
X0452877Y0087574D01*
X0452800Y0087532D01*
X0452725Y0087487D01*
X0452653Y0087438D01*
X0452582Y0087387D01*
X0452514Y0087332D01*
X0452449Y0087275D01*
X0452386Y0087214D01*
X0452325Y0087151D01*
X0452268Y0087086D01*
X0452213Y0087018D01*
X0452162Y0086947D01*
X0452113Y0086875D01*
X0452068Y0086800D01*
X0452026Y0086723D01*
X0451987Y0086645D01*
X0451952Y0086565D01*
X0451921Y0086484D01*
X0451893Y0086401D01*
X0451868Y0086318D01*
X0451847Y0086233D01*
X0451830Y0086147D01*
X0451817Y0086061D01*
X0451808Y0085974D01*
X0451802Y0085887D01*
X0451800Y0085800D01*
X0459800Y0076800D02*
X0459800Y0074300D01*
X0459800Y0070800D02*
X0459800Y0046800D01*
X0478800Y0035800D02*
X0478800Y0155800D01*
X0478802Y0155887D01*
X0478808Y0155974D01*
X0478817Y0156061D01*
X0478830Y0156147D01*
X0478847Y0156233D01*
X0478868Y0156318D01*
X0478893Y0156401D01*
X0478921Y0156484D01*
X0478952Y0156565D01*
X0478987Y0156645D01*
X0479026Y0156723D01*
X0479068Y0156800D01*
X0479113Y0156875D01*
X0479162Y0156947D01*
X0479213Y0157018D01*
X0479268Y0157086D01*
X0479325Y0157151D01*
X0479386Y0157214D01*
X0479449Y0157275D01*
X0479514Y0157332D01*
X0479582Y0157387D01*
X0479653Y0157438D01*
X0479725Y0157487D01*
X0479800Y0157532D01*
X0479877Y0157574D01*
X0479955Y0157613D01*
X0480035Y0157648D01*
X0480116Y0157679D01*
X0480199Y0157707D01*
X0480282Y0157732D01*
X0480367Y0157753D01*
X0480453Y0157770D01*
X0480539Y0157783D01*
X0480626Y0157792D01*
X0480713Y0157798D01*
X0480800Y0157800D01*
X0556800Y0157800D01*
X0556887Y0157798D01*
X0556974Y0157792D01*
X0557061Y0157783D01*
X0557147Y0157770D01*
X0557233Y0157753D01*
X0557318Y0157732D01*
X0557401Y0157707D01*
X0557484Y0157679D01*
X0557565Y0157648D01*
X0557645Y0157613D01*
X0557723Y0157574D01*
X0557800Y0157532D01*
X0557875Y0157487D01*
X0557947Y0157438D01*
X0558018Y0157387D01*
X0558086Y0157332D01*
X0558151Y0157275D01*
X0558214Y0157214D01*
X0558275Y0157151D01*
X0558332Y0157086D01*
X0558387Y0157018D01*
X0558438Y0156947D01*
X0558487Y0156875D01*
X0558532Y0156800D01*
X0558574Y0156723D01*
X0558613Y0156645D01*
X0558648Y0156565D01*
X0558679Y0156484D01*
X0558707Y0156401D01*
X0558732Y0156318D01*
X0558753Y0156233D01*
X0558770Y0156147D01*
X0558783Y0156061D01*
X0558792Y0155974D01*
X0558798Y0155887D01*
X0558800Y0155800D01*
X0558800Y0035800D01*
X0558798Y0035713D01*
X0558792Y0035626D01*
X0558783Y0035539D01*
X0558770Y0035453D01*
X0558753Y0035367D01*
X0558732Y0035282D01*
X0558707Y0035199D01*
X0558679Y0035116D01*
X0558648Y0035035D01*
X0558613Y0034955D01*
X0558574Y0034877D01*
X0558532Y0034800D01*
X0558487Y0034725D01*
X0558438Y0034653D01*
X0558387Y0034582D01*
X0558332Y0034514D01*
X0558275Y0034449D01*
X0558214Y0034386D01*
X0558151Y0034325D01*
X0558086Y0034268D01*
X0558018Y0034213D01*
X0557947Y0034162D01*
X0557875Y0034113D01*
X0557800Y0034068D01*
X0557723Y0034026D01*
X0557645Y0033987D01*
X0557565Y0033952D01*
X0557484Y0033921D01*
X0557401Y0033893D01*
X0557318Y0033868D01*
X0557233Y0033847D01*
X0557147Y0033830D01*
X0557061Y0033817D01*
X0556974Y0033808D01*
X0556887Y0033802D01*
X0556800Y0033800D01*
X0480800Y0033800D01*
X0480713Y0033802D01*
X0480626Y0033808D01*
X0480539Y0033817D01*
X0480453Y0033830D01*
X0480367Y0033847D01*
X0480282Y0033868D01*
X0480199Y0033893D01*
X0480116Y0033921D01*
X0480035Y0033952D01*
X0479955Y0033987D01*
X0479877Y0034026D01*
X0479800Y0034068D01*
X0479725Y0034113D01*
X0479653Y0034162D01*
X0479582Y0034213D01*
X0479514Y0034268D01*
X0479449Y0034325D01*
X0479386Y0034386D01*
X0479325Y0034449D01*
X0479268Y0034514D01*
X0479213Y0034582D01*
X0479162Y0034653D01*
X0479113Y0034725D01*
X0479068Y0034800D01*
X0479026Y0034877D01*
X0478987Y0034955D01*
X0478952Y0035035D01*
X0478921Y0035116D01*
X0478893Y0035199D01*
X0478868Y0035282D01*
X0478847Y0035367D01*
X0478830Y0035453D01*
X0478817Y0035539D01*
X0478808Y0035626D01*
X0478802Y0035713D01*
X0478800Y0035800D01*
X0518800Y0050300D02*
X0518800Y0122300D01*
X0518800Y0125800D02*
X0518800Y0141300D01*
X0491800Y0206800D02*
X0567800Y0206800D01*
X0567887Y0206802D01*
X0567974Y0206808D01*
X0568061Y0206817D01*
X0568147Y0206830D01*
X0568233Y0206847D01*
X0568318Y0206868D01*
X0568401Y0206893D01*
X0568484Y0206921D01*
X0568565Y0206952D01*
X0568645Y0206987D01*
X0568723Y0207026D01*
X0568800Y0207068D01*
X0568875Y0207113D01*
X0568947Y0207162D01*
X0569018Y0207213D01*
X0569086Y0207268D01*
X0569151Y0207325D01*
X0569214Y0207386D01*
X0569275Y0207449D01*
X0569332Y0207514D01*
X0569387Y0207582D01*
X0569438Y0207653D01*
X0569487Y0207725D01*
X0569532Y0207800D01*
X0569574Y0207877D01*
X0569613Y0207955D01*
X0569648Y0208035D01*
X0569679Y0208116D01*
X0569707Y0208199D01*
X0569732Y0208282D01*
X0569753Y0208367D01*
X0569770Y0208453D01*
X0569783Y0208539D01*
X0569792Y0208626D01*
X0569798Y0208713D01*
X0569800Y0208800D01*
X0569800Y0328800D01*
X0569798Y0328887D01*
X0569792Y0328974D01*
X0569783Y0329061D01*
X0569770Y0329147D01*
X0569753Y0329233D01*
X0569732Y0329318D01*
X0569707Y0329401D01*
X0569679Y0329484D01*
X0569648Y0329565D01*
X0569613Y0329645D01*
X0569574Y0329723D01*
X0569532Y0329800D01*
X0569487Y0329875D01*
X0569438Y0329947D01*
X0569387Y0330018D01*
X0569332Y0330086D01*
X0569275Y0330151D01*
X0569214Y0330214D01*
X0569151Y0330275D01*
X0569086Y0330332D01*
X0569018Y0330387D01*
X0568947Y0330438D01*
X0568875Y0330487D01*
X0568800Y0330532D01*
X0568723Y0330574D01*
X0568645Y0330613D01*
X0568565Y0330648D01*
X0568484Y0330679D01*
X0568401Y0330707D01*
X0568318Y0330732D01*
X0568233Y0330753D01*
X0568147Y0330770D01*
X0568061Y0330783D01*
X0567974Y0330792D01*
X0567887Y0330798D01*
X0567800Y0330800D01*
X0491800Y0330800D01*
X0491713Y0330798D01*
X0491626Y0330792D01*
X0491539Y0330783D01*
X0491453Y0330770D01*
X0491367Y0330753D01*
X0491282Y0330732D01*
X0491199Y0330707D01*
X0491116Y0330679D01*
X0491035Y0330648D01*
X0490955Y0330613D01*
X0490877Y0330574D01*
X0490800Y0330532D01*
X0490725Y0330487D01*
X0490653Y0330438D01*
X0490582Y0330387D01*
X0490514Y0330332D01*
X0490449Y0330275D01*
X0490386Y0330214D01*
X0490325Y0330151D01*
X0490268Y0330086D01*
X0490213Y0330018D01*
X0490162Y0329947D01*
X0490113Y0329875D01*
X0490068Y0329800D01*
X0490026Y0329723D01*
X0489987Y0329645D01*
X0489952Y0329565D01*
X0489921Y0329484D01*
X0489893Y0329401D01*
X0489868Y0329318D01*
X0489847Y0329233D01*
X0489830Y0329147D01*
X0489817Y0329061D01*
X0489808Y0328974D01*
X0489802Y0328887D01*
X0489800Y0328800D01*
X0489800Y0208800D01*
X0489802Y0208713D01*
X0489808Y0208626D01*
X0489817Y0208539D01*
X0489830Y0208453D01*
X0489847Y0208367D01*
X0489868Y0208282D01*
X0489893Y0208199D01*
X0489921Y0208116D01*
X0489952Y0208035D01*
X0489987Y0207955D01*
X0490026Y0207877D01*
X0490068Y0207800D01*
X0490113Y0207725D01*
X0490162Y0207653D01*
X0490213Y0207582D01*
X0490268Y0207514D01*
X0490325Y0207449D01*
X0490386Y0207386D01*
X0490449Y0207325D01*
X0490514Y0207268D01*
X0490582Y0207213D01*
X0490653Y0207162D01*
X0490725Y0207113D01*
X0490800Y0207068D01*
X0490877Y0207026D01*
X0490955Y0206987D01*
X0491035Y0206952D01*
X0491116Y0206921D01*
X0491199Y0206893D01*
X0491282Y0206868D01*
X0491367Y0206847D01*
X0491453Y0206830D01*
X0491539Y0206817D01*
X0491626Y0206808D01*
X0491713Y0206802D01*
X0491800Y0206800D01*
X0529800Y0223300D02*
X0529800Y0295300D01*
X0529800Y0298800D02*
X0529800Y0314300D01*
X0492800Y0350800D02*
X0568800Y0350800D01*
X0568887Y0350802D01*
X0568974Y0350808D01*
X0569061Y0350817D01*
X0569147Y0350830D01*
X0569233Y0350847D01*
X0569318Y0350868D01*
X0569401Y0350893D01*
X0569484Y0350921D01*
X0569565Y0350952D01*
X0569645Y0350987D01*
X0569723Y0351026D01*
X0569800Y0351068D01*
X0569875Y0351113D01*
X0569947Y0351162D01*
X0570018Y0351213D01*
X0570086Y0351268D01*
X0570151Y0351325D01*
X0570214Y0351386D01*
X0570275Y0351449D01*
X0570332Y0351514D01*
X0570387Y0351582D01*
X0570438Y0351653D01*
X0570487Y0351725D01*
X0570532Y0351800D01*
X0570574Y0351877D01*
X0570613Y0351955D01*
X0570648Y0352035D01*
X0570679Y0352116D01*
X0570707Y0352199D01*
X0570732Y0352282D01*
X0570753Y0352367D01*
X0570770Y0352453D01*
X0570783Y0352539D01*
X0570792Y0352626D01*
X0570798Y0352713D01*
X0570800Y0352800D01*
X0570800Y0472800D01*
X0570798Y0472887D01*
X0570792Y0472974D01*
X0570783Y0473061D01*
X0570770Y0473147D01*
X0570753Y0473233D01*
X0570732Y0473318D01*
X0570707Y0473401D01*
X0570679Y0473484D01*
X0570648Y0473565D01*
X0570613Y0473645D01*
X0570574Y0473723D01*
X0570532Y0473800D01*
X0570487Y0473875D01*
X0570438Y0473947D01*
X0570387Y0474018D01*
X0570332Y0474086D01*
X0570275Y0474151D01*
X0570214Y0474214D01*
X0570151Y0474275D01*
X0570086Y0474332D01*
X0570018Y0474387D01*
X0569947Y0474438D01*
X0569875Y0474487D01*
X0569800Y0474532D01*
X0569723Y0474574D01*
X0569645Y0474613D01*
X0569565Y0474648D01*
X0569484Y0474679D01*
X0569401Y0474707D01*
X0569318Y0474732D01*
X0569233Y0474753D01*
X0569147Y0474770D01*
X0569061Y0474783D01*
X0568974Y0474792D01*
X0568887Y0474798D01*
X0568800Y0474800D01*
X0492800Y0474800D01*
X0492713Y0474798D01*
X0492626Y0474792D01*
X0492539Y0474783D01*
X0492453Y0474770D01*
X0492367Y0474753D01*
X0492282Y0474732D01*
X0492199Y0474707D01*
X0492116Y0474679D01*
X0492035Y0474648D01*
X0491955Y0474613D01*
X0491877Y0474574D01*
X0491800Y0474532D01*
X0491725Y0474487D01*
X0491653Y0474438D01*
X0491582Y0474387D01*
X0491514Y0474332D01*
X0491449Y0474275D01*
X0491386Y0474214D01*
X0491325Y0474151D01*
X0491268Y0474086D01*
X0491213Y0474018D01*
X0491162Y0473947D01*
X0491113Y0473875D01*
X0491068Y0473800D01*
X0491026Y0473723D01*
X0490987Y0473645D01*
X0490952Y0473565D01*
X0490921Y0473484D01*
X0490893Y0473401D01*
X0490868Y0473318D01*
X0490847Y0473233D01*
X0490830Y0473147D01*
X0490817Y0473061D01*
X0490808Y0472974D01*
X0490802Y0472887D01*
X0490800Y0472800D01*
X0490800Y0352800D01*
X0490802Y0352713D01*
X0490808Y0352626D01*
X0490817Y0352539D01*
X0490830Y0352453D01*
X0490847Y0352367D01*
X0490868Y0352282D01*
X0490893Y0352199D01*
X0490921Y0352116D01*
X0490952Y0352035D01*
X0490987Y0351955D01*
X0491026Y0351877D01*
X0491068Y0351800D01*
X0491113Y0351725D01*
X0491162Y0351653D01*
X0491213Y0351582D01*
X0491268Y0351514D01*
X0491325Y0351449D01*
X0491386Y0351386D01*
X0491449Y0351325D01*
X0491514Y0351268D01*
X0491582Y0351213D01*
X0491653Y0351162D01*
X0491725Y0351113D01*
X0491800Y0351068D01*
X0491877Y0351026D01*
X0491955Y0350987D01*
X0492035Y0350952D01*
X0492116Y0350921D01*
X0492199Y0350893D01*
X0492282Y0350868D01*
X0492367Y0350847D01*
X0492453Y0350830D01*
X0492539Y0350817D01*
X0492626Y0350808D01*
X0492713Y0350802D01*
X0492800Y0350800D01*
X0477800Y0328800D02*
X0465800Y0328800D01*
X0465713Y0328798D01*
X0465626Y0328792D01*
X0465539Y0328783D01*
X0465453Y0328770D01*
X0465367Y0328753D01*
X0465282Y0328732D01*
X0465199Y0328707D01*
X0465116Y0328679D01*
X0465035Y0328648D01*
X0464955Y0328613D01*
X0464877Y0328574D01*
X0464800Y0328532D01*
X0464725Y0328487D01*
X0464653Y0328438D01*
X0464582Y0328387D01*
X0464514Y0328332D01*
X0464449Y0328275D01*
X0464386Y0328214D01*
X0464325Y0328151D01*
X0464268Y0328086D01*
X0464213Y0328018D01*
X0464162Y0327947D01*
X0464113Y0327875D01*
X0464068Y0327800D01*
X0464026Y0327723D01*
X0463987Y0327645D01*
X0463952Y0327565D01*
X0463921Y0327484D01*
X0463893Y0327401D01*
X0463868Y0327318D01*
X0463847Y0327233D01*
X0463830Y0327147D01*
X0463817Y0327061D01*
X0463808Y0326974D01*
X0463802Y0326887D01*
X0463800Y0326800D01*
X0463800Y0278800D01*
X0463802Y0278713D01*
X0463808Y0278626D01*
X0463817Y0278539D01*
X0463830Y0278453D01*
X0463847Y0278367D01*
X0463868Y0278282D01*
X0463893Y0278199D01*
X0463921Y0278116D01*
X0463952Y0278035D01*
X0463987Y0277955D01*
X0464026Y0277877D01*
X0464068Y0277800D01*
X0464113Y0277725D01*
X0464162Y0277653D01*
X0464213Y0277582D01*
X0464268Y0277514D01*
X0464325Y0277449D01*
X0464386Y0277386D01*
X0464449Y0277325D01*
X0464514Y0277268D01*
X0464582Y0277213D01*
X0464653Y0277162D01*
X0464725Y0277113D01*
X0464800Y0277068D01*
X0464877Y0277026D01*
X0464955Y0276987D01*
X0465035Y0276952D01*
X0465116Y0276921D01*
X0465199Y0276893D01*
X0465282Y0276868D01*
X0465367Y0276847D01*
X0465453Y0276830D01*
X0465539Y0276817D01*
X0465626Y0276808D01*
X0465713Y0276802D01*
X0465800Y0276800D01*
X0477800Y0276800D01*
X0477887Y0276802D01*
X0477974Y0276808D01*
X0478061Y0276817D01*
X0478147Y0276830D01*
X0478233Y0276847D01*
X0478318Y0276868D01*
X0478401Y0276893D01*
X0478484Y0276921D01*
X0478565Y0276952D01*
X0478645Y0276987D01*
X0478723Y0277026D01*
X0478800Y0277068D01*
X0478875Y0277113D01*
X0478947Y0277162D01*
X0479018Y0277213D01*
X0479086Y0277268D01*
X0479151Y0277325D01*
X0479214Y0277386D01*
X0479275Y0277449D01*
X0479332Y0277514D01*
X0479387Y0277582D01*
X0479438Y0277653D01*
X0479487Y0277725D01*
X0479532Y0277800D01*
X0479574Y0277877D01*
X0479613Y0277955D01*
X0479648Y0278035D01*
X0479679Y0278116D01*
X0479707Y0278199D01*
X0479732Y0278282D01*
X0479753Y0278367D01*
X0479770Y0278453D01*
X0479783Y0278539D01*
X0479792Y0278626D01*
X0479798Y0278713D01*
X0479800Y0278800D01*
X0479800Y0326800D01*
X0479798Y0326887D01*
X0479792Y0326974D01*
X0479783Y0327061D01*
X0479770Y0327147D01*
X0479753Y0327233D01*
X0479732Y0327318D01*
X0479707Y0327401D01*
X0479679Y0327484D01*
X0479648Y0327565D01*
X0479613Y0327645D01*
X0479574Y0327723D01*
X0479532Y0327800D01*
X0479487Y0327875D01*
X0479438Y0327947D01*
X0479387Y0328018D01*
X0479332Y0328086D01*
X0479275Y0328151D01*
X0479214Y0328214D01*
X0479151Y0328275D01*
X0479086Y0328332D01*
X0479018Y0328387D01*
X0478947Y0328438D01*
X0478875Y0328487D01*
X0478800Y0328532D01*
X0478723Y0328574D01*
X0478645Y0328613D01*
X0478565Y0328648D01*
X0478484Y0328679D01*
X0478401Y0328707D01*
X0478318Y0328732D01*
X0478233Y0328753D01*
X0478147Y0328770D01*
X0478061Y0328783D01*
X0477974Y0328792D01*
X0477887Y0328798D01*
X0477800Y0328800D01*
X0471800Y0317800D02*
X0471800Y0315300D01*
X0471800Y0311800D02*
X0471800Y0287800D01*
X0453800Y0278800D02*
X0453800Y0326800D01*
X0453798Y0326887D01*
X0453792Y0326974D01*
X0453783Y0327061D01*
X0453770Y0327147D01*
X0453753Y0327233D01*
X0453732Y0327318D01*
X0453707Y0327401D01*
X0453679Y0327484D01*
X0453648Y0327565D01*
X0453613Y0327645D01*
X0453574Y0327723D01*
X0453532Y0327800D01*
X0453487Y0327875D01*
X0453438Y0327947D01*
X0453387Y0328018D01*
X0453332Y0328086D01*
X0453275Y0328151D01*
X0453214Y0328214D01*
X0453151Y0328275D01*
X0453086Y0328332D01*
X0453018Y0328387D01*
X0452947Y0328438D01*
X0452875Y0328487D01*
X0452800Y0328532D01*
X0452723Y0328574D01*
X0452645Y0328613D01*
X0452565Y0328648D01*
X0452484Y0328679D01*
X0452401Y0328707D01*
X0452318Y0328732D01*
X0452233Y0328753D01*
X0452147Y0328770D01*
X0452061Y0328783D01*
X0451974Y0328792D01*
X0451887Y0328798D01*
X0451800Y0328800D01*
X0439800Y0328800D01*
X0439713Y0328798D01*
X0439626Y0328792D01*
X0439539Y0328783D01*
X0439453Y0328770D01*
X0439367Y0328753D01*
X0439282Y0328732D01*
X0439199Y0328707D01*
X0439116Y0328679D01*
X0439035Y0328648D01*
X0438955Y0328613D01*
X0438877Y0328574D01*
X0438800Y0328532D01*
X0438725Y0328487D01*
X0438653Y0328438D01*
X0438582Y0328387D01*
X0438514Y0328332D01*
X0438449Y0328275D01*
X0438386Y0328214D01*
X0438325Y0328151D01*
X0438268Y0328086D01*
X0438213Y0328018D01*
X0438162Y0327947D01*
X0438113Y0327875D01*
X0438068Y0327800D01*
X0438026Y0327723D01*
X0437987Y0327645D01*
X0437952Y0327565D01*
X0437921Y0327484D01*
X0437893Y0327401D01*
X0437868Y0327318D01*
X0437847Y0327233D01*
X0437830Y0327147D01*
X0437817Y0327061D01*
X0437808Y0326974D01*
X0437802Y0326887D01*
X0437800Y0326800D01*
X0437800Y0278800D01*
X0437802Y0278713D01*
X0437808Y0278626D01*
X0437817Y0278539D01*
X0437830Y0278453D01*
X0437847Y0278367D01*
X0437868Y0278282D01*
X0437893Y0278199D01*
X0437921Y0278116D01*
X0437952Y0278035D01*
X0437987Y0277955D01*
X0438026Y0277877D01*
X0438068Y0277800D01*
X0438113Y0277725D01*
X0438162Y0277653D01*
X0438213Y0277582D01*
X0438268Y0277514D01*
X0438325Y0277449D01*
X0438386Y0277386D01*
X0438449Y0277325D01*
X0438514Y0277268D01*
X0438582Y0277213D01*
X0438653Y0277162D01*
X0438725Y0277113D01*
X0438800Y0277068D01*
X0438877Y0277026D01*
X0438955Y0276987D01*
X0439035Y0276952D01*
X0439116Y0276921D01*
X0439199Y0276893D01*
X0439282Y0276868D01*
X0439367Y0276847D01*
X0439453Y0276830D01*
X0439539Y0276817D01*
X0439626Y0276808D01*
X0439713Y0276802D01*
X0439800Y0276800D01*
X0451800Y0276800D01*
X0451887Y0276802D01*
X0451974Y0276808D01*
X0452061Y0276817D01*
X0452147Y0276830D01*
X0452233Y0276847D01*
X0452318Y0276868D01*
X0452401Y0276893D01*
X0452484Y0276921D01*
X0452565Y0276952D01*
X0452645Y0276987D01*
X0452723Y0277026D01*
X0452800Y0277068D01*
X0452875Y0277113D01*
X0452947Y0277162D01*
X0453018Y0277213D01*
X0453086Y0277268D01*
X0453151Y0277325D01*
X0453214Y0277386D01*
X0453275Y0277449D01*
X0453332Y0277514D01*
X0453387Y0277582D01*
X0453438Y0277653D01*
X0453487Y0277725D01*
X0453532Y0277800D01*
X0453574Y0277877D01*
X0453613Y0277955D01*
X0453648Y0278035D01*
X0453679Y0278116D01*
X0453707Y0278199D01*
X0453732Y0278282D01*
X0453753Y0278367D01*
X0453770Y0278453D01*
X0453783Y0278539D01*
X0453792Y0278626D01*
X0453798Y0278713D01*
X0453800Y0278800D01*
X0445800Y0287800D02*
X0445800Y0311800D01*
X0445800Y0315300D02*
X0445800Y0317800D01*
X0427800Y0326800D02*
X0427800Y0278800D01*
X0427798Y0278713D01*
X0427792Y0278626D01*
X0427783Y0278539D01*
X0427770Y0278453D01*
X0427753Y0278367D01*
X0427732Y0278282D01*
X0427707Y0278199D01*
X0427679Y0278116D01*
X0427648Y0278035D01*
X0427613Y0277955D01*
X0427574Y0277877D01*
X0427532Y0277800D01*
X0427487Y0277725D01*
X0427438Y0277653D01*
X0427387Y0277582D01*
X0427332Y0277514D01*
X0427275Y0277449D01*
X0427214Y0277386D01*
X0427151Y0277325D01*
X0427086Y0277268D01*
X0427018Y0277213D01*
X0426947Y0277162D01*
X0426875Y0277113D01*
X0426800Y0277068D01*
X0426723Y0277026D01*
X0426645Y0276987D01*
X0426565Y0276952D01*
X0426484Y0276921D01*
X0426401Y0276893D01*
X0426318Y0276868D01*
X0426233Y0276847D01*
X0426147Y0276830D01*
X0426061Y0276817D01*
X0425974Y0276808D01*
X0425887Y0276802D01*
X0425800Y0276800D01*
X0413800Y0276800D01*
X0413713Y0276802D01*
X0413626Y0276808D01*
X0413539Y0276817D01*
X0413453Y0276830D01*
X0413367Y0276847D01*
X0413282Y0276868D01*
X0413199Y0276893D01*
X0413116Y0276921D01*
X0413035Y0276952D01*
X0412955Y0276987D01*
X0412877Y0277026D01*
X0412800Y0277068D01*
X0412725Y0277113D01*
X0412653Y0277162D01*
X0412582Y0277213D01*
X0412514Y0277268D01*
X0412449Y0277325D01*
X0412386Y0277386D01*
X0412325Y0277449D01*
X0412268Y0277514D01*
X0412213Y0277582D01*
X0412162Y0277653D01*
X0412113Y0277725D01*
X0412068Y0277800D01*
X0412026Y0277877D01*
X0411987Y0277955D01*
X0411952Y0278035D01*
X0411921Y0278116D01*
X0411893Y0278199D01*
X0411868Y0278282D01*
X0411847Y0278367D01*
X0411830Y0278453D01*
X0411817Y0278539D01*
X0411808Y0278626D01*
X0411802Y0278713D01*
X0411800Y0278800D01*
X0411800Y0326800D01*
X0411802Y0326887D01*
X0411808Y0326974D01*
X0411817Y0327061D01*
X0411830Y0327147D01*
X0411847Y0327233D01*
X0411868Y0327318D01*
X0411893Y0327401D01*
X0411921Y0327484D01*
X0411952Y0327565D01*
X0411987Y0327645D01*
X0412026Y0327723D01*
X0412068Y0327800D01*
X0412113Y0327875D01*
X0412162Y0327947D01*
X0412213Y0328018D01*
X0412268Y0328086D01*
X0412325Y0328151D01*
X0412386Y0328214D01*
X0412449Y0328275D01*
X0412514Y0328332D01*
X0412582Y0328387D01*
X0412653Y0328438D01*
X0412725Y0328487D01*
X0412800Y0328532D01*
X0412877Y0328574D01*
X0412955Y0328613D01*
X0413035Y0328648D01*
X0413116Y0328679D01*
X0413199Y0328707D01*
X0413282Y0328732D01*
X0413367Y0328753D01*
X0413453Y0328770D01*
X0413539Y0328783D01*
X0413626Y0328792D01*
X0413713Y0328798D01*
X0413800Y0328800D01*
X0425800Y0328800D01*
X0425887Y0328798D01*
X0425974Y0328792D01*
X0426061Y0328783D01*
X0426147Y0328770D01*
X0426233Y0328753D01*
X0426318Y0328732D01*
X0426401Y0328707D01*
X0426484Y0328679D01*
X0426565Y0328648D01*
X0426645Y0328613D01*
X0426723Y0328574D01*
X0426800Y0328532D01*
X0426875Y0328487D01*
X0426947Y0328438D01*
X0427018Y0328387D01*
X0427086Y0328332D01*
X0427151Y0328275D01*
X0427214Y0328214D01*
X0427275Y0328151D01*
X0427332Y0328086D01*
X0427387Y0328018D01*
X0427438Y0327947D01*
X0427487Y0327875D01*
X0427532Y0327800D01*
X0427574Y0327723D01*
X0427613Y0327645D01*
X0427648Y0327565D01*
X0427679Y0327484D01*
X0427707Y0327401D01*
X0427732Y0327318D01*
X0427753Y0327233D01*
X0427770Y0327147D01*
X0427783Y0327061D01*
X0427792Y0326974D01*
X0427798Y0326887D01*
X0427800Y0326800D01*
X0420800Y0338800D02*
X0417300Y0338800D01*
X0417240Y0338802D01*
X0417179Y0338807D01*
X0417120Y0338816D01*
X0417061Y0338829D01*
X0417002Y0338845D01*
X0416945Y0338865D01*
X0416890Y0338888D01*
X0416835Y0338915D01*
X0416783Y0338944D01*
X0416732Y0338977D01*
X0416683Y0339013D01*
X0416637Y0339051D01*
X0416593Y0339093D01*
X0416551Y0339137D01*
X0416513Y0339183D01*
X0416477Y0339232D01*
X0416444Y0339283D01*
X0416415Y0339335D01*
X0416388Y0339390D01*
X0416365Y0339445D01*
X0416345Y0339502D01*
X0416329Y0339561D01*
X0416316Y0339620D01*
X0416307Y0339679D01*
X0416302Y0339740D01*
X0416300Y0339800D01*
X0416300Y0345300D01*
X0416300Y0350300D02*
X0416300Y0355800D01*
X0416302Y0355860D01*
X0416307Y0355921D01*
X0416316Y0355980D01*
X0416329Y0356039D01*
X0416345Y0356098D01*
X0416365Y0356155D01*
X0416388Y0356210D01*
X0416415Y0356265D01*
X0416444Y0356317D01*
X0416477Y0356368D01*
X0416513Y0356417D01*
X0416551Y0356463D01*
X0416593Y0356507D01*
X0416637Y0356549D01*
X0416683Y0356587D01*
X0416732Y0356623D01*
X0416783Y0356656D01*
X0416835Y0356685D01*
X0416890Y0356712D01*
X0416945Y0356735D01*
X0417002Y0356755D01*
X0417061Y0356771D01*
X0417120Y0356784D01*
X0417179Y0356793D01*
X0417240Y0356798D01*
X0417300Y0356800D01*
X0420800Y0356800D01*
X0421300Y0356300D01*
X0462300Y0356300D01*
X0462800Y0356800D01*
X0466300Y0356800D01*
X0466360Y0356798D01*
X0466421Y0356793D01*
X0466480Y0356784D01*
X0466539Y0356771D01*
X0466598Y0356755D01*
X0466655Y0356735D01*
X0466710Y0356712D01*
X0466765Y0356685D01*
X0466817Y0356656D01*
X0466868Y0356623D01*
X0466917Y0356587D01*
X0466963Y0356549D01*
X0467007Y0356507D01*
X0467049Y0356463D01*
X0467087Y0356417D01*
X0467123Y0356368D01*
X0467156Y0356317D01*
X0467185Y0356265D01*
X0467212Y0356210D01*
X0467235Y0356155D01*
X0467255Y0356098D01*
X0467271Y0356039D01*
X0467284Y0355980D01*
X0467293Y0355921D01*
X0467298Y0355860D01*
X0467300Y0355800D01*
X0467300Y0350300D01*
X0467300Y0345300D02*
X0467300Y0339800D01*
X0467298Y0339740D01*
X0467293Y0339679D01*
X0467284Y0339620D01*
X0467271Y0339561D01*
X0467255Y0339502D01*
X0467235Y0339445D01*
X0467212Y0339390D01*
X0467185Y0339335D01*
X0467156Y0339283D01*
X0467123Y0339232D01*
X0467087Y0339183D01*
X0467049Y0339137D01*
X0467007Y0339093D01*
X0466963Y0339051D01*
X0466917Y0339013D01*
X0466868Y0338977D01*
X0466817Y0338944D01*
X0466765Y0338915D01*
X0466710Y0338888D01*
X0466655Y0338865D01*
X0466598Y0338845D01*
X0466539Y0338829D01*
X0466480Y0338816D01*
X0466421Y0338807D01*
X0466360Y0338802D01*
X0466300Y0338800D01*
X0462800Y0338800D01*
X0462300Y0339300D01*
X0421300Y0339300D01*
X0420800Y0338800D01*
X0419800Y0317800D02*
X0419800Y0315300D01*
X0419800Y0311800D02*
X0419800Y0287800D01*
X0428800Y0226800D02*
X0428800Y0222800D01*
X0429300Y0223300D01*
X0429300Y0224800D01*
X0421300Y0224800D01*
X0428800Y0226800D02*
X0429300Y0226300D01*
X0429300Y0224800D01*
X0430800Y0224800D01*
X0430300Y0225300D01*
X0429800Y0225800D01*
X0429300Y0226300D01*
X0429800Y0225800D02*
X0429800Y0223800D01*
X0430300Y0224300D01*
X0430300Y0225300D01*
X0430800Y0224800D02*
X0430300Y0224300D01*
X0429800Y0223800D02*
X0429300Y0223300D01*
X0446300Y0230300D02*
X0446300Y0210300D01*
X0368800Y0210300D01*
X0368800Y0230300D01*
X0446300Y0230300D01*
X0439800Y0190300D02*
X0434300Y0190300D01*
X0429300Y0190300D02*
X0423800Y0190300D01*
X0423740Y0190298D01*
X0423679Y0190293D01*
X0423620Y0190284D01*
X0423561Y0190271D01*
X0423502Y0190255D01*
X0423445Y0190235D01*
X0423390Y0190212D01*
X0423335Y0190185D01*
X0423283Y0190156D01*
X0423232Y0190123D01*
X0423183Y0190087D01*
X0423137Y0190049D01*
X0423093Y0190007D01*
X0423051Y0189963D01*
X0423013Y0189917D01*
X0422977Y0189868D01*
X0422944Y0189817D01*
X0422915Y0189765D01*
X0422888Y0189710D01*
X0422865Y0189655D01*
X0422845Y0189598D01*
X0422829Y0189539D01*
X0422816Y0189480D01*
X0422807Y0189421D01*
X0422802Y0189360D01*
X0422800Y0189300D01*
X0422800Y0185800D01*
X0423300Y0185300D01*
X0423300Y0144300D01*
X0422800Y0143800D01*
X0422800Y0140300D01*
X0422802Y0140240D01*
X0422807Y0140179D01*
X0422816Y0140120D01*
X0422829Y0140061D01*
X0422845Y0140002D01*
X0422865Y0139945D01*
X0422888Y0139890D01*
X0422915Y0139835D01*
X0422944Y0139783D01*
X0422977Y0139732D01*
X0423013Y0139683D01*
X0423051Y0139637D01*
X0423093Y0139593D01*
X0423137Y0139551D01*
X0423183Y0139513D01*
X0423232Y0139477D01*
X0423283Y0139444D01*
X0423335Y0139415D01*
X0423390Y0139388D01*
X0423445Y0139365D01*
X0423502Y0139345D01*
X0423561Y0139329D01*
X0423620Y0139316D01*
X0423679Y0139307D01*
X0423740Y0139302D01*
X0423800Y0139300D01*
X0429300Y0139300D01*
X0434300Y0139300D02*
X0439800Y0139300D01*
X0439860Y0139302D01*
X0439921Y0139307D01*
X0439980Y0139316D01*
X0440039Y0139329D01*
X0440098Y0139345D01*
X0440155Y0139365D01*
X0440210Y0139388D01*
X0440265Y0139415D01*
X0440317Y0139444D01*
X0440368Y0139477D01*
X0440417Y0139513D01*
X0440463Y0139551D01*
X0440507Y0139593D01*
X0440549Y0139637D01*
X0440587Y0139683D01*
X0440623Y0139732D01*
X0440656Y0139783D01*
X0440685Y0139835D01*
X0440712Y0139890D01*
X0440735Y0139945D01*
X0440755Y0140002D01*
X0440771Y0140061D01*
X0440784Y0140120D01*
X0440793Y0140179D01*
X0440798Y0140240D01*
X0440800Y0140300D01*
X0440800Y0143800D01*
X0440300Y0144300D01*
X0440300Y0185300D01*
X0440800Y0185800D01*
X0440800Y0189300D01*
X0440798Y0189360D01*
X0440793Y0189421D01*
X0440784Y0189480D01*
X0440771Y0189539D01*
X0440755Y0189598D01*
X0440735Y0189655D01*
X0440712Y0189710D01*
X0440685Y0189765D01*
X0440656Y0189817D01*
X0440623Y0189868D01*
X0440587Y0189917D01*
X0440549Y0189963D01*
X0440507Y0190007D01*
X0440463Y0190049D01*
X0440417Y0190087D01*
X0440368Y0190123D01*
X0440317Y0190156D01*
X0440265Y0190185D01*
X0440210Y0190212D01*
X0440155Y0190235D01*
X0440098Y0190255D01*
X0440039Y0190271D01*
X0439980Y0190284D01*
X0439921Y0190293D01*
X0439860Y0190298D01*
X0439800Y0190300D01*
X0406800Y0076800D02*
X0406800Y0074300D01*
X0591800Y0121800D02*
X0601800Y0121800D01*
X0601800Y0137800D01*
X0591800Y0137800D01*
X0591800Y0121800D01*
X0594300Y0125800D02*
X0596800Y0129800D01*
X0594300Y0129800D01*
X0596800Y0129800D02*
X0599300Y0125800D01*
X0594300Y0125800D01*
X0596800Y0123800D02*
X0596800Y0129800D01*
X0599300Y0129800D01*
X0596800Y0129800D02*
X0596800Y0132300D01*
X0599800Y0294800D02*
X0609800Y0294800D01*
X0609800Y0310800D01*
X0599800Y0310800D01*
X0599800Y0294800D01*
X0604800Y0300300D02*
X0604800Y0302800D01*
X0607300Y0302800D01*
X0604800Y0302800D02*
X0602300Y0302800D01*
X0604800Y0302800D02*
X0602300Y0306800D01*
X0607300Y0306800D01*
X0604800Y0302800D01*
X0604800Y0308800D01*
X0608800Y0370800D02*
X0598800Y0370800D01*
X0598800Y0386800D01*
X0608800Y0386800D01*
X0608800Y0370800D01*
X0603800Y0376300D02*
X0603800Y0378800D01*
X0606300Y0378800D01*
X0603800Y0378800D02*
X0601300Y0378800D01*
X0603800Y0378800D02*
X0601300Y0382800D01*
X0606300Y0382800D01*
X0603800Y0378800D01*
X0603800Y0384800D01*
X0530800Y0386300D02*
X0530800Y0458300D01*
X0514800Y0486800D02*
X0514800Y0496800D01*
X0498800Y0496800D01*
X0498800Y0486800D01*
X0514800Y0486800D01*
X0509300Y0491800D02*
X0506800Y0491800D01*
X0506800Y0494300D01*
X0506800Y0491800D02*
X0506800Y0489300D01*
X0506800Y0491800D02*
X0502800Y0489300D01*
X0502800Y0494300D01*
X0506800Y0491800D01*
X0500800Y0491800D01*
X0490800Y0513800D02*
X0566800Y0513800D01*
X0566887Y0513802D01*
X0566974Y0513808D01*
X0567061Y0513817D01*
X0567147Y0513830D01*
X0567233Y0513847D01*
X0567318Y0513868D01*
X0567401Y0513893D01*
X0567484Y0513921D01*
X0567565Y0513952D01*
X0567645Y0513987D01*
X0567723Y0514026D01*
X0567800Y0514068D01*
X0567875Y0514113D01*
X0567947Y0514162D01*
X0568018Y0514213D01*
X0568086Y0514268D01*
X0568151Y0514325D01*
X0568214Y0514386D01*
X0568275Y0514449D01*
X0568332Y0514514D01*
X0568387Y0514582D01*
X0568438Y0514653D01*
X0568487Y0514725D01*
X0568532Y0514800D01*
X0568574Y0514877D01*
X0568613Y0514955D01*
X0568648Y0515035D01*
X0568679Y0515116D01*
X0568707Y0515199D01*
X0568732Y0515282D01*
X0568753Y0515367D01*
X0568770Y0515453D01*
X0568783Y0515539D01*
X0568792Y0515626D01*
X0568798Y0515713D01*
X0568800Y0515800D01*
X0568800Y0635800D01*
X0568798Y0635887D01*
X0568792Y0635974D01*
X0568783Y0636061D01*
X0568770Y0636147D01*
X0568753Y0636233D01*
X0568732Y0636318D01*
X0568707Y0636401D01*
X0568679Y0636484D01*
X0568648Y0636565D01*
X0568613Y0636645D01*
X0568574Y0636723D01*
X0568532Y0636800D01*
X0568487Y0636875D01*
X0568438Y0636947D01*
X0568387Y0637018D01*
X0568332Y0637086D01*
X0568275Y0637151D01*
X0568214Y0637214D01*
X0568151Y0637275D01*
X0568086Y0637332D01*
X0568018Y0637387D01*
X0567947Y0637438D01*
X0567875Y0637487D01*
X0567800Y0637532D01*
X0567723Y0637574D01*
X0567645Y0637613D01*
X0567565Y0637648D01*
X0567484Y0637679D01*
X0567401Y0637707D01*
X0567318Y0637732D01*
X0567233Y0637753D01*
X0567147Y0637770D01*
X0567061Y0637783D01*
X0566974Y0637792D01*
X0566887Y0637798D01*
X0566800Y0637800D01*
X0490800Y0637800D01*
X0490713Y0637798D01*
X0490626Y0637792D01*
X0490539Y0637783D01*
X0490453Y0637770D01*
X0490367Y0637753D01*
X0490282Y0637732D01*
X0490199Y0637707D01*
X0490116Y0637679D01*
X0490035Y0637648D01*
X0489955Y0637613D01*
X0489877Y0637574D01*
X0489800Y0637532D01*
X0489725Y0637487D01*
X0489653Y0637438D01*
X0489582Y0637387D01*
X0489514Y0637332D01*
X0489449Y0637275D01*
X0489386Y0637214D01*
X0489325Y0637151D01*
X0489268Y0637086D01*
X0489213Y0637018D01*
X0489162Y0636947D01*
X0489113Y0636875D01*
X0489068Y0636800D01*
X0489026Y0636723D01*
X0488987Y0636645D01*
X0488952Y0636565D01*
X0488921Y0636484D01*
X0488893Y0636401D01*
X0488868Y0636318D01*
X0488847Y0636233D01*
X0488830Y0636147D01*
X0488817Y0636061D01*
X0488808Y0635974D01*
X0488802Y0635887D01*
X0488800Y0635800D01*
X0488800Y0515800D01*
X0488802Y0515713D01*
X0488808Y0515626D01*
X0488817Y0515539D01*
X0488830Y0515453D01*
X0488847Y0515367D01*
X0488868Y0515282D01*
X0488893Y0515199D01*
X0488921Y0515116D01*
X0488952Y0515035D01*
X0488987Y0514955D01*
X0489026Y0514877D01*
X0489068Y0514800D01*
X0489113Y0514725D01*
X0489162Y0514653D01*
X0489213Y0514582D01*
X0489268Y0514514D01*
X0489325Y0514449D01*
X0489386Y0514386D01*
X0489449Y0514325D01*
X0489514Y0514268D01*
X0489582Y0514213D01*
X0489653Y0514162D01*
X0489725Y0514113D01*
X0489800Y0514068D01*
X0489877Y0514026D01*
X0489955Y0513987D01*
X0490035Y0513952D01*
X0490116Y0513921D01*
X0490199Y0513893D01*
X0490282Y0513868D01*
X0490367Y0513847D01*
X0490453Y0513830D01*
X0490539Y0513817D01*
X0490626Y0513808D01*
X0490713Y0513802D01*
X0490800Y0513800D01*
X0474800Y0517800D02*
X0474800Y0565800D01*
X0474798Y0565887D01*
X0474792Y0565974D01*
X0474783Y0566061D01*
X0474770Y0566147D01*
X0474753Y0566233D01*
X0474732Y0566318D01*
X0474707Y0566401D01*
X0474679Y0566484D01*
X0474648Y0566565D01*
X0474613Y0566645D01*
X0474574Y0566723D01*
X0474532Y0566800D01*
X0474487Y0566875D01*
X0474438Y0566947D01*
X0474387Y0567018D01*
X0474332Y0567086D01*
X0474275Y0567151D01*
X0474214Y0567214D01*
X0474151Y0567275D01*
X0474086Y0567332D01*
X0474018Y0567387D01*
X0473947Y0567438D01*
X0473875Y0567487D01*
X0473800Y0567532D01*
X0473723Y0567574D01*
X0473645Y0567613D01*
X0473565Y0567648D01*
X0473484Y0567679D01*
X0473401Y0567707D01*
X0473318Y0567732D01*
X0473233Y0567753D01*
X0473147Y0567770D01*
X0473061Y0567783D01*
X0472974Y0567792D01*
X0472887Y0567798D01*
X0472800Y0567800D01*
X0460800Y0567800D01*
X0460713Y0567798D01*
X0460626Y0567792D01*
X0460539Y0567783D01*
X0460453Y0567770D01*
X0460367Y0567753D01*
X0460282Y0567732D01*
X0460199Y0567707D01*
X0460116Y0567679D01*
X0460035Y0567648D01*
X0459955Y0567613D01*
X0459877Y0567574D01*
X0459800Y0567532D01*
X0459725Y0567487D01*
X0459653Y0567438D01*
X0459582Y0567387D01*
X0459514Y0567332D01*
X0459449Y0567275D01*
X0459386Y0567214D01*
X0459325Y0567151D01*
X0459268Y0567086D01*
X0459213Y0567018D01*
X0459162Y0566947D01*
X0459113Y0566875D01*
X0459068Y0566800D01*
X0459026Y0566723D01*
X0458987Y0566645D01*
X0458952Y0566565D01*
X0458921Y0566484D01*
X0458893Y0566401D01*
X0458868Y0566318D01*
X0458847Y0566233D01*
X0458830Y0566147D01*
X0458817Y0566061D01*
X0458808Y0565974D01*
X0458802Y0565887D01*
X0458800Y0565800D01*
X0458800Y0517800D01*
X0458802Y0517713D01*
X0458808Y0517626D01*
X0458817Y0517539D01*
X0458830Y0517453D01*
X0458847Y0517367D01*
X0458868Y0517282D01*
X0458893Y0517199D01*
X0458921Y0517116D01*
X0458952Y0517035D01*
X0458987Y0516955D01*
X0459026Y0516877D01*
X0459068Y0516800D01*
X0459113Y0516725D01*
X0459162Y0516653D01*
X0459213Y0516582D01*
X0459268Y0516514D01*
X0459325Y0516449D01*
X0459386Y0516386D01*
X0459449Y0516325D01*
X0459514Y0516268D01*
X0459582Y0516213D01*
X0459653Y0516162D01*
X0459725Y0516113D01*
X0459800Y0516068D01*
X0459877Y0516026D01*
X0459955Y0515987D01*
X0460035Y0515952D01*
X0460116Y0515921D01*
X0460199Y0515893D01*
X0460282Y0515868D01*
X0460367Y0515847D01*
X0460453Y0515830D01*
X0460539Y0515817D01*
X0460626Y0515808D01*
X0460713Y0515802D01*
X0460800Y0515800D01*
X0472800Y0515800D01*
X0472887Y0515802D01*
X0472974Y0515808D01*
X0473061Y0515817D01*
X0473147Y0515830D01*
X0473233Y0515847D01*
X0473318Y0515868D01*
X0473401Y0515893D01*
X0473484Y0515921D01*
X0473565Y0515952D01*
X0473645Y0515987D01*
X0473723Y0516026D01*
X0473800Y0516068D01*
X0473875Y0516113D01*
X0473947Y0516162D01*
X0474018Y0516213D01*
X0474086Y0516268D01*
X0474151Y0516325D01*
X0474214Y0516386D01*
X0474275Y0516449D01*
X0474332Y0516514D01*
X0474387Y0516582D01*
X0474438Y0516653D01*
X0474487Y0516725D01*
X0474532Y0516800D01*
X0474574Y0516877D01*
X0474613Y0516955D01*
X0474648Y0517035D01*
X0474679Y0517116D01*
X0474707Y0517199D01*
X0474732Y0517282D01*
X0474753Y0517367D01*
X0474770Y0517453D01*
X0474783Y0517539D01*
X0474792Y0517626D01*
X0474798Y0517713D01*
X0474800Y0517800D01*
X0466800Y0526800D02*
X0466800Y0529300D01*
X0466800Y0532800D02*
X0466800Y0556800D01*
X0453800Y0565800D02*
X0453800Y0517800D01*
X0453798Y0517713D01*
X0453792Y0517626D01*
X0453783Y0517539D01*
X0453770Y0517453D01*
X0453753Y0517367D01*
X0453732Y0517282D01*
X0453707Y0517199D01*
X0453679Y0517116D01*
X0453648Y0517035D01*
X0453613Y0516955D01*
X0453574Y0516877D01*
X0453532Y0516800D01*
X0453487Y0516725D01*
X0453438Y0516653D01*
X0453387Y0516582D01*
X0453332Y0516514D01*
X0453275Y0516449D01*
X0453214Y0516386D01*
X0453151Y0516325D01*
X0453086Y0516268D01*
X0453018Y0516213D01*
X0452947Y0516162D01*
X0452875Y0516113D01*
X0452800Y0516068D01*
X0452723Y0516026D01*
X0452645Y0515987D01*
X0452565Y0515952D01*
X0452484Y0515921D01*
X0452401Y0515893D01*
X0452318Y0515868D01*
X0452233Y0515847D01*
X0452147Y0515830D01*
X0452061Y0515817D01*
X0451974Y0515808D01*
X0451887Y0515802D01*
X0451800Y0515800D01*
X0439800Y0515800D01*
X0439713Y0515802D01*
X0439626Y0515808D01*
X0439539Y0515817D01*
X0439453Y0515830D01*
X0439367Y0515847D01*
X0439282Y0515868D01*
X0439199Y0515893D01*
X0439116Y0515921D01*
X0439035Y0515952D01*
X0438955Y0515987D01*
X0438877Y0516026D01*
X0438800Y0516068D01*
X0438725Y0516113D01*
X0438653Y0516162D01*
X0438582Y0516213D01*
X0438514Y0516268D01*
X0438449Y0516325D01*
X0438386Y0516386D01*
X0438325Y0516449D01*
X0438268Y0516514D01*
X0438213Y0516582D01*
X0438162Y0516653D01*
X0438113Y0516725D01*
X0438068Y0516800D01*
X0438026Y0516877D01*
X0437987Y0516955D01*
X0437952Y0517035D01*
X0437921Y0517116D01*
X0437893Y0517199D01*
X0437868Y0517282D01*
X0437847Y0517367D01*
X0437830Y0517453D01*
X0437817Y0517539D01*
X0437808Y0517626D01*
X0437802Y0517713D01*
X0437800Y0517800D01*
X0437800Y0565800D01*
X0437802Y0565887D01*
X0437808Y0565974D01*
X0437817Y0566061D01*
X0437830Y0566147D01*
X0437847Y0566233D01*
X0437868Y0566318D01*
X0437893Y0566401D01*
X0437921Y0566484D01*
X0437952Y0566565D01*
X0437987Y0566645D01*
X0438026Y0566723D01*
X0438068Y0566800D01*
X0438113Y0566875D01*
X0438162Y0566947D01*
X0438213Y0567018D01*
X0438268Y0567086D01*
X0438325Y0567151D01*
X0438386Y0567214D01*
X0438449Y0567275D01*
X0438514Y0567332D01*
X0438582Y0567387D01*
X0438653Y0567438D01*
X0438725Y0567487D01*
X0438800Y0567532D01*
X0438877Y0567574D01*
X0438955Y0567613D01*
X0439035Y0567648D01*
X0439116Y0567679D01*
X0439199Y0567707D01*
X0439282Y0567732D01*
X0439367Y0567753D01*
X0439453Y0567770D01*
X0439539Y0567783D01*
X0439626Y0567792D01*
X0439713Y0567798D01*
X0439800Y0567800D01*
X0451800Y0567800D01*
X0451887Y0567798D01*
X0451974Y0567792D01*
X0452061Y0567783D01*
X0452147Y0567770D01*
X0452233Y0567753D01*
X0452318Y0567732D01*
X0452401Y0567707D01*
X0452484Y0567679D01*
X0452565Y0567648D01*
X0452645Y0567613D01*
X0452723Y0567574D01*
X0452800Y0567532D01*
X0452875Y0567487D01*
X0452947Y0567438D01*
X0453018Y0567387D01*
X0453086Y0567332D01*
X0453151Y0567275D01*
X0453214Y0567214D01*
X0453275Y0567151D01*
X0453332Y0567086D01*
X0453387Y0567018D01*
X0453438Y0566947D01*
X0453487Y0566875D01*
X0453532Y0566800D01*
X0453574Y0566723D01*
X0453613Y0566645D01*
X0453648Y0566565D01*
X0453679Y0566484D01*
X0453707Y0566401D01*
X0453732Y0566318D01*
X0453753Y0566233D01*
X0453770Y0566147D01*
X0453783Y0566061D01*
X0453792Y0565974D01*
X0453798Y0565887D01*
X0453800Y0565800D01*
X0445800Y0556800D02*
X0445800Y0532800D01*
X0445800Y0529300D02*
X0445800Y0526800D01*
X0430800Y0517800D02*
X0430800Y0565800D01*
X0430798Y0565887D01*
X0430792Y0565974D01*
X0430783Y0566061D01*
X0430770Y0566147D01*
X0430753Y0566233D01*
X0430732Y0566318D01*
X0430707Y0566401D01*
X0430679Y0566484D01*
X0430648Y0566565D01*
X0430613Y0566645D01*
X0430574Y0566723D01*
X0430532Y0566800D01*
X0430487Y0566875D01*
X0430438Y0566947D01*
X0430387Y0567018D01*
X0430332Y0567086D01*
X0430275Y0567151D01*
X0430214Y0567214D01*
X0430151Y0567275D01*
X0430086Y0567332D01*
X0430018Y0567387D01*
X0429947Y0567438D01*
X0429875Y0567487D01*
X0429800Y0567532D01*
X0429723Y0567574D01*
X0429645Y0567613D01*
X0429565Y0567648D01*
X0429484Y0567679D01*
X0429401Y0567707D01*
X0429318Y0567732D01*
X0429233Y0567753D01*
X0429147Y0567770D01*
X0429061Y0567783D01*
X0428974Y0567792D01*
X0428887Y0567798D01*
X0428800Y0567800D01*
X0416800Y0567800D01*
X0416713Y0567798D01*
X0416626Y0567792D01*
X0416539Y0567783D01*
X0416453Y0567770D01*
X0416367Y0567753D01*
X0416282Y0567732D01*
X0416199Y0567707D01*
X0416116Y0567679D01*
X0416035Y0567648D01*
X0415955Y0567613D01*
X0415877Y0567574D01*
X0415800Y0567532D01*
X0415725Y0567487D01*
X0415653Y0567438D01*
X0415582Y0567387D01*
X0415514Y0567332D01*
X0415449Y0567275D01*
X0415386Y0567214D01*
X0415325Y0567151D01*
X0415268Y0567086D01*
X0415213Y0567018D01*
X0415162Y0566947D01*
X0415113Y0566875D01*
X0415068Y0566800D01*
X0415026Y0566723D01*
X0414987Y0566645D01*
X0414952Y0566565D01*
X0414921Y0566484D01*
X0414893Y0566401D01*
X0414868Y0566318D01*
X0414847Y0566233D01*
X0414830Y0566147D01*
X0414817Y0566061D01*
X0414808Y0565974D01*
X0414802Y0565887D01*
X0414800Y0565800D01*
X0414800Y0517800D01*
X0414802Y0517713D01*
X0414808Y0517626D01*
X0414817Y0517539D01*
X0414830Y0517453D01*
X0414847Y0517367D01*
X0414868Y0517282D01*
X0414893Y0517199D01*
X0414921Y0517116D01*
X0414952Y0517035D01*
X0414987Y0516955D01*
X0415026Y0516877D01*
X0415068Y0516800D01*
X0415113Y0516725D01*
X0415162Y0516653D01*
X0415213Y0516582D01*
X0415268Y0516514D01*
X0415325Y0516449D01*
X0415386Y0516386D01*
X0415449Y0516325D01*
X0415514Y0516268D01*
X0415582Y0516213D01*
X0415653Y0516162D01*
X0415725Y0516113D01*
X0415800Y0516068D01*
X0415877Y0516026D01*
X0415955Y0515987D01*
X0416035Y0515952D01*
X0416116Y0515921D01*
X0416199Y0515893D01*
X0416282Y0515868D01*
X0416367Y0515847D01*
X0416453Y0515830D01*
X0416539Y0515817D01*
X0416626Y0515808D01*
X0416713Y0515802D01*
X0416800Y0515800D01*
X0428800Y0515800D01*
X0428887Y0515802D01*
X0428974Y0515808D01*
X0429061Y0515817D01*
X0429147Y0515830D01*
X0429233Y0515847D01*
X0429318Y0515868D01*
X0429401Y0515893D01*
X0429484Y0515921D01*
X0429565Y0515952D01*
X0429645Y0515987D01*
X0429723Y0516026D01*
X0429800Y0516068D01*
X0429875Y0516113D01*
X0429947Y0516162D01*
X0430018Y0516213D01*
X0430086Y0516268D01*
X0430151Y0516325D01*
X0430214Y0516386D01*
X0430275Y0516449D01*
X0430332Y0516514D01*
X0430387Y0516582D01*
X0430438Y0516653D01*
X0430487Y0516725D01*
X0430532Y0516800D01*
X0430574Y0516877D01*
X0430613Y0516955D01*
X0430648Y0517035D01*
X0430679Y0517116D01*
X0430707Y0517199D01*
X0430732Y0517282D01*
X0430753Y0517367D01*
X0430770Y0517453D01*
X0430783Y0517539D01*
X0430792Y0517626D01*
X0430798Y0517713D01*
X0430800Y0517800D01*
X0422800Y0526800D02*
X0422800Y0529300D01*
X0422800Y0532800D02*
X0422800Y0556800D01*
X0410800Y0568800D02*
X0410800Y0572300D01*
X0410798Y0572360D01*
X0410793Y0572421D01*
X0410784Y0572480D01*
X0410771Y0572539D01*
X0410755Y0572598D01*
X0410735Y0572655D01*
X0410712Y0572710D01*
X0410685Y0572765D01*
X0410656Y0572817D01*
X0410623Y0572868D01*
X0410587Y0572917D01*
X0410549Y0572963D01*
X0410507Y0573007D01*
X0410463Y0573049D01*
X0410417Y0573087D01*
X0410368Y0573123D01*
X0410317Y0573156D01*
X0410265Y0573185D01*
X0410210Y0573212D01*
X0410155Y0573235D01*
X0410098Y0573255D01*
X0410039Y0573271D01*
X0409980Y0573284D01*
X0409921Y0573293D01*
X0409860Y0573298D01*
X0409800Y0573300D01*
X0404300Y0573300D01*
X0399300Y0573300D02*
X0393800Y0573300D01*
X0393740Y0573298D01*
X0393679Y0573293D01*
X0393620Y0573284D01*
X0393561Y0573271D01*
X0393502Y0573255D01*
X0393445Y0573235D01*
X0393390Y0573212D01*
X0393335Y0573185D01*
X0393283Y0573156D01*
X0393232Y0573123D01*
X0393183Y0573087D01*
X0393137Y0573049D01*
X0393093Y0573007D01*
X0393051Y0572963D01*
X0393013Y0572917D01*
X0392977Y0572868D01*
X0392944Y0572817D01*
X0392915Y0572765D01*
X0392888Y0572710D01*
X0392865Y0572655D01*
X0392845Y0572598D01*
X0392829Y0572539D01*
X0392816Y0572480D01*
X0392807Y0572421D01*
X0392802Y0572360D01*
X0392800Y0572300D01*
X0392800Y0568800D01*
X0393300Y0568300D01*
X0393300Y0527300D01*
X0392800Y0526800D01*
X0392800Y0523300D01*
X0392802Y0523240D01*
X0392807Y0523179D01*
X0392816Y0523120D01*
X0392829Y0523061D01*
X0392845Y0523002D01*
X0392865Y0522945D01*
X0392888Y0522890D01*
X0392915Y0522835D01*
X0392944Y0522783D01*
X0392977Y0522732D01*
X0393013Y0522683D01*
X0393051Y0522637D01*
X0393093Y0522593D01*
X0393137Y0522551D01*
X0393183Y0522513D01*
X0393232Y0522477D01*
X0393283Y0522444D01*
X0393335Y0522415D01*
X0393390Y0522388D01*
X0393445Y0522365D01*
X0393502Y0522345D01*
X0393561Y0522329D01*
X0393620Y0522316D01*
X0393679Y0522307D01*
X0393740Y0522302D01*
X0393800Y0522300D01*
X0399300Y0522300D01*
X0404300Y0522300D02*
X0409800Y0522300D01*
X0409860Y0522302D01*
X0409921Y0522307D01*
X0409980Y0522316D01*
X0410039Y0522329D01*
X0410098Y0522345D01*
X0410155Y0522365D01*
X0410210Y0522388D01*
X0410265Y0522415D01*
X0410317Y0522444D01*
X0410368Y0522477D01*
X0410417Y0522513D01*
X0410463Y0522551D01*
X0410507Y0522593D01*
X0410549Y0522637D01*
X0410587Y0522683D01*
X0410623Y0522732D01*
X0410656Y0522783D01*
X0410685Y0522835D01*
X0410712Y0522890D01*
X0410735Y0522945D01*
X0410755Y0523002D01*
X0410771Y0523061D01*
X0410784Y0523120D01*
X0410793Y0523179D01*
X0410798Y0523240D01*
X0410800Y0523300D01*
X0410800Y0526800D01*
X0410300Y0527300D01*
X0410300Y0568300D01*
X0410800Y0568800D01*
X0425300Y0584300D02*
X0445300Y0584300D01*
X0445300Y0661800D01*
X0425300Y0661800D01*
X0425300Y0584300D01*
X0439800Y0599800D02*
X0439300Y0600300D01*
X0438800Y0600800D01*
X0438300Y0601300D01*
X0437800Y0601800D01*
X0441800Y0601800D01*
X0441300Y0601300D01*
X0439800Y0601300D01*
X0439800Y0609300D01*
X0439800Y0601300D02*
X0438300Y0601300D01*
X0438800Y0600800D02*
X0440800Y0600800D01*
X0440300Y0600300D01*
X0439300Y0600300D01*
X0439800Y0599800D02*
X0440300Y0600300D01*
X0440800Y0600800D02*
X0441300Y0601300D01*
X0439800Y0601300D02*
X0439800Y0599800D01*
X0528800Y0621300D02*
X0528800Y0549300D01*
X0528800Y0545800D02*
X0528800Y0530300D01*
X0471800Y0472800D02*
X0459800Y0472800D01*
X0459713Y0472798D01*
X0459626Y0472792D01*
X0459539Y0472783D01*
X0459453Y0472770D01*
X0459367Y0472753D01*
X0459282Y0472732D01*
X0459199Y0472707D01*
X0459116Y0472679D01*
X0459035Y0472648D01*
X0458955Y0472613D01*
X0458877Y0472574D01*
X0458800Y0472532D01*
X0458725Y0472487D01*
X0458653Y0472438D01*
X0458582Y0472387D01*
X0458514Y0472332D01*
X0458449Y0472275D01*
X0458386Y0472214D01*
X0458325Y0472151D01*
X0458268Y0472086D01*
X0458213Y0472018D01*
X0458162Y0471947D01*
X0458113Y0471875D01*
X0458068Y0471800D01*
X0458026Y0471723D01*
X0457987Y0471645D01*
X0457952Y0471565D01*
X0457921Y0471484D01*
X0457893Y0471401D01*
X0457868Y0471318D01*
X0457847Y0471233D01*
X0457830Y0471147D01*
X0457817Y0471061D01*
X0457808Y0470974D01*
X0457802Y0470887D01*
X0457800Y0470800D01*
X0457800Y0422800D01*
X0457802Y0422713D01*
X0457808Y0422626D01*
X0457817Y0422539D01*
X0457830Y0422453D01*
X0457847Y0422367D01*
X0457868Y0422282D01*
X0457893Y0422199D01*
X0457921Y0422116D01*
X0457952Y0422035D01*
X0457987Y0421955D01*
X0458026Y0421877D01*
X0458068Y0421800D01*
X0458113Y0421725D01*
X0458162Y0421653D01*
X0458213Y0421582D01*
X0458268Y0421514D01*
X0458325Y0421449D01*
X0458386Y0421386D01*
X0458449Y0421325D01*
X0458514Y0421268D01*
X0458582Y0421213D01*
X0458653Y0421162D01*
X0458725Y0421113D01*
X0458800Y0421068D01*
X0458877Y0421026D01*
X0458955Y0420987D01*
X0459035Y0420952D01*
X0459116Y0420921D01*
X0459199Y0420893D01*
X0459282Y0420868D01*
X0459367Y0420847D01*
X0459453Y0420830D01*
X0459539Y0420817D01*
X0459626Y0420808D01*
X0459713Y0420802D01*
X0459800Y0420800D01*
X0471800Y0420800D01*
X0471887Y0420802D01*
X0471974Y0420808D01*
X0472061Y0420817D01*
X0472147Y0420830D01*
X0472233Y0420847D01*
X0472318Y0420868D01*
X0472401Y0420893D01*
X0472484Y0420921D01*
X0472565Y0420952D01*
X0472645Y0420987D01*
X0472723Y0421026D01*
X0472800Y0421068D01*
X0472875Y0421113D01*
X0472947Y0421162D01*
X0473018Y0421213D01*
X0473086Y0421268D01*
X0473151Y0421325D01*
X0473214Y0421386D01*
X0473275Y0421449D01*
X0473332Y0421514D01*
X0473387Y0421582D01*
X0473438Y0421653D01*
X0473487Y0421725D01*
X0473532Y0421800D01*
X0473574Y0421877D01*
X0473613Y0421955D01*
X0473648Y0422035D01*
X0473679Y0422116D01*
X0473707Y0422199D01*
X0473732Y0422282D01*
X0473753Y0422367D01*
X0473770Y0422453D01*
X0473783Y0422539D01*
X0473792Y0422626D01*
X0473798Y0422713D01*
X0473800Y0422800D01*
X0473800Y0470800D01*
X0473798Y0470887D01*
X0473792Y0470974D01*
X0473783Y0471061D01*
X0473770Y0471147D01*
X0473753Y0471233D01*
X0473732Y0471318D01*
X0473707Y0471401D01*
X0473679Y0471484D01*
X0473648Y0471565D01*
X0473613Y0471645D01*
X0473574Y0471723D01*
X0473532Y0471800D01*
X0473487Y0471875D01*
X0473438Y0471947D01*
X0473387Y0472018D01*
X0473332Y0472086D01*
X0473275Y0472151D01*
X0473214Y0472214D01*
X0473151Y0472275D01*
X0473086Y0472332D01*
X0473018Y0472387D01*
X0472947Y0472438D01*
X0472875Y0472487D01*
X0472800Y0472532D01*
X0472723Y0472574D01*
X0472645Y0472613D01*
X0472565Y0472648D01*
X0472484Y0472679D01*
X0472401Y0472707D01*
X0472318Y0472732D01*
X0472233Y0472753D01*
X0472147Y0472770D01*
X0472061Y0472783D01*
X0471974Y0472792D01*
X0471887Y0472798D01*
X0471800Y0472800D01*
X0465800Y0461800D02*
X0465800Y0437800D01*
X0465800Y0434300D02*
X0465800Y0431800D01*
X0449800Y0422800D02*
X0449800Y0470800D01*
X0449798Y0470887D01*
X0449792Y0470974D01*
X0449783Y0471061D01*
X0449770Y0471147D01*
X0449753Y0471233D01*
X0449732Y0471318D01*
X0449707Y0471401D01*
X0449679Y0471484D01*
X0449648Y0471565D01*
X0449613Y0471645D01*
X0449574Y0471723D01*
X0449532Y0471800D01*
X0449487Y0471875D01*
X0449438Y0471947D01*
X0449387Y0472018D01*
X0449332Y0472086D01*
X0449275Y0472151D01*
X0449214Y0472214D01*
X0449151Y0472275D01*
X0449086Y0472332D01*
X0449018Y0472387D01*
X0448947Y0472438D01*
X0448875Y0472487D01*
X0448800Y0472532D01*
X0448723Y0472574D01*
X0448645Y0472613D01*
X0448565Y0472648D01*
X0448484Y0472679D01*
X0448401Y0472707D01*
X0448318Y0472732D01*
X0448233Y0472753D01*
X0448147Y0472770D01*
X0448061Y0472783D01*
X0447974Y0472792D01*
X0447887Y0472798D01*
X0447800Y0472800D01*
X0435800Y0472800D01*
X0435713Y0472798D01*
X0435626Y0472792D01*
X0435539Y0472783D01*
X0435453Y0472770D01*
X0435367Y0472753D01*
X0435282Y0472732D01*
X0435199Y0472707D01*
X0435116Y0472679D01*
X0435035Y0472648D01*
X0434955Y0472613D01*
X0434877Y0472574D01*
X0434800Y0472532D01*
X0434725Y0472487D01*
X0434653Y0472438D01*
X0434582Y0472387D01*
X0434514Y0472332D01*
X0434449Y0472275D01*
X0434386Y0472214D01*
X0434325Y0472151D01*
X0434268Y0472086D01*
X0434213Y0472018D01*
X0434162Y0471947D01*
X0434113Y0471875D01*
X0434068Y0471800D01*
X0434026Y0471723D01*
X0433987Y0471645D01*
X0433952Y0471565D01*
X0433921Y0471484D01*
X0433893Y0471401D01*
X0433868Y0471318D01*
X0433847Y0471233D01*
X0433830Y0471147D01*
X0433817Y0471061D01*
X0433808Y0470974D01*
X0433802Y0470887D01*
X0433800Y0470800D01*
X0433800Y0422800D01*
X0433802Y0422713D01*
X0433808Y0422626D01*
X0433817Y0422539D01*
X0433830Y0422453D01*
X0433847Y0422367D01*
X0433868Y0422282D01*
X0433893Y0422199D01*
X0433921Y0422116D01*
X0433952Y0422035D01*
X0433987Y0421955D01*
X0434026Y0421877D01*
X0434068Y0421800D01*
X0434113Y0421725D01*
X0434162Y0421653D01*
X0434213Y0421582D01*
X0434268Y0421514D01*
X0434325Y0421449D01*
X0434386Y0421386D01*
X0434449Y0421325D01*
X0434514Y0421268D01*
X0434582Y0421213D01*
X0434653Y0421162D01*
X0434725Y0421113D01*
X0434800Y0421068D01*
X0434877Y0421026D01*
X0434955Y0420987D01*
X0435035Y0420952D01*
X0435116Y0420921D01*
X0435199Y0420893D01*
X0435282Y0420868D01*
X0435367Y0420847D01*
X0435453Y0420830D01*
X0435539Y0420817D01*
X0435626Y0420808D01*
X0435713Y0420802D01*
X0435800Y0420800D01*
X0447800Y0420800D01*
X0447887Y0420802D01*
X0447974Y0420808D01*
X0448061Y0420817D01*
X0448147Y0420830D01*
X0448233Y0420847D01*
X0448318Y0420868D01*
X0448401Y0420893D01*
X0448484Y0420921D01*
X0448565Y0420952D01*
X0448645Y0420987D01*
X0448723Y0421026D01*
X0448800Y0421068D01*
X0448875Y0421113D01*
X0448947Y0421162D01*
X0449018Y0421213D01*
X0449086Y0421268D01*
X0449151Y0421325D01*
X0449214Y0421386D01*
X0449275Y0421449D01*
X0449332Y0421514D01*
X0449387Y0421582D01*
X0449438Y0421653D01*
X0449487Y0421725D01*
X0449532Y0421800D01*
X0449574Y0421877D01*
X0449613Y0421955D01*
X0449648Y0422035D01*
X0449679Y0422116D01*
X0449707Y0422199D01*
X0449732Y0422282D01*
X0449753Y0422367D01*
X0449770Y0422453D01*
X0449783Y0422539D01*
X0449792Y0422626D01*
X0449798Y0422713D01*
X0449800Y0422800D01*
X0441800Y0431800D02*
X0441800Y0434300D01*
X0441800Y0437800D02*
X0441800Y0461800D01*
X0425800Y0470800D02*
X0425800Y0422800D01*
X0425798Y0422713D01*
X0425792Y0422626D01*
X0425783Y0422539D01*
X0425770Y0422453D01*
X0425753Y0422367D01*
X0425732Y0422282D01*
X0425707Y0422199D01*
X0425679Y0422116D01*
X0425648Y0422035D01*
X0425613Y0421955D01*
X0425574Y0421877D01*
X0425532Y0421800D01*
X0425487Y0421725D01*
X0425438Y0421653D01*
X0425387Y0421582D01*
X0425332Y0421514D01*
X0425275Y0421449D01*
X0425214Y0421386D01*
X0425151Y0421325D01*
X0425086Y0421268D01*
X0425018Y0421213D01*
X0424947Y0421162D01*
X0424875Y0421113D01*
X0424800Y0421068D01*
X0424723Y0421026D01*
X0424645Y0420987D01*
X0424565Y0420952D01*
X0424484Y0420921D01*
X0424401Y0420893D01*
X0424318Y0420868D01*
X0424233Y0420847D01*
X0424147Y0420830D01*
X0424061Y0420817D01*
X0423974Y0420808D01*
X0423887Y0420802D01*
X0423800Y0420800D01*
X0411800Y0420800D01*
X0411713Y0420802D01*
X0411626Y0420808D01*
X0411539Y0420817D01*
X0411453Y0420830D01*
X0411367Y0420847D01*
X0411282Y0420868D01*
X0411199Y0420893D01*
X0411116Y0420921D01*
X0411035Y0420952D01*
X0410955Y0420987D01*
X0410877Y0421026D01*
X0410800Y0421068D01*
X0410725Y0421113D01*
X0410653Y0421162D01*
X0410582Y0421213D01*
X0410514Y0421268D01*
X0410449Y0421325D01*
X0410386Y0421386D01*
X0410325Y0421449D01*
X0410268Y0421514D01*
X0410213Y0421582D01*
X0410162Y0421653D01*
X0410113Y0421725D01*
X0410068Y0421800D01*
X0410026Y0421877D01*
X0409987Y0421955D01*
X0409952Y0422035D01*
X0409921Y0422116D01*
X0409893Y0422199D01*
X0409868Y0422282D01*
X0409847Y0422367D01*
X0409830Y0422453D01*
X0409817Y0422539D01*
X0409808Y0422626D01*
X0409802Y0422713D01*
X0409800Y0422800D01*
X0409800Y0470800D01*
X0409802Y0470887D01*
X0409808Y0470974D01*
X0409817Y0471061D01*
X0409830Y0471147D01*
X0409847Y0471233D01*
X0409868Y0471318D01*
X0409893Y0471401D01*
X0409921Y0471484D01*
X0409952Y0471565D01*
X0409987Y0471645D01*
X0410026Y0471723D01*
X0410068Y0471800D01*
X0410113Y0471875D01*
X0410162Y0471947D01*
X0410213Y0472018D01*
X0410268Y0472086D01*
X0410325Y0472151D01*
X0410386Y0472214D01*
X0410449Y0472275D01*
X0410514Y0472332D01*
X0410582Y0472387D01*
X0410653Y0472438D01*
X0410725Y0472487D01*
X0410800Y0472532D01*
X0410877Y0472574D01*
X0410955Y0472613D01*
X0411035Y0472648D01*
X0411116Y0472679D01*
X0411199Y0472707D01*
X0411282Y0472732D01*
X0411367Y0472753D01*
X0411453Y0472770D01*
X0411539Y0472783D01*
X0411626Y0472792D01*
X0411713Y0472798D01*
X0411800Y0472800D01*
X0423800Y0472800D01*
X0423887Y0472798D01*
X0423974Y0472792D01*
X0424061Y0472783D01*
X0424147Y0472770D01*
X0424233Y0472753D01*
X0424318Y0472732D01*
X0424401Y0472707D01*
X0424484Y0472679D01*
X0424565Y0472648D01*
X0424645Y0472613D01*
X0424723Y0472574D01*
X0424800Y0472532D01*
X0424875Y0472487D01*
X0424947Y0472438D01*
X0425018Y0472387D01*
X0425086Y0472332D01*
X0425151Y0472275D01*
X0425214Y0472214D01*
X0425275Y0472151D01*
X0425332Y0472086D01*
X0425387Y0472018D01*
X0425438Y0471947D01*
X0425487Y0471875D01*
X0425532Y0471800D01*
X0425574Y0471723D01*
X0425613Y0471645D01*
X0425648Y0471565D01*
X0425679Y0471484D01*
X0425707Y0471401D01*
X0425732Y0471318D01*
X0425753Y0471233D01*
X0425770Y0471147D01*
X0425783Y0471061D01*
X0425792Y0470974D01*
X0425798Y0470887D01*
X0425800Y0470800D01*
X0417800Y0461800D02*
X0417800Y0437800D01*
X0417800Y0434300D02*
X0417800Y0431800D01*
X0379300Y0443300D02*
X0379300Y0463300D01*
X0301800Y0463300D01*
X0301800Y0443300D01*
X0379300Y0443300D01*
X0363800Y0457800D02*
X0363300Y0458300D01*
X0362800Y0458800D01*
X0362300Y0459300D01*
X0361800Y0459800D01*
X0361800Y0455800D01*
X0362300Y0456300D01*
X0362300Y0457800D01*
X0354300Y0457800D01*
X0362300Y0457800D02*
X0362300Y0459300D01*
X0362800Y0458800D02*
X0362800Y0456800D01*
X0363300Y0457300D01*
X0363300Y0458300D01*
X0363800Y0457800D02*
X0363300Y0457300D01*
X0362800Y0456800D02*
X0362300Y0456300D01*
X0362300Y0457800D02*
X0363800Y0457800D01*
X0530800Y0382800D02*
X0530800Y0367300D01*
D13*
X0438050Y0665550D03*
X0431550Y0665550D03*
D14*
X0434800Y0664550D03*
D15*
X0298050Y0456050D03*
X0298050Y0449550D03*
X0365050Y0223050D03*
X0365050Y0216550D03*
D16*
X0366050Y0219800D03*
X0299050Y0452800D03*
D17*
X0512300Y0491800D03*
D18*
X0518550Y0491800D03*
X0495050Y0491800D03*
D19*
X0603800Y0373300D03*
X0604800Y0297300D03*
X0596800Y0135300D03*
D20*
X0596800Y0141550D03*
X0596800Y0118050D03*
X0604800Y0291050D03*
X0604800Y0314550D03*
X0603800Y0367050D03*
X0603800Y0390550D03*
D21*
X0097288Y0377296D02*
X0097288Y0370209D01*
X0058804Y0370209D01*
X0058804Y0431292D01*
X0097288Y0431292D01*
X0097288Y0424206D01*
X0087741Y0424206D01*
X0087741Y0377296D01*
X0097288Y0377296D01*
X0097288Y0424206D01*
X0054288Y0331292D02*
X0015804Y0331292D01*
X0015804Y0270209D01*
X0054288Y0270209D01*
X0054288Y0277296D01*
X0044741Y0277296D01*
X0044741Y0324206D01*
X0054288Y0324206D01*
X0054288Y0331292D01*
X0054288Y0324206D02*
X0054288Y0277296D01*
M02*
