G75*
%MOIN*%
%OFA0B0*%
%FSLAX25Y25*%
%IPPOS*%
%LPD*%
%AMOC8*
5,1,8,0,0,1.08239X$1,22.5*
%
%ADD10C,0.07087*%
%ADD11C,0.11850*%
%ADD12OC8,0.06000*%
%ADD13C,0.06000*%
%ADD14OC8,0.07050*%
%ADD15C,0.06600*%
%ADD16C,0.10039*%
%ADD17C,0.01600*%
%ADD18C,0.10000*%
%ADD19C,0.05600*%
%ADD20R,0.03962X0.03962*%
%ADD21C,0.08600*%
D10*
X0191800Y0051800D03*
X0191800Y0131800D03*
X0311800Y0141800D03*
X0311800Y0041800D03*
X0312800Y0286800D03*
X0312800Y0336800D03*
X0312800Y0386800D03*
X0192800Y0376800D03*
X0192800Y0296800D03*
X0314800Y0522800D03*
X0314800Y0622800D03*
X0194800Y0612800D03*
X0194800Y0532800D03*
D11*
X0555875Y0491800D02*
X0567725Y0491800D01*
X0603800Y0468725D02*
X0603800Y0456875D01*
X0604800Y0231725D02*
X0604800Y0219875D01*
X0596800Y0064725D02*
X0596800Y0052875D01*
D12*
X0459800Y0041800D03*
X0433800Y0041800D03*
X0406800Y0041800D03*
X0406800Y0081800D03*
X0433800Y0081800D03*
X0459800Y0081800D03*
X0431800Y0134800D03*
X0431800Y0194800D03*
X0419800Y0282800D03*
X0445800Y0282800D03*
X0471800Y0282800D03*
X0471800Y0322800D03*
X0471800Y0347800D03*
X0445800Y0322800D03*
X0419800Y0322800D03*
X0411800Y0347800D03*
X0417800Y0426800D03*
X0441800Y0426800D03*
X0465800Y0426800D03*
X0465800Y0466800D03*
X0441800Y0466800D03*
X0417800Y0466800D03*
X0401800Y0517800D03*
X0422800Y0521800D03*
X0445800Y0521800D03*
X0466800Y0521800D03*
X0466800Y0561800D03*
X0445800Y0561800D03*
X0422800Y0561800D03*
X0401800Y0577800D03*
D13*
X0429800Y0596300D02*
X0429800Y0602300D01*
X0439800Y0626300D02*
X0439800Y0632300D01*
X0429800Y0646300D02*
X0429800Y0652300D01*
X0337300Y0457800D02*
X0331300Y0457800D01*
X0317300Y0447800D02*
X0311300Y0447800D01*
X0361300Y0447800D02*
X0367300Y0447800D01*
X0398300Y0224800D02*
X0404300Y0224800D01*
X0384300Y0214800D02*
X0378300Y0214800D01*
X0428300Y0214800D02*
X0434300Y0214800D01*
D14*
X0518800Y0149800D03*
X0529800Y0214800D03*
X0529800Y0322800D03*
X0530800Y0358800D03*
X0530800Y0466800D03*
X0528800Y0521800D03*
X0528800Y0629800D03*
X0518800Y0041800D03*
D15*
X0596800Y0109800D03*
X0596800Y0149800D03*
X0604800Y0282800D03*
X0604800Y0322800D03*
X0603800Y0358800D03*
X0603800Y0398800D03*
X0526800Y0491800D03*
X0486800Y0491800D03*
D16*
X0082820Y0424186D02*
X0072780Y0424186D01*
X0072780Y0408595D02*
X0082820Y0408595D01*
X0082820Y0393005D02*
X0072780Y0393005D01*
X0072780Y0377414D02*
X0082820Y0377414D01*
X0039820Y0324186D02*
X0029780Y0324186D01*
X0029780Y0308595D02*
X0039820Y0308595D01*
X0039820Y0293005D02*
X0029780Y0293005D01*
X0029780Y0277414D02*
X0039820Y0277414D01*
D17*
X0008200Y0008200D02*
X0008200Y0670400D01*
X0233784Y0670400D01*
X0233033Y0417795D01*
X0176808Y0417795D01*
X0177593Y0418579D01*
X0177594Y0418584D01*
X0177985Y0418974D01*
X0179386Y0422356D01*
X0179386Y0426016D01*
X0177985Y0429397D01*
X0177594Y0429788D01*
X0177593Y0429792D01*
X0175792Y0431593D01*
X0175788Y0431594D01*
X0175397Y0431985D01*
X0172016Y0433386D01*
X0089724Y0433386D01*
X0087228Y0434827D01*
X0084323Y0435605D01*
X0071277Y0435605D01*
X0068372Y0434827D01*
X0065768Y0433324D01*
X0063642Y0431198D01*
X0062139Y0428594D01*
X0061361Y0425689D01*
X0061361Y0422682D01*
X0062139Y0419778D01*
X0063642Y0417174D01*
X0064426Y0416391D01*
X0063642Y0415607D01*
X0062139Y0413003D01*
X0061361Y0410099D01*
X0061361Y0407092D01*
X0062139Y0404187D01*
X0063642Y0401583D01*
X0064426Y0400800D01*
X0063642Y0400017D01*
X0062139Y0397413D01*
X0061361Y0394508D01*
X0061361Y0391501D01*
X0062139Y0388597D01*
X0063642Y0385993D01*
X0065768Y0383867D01*
X0068372Y0382363D01*
X0071277Y0381585D01*
X0084323Y0381585D01*
X0087228Y0382363D01*
X0089724Y0383805D01*
X0232932Y0383805D01*
X0231816Y0008200D01*
X0008200Y0008200D01*
X0008200Y0009793D02*
X0231821Y0009793D01*
X0231826Y0011391D02*
X0008200Y0011391D01*
X0008200Y0012990D02*
X0024732Y0012990D01*
X0024973Y0012925D02*
X0028627Y0012925D01*
X0032156Y0013871D01*
X0035319Y0015697D01*
X0037903Y0018281D01*
X0039729Y0021444D01*
X0040675Y0024973D01*
X0040675Y0028627D01*
X0039729Y0032156D01*
X0037903Y0035319D01*
X0035319Y0037903D01*
X0032156Y0039729D01*
X0028627Y0040675D01*
X0024973Y0040675D01*
X0021444Y0039729D01*
X0018281Y0037903D01*
X0015697Y0035319D01*
X0013871Y0032156D01*
X0012925Y0028627D01*
X0012925Y0024973D01*
X0013871Y0021444D01*
X0015697Y0018281D01*
X0018281Y0015697D01*
X0021444Y0013871D01*
X0024973Y0012925D01*
X0028868Y0012990D02*
X0231830Y0012990D01*
X0231835Y0014588D02*
X0033398Y0014588D01*
X0035809Y0016187D02*
X0231840Y0016187D01*
X0231845Y0017785D02*
X0037407Y0017785D01*
X0038540Y0019384D02*
X0231849Y0019384D01*
X0231854Y0020982D02*
X0039463Y0020982D01*
X0040034Y0022581D02*
X0231859Y0022581D01*
X0231864Y0024179D02*
X0040462Y0024179D01*
X0040675Y0025778D02*
X0231868Y0025778D01*
X0231873Y0027376D02*
X0040675Y0027376D01*
X0040582Y0028975D02*
X0231878Y0028975D01*
X0231883Y0030573D02*
X0040153Y0030573D01*
X0039720Y0032172D02*
X0231887Y0032172D01*
X0231892Y0033770D02*
X0038797Y0033770D01*
X0037853Y0035369D02*
X0231897Y0035369D01*
X0231902Y0036967D02*
X0036255Y0036967D01*
X0034171Y0038566D02*
X0231906Y0038566D01*
X0231911Y0040164D02*
X0030533Y0040164D01*
X0023067Y0040164D02*
X0008200Y0040164D01*
X0008200Y0038566D02*
X0019429Y0038566D01*
X0017345Y0036967D02*
X0008200Y0036967D01*
X0008200Y0035369D02*
X0015747Y0035369D01*
X0014803Y0033770D02*
X0008200Y0033770D01*
X0008200Y0032172D02*
X0013880Y0032172D01*
X0013447Y0030573D02*
X0008200Y0030573D01*
X0008200Y0028975D02*
X0013018Y0028975D01*
X0012925Y0027376D02*
X0008200Y0027376D01*
X0008200Y0025778D02*
X0012925Y0025778D01*
X0013138Y0024179D02*
X0008200Y0024179D01*
X0008200Y0022581D02*
X0013566Y0022581D01*
X0014137Y0020982D02*
X0008200Y0020982D01*
X0008200Y0019384D02*
X0015060Y0019384D01*
X0016193Y0017785D02*
X0008200Y0017785D01*
X0008200Y0016187D02*
X0017791Y0016187D01*
X0020202Y0014588D02*
X0008200Y0014588D01*
X0008200Y0041763D02*
X0155918Y0041763D01*
X0155670Y0041829D02*
X0158391Y0041100D01*
X0193209Y0041100D01*
X0195930Y0041829D01*
X0198370Y0043238D01*
X0200362Y0045230D01*
X0201771Y0047670D01*
X0202500Y0050391D01*
X0202500Y0053209D01*
X0201771Y0055930D01*
X0200362Y0058370D01*
X0198370Y0060362D01*
X0195930Y0061771D01*
X0193209Y0062500D01*
X0164232Y0062500D01*
X0069500Y0157232D01*
X0069500Y0284209D01*
X0068771Y0286930D01*
X0067362Y0289370D01*
X0058837Y0297895D01*
X0176573Y0297895D01*
X0186230Y0288238D01*
X0188670Y0286829D01*
X0191391Y0286100D01*
X0194209Y0286100D01*
X0196930Y0286829D01*
X0199370Y0288238D01*
X0201362Y0290230D01*
X0202771Y0292670D01*
X0203500Y0295391D01*
X0203500Y0298209D01*
X0202771Y0300930D01*
X0201362Y0303370D01*
X0187575Y0317157D01*
X0185135Y0318566D01*
X0182413Y0319295D01*
X0050182Y0319295D01*
X0050461Y0319778D01*
X0051239Y0322682D01*
X0051239Y0325689D01*
X0050461Y0328594D01*
X0048958Y0331198D01*
X0046832Y0333324D01*
X0045500Y0334093D01*
X0045500Y0487368D01*
X0080232Y0522100D01*
X0196209Y0522100D01*
X0198930Y0522829D01*
X0201370Y0524238D01*
X0203362Y0526230D01*
X0204771Y0528670D01*
X0205500Y0531391D01*
X0205500Y0534209D01*
X0204771Y0536930D01*
X0203362Y0539370D01*
X0201370Y0541362D01*
X0198930Y0542771D01*
X0196209Y0543500D01*
X0074391Y0543500D01*
X0071670Y0542771D01*
X0069230Y0541362D01*
X0065738Y0537870D01*
X0028230Y0500362D01*
X0026238Y0498370D01*
X0024829Y0495930D01*
X0024100Y0493209D01*
X0024100Y0334093D01*
X0022768Y0333324D01*
X0020642Y0331198D01*
X0019139Y0328594D01*
X0018361Y0325689D01*
X0018361Y0322682D01*
X0019139Y0319778D01*
X0020642Y0317174D01*
X0021426Y0316391D01*
X0020642Y0315607D01*
X0019139Y0313003D01*
X0018361Y0310099D01*
X0018361Y0307092D01*
X0019139Y0304187D01*
X0020642Y0301583D01*
X0021426Y0300800D01*
X0020642Y0300017D01*
X0019139Y0297413D01*
X0018361Y0294508D01*
X0018361Y0291501D01*
X0019139Y0288597D01*
X0020642Y0285993D01*
X0022768Y0283867D01*
X0025372Y0282363D01*
X0028277Y0281585D01*
X0041323Y0281585D01*
X0043245Y0282100D01*
X0044368Y0282100D01*
X0048100Y0278368D01*
X0048100Y0151391D01*
X0048829Y0148670D01*
X0050238Y0146230D01*
X0052230Y0144238D01*
X0153230Y0043238D01*
X0155670Y0041829D01*
X0153107Y0043361D02*
X0008200Y0043361D01*
X0008200Y0044960D02*
X0151508Y0044960D01*
X0149910Y0046558D02*
X0008200Y0046558D01*
X0008200Y0048157D02*
X0148311Y0048157D01*
X0146713Y0049755D02*
X0008200Y0049755D01*
X0008200Y0051354D02*
X0145114Y0051354D01*
X0143516Y0052952D02*
X0008200Y0052952D01*
X0008200Y0054551D02*
X0141917Y0054551D01*
X0140319Y0056149D02*
X0008200Y0056149D01*
X0008200Y0057748D02*
X0138720Y0057748D01*
X0137122Y0059346D02*
X0008200Y0059346D01*
X0008200Y0060945D02*
X0135523Y0060945D01*
X0133924Y0062543D02*
X0008200Y0062543D01*
X0008200Y0064142D02*
X0132326Y0064142D01*
X0130727Y0065740D02*
X0008200Y0065740D01*
X0008200Y0067339D02*
X0129129Y0067339D01*
X0127530Y0068937D02*
X0008200Y0068937D01*
X0008200Y0070536D02*
X0125932Y0070536D01*
X0124333Y0072134D02*
X0008200Y0072134D01*
X0008200Y0073733D02*
X0122735Y0073733D01*
X0121136Y0075332D02*
X0008200Y0075332D01*
X0008200Y0076930D02*
X0119538Y0076930D01*
X0117939Y0078529D02*
X0008200Y0078529D01*
X0008200Y0080127D02*
X0116341Y0080127D01*
X0114742Y0081726D02*
X0008200Y0081726D01*
X0008200Y0083324D02*
X0113144Y0083324D01*
X0111545Y0084923D02*
X0008200Y0084923D01*
X0008200Y0086521D02*
X0109947Y0086521D01*
X0108348Y0088120D02*
X0008200Y0088120D01*
X0008200Y0089718D02*
X0106750Y0089718D01*
X0105151Y0091317D02*
X0008200Y0091317D01*
X0008200Y0092915D02*
X0103553Y0092915D01*
X0101954Y0094514D02*
X0008200Y0094514D01*
X0008200Y0096112D02*
X0100356Y0096112D01*
X0098757Y0097711D02*
X0008200Y0097711D01*
X0008200Y0099309D02*
X0097159Y0099309D01*
X0095560Y0100908D02*
X0008200Y0100908D01*
X0008200Y0102506D02*
X0093962Y0102506D01*
X0092363Y0104105D02*
X0008200Y0104105D01*
X0008200Y0105703D02*
X0090765Y0105703D01*
X0089166Y0107302D02*
X0008200Y0107302D01*
X0008200Y0108900D02*
X0087568Y0108900D01*
X0085969Y0110499D02*
X0008200Y0110499D01*
X0008200Y0112097D02*
X0084371Y0112097D01*
X0082772Y0113696D02*
X0008200Y0113696D01*
X0008200Y0115294D02*
X0081174Y0115294D01*
X0079575Y0116893D02*
X0008200Y0116893D01*
X0008200Y0118491D02*
X0077977Y0118491D01*
X0076378Y0120090D02*
X0008200Y0120090D01*
X0008200Y0121688D02*
X0074780Y0121688D01*
X0073181Y0123287D02*
X0008200Y0123287D01*
X0008200Y0124885D02*
X0071583Y0124885D01*
X0069984Y0126484D02*
X0008200Y0126484D01*
X0008200Y0128082D02*
X0068386Y0128082D01*
X0066787Y0129681D02*
X0008200Y0129681D01*
X0008200Y0131279D02*
X0065188Y0131279D01*
X0063590Y0132878D02*
X0008200Y0132878D01*
X0008200Y0134476D02*
X0061991Y0134476D01*
X0060393Y0136075D02*
X0008200Y0136075D01*
X0008200Y0137673D02*
X0058794Y0137673D01*
X0057196Y0139272D02*
X0008200Y0139272D01*
X0008200Y0140870D02*
X0055597Y0140870D01*
X0053999Y0142469D02*
X0008200Y0142469D01*
X0008200Y0144068D02*
X0052400Y0144068D01*
X0050802Y0145666D02*
X0008200Y0145666D01*
X0008200Y0147265D02*
X0049641Y0147265D01*
X0048777Y0148863D02*
X0008200Y0148863D01*
X0008200Y0150462D02*
X0048349Y0150462D01*
X0048100Y0152060D02*
X0008200Y0152060D01*
X0008200Y0153659D02*
X0048100Y0153659D01*
X0048100Y0155257D02*
X0008200Y0155257D01*
X0008200Y0156856D02*
X0048100Y0156856D01*
X0048100Y0158454D02*
X0008200Y0158454D01*
X0008200Y0160053D02*
X0048100Y0160053D01*
X0048100Y0161651D02*
X0008200Y0161651D01*
X0008200Y0163250D02*
X0048100Y0163250D01*
X0048100Y0164848D02*
X0008200Y0164848D01*
X0008200Y0166447D02*
X0048100Y0166447D01*
X0048100Y0168045D02*
X0008200Y0168045D01*
X0008200Y0169644D02*
X0048100Y0169644D01*
X0048100Y0171242D02*
X0008200Y0171242D01*
X0008200Y0172841D02*
X0048100Y0172841D01*
X0048100Y0174439D02*
X0008200Y0174439D01*
X0008200Y0176038D02*
X0048100Y0176038D01*
X0048100Y0177636D02*
X0008200Y0177636D01*
X0008200Y0179235D02*
X0048100Y0179235D01*
X0048100Y0180833D02*
X0008200Y0180833D01*
X0008200Y0182432D02*
X0048100Y0182432D01*
X0048100Y0184030D02*
X0008200Y0184030D01*
X0008200Y0185629D02*
X0048100Y0185629D01*
X0048100Y0187227D02*
X0008200Y0187227D01*
X0008200Y0188826D02*
X0048100Y0188826D01*
X0048100Y0190424D02*
X0008200Y0190424D01*
X0008200Y0192023D02*
X0048100Y0192023D01*
X0048100Y0193621D02*
X0008200Y0193621D01*
X0008200Y0195220D02*
X0048100Y0195220D01*
X0048100Y0196818D02*
X0008200Y0196818D01*
X0008200Y0198417D02*
X0048100Y0198417D01*
X0048100Y0200015D02*
X0008200Y0200015D01*
X0008200Y0201614D02*
X0048100Y0201614D01*
X0048100Y0203212D02*
X0008200Y0203212D01*
X0008200Y0204811D02*
X0048100Y0204811D01*
X0048100Y0206409D02*
X0008200Y0206409D01*
X0008200Y0208008D02*
X0048100Y0208008D01*
X0048100Y0209606D02*
X0008200Y0209606D01*
X0008200Y0211205D02*
X0048100Y0211205D01*
X0048100Y0212803D02*
X0008200Y0212803D01*
X0008200Y0214402D02*
X0048100Y0214402D01*
X0048100Y0216001D02*
X0008200Y0216001D01*
X0008200Y0217599D02*
X0048100Y0217599D01*
X0048100Y0219198D02*
X0008200Y0219198D01*
X0008200Y0220796D02*
X0048100Y0220796D01*
X0048100Y0222395D02*
X0008200Y0222395D01*
X0008200Y0223993D02*
X0048100Y0223993D01*
X0048100Y0225592D02*
X0008200Y0225592D01*
X0008200Y0227190D02*
X0048100Y0227190D01*
X0048100Y0228789D02*
X0008200Y0228789D01*
X0008200Y0230387D02*
X0048100Y0230387D01*
X0048100Y0231986D02*
X0008200Y0231986D01*
X0008200Y0233584D02*
X0048100Y0233584D01*
X0048100Y0235183D02*
X0008200Y0235183D01*
X0008200Y0236781D02*
X0048100Y0236781D01*
X0048100Y0238380D02*
X0008200Y0238380D01*
X0008200Y0239978D02*
X0048100Y0239978D01*
X0048100Y0241577D02*
X0008200Y0241577D01*
X0008200Y0243175D02*
X0048100Y0243175D01*
X0048100Y0244774D02*
X0008200Y0244774D01*
X0008200Y0246372D02*
X0048100Y0246372D01*
X0048100Y0247971D02*
X0008200Y0247971D01*
X0008200Y0249569D02*
X0048100Y0249569D01*
X0048100Y0251168D02*
X0008200Y0251168D01*
X0008200Y0252766D02*
X0048100Y0252766D01*
X0048100Y0254365D02*
X0008200Y0254365D01*
X0008200Y0255963D02*
X0048100Y0255963D01*
X0048100Y0257562D02*
X0008200Y0257562D01*
X0008200Y0259160D02*
X0048100Y0259160D01*
X0048100Y0260759D02*
X0008200Y0260759D01*
X0008200Y0262357D02*
X0048100Y0262357D01*
X0048100Y0263956D02*
X0008200Y0263956D01*
X0008200Y0265554D02*
X0048100Y0265554D01*
X0048100Y0267153D02*
X0008200Y0267153D01*
X0008200Y0268751D02*
X0048100Y0268751D01*
X0048100Y0270350D02*
X0008200Y0270350D01*
X0008200Y0271948D02*
X0048100Y0271948D01*
X0048100Y0273547D02*
X0008200Y0273547D01*
X0008200Y0275145D02*
X0048100Y0275145D01*
X0048100Y0276744D02*
X0008200Y0276744D01*
X0008200Y0278342D02*
X0048100Y0278342D01*
X0046527Y0279941D02*
X0008200Y0279941D01*
X0008200Y0281539D02*
X0044928Y0281539D01*
X0060806Y0295926D02*
X0178542Y0295926D01*
X0180140Y0294328D02*
X0062404Y0294328D01*
X0064003Y0292729D02*
X0181739Y0292729D01*
X0183337Y0291131D02*
X0065602Y0291131D01*
X0067200Y0289532D02*
X0184936Y0289532D01*
X0186757Y0287934D02*
X0068191Y0287934D01*
X0068930Y0286335D02*
X0190514Y0286335D01*
X0195086Y0286335D02*
X0232643Y0286335D01*
X0232638Y0284737D02*
X0069359Y0284737D01*
X0069500Y0283138D02*
X0232633Y0283138D01*
X0232628Y0281539D02*
X0069500Y0281539D01*
X0069500Y0279941D02*
X0232624Y0279941D01*
X0232619Y0278342D02*
X0069500Y0278342D01*
X0069500Y0276744D02*
X0232614Y0276744D01*
X0232609Y0275145D02*
X0069500Y0275145D01*
X0069500Y0273547D02*
X0232605Y0273547D01*
X0232600Y0271948D02*
X0069500Y0271948D01*
X0069500Y0270350D02*
X0232595Y0270350D01*
X0232590Y0268751D02*
X0069500Y0268751D01*
X0069500Y0267153D02*
X0232586Y0267153D01*
X0232581Y0265554D02*
X0069500Y0265554D01*
X0069500Y0263956D02*
X0232576Y0263956D01*
X0232571Y0262357D02*
X0069500Y0262357D01*
X0069500Y0260759D02*
X0232567Y0260759D01*
X0232562Y0259160D02*
X0069500Y0259160D01*
X0069500Y0257562D02*
X0232557Y0257562D01*
X0232552Y0255963D02*
X0069500Y0255963D01*
X0069500Y0254365D02*
X0232548Y0254365D01*
X0232543Y0252766D02*
X0069500Y0252766D01*
X0069500Y0251168D02*
X0232538Y0251168D01*
X0232533Y0249569D02*
X0069500Y0249569D01*
X0069500Y0247971D02*
X0232529Y0247971D01*
X0232524Y0246372D02*
X0069500Y0246372D01*
X0069500Y0244774D02*
X0232519Y0244774D01*
X0232514Y0243175D02*
X0069500Y0243175D01*
X0069500Y0241577D02*
X0232510Y0241577D01*
X0232505Y0239978D02*
X0069500Y0239978D01*
X0069500Y0238380D02*
X0232500Y0238380D01*
X0232495Y0236781D02*
X0069500Y0236781D01*
X0069500Y0235183D02*
X0232491Y0235183D01*
X0232486Y0233584D02*
X0069500Y0233584D01*
X0069500Y0231986D02*
X0232481Y0231986D01*
X0232476Y0230387D02*
X0069500Y0230387D01*
X0069500Y0228789D02*
X0232472Y0228789D01*
X0232467Y0227190D02*
X0069500Y0227190D01*
X0069500Y0225592D02*
X0232462Y0225592D01*
X0232457Y0223993D02*
X0069500Y0223993D01*
X0069500Y0222395D02*
X0232453Y0222395D01*
X0232448Y0220796D02*
X0069500Y0220796D01*
X0069500Y0219198D02*
X0232443Y0219198D01*
X0232438Y0217599D02*
X0069500Y0217599D01*
X0069500Y0216001D02*
X0232434Y0216001D01*
X0232429Y0214402D02*
X0069500Y0214402D01*
X0069500Y0212803D02*
X0232424Y0212803D01*
X0232419Y0211205D02*
X0069500Y0211205D01*
X0069500Y0209606D02*
X0232415Y0209606D01*
X0232410Y0208008D02*
X0069500Y0208008D01*
X0069500Y0206409D02*
X0232405Y0206409D01*
X0232400Y0204811D02*
X0069500Y0204811D01*
X0069500Y0203212D02*
X0232396Y0203212D01*
X0232391Y0201614D02*
X0069500Y0201614D01*
X0069500Y0200015D02*
X0232386Y0200015D01*
X0232381Y0198417D02*
X0069500Y0198417D01*
X0069500Y0196818D02*
X0232377Y0196818D01*
X0232372Y0195220D02*
X0069500Y0195220D01*
X0069500Y0193621D02*
X0232367Y0193621D01*
X0232362Y0192023D02*
X0069500Y0192023D01*
X0069500Y0190424D02*
X0232358Y0190424D01*
X0232353Y0188826D02*
X0069500Y0188826D01*
X0069500Y0187227D02*
X0232348Y0187227D01*
X0232343Y0185629D02*
X0069500Y0185629D01*
X0069500Y0184030D02*
X0232339Y0184030D01*
X0232334Y0182432D02*
X0069500Y0182432D01*
X0069500Y0180833D02*
X0232329Y0180833D01*
X0232324Y0179235D02*
X0069500Y0179235D01*
X0069500Y0177636D02*
X0232320Y0177636D01*
X0232315Y0176038D02*
X0069500Y0176038D01*
X0069500Y0174439D02*
X0232310Y0174439D01*
X0232305Y0172841D02*
X0069500Y0172841D01*
X0069500Y0171242D02*
X0232301Y0171242D01*
X0232296Y0169644D02*
X0069500Y0169644D01*
X0069500Y0168045D02*
X0232291Y0168045D01*
X0232286Y0166447D02*
X0069500Y0166447D01*
X0069500Y0164848D02*
X0232282Y0164848D01*
X0232277Y0163250D02*
X0069500Y0163250D01*
X0069500Y0161651D02*
X0232272Y0161651D01*
X0232267Y0160053D02*
X0069500Y0160053D01*
X0069500Y0158454D02*
X0232263Y0158454D01*
X0232258Y0156856D02*
X0069876Y0156856D01*
X0071475Y0155257D02*
X0232253Y0155257D01*
X0232248Y0153659D02*
X0073073Y0153659D01*
X0074672Y0152060D02*
X0232244Y0152060D01*
X0232239Y0150462D02*
X0076271Y0150462D01*
X0077869Y0148863D02*
X0232234Y0148863D01*
X0232229Y0147265D02*
X0079468Y0147265D01*
X0081066Y0145666D02*
X0232225Y0145666D01*
X0232220Y0144068D02*
X0082665Y0144068D01*
X0084263Y0142469D02*
X0232215Y0142469D01*
X0232210Y0140870D02*
X0085862Y0140870D01*
X0087460Y0139272D02*
X0232206Y0139272D01*
X0232201Y0137673D02*
X0089059Y0137673D01*
X0090657Y0136075D02*
X0232196Y0136075D01*
X0232191Y0134476D02*
X0092256Y0134476D01*
X0093854Y0132878D02*
X0232187Y0132878D01*
X0232182Y0131279D02*
X0095453Y0131279D01*
X0097051Y0129681D02*
X0232177Y0129681D01*
X0232172Y0128082D02*
X0098650Y0128082D01*
X0100248Y0126484D02*
X0232168Y0126484D01*
X0232163Y0124885D02*
X0101847Y0124885D01*
X0103445Y0123287D02*
X0232158Y0123287D01*
X0232153Y0121688D02*
X0105044Y0121688D01*
X0106642Y0120090D02*
X0232149Y0120090D01*
X0232144Y0118491D02*
X0108241Y0118491D01*
X0109839Y0116893D02*
X0232139Y0116893D01*
X0232134Y0115294D02*
X0111438Y0115294D01*
X0113036Y0113696D02*
X0232130Y0113696D01*
X0232125Y0112097D02*
X0114635Y0112097D01*
X0116233Y0110499D02*
X0232120Y0110499D01*
X0232115Y0108900D02*
X0117832Y0108900D01*
X0119430Y0107302D02*
X0232111Y0107302D01*
X0232106Y0105703D02*
X0121029Y0105703D01*
X0122627Y0104105D02*
X0232101Y0104105D01*
X0232096Y0102506D02*
X0124226Y0102506D01*
X0125824Y0100908D02*
X0232092Y0100908D01*
X0232087Y0099309D02*
X0127423Y0099309D01*
X0129021Y0097711D02*
X0232082Y0097711D01*
X0232077Y0096112D02*
X0130620Y0096112D01*
X0132218Y0094514D02*
X0232073Y0094514D01*
X0232068Y0092915D02*
X0133817Y0092915D01*
X0135415Y0091317D02*
X0232063Y0091317D01*
X0232058Y0089718D02*
X0137014Y0089718D01*
X0138612Y0088120D02*
X0232054Y0088120D01*
X0232049Y0086521D02*
X0140211Y0086521D01*
X0141809Y0084923D02*
X0232044Y0084923D01*
X0232039Y0083324D02*
X0143408Y0083324D01*
X0145006Y0081726D02*
X0232035Y0081726D01*
X0232030Y0080127D02*
X0146605Y0080127D01*
X0148204Y0078529D02*
X0232025Y0078529D01*
X0232020Y0076930D02*
X0149802Y0076930D01*
X0151401Y0075332D02*
X0232016Y0075332D01*
X0232011Y0073733D02*
X0152999Y0073733D01*
X0154598Y0072134D02*
X0232006Y0072134D01*
X0232001Y0070536D02*
X0156196Y0070536D01*
X0157795Y0068937D02*
X0231997Y0068937D01*
X0231992Y0067339D02*
X0159393Y0067339D01*
X0160992Y0065740D02*
X0231987Y0065740D01*
X0231982Y0064142D02*
X0162590Y0064142D01*
X0164189Y0062543D02*
X0231978Y0062543D01*
X0231973Y0060945D02*
X0197361Y0060945D01*
X0199386Y0059346D02*
X0231968Y0059346D01*
X0231963Y0057748D02*
X0200721Y0057748D01*
X0201644Y0056149D02*
X0231959Y0056149D01*
X0231954Y0054551D02*
X0202140Y0054551D01*
X0202500Y0052952D02*
X0231949Y0052952D01*
X0231944Y0051354D02*
X0202500Y0051354D01*
X0202330Y0049755D02*
X0231940Y0049755D01*
X0231935Y0048157D02*
X0201901Y0048157D01*
X0201129Y0046558D02*
X0231930Y0046558D01*
X0231925Y0044960D02*
X0200092Y0044960D01*
X0198493Y0043361D02*
X0231921Y0043361D01*
X0231916Y0041763D02*
X0195682Y0041763D01*
X0024031Y0283138D02*
X0008200Y0283138D01*
X0008200Y0284737D02*
X0021899Y0284737D01*
X0020445Y0286335D02*
X0008200Y0286335D01*
X0008200Y0287934D02*
X0019522Y0287934D01*
X0018888Y0289532D02*
X0008200Y0289532D01*
X0008200Y0291131D02*
X0018460Y0291131D01*
X0018361Y0292729D02*
X0008200Y0292729D01*
X0008200Y0294328D02*
X0018361Y0294328D01*
X0018741Y0295926D02*
X0008200Y0295926D01*
X0008200Y0297525D02*
X0019204Y0297525D01*
X0020126Y0299123D02*
X0008200Y0299123D01*
X0008200Y0300722D02*
X0021347Y0300722D01*
X0020217Y0302320D02*
X0008200Y0302320D01*
X0008200Y0303919D02*
X0019294Y0303919D01*
X0018783Y0305517D02*
X0008200Y0305517D01*
X0008200Y0307116D02*
X0018361Y0307116D01*
X0018361Y0308714D02*
X0008200Y0308714D01*
X0008200Y0310313D02*
X0018418Y0310313D01*
X0018846Y0311911D02*
X0008200Y0311911D01*
X0008200Y0313510D02*
X0019431Y0313510D01*
X0020354Y0315108D02*
X0008200Y0315108D01*
X0008200Y0316707D02*
X0021110Y0316707D01*
X0019989Y0318305D02*
X0008200Y0318305D01*
X0008200Y0319904D02*
X0019105Y0319904D01*
X0018677Y0321502D02*
X0008200Y0321502D01*
X0008200Y0323101D02*
X0018361Y0323101D01*
X0018361Y0324699D02*
X0008200Y0324699D01*
X0008200Y0326298D02*
X0018524Y0326298D01*
X0018952Y0327896D02*
X0008200Y0327896D01*
X0008200Y0329495D02*
X0019659Y0329495D01*
X0020582Y0331093D02*
X0008200Y0331093D01*
X0008200Y0332692D02*
X0022136Y0332692D01*
X0024100Y0334290D02*
X0008200Y0334290D01*
X0008200Y0335889D02*
X0024100Y0335889D01*
X0024100Y0337487D02*
X0008200Y0337487D01*
X0008200Y0339086D02*
X0024100Y0339086D01*
X0024100Y0340684D02*
X0008200Y0340684D01*
X0008200Y0342283D02*
X0024100Y0342283D01*
X0024100Y0343881D02*
X0008200Y0343881D01*
X0008200Y0345480D02*
X0024100Y0345480D01*
X0024100Y0347078D02*
X0008200Y0347078D01*
X0008200Y0348677D02*
X0024100Y0348677D01*
X0024100Y0350275D02*
X0008200Y0350275D01*
X0008200Y0351874D02*
X0024100Y0351874D01*
X0024100Y0353472D02*
X0008200Y0353472D01*
X0008200Y0355071D02*
X0024100Y0355071D01*
X0024100Y0356670D02*
X0008200Y0356670D01*
X0008200Y0358268D02*
X0024100Y0358268D01*
X0024100Y0359867D02*
X0008200Y0359867D01*
X0008200Y0361465D02*
X0024100Y0361465D01*
X0024100Y0363064D02*
X0008200Y0363064D01*
X0008200Y0364662D02*
X0024100Y0364662D01*
X0024100Y0366261D02*
X0008200Y0366261D01*
X0008200Y0367859D02*
X0024100Y0367859D01*
X0024100Y0369458D02*
X0008200Y0369458D01*
X0008200Y0371056D02*
X0024100Y0371056D01*
X0024100Y0372655D02*
X0008200Y0372655D01*
X0008200Y0374253D02*
X0024100Y0374253D01*
X0024100Y0375852D02*
X0008200Y0375852D01*
X0008200Y0377450D02*
X0024100Y0377450D01*
X0024100Y0379049D02*
X0008200Y0379049D01*
X0008200Y0380647D02*
X0024100Y0380647D01*
X0024100Y0382246D02*
X0008200Y0382246D01*
X0008200Y0383844D02*
X0024100Y0383844D01*
X0024100Y0385443D02*
X0008200Y0385443D01*
X0008200Y0387041D02*
X0024100Y0387041D01*
X0024100Y0388640D02*
X0008200Y0388640D01*
X0008200Y0390238D02*
X0024100Y0390238D01*
X0024100Y0391837D02*
X0008200Y0391837D01*
X0008200Y0393435D02*
X0024100Y0393435D01*
X0024100Y0395034D02*
X0008200Y0395034D01*
X0008200Y0396632D02*
X0024100Y0396632D01*
X0024100Y0398231D02*
X0008200Y0398231D01*
X0008200Y0399829D02*
X0024100Y0399829D01*
X0024100Y0401428D02*
X0008200Y0401428D01*
X0008200Y0403026D02*
X0024100Y0403026D01*
X0024100Y0404625D02*
X0008200Y0404625D01*
X0008200Y0406223D02*
X0024100Y0406223D01*
X0024100Y0407822D02*
X0008200Y0407822D01*
X0008200Y0409420D02*
X0024100Y0409420D01*
X0024100Y0411019D02*
X0008200Y0411019D01*
X0008200Y0412617D02*
X0024100Y0412617D01*
X0024100Y0414216D02*
X0008200Y0414216D01*
X0008200Y0415814D02*
X0024100Y0415814D01*
X0024100Y0417413D02*
X0008200Y0417413D01*
X0008200Y0419011D02*
X0024100Y0419011D01*
X0024100Y0420610D02*
X0008200Y0420610D01*
X0008200Y0422208D02*
X0024100Y0422208D01*
X0024100Y0423807D02*
X0008200Y0423807D01*
X0008200Y0425405D02*
X0024100Y0425405D01*
X0024100Y0427004D02*
X0008200Y0427004D01*
X0008200Y0428603D02*
X0024100Y0428603D01*
X0024100Y0430201D02*
X0008200Y0430201D01*
X0008200Y0431800D02*
X0024100Y0431800D01*
X0024100Y0433398D02*
X0008200Y0433398D01*
X0008200Y0434997D02*
X0024100Y0434997D01*
X0024100Y0436595D02*
X0008200Y0436595D01*
X0008200Y0438194D02*
X0024100Y0438194D01*
X0024100Y0439792D02*
X0008200Y0439792D01*
X0008200Y0441391D02*
X0024100Y0441391D01*
X0024100Y0442989D02*
X0008200Y0442989D01*
X0008200Y0444588D02*
X0024100Y0444588D01*
X0024100Y0446186D02*
X0008200Y0446186D01*
X0008200Y0447785D02*
X0024100Y0447785D01*
X0024100Y0449383D02*
X0008200Y0449383D01*
X0008200Y0450982D02*
X0024100Y0450982D01*
X0024100Y0452580D02*
X0008200Y0452580D01*
X0008200Y0454179D02*
X0024100Y0454179D01*
X0024100Y0455777D02*
X0008200Y0455777D01*
X0008200Y0457376D02*
X0024100Y0457376D01*
X0024100Y0458974D02*
X0008200Y0458974D01*
X0008200Y0460573D02*
X0024100Y0460573D01*
X0024100Y0462171D02*
X0008200Y0462171D01*
X0008200Y0463770D02*
X0024100Y0463770D01*
X0024100Y0465368D02*
X0008200Y0465368D01*
X0008200Y0466967D02*
X0024100Y0466967D01*
X0024100Y0468565D02*
X0008200Y0468565D01*
X0008200Y0470164D02*
X0024100Y0470164D01*
X0024100Y0471762D02*
X0008200Y0471762D01*
X0008200Y0473361D02*
X0024100Y0473361D01*
X0024100Y0474959D02*
X0008200Y0474959D01*
X0008200Y0476558D02*
X0024100Y0476558D01*
X0024100Y0478156D02*
X0008200Y0478156D01*
X0008200Y0479755D02*
X0024100Y0479755D01*
X0024100Y0481353D02*
X0008200Y0481353D01*
X0008200Y0482952D02*
X0024100Y0482952D01*
X0024100Y0484550D02*
X0008200Y0484550D01*
X0008200Y0486149D02*
X0024100Y0486149D01*
X0024100Y0487747D02*
X0008200Y0487747D01*
X0008200Y0489346D02*
X0024100Y0489346D01*
X0024100Y0490944D02*
X0008200Y0490944D01*
X0008200Y0492543D02*
X0024100Y0492543D01*
X0024350Y0494141D02*
X0008200Y0494141D01*
X0008200Y0495740D02*
X0024778Y0495740D01*
X0025642Y0497339D02*
X0008200Y0497339D01*
X0008200Y0498937D02*
X0026805Y0498937D01*
X0028230Y0500362D02*
X0028230Y0500362D01*
X0028403Y0500536D02*
X0008200Y0500536D01*
X0008200Y0502134D02*
X0030002Y0502134D01*
X0031600Y0503733D02*
X0008200Y0503733D01*
X0008200Y0505331D02*
X0033199Y0505331D01*
X0034798Y0506930D02*
X0008200Y0506930D01*
X0008200Y0508528D02*
X0036396Y0508528D01*
X0037995Y0510127D02*
X0008200Y0510127D01*
X0008200Y0511725D02*
X0039593Y0511725D01*
X0041192Y0513324D02*
X0008200Y0513324D01*
X0008200Y0514922D02*
X0042790Y0514922D01*
X0044389Y0516521D02*
X0008200Y0516521D01*
X0008200Y0518119D02*
X0045987Y0518119D01*
X0047586Y0519718D02*
X0008200Y0519718D01*
X0008200Y0521316D02*
X0049184Y0521316D01*
X0050783Y0522915D02*
X0008200Y0522915D01*
X0008200Y0524513D02*
X0052381Y0524513D01*
X0053980Y0526112D02*
X0008200Y0526112D01*
X0008200Y0527710D02*
X0055578Y0527710D01*
X0057177Y0529309D02*
X0008200Y0529309D01*
X0008200Y0530907D02*
X0058775Y0530907D01*
X0060374Y0532506D02*
X0008200Y0532506D01*
X0008200Y0534104D02*
X0061972Y0534104D01*
X0063571Y0535703D02*
X0008200Y0535703D01*
X0008200Y0537301D02*
X0065169Y0537301D01*
X0065738Y0537870D02*
X0065738Y0537870D01*
X0066768Y0538900D02*
X0008200Y0538900D01*
X0008200Y0540498D02*
X0068366Y0540498D01*
X0070503Y0542097D02*
X0008200Y0542097D01*
X0008200Y0543695D02*
X0233407Y0543695D01*
X0233403Y0542097D02*
X0200097Y0542097D01*
X0202234Y0540498D02*
X0233398Y0540498D01*
X0233393Y0538900D02*
X0203634Y0538900D01*
X0204556Y0537301D02*
X0233388Y0537301D01*
X0233384Y0535703D02*
X0205100Y0535703D01*
X0205500Y0534104D02*
X0233379Y0534104D01*
X0233374Y0532506D02*
X0205500Y0532506D01*
X0205370Y0530907D02*
X0233369Y0530907D01*
X0233365Y0529309D02*
X0204942Y0529309D01*
X0204217Y0527710D02*
X0233360Y0527710D01*
X0233355Y0526112D02*
X0203244Y0526112D01*
X0201645Y0524513D02*
X0233350Y0524513D01*
X0233346Y0522915D02*
X0199078Y0522915D01*
X0233341Y0521316D02*
X0079448Y0521316D01*
X0077850Y0519718D02*
X0233336Y0519718D01*
X0233331Y0518119D02*
X0076251Y0518119D01*
X0074653Y0516521D02*
X0233327Y0516521D01*
X0233322Y0514922D02*
X0073054Y0514922D01*
X0071456Y0513324D02*
X0233317Y0513324D01*
X0233312Y0511725D02*
X0069857Y0511725D01*
X0068259Y0510127D02*
X0233308Y0510127D01*
X0233303Y0508528D02*
X0066660Y0508528D01*
X0065062Y0506930D02*
X0233298Y0506930D01*
X0233293Y0505331D02*
X0063463Y0505331D01*
X0061865Y0503733D02*
X0233289Y0503733D01*
X0233284Y0502134D02*
X0060266Y0502134D01*
X0058668Y0500536D02*
X0233279Y0500536D01*
X0233274Y0498937D02*
X0057069Y0498937D01*
X0055471Y0497339D02*
X0233270Y0497339D01*
X0233265Y0495740D02*
X0053872Y0495740D01*
X0052274Y0494141D02*
X0233260Y0494141D01*
X0233255Y0492543D02*
X0050675Y0492543D01*
X0049077Y0490944D02*
X0233251Y0490944D01*
X0233246Y0489346D02*
X0047478Y0489346D01*
X0045880Y0487747D02*
X0233241Y0487747D01*
X0233236Y0486149D02*
X0045500Y0486149D01*
X0045500Y0484550D02*
X0233232Y0484550D01*
X0233227Y0482952D02*
X0045500Y0482952D01*
X0045500Y0481353D02*
X0233222Y0481353D01*
X0233217Y0479755D02*
X0045500Y0479755D01*
X0045500Y0478156D02*
X0233213Y0478156D01*
X0233208Y0476558D02*
X0045500Y0476558D01*
X0045500Y0474959D02*
X0233203Y0474959D01*
X0233198Y0473361D02*
X0045500Y0473361D01*
X0045500Y0471762D02*
X0233194Y0471762D01*
X0233189Y0470164D02*
X0045500Y0470164D01*
X0045500Y0468565D02*
X0233184Y0468565D01*
X0233179Y0466967D02*
X0045500Y0466967D01*
X0045500Y0465368D02*
X0233175Y0465368D01*
X0233170Y0463770D02*
X0045500Y0463770D01*
X0045500Y0462171D02*
X0233165Y0462171D01*
X0233160Y0460573D02*
X0045500Y0460573D01*
X0045500Y0458974D02*
X0233156Y0458974D01*
X0233151Y0457376D02*
X0045500Y0457376D01*
X0045500Y0455777D02*
X0233146Y0455777D01*
X0233141Y0454179D02*
X0045500Y0454179D01*
X0045500Y0452580D02*
X0233137Y0452580D01*
X0233132Y0450982D02*
X0045500Y0450982D01*
X0045500Y0449383D02*
X0233127Y0449383D01*
X0233122Y0447785D02*
X0045500Y0447785D01*
X0045500Y0446186D02*
X0233118Y0446186D01*
X0233113Y0444588D02*
X0045500Y0444588D01*
X0045500Y0442989D02*
X0233108Y0442989D01*
X0233103Y0441391D02*
X0045500Y0441391D01*
X0045500Y0439792D02*
X0233099Y0439792D01*
X0233094Y0438194D02*
X0045500Y0438194D01*
X0045500Y0436595D02*
X0233089Y0436595D01*
X0233084Y0434997D02*
X0086596Y0434997D01*
X0089703Y0433398D02*
X0233080Y0433398D01*
X0233075Y0431800D02*
X0175583Y0431800D01*
X0177184Y0430201D02*
X0233070Y0430201D01*
X0233065Y0428603D02*
X0178314Y0428603D01*
X0178977Y0427004D02*
X0233061Y0427004D01*
X0233056Y0425405D02*
X0179386Y0425405D01*
X0179386Y0423807D02*
X0233051Y0423807D01*
X0233046Y0422208D02*
X0179325Y0422208D01*
X0178663Y0420610D02*
X0233042Y0420610D01*
X0233037Y0419011D02*
X0178001Y0419011D01*
X0232928Y0382246D02*
X0086789Y0382246D01*
X0068811Y0382246D02*
X0045500Y0382246D01*
X0045500Y0383844D02*
X0065807Y0383844D01*
X0064192Y0385443D02*
X0045500Y0385443D01*
X0045500Y0387041D02*
X0063037Y0387041D01*
X0062127Y0388640D02*
X0045500Y0388640D01*
X0045500Y0390238D02*
X0061699Y0390238D01*
X0061361Y0391837D02*
X0045500Y0391837D01*
X0045500Y0393435D02*
X0061361Y0393435D01*
X0061501Y0395034D02*
X0045500Y0395034D01*
X0045500Y0396632D02*
X0061930Y0396632D01*
X0062611Y0398231D02*
X0045500Y0398231D01*
X0045500Y0399829D02*
X0063534Y0399829D01*
X0063798Y0401428D02*
X0045500Y0401428D01*
X0045500Y0403026D02*
X0062809Y0403026D01*
X0062022Y0404625D02*
X0045500Y0404625D01*
X0045500Y0406223D02*
X0061593Y0406223D01*
X0061361Y0407822D02*
X0045500Y0407822D01*
X0045500Y0409420D02*
X0061361Y0409420D01*
X0061607Y0411019D02*
X0045500Y0411019D01*
X0045500Y0412617D02*
X0062036Y0412617D01*
X0062839Y0414216D02*
X0045500Y0414216D01*
X0045500Y0415814D02*
X0063850Y0415814D01*
X0063504Y0417413D02*
X0045500Y0417413D01*
X0045500Y0419011D02*
X0062581Y0419011D01*
X0061916Y0420610D02*
X0045500Y0420610D01*
X0045500Y0422208D02*
X0061488Y0422208D01*
X0061361Y0423807D02*
X0045500Y0423807D01*
X0045500Y0425405D02*
X0061361Y0425405D01*
X0061713Y0427004D02*
X0045500Y0427004D01*
X0045500Y0428603D02*
X0062144Y0428603D01*
X0063067Y0430201D02*
X0045500Y0430201D01*
X0045500Y0431800D02*
X0064244Y0431800D01*
X0065897Y0433398D02*
X0045500Y0433398D01*
X0045500Y0434997D02*
X0069004Y0434997D01*
X0045500Y0380647D02*
X0232923Y0380647D01*
X0232918Y0379049D02*
X0045500Y0379049D01*
X0045500Y0377450D02*
X0232913Y0377450D01*
X0232909Y0375852D02*
X0045500Y0375852D01*
X0045500Y0374253D02*
X0232904Y0374253D01*
X0232899Y0372655D02*
X0045500Y0372655D01*
X0045500Y0371056D02*
X0232894Y0371056D01*
X0232890Y0369458D02*
X0045500Y0369458D01*
X0045500Y0367859D02*
X0232885Y0367859D01*
X0232880Y0366261D02*
X0045500Y0366261D01*
X0045500Y0364662D02*
X0232875Y0364662D01*
X0232871Y0363064D02*
X0045500Y0363064D01*
X0045500Y0361465D02*
X0232866Y0361465D01*
X0232861Y0359867D02*
X0045500Y0359867D01*
X0045500Y0358268D02*
X0232856Y0358268D01*
X0232852Y0356670D02*
X0045500Y0356670D01*
X0045500Y0355071D02*
X0232847Y0355071D01*
X0232842Y0353472D02*
X0045500Y0353472D01*
X0045500Y0351874D02*
X0232837Y0351874D01*
X0232833Y0350275D02*
X0045500Y0350275D01*
X0045500Y0348677D02*
X0232828Y0348677D01*
X0232823Y0347078D02*
X0045500Y0347078D01*
X0045500Y0345480D02*
X0232818Y0345480D01*
X0232814Y0343881D02*
X0045500Y0343881D01*
X0045500Y0342283D02*
X0232809Y0342283D01*
X0232804Y0340684D02*
X0045500Y0340684D01*
X0045500Y0339086D02*
X0232799Y0339086D01*
X0232795Y0337487D02*
X0045500Y0337487D01*
X0045500Y0335889D02*
X0232790Y0335889D01*
X0232785Y0334290D02*
X0045500Y0334290D01*
X0047464Y0332692D02*
X0232780Y0332692D01*
X0232776Y0331093D02*
X0049018Y0331093D01*
X0049941Y0329495D02*
X0232771Y0329495D01*
X0232766Y0327896D02*
X0050648Y0327896D01*
X0051076Y0326298D02*
X0232761Y0326298D01*
X0232757Y0324699D02*
X0051239Y0324699D01*
X0051239Y0323101D02*
X0232752Y0323101D01*
X0232747Y0321502D02*
X0050923Y0321502D01*
X0050495Y0319904D02*
X0232742Y0319904D01*
X0232738Y0318305D02*
X0185587Y0318305D01*
X0188025Y0316707D02*
X0232733Y0316707D01*
X0232728Y0315108D02*
X0189624Y0315108D01*
X0191222Y0313510D02*
X0232723Y0313510D01*
X0232719Y0311911D02*
X0192821Y0311911D01*
X0194419Y0310313D02*
X0232714Y0310313D01*
X0232709Y0308714D02*
X0196018Y0308714D01*
X0197616Y0307116D02*
X0232704Y0307116D01*
X0232700Y0305517D02*
X0199215Y0305517D01*
X0200813Y0303919D02*
X0232695Y0303919D01*
X0232690Y0302320D02*
X0201968Y0302320D01*
X0202827Y0300722D02*
X0232685Y0300722D01*
X0232681Y0299123D02*
X0203255Y0299123D01*
X0203500Y0297525D02*
X0232676Y0297525D01*
X0232671Y0295926D02*
X0203500Y0295926D01*
X0203215Y0294328D02*
X0232666Y0294328D01*
X0232662Y0292729D02*
X0202787Y0292729D01*
X0201882Y0291131D02*
X0232657Y0291131D01*
X0232652Y0289532D02*
X0200664Y0289532D01*
X0198843Y0287934D02*
X0232647Y0287934D01*
X0176943Y0297525D02*
X0059207Y0297525D01*
X0008200Y0545294D02*
X0233412Y0545294D01*
X0233417Y0546892D02*
X0008200Y0546892D01*
X0008200Y0548491D02*
X0233422Y0548491D01*
X0233426Y0550089D02*
X0008200Y0550089D01*
X0008200Y0551688D02*
X0233431Y0551688D01*
X0233436Y0553286D02*
X0008200Y0553286D01*
X0008200Y0554885D02*
X0233441Y0554885D01*
X0233445Y0556483D02*
X0008200Y0556483D01*
X0008200Y0558082D02*
X0233450Y0558082D01*
X0233455Y0559680D02*
X0008200Y0559680D01*
X0008200Y0561279D02*
X0233460Y0561279D01*
X0233464Y0562877D02*
X0008200Y0562877D01*
X0008200Y0564476D02*
X0233469Y0564476D01*
X0233474Y0566074D02*
X0008200Y0566074D01*
X0008200Y0567673D02*
X0233479Y0567673D01*
X0233483Y0569272D02*
X0008200Y0569272D01*
X0008200Y0570870D02*
X0233488Y0570870D01*
X0233493Y0572469D02*
X0008200Y0572469D01*
X0008200Y0574067D02*
X0233498Y0574067D01*
X0233502Y0575666D02*
X0008200Y0575666D01*
X0008200Y0577264D02*
X0233507Y0577264D01*
X0233512Y0578863D02*
X0008200Y0578863D01*
X0008200Y0580461D02*
X0233517Y0580461D01*
X0233521Y0582060D02*
X0008200Y0582060D01*
X0008200Y0583658D02*
X0233526Y0583658D01*
X0233531Y0585257D02*
X0008200Y0585257D01*
X0008200Y0586855D02*
X0233536Y0586855D01*
X0233540Y0588454D02*
X0008200Y0588454D01*
X0008200Y0590052D02*
X0233545Y0590052D01*
X0233550Y0591651D02*
X0008200Y0591651D01*
X0008200Y0593249D02*
X0233555Y0593249D01*
X0233559Y0594848D02*
X0008200Y0594848D01*
X0008200Y0596446D02*
X0233564Y0596446D01*
X0233569Y0598045D02*
X0008200Y0598045D01*
X0008200Y0599643D02*
X0233574Y0599643D01*
X0233578Y0601242D02*
X0008200Y0601242D01*
X0008200Y0602840D02*
X0233583Y0602840D01*
X0233588Y0604439D02*
X0008200Y0604439D01*
X0008200Y0606037D02*
X0233593Y0606037D01*
X0233597Y0607636D02*
X0008200Y0607636D01*
X0008200Y0609234D02*
X0233602Y0609234D01*
X0233607Y0610833D02*
X0008200Y0610833D01*
X0008200Y0612431D02*
X0233612Y0612431D01*
X0233616Y0614030D02*
X0008200Y0614030D01*
X0008200Y0615628D02*
X0233621Y0615628D01*
X0233626Y0617227D02*
X0008200Y0617227D01*
X0008200Y0618825D02*
X0233631Y0618825D01*
X0233635Y0620424D02*
X0008200Y0620424D01*
X0008200Y0622022D02*
X0233640Y0622022D01*
X0233645Y0623621D02*
X0008200Y0623621D01*
X0008200Y0625219D02*
X0233650Y0625219D01*
X0233654Y0626818D02*
X0008200Y0626818D01*
X0008200Y0628416D02*
X0233659Y0628416D01*
X0233664Y0630015D02*
X0008200Y0630015D01*
X0008200Y0631613D02*
X0233669Y0631613D01*
X0233673Y0633212D02*
X0008200Y0633212D01*
X0008200Y0634810D02*
X0233678Y0634810D01*
X0233683Y0636409D02*
X0008200Y0636409D01*
X0008200Y0638008D02*
X0024665Y0638008D01*
X0024973Y0637925D02*
X0028627Y0637925D01*
X0032156Y0638871D01*
X0035319Y0640697D01*
X0037903Y0643281D01*
X0039729Y0646444D01*
X0040675Y0649973D01*
X0040675Y0653627D01*
X0039729Y0657156D01*
X0037903Y0660319D01*
X0035319Y0662903D01*
X0032156Y0664729D01*
X0028627Y0665675D01*
X0024973Y0665675D01*
X0021444Y0664729D01*
X0018281Y0662903D01*
X0015697Y0660319D01*
X0013871Y0657156D01*
X0012925Y0653627D01*
X0012925Y0649973D01*
X0013871Y0646444D01*
X0015697Y0643281D01*
X0018281Y0640697D01*
X0021444Y0638871D01*
X0024973Y0637925D01*
X0028935Y0638008D02*
X0233688Y0638008D01*
X0233692Y0639606D02*
X0033429Y0639606D01*
X0035827Y0641205D02*
X0233697Y0641205D01*
X0233702Y0642803D02*
X0037425Y0642803D01*
X0038550Y0644402D02*
X0233707Y0644402D01*
X0233711Y0646000D02*
X0039473Y0646000D01*
X0040039Y0647599D02*
X0233716Y0647599D01*
X0233721Y0649197D02*
X0040467Y0649197D01*
X0040675Y0650796D02*
X0233726Y0650796D01*
X0233730Y0652394D02*
X0040675Y0652394D01*
X0040577Y0653993D02*
X0233735Y0653993D01*
X0233740Y0655591D02*
X0040149Y0655591D01*
X0039710Y0657190D02*
X0233745Y0657190D01*
X0233749Y0658788D02*
X0038787Y0658788D01*
X0037836Y0660387D02*
X0233754Y0660387D01*
X0233759Y0661985D02*
X0036237Y0661985D01*
X0034140Y0663584D02*
X0233764Y0663584D01*
X0233768Y0665182D02*
X0030466Y0665182D01*
X0023134Y0665182D02*
X0008200Y0665182D01*
X0008200Y0663584D02*
X0019460Y0663584D01*
X0017363Y0661985D02*
X0008200Y0661985D01*
X0008200Y0660387D02*
X0015764Y0660387D01*
X0014813Y0658788D02*
X0008200Y0658788D01*
X0008200Y0657190D02*
X0013890Y0657190D01*
X0013451Y0655591D02*
X0008200Y0655591D01*
X0008200Y0653993D02*
X0013023Y0653993D01*
X0012925Y0652394D02*
X0008200Y0652394D01*
X0008200Y0650796D02*
X0012925Y0650796D01*
X0013133Y0649197D02*
X0008200Y0649197D01*
X0008200Y0647599D02*
X0013561Y0647599D01*
X0014127Y0646000D02*
X0008200Y0646000D01*
X0008200Y0644402D02*
X0015050Y0644402D01*
X0016175Y0642803D02*
X0008200Y0642803D01*
X0008200Y0641205D02*
X0017773Y0641205D01*
X0020171Y0639606D02*
X0008200Y0639606D01*
X0008200Y0666781D02*
X0233773Y0666781D01*
X0233778Y0668379D02*
X0008200Y0668379D01*
X0008200Y0669978D02*
X0233783Y0669978D01*
D18*
X0200800Y0622800D02*
X0194800Y0612800D01*
X0200800Y0622800D02*
X0314800Y0622800D01*
X0429800Y0622800D01*
X0428800Y0624300D02*
X0429983Y0627873D01*
X0432056Y0628800D01*
X0466800Y0628800D01*
X0467800Y0627800D01*
X0467800Y0626800D01*
X0466800Y0627800D01*
X0466800Y0628800D01*
X0466800Y0629800D01*
X0529300Y0629800D01*
X0466800Y0627800D02*
X0466800Y0561800D01*
X0422800Y0561800D01*
X0429983Y0627873D02*
X0429800Y0649300D01*
X0486800Y0519800D02*
X0486800Y0491800D01*
X0465800Y0466800D02*
X0530800Y0466800D01*
X0526800Y0491800D02*
X0566800Y0491800D01*
X0603800Y0462800D02*
X0603800Y0398800D01*
X0603800Y0358800D02*
X0530800Y0358800D01*
X0530800Y0394800D01*
X0498800Y0426800D01*
X0465800Y0426800D01*
X0441800Y0426800D01*
X0417800Y0426800D01*
X0377800Y0386800D01*
X0312800Y0386800D01*
X0312800Y0336800D02*
X0216800Y0336800D01*
X0213800Y0339800D01*
X0213800Y0355800D01*
X0192800Y0376800D01*
X0228800Y0447800D02*
X0226800Y0449800D01*
X0228800Y0447800D02*
X0334800Y0447800D01*
X0335800Y0448800D01*
X0335800Y0455800D01*
X0342800Y0462800D01*
X0378800Y0462800D01*
X0382800Y0466800D01*
X0417800Y0466800D01*
X0441800Y0466800D01*
X0465800Y0466800D01*
X0528800Y0521800D02*
X0311800Y0521800D01*
X0314800Y0522800D01*
X0334300Y0457800D02*
X0335800Y0456300D01*
X0335800Y0455800D01*
X0354800Y0322800D02*
X0419800Y0322800D01*
X0445800Y0322800D01*
X0471800Y0322800D01*
X0529800Y0322800D01*
X0604800Y0322800D01*
X0604800Y0282800D02*
X0604800Y0225800D01*
X0596800Y0149800D02*
X0518800Y0149800D01*
X0518800Y0140800D01*
X0459800Y0081800D01*
X0433800Y0081800D01*
X0431800Y0081800D01*
X0431800Y0134800D01*
X0431800Y0081800D02*
X0406800Y0081800D01*
X0371800Y0081800D01*
X0311800Y0141800D01*
X0321800Y0214800D02*
X0321800Y0243800D01*
X0360800Y0282800D01*
X0419800Y0282800D01*
X0445800Y0282800D01*
X0488800Y0282800D01*
X0529800Y0241800D01*
X0529800Y0214800D01*
X0596800Y0109800D02*
X0596800Y0058800D01*
X0518800Y0041800D02*
X0459800Y0041800D01*
X0433800Y0041800D01*
X0406800Y0041800D01*
X0311800Y0041800D01*
X0229800Y0041800D01*
X0221800Y0049800D01*
X0221800Y0101800D01*
X0191800Y0131800D01*
X0187800Y0135800D01*
X0187800Y0210800D01*
X0191800Y0214800D01*
X0321800Y0214800D01*
X0381300Y0214800D01*
X0401300Y0214800D01*
X0401300Y0224800D01*
X0431300Y0214800D02*
X0431800Y0214300D01*
X0431800Y0194800D01*
X0318800Y0286800D02*
X0354800Y0322800D01*
X0318800Y0286800D02*
X0312800Y0286800D01*
X0471800Y0322800D02*
X0471800Y0347800D01*
D19*
X0411800Y0347800D02*
X0396800Y0347800D01*
X0364095Y0408595D02*
X0077800Y0408595D01*
X0077800Y0424186D02*
X0170186Y0424186D01*
X0077800Y0393005D02*
X0283595Y0393005D01*
X0363800Y0447300D02*
X0364300Y0447800D01*
X0401800Y0577800D02*
X0322800Y0577800D01*
X0401800Y0577800D02*
X0408300Y0577800D01*
X0429800Y0599300D01*
X0431300Y0245300D02*
X0431300Y0214800D01*
D20*
X0431300Y0245300D03*
X0396800Y0347800D03*
X0364095Y0408595D03*
X0363800Y0447300D03*
X0283595Y0393005D03*
X0170186Y0424186D03*
X0322800Y0577800D03*
D21*
X0194800Y0532800D02*
X0075800Y0532800D01*
X0074300Y0531300D01*
X0034800Y0491800D01*
X0034800Y0324186D01*
X0034800Y0308595D02*
X0181005Y0308595D01*
X0192800Y0296800D01*
X0058800Y0282800D02*
X0058800Y0152800D01*
X0159800Y0051800D01*
X0191800Y0051800D01*
X0058800Y0282800D02*
X0048800Y0292800D01*
X0035005Y0292800D01*
X0034800Y0293005D01*
M02*
