%
M48
M72
T01C0.02362
T02C0.04000
T03C0.04400
T04C0.04700
T05C0.04724
T06C0.06693
T07C0.07900
T08C0.14950
%
T01
X283595Y393005
X364095Y408595
X363800Y447300
X396800Y347800
X431300Y245300
X170186Y424186
X322800Y577800
T02
X401800Y577800
X422800Y561800
X445800Y561800
X466800Y561800
X466800Y521800
X445800Y521800
X422800Y521800
X401800Y517800
X417800Y466800
X441800Y466800
X465800Y466800
X465800Y426800
X441800Y426800
X417800Y426800
X364300Y447800
X334300Y457800
X314300Y447800
X411800Y347800
X419800Y322800
X445800Y322800
X471800Y322800
X471800Y347800
X471800Y282800
X445800Y282800
X419800Y282800
X401300Y224800
X381300Y214800
X431300Y214800
X431800Y194800
X431800Y134800
X433800Y81800
X459800Y81800
X459800Y41800
X433800Y41800
X406800Y41800
X406800Y81800
X429800Y599300
X439800Y629300
X429800Y649300
T03
X486800Y491800
X526800Y491800
X603800Y398800
X603800Y358800
X604800Y322800
X604800Y282800
X596800Y149800
X596800Y109800
T04
X518800Y149800
X529800Y214800
X529800Y322800
X530800Y358800
X530800Y466800
X528800Y521800
X528800Y629800
X518800Y41800
T05
X311800Y41800
X311800Y141800
X191800Y131800
X191800Y51800
X312800Y286800
X312800Y336800
X312800Y386800
X192800Y376800
X192800Y296800
X314800Y522800
X314800Y622800
X194800Y612800
X194800Y532800
T06
X77800Y424186
X77800Y408595
X77800Y393005
X77800Y377414
X34800Y324186
X34800Y308595
X34800Y293005
X34800Y277414
T07
X561800Y491800
X603800Y462800
X604800Y225800
X596800Y58800
T08
X26800Y26800
X601800Y26800
X601800Y651800
X26800Y651800
M30
