G75*
%MOIN*%
%OFA0B0*%
%FSLAX25Y25*%
%IPPOS*%
%LPD*%
%AMOC8*
5,1,8,0,0,1.08239X$1,22.5*
%
%ADD10C,0.00000*%
%ADD11C,0.07087*%
%ADD12C,0.11850*%
%ADD13OC8,0.06000*%
%ADD14C,0.06000*%
%ADD15OC8,0.07050*%
%ADD16C,0.06600*%
%ADD17C,0.10039*%
%ADD18C,0.05600*%
%ADD19R,0.03962X0.03962*%
D10*
X0001800Y0001800D02*
X0001800Y0676800D01*
X0626800Y0676800D01*
X0626800Y0001800D01*
X0001800Y0001800D01*
X0019325Y0026800D02*
X0019327Y0026983D01*
X0019334Y0027167D01*
X0019345Y0027350D01*
X0019361Y0027533D01*
X0019381Y0027715D01*
X0019406Y0027897D01*
X0019435Y0028078D01*
X0019469Y0028258D01*
X0019507Y0028438D01*
X0019549Y0028616D01*
X0019596Y0028794D01*
X0019647Y0028970D01*
X0019702Y0029145D01*
X0019762Y0029318D01*
X0019826Y0029490D01*
X0019894Y0029661D01*
X0019966Y0029829D01*
X0020043Y0029996D01*
X0020123Y0030161D01*
X0020208Y0030324D01*
X0020296Y0030484D01*
X0020388Y0030643D01*
X0020485Y0030799D01*
X0020585Y0030953D01*
X0020689Y0031104D01*
X0020796Y0031253D01*
X0020907Y0031399D01*
X0021022Y0031542D01*
X0021140Y0031682D01*
X0021261Y0031820D01*
X0021386Y0031954D01*
X0021514Y0032086D01*
X0021646Y0032214D01*
X0021780Y0032339D01*
X0021918Y0032460D01*
X0022058Y0032578D01*
X0022201Y0032693D01*
X0022347Y0032804D01*
X0022496Y0032911D01*
X0022647Y0033015D01*
X0022801Y0033115D01*
X0022957Y0033212D01*
X0023116Y0033304D01*
X0023276Y0033392D01*
X0023439Y0033477D01*
X0023604Y0033557D01*
X0023771Y0033634D01*
X0023939Y0033706D01*
X0024110Y0033774D01*
X0024282Y0033838D01*
X0024455Y0033898D01*
X0024630Y0033953D01*
X0024806Y0034004D01*
X0024984Y0034051D01*
X0025162Y0034093D01*
X0025342Y0034131D01*
X0025522Y0034165D01*
X0025703Y0034194D01*
X0025885Y0034219D01*
X0026067Y0034239D01*
X0026250Y0034255D01*
X0026433Y0034266D01*
X0026617Y0034273D01*
X0026800Y0034275D01*
X0026983Y0034273D01*
X0027167Y0034266D01*
X0027350Y0034255D01*
X0027533Y0034239D01*
X0027715Y0034219D01*
X0027897Y0034194D01*
X0028078Y0034165D01*
X0028258Y0034131D01*
X0028438Y0034093D01*
X0028616Y0034051D01*
X0028794Y0034004D01*
X0028970Y0033953D01*
X0029145Y0033898D01*
X0029318Y0033838D01*
X0029490Y0033774D01*
X0029661Y0033706D01*
X0029829Y0033634D01*
X0029996Y0033557D01*
X0030161Y0033477D01*
X0030324Y0033392D01*
X0030484Y0033304D01*
X0030643Y0033212D01*
X0030799Y0033115D01*
X0030953Y0033015D01*
X0031104Y0032911D01*
X0031253Y0032804D01*
X0031399Y0032693D01*
X0031542Y0032578D01*
X0031682Y0032460D01*
X0031820Y0032339D01*
X0031954Y0032214D01*
X0032086Y0032086D01*
X0032214Y0031954D01*
X0032339Y0031820D01*
X0032460Y0031682D01*
X0032578Y0031542D01*
X0032693Y0031399D01*
X0032804Y0031253D01*
X0032911Y0031104D01*
X0033015Y0030953D01*
X0033115Y0030799D01*
X0033212Y0030643D01*
X0033304Y0030484D01*
X0033392Y0030324D01*
X0033477Y0030161D01*
X0033557Y0029996D01*
X0033634Y0029829D01*
X0033706Y0029661D01*
X0033774Y0029490D01*
X0033838Y0029318D01*
X0033898Y0029145D01*
X0033953Y0028970D01*
X0034004Y0028794D01*
X0034051Y0028616D01*
X0034093Y0028438D01*
X0034131Y0028258D01*
X0034165Y0028078D01*
X0034194Y0027897D01*
X0034219Y0027715D01*
X0034239Y0027533D01*
X0034255Y0027350D01*
X0034266Y0027167D01*
X0034273Y0026983D01*
X0034275Y0026800D01*
X0034273Y0026617D01*
X0034266Y0026433D01*
X0034255Y0026250D01*
X0034239Y0026067D01*
X0034219Y0025885D01*
X0034194Y0025703D01*
X0034165Y0025522D01*
X0034131Y0025342D01*
X0034093Y0025162D01*
X0034051Y0024984D01*
X0034004Y0024806D01*
X0033953Y0024630D01*
X0033898Y0024455D01*
X0033838Y0024282D01*
X0033774Y0024110D01*
X0033706Y0023939D01*
X0033634Y0023771D01*
X0033557Y0023604D01*
X0033477Y0023439D01*
X0033392Y0023276D01*
X0033304Y0023116D01*
X0033212Y0022957D01*
X0033115Y0022801D01*
X0033015Y0022647D01*
X0032911Y0022496D01*
X0032804Y0022347D01*
X0032693Y0022201D01*
X0032578Y0022058D01*
X0032460Y0021918D01*
X0032339Y0021780D01*
X0032214Y0021646D01*
X0032086Y0021514D01*
X0031954Y0021386D01*
X0031820Y0021261D01*
X0031682Y0021140D01*
X0031542Y0021022D01*
X0031399Y0020907D01*
X0031253Y0020796D01*
X0031104Y0020689D01*
X0030953Y0020585D01*
X0030799Y0020485D01*
X0030643Y0020388D01*
X0030484Y0020296D01*
X0030324Y0020208D01*
X0030161Y0020123D01*
X0029996Y0020043D01*
X0029829Y0019966D01*
X0029661Y0019894D01*
X0029490Y0019826D01*
X0029318Y0019762D01*
X0029145Y0019702D01*
X0028970Y0019647D01*
X0028794Y0019596D01*
X0028616Y0019549D01*
X0028438Y0019507D01*
X0028258Y0019469D01*
X0028078Y0019435D01*
X0027897Y0019406D01*
X0027715Y0019381D01*
X0027533Y0019361D01*
X0027350Y0019345D01*
X0027167Y0019334D01*
X0026983Y0019327D01*
X0026800Y0019325D01*
X0026617Y0019327D01*
X0026433Y0019334D01*
X0026250Y0019345D01*
X0026067Y0019361D01*
X0025885Y0019381D01*
X0025703Y0019406D01*
X0025522Y0019435D01*
X0025342Y0019469D01*
X0025162Y0019507D01*
X0024984Y0019549D01*
X0024806Y0019596D01*
X0024630Y0019647D01*
X0024455Y0019702D01*
X0024282Y0019762D01*
X0024110Y0019826D01*
X0023939Y0019894D01*
X0023771Y0019966D01*
X0023604Y0020043D01*
X0023439Y0020123D01*
X0023276Y0020208D01*
X0023116Y0020296D01*
X0022957Y0020388D01*
X0022801Y0020485D01*
X0022647Y0020585D01*
X0022496Y0020689D01*
X0022347Y0020796D01*
X0022201Y0020907D01*
X0022058Y0021022D01*
X0021918Y0021140D01*
X0021780Y0021261D01*
X0021646Y0021386D01*
X0021514Y0021514D01*
X0021386Y0021646D01*
X0021261Y0021780D01*
X0021140Y0021918D01*
X0021022Y0022058D01*
X0020907Y0022201D01*
X0020796Y0022347D01*
X0020689Y0022496D01*
X0020585Y0022647D01*
X0020485Y0022801D01*
X0020388Y0022957D01*
X0020296Y0023116D01*
X0020208Y0023276D01*
X0020123Y0023439D01*
X0020043Y0023604D01*
X0019966Y0023771D01*
X0019894Y0023939D01*
X0019826Y0024110D01*
X0019762Y0024282D01*
X0019702Y0024455D01*
X0019647Y0024630D01*
X0019596Y0024806D01*
X0019549Y0024984D01*
X0019507Y0025162D01*
X0019469Y0025342D01*
X0019435Y0025522D01*
X0019406Y0025703D01*
X0019381Y0025885D01*
X0019361Y0026067D01*
X0019345Y0026250D01*
X0019334Y0026433D01*
X0019327Y0026617D01*
X0019325Y0026800D01*
X0594325Y0026800D02*
X0594327Y0026983D01*
X0594334Y0027167D01*
X0594345Y0027350D01*
X0594361Y0027533D01*
X0594381Y0027715D01*
X0594406Y0027897D01*
X0594435Y0028078D01*
X0594469Y0028258D01*
X0594507Y0028438D01*
X0594549Y0028616D01*
X0594596Y0028794D01*
X0594647Y0028970D01*
X0594702Y0029145D01*
X0594762Y0029318D01*
X0594826Y0029490D01*
X0594894Y0029661D01*
X0594966Y0029829D01*
X0595043Y0029996D01*
X0595123Y0030161D01*
X0595208Y0030324D01*
X0595296Y0030484D01*
X0595388Y0030643D01*
X0595485Y0030799D01*
X0595585Y0030953D01*
X0595689Y0031104D01*
X0595796Y0031253D01*
X0595907Y0031399D01*
X0596022Y0031542D01*
X0596140Y0031682D01*
X0596261Y0031820D01*
X0596386Y0031954D01*
X0596514Y0032086D01*
X0596646Y0032214D01*
X0596780Y0032339D01*
X0596918Y0032460D01*
X0597058Y0032578D01*
X0597201Y0032693D01*
X0597347Y0032804D01*
X0597496Y0032911D01*
X0597647Y0033015D01*
X0597801Y0033115D01*
X0597957Y0033212D01*
X0598116Y0033304D01*
X0598276Y0033392D01*
X0598439Y0033477D01*
X0598604Y0033557D01*
X0598771Y0033634D01*
X0598939Y0033706D01*
X0599110Y0033774D01*
X0599282Y0033838D01*
X0599455Y0033898D01*
X0599630Y0033953D01*
X0599806Y0034004D01*
X0599984Y0034051D01*
X0600162Y0034093D01*
X0600342Y0034131D01*
X0600522Y0034165D01*
X0600703Y0034194D01*
X0600885Y0034219D01*
X0601067Y0034239D01*
X0601250Y0034255D01*
X0601433Y0034266D01*
X0601617Y0034273D01*
X0601800Y0034275D01*
X0601983Y0034273D01*
X0602167Y0034266D01*
X0602350Y0034255D01*
X0602533Y0034239D01*
X0602715Y0034219D01*
X0602897Y0034194D01*
X0603078Y0034165D01*
X0603258Y0034131D01*
X0603438Y0034093D01*
X0603616Y0034051D01*
X0603794Y0034004D01*
X0603970Y0033953D01*
X0604145Y0033898D01*
X0604318Y0033838D01*
X0604490Y0033774D01*
X0604661Y0033706D01*
X0604829Y0033634D01*
X0604996Y0033557D01*
X0605161Y0033477D01*
X0605324Y0033392D01*
X0605484Y0033304D01*
X0605643Y0033212D01*
X0605799Y0033115D01*
X0605953Y0033015D01*
X0606104Y0032911D01*
X0606253Y0032804D01*
X0606399Y0032693D01*
X0606542Y0032578D01*
X0606682Y0032460D01*
X0606820Y0032339D01*
X0606954Y0032214D01*
X0607086Y0032086D01*
X0607214Y0031954D01*
X0607339Y0031820D01*
X0607460Y0031682D01*
X0607578Y0031542D01*
X0607693Y0031399D01*
X0607804Y0031253D01*
X0607911Y0031104D01*
X0608015Y0030953D01*
X0608115Y0030799D01*
X0608212Y0030643D01*
X0608304Y0030484D01*
X0608392Y0030324D01*
X0608477Y0030161D01*
X0608557Y0029996D01*
X0608634Y0029829D01*
X0608706Y0029661D01*
X0608774Y0029490D01*
X0608838Y0029318D01*
X0608898Y0029145D01*
X0608953Y0028970D01*
X0609004Y0028794D01*
X0609051Y0028616D01*
X0609093Y0028438D01*
X0609131Y0028258D01*
X0609165Y0028078D01*
X0609194Y0027897D01*
X0609219Y0027715D01*
X0609239Y0027533D01*
X0609255Y0027350D01*
X0609266Y0027167D01*
X0609273Y0026983D01*
X0609275Y0026800D01*
X0609273Y0026617D01*
X0609266Y0026433D01*
X0609255Y0026250D01*
X0609239Y0026067D01*
X0609219Y0025885D01*
X0609194Y0025703D01*
X0609165Y0025522D01*
X0609131Y0025342D01*
X0609093Y0025162D01*
X0609051Y0024984D01*
X0609004Y0024806D01*
X0608953Y0024630D01*
X0608898Y0024455D01*
X0608838Y0024282D01*
X0608774Y0024110D01*
X0608706Y0023939D01*
X0608634Y0023771D01*
X0608557Y0023604D01*
X0608477Y0023439D01*
X0608392Y0023276D01*
X0608304Y0023116D01*
X0608212Y0022957D01*
X0608115Y0022801D01*
X0608015Y0022647D01*
X0607911Y0022496D01*
X0607804Y0022347D01*
X0607693Y0022201D01*
X0607578Y0022058D01*
X0607460Y0021918D01*
X0607339Y0021780D01*
X0607214Y0021646D01*
X0607086Y0021514D01*
X0606954Y0021386D01*
X0606820Y0021261D01*
X0606682Y0021140D01*
X0606542Y0021022D01*
X0606399Y0020907D01*
X0606253Y0020796D01*
X0606104Y0020689D01*
X0605953Y0020585D01*
X0605799Y0020485D01*
X0605643Y0020388D01*
X0605484Y0020296D01*
X0605324Y0020208D01*
X0605161Y0020123D01*
X0604996Y0020043D01*
X0604829Y0019966D01*
X0604661Y0019894D01*
X0604490Y0019826D01*
X0604318Y0019762D01*
X0604145Y0019702D01*
X0603970Y0019647D01*
X0603794Y0019596D01*
X0603616Y0019549D01*
X0603438Y0019507D01*
X0603258Y0019469D01*
X0603078Y0019435D01*
X0602897Y0019406D01*
X0602715Y0019381D01*
X0602533Y0019361D01*
X0602350Y0019345D01*
X0602167Y0019334D01*
X0601983Y0019327D01*
X0601800Y0019325D01*
X0601617Y0019327D01*
X0601433Y0019334D01*
X0601250Y0019345D01*
X0601067Y0019361D01*
X0600885Y0019381D01*
X0600703Y0019406D01*
X0600522Y0019435D01*
X0600342Y0019469D01*
X0600162Y0019507D01*
X0599984Y0019549D01*
X0599806Y0019596D01*
X0599630Y0019647D01*
X0599455Y0019702D01*
X0599282Y0019762D01*
X0599110Y0019826D01*
X0598939Y0019894D01*
X0598771Y0019966D01*
X0598604Y0020043D01*
X0598439Y0020123D01*
X0598276Y0020208D01*
X0598116Y0020296D01*
X0597957Y0020388D01*
X0597801Y0020485D01*
X0597647Y0020585D01*
X0597496Y0020689D01*
X0597347Y0020796D01*
X0597201Y0020907D01*
X0597058Y0021022D01*
X0596918Y0021140D01*
X0596780Y0021261D01*
X0596646Y0021386D01*
X0596514Y0021514D01*
X0596386Y0021646D01*
X0596261Y0021780D01*
X0596140Y0021918D01*
X0596022Y0022058D01*
X0595907Y0022201D01*
X0595796Y0022347D01*
X0595689Y0022496D01*
X0595585Y0022647D01*
X0595485Y0022801D01*
X0595388Y0022957D01*
X0595296Y0023116D01*
X0595208Y0023276D01*
X0595123Y0023439D01*
X0595043Y0023604D01*
X0594966Y0023771D01*
X0594894Y0023939D01*
X0594826Y0024110D01*
X0594762Y0024282D01*
X0594702Y0024455D01*
X0594647Y0024630D01*
X0594596Y0024806D01*
X0594549Y0024984D01*
X0594507Y0025162D01*
X0594469Y0025342D01*
X0594435Y0025522D01*
X0594406Y0025703D01*
X0594381Y0025885D01*
X0594361Y0026067D01*
X0594345Y0026250D01*
X0594334Y0026433D01*
X0594327Y0026617D01*
X0594325Y0026800D01*
X0594325Y0651800D02*
X0594327Y0651983D01*
X0594334Y0652167D01*
X0594345Y0652350D01*
X0594361Y0652533D01*
X0594381Y0652715D01*
X0594406Y0652897D01*
X0594435Y0653078D01*
X0594469Y0653258D01*
X0594507Y0653438D01*
X0594549Y0653616D01*
X0594596Y0653794D01*
X0594647Y0653970D01*
X0594702Y0654145D01*
X0594762Y0654318D01*
X0594826Y0654490D01*
X0594894Y0654661D01*
X0594966Y0654829D01*
X0595043Y0654996D01*
X0595123Y0655161D01*
X0595208Y0655324D01*
X0595296Y0655484D01*
X0595388Y0655643D01*
X0595485Y0655799D01*
X0595585Y0655953D01*
X0595689Y0656104D01*
X0595796Y0656253D01*
X0595907Y0656399D01*
X0596022Y0656542D01*
X0596140Y0656682D01*
X0596261Y0656820D01*
X0596386Y0656954D01*
X0596514Y0657086D01*
X0596646Y0657214D01*
X0596780Y0657339D01*
X0596918Y0657460D01*
X0597058Y0657578D01*
X0597201Y0657693D01*
X0597347Y0657804D01*
X0597496Y0657911D01*
X0597647Y0658015D01*
X0597801Y0658115D01*
X0597957Y0658212D01*
X0598116Y0658304D01*
X0598276Y0658392D01*
X0598439Y0658477D01*
X0598604Y0658557D01*
X0598771Y0658634D01*
X0598939Y0658706D01*
X0599110Y0658774D01*
X0599282Y0658838D01*
X0599455Y0658898D01*
X0599630Y0658953D01*
X0599806Y0659004D01*
X0599984Y0659051D01*
X0600162Y0659093D01*
X0600342Y0659131D01*
X0600522Y0659165D01*
X0600703Y0659194D01*
X0600885Y0659219D01*
X0601067Y0659239D01*
X0601250Y0659255D01*
X0601433Y0659266D01*
X0601617Y0659273D01*
X0601800Y0659275D01*
X0601983Y0659273D01*
X0602167Y0659266D01*
X0602350Y0659255D01*
X0602533Y0659239D01*
X0602715Y0659219D01*
X0602897Y0659194D01*
X0603078Y0659165D01*
X0603258Y0659131D01*
X0603438Y0659093D01*
X0603616Y0659051D01*
X0603794Y0659004D01*
X0603970Y0658953D01*
X0604145Y0658898D01*
X0604318Y0658838D01*
X0604490Y0658774D01*
X0604661Y0658706D01*
X0604829Y0658634D01*
X0604996Y0658557D01*
X0605161Y0658477D01*
X0605324Y0658392D01*
X0605484Y0658304D01*
X0605643Y0658212D01*
X0605799Y0658115D01*
X0605953Y0658015D01*
X0606104Y0657911D01*
X0606253Y0657804D01*
X0606399Y0657693D01*
X0606542Y0657578D01*
X0606682Y0657460D01*
X0606820Y0657339D01*
X0606954Y0657214D01*
X0607086Y0657086D01*
X0607214Y0656954D01*
X0607339Y0656820D01*
X0607460Y0656682D01*
X0607578Y0656542D01*
X0607693Y0656399D01*
X0607804Y0656253D01*
X0607911Y0656104D01*
X0608015Y0655953D01*
X0608115Y0655799D01*
X0608212Y0655643D01*
X0608304Y0655484D01*
X0608392Y0655324D01*
X0608477Y0655161D01*
X0608557Y0654996D01*
X0608634Y0654829D01*
X0608706Y0654661D01*
X0608774Y0654490D01*
X0608838Y0654318D01*
X0608898Y0654145D01*
X0608953Y0653970D01*
X0609004Y0653794D01*
X0609051Y0653616D01*
X0609093Y0653438D01*
X0609131Y0653258D01*
X0609165Y0653078D01*
X0609194Y0652897D01*
X0609219Y0652715D01*
X0609239Y0652533D01*
X0609255Y0652350D01*
X0609266Y0652167D01*
X0609273Y0651983D01*
X0609275Y0651800D01*
X0609273Y0651617D01*
X0609266Y0651433D01*
X0609255Y0651250D01*
X0609239Y0651067D01*
X0609219Y0650885D01*
X0609194Y0650703D01*
X0609165Y0650522D01*
X0609131Y0650342D01*
X0609093Y0650162D01*
X0609051Y0649984D01*
X0609004Y0649806D01*
X0608953Y0649630D01*
X0608898Y0649455D01*
X0608838Y0649282D01*
X0608774Y0649110D01*
X0608706Y0648939D01*
X0608634Y0648771D01*
X0608557Y0648604D01*
X0608477Y0648439D01*
X0608392Y0648276D01*
X0608304Y0648116D01*
X0608212Y0647957D01*
X0608115Y0647801D01*
X0608015Y0647647D01*
X0607911Y0647496D01*
X0607804Y0647347D01*
X0607693Y0647201D01*
X0607578Y0647058D01*
X0607460Y0646918D01*
X0607339Y0646780D01*
X0607214Y0646646D01*
X0607086Y0646514D01*
X0606954Y0646386D01*
X0606820Y0646261D01*
X0606682Y0646140D01*
X0606542Y0646022D01*
X0606399Y0645907D01*
X0606253Y0645796D01*
X0606104Y0645689D01*
X0605953Y0645585D01*
X0605799Y0645485D01*
X0605643Y0645388D01*
X0605484Y0645296D01*
X0605324Y0645208D01*
X0605161Y0645123D01*
X0604996Y0645043D01*
X0604829Y0644966D01*
X0604661Y0644894D01*
X0604490Y0644826D01*
X0604318Y0644762D01*
X0604145Y0644702D01*
X0603970Y0644647D01*
X0603794Y0644596D01*
X0603616Y0644549D01*
X0603438Y0644507D01*
X0603258Y0644469D01*
X0603078Y0644435D01*
X0602897Y0644406D01*
X0602715Y0644381D01*
X0602533Y0644361D01*
X0602350Y0644345D01*
X0602167Y0644334D01*
X0601983Y0644327D01*
X0601800Y0644325D01*
X0601617Y0644327D01*
X0601433Y0644334D01*
X0601250Y0644345D01*
X0601067Y0644361D01*
X0600885Y0644381D01*
X0600703Y0644406D01*
X0600522Y0644435D01*
X0600342Y0644469D01*
X0600162Y0644507D01*
X0599984Y0644549D01*
X0599806Y0644596D01*
X0599630Y0644647D01*
X0599455Y0644702D01*
X0599282Y0644762D01*
X0599110Y0644826D01*
X0598939Y0644894D01*
X0598771Y0644966D01*
X0598604Y0645043D01*
X0598439Y0645123D01*
X0598276Y0645208D01*
X0598116Y0645296D01*
X0597957Y0645388D01*
X0597801Y0645485D01*
X0597647Y0645585D01*
X0597496Y0645689D01*
X0597347Y0645796D01*
X0597201Y0645907D01*
X0597058Y0646022D01*
X0596918Y0646140D01*
X0596780Y0646261D01*
X0596646Y0646386D01*
X0596514Y0646514D01*
X0596386Y0646646D01*
X0596261Y0646780D01*
X0596140Y0646918D01*
X0596022Y0647058D01*
X0595907Y0647201D01*
X0595796Y0647347D01*
X0595689Y0647496D01*
X0595585Y0647647D01*
X0595485Y0647801D01*
X0595388Y0647957D01*
X0595296Y0648116D01*
X0595208Y0648276D01*
X0595123Y0648439D01*
X0595043Y0648604D01*
X0594966Y0648771D01*
X0594894Y0648939D01*
X0594826Y0649110D01*
X0594762Y0649282D01*
X0594702Y0649455D01*
X0594647Y0649630D01*
X0594596Y0649806D01*
X0594549Y0649984D01*
X0594507Y0650162D01*
X0594469Y0650342D01*
X0594435Y0650522D01*
X0594406Y0650703D01*
X0594381Y0650885D01*
X0594361Y0651067D01*
X0594345Y0651250D01*
X0594334Y0651433D01*
X0594327Y0651617D01*
X0594325Y0651800D01*
X0019325Y0651800D02*
X0019327Y0651983D01*
X0019334Y0652167D01*
X0019345Y0652350D01*
X0019361Y0652533D01*
X0019381Y0652715D01*
X0019406Y0652897D01*
X0019435Y0653078D01*
X0019469Y0653258D01*
X0019507Y0653438D01*
X0019549Y0653616D01*
X0019596Y0653794D01*
X0019647Y0653970D01*
X0019702Y0654145D01*
X0019762Y0654318D01*
X0019826Y0654490D01*
X0019894Y0654661D01*
X0019966Y0654829D01*
X0020043Y0654996D01*
X0020123Y0655161D01*
X0020208Y0655324D01*
X0020296Y0655484D01*
X0020388Y0655643D01*
X0020485Y0655799D01*
X0020585Y0655953D01*
X0020689Y0656104D01*
X0020796Y0656253D01*
X0020907Y0656399D01*
X0021022Y0656542D01*
X0021140Y0656682D01*
X0021261Y0656820D01*
X0021386Y0656954D01*
X0021514Y0657086D01*
X0021646Y0657214D01*
X0021780Y0657339D01*
X0021918Y0657460D01*
X0022058Y0657578D01*
X0022201Y0657693D01*
X0022347Y0657804D01*
X0022496Y0657911D01*
X0022647Y0658015D01*
X0022801Y0658115D01*
X0022957Y0658212D01*
X0023116Y0658304D01*
X0023276Y0658392D01*
X0023439Y0658477D01*
X0023604Y0658557D01*
X0023771Y0658634D01*
X0023939Y0658706D01*
X0024110Y0658774D01*
X0024282Y0658838D01*
X0024455Y0658898D01*
X0024630Y0658953D01*
X0024806Y0659004D01*
X0024984Y0659051D01*
X0025162Y0659093D01*
X0025342Y0659131D01*
X0025522Y0659165D01*
X0025703Y0659194D01*
X0025885Y0659219D01*
X0026067Y0659239D01*
X0026250Y0659255D01*
X0026433Y0659266D01*
X0026617Y0659273D01*
X0026800Y0659275D01*
X0026983Y0659273D01*
X0027167Y0659266D01*
X0027350Y0659255D01*
X0027533Y0659239D01*
X0027715Y0659219D01*
X0027897Y0659194D01*
X0028078Y0659165D01*
X0028258Y0659131D01*
X0028438Y0659093D01*
X0028616Y0659051D01*
X0028794Y0659004D01*
X0028970Y0658953D01*
X0029145Y0658898D01*
X0029318Y0658838D01*
X0029490Y0658774D01*
X0029661Y0658706D01*
X0029829Y0658634D01*
X0029996Y0658557D01*
X0030161Y0658477D01*
X0030324Y0658392D01*
X0030484Y0658304D01*
X0030643Y0658212D01*
X0030799Y0658115D01*
X0030953Y0658015D01*
X0031104Y0657911D01*
X0031253Y0657804D01*
X0031399Y0657693D01*
X0031542Y0657578D01*
X0031682Y0657460D01*
X0031820Y0657339D01*
X0031954Y0657214D01*
X0032086Y0657086D01*
X0032214Y0656954D01*
X0032339Y0656820D01*
X0032460Y0656682D01*
X0032578Y0656542D01*
X0032693Y0656399D01*
X0032804Y0656253D01*
X0032911Y0656104D01*
X0033015Y0655953D01*
X0033115Y0655799D01*
X0033212Y0655643D01*
X0033304Y0655484D01*
X0033392Y0655324D01*
X0033477Y0655161D01*
X0033557Y0654996D01*
X0033634Y0654829D01*
X0033706Y0654661D01*
X0033774Y0654490D01*
X0033838Y0654318D01*
X0033898Y0654145D01*
X0033953Y0653970D01*
X0034004Y0653794D01*
X0034051Y0653616D01*
X0034093Y0653438D01*
X0034131Y0653258D01*
X0034165Y0653078D01*
X0034194Y0652897D01*
X0034219Y0652715D01*
X0034239Y0652533D01*
X0034255Y0652350D01*
X0034266Y0652167D01*
X0034273Y0651983D01*
X0034275Y0651800D01*
X0034273Y0651617D01*
X0034266Y0651433D01*
X0034255Y0651250D01*
X0034239Y0651067D01*
X0034219Y0650885D01*
X0034194Y0650703D01*
X0034165Y0650522D01*
X0034131Y0650342D01*
X0034093Y0650162D01*
X0034051Y0649984D01*
X0034004Y0649806D01*
X0033953Y0649630D01*
X0033898Y0649455D01*
X0033838Y0649282D01*
X0033774Y0649110D01*
X0033706Y0648939D01*
X0033634Y0648771D01*
X0033557Y0648604D01*
X0033477Y0648439D01*
X0033392Y0648276D01*
X0033304Y0648116D01*
X0033212Y0647957D01*
X0033115Y0647801D01*
X0033015Y0647647D01*
X0032911Y0647496D01*
X0032804Y0647347D01*
X0032693Y0647201D01*
X0032578Y0647058D01*
X0032460Y0646918D01*
X0032339Y0646780D01*
X0032214Y0646646D01*
X0032086Y0646514D01*
X0031954Y0646386D01*
X0031820Y0646261D01*
X0031682Y0646140D01*
X0031542Y0646022D01*
X0031399Y0645907D01*
X0031253Y0645796D01*
X0031104Y0645689D01*
X0030953Y0645585D01*
X0030799Y0645485D01*
X0030643Y0645388D01*
X0030484Y0645296D01*
X0030324Y0645208D01*
X0030161Y0645123D01*
X0029996Y0645043D01*
X0029829Y0644966D01*
X0029661Y0644894D01*
X0029490Y0644826D01*
X0029318Y0644762D01*
X0029145Y0644702D01*
X0028970Y0644647D01*
X0028794Y0644596D01*
X0028616Y0644549D01*
X0028438Y0644507D01*
X0028258Y0644469D01*
X0028078Y0644435D01*
X0027897Y0644406D01*
X0027715Y0644381D01*
X0027533Y0644361D01*
X0027350Y0644345D01*
X0027167Y0644334D01*
X0026983Y0644327D01*
X0026800Y0644325D01*
X0026617Y0644327D01*
X0026433Y0644334D01*
X0026250Y0644345D01*
X0026067Y0644361D01*
X0025885Y0644381D01*
X0025703Y0644406D01*
X0025522Y0644435D01*
X0025342Y0644469D01*
X0025162Y0644507D01*
X0024984Y0644549D01*
X0024806Y0644596D01*
X0024630Y0644647D01*
X0024455Y0644702D01*
X0024282Y0644762D01*
X0024110Y0644826D01*
X0023939Y0644894D01*
X0023771Y0644966D01*
X0023604Y0645043D01*
X0023439Y0645123D01*
X0023276Y0645208D01*
X0023116Y0645296D01*
X0022957Y0645388D01*
X0022801Y0645485D01*
X0022647Y0645585D01*
X0022496Y0645689D01*
X0022347Y0645796D01*
X0022201Y0645907D01*
X0022058Y0646022D01*
X0021918Y0646140D01*
X0021780Y0646261D01*
X0021646Y0646386D01*
X0021514Y0646514D01*
X0021386Y0646646D01*
X0021261Y0646780D01*
X0021140Y0646918D01*
X0021022Y0647058D01*
X0020907Y0647201D01*
X0020796Y0647347D01*
X0020689Y0647496D01*
X0020585Y0647647D01*
X0020485Y0647801D01*
X0020388Y0647957D01*
X0020296Y0648116D01*
X0020208Y0648276D01*
X0020123Y0648439D01*
X0020043Y0648604D01*
X0019966Y0648771D01*
X0019894Y0648939D01*
X0019826Y0649110D01*
X0019762Y0649282D01*
X0019702Y0649455D01*
X0019647Y0649630D01*
X0019596Y0649806D01*
X0019549Y0649984D01*
X0019507Y0650162D01*
X0019469Y0650342D01*
X0019435Y0650522D01*
X0019406Y0650703D01*
X0019381Y0650885D01*
X0019361Y0651067D01*
X0019345Y0651250D01*
X0019334Y0651433D01*
X0019327Y0651617D01*
X0019325Y0651800D01*
D11*
X0194800Y0612800D03*
X0194800Y0532800D03*
X0314800Y0522800D03*
X0314800Y0622800D03*
X0312800Y0386800D03*
X0312800Y0336800D03*
X0312800Y0286800D03*
X0192800Y0296800D03*
X0192800Y0376800D03*
X0311800Y0141800D03*
X0311800Y0041800D03*
X0191800Y0051800D03*
X0191800Y0131800D03*
D12*
X0555875Y0491800D02*
X0567725Y0491800D01*
X0603800Y0468725D02*
X0603800Y0456875D01*
X0604800Y0231725D02*
X0604800Y0219875D01*
X0596800Y0064725D02*
X0596800Y0052875D01*
D13*
X0459800Y0041800D03*
X0433800Y0041800D03*
X0406800Y0041800D03*
X0406800Y0081800D03*
X0433800Y0081800D03*
X0459800Y0081800D03*
X0431800Y0134800D03*
X0431800Y0194800D03*
X0419800Y0282800D03*
X0445800Y0282800D03*
X0471800Y0282800D03*
X0471800Y0322800D03*
X0471800Y0347800D03*
X0445800Y0322800D03*
X0419800Y0322800D03*
X0411800Y0347800D03*
X0417800Y0426800D03*
X0441800Y0426800D03*
X0465800Y0426800D03*
X0465800Y0466800D03*
X0441800Y0466800D03*
X0417800Y0466800D03*
X0401800Y0517800D03*
X0422800Y0521800D03*
X0445800Y0521800D03*
X0466800Y0521800D03*
X0466800Y0561800D03*
X0445800Y0561800D03*
X0422800Y0561800D03*
X0401800Y0577800D03*
D14*
X0429800Y0596300D02*
X0429800Y0602300D01*
X0439800Y0626300D02*
X0439800Y0632300D01*
X0429800Y0646300D02*
X0429800Y0652300D01*
X0337300Y0457800D02*
X0331300Y0457800D01*
X0317300Y0447800D02*
X0311300Y0447800D01*
X0361300Y0447800D02*
X0367300Y0447800D01*
X0398300Y0224800D02*
X0404300Y0224800D01*
X0384300Y0214800D02*
X0378300Y0214800D01*
X0428300Y0214800D02*
X0434300Y0214800D01*
D15*
X0518800Y0149800D03*
X0529800Y0214800D03*
X0529800Y0322800D03*
X0530800Y0358800D03*
X0530800Y0466800D03*
X0528800Y0521800D03*
X0528800Y0629800D03*
X0518800Y0041800D03*
D16*
X0596800Y0109800D03*
X0596800Y0149800D03*
X0604800Y0282800D03*
X0604800Y0322800D03*
X0603800Y0358800D03*
X0603800Y0398800D03*
X0526800Y0491800D03*
X0486800Y0491800D03*
D17*
X0082820Y0424186D02*
X0072780Y0424186D01*
X0072780Y0408595D02*
X0082820Y0408595D01*
X0082820Y0393005D02*
X0072780Y0393005D01*
X0072780Y0377414D02*
X0082820Y0377414D01*
X0039820Y0324186D02*
X0029780Y0324186D01*
X0029780Y0308595D02*
X0039820Y0308595D01*
X0039820Y0293005D02*
X0029780Y0293005D01*
X0029780Y0277414D02*
X0039820Y0277414D01*
D18*
X0170186Y0424186D02*
X0232391Y0486391D01*
X0322800Y0577800D01*
X0364300Y0447800D02*
X0364095Y0408595D01*
X0363800Y0380800D02*
X0396800Y0347800D01*
X0363800Y0380800D02*
X0363800Y0447300D01*
X0283595Y0393005D02*
X0431300Y0245300D01*
D19*
X0431300Y0245300D03*
X0396800Y0347800D03*
X0364095Y0408595D03*
X0363800Y0447300D03*
X0283595Y0393005D03*
X0170186Y0424186D03*
X0322800Y0577800D03*
M02*
