G75*
%MOIN*%
%OFA0B0*%
%FSLAX25Y25*%
%IPPOS*%
%LPD*%
%AMOC8*
5,1,8,0,0,1.08239X$1,22.5*
%
%ADD10C,0.00800*%
%ADD11C,0.01200*%
%ADD12C,0.00600*%
%ADD13C,0.00400*%
%ADD14R,0.02000X0.08000*%
%ADD15R,0.07500X0.02000*%
%ADD16R,0.02400X0.03400*%
%ADD17C,0.00500*%
%ADD18R,0.14000X0.02000*%
%ADD19R,0.04200X0.05400*%
%ADD20C,0.01000*%
%ADD21R,0.03400X0.02400*%
%ADD22C,0.01600*%
%ADD23C,0.00200*%
%ADD24R,0.07500X0.03500*%
%ADD25R,0.05500X0.03000*%
%ADD26C,0.02400*%
%ADD27R,0.05000X0.06000*%
%ADD28R,0.03000X0.42000*%
%ADD29R,0.02000X0.07500*%
%ADD30R,0.02000X0.03000*%
D10*
X0037669Y0059202D02*
X0046331Y0059202D01*
X0054598Y0067469D02*
X0054598Y0076131D01*
X0046331Y0084398D02*
X0037669Y0084398D01*
X0029402Y0076131D02*
X0029402Y0067469D01*
X0035307Y0071800D02*
X0035309Y0071964D01*
X0035315Y0072128D01*
X0035325Y0072292D01*
X0035339Y0072456D01*
X0035357Y0072619D01*
X0035379Y0072782D01*
X0035406Y0072944D01*
X0035436Y0073106D01*
X0035470Y0073266D01*
X0035508Y0073426D01*
X0035549Y0073585D01*
X0035595Y0073743D01*
X0035645Y0073899D01*
X0035698Y0074055D01*
X0035755Y0074209D01*
X0035816Y0074361D01*
X0035881Y0074512D01*
X0035950Y0074662D01*
X0036022Y0074809D01*
X0036097Y0074955D01*
X0036177Y0075099D01*
X0036259Y0075241D01*
X0036345Y0075381D01*
X0036435Y0075518D01*
X0036528Y0075654D01*
X0036624Y0075787D01*
X0036724Y0075918D01*
X0036826Y0076046D01*
X0036932Y0076172D01*
X0037041Y0076295D01*
X0037153Y0076415D01*
X0037267Y0076533D01*
X0037385Y0076647D01*
X0037505Y0076759D01*
X0037628Y0076868D01*
X0037754Y0076974D01*
X0037882Y0077076D01*
X0038013Y0077176D01*
X0038146Y0077272D01*
X0038282Y0077365D01*
X0038419Y0077455D01*
X0038559Y0077541D01*
X0038701Y0077623D01*
X0038845Y0077703D01*
X0038991Y0077778D01*
X0039138Y0077850D01*
X0039288Y0077919D01*
X0039439Y0077984D01*
X0039591Y0078045D01*
X0039745Y0078102D01*
X0039901Y0078155D01*
X0040057Y0078205D01*
X0040215Y0078251D01*
X0040374Y0078292D01*
X0040534Y0078330D01*
X0040694Y0078364D01*
X0040856Y0078394D01*
X0041018Y0078421D01*
X0041181Y0078443D01*
X0041344Y0078461D01*
X0041508Y0078475D01*
X0041672Y0078485D01*
X0041836Y0078491D01*
X0042000Y0078493D01*
X0042164Y0078491D01*
X0042328Y0078485D01*
X0042492Y0078475D01*
X0042656Y0078461D01*
X0042819Y0078443D01*
X0042982Y0078421D01*
X0043144Y0078394D01*
X0043306Y0078364D01*
X0043466Y0078330D01*
X0043626Y0078292D01*
X0043785Y0078251D01*
X0043943Y0078205D01*
X0044099Y0078155D01*
X0044255Y0078102D01*
X0044409Y0078045D01*
X0044561Y0077984D01*
X0044712Y0077919D01*
X0044862Y0077850D01*
X0045009Y0077778D01*
X0045155Y0077703D01*
X0045299Y0077623D01*
X0045441Y0077541D01*
X0045581Y0077455D01*
X0045718Y0077365D01*
X0045854Y0077272D01*
X0045987Y0077176D01*
X0046118Y0077076D01*
X0046246Y0076974D01*
X0046372Y0076868D01*
X0046495Y0076759D01*
X0046615Y0076647D01*
X0046733Y0076533D01*
X0046847Y0076415D01*
X0046959Y0076295D01*
X0047068Y0076172D01*
X0047174Y0076046D01*
X0047276Y0075918D01*
X0047376Y0075787D01*
X0047472Y0075654D01*
X0047565Y0075518D01*
X0047655Y0075381D01*
X0047741Y0075241D01*
X0047823Y0075099D01*
X0047903Y0074955D01*
X0047978Y0074809D01*
X0048050Y0074662D01*
X0048119Y0074512D01*
X0048184Y0074361D01*
X0048245Y0074209D01*
X0048302Y0074055D01*
X0048355Y0073899D01*
X0048405Y0073743D01*
X0048451Y0073585D01*
X0048492Y0073426D01*
X0048530Y0073266D01*
X0048564Y0073106D01*
X0048594Y0072944D01*
X0048621Y0072782D01*
X0048643Y0072619D01*
X0048661Y0072456D01*
X0048675Y0072292D01*
X0048685Y0072128D01*
X0048691Y0071964D01*
X0048693Y0071800D01*
X0048691Y0071636D01*
X0048685Y0071472D01*
X0048675Y0071308D01*
X0048661Y0071144D01*
X0048643Y0070981D01*
X0048621Y0070818D01*
X0048594Y0070656D01*
X0048564Y0070494D01*
X0048530Y0070334D01*
X0048492Y0070174D01*
X0048451Y0070015D01*
X0048405Y0069857D01*
X0048355Y0069701D01*
X0048302Y0069545D01*
X0048245Y0069391D01*
X0048184Y0069239D01*
X0048119Y0069088D01*
X0048050Y0068938D01*
X0047978Y0068791D01*
X0047903Y0068645D01*
X0047823Y0068501D01*
X0047741Y0068359D01*
X0047655Y0068219D01*
X0047565Y0068082D01*
X0047472Y0067946D01*
X0047376Y0067813D01*
X0047276Y0067682D01*
X0047174Y0067554D01*
X0047068Y0067428D01*
X0046959Y0067305D01*
X0046847Y0067185D01*
X0046733Y0067067D01*
X0046615Y0066953D01*
X0046495Y0066841D01*
X0046372Y0066732D01*
X0046246Y0066626D01*
X0046118Y0066524D01*
X0045987Y0066424D01*
X0045854Y0066328D01*
X0045718Y0066235D01*
X0045581Y0066145D01*
X0045441Y0066059D01*
X0045299Y0065977D01*
X0045155Y0065897D01*
X0045009Y0065822D01*
X0044862Y0065750D01*
X0044712Y0065681D01*
X0044561Y0065616D01*
X0044409Y0065555D01*
X0044255Y0065498D01*
X0044099Y0065445D01*
X0043943Y0065395D01*
X0043785Y0065349D01*
X0043626Y0065308D01*
X0043466Y0065270D01*
X0043306Y0065236D01*
X0043144Y0065206D01*
X0042982Y0065179D01*
X0042819Y0065157D01*
X0042656Y0065139D01*
X0042492Y0065125D01*
X0042328Y0065115D01*
X0042164Y0065109D01*
X0042000Y0065107D01*
X0041836Y0065109D01*
X0041672Y0065115D01*
X0041508Y0065125D01*
X0041344Y0065139D01*
X0041181Y0065157D01*
X0041018Y0065179D01*
X0040856Y0065206D01*
X0040694Y0065236D01*
X0040534Y0065270D01*
X0040374Y0065308D01*
X0040215Y0065349D01*
X0040057Y0065395D01*
X0039901Y0065445D01*
X0039745Y0065498D01*
X0039591Y0065555D01*
X0039439Y0065616D01*
X0039288Y0065681D01*
X0039138Y0065750D01*
X0038991Y0065822D01*
X0038845Y0065897D01*
X0038701Y0065977D01*
X0038559Y0066059D01*
X0038419Y0066145D01*
X0038282Y0066235D01*
X0038146Y0066328D01*
X0038013Y0066424D01*
X0037882Y0066524D01*
X0037754Y0066626D01*
X0037628Y0066732D01*
X0037505Y0066841D01*
X0037385Y0066953D01*
X0037267Y0067067D01*
X0037153Y0067185D01*
X0037041Y0067305D01*
X0036932Y0067428D01*
X0036826Y0067554D01*
X0036724Y0067682D01*
X0036624Y0067813D01*
X0036528Y0067946D01*
X0036435Y0068082D01*
X0036345Y0068219D01*
X0036259Y0068359D01*
X0036177Y0068501D01*
X0036097Y0068645D01*
X0036022Y0068791D01*
X0035950Y0068938D01*
X0035881Y0069088D01*
X0035816Y0069239D01*
X0035755Y0069391D01*
X0035698Y0069545D01*
X0035645Y0069701D01*
X0035595Y0069857D01*
X0035549Y0070015D01*
X0035508Y0070174D01*
X0035470Y0070334D01*
X0035436Y0070494D01*
X0035406Y0070656D01*
X0035379Y0070818D01*
X0035357Y0070981D01*
X0035339Y0071144D01*
X0035325Y0071308D01*
X0035315Y0071472D01*
X0035309Y0071636D01*
X0035307Y0071800D01*
X0428512Y0279898D02*
X0466996Y0279898D01*
X0466996Y0309800D01*
X0428512Y0309800D01*
X0428512Y0302713D01*
X0438059Y0302713D01*
X0438059Y0286985D01*
X0428512Y0286985D01*
X0428512Y0279898D01*
X0428512Y0286985D02*
X0428512Y0302713D01*
X0522803Y0373804D02*
X0568295Y0373804D01*
X0568295Y0412288D01*
X0561209Y0412288D01*
X0561209Y0402741D01*
X0529890Y0402741D01*
X0529890Y0412288D01*
X0522803Y0412288D01*
X0522803Y0373804D01*
X0529890Y0412288D02*
X0561209Y0412288D01*
X0563795Y0449304D02*
X0518303Y0449304D01*
X0518303Y0487788D01*
X0525390Y0487788D01*
X0525390Y0478241D01*
X0556709Y0478241D01*
X0556709Y0487788D01*
X0525390Y0487788D01*
X0556709Y0487788D02*
X0563795Y0487788D01*
X0563795Y0449304D01*
X0655903Y0444004D02*
X0701395Y0444004D01*
X0701395Y0482488D01*
X0694309Y0482488D01*
X0694309Y0472941D01*
X0662990Y0472941D01*
X0662990Y0482488D01*
X0655903Y0482488D01*
X0655903Y0444004D01*
X0662990Y0482488D02*
X0694309Y0482488D01*
X0731469Y0311298D02*
X0740131Y0311298D01*
X0748398Y0303031D02*
X0748398Y0294369D01*
X0740131Y0286102D02*
X0731469Y0286102D01*
X0723202Y0294369D02*
X0723202Y0303031D01*
X0729107Y0298700D02*
X0729109Y0298864D01*
X0729115Y0299028D01*
X0729125Y0299192D01*
X0729139Y0299356D01*
X0729157Y0299519D01*
X0729179Y0299682D01*
X0729206Y0299844D01*
X0729236Y0300006D01*
X0729270Y0300166D01*
X0729308Y0300326D01*
X0729349Y0300485D01*
X0729395Y0300643D01*
X0729445Y0300799D01*
X0729498Y0300955D01*
X0729555Y0301109D01*
X0729616Y0301261D01*
X0729681Y0301412D01*
X0729750Y0301562D01*
X0729822Y0301709D01*
X0729897Y0301855D01*
X0729977Y0301999D01*
X0730059Y0302141D01*
X0730145Y0302281D01*
X0730235Y0302418D01*
X0730328Y0302554D01*
X0730424Y0302687D01*
X0730524Y0302818D01*
X0730626Y0302946D01*
X0730732Y0303072D01*
X0730841Y0303195D01*
X0730953Y0303315D01*
X0731067Y0303433D01*
X0731185Y0303547D01*
X0731305Y0303659D01*
X0731428Y0303768D01*
X0731554Y0303874D01*
X0731682Y0303976D01*
X0731813Y0304076D01*
X0731946Y0304172D01*
X0732082Y0304265D01*
X0732219Y0304355D01*
X0732359Y0304441D01*
X0732501Y0304523D01*
X0732645Y0304603D01*
X0732791Y0304678D01*
X0732938Y0304750D01*
X0733088Y0304819D01*
X0733239Y0304884D01*
X0733391Y0304945D01*
X0733545Y0305002D01*
X0733701Y0305055D01*
X0733857Y0305105D01*
X0734015Y0305151D01*
X0734174Y0305192D01*
X0734334Y0305230D01*
X0734494Y0305264D01*
X0734656Y0305294D01*
X0734818Y0305321D01*
X0734981Y0305343D01*
X0735144Y0305361D01*
X0735308Y0305375D01*
X0735472Y0305385D01*
X0735636Y0305391D01*
X0735800Y0305393D01*
X0735964Y0305391D01*
X0736128Y0305385D01*
X0736292Y0305375D01*
X0736456Y0305361D01*
X0736619Y0305343D01*
X0736782Y0305321D01*
X0736944Y0305294D01*
X0737106Y0305264D01*
X0737266Y0305230D01*
X0737426Y0305192D01*
X0737585Y0305151D01*
X0737743Y0305105D01*
X0737899Y0305055D01*
X0738055Y0305002D01*
X0738209Y0304945D01*
X0738361Y0304884D01*
X0738512Y0304819D01*
X0738662Y0304750D01*
X0738809Y0304678D01*
X0738955Y0304603D01*
X0739099Y0304523D01*
X0739241Y0304441D01*
X0739381Y0304355D01*
X0739518Y0304265D01*
X0739654Y0304172D01*
X0739787Y0304076D01*
X0739918Y0303976D01*
X0740046Y0303874D01*
X0740172Y0303768D01*
X0740295Y0303659D01*
X0740415Y0303547D01*
X0740533Y0303433D01*
X0740647Y0303315D01*
X0740759Y0303195D01*
X0740868Y0303072D01*
X0740974Y0302946D01*
X0741076Y0302818D01*
X0741176Y0302687D01*
X0741272Y0302554D01*
X0741365Y0302418D01*
X0741455Y0302281D01*
X0741541Y0302141D01*
X0741623Y0301999D01*
X0741703Y0301855D01*
X0741778Y0301709D01*
X0741850Y0301562D01*
X0741919Y0301412D01*
X0741984Y0301261D01*
X0742045Y0301109D01*
X0742102Y0300955D01*
X0742155Y0300799D01*
X0742205Y0300643D01*
X0742251Y0300485D01*
X0742292Y0300326D01*
X0742330Y0300166D01*
X0742364Y0300006D01*
X0742394Y0299844D01*
X0742421Y0299682D01*
X0742443Y0299519D01*
X0742461Y0299356D01*
X0742475Y0299192D01*
X0742485Y0299028D01*
X0742491Y0298864D01*
X0742493Y0298700D01*
X0742491Y0298536D01*
X0742485Y0298372D01*
X0742475Y0298208D01*
X0742461Y0298044D01*
X0742443Y0297881D01*
X0742421Y0297718D01*
X0742394Y0297556D01*
X0742364Y0297394D01*
X0742330Y0297234D01*
X0742292Y0297074D01*
X0742251Y0296915D01*
X0742205Y0296757D01*
X0742155Y0296601D01*
X0742102Y0296445D01*
X0742045Y0296291D01*
X0741984Y0296139D01*
X0741919Y0295988D01*
X0741850Y0295838D01*
X0741778Y0295691D01*
X0741703Y0295545D01*
X0741623Y0295401D01*
X0741541Y0295259D01*
X0741455Y0295119D01*
X0741365Y0294982D01*
X0741272Y0294846D01*
X0741176Y0294713D01*
X0741076Y0294582D01*
X0740974Y0294454D01*
X0740868Y0294328D01*
X0740759Y0294205D01*
X0740647Y0294085D01*
X0740533Y0293967D01*
X0740415Y0293853D01*
X0740295Y0293741D01*
X0740172Y0293632D01*
X0740046Y0293526D01*
X0739918Y0293424D01*
X0739787Y0293324D01*
X0739654Y0293228D01*
X0739518Y0293135D01*
X0739381Y0293045D01*
X0739241Y0292959D01*
X0739099Y0292877D01*
X0738955Y0292797D01*
X0738809Y0292722D01*
X0738662Y0292650D01*
X0738512Y0292581D01*
X0738361Y0292516D01*
X0738209Y0292455D01*
X0738055Y0292398D01*
X0737899Y0292345D01*
X0737743Y0292295D01*
X0737585Y0292249D01*
X0737426Y0292208D01*
X0737266Y0292170D01*
X0737106Y0292136D01*
X0736944Y0292106D01*
X0736782Y0292079D01*
X0736619Y0292057D01*
X0736456Y0292039D01*
X0736292Y0292025D01*
X0736128Y0292015D01*
X0735964Y0292009D01*
X0735800Y0292007D01*
X0735636Y0292009D01*
X0735472Y0292015D01*
X0735308Y0292025D01*
X0735144Y0292039D01*
X0734981Y0292057D01*
X0734818Y0292079D01*
X0734656Y0292106D01*
X0734494Y0292136D01*
X0734334Y0292170D01*
X0734174Y0292208D01*
X0734015Y0292249D01*
X0733857Y0292295D01*
X0733701Y0292345D01*
X0733545Y0292398D01*
X0733391Y0292455D01*
X0733239Y0292516D01*
X0733088Y0292581D01*
X0732938Y0292650D01*
X0732791Y0292722D01*
X0732645Y0292797D01*
X0732501Y0292877D01*
X0732359Y0292959D01*
X0732219Y0293045D01*
X0732082Y0293135D01*
X0731946Y0293228D01*
X0731813Y0293324D01*
X0731682Y0293424D01*
X0731554Y0293526D01*
X0731428Y0293632D01*
X0731305Y0293741D01*
X0731185Y0293853D01*
X0731067Y0293967D01*
X0730953Y0294085D01*
X0730841Y0294205D01*
X0730732Y0294328D01*
X0730626Y0294454D01*
X0730524Y0294582D01*
X0730424Y0294713D01*
X0730328Y0294846D01*
X0730235Y0294982D01*
X0730145Y0295119D01*
X0730059Y0295259D01*
X0729977Y0295401D01*
X0729897Y0295545D01*
X0729822Y0295691D01*
X0729750Y0295838D01*
X0729681Y0295988D01*
X0729616Y0296139D01*
X0729555Y0296291D01*
X0729498Y0296445D01*
X0729445Y0296601D01*
X0729395Y0296757D01*
X0729349Y0296915D01*
X0729308Y0297074D01*
X0729270Y0297234D01*
X0729236Y0297394D01*
X0729206Y0297556D01*
X0729179Y0297718D01*
X0729157Y0297881D01*
X0729139Y0298044D01*
X0729125Y0298208D01*
X0729115Y0298372D01*
X0729109Y0298536D01*
X0729107Y0298700D01*
X0111996Y0373898D02*
X0111996Y0403800D01*
X0073512Y0403800D01*
X0073512Y0396713D01*
X0083059Y0396713D01*
X0083059Y0380985D01*
X0073512Y0380985D01*
X0073512Y0373898D01*
X0111996Y0373898D01*
X0073512Y0380985D02*
X0073512Y0396713D01*
X0046996Y0385800D02*
X0008512Y0385800D01*
X0008512Y0378713D01*
X0018059Y0378713D01*
X0018059Y0362985D01*
X0008512Y0362985D01*
X0008512Y0355898D01*
X0046996Y0355898D01*
X0046996Y0385800D01*
X0008512Y0378713D02*
X0008512Y0362985D01*
D11*
X0025500Y0331000D02*
X0028000Y0331000D01*
X0030500Y0331000D01*
X0030500Y0328500D02*
X0028000Y0328500D01*
X0025500Y0328500D01*
X0186800Y0257300D02*
X0186800Y0254800D01*
X0186800Y0252300D01*
X0189300Y0252300D02*
X0189300Y0254800D01*
X0189300Y0257300D01*
X0193500Y0291600D02*
X0196000Y0291600D01*
X0198500Y0291600D01*
X0198500Y0294100D02*
X0196000Y0294100D01*
X0193500Y0294100D01*
X0141500Y0194100D02*
X0139000Y0194100D01*
X0136500Y0194100D01*
X0136500Y0191600D02*
X0139000Y0191600D01*
X0141500Y0191600D01*
X0187500Y0146100D02*
X0190000Y0146100D01*
X0192500Y0146100D01*
X0192500Y0143600D02*
X0190000Y0143600D01*
X0187500Y0143600D01*
X0186800Y0083300D02*
X0186800Y0080800D01*
X0186800Y0078300D01*
X0189300Y0078300D02*
X0189300Y0080800D01*
X0189300Y0083300D01*
X0089500Y0086500D02*
X0087000Y0086500D01*
X0084500Y0086500D01*
X0084500Y0089000D02*
X0087000Y0089000D01*
X0089500Y0089000D01*
X0490700Y0248300D02*
X0490700Y0250800D01*
X0490700Y0253300D01*
X0493200Y0253300D02*
X0493200Y0250800D01*
X0493200Y0248300D01*
X0637200Y0250300D02*
X0637200Y0253300D01*
X0637200Y0256300D01*
X0639700Y0256300D02*
X0639700Y0253300D01*
X0639700Y0250300D01*
D12*
X0639700Y0253300D02*
X0643500Y0253300D01*
X0647000Y0250800D02*
X0646998Y0250713D01*
X0646992Y0250626D01*
X0646983Y0250539D01*
X0646970Y0250453D01*
X0646953Y0250367D01*
X0646932Y0250282D01*
X0646907Y0250199D01*
X0646879Y0250116D01*
X0646848Y0250035D01*
X0646813Y0249955D01*
X0646774Y0249877D01*
X0646732Y0249800D01*
X0646687Y0249725D01*
X0646638Y0249653D01*
X0646587Y0249582D01*
X0646532Y0249514D01*
X0646475Y0249449D01*
X0646414Y0249386D01*
X0646351Y0249325D01*
X0646286Y0249268D01*
X0646218Y0249213D01*
X0646147Y0249162D01*
X0646075Y0249113D01*
X0646000Y0249068D01*
X0645923Y0249026D01*
X0645845Y0248987D01*
X0645765Y0248952D01*
X0645684Y0248921D01*
X0645601Y0248893D01*
X0645518Y0248868D01*
X0645433Y0248847D01*
X0645347Y0248830D01*
X0645261Y0248817D01*
X0645174Y0248808D01*
X0645087Y0248802D01*
X0645000Y0248800D01*
X0632000Y0248800D01*
X0631913Y0248802D01*
X0631826Y0248808D01*
X0631739Y0248817D01*
X0631653Y0248830D01*
X0631567Y0248847D01*
X0631482Y0248868D01*
X0631399Y0248893D01*
X0631316Y0248921D01*
X0631235Y0248952D01*
X0631155Y0248987D01*
X0631077Y0249026D01*
X0631000Y0249068D01*
X0630925Y0249113D01*
X0630853Y0249162D01*
X0630782Y0249213D01*
X0630714Y0249268D01*
X0630649Y0249325D01*
X0630586Y0249386D01*
X0630525Y0249449D01*
X0630468Y0249514D01*
X0630413Y0249582D01*
X0630362Y0249653D01*
X0630313Y0249725D01*
X0630268Y0249800D01*
X0630226Y0249877D01*
X0630187Y0249955D01*
X0630152Y0250035D01*
X0630121Y0250116D01*
X0630093Y0250199D01*
X0630068Y0250282D01*
X0630047Y0250367D01*
X0630030Y0250453D01*
X0630017Y0250539D01*
X0630008Y0250626D01*
X0630002Y0250713D01*
X0630000Y0250800D01*
X0633500Y0253300D02*
X0637200Y0253300D01*
X0632000Y0257800D02*
X0631913Y0257798D01*
X0631826Y0257792D01*
X0631739Y0257783D01*
X0631653Y0257770D01*
X0631567Y0257753D01*
X0631482Y0257732D01*
X0631399Y0257707D01*
X0631316Y0257679D01*
X0631235Y0257648D01*
X0631155Y0257613D01*
X0631077Y0257574D01*
X0631000Y0257532D01*
X0630925Y0257487D01*
X0630853Y0257438D01*
X0630782Y0257387D01*
X0630714Y0257332D01*
X0630649Y0257275D01*
X0630586Y0257214D01*
X0630525Y0257151D01*
X0630468Y0257086D01*
X0630413Y0257018D01*
X0630362Y0256947D01*
X0630313Y0256875D01*
X0630268Y0256800D01*
X0630226Y0256723D01*
X0630187Y0256645D01*
X0630152Y0256565D01*
X0630121Y0256484D01*
X0630093Y0256401D01*
X0630068Y0256318D01*
X0630047Y0256233D01*
X0630030Y0256147D01*
X0630017Y0256061D01*
X0630008Y0255974D01*
X0630002Y0255887D01*
X0630000Y0255800D01*
X0632000Y0257800D02*
X0645000Y0257800D01*
X0645087Y0257798D01*
X0645174Y0257792D01*
X0645261Y0257783D01*
X0645347Y0257770D01*
X0645433Y0257753D01*
X0645518Y0257732D01*
X0645601Y0257707D01*
X0645684Y0257679D01*
X0645765Y0257648D01*
X0645845Y0257613D01*
X0645923Y0257574D01*
X0646000Y0257532D01*
X0646075Y0257487D01*
X0646147Y0257438D01*
X0646218Y0257387D01*
X0646286Y0257332D01*
X0646351Y0257275D01*
X0646414Y0257214D01*
X0646475Y0257151D01*
X0646532Y0257086D01*
X0646587Y0257018D01*
X0646638Y0256947D01*
X0646687Y0256875D01*
X0646732Y0256800D01*
X0646774Y0256723D01*
X0646813Y0256645D01*
X0646848Y0256565D01*
X0646879Y0256484D01*
X0646907Y0256401D01*
X0646932Y0256318D01*
X0646953Y0256233D01*
X0646970Y0256147D01*
X0646983Y0256061D01*
X0646992Y0255974D01*
X0646998Y0255887D01*
X0647000Y0255800D01*
X0635000Y0269800D02*
X0633500Y0269800D01*
X0633000Y0270300D01*
X0614000Y0270300D01*
X0613500Y0269800D01*
X0612000Y0269800D01*
X0611940Y0269802D01*
X0611879Y0269807D01*
X0611820Y0269816D01*
X0611761Y0269829D01*
X0611702Y0269845D01*
X0611645Y0269865D01*
X0611590Y0269888D01*
X0611535Y0269915D01*
X0611483Y0269944D01*
X0611432Y0269977D01*
X0611383Y0270013D01*
X0611337Y0270051D01*
X0611293Y0270093D01*
X0611251Y0270137D01*
X0611213Y0270183D01*
X0611177Y0270232D01*
X0611144Y0270283D01*
X0611115Y0270335D01*
X0611088Y0270390D01*
X0611065Y0270445D01*
X0611045Y0270502D01*
X0611029Y0270561D01*
X0611016Y0270620D01*
X0611007Y0270679D01*
X0611002Y0270740D01*
X0611000Y0270800D01*
X0611000Y0277800D01*
X0611002Y0277860D01*
X0611007Y0277921D01*
X0611016Y0277980D01*
X0611029Y0278039D01*
X0611045Y0278098D01*
X0611065Y0278155D01*
X0611088Y0278210D01*
X0611115Y0278265D01*
X0611144Y0278317D01*
X0611177Y0278368D01*
X0611213Y0278417D01*
X0611251Y0278463D01*
X0611293Y0278507D01*
X0611337Y0278549D01*
X0611383Y0278587D01*
X0611432Y0278623D01*
X0611483Y0278656D01*
X0611535Y0278685D01*
X0611590Y0278712D01*
X0611645Y0278735D01*
X0611702Y0278755D01*
X0611761Y0278771D01*
X0611820Y0278784D01*
X0611879Y0278793D01*
X0611940Y0278798D01*
X0612000Y0278800D01*
X0613500Y0278800D01*
X0614000Y0278300D01*
X0633000Y0278300D01*
X0633500Y0278800D01*
X0635000Y0278800D01*
X0635060Y0278798D01*
X0635121Y0278793D01*
X0635180Y0278784D01*
X0635239Y0278771D01*
X0635298Y0278755D01*
X0635355Y0278735D01*
X0635410Y0278712D01*
X0635465Y0278685D01*
X0635517Y0278656D01*
X0635568Y0278623D01*
X0635617Y0278587D01*
X0635663Y0278549D01*
X0635707Y0278507D01*
X0635749Y0278463D01*
X0635787Y0278417D01*
X0635823Y0278368D01*
X0635856Y0278317D01*
X0635885Y0278265D01*
X0635912Y0278210D01*
X0635935Y0278155D01*
X0635955Y0278098D01*
X0635971Y0278039D01*
X0635984Y0277980D01*
X0635993Y0277921D01*
X0635998Y0277860D01*
X0636000Y0277800D01*
X0636000Y0270800D01*
X0635998Y0270740D01*
X0635993Y0270679D01*
X0635984Y0270620D01*
X0635971Y0270561D01*
X0635955Y0270502D01*
X0635935Y0270445D01*
X0635912Y0270390D01*
X0635885Y0270335D01*
X0635856Y0270283D01*
X0635823Y0270232D01*
X0635787Y0270183D01*
X0635749Y0270137D01*
X0635707Y0270093D01*
X0635663Y0270051D01*
X0635617Y0270013D01*
X0635568Y0269977D01*
X0635517Y0269944D01*
X0635465Y0269915D01*
X0635410Y0269888D01*
X0635355Y0269865D01*
X0635298Y0269845D01*
X0635239Y0269829D01*
X0635180Y0269816D01*
X0635121Y0269807D01*
X0635060Y0269802D01*
X0635000Y0269800D01*
X0635000Y0289300D02*
X0633500Y0289300D01*
X0633000Y0289800D01*
X0614000Y0289800D01*
X0613500Y0289300D01*
X0612000Y0289300D01*
X0611940Y0289302D01*
X0611879Y0289307D01*
X0611820Y0289316D01*
X0611761Y0289329D01*
X0611702Y0289345D01*
X0611645Y0289365D01*
X0611590Y0289388D01*
X0611535Y0289415D01*
X0611483Y0289444D01*
X0611432Y0289477D01*
X0611383Y0289513D01*
X0611337Y0289551D01*
X0611293Y0289593D01*
X0611251Y0289637D01*
X0611213Y0289683D01*
X0611177Y0289732D01*
X0611144Y0289783D01*
X0611115Y0289835D01*
X0611088Y0289890D01*
X0611065Y0289945D01*
X0611045Y0290002D01*
X0611029Y0290061D01*
X0611016Y0290120D01*
X0611007Y0290179D01*
X0611002Y0290240D01*
X0611000Y0290300D01*
X0611000Y0297300D01*
X0611002Y0297360D01*
X0611007Y0297421D01*
X0611016Y0297480D01*
X0611029Y0297539D01*
X0611045Y0297598D01*
X0611065Y0297655D01*
X0611088Y0297710D01*
X0611115Y0297765D01*
X0611144Y0297817D01*
X0611177Y0297868D01*
X0611213Y0297917D01*
X0611251Y0297963D01*
X0611293Y0298007D01*
X0611337Y0298049D01*
X0611383Y0298087D01*
X0611432Y0298123D01*
X0611483Y0298156D01*
X0611535Y0298185D01*
X0611590Y0298212D01*
X0611645Y0298235D01*
X0611702Y0298255D01*
X0611761Y0298271D01*
X0611820Y0298284D01*
X0611879Y0298293D01*
X0611940Y0298298D01*
X0612000Y0298300D01*
X0613500Y0298300D01*
X0614000Y0297800D01*
X0633000Y0297800D01*
X0633500Y0298300D01*
X0635000Y0298300D01*
X0635060Y0298298D01*
X0635121Y0298293D01*
X0635180Y0298284D01*
X0635239Y0298271D01*
X0635298Y0298255D01*
X0635355Y0298235D01*
X0635410Y0298212D01*
X0635465Y0298185D01*
X0635517Y0298156D01*
X0635568Y0298123D01*
X0635617Y0298087D01*
X0635663Y0298049D01*
X0635707Y0298007D01*
X0635749Y0297963D01*
X0635787Y0297917D01*
X0635823Y0297868D01*
X0635856Y0297817D01*
X0635885Y0297765D01*
X0635912Y0297710D01*
X0635935Y0297655D01*
X0635955Y0297598D01*
X0635971Y0297539D01*
X0635984Y0297480D01*
X0635993Y0297421D01*
X0635998Y0297360D01*
X0636000Y0297300D01*
X0636000Y0290300D01*
X0635998Y0290240D01*
X0635993Y0290179D01*
X0635984Y0290120D01*
X0635971Y0290061D01*
X0635955Y0290002D01*
X0635935Y0289945D01*
X0635912Y0289890D01*
X0635885Y0289835D01*
X0635856Y0289783D01*
X0635823Y0289732D01*
X0635787Y0289683D01*
X0635749Y0289637D01*
X0635707Y0289593D01*
X0635663Y0289551D01*
X0635617Y0289513D01*
X0635568Y0289477D01*
X0635517Y0289444D01*
X0635465Y0289415D01*
X0635410Y0289388D01*
X0635355Y0289365D01*
X0635298Y0289345D01*
X0635239Y0289329D01*
X0635180Y0289316D01*
X0635121Y0289307D01*
X0635060Y0289302D01*
X0635000Y0289300D01*
X0680000Y0303800D02*
X0680000Y0273800D01*
X0703000Y0273800D01*
X0703000Y0303800D01*
X0695500Y0303800D01*
X0695498Y0303674D01*
X0695492Y0303549D01*
X0695482Y0303424D01*
X0695468Y0303299D01*
X0695451Y0303174D01*
X0695429Y0303050D01*
X0695404Y0302927D01*
X0695374Y0302805D01*
X0695341Y0302684D01*
X0695304Y0302564D01*
X0695264Y0302445D01*
X0695219Y0302328D01*
X0695171Y0302211D01*
X0695119Y0302097D01*
X0695064Y0301984D01*
X0695005Y0301873D01*
X0694943Y0301764D01*
X0694877Y0301657D01*
X0694808Y0301552D01*
X0694736Y0301449D01*
X0694661Y0301348D01*
X0694582Y0301250D01*
X0694500Y0301155D01*
X0694416Y0301062D01*
X0694328Y0300972D01*
X0694238Y0300884D01*
X0694145Y0300800D01*
X0694050Y0300718D01*
X0693952Y0300639D01*
X0693851Y0300564D01*
X0693748Y0300492D01*
X0693643Y0300423D01*
X0693536Y0300357D01*
X0693427Y0300295D01*
X0693316Y0300236D01*
X0693203Y0300181D01*
X0693089Y0300129D01*
X0692972Y0300081D01*
X0692855Y0300036D01*
X0692736Y0299996D01*
X0692616Y0299959D01*
X0692495Y0299926D01*
X0692373Y0299896D01*
X0692250Y0299871D01*
X0692126Y0299849D01*
X0692001Y0299832D01*
X0691876Y0299818D01*
X0691751Y0299808D01*
X0691626Y0299802D01*
X0691500Y0299800D01*
X0691374Y0299802D01*
X0691249Y0299808D01*
X0691124Y0299818D01*
X0690999Y0299832D01*
X0690874Y0299849D01*
X0690750Y0299871D01*
X0690627Y0299896D01*
X0690505Y0299926D01*
X0690384Y0299959D01*
X0690264Y0299996D01*
X0690145Y0300036D01*
X0690028Y0300081D01*
X0689911Y0300129D01*
X0689797Y0300181D01*
X0689684Y0300236D01*
X0689573Y0300295D01*
X0689464Y0300357D01*
X0689357Y0300423D01*
X0689252Y0300492D01*
X0689149Y0300564D01*
X0689048Y0300639D01*
X0688950Y0300718D01*
X0688855Y0300800D01*
X0688762Y0300884D01*
X0688672Y0300972D01*
X0688584Y0301062D01*
X0688500Y0301155D01*
X0688418Y0301250D01*
X0688339Y0301348D01*
X0688264Y0301449D01*
X0688192Y0301552D01*
X0688123Y0301657D01*
X0688057Y0301764D01*
X0687995Y0301873D01*
X0687936Y0301984D01*
X0687881Y0302097D01*
X0687829Y0302211D01*
X0687781Y0302328D01*
X0687736Y0302445D01*
X0687696Y0302564D01*
X0687659Y0302684D01*
X0687626Y0302805D01*
X0687596Y0302927D01*
X0687571Y0303050D01*
X0687549Y0303174D01*
X0687532Y0303299D01*
X0687518Y0303424D01*
X0687508Y0303549D01*
X0687502Y0303674D01*
X0687500Y0303800D01*
X0680000Y0303800D01*
X0659500Y0355300D02*
X0637500Y0355300D01*
X0637500Y0390300D01*
X0646000Y0390300D01*
X0646002Y0390202D01*
X0646008Y0390104D01*
X0646017Y0390006D01*
X0646031Y0389909D01*
X0646048Y0389812D01*
X0646069Y0389716D01*
X0646094Y0389621D01*
X0646122Y0389527D01*
X0646155Y0389435D01*
X0646190Y0389343D01*
X0646230Y0389253D01*
X0646272Y0389165D01*
X0646319Y0389078D01*
X0646368Y0388994D01*
X0646421Y0388911D01*
X0646477Y0388831D01*
X0646537Y0388752D01*
X0646599Y0388676D01*
X0646664Y0388603D01*
X0646732Y0388532D01*
X0646803Y0388464D01*
X0646876Y0388399D01*
X0646952Y0388337D01*
X0647031Y0388277D01*
X0647111Y0388221D01*
X0647194Y0388168D01*
X0647278Y0388119D01*
X0647365Y0388072D01*
X0647453Y0388030D01*
X0647543Y0387990D01*
X0647635Y0387955D01*
X0647727Y0387922D01*
X0647821Y0387894D01*
X0647916Y0387869D01*
X0648012Y0387848D01*
X0648109Y0387831D01*
X0648206Y0387817D01*
X0648304Y0387808D01*
X0648402Y0387802D01*
X0648500Y0387800D01*
X0648598Y0387802D01*
X0648696Y0387808D01*
X0648794Y0387817D01*
X0648891Y0387831D01*
X0648988Y0387848D01*
X0649084Y0387869D01*
X0649179Y0387894D01*
X0649273Y0387922D01*
X0649365Y0387955D01*
X0649457Y0387990D01*
X0649547Y0388030D01*
X0649635Y0388072D01*
X0649722Y0388119D01*
X0649806Y0388168D01*
X0649889Y0388221D01*
X0649969Y0388277D01*
X0650048Y0388337D01*
X0650124Y0388399D01*
X0650197Y0388464D01*
X0650268Y0388532D01*
X0650336Y0388603D01*
X0650401Y0388676D01*
X0650463Y0388752D01*
X0650523Y0388831D01*
X0650579Y0388911D01*
X0650632Y0388994D01*
X0650681Y0389078D01*
X0650728Y0389165D01*
X0650770Y0389253D01*
X0650810Y0389343D01*
X0650845Y0389435D01*
X0650878Y0389527D01*
X0650906Y0389621D01*
X0650931Y0389716D01*
X0650952Y0389812D01*
X0650969Y0389909D01*
X0650983Y0390006D01*
X0650992Y0390104D01*
X0650998Y0390202D01*
X0651000Y0390300D01*
X0659500Y0390300D01*
X0659500Y0355300D01*
X0591000Y0381300D02*
X0591000Y0382800D01*
X0590500Y0383300D01*
X0590500Y0402300D01*
X0591000Y0402800D01*
X0591000Y0404300D01*
X0590998Y0404360D01*
X0590993Y0404421D01*
X0590984Y0404480D01*
X0590971Y0404539D01*
X0590955Y0404598D01*
X0590935Y0404655D01*
X0590912Y0404710D01*
X0590885Y0404765D01*
X0590856Y0404817D01*
X0590823Y0404868D01*
X0590787Y0404917D01*
X0590749Y0404963D01*
X0590707Y0405007D01*
X0590663Y0405049D01*
X0590617Y0405087D01*
X0590568Y0405123D01*
X0590517Y0405156D01*
X0590465Y0405185D01*
X0590410Y0405212D01*
X0590355Y0405235D01*
X0590298Y0405255D01*
X0590239Y0405271D01*
X0590180Y0405284D01*
X0590121Y0405293D01*
X0590060Y0405298D01*
X0590000Y0405300D01*
X0583000Y0405300D01*
X0582940Y0405298D01*
X0582879Y0405293D01*
X0582820Y0405284D01*
X0582761Y0405271D01*
X0582702Y0405255D01*
X0582645Y0405235D01*
X0582590Y0405212D01*
X0582535Y0405185D01*
X0582483Y0405156D01*
X0582432Y0405123D01*
X0582383Y0405087D01*
X0582337Y0405049D01*
X0582293Y0405007D01*
X0582251Y0404963D01*
X0582213Y0404917D01*
X0582177Y0404868D01*
X0582144Y0404817D01*
X0582115Y0404765D01*
X0582088Y0404710D01*
X0582065Y0404655D01*
X0582045Y0404598D01*
X0582029Y0404539D01*
X0582016Y0404480D01*
X0582007Y0404421D01*
X0582002Y0404360D01*
X0582000Y0404300D01*
X0582000Y0402800D01*
X0582500Y0402300D01*
X0582500Y0383300D01*
X0582000Y0382800D01*
X0582000Y0381300D01*
X0582002Y0381240D01*
X0582007Y0381179D01*
X0582016Y0381120D01*
X0582029Y0381061D01*
X0582045Y0381002D01*
X0582065Y0380945D01*
X0582088Y0380890D01*
X0582115Y0380835D01*
X0582144Y0380783D01*
X0582177Y0380732D01*
X0582213Y0380683D01*
X0582251Y0380637D01*
X0582293Y0380593D01*
X0582337Y0380551D01*
X0582383Y0380513D01*
X0582432Y0380477D01*
X0582483Y0380444D01*
X0582535Y0380415D01*
X0582590Y0380388D01*
X0582645Y0380365D01*
X0582702Y0380345D01*
X0582761Y0380329D01*
X0582820Y0380316D01*
X0582879Y0380307D01*
X0582940Y0380302D01*
X0583000Y0380300D01*
X0590000Y0380300D01*
X0590060Y0380302D01*
X0590121Y0380307D01*
X0590180Y0380316D01*
X0590239Y0380329D01*
X0590298Y0380345D01*
X0590355Y0380365D01*
X0590410Y0380388D01*
X0590465Y0380415D01*
X0590517Y0380444D01*
X0590568Y0380477D01*
X0590617Y0380513D01*
X0590663Y0380551D01*
X0590707Y0380593D01*
X0590749Y0380637D01*
X0590787Y0380683D01*
X0590823Y0380732D01*
X0590856Y0380783D01*
X0590885Y0380835D01*
X0590912Y0380890D01*
X0590935Y0380945D01*
X0590955Y0381002D01*
X0590971Y0381061D01*
X0590984Y0381120D01*
X0590993Y0381179D01*
X0590998Y0381240D01*
X0591000Y0381300D01*
X0547000Y0313300D02*
X0497000Y0313300D01*
X0497000Y0305800D01*
X0497126Y0305798D01*
X0497251Y0305792D01*
X0497376Y0305782D01*
X0497501Y0305768D01*
X0497626Y0305751D01*
X0497750Y0305729D01*
X0497873Y0305704D01*
X0497995Y0305674D01*
X0498116Y0305641D01*
X0498236Y0305604D01*
X0498355Y0305564D01*
X0498472Y0305519D01*
X0498589Y0305471D01*
X0498703Y0305419D01*
X0498816Y0305364D01*
X0498927Y0305305D01*
X0499036Y0305243D01*
X0499143Y0305177D01*
X0499248Y0305108D01*
X0499351Y0305036D01*
X0499452Y0304961D01*
X0499550Y0304882D01*
X0499645Y0304800D01*
X0499738Y0304716D01*
X0499828Y0304628D01*
X0499916Y0304538D01*
X0500000Y0304445D01*
X0500082Y0304350D01*
X0500161Y0304252D01*
X0500236Y0304151D01*
X0500308Y0304048D01*
X0500377Y0303943D01*
X0500443Y0303836D01*
X0500505Y0303727D01*
X0500564Y0303616D01*
X0500619Y0303503D01*
X0500671Y0303389D01*
X0500719Y0303272D01*
X0500764Y0303155D01*
X0500804Y0303036D01*
X0500841Y0302916D01*
X0500874Y0302795D01*
X0500904Y0302673D01*
X0500929Y0302550D01*
X0500951Y0302426D01*
X0500968Y0302301D01*
X0500982Y0302176D01*
X0500992Y0302051D01*
X0500998Y0301926D01*
X0501000Y0301800D01*
X0500998Y0301674D01*
X0500992Y0301549D01*
X0500982Y0301424D01*
X0500968Y0301299D01*
X0500951Y0301174D01*
X0500929Y0301050D01*
X0500904Y0300927D01*
X0500874Y0300805D01*
X0500841Y0300684D01*
X0500804Y0300564D01*
X0500764Y0300445D01*
X0500719Y0300328D01*
X0500671Y0300211D01*
X0500619Y0300097D01*
X0500564Y0299984D01*
X0500505Y0299873D01*
X0500443Y0299764D01*
X0500377Y0299657D01*
X0500308Y0299552D01*
X0500236Y0299449D01*
X0500161Y0299348D01*
X0500082Y0299250D01*
X0500000Y0299155D01*
X0499916Y0299062D01*
X0499828Y0298972D01*
X0499738Y0298884D01*
X0499645Y0298800D01*
X0499550Y0298718D01*
X0499452Y0298639D01*
X0499351Y0298564D01*
X0499248Y0298492D01*
X0499143Y0298423D01*
X0499036Y0298357D01*
X0498927Y0298295D01*
X0498816Y0298236D01*
X0498703Y0298181D01*
X0498589Y0298129D01*
X0498472Y0298081D01*
X0498355Y0298036D01*
X0498236Y0297996D01*
X0498116Y0297959D01*
X0497995Y0297926D01*
X0497873Y0297896D01*
X0497750Y0297871D01*
X0497626Y0297849D01*
X0497501Y0297832D01*
X0497376Y0297818D01*
X0497251Y0297808D01*
X0497126Y0297802D01*
X0497000Y0297800D01*
X0497000Y0290300D01*
X0547000Y0290300D01*
X0547000Y0313300D01*
X0538500Y0270300D02*
X0537000Y0270300D01*
X0536500Y0269800D01*
X0517500Y0269800D01*
X0517000Y0270300D01*
X0515500Y0270300D01*
X0515440Y0270298D01*
X0515379Y0270293D01*
X0515320Y0270284D01*
X0515261Y0270271D01*
X0515202Y0270255D01*
X0515145Y0270235D01*
X0515090Y0270212D01*
X0515035Y0270185D01*
X0514983Y0270156D01*
X0514932Y0270123D01*
X0514883Y0270087D01*
X0514837Y0270049D01*
X0514793Y0270007D01*
X0514751Y0269963D01*
X0514713Y0269917D01*
X0514677Y0269868D01*
X0514644Y0269817D01*
X0514615Y0269765D01*
X0514588Y0269710D01*
X0514565Y0269655D01*
X0514545Y0269598D01*
X0514529Y0269539D01*
X0514516Y0269480D01*
X0514507Y0269421D01*
X0514502Y0269360D01*
X0514500Y0269300D01*
X0514500Y0262300D01*
X0514502Y0262240D01*
X0514507Y0262179D01*
X0514516Y0262120D01*
X0514529Y0262061D01*
X0514545Y0262002D01*
X0514565Y0261945D01*
X0514588Y0261890D01*
X0514615Y0261835D01*
X0514644Y0261783D01*
X0514677Y0261732D01*
X0514713Y0261683D01*
X0514751Y0261637D01*
X0514793Y0261593D01*
X0514837Y0261551D01*
X0514883Y0261513D01*
X0514932Y0261477D01*
X0514983Y0261444D01*
X0515035Y0261415D01*
X0515090Y0261388D01*
X0515145Y0261365D01*
X0515202Y0261345D01*
X0515261Y0261329D01*
X0515320Y0261316D01*
X0515379Y0261307D01*
X0515440Y0261302D01*
X0515500Y0261300D01*
X0517000Y0261300D01*
X0517500Y0261800D01*
X0536500Y0261800D01*
X0537000Y0261300D01*
X0538500Y0261300D01*
X0538560Y0261302D01*
X0538621Y0261307D01*
X0538680Y0261316D01*
X0538739Y0261329D01*
X0538798Y0261345D01*
X0538855Y0261365D01*
X0538910Y0261388D01*
X0538965Y0261415D01*
X0539017Y0261444D01*
X0539068Y0261477D01*
X0539117Y0261513D01*
X0539163Y0261551D01*
X0539207Y0261593D01*
X0539249Y0261637D01*
X0539287Y0261683D01*
X0539323Y0261732D01*
X0539356Y0261783D01*
X0539385Y0261835D01*
X0539412Y0261890D01*
X0539435Y0261945D01*
X0539455Y0262002D01*
X0539471Y0262061D01*
X0539484Y0262120D01*
X0539493Y0262179D01*
X0539498Y0262240D01*
X0539500Y0262300D01*
X0539500Y0269300D01*
X0539498Y0269360D01*
X0539493Y0269421D01*
X0539484Y0269480D01*
X0539471Y0269539D01*
X0539455Y0269598D01*
X0539435Y0269655D01*
X0539412Y0269710D01*
X0539385Y0269765D01*
X0539356Y0269817D01*
X0539323Y0269868D01*
X0539287Y0269917D01*
X0539249Y0269963D01*
X0539207Y0270007D01*
X0539163Y0270049D01*
X0539117Y0270087D01*
X0539068Y0270123D01*
X0539017Y0270156D01*
X0538965Y0270185D01*
X0538910Y0270212D01*
X0538855Y0270235D01*
X0538798Y0270255D01*
X0538739Y0270271D01*
X0538680Y0270284D01*
X0538621Y0270293D01*
X0538560Y0270298D01*
X0538500Y0270300D01*
X0506500Y0259800D02*
X0506500Y0241800D01*
X0506498Y0241740D01*
X0506493Y0241679D01*
X0506484Y0241620D01*
X0506471Y0241561D01*
X0506455Y0241502D01*
X0506435Y0241445D01*
X0506412Y0241390D01*
X0506385Y0241335D01*
X0506356Y0241283D01*
X0506323Y0241232D01*
X0506287Y0241183D01*
X0506249Y0241137D01*
X0506207Y0241093D01*
X0506163Y0241051D01*
X0506117Y0241013D01*
X0506068Y0240977D01*
X0506017Y0240944D01*
X0505965Y0240915D01*
X0505910Y0240888D01*
X0505855Y0240865D01*
X0505798Y0240845D01*
X0505739Y0240829D01*
X0505680Y0240816D01*
X0505621Y0240807D01*
X0505560Y0240802D01*
X0505500Y0240800D01*
X0478500Y0240800D01*
X0478440Y0240802D01*
X0478379Y0240807D01*
X0478320Y0240816D01*
X0478261Y0240829D01*
X0478202Y0240845D01*
X0478145Y0240865D01*
X0478090Y0240888D01*
X0478035Y0240915D01*
X0477983Y0240944D01*
X0477932Y0240977D01*
X0477883Y0241013D01*
X0477837Y0241051D01*
X0477793Y0241093D01*
X0477751Y0241137D01*
X0477713Y0241183D01*
X0477677Y0241232D01*
X0477644Y0241283D01*
X0477615Y0241335D01*
X0477588Y0241390D01*
X0477565Y0241445D01*
X0477545Y0241502D01*
X0477529Y0241561D01*
X0477516Y0241620D01*
X0477507Y0241679D01*
X0477502Y0241740D01*
X0477500Y0241800D01*
X0477500Y0259800D01*
X0477502Y0259860D01*
X0477507Y0259921D01*
X0477516Y0259980D01*
X0477529Y0260039D01*
X0477545Y0260098D01*
X0477565Y0260155D01*
X0477588Y0260210D01*
X0477615Y0260265D01*
X0477644Y0260317D01*
X0477677Y0260368D01*
X0477713Y0260417D01*
X0477751Y0260463D01*
X0477793Y0260507D01*
X0477837Y0260549D01*
X0477883Y0260587D01*
X0477932Y0260623D01*
X0477983Y0260656D01*
X0478035Y0260685D01*
X0478090Y0260712D01*
X0478145Y0260735D01*
X0478202Y0260755D01*
X0478261Y0260771D01*
X0478320Y0260784D01*
X0478379Y0260793D01*
X0478440Y0260798D01*
X0478500Y0260800D01*
X0505500Y0260800D01*
X0505560Y0260798D01*
X0505621Y0260793D01*
X0505680Y0260784D01*
X0505739Y0260771D01*
X0505798Y0260755D01*
X0505855Y0260735D01*
X0505910Y0260712D01*
X0505965Y0260685D01*
X0506017Y0260656D01*
X0506068Y0260623D01*
X0506117Y0260587D01*
X0506163Y0260549D01*
X0506207Y0260507D01*
X0506249Y0260463D01*
X0506287Y0260417D01*
X0506323Y0260368D01*
X0506356Y0260317D01*
X0506385Y0260265D01*
X0506412Y0260210D01*
X0506435Y0260155D01*
X0506455Y0260098D01*
X0506471Y0260039D01*
X0506484Y0259980D01*
X0506493Y0259921D01*
X0506498Y0259860D01*
X0506500Y0259800D01*
X0498000Y0250800D02*
X0493200Y0250800D01*
X0490700Y0250800D02*
X0486000Y0250800D01*
X0514500Y0238300D02*
X0514500Y0231300D01*
X0514502Y0231240D01*
X0514507Y0231179D01*
X0514516Y0231120D01*
X0514529Y0231061D01*
X0514545Y0231002D01*
X0514565Y0230945D01*
X0514588Y0230890D01*
X0514615Y0230835D01*
X0514644Y0230783D01*
X0514677Y0230732D01*
X0514713Y0230683D01*
X0514751Y0230637D01*
X0514793Y0230593D01*
X0514837Y0230551D01*
X0514883Y0230513D01*
X0514932Y0230477D01*
X0514983Y0230444D01*
X0515035Y0230415D01*
X0515090Y0230388D01*
X0515145Y0230365D01*
X0515202Y0230345D01*
X0515261Y0230329D01*
X0515320Y0230316D01*
X0515379Y0230307D01*
X0515440Y0230302D01*
X0515500Y0230300D01*
X0517000Y0230300D01*
X0517500Y0230800D01*
X0536500Y0230800D01*
X0537000Y0230300D01*
X0538500Y0230300D01*
X0538560Y0230302D01*
X0538621Y0230307D01*
X0538680Y0230316D01*
X0538739Y0230329D01*
X0538798Y0230345D01*
X0538855Y0230365D01*
X0538910Y0230388D01*
X0538965Y0230415D01*
X0539017Y0230444D01*
X0539068Y0230477D01*
X0539117Y0230513D01*
X0539163Y0230551D01*
X0539207Y0230593D01*
X0539249Y0230637D01*
X0539287Y0230683D01*
X0539323Y0230732D01*
X0539356Y0230783D01*
X0539385Y0230835D01*
X0539412Y0230890D01*
X0539435Y0230945D01*
X0539455Y0231002D01*
X0539471Y0231061D01*
X0539484Y0231120D01*
X0539493Y0231179D01*
X0539498Y0231240D01*
X0539500Y0231300D01*
X0539500Y0238300D01*
X0539498Y0238360D01*
X0539493Y0238421D01*
X0539484Y0238480D01*
X0539471Y0238539D01*
X0539455Y0238598D01*
X0539435Y0238655D01*
X0539412Y0238710D01*
X0539385Y0238765D01*
X0539356Y0238817D01*
X0539323Y0238868D01*
X0539287Y0238917D01*
X0539249Y0238963D01*
X0539207Y0239007D01*
X0539163Y0239049D01*
X0539117Y0239087D01*
X0539068Y0239123D01*
X0539017Y0239156D01*
X0538965Y0239185D01*
X0538910Y0239212D01*
X0538855Y0239235D01*
X0538798Y0239255D01*
X0538739Y0239271D01*
X0538680Y0239284D01*
X0538621Y0239293D01*
X0538560Y0239298D01*
X0538500Y0239300D01*
X0537000Y0239300D01*
X0536500Y0238800D01*
X0517500Y0238800D01*
X0517000Y0239300D01*
X0515500Y0239300D01*
X0515440Y0239298D01*
X0515379Y0239293D01*
X0515320Y0239284D01*
X0515261Y0239271D01*
X0515202Y0239255D01*
X0515145Y0239235D01*
X0515090Y0239212D01*
X0515035Y0239185D01*
X0514983Y0239156D01*
X0514932Y0239123D01*
X0514883Y0239087D01*
X0514837Y0239049D01*
X0514793Y0239007D01*
X0514751Y0238963D01*
X0514713Y0238917D01*
X0514677Y0238868D01*
X0514644Y0238817D01*
X0514615Y0238765D01*
X0514588Y0238710D01*
X0514565Y0238655D01*
X0514545Y0238598D01*
X0514529Y0238539D01*
X0514516Y0238480D01*
X0514507Y0238421D01*
X0514502Y0238360D01*
X0514500Y0238300D01*
X0473500Y0190800D02*
X0443500Y0190800D01*
X0443500Y0182300D01*
X0443598Y0182298D01*
X0443696Y0182292D01*
X0443794Y0182283D01*
X0443891Y0182269D01*
X0443988Y0182252D01*
X0444084Y0182231D01*
X0444179Y0182206D01*
X0444273Y0182178D01*
X0444365Y0182145D01*
X0444457Y0182110D01*
X0444547Y0182070D01*
X0444635Y0182028D01*
X0444722Y0181981D01*
X0444806Y0181932D01*
X0444889Y0181879D01*
X0444969Y0181823D01*
X0445048Y0181763D01*
X0445124Y0181701D01*
X0445197Y0181636D01*
X0445268Y0181568D01*
X0445336Y0181497D01*
X0445401Y0181424D01*
X0445463Y0181348D01*
X0445523Y0181269D01*
X0445579Y0181189D01*
X0445632Y0181106D01*
X0445681Y0181022D01*
X0445728Y0180935D01*
X0445770Y0180847D01*
X0445810Y0180757D01*
X0445845Y0180665D01*
X0445878Y0180573D01*
X0445906Y0180479D01*
X0445931Y0180384D01*
X0445952Y0180288D01*
X0445969Y0180191D01*
X0445983Y0180094D01*
X0445992Y0179996D01*
X0445998Y0179898D01*
X0446000Y0179800D01*
X0445998Y0179702D01*
X0445992Y0179604D01*
X0445983Y0179506D01*
X0445969Y0179409D01*
X0445952Y0179312D01*
X0445931Y0179216D01*
X0445906Y0179121D01*
X0445878Y0179027D01*
X0445845Y0178935D01*
X0445810Y0178843D01*
X0445770Y0178753D01*
X0445728Y0178665D01*
X0445681Y0178578D01*
X0445632Y0178494D01*
X0445579Y0178411D01*
X0445523Y0178331D01*
X0445463Y0178252D01*
X0445401Y0178176D01*
X0445336Y0178103D01*
X0445268Y0178032D01*
X0445197Y0177964D01*
X0445124Y0177899D01*
X0445048Y0177837D01*
X0444969Y0177777D01*
X0444889Y0177721D01*
X0444806Y0177668D01*
X0444722Y0177619D01*
X0444635Y0177572D01*
X0444547Y0177530D01*
X0444457Y0177490D01*
X0444365Y0177455D01*
X0444273Y0177422D01*
X0444179Y0177394D01*
X0444084Y0177369D01*
X0443988Y0177348D01*
X0443891Y0177331D01*
X0443794Y0177317D01*
X0443696Y0177308D01*
X0443598Y0177302D01*
X0443500Y0177300D01*
X0443500Y0168800D01*
X0473500Y0168800D01*
X0473500Y0190800D01*
X0463500Y0133800D02*
X0464000Y0133300D01*
X0483000Y0133300D01*
X0483500Y0133800D01*
X0485000Y0133800D01*
X0485060Y0133798D01*
X0485121Y0133793D01*
X0485180Y0133784D01*
X0485239Y0133771D01*
X0485298Y0133755D01*
X0485355Y0133735D01*
X0485410Y0133712D01*
X0485465Y0133685D01*
X0485517Y0133656D01*
X0485568Y0133623D01*
X0485617Y0133587D01*
X0485663Y0133549D01*
X0485707Y0133507D01*
X0485749Y0133463D01*
X0485787Y0133417D01*
X0485823Y0133368D01*
X0485856Y0133317D01*
X0485885Y0133265D01*
X0485912Y0133210D01*
X0485935Y0133155D01*
X0485955Y0133098D01*
X0485971Y0133039D01*
X0485984Y0132980D01*
X0485993Y0132921D01*
X0485998Y0132860D01*
X0486000Y0132800D01*
X0486000Y0125800D01*
X0485998Y0125740D01*
X0485993Y0125679D01*
X0485984Y0125620D01*
X0485971Y0125561D01*
X0485955Y0125502D01*
X0485935Y0125445D01*
X0485912Y0125390D01*
X0485885Y0125335D01*
X0485856Y0125283D01*
X0485823Y0125232D01*
X0485787Y0125183D01*
X0485749Y0125137D01*
X0485707Y0125093D01*
X0485663Y0125051D01*
X0485617Y0125013D01*
X0485568Y0124977D01*
X0485517Y0124944D01*
X0485465Y0124915D01*
X0485410Y0124888D01*
X0485355Y0124865D01*
X0485298Y0124845D01*
X0485239Y0124829D01*
X0485180Y0124816D01*
X0485121Y0124807D01*
X0485060Y0124802D01*
X0485000Y0124800D01*
X0483500Y0124800D01*
X0483000Y0125300D01*
X0464000Y0125300D01*
X0463500Y0124800D01*
X0462000Y0124800D01*
X0461940Y0124802D01*
X0461879Y0124807D01*
X0461820Y0124816D01*
X0461761Y0124829D01*
X0461702Y0124845D01*
X0461645Y0124865D01*
X0461590Y0124888D01*
X0461535Y0124915D01*
X0461483Y0124944D01*
X0461432Y0124977D01*
X0461383Y0125013D01*
X0461337Y0125051D01*
X0461293Y0125093D01*
X0461251Y0125137D01*
X0461213Y0125183D01*
X0461177Y0125232D01*
X0461144Y0125283D01*
X0461115Y0125335D01*
X0461088Y0125390D01*
X0461065Y0125445D01*
X0461045Y0125502D01*
X0461029Y0125561D01*
X0461016Y0125620D01*
X0461007Y0125679D01*
X0461002Y0125740D01*
X0461000Y0125800D01*
X0461000Y0132800D01*
X0461002Y0132860D01*
X0461007Y0132921D01*
X0461016Y0132980D01*
X0461029Y0133039D01*
X0461045Y0133098D01*
X0461065Y0133155D01*
X0461088Y0133210D01*
X0461115Y0133265D01*
X0461144Y0133317D01*
X0461177Y0133368D01*
X0461213Y0133417D01*
X0461251Y0133463D01*
X0461293Y0133507D01*
X0461337Y0133549D01*
X0461383Y0133587D01*
X0461432Y0133623D01*
X0461483Y0133656D01*
X0461535Y0133685D01*
X0461590Y0133712D01*
X0461645Y0133735D01*
X0461702Y0133755D01*
X0461761Y0133771D01*
X0461820Y0133784D01*
X0461879Y0133793D01*
X0461940Y0133798D01*
X0462000Y0133800D01*
X0463500Y0133800D01*
X0386000Y0122800D02*
X0386000Y0086800D01*
X0372000Y0086800D01*
X0372000Y0122800D01*
X0386000Y0122800D01*
X0361000Y0146800D02*
X0347000Y0146800D01*
X0347000Y0182800D01*
X0361000Y0182800D01*
X0361000Y0146800D01*
X0331500Y0175300D02*
X0324500Y0175300D01*
X0324440Y0175302D01*
X0324379Y0175307D01*
X0324320Y0175316D01*
X0324261Y0175329D01*
X0324202Y0175345D01*
X0324145Y0175365D01*
X0324090Y0175388D01*
X0324035Y0175415D01*
X0323983Y0175444D01*
X0323932Y0175477D01*
X0323883Y0175513D01*
X0323837Y0175551D01*
X0323793Y0175593D01*
X0323751Y0175637D01*
X0323713Y0175683D01*
X0323677Y0175732D01*
X0323644Y0175783D01*
X0323615Y0175835D01*
X0323588Y0175890D01*
X0323565Y0175945D01*
X0323545Y0176002D01*
X0323529Y0176061D01*
X0323516Y0176120D01*
X0323507Y0176179D01*
X0323502Y0176240D01*
X0323500Y0176300D01*
X0323500Y0177800D01*
X0324000Y0178300D01*
X0324000Y0197300D01*
X0323500Y0197800D01*
X0323500Y0199300D01*
X0323502Y0199360D01*
X0323507Y0199421D01*
X0323516Y0199480D01*
X0323529Y0199539D01*
X0323545Y0199598D01*
X0323565Y0199655D01*
X0323588Y0199710D01*
X0323615Y0199765D01*
X0323644Y0199817D01*
X0323677Y0199868D01*
X0323713Y0199917D01*
X0323751Y0199963D01*
X0323793Y0200007D01*
X0323837Y0200049D01*
X0323883Y0200087D01*
X0323932Y0200123D01*
X0323983Y0200156D01*
X0324035Y0200185D01*
X0324090Y0200212D01*
X0324145Y0200235D01*
X0324202Y0200255D01*
X0324261Y0200271D01*
X0324320Y0200284D01*
X0324379Y0200293D01*
X0324440Y0200298D01*
X0324500Y0200300D01*
X0331500Y0200300D01*
X0331560Y0200298D01*
X0331621Y0200293D01*
X0331680Y0200284D01*
X0331739Y0200271D01*
X0331798Y0200255D01*
X0331855Y0200235D01*
X0331910Y0200212D01*
X0331965Y0200185D01*
X0332017Y0200156D01*
X0332068Y0200123D01*
X0332117Y0200087D01*
X0332163Y0200049D01*
X0332207Y0200007D01*
X0332249Y0199963D01*
X0332287Y0199917D01*
X0332323Y0199868D01*
X0332356Y0199817D01*
X0332385Y0199765D01*
X0332412Y0199710D01*
X0332435Y0199655D01*
X0332455Y0199598D01*
X0332471Y0199539D01*
X0332484Y0199480D01*
X0332493Y0199421D01*
X0332498Y0199360D01*
X0332500Y0199300D01*
X0332500Y0197800D01*
X0332000Y0197300D01*
X0332000Y0178300D01*
X0332500Y0177800D01*
X0332500Y0176300D01*
X0332498Y0176240D01*
X0332493Y0176179D01*
X0332484Y0176120D01*
X0332471Y0176061D01*
X0332455Y0176002D01*
X0332435Y0175945D01*
X0332412Y0175890D01*
X0332385Y0175835D01*
X0332356Y0175783D01*
X0332323Y0175732D01*
X0332287Y0175683D01*
X0332249Y0175637D01*
X0332207Y0175593D01*
X0332163Y0175551D01*
X0332117Y0175513D01*
X0332068Y0175477D01*
X0332017Y0175444D01*
X0331965Y0175415D01*
X0331910Y0175388D01*
X0331855Y0175365D01*
X0331798Y0175345D01*
X0331739Y0175329D01*
X0331680Y0175316D01*
X0331621Y0175307D01*
X0331560Y0175302D01*
X0331500Y0175300D01*
X0265500Y0179800D02*
X0265000Y0179300D01*
X0265000Y0160300D01*
X0265500Y0159800D01*
X0265500Y0158300D01*
X0265498Y0158240D01*
X0265493Y0158179D01*
X0265484Y0158120D01*
X0265471Y0158061D01*
X0265455Y0158002D01*
X0265435Y0157945D01*
X0265412Y0157890D01*
X0265385Y0157835D01*
X0265356Y0157783D01*
X0265323Y0157732D01*
X0265287Y0157683D01*
X0265249Y0157637D01*
X0265207Y0157593D01*
X0265163Y0157551D01*
X0265117Y0157513D01*
X0265068Y0157477D01*
X0265017Y0157444D01*
X0264965Y0157415D01*
X0264910Y0157388D01*
X0264855Y0157365D01*
X0264798Y0157345D01*
X0264739Y0157329D01*
X0264680Y0157316D01*
X0264621Y0157307D01*
X0264560Y0157302D01*
X0264500Y0157300D01*
X0257500Y0157300D01*
X0257440Y0157302D01*
X0257379Y0157307D01*
X0257320Y0157316D01*
X0257261Y0157329D01*
X0257202Y0157345D01*
X0257145Y0157365D01*
X0257090Y0157388D01*
X0257035Y0157415D01*
X0256983Y0157444D01*
X0256932Y0157477D01*
X0256883Y0157513D01*
X0256837Y0157551D01*
X0256793Y0157593D01*
X0256751Y0157637D01*
X0256713Y0157683D01*
X0256677Y0157732D01*
X0256644Y0157783D01*
X0256615Y0157835D01*
X0256588Y0157890D01*
X0256565Y0157945D01*
X0256545Y0158002D01*
X0256529Y0158061D01*
X0256516Y0158120D01*
X0256507Y0158179D01*
X0256502Y0158240D01*
X0256500Y0158300D01*
X0256500Y0159800D01*
X0257000Y0160300D01*
X0257000Y0179300D01*
X0256500Y0179800D01*
X0256500Y0181300D01*
X0256502Y0181360D01*
X0256507Y0181421D01*
X0256516Y0181480D01*
X0256529Y0181539D01*
X0256545Y0181598D01*
X0256565Y0181655D01*
X0256588Y0181710D01*
X0256615Y0181765D01*
X0256644Y0181817D01*
X0256677Y0181868D01*
X0256713Y0181917D01*
X0256751Y0181963D01*
X0256793Y0182007D01*
X0256837Y0182049D01*
X0256883Y0182087D01*
X0256932Y0182123D01*
X0256983Y0182156D01*
X0257035Y0182185D01*
X0257090Y0182212D01*
X0257145Y0182235D01*
X0257202Y0182255D01*
X0257261Y0182271D01*
X0257320Y0182284D01*
X0257379Y0182293D01*
X0257440Y0182298D01*
X0257500Y0182300D01*
X0264500Y0182300D01*
X0264560Y0182298D01*
X0264621Y0182293D01*
X0264680Y0182284D01*
X0264739Y0182271D01*
X0264798Y0182255D01*
X0264855Y0182235D01*
X0264910Y0182212D01*
X0264965Y0182185D01*
X0265017Y0182156D01*
X0265068Y0182123D01*
X0265117Y0182087D01*
X0265163Y0182049D01*
X0265207Y0182007D01*
X0265249Y0181963D01*
X0265287Y0181917D01*
X0265323Y0181868D01*
X0265356Y0181817D01*
X0265385Y0181765D01*
X0265412Y0181710D01*
X0265435Y0181655D01*
X0265455Y0181598D01*
X0265471Y0181539D01*
X0265484Y0181480D01*
X0265493Y0181421D01*
X0265498Y0181360D01*
X0265500Y0181300D01*
X0265500Y0179800D01*
X0249000Y0194800D02*
X0233000Y0194800D01*
X0232940Y0194802D01*
X0232879Y0194807D01*
X0232820Y0194816D01*
X0232761Y0194829D01*
X0232702Y0194845D01*
X0232645Y0194865D01*
X0232590Y0194888D01*
X0232535Y0194915D01*
X0232483Y0194944D01*
X0232432Y0194977D01*
X0232383Y0195013D01*
X0232337Y0195051D01*
X0232293Y0195093D01*
X0232251Y0195137D01*
X0232213Y0195183D01*
X0232177Y0195232D01*
X0232144Y0195283D01*
X0232115Y0195335D01*
X0232088Y0195390D01*
X0232065Y0195445D01*
X0232045Y0195502D01*
X0232029Y0195561D01*
X0232016Y0195620D01*
X0232007Y0195679D01*
X0232002Y0195740D01*
X0232000Y0195800D01*
X0232000Y0201800D01*
X0232002Y0201860D01*
X0232007Y0201921D01*
X0232016Y0201980D01*
X0232029Y0202039D01*
X0232045Y0202098D01*
X0232065Y0202155D01*
X0232088Y0202210D01*
X0232115Y0202265D01*
X0232144Y0202317D01*
X0232177Y0202368D01*
X0232213Y0202417D01*
X0232251Y0202463D01*
X0232293Y0202507D01*
X0232337Y0202549D01*
X0232383Y0202587D01*
X0232432Y0202623D01*
X0232483Y0202656D01*
X0232535Y0202685D01*
X0232590Y0202712D01*
X0232645Y0202735D01*
X0232702Y0202755D01*
X0232761Y0202771D01*
X0232820Y0202784D01*
X0232879Y0202793D01*
X0232940Y0202798D01*
X0233000Y0202800D01*
X0249000Y0202800D01*
X0249060Y0202798D01*
X0249121Y0202793D01*
X0249180Y0202784D01*
X0249239Y0202771D01*
X0249298Y0202755D01*
X0249355Y0202735D01*
X0249410Y0202712D01*
X0249465Y0202685D01*
X0249517Y0202656D01*
X0249568Y0202623D01*
X0249617Y0202587D01*
X0249663Y0202549D01*
X0249707Y0202507D01*
X0249749Y0202463D01*
X0249787Y0202417D01*
X0249823Y0202368D01*
X0249856Y0202317D01*
X0249885Y0202265D01*
X0249912Y0202210D01*
X0249935Y0202155D01*
X0249955Y0202098D01*
X0249971Y0202039D01*
X0249984Y0201980D01*
X0249993Y0201921D01*
X0249998Y0201860D01*
X0250000Y0201800D01*
X0250000Y0195800D01*
X0249998Y0195740D01*
X0249993Y0195679D01*
X0249984Y0195620D01*
X0249971Y0195561D01*
X0249955Y0195502D01*
X0249935Y0195445D01*
X0249912Y0195390D01*
X0249885Y0195335D01*
X0249856Y0195283D01*
X0249823Y0195232D01*
X0249787Y0195183D01*
X0249749Y0195137D01*
X0249707Y0195093D01*
X0249663Y0195051D01*
X0249617Y0195013D01*
X0249568Y0194977D01*
X0249517Y0194944D01*
X0249465Y0194915D01*
X0249410Y0194888D01*
X0249355Y0194865D01*
X0249298Y0194845D01*
X0249239Y0194829D01*
X0249180Y0194816D01*
X0249121Y0194807D01*
X0249060Y0194802D01*
X0249000Y0194800D01*
X0245000Y0196300D02*
X0241000Y0198800D01*
X0241000Y0196300D01*
X0241000Y0198800D02*
X0241000Y0201300D01*
X0241000Y0198800D02*
X0245000Y0201300D01*
X0245000Y0196300D01*
X0247000Y0198800D02*
X0241000Y0198800D01*
X0238500Y0198800D01*
X0231000Y0206300D02*
X0231500Y0206800D01*
X0250500Y0206800D01*
X0251000Y0206300D01*
X0252500Y0206300D01*
X0252560Y0206302D01*
X0252621Y0206307D01*
X0252680Y0206316D01*
X0252739Y0206329D01*
X0252798Y0206345D01*
X0252855Y0206365D01*
X0252910Y0206388D01*
X0252965Y0206415D01*
X0253017Y0206444D01*
X0253068Y0206477D01*
X0253117Y0206513D01*
X0253163Y0206551D01*
X0253207Y0206593D01*
X0253249Y0206637D01*
X0253287Y0206683D01*
X0253323Y0206732D01*
X0253356Y0206783D01*
X0253385Y0206835D01*
X0253412Y0206890D01*
X0253435Y0206945D01*
X0253455Y0207002D01*
X0253471Y0207061D01*
X0253484Y0207120D01*
X0253493Y0207179D01*
X0253498Y0207240D01*
X0253500Y0207300D01*
X0253500Y0214300D01*
X0253498Y0214360D01*
X0253493Y0214421D01*
X0253484Y0214480D01*
X0253471Y0214539D01*
X0253455Y0214598D01*
X0253435Y0214655D01*
X0253412Y0214710D01*
X0253385Y0214765D01*
X0253356Y0214817D01*
X0253323Y0214868D01*
X0253287Y0214917D01*
X0253249Y0214963D01*
X0253207Y0215007D01*
X0253163Y0215049D01*
X0253117Y0215087D01*
X0253068Y0215123D01*
X0253017Y0215156D01*
X0252965Y0215185D01*
X0252910Y0215212D01*
X0252855Y0215235D01*
X0252798Y0215255D01*
X0252739Y0215271D01*
X0252680Y0215284D01*
X0252621Y0215293D01*
X0252560Y0215298D01*
X0252500Y0215300D01*
X0251000Y0215300D01*
X0250500Y0214800D01*
X0231500Y0214800D01*
X0231000Y0215300D01*
X0229500Y0215300D01*
X0229440Y0215298D01*
X0229379Y0215293D01*
X0229320Y0215284D01*
X0229261Y0215271D01*
X0229202Y0215255D01*
X0229145Y0215235D01*
X0229090Y0215212D01*
X0229035Y0215185D01*
X0228983Y0215156D01*
X0228932Y0215123D01*
X0228883Y0215087D01*
X0228837Y0215049D01*
X0228793Y0215007D01*
X0228751Y0214963D01*
X0228713Y0214917D01*
X0228677Y0214868D01*
X0228644Y0214817D01*
X0228615Y0214765D01*
X0228588Y0214710D01*
X0228565Y0214655D01*
X0228545Y0214598D01*
X0228529Y0214539D01*
X0228516Y0214480D01*
X0228507Y0214421D01*
X0228502Y0214360D01*
X0228500Y0214300D01*
X0228500Y0207300D01*
X0228502Y0207240D01*
X0228507Y0207179D01*
X0228516Y0207120D01*
X0228529Y0207061D01*
X0228545Y0207002D01*
X0228565Y0206945D01*
X0228588Y0206890D01*
X0228615Y0206835D01*
X0228644Y0206783D01*
X0228677Y0206732D01*
X0228713Y0206683D01*
X0228751Y0206637D01*
X0228793Y0206593D01*
X0228837Y0206551D01*
X0228883Y0206513D01*
X0228932Y0206477D01*
X0228983Y0206444D01*
X0229035Y0206415D01*
X0229090Y0206388D01*
X0229145Y0206365D01*
X0229202Y0206345D01*
X0229261Y0206329D01*
X0229320Y0206316D01*
X0229379Y0206307D01*
X0229440Y0206302D01*
X0229500Y0206300D01*
X0231000Y0206300D01*
X0231500Y0225300D02*
X0233000Y0225300D01*
X0233500Y0225800D01*
X0252500Y0225800D01*
X0253000Y0225300D01*
X0254500Y0225300D01*
X0254560Y0225302D01*
X0254621Y0225307D01*
X0254680Y0225316D01*
X0254739Y0225329D01*
X0254798Y0225345D01*
X0254855Y0225365D01*
X0254910Y0225388D01*
X0254965Y0225415D01*
X0255017Y0225444D01*
X0255068Y0225477D01*
X0255117Y0225513D01*
X0255163Y0225551D01*
X0255207Y0225593D01*
X0255249Y0225637D01*
X0255287Y0225683D01*
X0255323Y0225732D01*
X0255356Y0225783D01*
X0255385Y0225835D01*
X0255412Y0225890D01*
X0255435Y0225945D01*
X0255455Y0226002D01*
X0255471Y0226061D01*
X0255484Y0226120D01*
X0255493Y0226179D01*
X0255498Y0226240D01*
X0255500Y0226300D01*
X0255500Y0233300D01*
X0255498Y0233360D01*
X0255493Y0233421D01*
X0255484Y0233480D01*
X0255471Y0233539D01*
X0255455Y0233598D01*
X0255435Y0233655D01*
X0255412Y0233710D01*
X0255385Y0233765D01*
X0255356Y0233817D01*
X0255323Y0233868D01*
X0255287Y0233917D01*
X0255249Y0233963D01*
X0255207Y0234007D01*
X0255163Y0234049D01*
X0255117Y0234087D01*
X0255068Y0234123D01*
X0255017Y0234156D01*
X0254965Y0234185D01*
X0254910Y0234212D01*
X0254855Y0234235D01*
X0254798Y0234255D01*
X0254739Y0234271D01*
X0254680Y0234284D01*
X0254621Y0234293D01*
X0254560Y0234298D01*
X0254500Y0234300D01*
X0253000Y0234300D01*
X0252500Y0233800D01*
X0233500Y0233800D01*
X0233000Y0234300D01*
X0231500Y0234300D01*
X0231440Y0234298D01*
X0231379Y0234293D01*
X0231320Y0234284D01*
X0231261Y0234271D01*
X0231202Y0234255D01*
X0231145Y0234235D01*
X0231090Y0234212D01*
X0231035Y0234185D01*
X0230983Y0234156D01*
X0230932Y0234123D01*
X0230883Y0234087D01*
X0230837Y0234049D01*
X0230793Y0234007D01*
X0230751Y0233963D01*
X0230713Y0233917D01*
X0230677Y0233868D01*
X0230644Y0233817D01*
X0230615Y0233765D01*
X0230588Y0233710D01*
X0230565Y0233655D01*
X0230545Y0233598D01*
X0230529Y0233539D01*
X0230516Y0233480D01*
X0230507Y0233421D01*
X0230502Y0233360D01*
X0230500Y0233300D01*
X0230500Y0226300D01*
X0230502Y0226240D01*
X0230507Y0226179D01*
X0230516Y0226120D01*
X0230529Y0226061D01*
X0230545Y0226002D01*
X0230565Y0225945D01*
X0230588Y0225890D01*
X0230615Y0225835D01*
X0230644Y0225783D01*
X0230677Y0225732D01*
X0230713Y0225683D01*
X0230751Y0225637D01*
X0230793Y0225593D01*
X0230837Y0225551D01*
X0230883Y0225513D01*
X0230932Y0225477D01*
X0230983Y0225444D01*
X0231035Y0225415D01*
X0231090Y0225388D01*
X0231145Y0225365D01*
X0231202Y0225345D01*
X0231261Y0225329D01*
X0231320Y0225316D01*
X0231379Y0225307D01*
X0231440Y0225302D01*
X0231500Y0225300D01*
X0235000Y0238800D02*
X0251000Y0238800D01*
X0251060Y0238802D01*
X0251121Y0238807D01*
X0251180Y0238816D01*
X0251239Y0238829D01*
X0251298Y0238845D01*
X0251355Y0238865D01*
X0251410Y0238888D01*
X0251465Y0238915D01*
X0251517Y0238944D01*
X0251568Y0238977D01*
X0251617Y0239013D01*
X0251663Y0239051D01*
X0251707Y0239093D01*
X0251749Y0239137D01*
X0251787Y0239183D01*
X0251823Y0239232D01*
X0251856Y0239283D01*
X0251885Y0239335D01*
X0251912Y0239390D01*
X0251935Y0239445D01*
X0251955Y0239502D01*
X0251971Y0239561D01*
X0251984Y0239620D01*
X0251993Y0239679D01*
X0251998Y0239740D01*
X0252000Y0239800D01*
X0252000Y0245800D01*
X0251998Y0245860D01*
X0251993Y0245921D01*
X0251984Y0245980D01*
X0251971Y0246039D01*
X0251955Y0246098D01*
X0251935Y0246155D01*
X0251912Y0246210D01*
X0251885Y0246265D01*
X0251856Y0246317D01*
X0251823Y0246368D01*
X0251787Y0246417D01*
X0251749Y0246463D01*
X0251707Y0246507D01*
X0251663Y0246549D01*
X0251617Y0246587D01*
X0251568Y0246623D01*
X0251517Y0246656D01*
X0251465Y0246685D01*
X0251410Y0246712D01*
X0251355Y0246735D01*
X0251298Y0246755D01*
X0251239Y0246771D01*
X0251180Y0246784D01*
X0251121Y0246793D01*
X0251060Y0246798D01*
X0251000Y0246800D01*
X0235000Y0246800D01*
X0234940Y0246798D01*
X0234879Y0246793D01*
X0234820Y0246784D01*
X0234761Y0246771D01*
X0234702Y0246755D01*
X0234645Y0246735D01*
X0234590Y0246712D01*
X0234535Y0246685D01*
X0234483Y0246656D01*
X0234432Y0246623D01*
X0234383Y0246587D01*
X0234337Y0246549D01*
X0234293Y0246507D01*
X0234251Y0246463D01*
X0234213Y0246417D01*
X0234177Y0246368D01*
X0234144Y0246317D01*
X0234115Y0246265D01*
X0234088Y0246210D01*
X0234065Y0246155D01*
X0234045Y0246098D01*
X0234029Y0246039D01*
X0234016Y0245980D01*
X0234007Y0245921D01*
X0234002Y0245860D01*
X0234000Y0245800D01*
X0234000Y0239800D01*
X0234002Y0239740D01*
X0234007Y0239679D01*
X0234016Y0239620D01*
X0234029Y0239561D01*
X0234045Y0239502D01*
X0234065Y0239445D01*
X0234088Y0239390D01*
X0234115Y0239335D01*
X0234144Y0239283D01*
X0234177Y0239232D01*
X0234213Y0239183D01*
X0234251Y0239137D01*
X0234293Y0239093D01*
X0234337Y0239051D01*
X0234383Y0239013D01*
X0234432Y0238977D01*
X0234483Y0238944D01*
X0234535Y0238915D01*
X0234590Y0238888D01*
X0234645Y0238865D01*
X0234702Y0238845D01*
X0234761Y0238829D01*
X0234820Y0238816D01*
X0234879Y0238807D01*
X0234940Y0238802D01*
X0235000Y0238800D01*
X0239000Y0240300D02*
X0239000Y0245300D01*
X0243000Y0242800D01*
X0243000Y0245300D01*
X0243000Y0242800D02*
X0243000Y0240300D01*
X0243000Y0242800D02*
X0239000Y0240300D01*
X0237000Y0242800D02*
X0243000Y0242800D01*
X0245500Y0242800D01*
X0259500Y0261300D02*
X0266500Y0261300D01*
X0266560Y0261302D01*
X0266621Y0261307D01*
X0266680Y0261316D01*
X0266739Y0261329D01*
X0266798Y0261345D01*
X0266855Y0261365D01*
X0266910Y0261388D01*
X0266965Y0261415D01*
X0267017Y0261444D01*
X0267068Y0261477D01*
X0267117Y0261513D01*
X0267163Y0261551D01*
X0267207Y0261593D01*
X0267249Y0261637D01*
X0267287Y0261683D01*
X0267323Y0261732D01*
X0267356Y0261783D01*
X0267385Y0261835D01*
X0267412Y0261890D01*
X0267435Y0261945D01*
X0267455Y0262002D01*
X0267471Y0262061D01*
X0267484Y0262120D01*
X0267493Y0262179D01*
X0267498Y0262240D01*
X0267500Y0262300D01*
X0267500Y0263800D01*
X0267000Y0264300D01*
X0267000Y0283300D01*
X0267500Y0283800D01*
X0267500Y0285300D01*
X0267498Y0285360D01*
X0267493Y0285421D01*
X0267484Y0285480D01*
X0267471Y0285539D01*
X0267455Y0285598D01*
X0267435Y0285655D01*
X0267412Y0285710D01*
X0267385Y0285765D01*
X0267356Y0285817D01*
X0267323Y0285868D01*
X0267287Y0285917D01*
X0267249Y0285963D01*
X0267207Y0286007D01*
X0267163Y0286049D01*
X0267117Y0286087D01*
X0267068Y0286123D01*
X0267017Y0286156D01*
X0266965Y0286185D01*
X0266910Y0286212D01*
X0266855Y0286235D01*
X0266798Y0286255D01*
X0266739Y0286271D01*
X0266680Y0286284D01*
X0266621Y0286293D01*
X0266560Y0286298D01*
X0266500Y0286300D01*
X0259500Y0286300D01*
X0259440Y0286298D01*
X0259379Y0286293D01*
X0259320Y0286284D01*
X0259261Y0286271D01*
X0259202Y0286255D01*
X0259145Y0286235D01*
X0259090Y0286212D01*
X0259035Y0286185D01*
X0258983Y0286156D01*
X0258932Y0286123D01*
X0258883Y0286087D01*
X0258837Y0286049D01*
X0258793Y0286007D01*
X0258751Y0285963D01*
X0258713Y0285917D01*
X0258677Y0285868D01*
X0258644Y0285817D01*
X0258615Y0285765D01*
X0258588Y0285710D01*
X0258565Y0285655D01*
X0258545Y0285598D01*
X0258529Y0285539D01*
X0258516Y0285480D01*
X0258507Y0285421D01*
X0258502Y0285360D01*
X0258500Y0285300D01*
X0258500Y0283800D01*
X0259000Y0283300D01*
X0259000Y0264300D01*
X0258500Y0263800D01*
X0258500Y0262300D01*
X0258502Y0262240D01*
X0258507Y0262179D01*
X0258516Y0262120D01*
X0258529Y0262061D01*
X0258545Y0262002D01*
X0258565Y0261945D01*
X0258588Y0261890D01*
X0258615Y0261835D01*
X0258644Y0261783D01*
X0258677Y0261732D01*
X0258713Y0261683D01*
X0258751Y0261637D01*
X0258793Y0261593D01*
X0258837Y0261551D01*
X0258883Y0261513D01*
X0258932Y0261477D01*
X0258983Y0261444D01*
X0259035Y0261415D01*
X0259090Y0261388D01*
X0259145Y0261365D01*
X0259202Y0261345D01*
X0259261Y0261329D01*
X0259320Y0261316D01*
X0259379Y0261307D01*
X0259440Y0261302D01*
X0259500Y0261300D01*
X0207000Y0279300D02*
X0207000Y0306300D01*
X0206998Y0306360D01*
X0206993Y0306421D01*
X0206984Y0306480D01*
X0206971Y0306539D01*
X0206955Y0306598D01*
X0206935Y0306655D01*
X0206912Y0306710D01*
X0206885Y0306765D01*
X0206856Y0306817D01*
X0206823Y0306868D01*
X0206787Y0306917D01*
X0206749Y0306963D01*
X0206707Y0307007D01*
X0206663Y0307049D01*
X0206617Y0307087D01*
X0206568Y0307123D01*
X0206517Y0307156D01*
X0206465Y0307185D01*
X0206410Y0307212D01*
X0206355Y0307235D01*
X0206298Y0307255D01*
X0206239Y0307271D01*
X0206180Y0307284D01*
X0206121Y0307293D01*
X0206060Y0307298D01*
X0206000Y0307300D01*
X0186000Y0307300D01*
X0185940Y0307298D01*
X0185879Y0307293D01*
X0185820Y0307284D01*
X0185761Y0307271D01*
X0185702Y0307255D01*
X0185645Y0307235D01*
X0185590Y0307212D01*
X0185535Y0307185D01*
X0185483Y0307156D01*
X0185432Y0307123D01*
X0185383Y0307087D01*
X0185337Y0307049D01*
X0185293Y0307007D01*
X0185251Y0306963D01*
X0185213Y0306917D01*
X0185177Y0306868D01*
X0185144Y0306817D01*
X0185115Y0306765D01*
X0185088Y0306710D01*
X0185065Y0306655D01*
X0185045Y0306598D01*
X0185029Y0306539D01*
X0185016Y0306480D01*
X0185007Y0306421D01*
X0185002Y0306360D01*
X0185000Y0306300D01*
X0185000Y0279300D01*
X0185002Y0279240D01*
X0185007Y0279179D01*
X0185016Y0279120D01*
X0185029Y0279061D01*
X0185045Y0279002D01*
X0185065Y0278945D01*
X0185088Y0278890D01*
X0185115Y0278835D01*
X0185144Y0278783D01*
X0185177Y0278732D01*
X0185213Y0278683D01*
X0185251Y0278637D01*
X0185293Y0278593D01*
X0185337Y0278551D01*
X0185383Y0278513D01*
X0185432Y0278477D01*
X0185483Y0278444D01*
X0185535Y0278415D01*
X0185590Y0278388D01*
X0185645Y0278365D01*
X0185702Y0278345D01*
X0185761Y0278329D01*
X0185820Y0278316D01*
X0185879Y0278307D01*
X0185940Y0278302D01*
X0186000Y0278300D01*
X0206000Y0278300D01*
X0206060Y0278302D01*
X0206121Y0278307D01*
X0206180Y0278316D01*
X0206239Y0278329D01*
X0206298Y0278345D01*
X0206355Y0278365D01*
X0206410Y0278388D01*
X0206465Y0278415D01*
X0206517Y0278444D01*
X0206568Y0278477D01*
X0206617Y0278513D01*
X0206663Y0278551D01*
X0206707Y0278593D01*
X0206749Y0278637D01*
X0206787Y0278683D01*
X0206823Y0278732D01*
X0206856Y0278783D01*
X0206885Y0278835D01*
X0206912Y0278890D01*
X0206935Y0278945D01*
X0206955Y0279002D01*
X0206971Y0279061D01*
X0206984Y0279120D01*
X0206993Y0279179D01*
X0206998Y0279240D01*
X0207000Y0279300D01*
X0196000Y0286800D02*
X0196000Y0291600D01*
X0196000Y0294100D02*
X0196000Y0298800D01*
X0164000Y0301300D02*
X0164000Y0278300D01*
X0134000Y0278300D01*
X0134000Y0285800D01*
X0134126Y0285802D01*
X0134251Y0285808D01*
X0134376Y0285818D01*
X0134501Y0285832D01*
X0134626Y0285849D01*
X0134750Y0285871D01*
X0134873Y0285896D01*
X0134995Y0285926D01*
X0135116Y0285959D01*
X0135236Y0285996D01*
X0135355Y0286036D01*
X0135472Y0286081D01*
X0135589Y0286129D01*
X0135703Y0286181D01*
X0135816Y0286236D01*
X0135927Y0286295D01*
X0136036Y0286357D01*
X0136143Y0286423D01*
X0136248Y0286492D01*
X0136351Y0286564D01*
X0136452Y0286639D01*
X0136550Y0286718D01*
X0136645Y0286800D01*
X0136738Y0286884D01*
X0136828Y0286972D01*
X0136916Y0287062D01*
X0137000Y0287155D01*
X0137082Y0287250D01*
X0137161Y0287348D01*
X0137236Y0287449D01*
X0137308Y0287552D01*
X0137377Y0287657D01*
X0137443Y0287764D01*
X0137505Y0287873D01*
X0137564Y0287984D01*
X0137619Y0288097D01*
X0137671Y0288211D01*
X0137719Y0288328D01*
X0137764Y0288445D01*
X0137804Y0288564D01*
X0137841Y0288684D01*
X0137874Y0288805D01*
X0137904Y0288927D01*
X0137929Y0289050D01*
X0137951Y0289174D01*
X0137968Y0289299D01*
X0137982Y0289424D01*
X0137992Y0289549D01*
X0137998Y0289674D01*
X0138000Y0289800D01*
X0137998Y0289926D01*
X0137992Y0290051D01*
X0137982Y0290176D01*
X0137968Y0290301D01*
X0137951Y0290426D01*
X0137929Y0290550D01*
X0137904Y0290673D01*
X0137874Y0290795D01*
X0137841Y0290916D01*
X0137804Y0291036D01*
X0137764Y0291155D01*
X0137719Y0291272D01*
X0137671Y0291389D01*
X0137619Y0291503D01*
X0137564Y0291616D01*
X0137505Y0291727D01*
X0137443Y0291836D01*
X0137377Y0291943D01*
X0137308Y0292048D01*
X0137236Y0292151D01*
X0137161Y0292252D01*
X0137082Y0292350D01*
X0137000Y0292445D01*
X0136916Y0292538D01*
X0136828Y0292628D01*
X0136738Y0292716D01*
X0136645Y0292800D01*
X0136550Y0292882D01*
X0136452Y0292961D01*
X0136351Y0293036D01*
X0136248Y0293108D01*
X0136143Y0293177D01*
X0136036Y0293243D01*
X0135927Y0293305D01*
X0135816Y0293364D01*
X0135703Y0293419D01*
X0135589Y0293471D01*
X0135472Y0293519D01*
X0135355Y0293564D01*
X0135236Y0293604D01*
X0135116Y0293641D01*
X0134995Y0293674D01*
X0134873Y0293704D01*
X0134750Y0293729D01*
X0134626Y0293751D01*
X0134501Y0293768D01*
X0134376Y0293782D01*
X0134251Y0293792D01*
X0134126Y0293798D01*
X0134000Y0293800D01*
X0134000Y0301300D01*
X0164000Y0301300D01*
X0174500Y0265800D02*
X0201500Y0265800D01*
X0201560Y0265798D01*
X0201621Y0265793D01*
X0201680Y0265784D01*
X0201739Y0265771D01*
X0201798Y0265755D01*
X0201855Y0265735D01*
X0201910Y0265712D01*
X0201965Y0265685D01*
X0202017Y0265656D01*
X0202068Y0265623D01*
X0202117Y0265587D01*
X0202163Y0265549D01*
X0202207Y0265507D01*
X0202249Y0265463D01*
X0202287Y0265417D01*
X0202323Y0265368D01*
X0202356Y0265317D01*
X0202385Y0265265D01*
X0202412Y0265210D01*
X0202435Y0265155D01*
X0202455Y0265098D01*
X0202471Y0265039D01*
X0202484Y0264980D01*
X0202493Y0264921D01*
X0202498Y0264860D01*
X0202500Y0264800D01*
X0202500Y0244800D01*
X0202498Y0244740D01*
X0202493Y0244679D01*
X0202484Y0244620D01*
X0202471Y0244561D01*
X0202455Y0244502D01*
X0202435Y0244445D01*
X0202412Y0244390D01*
X0202385Y0244335D01*
X0202356Y0244283D01*
X0202323Y0244232D01*
X0202287Y0244183D01*
X0202249Y0244137D01*
X0202207Y0244093D01*
X0202163Y0244051D01*
X0202117Y0244013D01*
X0202068Y0243977D01*
X0202017Y0243944D01*
X0201965Y0243915D01*
X0201910Y0243888D01*
X0201855Y0243865D01*
X0201798Y0243845D01*
X0201739Y0243829D01*
X0201680Y0243816D01*
X0201621Y0243807D01*
X0201560Y0243802D01*
X0201500Y0243800D01*
X0174500Y0243800D01*
X0174440Y0243802D01*
X0174379Y0243807D01*
X0174320Y0243816D01*
X0174261Y0243829D01*
X0174202Y0243845D01*
X0174145Y0243865D01*
X0174090Y0243888D01*
X0174035Y0243915D01*
X0173983Y0243944D01*
X0173932Y0243977D01*
X0173883Y0244013D01*
X0173837Y0244051D01*
X0173793Y0244093D01*
X0173751Y0244137D01*
X0173713Y0244183D01*
X0173677Y0244232D01*
X0173644Y0244283D01*
X0173615Y0244335D01*
X0173588Y0244390D01*
X0173565Y0244445D01*
X0173545Y0244502D01*
X0173529Y0244561D01*
X0173516Y0244620D01*
X0173507Y0244679D01*
X0173502Y0244740D01*
X0173500Y0244800D01*
X0173500Y0264800D01*
X0173502Y0264860D01*
X0173507Y0264921D01*
X0173516Y0264980D01*
X0173529Y0265039D01*
X0173545Y0265098D01*
X0173565Y0265155D01*
X0173588Y0265210D01*
X0173615Y0265265D01*
X0173644Y0265317D01*
X0173677Y0265368D01*
X0173713Y0265417D01*
X0173751Y0265463D01*
X0173793Y0265507D01*
X0173837Y0265549D01*
X0173883Y0265587D01*
X0173932Y0265623D01*
X0173983Y0265656D01*
X0174035Y0265685D01*
X0174090Y0265712D01*
X0174145Y0265735D01*
X0174202Y0265755D01*
X0174261Y0265771D01*
X0174320Y0265784D01*
X0174379Y0265793D01*
X0174440Y0265798D01*
X0174500Y0265800D01*
X0182000Y0254800D02*
X0186800Y0254800D01*
X0189300Y0254800D02*
X0194000Y0254800D01*
X0143500Y0250300D02*
X0143500Y0248800D01*
X0143000Y0248300D01*
X0143000Y0229300D01*
X0143500Y0228800D01*
X0143500Y0227300D01*
X0143498Y0227240D01*
X0143493Y0227179D01*
X0143484Y0227120D01*
X0143471Y0227061D01*
X0143455Y0227002D01*
X0143435Y0226945D01*
X0143412Y0226890D01*
X0143385Y0226835D01*
X0143356Y0226783D01*
X0143323Y0226732D01*
X0143287Y0226683D01*
X0143249Y0226637D01*
X0143207Y0226593D01*
X0143163Y0226551D01*
X0143117Y0226513D01*
X0143068Y0226477D01*
X0143017Y0226444D01*
X0142965Y0226415D01*
X0142910Y0226388D01*
X0142855Y0226365D01*
X0142798Y0226345D01*
X0142739Y0226329D01*
X0142680Y0226316D01*
X0142621Y0226307D01*
X0142560Y0226302D01*
X0142500Y0226300D01*
X0135500Y0226300D01*
X0135440Y0226302D01*
X0135379Y0226307D01*
X0135320Y0226316D01*
X0135261Y0226329D01*
X0135202Y0226345D01*
X0135145Y0226365D01*
X0135090Y0226388D01*
X0135035Y0226415D01*
X0134983Y0226444D01*
X0134932Y0226477D01*
X0134883Y0226513D01*
X0134837Y0226551D01*
X0134793Y0226593D01*
X0134751Y0226637D01*
X0134713Y0226683D01*
X0134677Y0226732D01*
X0134644Y0226783D01*
X0134615Y0226835D01*
X0134588Y0226890D01*
X0134565Y0226945D01*
X0134545Y0227002D01*
X0134529Y0227061D01*
X0134516Y0227120D01*
X0134507Y0227179D01*
X0134502Y0227240D01*
X0134500Y0227300D01*
X0134500Y0228800D01*
X0135000Y0229300D01*
X0135000Y0248300D01*
X0134500Y0248800D01*
X0134500Y0250300D01*
X0134502Y0250360D01*
X0134507Y0250421D01*
X0134516Y0250480D01*
X0134529Y0250539D01*
X0134545Y0250598D01*
X0134565Y0250655D01*
X0134588Y0250710D01*
X0134615Y0250765D01*
X0134644Y0250817D01*
X0134677Y0250868D01*
X0134713Y0250917D01*
X0134751Y0250963D01*
X0134793Y0251007D01*
X0134837Y0251049D01*
X0134883Y0251087D01*
X0134932Y0251123D01*
X0134983Y0251156D01*
X0135035Y0251185D01*
X0135090Y0251212D01*
X0135145Y0251235D01*
X0135202Y0251255D01*
X0135261Y0251271D01*
X0135320Y0251284D01*
X0135379Y0251293D01*
X0135440Y0251298D01*
X0135500Y0251300D01*
X0142500Y0251300D01*
X0142560Y0251298D01*
X0142621Y0251293D01*
X0142680Y0251284D01*
X0142739Y0251271D01*
X0142798Y0251255D01*
X0142855Y0251235D01*
X0142910Y0251212D01*
X0142965Y0251185D01*
X0143017Y0251156D01*
X0143068Y0251123D01*
X0143117Y0251087D01*
X0143163Y0251049D01*
X0143207Y0251007D01*
X0143249Y0250963D01*
X0143287Y0250917D01*
X0143323Y0250868D01*
X0143356Y0250817D01*
X0143385Y0250765D01*
X0143412Y0250710D01*
X0143435Y0250655D01*
X0143455Y0250598D01*
X0143471Y0250539D01*
X0143484Y0250480D01*
X0143493Y0250421D01*
X0143498Y0250360D01*
X0143500Y0250300D01*
X0092496Y0233639D02*
X0053398Y0233639D01*
X0053398Y0313560D01*
X0092496Y0313560D01*
X0092496Y0233639D01*
X0128000Y0206300D02*
X0128000Y0179300D01*
X0128002Y0179240D01*
X0128007Y0179179D01*
X0128016Y0179120D01*
X0128029Y0179061D01*
X0128045Y0179002D01*
X0128065Y0178945D01*
X0128088Y0178890D01*
X0128115Y0178835D01*
X0128144Y0178783D01*
X0128177Y0178732D01*
X0128213Y0178683D01*
X0128251Y0178637D01*
X0128293Y0178593D01*
X0128337Y0178551D01*
X0128383Y0178513D01*
X0128432Y0178477D01*
X0128483Y0178444D01*
X0128535Y0178415D01*
X0128590Y0178388D01*
X0128645Y0178365D01*
X0128702Y0178345D01*
X0128761Y0178329D01*
X0128820Y0178316D01*
X0128879Y0178307D01*
X0128940Y0178302D01*
X0129000Y0178300D01*
X0149000Y0178300D01*
X0149060Y0178302D01*
X0149121Y0178307D01*
X0149180Y0178316D01*
X0149239Y0178329D01*
X0149298Y0178345D01*
X0149355Y0178365D01*
X0149410Y0178388D01*
X0149465Y0178415D01*
X0149517Y0178444D01*
X0149568Y0178477D01*
X0149617Y0178513D01*
X0149663Y0178551D01*
X0149707Y0178593D01*
X0149749Y0178637D01*
X0149787Y0178683D01*
X0149823Y0178732D01*
X0149856Y0178783D01*
X0149885Y0178835D01*
X0149912Y0178890D01*
X0149935Y0178945D01*
X0149955Y0179002D01*
X0149971Y0179061D01*
X0149984Y0179120D01*
X0149993Y0179179D01*
X0149998Y0179240D01*
X0150000Y0179300D01*
X0150000Y0206300D01*
X0149998Y0206360D01*
X0149993Y0206421D01*
X0149984Y0206480D01*
X0149971Y0206539D01*
X0149955Y0206598D01*
X0149935Y0206655D01*
X0149912Y0206710D01*
X0149885Y0206765D01*
X0149856Y0206817D01*
X0149823Y0206868D01*
X0149787Y0206917D01*
X0149749Y0206963D01*
X0149707Y0207007D01*
X0149663Y0207049D01*
X0149617Y0207087D01*
X0149568Y0207123D01*
X0149517Y0207156D01*
X0149465Y0207185D01*
X0149410Y0207212D01*
X0149355Y0207235D01*
X0149298Y0207255D01*
X0149239Y0207271D01*
X0149180Y0207284D01*
X0149121Y0207293D01*
X0149060Y0207298D01*
X0149000Y0207300D01*
X0129000Y0207300D01*
X0128940Y0207298D01*
X0128879Y0207293D01*
X0128820Y0207284D01*
X0128761Y0207271D01*
X0128702Y0207255D01*
X0128645Y0207235D01*
X0128590Y0207212D01*
X0128535Y0207185D01*
X0128483Y0207156D01*
X0128432Y0207123D01*
X0128383Y0207087D01*
X0128337Y0207049D01*
X0128293Y0207007D01*
X0128251Y0206963D01*
X0128213Y0206917D01*
X0128177Y0206868D01*
X0128144Y0206817D01*
X0128115Y0206765D01*
X0128088Y0206710D01*
X0128065Y0206655D01*
X0128045Y0206598D01*
X0128029Y0206539D01*
X0128016Y0206480D01*
X0128007Y0206421D01*
X0128002Y0206360D01*
X0128000Y0206300D01*
X0139000Y0198800D02*
X0139000Y0194100D01*
X0139000Y0191600D02*
X0139000Y0186800D01*
X0180000Y0159300D02*
X0200000Y0159300D01*
X0200060Y0159298D01*
X0200121Y0159293D01*
X0200180Y0159284D01*
X0200239Y0159271D01*
X0200298Y0159255D01*
X0200355Y0159235D01*
X0200410Y0159212D01*
X0200465Y0159185D01*
X0200517Y0159156D01*
X0200568Y0159123D01*
X0200617Y0159087D01*
X0200663Y0159049D01*
X0200707Y0159007D01*
X0200749Y0158963D01*
X0200787Y0158917D01*
X0200823Y0158868D01*
X0200856Y0158817D01*
X0200885Y0158765D01*
X0200912Y0158710D01*
X0200935Y0158655D01*
X0200955Y0158598D01*
X0200971Y0158539D01*
X0200984Y0158480D01*
X0200993Y0158421D01*
X0200998Y0158360D01*
X0201000Y0158300D01*
X0201000Y0131300D01*
X0200998Y0131240D01*
X0200993Y0131179D01*
X0200984Y0131120D01*
X0200971Y0131061D01*
X0200955Y0131002D01*
X0200935Y0130945D01*
X0200912Y0130890D01*
X0200885Y0130835D01*
X0200856Y0130783D01*
X0200823Y0130732D01*
X0200787Y0130683D01*
X0200749Y0130637D01*
X0200707Y0130593D01*
X0200663Y0130551D01*
X0200617Y0130513D01*
X0200568Y0130477D01*
X0200517Y0130444D01*
X0200465Y0130415D01*
X0200410Y0130388D01*
X0200355Y0130365D01*
X0200298Y0130345D01*
X0200239Y0130329D01*
X0200180Y0130316D01*
X0200121Y0130307D01*
X0200060Y0130302D01*
X0200000Y0130300D01*
X0180000Y0130300D01*
X0179940Y0130302D01*
X0179879Y0130307D01*
X0179820Y0130316D01*
X0179761Y0130329D01*
X0179702Y0130345D01*
X0179645Y0130365D01*
X0179590Y0130388D01*
X0179535Y0130415D01*
X0179483Y0130444D01*
X0179432Y0130477D01*
X0179383Y0130513D01*
X0179337Y0130551D01*
X0179293Y0130593D01*
X0179251Y0130637D01*
X0179213Y0130683D01*
X0179177Y0130732D01*
X0179144Y0130783D01*
X0179115Y0130835D01*
X0179088Y0130890D01*
X0179065Y0130945D01*
X0179045Y0131002D01*
X0179029Y0131061D01*
X0179016Y0131120D01*
X0179007Y0131179D01*
X0179002Y0131240D01*
X0179000Y0131300D01*
X0179000Y0158300D01*
X0179002Y0158360D01*
X0179007Y0158421D01*
X0179016Y0158480D01*
X0179029Y0158539D01*
X0179045Y0158598D01*
X0179065Y0158655D01*
X0179088Y0158710D01*
X0179115Y0158765D01*
X0179144Y0158817D01*
X0179177Y0158868D01*
X0179213Y0158917D01*
X0179251Y0158963D01*
X0179293Y0159007D01*
X0179337Y0159049D01*
X0179383Y0159087D01*
X0179432Y0159123D01*
X0179483Y0159156D01*
X0179535Y0159185D01*
X0179590Y0159212D01*
X0179645Y0159235D01*
X0179702Y0159255D01*
X0179761Y0159271D01*
X0179820Y0159284D01*
X0179879Y0159293D01*
X0179940Y0159298D01*
X0180000Y0159300D01*
X0190000Y0150800D02*
X0190000Y0146100D01*
X0190000Y0143600D02*
X0190000Y0138800D01*
X0152000Y0120300D02*
X0152000Y0097300D01*
X0122000Y0097300D01*
X0122000Y0104800D01*
X0122126Y0104802D01*
X0122251Y0104808D01*
X0122376Y0104818D01*
X0122501Y0104832D01*
X0122626Y0104849D01*
X0122750Y0104871D01*
X0122873Y0104896D01*
X0122995Y0104926D01*
X0123116Y0104959D01*
X0123236Y0104996D01*
X0123355Y0105036D01*
X0123472Y0105081D01*
X0123589Y0105129D01*
X0123703Y0105181D01*
X0123816Y0105236D01*
X0123927Y0105295D01*
X0124036Y0105357D01*
X0124143Y0105423D01*
X0124248Y0105492D01*
X0124351Y0105564D01*
X0124452Y0105639D01*
X0124550Y0105718D01*
X0124645Y0105800D01*
X0124738Y0105884D01*
X0124828Y0105972D01*
X0124916Y0106062D01*
X0125000Y0106155D01*
X0125082Y0106250D01*
X0125161Y0106348D01*
X0125236Y0106449D01*
X0125308Y0106552D01*
X0125377Y0106657D01*
X0125443Y0106764D01*
X0125505Y0106873D01*
X0125564Y0106984D01*
X0125619Y0107097D01*
X0125671Y0107211D01*
X0125719Y0107328D01*
X0125764Y0107445D01*
X0125804Y0107564D01*
X0125841Y0107684D01*
X0125874Y0107805D01*
X0125904Y0107927D01*
X0125929Y0108050D01*
X0125951Y0108174D01*
X0125968Y0108299D01*
X0125982Y0108424D01*
X0125992Y0108549D01*
X0125998Y0108674D01*
X0126000Y0108800D01*
X0125998Y0108926D01*
X0125992Y0109051D01*
X0125982Y0109176D01*
X0125968Y0109301D01*
X0125951Y0109426D01*
X0125929Y0109550D01*
X0125904Y0109673D01*
X0125874Y0109795D01*
X0125841Y0109916D01*
X0125804Y0110036D01*
X0125764Y0110155D01*
X0125719Y0110272D01*
X0125671Y0110389D01*
X0125619Y0110503D01*
X0125564Y0110616D01*
X0125505Y0110727D01*
X0125443Y0110836D01*
X0125377Y0110943D01*
X0125308Y0111048D01*
X0125236Y0111151D01*
X0125161Y0111252D01*
X0125082Y0111350D01*
X0125000Y0111445D01*
X0124916Y0111538D01*
X0124828Y0111628D01*
X0124738Y0111716D01*
X0124645Y0111800D01*
X0124550Y0111882D01*
X0124452Y0111961D01*
X0124351Y0112036D01*
X0124248Y0112108D01*
X0124143Y0112177D01*
X0124036Y0112243D01*
X0123927Y0112305D01*
X0123816Y0112364D01*
X0123703Y0112419D01*
X0123589Y0112471D01*
X0123472Y0112519D01*
X0123355Y0112564D01*
X0123236Y0112604D01*
X0123116Y0112641D01*
X0122995Y0112674D01*
X0122873Y0112704D01*
X0122750Y0112729D01*
X0122626Y0112751D01*
X0122501Y0112768D01*
X0122376Y0112782D01*
X0122251Y0112792D01*
X0122126Y0112798D01*
X0122000Y0112800D01*
X0122000Y0120300D01*
X0152000Y0120300D01*
X0174500Y0091800D02*
X0201500Y0091800D01*
X0201560Y0091798D01*
X0201621Y0091793D01*
X0201680Y0091784D01*
X0201739Y0091771D01*
X0201798Y0091755D01*
X0201855Y0091735D01*
X0201910Y0091712D01*
X0201965Y0091685D01*
X0202017Y0091656D01*
X0202068Y0091623D01*
X0202117Y0091587D01*
X0202163Y0091549D01*
X0202207Y0091507D01*
X0202249Y0091463D01*
X0202287Y0091417D01*
X0202323Y0091368D01*
X0202356Y0091317D01*
X0202385Y0091265D01*
X0202412Y0091210D01*
X0202435Y0091155D01*
X0202455Y0091098D01*
X0202471Y0091039D01*
X0202484Y0090980D01*
X0202493Y0090921D01*
X0202498Y0090860D01*
X0202500Y0090800D01*
X0202500Y0070800D01*
X0202498Y0070740D01*
X0202493Y0070679D01*
X0202484Y0070620D01*
X0202471Y0070561D01*
X0202455Y0070502D01*
X0202435Y0070445D01*
X0202412Y0070390D01*
X0202385Y0070335D01*
X0202356Y0070283D01*
X0202323Y0070232D01*
X0202287Y0070183D01*
X0202249Y0070137D01*
X0202207Y0070093D01*
X0202163Y0070051D01*
X0202117Y0070013D01*
X0202068Y0069977D01*
X0202017Y0069944D01*
X0201965Y0069915D01*
X0201910Y0069888D01*
X0201855Y0069865D01*
X0201798Y0069845D01*
X0201739Y0069829D01*
X0201680Y0069816D01*
X0201621Y0069807D01*
X0201560Y0069802D01*
X0201500Y0069800D01*
X0174500Y0069800D01*
X0174440Y0069802D01*
X0174379Y0069807D01*
X0174320Y0069816D01*
X0174261Y0069829D01*
X0174202Y0069845D01*
X0174145Y0069865D01*
X0174090Y0069888D01*
X0174035Y0069915D01*
X0173983Y0069944D01*
X0173932Y0069977D01*
X0173883Y0070013D01*
X0173837Y0070051D01*
X0173793Y0070093D01*
X0173751Y0070137D01*
X0173713Y0070183D01*
X0173677Y0070232D01*
X0173644Y0070283D01*
X0173615Y0070335D01*
X0173588Y0070390D01*
X0173565Y0070445D01*
X0173545Y0070502D01*
X0173529Y0070561D01*
X0173516Y0070620D01*
X0173507Y0070679D01*
X0173502Y0070740D01*
X0173500Y0070800D01*
X0173500Y0090800D01*
X0173502Y0090860D01*
X0173507Y0090921D01*
X0173516Y0090980D01*
X0173529Y0091039D01*
X0173545Y0091098D01*
X0173565Y0091155D01*
X0173588Y0091210D01*
X0173615Y0091265D01*
X0173644Y0091317D01*
X0173677Y0091368D01*
X0173713Y0091417D01*
X0173751Y0091463D01*
X0173793Y0091507D01*
X0173837Y0091549D01*
X0173883Y0091587D01*
X0173932Y0091623D01*
X0173983Y0091656D01*
X0174035Y0091685D01*
X0174090Y0091712D01*
X0174145Y0091735D01*
X0174202Y0091755D01*
X0174261Y0091771D01*
X0174320Y0091784D01*
X0174379Y0091793D01*
X0174440Y0091798D01*
X0174500Y0091800D01*
X0182000Y0080800D02*
X0186800Y0080800D01*
X0189300Y0080800D02*
X0194000Y0080800D01*
X0196000Y0044800D02*
X0244000Y0044800D01*
X0244087Y0044798D01*
X0244174Y0044792D01*
X0244261Y0044783D01*
X0244347Y0044770D01*
X0244433Y0044753D01*
X0244518Y0044732D01*
X0244601Y0044707D01*
X0244684Y0044679D01*
X0244765Y0044648D01*
X0244845Y0044613D01*
X0244923Y0044574D01*
X0245000Y0044532D01*
X0245075Y0044487D01*
X0245147Y0044438D01*
X0245218Y0044387D01*
X0245286Y0044332D01*
X0245351Y0044275D01*
X0245414Y0044214D01*
X0245475Y0044151D01*
X0245532Y0044086D01*
X0245587Y0044018D01*
X0245638Y0043947D01*
X0245687Y0043875D01*
X0245732Y0043800D01*
X0245774Y0043723D01*
X0245813Y0043645D01*
X0245848Y0043565D01*
X0245879Y0043484D01*
X0245907Y0043401D01*
X0245932Y0043318D01*
X0245953Y0043233D01*
X0245970Y0043147D01*
X0245983Y0043061D01*
X0245992Y0042974D01*
X0245998Y0042887D01*
X0246000Y0042800D01*
X0246000Y0022800D01*
X0245998Y0022713D01*
X0245992Y0022626D01*
X0245983Y0022539D01*
X0245970Y0022453D01*
X0245953Y0022367D01*
X0245932Y0022282D01*
X0245907Y0022199D01*
X0245879Y0022116D01*
X0245848Y0022035D01*
X0245813Y0021955D01*
X0245774Y0021877D01*
X0245732Y0021800D01*
X0245687Y0021725D01*
X0245638Y0021653D01*
X0245587Y0021582D01*
X0245532Y0021514D01*
X0245475Y0021449D01*
X0245414Y0021386D01*
X0245351Y0021325D01*
X0245286Y0021268D01*
X0245218Y0021213D01*
X0245147Y0021162D01*
X0245075Y0021113D01*
X0245000Y0021068D01*
X0244923Y0021026D01*
X0244845Y0020987D01*
X0244765Y0020952D01*
X0244684Y0020921D01*
X0244601Y0020893D01*
X0244518Y0020868D01*
X0244433Y0020847D01*
X0244347Y0020830D01*
X0244261Y0020817D01*
X0244174Y0020808D01*
X0244087Y0020802D01*
X0244000Y0020800D01*
X0196000Y0020800D01*
X0195913Y0020802D01*
X0195826Y0020808D01*
X0195739Y0020817D01*
X0195653Y0020830D01*
X0195567Y0020847D01*
X0195482Y0020868D01*
X0195399Y0020893D01*
X0195316Y0020921D01*
X0195235Y0020952D01*
X0195155Y0020987D01*
X0195077Y0021026D01*
X0195000Y0021068D01*
X0194925Y0021113D01*
X0194853Y0021162D01*
X0194782Y0021213D01*
X0194714Y0021268D01*
X0194649Y0021325D01*
X0194586Y0021386D01*
X0194525Y0021449D01*
X0194468Y0021514D01*
X0194413Y0021582D01*
X0194362Y0021653D01*
X0194313Y0021725D01*
X0194268Y0021800D01*
X0194226Y0021877D01*
X0194187Y0021955D01*
X0194152Y0022035D01*
X0194121Y0022116D01*
X0194093Y0022199D01*
X0194068Y0022282D01*
X0194047Y0022367D01*
X0194030Y0022453D01*
X0194017Y0022539D01*
X0194008Y0022626D01*
X0194002Y0022713D01*
X0194000Y0022800D01*
X0194000Y0042800D01*
X0194002Y0042887D01*
X0194008Y0042974D01*
X0194017Y0043061D01*
X0194030Y0043147D01*
X0194047Y0043233D01*
X0194068Y0043318D01*
X0194093Y0043401D01*
X0194121Y0043484D01*
X0194152Y0043565D01*
X0194187Y0043645D01*
X0194226Y0043723D01*
X0194268Y0043800D01*
X0194313Y0043875D01*
X0194362Y0043947D01*
X0194413Y0044018D01*
X0194468Y0044086D01*
X0194525Y0044151D01*
X0194586Y0044214D01*
X0194649Y0044275D01*
X0194714Y0044332D01*
X0194782Y0044387D01*
X0194853Y0044438D01*
X0194925Y0044487D01*
X0195000Y0044532D01*
X0195077Y0044574D01*
X0195155Y0044613D01*
X0195235Y0044648D01*
X0195316Y0044679D01*
X0195399Y0044707D01*
X0195482Y0044732D01*
X0195567Y0044753D01*
X0195653Y0044770D01*
X0195739Y0044783D01*
X0195826Y0044792D01*
X0195913Y0044798D01*
X0196000Y0044800D01*
X0205000Y0032800D02*
X0229000Y0032800D01*
X0232500Y0032800D02*
X0235000Y0032800D01*
X0258500Y0082300D02*
X0265500Y0082300D01*
X0265560Y0082302D01*
X0265621Y0082307D01*
X0265680Y0082316D01*
X0265739Y0082329D01*
X0265798Y0082345D01*
X0265855Y0082365D01*
X0265910Y0082388D01*
X0265965Y0082415D01*
X0266017Y0082444D01*
X0266068Y0082477D01*
X0266117Y0082513D01*
X0266163Y0082551D01*
X0266207Y0082593D01*
X0266249Y0082637D01*
X0266287Y0082683D01*
X0266323Y0082732D01*
X0266356Y0082783D01*
X0266385Y0082835D01*
X0266412Y0082890D01*
X0266435Y0082945D01*
X0266455Y0083002D01*
X0266471Y0083061D01*
X0266484Y0083120D01*
X0266493Y0083179D01*
X0266498Y0083240D01*
X0266500Y0083300D01*
X0266500Y0084800D01*
X0266000Y0085300D01*
X0266000Y0104300D01*
X0266500Y0104800D01*
X0266500Y0106300D01*
X0266498Y0106360D01*
X0266493Y0106421D01*
X0266484Y0106480D01*
X0266471Y0106539D01*
X0266455Y0106598D01*
X0266435Y0106655D01*
X0266412Y0106710D01*
X0266385Y0106765D01*
X0266356Y0106817D01*
X0266323Y0106868D01*
X0266287Y0106917D01*
X0266249Y0106963D01*
X0266207Y0107007D01*
X0266163Y0107049D01*
X0266117Y0107087D01*
X0266068Y0107123D01*
X0266017Y0107156D01*
X0265965Y0107185D01*
X0265910Y0107212D01*
X0265855Y0107235D01*
X0265798Y0107255D01*
X0265739Y0107271D01*
X0265680Y0107284D01*
X0265621Y0107293D01*
X0265560Y0107298D01*
X0265500Y0107300D01*
X0258500Y0107300D01*
X0258440Y0107298D01*
X0258379Y0107293D01*
X0258320Y0107284D01*
X0258261Y0107271D01*
X0258202Y0107255D01*
X0258145Y0107235D01*
X0258090Y0107212D01*
X0258035Y0107185D01*
X0257983Y0107156D01*
X0257932Y0107123D01*
X0257883Y0107087D01*
X0257837Y0107049D01*
X0257793Y0107007D01*
X0257751Y0106963D01*
X0257713Y0106917D01*
X0257677Y0106868D01*
X0257644Y0106817D01*
X0257615Y0106765D01*
X0257588Y0106710D01*
X0257565Y0106655D01*
X0257545Y0106598D01*
X0257529Y0106539D01*
X0257516Y0106480D01*
X0257507Y0106421D01*
X0257502Y0106360D01*
X0257500Y0106300D01*
X0257500Y0104800D01*
X0258000Y0104300D01*
X0258000Y0085300D01*
X0257500Y0084800D01*
X0257500Y0083300D01*
X0257502Y0083240D01*
X0257507Y0083179D01*
X0257516Y0083120D01*
X0257529Y0083061D01*
X0257545Y0083002D01*
X0257565Y0082945D01*
X0257588Y0082890D01*
X0257615Y0082835D01*
X0257644Y0082783D01*
X0257677Y0082732D01*
X0257713Y0082683D01*
X0257751Y0082637D01*
X0257793Y0082593D01*
X0257837Y0082551D01*
X0257883Y0082513D01*
X0257932Y0082477D01*
X0257983Y0082444D01*
X0258035Y0082415D01*
X0258090Y0082388D01*
X0258145Y0082365D01*
X0258202Y0082345D01*
X0258261Y0082329D01*
X0258320Y0082316D01*
X0258379Y0082307D01*
X0258440Y0082302D01*
X0258500Y0082300D01*
X0250000Y0119800D02*
X0234000Y0119800D01*
X0233940Y0119802D01*
X0233879Y0119807D01*
X0233820Y0119816D01*
X0233761Y0119829D01*
X0233702Y0119845D01*
X0233645Y0119865D01*
X0233590Y0119888D01*
X0233535Y0119915D01*
X0233483Y0119944D01*
X0233432Y0119977D01*
X0233383Y0120013D01*
X0233337Y0120051D01*
X0233293Y0120093D01*
X0233251Y0120137D01*
X0233213Y0120183D01*
X0233177Y0120232D01*
X0233144Y0120283D01*
X0233115Y0120335D01*
X0233088Y0120390D01*
X0233065Y0120445D01*
X0233045Y0120502D01*
X0233029Y0120561D01*
X0233016Y0120620D01*
X0233007Y0120679D01*
X0233002Y0120740D01*
X0233000Y0120800D01*
X0233000Y0126800D01*
X0233002Y0126860D01*
X0233007Y0126921D01*
X0233016Y0126980D01*
X0233029Y0127039D01*
X0233045Y0127098D01*
X0233065Y0127155D01*
X0233088Y0127210D01*
X0233115Y0127265D01*
X0233144Y0127317D01*
X0233177Y0127368D01*
X0233213Y0127417D01*
X0233251Y0127463D01*
X0233293Y0127507D01*
X0233337Y0127549D01*
X0233383Y0127587D01*
X0233432Y0127623D01*
X0233483Y0127656D01*
X0233535Y0127685D01*
X0233590Y0127712D01*
X0233645Y0127735D01*
X0233702Y0127755D01*
X0233761Y0127771D01*
X0233820Y0127784D01*
X0233879Y0127793D01*
X0233940Y0127798D01*
X0234000Y0127800D01*
X0250000Y0127800D01*
X0250060Y0127798D01*
X0250121Y0127793D01*
X0250180Y0127784D01*
X0250239Y0127771D01*
X0250298Y0127755D01*
X0250355Y0127735D01*
X0250410Y0127712D01*
X0250465Y0127685D01*
X0250517Y0127656D01*
X0250568Y0127623D01*
X0250617Y0127587D01*
X0250663Y0127549D01*
X0250707Y0127507D01*
X0250749Y0127463D01*
X0250787Y0127417D01*
X0250823Y0127368D01*
X0250856Y0127317D01*
X0250885Y0127265D01*
X0250912Y0127210D01*
X0250935Y0127155D01*
X0250955Y0127098D01*
X0250971Y0127039D01*
X0250984Y0126980D01*
X0250993Y0126921D01*
X0250998Y0126860D01*
X0251000Y0126800D01*
X0251000Y0120800D01*
X0250998Y0120740D01*
X0250993Y0120679D01*
X0250984Y0120620D01*
X0250971Y0120561D01*
X0250955Y0120502D01*
X0250935Y0120445D01*
X0250912Y0120390D01*
X0250885Y0120335D01*
X0250856Y0120283D01*
X0250823Y0120232D01*
X0250787Y0120183D01*
X0250749Y0120137D01*
X0250707Y0120093D01*
X0250663Y0120051D01*
X0250617Y0120013D01*
X0250568Y0119977D01*
X0250517Y0119944D01*
X0250465Y0119915D01*
X0250410Y0119888D01*
X0250355Y0119865D01*
X0250298Y0119845D01*
X0250239Y0119829D01*
X0250180Y0119816D01*
X0250121Y0119807D01*
X0250060Y0119802D01*
X0250000Y0119800D01*
X0246000Y0121300D02*
X0242000Y0123800D01*
X0242000Y0121300D01*
X0242000Y0123800D02*
X0242000Y0126300D01*
X0242000Y0123800D02*
X0246000Y0126300D01*
X0246000Y0121300D01*
X0248000Y0123800D02*
X0242000Y0123800D01*
X0239500Y0123800D01*
X0232500Y0130800D02*
X0251500Y0130800D01*
X0252000Y0130300D01*
X0253500Y0130300D01*
X0253560Y0130302D01*
X0253621Y0130307D01*
X0253680Y0130316D01*
X0253739Y0130329D01*
X0253798Y0130345D01*
X0253855Y0130365D01*
X0253910Y0130388D01*
X0253965Y0130415D01*
X0254017Y0130444D01*
X0254068Y0130477D01*
X0254117Y0130513D01*
X0254163Y0130551D01*
X0254207Y0130593D01*
X0254249Y0130637D01*
X0254287Y0130683D01*
X0254323Y0130732D01*
X0254356Y0130783D01*
X0254385Y0130835D01*
X0254412Y0130890D01*
X0254435Y0130945D01*
X0254455Y0131002D01*
X0254471Y0131061D01*
X0254484Y0131120D01*
X0254493Y0131179D01*
X0254498Y0131240D01*
X0254500Y0131300D01*
X0254500Y0138300D01*
X0254498Y0138360D01*
X0254493Y0138421D01*
X0254484Y0138480D01*
X0254471Y0138539D01*
X0254455Y0138598D01*
X0254435Y0138655D01*
X0254412Y0138710D01*
X0254385Y0138765D01*
X0254356Y0138817D01*
X0254323Y0138868D01*
X0254287Y0138917D01*
X0254249Y0138963D01*
X0254207Y0139007D01*
X0254163Y0139049D01*
X0254117Y0139087D01*
X0254068Y0139123D01*
X0254017Y0139156D01*
X0253965Y0139185D01*
X0253910Y0139212D01*
X0253855Y0139235D01*
X0253798Y0139255D01*
X0253739Y0139271D01*
X0253680Y0139284D01*
X0253621Y0139293D01*
X0253560Y0139298D01*
X0253500Y0139300D01*
X0252000Y0139300D01*
X0251500Y0138800D01*
X0232500Y0138800D01*
X0232000Y0139300D01*
X0230500Y0139300D01*
X0230440Y0139298D01*
X0230379Y0139293D01*
X0230320Y0139284D01*
X0230261Y0139271D01*
X0230202Y0139255D01*
X0230145Y0139235D01*
X0230090Y0139212D01*
X0230035Y0139185D01*
X0229983Y0139156D01*
X0229932Y0139123D01*
X0229883Y0139087D01*
X0229837Y0139049D01*
X0229793Y0139007D01*
X0229751Y0138963D01*
X0229713Y0138917D01*
X0229677Y0138868D01*
X0229644Y0138817D01*
X0229615Y0138765D01*
X0229588Y0138710D01*
X0229565Y0138655D01*
X0229545Y0138598D01*
X0229529Y0138539D01*
X0229516Y0138480D01*
X0229507Y0138421D01*
X0229502Y0138360D01*
X0229500Y0138300D01*
X0229500Y0131300D01*
X0229502Y0131240D01*
X0229507Y0131179D01*
X0229516Y0131120D01*
X0229529Y0131061D01*
X0229545Y0131002D01*
X0229565Y0130945D01*
X0229588Y0130890D01*
X0229615Y0130835D01*
X0229644Y0130783D01*
X0229677Y0130732D01*
X0229713Y0130683D01*
X0229751Y0130637D01*
X0229793Y0130593D01*
X0229837Y0130551D01*
X0229883Y0130513D01*
X0229932Y0130477D01*
X0229983Y0130444D01*
X0230035Y0130415D01*
X0230090Y0130388D01*
X0230145Y0130365D01*
X0230202Y0130345D01*
X0230261Y0130329D01*
X0230320Y0130316D01*
X0230379Y0130307D01*
X0230440Y0130302D01*
X0230500Y0130300D01*
X0232000Y0130300D01*
X0232500Y0130800D01*
X0323500Y0106300D02*
X0323500Y0104800D01*
X0324000Y0104300D01*
X0324000Y0085300D01*
X0323500Y0084800D01*
X0323500Y0083300D01*
X0323502Y0083240D01*
X0323507Y0083179D01*
X0323516Y0083120D01*
X0323529Y0083061D01*
X0323545Y0083002D01*
X0323565Y0082945D01*
X0323588Y0082890D01*
X0323615Y0082835D01*
X0323644Y0082783D01*
X0323677Y0082732D01*
X0323713Y0082683D01*
X0323751Y0082637D01*
X0323793Y0082593D01*
X0323837Y0082551D01*
X0323883Y0082513D01*
X0323932Y0082477D01*
X0323983Y0082444D01*
X0324035Y0082415D01*
X0324090Y0082388D01*
X0324145Y0082365D01*
X0324202Y0082345D01*
X0324261Y0082329D01*
X0324320Y0082316D01*
X0324379Y0082307D01*
X0324440Y0082302D01*
X0324500Y0082300D01*
X0331500Y0082300D01*
X0331560Y0082302D01*
X0331621Y0082307D01*
X0331680Y0082316D01*
X0331739Y0082329D01*
X0331798Y0082345D01*
X0331855Y0082365D01*
X0331910Y0082388D01*
X0331965Y0082415D01*
X0332017Y0082444D01*
X0332068Y0082477D01*
X0332117Y0082513D01*
X0332163Y0082551D01*
X0332207Y0082593D01*
X0332249Y0082637D01*
X0332287Y0082683D01*
X0332323Y0082732D01*
X0332356Y0082783D01*
X0332385Y0082835D01*
X0332412Y0082890D01*
X0332435Y0082945D01*
X0332455Y0083002D01*
X0332471Y0083061D01*
X0332484Y0083120D01*
X0332493Y0083179D01*
X0332498Y0083240D01*
X0332500Y0083300D01*
X0332500Y0084800D01*
X0332000Y0085300D01*
X0332000Y0104300D01*
X0332500Y0104800D01*
X0332500Y0106300D01*
X0332498Y0106360D01*
X0332493Y0106421D01*
X0332484Y0106480D01*
X0332471Y0106539D01*
X0332455Y0106598D01*
X0332435Y0106655D01*
X0332412Y0106710D01*
X0332385Y0106765D01*
X0332356Y0106817D01*
X0332323Y0106868D01*
X0332287Y0106917D01*
X0332249Y0106963D01*
X0332207Y0107007D01*
X0332163Y0107049D01*
X0332117Y0107087D01*
X0332068Y0107123D01*
X0332017Y0107156D01*
X0331965Y0107185D01*
X0331910Y0107212D01*
X0331855Y0107235D01*
X0331798Y0107255D01*
X0331739Y0107271D01*
X0331680Y0107284D01*
X0331621Y0107293D01*
X0331560Y0107298D01*
X0331500Y0107300D01*
X0324500Y0107300D01*
X0324440Y0107298D01*
X0324379Y0107293D01*
X0324320Y0107284D01*
X0324261Y0107271D01*
X0324202Y0107255D01*
X0324145Y0107235D01*
X0324090Y0107212D01*
X0324035Y0107185D01*
X0323983Y0107156D01*
X0323932Y0107123D01*
X0323883Y0107087D01*
X0323837Y0107049D01*
X0323793Y0107007D01*
X0323751Y0106963D01*
X0323713Y0106917D01*
X0323677Y0106868D01*
X0323644Y0106817D01*
X0323615Y0106765D01*
X0323588Y0106710D01*
X0323565Y0106655D01*
X0323545Y0106598D01*
X0323529Y0106539D01*
X0323516Y0106480D01*
X0323507Y0106421D01*
X0323502Y0106360D01*
X0323500Y0106300D01*
X0324500Y0245300D02*
X0331500Y0245300D01*
X0331560Y0245302D01*
X0331621Y0245307D01*
X0331680Y0245316D01*
X0331739Y0245329D01*
X0331798Y0245345D01*
X0331855Y0245365D01*
X0331910Y0245388D01*
X0331965Y0245415D01*
X0332017Y0245444D01*
X0332068Y0245477D01*
X0332117Y0245513D01*
X0332163Y0245551D01*
X0332207Y0245593D01*
X0332249Y0245637D01*
X0332287Y0245683D01*
X0332323Y0245732D01*
X0332356Y0245783D01*
X0332385Y0245835D01*
X0332412Y0245890D01*
X0332435Y0245945D01*
X0332455Y0246002D01*
X0332471Y0246061D01*
X0332484Y0246120D01*
X0332493Y0246179D01*
X0332498Y0246240D01*
X0332500Y0246300D01*
X0332500Y0247800D01*
X0332000Y0248300D01*
X0332000Y0267300D01*
X0332500Y0267800D01*
X0332500Y0269300D01*
X0332498Y0269360D01*
X0332493Y0269421D01*
X0332484Y0269480D01*
X0332471Y0269539D01*
X0332455Y0269598D01*
X0332435Y0269655D01*
X0332412Y0269710D01*
X0332385Y0269765D01*
X0332356Y0269817D01*
X0332323Y0269868D01*
X0332287Y0269917D01*
X0332249Y0269963D01*
X0332207Y0270007D01*
X0332163Y0270049D01*
X0332117Y0270087D01*
X0332068Y0270123D01*
X0332017Y0270156D01*
X0331965Y0270185D01*
X0331910Y0270212D01*
X0331855Y0270235D01*
X0331798Y0270255D01*
X0331739Y0270271D01*
X0331680Y0270284D01*
X0331621Y0270293D01*
X0331560Y0270298D01*
X0331500Y0270300D01*
X0324500Y0270300D01*
X0324440Y0270298D01*
X0324379Y0270293D01*
X0324320Y0270284D01*
X0324261Y0270271D01*
X0324202Y0270255D01*
X0324145Y0270235D01*
X0324090Y0270212D01*
X0324035Y0270185D01*
X0323983Y0270156D01*
X0323932Y0270123D01*
X0323883Y0270087D01*
X0323837Y0270049D01*
X0323793Y0270007D01*
X0323751Y0269963D01*
X0323713Y0269917D01*
X0323677Y0269868D01*
X0323644Y0269817D01*
X0323615Y0269765D01*
X0323588Y0269710D01*
X0323565Y0269655D01*
X0323545Y0269598D01*
X0323529Y0269539D01*
X0323516Y0269480D01*
X0323507Y0269421D01*
X0323502Y0269360D01*
X0323500Y0269300D01*
X0323500Y0267800D01*
X0324000Y0267300D01*
X0324000Y0248300D01*
X0323500Y0247800D01*
X0323500Y0246300D01*
X0323502Y0246240D01*
X0323507Y0246179D01*
X0323516Y0246120D01*
X0323529Y0246061D01*
X0323545Y0246002D01*
X0323565Y0245945D01*
X0323588Y0245890D01*
X0323615Y0245835D01*
X0323644Y0245783D01*
X0323677Y0245732D01*
X0323713Y0245683D01*
X0323751Y0245637D01*
X0323793Y0245593D01*
X0323837Y0245551D01*
X0323883Y0245513D01*
X0323932Y0245477D01*
X0323983Y0245444D01*
X0324035Y0245415D01*
X0324090Y0245388D01*
X0324145Y0245365D01*
X0324202Y0245345D01*
X0324261Y0245329D01*
X0324320Y0245316D01*
X0324379Y0245307D01*
X0324440Y0245302D01*
X0324500Y0245300D01*
X0374000Y0265800D02*
X0374000Y0301800D01*
X0388000Y0301800D01*
X0388000Y0265800D01*
X0374000Y0265800D01*
X0362000Y0325800D02*
X0348000Y0325800D01*
X0348000Y0361800D01*
X0362000Y0361800D01*
X0362000Y0325800D01*
X0332500Y0342300D02*
X0332500Y0343800D01*
X0332000Y0344300D01*
X0332000Y0363300D01*
X0332500Y0363800D01*
X0332500Y0365300D01*
X0332498Y0365360D01*
X0332493Y0365421D01*
X0332484Y0365480D01*
X0332471Y0365539D01*
X0332455Y0365598D01*
X0332435Y0365655D01*
X0332412Y0365710D01*
X0332385Y0365765D01*
X0332356Y0365817D01*
X0332323Y0365868D01*
X0332287Y0365917D01*
X0332249Y0365963D01*
X0332207Y0366007D01*
X0332163Y0366049D01*
X0332117Y0366087D01*
X0332068Y0366123D01*
X0332017Y0366156D01*
X0331965Y0366185D01*
X0331910Y0366212D01*
X0331855Y0366235D01*
X0331798Y0366255D01*
X0331739Y0366271D01*
X0331680Y0366284D01*
X0331621Y0366293D01*
X0331560Y0366298D01*
X0331500Y0366300D01*
X0324500Y0366300D01*
X0324440Y0366298D01*
X0324379Y0366293D01*
X0324320Y0366284D01*
X0324261Y0366271D01*
X0324202Y0366255D01*
X0324145Y0366235D01*
X0324090Y0366212D01*
X0324035Y0366185D01*
X0323983Y0366156D01*
X0323932Y0366123D01*
X0323883Y0366087D01*
X0323837Y0366049D01*
X0323793Y0366007D01*
X0323751Y0365963D01*
X0323713Y0365917D01*
X0323677Y0365868D01*
X0323644Y0365817D01*
X0323615Y0365765D01*
X0323588Y0365710D01*
X0323565Y0365655D01*
X0323545Y0365598D01*
X0323529Y0365539D01*
X0323516Y0365480D01*
X0323507Y0365421D01*
X0323502Y0365360D01*
X0323500Y0365300D01*
X0323500Y0363800D01*
X0324000Y0363300D01*
X0324000Y0344300D01*
X0323500Y0343800D01*
X0323500Y0342300D01*
X0323502Y0342240D01*
X0323507Y0342179D01*
X0323516Y0342120D01*
X0323529Y0342061D01*
X0323545Y0342002D01*
X0323565Y0341945D01*
X0323588Y0341890D01*
X0323615Y0341835D01*
X0323644Y0341783D01*
X0323677Y0341732D01*
X0323713Y0341683D01*
X0323751Y0341637D01*
X0323793Y0341593D01*
X0323837Y0341551D01*
X0323883Y0341513D01*
X0323932Y0341477D01*
X0323983Y0341444D01*
X0324035Y0341415D01*
X0324090Y0341388D01*
X0324145Y0341365D01*
X0324202Y0341345D01*
X0324261Y0341329D01*
X0324320Y0341316D01*
X0324379Y0341307D01*
X0324440Y0341302D01*
X0324500Y0341300D01*
X0331500Y0341300D01*
X0331560Y0341302D01*
X0331621Y0341307D01*
X0331680Y0341316D01*
X0331739Y0341329D01*
X0331798Y0341345D01*
X0331855Y0341365D01*
X0331910Y0341388D01*
X0331965Y0341415D01*
X0332017Y0341444D01*
X0332068Y0341477D01*
X0332117Y0341513D01*
X0332163Y0341551D01*
X0332207Y0341593D01*
X0332249Y0341637D01*
X0332287Y0341683D01*
X0332323Y0341732D01*
X0332356Y0341783D01*
X0332385Y0341835D01*
X0332412Y0341890D01*
X0332435Y0341945D01*
X0332455Y0342002D01*
X0332471Y0342061D01*
X0332484Y0342120D01*
X0332493Y0342179D01*
X0332498Y0342240D01*
X0332500Y0342300D01*
X0267500Y0342300D02*
X0267500Y0343800D01*
X0267000Y0344300D01*
X0267000Y0363300D01*
X0267500Y0363800D01*
X0267500Y0365300D01*
X0267498Y0365360D01*
X0267493Y0365421D01*
X0267484Y0365480D01*
X0267471Y0365539D01*
X0267455Y0365598D01*
X0267435Y0365655D01*
X0267412Y0365710D01*
X0267385Y0365765D01*
X0267356Y0365817D01*
X0267323Y0365868D01*
X0267287Y0365917D01*
X0267249Y0365963D01*
X0267207Y0366007D01*
X0267163Y0366049D01*
X0267117Y0366087D01*
X0267068Y0366123D01*
X0267017Y0366156D01*
X0266965Y0366185D01*
X0266910Y0366212D01*
X0266855Y0366235D01*
X0266798Y0366255D01*
X0266739Y0366271D01*
X0266680Y0366284D01*
X0266621Y0366293D01*
X0266560Y0366298D01*
X0266500Y0366300D01*
X0259500Y0366300D01*
X0259440Y0366298D01*
X0259379Y0366293D01*
X0259320Y0366284D01*
X0259261Y0366271D01*
X0259202Y0366255D01*
X0259145Y0366235D01*
X0259090Y0366212D01*
X0259035Y0366185D01*
X0258983Y0366156D01*
X0258932Y0366123D01*
X0258883Y0366087D01*
X0258837Y0366049D01*
X0258793Y0366007D01*
X0258751Y0365963D01*
X0258713Y0365917D01*
X0258677Y0365868D01*
X0258644Y0365817D01*
X0258615Y0365765D01*
X0258588Y0365710D01*
X0258565Y0365655D01*
X0258545Y0365598D01*
X0258529Y0365539D01*
X0258516Y0365480D01*
X0258507Y0365421D01*
X0258502Y0365360D01*
X0258500Y0365300D01*
X0258500Y0363800D01*
X0259000Y0363300D01*
X0259000Y0344300D01*
X0258500Y0343800D01*
X0258500Y0342300D01*
X0258502Y0342240D01*
X0258507Y0342179D01*
X0258516Y0342120D01*
X0258529Y0342061D01*
X0258545Y0342002D01*
X0258565Y0341945D01*
X0258588Y0341890D01*
X0258615Y0341835D01*
X0258644Y0341783D01*
X0258677Y0341732D01*
X0258713Y0341683D01*
X0258751Y0341637D01*
X0258793Y0341593D01*
X0258837Y0341551D01*
X0258883Y0341513D01*
X0258932Y0341477D01*
X0258983Y0341444D01*
X0259035Y0341415D01*
X0259090Y0341388D01*
X0259145Y0341365D01*
X0259202Y0341345D01*
X0259261Y0341329D01*
X0259320Y0341316D01*
X0259379Y0341307D01*
X0259440Y0341302D01*
X0259500Y0341300D01*
X0266500Y0341300D01*
X0266560Y0341302D01*
X0266621Y0341307D01*
X0266680Y0341316D01*
X0266739Y0341329D01*
X0266798Y0341345D01*
X0266855Y0341365D01*
X0266910Y0341388D01*
X0266965Y0341415D01*
X0267017Y0341444D01*
X0267068Y0341477D01*
X0267117Y0341513D01*
X0267163Y0341551D01*
X0267207Y0341593D01*
X0267249Y0341637D01*
X0267287Y0341683D01*
X0267323Y0341732D01*
X0267356Y0341783D01*
X0267385Y0341835D01*
X0267412Y0341890D01*
X0267435Y0341945D01*
X0267455Y0342002D01*
X0267471Y0342061D01*
X0267484Y0342120D01*
X0267493Y0342179D01*
X0267498Y0342240D01*
X0267500Y0342300D01*
X0251000Y0326800D02*
X0235000Y0326800D01*
X0234940Y0326798D01*
X0234879Y0326793D01*
X0234820Y0326784D01*
X0234761Y0326771D01*
X0234702Y0326755D01*
X0234645Y0326735D01*
X0234590Y0326712D01*
X0234535Y0326685D01*
X0234483Y0326656D01*
X0234432Y0326623D01*
X0234383Y0326587D01*
X0234337Y0326549D01*
X0234293Y0326507D01*
X0234251Y0326463D01*
X0234213Y0326417D01*
X0234177Y0326368D01*
X0234144Y0326317D01*
X0234115Y0326265D01*
X0234088Y0326210D01*
X0234065Y0326155D01*
X0234045Y0326098D01*
X0234029Y0326039D01*
X0234016Y0325980D01*
X0234007Y0325921D01*
X0234002Y0325860D01*
X0234000Y0325800D01*
X0234000Y0319800D01*
X0234002Y0319740D01*
X0234007Y0319679D01*
X0234016Y0319620D01*
X0234029Y0319561D01*
X0234045Y0319502D01*
X0234065Y0319445D01*
X0234088Y0319390D01*
X0234115Y0319335D01*
X0234144Y0319283D01*
X0234177Y0319232D01*
X0234213Y0319183D01*
X0234251Y0319137D01*
X0234293Y0319093D01*
X0234337Y0319051D01*
X0234383Y0319013D01*
X0234432Y0318977D01*
X0234483Y0318944D01*
X0234535Y0318915D01*
X0234590Y0318888D01*
X0234645Y0318865D01*
X0234702Y0318845D01*
X0234761Y0318829D01*
X0234820Y0318816D01*
X0234879Y0318807D01*
X0234940Y0318802D01*
X0235000Y0318800D01*
X0251000Y0318800D01*
X0251060Y0318802D01*
X0251121Y0318807D01*
X0251180Y0318816D01*
X0251239Y0318829D01*
X0251298Y0318845D01*
X0251355Y0318865D01*
X0251410Y0318888D01*
X0251465Y0318915D01*
X0251517Y0318944D01*
X0251568Y0318977D01*
X0251617Y0319013D01*
X0251663Y0319051D01*
X0251707Y0319093D01*
X0251749Y0319137D01*
X0251787Y0319183D01*
X0251823Y0319232D01*
X0251856Y0319283D01*
X0251885Y0319335D01*
X0251912Y0319390D01*
X0251935Y0319445D01*
X0251955Y0319502D01*
X0251971Y0319561D01*
X0251984Y0319620D01*
X0251993Y0319679D01*
X0251998Y0319740D01*
X0252000Y0319800D01*
X0252000Y0325800D01*
X0251998Y0325860D01*
X0251993Y0325921D01*
X0251984Y0325980D01*
X0251971Y0326039D01*
X0251955Y0326098D01*
X0251935Y0326155D01*
X0251912Y0326210D01*
X0251885Y0326265D01*
X0251856Y0326317D01*
X0251823Y0326368D01*
X0251787Y0326417D01*
X0251749Y0326463D01*
X0251707Y0326507D01*
X0251663Y0326549D01*
X0251617Y0326587D01*
X0251568Y0326623D01*
X0251517Y0326656D01*
X0251465Y0326685D01*
X0251410Y0326712D01*
X0251355Y0326735D01*
X0251298Y0326755D01*
X0251239Y0326771D01*
X0251180Y0326784D01*
X0251121Y0326793D01*
X0251060Y0326798D01*
X0251000Y0326800D01*
X0245500Y0322800D02*
X0243000Y0322800D01*
X0243000Y0325300D01*
X0243000Y0322800D02*
X0243000Y0320300D01*
X0243000Y0322800D02*
X0239000Y0320300D01*
X0239000Y0325300D01*
X0243000Y0322800D01*
X0237000Y0322800D01*
X0233000Y0315300D02*
X0233500Y0314800D01*
X0252500Y0314800D01*
X0253000Y0315300D01*
X0254500Y0315300D01*
X0254560Y0315298D01*
X0254621Y0315293D01*
X0254680Y0315284D01*
X0254739Y0315271D01*
X0254798Y0315255D01*
X0254855Y0315235D01*
X0254910Y0315212D01*
X0254965Y0315185D01*
X0255017Y0315156D01*
X0255068Y0315123D01*
X0255117Y0315087D01*
X0255163Y0315049D01*
X0255207Y0315007D01*
X0255249Y0314963D01*
X0255287Y0314917D01*
X0255323Y0314868D01*
X0255356Y0314817D01*
X0255385Y0314765D01*
X0255412Y0314710D01*
X0255435Y0314655D01*
X0255455Y0314598D01*
X0255471Y0314539D01*
X0255484Y0314480D01*
X0255493Y0314421D01*
X0255498Y0314360D01*
X0255500Y0314300D01*
X0255500Y0307300D01*
X0255498Y0307240D01*
X0255493Y0307179D01*
X0255484Y0307120D01*
X0255471Y0307061D01*
X0255455Y0307002D01*
X0255435Y0306945D01*
X0255412Y0306890D01*
X0255385Y0306835D01*
X0255356Y0306783D01*
X0255323Y0306732D01*
X0255287Y0306683D01*
X0255249Y0306637D01*
X0255207Y0306593D01*
X0255163Y0306551D01*
X0255117Y0306513D01*
X0255068Y0306477D01*
X0255017Y0306444D01*
X0254965Y0306415D01*
X0254910Y0306388D01*
X0254855Y0306365D01*
X0254798Y0306345D01*
X0254739Y0306329D01*
X0254680Y0306316D01*
X0254621Y0306307D01*
X0254560Y0306302D01*
X0254500Y0306300D01*
X0253000Y0306300D01*
X0252500Y0306800D01*
X0233500Y0306800D01*
X0233000Y0306300D01*
X0231500Y0306300D01*
X0231440Y0306302D01*
X0231379Y0306307D01*
X0231320Y0306316D01*
X0231261Y0306329D01*
X0231202Y0306345D01*
X0231145Y0306365D01*
X0231090Y0306388D01*
X0231035Y0306415D01*
X0230983Y0306444D01*
X0230932Y0306477D01*
X0230883Y0306513D01*
X0230837Y0306551D01*
X0230793Y0306593D01*
X0230751Y0306637D01*
X0230713Y0306683D01*
X0230677Y0306732D01*
X0230644Y0306783D01*
X0230615Y0306835D01*
X0230588Y0306890D01*
X0230565Y0306945D01*
X0230545Y0307002D01*
X0230529Y0307061D01*
X0230516Y0307120D01*
X0230507Y0307179D01*
X0230502Y0307240D01*
X0230500Y0307300D01*
X0230500Y0314300D01*
X0230502Y0314360D01*
X0230507Y0314421D01*
X0230516Y0314480D01*
X0230529Y0314539D01*
X0230545Y0314598D01*
X0230565Y0314655D01*
X0230588Y0314710D01*
X0230615Y0314765D01*
X0230644Y0314817D01*
X0230677Y0314868D01*
X0230713Y0314917D01*
X0230751Y0314963D01*
X0230793Y0315007D01*
X0230837Y0315049D01*
X0230883Y0315087D01*
X0230932Y0315123D01*
X0230983Y0315156D01*
X0231035Y0315185D01*
X0231090Y0315212D01*
X0231145Y0315235D01*
X0231202Y0315255D01*
X0231261Y0315271D01*
X0231320Y0315284D01*
X0231379Y0315293D01*
X0231440Y0315298D01*
X0231500Y0315300D01*
X0233000Y0315300D01*
X0246000Y0394800D02*
X0198000Y0394800D01*
X0197913Y0394802D01*
X0197826Y0394808D01*
X0197739Y0394817D01*
X0197653Y0394830D01*
X0197567Y0394847D01*
X0197482Y0394868D01*
X0197399Y0394893D01*
X0197316Y0394921D01*
X0197235Y0394952D01*
X0197155Y0394987D01*
X0197077Y0395026D01*
X0197000Y0395068D01*
X0196925Y0395113D01*
X0196853Y0395162D01*
X0196782Y0395213D01*
X0196714Y0395268D01*
X0196649Y0395325D01*
X0196586Y0395386D01*
X0196525Y0395449D01*
X0196468Y0395514D01*
X0196413Y0395582D01*
X0196362Y0395653D01*
X0196313Y0395725D01*
X0196268Y0395800D01*
X0196226Y0395877D01*
X0196187Y0395955D01*
X0196152Y0396035D01*
X0196121Y0396116D01*
X0196093Y0396199D01*
X0196068Y0396282D01*
X0196047Y0396367D01*
X0196030Y0396453D01*
X0196017Y0396539D01*
X0196008Y0396626D01*
X0196002Y0396713D01*
X0196000Y0396800D01*
X0196000Y0416800D01*
X0196002Y0416887D01*
X0196008Y0416974D01*
X0196017Y0417061D01*
X0196030Y0417147D01*
X0196047Y0417233D01*
X0196068Y0417318D01*
X0196093Y0417401D01*
X0196121Y0417484D01*
X0196152Y0417565D01*
X0196187Y0417645D01*
X0196226Y0417723D01*
X0196268Y0417800D01*
X0196313Y0417875D01*
X0196362Y0417947D01*
X0196413Y0418018D01*
X0196468Y0418086D01*
X0196525Y0418151D01*
X0196586Y0418214D01*
X0196649Y0418275D01*
X0196714Y0418332D01*
X0196782Y0418387D01*
X0196853Y0418438D01*
X0196925Y0418487D01*
X0197000Y0418532D01*
X0197077Y0418574D01*
X0197155Y0418613D01*
X0197235Y0418648D01*
X0197316Y0418679D01*
X0197399Y0418707D01*
X0197482Y0418732D01*
X0197567Y0418753D01*
X0197653Y0418770D01*
X0197739Y0418783D01*
X0197826Y0418792D01*
X0197913Y0418798D01*
X0198000Y0418800D01*
X0246000Y0418800D01*
X0246087Y0418798D01*
X0246174Y0418792D01*
X0246261Y0418783D01*
X0246347Y0418770D01*
X0246433Y0418753D01*
X0246518Y0418732D01*
X0246601Y0418707D01*
X0246684Y0418679D01*
X0246765Y0418648D01*
X0246845Y0418613D01*
X0246923Y0418574D01*
X0247000Y0418532D01*
X0247075Y0418487D01*
X0247147Y0418438D01*
X0247218Y0418387D01*
X0247286Y0418332D01*
X0247351Y0418275D01*
X0247414Y0418214D01*
X0247475Y0418151D01*
X0247532Y0418086D01*
X0247587Y0418018D01*
X0247638Y0417947D01*
X0247687Y0417875D01*
X0247732Y0417800D01*
X0247774Y0417723D01*
X0247813Y0417645D01*
X0247848Y0417565D01*
X0247879Y0417484D01*
X0247907Y0417401D01*
X0247932Y0417318D01*
X0247953Y0417233D01*
X0247970Y0417147D01*
X0247983Y0417061D01*
X0247992Y0416974D01*
X0247998Y0416887D01*
X0248000Y0416800D01*
X0248000Y0396800D01*
X0247998Y0396713D01*
X0247992Y0396626D01*
X0247983Y0396539D01*
X0247970Y0396453D01*
X0247953Y0396367D01*
X0247932Y0396282D01*
X0247907Y0396199D01*
X0247879Y0396116D01*
X0247848Y0396035D01*
X0247813Y0395955D01*
X0247774Y0395877D01*
X0247732Y0395800D01*
X0247687Y0395725D01*
X0247638Y0395653D01*
X0247587Y0395582D01*
X0247532Y0395514D01*
X0247475Y0395449D01*
X0247414Y0395386D01*
X0247351Y0395325D01*
X0247286Y0395268D01*
X0247218Y0395213D01*
X0247147Y0395162D01*
X0247075Y0395113D01*
X0247000Y0395068D01*
X0246923Y0395026D01*
X0246845Y0394987D01*
X0246765Y0394952D01*
X0246684Y0394921D01*
X0246601Y0394893D01*
X0246518Y0394868D01*
X0246433Y0394847D01*
X0246347Y0394830D01*
X0246261Y0394817D01*
X0246174Y0394808D01*
X0246087Y0394802D01*
X0246000Y0394800D01*
X0237000Y0406800D02*
X0234500Y0406800D01*
X0231000Y0406800D02*
X0207000Y0406800D01*
X0082000Y0342800D02*
X0082000Y0336800D01*
X0081998Y0336740D01*
X0081993Y0336679D01*
X0081984Y0336620D01*
X0081971Y0336561D01*
X0081955Y0336502D01*
X0081935Y0336445D01*
X0081912Y0336390D01*
X0081885Y0336335D01*
X0081856Y0336283D01*
X0081823Y0336232D01*
X0081787Y0336183D01*
X0081749Y0336137D01*
X0081707Y0336093D01*
X0081663Y0336051D01*
X0081617Y0336013D01*
X0081568Y0335977D01*
X0081517Y0335944D01*
X0081465Y0335915D01*
X0081410Y0335888D01*
X0081355Y0335865D01*
X0081298Y0335845D01*
X0081239Y0335829D01*
X0081180Y0335816D01*
X0081121Y0335807D01*
X0081060Y0335802D01*
X0081000Y0335800D01*
X0065000Y0335800D01*
X0064940Y0335802D01*
X0064879Y0335807D01*
X0064820Y0335816D01*
X0064761Y0335829D01*
X0064702Y0335845D01*
X0064645Y0335865D01*
X0064590Y0335888D01*
X0064535Y0335915D01*
X0064483Y0335944D01*
X0064432Y0335977D01*
X0064383Y0336013D01*
X0064337Y0336051D01*
X0064293Y0336093D01*
X0064251Y0336137D01*
X0064213Y0336183D01*
X0064177Y0336232D01*
X0064144Y0336283D01*
X0064115Y0336335D01*
X0064088Y0336390D01*
X0064065Y0336445D01*
X0064045Y0336502D01*
X0064029Y0336561D01*
X0064016Y0336620D01*
X0064007Y0336679D01*
X0064002Y0336740D01*
X0064000Y0336800D01*
X0064000Y0342800D01*
X0064002Y0342860D01*
X0064007Y0342921D01*
X0064016Y0342980D01*
X0064029Y0343039D01*
X0064045Y0343098D01*
X0064065Y0343155D01*
X0064088Y0343210D01*
X0064115Y0343265D01*
X0064144Y0343317D01*
X0064177Y0343368D01*
X0064213Y0343417D01*
X0064251Y0343463D01*
X0064293Y0343507D01*
X0064337Y0343549D01*
X0064383Y0343587D01*
X0064432Y0343623D01*
X0064483Y0343656D01*
X0064535Y0343685D01*
X0064590Y0343712D01*
X0064645Y0343735D01*
X0064702Y0343755D01*
X0064761Y0343771D01*
X0064820Y0343784D01*
X0064879Y0343793D01*
X0064940Y0343798D01*
X0065000Y0343800D01*
X0081000Y0343800D01*
X0081060Y0343798D01*
X0081121Y0343793D01*
X0081180Y0343784D01*
X0081239Y0343771D01*
X0081298Y0343755D01*
X0081355Y0343735D01*
X0081410Y0343712D01*
X0081465Y0343685D01*
X0081517Y0343656D01*
X0081568Y0343623D01*
X0081617Y0343587D01*
X0081663Y0343549D01*
X0081707Y0343507D01*
X0081749Y0343463D01*
X0081787Y0343417D01*
X0081823Y0343368D01*
X0081856Y0343317D01*
X0081885Y0343265D01*
X0081912Y0343210D01*
X0081935Y0343155D01*
X0081955Y0343098D01*
X0081971Y0343039D01*
X0081984Y0342980D01*
X0081993Y0342921D01*
X0081998Y0342860D01*
X0082000Y0342800D01*
X0079000Y0339800D02*
X0073000Y0339800D01*
X0073000Y0337300D01*
X0073000Y0339800D02*
X0073000Y0342300D01*
X0073000Y0339800D02*
X0077000Y0342300D01*
X0077000Y0337300D01*
X0073000Y0339800D01*
X0070500Y0339800D01*
X0034000Y0343300D02*
X0034000Y0316300D01*
X0033998Y0316240D01*
X0033993Y0316179D01*
X0033984Y0316120D01*
X0033971Y0316061D01*
X0033955Y0316002D01*
X0033935Y0315945D01*
X0033912Y0315890D01*
X0033885Y0315835D01*
X0033856Y0315783D01*
X0033823Y0315732D01*
X0033787Y0315683D01*
X0033749Y0315637D01*
X0033707Y0315593D01*
X0033663Y0315551D01*
X0033617Y0315513D01*
X0033568Y0315477D01*
X0033517Y0315444D01*
X0033465Y0315415D01*
X0033410Y0315388D01*
X0033355Y0315365D01*
X0033298Y0315345D01*
X0033239Y0315329D01*
X0033180Y0315316D01*
X0033121Y0315307D01*
X0033060Y0315302D01*
X0033000Y0315300D01*
X0023000Y0315300D01*
X0022940Y0315302D01*
X0022879Y0315307D01*
X0022820Y0315316D01*
X0022761Y0315329D01*
X0022702Y0315345D01*
X0022645Y0315365D01*
X0022590Y0315388D01*
X0022535Y0315415D01*
X0022483Y0315444D01*
X0022432Y0315477D01*
X0022383Y0315513D01*
X0022337Y0315551D01*
X0022293Y0315593D01*
X0022251Y0315637D01*
X0022213Y0315683D01*
X0022177Y0315732D01*
X0022144Y0315783D01*
X0022115Y0315835D01*
X0022088Y0315890D01*
X0022065Y0315945D01*
X0022045Y0316002D01*
X0022029Y0316061D01*
X0022016Y0316120D01*
X0022007Y0316179D01*
X0022002Y0316240D01*
X0022000Y0316300D01*
X0022000Y0343300D01*
X0022002Y0343360D01*
X0022007Y0343421D01*
X0022016Y0343480D01*
X0022029Y0343539D01*
X0022045Y0343598D01*
X0022065Y0343655D01*
X0022088Y0343710D01*
X0022115Y0343765D01*
X0022144Y0343817D01*
X0022177Y0343868D01*
X0022213Y0343917D01*
X0022251Y0343963D01*
X0022293Y0344007D01*
X0022337Y0344049D01*
X0022383Y0344087D01*
X0022432Y0344123D01*
X0022483Y0344156D01*
X0022535Y0344185D01*
X0022590Y0344212D01*
X0022645Y0344235D01*
X0022702Y0344255D01*
X0022761Y0344271D01*
X0022820Y0344284D01*
X0022879Y0344293D01*
X0022940Y0344298D01*
X0023000Y0344300D01*
X0033000Y0344300D01*
X0033060Y0344298D01*
X0033121Y0344293D01*
X0033180Y0344284D01*
X0033239Y0344271D01*
X0033298Y0344255D01*
X0033355Y0344235D01*
X0033410Y0344212D01*
X0033465Y0344185D01*
X0033517Y0344156D01*
X0033568Y0344123D01*
X0033617Y0344087D01*
X0033663Y0344049D01*
X0033707Y0344007D01*
X0033749Y0343963D01*
X0033787Y0343917D01*
X0033823Y0343868D01*
X0033856Y0343817D01*
X0033885Y0343765D01*
X0033912Y0343710D01*
X0033935Y0343655D01*
X0033955Y0343598D01*
X0033971Y0343539D01*
X0033984Y0343480D01*
X0033993Y0343421D01*
X0033998Y0343360D01*
X0034000Y0343300D01*
X0028000Y0335800D02*
X0028000Y0331000D01*
X0028000Y0328500D02*
X0028000Y0323800D01*
X0061500Y0157800D02*
X0069000Y0157800D01*
X0069002Y0157674D01*
X0069008Y0157549D01*
X0069018Y0157424D01*
X0069032Y0157299D01*
X0069049Y0157174D01*
X0069071Y0157050D01*
X0069096Y0156927D01*
X0069126Y0156805D01*
X0069159Y0156684D01*
X0069196Y0156564D01*
X0069236Y0156445D01*
X0069281Y0156328D01*
X0069329Y0156211D01*
X0069381Y0156097D01*
X0069436Y0155984D01*
X0069495Y0155873D01*
X0069557Y0155764D01*
X0069623Y0155657D01*
X0069692Y0155552D01*
X0069764Y0155449D01*
X0069839Y0155348D01*
X0069918Y0155250D01*
X0070000Y0155155D01*
X0070084Y0155062D01*
X0070172Y0154972D01*
X0070262Y0154884D01*
X0070355Y0154800D01*
X0070450Y0154718D01*
X0070548Y0154639D01*
X0070649Y0154564D01*
X0070752Y0154492D01*
X0070857Y0154423D01*
X0070964Y0154357D01*
X0071073Y0154295D01*
X0071184Y0154236D01*
X0071297Y0154181D01*
X0071411Y0154129D01*
X0071528Y0154081D01*
X0071645Y0154036D01*
X0071764Y0153996D01*
X0071884Y0153959D01*
X0072005Y0153926D01*
X0072127Y0153896D01*
X0072250Y0153871D01*
X0072374Y0153849D01*
X0072499Y0153832D01*
X0072624Y0153818D01*
X0072749Y0153808D01*
X0072874Y0153802D01*
X0073000Y0153800D01*
X0073126Y0153802D01*
X0073251Y0153808D01*
X0073376Y0153818D01*
X0073501Y0153832D01*
X0073626Y0153849D01*
X0073750Y0153871D01*
X0073873Y0153896D01*
X0073995Y0153926D01*
X0074116Y0153959D01*
X0074236Y0153996D01*
X0074355Y0154036D01*
X0074472Y0154081D01*
X0074589Y0154129D01*
X0074703Y0154181D01*
X0074816Y0154236D01*
X0074927Y0154295D01*
X0075036Y0154357D01*
X0075143Y0154423D01*
X0075248Y0154492D01*
X0075351Y0154564D01*
X0075452Y0154639D01*
X0075550Y0154718D01*
X0075645Y0154800D01*
X0075738Y0154884D01*
X0075828Y0154972D01*
X0075916Y0155062D01*
X0076000Y0155155D01*
X0076082Y0155250D01*
X0076161Y0155348D01*
X0076236Y0155449D01*
X0076308Y0155552D01*
X0076377Y0155657D01*
X0076443Y0155764D01*
X0076505Y0155873D01*
X0076564Y0155984D01*
X0076619Y0156097D01*
X0076671Y0156211D01*
X0076719Y0156328D01*
X0076764Y0156445D01*
X0076804Y0156564D01*
X0076841Y0156684D01*
X0076874Y0156805D01*
X0076904Y0156927D01*
X0076929Y0157050D01*
X0076951Y0157174D01*
X0076968Y0157299D01*
X0076982Y0157424D01*
X0076992Y0157549D01*
X0076998Y0157674D01*
X0077000Y0157800D01*
X0084500Y0157800D01*
X0084500Y0117800D01*
X0061500Y0117800D01*
X0061500Y0157800D01*
X0077000Y0102300D02*
X0097000Y0102300D01*
X0097060Y0102298D01*
X0097121Y0102293D01*
X0097180Y0102284D01*
X0097239Y0102271D01*
X0097298Y0102255D01*
X0097355Y0102235D01*
X0097410Y0102212D01*
X0097465Y0102185D01*
X0097517Y0102156D01*
X0097568Y0102123D01*
X0097617Y0102087D01*
X0097663Y0102049D01*
X0097707Y0102007D01*
X0097749Y0101963D01*
X0097787Y0101917D01*
X0097823Y0101868D01*
X0097856Y0101817D01*
X0097885Y0101765D01*
X0097912Y0101710D01*
X0097935Y0101655D01*
X0097955Y0101598D01*
X0097971Y0101539D01*
X0097984Y0101480D01*
X0097993Y0101421D01*
X0097998Y0101360D01*
X0098000Y0101300D01*
X0098000Y0074300D01*
X0097998Y0074240D01*
X0097993Y0074179D01*
X0097984Y0074120D01*
X0097971Y0074061D01*
X0097955Y0074002D01*
X0097935Y0073945D01*
X0097912Y0073890D01*
X0097885Y0073835D01*
X0097856Y0073783D01*
X0097823Y0073732D01*
X0097787Y0073683D01*
X0097749Y0073637D01*
X0097707Y0073593D01*
X0097663Y0073551D01*
X0097617Y0073513D01*
X0097568Y0073477D01*
X0097517Y0073444D01*
X0097465Y0073415D01*
X0097410Y0073388D01*
X0097355Y0073365D01*
X0097298Y0073345D01*
X0097239Y0073329D01*
X0097180Y0073316D01*
X0097121Y0073307D01*
X0097060Y0073302D01*
X0097000Y0073300D01*
X0077000Y0073300D01*
X0076940Y0073302D01*
X0076879Y0073307D01*
X0076820Y0073316D01*
X0076761Y0073329D01*
X0076702Y0073345D01*
X0076645Y0073365D01*
X0076590Y0073388D01*
X0076535Y0073415D01*
X0076483Y0073444D01*
X0076432Y0073477D01*
X0076383Y0073513D01*
X0076337Y0073551D01*
X0076293Y0073593D01*
X0076251Y0073637D01*
X0076213Y0073683D01*
X0076177Y0073732D01*
X0076144Y0073783D01*
X0076115Y0073835D01*
X0076088Y0073890D01*
X0076065Y0073945D01*
X0076045Y0074002D01*
X0076029Y0074061D01*
X0076016Y0074120D01*
X0076007Y0074179D01*
X0076002Y0074240D01*
X0076000Y0074300D01*
X0076000Y0101300D01*
X0076002Y0101360D01*
X0076007Y0101421D01*
X0076016Y0101480D01*
X0076029Y0101539D01*
X0076045Y0101598D01*
X0076065Y0101655D01*
X0076088Y0101710D01*
X0076115Y0101765D01*
X0076144Y0101817D01*
X0076177Y0101868D01*
X0076213Y0101917D01*
X0076251Y0101963D01*
X0076293Y0102007D01*
X0076337Y0102049D01*
X0076383Y0102087D01*
X0076432Y0102123D01*
X0076483Y0102156D01*
X0076535Y0102185D01*
X0076590Y0102212D01*
X0076645Y0102235D01*
X0076702Y0102255D01*
X0076761Y0102271D01*
X0076820Y0102284D01*
X0076879Y0102293D01*
X0076940Y0102298D01*
X0077000Y0102300D01*
X0087000Y0093800D02*
X0087000Y0089000D01*
X0087000Y0086500D02*
X0087000Y0081800D01*
X0095500Y0063300D02*
X0097000Y0063300D01*
X0097500Y0062800D01*
X0116500Y0062800D01*
X0117000Y0063300D01*
X0118500Y0063300D01*
X0118560Y0063298D01*
X0118621Y0063293D01*
X0118680Y0063284D01*
X0118739Y0063271D01*
X0118798Y0063255D01*
X0118855Y0063235D01*
X0118910Y0063212D01*
X0118965Y0063185D01*
X0119017Y0063156D01*
X0119068Y0063123D01*
X0119117Y0063087D01*
X0119163Y0063049D01*
X0119207Y0063007D01*
X0119249Y0062963D01*
X0119287Y0062917D01*
X0119323Y0062868D01*
X0119356Y0062817D01*
X0119385Y0062765D01*
X0119412Y0062710D01*
X0119435Y0062655D01*
X0119455Y0062598D01*
X0119471Y0062539D01*
X0119484Y0062480D01*
X0119493Y0062421D01*
X0119498Y0062360D01*
X0119500Y0062300D01*
X0119500Y0055300D01*
X0119498Y0055240D01*
X0119493Y0055179D01*
X0119484Y0055120D01*
X0119471Y0055061D01*
X0119455Y0055002D01*
X0119435Y0054945D01*
X0119412Y0054890D01*
X0119385Y0054835D01*
X0119356Y0054783D01*
X0119323Y0054732D01*
X0119287Y0054683D01*
X0119249Y0054637D01*
X0119207Y0054593D01*
X0119163Y0054551D01*
X0119117Y0054513D01*
X0119068Y0054477D01*
X0119017Y0054444D01*
X0118965Y0054415D01*
X0118910Y0054388D01*
X0118855Y0054365D01*
X0118798Y0054345D01*
X0118739Y0054329D01*
X0118680Y0054316D01*
X0118621Y0054307D01*
X0118560Y0054302D01*
X0118500Y0054300D01*
X0117000Y0054300D01*
X0116500Y0054800D01*
X0097500Y0054800D01*
X0097000Y0054300D01*
X0095500Y0054300D01*
X0095440Y0054302D01*
X0095379Y0054307D01*
X0095320Y0054316D01*
X0095261Y0054329D01*
X0095202Y0054345D01*
X0095145Y0054365D01*
X0095090Y0054388D01*
X0095035Y0054415D01*
X0094983Y0054444D01*
X0094932Y0054477D01*
X0094883Y0054513D01*
X0094837Y0054551D01*
X0094793Y0054593D01*
X0094751Y0054637D01*
X0094713Y0054683D01*
X0094677Y0054732D01*
X0094644Y0054783D01*
X0094615Y0054835D01*
X0094588Y0054890D01*
X0094565Y0054945D01*
X0094545Y0055002D01*
X0094529Y0055061D01*
X0094516Y0055120D01*
X0094507Y0055179D01*
X0094502Y0055240D01*
X0094500Y0055300D01*
X0094500Y0062300D01*
X0094502Y0062360D01*
X0094507Y0062421D01*
X0094516Y0062480D01*
X0094529Y0062539D01*
X0094545Y0062598D01*
X0094565Y0062655D01*
X0094588Y0062710D01*
X0094615Y0062765D01*
X0094644Y0062817D01*
X0094677Y0062868D01*
X0094713Y0062917D01*
X0094751Y0062963D01*
X0094793Y0063007D01*
X0094837Y0063049D01*
X0094883Y0063087D01*
X0094932Y0063123D01*
X0094983Y0063156D01*
X0095035Y0063185D01*
X0095090Y0063212D01*
X0095145Y0063235D01*
X0095202Y0063255D01*
X0095261Y0063271D01*
X0095320Y0063284D01*
X0095379Y0063293D01*
X0095440Y0063298D01*
X0095500Y0063300D01*
X0463500Y0353300D02*
X0485500Y0353300D01*
X0485500Y0388300D01*
X0477000Y0388300D01*
X0476998Y0388202D01*
X0476992Y0388104D01*
X0476983Y0388006D01*
X0476969Y0387909D01*
X0476952Y0387812D01*
X0476931Y0387716D01*
X0476906Y0387621D01*
X0476878Y0387527D01*
X0476845Y0387435D01*
X0476810Y0387343D01*
X0476770Y0387253D01*
X0476728Y0387165D01*
X0476681Y0387078D01*
X0476632Y0386994D01*
X0476579Y0386911D01*
X0476523Y0386831D01*
X0476463Y0386752D01*
X0476401Y0386676D01*
X0476336Y0386603D01*
X0476268Y0386532D01*
X0476197Y0386464D01*
X0476124Y0386399D01*
X0476048Y0386337D01*
X0475969Y0386277D01*
X0475889Y0386221D01*
X0475806Y0386168D01*
X0475722Y0386119D01*
X0475635Y0386072D01*
X0475547Y0386030D01*
X0475457Y0385990D01*
X0475365Y0385955D01*
X0475273Y0385922D01*
X0475179Y0385894D01*
X0475084Y0385869D01*
X0474988Y0385848D01*
X0474891Y0385831D01*
X0474794Y0385817D01*
X0474696Y0385808D01*
X0474598Y0385802D01*
X0474500Y0385800D01*
X0474402Y0385802D01*
X0474304Y0385808D01*
X0474206Y0385817D01*
X0474109Y0385831D01*
X0474012Y0385848D01*
X0473916Y0385869D01*
X0473821Y0385894D01*
X0473727Y0385922D01*
X0473635Y0385955D01*
X0473543Y0385990D01*
X0473453Y0386030D01*
X0473365Y0386072D01*
X0473278Y0386119D01*
X0473194Y0386168D01*
X0473111Y0386221D01*
X0473031Y0386277D01*
X0472952Y0386337D01*
X0472876Y0386399D01*
X0472803Y0386464D01*
X0472732Y0386532D01*
X0472664Y0386603D01*
X0472599Y0386676D01*
X0472537Y0386752D01*
X0472477Y0386831D01*
X0472421Y0386911D01*
X0472368Y0386994D01*
X0472319Y0387078D01*
X0472272Y0387165D01*
X0472230Y0387253D01*
X0472190Y0387343D01*
X0472155Y0387435D01*
X0472122Y0387527D01*
X0472094Y0387621D01*
X0472069Y0387716D01*
X0472048Y0387812D01*
X0472031Y0387909D01*
X0472017Y0388006D01*
X0472008Y0388104D01*
X0472002Y0388202D01*
X0472000Y0388300D01*
X0463500Y0388300D01*
X0463500Y0353300D01*
X0432500Y0381300D02*
X0432500Y0382800D01*
X0432000Y0383300D01*
X0432000Y0402300D01*
X0432500Y0402800D01*
X0432500Y0404300D01*
X0432498Y0404360D01*
X0432493Y0404421D01*
X0432484Y0404480D01*
X0432471Y0404539D01*
X0432455Y0404598D01*
X0432435Y0404655D01*
X0432412Y0404710D01*
X0432385Y0404765D01*
X0432356Y0404817D01*
X0432323Y0404868D01*
X0432287Y0404917D01*
X0432249Y0404963D01*
X0432207Y0405007D01*
X0432163Y0405049D01*
X0432117Y0405087D01*
X0432068Y0405123D01*
X0432017Y0405156D01*
X0431965Y0405185D01*
X0431910Y0405212D01*
X0431855Y0405235D01*
X0431798Y0405255D01*
X0431739Y0405271D01*
X0431680Y0405284D01*
X0431621Y0405293D01*
X0431560Y0405298D01*
X0431500Y0405300D01*
X0424500Y0405300D01*
X0424440Y0405298D01*
X0424379Y0405293D01*
X0424320Y0405284D01*
X0424261Y0405271D01*
X0424202Y0405255D01*
X0424145Y0405235D01*
X0424090Y0405212D01*
X0424035Y0405185D01*
X0423983Y0405156D01*
X0423932Y0405123D01*
X0423883Y0405087D01*
X0423837Y0405049D01*
X0423793Y0405007D01*
X0423751Y0404963D01*
X0423713Y0404917D01*
X0423677Y0404868D01*
X0423644Y0404817D01*
X0423615Y0404765D01*
X0423588Y0404710D01*
X0423565Y0404655D01*
X0423545Y0404598D01*
X0423529Y0404539D01*
X0423516Y0404480D01*
X0423507Y0404421D01*
X0423502Y0404360D01*
X0423500Y0404300D01*
X0423500Y0402800D01*
X0424000Y0402300D01*
X0424000Y0383300D01*
X0423500Y0382800D01*
X0423500Y0381300D01*
X0423502Y0381240D01*
X0423507Y0381179D01*
X0423516Y0381120D01*
X0423529Y0381061D01*
X0423545Y0381002D01*
X0423565Y0380945D01*
X0423588Y0380890D01*
X0423615Y0380835D01*
X0423644Y0380783D01*
X0423677Y0380732D01*
X0423713Y0380683D01*
X0423751Y0380637D01*
X0423793Y0380593D01*
X0423837Y0380551D01*
X0423883Y0380513D01*
X0423932Y0380477D01*
X0423983Y0380444D01*
X0424035Y0380415D01*
X0424090Y0380388D01*
X0424145Y0380365D01*
X0424202Y0380345D01*
X0424261Y0380329D01*
X0424320Y0380316D01*
X0424379Y0380307D01*
X0424440Y0380302D01*
X0424500Y0380300D01*
X0431500Y0380300D01*
X0431560Y0380302D01*
X0431621Y0380307D01*
X0431680Y0380316D01*
X0431739Y0380329D01*
X0431798Y0380345D01*
X0431855Y0380365D01*
X0431910Y0380388D01*
X0431965Y0380415D01*
X0432017Y0380444D01*
X0432068Y0380477D01*
X0432117Y0380513D01*
X0432163Y0380551D01*
X0432207Y0380593D01*
X0432249Y0380637D01*
X0432287Y0380683D01*
X0432323Y0380732D01*
X0432356Y0380783D01*
X0432385Y0380835D01*
X0432412Y0380890D01*
X0432435Y0380945D01*
X0432455Y0381002D01*
X0432471Y0381061D01*
X0432484Y0381120D01*
X0432493Y0381179D01*
X0432498Y0381240D01*
X0432500Y0381300D01*
X0611500Y0232800D02*
X0611500Y0212800D01*
X0689000Y0212800D01*
X0689000Y0232800D01*
X0611500Y0232800D01*
X0627000Y0218300D02*
X0627500Y0217800D01*
X0628000Y0217300D01*
X0628500Y0216800D01*
X0629000Y0216300D01*
X0629000Y0220300D01*
X0628500Y0219800D01*
X0628500Y0218300D01*
X0636500Y0218300D01*
X0628500Y0218300D02*
X0628500Y0216800D01*
X0628000Y0217300D02*
X0628000Y0219300D01*
X0627500Y0218800D01*
X0627500Y0217800D01*
X0627000Y0218300D02*
X0627500Y0218800D01*
X0628000Y0219300D02*
X0628500Y0219800D01*
X0628500Y0218300D02*
X0627000Y0218300D01*
X0617500Y0191800D02*
X0617500Y0168800D01*
X0577500Y0168800D01*
X0577500Y0176300D01*
X0577626Y0176302D01*
X0577751Y0176308D01*
X0577876Y0176318D01*
X0578001Y0176332D01*
X0578126Y0176349D01*
X0578250Y0176371D01*
X0578373Y0176396D01*
X0578495Y0176426D01*
X0578616Y0176459D01*
X0578736Y0176496D01*
X0578855Y0176536D01*
X0578972Y0176581D01*
X0579089Y0176629D01*
X0579203Y0176681D01*
X0579316Y0176736D01*
X0579427Y0176795D01*
X0579536Y0176857D01*
X0579643Y0176923D01*
X0579748Y0176992D01*
X0579851Y0177064D01*
X0579952Y0177139D01*
X0580050Y0177218D01*
X0580145Y0177300D01*
X0580238Y0177384D01*
X0580328Y0177472D01*
X0580416Y0177562D01*
X0580500Y0177655D01*
X0580582Y0177750D01*
X0580661Y0177848D01*
X0580736Y0177949D01*
X0580808Y0178052D01*
X0580877Y0178157D01*
X0580943Y0178264D01*
X0581005Y0178373D01*
X0581064Y0178484D01*
X0581119Y0178597D01*
X0581171Y0178711D01*
X0581219Y0178828D01*
X0581264Y0178945D01*
X0581304Y0179064D01*
X0581341Y0179184D01*
X0581374Y0179305D01*
X0581404Y0179427D01*
X0581429Y0179550D01*
X0581451Y0179674D01*
X0581468Y0179799D01*
X0581482Y0179924D01*
X0581492Y0180049D01*
X0581498Y0180174D01*
X0581500Y0180300D01*
X0581498Y0180426D01*
X0581492Y0180551D01*
X0581482Y0180676D01*
X0581468Y0180801D01*
X0581451Y0180926D01*
X0581429Y0181050D01*
X0581404Y0181173D01*
X0581374Y0181295D01*
X0581341Y0181416D01*
X0581304Y0181536D01*
X0581264Y0181655D01*
X0581219Y0181772D01*
X0581171Y0181889D01*
X0581119Y0182003D01*
X0581064Y0182116D01*
X0581005Y0182227D01*
X0580943Y0182336D01*
X0580877Y0182443D01*
X0580808Y0182548D01*
X0580736Y0182651D01*
X0580661Y0182752D01*
X0580582Y0182850D01*
X0580500Y0182945D01*
X0580416Y0183038D01*
X0580328Y0183128D01*
X0580238Y0183216D01*
X0580145Y0183300D01*
X0580050Y0183382D01*
X0579952Y0183461D01*
X0579851Y0183536D01*
X0579748Y0183608D01*
X0579643Y0183677D01*
X0579536Y0183743D01*
X0579427Y0183805D01*
X0579316Y0183864D01*
X0579203Y0183919D01*
X0579089Y0183971D01*
X0578972Y0184019D01*
X0578855Y0184064D01*
X0578736Y0184104D01*
X0578616Y0184141D01*
X0578495Y0184174D01*
X0578373Y0184204D01*
X0578250Y0184229D01*
X0578126Y0184251D01*
X0578001Y0184268D01*
X0577876Y0184282D01*
X0577751Y0184292D01*
X0577626Y0184298D01*
X0577500Y0184300D01*
X0577500Y0191800D01*
X0617500Y0191800D01*
X0716000Y0211800D02*
X0716000Y0250800D01*
X0716002Y0250860D01*
X0716007Y0250921D01*
X0716016Y0250980D01*
X0716029Y0251039D01*
X0716045Y0251098D01*
X0716065Y0251155D01*
X0716088Y0251210D01*
X0716115Y0251265D01*
X0716144Y0251317D01*
X0716177Y0251368D01*
X0716213Y0251417D01*
X0716251Y0251463D01*
X0716293Y0251507D01*
X0716337Y0251549D01*
X0716383Y0251587D01*
X0716432Y0251623D01*
X0716483Y0251656D01*
X0716535Y0251685D01*
X0716590Y0251712D01*
X0716645Y0251735D01*
X0716702Y0251755D01*
X0716761Y0251771D01*
X0716820Y0251784D01*
X0716879Y0251793D01*
X0716940Y0251798D01*
X0717000Y0251800D01*
X0739000Y0251800D01*
X0739060Y0251798D01*
X0739121Y0251793D01*
X0739180Y0251784D01*
X0739239Y0251771D01*
X0739298Y0251755D01*
X0739355Y0251735D01*
X0739410Y0251712D01*
X0739465Y0251685D01*
X0739517Y0251656D01*
X0739568Y0251623D01*
X0739617Y0251587D01*
X0739663Y0251549D01*
X0739707Y0251507D01*
X0739749Y0251463D01*
X0739787Y0251417D01*
X0739823Y0251368D01*
X0739856Y0251317D01*
X0739885Y0251265D01*
X0739912Y0251210D01*
X0739935Y0251155D01*
X0739955Y0251098D01*
X0739971Y0251039D01*
X0739984Y0250980D01*
X0739993Y0250921D01*
X0739998Y0250860D01*
X0740000Y0250800D01*
X0740000Y0211800D01*
X0739998Y0211740D01*
X0739993Y0211679D01*
X0739984Y0211620D01*
X0739971Y0211561D01*
X0739955Y0211502D01*
X0739935Y0211445D01*
X0739912Y0211390D01*
X0739885Y0211335D01*
X0739856Y0211283D01*
X0739823Y0211232D01*
X0739787Y0211183D01*
X0739749Y0211137D01*
X0739707Y0211093D01*
X0739663Y0211051D01*
X0739617Y0211013D01*
X0739568Y0210977D01*
X0739517Y0210944D01*
X0739465Y0210915D01*
X0739410Y0210888D01*
X0739355Y0210865D01*
X0739298Y0210845D01*
X0739239Y0210829D01*
X0739180Y0210816D01*
X0739121Y0210807D01*
X0739060Y0210802D01*
X0739000Y0210800D01*
X0717000Y0210800D01*
X0716940Y0210802D01*
X0716879Y0210807D01*
X0716820Y0210816D01*
X0716761Y0210829D01*
X0716702Y0210845D01*
X0716645Y0210865D01*
X0716590Y0210888D01*
X0716535Y0210915D01*
X0716483Y0210944D01*
X0716432Y0210977D01*
X0716383Y0211013D01*
X0716337Y0211051D01*
X0716293Y0211093D01*
X0716251Y0211137D01*
X0716213Y0211183D01*
X0716177Y0211232D01*
X0716144Y0211283D01*
X0716115Y0211335D01*
X0716088Y0211390D01*
X0716065Y0211445D01*
X0716045Y0211502D01*
X0716029Y0211561D01*
X0716016Y0211620D01*
X0716007Y0211679D01*
X0716002Y0211740D01*
X0716000Y0211800D01*
X0728000Y0220800D02*
X0728000Y0236300D01*
X0728000Y0239800D02*
X0728000Y0241800D01*
X0635000Y0055800D02*
X0630000Y0055800D01*
X0627500Y0053300D01*
X0627500Y0038300D01*
X0625000Y0035800D01*
X0620000Y0035800D01*
X0617500Y0038300D01*
X0617500Y0053300D01*
X0615000Y0055800D01*
X0610000Y0055800D01*
X0607500Y0053300D01*
X0607500Y0038300D01*
X0610000Y0035800D01*
X0615000Y0035800D01*
X0617500Y0038300D01*
X0627500Y0038300D02*
X0630000Y0035800D01*
X0635000Y0035800D01*
X0637500Y0038300D01*
X0637500Y0053300D01*
X0635000Y0055800D01*
X0627500Y0053300D02*
X0625000Y0055800D01*
X0620000Y0055800D01*
X0617500Y0053300D01*
D13*
X0605900Y0050477D02*
X0601296Y0050477D01*
X0601296Y0052779D01*
X0602063Y0053546D01*
X0603598Y0053546D01*
X0604365Y0052779D01*
X0604365Y0050477D01*
X0604365Y0048942D02*
X0605133Y0048942D01*
X0605900Y0048175D01*
X0605900Y0046641D01*
X0605133Y0045873D01*
X0605133Y0044339D02*
X0605900Y0043571D01*
X0605900Y0042037D01*
X0605133Y0041269D01*
X0602063Y0041269D01*
X0601296Y0042037D01*
X0601296Y0043571D01*
X0602063Y0044339D01*
X0602063Y0045873D02*
X0602831Y0045873D01*
X0603598Y0046641D01*
X0603598Y0048175D01*
X0604365Y0048942D01*
X0602063Y0048942D02*
X0601296Y0048175D01*
X0601296Y0046641D01*
X0602063Y0045873D01*
X0601296Y0039735D02*
X0601296Y0038200D01*
X0601296Y0038967D02*
X0605900Y0038967D01*
X0605900Y0038200D02*
X0605900Y0039735D01*
X0556091Y0066267D02*
X0556091Y0067802D01*
X0555324Y0068569D01*
X0553789Y0068569D01*
X0553022Y0067802D01*
X0553022Y0066267D01*
X0553789Y0065500D01*
X0555324Y0065500D01*
X0556091Y0066267D01*
X0551487Y0065500D02*
X0551487Y0067802D01*
X0550720Y0068569D01*
X0548418Y0068569D01*
X0548418Y0065500D01*
X0546883Y0065500D02*
X0545348Y0065500D01*
X0546116Y0065500D02*
X0546116Y0068569D01*
X0545348Y0068569D01*
X0543814Y0068569D02*
X0543814Y0065500D01*
X0541512Y0065500D01*
X0540744Y0066267D01*
X0540744Y0068569D01*
X0539210Y0068569D02*
X0536908Y0068569D01*
X0536141Y0067802D01*
X0536141Y0066267D01*
X0536908Y0065500D01*
X0539210Y0065500D01*
X0539210Y0070104D01*
X0534606Y0068569D02*
X0533839Y0068569D01*
X0532304Y0067035D01*
X0532304Y0068569D02*
X0532304Y0065500D01*
X0530769Y0065500D02*
X0530769Y0068569D01*
X0529235Y0070104D01*
X0527700Y0068569D01*
X0527700Y0065500D01*
X0527700Y0067802D02*
X0530769Y0067802D01*
X0533071Y0063371D02*
X0533071Y0062604D01*
X0533071Y0061069D02*
X0533071Y0058000D01*
X0532304Y0058000D02*
X0533839Y0058000D01*
X0535373Y0058767D02*
X0536141Y0058000D01*
X0538442Y0058000D01*
X0539977Y0058000D02*
X0539977Y0061069D01*
X0539977Y0059535D02*
X0541512Y0061069D01*
X0542279Y0061069D01*
X0543814Y0060302D02*
X0543814Y0058767D01*
X0544581Y0058000D01*
X0546116Y0058000D01*
X0546883Y0058767D01*
X0546883Y0060302D01*
X0546116Y0061069D01*
X0544581Y0061069D01*
X0543814Y0060302D01*
X0538442Y0061069D02*
X0536141Y0061069D01*
X0535373Y0060302D01*
X0535373Y0058767D01*
X0533071Y0061069D02*
X0532304Y0061069D01*
X0530769Y0062604D02*
X0530769Y0058000D01*
X0527700Y0058000D02*
X0527700Y0062604D01*
X0529235Y0061069D01*
X0530769Y0062604D01*
X0546116Y0070104D02*
X0546116Y0070871D01*
X0083000Y0238800D02*
X0081750Y0238800D01*
X0081750Y0246300D01*
X0078000Y0248800D02*
X0083000Y0251300D01*
X0081750Y0251300D02*
X0081750Y0258800D01*
X0083000Y0258800D01*
X0078000Y0248800D02*
X0076750Y0248800D01*
X0076750Y0278800D01*
X0083000Y0278800D01*
X0069250Y0278800D02*
X0069250Y0248800D01*
X0068000Y0248800D01*
X0063000Y0251300D01*
X0064250Y0251300D02*
X0064250Y0258800D01*
X0063000Y0258800D01*
X0064250Y0246300D02*
X0064250Y0238800D01*
X0063000Y0238800D01*
X0063000Y0278800D02*
X0069250Y0278800D01*
X0071750Y0306300D02*
X0074250Y0306300D01*
X0074250Y0308800D01*
X0074250Y0311300D01*
X0071750Y0311300D01*
X0071750Y0308800D01*
X0063000Y0308800D01*
X0071750Y0308800D02*
X0071750Y0306300D01*
X0074250Y0308800D02*
X0083000Y0308800D01*
D14*
X0066500Y0339800D03*
X0249500Y0322800D03*
X0249500Y0242800D03*
X0234500Y0198800D03*
X0235500Y0123800D03*
D15*
X0229250Y0123800D03*
X0254750Y0123800D03*
X0253750Y0198800D03*
X0228250Y0198800D03*
X0230250Y0242800D03*
X0255750Y0242800D03*
X0255750Y0322800D03*
X0230250Y0322800D03*
X0085750Y0339800D03*
X0060250Y0339800D03*
D16*
X0139000Y0253000D03*
X0139000Y0224600D03*
X0261000Y0184000D03*
X0261000Y0155600D03*
X0262000Y0109000D03*
X0262000Y0080600D03*
X0328000Y0080600D03*
X0328000Y0109000D03*
X0328000Y0173600D03*
X0328000Y0202000D03*
X0328000Y0243600D03*
X0328000Y0272000D03*
X0263000Y0259600D03*
X0263000Y0288000D03*
X0263000Y0339600D03*
X0263000Y0368000D03*
X0328000Y0368000D03*
X0328000Y0339600D03*
X0428000Y0373600D03*
X0428000Y0378600D03*
X0428000Y0407000D03*
X0428000Y0412000D03*
X0586500Y0412000D03*
X0586500Y0407000D03*
X0586500Y0378600D03*
X0586500Y0373600D03*
D17*
X0628000Y0407800D02*
X0639500Y0408300D01*
X0640500Y0409300D01*
X0640500Y0446300D01*
X0639500Y0447300D01*
X0628000Y0447800D01*
X0637100Y0410100D02*
X0637102Y0410163D01*
X0637108Y0410225D01*
X0637118Y0410287D01*
X0637131Y0410349D01*
X0637149Y0410409D01*
X0637170Y0410468D01*
X0637195Y0410526D01*
X0637224Y0410582D01*
X0637256Y0410636D01*
X0637291Y0410688D01*
X0637329Y0410737D01*
X0637371Y0410785D01*
X0637415Y0410829D01*
X0637463Y0410871D01*
X0637512Y0410909D01*
X0637564Y0410944D01*
X0637618Y0410976D01*
X0637674Y0411005D01*
X0637732Y0411030D01*
X0637791Y0411051D01*
X0637851Y0411069D01*
X0637913Y0411082D01*
X0637975Y0411092D01*
X0638037Y0411098D01*
X0638100Y0411100D01*
X0638163Y0411098D01*
X0638225Y0411092D01*
X0638287Y0411082D01*
X0638349Y0411069D01*
X0638409Y0411051D01*
X0638468Y0411030D01*
X0638526Y0411005D01*
X0638582Y0410976D01*
X0638636Y0410944D01*
X0638688Y0410909D01*
X0638737Y0410871D01*
X0638785Y0410829D01*
X0638829Y0410785D01*
X0638871Y0410737D01*
X0638909Y0410688D01*
X0638944Y0410636D01*
X0638976Y0410582D01*
X0639005Y0410526D01*
X0639030Y0410468D01*
X0639051Y0410409D01*
X0639069Y0410349D01*
X0639082Y0410287D01*
X0639092Y0410225D01*
X0639098Y0410163D01*
X0639100Y0410100D01*
X0639098Y0410037D01*
X0639092Y0409975D01*
X0639082Y0409913D01*
X0639069Y0409851D01*
X0639051Y0409791D01*
X0639030Y0409732D01*
X0639005Y0409674D01*
X0638976Y0409618D01*
X0638944Y0409564D01*
X0638909Y0409512D01*
X0638871Y0409463D01*
X0638829Y0409415D01*
X0638785Y0409371D01*
X0638737Y0409329D01*
X0638688Y0409291D01*
X0638636Y0409256D01*
X0638582Y0409224D01*
X0638526Y0409195D01*
X0638468Y0409170D01*
X0638409Y0409149D01*
X0638349Y0409131D01*
X0638287Y0409118D01*
X0638225Y0409108D01*
X0638163Y0409102D01*
X0638100Y0409100D01*
X0638037Y0409102D01*
X0637975Y0409108D01*
X0637913Y0409118D01*
X0637851Y0409131D01*
X0637791Y0409149D01*
X0637732Y0409170D01*
X0637674Y0409195D01*
X0637618Y0409224D01*
X0637564Y0409256D01*
X0637512Y0409291D01*
X0637463Y0409329D01*
X0637415Y0409371D01*
X0637371Y0409415D01*
X0637329Y0409463D01*
X0637291Y0409512D01*
X0637256Y0409564D01*
X0637224Y0409618D01*
X0637195Y0409674D01*
X0637170Y0409732D01*
X0637149Y0409791D01*
X0637131Y0409851D01*
X0637118Y0409913D01*
X0637108Y0409975D01*
X0637102Y0410037D01*
X0637100Y0410100D01*
X0466500Y0409300D02*
X0465500Y0408300D01*
X0454000Y0407800D01*
X0463100Y0410100D02*
X0463102Y0410163D01*
X0463108Y0410225D01*
X0463118Y0410287D01*
X0463131Y0410349D01*
X0463149Y0410409D01*
X0463170Y0410468D01*
X0463195Y0410526D01*
X0463224Y0410582D01*
X0463256Y0410636D01*
X0463291Y0410688D01*
X0463329Y0410737D01*
X0463371Y0410785D01*
X0463415Y0410829D01*
X0463463Y0410871D01*
X0463512Y0410909D01*
X0463564Y0410944D01*
X0463618Y0410976D01*
X0463674Y0411005D01*
X0463732Y0411030D01*
X0463791Y0411051D01*
X0463851Y0411069D01*
X0463913Y0411082D01*
X0463975Y0411092D01*
X0464037Y0411098D01*
X0464100Y0411100D01*
X0464163Y0411098D01*
X0464225Y0411092D01*
X0464287Y0411082D01*
X0464349Y0411069D01*
X0464409Y0411051D01*
X0464468Y0411030D01*
X0464526Y0411005D01*
X0464582Y0410976D01*
X0464636Y0410944D01*
X0464688Y0410909D01*
X0464737Y0410871D01*
X0464785Y0410829D01*
X0464829Y0410785D01*
X0464871Y0410737D01*
X0464909Y0410688D01*
X0464944Y0410636D01*
X0464976Y0410582D01*
X0465005Y0410526D01*
X0465030Y0410468D01*
X0465051Y0410409D01*
X0465069Y0410349D01*
X0465082Y0410287D01*
X0465092Y0410225D01*
X0465098Y0410163D01*
X0465100Y0410100D01*
X0465098Y0410037D01*
X0465092Y0409975D01*
X0465082Y0409913D01*
X0465069Y0409851D01*
X0465051Y0409791D01*
X0465030Y0409732D01*
X0465005Y0409674D01*
X0464976Y0409618D01*
X0464944Y0409564D01*
X0464909Y0409512D01*
X0464871Y0409463D01*
X0464829Y0409415D01*
X0464785Y0409371D01*
X0464737Y0409329D01*
X0464688Y0409291D01*
X0464636Y0409256D01*
X0464582Y0409224D01*
X0464526Y0409195D01*
X0464468Y0409170D01*
X0464409Y0409149D01*
X0464349Y0409131D01*
X0464287Y0409118D01*
X0464225Y0409108D01*
X0464163Y0409102D01*
X0464100Y0409100D01*
X0464037Y0409102D01*
X0463975Y0409108D01*
X0463913Y0409118D01*
X0463851Y0409131D01*
X0463791Y0409149D01*
X0463732Y0409170D01*
X0463674Y0409195D01*
X0463618Y0409224D01*
X0463564Y0409256D01*
X0463512Y0409291D01*
X0463463Y0409329D01*
X0463415Y0409371D01*
X0463371Y0409415D01*
X0463329Y0409463D01*
X0463291Y0409512D01*
X0463256Y0409564D01*
X0463224Y0409618D01*
X0463195Y0409674D01*
X0463170Y0409732D01*
X0463149Y0409791D01*
X0463131Y0409851D01*
X0463118Y0409913D01*
X0463108Y0409975D01*
X0463102Y0410037D01*
X0463100Y0410100D01*
X0466500Y0409300D02*
X0466500Y0446300D01*
X0465500Y0447300D01*
X0454000Y0447800D01*
X0290500Y0339328D02*
X0290500Y0328272D01*
X0300500Y0338272D02*
X0300391Y0338497D01*
X0300276Y0338719D01*
X0300156Y0338939D01*
X0300031Y0339156D01*
X0299901Y0339369D01*
X0299766Y0339580D01*
X0299626Y0339787D01*
X0299481Y0339991D01*
X0299331Y0340191D01*
X0299176Y0340388D01*
X0299017Y0340580D01*
X0298853Y0340770D01*
X0298685Y0340955D01*
X0298513Y0341136D01*
X0298336Y0341313D01*
X0298155Y0341485D01*
X0297970Y0341653D01*
X0297780Y0341817D01*
X0297588Y0341976D01*
X0297391Y0342131D01*
X0297191Y0342281D01*
X0296987Y0342426D01*
X0296780Y0342566D01*
X0296569Y0342701D01*
X0296356Y0342831D01*
X0296139Y0342956D01*
X0295919Y0343076D01*
X0295697Y0343191D01*
X0295472Y0343300D01*
X0284500Y0342046D02*
X0284500Y0325554D01*
X0295472Y0324300D02*
X0295697Y0324409D01*
X0295919Y0324524D01*
X0296139Y0324644D01*
X0296356Y0324769D01*
X0296569Y0324899D01*
X0296780Y0325034D01*
X0296987Y0325174D01*
X0297191Y0325319D01*
X0297391Y0325469D01*
X0297588Y0325624D01*
X0297780Y0325783D01*
X0297970Y0325947D01*
X0298155Y0326115D01*
X0298336Y0326287D01*
X0298513Y0326464D01*
X0298685Y0326645D01*
X0298853Y0326830D01*
X0299017Y0327020D01*
X0299176Y0327212D01*
X0299331Y0327409D01*
X0299481Y0327609D01*
X0299626Y0327813D01*
X0299766Y0328020D01*
X0299901Y0328231D01*
X0300031Y0328444D01*
X0300156Y0328661D01*
X0300276Y0328881D01*
X0300391Y0329103D01*
X0300500Y0329328D01*
X0286528Y0343300D02*
X0286313Y0343196D01*
X0286100Y0343087D01*
X0285890Y0342973D01*
X0285683Y0342854D01*
X0285478Y0342731D01*
X0285276Y0342603D01*
X0285077Y0342470D01*
X0284882Y0342333D01*
X0284689Y0342192D01*
X0284500Y0342046D01*
X0284500Y0325554D02*
X0284697Y0325402D01*
X0284899Y0325255D01*
X0285103Y0325112D01*
X0285311Y0324975D01*
X0285522Y0324842D01*
X0285737Y0324714D01*
X0285954Y0324592D01*
X0286174Y0324475D01*
X0286397Y0324363D01*
X0286622Y0324256D01*
X0284500Y0262046D02*
X0284500Y0245554D01*
X0290500Y0248272D02*
X0290500Y0259328D01*
X0300500Y0249328D02*
X0300391Y0249103D01*
X0300276Y0248881D01*
X0300156Y0248661D01*
X0300031Y0248444D01*
X0299901Y0248231D01*
X0299766Y0248020D01*
X0299626Y0247813D01*
X0299481Y0247609D01*
X0299331Y0247409D01*
X0299176Y0247212D01*
X0299017Y0247020D01*
X0298853Y0246830D01*
X0298685Y0246645D01*
X0298513Y0246464D01*
X0298336Y0246287D01*
X0298155Y0246115D01*
X0297970Y0245947D01*
X0297780Y0245783D01*
X0297588Y0245624D01*
X0297391Y0245469D01*
X0297191Y0245319D01*
X0296987Y0245174D01*
X0296780Y0245034D01*
X0296569Y0244899D01*
X0296356Y0244769D01*
X0296139Y0244644D01*
X0295919Y0244524D01*
X0295697Y0244409D01*
X0295472Y0244300D01*
X0284500Y0262046D02*
X0284689Y0262192D01*
X0284882Y0262333D01*
X0285077Y0262470D01*
X0285276Y0262603D01*
X0285478Y0262731D01*
X0285683Y0262854D01*
X0285890Y0262973D01*
X0286100Y0263087D01*
X0286313Y0263196D01*
X0286528Y0263300D01*
X0295472Y0263300D02*
X0295697Y0263191D01*
X0295919Y0263076D01*
X0296139Y0262956D01*
X0296356Y0262831D01*
X0296569Y0262701D01*
X0296780Y0262566D01*
X0296987Y0262426D01*
X0297191Y0262281D01*
X0297391Y0262131D01*
X0297588Y0261976D01*
X0297780Y0261817D01*
X0297970Y0261653D01*
X0298155Y0261485D01*
X0298336Y0261313D01*
X0298513Y0261136D01*
X0298685Y0260955D01*
X0298853Y0260770D01*
X0299017Y0260580D01*
X0299176Y0260388D01*
X0299331Y0260191D01*
X0299481Y0259991D01*
X0299626Y0259787D01*
X0299766Y0259580D01*
X0299901Y0259369D01*
X0300031Y0259156D01*
X0300156Y0258939D01*
X0300276Y0258719D01*
X0300391Y0258497D01*
X0300500Y0258272D01*
X0286622Y0244256D02*
X0286397Y0244363D01*
X0286174Y0244475D01*
X0285954Y0244592D01*
X0285737Y0244714D01*
X0285522Y0244842D01*
X0285311Y0244975D01*
X0285103Y0245112D01*
X0284899Y0245255D01*
X0284697Y0245402D01*
X0284500Y0245554D01*
X0297500Y0198046D02*
X0297500Y0181554D01*
X0291500Y0184272D02*
X0291500Y0195328D01*
X0281500Y0185328D02*
X0281609Y0185103D01*
X0281724Y0184881D01*
X0281844Y0184661D01*
X0281969Y0184444D01*
X0282099Y0184231D01*
X0282234Y0184020D01*
X0282374Y0183813D01*
X0282519Y0183609D01*
X0282669Y0183409D01*
X0282824Y0183212D01*
X0282983Y0183020D01*
X0283147Y0182830D01*
X0283315Y0182645D01*
X0283487Y0182464D01*
X0283664Y0182287D01*
X0283845Y0182115D01*
X0284030Y0181947D01*
X0284220Y0181783D01*
X0284412Y0181624D01*
X0284609Y0181469D01*
X0284809Y0181319D01*
X0285013Y0181174D01*
X0285220Y0181034D01*
X0285431Y0180899D01*
X0285644Y0180769D01*
X0285861Y0180644D01*
X0286081Y0180524D01*
X0286303Y0180409D01*
X0286528Y0180300D01*
X0297500Y0198046D02*
X0297303Y0198198D01*
X0297101Y0198345D01*
X0296897Y0198488D01*
X0296689Y0198625D01*
X0296478Y0198758D01*
X0296263Y0198886D01*
X0296046Y0199008D01*
X0295826Y0199125D01*
X0295603Y0199237D01*
X0295378Y0199344D01*
X0286528Y0199300D02*
X0286303Y0199191D01*
X0286081Y0199076D01*
X0285861Y0198956D01*
X0285644Y0198831D01*
X0285431Y0198701D01*
X0285220Y0198566D01*
X0285013Y0198426D01*
X0284809Y0198281D01*
X0284609Y0198131D01*
X0284412Y0197976D01*
X0284220Y0197817D01*
X0284030Y0197653D01*
X0283845Y0197485D01*
X0283664Y0197313D01*
X0283487Y0197136D01*
X0283315Y0196955D01*
X0283147Y0196770D01*
X0282983Y0196580D01*
X0282824Y0196388D01*
X0282669Y0196191D01*
X0282519Y0195991D01*
X0282374Y0195787D01*
X0282234Y0195580D01*
X0282099Y0195369D01*
X0281969Y0195156D01*
X0281844Y0194939D01*
X0281724Y0194719D01*
X0281609Y0194497D01*
X0281500Y0194272D01*
X0295472Y0180300D02*
X0295687Y0180404D01*
X0295900Y0180513D01*
X0296110Y0180627D01*
X0296317Y0180746D01*
X0296522Y0180869D01*
X0296724Y0180997D01*
X0296923Y0181130D01*
X0297118Y0181267D01*
X0297311Y0181408D01*
X0297500Y0181554D01*
X0297500Y0123046D02*
X0297500Y0106554D01*
X0291500Y0109272D02*
X0291500Y0120328D01*
X0281500Y0110328D02*
X0281609Y0110103D01*
X0281724Y0109881D01*
X0281844Y0109661D01*
X0281969Y0109444D01*
X0282099Y0109231D01*
X0282234Y0109020D01*
X0282374Y0108813D01*
X0282519Y0108609D01*
X0282669Y0108409D01*
X0282824Y0108212D01*
X0282983Y0108020D01*
X0283147Y0107830D01*
X0283315Y0107645D01*
X0283487Y0107464D01*
X0283664Y0107287D01*
X0283845Y0107115D01*
X0284030Y0106947D01*
X0284220Y0106783D01*
X0284412Y0106624D01*
X0284609Y0106469D01*
X0284809Y0106319D01*
X0285013Y0106174D01*
X0285220Y0106034D01*
X0285431Y0105899D01*
X0285644Y0105769D01*
X0285861Y0105644D01*
X0286081Y0105524D01*
X0286303Y0105409D01*
X0286528Y0105300D01*
X0297500Y0123046D02*
X0297303Y0123198D01*
X0297101Y0123345D01*
X0296897Y0123488D01*
X0296689Y0123625D01*
X0296478Y0123758D01*
X0296263Y0123886D01*
X0296046Y0124008D01*
X0295826Y0124125D01*
X0295603Y0124237D01*
X0295378Y0124344D01*
X0286528Y0124300D02*
X0286303Y0124191D01*
X0286081Y0124076D01*
X0285861Y0123956D01*
X0285644Y0123831D01*
X0285431Y0123701D01*
X0285220Y0123566D01*
X0285013Y0123426D01*
X0284809Y0123281D01*
X0284609Y0123131D01*
X0284412Y0122976D01*
X0284220Y0122817D01*
X0284030Y0122653D01*
X0283845Y0122485D01*
X0283664Y0122313D01*
X0283487Y0122136D01*
X0283315Y0121955D01*
X0283147Y0121770D01*
X0282983Y0121580D01*
X0282824Y0121388D01*
X0282669Y0121191D01*
X0282519Y0120991D01*
X0282374Y0120787D01*
X0282234Y0120580D01*
X0282099Y0120369D01*
X0281969Y0120156D01*
X0281844Y0119939D01*
X0281724Y0119719D01*
X0281609Y0119497D01*
X0281500Y0119272D01*
X0295472Y0105300D02*
X0295687Y0105404D01*
X0295900Y0105513D01*
X0296110Y0105627D01*
X0296317Y0105746D01*
X0296522Y0105869D01*
X0296724Y0105997D01*
X0296923Y0106130D01*
X0297118Y0106267D01*
X0297311Y0106408D01*
X0297500Y0106554D01*
X0449200Y0074000D02*
X0449200Y0046200D01*
X0469200Y0046200D01*
X0469200Y0074000D01*
X0449200Y0074000D01*
X0606000Y0035300D02*
X0606002Y0035344D01*
X0606008Y0035388D01*
X0606018Y0035431D01*
X0606031Y0035473D01*
X0606048Y0035514D01*
X0606069Y0035553D01*
X0606093Y0035590D01*
X0606120Y0035625D01*
X0606150Y0035657D01*
X0606183Y0035687D01*
X0606219Y0035713D01*
X0606256Y0035737D01*
X0606296Y0035756D01*
X0606337Y0035773D01*
X0606380Y0035785D01*
X0606423Y0035794D01*
X0606467Y0035799D01*
X0606511Y0035800D01*
X0606555Y0035797D01*
X0606599Y0035790D01*
X0606642Y0035779D01*
X0606684Y0035765D01*
X0606724Y0035747D01*
X0606763Y0035725D01*
X0606799Y0035701D01*
X0606833Y0035673D01*
X0606865Y0035642D01*
X0606894Y0035608D01*
X0606920Y0035572D01*
X0606942Y0035534D01*
X0606961Y0035494D01*
X0606976Y0035452D01*
X0606988Y0035410D01*
X0606996Y0035366D01*
X0607000Y0035322D01*
X0607000Y0035278D01*
X0606996Y0035234D01*
X0606988Y0035190D01*
X0606976Y0035148D01*
X0606961Y0035106D01*
X0606942Y0035066D01*
X0606920Y0035028D01*
X0606894Y0034992D01*
X0606865Y0034958D01*
X0606833Y0034927D01*
X0606799Y0034899D01*
X0606763Y0034875D01*
X0606724Y0034853D01*
X0606684Y0034835D01*
X0606642Y0034821D01*
X0606599Y0034810D01*
X0606555Y0034803D01*
X0606511Y0034800D01*
X0606467Y0034801D01*
X0606423Y0034806D01*
X0606380Y0034815D01*
X0606337Y0034827D01*
X0606296Y0034844D01*
X0606256Y0034863D01*
X0606219Y0034887D01*
X0606183Y0034913D01*
X0606150Y0034943D01*
X0606120Y0034975D01*
X0606093Y0035010D01*
X0606069Y0035047D01*
X0606048Y0035086D01*
X0606031Y0035127D01*
X0606018Y0035169D01*
X0606008Y0035212D01*
X0606002Y0035256D01*
X0606000Y0035300D01*
X0630000Y0033300D02*
X0635500Y0033300D01*
X0638500Y0036300D01*
X0638543Y0216050D02*
X0638543Y0220554D01*
X0637042Y0219053D01*
X0637042Y0216050D02*
X0640045Y0216050D01*
X0623545Y0216801D02*
X0622794Y0216050D01*
X0621293Y0216050D01*
X0620542Y0216801D01*
X0622043Y0218302D02*
X0622794Y0218302D01*
X0623545Y0217551D01*
X0623545Y0216801D01*
X0622794Y0218302D02*
X0623545Y0219053D01*
X0623545Y0219803D01*
X0622794Y0220554D01*
X0621293Y0220554D01*
X0620542Y0219803D01*
X0620149Y0226050D02*
X0617146Y0226050D01*
X0618647Y0226050D02*
X0618647Y0230554D01*
X0617146Y0229053D01*
X0662646Y0219803D02*
X0663397Y0220554D01*
X0664898Y0220554D01*
X0665649Y0219803D01*
X0665649Y0219053D01*
X0662646Y0216050D01*
X0665649Y0216050D01*
X0682146Y0226801D02*
X0682897Y0226050D01*
X0684398Y0226050D01*
X0685149Y0226801D01*
X0685149Y0227551D01*
X0684398Y0228302D01*
X0683647Y0228302D01*
X0684398Y0228302D02*
X0685149Y0229053D01*
X0685149Y0229803D01*
X0684398Y0230554D01*
X0682897Y0230554D01*
X0682146Y0229803D01*
D18*
X0381000Y0297800D03*
X0355000Y0357800D03*
X0354000Y0178800D03*
X0379000Y0118800D03*
D19*
X0379000Y0125500D03*
X0354000Y0144100D03*
X0354000Y0185500D03*
X0381000Y0263100D03*
X0381000Y0304500D03*
X0355000Y0323100D03*
X0355000Y0364500D03*
X0379000Y0084100D03*
D20*
X0227000Y0089800D02*
X0222000Y0089800D01*
X0217000Y0089800D01*
X0222000Y0099800D01*
X0217000Y0099800D01*
X0217000Y0104800D01*
X0222000Y0108800D02*
X0222000Y0099800D01*
X0227000Y0099800D01*
X0227000Y0094800D01*
X0227000Y0089800D02*
X0222000Y0099800D01*
X0222000Y0089800D02*
X0222000Y0080800D01*
X0221000Y0155800D02*
X0221000Y0164800D01*
X0216000Y0164800D01*
X0221000Y0174800D01*
X0216000Y0174800D01*
X0216000Y0179800D01*
X0221000Y0183800D02*
X0221000Y0174800D01*
X0226000Y0174800D01*
X0226000Y0169800D01*
X0226000Y0164800D02*
X0221000Y0164800D01*
X0226000Y0164800D02*
X0221000Y0174800D01*
X0223000Y0260800D02*
X0223000Y0269800D01*
X0218000Y0269800D01*
X0223000Y0279800D01*
X0218000Y0279800D01*
X0218000Y0284800D01*
X0223000Y0288800D02*
X0223000Y0279800D01*
X0228000Y0279800D01*
X0228000Y0274800D01*
X0228000Y0269800D02*
X0223000Y0279800D01*
X0223000Y0269800D02*
X0228000Y0269800D01*
X0223000Y0339800D02*
X0223000Y0348800D01*
X0218000Y0348800D01*
X0223000Y0358800D01*
X0218000Y0358800D01*
X0218000Y0363800D01*
X0223000Y0367800D02*
X0223000Y0358800D01*
X0228000Y0358800D01*
X0228000Y0353800D01*
X0228000Y0348800D02*
X0223000Y0348800D01*
X0228000Y0348800D02*
X0223000Y0358800D01*
D21*
X0228800Y0310800D03*
X0257200Y0310800D03*
X0257200Y0229800D03*
X0228800Y0229800D03*
X0226800Y0210800D03*
X0255200Y0210800D03*
X0256200Y0134800D03*
X0227800Y0134800D03*
X0121200Y0058800D03*
X0092800Y0058800D03*
X0454300Y0129300D03*
X0459300Y0129300D03*
X0487700Y0129300D03*
X0492700Y0129300D03*
X0507800Y0234800D03*
X0512800Y0234800D03*
X0541200Y0234800D03*
X0546200Y0234800D03*
X0546200Y0265800D03*
X0541200Y0265800D03*
X0512800Y0265800D03*
X0507800Y0265800D03*
X0604300Y0274300D03*
X0609300Y0274300D03*
X0609300Y0293800D03*
X0604300Y0293800D03*
X0637700Y0293800D03*
X0642700Y0293800D03*
X0642700Y0274300D03*
X0637700Y0274300D03*
D22*
X0723000Y0239800D02*
X0728000Y0239800D01*
X0733000Y0239800D01*
X0733000Y0236300D02*
X0728000Y0236300D01*
X0723000Y0236300D01*
X0234500Y0401800D02*
X0234500Y0406800D01*
X0234500Y0411800D01*
X0231000Y0411800D02*
X0231000Y0406800D01*
X0231000Y0401800D01*
X0232500Y0037800D02*
X0232500Y0032800D01*
X0232500Y0027800D01*
X0229000Y0027800D02*
X0229000Y0032800D01*
X0229000Y0037800D01*
D23*
X0471600Y0032101D02*
X0472201Y0032702D01*
X0472201Y0030900D01*
X0472801Y0030900D02*
X0471600Y0030900D01*
X0471900Y0029702D02*
X0472501Y0029702D01*
X0472801Y0029401D01*
X0472801Y0029101D01*
X0472501Y0028801D01*
X0472801Y0028501D01*
X0472801Y0028200D01*
X0472501Y0027900D01*
X0471900Y0027900D01*
X0471600Y0028200D01*
X0472201Y0028801D02*
X0472501Y0028801D01*
X0471600Y0029401D02*
X0471900Y0029702D01*
X0481600Y0029702D02*
X0481600Y0028501D01*
X0482201Y0027900D01*
X0482801Y0028501D01*
X0482801Y0029702D01*
X0482501Y0030900D02*
X0481900Y0030900D01*
X0481600Y0031200D01*
X0482201Y0031801D02*
X0482501Y0031801D01*
X0482801Y0031501D01*
X0482801Y0031200D01*
X0482501Y0030900D01*
X0482501Y0031801D02*
X0482801Y0032101D01*
X0482801Y0032401D01*
X0482501Y0032702D01*
X0481900Y0032702D01*
X0481600Y0032401D01*
X0492100Y0032702D02*
X0492100Y0030900D01*
X0492100Y0031501D02*
X0493001Y0031501D01*
X0493301Y0031801D01*
X0493301Y0032401D01*
X0493001Y0032702D01*
X0492100Y0032702D01*
X0492701Y0031501D02*
X0493301Y0030900D01*
X0493301Y0029702D02*
X0492100Y0029702D01*
X0492100Y0027900D01*
X0492100Y0028801D02*
X0492701Y0028801D01*
X0501600Y0029401D02*
X0501900Y0029702D01*
X0502501Y0029702D01*
X0502801Y0029401D01*
X0501600Y0028200D01*
X0501900Y0027900D01*
X0502501Y0027900D01*
X0502801Y0028200D01*
X0502801Y0029401D01*
X0501600Y0029401D02*
X0501600Y0028200D01*
X0501600Y0030900D02*
X0501600Y0032101D01*
X0502201Y0032702D01*
X0502801Y0032101D01*
X0502801Y0030900D01*
X0502801Y0031801D02*
X0501600Y0031801D01*
X0511600Y0031801D02*
X0512801Y0031801D01*
X0512801Y0032101D02*
X0512801Y0030900D01*
X0511600Y0030900D02*
X0511600Y0032101D01*
X0512201Y0032702D01*
X0512801Y0032101D01*
X0512201Y0029702D02*
X0512201Y0027900D01*
X0512801Y0027900D02*
X0511600Y0027900D01*
X0511600Y0029101D02*
X0512201Y0029702D01*
X0521600Y0029401D02*
X0521900Y0029702D01*
X0522501Y0029702D01*
X0522801Y0029401D01*
X0522801Y0029101D01*
X0521600Y0027900D01*
X0522801Y0027900D01*
X0522801Y0030900D02*
X0522801Y0032101D01*
X0522201Y0032702D01*
X0521600Y0032101D01*
X0521600Y0030900D01*
X0521600Y0031801D02*
X0522801Y0031801D01*
X0531600Y0031801D02*
X0532801Y0031801D01*
X0532801Y0032101D02*
X0532801Y0030900D01*
X0531600Y0030900D02*
X0531600Y0032101D01*
X0532201Y0032702D01*
X0532801Y0032101D01*
X0532501Y0029702D02*
X0532801Y0029401D01*
X0532801Y0029101D01*
X0532501Y0028801D01*
X0532801Y0028501D01*
X0532801Y0028200D01*
X0532501Y0027900D01*
X0531900Y0027900D01*
X0531600Y0028200D01*
X0532201Y0028801D02*
X0532501Y0028801D01*
X0532501Y0029702D02*
X0531900Y0029702D01*
X0531600Y0029401D01*
X0541600Y0028801D02*
X0542801Y0028801D01*
X0542501Y0029702D02*
X0541600Y0028801D01*
X0542501Y0027900D02*
X0542501Y0029702D01*
X0542801Y0030900D02*
X0542801Y0032101D01*
X0542201Y0032702D01*
X0541600Y0032101D01*
X0541600Y0030900D01*
X0541600Y0031801D02*
X0542801Y0031801D01*
X0551600Y0031801D02*
X0552801Y0031801D01*
X0552801Y0032101D02*
X0552801Y0030900D01*
X0552801Y0029702D02*
X0551600Y0029702D01*
X0551600Y0028801D01*
X0552201Y0029101D01*
X0552501Y0029101D01*
X0552801Y0028801D01*
X0552801Y0028200D01*
X0552501Y0027900D01*
X0551900Y0027900D01*
X0551600Y0028200D01*
X0551600Y0030900D02*
X0551600Y0032101D01*
X0552201Y0032702D01*
X0552801Y0032101D01*
X0581600Y0032301D02*
X0582201Y0032601D01*
X0582501Y0032601D01*
X0582801Y0032301D01*
X0582801Y0031700D01*
X0582501Y0031400D01*
X0581900Y0031400D01*
X0581600Y0031700D01*
X0581600Y0032301D02*
X0581600Y0033202D01*
X0582801Y0033202D01*
X0582801Y0030202D02*
X0582801Y0029001D01*
X0582201Y0028400D01*
X0581600Y0029001D01*
X0581600Y0030202D01*
X0591600Y0029901D02*
X0591600Y0029601D01*
X0591900Y0029301D01*
X0592501Y0029301D01*
X0592801Y0029001D01*
X0592801Y0028700D01*
X0592501Y0028400D01*
X0591900Y0028400D01*
X0591600Y0028700D01*
X0591600Y0029901D02*
X0591900Y0030202D01*
X0592501Y0030202D01*
X0592801Y0029901D01*
X0592801Y0031400D02*
X0592201Y0032001D01*
X0592501Y0032001D02*
X0591600Y0032001D01*
X0591600Y0031400D02*
X0591600Y0033202D01*
X0592501Y0033202D01*
X0592801Y0032901D01*
X0592801Y0032301D01*
X0592501Y0032001D01*
X0602100Y0031700D02*
X0602400Y0031400D01*
X0603001Y0031400D01*
X0603301Y0031700D01*
X0603301Y0032301D01*
X0602701Y0032301D01*
X0603301Y0032901D02*
X0603001Y0033202D01*
X0602400Y0033202D01*
X0602100Y0032901D01*
X0602100Y0031700D01*
X0612100Y0032001D02*
X0612701Y0031400D01*
X0613301Y0032001D01*
X0613301Y0033202D01*
X0612100Y0033202D02*
X0612100Y0032001D01*
X0612100Y0030202D02*
X0612701Y0030202D01*
X0612400Y0030202D02*
X0612400Y0028400D01*
X0612100Y0028400D02*
X0612701Y0028400D01*
X0622100Y0028400D02*
X0622701Y0028400D01*
X0622400Y0028400D02*
X0622400Y0030202D01*
X0622100Y0030202D02*
X0622701Y0030202D01*
X0623301Y0031400D02*
X0623301Y0033202D01*
X0622701Y0032601D01*
X0622100Y0033202D01*
X0622100Y0031400D01*
X0638600Y0036900D02*
X0638600Y0038702D01*
X0638900Y0037801D02*
X0639801Y0036900D01*
X0638600Y0037501D02*
X0639801Y0038702D01*
X0639501Y0039900D02*
X0639801Y0040200D01*
X0639501Y0039900D02*
X0638900Y0039900D01*
X0638600Y0040200D01*
X0638600Y0041401D01*
X0638900Y0041702D01*
X0639501Y0041702D01*
X0639801Y0041401D01*
X0639501Y0042900D02*
X0638900Y0042900D01*
X0638600Y0043200D01*
X0638900Y0043801D02*
X0639501Y0043801D01*
X0639801Y0043501D01*
X0639801Y0043200D01*
X0639501Y0042900D01*
X0638900Y0043801D02*
X0638600Y0044101D01*
X0638600Y0044401D01*
X0638900Y0044702D01*
X0639501Y0044702D01*
X0639801Y0044401D01*
X0630725Y0084400D02*
X0630125Y0084400D01*
X0630425Y0084400D02*
X0630425Y0086202D01*
X0630125Y0086202D02*
X0630725Y0086202D01*
X0629484Y0085901D02*
X0629184Y0086202D01*
X0628583Y0086202D01*
X0628283Y0085901D01*
X0628283Y0085601D01*
X0628583Y0085301D01*
X0629184Y0085301D01*
X0629484Y0085001D01*
X0629484Y0084700D01*
X0629184Y0084400D01*
X0628583Y0084400D01*
X0628283Y0084700D01*
X0627643Y0084700D02*
X0627643Y0085901D01*
X0627342Y0086202D01*
X0626742Y0086202D01*
X0626442Y0085901D01*
X0626442Y0084700D01*
X0626742Y0084400D01*
X0627342Y0084400D01*
X0627643Y0084700D01*
X0625801Y0084400D02*
X0625801Y0086202D01*
X0625201Y0085601D01*
X0624600Y0086202D01*
X0624600Y0084400D01*
X0622501Y0087900D02*
X0621900Y0087900D01*
X0621600Y0088200D01*
X0621900Y0088801D02*
X0622501Y0088801D01*
X0622801Y0088501D01*
X0622801Y0088200D01*
X0622501Y0087900D01*
X0621900Y0088801D02*
X0621600Y0089101D01*
X0621600Y0089401D01*
X0621900Y0089702D01*
X0622501Y0089702D01*
X0622801Y0089401D01*
X0622501Y0090900D02*
X0621900Y0090900D01*
X0621600Y0091200D01*
X0621900Y0091801D02*
X0622501Y0091801D01*
X0622801Y0091501D01*
X0622801Y0091200D01*
X0622501Y0090900D01*
X0621900Y0091801D02*
X0621600Y0092101D01*
X0621600Y0092401D01*
X0621900Y0092702D01*
X0622501Y0092702D01*
X0622801Y0092401D01*
X0612801Y0092702D02*
X0611600Y0092702D01*
X0612201Y0092702D02*
X0612201Y0090900D01*
X0612801Y0089702D02*
X0611600Y0087900D01*
X0612801Y0087900D02*
X0611600Y0089702D01*
X0602801Y0089702D02*
X0601600Y0087900D01*
X0602801Y0087900D02*
X0601600Y0089702D01*
X0601600Y0090900D02*
X0601600Y0092702D01*
X0602501Y0092702D01*
X0602801Y0092401D01*
X0602801Y0091801D01*
X0602501Y0091501D01*
X0601600Y0091501D01*
X0602201Y0091501D02*
X0602801Y0090900D01*
X0592801Y0089401D02*
X0592801Y0088801D01*
X0592501Y0088501D01*
X0591600Y0088501D01*
X0592201Y0088501D02*
X0592801Y0087900D01*
X0591600Y0087900D02*
X0591600Y0089702D01*
X0592501Y0089702D01*
X0592801Y0089401D01*
X0582801Y0089401D02*
X0582501Y0089702D01*
X0581900Y0089702D01*
X0581600Y0089401D01*
X0581600Y0088200D01*
X0581900Y0087900D01*
X0582501Y0087900D01*
X0582801Y0088200D01*
X0582801Y0088801D01*
X0582201Y0088801D01*
X0572801Y0089101D02*
X0572801Y0089401D01*
X0572501Y0089702D01*
X0571900Y0089702D01*
X0571600Y0089401D01*
X0572801Y0089101D02*
X0571600Y0087900D01*
X0572801Y0087900D01*
X0562801Y0088200D02*
X0562501Y0087900D01*
X0561900Y0087900D01*
X0561600Y0088200D01*
X0562201Y0088801D02*
X0562501Y0088801D01*
X0562801Y0088501D01*
X0562801Y0088200D01*
X0562501Y0088801D02*
X0562801Y0089101D01*
X0562801Y0089401D01*
X0562501Y0089702D01*
X0561900Y0089702D01*
X0561600Y0089401D01*
X0552801Y0088801D02*
X0551600Y0088801D01*
X0552501Y0089702D01*
X0552501Y0087900D01*
X0542801Y0088200D02*
X0542501Y0087900D01*
X0541900Y0087900D01*
X0541600Y0088200D01*
X0541600Y0088801D02*
X0542201Y0089101D01*
X0542501Y0089101D01*
X0542801Y0088801D01*
X0542801Y0088200D01*
X0541600Y0088801D02*
X0541600Y0089702D01*
X0542801Y0089702D01*
X0532801Y0089702D02*
X0532201Y0089401D01*
X0531600Y0088801D01*
X0532501Y0088801D01*
X0532801Y0088501D01*
X0532801Y0088200D01*
X0532501Y0087900D01*
X0531900Y0087900D01*
X0531600Y0088200D01*
X0531600Y0088801D01*
X0522801Y0089401D02*
X0521600Y0088200D01*
X0521600Y0087900D01*
X0521600Y0089702D02*
X0522801Y0089702D01*
X0522801Y0089401D01*
X0512801Y0089401D02*
X0512801Y0089101D01*
X0512501Y0088801D01*
X0511900Y0088801D01*
X0511600Y0089101D01*
X0511600Y0089401D01*
X0511900Y0089702D01*
X0512501Y0089702D01*
X0512801Y0089401D01*
X0512501Y0088801D02*
X0512801Y0088501D01*
X0512801Y0088200D01*
X0512501Y0087900D01*
X0511900Y0087900D01*
X0511600Y0088200D01*
X0511600Y0088501D01*
X0511900Y0088801D01*
X0502801Y0089700D02*
X0502801Y0090901D01*
X0502501Y0091202D01*
X0501900Y0091202D01*
X0501600Y0090901D01*
X0501600Y0090601D01*
X0501900Y0090301D01*
X0502801Y0090301D01*
X0502801Y0089700D02*
X0502501Y0089400D01*
X0501900Y0089400D01*
X0501600Y0089700D01*
X0492801Y0089401D02*
X0491600Y0088200D01*
X0491900Y0087900D01*
X0492501Y0087900D01*
X0492801Y0088200D01*
X0492801Y0089401D01*
X0492501Y0089702D01*
X0491900Y0089702D01*
X0491600Y0089401D01*
X0491600Y0088200D01*
X0491600Y0090900D02*
X0492801Y0090900D01*
X0492201Y0090900D02*
X0492201Y0092702D01*
X0491600Y0092101D01*
X0482801Y0090900D02*
X0481600Y0090900D01*
X0482201Y0090900D02*
X0482201Y0092702D01*
X0481600Y0092101D01*
X0482201Y0089702D02*
X0482201Y0087900D01*
X0482801Y0087900D02*
X0481600Y0087900D01*
X0481600Y0089101D02*
X0482201Y0089702D01*
X0472801Y0089401D02*
X0472501Y0089702D01*
X0471900Y0089702D01*
X0471600Y0089401D01*
X0472801Y0089401D02*
X0472801Y0089101D01*
X0471600Y0087900D01*
X0472801Y0087900D01*
X0472801Y0090900D02*
X0471600Y0090900D01*
X0472201Y0090900D02*
X0472201Y0092702D01*
X0471600Y0092101D01*
D24*
X0692750Y0220050D03*
X0692750Y0226550D03*
D25*
X0691750Y0223300D03*
D26*
X0641000Y0274300D02*
X0639500Y0274300D01*
X0639500Y0293800D02*
X0641000Y0293800D01*
X0607500Y0293800D02*
X0606000Y0293800D01*
X0606000Y0274300D02*
X0607500Y0274300D01*
X0544500Y0265800D02*
X0543000Y0265800D01*
X0511000Y0265800D02*
X0509500Y0265800D01*
X0509500Y0234800D02*
X0511000Y0234800D01*
X0543000Y0234800D02*
X0544500Y0234800D01*
X0491000Y0129300D02*
X0489500Y0129300D01*
X0457500Y0129300D02*
X0456000Y0129300D01*
X0428000Y0375300D02*
X0428000Y0376800D01*
X0428000Y0408800D02*
X0428000Y0410300D01*
X0586500Y0410300D02*
X0586500Y0408800D01*
X0586500Y0376800D02*
X0586500Y0375300D01*
D27*
X0635000Y0372800D03*
X0635000Y0382800D03*
X0662000Y0382800D03*
X0662000Y0372800D03*
X0662000Y0362800D03*
X0635000Y0362800D03*
X0488000Y0360800D03*
X0488000Y0370800D03*
X0488000Y0380800D03*
X0461000Y0380800D03*
X0461000Y0370800D03*
X0461000Y0360800D03*
D28*
X0451000Y0427800D03*
X0625000Y0427800D03*
D29*
X0627500Y0445050D03*
X0627500Y0410550D03*
X0453500Y0410550D03*
X0453500Y0445050D03*
D30*
X0453500Y0432800D03*
X0453500Y0422800D03*
X0627500Y0422800D03*
X0627500Y0432800D03*
M02*
