%
M48
M72
T01C0.02362
T02C0.03200
T03C0.03600
T04C0.03937
T05C0.04000
T06C0.04724
T07C0.05000
T08C0.05500
T09C0.06693
T10C0.07000
T11C0.07900
T12C0.14950
%
T01
X26000Y258800
X120000Y258800
X560500Y265800
X602500Y223800
X602500Y135300
X570000Y120800
T02
X582500Y165300
X592500Y165300
X602500Y165300
X612500Y165300
X612500Y195300
X602500Y195300
X592500Y195300
X582500Y195300
X552000Y234800
X552000Y265800
X542000Y286800
X532000Y286800
X522000Y286800
X512000Y286800
X502000Y286800
X502000Y265800
X502000Y250800
X502000Y234800
X482000Y250800
X468500Y194800
X448500Y194800
X448500Y164800
X458500Y164800
X468500Y164800
X448500Y129300
X498500Y129300
X328000Y114800
X291000Y104800
X281000Y114800
X291000Y124800
X262000Y130800
X262000Y114800
X222000Y114800
X222000Y130800
X221000Y149800
X190000Y154800
X190000Y134800
X147000Y123800
X137000Y123800
X127000Y123800
X88000Y122800
X88000Y132800
X88000Y142800
X88000Y152800
X58000Y152800
X58000Y142800
X58000Y132800
X58000Y122800
X87000Y97800
X87000Y77800
X87000Y58800
X127000Y58800
X127000Y93800
X137000Y93800
X147000Y93800
X178000Y80800
X198000Y80800
X222000Y74800
X262000Y74800
X328000Y74800
X261000Y149800
X291000Y179800
X281000Y189800
X291000Y199800
X261000Y204800
X261000Y189800
X221000Y189800
X221000Y204800
X222000Y238800
X223000Y254800
X198000Y254800
X178000Y254800
X159000Y274800
X149000Y274800
X139000Y274800
X139000Y258800
X139000Y218800
X139000Y202800
X139000Y182800
X262000Y238800
X262000Y253800
X291000Y243800
X301000Y253800
X291000Y263800
X328000Y277800
X328000Y237800
X328000Y207800
X328000Y167800
X196000Y282800
X223000Y294800
X196000Y302800
X223000Y316800
X223000Y333800
X263000Y333800
X263000Y316800
X262000Y293800
X291000Y323800
X301000Y333800
X291000Y343800
X328000Y333800
X328000Y373800
X263000Y373800
X223000Y373800
X159000Y304800
X149000Y304800
X139000Y304800
X93000Y339800
X53000Y339800
X28000Y339800
X28000Y319800
X428000Y367800
X459500Y370800
X459500Y360800
X459500Y380800
X489500Y380800
X489500Y370800
X489500Y360800
X502000Y316800
X512000Y316800
X522000Y316800
X532000Y316800
X542000Y316800
X598500Y293800
X598500Y274300
X628500Y253300
X648500Y253300
X648500Y274300
X676500Y278800
X676500Y288800
X676500Y298800
X648500Y293800
X706500Y288800
X706500Y278800
X706500Y298800
X663500Y362800
X663500Y372800
X663500Y382800
X633500Y382800
X633500Y372800
X633500Y362800
X586500Y367800
X586500Y417800
X428000Y417800
T03
X728000Y246300
X728000Y216300
T04
X88000Y238800
X88000Y258800
X88000Y278800
X58000Y278800
X58000Y258800
X58000Y238800
X58000Y308800
X88000Y308800
T05
X202000Y406800
X242000Y406800
X459500Y417800
X459500Y427800
X459500Y437800
X633500Y437800
X633500Y427800
X633500Y417800
X626500Y228300
X656500Y218300
X676500Y228300
X627500Y90300
X617500Y90300
X607500Y90300
X597500Y90300
X587500Y90300
X577500Y90300
X567500Y90300
X557500Y90300
X547500Y90300
X537500Y90300
X527500Y90300
X517500Y90300
X507500Y90300
X497500Y90300
X487500Y90300
X477500Y90300
X467500Y90300
X467500Y30300
X477500Y30300
X487500Y30300
X497500Y30300
X507500Y30300
X517500Y30300
X527500Y30300
X537500Y30300
X547500Y30300
X557500Y30300
X567500Y30300
X577500Y30300
X587500Y30300
X597500Y30300
X607500Y30300
X617500Y30300
X627500Y30300
X622500Y40800
X612500Y40800
X612500Y50800
X622500Y50800
X632500Y50800
X632500Y40800
X240000Y32800
X200000Y32800
T06
X457500Y30300
X457500Y90300
X637500Y90300
X637500Y30300
T07
X735800Y298700
X42000Y71800
T08
X354000Y134800
X379000Y134800
X379000Y74800
X354000Y194800
X381000Y253800
X381000Y313800
X355000Y313800
X355000Y373800
T09
X448000Y302595
X448000Y287005
X529909Y392800
X545500Y392800
X561091Y392800
X556591Y468300
X541000Y468300
X525409Y468300
X663009Y463000
X678600Y463000
X694191Y463000
X93000Y396595
X93000Y381005
X28000Y378595
X28000Y363005
T10
X31961Y81839
X52039Y81839
X52039Y61761
X31961Y61761
X725761Y288661
X745839Y288661
X745839Y308739
X725761Y308739
T11
X381000Y222100
X290000Y406800
X291000Y32800
T12
X26000Y26800
X370000Y26800
X431000Y26800
X735000Y26800
X370000Y401800
X431000Y501800
X735000Y501800
X26000Y401800
M30
