G75*
%MOIN*%
%OFA0B0*%
%FSLAX25Y25*%
%IPPOS*%
%LPD*%
%AMOC8*
5,1,8,0,0,1.08239X$1,22.5*
%
%ADD10C,0.15750*%
%ADD11C,0.07000*%
%ADD12C,0.05524*%
%ADD13R,0.05800X0.03300*%
%ADD14OC8,0.07000*%
%ADD15C,0.06000*%
%ADD16OC8,0.06000*%
%ADD17C,0.06800*%
%ADD18C,0.08300*%
%ADD19C,0.11300*%
%ADD20C,0.10839*%
%ADD21R,0.25209X0.23635*%
%ADD22R,0.12611X0.07099*%
%ADD23R,0.04762X0.04762*%
D10*
X0076115Y0026500D03*
X0380115Y0026500D03*
X0380615Y0524000D03*
X0076615Y0524000D03*
D11*
X0112615Y0090000D03*
X0122615Y0090000D03*
X0132615Y0090000D03*
X0142615Y0090000D03*
X0152615Y0090000D03*
X0162615Y0090000D03*
X0172615Y0090000D03*
X0182615Y0090000D03*
X0192615Y0090000D03*
X0202615Y0090000D03*
X0212615Y0090000D03*
X0222615Y0090000D03*
X0232615Y0090000D03*
X0242615Y0090000D03*
X0252615Y0090000D03*
X0262615Y0090000D03*
X0272615Y0090000D03*
X0272615Y0030000D03*
X0262615Y0030000D03*
X0252615Y0030000D03*
X0242615Y0030000D03*
X0232615Y0030000D03*
X0222615Y0030000D03*
X0212615Y0030000D03*
X0202615Y0030000D03*
X0192615Y0030000D03*
X0182615Y0030000D03*
X0172615Y0030000D03*
X0162615Y0030000D03*
X0152615Y0030000D03*
X0142615Y0030000D03*
X0132615Y0030000D03*
X0122615Y0030000D03*
X0112615Y0030000D03*
D12*
X0102615Y0030000D03*
X0102615Y0090000D03*
X0282615Y0090000D03*
X0282615Y0030000D03*
D13*
X0110015Y0052400D03*
X0110015Y0056400D03*
X0110015Y0060200D03*
X0110015Y0064200D03*
X0110015Y0068100D03*
D14*
X0257615Y0050500D03*
X0257615Y0040500D03*
X0267615Y0040500D03*
X0267615Y0050500D03*
X0277615Y0050500D03*
X0277615Y0040500D03*
D15*
X0257615Y0162400D02*
X0257615Y0167600D01*
X0247615Y0167600D02*
X0247615Y0162400D01*
X0237615Y0162400D02*
X0237615Y0167600D01*
X0227615Y0167600D02*
X0227615Y0162400D01*
X0227615Y0192400D02*
X0227615Y0197600D01*
X0237615Y0197600D02*
X0237615Y0192400D01*
X0247615Y0192400D02*
X0247615Y0197600D01*
X0257615Y0197600D02*
X0257615Y0192400D01*
X0233115Y0308900D02*
X0233115Y0314100D01*
X0223115Y0314100D02*
X0223115Y0308900D01*
X0213115Y0308900D02*
X0213115Y0314100D01*
X0203115Y0314100D02*
X0203115Y0308900D01*
X0193115Y0308900D02*
X0193115Y0314100D01*
X0193115Y0338900D02*
X0193115Y0344100D01*
X0203115Y0344100D02*
X0203115Y0338900D01*
X0213115Y0338900D02*
X0213115Y0344100D01*
X0223115Y0344100D02*
X0223115Y0338900D01*
X0233115Y0338900D02*
X0233115Y0344100D01*
X0237115Y0390900D02*
X0237115Y0396100D01*
X0247115Y0396100D02*
X0247115Y0390900D01*
X0257115Y0390900D02*
X0257115Y0396100D01*
X0267115Y0396100D02*
X0267115Y0390900D01*
X0267115Y0420900D02*
X0267115Y0426100D01*
X0257115Y0426100D02*
X0257115Y0420900D01*
X0247115Y0420900D02*
X0247115Y0426100D01*
X0237115Y0426100D02*
X0237115Y0420900D01*
X0151115Y0322600D02*
X0151115Y0317400D01*
X0141115Y0317400D02*
X0141115Y0322600D01*
X0131115Y0322600D02*
X0131115Y0317400D01*
X0121115Y0317400D02*
X0121115Y0322600D01*
X0111115Y0322600D02*
X0111115Y0317400D01*
X0111115Y0292600D02*
X0111115Y0287400D01*
X0121115Y0287400D02*
X0121115Y0292600D01*
X0131115Y0292600D02*
X0131115Y0287400D01*
X0141115Y0287400D02*
X0141115Y0292600D01*
X0151115Y0292600D02*
X0151115Y0287400D01*
X0141115Y0386900D02*
X0141115Y0392100D01*
X0131115Y0392100D02*
X0131115Y0386900D01*
X0121115Y0386900D02*
X0121115Y0392100D01*
X0111115Y0392100D02*
X0111115Y0386900D01*
X0111115Y0416900D02*
X0111115Y0422100D01*
X0121115Y0422100D02*
X0121115Y0416900D01*
X0131115Y0416900D02*
X0131115Y0422100D01*
X0141115Y0422100D02*
X0141115Y0416900D01*
X0362015Y0303500D02*
X0367215Y0303500D01*
X0367215Y0293500D02*
X0362015Y0293500D01*
X0362015Y0283500D02*
X0367215Y0283500D01*
X0392015Y0283500D02*
X0397215Y0283500D01*
X0397215Y0293500D02*
X0392015Y0293500D01*
X0392015Y0303500D02*
X0397215Y0303500D01*
D16*
X0415115Y0240000D03*
X0415115Y0220000D03*
X0331615Y0274000D03*
X0331615Y0293500D03*
X0312615Y0253000D03*
X0292615Y0253000D03*
X0281615Y0274000D03*
X0281615Y0293500D03*
X0287115Y0332500D03*
X0307615Y0368500D03*
X0287115Y0382500D03*
X0256115Y0369000D03*
X0236115Y0369000D03*
X0210115Y0428500D03*
X0223615Y0444500D03*
X0273615Y0444500D03*
X0273615Y0459000D03*
X0307615Y0418500D03*
X0327615Y0410500D03*
X0366115Y0438000D03*
X0386115Y0438000D03*
X0327615Y0460500D03*
X0273615Y0509000D03*
X0167115Y0404500D03*
X0160115Y0428500D03*
X0162115Y0447500D03*
X0142115Y0447500D03*
X0167115Y0354500D03*
X0175115Y0265500D03*
X0175115Y0234500D03*
X0125115Y0234500D03*
X0125115Y0250500D03*
X0125115Y0265500D03*
X0105115Y0250500D03*
X0079615Y0305000D03*
X0055115Y0318500D03*
X0035115Y0318500D03*
X0031115Y0338500D03*
X0031115Y0388500D03*
X0079615Y0355000D03*
X0069615Y0195000D03*
X0089615Y0195000D03*
X0089615Y0165000D03*
X0079615Y0165000D03*
X0069615Y0165000D03*
X0079615Y0142500D03*
X0129615Y0142500D03*
D17*
X0287615Y0228000D02*
X0293615Y0228000D01*
X0317615Y0218000D02*
X0323615Y0218000D01*
X0337615Y0228000D02*
X0343615Y0228000D01*
X0368115Y0474500D02*
X0374115Y0474500D01*
X0374115Y0484500D02*
X0368115Y0484500D01*
X0368115Y0494500D02*
X0374115Y0494500D01*
X0218115Y0494500D02*
X0212115Y0494500D01*
X0212115Y0484500D02*
X0218115Y0484500D01*
X0218115Y0474500D02*
X0212115Y0474500D01*
X0086615Y0474000D02*
X0080615Y0474000D01*
X0080615Y0484000D02*
X0086615Y0484000D01*
X0086615Y0494000D02*
X0080615Y0494000D01*
D18*
X0422915Y0297400D03*
D19*
X0412876Y0287361D03*
X0412876Y0307439D03*
X0432954Y0307439D03*
X0432954Y0287361D03*
D20*
X0426135Y0408114D02*
X0416096Y0408114D01*
X0416096Y0423705D02*
X0426135Y0423705D01*
X0426135Y0439295D02*
X0416096Y0439295D01*
X0416096Y0454886D02*
X0426135Y0454886D01*
X0289001Y0532980D02*
X0289001Y0543020D01*
X0273411Y0543020D02*
X0273411Y0532980D01*
X0257820Y0532980D02*
X0257820Y0543020D01*
X0242230Y0543020D02*
X0242230Y0532980D01*
X0169501Y0531980D02*
X0169501Y0542020D01*
X0153911Y0542020D02*
X0153911Y0531980D01*
X0138320Y0531980D02*
X0138320Y0542020D01*
X0122730Y0542020D02*
X0122730Y0531980D01*
X0074135Y0276795D02*
X0064096Y0276795D01*
X0064096Y0261205D02*
X0074135Y0261205D01*
D21*
X0030245Y0483000D03*
X0145245Y0483500D03*
X0312745Y0483000D03*
D22*
X0341013Y0474024D03*
X0341013Y0491976D03*
X0173513Y0492476D03*
X0173513Y0474524D03*
X0058513Y0474024D03*
X0058513Y0491976D03*
D23*
X0181365Y0368750D03*
X0203115Y0282000D03*
X0205615Y0265500D03*
X0245115Y0240000D03*
X0247615Y0223500D03*
X0247615Y0135000D03*
X0215115Y0120500D03*
X0390115Y0355000D03*
X0187115Y0474500D03*
X0183814Y0484301D03*
M02*
