%
M48
M72
T01C0.02362
T02C0.03200
T03C0.04000
T04C0.04700
T05C0.04724
T06C0.05000
T07C0.06693
T08C0.07000
T09C0.14950
T10C0.16200
%
T01
X291216Y120500
X323716Y135000
X323716Y223500
X321216Y240000
X281716Y265500
X279216Y282000
X257466Y368750
X187216Y417500
X186716Y418000
X313716Y423000
X159216Y308114
X609216Y308114
X707466Y368750
X637216Y417500
X636716Y418000
X763716Y423000
X729216Y282000
X731716Y265500
X771216Y240000
X773716Y223500
X773716Y135000
X741216Y120500
T02
X116716Y74500
X136716Y85500
X116716Y124500
X136716Y135500
X156716Y142500
X156716Y167000
X146716Y167000
X136716Y167000
X126716Y167000
X116716Y167000
X106716Y167000
X106716Y197000
X116716Y197000
X126716Y197000
X136716Y197000
X146716Y197000
X156716Y197000
X166716Y197000
X176716Y197000
X176716Y167000
X166716Y167000
X206716Y142500
X303716Y165000
X313716Y165000
X323716Y165000
X333716Y165000
X333716Y195000
X323716Y195000
X313716Y195000
X303716Y195000
X251216Y234500
X251216Y265500
X227216Y290000
X217216Y290000
X207216Y290000
X197216Y290000
X187216Y290000
X201216Y265500
X201216Y250500
X201216Y234500
X181216Y250500
X269216Y311500
X279216Y311500
X289216Y311500
X299216Y311500
X309216Y311500
X309216Y341500
X299216Y341500
X289216Y341500
X279216Y341500
X269216Y341500
X227216Y320000
X217216Y320000
X207216Y320000
X197216Y320000
X187216Y320000
X197216Y348500
X157716Y374500
X147216Y348500
X107716Y374500
X107716Y417000
X127716Y417000
X187216Y419500
X197216Y419500
X207216Y419500
X217216Y419500
X217216Y389500
X207216Y389500
X197216Y389500
X187216Y389500
X293216Y458000
X313216Y423500
X323216Y423500
X333216Y423500
X343216Y423500
X383216Y418500
X343216Y393500
X333216Y393500
X323216Y393500
X313216Y393500
X312216Y369000
X332216Y369000
X363216Y382500
X383216Y369500
X363216Y332500
X357716Y293500
X357716Y274000
X368716Y253000
X388716Y253000
X407716Y274000
X407716Y293500
X440716Y293500
X440716Y283500
X470716Y283500
X470716Y293500
X470716Y303500
X440716Y303500
X433216Y369500
X458216Y371500
X458216Y391500
X433216Y418500
X505216Y389000
X505216Y369000
X557716Y374500
X597216Y348500
X607716Y374500
X637216Y389500
X647216Y389500
X657216Y389500
X667216Y389500
X667216Y419500
X657216Y419500
X647216Y419500
X637216Y419500
X577716Y417000
X557716Y417000
X647216Y348500
X647216Y320000
X637216Y320000
X657216Y320000
X667216Y320000
X677216Y320000
X677216Y290000
X667216Y290000
X657216Y290000
X647216Y290000
X637216Y290000
X651216Y265500
X651216Y250500
X651216Y234500
X631216Y250500
X626716Y197000
X616716Y197000
X606716Y197000
X596716Y197000
X586716Y197000
X576716Y197000
X566716Y197000
X556716Y197000
X556716Y167000
X566716Y167000
X576716Y167000
X586716Y167000
X596716Y167000
X606716Y167000
X616716Y167000
X626716Y167000
X606716Y142500
X586716Y135500
X566716Y124500
X586716Y85500
X566716Y74500
X656716Y142500
X753716Y165000
X763716Y165000
X773716Y165000
X783716Y165000
X783716Y195000
X773716Y195000
X763716Y195000
X753716Y195000
X701216Y234500
X701216Y265500
X719216Y311500
X729216Y311500
X739216Y311500
X749216Y311500
X759216Y311500
X759216Y341500
X749216Y341500
X739216Y341500
X729216Y341500
X719216Y341500
X762216Y369000
X782216Y369000
X813216Y382500
X793216Y393500
X783216Y393500
X773216Y393500
X763216Y393500
X763216Y423500
X773216Y423500
X783216Y423500
X793216Y423500
X833216Y418500
X883216Y418500
X908216Y391500
X908216Y371500
X883216Y369500
X833216Y369500
X813216Y332500
X807716Y293500
X807716Y274000
X818716Y253000
X838716Y253000
X857716Y274000
X857716Y293500
X890716Y293500
X890716Y283500
X920716Y283500
X920716Y293500
X920716Y303500
X890716Y303500
X955216Y369000
X955216Y389000
X793216Y458000
X792716Y490000
X742716Y490000
X743216Y458000
X941216Y240000
X941216Y220000
X491216Y220000
X491216Y240000
X343216Y458000
X342716Y490000
X292716Y490000
T03
X366716Y228000
X396716Y218000
X416716Y228000
X348716Y90000
X338716Y90000
X328716Y90000
X318716Y90000
X308716Y90000
X298716Y90000
X288716Y90000
X278716Y90000
X268716Y90000
X258716Y90000
X248716Y90000
X238716Y90000
X228716Y90000
X218716Y90000
X208716Y90000
X198716Y90000
X188716Y90000
X188716Y30000
X198716Y30000
X208716Y30000
X218716Y30000
X228716Y30000
X238716Y30000
X248716Y30000
X258716Y30000
X268716Y30000
X278716Y30000
X288716Y30000
X298716Y30000
X308716Y30000
X318716Y30000
X328716Y30000
X338716Y30000
X348716Y30000
X343716Y40500
X333716Y40500
X333716Y50500
X343716Y50500
X353716Y50500
X353716Y40500
X638716Y30000
X648716Y30000
X658716Y30000
X668716Y30000
X678716Y30000
X688716Y30000
X698716Y30000
X708716Y30000
X718716Y30000
X728716Y30000
X738716Y30000
X748716Y30000
X758716Y30000
X768716Y30000
X778716Y30000
X788716Y30000
X798716Y30000
X793716Y40500
X783716Y40500
X783716Y50500
X793716Y50500
X803716Y50500
X803716Y40500
X798716Y90000
X788716Y90000
X778716Y90000
X768716Y90000
X758716Y90000
X748716Y90000
X738716Y90000
X728716Y90000
X718716Y90000
X708716Y90000
X698716Y90000
X688716Y90000
X678716Y90000
X668716Y90000
X658716Y90000
X648716Y90000
X638716Y90000
X816716Y228000
X846716Y218000
X866716Y228000
T04
X904469Y541347
X874063Y571753
X646369Y572753
X615963Y542347
X465369Y551747
X434963Y582153
X196869Y572753
X166463Y542347
T05
X178716Y90000
X178716Y30000
X358716Y30000
X358716Y90000
X628716Y90000
X628716Y30000
X808716Y30000
X808716Y90000
T06
X949016Y297400
X499016Y297400
T07
X562330Y308000
X577921Y308000
X593511Y308000
X609102Y308000
X572511Y239000
X556921Y239000
X505102Y432000
X489511Y432000
X473921Y432000
X458330Y432000
X326807Y542500
X311216Y542500
X295625Y542500
X295625Y612000
X311216Y612000
X326807Y612000
X745625Y612000
X761216Y612000
X776807Y612000
X776807Y542500
X761216Y542500
X745625Y542500
X908330Y432000
X923921Y432000
X939511Y432000
X955102Y432000
X159102Y308000
X143511Y308000
X127921Y308000
X112330Y308000
X106921Y239000
X122511Y239000
T08
X488977Y287361
X509055Y287361
X509055Y307439
X488977Y307439
X938977Y307439
X959055Y307439
X959055Y287361
X938977Y287361
T09
X872716Y448500
X582716Y452500
X425716Y445500
X123716Y451000
X152216Y26500
X456216Y26500
X602216Y26500
X906216Y26500
T10
X852143Y519427
X936289Y603573
X668289Y520427
X584143Y604573
X487289Y604073
X403143Y519927
X218789Y520427
X134643Y604573
M30
