%
M48
M72
T01C0.02362
T02C0.03200
T03C0.04000
T04C0.04724
T05C0.05000
T06C0.06693
T07C0.07000
T08C0.14950
%
T01
X205615Y265500
X203115Y282000
X245115Y240000
X247615Y223500
X247615Y135000
X215115Y120500
X390115Y355000
X187115Y474500
X183814Y484301
X181365Y368750
T02
X167115Y354500
X193115Y341500
X203115Y341500
X213115Y341500
X223115Y341500
X233115Y341500
X236115Y369000
X237115Y393500
X247115Y393500
X257115Y393500
X267115Y393500
X287115Y382500
X307615Y368500
X287115Y332500
X281615Y293500
X281615Y274000
X292615Y253000
X312615Y253000
X331615Y274000
X331615Y293500
X364615Y293500
X364615Y283500
X364615Y303500
X394615Y303500
X394615Y293500
X394615Y283500
X415115Y240000
X415115Y220000
X257615Y195000
X247615Y195000
X237615Y195000
X227615Y195000
X227615Y165000
X237615Y165000
X247615Y165000
X257615Y165000
X175115Y234500
X175115Y265500
X151115Y290000
X141115Y290000
X131115Y290000
X121115Y290000
X111115Y290000
X125115Y265500
X125115Y250500
X125115Y234500
X105115Y250500
X79615Y305000
X55115Y318500
X35115Y318500
X31115Y338500
X31115Y388500
X79615Y355000
X111115Y389500
X121115Y389500
X131115Y389500
X141115Y389500
X141115Y419500
X131115Y419500
X121115Y419500
X111115Y419500
X142115Y447500
X162115Y447500
X160115Y428500
X167115Y404500
X210115Y428500
X223615Y444500
X237115Y423500
X247115Y423500
X257115Y423500
X267115Y423500
X273615Y444500
X273615Y459000
X307615Y418500
X327615Y410500
X366115Y438000
X386115Y438000
X327615Y460500
X273615Y509000
X256115Y369000
X233115Y311500
X223115Y311500
X213115Y311500
X203115Y311500
X193115Y311500
X151115Y320000
X141115Y320000
X131115Y320000
X121115Y320000
X111115Y320000
X89615Y195000
X69615Y195000
X69615Y165000
X79615Y165000
X89615Y165000
X79615Y142500
X129615Y142500
T03
X132615Y90000
X142615Y90000
X152615Y90000
X162615Y90000
X172615Y90000
X182615Y90000
X192615Y90000
X202615Y90000
X212615Y90000
X222615Y90000
X232615Y90000
X242615Y90000
X252615Y90000
X262615Y90000
X272615Y90000
X267615Y50500
X267615Y40500
X257615Y40500
X257615Y50500
X252615Y30000
X242615Y30000
X232615Y30000
X222615Y30000
X212615Y30000
X202615Y30000
X192615Y30000
X182615Y30000
X172615Y30000
X162615Y30000
X152615Y30000
X142615Y30000
X132615Y30000
X122615Y30000
X112615Y30000
X112615Y90000
X122615Y90000
X262615Y30000
X272615Y30000
X277615Y40500
X277615Y50500
X320615Y218000
X340615Y228000
X290615Y228000
X215115Y474500
X215115Y484500
X215115Y494500
X83615Y494000
X83615Y484000
X83615Y474000
X371115Y474500
X371115Y484500
X371115Y494500
T04
X282615Y90000
X282615Y30000
X102615Y30000
X102615Y90000
T05
X422915Y297400
T06
X421115Y408114
X421115Y423705
X421115Y439295
X421115Y454886
X289001Y538000
X273411Y538000
X257820Y538000
X242230Y538000
X169501Y537000
X153911Y537000
X138320Y537000
X122730Y537000
X69115Y276795
X69115Y261205
T07
X412876Y287361
X412876Y307439
X432954Y307439
X432954Y287361
T08
X76115Y26500
X380115Y26500
X380615Y524000
X76615Y524000
M30
