G75*
%MOIN*%
%OFA0B0*%
%FSLAX25Y25*%
%IPPOS*%
%LPD*%
%AMOC8*
5,1,8,0,0,1.08239X$1,22.5*
%
%ADD10C,0.06200*%
%ADD11OC8,0.06200*%
%ADD12C,0.05200*%
%ADD13OC8,0.05200*%
%ADD14C,0.06000*%
%ADD15C,0.07500*%
%ADD16C,0.10500*%
%ADD17C,0.10039*%
%ADD18C,0.01600*%
%ADD19C,0.05600*%
%ADD20R,0.03962X0.03962*%
%ADD21C,0.08600*%
D10*
X0112615Y0030000D03*
X0122615Y0030000D03*
X0132615Y0030000D03*
X0142615Y0030000D03*
X0152615Y0030000D03*
X0162615Y0030000D03*
X0172615Y0030000D03*
X0182615Y0030000D03*
X0192615Y0030000D03*
X0202615Y0030000D03*
X0212615Y0030000D03*
X0222615Y0030000D03*
X0232615Y0030000D03*
X0242615Y0030000D03*
X0252615Y0030000D03*
X0262615Y0030000D03*
X0272615Y0030000D03*
X0272615Y0090000D03*
X0262615Y0090000D03*
X0252615Y0090000D03*
X0242615Y0090000D03*
X0232615Y0090000D03*
X0222615Y0090000D03*
X0212615Y0090000D03*
X0202615Y0090000D03*
X0192615Y0090000D03*
X0182615Y0090000D03*
X0172615Y0090000D03*
X0162615Y0090000D03*
X0152615Y0090000D03*
X0142615Y0090000D03*
X0132615Y0090000D03*
X0122615Y0090000D03*
X0112615Y0090000D03*
D11*
X0257615Y0050500D03*
X0257615Y0040500D03*
X0267615Y0040500D03*
X0267615Y0050500D03*
X0277615Y0050500D03*
X0277615Y0040500D03*
D12*
X0257615Y0162400D02*
X0257615Y0167600D01*
X0247615Y0167600D02*
X0247615Y0162400D01*
X0237615Y0162400D02*
X0237615Y0167600D01*
X0227615Y0167600D02*
X0227615Y0162400D01*
X0227615Y0192400D02*
X0227615Y0197600D01*
X0237615Y0197600D02*
X0237615Y0192400D01*
X0247615Y0192400D02*
X0247615Y0197600D01*
X0257615Y0197600D02*
X0257615Y0192400D01*
X0233115Y0308900D02*
X0233115Y0314100D01*
X0223115Y0314100D02*
X0223115Y0308900D01*
X0213115Y0308900D02*
X0213115Y0314100D01*
X0203115Y0314100D02*
X0203115Y0308900D01*
X0193115Y0308900D02*
X0193115Y0314100D01*
X0193115Y0338900D02*
X0193115Y0344100D01*
X0203115Y0344100D02*
X0203115Y0338900D01*
X0213115Y0338900D02*
X0213115Y0344100D01*
X0223115Y0344100D02*
X0223115Y0338900D01*
X0233115Y0338900D02*
X0233115Y0344100D01*
X0237115Y0390900D02*
X0237115Y0396100D01*
X0247115Y0396100D02*
X0247115Y0390900D01*
X0257115Y0390900D02*
X0257115Y0396100D01*
X0267115Y0396100D02*
X0267115Y0390900D01*
X0267115Y0420900D02*
X0267115Y0426100D01*
X0257115Y0426100D02*
X0257115Y0420900D01*
X0247115Y0420900D02*
X0247115Y0426100D01*
X0237115Y0426100D02*
X0237115Y0420900D01*
X0151115Y0322600D02*
X0151115Y0317400D01*
X0141115Y0317400D02*
X0141115Y0322600D01*
X0131115Y0322600D02*
X0131115Y0317400D01*
X0121115Y0317400D02*
X0121115Y0322600D01*
X0111115Y0322600D02*
X0111115Y0317400D01*
X0111115Y0292600D02*
X0111115Y0287400D01*
X0121115Y0287400D02*
X0121115Y0292600D01*
X0131115Y0292600D02*
X0131115Y0287400D01*
X0141115Y0287400D02*
X0141115Y0292600D01*
X0151115Y0292600D02*
X0151115Y0287400D01*
X0141115Y0386900D02*
X0141115Y0392100D01*
X0131115Y0392100D02*
X0131115Y0386900D01*
X0121115Y0386900D02*
X0121115Y0392100D01*
X0111115Y0392100D02*
X0111115Y0386900D01*
X0111115Y0416900D02*
X0111115Y0422100D01*
X0121115Y0422100D02*
X0121115Y0416900D01*
X0131115Y0416900D02*
X0131115Y0422100D01*
X0141115Y0422100D02*
X0141115Y0416900D01*
X0362015Y0303500D02*
X0367215Y0303500D01*
X0367215Y0293500D02*
X0362015Y0293500D01*
X0362015Y0283500D02*
X0367215Y0283500D01*
X0392015Y0283500D02*
X0397215Y0283500D01*
X0397215Y0293500D02*
X0392015Y0293500D01*
X0392015Y0303500D02*
X0397215Y0303500D01*
D13*
X0415115Y0240000D03*
X0415115Y0220000D03*
X0331615Y0274000D03*
X0331615Y0293500D03*
X0312615Y0253000D03*
X0292615Y0253000D03*
X0281615Y0274000D03*
X0281615Y0293500D03*
X0287115Y0332500D03*
X0307615Y0368500D03*
X0287115Y0382500D03*
X0256115Y0369000D03*
X0236115Y0369000D03*
X0210115Y0428500D03*
X0223615Y0444500D03*
X0273615Y0444500D03*
X0273615Y0459000D03*
X0307615Y0418500D03*
X0327615Y0410500D03*
X0366115Y0438000D03*
X0386115Y0438000D03*
X0327615Y0460500D03*
X0273615Y0509000D03*
X0167115Y0404500D03*
X0160115Y0428500D03*
X0162115Y0447500D03*
X0142115Y0447500D03*
X0167115Y0354500D03*
X0175115Y0265500D03*
X0175115Y0234500D03*
X0125115Y0234500D03*
X0125115Y0250500D03*
X0125115Y0265500D03*
X0105115Y0250500D03*
X0079615Y0305000D03*
X0055115Y0318500D03*
X0035115Y0318500D03*
X0031115Y0338500D03*
X0031115Y0388500D03*
X0079615Y0355000D03*
X0069615Y0195000D03*
X0089615Y0195000D03*
X0089615Y0165000D03*
X0079615Y0165000D03*
X0069615Y0165000D03*
X0079615Y0142500D03*
X0129615Y0142500D03*
D14*
X0287615Y0228000D02*
X0293615Y0228000D01*
X0317615Y0218000D02*
X0323615Y0218000D01*
X0337615Y0228000D02*
X0343615Y0228000D01*
X0368115Y0474500D02*
X0374115Y0474500D01*
X0374115Y0484500D02*
X0368115Y0484500D01*
X0368115Y0494500D02*
X0374115Y0494500D01*
X0218115Y0494500D02*
X0212115Y0494500D01*
X0212115Y0484500D02*
X0218115Y0484500D01*
X0218115Y0474500D02*
X0212115Y0474500D01*
X0086615Y0474000D02*
X0080615Y0474000D01*
X0080615Y0484000D02*
X0086615Y0484000D01*
X0086615Y0494000D02*
X0080615Y0494000D01*
D15*
X0422915Y0297400D03*
D16*
X0412876Y0287361D03*
X0412876Y0307439D03*
X0432954Y0307439D03*
X0432954Y0287361D03*
D17*
X0426135Y0408114D02*
X0416096Y0408114D01*
X0416096Y0423705D02*
X0426135Y0423705D01*
X0426135Y0439295D02*
X0416096Y0439295D01*
X0416096Y0454886D02*
X0426135Y0454886D01*
X0289001Y0532980D02*
X0289001Y0543020D01*
X0273411Y0543020D02*
X0273411Y0532980D01*
X0257820Y0532980D02*
X0257820Y0543020D01*
X0242230Y0543020D02*
X0242230Y0532980D01*
X0169501Y0531980D02*
X0169501Y0542020D01*
X0153911Y0542020D02*
X0153911Y0531980D01*
X0138320Y0531980D02*
X0138320Y0542020D01*
X0122730Y0542020D02*
X0122730Y0531980D01*
X0074135Y0276795D02*
X0064096Y0276795D01*
X0064096Y0261205D02*
X0074135Y0261205D01*
D18*
X0018015Y0177007D02*
X0018015Y0007893D01*
X0215419Y0007669D01*
X0214874Y0008203D01*
X0214853Y0008251D01*
X0214816Y0008289D01*
X0214135Y0009933D01*
X0213436Y0011569D01*
X0213435Y0011621D01*
X0213415Y0011670D01*
X0213415Y0013450D01*
X0213396Y0015229D01*
X0213415Y0015277D01*
X0213415Y0018350D01*
X0096293Y0018350D01*
X0093848Y0019362D01*
X0091978Y0021233D01*
X0090965Y0023677D01*
X0090965Y0096323D01*
X0091978Y0098767D01*
X0093848Y0100638D01*
X0096293Y0101650D01*
X0133415Y0101650D01*
X0133415Y0110800D01*
X0067785Y0110800D01*
X0064404Y0112201D01*
X0061816Y0114789D01*
X0060415Y0118170D01*
X0060415Y0166830D01*
X0060615Y0167313D01*
X0060615Y0168728D01*
X0061616Y0169729D01*
X0061816Y0170211D01*
X0064404Y0172799D01*
X0064887Y0172999D01*
X0065887Y0174000D01*
X0067303Y0174000D01*
X0067785Y0174200D01*
X0071445Y0174200D01*
X0071928Y0174000D01*
X0073343Y0174000D01*
X0074344Y0172999D01*
X0074615Y0172887D01*
X0074887Y0172999D01*
X0075887Y0174000D01*
X0077303Y0174000D01*
X0077785Y0174200D01*
X0081445Y0174200D01*
X0081928Y0174000D01*
X0083343Y0174000D01*
X0084344Y0172999D01*
X0084728Y0172840D01*
X0085887Y0174000D01*
X0093343Y0174000D01*
X0098615Y0168728D01*
X0098615Y0161272D01*
X0093343Y0156000D01*
X0088815Y0156000D01*
X0088815Y0140670D01*
X0088615Y0140187D01*
X0088615Y0138772D01*
X0087615Y0137771D01*
X0087415Y0137289D01*
X0084827Y0134701D01*
X0084344Y0134501D01*
X0083343Y0133500D01*
X0081928Y0133500D01*
X0081445Y0133300D01*
X0078815Y0133300D01*
X0078815Y0129200D01*
X0144445Y0129200D01*
X0147827Y0127799D01*
X0150415Y0125211D01*
X0151815Y0121830D01*
X0151815Y0101650D01*
X0193415Y0101650D01*
X0193415Y0109830D01*
X0194816Y0113211D01*
X0207707Y0126102D01*
X0207709Y0126106D01*
X0209509Y0127907D01*
X0209513Y0127908D01*
X0209904Y0128299D01*
X0213285Y0129700D01*
X0215415Y0129700D01*
X0215415Y0144330D01*
X0216816Y0147711D01*
X0223477Y0154373D01*
X0222517Y0154770D01*
X0219986Y0157302D01*
X0218615Y0160610D01*
X0218615Y0162687D01*
X0218415Y0163170D01*
X0218415Y0174830D01*
X0219411Y0177235D01*
X0018015Y0177007D01*
X0018015Y0175738D02*
X0218791Y0175738D01*
X0218415Y0174139D02*
X0081592Y0174139D01*
X0077639Y0174139D02*
X0071592Y0174139D01*
X0067639Y0174139D02*
X0018015Y0174139D01*
X0018015Y0172541D02*
X0064145Y0172541D01*
X0062547Y0170942D02*
X0018015Y0170942D01*
X0018015Y0169344D02*
X0061231Y0169344D01*
X0060615Y0167745D02*
X0018015Y0167745D01*
X0018015Y0166147D02*
X0060415Y0166147D01*
X0060415Y0164548D02*
X0018015Y0164548D01*
X0018015Y0162950D02*
X0060415Y0162950D01*
X0060415Y0161351D02*
X0018015Y0161351D01*
X0018015Y0159753D02*
X0060415Y0159753D01*
X0060415Y0158154D02*
X0018015Y0158154D01*
X0018015Y0156556D02*
X0060415Y0156556D01*
X0060415Y0154957D02*
X0018015Y0154957D01*
X0018015Y0153359D02*
X0060415Y0153359D01*
X0060415Y0151760D02*
X0018015Y0151760D01*
X0018015Y0150162D02*
X0060415Y0150162D01*
X0060415Y0148563D02*
X0018015Y0148563D01*
X0018015Y0146965D02*
X0060415Y0146965D01*
X0060415Y0145366D02*
X0018015Y0145366D01*
X0018015Y0143768D02*
X0060415Y0143768D01*
X0060415Y0142169D02*
X0018015Y0142169D01*
X0018015Y0140570D02*
X0060415Y0140570D01*
X0060415Y0138972D02*
X0018015Y0138972D01*
X0018015Y0137373D02*
X0060415Y0137373D01*
X0060415Y0135775D02*
X0018015Y0135775D01*
X0018015Y0134176D02*
X0060415Y0134176D01*
X0060415Y0132578D02*
X0018015Y0132578D01*
X0018015Y0130979D02*
X0060415Y0130979D01*
X0060415Y0129381D02*
X0018015Y0129381D01*
X0018015Y0127782D02*
X0060415Y0127782D01*
X0060415Y0126184D02*
X0018015Y0126184D01*
X0018015Y0124585D02*
X0060415Y0124585D01*
X0060415Y0122987D02*
X0018015Y0122987D01*
X0018015Y0121388D02*
X0060415Y0121388D01*
X0060415Y0119790D02*
X0018015Y0119790D01*
X0018015Y0118191D02*
X0060415Y0118191D01*
X0061069Y0116593D02*
X0018015Y0116593D01*
X0018015Y0114994D02*
X0061731Y0114994D01*
X0063209Y0113396D02*
X0018015Y0113396D01*
X0018015Y0111797D02*
X0065378Y0111797D01*
X0078815Y0129381D02*
X0212515Y0129381D01*
X0215415Y0130979D02*
X0078815Y0130979D01*
X0078815Y0132578D02*
X0215415Y0132578D01*
X0215415Y0134176D02*
X0084020Y0134176D01*
X0085901Y0135775D02*
X0215415Y0135775D01*
X0215415Y0137373D02*
X0087450Y0137373D01*
X0088615Y0138972D02*
X0126921Y0138972D01*
X0127793Y0138100D02*
X0129615Y0138100D01*
X0129615Y0142500D01*
X0125215Y0142500D01*
X0129615Y0142500D01*
X0129615Y0142500D01*
X0129615Y0142500D01*
X0129615Y0146900D01*
X0127793Y0146900D01*
X0125215Y0144323D01*
X0125215Y0142500D01*
X0125215Y0140677D01*
X0127793Y0138100D01*
X0129615Y0138100D02*
X0129615Y0142500D01*
X0129615Y0142500D01*
X0129615Y0146900D01*
X0131438Y0146900D01*
X0134015Y0144323D01*
X0134015Y0142500D01*
X0129615Y0142500D01*
X0129615Y0142500D01*
X0134015Y0142500D01*
X0134015Y0140677D01*
X0131438Y0138100D01*
X0129615Y0138100D01*
X0129615Y0138972D02*
X0129615Y0138972D01*
X0129615Y0140570D02*
X0129615Y0140570D01*
X0129615Y0142169D02*
X0129615Y0142169D01*
X0129615Y0143768D02*
X0129615Y0143768D01*
X0129615Y0145366D02*
X0129615Y0145366D01*
X0126259Y0145366D02*
X0088815Y0145366D01*
X0088815Y0143768D02*
X0125215Y0143768D01*
X0125215Y0142169D02*
X0088815Y0142169D01*
X0088774Y0140570D02*
X0125322Y0140570D01*
X0132310Y0138972D02*
X0215415Y0138972D01*
X0215415Y0140570D02*
X0133908Y0140570D01*
X0134015Y0142169D02*
X0215415Y0142169D01*
X0215415Y0143768D02*
X0134015Y0143768D01*
X0132972Y0145366D02*
X0215845Y0145366D01*
X0216507Y0146965D02*
X0088815Y0146965D01*
X0088815Y0148563D02*
X0217668Y0148563D01*
X0219266Y0150162D02*
X0088815Y0150162D01*
X0088815Y0151760D02*
X0220865Y0151760D01*
X0222463Y0153359D02*
X0088815Y0153359D01*
X0088815Y0154957D02*
X0222330Y0154957D01*
X0220732Y0156556D02*
X0093899Y0156556D01*
X0095497Y0158154D02*
X0219633Y0158154D01*
X0218970Y0159753D02*
X0097096Y0159753D01*
X0098615Y0161351D02*
X0218615Y0161351D01*
X0218507Y0162950D02*
X0098615Y0162950D01*
X0098615Y0164548D02*
X0218415Y0164548D01*
X0218415Y0166147D02*
X0098615Y0166147D01*
X0098615Y0167745D02*
X0218415Y0167745D01*
X0218415Y0169344D02*
X0098000Y0169344D01*
X0096401Y0170942D02*
X0218415Y0170942D01*
X0218415Y0172541D02*
X0094803Y0172541D01*
X0102402Y0186927D02*
X0149064Y0186927D01*
X0148404Y0187201D02*
X0151685Y0185842D01*
X0149010Y0185845D01*
X0148658Y0185991D01*
X0146994Y0186690D01*
X0146969Y0186690D01*
X0146945Y0186700D01*
X0145139Y0186700D01*
X0074419Y0187076D01*
X0078615Y0191272D01*
X0078615Y0198728D01*
X0078315Y0199028D01*
X0078315Y0250502D01*
X0078543Y0250563D01*
X0081147Y0252067D01*
X0083273Y0254193D01*
X0084776Y0256797D01*
X0085555Y0259701D01*
X0085555Y0262708D01*
X0084776Y0265613D01*
X0083273Y0268217D01*
X0081147Y0270343D01*
X0078543Y0271846D01*
X0075638Y0272624D01*
X0062592Y0272624D01*
X0059688Y0271846D01*
X0057084Y0270343D01*
X0054958Y0268217D01*
X0053454Y0265613D01*
X0052676Y0262708D01*
X0052676Y0259701D01*
X0053454Y0256797D01*
X0054958Y0254193D01*
X0057084Y0252067D01*
X0059688Y0250563D01*
X0059915Y0250502D01*
X0059915Y0193170D01*
X0060615Y0191480D01*
X0060615Y0191272D01*
X0060762Y0191125D01*
X0061316Y0189789D01*
X0063904Y0187201D01*
X0064072Y0187131D01*
X0052969Y0187190D01*
X0052945Y0187200D01*
X0051141Y0187200D01*
X0049334Y0187210D01*
X0049311Y0187200D01*
X0049285Y0187200D01*
X0047617Y0186509D01*
X0046273Y0185961D01*
X0018015Y0185993D01*
X0018015Y0559086D01*
X0447215Y0558114D01*
X0447215Y0463814D01*
X0446560Y0464086D01*
X0433040Y0464086D01*
X0430543Y0465527D01*
X0427638Y0466305D01*
X0414592Y0466305D01*
X0411688Y0465527D01*
X0409084Y0464024D01*
X0406958Y0461898D01*
X0405454Y0459294D01*
X0404676Y0456389D01*
X0404676Y0453382D01*
X0405454Y0450478D01*
X0406958Y0447874D01*
X0409084Y0445748D01*
X0411688Y0444244D01*
X0414592Y0443466D01*
X0427638Y0443466D01*
X0430543Y0444244D01*
X0433040Y0445686D01*
X0436415Y0445686D01*
X0436415Y0428738D01*
X0435273Y0430717D01*
X0433147Y0432843D01*
X0430543Y0434346D01*
X0427638Y0435124D01*
X0414592Y0435124D01*
X0411688Y0434346D01*
X0409084Y0432843D01*
X0406958Y0430717D01*
X0405454Y0428113D01*
X0404676Y0425208D01*
X0404676Y0422201D01*
X0405454Y0419297D01*
X0405733Y0418814D01*
X0404433Y0418814D01*
X0396815Y0426432D01*
X0396815Y0435225D01*
X0397315Y0437091D01*
X0397315Y0485909D01*
X0396586Y0488630D01*
X0395177Y0491070D01*
X0393185Y0493062D01*
X0390745Y0494471D01*
X0388024Y0495200D01*
X0383815Y0495200D01*
X0383815Y0496909D01*
X0383086Y0499630D01*
X0381677Y0502070D01*
X0379685Y0504062D01*
X0377245Y0505471D01*
X0374524Y0506200D01*
X0282615Y0506200D01*
X0282615Y0512728D01*
X0277343Y0518000D01*
X0269887Y0518000D01*
X0264615Y0512728D01*
X0264615Y0506200D01*
X0251547Y0506200D01*
X0238685Y0519062D01*
X0236245Y0520471D01*
X0233524Y0521200D01*
X0164611Y0521200D01*
X0164611Y0527791D01*
X0165330Y0530477D01*
X0165330Y0543523D01*
X0164552Y0546428D01*
X0163049Y0549032D01*
X0160922Y0551158D01*
X0158318Y0552661D01*
X0155414Y0553439D01*
X0152407Y0553439D01*
X0149503Y0552661D01*
X0146899Y0551158D01*
X0146115Y0550374D01*
X0145332Y0551158D01*
X0142728Y0552661D01*
X0139824Y0553439D01*
X0136817Y0553439D01*
X0133912Y0552661D01*
X0131308Y0551158D01*
X0130525Y0550374D01*
X0129741Y0551158D01*
X0127137Y0552661D01*
X0124233Y0553439D01*
X0121226Y0553439D01*
X0118322Y0552661D01*
X0115718Y0551158D01*
X0113591Y0549032D01*
X0112088Y0546428D01*
X0111310Y0543523D01*
X0111310Y0530477D01*
X0112088Y0527572D01*
X0112415Y0527006D01*
X0112415Y0512932D01*
X0104183Y0504700D01*
X0082207Y0504700D01*
X0079485Y0503971D01*
X0077865Y0503035D01*
X0075291Y0501969D01*
X0072646Y0499325D01*
X0071215Y0495870D01*
X0071215Y0492130D01*
X0071942Y0490377D01*
X0070645Y0488130D01*
X0069915Y0485409D01*
X0069915Y0484017D01*
X0069829Y0483130D01*
X0069915Y0482614D01*
X0069915Y0482182D01*
X0070106Y0481470D01*
X0070293Y0480351D01*
X0070568Y0479745D01*
X0070645Y0479460D01*
X0070896Y0479025D01*
X0071459Y0477787D01*
X0071825Y0477342D01*
X0071215Y0475870D01*
X0071215Y0472130D01*
X0072646Y0468675D01*
X0075291Y0466031D01*
X0078746Y0464600D01*
X0088485Y0464600D01*
X0091940Y0466031D01*
X0094584Y0468675D01*
X0096015Y0472130D01*
X0096015Y0473300D01*
X0100915Y0473300D01*
X0100915Y0422775D01*
X0100415Y0420909D01*
X0100415Y0418091D01*
X0101145Y0415370D01*
X0102553Y0412930D01*
X0103347Y0412136D01*
X0103486Y0411802D01*
X0106017Y0409270D01*
X0109325Y0407900D01*
X0112906Y0407900D01*
X0116115Y0409230D01*
X0119325Y0407900D01*
X0122906Y0407900D01*
X0126115Y0409230D01*
X0129325Y0407900D01*
X0132906Y0407900D01*
X0136115Y0409230D01*
X0139325Y0407900D01*
X0142906Y0407900D01*
X0146213Y0409270D01*
X0147243Y0410300D01*
X0148305Y0410300D01*
X0161904Y0396701D01*
X0162387Y0396501D01*
X0163387Y0395500D01*
X0164803Y0395500D01*
X0165285Y0395300D01*
X0168945Y0395300D01*
X0169428Y0395500D01*
X0170843Y0395500D01*
X0171844Y0396501D01*
X0172327Y0396701D01*
X0174915Y0399289D01*
X0175115Y0399771D01*
X0176115Y0400772D01*
X0176115Y0402187D01*
X0176315Y0402670D01*
X0176315Y0406330D01*
X0176115Y0406813D01*
X0176115Y0408228D01*
X0175115Y0409229D01*
X0174915Y0409711D01*
X0164485Y0420141D01*
X0169115Y0424772D01*
X0169115Y0429300D01*
X0196305Y0429300D01*
X0204904Y0420701D01*
X0205387Y0420501D01*
X0206387Y0419500D01*
X0207803Y0419500D01*
X0208285Y0419300D01*
X0211945Y0419300D01*
X0212428Y0419500D01*
X0213843Y0419500D01*
X0214844Y0420501D01*
X0215327Y0420701D01*
X0217915Y0423289D01*
X0218115Y0423771D01*
X0219115Y0424772D01*
X0219115Y0426187D01*
X0219315Y0426670D01*
X0219315Y0430330D01*
X0219115Y0430813D01*
X0219115Y0432228D01*
X0218115Y0433229D01*
X0217915Y0433711D01*
X0205327Y0446299D01*
X0201945Y0447700D01*
X0171115Y0447700D01*
X0171115Y0451228D01*
X0165843Y0456500D01*
X0164126Y0456500D01*
X0172926Y0465300D01*
X0209763Y0465300D01*
X0210246Y0465100D01*
X0219985Y0465100D01*
X0223440Y0466531D01*
X0226084Y0469175D01*
X0227415Y0472389D01*
X0227415Y0453428D01*
X0227343Y0453500D01*
X0219887Y0453500D01*
X0214615Y0448228D01*
X0214615Y0440772D01*
X0219887Y0435500D01*
X0227343Y0435500D01*
X0227415Y0435572D01*
X0227415Y0428499D01*
X0226440Y0425085D01*
X0226394Y0422268D01*
X0227078Y0419535D01*
X0228446Y0417072D01*
X0229344Y0416144D01*
X0229486Y0415802D01*
X0232017Y0413270D01*
X0235325Y0411900D01*
X0238147Y0411900D01*
X0237904Y0411799D01*
X0231404Y0405299D01*
X0228816Y0402711D01*
X0227415Y0399330D01*
X0227415Y0390170D01*
X0228231Y0388200D01*
X0152426Y0388200D01*
X0151815Y0388811D01*
X0151815Y0390330D01*
X0150415Y0393711D01*
X0150030Y0394096D01*
X0148745Y0397198D01*
X0146213Y0399730D01*
X0142906Y0401100D01*
X0139325Y0401100D01*
X0136115Y0399770D01*
X0132906Y0401100D01*
X0129325Y0401100D01*
X0126115Y0399770D01*
X0122906Y0401100D01*
X0119325Y0401100D01*
X0116115Y0399770D01*
X0112906Y0401100D01*
X0109325Y0401100D01*
X0106017Y0399730D01*
X0104987Y0398700D01*
X0093785Y0398700D01*
X0090404Y0397299D01*
X0049904Y0356799D01*
X0047316Y0354211D01*
X0045915Y0350830D01*
X0045915Y0316670D01*
X0046115Y0316187D01*
X0046115Y0314772D01*
X0047116Y0313771D01*
X0047316Y0313289D01*
X0049904Y0310701D01*
X0050387Y0310501D01*
X0051387Y0309500D01*
X0052802Y0309500D01*
X0053285Y0309300D01*
X0056945Y0309300D01*
X0057428Y0309500D01*
X0058843Y0309500D01*
X0059844Y0310501D01*
X0060327Y0310701D01*
X0062915Y0313289D01*
X0063115Y0313771D01*
X0064115Y0314772D01*
X0064115Y0316187D01*
X0064315Y0316670D01*
X0064315Y0345189D01*
X0070615Y0351489D01*
X0070615Y0351272D01*
X0071656Y0350231D01*
X0071905Y0349657D01*
X0074537Y0347113D01*
X0074928Y0346959D01*
X0075887Y0346000D01*
X0077359Y0346000D01*
X0077942Y0345770D01*
X0109142Y0346299D01*
X0110842Y0346280D01*
X0110967Y0346330D01*
X0111101Y0346332D01*
X0112661Y0347010D01*
X0114239Y0347643D01*
X0114335Y0347737D01*
X0114458Y0347790D01*
X0115640Y0349013D01*
X0136777Y0369680D01*
X0136827Y0369701D01*
X0138084Y0370958D01*
X0139356Y0372201D01*
X0139377Y0372251D01*
X0139415Y0372289D01*
X0140095Y0373931D01*
X0140268Y0374336D01*
X0140816Y0373789D01*
X0143404Y0371201D01*
X0146785Y0369800D01*
X0172165Y0369800D01*
X0172165Y0366920D01*
X0173566Y0363539D01*
X0173957Y0363148D01*
X0173959Y0363144D01*
X0175759Y0361343D01*
X0175763Y0361342D01*
X0186696Y0350409D01*
X0185486Y0349198D01*
X0184115Y0345890D01*
X0184115Y0341281D01*
X0164097Y0341200D01*
X0144826Y0341200D01*
X0150426Y0346800D01*
X0161805Y0346800D01*
X0161904Y0346701D01*
X0162387Y0346501D01*
X0163387Y0345500D01*
X0164803Y0345500D01*
X0165285Y0345300D01*
X0168945Y0345300D01*
X0169428Y0345500D01*
X0170843Y0345500D01*
X0171844Y0346501D01*
X0172327Y0346701D01*
X0174915Y0349289D01*
X0175115Y0349771D01*
X0176115Y0350772D01*
X0176115Y0352187D01*
X0176315Y0352670D01*
X0176315Y0356330D01*
X0176115Y0356813D01*
X0176115Y0358228D01*
X0175115Y0359229D01*
X0174915Y0359711D01*
X0170827Y0363799D01*
X0167445Y0365200D01*
X0144785Y0365200D01*
X0141404Y0363799D01*
X0138816Y0361211D01*
X0123316Y0345711D01*
X0121915Y0342330D01*
X0121915Y0331600D01*
X0119325Y0331600D01*
X0116017Y0330230D01*
X0113486Y0327698D01*
X0112115Y0324390D01*
X0112115Y0322313D01*
X0111915Y0321830D01*
X0111915Y0318311D01*
X0107805Y0314200D01*
X0077785Y0314200D01*
X0077303Y0314000D01*
X0075887Y0314000D01*
X0074887Y0312999D01*
X0074404Y0312799D01*
X0071816Y0310211D01*
X0071616Y0309729D01*
X0070615Y0308728D01*
X0070615Y0307313D01*
X0070415Y0306830D01*
X0070415Y0303170D01*
X0070615Y0302687D01*
X0070615Y0301272D01*
X0071616Y0300271D01*
X0071816Y0299789D01*
X0074404Y0297201D01*
X0074887Y0297001D01*
X0075887Y0296000D01*
X0077303Y0296000D01*
X0077785Y0295800D01*
X0102699Y0295800D01*
X0102115Y0294390D01*
X0102115Y0292313D01*
X0101915Y0291830D01*
X0101915Y0282081D01*
X0101885Y0280332D01*
X0101915Y0280254D01*
X0101915Y0280170D01*
X0102585Y0278554D01*
X0103226Y0276926D01*
X0103284Y0276866D01*
X0103316Y0276789D01*
X0104553Y0275551D01*
X0115915Y0263783D01*
X0115915Y0237037D01*
X0115415Y0235830D01*
X0115415Y0222170D01*
X0116816Y0218789D01*
X0119404Y0216201D01*
X0148404Y0187201D01*
X0147079Y0188526D02*
X0075869Y0188526D01*
X0077468Y0190124D02*
X0145480Y0190124D01*
X0143882Y0191723D02*
X0078615Y0191723D01*
X0078615Y0193321D02*
X0142283Y0193321D01*
X0140685Y0194920D02*
X0078615Y0194920D01*
X0078615Y0196518D02*
X0139086Y0196518D01*
X0137488Y0198117D02*
X0078615Y0198117D01*
X0078315Y0199715D02*
X0135889Y0199715D01*
X0134291Y0201314D02*
X0078315Y0201314D01*
X0078315Y0202912D02*
X0132692Y0202912D01*
X0131094Y0204511D02*
X0078315Y0204511D01*
X0078315Y0206109D02*
X0129495Y0206109D01*
X0127897Y0207708D02*
X0078315Y0207708D01*
X0078315Y0209306D02*
X0126298Y0209306D01*
X0124700Y0210905D02*
X0078315Y0210905D01*
X0078315Y0212503D02*
X0123101Y0212503D01*
X0121503Y0214102D02*
X0078315Y0214102D01*
X0078315Y0215701D02*
X0119904Y0215701D01*
X0118306Y0217299D02*
X0078315Y0217299D01*
X0078315Y0218898D02*
X0116771Y0218898D01*
X0116109Y0220496D02*
X0078315Y0220496D01*
X0078315Y0222095D02*
X0115447Y0222095D01*
X0115415Y0223693D02*
X0078315Y0223693D01*
X0078315Y0225292D02*
X0115415Y0225292D01*
X0115415Y0226890D02*
X0078315Y0226890D01*
X0078315Y0228489D02*
X0115415Y0228489D01*
X0115415Y0230087D02*
X0078315Y0230087D01*
X0078315Y0231686D02*
X0115415Y0231686D01*
X0115415Y0233284D02*
X0078315Y0233284D01*
X0078315Y0234883D02*
X0115415Y0234883D01*
X0115685Y0236481D02*
X0078315Y0236481D01*
X0078315Y0238080D02*
X0115915Y0238080D01*
X0115915Y0239678D02*
X0078315Y0239678D01*
X0078315Y0241277D02*
X0115915Y0241277D01*
X0115915Y0242875D02*
X0078315Y0242875D01*
X0078315Y0244474D02*
X0115915Y0244474D01*
X0115915Y0246072D02*
X0078315Y0246072D01*
X0078315Y0247671D02*
X0115915Y0247671D01*
X0115915Y0249269D02*
X0078315Y0249269D01*
X0079070Y0250868D02*
X0115915Y0250868D01*
X0115915Y0252466D02*
X0081546Y0252466D01*
X0083145Y0254065D02*
X0115915Y0254065D01*
X0115915Y0255663D02*
X0084122Y0255663D01*
X0084901Y0257262D02*
X0115915Y0257262D01*
X0115915Y0258860D02*
X0085329Y0258860D01*
X0085555Y0260459D02*
X0115915Y0260459D01*
X0115915Y0262057D02*
X0085555Y0262057D01*
X0085301Y0263656D02*
X0115915Y0263656D01*
X0114495Y0265254D02*
X0084872Y0265254D01*
X0084060Y0266853D02*
X0112952Y0266853D01*
X0111408Y0268451D02*
X0083038Y0268451D01*
X0081440Y0270050D02*
X0109865Y0270050D01*
X0108322Y0271648D02*
X0078885Y0271648D01*
X0059345Y0271648D02*
X0018015Y0271648D01*
X0018015Y0270050D02*
X0056791Y0270050D01*
X0055192Y0268451D02*
X0018015Y0268451D01*
X0018015Y0266853D02*
X0054170Y0266853D01*
X0053358Y0265254D02*
X0018015Y0265254D01*
X0018015Y0263656D02*
X0052930Y0263656D01*
X0052676Y0262057D02*
X0018015Y0262057D01*
X0018015Y0260459D02*
X0052676Y0260459D01*
X0052901Y0258860D02*
X0018015Y0258860D01*
X0018015Y0257262D02*
X0053330Y0257262D01*
X0054109Y0255663D02*
X0018015Y0255663D01*
X0018015Y0254065D02*
X0055086Y0254065D01*
X0056684Y0252466D02*
X0018015Y0252466D01*
X0018015Y0250868D02*
X0059160Y0250868D01*
X0059915Y0249269D02*
X0018015Y0249269D01*
X0018015Y0247671D02*
X0059915Y0247671D01*
X0059915Y0246072D02*
X0018015Y0246072D01*
X0018015Y0244474D02*
X0059915Y0244474D01*
X0059915Y0242875D02*
X0018015Y0242875D01*
X0018015Y0241277D02*
X0059915Y0241277D01*
X0059915Y0239678D02*
X0018015Y0239678D01*
X0018015Y0238080D02*
X0059915Y0238080D01*
X0059915Y0236481D02*
X0018015Y0236481D01*
X0018015Y0234883D02*
X0059915Y0234883D01*
X0059915Y0233284D02*
X0018015Y0233284D01*
X0018015Y0231686D02*
X0059915Y0231686D01*
X0059915Y0230087D02*
X0018015Y0230087D01*
X0018015Y0228489D02*
X0059915Y0228489D01*
X0059915Y0226890D02*
X0018015Y0226890D01*
X0018015Y0225292D02*
X0059915Y0225292D01*
X0059915Y0223693D02*
X0018015Y0223693D01*
X0018015Y0222095D02*
X0059915Y0222095D01*
X0059915Y0220496D02*
X0018015Y0220496D01*
X0018015Y0218898D02*
X0059915Y0218898D01*
X0059915Y0217299D02*
X0018015Y0217299D01*
X0018015Y0215701D02*
X0059915Y0215701D01*
X0059915Y0214102D02*
X0018015Y0214102D01*
X0018015Y0212503D02*
X0059915Y0212503D01*
X0059915Y0210905D02*
X0018015Y0210905D01*
X0018015Y0209306D02*
X0059915Y0209306D01*
X0059915Y0207708D02*
X0018015Y0207708D01*
X0018015Y0206109D02*
X0059915Y0206109D01*
X0059915Y0204511D02*
X0018015Y0204511D01*
X0018015Y0202912D02*
X0059915Y0202912D01*
X0059915Y0201314D02*
X0018015Y0201314D01*
X0018015Y0199715D02*
X0059915Y0199715D01*
X0059915Y0198117D02*
X0018015Y0198117D01*
X0018015Y0196518D02*
X0059915Y0196518D01*
X0059915Y0194920D02*
X0018015Y0194920D01*
X0018015Y0193321D02*
X0059915Y0193321D01*
X0060515Y0191723D02*
X0018015Y0191723D01*
X0018015Y0190124D02*
X0061177Y0190124D01*
X0062579Y0188526D02*
X0018015Y0188526D01*
X0018015Y0186927D02*
X0048627Y0186927D01*
X0018015Y0110199D02*
X0133415Y0110199D01*
X0133415Y0108600D02*
X0018015Y0108600D01*
X0018015Y0107002D02*
X0133415Y0107002D01*
X0133415Y0105403D02*
X0018015Y0105403D01*
X0018015Y0103805D02*
X0133415Y0103805D01*
X0133415Y0102206D02*
X0018015Y0102206D01*
X0018015Y0100608D02*
X0093819Y0100608D01*
X0092220Y0099009D02*
X0018015Y0099009D01*
X0018015Y0097411D02*
X0091416Y0097411D01*
X0090965Y0095812D02*
X0018015Y0095812D01*
X0018015Y0094214D02*
X0090965Y0094214D01*
X0090965Y0092615D02*
X0018015Y0092615D01*
X0018015Y0091017D02*
X0090965Y0091017D01*
X0090965Y0089418D02*
X0018015Y0089418D01*
X0018015Y0087820D02*
X0090965Y0087820D01*
X0090965Y0086221D02*
X0018015Y0086221D01*
X0018015Y0084623D02*
X0090965Y0084623D01*
X0090965Y0083024D02*
X0018015Y0083024D01*
X0018015Y0081426D02*
X0090965Y0081426D01*
X0090965Y0079827D02*
X0018015Y0079827D01*
X0018015Y0078229D02*
X0090965Y0078229D01*
X0090965Y0076630D02*
X0018015Y0076630D01*
X0018015Y0075032D02*
X0090965Y0075032D01*
X0090965Y0073433D02*
X0018015Y0073433D01*
X0018015Y0071834D02*
X0090965Y0071834D01*
X0090965Y0070236D02*
X0018015Y0070236D01*
X0018015Y0068637D02*
X0090965Y0068637D01*
X0090965Y0067039D02*
X0018015Y0067039D01*
X0018015Y0065440D02*
X0090965Y0065440D01*
X0090965Y0063842D02*
X0018015Y0063842D01*
X0018015Y0062243D02*
X0090965Y0062243D01*
X0090965Y0060645D02*
X0018015Y0060645D01*
X0018015Y0059046D02*
X0090965Y0059046D01*
X0090965Y0057448D02*
X0018015Y0057448D01*
X0018015Y0055849D02*
X0090965Y0055849D01*
X0090965Y0054251D02*
X0018015Y0054251D01*
X0018015Y0052652D02*
X0090965Y0052652D01*
X0090965Y0051054D02*
X0018015Y0051054D01*
X0018015Y0049455D02*
X0090965Y0049455D01*
X0090965Y0047857D02*
X0018015Y0047857D01*
X0018015Y0046258D02*
X0090965Y0046258D01*
X0090965Y0044660D02*
X0018015Y0044660D01*
X0018015Y0043061D02*
X0090965Y0043061D01*
X0090965Y0041463D02*
X0018015Y0041463D01*
X0018015Y0039864D02*
X0072383Y0039864D01*
X0070760Y0039429D02*
X0067596Y0037603D01*
X0065013Y0035019D01*
X0063186Y0031856D01*
X0062240Y0028327D01*
X0062240Y0024673D01*
X0063186Y0021144D01*
X0065013Y0017981D01*
X0067596Y0015397D01*
X0070760Y0013571D01*
X0074289Y0012625D01*
X0077942Y0012625D01*
X0081471Y0013571D01*
X0084635Y0015397D01*
X0087218Y0017981D01*
X0089045Y0021144D01*
X0089990Y0024673D01*
X0089990Y0028327D01*
X0089045Y0031856D01*
X0087218Y0035019D01*
X0084635Y0037603D01*
X0081471Y0039429D01*
X0077942Y0040375D01*
X0074289Y0040375D01*
X0070760Y0039429D01*
X0068744Y0038266D02*
X0018015Y0038266D01*
X0018015Y0036667D02*
X0066660Y0036667D01*
X0065062Y0035069D02*
X0018015Y0035069D01*
X0018015Y0033470D02*
X0064118Y0033470D01*
X0063195Y0031872D02*
X0018015Y0031872D01*
X0018015Y0030273D02*
X0062762Y0030273D01*
X0062334Y0028675D02*
X0018015Y0028675D01*
X0018015Y0027076D02*
X0062240Y0027076D01*
X0062240Y0025478D02*
X0018015Y0025478D01*
X0018015Y0023879D02*
X0062453Y0023879D01*
X0062881Y0022281D02*
X0018015Y0022281D01*
X0018015Y0020682D02*
X0063453Y0020682D01*
X0064376Y0019084D02*
X0018015Y0019084D01*
X0018015Y0017485D02*
X0065508Y0017485D01*
X0067107Y0015887D02*
X0018015Y0015887D01*
X0018015Y0014288D02*
X0069517Y0014288D01*
X0074048Y0012690D02*
X0018015Y0012690D01*
X0018015Y0011091D02*
X0213640Y0011091D01*
X0213415Y0012690D02*
X0078183Y0012690D01*
X0082714Y0014288D02*
X0213406Y0014288D01*
X0213415Y0015887D02*
X0085124Y0015887D01*
X0086723Y0017485D02*
X0213415Y0017485D01*
X0214317Y0009493D02*
X0018015Y0009493D01*
X0018015Y0007894D02*
X0215190Y0007894D01*
X0217615Y0038212D02*
X0214505Y0039500D01*
X0210726Y0039500D01*
X0207615Y0038212D01*
X0204505Y0039500D01*
X0200726Y0039500D01*
X0197615Y0038212D01*
X0194505Y0039500D01*
X0190726Y0039500D01*
X0187615Y0038212D01*
X0184505Y0039500D01*
X0180726Y0039500D01*
X0177615Y0038212D01*
X0174505Y0039500D01*
X0170726Y0039500D01*
X0167615Y0038212D01*
X0164505Y0039500D01*
X0160726Y0039500D01*
X0157615Y0038212D01*
X0154505Y0039500D01*
X0150726Y0039500D01*
X0147615Y0038212D01*
X0144505Y0039500D01*
X0140726Y0039500D01*
X0137615Y0038212D01*
X0134505Y0039500D01*
X0130726Y0039500D01*
X0127615Y0038212D01*
X0124505Y0039500D01*
X0120726Y0039500D01*
X0117615Y0038212D01*
X0114505Y0039500D01*
X0110726Y0039500D01*
X0107234Y0038054D01*
X0106893Y0037712D01*
X0104358Y0038762D01*
X0104265Y0038762D01*
X0104265Y0081238D01*
X0104358Y0081238D01*
X0106893Y0082288D01*
X0107234Y0081946D01*
X0110726Y0080500D01*
X0114505Y0080500D01*
X0117615Y0081788D01*
X0120726Y0080500D01*
X0124505Y0080500D01*
X0127615Y0081788D01*
X0130726Y0080500D01*
X0134505Y0080500D01*
X0137615Y0081788D01*
X0140726Y0080500D01*
X0144505Y0080500D01*
X0147615Y0081788D01*
X0150726Y0080500D01*
X0154505Y0080500D01*
X0157615Y0081788D01*
X0160726Y0080500D01*
X0164505Y0080500D01*
X0167615Y0081788D01*
X0170726Y0080500D01*
X0174505Y0080500D01*
X0177615Y0081788D01*
X0180726Y0080500D01*
X0184505Y0080500D01*
X0187615Y0081788D01*
X0190726Y0080500D01*
X0194505Y0080500D01*
X0197615Y0081788D01*
X0200726Y0080500D01*
X0204505Y0080500D01*
X0207615Y0081788D01*
X0210726Y0080500D01*
X0214505Y0080500D01*
X0217615Y0081788D01*
X0220726Y0080500D01*
X0224505Y0080500D01*
X0227615Y0081788D01*
X0230726Y0080500D01*
X0234505Y0080500D01*
X0237615Y0081788D01*
X0240726Y0080500D01*
X0244505Y0080500D01*
X0247615Y0081788D01*
X0250726Y0080500D01*
X0254505Y0080500D01*
X0257615Y0081788D01*
X0260726Y0080500D01*
X0264505Y0080500D01*
X0267615Y0081788D01*
X0270726Y0080500D01*
X0274505Y0080500D01*
X0277997Y0081946D01*
X0278338Y0082288D01*
X0280872Y0081238D01*
X0280965Y0081238D01*
X0280965Y0060000D01*
X0273680Y0060000D01*
X0272615Y0058935D01*
X0271550Y0060000D01*
X0263680Y0060000D01*
X0262615Y0058935D01*
X0261550Y0060000D01*
X0253680Y0060000D01*
X0248115Y0054435D01*
X0248115Y0046565D01*
X0249180Y0045500D01*
X0248115Y0044435D01*
X0248115Y0038419D01*
X0247234Y0038054D01*
X0244562Y0035381D01*
X0244247Y0034622D01*
X0243763Y0034779D01*
X0243001Y0034900D01*
X0242815Y0034900D01*
X0242815Y0031650D01*
X0242415Y0031650D01*
X0242415Y0034900D01*
X0242230Y0034900D01*
X0241468Y0034779D01*
X0240984Y0034622D01*
X0240669Y0035381D01*
X0237997Y0038054D01*
X0234505Y0039500D01*
X0230726Y0039500D01*
X0227615Y0038212D01*
X0224505Y0039500D01*
X0220726Y0039500D01*
X0217615Y0038212D01*
X0217485Y0038266D02*
X0217746Y0038266D01*
X0227485Y0038266D02*
X0227746Y0038266D01*
X0237485Y0038266D02*
X0247746Y0038266D01*
X0248115Y0039864D02*
X0104265Y0039864D01*
X0104265Y0041463D02*
X0248115Y0041463D01*
X0248115Y0043061D02*
X0104265Y0043061D01*
X0104265Y0044660D02*
X0248340Y0044660D01*
X0248422Y0046258D02*
X0104265Y0046258D01*
X0104265Y0047857D02*
X0248115Y0047857D01*
X0248115Y0049455D02*
X0104265Y0049455D01*
X0104265Y0051054D02*
X0248115Y0051054D01*
X0248115Y0052652D02*
X0104265Y0052652D01*
X0104265Y0054251D02*
X0248115Y0054251D01*
X0249530Y0055849D02*
X0104265Y0055849D01*
X0104265Y0057448D02*
X0251128Y0057448D01*
X0252727Y0059046D02*
X0104265Y0059046D01*
X0104265Y0060645D02*
X0280965Y0060645D01*
X0280965Y0062243D02*
X0104265Y0062243D01*
X0104265Y0063842D02*
X0280965Y0063842D01*
X0280965Y0065440D02*
X0104265Y0065440D01*
X0104265Y0067039D02*
X0280965Y0067039D01*
X0280965Y0068637D02*
X0104265Y0068637D01*
X0104265Y0070236D02*
X0280965Y0070236D01*
X0280965Y0071834D02*
X0104265Y0071834D01*
X0104265Y0073433D02*
X0280965Y0073433D01*
X0280965Y0075032D02*
X0104265Y0075032D01*
X0104265Y0076630D02*
X0280965Y0076630D01*
X0280965Y0078229D02*
X0104265Y0078229D01*
X0104265Y0079827D02*
X0280965Y0079827D01*
X0280419Y0081426D02*
X0276740Y0081426D01*
X0268491Y0081426D02*
X0266740Y0081426D01*
X0258491Y0081426D02*
X0256740Y0081426D01*
X0248491Y0081426D02*
X0246740Y0081426D01*
X0238491Y0081426D02*
X0236740Y0081426D01*
X0228491Y0081426D02*
X0226740Y0081426D01*
X0218491Y0081426D02*
X0216740Y0081426D01*
X0208491Y0081426D02*
X0206740Y0081426D01*
X0198491Y0081426D02*
X0196740Y0081426D01*
X0188491Y0081426D02*
X0186740Y0081426D01*
X0178491Y0081426D02*
X0176740Y0081426D01*
X0168491Y0081426D02*
X0166740Y0081426D01*
X0158491Y0081426D02*
X0156740Y0081426D01*
X0148491Y0081426D02*
X0146740Y0081426D01*
X0138491Y0081426D02*
X0136740Y0081426D01*
X0128491Y0081426D02*
X0126740Y0081426D01*
X0118491Y0081426D02*
X0116740Y0081426D01*
X0108491Y0081426D02*
X0104812Y0081426D01*
X0090965Y0039864D02*
X0079848Y0039864D01*
X0083486Y0038266D02*
X0090965Y0038266D01*
X0090965Y0036667D02*
X0085570Y0036667D01*
X0087169Y0035069D02*
X0090965Y0035069D01*
X0090965Y0033470D02*
X0088113Y0033470D01*
X0089035Y0031872D02*
X0090965Y0031872D01*
X0090965Y0030273D02*
X0089469Y0030273D01*
X0089897Y0028675D02*
X0090965Y0028675D01*
X0090965Y0027076D02*
X0089990Y0027076D01*
X0089990Y0025478D02*
X0090965Y0025478D01*
X0090965Y0023879D02*
X0089778Y0023879D01*
X0089349Y0022281D02*
X0091544Y0022281D01*
X0092529Y0020682D02*
X0088778Y0020682D01*
X0087855Y0019084D02*
X0094521Y0019084D01*
X0105557Y0038266D02*
X0107746Y0038266D01*
X0117485Y0038266D02*
X0117746Y0038266D01*
X0127485Y0038266D02*
X0127746Y0038266D01*
X0137485Y0038266D02*
X0137746Y0038266D01*
X0147485Y0038266D02*
X0147746Y0038266D01*
X0157485Y0038266D02*
X0157746Y0038266D01*
X0167485Y0038266D02*
X0167746Y0038266D01*
X0177485Y0038266D02*
X0177746Y0038266D01*
X0187485Y0038266D02*
X0187746Y0038266D01*
X0197485Y0038266D02*
X0197746Y0038266D01*
X0207485Y0038266D02*
X0207746Y0038266D01*
X0239383Y0036667D02*
X0245848Y0036667D01*
X0244432Y0035069D02*
X0240799Y0035069D01*
X0242415Y0033470D02*
X0242815Y0033470D01*
X0242815Y0031872D02*
X0242415Y0031872D01*
X0262504Y0059046D02*
X0262727Y0059046D01*
X0272504Y0059046D02*
X0272727Y0059046D01*
X0294265Y0059046D02*
X0304415Y0059046D01*
X0304415Y0057448D02*
X0294265Y0057448D01*
X0294265Y0055849D02*
X0304415Y0055849D01*
X0304415Y0054251D02*
X0294265Y0054251D01*
X0294265Y0052652D02*
X0304415Y0052652D01*
X0304415Y0051054D02*
X0294265Y0051054D01*
X0294265Y0049455D02*
X0304415Y0049455D01*
X0304415Y0047857D02*
X0294265Y0047857D01*
X0294265Y0046258D02*
X0304415Y0046258D01*
X0304415Y0044660D02*
X0294265Y0044660D01*
X0294265Y0043061D02*
X0304415Y0043061D01*
X0304415Y0041463D02*
X0294265Y0041463D01*
X0294265Y0039864D02*
X0304415Y0039864D01*
X0304415Y0038266D02*
X0294265Y0038266D01*
X0294265Y0036667D02*
X0304415Y0036667D01*
X0304415Y0035069D02*
X0294265Y0035069D01*
X0294265Y0033470D02*
X0304415Y0033470D01*
X0304415Y0031872D02*
X0294265Y0031872D01*
X0294265Y0030273D02*
X0304415Y0030273D01*
X0304415Y0028675D02*
X0294265Y0028675D01*
X0294265Y0027076D02*
X0304415Y0027076D01*
X0304415Y0025478D02*
X0294265Y0025478D01*
X0294265Y0023879D02*
X0304415Y0023879D01*
X0304415Y0023599D02*
X0294187Y0023487D01*
X0294265Y0023677D01*
X0294265Y0096323D01*
X0293253Y0098767D01*
X0291382Y0100638D01*
X0288938Y0101650D01*
X0228276Y0101650D01*
X0229827Y0103201D01*
X0232415Y0105789D01*
X0233815Y0109170D01*
X0233815Y0138689D01*
X0238415Y0143289D01*
X0238415Y0133170D01*
X0239816Y0129789D01*
X0240207Y0129398D01*
X0240209Y0129394D01*
X0242009Y0127593D01*
X0242013Y0127592D01*
X0242404Y0127201D01*
X0245785Y0125800D01*
X0249445Y0125800D01*
X0252827Y0127201D01*
X0253218Y0127592D01*
X0253222Y0127593D01*
X0255022Y0129394D01*
X0255024Y0129398D01*
X0255415Y0129789D01*
X0256815Y0133170D01*
X0256815Y0158072D01*
X0257269Y0158000D01*
X0257615Y0158000D01*
X0257615Y0165000D01*
X0257615Y0165000D01*
X0257615Y0158000D01*
X0257962Y0158000D01*
X0258646Y0158108D01*
X0259304Y0158322D01*
X0259921Y0158637D01*
X0260482Y0159044D01*
X0260971Y0159534D01*
X0261379Y0160094D01*
X0261693Y0160711D01*
X0261907Y0161370D01*
X0262015Y0162054D01*
X0262015Y0165000D01*
X0262015Y0167300D01*
X0292967Y0167300D01*
X0304415Y0156525D01*
X0304415Y0023599D01*
X0304415Y0060645D02*
X0294265Y0060645D01*
X0294265Y0062243D02*
X0304415Y0062243D01*
X0304415Y0063842D02*
X0294265Y0063842D01*
X0294265Y0065440D02*
X0304415Y0065440D01*
X0304415Y0067039D02*
X0294265Y0067039D01*
X0294265Y0068637D02*
X0304415Y0068637D01*
X0304415Y0070236D02*
X0294265Y0070236D01*
X0294265Y0071834D02*
X0304415Y0071834D01*
X0304415Y0073433D02*
X0294265Y0073433D01*
X0294265Y0075032D02*
X0304415Y0075032D01*
X0304415Y0076630D02*
X0294265Y0076630D01*
X0294265Y0078229D02*
X0304415Y0078229D01*
X0304415Y0079827D02*
X0294265Y0079827D01*
X0294265Y0081426D02*
X0304415Y0081426D01*
X0304415Y0083024D02*
X0294265Y0083024D01*
X0294265Y0084623D02*
X0304415Y0084623D01*
X0304415Y0086221D02*
X0294265Y0086221D01*
X0294265Y0087820D02*
X0304415Y0087820D01*
X0304415Y0089418D02*
X0294265Y0089418D01*
X0294265Y0091017D02*
X0304415Y0091017D01*
X0304415Y0092615D02*
X0294265Y0092615D01*
X0294265Y0094214D02*
X0304415Y0094214D01*
X0304415Y0095812D02*
X0294265Y0095812D01*
X0293815Y0097411D02*
X0304415Y0097411D01*
X0304415Y0099009D02*
X0293011Y0099009D01*
X0291412Y0100608D02*
X0304415Y0100608D01*
X0304415Y0102206D02*
X0228832Y0102206D01*
X0230431Y0103805D02*
X0304415Y0103805D01*
X0304415Y0105403D02*
X0232029Y0105403D01*
X0232917Y0107002D02*
X0304415Y0107002D01*
X0304415Y0108600D02*
X0233579Y0108600D01*
X0233815Y0110199D02*
X0304415Y0110199D01*
X0304415Y0111797D02*
X0233815Y0111797D01*
X0233815Y0113396D02*
X0304415Y0113396D01*
X0304415Y0114994D02*
X0233815Y0114994D01*
X0233815Y0116593D02*
X0304415Y0116593D01*
X0304415Y0118191D02*
X0233815Y0118191D01*
X0233815Y0119790D02*
X0304415Y0119790D01*
X0304415Y0121388D02*
X0233815Y0121388D01*
X0233815Y0122987D02*
X0304415Y0122987D01*
X0304415Y0124585D02*
X0233815Y0124585D01*
X0233815Y0126184D02*
X0244859Y0126184D01*
X0241820Y0127782D02*
X0233815Y0127782D01*
X0233815Y0129381D02*
X0240221Y0129381D01*
X0239323Y0130979D02*
X0233815Y0130979D01*
X0233815Y0132578D02*
X0238661Y0132578D01*
X0238415Y0134176D02*
X0233815Y0134176D01*
X0233815Y0135775D02*
X0238415Y0135775D01*
X0238415Y0137373D02*
X0233815Y0137373D01*
X0234098Y0138972D02*
X0238415Y0138972D01*
X0238415Y0140570D02*
X0235697Y0140570D01*
X0237295Y0142169D02*
X0238415Y0142169D01*
X0250372Y0126184D02*
X0304415Y0126184D01*
X0304415Y0127782D02*
X0253411Y0127782D01*
X0255009Y0129381D02*
X0304415Y0129381D01*
X0304415Y0130979D02*
X0255908Y0130979D01*
X0256570Y0132578D02*
X0304415Y0132578D01*
X0304415Y0134176D02*
X0256815Y0134176D01*
X0256815Y0135775D02*
X0304415Y0135775D01*
X0304415Y0137373D02*
X0256815Y0137373D01*
X0256815Y0138972D02*
X0304415Y0138972D01*
X0304415Y0140570D02*
X0256815Y0140570D01*
X0256815Y0142169D02*
X0304415Y0142169D01*
X0304415Y0143768D02*
X0256815Y0143768D01*
X0256815Y0145366D02*
X0304415Y0145366D01*
X0304415Y0146965D02*
X0256815Y0146965D01*
X0256815Y0148563D02*
X0304415Y0148563D01*
X0304415Y0150162D02*
X0256815Y0150162D01*
X0256815Y0151760D02*
X0304415Y0151760D01*
X0304415Y0153359D02*
X0256815Y0153359D01*
X0256815Y0154957D02*
X0304415Y0154957D01*
X0304383Y0156556D02*
X0256815Y0156556D01*
X0257615Y0158154D02*
X0257615Y0158154D01*
X0258787Y0158154D02*
X0302684Y0158154D01*
X0300986Y0159753D02*
X0261131Y0159753D01*
X0261901Y0161351D02*
X0299288Y0161351D01*
X0297589Y0162950D02*
X0262015Y0162950D01*
X0262015Y0164548D02*
X0295891Y0164548D01*
X0294192Y0166147D02*
X0262015Y0166147D01*
X0262015Y0165000D02*
X0257615Y0165000D01*
X0257615Y0165000D01*
X0262015Y0165000D01*
X0257615Y0164548D02*
X0257615Y0164548D01*
X0257615Y0162950D02*
X0257615Y0162950D01*
X0257615Y0161351D02*
X0257615Y0161351D01*
X0257615Y0159753D02*
X0257615Y0159753D01*
X0256815Y0193700D02*
X0256815Y0225330D01*
X0255415Y0228711D01*
X0255024Y0229102D01*
X0255022Y0229106D01*
X0253329Y0230800D01*
X0301445Y0230800D01*
X0304827Y0232201D01*
X0316426Y0243800D01*
X0325445Y0243800D01*
X0328827Y0245201D01*
X0331415Y0247789D01*
X0331415Y0244670D01*
X0331415Y0235094D01*
X0329646Y0233325D01*
X0328215Y0229870D01*
X0328215Y0226130D01*
X0329646Y0222675D01*
X0332291Y0220031D01*
X0335746Y0218600D01*
X0345485Y0218600D01*
X0348940Y0220031D01*
X0351584Y0222675D01*
X0353015Y0226130D01*
X0353015Y0229870D01*
X0351584Y0233325D01*
X0349815Y0235094D01*
X0349815Y0242689D01*
X0355327Y0248201D01*
X0357915Y0250789D01*
X0359315Y0254170D01*
X0359315Y0274189D01*
X0359426Y0274300D01*
X0366445Y0274300D01*
X0366928Y0274500D01*
X0369006Y0274500D01*
X0370915Y0275291D01*
X0370915Y0202717D01*
X0362210Y0193700D01*
X0256815Y0193700D01*
X0256815Y0194920D02*
X0363388Y0194920D01*
X0364931Y0196518D02*
X0256815Y0196518D01*
X0256815Y0198117D02*
X0366474Y0198117D01*
X0368018Y0199715D02*
X0256815Y0199715D01*
X0256815Y0201314D02*
X0369561Y0201314D01*
X0370915Y0202912D02*
X0256815Y0202912D01*
X0256815Y0204511D02*
X0370915Y0204511D01*
X0370915Y0206109D02*
X0256815Y0206109D01*
X0256815Y0207708D02*
X0370915Y0207708D01*
X0370915Y0209306D02*
X0256815Y0209306D01*
X0256815Y0210905D02*
X0370915Y0210905D01*
X0370915Y0212503D02*
X0256815Y0212503D01*
X0256815Y0214102D02*
X0370915Y0214102D01*
X0370915Y0215701D02*
X0256815Y0215701D01*
X0256815Y0217299D02*
X0370915Y0217299D01*
X0370915Y0218898D02*
X0346203Y0218898D01*
X0349405Y0220496D02*
X0370915Y0220496D01*
X0370915Y0222095D02*
X0351004Y0222095D01*
X0352006Y0223693D02*
X0370915Y0223693D01*
X0370915Y0225292D02*
X0352668Y0225292D01*
X0353015Y0226890D02*
X0370915Y0226890D01*
X0370915Y0228489D02*
X0353015Y0228489D01*
X0352925Y0230087D02*
X0370915Y0230087D01*
X0370915Y0231686D02*
X0352263Y0231686D01*
X0351601Y0233284D02*
X0370915Y0233284D01*
X0370915Y0234883D02*
X0350026Y0234883D01*
X0349815Y0236481D02*
X0370915Y0236481D01*
X0370915Y0238080D02*
X0349815Y0238080D01*
X0349815Y0239678D02*
X0370915Y0239678D01*
X0370915Y0241277D02*
X0349815Y0241277D01*
X0350001Y0242875D02*
X0370915Y0242875D01*
X0370915Y0244474D02*
X0351600Y0244474D01*
X0353198Y0246072D02*
X0370915Y0246072D01*
X0370915Y0247671D02*
X0354797Y0247671D01*
X0356395Y0249269D02*
X0370915Y0249269D01*
X0370915Y0250868D02*
X0357948Y0250868D01*
X0358610Y0252466D02*
X0370915Y0252466D01*
X0370915Y0254065D02*
X0359272Y0254065D01*
X0359315Y0255663D02*
X0370915Y0255663D01*
X0370915Y0257262D02*
X0359315Y0257262D01*
X0359315Y0258860D02*
X0370915Y0258860D01*
X0370915Y0260459D02*
X0359315Y0260459D01*
X0359315Y0262057D02*
X0370915Y0262057D01*
X0370915Y0263656D02*
X0359315Y0263656D01*
X0359315Y0265254D02*
X0370915Y0265254D01*
X0370915Y0266853D02*
X0359315Y0266853D01*
X0359315Y0268451D02*
X0370915Y0268451D01*
X0370915Y0270050D02*
X0359315Y0270050D01*
X0359315Y0271648D02*
X0370915Y0271648D01*
X0370915Y0273247D02*
X0359315Y0273247D01*
X0344904Y0285799D02*
X0347816Y0288711D01*
X0347816Y0288711D01*
X0350404Y0291299D01*
X0353785Y0292700D01*
X0366445Y0292700D01*
X0366928Y0292500D01*
X0369006Y0292500D01*
X0370915Y0291709D01*
X0370915Y0295291D01*
X0369006Y0294500D01*
X0366854Y0294500D01*
X0366241Y0294262D01*
X0345841Y0294715D01*
X0340815Y0289689D01*
X0340815Y0259711D01*
X0340915Y0259811D01*
X0340915Y0279830D01*
X0342316Y0283211D01*
X0344904Y0285799D01*
X0344904Y0285799D01*
X0345140Y0286035D02*
X0340815Y0286035D01*
X0340815Y0284437D02*
X0343541Y0284437D01*
X0342161Y0282838D02*
X0340815Y0282838D01*
X0340815Y0281239D02*
X0341499Y0281239D01*
X0340915Y0279641D02*
X0340815Y0279641D01*
X0340815Y0278042D02*
X0340915Y0278042D01*
X0340915Y0276444D02*
X0340815Y0276444D01*
X0340815Y0274845D02*
X0340915Y0274845D01*
X0340915Y0273247D02*
X0340815Y0273247D01*
X0340815Y0271648D02*
X0340915Y0271648D01*
X0340915Y0270050D02*
X0340815Y0270050D01*
X0340815Y0268451D02*
X0340915Y0268451D01*
X0340915Y0266853D02*
X0340815Y0266853D01*
X0340815Y0265254D02*
X0340915Y0265254D01*
X0340915Y0263656D02*
X0340815Y0263656D01*
X0340815Y0262057D02*
X0340915Y0262057D01*
X0340915Y0260459D02*
X0340815Y0260459D01*
X0331415Y0247671D02*
X0331297Y0247671D01*
X0331415Y0246072D02*
X0329698Y0246072D01*
X0331415Y0244474D02*
X0327072Y0244474D01*
X0331415Y0242875D02*
X0315501Y0242875D01*
X0313903Y0241277D02*
X0331415Y0241277D01*
X0331415Y0239678D02*
X0312304Y0239678D01*
X0310706Y0238080D02*
X0331415Y0238080D01*
X0331415Y0236481D02*
X0309107Y0236481D01*
X0307509Y0234883D02*
X0331204Y0234883D01*
X0329630Y0233284D02*
X0305910Y0233284D01*
X0303583Y0231686D02*
X0328968Y0231686D01*
X0328305Y0230087D02*
X0254041Y0230087D01*
X0255507Y0228489D02*
X0328215Y0228489D01*
X0328215Y0226890D02*
X0256169Y0226890D01*
X0256815Y0225292D02*
X0328563Y0225292D01*
X0329225Y0223693D02*
X0256815Y0223693D01*
X0256815Y0222095D02*
X0330227Y0222095D01*
X0331826Y0220496D02*
X0256815Y0220496D01*
X0256815Y0218898D02*
X0335027Y0218898D01*
X0302268Y0255663D02*
X0242315Y0255663D01*
X0242315Y0254065D02*
X0300669Y0254065D01*
X0299071Y0252466D02*
X0242315Y0252466D01*
X0242315Y0250868D02*
X0297472Y0250868D01*
X0295874Y0249269D02*
X0242315Y0249269D01*
X0242315Y0248798D02*
X0242315Y0311800D01*
X0250305Y0311800D01*
X0276404Y0285701D01*
X0276887Y0285501D01*
X0277887Y0284500D01*
X0279302Y0284500D01*
X0279785Y0284300D01*
X0283445Y0284300D01*
X0283928Y0284500D01*
X0285343Y0284500D01*
X0286344Y0285501D01*
X0286827Y0285701D01*
X0289415Y0288289D01*
X0289615Y0288771D01*
X0290615Y0289772D01*
X0290615Y0291187D01*
X0290815Y0291670D01*
X0290815Y0295330D01*
X0290615Y0295813D01*
X0290615Y0297228D01*
X0289615Y0298229D01*
X0289415Y0298711D01*
X0264916Y0323210D01*
X0288983Y0323308D01*
X0289442Y0323500D01*
X0290843Y0323500D01*
X0291854Y0324510D01*
X0292358Y0324722D01*
X0294936Y0327320D01*
X0295125Y0327781D01*
X0296115Y0328772D01*
X0296115Y0330201D01*
X0296323Y0330707D01*
X0296308Y0334367D01*
X0296115Y0334827D01*
X0296115Y0336228D01*
X0295105Y0337238D01*
X0294893Y0337743D01*
X0292295Y0340320D01*
X0291834Y0340509D01*
X0290843Y0341500D01*
X0289414Y0341500D01*
X0288908Y0341707D01*
X0232115Y0341476D01*
X0232115Y0345890D01*
X0230745Y0349198D01*
X0228213Y0351730D01*
X0224906Y0353100D01*
X0221325Y0353100D01*
X0218017Y0351730D01*
X0215486Y0349198D01*
X0214115Y0345890D01*
X0214115Y0341403D01*
X0212315Y0341396D01*
X0212315Y0348830D01*
X0210915Y0352211D01*
X0193326Y0369800D01*
X0227115Y0369800D01*
X0227115Y0365272D01*
X0232387Y0360000D01*
X0239843Y0360000D01*
X0245115Y0365272D01*
X0245115Y0369800D01*
X0247115Y0369800D01*
X0247115Y0365272D01*
X0252387Y0360000D01*
X0259843Y0360000D01*
X0265115Y0365272D01*
X0265115Y0371113D01*
X0265327Y0371201D01*
X0272327Y0378201D01*
X0274915Y0380789D01*
X0276162Y0383800D01*
X0278115Y0383800D01*
X0278115Y0378772D01*
X0283387Y0373500D01*
X0290843Y0373500D01*
X0296115Y0378772D01*
X0296115Y0383800D01*
X0332805Y0383800D01*
X0339904Y0376701D01*
X0343285Y0375300D01*
X0425945Y0375300D01*
X0429327Y0376701D01*
X0431915Y0379289D01*
X0447215Y0394589D01*
X0447215Y0185507D01*
X0379950Y0185583D01*
X0386678Y0192552D01*
X0387915Y0193789D01*
X0387947Y0193866D01*
X0388005Y0193926D01*
X0388646Y0195554D01*
X0389315Y0197170D01*
X0389315Y0197254D01*
X0389346Y0197332D01*
X0389315Y0199081D01*
X0389315Y0230800D01*
X0416945Y0230800D01*
X0417428Y0231000D01*
X0418843Y0231000D01*
X0419844Y0232001D01*
X0420327Y0232201D01*
X0422915Y0234789D01*
X0423115Y0235271D01*
X0424115Y0236272D01*
X0424115Y0237687D01*
X0424315Y0238170D01*
X0424315Y0241830D01*
X0424115Y0242313D01*
X0424115Y0243728D01*
X0423115Y0244729D01*
X0422915Y0245211D01*
X0420327Y0247799D01*
X0419844Y0247999D01*
X0418843Y0249000D01*
X0417428Y0249000D01*
X0416945Y0249200D01*
X0389315Y0249200D01*
X0389315Y0284300D01*
X0396445Y0284300D01*
X0396928Y0284500D01*
X0399006Y0284500D01*
X0402313Y0285870D01*
X0404845Y0288402D01*
X0404874Y0288471D01*
X0405285Y0288300D01*
X0418377Y0288300D01*
X0418998Y0287942D01*
X0421579Y0287250D01*
X0424252Y0287250D01*
X0426833Y0287942D01*
X0429148Y0289278D01*
X0431037Y0291168D01*
X0432374Y0293482D01*
X0433065Y0296064D01*
X0433065Y0298736D01*
X0432374Y0301318D01*
X0431037Y0303632D01*
X0429148Y0305522D01*
X0426833Y0306858D01*
X0424252Y0307550D01*
X0421579Y0307550D01*
X0418998Y0306858D01*
X0418723Y0306700D01*
X0410926Y0306700D01*
X0408915Y0308711D01*
X0406327Y0311299D01*
X0402945Y0312700D01*
X0392785Y0312700D01*
X0392303Y0312500D01*
X0390225Y0312500D01*
X0389315Y0312123D01*
X0389315Y0314189D01*
X0395327Y0320201D01*
X0397915Y0322789D01*
X0399315Y0326170D01*
X0399315Y0356535D01*
X0397915Y0359916D01*
X0397733Y0360098D01*
X0397522Y0360606D01*
X0395722Y0362407D01*
X0393369Y0363381D01*
X0393209Y0363381D01*
X0391945Y0363905D01*
X0388285Y0363905D01*
X0387021Y0363381D01*
X0386861Y0363381D01*
X0384509Y0362407D01*
X0382709Y0360606D01*
X0382498Y0360098D01*
X0382316Y0359916D01*
X0380915Y0356535D01*
X0380915Y0331811D01*
X0372316Y0323211D01*
X0370915Y0319830D01*
X0370915Y0311709D01*
X0369006Y0312500D01*
X0367006Y0312500D01*
X0366649Y0312657D01*
X0344043Y0313159D01*
X0343945Y0313200D01*
X0342218Y0313200D01*
X0340490Y0313238D01*
X0340391Y0313200D01*
X0340285Y0313200D01*
X0338689Y0312539D01*
X0337079Y0311913D01*
X0337002Y0311840D01*
X0336904Y0311799D01*
X0335682Y0310578D01*
X0334434Y0309383D01*
X0334391Y0309286D01*
X0323816Y0298711D01*
X0323616Y0298229D01*
X0322615Y0297228D01*
X0322615Y0295813D01*
X0322415Y0295330D01*
X0322415Y0264811D01*
X0319805Y0262200D01*
X0310785Y0262200D01*
X0310303Y0262000D01*
X0308887Y0262000D01*
X0307887Y0260999D01*
X0307404Y0260799D01*
X0304816Y0258211D01*
X0295805Y0249200D01*
X0243285Y0249200D01*
X0242315Y0248798D01*
X0242315Y0257262D02*
X0303866Y0257262D01*
X0305465Y0258860D02*
X0242315Y0258860D01*
X0242315Y0260459D02*
X0307063Y0260459D01*
X0310441Y0262057D02*
X0242315Y0262057D01*
X0242315Y0263656D02*
X0321260Y0263656D01*
X0322415Y0265254D02*
X0242315Y0265254D01*
X0242315Y0266853D02*
X0322415Y0266853D01*
X0322415Y0268451D02*
X0242315Y0268451D01*
X0242315Y0270050D02*
X0322415Y0270050D01*
X0322415Y0271648D02*
X0242315Y0271648D01*
X0242315Y0273247D02*
X0322415Y0273247D01*
X0322415Y0274845D02*
X0242315Y0274845D01*
X0242315Y0276444D02*
X0322415Y0276444D01*
X0322415Y0278042D02*
X0242315Y0278042D01*
X0242315Y0279641D02*
X0322415Y0279641D01*
X0322415Y0281239D02*
X0242315Y0281239D01*
X0242315Y0282838D02*
X0322415Y0282838D01*
X0322415Y0284437D02*
X0283775Y0284437D01*
X0287161Y0286035D02*
X0322415Y0286035D01*
X0322415Y0287634D02*
X0288760Y0287634D01*
X0290075Y0289232D02*
X0322415Y0289232D01*
X0322415Y0290831D02*
X0290615Y0290831D01*
X0290815Y0292429D02*
X0322415Y0292429D01*
X0322415Y0294028D02*
X0290815Y0294028D01*
X0290693Y0295626D02*
X0322538Y0295626D01*
X0322615Y0297225D02*
X0290615Y0297225D01*
X0289303Y0298823D02*
X0323928Y0298823D01*
X0325526Y0300422D02*
X0287704Y0300422D01*
X0286106Y0302020D02*
X0327125Y0302020D01*
X0328723Y0303619D02*
X0284507Y0303619D01*
X0282909Y0305217D02*
X0330322Y0305217D01*
X0331920Y0306816D02*
X0281310Y0306816D01*
X0279712Y0308414D02*
X0333519Y0308414D01*
X0335092Y0310013D02*
X0278113Y0310013D01*
X0276515Y0311611D02*
X0336716Y0311611D01*
X0340416Y0313210D02*
X0274916Y0313210D01*
X0273318Y0314808D02*
X0370915Y0314808D01*
X0370915Y0313210D02*
X0341780Y0313210D01*
X0345154Y0294028D02*
X0370915Y0294028D01*
X0370915Y0292429D02*
X0369177Y0292429D01*
X0353131Y0292429D02*
X0343555Y0292429D01*
X0341957Y0290831D02*
X0349935Y0290831D01*
X0348337Y0289232D02*
X0340815Y0289232D01*
X0340815Y0287634D02*
X0346738Y0287634D01*
X0369840Y0274845D02*
X0370915Y0274845D01*
X0389315Y0274845D02*
X0447215Y0274845D01*
X0447215Y0273247D02*
X0389315Y0273247D01*
X0389315Y0271648D02*
X0447215Y0271648D01*
X0447215Y0270050D02*
X0389315Y0270050D01*
X0389315Y0268451D02*
X0447215Y0268451D01*
X0447215Y0266853D02*
X0389315Y0266853D01*
X0389315Y0265254D02*
X0447215Y0265254D01*
X0447215Y0263656D02*
X0389315Y0263656D01*
X0389315Y0262057D02*
X0447215Y0262057D01*
X0447215Y0260459D02*
X0389315Y0260459D01*
X0389315Y0258860D02*
X0447215Y0258860D01*
X0447215Y0257262D02*
X0389315Y0257262D01*
X0389315Y0255663D02*
X0447215Y0255663D01*
X0447215Y0254065D02*
X0389315Y0254065D01*
X0389315Y0252466D02*
X0447215Y0252466D01*
X0447215Y0250868D02*
X0389315Y0250868D01*
X0389315Y0249269D02*
X0447215Y0249269D01*
X0447215Y0247671D02*
X0420455Y0247671D01*
X0422054Y0246072D02*
X0447215Y0246072D01*
X0447215Y0244474D02*
X0423370Y0244474D01*
X0424115Y0242875D02*
X0447215Y0242875D01*
X0447215Y0241277D02*
X0424315Y0241277D01*
X0424315Y0239678D02*
X0447215Y0239678D01*
X0447215Y0238080D02*
X0424278Y0238080D01*
X0424115Y0236481D02*
X0447215Y0236481D01*
X0447215Y0234883D02*
X0422954Y0234883D01*
X0421410Y0233284D02*
X0447215Y0233284D01*
X0447215Y0231686D02*
X0419529Y0231686D01*
X0447215Y0230087D02*
X0389315Y0230087D01*
X0389315Y0228489D02*
X0447215Y0228489D01*
X0447215Y0226890D02*
X0389315Y0226890D01*
X0389315Y0225292D02*
X0447215Y0225292D01*
X0447215Y0223693D02*
X0389315Y0223693D01*
X0389315Y0222095D02*
X0447215Y0222095D01*
X0447215Y0220496D02*
X0389315Y0220496D01*
X0389315Y0218898D02*
X0447215Y0218898D01*
X0447215Y0217299D02*
X0389315Y0217299D01*
X0389315Y0215701D02*
X0447215Y0215701D01*
X0447215Y0214102D02*
X0389315Y0214102D01*
X0389315Y0212503D02*
X0447215Y0212503D01*
X0447215Y0210905D02*
X0389315Y0210905D01*
X0389315Y0209306D02*
X0447215Y0209306D01*
X0447215Y0207708D02*
X0389315Y0207708D01*
X0389315Y0206109D02*
X0447215Y0206109D01*
X0447215Y0204511D02*
X0389315Y0204511D01*
X0389315Y0202912D02*
X0447215Y0202912D01*
X0447215Y0201314D02*
X0389315Y0201314D01*
X0389315Y0199715D02*
X0447215Y0199715D01*
X0447215Y0198117D02*
X0389332Y0198117D01*
X0389045Y0196518D02*
X0447215Y0196518D01*
X0447215Y0194920D02*
X0388396Y0194920D01*
X0387447Y0193321D02*
X0447215Y0193321D01*
X0447215Y0191723D02*
X0385878Y0191723D01*
X0384334Y0190124D02*
X0447215Y0190124D01*
X0447215Y0188526D02*
X0382791Y0188526D01*
X0381247Y0186927D02*
X0447215Y0186927D01*
X0447215Y0276444D02*
X0389315Y0276444D01*
X0389315Y0278042D02*
X0447215Y0278042D01*
X0447215Y0279641D02*
X0389315Y0279641D01*
X0389315Y0281239D02*
X0447215Y0281239D01*
X0447215Y0282838D02*
X0389315Y0282838D01*
X0396775Y0284437D02*
X0447215Y0284437D01*
X0447215Y0286035D02*
X0402478Y0286035D01*
X0404077Y0287634D02*
X0420148Y0287634D01*
X0425683Y0287634D02*
X0447215Y0287634D01*
X0447215Y0289232D02*
X0429068Y0289232D01*
X0430700Y0290831D02*
X0447215Y0290831D01*
X0447215Y0292429D02*
X0431766Y0292429D01*
X0432520Y0294028D02*
X0447215Y0294028D01*
X0447215Y0295626D02*
X0432948Y0295626D01*
X0433065Y0297225D02*
X0447215Y0297225D01*
X0447215Y0298823D02*
X0433042Y0298823D01*
X0432614Y0300422D02*
X0447215Y0300422D01*
X0447215Y0302020D02*
X0431968Y0302020D01*
X0431045Y0303619D02*
X0447215Y0303619D01*
X0447215Y0305217D02*
X0429452Y0305217D01*
X0426907Y0306816D02*
X0447215Y0306816D01*
X0447215Y0308414D02*
X0409212Y0308414D01*
X0410810Y0306816D02*
X0418924Y0306816D01*
X0407613Y0310013D02*
X0447215Y0310013D01*
X0447215Y0311611D02*
X0405574Y0311611D01*
X0396328Y0321202D02*
X0447215Y0321202D01*
X0447215Y0319604D02*
X0394730Y0319604D01*
X0393131Y0318005D02*
X0447215Y0318005D01*
X0447215Y0316407D02*
X0391533Y0316407D01*
X0389934Y0314808D02*
X0447215Y0314808D01*
X0447215Y0313210D02*
X0389315Y0313210D01*
X0397920Y0322801D02*
X0447215Y0322801D01*
X0447215Y0324399D02*
X0398582Y0324399D01*
X0399244Y0325998D02*
X0447215Y0325998D01*
X0447215Y0327596D02*
X0399315Y0327596D01*
X0399315Y0329195D02*
X0447215Y0329195D01*
X0447215Y0330793D02*
X0399315Y0330793D01*
X0399315Y0332392D02*
X0447215Y0332392D01*
X0447215Y0333990D02*
X0399315Y0333990D01*
X0399315Y0335589D02*
X0447215Y0335589D01*
X0447215Y0337187D02*
X0399315Y0337187D01*
X0399315Y0338786D02*
X0447215Y0338786D01*
X0447215Y0340384D02*
X0399315Y0340384D01*
X0399315Y0341983D02*
X0447215Y0341983D01*
X0447215Y0343581D02*
X0399315Y0343581D01*
X0399315Y0345180D02*
X0447215Y0345180D01*
X0447215Y0346778D02*
X0399315Y0346778D01*
X0399315Y0348377D02*
X0447215Y0348377D01*
X0447215Y0349975D02*
X0399315Y0349975D01*
X0399315Y0351574D02*
X0447215Y0351574D01*
X0447215Y0353172D02*
X0399315Y0353172D01*
X0399315Y0354771D02*
X0447215Y0354771D01*
X0447215Y0356370D02*
X0399315Y0356370D01*
X0398722Y0357968D02*
X0447215Y0357968D01*
X0447215Y0359567D02*
X0398060Y0359567D01*
X0396963Y0361165D02*
X0447215Y0361165D01*
X0447215Y0362764D02*
X0394860Y0362764D01*
X0385370Y0362764D02*
X0314607Y0362764D01*
X0316205Y0364362D02*
X0447215Y0364362D01*
X0447215Y0365961D02*
X0316615Y0365961D01*
X0316615Y0364772D02*
X0311343Y0359500D01*
X0303887Y0359500D01*
X0298615Y0364772D01*
X0298615Y0372228D01*
X0303887Y0377500D01*
X0311343Y0377500D01*
X0316615Y0372228D01*
X0316615Y0364772D01*
X0316615Y0367559D02*
X0447215Y0367559D01*
X0447215Y0369158D02*
X0316615Y0369158D01*
X0316615Y0370756D02*
X0447215Y0370756D01*
X0447215Y0372355D02*
X0316489Y0372355D01*
X0314890Y0373953D02*
X0447215Y0373953D01*
X0447215Y0375552D02*
X0426553Y0375552D01*
X0429776Y0377150D02*
X0447215Y0377150D01*
X0447215Y0378749D02*
X0431375Y0378749D01*
X0432973Y0380347D02*
X0447215Y0380347D01*
X0447215Y0381946D02*
X0434572Y0381946D01*
X0436170Y0383544D02*
X0447215Y0383544D01*
X0447215Y0385143D02*
X0437769Y0385143D01*
X0439367Y0386741D02*
X0447215Y0386741D01*
X0447215Y0388340D02*
X0440966Y0388340D01*
X0442564Y0389938D02*
X0447215Y0389938D01*
X0447215Y0391537D02*
X0444163Y0391537D01*
X0445761Y0393135D02*
X0447215Y0393135D01*
X0423299Y0396694D02*
X0420305Y0393700D01*
X0348926Y0393700D01*
X0344415Y0398211D01*
X0341827Y0400799D01*
X0338445Y0402200D01*
X0332043Y0402200D01*
X0336615Y0406772D01*
X0336615Y0414228D01*
X0331343Y0419500D01*
X0323887Y0419500D01*
X0318615Y0414228D01*
X0318615Y0406772D01*
X0323187Y0402200D01*
X0273793Y0402200D01*
X0323313Y0452074D01*
X0323887Y0451500D01*
X0331343Y0451500D01*
X0336615Y0456772D01*
X0336615Y0464228D01*
X0335996Y0464847D01*
X0336445Y0465300D01*
X0365763Y0465300D01*
X0366246Y0465100D01*
X0375915Y0465100D01*
X0375915Y0441275D01*
X0375415Y0439409D01*
X0375415Y0420591D01*
X0376145Y0417870D01*
X0377553Y0415430D01*
X0391553Y0401430D01*
X0393545Y0399438D01*
X0395985Y0398029D01*
X0398707Y0397300D01*
X0401524Y0397300D01*
X0401950Y0397414D01*
X0411906Y0397414D01*
X0414592Y0396694D01*
X0423299Y0396694D01*
X0422937Y0396332D02*
X0346294Y0396332D01*
X0347892Y0394734D02*
X0421338Y0394734D01*
X0405183Y0420310D02*
X0402937Y0420310D01*
X0401339Y0421908D02*
X0404754Y0421908D01*
X0404676Y0423507D02*
X0399740Y0423507D01*
X0398142Y0425105D02*
X0404676Y0425105D01*
X0405077Y0426704D02*
X0396815Y0426704D01*
X0396815Y0428303D02*
X0405564Y0428303D01*
X0406487Y0429901D02*
X0396815Y0429901D01*
X0396815Y0431500D02*
X0407741Y0431500D01*
X0409526Y0433098D02*
X0396815Y0433098D01*
X0396815Y0434697D02*
X0412996Y0434697D01*
X0411613Y0444288D02*
X0397315Y0444288D01*
X0397315Y0445886D02*
X0408945Y0445886D01*
X0407347Y0447485D02*
X0397315Y0447485D01*
X0397315Y0449083D02*
X0406260Y0449083D01*
X0405400Y0450682D02*
X0397315Y0450682D01*
X0397315Y0452280D02*
X0404971Y0452280D01*
X0404676Y0453879D02*
X0397315Y0453879D01*
X0397315Y0455477D02*
X0404676Y0455477D01*
X0404860Y0457076D02*
X0397315Y0457076D01*
X0397315Y0458674D02*
X0405288Y0458674D01*
X0406020Y0460273D02*
X0397315Y0460273D01*
X0397315Y0461871D02*
X0406942Y0461871D01*
X0408530Y0463470D02*
X0397315Y0463470D01*
X0397315Y0465068D02*
X0410893Y0465068D01*
X0397315Y0466667D02*
X0447215Y0466667D01*
X0447215Y0468265D02*
X0397315Y0468265D01*
X0397315Y0469864D02*
X0447215Y0469864D01*
X0447215Y0471462D02*
X0397315Y0471462D01*
X0397315Y0473061D02*
X0447215Y0473061D01*
X0447215Y0474659D02*
X0397315Y0474659D01*
X0397315Y0476258D02*
X0447215Y0476258D01*
X0447215Y0477856D02*
X0397315Y0477856D01*
X0397315Y0479455D02*
X0447215Y0479455D01*
X0447215Y0481053D02*
X0397315Y0481053D01*
X0397315Y0482652D02*
X0447215Y0482652D01*
X0447215Y0484250D02*
X0397315Y0484250D01*
X0397315Y0485849D02*
X0447215Y0485849D01*
X0447215Y0487447D02*
X0396903Y0487447D01*
X0396346Y0489046D02*
X0447215Y0489046D01*
X0447215Y0490644D02*
X0395423Y0490644D01*
X0394004Y0492243D02*
X0447215Y0492243D01*
X0447215Y0493841D02*
X0391835Y0493841D01*
X0383815Y0495440D02*
X0447215Y0495440D01*
X0447215Y0497039D02*
X0383781Y0497039D01*
X0383352Y0498637D02*
X0447215Y0498637D01*
X0447215Y0500236D02*
X0382737Y0500236D01*
X0381814Y0501834D02*
X0447215Y0501834D01*
X0447215Y0503433D02*
X0380315Y0503433D01*
X0378007Y0505031D02*
X0447215Y0505031D01*
X0447215Y0506630D02*
X0282615Y0506630D01*
X0282615Y0508228D02*
X0447215Y0508228D01*
X0447215Y0509827D02*
X0282615Y0509827D01*
X0282615Y0511425D02*
X0374646Y0511425D01*
X0375260Y0511071D02*
X0378789Y0510125D01*
X0382442Y0510125D01*
X0385971Y0511071D01*
X0389135Y0512897D01*
X0391718Y0515481D01*
X0393545Y0518644D01*
X0394490Y0522173D01*
X0394490Y0525827D01*
X0393545Y0529356D01*
X0391718Y0532519D01*
X0389135Y0535103D01*
X0385971Y0536929D01*
X0382442Y0537875D01*
X0378789Y0537875D01*
X0375260Y0536929D01*
X0372096Y0535103D01*
X0369513Y0532519D01*
X0367686Y0529356D01*
X0366740Y0525827D01*
X0366740Y0522173D01*
X0367686Y0518644D01*
X0369513Y0515481D01*
X0372096Y0512897D01*
X0375260Y0511071D01*
X0371970Y0513024D02*
X0282320Y0513024D01*
X0280721Y0514622D02*
X0370371Y0514622D01*
X0369085Y0516221D02*
X0279123Y0516221D01*
X0277524Y0517819D02*
X0368162Y0517819D01*
X0367479Y0519418D02*
X0238069Y0519418D01*
X0239928Y0517819D02*
X0269707Y0517819D01*
X0268108Y0516221D02*
X0241527Y0516221D01*
X0243125Y0514622D02*
X0266510Y0514622D01*
X0264911Y0513024D02*
X0244724Y0513024D01*
X0246322Y0511425D02*
X0264615Y0511425D01*
X0264615Y0509827D02*
X0247921Y0509827D01*
X0249519Y0508228D02*
X0264615Y0508228D01*
X0264615Y0506630D02*
X0251118Y0506630D01*
X0256317Y0521561D02*
X0259324Y0521561D01*
X0262228Y0522339D01*
X0264832Y0523842D01*
X0265615Y0524626D01*
X0266399Y0523842D01*
X0269003Y0522339D01*
X0271907Y0521561D01*
X0274914Y0521561D01*
X0277818Y0522339D01*
X0280422Y0523842D01*
X0282549Y0525968D01*
X0284052Y0528572D01*
X0284830Y0531477D01*
X0284830Y0544523D01*
X0284052Y0547428D01*
X0282549Y0550032D01*
X0280422Y0552158D01*
X0277818Y0553661D01*
X0274914Y0554439D01*
X0271907Y0554439D01*
X0269003Y0553661D01*
X0266399Y0552158D01*
X0265615Y0551374D01*
X0264832Y0552158D01*
X0262228Y0553661D01*
X0259324Y0554439D01*
X0256317Y0554439D01*
X0253412Y0553661D01*
X0250808Y0552158D01*
X0250025Y0551374D01*
X0249241Y0552158D01*
X0246637Y0553661D01*
X0243733Y0554439D01*
X0240726Y0554439D01*
X0237822Y0553661D01*
X0235218Y0552158D01*
X0233091Y0550032D01*
X0231588Y0547428D01*
X0230810Y0544523D01*
X0230810Y0531477D01*
X0231588Y0528572D01*
X0233091Y0525968D01*
X0235218Y0523842D01*
X0237822Y0522339D01*
X0240726Y0521561D01*
X0243733Y0521561D01*
X0246637Y0522339D01*
X0249241Y0523842D01*
X0250025Y0524626D01*
X0250808Y0523842D01*
X0253412Y0522339D01*
X0256317Y0521561D01*
X0252934Y0522615D02*
X0247115Y0522615D01*
X0249612Y0524213D02*
X0250437Y0524213D01*
X0237344Y0522615D02*
X0164611Y0522615D01*
X0164611Y0524213D02*
X0234847Y0524213D01*
X0233248Y0525812D02*
X0164611Y0525812D01*
X0164611Y0527410D02*
X0232259Y0527410D01*
X0231471Y0529009D02*
X0164937Y0529009D01*
X0165330Y0530607D02*
X0231043Y0530607D01*
X0230810Y0532206D02*
X0165330Y0532206D01*
X0165330Y0533804D02*
X0230810Y0533804D01*
X0230810Y0535403D02*
X0165330Y0535403D01*
X0165330Y0537001D02*
X0230810Y0537001D01*
X0230810Y0538600D02*
X0165330Y0538600D01*
X0165330Y0540198D02*
X0230810Y0540198D01*
X0230810Y0541797D02*
X0165330Y0541797D01*
X0165330Y0543395D02*
X0230810Y0543395D01*
X0230936Y0544994D02*
X0164936Y0544994D01*
X0164457Y0546592D02*
X0231364Y0546592D01*
X0232029Y0548191D02*
X0163534Y0548191D01*
X0162291Y0549789D02*
X0232952Y0549789D01*
X0234448Y0551388D02*
X0160524Y0551388D01*
X0157105Y0552986D02*
X0236653Y0552986D01*
X0247806Y0552986D02*
X0252244Y0552986D01*
X0250038Y0551388D02*
X0250011Y0551388D01*
X0263397Y0552986D02*
X0267834Y0552986D01*
X0265629Y0551388D02*
X0265602Y0551388D01*
X0278987Y0552986D02*
X0447215Y0552986D01*
X0447215Y0551388D02*
X0281192Y0551388D01*
X0282688Y0549789D02*
X0447215Y0549789D01*
X0447215Y0548191D02*
X0283611Y0548191D01*
X0284276Y0546592D02*
X0447215Y0546592D01*
X0447215Y0544994D02*
X0284704Y0544994D01*
X0284830Y0543395D02*
X0447215Y0543395D01*
X0447215Y0541797D02*
X0284830Y0541797D01*
X0284830Y0540198D02*
X0447215Y0540198D01*
X0447215Y0538600D02*
X0284830Y0538600D01*
X0284830Y0537001D02*
X0375528Y0537001D01*
X0372616Y0535403D02*
X0284830Y0535403D01*
X0284830Y0533804D02*
X0370797Y0533804D01*
X0369331Y0532206D02*
X0284830Y0532206D01*
X0284597Y0530607D02*
X0368409Y0530607D01*
X0367593Y0529009D02*
X0284169Y0529009D01*
X0283381Y0527410D02*
X0367165Y0527410D01*
X0366740Y0525812D02*
X0282392Y0525812D01*
X0280793Y0524213D02*
X0366740Y0524213D01*
X0366740Y0522615D02*
X0278296Y0522615D01*
X0268525Y0522615D02*
X0262706Y0522615D01*
X0265203Y0524213D02*
X0266028Y0524213D01*
X0234210Y0521016D02*
X0367050Y0521016D01*
X0386585Y0511425D02*
X0447215Y0511425D01*
X0447215Y0513024D02*
X0389261Y0513024D01*
X0390860Y0514622D02*
X0447215Y0514622D01*
X0447215Y0516221D02*
X0392145Y0516221D01*
X0393068Y0517819D02*
X0447215Y0517819D01*
X0447215Y0519418D02*
X0393752Y0519418D01*
X0394180Y0521016D02*
X0447215Y0521016D01*
X0447215Y0522615D02*
X0394490Y0522615D01*
X0394490Y0524213D02*
X0447215Y0524213D01*
X0447215Y0525812D02*
X0394490Y0525812D01*
X0394066Y0527410D02*
X0447215Y0527410D01*
X0447215Y0529009D02*
X0393638Y0529009D01*
X0392822Y0530607D02*
X0447215Y0530607D01*
X0447215Y0532206D02*
X0391899Y0532206D01*
X0390433Y0533804D02*
X0447215Y0533804D01*
X0447215Y0535403D02*
X0388615Y0535403D01*
X0385703Y0537001D02*
X0447215Y0537001D01*
X0447215Y0554585D02*
X0018015Y0554585D01*
X0018015Y0556183D02*
X0447215Y0556183D01*
X0447215Y0557782D02*
X0018015Y0557782D01*
X0018015Y0552986D02*
X0119536Y0552986D01*
X0116116Y0551388D02*
X0018015Y0551388D01*
X0018015Y0549789D02*
X0114349Y0549789D01*
X0113106Y0548191D02*
X0018015Y0548191D01*
X0018015Y0546592D02*
X0112183Y0546592D01*
X0111704Y0544994D02*
X0018015Y0544994D01*
X0018015Y0543395D02*
X0111310Y0543395D01*
X0111310Y0541797D02*
X0018015Y0541797D01*
X0018015Y0540198D02*
X0111310Y0540198D01*
X0111310Y0538600D02*
X0018015Y0538600D01*
X0018015Y0537001D02*
X0071528Y0537001D01*
X0071260Y0536929D02*
X0068096Y0535103D01*
X0065513Y0532519D01*
X0063686Y0529356D01*
X0062740Y0525827D01*
X0062740Y0522173D01*
X0063686Y0518644D01*
X0065513Y0515481D01*
X0068096Y0512897D01*
X0071260Y0511071D01*
X0074789Y0510125D01*
X0078442Y0510125D01*
X0081971Y0511071D01*
X0085135Y0512897D01*
X0087718Y0515481D01*
X0089545Y0518644D01*
X0090490Y0522173D01*
X0090490Y0525827D01*
X0089545Y0529356D01*
X0087718Y0532519D01*
X0085135Y0535103D01*
X0081971Y0536929D01*
X0078442Y0537875D01*
X0074789Y0537875D01*
X0071260Y0536929D01*
X0068616Y0535403D02*
X0018015Y0535403D01*
X0018015Y0533804D02*
X0066797Y0533804D01*
X0065331Y0532206D02*
X0018015Y0532206D01*
X0018015Y0530607D02*
X0064409Y0530607D01*
X0063593Y0529009D02*
X0018015Y0529009D01*
X0018015Y0527410D02*
X0063165Y0527410D01*
X0062740Y0525812D02*
X0018015Y0525812D01*
X0018015Y0524213D02*
X0062740Y0524213D01*
X0062740Y0522615D02*
X0018015Y0522615D01*
X0018015Y0521016D02*
X0063050Y0521016D01*
X0063479Y0519418D02*
X0018015Y0519418D01*
X0018015Y0517819D02*
X0064162Y0517819D01*
X0065085Y0516221D02*
X0018015Y0516221D01*
X0018015Y0514622D02*
X0066371Y0514622D01*
X0067970Y0513024D02*
X0018015Y0513024D01*
X0018015Y0511425D02*
X0070646Y0511425D01*
X0075156Y0501834D02*
X0018015Y0501834D01*
X0018015Y0500236D02*
X0073557Y0500236D01*
X0072362Y0498637D02*
X0018015Y0498637D01*
X0018015Y0497039D02*
X0071699Y0497039D01*
X0071215Y0495440D02*
X0018015Y0495440D01*
X0018015Y0493841D02*
X0071215Y0493841D01*
X0071215Y0492243D02*
X0018015Y0492243D01*
X0018015Y0490644D02*
X0071831Y0490644D01*
X0071173Y0489046D02*
X0018015Y0489046D01*
X0018015Y0487447D02*
X0070462Y0487447D01*
X0070033Y0485849D02*
X0018015Y0485849D01*
X0018015Y0484250D02*
X0069915Y0484250D01*
X0069909Y0482652D02*
X0018015Y0482652D01*
X0018015Y0481053D02*
X0070176Y0481053D01*
X0070648Y0479455D02*
X0018015Y0479455D01*
X0018015Y0477856D02*
X0071428Y0477856D01*
X0071376Y0476258D02*
X0018015Y0476258D01*
X0018015Y0474659D02*
X0071215Y0474659D01*
X0071215Y0473061D02*
X0018015Y0473061D01*
X0018015Y0471462D02*
X0071492Y0471462D01*
X0072154Y0469864D02*
X0018015Y0469864D01*
X0018015Y0468265D02*
X0073056Y0468265D01*
X0074655Y0466667D02*
X0018015Y0466667D01*
X0018015Y0465068D02*
X0077615Y0465068D01*
X0089616Y0465068D02*
X0100915Y0465068D01*
X0100915Y0463470D02*
X0018015Y0463470D01*
X0018015Y0461871D02*
X0100915Y0461871D01*
X0100915Y0460273D02*
X0018015Y0460273D01*
X0018015Y0458674D02*
X0100915Y0458674D01*
X0100915Y0457076D02*
X0018015Y0457076D01*
X0018015Y0455477D02*
X0100915Y0455477D01*
X0100915Y0453879D02*
X0018015Y0453879D01*
X0018015Y0452280D02*
X0100915Y0452280D01*
X0100915Y0450682D02*
X0018015Y0450682D01*
X0018015Y0449083D02*
X0100915Y0449083D01*
X0100915Y0447485D02*
X0018015Y0447485D01*
X0018015Y0445886D02*
X0100915Y0445886D01*
X0100915Y0444288D02*
X0018015Y0444288D01*
X0018015Y0442689D02*
X0100915Y0442689D01*
X0100915Y0441091D02*
X0018015Y0441091D01*
X0018015Y0439492D02*
X0100915Y0439492D01*
X0100915Y0437894D02*
X0018015Y0437894D01*
X0018015Y0436295D02*
X0100915Y0436295D01*
X0100915Y0434697D02*
X0018015Y0434697D01*
X0018015Y0433098D02*
X0100915Y0433098D01*
X0100915Y0431500D02*
X0018015Y0431500D01*
X0018015Y0429901D02*
X0100915Y0429901D01*
X0100915Y0428303D02*
X0018015Y0428303D01*
X0018015Y0426704D02*
X0100915Y0426704D01*
X0100915Y0425105D02*
X0018015Y0425105D01*
X0018015Y0423507D02*
X0100915Y0423507D01*
X0100683Y0421908D02*
X0018015Y0421908D01*
X0018015Y0420310D02*
X0100415Y0420310D01*
X0100415Y0418711D02*
X0018015Y0418711D01*
X0018015Y0417113D02*
X0100677Y0417113D01*
X0101106Y0415514D02*
X0018015Y0415514D01*
X0018015Y0413916D02*
X0101984Y0413916D01*
X0103166Y0412317D02*
X0018015Y0412317D01*
X0018015Y0410719D02*
X0104569Y0410719D01*
X0106379Y0409120D02*
X0018015Y0409120D01*
X0018015Y0407522D02*
X0151083Y0407522D01*
X0152681Y0405923D02*
X0018015Y0405923D01*
X0018015Y0404325D02*
X0154280Y0404325D01*
X0155878Y0402726D02*
X0018015Y0402726D01*
X0018015Y0401128D02*
X0157477Y0401128D01*
X0159075Y0399529D02*
X0146414Y0399529D01*
X0148012Y0397931D02*
X0160674Y0397931D01*
X0162555Y0396332D02*
X0149104Y0396332D01*
X0149766Y0394734D02*
X0227415Y0394734D01*
X0227415Y0396332D02*
X0171676Y0396332D01*
X0173557Y0397931D02*
X0227415Y0397931D01*
X0227498Y0399529D02*
X0175014Y0399529D01*
X0176115Y0401128D02*
X0228160Y0401128D01*
X0228831Y0402726D02*
X0176315Y0402726D01*
X0176315Y0404325D02*
X0230429Y0404325D01*
X0232028Y0405923D02*
X0176315Y0405923D01*
X0176115Y0407522D02*
X0233626Y0407522D01*
X0235225Y0409120D02*
X0175223Y0409120D01*
X0173907Y0410719D02*
X0236823Y0410719D01*
X0234317Y0412317D02*
X0172309Y0412317D01*
X0170710Y0413916D02*
X0231372Y0413916D01*
X0229773Y0415514D02*
X0169112Y0415514D01*
X0167513Y0417113D02*
X0228423Y0417113D01*
X0227535Y0418711D02*
X0165915Y0418711D01*
X0164653Y0420310D02*
X0205577Y0420310D01*
X0203696Y0421908D02*
X0166252Y0421908D01*
X0167850Y0423507D02*
X0202098Y0423507D01*
X0200499Y0425105D02*
X0169115Y0425105D01*
X0169115Y0426704D02*
X0198901Y0426704D01*
X0197302Y0428303D02*
X0169115Y0428303D01*
X0171115Y0449083D02*
X0215471Y0449083D01*
X0214615Y0447485D02*
X0202465Y0447485D01*
X0205740Y0445886D02*
X0214615Y0445886D01*
X0214615Y0444288D02*
X0207338Y0444288D01*
X0208937Y0442689D02*
X0214615Y0442689D01*
X0214615Y0441091D02*
X0210535Y0441091D01*
X0212134Y0439492D02*
X0215895Y0439492D01*
X0217494Y0437894D02*
X0213733Y0437894D01*
X0215331Y0436295D02*
X0219092Y0436295D01*
X0216930Y0434697D02*
X0227415Y0434697D01*
X0227415Y0433098D02*
X0218245Y0433098D01*
X0219115Y0431500D02*
X0227415Y0431500D01*
X0227415Y0429901D02*
X0219315Y0429901D01*
X0219315Y0428303D02*
X0227359Y0428303D01*
X0226903Y0426704D02*
X0219315Y0426704D01*
X0219115Y0425105D02*
X0226446Y0425105D01*
X0226414Y0423507D02*
X0218005Y0423507D01*
X0216535Y0421908D02*
X0226484Y0421908D01*
X0226884Y0420310D02*
X0214653Y0420310D01*
X0227415Y0393135D02*
X0150653Y0393135D01*
X0151315Y0391537D02*
X0227415Y0391537D01*
X0227511Y0389938D02*
X0151815Y0389938D01*
X0152286Y0388340D02*
X0228173Y0388340D01*
X0227115Y0369158D02*
X0193969Y0369158D01*
X0195567Y0367559D02*
X0227115Y0367559D01*
X0227115Y0365961D02*
X0197166Y0365961D01*
X0198764Y0364362D02*
X0228025Y0364362D01*
X0229624Y0362764D02*
X0200363Y0362764D01*
X0201961Y0361165D02*
X0231222Y0361165D01*
X0241008Y0361165D02*
X0251222Y0361165D01*
X0249624Y0362764D02*
X0242607Y0362764D01*
X0244205Y0364362D02*
X0248025Y0364362D01*
X0247115Y0365961D02*
X0245115Y0365961D01*
X0245115Y0367559D02*
X0247115Y0367559D01*
X0247115Y0369158D02*
X0245115Y0369158D01*
X0261008Y0361165D02*
X0302222Y0361165D01*
X0300624Y0362764D02*
X0262607Y0362764D01*
X0264205Y0364362D02*
X0299025Y0364362D01*
X0298615Y0365961D02*
X0265115Y0365961D01*
X0265115Y0367559D02*
X0298615Y0367559D01*
X0298615Y0369158D02*
X0265115Y0369158D01*
X0265115Y0370756D02*
X0298615Y0370756D01*
X0298742Y0372355D02*
X0266481Y0372355D01*
X0268079Y0373953D02*
X0282934Y0373953D01*
X0281336Y0375552D02*
X0269678Y0375552D01*
X0271276Y0377150D02*
X0279737Y0377150D01*
X0278139Y0378749D02*
X0272875Y0378749D01*
X0274473Y0380347D02*
X0278115Y0380347D01*
X0278115Y0381946D02*
X0275394Y0381946D01*
X0276056Y0383544D02*
X0278115Y0383544D01*
X0291296Y0373953D02*
X0300341Y0373953D01*
X0301939Y0375552D02*
X0292895Y0375552D01*
X0294493Y0377150D02*
X0303538Y0377150D01*
X0296092Y0378749D02*
X0337856Y0378749D01*
X0336257Y0380347D02*
X0296115Y0380347D01*
X0296115Y0381946D02*
X0334659Y0381946D01*
X0333060Y0383544D02*
X0296115Y0383544D01*
X0311693Y0377150D02*
X0339454Y0377150D01*
X0342678Y0375552D02*
X0313292Y0375552D01*
X0313008Y0361165D02*
X0383267Y0361165D01*
X0382171Y0359567D02*
X0311410Y0359567D01*
X0303821Y0359567D02*
X0203560Y0359567D01*
X0205158Y0357968D02*
X0381509Y0357968D01*
X0380915Y0356370D02*
X0206757Y0356370D01*
X0208355Y0354771D02*
X0380915Y0354771D01*
X0380915Y0353172D02*
X0209954Y0353172D01*
X0211179Y0351574D02*
X0217861Y0351574D01*
X0216263Y0349975D02*
X0211841Y0349975D01*
X0212315Y0348377D02*
X0215145Y0348377D01*
X0214483Y0346778D02*
X0212315Y0346778D01*
X0212315Y0345180D02*
X0214115Y0345180D01*
X0214115Y0343581D02*
X0212315Y0343581D01*
X0212315Y0341983D02*
X0214115Y0341983D01*
X0228369Y0351574D02*
X0380915Y0351574D01*
X0380915Y0349975D02*
X0229968Y0349975D01*
X0231085Y0348377D02*
X0380915Y0348377D01*
X0380915Y0346778D02*
X0231747Y0346778D01*
X0232115Y0345180D02*
X0380915Y0345180D01*
X0380915Y0343581D02*
X0232115Y0343581D01*
X0232115Y0341983D02*
X0380915Y0341983D01*
X0380915Y0340384D02*
X0292139Y0340384D01*
X0293842Y0338786D02*
X0380915Y0338786D01*
X0380915Y0337187D02*
X0295156Y0337187D01*
X0296115Y0335589D02*
X0380915Y0335589D01*
X0380915Y0333990D02*
X0296309Y0333990D01*
X0296316Y0332392D02*
X0380915Y0332392D01*
X0379898Y0330793D02*
X0296322Y0330793D01*
X0296115Y0329195D02*
X0378299Y0329195D01*
X0376701Y0327596D02*
X0295049Y0327596D01*
X0293624Y0325998D02*
X0375102Y0325998D01*
X0373504Y0324399D02*
X0291743Y0324399D01*
X0271719Y0316407D02*
X0370915Y0316407D01*
X0370915Y0318005D02*
X0270121Y0318005D01*
X0268522Y0319604D02*
X0370915Y0319604D01*
X0371484Y0321202D02*
X0266924Y0321202D01*
X0265325Y0322801D02*
X0372146Y0322801D01*
X0396352Y0397931D02*
X0344695Y0397931D01*
X0343097Y0399529D02*
X0393454Y0399529D01*
X0391855Y0401128D02*
X0341034Y0401128D01*
X0335767Y0405923D02*
X0387060Y0405923D01*
X0388658Y0404325D02*
X0334168Y0404325D01*
X0332570Y0402726D02*
X0390257Y0402726D01*
X0385461Y0407522D02*
X0336615Y0407522D01*
X0336615Y0409120D02*
X0383863Y0409120D01*
X0382264Y0410719D02*
X0336615Y0410719D01*
X0336615Y0412317D02*
X0380666Y0412317D01*
X0379067Y0413916D02*
X0336615Y0413916D01*
X0335329Y0415514D02*
X0377504Y0415514D01*
X0376582Y0417113D02*
X0333730Y0417113D01*
X0332132Y0418711D02*
X0375919Y0418711D01*
X0375491Y0420310D02*
X0316615Y0420310D01*
X0316615Y0421908D02*
X0375415Y0421908D01*
X0375415Y0423507D02*
X0315336Y0423507D01*
X0316615Y0422228D02*
X0311343Y0427500D01*
X0303887Y0427500D01*
X0298615Y0422228D01*
X0298615Y0414772D01*
X0303887Y0409500D01*
X0311343Y0409500D01*
X0316615Y0414772D01*
X0316615Y0422228D01*
X0316615Y0418711D02*
X0323099Y0418711D01*
X0321500Y0417113D02*
X0316615Y0417113D01*
X0316615Y0415514D02*
X0319902Y0415514D01*
X0318615Y0413916D02*
X0315759Y0413916D01*
X0314161Y0412317D02*
X0318615Y0412317D01*
X0318615Y0410719D02*
X0312562Y0410719D01*
X0318615Y0409120D02*
X0280664Y0409120D01*
X0279077Y0407522D02*
X0318615Y0407522D01*
X0319464Y0405923D02*
X0277490Y0405923D01*
X0275903Y0404325D02*
X0321063Y0404325D01*
X0322661Y0402726D02*
X0274315Y0402726D01*
X0282251Y0410719D02*
X0302669Y0410719D01*
X0301070Y0412317D02*
X0283838Y0412317D01*
X0285426Y0413916D02*
X0299472Y0413916D01*
X0298615Y0415514D02*
X0287013Y0415514D01*
X0288600Y0417113D02*
X0298615Y0417113D01*
X0298615Y0418711D02*
X0290187Y0418711D01*
X0291774Y0420310D02*
X0298615Y0420310D01*
X0298615Y0421908D02*
X0293362Y0421908D01*
X0294949Y0423507D02*
X0299894Y0423507D01*
X0301493Y0425105D02*
X0296536Y0425105D01*
X0298123Y0426704D02*
X0303091Y0426704D01*
X0301297Y0429901D02*
X0375415Y0429901D01*
X0375415Y0428303D02*
X0299710Y0428303D01*
X0302885Y0431500D02*
X0375415Y0431500D01*
X0375415Y0433098D02*
X0304472Y0433098D01*
X0306059Y0434697D02*
X0375415Y0434697D01*
X0375415Y0436295D02*
X0307646Y0436295D01*
X0309233Y0437894D02*
X0375415Y0437894D01*
X0375438Y0439492D02*
X0310820Y0439492D01*
X0312408Y0441091D02*
X0375866Y0441091D01*
X0375915Y0442689D02*
X0313995Y0442689D01*
X0315582Y0444288D02*
X0375915Y0444288D01*
X0375915Y0445886D02*
X0317169Y0445886D01*
X0318756Y0447485D02*
X0375915Y0447485D01*
X0375915Y0449083D02*
X0320343Y0449083D01*
X0321931Y0450682D02*
X0375915Y0450682D01*
X0375915Y0452280D02*
X0332123Y0452280D01*
X0333722Y0453879D02*
X0375915Y0453879D01*
X0375915Y0455477D02*
X0335320Y0455477D01*
X0336615Y0457076D02*
X0375915Y0457076D01*
X0375915Y0458674D02*
X0336615Y0458674D01*
X0336615Y0460273D02*
X0375915Y0460273D01*
X0375915Y0461871D02*
X0336615Y0461871D01*
X0336615Y0463470D02*
X0375915Y0463470D01*
X0375915Y0465068D02*
X0336215Y0465068D01*
X0318956Y0473800D02*
X0266115Y0420582D01*
X0266115Y0427890D01*
X0264745Y0431198D01*
X0262213Y0433730D01*
X0258906Y0435100D01*
X0255325Y0435100D01*
X0252115Y0433770D01*
X0248906Y0435100D01*
X0248815Y0435100D01*
X0248815Y0473800D01*
X0318956Y0473800D01*
X0318222Y0473061D02*
X0248815Y0473061D01*
X0248815Y0471462D02*
X0316635Y0471462D01*
X0315047Y0469864D02*
X0248815Y0469864D01*
X0248815Y0468265D02*
X0313460Y0468265D01*
X0311873Y0466667D02*
X0278676Y0466667D01*
X0277343Y0468000D02*
X0282615Y0462728D01*
X0282615Y0455272D01*
X0279093Y0451750D01*
X0282615Y0448228D01*
X0282615Y0440772D01*
X0277343Y0435500D01*
X0269887Y0435500D01*
X0264615Y0440772D01*
X0264615Y0448228D01*
X0268137Y0451750D01*
X0264615Y0455272D01*
X0264615Y0462728D01*
X0269887Y0468000D01*
X0277343Y0468000D01*
X0280275Y0465068D02*
X0310286Y0465068D01*
X0308699Y0463470D02*
X0281873Y0463470D01*
X0282615Y0461871D02*
X0307111Y0461871D01*
X0305524Y0460273D02*
X0282615Y0460273D01*
X0282615Y0458674D02*
X0303937Y0458674D01*
X0302350Y0457076D02*
X0282615Y0457076D01*
X0282615Y0455477D02*
X0300763Y0455477D01*
X0299176Y0453879D02*
X0281222Y0453879D01*
X0279623Y0452280D02*
X0297588Y0452280D01*
X0296001Y0450682D02*
X0280162Y0450682D01*
X0281760Y0449083D02*
X0294414Y0449083D01*
X0292827Y0447485D02*
X0282615Y0447485D01*
X0282615Y0445886D02*
X0291240Y0445886D01*
X0289653Y0444288D02*
X0282615Y0444288D01*
X0282615Y0442689D02*
X0288065Y0442689D01*
X0286478Y0441091D02*
X0282615Y0441091D01*
X0281335Y0439492D02*
X0284891Y0439492D01*
X0283304Y0437894D02*
X0279737Y0437894D01*
X0278138Y0436295D02*
X0281717Y0436295D01*
X0280130Y0434697D02*
X0259880Y0434697D01*
X0262845Y0433098D02*
X0278542Y0433098D01*
X0276955Y0431500D02*
X0264444Y0431500D01*
X0265282Y0429901D02*
X0275368Y0429901D01*
X0273781Y0428303D02*
X0265945Y0428303D01*
X0266115Y0426704D02*
X0272194Y0426704D01*
X0270606Y0425105D02*
X0266115Y0425105D01*
X0266115Y0423507D02*
X0269019Y0423507D01*
X0267432Y0421908D02*
X0266115Y0421908D01*
X0269092Y0436295D02*
X0248815Y0436295D01*
X0248815Y0437894D02*
X0267494Y0437894D01*
X0265895Y0439492D02*
X0248815Y0439492D01*
X0248815Y0441091D02*
X0264615Y0441091D01*
X0264615Y0442689D02*
X0248815Y0442689D01*
X0248815Y0444288D02*
X0264615Y0444288D01*
X0264615Y0445886D02*
X0248815Y0445886D01*
X0248815Y0447485D02*
X0264615Y0447485D01*
X0265471Y0449083D02*
X0248815Y0449083D01*
X0248815Y0450682D02*
X0267069Y0450682D01*
X0267607Y0452280D02*
X0248815Y0452280D01*
X0248815Y0453879D02*
X0266009Y0453879D01*
X0264615Y0455477D02*
X0248815Y0455477D01*
X0248815Y0457076D02*
X0264615Y0457076D01*
X0264615Y0458674D02*
X0248815Y0458674D01*
X0248815Y0460273D02*
X0264615Y0460273D01*
X0264615Y0461871D02*
X0248815Y0461871D01*
X0248815Y0463470D02*
X0265357Y0463470D01*
X0266956Y0465068D02*
X0248815Y0465068D01*
X0248815Y0466667D02*
X0268554Y0466667D01*
X0254351Y0434697D02*
X0249880Y0434697D01*
X0227415Y0453879D02*
X0168465Y0453879D01*
X0170063Y0452280D02*
X0218668Y0452280D01*
X0217069Y0450682D02*
X0171115Y0450682D01*
X0166866Y0455477D02*
X0227415Y0455477D01*
X0227415Y0457076D02*
X0164702Y0457076D01*
X0166300Y0458674D02*
X0227415Y0458674D01*
X0227415Y0460273D02*
X0167899Y0460273D01*
X0169497Y0461871D02*
X0227415Y0461871D01*
X0227415Y0463470D02*
X0171096Y0463470D01*
X0172694Y0465068D02*
X0227415Y0465068D01*
X0227415Y0466667D02*
X0223576Y0466667D01*
X0225174Y0468265D02*
X0227415Y0468265D01*
X0227415Y0469864D02*
X0226369Y0469864D01*
X0227032Y0471462D02*
X0227415Y0471462D01*
X0150717Y0552986D02*
X0141514Y0552986D01*
X0144933Y0551388D02*
X0147297Y0551388D01*
X0135126Y0552986D02*
X0125923Y0552986D01*
X0129343Y0551388D02*
X0131707Y0551388D01*
X0111310Y0537001D02*
X0081703Y0537001D01*
X0084615Y0535403D02*
X0111310Y0535403D01*
X0111310Y0533804D02*
X0086433Y0533804D01*
X0087899Y0532206D02*
X0111310Y0532206D01*
X0111310Y0530607D02*
X0088822Y0530607D01*
X0089638Y0529009D02*
X0111703Y0529009D01*
X0112182Y0527410D02*
X0090066Y0527410D01*
X0090490Y0525812D02*
X0112415Y0525812D01*
X0112415Y0524213D02*
X0090490Y0524213D01*
X0090490Y0522615D02*
X0112415Y0522615D01*
X0112415Y0521016D02*
X0090180Y0521016D01*
X0089752Y0519418D02*
X0112415Y0519418D01*
X0112415Y0517819D02*
X0089068Y0517819D01*
X0088145Y0516221D02*
X0112415Y0516221D01*
X0112415Y0514622D02*
X0086860Y0514622D01*
X0085261Y0513024D02*
X0112415Y0513024D01*
X0110908Y0511425D02*
X0082585Y0511425D01*
X0078553Y0503433D02*
X0018015Y0503433D01*
X0018015Y0505031D02*
X0104514Y0505031D01*
X0106113Y0506630D02*
X0018015Y0506630D01*
X0018015Y0508228D02*
X0107711Y0508228D01*
X0109310Y0509827D02*
X0018015Y0509827D01*
X0092576Y0466667D02*
X0100915Y0466667D01*
X0100915Y0468265D02*
X0094174Y0468265D01*
X0095077Y0469864D02*
X0100915Y0469864D01*
X0100915Y0471462D02*
X0095739Y0471462D01*
X0096015Y0473061D02*
X0100915Y0473061D01*
X0115852Y0409120D02*
X0116379Y0409120D01*
X0125852Y0409120D02*
X0126379Y0409120D01*
X0135852Y0409120D02*
X0136379Y0409120D01*
X0145852Y0409120D02*
X0149484Y0409120D01*
X0140651Y0373953D02*
X0140104Y0373953D01*
X0139442Y0372355D02*
X0142250Y0372355D01*
X0144477Y0370756D02*
X0137882Y0370756D01*
X0136243Y0369158D02*
X0172165Y0369158D01*
X0172165Y0367559D02*
X0134608Y0367559D01*
X0132973Y0365961D02*
X0172563Y0365961D01*
X0173225Y0364362D02*
X0169468Y0364362D01*
X0171863Y0362764D02*
X0174339Y0362764D01*
X0173461Y0361165D02*
X0175940Y0361165D01*
X0174975Y0359567D02*
X0177538Y0359567D01*
X0176115Y0357968D02*
X0179137Y0357968D01*
X0180735Y0356370D02*
X0176299Y0356370D01*
X0176315Y0354771D02*
X0182334Y0354771D01*
X0183932Y0353172D02*
X0176315Y0353172D01*
X0176115Y0351574D02*
X0185531Y0351574D01*
X0186263Y0349975D02*
X0175319Y0349975D01*
X0174003Y0348377D02*
X0185145Y0348377D01*
X0184483Y0346778D02*
X0172405Y0346778D01*
X0161826Y0346778D02*
X0150405Y0346778D01*
X0148806Y0345180D02*
X0184115Y0345180D01*
X0184115Y0343581D02*
X0147208Y0343581D01*
X0145609Y0341983D02*
X0184115Y0341983D01*
X0142762Y0364362D02*
X0131338Y0364362D01*
X0129703Y0362764D02*
X0140368Y0362764D01*
X0138770Y0361165D02*
X0128069Y0361165D01*
X0126434Y0359567D02*
X0137171Y0359567D01*
X0135573Y0357968D02*
X0124799Y0357968D01*
X0123164Y0356370D02*
X0133974Y0356370D01*
X0132376Y0354771D02*
X0121529Y0354771D01*
X0119894Y0353172D02*
X0130777Y0353172D01*
X0129179Y0351574D02*
X0118260Y0351574D01*
X0116625Y0349975D02*
X0127580Y0349975D01*
X0125982Y0348377D02*
X0115025Y0348377D01*
X0112128Y0346778D02*
X0124383Y0346778D01*
X0123096Y0345180D02*
X0064315Y0345180D01*
X0064315Y0343581D02*
X0122434Y0343581D01*
X0121915Y0341983D02*
X0064315Y0341983D01*
X0064315Y0340384D02*
X0121915Y0340384D01*
X0121915Y0338786D02*
X0064315Y0338786D01*
X0064315Y0337187D02*
X0121915Y0337187D01*
X0121915Y0335589D02*
X0064315Y0335589D01*
X0064315Y0333990D02*
X0121915Y0333990D01*
X0121915Y0332392D02*
X0064315Y0332392D01*
X0064315Y0330793D02*
X0117378Y0330793D01*
X0114982Y0329195D02*
X0064315Y0329195D01*
X0064315Y0327596D02*
X0113443Y0327596D01*
X0112781Y0325998D02*
X0064315Y0325998D01*
X0064315Y0324399D02*
X0112119Y0324399D01*
X0112115Y0322801D02*
X0064315Y0322801D01*
X0064315Y0321202D02*
X0111915Y0321202D01*
X0111915Y0319604D02*
X0064315Y0319604D01*
X0064315Y0318005D02*
X0111610Y0318005D01*
X0110011Y0316407D02*
X0064206Y0316407D01*
X0064115Y0314808D02*
X0108413Y0314808D01*
X0102627Y0295626D02*
X0018015Y0295626D01*
X0018015Y0294028D02*
X0102115Y0294028D01*
X0102115Y0292429D02*
X0018015Y0292429D01*
X0018015Y0290831D02*
X0101915Y0290831D01*
X0101915Y0289232D02*
X0018015Y0289232D01*
X0018015Y0287634D02*
X0101915Y0287634D01*
X0101915Y0286035D02*
X0018015Y0286035D01*
X0018015Y0284437D02*
X0101915Y0284437D01*
X0101915Y0282838D02*
X0018015Y0282838D01*
X0018015Y0281239D02*
X0101901Y0281239D01*
X0102134Y0279641D02*
X0018015Y0279641D01*
X0018015Y0278042D02*
X0102786Y0278042D01*
X0103661Y0276444D02*
X0018015Y0276444D01*
X0018015Y0274845D02*
X0105235Y0274845D01*
X0106778Y0273247D02*
X0018015Y0273247D01*
X0018015Y0297225D02*
X0074380Y0297225D01*
X0072781Y0298823D02*
X0018015Y0298823D01*
X0018015Y0300422D02*
X0071466Y0300422D01*
X0070615Y0302020D02*
X0018015Y0302020D01*
X0018015Y0303619D02*
X0070415Y0303619D01*
X0070415Y0305217D02*
X0018015Y0305217D01*
X0018015Y0306816D02*
X0070415Y0306816D01*
X0070615Y0308414D02*
X0018015Y0308414D01*
X0018015Y0310013D02*
X0030875Y0310013D01*
X0031387Y0309500D02*
X0032806Y0309500D01*
X0035918Y0309154D01*
X0037112Y0309500D01*
X0038843Y0309500D01*
X0039846Y0310503D01*
X0042292Y0312459D01*
X0042891Y0313548D01*
X0044115Y0314772D01*
X0044115Y0316190D01*
X0044461Y0319303D01*
X0044115Y0320496D01*
X0044115Y0322228D01*
X0043112Y0323231D01*
X0040315Y0326727D01*
X0040315Y0340330D01*
X0040115Y0340813D01*
X0040115Y0342228D01*
X0039115Y0343229D01*
X0038915Y0343711D01*
X0036327Y0346299D01*
X0035844Y0346499D01*
X0034843Y0347500D01*
X0033428Y0347500D01*
X0032945Y0347700D01*
X0029285Y0347700D01*
X0028803Y0347500D01*
X0027387Y0347500D01*
X0026387Y0346499D01*
X0025904Y0346299D01*
X0023316Y0343711D01*
X0023116Y0343229D01*
X0022115Y0342228D01*
X0022115Y0340813D01*
X0021915Y0340330D01*
X0021915Y0324010D01*
X0021770Y0322697D01*
X0021915Y0322194D01*
X0021915Y0321670D01*
X0022421Y0320450D01*
X0022788Y0319182D01*
X0023115Y0318773D01*
X0023316Y0318289D01*
X0024250Y0317355D01*
X0026115Y0315023D01*
X0026115Y0314772D01*
X0027118Y0313769D01*
X0029075Y0311324D01*
X0030163Y0310724D01*
X0031387Y0309500D01*
X0028845Y0311611D02*
X0018015Y0311611D01*
X0018015Y0313210D02*
X0027566Y0313210D01*
X0026115Y0314808D02*
X0018015Y0314808D01*
X0018015Y0316407D02*
X0025008Y0316407D01*
X0023599Y0318005D02*
X0018015Y0318005D01*
X0018015Y0319604D02*
X0022666Y0319604D01*
X0022109Y0321202D02*
X0018015Y0321202D01*
X0018015Y0322801D02*
X0021781Y0322801D01*
X0021915Y0324399D02*
X0018015Y0324399D01*
X0018015Y0325998D02*
X0021915Y0325998D01*
X0021915Y0327596D02*
X0018015Y0327596D01*
X0018015Y0329195D02*
X0021915Y0329195D01*
X0021915Y0330793D02*
X0018015Y0330793D01*
X0018015Y0332392D02*
X0021915Y0332392D01*
X0021915Y0333990D02*
X0018015Y0333990D01*
X0018015Y0335589D02*
X0021915Y0335589D01*
X0021915Y0337187D02*
X0018015Y0337187D01*
X0018015Y0338786D02*
X0021915Y0338786D01*
X0021938Y0340384D02*
X0018015Y0340384D01*
X0018015Y0341983D02*
X0022115Y0341983D01*
X0023262Y0343581D02*
X0018015Y0343581D01*
X0018015Y0345180D02*
X0024785Y0345180D01*
X0026666Y0346778D02*
X0018015Y0346778D01*
X0018015Y0348377D02*
X0045915Y0348377D01*
X0045915Y0349975D02*
X0018015Y0349975D01*
X0018015Y0351574D02*
X0046224Y0351574D01*
X0046886Y0353172D02*
X0018015Y0353172D01*
X0018015Y0354771D02*
X0047876Y0354771D01*
X0049474Y0356370D02*
X0018015Y0356370D01*
X0018015Y0357968D02*
X0051073Y0357968D01*
X0052671Y0359567D02*
X0018015Y0359567D01*
X0018015Y0361165D02*
X0054270Y0361165D01*
X0055868Y0362764D02*
X0018015Y0362764D01*
X0018015Y0364362D02*
X0057467Y0364362D01*
X0059065Y0365961D02*
X0018015Y0365961D01*
X0018015Y0367559D02*
X0060664Y0367559D01*
X0062262Y0369158D02*
X0018015Y0369158D01*
X0018015Y0370756D02*
X0063861Y0370756D01*
X0065459Y0372355D02*
X0018015Y0372355D01*
X0018015Y0373953D02*
X0067058Y0373953D01*
X0068656Y0375552D02*
X0018015Y0375552D01*
X0018015Y0377150D02*
X0070255Y0377150D01*
X0071853Y0378749D02*
X0018015Y0378749D01*
X0018015Y0380347D02*
X0026540Y0380347D01*
X0027387Y0379500D02*
X0034843Y0379500D01*
X0040115Y0384772D01*
X0040115Y0392228D01*
X0034843Y0397500D01*
X0027387Y0397500D01*
X0022115Y0392228D01*
X0022115Y0384772D01*
X0027387Y0379500D01*
X0024942Y0381946D02*
X0018015Y0381946D01*
X0018015Y0383544D02*
X0023343Y0383544D01*
X0022115Y0385143D02*
X0018015Y0385143D01*
X0018015Y0386741D02*
X0022115Y0386741D01*
X0022115Y0388340D02*
X0018015Y0388340D01*
X0018015Y0389938D02*
X0022115Y0389938D01*
X0022115Y0391537D02*
X0018015Y0391537D01*
X0018015Y0393135D02*
X0023023Y0393135D01*
X0024621Y0394734D02*
X0018015Y0394734D01*
X0018015Y0396332D02*
X0026220Y0396332D01*
X0018015Y0397931D02*
X0091928Y0397931D01*
X0089437Y0396332D02*
X0036011Y0396332D01*
X0037609Y0394734D02*
X0087838Y0394734D01*
X0086240Y0393135D02*
X0039208Y0393135D01*
X0040115Y0391537D02*
X0084641Y0391537D01*
X0083043Y0389938D02*
X0040115Y0389938D01*
X0040115Y0388340D02*
X0081444Y0388340D01*
X0079846Y0386741D02*
X0040115Y0386741D01*
X0040115Y0385143D02*
X0078247Y0385143D01*
X0076649Y0383544D02*
X0038887Y0383544D01*
X0037289Y0381946D02*
X0075050Y0381946D01*
X0073452Y0380347D02*
X0035690Y0380347D01*
X0018015Y0399529D02*
X0105817Y0399529D01*
X0071767Y0349975D02*
X0069102Y0349975D01*
X0067503Y0348377D02*
X0073230Y0348377D01*
X0075109Y0346778D02*
X0065905Y0346778D01*
X0045915Y0346778D02*
X0035565Y0346778D01*
X0037446Y0345180D02*
X0045915Y0345180D01*
X0045915Y0343581D02*
X0038969Y0343581D01*
X0040115Y0341983D02*
X0045915Y0341983D01*
X0045915Y0340384D02*
X0040293Y0340384D01*
X0040315Y0338786D02*
X0045915Y0338786D01*
X0045915Y0337187D02*
X0040315Y0337187D01*
X0040315Y0335589D02*
X0045915Y0335589D01*
X0045915Y0333990D02*
X0040315Y0333990D01*
X0040315Y0332392D02*
X0045915Y0332392D01*
X0045915Y0330793D02*
X0040315Y0330793D01*
X0040315Y0329195D02*
X0045915Y0329195D01*
X0045915Y0327596D02*
X0040315Y0327596D01*
X0040899Y0325998D02*
X0045915Y0325998D01*
X0045915Y0324399D02*
X0042178Y0324399D01*
X0043542Y0322801D02*
X0045915Y0322801D01*
X0045915Y0321202D02*
X0044115Y0321202D01*
X0044374Y0319604D02*
X0045915Y0319604D01*
X0045915Y0318005D02*
X0044317Y0318005D01*
X0044139Y0316407D02*
X0046024Y0316407D01*
X0046115Y0314808D02*
X0044115Y0314808D01*
X0042705Y0313210D02*
X0047395Y0313210D01*
X0048993Y0311611D02*
X0041232Y0311611D01*
X0039356Y0310013D02*
X0050875Y0310013D01*
X0059356Y0310013D02*
X0071734Y0310013D01*
X0073216Y0311611D02*
X0061237Y0311611D01*
X0062836Y0313210D02*
X0075097Y0313210D01*
X0139531Y0295800D02*
X0140115Y0294390D01*
X0140115Y0292313D01*
X0140315Y0291830D01*
X0140315Y0282811D01*
X0152915Y0270211D01*
X0154315Y0266830D01*
X0154315Y0255319D01*
X0166335Y0243700D01*
X0213915Y0243700D01*
X0213915Y0261497D01*
X0213415Y0260289D01*
X0213024Y0259898D01*
X0213022Y0259894D01*
X0211222Y0258093D01*
X0211218Y0258092D01*
X0210827Y0257701D01*
X0207445Y0256300D01*
X0173285Y0256300D01*
X0172802Y0256500D01*
X0171387Y0256500D01*
X0170387Y0257501D01*
X0169904Y0257701D01*
X0164816Y0262789D01*
X0163415Y0266170D01*
X0163415Y0284189D01*
X0160115Y0287489D01*
X0160115Y0285610D01*
X0158745Y0282302D01*
X0156213Y0279770D01*
X0152906Y0278400D01*
X0149325Y0278400D01*
X0146017Y0279770D01*
X0143486Y0282302D01*
X0142115Y0285610D01*
X0142115Y0294390D01*
X0142699Y0295800D01*
X0139531Y0295800D01*
X0139603Y0295626D02*
X0142627Y0295626D01*
X0142115Y0294028D02*
X0140115Y0294028D01*
X0140115Y0292429D02*
X0142115Y0292429D01*
X0142115Y0290831D02*
X0140315Y0290831D01*
X0140315Y0289232D02*
X0142115Y0289232D01*
X0142115Y0287634D02*
X0140315Y0287634D01*
X0140315Y0286035D02*
X0142115Y0286035D01*
X0142601Y0284437D02*
X0140315Y0284437D01*
X0140315Y0282838D02*
X0143263Y0282838D01*
X0144548Y0281239D02*
X0141887Y0281239D01*
X0143485Y0279641D02*
X0146329Y0279641D01*
X0145084Y0278042D02*
X0163415Y0278042D01*
X0163415Y0276444D02*
X0146682Y0276444D01*
X0148281Y0274845D02*
X0163415Y0274845D01*
X0163415Y0273247D02*
X0149879Y0273247D01*
X0151478Y0271648D02*
X0163415Y0271648D01*
X0163415Y0270050D02*
X0152982Y0270050D01*
X0153644Y0268451D02*
X0163415Y0268451D01*
X0163415Y0266853D02*
X0154306Y0266853D01*
X0154315Y0265254D02*
X0163795Y0265254D01*
X0164457Y0263656D02*
X0154315Y0263656D01*
X0154315Y0262057D02*
X0165547Y0262057D01*
X0167146Y0260459D02*
X0154315Y0260459D01*
X0154315Y0258860D02*
X0168744Y0258860D01*
X0170626Y0257262D02*
X0154315Y0257262D01*
X0154315Y0255663D02*
X0213915Y0255663D01*
X0213915Y0254065D02*
X0155613Y0254065D01*
X0157267Y0252466D02*
X0213915Y0252466D01*
X0213915Y0250868D02*
X0158920Y0250868D01*
X0160574Y0249269D02*
X0213915Y0249269D01*
X0213915Y0247671D02*
X0162227Y0247671D01*
X0163881Y0246072D02*
X0213915Y0246072D01*
X0213915Y0244474D02*
X0165535Y0244474D01*
X0163415Y0279641D02*
X0155902Y0279641D01*
X0157683Y0281239D02*
X0163415Y0281239D01*
X0163415Y0282838D02*
X0158967Y0282838D01*
X0159629Y0284437D02*
X0163168Y0284437D01*
X0161570Y0286035D02*
X0160115Y0286035D01*
X0209767Y0257262D02*
X0213915Y0257262D01*
X0213915Y0258860D02*
X0211989Y0258860D01*
X0213485Y0260459D02*
X0213915Y0260459D01*
X0242315Y0284437D02*
X0279456Y0284437D01*
X0276070Y0286035D02*
X0242315Y0286035D01*
X0242315Y0287634D02*
X0274471Y0287634D01*
X0272873Y0289232D02*
X0242315Y0289232D01*
X0242315Y0290831D02*
X0271274Y0290831D01*
X0269676Y0292429D02*
X0242315Y0292429D01*
X0242315Y0294028D02*
X0268077Y0294028D01*
X0266478Y0295626D02*
X0242315Y0295626D01*
X0242315Y0297225D02*
X0264880Y0297225D01*
X0263281Y0298823D02*
X0242315Y0298823D01*
X0242315Y0300422D02*
X0261683Y0300422D01*
X0260084Y0302020D02*
X0242315Y0302020D01*
X0242315Y0303619D02*
X0258486Y0303619D01*
X0256887Y0305217D02*
X0242315Y0305217D01*
X0242315Y0306816D02*
X0255289Y0306816D01*
X0253690Y0308414D02*
X0242315Y0308414D01*
X0242315Y0310013D02*
X0252092Y0310013D01*
X0250493Y0311611D02*
X0242315Y0311611D01*
X0313738Y0425105D02*
X0375415Y0425105D01*
X0375415Y0426704D02*
X0312139Y0426704D01*
X0397102Y0436295D02*
X0436415Y0436295D01*
X0436415Y0434697D02*
X0429235Y0434697D01*
X0432705Y0433098D02*
X0436415Y0433098D01*
X0436415Y0431500D02*
X0434490Y0431500D01*
X0435744Y0429901D02*
X0436415Y0429901D01*
X0436415Y0437894D02*
X0397315Y0437894D01*
X0397315Y0439492D02*
X0436415Y0439492D01*
X0436415Y0441091D02*
X0397315Y0441091D01*
X0397315Y0442689D02*
X0436415Y0442689D01*
X0436415Y0444288D02*
X0430618Y0444288D01*
X0431338Y0465068D02*
X0447215Y0465068D01*
X0209385Y0127782D02*
X0147844Y0127782D01*
X0149442Y0126184D02*
X0207786Y0126184D01*
X0206190Y0124585D02*
X0150674Y0124585D01*
X0151336Y0122987D02*
X0204591Y0122987D01*
X0202993Y0121388D02*
X0151815Y0121388D01*
X0151815Y0119790D02*
X0201394Y0119790D01*
X0199796Y0118191D02*
X0151815Y0118191D01*
X0151815Y0116593D02*
X0198197Y0116593D01*
X0196599Y0114994D02*
X0151815Y0114994D01*
X0151815Y0113396D02*
X0195000Y0113396D01*
X0194230Y0111797D02*
X0151815Y0111797D01*
X0151815Y0110199D02*
X0193568Y0110199D01*
X0193415Y0108600D02*
X0151815Y0108600D01*
X0151815Y0107002D02*
X0193415Y0107002D01*
X0193415Y0105403D02*
X0151815Y0105403D01*
X0151815Y0103805D02*
X0193415Y0103805D01*
X0193415Y0102206D02*
X0151815Y0102206D01*
D19*
X0142615Y0090000D02*
X0142615Y0120000D01*
X0069615Y0120000D01*
X0069615Y0165000D01*
X0079615Y0165000D02*
X0079615Y0142500D01*
X0045615Y0172500D02*
X0051115Y0178000D01*
X0145115Y0177500D01*
X0143615Y0176000D01*
X0129615Y0142500D01*
X0153615Y0195000D02*
X0124615Y0224000D01*
X0124615Y0234000D01*
X0125115Y0234500D01*
X0125115Y0250500D01*
X0125115Y0265500D01*
X0125115Y0267500D01*
X0111115Y0282000D01*
X0111115Y0290000D01*
X0121115Y0290000D02*
X0121115Y0300000D01*
X0126115Y0305000D01*
X0155615Y0305000D01*
X0172615Y0288000D01*
X0172615Y0268000D01*
X0175115Y0265500D01*
X0205615Y0265500D01*
X0203115Y0282000D02*
X0203115Y0311500D01*
X0223115Y0311500D02*
X0223115Y0236000D01*
X0220615Y0233500D01*
X0219615Y0234500D01*
X0175115Y0234500D01*
X0162615Y0234500D01*
X0147615Y0249000D01*
X0145115Y0251500D01*
X0145115Y0265000D01*
X0131115Y0279000D01*
X0131115Y0290000D01*
X0111615Y0305000D02*
X0121115Y0314500D01*
X0121115Y0320000D01*
X0131115Y0320000D02*
X0131115Y0340500D01*
X0146615Y0356000D01*
X0165615Y0356000D01*
X0167115Y0354500D01*
X0181365Y0368750D02*
X0203115Y0347000D01*
X0203115Y0341500D01*
X0233115Y0311500D02*
X0233115Y0238000D01*
X0247615Y0223500D01*
X0247615Y0195000D01*
X0237615Y0195000D02*
X0236115Y0193500D01*
X0237615Y0195000D02*
X0237615Y0216500D01*
X0220615Y0233500D01*
X0245115Y0240000D02*
X0299615Y0240000D01*
X0312615Y0253000D01*
X0323615Y0253000D01*
X0331615Y0261000D01*
X0331615Y0293500D01*
X0342115Y0304000D01*
X0364615Y0303500D01*
X0381615Y0293500D02*
X0394615Y0293500D01*
X0394615Y0303500D02*
X0401115Y0303500D01*
X0407115Y0297500D01*
X0421815Y0297500D01*
X0422915Y0297400D01*
X0390115Y0328000D02*
X0390115Y0354705D01*
X0390115Y0328000D02*
X0380115Y0318000D01*
X0380115Y0240000D01*
X0380115Y0199000D01*
X0366115Y0184500D01*
X0230115Y0184500D01*
X0227615Y0187000D01*
X0227615Y0195000D01*
X0212615Y0195000D01*
X0213115Y0195500D01*
X0212615Y0195000D02*
X0153615Y0195000D01*
X0215115Y0120500D02*
X0202615Y0108000D01*
X0202615Y0090000D01*
X0212615Y0090000D02*
X0212615Y0099000D01*
X0224615Y0111000D01*
X0224615Y0142500D01*
X0237615Y0155500D01*
X0237615Y0165000D01*
X0247615Y0165000D02*
X0247615Y0135000D01*
X0257615Y0141500D02*
X0295115Y0104000D01*
X0295115Y0083500D01*
X0289615Y0078000D01*
X0270115Y0078000D01*
X0242615Y0050500D01*
X0242615Y0030000D01*
X0242115Y0030500D01*
X0242115Y0056000D01*
X0239115Y0053000D01*
X0076115Y0053000D01*
X0069615Y0059500D01*
X0045615Y0172500D01*
X0069115Y0195000D02*
X0069115Y0261205D01*
X0079615Y0305000D02*
X0111615Y0305000D01*
X0140115Y0317500D02*
X0140115Y0319000D01*
X0141115Y0320000D01*
X0141115Y0318500D01*
X0140115Y0317500D01*
X0141115Y0320000D02*
X0141115Y0326500D01*
X0146615Y0332000D01*
X0164115Y0332000D01*
X0287115Y0332500D01*
X0254115Y0321000D02*
X0281615Y0293500D01*
X0254115Y0321000D02*
X0152115Y0321000D01*
X0151115Y0320000D01*
X0109115Y0355500D02*
X0131615Y0377500D01*
X0131615Y0389000D01*
X0131115Y0389500D01*
X0141115Y0389500D02*
X0141615Y0389500D01*
X0142615Y0388500D01*
X0142615Y0385000D01*
X0148615Y0379000D01*
X0260115Y0379000D01*
X0267115Y0386000D01*
X0267115Y0393500D01*
X0267615Y0393000D02*
X0336615Y0393000D01*
X0345115Y0384500D01*
X0424115Y0384500D01*
X0445615Y0406000D01*
X0445615Y0454000D01*
X0444730Y0454886D01*
X0421115Y0454886D01*
X0371115Y0474500D02*
X0332615Y0474500D01*
X0262615Y0404000D01*
X0243115Y0404000D01*
X0236615Y0397500D01*
X0236615Y0392000D01*
X0237115Y0391500D01*
X0210115Y0428500D02*
X0200115Y0438500D01*
X0145615Y0438500D01*
X0131115Y0424000D01*
X0131115Y0419500D01*
X0141115Y0419500D02*
X0152115Y0419500D01*
X0167115Y0404500D01*
X0142115Y0447500D02*
X0169115Y0474500D01*
X0187115Y0474500D01*
X0215115Y0474500D01*
X0214917Y0484301D02*
X0215115Y0484500D01*
X0214917Y0484301D02*
X0183814Y0484301D01*
X0111115Y0389500D02*
X0095615Y0389500D01*
X0055115Y0349000D01*
X0055115Y0318500D01*
X0035115Y0318500D02*
X0031115Y0323500D01*
X0031115Y0338500D01*
X0079615Y0355000D02*
X0109115Y0355500D01*
X0231115Y0176500D02*
X0227615Y0173000D01*
X0227615Y0165000D01*
X0231115Y0176500D02*
X0296615Y0176500D01*
X0313615Y0160500D01*
X0313615Y0014500D01*
X0222615Y0013500D01*
X0222615Y0030000D01*
X0242615Y0030000D02*
X0242615Y0029000D01*
X0340615Y0228000D02*
X0340615Y0246500D01*
X0350115Y0256000D01*
X0350115Y0278000D01*
X0355615Y0283500D01*
X0364615Y0283500D01*
X0380115Y0240000D02*
X0415115Y0240000D01*
D20*
X0390115Y0355000D03*
X0247615Y0223500D03*
X0245115Y0240000D03*
X0205615Y0265500D03*
X0203115Y0282000D03*
X0181365Y0368750D03*
X0187115Y0474500D03*
X0183814Y0484301D03*
X0247615Y0135000D03*
X0215115Y0120500D03*
D21*
X0267615Y0393000D02*
X0267115Y0393500D01*
X0237115Y0423500D02*
X0238115Y0427000D01*
X0238115Y0484500D01*
X0215115Y0484500D01*
X0215115Y0494500D02*
X0213115Y0496500D01*
X0147115Y0496500D01*
X0138320Y0505295D01*
X0138320Y0537000D01*
X0153911Y0537000D02*
X0153911Y0511705D01*
X0155115Y0510500D01*
X0232115Y0510500D01*
X0247115Y0495500D01*
X0373115Y0495500D01*
X0371115Y0484500D02*
X0386615Y0484500D01*
X0386615Y0438500D01*
X0386115Y0438000D01*
X0386115Y0422000D01*
X0400115Y0408000D01*
X0400230Y0408114D01*
X0421115Y0408114D01*
X0371115Y0484500D02*
X0238115Y0484500D01*
X0111115Y0484000D01*
X0111615Y0484500D01*
X0111615Y0420000D01*
X0111115Y0419500D01*
X0111115Y0484000D02*
X0083615Y0484000D01*
X0080615Y0483500D01*
X0080615Y0483591D02*
X0080615Y0484000D01*
X0083615Y0484000D01*
X0083615Y0494000D02*
X0108615Y0494000D01*
X0123115Y0508500D01*
X0123115Y0536614D01*
X0122730Y0537000D01*
M02*
