G75*
%MOIN*%
%OFA0B0*%
%FSLAX25Y25*%
%IPPOS*%
%LPD*%
%AMOC8*
5,1,8,0,0,1.08239X$1,22.5*
%
%ADD10C,0.00500*%
%ADD11C,0.00400*%
%ADD12C,0.00600*%
%ADD13C,0.00200*%
%ADD14C,0.01200*%
%ADD15R,0.07500X0.03500*%
%ADD16R,0.05500X0.03000*%
%ADD17C,0.00800*%
%ADD18C,0.02400*%
%ADD19R,0.03400X0.02400*%
%ADD20R,0.02400X0.03400*%
%ADD21R,0.03000X0.42000*%
%ADD22R,0.02000X0.07500*%
%ADD23R,0.02000X0.03000*%
%ADD24R,0.03000X0.03400*%
D10*
X0094315Y0045900D02*
X0094315Y0073700D01*
X0114315Y0073700D01*
X0114315Y0045900D01*
X0094315Y0045900D01*
X0095865Y0140050D02*
X0098868Y0140050D01*
X0097367Y0140050D02*
X0097367Y0144554D01*
X0095865Y0143053D01*
X0100469Y0143803D02*
X0100469Y0140801D01*
X0103472Y0143803D01*
X0103472Y0140801D01*
X0102721Y0140050D01*
X0101220Y0140050D01*
X0100469Y0140801D01*
X0100469Y0143803D02*
X0101220Y0144554D01*
X0102721Y0144554D01*
X0103472Y0143803D01*
X0105073Y0143803D02*
X0105073Y0140801D01*
X0108076Y0143803D01*
X0108076Y0140801D01*
X0107325Y0140050D01*
X0105824Y0140050D01*
X0105073Y0140801D01*
X0105073Y0143803D02*
X0105824Y0144554D01*
X0107325Y0144554D01*
X0108076Y0143803D01*
X0103825Y0148250D02*
X0102324Y0148250D01*
X0101573Y0149001D01*
X0101573Y0149751D01*
X0102324Y0150502D01*
X0103825Y0150502D01*
X0104576Y0149751D01*
X0104576Y0149001D01*
X0103825Y0148250D01*
X0103825Y0150502D02*
X0104576Y0151253D01*
X0104576Y0152003D01*
X0103825Y0152754D01*
X0102324Y0152754D01*
X0101573Y0152003D01*
X0101573Y0151253D01*
X0102324Y0150502D01*
X0099972Y0148250D02*
X0096969Y0148250D01*
X0098471Y0148250D02*
X0098471Y0152754D01*
X0096969Y0151253D01*
X0095368Y0152003D02*
X0095368Y0150502D01*
X0094617Y0149751D01*
X0092365Y0149751D01*
X0092365Y0148250D02*
X0092365Y0152754D01*
X0094617Y0152754D01*
X0095368Y0152003D01*
X0093867Y0149751D02*
X0095368Y0148250D01*
X0090784Y0177750D02*
X0087781Y0177750D01*
X0089282Y0177750D02*
X0089282Y0182254D01*
X0087781Y0180753D01*
X0086180Y0182254D02*
X0083177Y0182254D01*
X0083177Y0177750D01*
X0081576Y0177750D02*
X0078573Y0177750D01*
X0080074Y0177750D02*
X0080074Y0182254D01*
X0078573Y0180753D01*
X0076972Y0177750D02*
X0073969Y0177750D01*
X0075471Y0177750D02*
X0075471Y0182254D01*
X0073969Y0180753D01*
X0072368Y0180002D02*
X0069365Y0180002D01*
X0069365Y0177750D02*
X0069365Y0182254D01*
X0072368Y0182254D02*
X0072368Y0177750D01*
X0062865Y0178458D02*
X0059863Y0181460D01*
X0059112Y0181460D01*
X0058362Y0180710D01*
X0058362Y0179208D01*
X0059112Y0178458D01*
X0058362Y0176856D02*
X0061364Y0173854D01*
X0060613Y0174605D02*
X0062865Y0176856D01*
X0062865Y0178458D02*
X0062865Y0181460D01*
X0062865Y0173854D02*
X0058362Y0173854D01*
X0059112Y0172253D02*
X0058362Y0171502D01*
X0058362Y0170001D01*
X0059112Y0169250D01*
X0062115Y0169250D01*
X0062865Y0170001D01*
X0062865Y0171502D01*
X0062115Y0172253D01*
X0059112Y0172253D01*
X0083177Y0180002D02*
X0084678Y0180002D01*
X0115408Y0240250D02*
X0116909Y0240250D01*
X0117660Y0241001D01*
X0119261Y0240250D02*
X0122264Y0240250D01*
X0120763Y0240250D02*
X0120763Y0244754D01*
X0119261Y0243253D01*
X0117660Y0244003D02*
X0116909Y0244754D01*
X0115408Y0244754D01*
X0114657Y0244003D01*
X0114657Y0241001D01*
X0115408Y0240250D01*
X0115408Y0256250D02*
X0114657Y0257001D01*
X0117660Y0260003D01*
X0117660Y0257001D01*
X0116909Y0256250D01*
X0115408Y0256250D01*
X0114657Y0257001D02*
X0114657Y0260003D01*
X0115408Y0260754D01*
X0116909Y0260754D01*
X0117660Y0260003D01*
X0119261Y0259253D02*
X0121513Y0259253D01*
X0122264Y0258502D01*
X0122264Y0256250D01*
X0119261Y0256250D02*
X0119261Y0259253D01*
X0113056Y0256250D02*
X0110054Y0256250D01*
X0111555Y0256250D02*
X0111555Y0260754D01*
X0110054Y0259253D01*
X0104115Y0293750D02*
X0100362Y0293750D01*
X0100362Y0296753D02*
X0104115Y0296753D01*
X0104865Y0296002D01*
X0104865Y0294501D01*
X0104115Y0293750D01*
X0104115Y0298354D02*
X0104865Y0299105D01*
X0104865Y0300606D01*
X0104115Y0301356D01*
X0103364Y0301356D01*
X0102613Y0300606D01*
X0102613Y0299105D01*
X0101863Y0298354D01*
X0101112Y0298354D01*
X0100362Y0299105D01*
X0100362Y0300606D01*
X0101112Y0301356D01*
X0101112Y0302958D02*
X0100362Y0303708D01*
X0100362Y0305210D01*
X0101112Y0305960D01*
X0101863Y0305960D01*
X0104865Y0302958D01*
X0104865Y0305960D01*
X0105616Y0299855D02*
X0099611Y0299855D01*
X0111865Y0302750D02*
X0111865Y0307254D01*
X0113367Y0305753D01*
X0114868Y0307254D01*
X0114868Y0302750D01*
X0116469Y0303501D02*
X0117220Y0302750D01*
X0118721Y0302750D01*
X0119472Y0303501D01*
X0121073Y0304251D02*
X0123325Y0304251D01*
X0124076Y0305002D01*
X0124076Y0306503D01*
X0123325Y0307254D01*
X0121073Y0307254D01*
X0121073Y0302750D01*
X0119472Y0306503D02*
X0118721Y0307254D01*
X0117220Y0307254D01*
X0116469Y0306503D01*
X0116469Y0303501D01*
X0125677Y0305002D02*
X0128680Y0305002D01*
X0130281Y0303501D02*
X0130281Y0302750D01*
X0130281Y0303501D02*
X0133284Y0306503D01*
X0133284Y0307254D01*
X0130281Y0307254D01*
X0127929Y0307254D02*
X0125677Y0305002D01*
X0127929Y0302750D02*
X0127929Y0307254D01*
X0134885Y0306503D02*
X0135636Y0307254D01*
X0137137Y0307254D01*
X0137888Y0306503D01*
X0137888Y0305753D01*
X0134885Y0302750D01*
X0137888Y0302750D01*
X0139489Y0303501D02*
X0139489Y0304251D01*
X0140240Y0305002D01*
X0141741Y0305002D01*
X0142491Y0304251D01*
X0142491Y0303501D01*
X0141741Y0302750D01*
X0140240Y0302750D01*
X0139489Y0303501D01*
X0140240Y0305002D02*
X0139489Y0305753D01*
X0139489Y0306503D01*
X0140240Y0307254D01*
X0141741Y0307254D01*
X0142491Y0306503D01*
X0142491Y0305753D01*
X0141741Y0305002D01*
X0144093Y0307254D02*
X0144093Y0302750D01*
X0146345Y0302750D01*
X0147095Y0303501D01*
X0147095Y0306503D01*
X0146345Y0307254D01*
X0144093Y0307254D01*
X0148697Y0307254D02*
X0150198Y0307254D01*
X0149447Y0307254D02*
X0149447Y0302750D01*
X0148697Y0302750D02*
X0150198Y0302750D01*
X0151766Y0302750D02*
X0151766Y0307254D01*
X0151766Y0302750D02*
X0154769Y0302750D01*
X0155529Y0267954D02*
X0155529Y0263450D01*
X0155529Y0264951D02*
X0157781Y0266453D01*
X0155529Y0264951D02*
X0157781Y0263450D01*
X0159012Y0259754D02*
X0158261Y0259003D01*
X0159012Y0259754D02*
X0160513Y0259754D01*
X0161264Y0259003D01*
X0161264Y0258253D01*
X0158261Y0255250D01*
X0161264Y0255250D01*
X0156660Y0255250D02*
X0155159Y0256751D01*
X0155909Y0256751D02*
X0153657Y0256751D01*
X0153657Y0255250D02*
X0153657Y0259754D01*
X0155909Y0259754D01*
X0156660Y0259003D01*
X0156660Y0257502D01*
X0155909Y0256751D01*
X0153177Y0263450D02*
X0151675Y0263450D01*
X0150925Y0264201D01*
X0150925Y0265702D02*
X0152426Y0266453D01*
X0153177Y0266453D01*
X0153927Y0265702D01*
X0153927Y0264201D01*
X0153177Y0263450D01*
X0150925Y0265702D02*
X0150925Y0267954D01*
X0153927Y0267954D01*
X0149373Y0264201D02*
X0149373Y0263450D01*
X0148623Y0263450D01*
X0148623Y0264201D01*
X0149373Y0264201D01*
X0147021Y0263450D02*
X0144019Y0263450D01*
X0145520Y0263450D02*
X0145520Y0267954D01*
X0144019Y0266453D01*
X0145520Y0236954D02*
X0145520Y0232450D01*
X0144019Y0232450D02*
X0147021Y0232450D01*
X0148623Y0232450D02*
X0149373Y0232450D01*
X0149373Y0233201D01*
X0148623Y0233201D01*
X0148623Y0232450D01*
X0150925Y0233201D02*
X0151675Y0232450D01*
X0153177Y0232450D01*
X0153927Y0233201D01*
X0153927Y0234702D01*
X0153177Y0235453D01*
X0152426Y0235453D01*
X0150925Y0234702D01*
X0150925Y0236954D01*
X0153927Y0236954D01*
X0155529Y0236954D02*
X0155529Y0232450D01*
X0155529Y0233951D02*
X0157781Y0232450D01*
X0155529Y0233951D02*
X0157781Y0235453D01*
X0155909Y0228754D02*
X0153657Y0228754D01*
X0153657Y0224250D01*
X0153657Y0225751D02*
X0155909Y0225751D01*
X0156660Y0226502D01*
X0156660Y0228003D01*
X0155909Y0228754D01*
X0158261Y0227253D02*
X0159763Y0228754D01*
X0159763Y0224250D01*
X0161264Y0224250D02*
X0158261Y0224250D01*
X0156660Y0224250D02*
X0155159Y0225751D01*
X0144019Y0235453D02*
X0145520Y0236954D01*
X0082065Y0321250D02*
X0082065Y0324253D01*
X0082065Y0322751D02*
X0077562Y0322751D01*
X0079063Y0321250D01*
X0078312Y0325854D02*
X0077562Y0326605D01*
X0077562Y0328106D01*
X0078312Y0328856D01*
X0081315Y0325854D01*
X0082065Y0326605D01*
X0082065Y0328106D01*
X0081315Y0328856D01*
X0078312Y0328856D01*
X0077562Y0330458D02*
X0082065Y0330458D01*
X0080564Y0330458D02*
X0079063Y0332710D01*
X0080564Y0330458D02*
X0082065Y0332710D01*
X0081315Y0325854D02*
X0078312Y0325854D01*
X0073865Y0325356D02*
X0073865Y0322354D01*
X0073865Y0323855D02*
X0069362Y0323855D01*
X0070863Y0322354D01*
X0071613Y0320753D02*
X0072364Y0320002D01*
X0072364Y0317750D01*
X0072364Y0319251D02*
X0073865Y0320753D01*
X0071613Y0320753D02*
X0070112Y0320753D01*
X0069362Y0320002D01*
X0069362Y0317750D01*
X0073865Y0317750D01*
X0073115Y0326958D02*
X0070112Y0326958D01*
X0069362Y0327708D01*
X0069362Y0329210D01*
X0070112Y0329960D01*
X0073115Y0326958D01*
X0073865Y0327708D01*
X0073865Y0329210D01*
X0073115Y0329960D01*
X0070112Y0329960D01*
X0049076Y0310502D02*
X0049076Y0308250D01*
X0049076Y0310502D02*
X0048325Y0311253D01*
X0046073Y0311253D01*
X0046073Y0308250D01*
X0044472Y0309001D02*
X0044472Y0312003D01*
X0041469Y0309001D01*
X0042220Y0308250D01*
X0043721Y0308250D01*
X0044472Y0309001D01*
X0044472Y0312003D02*
X0043721Y0312754D01*
X0042220Y0312754D01*
X0041469Y0312003D01*
X0041469Y0309001D01*
X0039868Y0308250D02*
X0036865Y0308250D01*
X0038367Y0308250D02*
X0038367Y0312754D01*
X0036865Y0311253D01*
X0037616Y0324250D02*
X0039117Y0324250D01*
X0039868Y0325001D01*
X0041469Y0325001D02*
X0042220Y0324250D01*
X0043721Y0324250D01*
X0044472Y0325001D01*
X0044472Y0325751D01*
X0043721Y0326502D01*
X0042971Y0326502D01*
X0043721Y0326502D02*
X0044472Y0327253D01*
X0044472Y0328003D01*
X0043721Y0328754D01*
X0042220Y0328754D01*
X0041469Y0328003D01*
X0039868Y0328003D02*
X0039117Y0328754D01*
X0037616Y0328754D01*
X0036865Y0328003D01*
X0036865Y0325001D01*
X0037616Y0324250D01*
X0033165Y0359706D02*
X0033165Y0362708D01*
X0033165Y0361207D02*
X0028662Y0361207D01*
X0030163Y0359706D01*
X0029412Y0364309D02*
X0028662Y0365060D01*
X0028662Y0366561D01*
X0029412Y0367312D01*
X0032415Y0364309D01*
X0033165Y0365060D01*
X0033165Y0366561D01*
X0032415Y0367312D01*
X0029412Y0367312D01*
X0028662Y0368913D02*
X0033165Y0368913D01*
X0031664Y0368913D02*
X0033165Y0371165D01*
X0031664Y0368913D02*
X0030163Y0371165D01*
X0029412Y0364309D02*
X0032415Y0364309D01*
X0036862Y0367042D02*
X0036862Y0369294D01*
X0037612Y0370045D01*
X0039113Y0370045D01*
X0039864Y0369294D01*
X0039864Y0367042D01*
X0041365Y0367042D02*
X0036862Y0367042D01*
X0039864Y0368543D02*
X0041365Y0370045D01*
X0040615Y0371646D02*
X0041365Y0372397D01*
X0041365Y0373898D01*
X0040615Y0374649D01*
X0039864Y0374649D01*
X0039113Y0373898D01*
X0039113Y0373147D01*
X0039113Y0373898D02*
X0038363Y0374649D01*
X0037612Y0374649D01*
X0036862Y0373898D01*
X0036862Y0372397D01*
X0037612Y0371646D01*
X0100362Y0393250D02*
X0100362Y0394751D01*
X0100362Y0394001D02*
X0104865Y0394001D01*
X0104865Y0394751D02*
X0104865Y0393250D01*
X0104115Y0396319D02*
X0104865Y0397070D01*
X0104865Y0398571D01*
X0104115Y0399322D01*
X0104865Y0400923D02*
X0101863Y0403926D01*
X0101112Y0403926D01*
X0100362Y0403175D01*
X0100362Y0401674D01*
X0101112Y0400923D01*
X0101112Y0399322D02*
X0100362Y0398571D01*
X0100362Y0397070D01*
X0101112Y0396319D01*
X0104115Y0396319D01*
X0104865Y0400923D02*
X0104865Y0403926D01*
X0112365Y0402250D02*
X0115368Y0402250D01*
X0112365Y0402250D02*
X0112365Y0406754D01*
X0116969Y0406754D02*
X0119972Y0406754D01*
X0118471Y0406754D02*
X0118471Y0402250D01*
X0121573Y0402250D02*
X0124576Y0402250D01*
X0123074Y0402250D02*
X0123074Y0406754D01*
X0121573Y0405253D01*
X0126177Y0406003D02*
X0126928Y0406754D01*
X0128429Y0406754D01*
X0129180Y0406003D01*
X0129180Y0405253D01*
X0128429Y0404502D01*
X0129180Y0403751D01*
X0129180Y0403001D01*
X0128429Y0402250D01*
X0126928Y0402250D01*
X0126177Y0403001D01*
X0127678Y0404502D02*
X0128429Y0404502D01*
X0130781Y0404502D02*
X0132282Y0405253D01*
X0133033Y0405253D01*
X0133784Y0404502D01*
X0133784Y0403001D01*
X0133033Y0402250D01*
X0131532Y0402250D01*
X0130781Y0403001D01*
X0130781Y0404502D02*
X0130781Y0406754D01*
X0133784Y0406754D01*
X0135385Y0406003D02*
X0136136Y0406754D01*
X0137637Y0406754D01*
X0138388Y0406003D01*
X0138388Y0405253D01*
X0135385Y0402250D01*
X0138388Y0402250D01*
X0139989Y0402250D02*
X0139989Y0406754D01*
X0142241Y0406754D01*
X0142991Y0406003D01*
X0142991Y0404502D01*
X0142241Y0403751D01*
X0139989Y0403751D01*
X0144593Y0404502D02*
X0147595Y0404502D01*
X0147595Y0405253D02*
X0147595Y0402250D01*
X0144593Y0402250D02*
X0144593Y0405253D01*
X0146094Y0406754D01*
X0147595Y0405253D01*
X0166563Y0382210D02*
X0168064Y0379958D01*
X0169565Y0382210D01*
X0169565Y0379958D02*
X0165062Y0379958D01*
X0165812Y0378356D02*
X0168815Y0375354D01*
X0169565Y0376105D01*
X0169565Y0377606D01*
X0168815Y0378356D01*
X0165812Y0378356D01*
X0165062Y0377606D01*
X0165062Y0376105D01*
X0165812Y0375354D01*
X0168815Y0375354D01*
X0169565Y0373753D02*
X0169565Y0370750D01*
X0169565Y0372251D02*
X0165062Y0372251D01*
X0166563Y0370750D01*
X0161365Y0370253D02*
X0159864Y0368751D01*
X0159864Y0369502D02*
X0159864Y0367250D01*
X0161365Y0367250D02*
X0156862Y0367250D01*
X0156862Y0369502D01*
X0157612Y0370253D01*
X0159113Y0370253D01*
X0159864Y0369502D01*
X0158363Y0371854D02*
X0156862Y0373355D01*
X0161365Y0373355D01*
X0161365Y0371854D02*
X0161365Y0374856D01*
X0161365Y0376458D02*
X0161365Y0379460D01*
X0161365Y0377959D02*
X0156862Y0377959D01*
X0158363Y0376458D01*
X0188657Y0418250D02*
X0188657Y0422754D01*
X0190909Y0422754D01*
X0191660Y0422003D01*
X0191660Y0420502D01*
X0190909Y0419751D01*
X0188657Y0419751D01*
X0190159Y0419751D02*
X0191660Y0418250D01*
X0193261Y0420502D02*
X0196264Y0420502D01*
X0195513Y0418250D02*
X0195513Y0422754D01*
X0193261Y0420502D01*
X0192781Y0426450D02*
X0190529Y0427951D01*
X0192781Y0429453D01*
X0190529Y0430954D02*
X0190529Y0426450D01*
X0188927Y0427201D02*
X0188177Y0426450D01*
X0186675Y0426450D01*
X0185925Y0427201D01*
X0188927Y0430203D01*
X0188927Y0427201D01*
X0188927Y0430203D02*
X0188177Y0430954D01*
X0186675Y0430954D01*
X0185925Y0430203D01*
X0185925Y0427201D01*
X0184323Y0426450D02*
X0181321Y0426450D01*
X0182822Y0426450D02*
X0182822Y0430954D01*
X0181321Y0429453D01*
X0159264Y0438001D02*
X0158513Y0437250D01*
X0157012Y0437250D01*
X0156261Y0438001D01*
X0156261Y0439502D02*
X0157763Y0440253D01*
X0158513Y0440253D01*
X0159264Y0439502D01*
X0159264Y0438001D01*
X0156261Y0439502D02*
X0156261Y0441754D01*
X0159264Y0441754D01*
X0154660Y0441003D02*
X0153909Y0441754D01*
X0152408Y0441754D01*
X0151657Y0441003D01*
X0151657Y0438001D01*
X0152408Y0437250D01*
X0153909Y0437250D01*
X0154660Y0438001D01*
X0153909Y0453250D02*
X0152408Y0453250D01*
X0151657Y0454001D01*
X0154660Y0457003D01*
X0154660Y0454001D01*
X0153909Y0453250D01*
X0156261Y0453250D02*
X0156261Y0456253D01*
X0158513Y0456253D01*
X0159264Y0455502D01*
X0159264Y0453250D01*
X0154660Y0457003D02*
X0153909Y0457754D01*
X0152408Y0457754D01*
X0151657Y0457003D01*
X0151657Y0454001D01*
X0150056Y0453250D02*
X0147054Y0453250D01*
X0148555Y0453250D02*
X0148555Y0457754D01*
X0147054Y0456253D01*
X0103365Y0465751D02*
X0098862Y0465751D01*
X0098862Y0464250D02*
X0098862Y0467253D01*
X0098862Y0468854D02*
X0098862Y0470355D01*
X0098862Y0469605D02*
X0103365Y0469605D01*
X0103365Y0470355D02*
X0103365Y0468854D01*
X0103365Y0471923D02*
X0098862Y0471923D01*
X0098862Y0474175D01*
X0099612Y0474926D01*
X0101113Y0474926D01*
X0101864Y0474175D01*
X0101864Y0471923D01*
X0097165Y0471856D02*
X0097165Y0468854D01*
X0097165Y0470355D02*
X0092662Y0470355D01*
X0094163Y0468854D01*
X0093412Y0467253D02*
X0096415Y0467253D01*
X0097165Y0466502D01*
X0097165Y0465001D01*
X0096415Y0464250D01*
X0093412Y0464250D01*
X0092662Y0465001D01*
X0092662Y0466502D01*
X0093412Y0467253D01*
X0095664Y0465751D02*
X0097165Y0467253D01*
X0090615Y0465500D02*
X0089615Y0464500D01*
X0078115Y0464000D01*
X0087215Y0466300D02*
X0087217Y0466363D01*
X0087223Y0466425D01*
X0087233Y0466487D01*
X0087246Y0466549D01*
X0087264Y0466609D01*
X0087285Y0466668D01*
X0087310Y0466726D01*
X0087339Y0466782D01*
X0087371Y0466836D01*
X0087406Y0466888D01*
X0087444Y0466937D01*
X0087486Y0466985D01*
X0087530Y0467029D01*
X0087578Y0467071D01*
X0087627Y0467109D01*
X0087679Y0467144D01*
X0087733Y0467176D01*
X0087789Y0467205D01*
X0087847Y0467230D01*
X0087906Y0467251D01*
X0087966Y0467269D01*
X0088028Y0467282D01*
X0088090Y0467292D01*
X0088152Y0467298D01*
X0088215Y0467300D01*
X0088278Y0467298D01*
X0088340Y0467292D01*
X0088402Y0467282D01*
X0088464Y0467269D01*
X0088524Y0467251D01*
X0088583Y0467230D01*
X0088641Y0467205D01*
X0088697Y0467176D01*
X0088751Y0467144D01*
X0088803Y0467109D01*
X0088852Y0467071D01*
X0088900Y0467029D01*
X0088944Y0466985D01*
X0088986Y0466937D01*
X0089024Y0466888D01*
X0089059Y0466836D01*
X0089091Y0466782D01*
X0089120Y0466726D01*
X0089145Y0466668D01*
X0089166Y0466609D01*
X0089184Y0466549D01*
X0089197Y0466487D01*
X0089207Y0466425D01*
X0089213Y0466363D01*
X0089215Y0466300D01*
X0089213Y0466237D01*
X0089207Y0466175D01*
X0089197Y0466113D01*
X0089184Y0466051D01*
X0089166Y0465991D01*
X0089145Y0465932D01*
X0089120Y0465874D01*
X0089091Y0465818D01*
X0089059Y0465764D01*
X0089024Y0465712D01*
X0088986Y0465663D01*
X0088944Y0465615D01*
X0088900Y0465571D01*
X0088852Y0465529D01*
X0088803Y0465491D01*
X0088751Y0465456D01*
X0088697Y0465424D01*
X0088641Y0465395D01*
X0088583Y0465370D01*
X0088524Y0465349D01*
X0088464Y0465331D01*
X0088402Y0465318D01*
X0088340Y0465308D01*
X0088278Y0465302D01*
X0088215Y0465300D01*
X0088152Y0465302D01*
X0088090Y0465308D01*
X0088028Y0465318D01*
X0087966Y0465331D01*
X0087906Y0465349D01*
X0087847Y0465370D01*
X0087789Y0465395D01*
X0087733Y0465424D01*
X0087679Y0465456D01*
X0087627Y0465491D01*
X0087578Y0465529D01*
X0087530Y0465571D01*
X0087486Y0465615D01*
X0087444Y0465663D01*
X0087406Y0465712D01*
X0087371Y0465764D01*
X0087339Y0465818D01*
X0087310Y0465874D01*
X0087285Y0465932D01*
X0087264Y0465991D01*
X0087246Y0466051D01*
X0087233Y0466113D01*
X0087223Y0466175D01*
X0087217Y0466237D01*
X0087215Y0466300D01*
X0090615Y0465500D02*
X0090615Y0502500D01*
X0089615Y0503500D01*
X0078115Y0504000D01*
X0098862Y0493341D02*
X0101864Y0493341D01*
X0103365Y0491840D01*
X0101864Y0490339D01*
X0098862Y0490339D01*
X0099612Y0488738D02*
X0098862Y0487987D01*
X0098862Y0486486D01*
X0099612Y0485735D01*
X0099612Y0484134D02*
X0098862Y0483383D01*
X0098862Y0481882D01*
X0099612Y0481131D01*
X0099612Y0484134D02*
X0100363Y0484134D01*
X0103365Y0481131D01*
X0103365Y0484134D01*
X0103365Y0485735D02*
X0100363Y0488738D01*
X0099612Y0488738D01*
X0103365Y0488738D02*
X0103365Y0485735D01*
X0103365Y0479530D02*
X0103365Y0476527D01*
X0103365Y0478028D02*
X0098862Y0478028D01*
X0100363Y0476527D01*
X0209615Y0464500D02*
X0221115Y0465000D01*
X0222115Y0466000D01*
X0222115Y0503000D01*
X0221115Y0504000D01*
X0209615Y0504500D01*
X0230362Y0493841D02*
X0233364Y0493841D01*
X0234865Y0492340D01*
X0233364Y0490839D01*
X0230362Y0490839D01*
X0231112Y0489238D02*
X0230362Y0488487D01*
X0230362Y0486986D01*
X0231112Y0486235D01*
X0231112Y0484634D02*
X0230362Y0483883D01*
X0230362Y0482382D01*
X0231112Y0481631D01*
X0231112Y0484634D02*
X0231863Y0484634D01*
X0234865Y0481631D01*
X0234865Y0484634D01*
X0234865Y0486235D02*
X0231863Y0489238D01*
X0231112Y0489238D01*
X0234865Y0489238D02*
X0234865Y0486235D01*
X0234865Y0480030D02*
X0234865Y0477027D01*
X0234865Y0478528D02*
X0230362Y0478528D01*
X0231863Y0477027D01*
X0232613Y0475426D02*
X0233364Y0474675D01*
X0233364Y0472423D01*
X0234865Y0472423D02*
X0230362Y0472423D01*
X0230362Y0474675D01*
X0231112Y0475426D01*
X0232613Y0475426D01*
X0228665Y0472356D02*
X0228665Y0469354D01*
X0225663Y0472356D01*
X0224912Y0472356D01*
X0224162Y0471606D01*
X0224162Y0470105D01*
X0224912Y0469354D01*
X0224912Y0467753D02*
X0227915Y0467753D01*
X0228665Y0467002D01*
X0228665Y0465501D01*
X0227915Y0464750D01*
X0224912Y0464750D01*
X0224162Y0465501D01*
X0224162Y0467002D01*
X0224912Y0467753D01*
X0227164Y0466251D02*
X0228665Y0467753D01*
X0230362Y0467753D02*
X0230362Y0464750D01*
X0230362Y0466251D02*
X0234865Y0466251D01*
X0234865Y0469354D02*
X0234865Y0470855D01*
X0234865Y0470105D02*
X0230362Y0470105D01*
X0230362Y0470855D02*
X0230362Y0469354D01*
X0218715Y0466800D02*
X0218717Y0466863D01*
X0218723Y0466925D01*
X0218733Y0466987D01*
X0218746Y0467049D01*
X0218764Y0467109D01*
X0218785Y0467168D01*
X0218810Y0467226D01*
X0218839Y0467282D01*
X0218871Y0467336D01*
X0218906Y0467388D01*
X0218944Y0467437D01*
X0218986Y0467485D01*
X0219030Y0467529D01*
X0219078Y0467571D01*
X0219127Y0467609D01*
X0219179Y0467644D01*
X0219233Y0467676D01*
X0219289Y0467705D01*
X0219347Y0467730D01*
X0219406Y0467751D01*
X0219466Y0467769D01*
X0219528Y0467782D01*
X0219590Y0467792D01*
X0219652Y0467798D01*
X0219715Y0467800D01*
X0219778Y0467798D01*
X0219840Y0467792D01*
X0219902Y0467782D01*
X0219964Y0467769D01*
X0220024Y0467751D01*
X0220083Y0467730D01*
X0220141Y0467705D01*
X0220197Y0467676D01*
X0220251Y0467644D01*
X0220303Y0467609D01*
X0220352Y0467571D01*
X0220400Y0467529D01*
X0220444Y0467485D01*
X0220486Y0467437D01*
X0220524Y0467388D01*
X0220559Y0467336D01*
X0220591Y0467282D01*
X0220620Y0467226D01*
X0220645Y0467168D01*
X0220666Y0467109D01*
X0220684Y0467049D01*
X0220697Y0466987D01*
X0220707Y0466925D01*
X0220713Y0466863D01*
X0220715Y0466800D01*
X0220713Y0466737D01*
X0220707Y0466675D01*
X0220697Y0466613D01*
X0220684Y0466551D01*
X0220666Y0466491D01*
X0220645Y0466432D01*
X0220620Y0466374D01*
X0220591Y0466318D01*
X0220559Y0466264D01*
X0220524Y0466212D01*
X0220486Y0466163D01*
X0220444Y0466115D01*
X0220400Y0466071D01*
X0220352Y0466029D01*
X0220303Y0465991D01*
X0220251Y0465956D01*
X0220197Y0465924D01*
X0220141Y0465895D01*
X0220083Y0465870D01*
X0220024Y0465849D01*
X0219964Y0465831D01*
X0219902Y0465818D01*
X0219840Y0465808D01*
X0219778Y0465802D01*
X0219715Y0465800D01*
X0219652Y0465802D01*
X0219590Y0465808D01*
X0219528Y0465818D01*
X0219466Y0465831D01*
X0219406Y0465849D01*
X0219347Y0465870D01*
X0219289Y0465895D01*
X0219233Y0465924D01*
X0219179Y0465956D01*
X0219127Y0465991D01*
X0219078Y0466029D01*
X0219030Y0466071D01*
X0218986Y0466115D01*
X0218944Y0466163D01*
X0218906Y0466212D01*
X0218871Y0466264D01*
X0218839Y0466318D01*
X0218810Y0466374D01*
X0218785Y0466432D01*
X0218764Y0466491D01*
X0218746Y0466551D01*
X0218733Y0466613D01*
X0218723Y0466675D01*
X0218717Y0466737D01*
X0218715Y0466800D01*
X0244821Y0446203D02*
X0245572Y0446954D01*
X0247073Y0446954D01*
X0247823Y0446203D01*
X0247823Y0445453D01*
X0244821Y0442450D01*
X0247823Y0442450D01*
X0249425Y0443201D02*
X0252427Y0446203D01*
X0252427Y0443201D01*
X0251677Y0442450D01*
X0250175Y0442450D01*
X0249425Y0443201D01*
X0249425Y0446203D01*
X0250175Y0446954D01*
X0251677Y0446954D01*
X0252427Y0446203D01*
X0254029Y0446954D02*
X0254029Y0442450D01*
X0254029Y0443951D02*
X0256281Y0445453D01*
X0254029Y0443951D02*
X0256281Y0442450D01*
X0257512Y0438754D02*
X0259013Y0438754D01*
X0259764Y0438003D01*
X0259764Y0437253D01*
X0259013Y0436502D01*
X0257512Y0436502D01*
X0256761Y0437253D01*
X0256761Y0438003D01*
X0257512Y0438754D01*
X0257512Y0436502D02*
X0256761Y0435751D01*
X0256761Y0435001D01*
X0257512Y0434250D01*
X0259013Y0434250D01*
X0259764Y0435001D01*
X0259764Y0435751D01*
X0259013Y0436502D01*
X0255160Y0436502D02*
X0255160Y0438003D01*
X0254409Y0438754D01*
X0252157Y0438754D01*
X0252157Y0434250D01*
X0252157Y0435751D02*
X0254409Y0435751D01*
X0255160Y0436502D01*
X0253659Y0435751D02*
X0255160Y0434250D01*
X0254429Y0410754D02*
X0255180Y0410003D01*
X0255180Y0409253D01*
X0254429Y0408502D01*
X0255180Y0407751D01*
X0255180Y0407001D01*
X0254429Y0406250D01*
X0252928Y0406250D01*
X0252177Y0407001D01*
X0250576Y0406250D02*
X0247573Y0406250D01*
X0249074Y0406250D02*
X0249074Y0410754D01*
X0247573Y0409253D01*
X0245972Y0410754D02*
X0242969Y0410754D01*
X0244471Y0410754D02*
X0244471Y0406250D01*
X0241368Y0406250D02*
X0238365Y0406250D01*
X0238365Y0410754D01*
X0230865Y0407175D02*
X0230865Y0405674D01*
X0230115Y0404923D01*
X0230115Y0403322D02*
X0230865Y0402571D01*
X0230865Y0401070D01*
X0230115Y0400319D01*
X0227112Y0400319D01*
X0226362Y0401070D01*
X0226362Y0402571D01*
X0227112Y0403322D01*
X0227112Y0404923D02*
X0226362Y0405674D01*
X0226362Y0407175D01*
X0227112Y0407926D01*
X0227863Y0407926D01*
X0228613Y0407175D01*
X0229364Y0407926D01*
X0230115Y0407926D01*
X0230865Y0407175D01*
X0228613Y0407175D02*
X0228613Y0406424D01*
X0226362Y0398751D02*
X0226362Y0397250D01*
X0226362Y0398001D02*
X0230865Y0398001D01*
X0230865Y0398751D02*
X0230865Y0397250D01*
X0242555Y0379254D02*
X0241054Y0377753D01*
X0242555Y0379254D02*
X0242555Y0374750D01*
X0241054Y0374750D02*
X0244056Y0374750D01*
X0245657Y0375501D02*
X0248660Y0378503D01*
X0248660Y0375501D01*
X0247909Y0374750D01*
X0246408Y0374750D01*
X0245657Y0375501D01*
X0245657Y0378503D01*
X0246408Y0379254D01*
X0247909Y0379254D01*
X0248660Y0378503D01*
X0250261Y0377753D02*
X0252513Y0377753D01*
X0253264Y0377002D01*
X0253264Y0374750D01*
X0250261Y0374750D02*
X0250261Y0377753D01*
X0247909Y0363254D02*
X0246408Y0363254D01*
X0245657Y0362503D01*
X0245657Y0359501D01*
X0246408Y0358750D01*
X0247909Y0358750D01*
X0248660Y0359501D01*
X0250261Y0359501D02*
X0251012Y0358750D01*
X0252513Y0358750D01*
X0253264Y0359501D01*
X0253264Y0360251D01*
X0252513Y0361002D01*
X0250261Y0361002D01*
X0250261Y0359501D01*
X0250261Y0361002D02*
X0251763Y0362503D01*
X0253264Y0363254D01*
X0248660Y0362503D02*
X0247909Y0363254D01*
X0243115Y0336649D02*
X0243865Y0335898D01*
X0243865Y0334397D01*
X0243115Y0333646D01*
X0243115Y0332045D02*
X0242364Y0332045D01*
X0241613Y0331294D01*
X0241613Y0329793D01*
X0240863Y0329042D01*
X0240112Y0329042D01*
X0239362Y0329793D01*
X0239362Y0331294D01*
X0240112Y0332045D01*
X0240112Y0333646D02*
X0239362Y0334397D01*
X0239362Y0335898D01*
X0240112Y0336649D01*
X0240863Y0336649D01*
X0241613Y0335898D01*
X0242364Y0336649D01*
X0243115Y0336649D01*
X0241613Y0335898D02*
X0241613Y0335147D01*
X0243115Y0332045D02*
X0243865Y0331294D01*
X0243865Y0329793D01*
X0243115Y0329042D01*
X0243115Y0327441D02*
X0239362Y0327441D01*
X0239362Y0324438D02*
X0243115Y0324438D01*
X0243865Y0325189D01*
X0243865Y0326690D01*
X0243115Y0327441D01*
X0244616Y0330543D02*
X0238611Y0330543D01*
X0231264Y0324250D02*
X0228261Y0324250D01*
X0228261Y0328754D01*
X0226693Y0328754D02*
X0225192Y0328754D01*
X0225943Y0328754D02*
X0225943Y0324250D01*
X0226693Y0324250D02*
X0225192Y0324250D01*
X0223591Y0325001D02*
X0223591Y0328003D01*
X0222840Y0328754D01*
X0220588Y0328754D01*
X0220588Y0324250D01*
X0222840Y0324250D01*
X0223591Y0325001D01*
X0218987Y0325001D02*
X0218236Y0324250D01*
X0216735Y0324250D01*
X0215984Y0325001D01*
X0215984Y0326502D02*
X0217485Y0327253D01*
X0218236Y0327253D01*
X0218987Y0326502D01*
X0218987Y0325001D01*
X0215984Y0326502D02*
X0215984Y0328754D01*
X0218987Y0328754D01*
X0212882Y0328754D02*
X0212882Y0324250D01*
X0214383Y0324250D02*
X0211380Y0324250D01*
X0209779Y0325001D02*
X0209028Y0324250D01*
X0207527Y0324250D01*
X0206776Y0325001D01*
X0209779Y0328003D01*
X0209779Y0325001D01*
X0211380Y0327253D02*
X0212882Y0328754D01*
X0209779Y0328003D02*
X0209028Y0328754D01*
X0207527Y0328754D01*
X0206776Y0328003D01*
X0206776Y0325001D01*
X0205175Y0324250D02*
X0202172Y0324250D01*
X0203674Y0324250D02*
X0203674Y0328754D01*
X0202172Y0327253D01*
X0200571Y0328003D02*
X0199820Y0328754D01*
X0198319Y0328754D01*
X0197569Y0328003D01*
X0197569Y0327253D01*
X0198319Y0326502D01*
X0199820Y0326502D01*
X0200571Y0325751D01*
X0200571Y0325001D01*
X0199820Y0324250D01*
X0198319Y0324250D01*
X0197569Y0325001D01*
X0195967Y0325001D02*
X0195967Y0328003D01*
X0195216Y0328754D01*
X0192965Y0328754D01*
X0192965Y0324250D01*
X0195216Y0324250D01*
X0195967Y0325001D01*
X0191363Y0324250D02*
X0191363Y0327253D01*
X0189862Y0328754D01*
X0188361Y0327253D01*
X0188361Y0324250D01*
X0188361Y0326502D02*
X0191363Y0326502D01*
X0253678Y0408502D02*
X0254429Y0408502D01*
X0254429Y0410754D02*
X0252928Y0410754D01*
X0252177Y0410003D01*
X0256781Y0410754D02*
X0256781Y0408502D01*
X0258282Y0409253D01*
X0259033Y0409253D01*
X0259784Y0408502D01*
X0259784Y0407001D01*
X0259033Y0406250D01*
X0257532Y0406250D01*
X0256781Y0407001D01*
X0256781Y0410754D02*
X0259784Y0410754D01*
X0261385Y0410003D02*
X0262136Y0410754D01*
X0263637Y0410754D01*
X0264388Y0410003D01*
X0264388Y0409253D01*
X0261385Y0406250D01*
X0264388Y0406250D01*
X0265989Y0406250D02*
X0265989Y0410754D01*
X0268241Y0410754D01*
X0268991Y0410003D01*
X0268991Y0408502D01*
X0268241Y0407751D01*
X0265989Y0407751D01*
X0270593Y0408502D02*
X0273595Y0408502D01*
X0273595Y0409253D02*
X0273595Y0406250D01*
X0270593Y0406250D02*
X0270593Y0409253D01*
X0272094Y0410754D01*
X0273595Y0409253D01*
X0305162Y0398913D02*
X0309665Y0398913D01*
X0308164Y0398913D02*
X0306663Y0401165D01*
X0308164Y0398913D02*
X0309665Y0401165D01*
X0313362Y0402397D02*
X0313362Y0403898D01*
X0314112Y0404649D01*
X0317115Y0404649D01*
X0317865Y0403898D01*
X0317865Y0402397D01*
X0317115Y0401646D01*
X0315613Y0402397D02*
X0315613Y0404649D01*
X0315613Y0402397D02*
X0314863Y0401646D01*
X0314112Y0401646D01*
X0313362Y0402397D01*
X0314112Y0400045D02*
X0315613Y0400045D01*
X0316364Y0399294D01*
X0316364Y0397042D01*
X0317865Y0397042D02*
X0313362Y0397042D01*
X0313362Y0399294D01*
X0314112Y0400045D01*
X0316364Y0398543D02*
X0317865Y0400045D01*
X0309665Y0396561D02*
X0309665Y0395060D01*
X0308915Y0394309D01*
X0305912Y0397312D01*
X0308915Y0397312D01*
X0309665Y0396561D01*
X0308915Y0394309D02*
X0305912Y0394309D01*
X0305162Y0395060D01*
X0305162Y0396561D01*
X0305912Y0397312D01*
X0309665Y0392708D02*
X0309665Y0389706D01*
X0309665Y0391207D02*
X0305162Y0391207D01*
X0306663Y0389706D01*
X0289565Y0360210D02*
X0288064Y0357958D01*
X0286563Y0360210D01*
X0285062Y0357958D02*
X0289565Y0357958D01*
X0288815Y0356356D02*
X0285812Y0356356D01*
X0288815Y0353354D01*
X0289565Y0354105D01*
X0289565Y0355606D01*
X0288815Y0356356D01*
X0288815Y0353354D02*
X0285812Y0353354D01*
X0285062Y0354105D01*
X0285062Y0355606D01*
X0285812Y0356356D01*
X0281365Y0357460D02*
X0281365Y0354458D01*
X0278363Y0357460D01*
X0277612Y0357460D01*
X0276862Y0356710D01*
X0276862Y0355208D01*
X0277612Y0354458D01*
X0276862Y0351355D02*
X0281365Y0351355D01*
X0281365Y0349854D02*
X0281365Y0352856D01*
X0278363Y0349854D02*
X0276862Y0351355D01*
X0277612Y0348253D02*
X0279113Y0348253D01*
X0279864Y0347502D01*
X0279864Y0345250D01*
X0279864Y0346751D02*
X0281365Y0348253D01*
X0281365Y0345250D02*
X0276862Y0345250D01*
X0276862Y0347502D01*
X0277612Y0348253D01*
X0285062Y0350251D02*
X0289565Y0350251D01*
X0289565Y0348750D02*
X0289565Y0351753D01*
X0286563Y0348750D02*
X0285062Y0350251D01*
X0294365Y0303754D02*
X0296617Y0303754D01*
X0297368Y0303003D01*
X0297368Y0301502D01*
X0296617Y0300751D01*
X0294365Y0300751D01*
X0294365Y0299250D02*
X0294365Y0303754D01*
X0295867Y0300751D02*
X0297368Y0299250D01*
X0298969Y0299250D02*
X0298969Y0300001D01*
X0301972Y0303003D01*
X0301972Y0303754D01*
X0298969Y0303754D01*
X0300117Y0295554D02*
X0297865Y0293302D01*
X0300868Y0293302D01*
X0302469Y0294803D02*
X0303220Y0295554D01*
X0304721Y0295554D01*
X0305472Y0294803D01*
X0302469Y0291801D01*
X0303220Y0291050D01*
X0304721Y0291050D01*
X0305472Y0291801D01*
X0305472Y0294803D01*
X0307073Y0295554D02*
X0307073Y0291050D01*
X0307073Y0292551D02*
X0309325Y0294053D01*
X0307073Y0292551D02*
X0309325Y0291050D01*
X0302469Y0291801D02*
X0302469Y0294803D01*
X0300117Y0295554D02*
X0300117Y0291050D01*
X0301972Y0284254D02*
X0300471Y0283503D01*
X0298969Y0282002D01*
X0301221Y0282002D01*
X0301972Y0281251D01*
X0301972Y0280501D01*
X0301221Y0279750D01*
X0299720Y0279750D01*
X0298969Y0280501D01*
X0298969Y0282002D01*
X0297368Y0282002D02*
X0296617Y0281251D01*
X0294365Y0281251D01*
X0294365Y0279750D02*
X0294365Y0284254D01*
X0296617Y0284254D01*
X0297368Y0283503D01*
X0297368Y0282002D01*
X0295867Y0281251D02*
X0297368Y0279750D01*
X0299367Y0276054D02*
X0299367Y0271550D01*
X0300868Y0271550D02*
X0297865Y0271550D01*
X0297865Y0274553D02*
X0299367Y0276054D01*
X0302469Y0275303D02*
X0303220Y0276054D01*
X0304721Y0276054D01*
X0305472Y0275303D01*
X0302469Y0272301D01*
X0303220Y0271550D01*
X0304721Y0271550D01*
X0305472Y0272301D01*
X0305472Y0275303D01*
X0307073Y0276054D02*
X0307073Y0271550D01*
X0307073Y0273051D02*
X0309325Y0271550D01*
X0307073Y0273051D02*
X0309325Y0274553D01*
X0302469Y0275303D02*
X0302469Y0272301D01*
X0302908Y0263254D02*
X0304409Y0263254D01*
X0305160Y0262503D01*
X0302157Y0259501D01*
X0302908Y0258750D01*
X0304409Y0258750D01*
X0305160Y0259501D01*
X0305160Y0262503D01*
X0306761Y0261753D02*
X0306761Y0258750D01*
X0306761Y0261753D02*
X0309013Y0261753D01*
X0309764Y0261002D01*
X0309764Y0258750D01*
X0302157Y0259501D02*
X0302157Y0262503D01*
X0302908Y0263254D01*
X0299055Y0263254D02*
X0299055Y0258750D01*
X0297554Y0258750D02*
X0300556Y0258750D01*
X0297554Y0261753D02*
X0299055Y0263254D01*
X0302908Y0247254D02*
X0302157Y0246503D01*
X0302157Y0243501D01*
X0302908Y0242750D01*
X0304409Y0242750D01*
X0305160Y0243501D01*
X0306761Y0242750D02*
X0309764Y0245753D01*
X0309764Y0246503D01*
X0309013Y0247254D01*
X0307512Y0247254D01*
X0306761Y0246503D01*
X0305160Y0246503D02*
X0304409Y0247254D01*
X0302908Y0247254D01*
X0306761Y0242750D02*
X0309764Y0242750D01*
X0314718Y0229754D02*
X0314718Y0225250D01*
X0313217Y0225250D02*
X0316220Y0225250D01*
X0317821Y0226001D02*
X0320823Y0229003D01*
X0320823Y0226001D01*
X0320073Y0225250D01*
X0318572Y0225250D01*
X0317821Y0226001D01*
X0317821Y0229003D01*
X0318572Y0229754D01*
X0320073Y0229754D01*
X0320823Y0229003D01*
X0322425Y0229003D02*
X0323175Y0229754D01*
X0324677Y0229754D01*
X0325427Y0229003D01*
X0322425Y0226001D01*
X0323175Y0225250D01*
X0324677Y0225250D01*
X0325427Y0226001D01*
X0325427Y0229003D01*
X0327029Y0229754D02*
X0327029Y0225250D01*
X0327029Y0226751D02*
X0329281Y0228253D01*
X0327029Y0226751D02*
X0329281Y0225250D01*
X0329013Y0220254D02*
X0327512Y0220254D01*
X0326761Y0219503D01*
X0329013Y0220254D02*
X0329764Y0219503D01*
X0329764Y0218753D01*
X0326761Y0215750D01*
X0329764Y0215750D01*
X0322425Y0226001D02*
X0322425Y0229003D01*
X0314718Y0229754D02*
X0313217Y0228253D01*
X0302659Y0220254D02*
X0302659Y0215750D01*
X0304160Y0215750D02*
X0301157Y0215750D01*
X0301157Y0218753D02*
X0302659Y0220254D01*
X0287660Y0219503D02*
X0287660Y0218753D01*
X0286909Y0218002D01*
X0287660Y0217251D01*
X0287660Y0216501D01*
X0286909Y0215750D01*
X0285408Y0215750D01*
X0284657Y0216501D01*
X0286159Y0218002D02*
X0286909Y0218002D01*
X0287660Y0219503D02*
X0286909Y0220254D01*
X0285408Y0220254D01*
X0284657Y0219503D01*
X0284264Y0225750D02*
X0281261Y0225750D01*
X0282763Y0225750D02*
X0282763Y0230254D01*
X0281261Y0228753D01*
X0257206Y0182254D02*
X0257957Y0181503D01*
X0254954Y0178501D01*
X0255705Y0177750D01*
X0257206Y0177750D01*
X0257957Y0178501D01*
X0257957Y0181503D01*
X0257206Y0182254D02*
X0255705Y0182254D01*
X0254954Y0181503D01*
X0254954Y0178501D01*
X0253353Y0180002D02*
X0250350Y0180002D01*
X0252602Y0182254D01*
X0252602Y0177750D01*
X0248749Y0178501D02*
X0247998Y0177750D01*
X0246497Y0177750D01*
X0245746Y0178501D01*
X0245746Y0180002D02*
X0247248Y0180753D01*
X0247998Y0180753D01*
X0248749Y0180002D01*
X0248749Y0178501D01*
X0245746Y0180002D02*
X0245746Y0182254D01*
X0248749Y0182254D01*
X0242644Y0182254D02*
X0242644Y0177750D01*
X0244145Y0177750D02*
X0241142Y0177750D01*
X0239541Y0178501D02*
X0239541Y0181503D01*
X0238790Y0182254D01*
X0237289Y0182254D01*
X0236539Y0181503D01*
X0236539Y0178501D01*
X0237289Y0177750D01*
X0238790Y0177750D01*
X0239541Y0178501D01*
X0241142Y0180753D02*
X0242644Y0182254D01*
X0234937Y0181503D02*
X0234187Y0182254D01*
X0232685Y0182254D01*
X0231935Y0181503D01*
X0231935Y0180753D01*
X0232685Y0180002D01*
X0234187Y0180002D01*
X0234937Y0179251D01*
X0234937Y0178501D01*
X0234187Y0177750D01*
X0232685Y0177750D01*
X0231935Y0178501D01*
X0230367Y0177750D02*
X0228865Y0177750D01*
X0229616Y0177750D02*
X0229616Y0182254D01*
X0228865Y0182254D02*
X0230367Y0182254D01*
X0221365Y0179426D02*
X0221365Y0176423D01*
X0221365Y0177924D02*
X0216862Y0177924D01*
X0218363Y0176423D01*
X0217612Y0174822D02*
X0216862Y0174071D01*
X0216862Y0172570D01*
X0217612Y0171819D01*
X0220615Y0171819D01*
X0221365Y0172570D01*
X0221365Y0174071D01*
X0220615Y0174822D01*
X0221365Y0170251D02*
X0221365Y0168750D01*
X0221365Y0169501D02*
X0216862Y0169501D01*
X0216862Y0170251D02*
X0216862Y0168750D01*
X0251115Y0035000D02*
X0251117Y0035044D01*
X0251123Y0035088D01*
X0251133Y0035131D01*
X0251146Y0035173D01*
X0251163Y0035214D01*
X0251184Y0035253D01*
X0251208Y0035290D01*
X0251235Y0035325D01*
X0251265Y0035357D01*
X0251298Y0035387D01*
X0251334Y0035413D01*
X0251371Y0035437D01*
X0251411Y0035456D01*
X0251452Y0035473D01*
X0251495Y0035485D01*
X0251538Y0035494D01*
X0251582Y0035499D01*
X0251626Y0035500D01*
X0251670Y0035497D01*
X0251714Y0035490D01*
X0251757Y0035479D01*
X0251799Y0035465D01*
X0251839Y0035447D01*
X0251878Y0035425D01*
X0251914Y0035401D01*
X0251948Y0035373D01*
X0251980Y0035342D01*
X0252009Y0035308D01*
X0252035Y0035272D01*
X0252057Y0035234D01*
X0252076Y0035194D01*
X0252091Y0035152D01*
X0252103Y0035110D01*
X0252111Y0035066D01*
X0252115Y0035022D01*
X0252115Y0034978D01*
X0252111Y0034934D01*
X0252103Y0034890D01*
X0252091Y0034848D01*
X0252076Y0034806D01*
X0252057Y0034766D01*
X0252035Y0034728D01*
X0252009Y0034692D01*
X0251980Y0034658D01*
X0251948Y0034627D01*
X0251914Y0034599D01*
X0251878Y0034575D01*
X0251839Y0034553D01*
X0251799Y0034535D01*
X0251757Y0034521D01*
X0251714Y0034510D01*
X0251670Y0034503D01*
X0251626Y0034500D01*
X0251582Y0034501D01*
X0251538Y0034506D01*
X0251495Y0034515D01*
X0251452Y0034527D01*
X0251411Y0034544D01*
X0251371Y0034563D01*
X0251334Y0034587D01*
X0251298Y0034613D01*
X0251265Y0034643D01*
X0251235Y0034675D01*
X0251208Y0034710D01*
X0251184Y0034747D01*
X0251163Y0034786D01*
X0251146Y0034827D01*
X0251133Y0034869D01*
X0251123Y0034912D01*
X0251117Y0034956D01*
X0251115Y0035000D01*
X0275115Y0033000D02*
X0280615Y0033000D01*
X0283615Y0036000D01*
X0362862Y0218938D02*
X0362862Y0221190D01*
X0363612Y0221941D01*
X0365113Y0221941D01*
X0365864Y0221190D01*
X0365864Y0218938D01*
X0367365Y0218938D02*
X0362862Y0218938D01*
X0365864Y0220439D02*
X0367365Y0221941D01*
X0367365Y0223542D02*
X0367365Y0226545D01*
X0367365Y0225043D02*
X0362862Y0225043D01*
X0364363Y0223542D01*
X0365113Y0228146D02*
X0365113Y0230398D01*
X0365864Y0231149D01*
X0366615Y0231149D01*
X0367365Y0230398D01*
X0367365Y0228897D01*
X0366615Y0228146D01*
X0365113Y0228146D01*
X0363612Y0229647D01*
X0362862Y0231149D01*
X0349264Y0229503D02*
X0349264Y0228753D01*
X0348513Y0228002D01*
X0349264Y0227251D01*
X0349264Y0226501D01*
X0348513Y0225750D01*
X0347012Y0225750D01*
X0346261Y0226501D01*
X0347763Y0228002D02*
X0348513Y0228002D01*
X0349264Y0229503D02*
X0348513Y0230254D01*
X0347012Y0230254D01*
X0346261Y0229503D01*
X0377362Y0271022D02*
X0381865Y0271022D01*
X0381865Y0274025D01*
X0381865Y0277128D02*
X0377362Y0277128D01*
X0377362Y0278629D02*
X0377362Y0275626D01*
X0378112Y0280230D02*
X0381115Y0280230D01*
X0381865Y0280981D01*
X0381865Y0282482D01*
X0381115Y0283233D01*
X0381115Y0284834D02*
X0381865Y0285585D01*
X0381865Y0287086D01*
X0381115Y0287837D01*
X0380364Y0287837D01*
X0379613Y0287086D01*
X0379613Y0284834D01*
X0381115Y0284834D01*
X0379613Y0284834D02*
X0378112Y0286336D01*
X0377362Y0287837D01*
X0378112Y0289438D02*
X0378863Y0289438D01*
X0379613Y0290189D01*
X0379613Y0292441D01*
X0378112Y0292441D02*
X0381115Y0292441D01*
X0381865Y0291690D01*
X0381865Y0290189D01*
X0381115Y0289438D01*
X0378112Y0289438D02*
X0377362Y0290189D01*
X0377362Y0291690D01*
X0378112Y0292441D01*
X0378112Y0294042D02*
X0378863Y0294042D01*
X0379613Y0294793D01*
X0379613Y0297045D01*
X0378112Y0297045D02*
X0381115Y0297045D01*
X0381865Y0296294D01*
X0381865Y0294793D01*
X0381115Y0294042D01*
X0378112Y0294042D02*
X0377362Y0294793D01*
X0377362Y0296294D01*
X0378112Y0297045D01*
X0378112Y0298646D02*
X0377362Y0299397D01*
X0377362Y0300898D01*
X0378112Y0301649D01*
X0378863Y0301649D01*
X0381865Y0298646D01*
X0381865Y0301649D01*
X0380576Y0309750D02*
X0377573Y0309750D01*
X0379074Y0309750D02*
X0379074Y0314254D01*
X0377573Y0312753D01*
X0375972Y0313503D02*
X0375221Y0314254D01*
X0373720Y0314254D01*
X0372969Y0313503D01*
X0372969Y0312753D01*
X0373720Y0312002D01*
X0375221Y0312002D01*
X0375972Y0311251D01*
X0375972Y0310501D01*
X0375221Y0309750D01*
X0373720Y0309750D01*
X0372969Y0310501D01*
X0371368Y0310501D02*
X0371368Y0314254D01*
X0368365Y0314254D02*
X0368365Y0310501D01*
X0369116Y0309750D01*
X0370617Y0309750D01*
X0371368Y0310501D01*
X0374471Y0308999D02*
X0374471Y0315004D01*
X0378112Y0283233D02*
X0377362Y0282482D01*
X0377362Y0280981D01*
X0378112Y0280230D01*
X0407113Y0237149D02*
X0409365Y0237149D01*
X0407113Y0237149D02*
X0406363Y0236398D01*
X0406363Y0234146D01*
X0409365Y0234146D01*
X0408615Y0232545D02*
X0409365Y0231794D01*
X0409365Y0230293D01*
X0408615Y0229542D01*
X0405612Y0232545D01*
X0408615Y0232545D01*
X0405612Y0232545D02*
X0404862Y0231794D01*
X0404862Y0230293D01*
X0405612Y0229542D01*
X0408615Y0229542D01*
X0409365Y0227941D02*
X0409365Y0224938D01*
X0409365Y0226439D02*
X0404862Y0226439D01*
X0406363Y0224938D01*
X0420862Y0230293D02*
X0421612Y0229542D01*
X0424615Y0229542D01*
X0425365Y0230293D01*
X0425365Y0231794D01*
X0424615Y0232545D01*
X0423113Y0234146D02*
X0423113Y0237149D01*
X0420862Y0236398D02*
X0423113Y0234146D01*
X0421612Y0232545D02*
X0420862Y0231794D01*
X0420862Y0230293D01*
X0420862Y0236398D02*
X0425365Y0236398D01*
X0380261Y0427750D02*
X0380261Y0428501D01*
X0383264Y0431503D01*
X0383264Y0432254D01*
X0380261Y0432254D01*
X0378660Y0431503D02*
X0377909Y0432254D01*
X0376408Y0432254D01*
X0375657Y0431503D01*
X0375657Y0428501D01*
X0376408Y0427750D01*
X0377909Y0427750D01*
X0378660Y0428501D01*
X0377909Y0443750D02*
X0376408Y0443750D01*
X0375657Y0444501D01*
X0378660Y0447503D01*
X0378660Y0444501D01*
X0377909Y0443750D01*
X0380261Y0443750D02*
X0380261Y0446753D01*
X0382513Y0446753D01*
X0383264Y0446002D01*
X0383264Y0443750D01*
X0378660Y0447503D02*
X0377909Y0448254D01*
X0376408Y0448254D01*
X0375657Y0447503D01*
X0375657Y0444501D01*
X0374056Y0443750D02*
X0371054Y0443750D01*
X0372555Y0443750D02*
X0372555Y0448254D01*
X0371054Y0446753D01*
X0365615Y0464500D02*
X0377115Y0465000D01*
X0378115Y0466000D01*
X0378115Y0503000D01*
X0377115Y0504000D01*
X0365615Y0504500D01*
X0386362Y0493841D02*
X0389364Y0493841D01*
X0390865Y0492340D01*
X0389364Y0490839D01*
X0386362Y0490839D01*
X0387112Y0489238D02*
X0386362Y0488487D01*
X0386362Y0486986D01*
X0387112Y0486235D01*
X0387112Y0484634D02*
X0386362Y0483883D01*
X0386362Y0482382D01*
X0387112Y0481631D01*
X0387112Y0484634D02*
X0387863Y0484634D01*
X0390865Y0481631D01*
X0390865Y0484634D01*
X0390865Y0486235D02*
X0387863Y0489238D01*
X0387112Y0489238D01*
X0390865Y0489238D02*
X0390865Y0486235D01*
X0390865Y0480030D02*
X0390865Y0477027D01*
X0390865Y0478528D02*
X0386362Y0478528D01*
X0387863Y0477027D01*
X0388613Y0475426D02*
X0387112Y0475426D01*
X0386362Y0474675D01*
X0386362Y0472423D01*
X0390865Y0472423D01*
X0389364Y0472423D02*
X0389364Y0474675D01*
X0388613Y0475426D01*
X0386362Y0470855D02*
X0386362Y0469354D01*
X0386362Y0470105D02*
X0390865Y0470105D01*
X0390865Y0470855D02*
X0390865Y0469354D01*
X0390865Y0466251D02*
X0386362Y0466251D01*
X0386362Y0464750D02*
X0386362Y0467753D01*
X0384665Y0467753D02*
X0383164Y0466251D01*
X0383915Y0464750D02*
X0380912Y0464750D01*
X0380162Y0465501D01*
X0380162Y0467002D01*
X0380912Y0467753D01*
X0383915Y0467753D01*
X0384665Y0467002D01*
X0384665Y0465501D01*
X0383915Y0464750D01*
X0383915Y0469354D02*
X0384665Y0470105D01*
X0384665Y0471606D01*
X0383915Y0472356D01*
X0383164Y0472356D01*
X0382413Y0471606D01*
X0382413Y0470855D01*
X0382413Y0471606D02*
X0381663Y0472356D01*
X0380912Y0472356D01*
X0380162Y0471606D01*
X0380162Y0470105D01*
X0380912Y0469354D01*
X0374715Y0466800D02*
X0374717Y0466863D01*
X0374723Y0466925D01*
X0374733Y0466987D01*
X0374746Y0467049D01*
X0374764Y0467109D01*
X0374785Y0467168D01*
X0374810Y0467226D01*
X0374839Y0467282D01*
X0374871Y0467336D01*
X0374906Y0467388D01*
X0374944Y0467437D01*
X0374986Y0467485D01*
X0375030Y0467529D01*
X0375078Y0467571D01*
X0375127Y0467609D01*
X0375179Y0467644D01*
X0375233Y0467676D01*
X0375289Y0467705D01*
X0375347Y0467730D01*
X0375406Y0467751D01*
X0375466Y0467769D01*
X0375528Y0467782D01*
X0375590Y0467792D01*
X0375652Y0467798D01*
X0375715Y0467800D01*
X0375778Y0467798D01*
X0375840Y0467792D01*
X0375902Y0467782D01*
X0375964Y0467769D01*
X0376024Y0467751D01*
X0376083Y0467730D01*
X0376141Y0467705D01*
X0376197Y0467676D01*
X0376251Y0467644D01*
X0376303Y0467609D01*
X0376352Y0467571D01*
X0376400Y0467529D01*
X0376444Y0467485D01*
X0376486Y0467437D01*
X0376524Y0467388D01*
X0376559Y0467336D01*
X0376591Y0467282D01*
X0376620Y0467226D01*
X0376645Y0467168D01*
X0376666Y0467109D01*
X0376684Y0467049D01*
X0376697Y0466987D01*
X0376707Y0466925D01*
X0376713Y0466863D01*
X0376715Y0466800D01*
X0376713Y0466737D01*
X0376707Y0466675D01*
X0376697Y0466613D01*
X0376684Y0466551D01*
X0376666Y0466491D01*
X0376645Y0466432D01*
X0376620Y0466374D01*
X0376591Y0466318D01*
X0376559Y0466264D01*
X0376524Y0466212D01*
X0376486Y0466163D01*
X0376444Y0466115D01*
X0376400Y0466071D01*
X0376352Y0466029D01*
X0376303Y0465991D01*
X0376251Y0465956D01*
X0376197Y0465924D01*
X0376141Y0465895D01*
X0376083Y0465870D01*
X0376024Y0465849D01*
X0375964Y0465831D01*
X0375902Y0465818D01*
X0375840Y0465808D01*
X0375778Y0465802D01*
X0375715Y0465800D01*
X0375652Y0465802D01*
X0375590Y0465808D01*
X0375528Y0465818D01*
X0375466Y0465831D01*
X0375406Y0465849D01*
X0375347Y0465870D01*
X0375289Y0465895D01*
X0375233Y0465924D01*
X0375179Y0465956D01*
X0375127Y0465991D01*
X0375078Y0466029D01*
X0375030Y0466071D01*
X0374986Y0466115D01*
X0374944Y0466163D01*
X0374906Y0466212D01*
X0374871Y0466264D01*
X0374839Y0466318D01*
X0374810Y0466374D01*
X0374785Y0466432D01*
X0374764Y0466491D01*
X0374746Y0466551D01*
X0374733Y0466613D01*
X0374723Y0466675D01*
X0374717Y0466737D01*
X0374715Y0466800D01*
X0337865Y0445898D02*
X0337865Y0444397D01*
X0337115Y0443646D01*
X0337865Y0442045D02*
X0337865Y0439042D01*
X0337865Y0440543D02*
X0333362Y0440543D01*
X0334863Y0439042D01*
X0335613Y0437441D02*
X0336364Y0436690D01*
X0336364Y0434438D01*
X0337865Y0434438D02*
X0333362Y0434438D01*
X0333362Y0436690D01*
X0334112Y0437441D01*
X0335613Y0437441D01*
X0336364Y0435939D02*
X0337865Y0437441D01*
X0334112Y0443646D02*
X0333362Y0444397D01*
X0333362Y0445898D01*
X0334112Y0446649D01*
X0334863Y0446649D01*
X0335613Y0445898D01*
X0336364Y0446649D01*
X0337115Y0446649D01*
X0337865Y0445898D01*
X0335613Y0445898D02*
X0335613Y0445147D01*
X0329665Y0443165D02*
X0328164Y0440913D01*
X0326663Y0443165D01*
X0325162Y0440913D02*
X0329665Y0440913D01*
X0328915Y0439312D02*
X0329665Y0438561D01*
X0329665Y0437060D01*
X0328915Y0436309D01*
X0325912Y0439312D01*
X0328915Y0439312D01*
X0328915Y0436309D02*
X0325912Y0436309D01*
X0325162Y0437060D01*
X0325162Y0438561D01*
X0325912Y0439312D01*
X0329665Y0434708D02*
X0329665Y0431706D01*
X0329665Y0433207D02*
X0325162Y0433207D01*
X0326663Y0431706D01*
X0283865Y0487542D02*
X0279362Y0487542D01*
X0279362Y0489794D01*
X0280112Y0490545D01*
X0281613Y0490545D01*
X0282364Y0489794D01*
X0282364Y0487542D01*
X0282364Y0489043D02*
X0283865Y0490545D01*
X0283115Y0492146D02*
X0283865Y0492897D01*
X0283865Y0494398D01*
X0283115Y0495149D01*
X0281613Y0495149D01*
X0280863Y0494398D01*
X0280863Y0493647D01*
X0281613Y0492146D01*
X0279362Y0492146D01*
X0279362Y0495149D01*
X0275665Y0491665D02*
X0274164Y0489413D01*
X0272663Y0491665D01*
X0271162Y0489413D02*
X0275665Y0489413D01*
X0274915Y0487812D02*
X0275665Y0487061D01*
X0275665Y0485560D01*
X0274915Y0484809D01*
X0271912Y0487812D01*
X0274915Y0487812D01*
X0274915Y0484809D02*
X0271912Y0484809D01*
X0271162Y0485560D01*
X0271162Y0487061D01*
X0271912Y0487812D01*
X0271912Y0483208D02*
X0271162Y0482457D01*
X0271162Y0480956D01*
X0271912Y0480206D01*
X0271912Y0483208D02*
X0272663Y0483208D01*
X0275665Y0480206D01*
X0275665Y0483208D01*
D11*
X0286276Y0498200D02*
X0289345Y0498200D01*
X0290880Y0498200D02*
X0290880Y0502804D01*
X0292415Y0501269D01*
X0293949Y0502804D01*
X0293949Y0498200D01*
X0295484Y0498967D02*
X0296251Y0498200D01*
X0297786Y0498200D01*
X0298553Y0498967D01*
X0298553Y0499735D01*
X0297786Y0500502D01*
X0297018Y0500502D01*
X0297786Y0500502D02*
X0298553Y0501269D01*
X0298553Y0502037D01*
X0297786Y0502804D01*
X0296251Y0502804D01*
X0295484Y0502037D01*
X0300088Y0501269D02*
X0301622Y0502804D01*
X0301622Y0498200D01*
X0300088Y0498200D02*
X0303157Y0498200D01*
X0304692Y0498200D02*
X0304692Y0498967D01*
X0307761Y0502037D01*
X0307761Y0502804D01*
X0304692Y0502804D01*
X0309296Y0502804D02*
X0309296Y0498200D01*
X0312365Y0498200D02*
X0312365Y0502804D01*
X0310830Y0501269D01*
X0309296Y0502804D01*
X0313900Y0501269D02*
X0313900Y0498200D01*
X0313900Y0500502D02*
X0316969Y0500502D01*
X0316969Y0501269D02*
X0316969Y0498200D01*
X0318503Y0498200D02*
X0320805Y0498200D01*
X0321573Y0498967D01*
X0321573Y0499735D01*
X0320805Y0500502D01*
X0318503Y0500502D01*
X0316969Y0501269D02*
X0315434Y0502804D01*
X0313900Y0501269D01*
X0318503Y0502804D02*
X0318503Y0498200D01*
X0320805Y0500502D02*
X0321573Y0501269D01*
X0321573Y0502037D01*
X0320805Y0502804D01*
X0318503Y0502804D01*
X0323107Y0502804D02*
X0323107Y0498200D01*
X0325409Y0498200D01*
X0326177Y0498967D01*
X0326177Y0502037D01*
X0325409Y0502804D01*
X0323107Y0502804D01*
X0327711Y0502804D02*
X0330781Y0502804D01*
X0329246Y0502804D02*
X0329246Y0498200D01*
X0330781Y0467804D02*
X0329246Y0467037D01*
X0327711Y0465502D01*
X0330013Y0465502D01*
X0330781Y0464735D01*
X0330781Y0463967D01*
X0330013Y0463200D01*
X0328479Y0463200D01*
X0327711Y0463967D01*
X0327711Y0465502D01*
X0326177Y0467037D02*
X0325409Y0467804D01*
X0323875Y0467804D01*
X0323107Y0467037D01*
X0323107Y0463967D01*
X0323875Y0463200D01*
X0325409Y0463200D01*
X0326177Y0463967D01*
X0321573Y0463200D02*
X0320038Y0463200D01*
X0320806Y0463200D02*
X0320806Y0467804D01*
X0321573Y0467804D02*
X0320038Y0467804D01*
X0286276Y0498200D02*
X0286276Y0502804D01*
X0232187Y0520700D02*
X0227583Y0520700D01*
X0227583Y0523769D01*
X0227583Y0525304D02*
X0227583Y0527606D01*
X0228350Y0528373D01*
X0231420Y0528373D01*
X0232187Y0527606D01*
X0232187Y0525304D01*
X0227583Y0525304D01*
X0229885Y0522235D02*
X0229885Y0520700D01*
X0229885Y0529908D02*
X0229885Y0532210D01*
X0230652Y0532977D01*
X0231420Y0532977D01*
X0232187Y0532210D01*
X0232187Y0529908D01*
X0227583Y0529908D01*
X0227583Y0532210D01*
X0228350Y0532977D01*
X0229118Y0532977D01*
X0229885Y0532210D01*
X0230652Y0534512D02*
X0227583Y0537581D01*
X0227583Y0539116D02*
X0232187Y0539116D01*
X0232187Y0537581D02*
X0229885Y0535279D01*
X0227583Y0534512D02*
X0232187Y0534512D01*
X0229885Y0539116D02*
X0229885Y0542185D01*
X0230652Y0543720D02*
X0232187Y0545254D01*
X0230652Y0546789D01*
X0227583Y0546789D01*
X0227583Y0543720D02*
X0230652Y0543720D01*
X0232187Y0542185D02*
X0227583Y0542185D01*
X0163281Y0503304D02*
X0160211Y0503304D01*
X0161746Y0503304D02*
X0161746Y0498700D01*
X0158677Y0499467D02*
X0158677Y0502537D01*
X0157909Y0503304D01*
X0155607Y0503304D01*
X0155607Y0498700D01*
X0157909Y0498700D01*
X0158677Y0499467D01*
X0154073Y0499467D02*
X0153305Y0498700D01*
X0151003Y0498700D01*
X0151003Y0503304D01*
X0153305Y0503304D01*
X0154073Y0502537D01*
X0154073Y0501769D01*
X0153305Y0501002D01*
X0151003Y0501002D01*
X0149469Y0501002D02*
X0146400Y0501002D01*
X0146400Y0501769D02*
X0147934Y0503304D01*
X0149469Y0501769D01*
X0149469Y0498700D01*
X0146400Y0498700D02*
X0146400Y0501769D01*
X0144865Y0503304D02*
X0144865Y0498700D01*
X0141796Y0498700D02*
X0141796Y0503304D01*
X0143330Y0501769D01*
X0144865Y0503304D01*
X0140261Y0503304D02*
X0140261Y0502537D01*
X0137192Y0499467D01*
X0137192Y0498700D01*
X0135657Y0498700D02*
X0132588Y0498700D01*
X0134122Y0498700D02*
X0134122Y0503304D01*
X0132588Y0501769D01*
X0131053Y0501769D02*
X0130286Y0501002D01*
X0131053Y0500235D01*
X0131053Y0499467D01*
X0130286Y0498700D01*
X0128751Y0498700D01*
X0127984Y0499467D01*
X0126449Y0498700D02*
X0126449Y0503304D01*
X0124915Y0501769D01*
X0123380Y0503304D01*
X0123380Y0498700D01*
X0121845Y0498700D02*
X0118776Y0498700D01*
X0118776Y0503304D01*
X0127984Y0502537D02*
X0128751Y0503304D01*
X0130286Y0503304D01*
X0131053Y0502537D01*
X0131053Y0501769D01*
X0130286Y0501002D02*
X0129518Y0501002D01*
X0137192Y0503304D02*
X0140261Y0503304D01*
X0153305Y0501002D02*
X0154073Y0500235D01*
X0154073Y0499467D01*
X0154073Y0468304D02*
X0152538Y0468304D01*
X0153306Y0468304D02*
X0153306Y0463700D01*
X0154073Y0463700D02*
X0152538Y0463700D01*
X0155607Y0464467D02*
X0155607Y0467537D01*
X0156375Y0468304D01*
X0157909Y0468304D01*
X0158677Y0467537D01*
X0160211Y0468304D02*
X0160211Y0466002D01*
X0161746Y0466769D01*
X0162513Y0466769D01*
X0163281Y0466002D01*
X0163281Y0464467D01*
X0162513Y0463700D01*
X0160979Y0463700D01*
X0160211Y0464467D01*
X0158677Y0464467D02*
X0157909Y0463700D01*
X0156375Y0463700D01*
X0155607Y0464467D01*
X0160211Y0468304D02*
X0163281Y0468304D01*
X0111920Y0519700D02*
X0112687Y0520467D01*
X0112687Y0522002D01*
X0111920Y0522769D01*
X0111920Y0524304D02*
X0112687Y0525071D01*
X0112687Y0526606D01*
X0111920Y0527373D01*
X0108850Y0527373D01*
X0108083Y0526606D01*
X0108083Y0525071D01*
X0108850Y0524304D01*
X0111920Y0524304D01*
X0108850Y0522769D02*
X0108083Y0522002D01*
X0108083Y0520467D01*
X0108850Y0519700D01*
X0111920Y0519700D01*
X0112687Y0528908D02*
X0108083Y0528908D01*
X0112687Y0531977D01*
X0108083Y0531977D01*
X0108083Y0533512D02*
X0108083Y0536581D01*
X0108083Y0535046D02*
X0112687Y0535046D01*
X0112687Y0538116D02*
X0108083Y0538116D01*
X0108083Y0540418D01*
X0108850Y0541185D01*
X0110385Y0541185D01*
X0111152Y0540418D01*
X0111152Y0538116D01*
X0111152Y0539650D02*
X0112687Y0541185D01*
X0111920Y0542720D02*
X0112687Y0543487D01*
X0112687Y0545022D01*
X0111920Y0545789D01*
X0108850Y0545789D01*
X0108083Y0545022D01*
X0108083Y0543487D01*
X0108850Y0542720D01*
X0111920Y0542720D01*
X0112687Y0547324D02*
X0108083Y0547324D01*
X0108083Y0551927D02*
X0112687Y0551927D01*
X0112687Y0550393D02*
X0112687Y0547324D01*
X0110385Y0551927D02*
X0110385Y0554997D01*
X0111152Y0556531D02*
X0108083Y0556531D01*
X0108083Y0554997D02*
X0112687Y0554997D01*
X0111152Y0556531D02*
X0112687Y0558066D01*
X0111152Y0559601D01*
X0108083Y0559601D01*
X0048281Y0502804D02*
X0045211Y0502804D01*
X0046746Y0502804D02*
X0046746Y0498200D01*
X0043677Y0498967D02*
X0043677Y0502037D01*
X0042909Y0502804D01*
X0040607Y0502804D01*
X0040607Y0498200D01*
X0042909Y0498200D01*
X0043677Y0498967D01*
X0039073Y0498967D02*
X0039073Y0499735D01*
X0038305Y0500502D01*
X0036003Y0500502D01*
X0034469Y0500502D02*
X0031400Y0500502D01*
X0031400Y0501269D02*
X0032934Y0502804D01*
X0034469Y0501269D01*
X0034469Y0498200D01*
X0036003Y0498200D02*
X0038305Y0498200D01*
X0039073Y0498967D01*
X0038305Y0500502D02*
X0039073Y0501269D01*
X0039073Y0502037D01*
X0038305Y0502804D01*
X0036003Y0502804D01*
X0036003Y0498200D01*
X0031400Y0498200D02*
X0031400Y0501269D01*
X0029865Y0502804D02*
X0029865Y0498200D01*
X0026796Y0498200D02*
X0026796Y0502804D01*
X0028330Y0501269D01*
X0029865Y0502804D01*
X0025261Y0502804D02*
X0025261Y0502037D01*
X0022192Y0498967D01*
X0022192Y0498200D01*
X0020657Y0498200D02*
X0017588Y0498200D01*
X0019122Y0498200D02*
X0019122Y0502804D01*
X0017588Y0501269D01*
X0016053Y0501269D02*
X0015286Y0500502D01*
X0016053Y0499735D01*
X0016053Y0498967D01*
X0015286Y0498200D01*
X0013751Y0498200D01*
X0012984Y0498967D01*
X0011449Y0498200D02*
X0011449Y0502804D01*
X0009915Y0501269D01*
X0008380Y0502804D01*
X0008380Y0498200D01*
X0006845Y0498200D02*
X0003776Y0498200D01*
X0003776Y0502804D01*
X0012984Y0502037D02*
X0013751Y0502804D01*
X0015286Y0502804D01*
X0016053Y0502037D01*
X0016053Y0501269D01*
X0015286Y0500502D02*
X0014518Y0500502D01*
X0022192Y0502804D02*
X0025261Y0502804D01*
X0037538Y0467804D02*
X0039073Y0467804D01*
X0038306Y0467804D02*
X0038306Y0463200D01*
X0039073Y0463200D02*
X0037538Y0463200D01*
X0040607Y0463967D02*
X0041375Y0463200D01*
X0042909Y0463200D01*
X0043677Y0463967D01*
X0045211Y0465502D02*
X0048281Y0465502D01*
X0047513Y0467804D02*
X0045211Y0465502D01*
X0043677Y0467037D02*
X0042909Y0467804D01*
X0041375Y0467804D01*
X0040607Y0467037D01*
X0040607Y0463967D01*
X0047513Y0463200D02*
X0047513Y0467804D01*
X0047682Y0251166D02*
X0048449Y0250399D01*
X0048449Y0247330D01*
X0047682Y0246562D01*
X0046147Y0246562D01*
X0045380Y0247330D01*
X0045380Y0250399D01*
X0046147Y0251166D01*
X0047682Y0251166D01*
X0049984Y0251166D02*
X0053053Y0246562D01*
X0053053Y0251166D01*
X0054588Y0251166D02*
X0057657Y0251166D01*
X0056122Y0251166D02*
X0056122Y0246562D01*
X0059192Y0246562D02*
X0059192Y0251166D01*
X0061494Y0251166D01*
X0062261Y0250399D01*
X0062261Y0248864D01*
X0061494Y0248097D01*
X0059192Y0248097D01*
X0060726Y0248097D02*
X0062261Y0246562D01*
X0063796Y0247330D02*
X0064563Y0246562D01*
X0066098Y0246562D01*
X0066865Y0247330D01*
X0066865Y0250399D01*
X0066098Y0251166D01*
X0064563Y0251166D01*
X0063796Y0250399D01*
X0063796Y0247330D01*
X0068400Y0246562D02*
X0068400Y0251166D01*
X0068400Y0246562D02*
X0071469Y0246562D01*
X0073003Y0247330D02*
X0073771Y0246562D01*
X0075305Y0246562D01*
X0076073Y0247330D01*
X0076073Y0248864D01*
X0074538Y0248864D01*
X0073003Y0250399D02*
X0073003Y0247330D01*
X0073003Y0250399D02*
X0073771Y0251166D01*
X0075305Y0251166D01*
X0076073Y0250399D01*
X0077607Y0251166D02*
X0077607Y0246562D01*
X0079909Y0246562D01*
X0080677Y0247330D01*
X0080677Y0250399D01*
X0079909Y0251166D01*
X0077607Y0251166D01*
X0082211Y0250399D02*
X0082979Y0251166D01*
X0084513Y0251166D01*
X0085281Y0250399D01*
X0085281Y0249631D01*
X0082211Y0246562D01*
X0085281Y0246562D01*
X0049984Y0246562D02*
X0049984Y0251166D01*
X0043845Y0250399D02*
X0043078Y0251166D01*
X0041543Y0251166D01*
X0040776Y0250399D01*
X0040776Y0247330D01*
X0041543Y0246562D01*
X0043078Y0246562D01*
X0043845Y0247330D01*
X0174350Y0069804D02*
X0172815Y0068269D01*
X0172815Y0065200D01*
X0172815Y0067502D02*
X0175885Y0067502D01*
X0175885Y0068269D02*
X0175885Y0065200D01*
X0177419Y0065200D02*
X0177419Y0068269D01*
X0175885Y0068269D02*
X0174350Y0069804D01*
X0177419Y0066735D02*
X0178954Y0068269D01*
X0179721Y0068269D01*
X0181256Y0067502D02*
X0182023Y0068269D01*
X0184325Y0068269D01*
X0185860Y0068269D02*
X0185860Y0065967D01*
X0186627Y0065200D01*
X0188929Y0065200D01*
X0188929Y0068269D01*
X0190464Y0068269D02*
X0191231Y0068269D01*
X0191231Y0065200D01*
X0190464Y0065200D02*
X0191998Y0065200D01*
X0193533Y0065200D02*
X0193533Y0068269D01*
X0195835Y0068269D01*
X0196602Y0067502D01*
X0196602Y0065200D01*
X0198137Y0065967D02*
X0198904Y0065200D01*
X0200439Y0065200D01*
X0201206Y0065967D01*
X0201206Y0067502D01*
X0200439Y0068269D01*
X0198904Y0068269D01*
X0198137Y0067502D01*
X0198137Y0065967D01*
X0191998Y0060002D02*
X0191231Y0060769D01*
X0189696Y0060769D01*
X0188929Y0060002D01*
X0188929Y0058467D01*
X0189696Y0057700D01*
X0191231Y0057700D01*
X0191998Y0058467D01*
X0191998Y0060002D01*
X0187394Y0060769D02*
X0186627Y0060769D01*
X0185092Y0059235D01*
X0185092Y0060769D02*
X0185092Y0057700D01*
X0183558Y0057700D02*
X0181256Y0057700D01*
X0180489Y0058467D01*
X0180489Y0060002D01*
X0181256Y0060769D01*
X0183558Y0060769D01*
X0184325Y0065200D02*
X0182023Y0065200D01*
X0181256Y0065967D01*
X0181256Y0067502D01*
X0184325Y0069804D02*
X0184325Y0065200D01*
X0178187Y0063071D02*
X0178187Y0062304D01*
X0178187Y0060769D02*
X0178187Y0057700D01*
X0178954Y0057700D02*
X0177419Y0057700D01*
X0175885Y0057700D02*
X0175885Y0062304D01*
X0174350Y0060769D01*
X0172815Y0062304D01*
X0172815Y0057700D01*
X0177419Y0060769D02*
X0178187Y0060769D01*
X0191231Y0069804D02*
X0191231Y0070571D01*
X0246411Y0052479D02*
X0246411Y0050177D01*
X0251015Y0050177D01*
X0249481Y0050177D02*
X0249481Y0052479D01*
X0248713Y0053246D01*
X0247179Y0053246D01*
X0246411Y0052479D01*
X0247179Y0048642D02*
X0246411Y0047875D01*
X0246411Y0046341D01*
X0247179Y0045573D01*
X0247946Y0045573D01*
X0248713Y0046341D01*
X0248713Y0047875D01*
X0249481Y0048642D01*
X0250248Y0048642D01*
X0251015Y0047875D01*
X0251015Y0046341D01*
X0250248Y0045573D01*
X0250248Y0044039D02*
X0251015Y0043271D01*
X0251015Y0041737D01*
X0250248Y0040969D01*
X0247179Y0040969D01*
X0246411Y0041737D01*
X0246411Y0043271D01*
X0247179Y0044039D01*
X0246411Y0039435D02*
X0246411Y0037900D01*
X0246411Y0038667D02*
X0251015Y0038667D01*
X0251015Y0037900D02*
X0251015Y0039435D01*
X0423907Y0275100D02*
X0426977Y0279704D01*
X0428511Y0278169D02*
X0430046Y0279704D01*
X0430046Y0275100D01*
X0428511Y0275100D02*
X0431581Y0275100D01*
X0426977Y0275100D02*
X0423907Y0279704D01*
X0424873Y0315100D02*
X0424873Y0318169D01*
X0423338Y0319704D01*
X0421804Y0318169D01*
X0421804Y0315100D01*
X0420269Y0315100D02*
X0420269Y0319704D01*
X0418734Y0318169D01*
X0417200Y0319704D01*
X0417200Y0315100D01*
X0415665Y0315867D02*
X0414898Y0315100D01*
X0413363Y0315100D01*
X0412596Y0315867D01*
X0413363Y0317402D02*
X0414898Y0317402D01*
X0415665Y0316635D01*
X0415665Y0315867D01*
X0413363Y0317402D02*
X0412596Y0318169D01*
X0412596Y0318937D01*
X0413363Y0319704D01*
X0414898Y0319704D01*
X0415665Y0318937D01*
X0411061Y0317402D02*
X0407992Y0317402D01*
X0406457Y0315867D02*
X0406457Y0319704D01*
X0403388Y0319704D02*
X0403388Y0315867D01*
X0404155Y0315100D01*
X0405690Y0315100D01*
X0406457Y0315867D01*
X0401853Y0315867D02*
X0401086Y0315100D01*
X0398784Y0315100D01*
X0398784Y0319704D01*
X0401086Y0319704D01*
X0401853Y0318937D01*
X0401853Y0318169D01*
X0401086Y0317402D01*
X0398784Y0317402D01*
X0401086Y0317402D02*
X0401853Y0316635D01*
X0401853Y0315867D01*
X0421804Y0317402D02*
X0424873Y0317402D01*
X0426407Y0317402D02*
X0429477Y0317402D01*
X0431011Y0316635D02*
X0432546Y0315100D01*
X0434081Y0316635D01*
X0434081Y0319704D01*
X0431011Y0319704D02*
X0431011Y0316635D01*
X0430375Y0393472D02*
X0431909Y0393472D01*
X0432677Y0394239D01*
X0434211Y0393472D02*
X0434211Y0398076D01*
X0437281Y0398076D01*
X0435746Y0395774D02*
X0434211Y0395774D01*
X0432677Y0397308D02*
X0431909Y0398076D01*
X0430375Y0398076D01*
X0429607Y0397308D01*
X0429607Y0394239D01*
X0430375Y0393472D01*
X0428073Y0393472D02*
X0428073Y0396541D01*
X0426538Y0398076D01*
X0425003Y0396541D01*
X0425003Y0393472D01*
X0425003Y0395774D02*
X0428073Y0395774D01*
X0423469Y0398076D02*
X0420400Y0398076D01*
X0420400Y0393472D01*
X0418865Y0393472D02*
X0417330Y0395006D01*
X0418098Y0395006D02*
X0415796Y0395006D01*
X0415796Y0393472D02*
X0415796Y0398076D01*
X0418098Y0398076D01*
X0418865Y0397308D01*
X0418865Y0395774D01*
X0418098Y0395006D01*
X0420400Y0395774D02*
X0421934Y0395774D01*
X0414261Y0398076D02*
X0411192Y0398076D01*
X0411192Y0393472D01*
X0414261Y0393472D01*
X0412726Y0395774D02*
X0411192Y0395774D01*
X0409657Y0398076D02*
X0406588Y0398076D01*
X0408122Y0398076D02*
X0408122Y0393472D01*
X0405053Y0393472D02*
X0405053Y0398076D01*
X0401984Y0398076D02*
X0405053Y0393472D01*
X0401984Y0393472D02*
X0401984Y0398076D01*
X0400449Y0398076D02*
X0398915Y0398076D01*
X0399682Y0398076D02*
X0399682Y0393472D01*
X0398915Y0393472D02*
X0400449Y0393472D01*
X0397380Y0393472D02*
X0395845Y0395006D01*
X0396613Y0395006D02*
X0394311Y0395006D01*
X0394311Y0393472D02*
X0394311Y0398076D01*
X0396613Y0398076D01*
X0397380Y0397308D01*
X0397380Y0395774D01*
X0396613Y0395006D01*
X0392776Y0393472D02*
X0389707Y0393472D01*
X0389707Y0398076D01*
X0392776Y0398076D01*
X0391241Y0395774D02*
X0389707Y0395774D01*
X0388172Y0393472D02*
X0388172Y0398076D01*
X0385103Y0398076D02*
X0385103Y0393472D01*
X0386637Y0395006D01*
X0388172Y0393472D01*
X0383568Y0394239D02*
X0383568Y0397308D01*
X0382801Y0398076D01*
X0381266Y0398076D01*
X0380499Y0397308D01*
X0380499Y0394239D01*
X0381266Y0393472D01*
X0382801Y0393472D01*
X0383568Y0394239D01*
X0378964Y0395774D02*
X0378964Y0397308D01*
X0378197Y0398076D01*
X0375895Y0398076D01*
X0375895Y0393472D01*
X0375895Y0395006D02*
X0378197Y0395006D01*
X0378964Y0395774D01*
X0434211Y0393472D02*
X0437281Y0393472D01*
D12*
X0382615Y0433500D02*
X0369615Y0433500D01*
X0369528Y0433502D01*
X0369441Y0433508D01*
X0369354Y0433517D01*
X0369268Y0433530D01*
X0369182Y0433547D01*
X0369097Y0433568D01*
X0369014Y0433593D01*
X0368931Y0433621D01*
X0368850Y0433652D01*
X0368770Y0433687D01*
X0368692Y0433726D01*
X0368615Y0433768D01*
X0368540Y0433813D01*
X0368468Y0433862D01*
X0368397Y0433913D01*
X0368329Y0433968D01*
X0368264Y0434025D01*
X0368201Y0434086D01*
X0368140Y0434149D01*
X0368083Y0434214D01*
X0368028Y0434282D01*
X0367977Y0434353D01*
X0367928Y0434425D01*
X0367883Y0434500D01*
X0367841Y0434577D01*
X0367802Y0434655D01*
X0367767Y0434735D01*
X0367736Y0434816D01*
X0367708Y0434899D01*
X0367683Y0434982D01*
X0367662Y0435067D01*
X0367645Y0435153D01*
X0367632Y0435239D01*
X0367623Y0435326D01*
X0367617Y0435413D01*
X0367615Y0435500D01*
X0371115Y0438000D02*
X0374815Y0438000D01*
X0377315Y0438000D02*
X0381115Y0438000D01*
X0384615Y0440500D02*
X0384613Y0440587D01*
X0384607Y0440674D01*
X0384598Y0440761D01*
X0384585Y0440847D01*
X0384568Y0440933D01*
X0384547Y0441018D01*
X0384522Y0441101D01*
X0384494Y0441184D01*
X0384463Y0441265D01*
X0384428Y0441345D01*
X0384389Y0441423D01*
X0384347Y0441500D01*
X0384302Y0441575D01*
X0384253Y0441647D01*
X0384202Y0441718D01*
X0384147Y0441786D01*
X0384090Y0441851D01*
X0384029Y0441914D01*
X0383966Y0441975D01*
X0383901Y0442032D01*
X0383833Y0442087D01*
X0383762Y0442138D01*
X0383690Y0442187D01*
X0383615Y0442232D01*
X0383538Y0442274D01*
X0383460Y0442313D01*
X0383380Y0442348D01*
X0383299Y0442379D01*
X0383216Y0442407D01*
X0383133Y0442432D01*
X0383048Y0442453D01*
X0382962Y0442470D01*
X0382876Y0442483D01*
X0382789Y0442492D01*
X0382702Y0442498D01*
X0382615Y0442500D01*
X0369615Y0442500D01*
X0369528Y0442498D01*
X0369441Y0442492D01*
X0369354Y0442483D01*
X0369268Y0442470D01*
X0369182Y0442453D01*
X0369097Y0442432D01*
X0369014Y0442407D01*
X0368931Y0442379D01*
X0368850Y0442348D01*
X0368770Y0442313D01*
X0368692Y0442274D01*
X0368615Y0442232D01*
X0368540Y0442187D01*
X0368468Y0442138D01*
X0368397Y0442087D01*
X0368329Y0442032D01*
X0368264Y0441975D01*
X0368201Y0441914D01*
X0368140Y0441851D01*
X0368083Y0441786D01*
X0368028Y0441718D01*
X0367977Y0441647D01*
X0367928Y0441575D01*
X0367883Y0441500D01*
X0367841Y0441423D01*
X0367802Y0441345D01*
X0367767Y0441265D01*
X0367736Y0441184D01*
X0367708Y0441101D01*
X0367683Y0441018D01*
X0367662Y0440933D01*
X0367645Y0440847D01*
X0367632Y0440761D01*
X0367623Y0440674D01*
X0367617Y0440587D01*
X0367615Y0440500D01*
X0382615Y0433500D02*
X0382702Y0433502D01*
X0382789Y0433508D01*
X0382876Y0433517D01*
X0382962Y0433530D01*
X0383048Y0433547D01*
X0383133Y0433568D01*
X0383216Y0433593D01*
X0383299Y0433621D01*
X0383380Y0433652D01*
X0383460Y0433687D01*
X0383538Y0433726D01*
X0383615Y0433768D01*
X0383690Y0433813D01*
X0383762Y0433862D01*
X0383833Y0433913D01*
X0383901Y0433968D01*
X0383966Y0434025D01*
X0384029Y0434086D01*
X0384090Y0434149D01*
X0384147Y0434214D01*
X0384202Y0434282D01*
X0384253Y0434353D01*
X0384302Y0434425D01*
X0384347Y0434500D01*
X0384389Y0434577D01*
X0384428Y0434655D01*
X0384463Y0434735D01*
X0384494Y0434816D01*
X0384522Y0434899D01*
X0384547Y0434982D01*
X0384568Y0435067D01*
X0384585Y0435153D01*
X0384598Y0435239D01*
X0384607Y0435326D01*
X0384613Y0435413D01*
X0384615Y0435500D01*
X0332115Y0425500D02*
X0332115Y0424000D01*
X0332113Y0423940D01*
X0332108Y0423879D01*
X0332099Y0423820D01*
X0332086Y0423761D01*
X0332070Y0423702D01*
X0332050Y0423645D01*
X0332027Y0423590D01*
X0332000Y0423535D01*
X0331971Y0423483D01*
X0331938Y0423432D01*
X0331902Y0423383D01*
X0331864Y0423337D01*
X0331822Y0423293D01*
X0331778Y0423251D01*
X0331732Y0423213D01*
X0331683Y0423177D01*
X0331632Y0423144D01*
X0331580Y0423115D01*
X0331525Y0423088D01*
X0331470Y0423065D01*
X0331413Y0423045D01*
X0331354Y0423029D01*
X0331295Y0423016D01*
X0331236Y0423007D01*
X0331175Y0423002D01*
X0331115Y0423000D01*
X0324115Y0423000D01*
X0324055Y0423002D01*
X0323994Y0423007D01*
X0323935Y0423016D01*
X0323876Y0423029D01*
X0323817Y0423045D01*
X0323760Y0423065D01*
X0323705Y0423088D01*
X0323650Y0423115D01*
X0323598Y0423144D01*
X0323547Y0423177D01*
X0323498Y0423213D01*
X0323452Y0423251D01*
X0323408Y0423293D01*
X0323366Y0423337D01*
X0323328Y0423383D01*
X0323292Y0423432D01*
X0323259Y0423483D01*
X0323230Y0423535D01*
X0323203Y0423590D01*
X0323180Y0423645D01*
X0323160Y0423702D01*
X0323144Y0423761D01*
X0323131Y0423820D01*
X0323122Y0423879D01*
X0323117Y0423940D01*
X0323115Y0424000D01*
X0323115Y0425500D01*
X0323615Y0426000D01*
X0323615Y0445000D01*
X0323115Y0445500D01*
X0323115Y0447000D01*
X0323117Y0447060D01*
X0323122Y0447121D01*
X0323131Y0447180D01*
X0323144Y0447239D01*
X0323160Y0447298D01*
X0323180Y0447355D01*
X0323203Y0447410D01*
X0323230Y0447465D01*
X0323259Y0447517D01*
X0323292Y0447568D01*
X0323328Y0447617D01*
X0323366Y0447663D01*
X0323408Y0447707D01*
X0323452Y0447749D01*
X0323498Y0447787D01*
X0323547Y0447823D01*
X0323598Y0447856D01*
X0323650Y0447885D01*
X0323705Y0447912D01*
X0323760Y0447935D01*
X0323817Y0447955D01*
X0323876Y0447971D01*
X0323935Y0447984D01*
X0323994Y0447993D01*
X0324055Y0447998D01*
X0324115Y0448000D01*
X0331115Y0448000D01*
X0331175Y0447998D01*
X0331236Y0447993D01*
X0331295Y0447984D01*
X0331354Y0447971D01*
X0331413Y0447955D01*
X0331470Y0447935D01*
X0331525Y0447912D01*
X0331580Y0447885D01*
X0331632Y0447856D01*
X0331683Y0447823D01*
X0331732Y0447787D01*
X0331778Y0447749D01*
X0331822Y0447707D01*
X0331864Y0447663D01*
X0331902Y0447617D01*
X0331938Y0447568D01*
X0331971Y0447517D01*
X0332000Y0447465D01*
X0332027Y0447410D01*
X0332050Y0447355D01*
X0332070Y0447298D01*
X0332086Y0447239D01*
X0332099Y0447180D01*
X0332108Y0447121D01*
X0332113Y0447060D01*
X0332115Y0447000D01*
X0332115Y0445500D01*
X0331615Y0445000D01*
X0331615Y0426000D01*
X0332115Y0425500D01*
X0312115Y0405000D02*
X0312115Y0403500D01*
X0311615Y0403000D01*
X0311615Y0384000D01*
X0312115Y0383500D01*
X0312115Y0382000D01*
X0312113Y0381940D01*
X0312108Y0381879D01*
X0312099Y0381820D01*
X0312086Y0381761D01*
X0312070Y0381702D01*
X0312050Y0381645D01*
X0312027Y0381590D01*
X0312000Y0381535D01*
X0311971Y0381483D01*
X0311938Y0381432D01*
X0311902Y0381383D01*
X0311864Y0381337D01*
X0311822Y0381293D01*
X0311778Y0381251D01*
X0311732Y0381213D01*
X0311683Y0381177D01*
X0311632Y0381144D01*
X0311580Y0381115D01*
X0311525Y0381088D01*
X0311470Y0381065D01*
X0311413Y0381045D01*
X0311354Y0381029D01*
X0311295Y0381016D01*
X0311236Y0381007D01*
X0311175Y0381002D01*
X0311115Y0381000D01*
X0304115Y0381000D01*
X0304055Y0381002D01*
X0303994Y0381007D01*
X0303935Y0381016D01*
X0303876Y0381029D01*
X0303817Y0381045D01*
X0303760Y0381065D01*
X0303705Y0381088D01*
X0303650Y0381115D01*
X0303598Y0381144D01*
X0303547Y0381177D01*
X0303498Y0381213D01*
X0303452Y0381251D01*
X0303408Y0381293D01*
X0303366Y0381337D01*
X0303328Y0381383D01*
X0303292Y0381432D01*
X0303259Y0381483D01*
X0303230Y0381535D01*
X0303203Y0381590D01*
X0303180Y0381645D01*
X0303160Y0381702D01*
X0303144Y0381761D01*
X0303131Y0381820D01*
X0303122Y0381879D01*
X0303117Y0381940D01*
X0303115Y0382000D01*
X0303115Y0383500D01*
X0303615Y0384000D01*
X0303615Y0403000D01*
X0303115Y0403500D01*
X0303115Y0405000D01*
X0303117Y0405060D01*
X0303122Y0405121D01*
X0303131Y0405180D01*
X0303144Y0405239D01*
X0303160Y0405298D01*
X0303180Y0405355D01*
X0303203Y0405410D01*
X0303230Y0405465D01*
X0303259Y0405517D01*
X0303292Y0405568D01*
X0303328Y0405617D01*
X0303366Y0405663D01*
X0303408Y0405707D01*
X0303452Y0405749D01*
X0303498Y0405787D01*
X0303547Y0405823D01*
X0303598Y0405856D01*
X0303650Y0405885D01*
X0303705Y0405912D01*
X0303760Y0405935D01*
X0303817Y0405955D01*
X0303876Y0405971D01*
X0303935Y0405984D01*
X0303994Y0405993D01*
X0304055Y0405998D01*
X0304115Y0406000D01*
X0311115Y0406000D01*
X0311175Y0405998D01*
X0311236Y0405993D01*
X0311295Y0405984D01*
X0311354Y0405971D01*
X0311413Y0405955D01*
X0311470Y0405935D01*
X0311525Y0405912D01*
X0311580Y0405885D01*
X0311632Y0405856D01*
X0311683Y0405823D01*
X0311732Y0405787D01*
X0311778Y0405749D01*
X0311822Y0405707D01*
X0311864Y0405663D01*
X0311902Y0405617D01*
X0311938Y0405568D01*
X0311971Y0405517D01*
X0312000Y0405465D01*
X0312027Y0405410D01*
X0312050Y0405355D01*
X0312070Y0405298D01*
X0312086Y0405239D01*
X0312099Y0405180D01*
X0312108Y0405121D01*
X0312113Y0405060D01*
X0312115Y0405000D01*
X0290615Y0370000D02*
X0283615Y0370000D01*
X0283555Y0369998D01*
X0283494Y0369993D01*
X0283435Y0369984D01*
X0283376Y0369971D01*
X0283317Y0369955D01*
X0283260Y0369935D01*
X0283205Y0369912D01*
X0283150Y0369885D01*
X0283098Y0369856D01*
X0283047Y0369823D01*
X0282998Y0369787D01*
X0282952Y0369749D01*
X0282908Y0369707D01*
X0282866Y0369663D01*
X0282828Y0369617D01*
X0282792Y0369568D01*
X0282759Y0369517D01*
X0282730Y0369465D01*
X0282703Y0369410D01*
X0282680Y0369355D01*
X0282660Y0369298D01*
X0282644Y0369239D01*
X0282631Y0369180D01*
X0282622Y0369121D01*
X0282617Y0369060D01*
X0282615Y0369000D01*
X0282615Y0367500D01*
X0283115Y0367000D01*
X0283115Y0348000D01*
X0282615Y0347500D01*
X0282615Y0346000D01*
X0282617Y0345940D01*
X0282622Y0345879D01*
X0282631Y0345820D01*
X0282644Y0345761D01*
X0282660Y0345702D01*
X0282680Y0345645D01*
X0282703Y0345590D01*
X0282730Y0345535D01*
X0282759Y0345483D01*
X0282792Y0345432D01*
X0282828Y0345383D01*
X0282866Y0345337D01*
X0282908Y0345293D01*
X0282952Y0345251D01*
X0282998Y0345213D01*
X0283047Y0345177D01*
X0283098Y0345144D01*
X0283150Y0345115D01*
X0283205Y0345088D01*
X0283260Y0345065D01*
X0283317Y0345045D01*
X0283376Y0345029D01*
X0283435Y0345016D01*
X0283494Y0345007D01*
X0283555Y0345002D01*
X0283615Y0345000D01*
X0290615Y0345000D01*
X0290675Y0345002D01*
X0290736Y0345007D01*
X0290795Y0345016D01*
X0290854Y0345029D01*
X0290913Y0345045D01*
X0290970Y0345065D01*
X0291025Y0345088D01*
X0291080Y0345115D01*
X0291132Y0345144D01*
X0291183Y0345177D01*
X0291232Y0345213D01*
X0291278Y0345251D01*
X0291322Y0345293D01*
X0291364Y0345337D01*
X0291402Y0345383D01*
X0291438Y0345432D01*
X0291471Y0345483D01*
X0291500Y0345535D01*
X0291527Y0345590D01*
X0291550Y0345645D01*
X0291570Y0345702D01*
X0291586Y0345761D01*
X0291599Y0345820D01*
X0291608Y0345879D01*
X0291613Y0345940D01*
X0291615Y0346000D01*
X0291615Y0347500D01*
X0291115Y0348000D01*
X0291115Y0367000D01*
X0291615Y0367500D01*
X0291615Y0369000D01*
X0291613Y0369060D01*
X0291608Y0369121D01*
X0291599Y0369180D01*
X0291586Y0369239D01*
X0291570Y0369298D01*
X0291550Y0369355D01*
X0291527Y0369410D01*
X0291500Y0369465D01*
X0291471Y0369517D01*
X0291438Y0369568D01*
X0291402Y0369617D01*
X0291364Y0369663D01*
X0291322Y0369707D01*
X0291278Y0369749D01*
X0291232Y0369787D01*
X0291183Y0369823D01*
X0291132Y0369856D01*
X0291080Y0369885D01*
X0291025Y0369912D01*
X0290970Y0369935D01*
X0290913Y0369955D01*
X0290854Y0369971D01*
X0290795Y0369984D01*
X0290736Y0369993D01*
X0290675Y0369998D01*
X0290615Y0370000D01*
X0272115Y0397000D02*
X0272115Y0420000D01*
X0232115Y0420000D01*
X0232115Y0412500D01*
X0232241Y0412498D01*
X0232366Y0412492D01*
X0232491Y0412482D01*
X0232616Y0412468D01*
X0232741Y0412451D01*
X0232865Y0412429D01*
X0232988Y0412404D01*
X0233110Y0412374D01*
X0233231Y0412341D01*
X0233351Y0412304D01*
X0233470Y0412264D01*
X0233587Y0412219D01*
X0233704Y0412171D01*
X0233818Y0412119D01*
X0233931Y0412064D01*
X0234042Y0412005D01*
X0234151Y0411943D01*
X0234258Y0411877D01*
X0234363Y0411808D01*
X0234466Y0411736D01*
X0234567Y0411661D01*
X0234665Y0411582D01*
X0234760Y0411500D01*
X0234853Y0411416D01*
X0234943Y0411328D01*
X0235031Y0411238D01*
X0235115Y0411145D01*
X0235197Y0411050D01*
X0235276Y0410952D01*
X0235351Y0410851D01*
X0235423Y0410748D01*
X0235492Y0410643D01*
X0235558Y0410536D01*
X0235620Y0410427D01*
X0235679Y0410316D01*
X0235734Y0410203D01*
X0235786Y0410089D01*
X0235834Y0409972D01*
X0235879Y0409855D01*
X0235919Y0409736D01*
X0235956Y0409616D01*
X0235989Y0409495D01*
X0236019Y0409373D01*
X0236044Y0409250D01*
X0236066Y0409126D01*
X0236083Y0409001D01*
X0236097Y0408876D01*
X0236107Y0408751D01*
X0236113Y0408626D01*
X0236115Y0408500D01*
X0236113Y0408374D01*
X0236107Y0408249D01*
X0236097Y0408124D01*
X0236083Y0407999D01*
X0236066Y0407874D01*
X0236044Y0407750D01*
X0236019Y0407627D01*
X0235989Y0407505D01*
X0235956Y0407384D01*
X0235919Y0407264D01*
X0235879Y0407145D01*
X0235834Y0407028D01*
X0235786Y0406911D01*
X0235734Y0406797D01*
X0235679Y0406684D01*
X0235620Y0406573D01*
X0235558Y0406464D01*
X0235492Y0406357D01*
X0235423Y0406252D01*
X0235351Y0406149D01*
X0235276Y0406048D01*
X0235197Y0405950D01*
X0235115Y0405855D01*
X0235031Y0405762D01*
X0234943Y0405672D01*
X0234853Y0405584D01*
X0234760Y0405500D01*
X0234665Y0405418D01*
X0234567Y0405339D01*
X0234466Y0405264D01*
X0234363Y0405192D01*
X0234258Y0405123D01*
X0234151Y0405057D01*
X0234042Y0404995D01*
X0233931Y0404936D01*
X0233818Y0404881D01*
X0233704Y0404829D01*
X0233587Y0404781D01*
X0233470Y0404736D01*
X0233351Y0404696D01*
X0233231Y0404659D01*
X0233110Y0404626D01*
X0232988Y0404596D01*
X0232865Y0404571D01*
X0232741Y0404549D01*
X0232616Y0404532D01*
X0232491Y0404518D01*
X0232366Y0404508D01*
X0232241Y0404502D01*
X0232115Y0404500D01*
X0232115Y0397000D01*
X0272115Y0397000D01*
X0252615Y0373500D02*
X0239615Y0373500D01*
X0239528Y0373498D01*
X0239441Y0373492D01*
X0239354Y0373483D01*
X0239268Y0373470D01*
X0239182Y0373453D01*
X0239097Y0373432D01*
X0239014Y0373407D01*
X0238931Y0373379D01*
X0238850Y0373348D01*
X0238770Y0373313D01*
X0238692Y0373274D01*
X0238615Y0373232D01*
X0238540Y0373187D01*
X0238468Y0373138D01*
X0238397Y0373087D01*
X0238329Y0373032D01*
X0238264Y0372975D01*
X0238201Y0372914D01*
X0238140Y0372851D01*
X0238083Y0372786D01*
X0238028Y0372718D01*
X0237977Y0372647D01*
X0237928Y0372575D01*
X0237883Y0372500D01*
X0237841Y0372423D01*
X0237802Y0372345D01*
X0237767Y0372265D01*
X0237736Y0372184D01*
X0237708Y0372101D01*
X0237683Y0372018D01*
X0237662Y0371933D01*
X0237645Y0371847D01*
X0237632Y0371761D01*
X0237623Y0371674D01*
X0237617Y0371587D01*
X0237615Y0371500D01*
X0241115Y0369000D02*
X0244815Y0369000D01*
X0247315Y0369000D02*
X0251115Y0369000D01*
X0254615Y0371500D02*
X0254613Y0371587D01*
X0254607Y0371674D01*
X0254598Y0371761D01*
X0254585Y0371847D01*
X0254568Y0371933D01*
X0254547Y0372018D01*
X0254522Y0372101D01*
X0254494Y0372184D01*
X0254463Y0372265D01*
X0254428Y0372345D01*
X0254389Y0372423D01*
X0254347Y0372500D01*
X0254302Y0372575D01*
X0254253Y0372647D01*
X0254202Y0372718D01*
X0254147Y0372786D01*
X0254090Y0372851D01*
X0254029Y0372914D01*
X0253966Y0372975D01*
X0253901Y0373032D01*
X0253833Y0373087D01*
X0253762Y0373138D01*
X0253690Y0373187D01*
X0253615Y0373232D01*
X0253538Y0373274D01*
X0253460Y0373313D01*
X0253380Y0373348D01*
X0253299Y0373379D01*
X0253216Y0373407D01*
X0253133Y0373432D01*
X0253048Y0373453D01*
X0252962Y0373470D01*
X0252876Y0373483D01*
X0252789Y0373492D01*
X0252702Y0373498D01*
X0252615Y0373500D01*
X0254615Y0366500D02*
X0254613Y0366413D01*
X0254607Y0366326D01*
X0254598Y0366239D01*
X0254585Y0366153D01*
X0254568Y0366067D01*
X0254547Y0365982D01*
X0254522Y0365899D01*
X0254494Y0365816D01*
X0254463Y0365735D01*
X0254428Y0365655D01*
X0254389Y0365577D01*
X0254347Y0365500D01*
X0254302Y0365425D01*
X0254253Y0365353D01*
X0254202Y0365282D01*
X0254147Y0365214D01*
X0254090Y0365149D01*
X0254029Y0365086D01*
X0253966Y0365025D01*
X0253901Y0364968D01*
X0253833Y0364913D01*
X0253762Y0364862D01*
X0253690Y0364813D01*
X0253615Y0364768D01*
X0253538Y0364726D01*
X0253460Y0364687D01*
X0253380Y0364652D01*
X0253299Y0364621D01*
X0253216Y0364593D01*
X0253133Y0364568D01*
X0253048Y0364547D01*
X0252962Y0364530D01*
X0252876Y0364517D01*
X0252789Y0364508D01*
X0252702Y0364502D01*
X0252615Y0364500D01*
X0239615Y0364500D01*
X0239528Y0364502D01*
X0239441Y0364508D01*
X0239354Y0364517D01*
X0239268Y0364530D01*
X0239182Y0364547D01*
X0239097Y0364568D01*
X0239014Y0364593D01*
X0238931Y0364621D01*
X0238850Y0364652D01*
X0238770Y0364687D01*
X0238692Y0364726D01*
X0238615Y0364768D01*
X0238540Y0364813D01*
X0238468Y0364862D01*
X0238397Y0364913D01*
X0238329Y0364968D01*
X0238264Y0365025D01*
X0238201Y0365086D01*
X0238140Y0365149D01*
X0238083Y0365214D01*
X0238028Y0365282D01*
X0237977Y0365353D01*
X0237928Y0365425D01*
X0237883Y0365500D01*
X0237841Y0365577D01*
X0237802Y0365655D01*
X0237767Y0365735D01*
X0237736Y0365816D01*
X0237708Y0365899D01*
X0237683Y0365982D01*
X0237662Y0366067D01*
X0237645Y0366153D01*
X0237632Y0366239D01*
X0237623Y0366326D01*
X0237617Y0366413D01*
X0237615Y0366500D01*
X0238115Y0338000D02*
X0238115Y0330500D01*
X0237989Y0330498D01*
X0237864Y0330492D01*
X0237739Y0330482D01*
X0237614Y0330468D01*
X0237489Y0330451D01*
X0237365Y0330429D01*
X0237242Y0330404D01*
X0237120Y0330374D01*
X0236999Y0330341D01*
X0236879Y0330304D01*
X0236760Y0330264D01*
X0236643Y0330219D01*
X0236526Y0330171D01*
X0236412Y0330119D01*
X0236299Y0330064D01*
X0236188Y0330005D01*
X0236079Y0329943D01*
X0235972Y0329877D01*
X0235867Y0329808D01*
X0235764Y0329736D01*
X0235663Y0329661D01*
X0235565Y0329582D01*
X0235470Y0329500D01*
X0235377Y0329416D01*
X0235287Y0329328D01*
X0235199Y0329238D01*
X0235115Y0329145D01*
X0235033Y0329050D01*
X0234954Y0328952D01*
X0234879Y0328851D01*
X0234807Y0328748D01*
X0234738Y0328643D01*
X0234672Y0328536D01*
X0234610Y0328427D01*
X0234551Y0328316D01*
X0234496Y0328203D01*
X0234444Y0328089D01*
X0234396Y0327972D01*
X0234351Y0327855D01*
X0234311Y0327736D01*
X0234274Y0327616D01*
X0234241Y0327495D01*
X0234211Y0327373D01*
X0234186Y0327250D01*
X0234164Y0327126D01*
X0234147Y0327001D01*
X0234133Y0326876D01*
X0234123Y0326751D01*
X0234117Y0326626D01*
X0234115Y0326500D01*
X0234117Y0326374D01*
X0234123Y0326249D01*
X0234133Y0326124D01*
X0234147Y0325999D01*
X0234164Y0325874D01*
X0234186Y0325750D01*
X0234211Y0325627D01*
X0234241Y0325505D01*
X0234274Y0325384D01*
X0234311Y0325264D01*
X0234351Y0325145D01*
X0234396Y0325028D01*
X0234444Y0324911D01*
X0234496Y0324797D01*
X0234551Y0324684D01*
X0234610Y0324573D01*
X0234672Y0324464D01*
X0234738Y0324357D01*
X0234807Y0324252D01*
X0234879Y0324149D01*
X0234954Y0324048D01*
X0235033Y0323950D01*
X0235115Y0323855D01*
X0235199Y0323762D01*
X0235287Y0323672D01*
X0235377Y0323584D01*
X0235470Y0323500D01*
X0235565Y0323418D01*
X0235663Y0323339D01*
X0235764Y0323264D01*
X0235867Y0323192D01*
X0235972Y0323123D01*
X0236079Y0323057D01*
X0236188Y0322995D01*
X0236299Y0322936D01*
X0236412Y0322881D01*
X0236526Y0322829D01*
X0236643Y0322781D01*
X0236760Y0322736D01*
X0236879Y0322696D01*
X0236999Y0322659D01*
X0237120Y0322626D01*
X0237242Y0322596D01*
X0237365Y0322571D01*
X0237489Y0322549D01*
X0237614Y0322532D01*
X0237739Y0322518D01*
X0237864Y0322508D01*
X0237989Y0322502D01*
X0238115Y0322500D01*
X0238115Y0315000D01*
X0188115Y0315000D01*
X0188115Y0338000D01*
X0238115Y0338000D01*
X0294115Y0297000D02*
X0294115Y0290000D01*
X0294117Y0289940D01*
X0294122Y0289879D01*
X0294131Y0289820D01*
X0294144Y0289761D01*
X0294160Y0289702D01*
X0294180Y0289645D01*
X0294203Y0289590D01*
X0294230Y0289535D01*
X0294259Y0289483D01*
X0294292Y0289432D01*
X0294328Y0289383D01*
X0294366Y0289337D01*
X0294408Y0289293D01*
X0294452Y0289251D01*
X0294498Y0289213D01*
X0294547Y0289177D01*
X0294598Y0289144D01*
X0294650Y0289115D01*
X0294705Y0289088D01*
X0294760Y0289065D01*
X0294817Y0289045D01*
X0294876Y0289029D01*
X0294935Y0289016D01*
X0294994Y0289007D01*
X0295055Y0289002D01*
X0295115Y0289000D01*
X0296615Y0289000D01*
X0297115Y0289500D01*
X0316115Y0289500D01*
X0316615Y0289000D01*
X0318115Y0289000D01*
X0318175Y0289002D01*
X0318236Y0289007D01*
X0318295Y0289016D01*
X0318354Y0289029D01*
X0318413Y0289045D01*
X0318470Y0289065D01*
X0318525Y0289088D01*
X0318580Y0289115D01*
X0318632Y0289144D01*
X0318683Y0289177D01*
X0318732Y0289213D01*
X0318778Y0289251D01*
X0318822Y0289293D01*
X0318864Y0289337D01*
X0318902Y0289383D01*
X0318938Y0289432D01*
X0318971Y0289483D01*
X0319000Y0289535D01*
X0319027Y0289590D01*
X0319050Y0289645D01*
X0319070Y0289702D01*
X0319086Y0289761D01*
X0319099Y0289820D01*
X0319108Y0289879D01*
X0319113Y0289940D01*
X0319115Y0290000D01*
X0319115Y0297000D01*
X0319113Y0297060D01*
X0319108Y0297121D01*
X0319099Y0297180D01*
X0319086Y0297239D01*
X0319070Y0297298D01*
X0319050Y0297355D01*
X0319027Y0297410D01*
X0319000Y0297465D01*
X0318971Y0297517D01*
X0318938Y0297568D01*
X0318902Y0297617D01*
X0318864Y0297663D01*
X0318822Y0297707D01*
X0318778Y0297749D01*
X0318732Y0297787D01*
X0318683Y0297823D01*
X0318632Y0297856D01*
X0318580Y0297885D01*
X0318525Y0297912D01*
X0318470Y0297935D01*
X0318413Y0297955D01*
X0318354Y0297971D01*
X0318295Y0297984D01*
X0318236Y0297993D01*
X0318175Y0297998D01*
X0318115Y0298000D01*
X0316615Y0298000D01*
X0316115Y0297500D01*
X0297115Y0297500D01*
X0296615Y0298000D01*
X0295115Y0298000D01*
X0295055Y0297998D01*
X0294994Y0297993D01*
X0294935Y0297984D01*
X0294876Y0297971D01*
X0294817Y0297955D01*
X0294760Y0297935D01*
X0294705Y0297912D01*
X0294650Y0297885D01*
X0294598Y0297856D01*
X0294547Y0297823D01*
X0294498Y0297787D01*
X0294452Y0297749D01*
X0294408Y0297707D01*
X0294366Y0297663D01*
X0294328Y0297617D01*
X0294292Y0297568D01*
X0294259Y0297517D01*
X0294230Y0297465D01*
X0294203Y0297410D01*
X0294180Y0297355D01*
X0294160Y0297298D01*
X0294144Y0297239D01*
X0294131Y0297180D01*
X0294122Y0297121D01*
X0294117Y0297060D01*
X0294115Y0297000D01*
X0295115Y0278500D02*
X0296615Y0278500D01*
X0297115Y0278000D01*
X0316115Y0278000D01*
X0316615Y0278500D01*
X0318115Y0278500D01*
X0318175Y0278498D01*
X0318236Y0278493D01*
X0318295Y0278484D01*
X0318354Y0278471D01*
X0318413Y0278455D01*
X0318470Y0278435D01*
X0318525Y0278412D01*
X0318580Y0278385D01*
X0318632Y0278356D01*
X0318683Y0278323D01*
X0318732Y0278287D01*
X0318778Y0278249D01*
X0318822Y0278207D01*
X0318864Y0278163D01*
X0318902Y0278117D01*
X0318938Y0278068D01*
X0318971Y0278017D01*
X0319000Y0277965D01*
X0319027Y0277910D01*
X0319050Y0277855D01*
X0319070Y0277798D01*
X0319086Y0277739D01*
X0319099Y0277680D01*
X0319108Y0277621D01*
X0319113Y0277560D01*
X0319115Y0277500D01*
X0319115Y0270500D01*
X0319113Y0270440D01*
X0319108Y0270379D01*
X0319099Y0270320D01*
X0319086Y0270261D01*
X0319070Y0270202D01*
X0319050Y0270145D01*
X0319027Y0270090D01*
X0319000Y0270035D01*
X0318971Y0269983D01*
X0318938Y0269932D01*
X0318902Y0269883D01*
X0318864Y0269837D01*
X0318822Y0269793D01*
X0318778Y0269751D01*
X0318732Y0269713D01*
X0318683Y0269677D01*
X0318632Y0269644D01*
X0318580Y0269615D01*
X0318525Y0269588D01*
X0318470Y0269565D01*
X0318413Y0269545D01*
X0318354Y0269529D01*
X0318295Y0269516D01*
X0318236Y0269507D01*
X0318175Y0269502D01*
X0318115Y0269500D01*
X0316615Y0269500D01*
X0316115Y0270000D01*
X0297115Y0270000D01*
X0296615Y0269500D01*
X0295115Y0269500D01*
X0295055Y0269502D01*
X0294994Y0269507D01*
X0294935Y0269516D01*
X0294876Y0269529D01*
X0294817Y0269545D01*
X0294760Y0269565D01*
X0294705Y0269588D01*
X0294650Y0269615D01*
X0294598Y0269644D01*
X0294547Y0269677D01*
X0294498Y0269713D01*
X0294452Y0269751D01*
X0294408Y0269793D01*
X0294366Y0269837D01*
X0294328Y0269883D01*
X0294292Y0269932D01*
X0294259Y0269983D01*
X0294230Y0270035D01*
X0294203Y0270090D01*
X0294180Y0270145D01*
X0294160Y0270202D01*
X0294144Y0270261D01*
X0294131Y0270320D01*
X0294122Y0270379D01*
X0294117Y0270440D01*
X0294115Y0270500D01*
X0294115Y0277500D01*
X0294117Y0277560D01*
X0294122Y0277621D01*
X0294131Y0277680D01*
X0294144Y0277739D01*
X0294160Y0277798D01*
X0294180Y0277855D01*
X0294203Y0277910D01*
X0294230Y0277965D01*
X0294259Y0278017D01*
X0294292Y0278068D01*
X0294328Y0278117D01*
X0294366Y0278163D01*
X0294408Y0278207D01*
X0294452Y0278249D01*
X0294498Y0278287D01*
X0294547Y0278323D01*
X0294598Y0278356D01*
X0294650Y0278385D01*
X0294705Y0278412D01*
X0294760Y0278435D01*
X0294817Y0278455D01*
X0294876Y0278471D01*
X0294935Y0278484D01*
X0294994Y0278493D01*
X0295055Y0278498D01*
X0295115Y0278500D01*
X0296115Y0257500D02*
X0309115Y0257500D01*
X0309202Y0257498D01*
X0309289Y0257492D01*
X0309376Y0257483D01*
X0309462Y0257470D01*
X0309548Y0257453D01*
X0309633Y0257432D01*
X0309716Y0257407D01*
X0309799Y0257379D01*
X0309880Y0257348D01*
X0309960Y0257313D01*
X0310038Y0257274D01*
X0310115Y0257232D01*
X0310190Y0257187D01*
X0310262Y0257138D01*
X0310333Y0257087D01*
X0310401Y0257032D01*
X0310466Y0256975D01*
X0310529Y0256914D01*
X0310590Y0256851D01*
X0310647Y0256786D01*
X0310702Y0256718D01*
X0310753Y0256647D01*
X0310802Y0256575D01*
X0310847Y0256500D01*
X0310889Y0256423D01*
X0310928Y0256345D01*
X0310963Y0256265D01*
X0310994Y0256184D01*
X0311022Y0256101D01*
X0311047Y0256018D01*
X0311068Y0255933D01*
X0311085Y0255847D01*
X0311098Y0255761D01*
X0311107Y0255674D01*
X0311113Y0255587D01*
X0311115Y0255500D01*
X0307615Y0253000D02*
X0303815Y0253000D01*
X0301315Y0253000D02*
X0297615Y0253000D01*
X0294115Y0255500D02*
X0294117Y0255587D01*
X0294123Y0255674D01*
X0294132Y0255761D01*
X0294145Y0255847D01*
X0294162Y0255933D01*
X0294183Y0256018D01*
X0294208Y0256101D01*
X0294236Y0256184D01*
X0294267Y0256265D01*
X0294302Y0256345D01*
X0294341Y0256423D01*
X0294383Y0256500D01*
X0294428Y0256575D01*
X0294477Y0256647D01*
X0294528Y0256718D01*
X0294583Y0256786D01*
X0294640Y0256851D01*
X0294701Y0256914D01*
X0294764Y0256975D01*
X0294829Y0257032D01*
X0294897Y0257087D01*
X0294968Y0257138D01*
X0295040Y0257187D01*
X0295115Y0257232D01*
X0295192Y0257274D01*
X0295270Y0257313D01*
X0295350Y0257348D01*
X0295431Y0257379D01*
X0295514Y0257407D01*
X0295597Y0257432D01*
X0295682Y0257453D01*
X0295768Y0257470D01*
X0295854Y0257483D01*
X0295941Y0257492D01*
X0296028Y0257498D01*
X0296115Y0257500D01*
X0294115Y0250500D02*
X0294117Y0250413D01*
X0294123Y0250326D01*
X0294132Y0250239D01*
X0294145Y0250153D01*
X0294162Y0250067D01*
X0294183Y0249982D01*
X0294208Y0249899D01*
X0294236Y0249816D01*
X0294267Y0249735D01*
X0294302Y0249655D01*
X0294341Y0249577D01*
X0294383Y0249500D01*
X0294428Y0249425D01*
X0294477Y0249353D01*
X0294528Y0249282D01*
X0294583Y0249214D01*
X0294640Y0249149D01*
X0294701Y0249086D01*
X0294764Y0249025D01*
X0294829Y0248968D01*
X0294897Y0248913D01*
X0294968Y0248862D01*
X0295040Y0248813D01*
X0295115Y0248768D01*
X0295192Y0248726D01*
X0295270Y0248687D01*
X0295350Y0248652D01*
X0295431Y0248621D01*
X0295514Y0248593D01*
X0295597Y0248568D01*
X0295682Y0248547D01*
X0295768Y0248530D01*
X0295854Y0248517D01*
X0295941Y0248508D01*
X0296028Y0248502D01*
X0296115Y0248500D01*
X0309115Y0248500D01*
X0309202Y0248502D01*
X0309289Y0248508D01*
X0309376Y0248517D01*
X0309462Y0248530D01*
X0309548Y0248547D01*
X0309633Y0248568D01*
X0309716Y0248593D01*
X0309799Y0248621D01*
X0309880Y0248652D01*
X0309960Y0248687D01*
X0310038Y0248726D01*
X0310115Y0248768D01*
X0310190Y0248813D01*
X0310262Y0248862D01*
X0310333Y0248913D01*
X0310401Y0248968D01*
X0310466Y0249025D01*
X0310529Y0249086D01*
X0310590Y0249149D01*
X0310647Y0249214D01*
X0310702Y0249282D01*
X0310753Y0249353D01*
X0310802Y0249425D01*
X0310847Y0249500D01*
X0310889Y0249577D01*
X0310928Y0249655D01*
X0310963Y0249735D01*
X0310994Y0249816D01*
X0311022Y0249899D01*
X0311047Y0249982D01*
X0311068Y0250067D01*
X0311085Y0250153D01*
X0311098Y0250239D01*
X0311107Y0250326D01*
X0311113Y0250413D01*
X0311115Y0250500D01*
X0300615Y0218000D02*
X0292615Y0218000D01*
X0292615Y0219500D01*
X0293115Y0220000D01*
X0293115Y0216000D01*
X0292615Y0216500D01*
X0292615Y0218000D01*
X0291115Y0218000D01*
X0291615Y0217500D01*
X0292115Y0217000D01*
X0292615Y0216500D01*
X0292115Y0217000D02*
X0292115Y0219000D01*
X0291615Y0218500D01*
X0291615Y0217500D01*
X0291115Y0218000D02*
X0291615Y0218500D01*
X0292115Y0219000D02*
X0292615Y0219500D01*
X0275615Y0212500D02*
X0353115Y0212500D01*
X0353115Y0232500D01*
X0275615Y0232500D01*
X0275615Y0212500D01*
X0262615Y0191500D02*
X0262615Y0168500D01*
X0222615Y0168500D01*
X0222615Y0176000D01*
X0222741Y0176002D01*
X0222866Y0176008D01*
X0222991Y0176018D01*
X0223116Y0176032D01*
X0223241Y0176049D01*
X0223365Y0176071D01*
X0223488Y0176096D01*
X0223610Y0176126D01*
X0223731Y0176159D01*
X0223851Y0176196D01*
X0223970Y0176236D01*
X0224087Y0176281D01*
X0224204Y0176329D01*
X0224318Y0176381D01*
X0224431Y0176436D01*
X0224542Y0176495D01*
X0224651Y0176557D01*
X0224758Y0176623D01*
X0224863Y0176692D01*
X0224966Y0176764D01*
X0225067Y0176839D01*
X0225165Y0176918D01*
X0225260Y0177000D01*
X0225353Y0177084D01*
X0225443Y0177172D01*
X0225531Y0177262D01*
X0225615Y0177355D01*
X0225697Y0177450D01*
X0225776Y0177548D01*
X0225851Y0177649D01*
X0225923Y0177752D01*
X0225992Y0177857D01*
X0226058Y0177964D01*
X0226120Y0178073D01*
X0226179Y0178184D01*
X0226234Y0178297D01*
X0226286Y0178411D01*
X0226334Y0178528D01*
X0226379Y0178645D01*
X0226419Y0178764D01*
X0226456Y0178884D01*
X0226489Y0179005D01*
X0226519Y0179127D01*
X0226544Y0179250D01*
X0226566Y0179374D01*
X0226583Y0179499D01*
X0226597Y0179624D01*
X0226607Y0179749D01*
X0226613Y0179874D01*
X0226615Y0180000D01*
X0226613Y0180126D01*
X0226607Y0180251D01*
X0226597Y0180376D01*
X0226583Y0180501D01*
X0226566Y0180626D01*
X0226544Y0180750D01*
X0226519Y0180873D01*
X0226489Y0180995D01*
X0226456Y0181116D01*
X0226419Y0181236D01*
X0226379Y0181355D01*
X0226334Y0181472D01*
X0226286Y0181589D01*
X0226234Y0181703D01*
X0226179Y0181816D01*
X0226120Y0181927D01*
X0226058Y0182036D01*
X0225992Y0182143D01*
X0225923Y0182248D01*
X0225851Y0182351D01*
X0225776Y0182452D01*
X0225697Y0182550D01*
X0225615Y0182645D01*
X0225531Y0182738D01*
X0225443Y0182828D01*
X0225353Y0182916D01*
X0225260Y0183000D01*
X0225165Y0183082D01*
X0225067Y0183161D01*
X0224966Y0183236D01*
X0224863Y0183308D01*
X0224758Y0183377D01*
X0224651Y0183443D01*
X0224542Y0183505D01*
X0224431Y0183564D01*
X0224318Y0183619D01*
X0224204Y0183671D01*
X0224087Y0183719D01*
X0223970Y0183764D01*
X0223851Y0183804D01*
X0223731Y0183841D01*
X0223610Y0183874D01*
X0223488Y0183904D01*
X0223365Y0183929D01*
X0223241Y0183951D01*
X0223116Y0183968D01*
X0222991Y0183982D01*
X0222866Y0183992D01*
X0222741Y0183998D01*
X0222615Y0184000D01*
X0222615Y0191500D01*
X0262615Y0191500D01*
X0162615Y0231000D02*
X0162615Y0238000D01*
X0162613Y0238060D01*
X0162608Y0238121D01*
X0162599Y0238180D01*
X0162586Y0238239D01*
X0162570Y0238298D01*
X0162550Y0238355D01*
X0162527Y0238410D01*
X0162500Y0238465D01*
X0162471Y0238517D01*
X0162438Y0238568D01*
X0162402Y0238617D01*
X0162364Y0238663D01*
X0162322Y0238707D01*
X0162278Y0238749D01*
X0162232Y0238787D01*
X0162183Y0238823D01*
X0162132Y0238856D01*
X0162080Y0238885D01*
X0162025Y0238912D01*
X0161970Y0238935D01*
X0161913Y0238955D01*
X0161854Y0238971D01*
X0161795Y0238984D01*
X0161736Y0238993D01*
X0161675Y0238998D01*
X0161615Y0239000D01*
X0160115Y0239000D01*
X0159615Y0238500D01*
X0140615Y0238500D01*
X0140115Y0239000D01*
X0138615Y0239000D01*
X0138555Y0238998D01*
X0138494Y0238993D01*
X0138435Y0238984D01*
X0138376Y0238971D01*
X0138317Y0238955D01*
X0138260Y0238935D01*
X0138205Y0238912D01*
X0138150Y0238885D01*
X0138098Y0238856D01*
X0138047Y0238823D01*
X0137998Y0238787D01*
X0137952Y0238749D01*
X0137908Y0238707D01*
X0137866Y0238663D01*
X0137828Y0238617D01*
X0137792Y0238568D01*
X0137759Y0238517D01*
X0137730Y0238465D01*
X0137703Y0238410D01*
X0137680Y0238355D01*
X0137660Y0238298D01*
X0137644Y0238239D01*
X0137631Y0238180D01*
X0137622Y0238121D01*
X0137617Y0238060D01*
X0137615Y0238000D01*
X0137615Y0231000D01*
X0137617Y0230940D01*
X0137622Y0230879D01*
X0137631Y0230820D01*
X0137644Y0230761D01*
X0137660Y0230702D01*
X0137680Y0230645D01*
X0137703Y0230590D01*
X0137730Y0230535D01*
X0137759Y0230483D01*
X0137792Y0230432D01*
X0137828Y0230383D01*
X0137866Y0230337D01*
X0137908Y0230293D01*
X0137952Y0230251D01*
X0137998Y0230213D01*
X0138047Y0230177D01*
X0138098Y0230144D01*
X0138150Y0230115D01*
X0138205Y0230088D01*
X0138260Y0230065D01*
X0138317Y0230045D01*
X0138376Y0230029D01*
X0138435Y0230016D01*
X0138494Y0230007D01*
X0138555Y0230002D01*
X0138615Y0230000D01*
X0140115Y0230000D01*
X0140615Y0230500D01*
X0159615Y0230500D01*
X0160115Y0230000D01*
X0161615Y0230000D01*
X0161675Y0230002D01*
X0161736Y0230007D01*
X0161795Y0230016D01*
X0161854Y0230029D01*
X0161913Y0230045D01*
X0161970Y0230065D01*
X0162025Y0230088D01*
X0162080Y0230115D01*
X0162132Y0230144D01*
X0162183Y0230177D01*
X0162232Y0230213D01*
X0162278Y0230251D01*
X0162322Y0230293D01*
X0162364Y0230337D01*
X0162402Y0230383D01*
X0162438Y0230432D01*
X0162471Y0230483D01*
X0162500Y0230535D01*
X0162527Y0230590D01*
X0162550Y0230645D01*
X0162570Y0230702D01*
X0162586Y0230761D01*
X0162599Y0230820D01*
X0162608Y0230879D01*
X0162613Y0230940D01*
X0162615Y0231000D01*
X0161615Y0261000D02*
X0160115Y0261000D01*
X0159615Y0261500D01*
X0140615Y0261500D01*
X0140115Y0261000D01*
X0138615Y0261000D01*
X0138555Y0261002D01*
X0138494Y0261007D01*
X0138435Y0261016D01*
X0138376Y0261029D01*
X0138317Y0261045D01*
X0138260Y0261065D01*
X0138205Y0261088D01*
X0138150Y0261115D01*
X0138098Y0261144D01*
X0138047Y0261177D01*
X0137998Y0261213D01*
X0137952Y0261251D01*
X0137908Y0261293D01*
X0137866Y0261337D01*
X0137828Y0261383D01*
X0137792Y0261432D01*
X0137759Y0261483D01*
X0137730Y0261535D01*
X0137703Y0261590D01*
X0137680Y0261645D01*
X0137660Y0261702D01*
X0137644Y0261761D01*
X0137631Y0261820D01*
X0137622Y0261879D01*
X0137617Y0261940D01*
X0137615Y0262000D01*
X0137615Y0269000D01*
X0137617Y0269060D01*
X0137622Y0269121D01*
X0137631Y0269180D01*
X0137644Y0269239D01*
X0137660Y0269298D01*
X0137680Y0269355D01*
X0137703Y0269410D01*
X0137730Y0269465D01*
X0137759Y0269517D01*
X0137792Y0269568D01*
X0137828Y0269617D01*
X0137866Y0269663D01*
X0137908Y0269707D01*
X0137952Y0269749D01*
X0137998Y0269787D01*
X0138047Y0269823D01*
X0138098Y0269856D01*
X0138150Y0269885D01*
X0138205Y0269912D01*
X0138260Y0269935D01*
X0138317Y0269955D01*
X0138376Y0269971D01*
X0138435Y0269984D01*
X0138494Y0269993D01*
X0138555Y0269998D01*
X0138615Y0270000D01*
X0140115Y0270000D01*
X0140615Y0269500D01*
X0159615Y0269500D01*
X0160115Y0270000D01*
X0161615Y0270000D01*
X0161675Y0269998D01*
X0161736Y0269993D01*
X0161795Y0269984D01*
X0161854Y0269971D01*
X0161913Y0269955D01*
X0161970Y0269935D01*
X0162025Y0269912D01*
X0162080Y0269885D01*
X0162132Y0269856D01*
X0162183Y0269823D01*
X0162232Y0269787D01*
X0162278Y0269749D01*
X0162322Y0269707D01*
X0162364Y0269663D01*
X0162402Y0269617D01*
X0162438Y0269568D01*
X0162471Y0269517D01*
X0162500Y0269465D01*
X0162527Y0269410D01*
X0162550Y0269355D01*
X0162570Y0269298D01*
X0162586Y0269239D01*
X0162599Y0269180D01*
X0162608Y0269121D01*
X0162613Y0269060D01*
X0162615Y0269000D01*
X0162615Y0262000D01*
X0162613Y0261940D01*
X0162608Y0261879D01*
X0162599Y0261820D01*
X0162586Y0261761D01*
X0162570Y0261702D01*
X0162550Y0261645D01*
X0162527Y0261590D01*
X0162500Y0261535D01*
X0162471Y0261483D01*
X0162438Y0261432D01*
X0162402Y0261383D01*
X0162364Y0261337D01*
X0162322Y0261293D01*
X0162278Y0261251D01*
X0162232Y0261213D01*
X0162183Y0261177D01*
X0162132Y0261144D01*
X0162080Y0261115D01*
X0162025Y0261088D01*
X0161970Y0261065D01*
X0161913Y0261045D01*
X0161854Y0261029D01*
X0161795Y0261016D01*
X0161736Y0261007D01*
X0161675Y0261002D01*
X0161615Y0261000D01*
X0156115Y0293500D02*
X0156115Y0316500D01*
X0106115Y0316500D01*
X0106115Y0309000D01*
X0106241Y0308998D01*
X0106366Y0308992D01*
X0106491Y0308982D01*
X0106616Y0308968D01*
X0106741Y0308951D01*
X0106865Y0308929D01*
X0106988Y0308904D01*
X0107110Y0308874D01*
X0107231Y0308841D01*
X0107351Y0308804D01*
X0107470Y0308764D01*
X0107587Y0308719D01*
X0107704Y0308671D01*
X0107818Y0308619D01*
X0107931Y0308564D01*
X0108042Y0308505D01*
X0108151Y0308443D01*
X0108258Y0308377D01*
X0108363Y0308308D01*
X0108466Y0308236D01*
X0108567Y0308161D01*
X0108665Y0308082D01*
X0108760Y0308000D01*
X0108853Y0307916D01*
X0108943Y0307828D01*
X0109031Y0307738D01*
X0109115Y0307645D01*
X0109197Y0307550D01*
X0109276Y0307452D01*
X0109351Y0307351D01*
X0109423Y0307248D01*
X0109492Y0307143D01*
X0109558Y0307036D01*
X0109620Y0306927D01*
X0109679Y0306816D01*
X0109734Y0306703D01*
X0109786Y0306589D01*
X0109834Y0306472D01*
X0109879Y0306355D01*
X0109919Y0306236D01*
X0109956Y0306116D01*
X0109989Y0305995D01*
X0110019Y0305873D01*
X0110044Y0305750D01*
X0110066Y0305626D01*
X0110083Y0305501D01*
X0110097Y0305376D01*
X0110107Y0305251D01*
X0110113Y0305126D01*
X0110115Y0305000D01*
X0110113Y0304874D01*
X0110107Y0304749D01*
X0110097Y0304624D01*
X0110083Y0304499D01*
X0110066Y0304374D01*
X0110044Y0304250D01*
X0110019Y0304127D01*
X0109989Y0304005D01*
X0109956Y0303884D01*
X0109919Y0303764D01*
X0109879Y0303645D01*
X0109834Y0303528D01*
X0109786Y0303411D01*
X0109734Y0303297D01*
X0109679Y0303184D01*
X0109620Y0303073D01*
X0109558Y0302964D01*
X0109492Y0302857D01*
X0109423Y0302752D01*
X0109351Y0302649D01*
X0109276Y0302548D01*
X0109197Y0302450D01*
X0109115Y0302355D01*
X0109031Y0302262D01*
X0108943Y0302172D01*
X0108853Y0302084D01*
X0108760Y0302000D01*
X0108665Y0301918D01*
X0108567Y0301839D01*
X0108466Y0301764D01*
X0108363Y0301692D01*
X0108258Y0301623D01*
X0108151Y0301557D01*
X0108042Y0301495D01*
X0107931Y0301436D01*
X0107818Y0301381D01*
X0107704Y0301329D01*
X0107587Y0301281D01*
X0107470Y0301236D01*
X0107351Y0301196D01*
X0107231Y0301159D01*
X0107110Y0301126D01*
X0106988Y0301096D01*
X0106865Y0301071D01*
X0106741Y0301049D01*
X0106616Y0301032D01*
X0106491Y0301018D01*
X0106366Y0301008D01*
X0106241Y0301002D01*
X0106115Y0301000D01*
X0106115Y0293500D01*
X0156115Y0293500D01*
X0121615Y0255000D02*
X0108615Y0255000D01*
X0108528Y0254998D01*
X0108441Y0254992D01*
X0108354Y0254983D01*
X0108268Y0254970D01*
X0108182Y0254953D01*
X0108097Y0254932D01*
X0108014Y0254907D01*
X0107931Y0254879D01*
X0107850Y0254848D01*
X0107770Y0254813D01*
X0107692Y0254774D01*
X0107615Y0254732D01*
X0107540Y0254687D01*
X0107468Y0254638D01*
X0107397Y0254587D01*
X0107329Y0254532D01*
X0107264Y0254475D01*
X0107201Y0254414D01*
X0107140Y0254351D01*
X0107083Y0254286D01*
X0107028Y0254218D01*
X0106977Y0254147D01*
X0106928Y0254075D01*
X0106883Y0254000D01*
X0106841Y0253923D01*
X0106802Y0253845D01*
X0106767Y0253765D01*
X0106736Y0253684D01*
X0106708Y0253601D01*
X0106683Y0253518D01*
X0106662Y0253433D01*
X0106645Y0253347D01*
X0106632Y0253261D01*
X0106623Y0253174D01*
X0106617Y0253087D01*
X0106615Y0253000D01*
X0110115Y0250500D02*
X0113815Y0250500D01*
X0116315Y0250500D02*
X0120115Y0250500D01*
X0123615Y0253000D02*
X0123613Y0253087D01*
X0123607Y0253174D01*
X0123598Y0253261D01*
X0123585Y0253347D01*
X0123568Y0253433D01*
X0123547Y0253518D01*
X0123522Y0253601D01*
X0123494Y0253684D01*
X0123463Y0253765D01*
X0123428Y0253845D01*
X0123389Y0253923D01*
X0123347Y0254000D01*
X0123302Y0254075D01*
X0123253Y0254147D01*
X0123202Y0254218D01*
X0123147Y0254286D01*
X0123090Y0254351D01*
X0123029Y0254414D01*
X0122966Y0254475D01*
X0122901Y0254532D01*
X0122833Y0254587D01*
X0122762Y0254638D01*
X0122690Y0254687D01*
X0122615Y0254732D01*
X0122538Y0254774D01*
X0122460Y0254813D01*
X0122380Y0254848D01*
X0122299Y0254879D01*
X0122216Y0254907D01*
X0122133Y0254932D01*
X0122048Y0254953D01*
X0121962Y0254970D01*
X0121876Y0254983D01*
X0121789Y0254992D01*
X0121702Y0254998D01*
X0121615Y0255000D01*
X0123615Y0248000D02*
X0123613Y0247913D01*
X0123607Y0247826D01*
X0123598Y0247739D01*
X0123585Y0247653D01*
X0123568Y0247567D01*
X0123547Y0247482D01*
X0123522Y0247399D01*
X0123494Y0247316D01*
X0123463Y0247235D01*
X0123428Y0247155D01*
X0123389Y0247077D01*
X0123347Y0247000D01*
X0123302Y0246925D01*
X0123253Y0246853D01*
X0123202Y0246782D01*
X0123147Y0246714D01*
X0123090Y0246649D01*
X0123029Y0246586D01*
X0122966Y0246525D01*
X0122901Y0246468D01*
X0122833Y0246413D01*
X0122762Y0246362D01*
X0122690Y0246313D01*
X0122615Y0246268D01*
X0122538Y0246226D01*
X0122460Y0246187D01*
X0122380Y0246152D01*
X0122299Y0246121D01*
X0122216Y0246093D01*
X0122133Y0246068D01*
X0122048Y0246047D01*
X0121962Y0246030D01*
X0121876Y0246017D01*
X0121789Y0246008D01*
X0121702Y0246002D01*
X0121615Y0246000D01*
X0108615Y0246000D01*
X0108528Y0246002D01*
X0108441Y0246008D01*
X0108354Y0246017D01*
X0108268Y0246030D01*
X0108182Y0246047D01*
X0108097Y0246068D01*
X0108014Y0246093D01*
X0107931Y0246121D01*
X0107850Y0246152D01*
X0107770Y0246187D01*
X0107692Y0246226D01*
X0107615Y0246268D01*
X0107540Y0246313D01*
X0107468Y0246362D01*
X0107397Y0246413D01*
X0107329Y0246468D01*
X0107264Y0246525D01*
X0107201Y0246586D01*
X0107140Y0246649D01*
X0107083Y0246714D01*
X0107028Y0246782D01*
X0106977Y0246853D01*
X0106928Y0246925D01*
X0106883Y0247000D01*
X0106841Y0247077D01*
X0106802Y0247155D01*
X0106767Y0247235D01*
X0106736Y0247316D01*
X0106708Y0247399D01*
X0106683Y0247482D01*
X0106662Y0247567D01*
X0106645Y0247653D01*
X0106632Y0247739D01*
X0106623Y0247826D01*
X0106617Y0247913D01*
X0106615Y0248000D01*
X0094615Y0191000D02*
X0064615Y0191000D01*
X0064615Y0182500D01*
X0064713Y0182498D01*
X0064811Y0182492D01*
X0064909Y0182483D01*
X0065006Y0182469D01*
X0065103Y0182452D01*
X0065199Y0182431D01*
X0065294Y0182406D01*
X0065388Y0182378D01*
X0065480Y0182345D01*
X0065572Y0182310D01*
X0065662Y0182270D01*
X0065750Y0182228D01*
X0065837Y0182181D01*
X0065921Y0182132D01*
X0066004Y0182079D01*
X0066084Y0182023D01*
X0066163Y0181963D01*
X0066239Y0181901D01*
X0066312Y0181836D01*
X0066383Y0181768D01*
X0066451Y0181697D01*
X0066516Y0181624D01*
X0066578Y0181548D01*
X0066638Y0181469D01*
X0066694Y0181389D01*
X0066747Y0181306D01*
X0066796Y0181222D01*
X0066843Y0181135D01*
X0066885Y0181047D01*
X0066925Y0180957D01*
X0066960Y0180865D01*
X0066993Y0180773D01*
X0067021Y0180679D01*
X0067046Y0180584D01*
X0067067Y0180488D01*
X0067084Y0180391D01*
X0067098Y0180294D01*
X0067107Y0180196D01*
X0067113Y0180098D01*
X0067115Y0180000D01*
X0067113Y0179902D01*
X0067107Y0179804D01*
X0067098Y0179706D01*
X0067084Y0179609D01*
X0067067Y0179512D01*
X0067046Y0179416D01*
X0067021Y0179321D01*
X0066993Y0179227D01*
X0066960Y0179135D01*
X0066925Y0179043D01*
X0066885Y0178953D01*
X0066843Y0178865D01*
X0066796Y0178778D01*
X0066747Y0178694D01*
X0066694Y0178611D01*
X0066638Y0178531D01*
X0066578Y0178452D01*
X0066516Y0178376D01*
X0066451Y0178303D01*
X0066383Y0178232D01*
X0066312Y0178164D01*
X0066239Y0178099D01*
X0066163Y0178037D01*
X0066084Y0177977D01*
X0066004Y0177921D01*
X0065921Y0177868D01*
X0065837Y0177819D01*
X0065750Y0177772D01*
X0065662Y0177730D01*
X0065572Y0177690D01*
X0065480Y0177655D01*
X0065388Y0177622D01*
X0065294Y0177594D01*
X0065199Y0177569D01*
X0065103Y0177548D01*
X0065006Y0177531D01*
X0064909Y0177517D01*
X0064811Y0177508D01*
X0064713Y0177502D01*
X0064615Y0177500D01*
X0064615Y0169000D01*
X0094615Y0169000D01*
X0094615Y0191000D01*
X0094615Y0147000D02*
X0095115Y0146500D01*
X0114115Y0146500D01*
X0114615Y0147000D01*
X0116115Y0147000D01*
X0116175Y0146998D01*
X0116236Y0146993D01*
X0116295Y0146984D01*
X0116354Y0146971D01*
X0116413Y0146955D01*
X0116470Y0146935D01*
X0116525Y0146912D01*
X0116580Y0146885D01*
X0116632Y0146856D01*
X0116683Y0146823D01*
X0116732Y0146787D01*
X0116778Y0146749D01*
X0116822Y0146707D01*
X0116864Y0146663D01*
X0116902Y0146617D01*
X0116938Y0146568D01*
X0116971Y0146517D01*
X0117000Y0146465D01*
X0117027Y0146410D01*
X0117050Y0146355D01*
X0117070Y0146298D01*
X0117086Y0146239D01*
X0117099Y0146180D01*
X0117108Y0146121D01*
X0117113Y0146060D01*
X0117115Y0146000D01*
X0117115Y0139000D01*
X0117113Y0138940D01*
X0117108Y0138879D01*
X0117099Y0138820D01*
X0117086Y0138761D01*
X0117070Y0138702D01*
X0117050Y0138645D01*
X0117027Y0138590D01*
X0117000Y0138535D01*
X0116971Y0138483D01*
X0116938Y0138432D01*
X0116902Y0138383D01*
X0116864Y0138337D01*
X0116822Y0138293D01*
X0116778Y0138251D01*
X0116732Y0138213D01*
X0116683Y0138177D01*
X0116632Y0138144D01*
X0116580Y0138115D01*
X0116525Y0138088D01*
X0116470Y0138065D01*
X0116413Y0138045D01*
X0116354Y0138029D01*
X0116295Y0138016D01*
X0116236Y0138007D01*
X0116175Y0138002D01*
X0116115Y0138000D01*
X0114615Y0138000D01*
X0114115Y0138500D01*
X0095115Y0138500D01*
X0094615Y0138000D01*
X0093115Y0138000D01*
X0093055Y0138002D01*
X0092994Y0138007D01*
X0092935Y0138016D01*
X0092876Y0138029D01*
X0092817Y0138045D01*
X0092760Y0138065D01*
X0092705Y0138088D01*
X0092650Y0138115D01*
X0092598Y0138144D01*
X0092547Y0138177D01*
X0092498Y0138213D01*
X0092452Y0138251D01*
X0092408Y0138293D01*
X0092366Y0138337D01*
X0092328Y0138383D01*
X0092292Y0138432D01*
X0092259Y0138483D01*
X0092230Y0138535D01*
X0092203Y0138590D01*
X0092180Y0138645D01*
X0092160Y0138702D01*
X0092144Y0138761D01*
X0092131Y0138820D01*
X0092122Y0138879D01*
X0092117Y0138940D01*
X0092115Y0139000D01*
X0092115Y0146000D01*
X0092117Y0146060D01*
X0092122Y0146121D01*
X0092131Y0146180D01*
X0092144Y0146239D01*
X0092160Y0146298D01*
X0092180Y0146355D01*
X0092203Y0146410D01*
X0092230Y0146465D01*
X0092259Y0146517D01*
X0092292Y0146568D01*
X0092328Y0146617D01*
X0092366Y0146663D01*
X0092408Y0146707D01*
X0092452Y0146749D01*
X0092498Y0146787D01*
X0092547Y0146823D01*
X0092598Y0146856D01*
X0092650Y0146885D01*
X0092705Y0146912D01*
X0092760Y0146935D01*
X0092817Y0146955D01*
X0092876Y0146971D01*
X0092935Y0146984D01*
X0092994Y0146993D01*
X0093055Y0146998D01*
X0093115Y0147000D01*
X0094615Y0147000D01*
X0083115Y0317500D02*
X0076115Y0317500D01*
X0076055Y0317502D01*
X0075994Y0317507D01*
X0075935Y0317516D01*
X0075876Y0317529D01*
X0075817Y0317545D01*
X0075760Y0317565D01*
X0075705Y0317588D01*
X0075650Y0317615D01*
X0075598Y0317644D01*
X0075547Y0317677D01*
X0075498Y0317713D01*
X0075452Y0317751D01*
X0075408Y0317793D01*
X0075366Y0317837D01*
X0075328Y0317883D01*
X0075292Y0317932D01*
X0075259Y0317983D01*
X0075230Y0318035D01*
X0075203Y0318090D01*
X0075180Y0318145D01*
X0075160Y0318202D01*
X0075144Y0318261D01*
X0075131Y0318320D01*
X0075122Y0318379D01*
X0075117Y0318440D01*
X0075115Y0318500D01*
X0075115Y0320000D01*
X0075615Y0320500D01*
X0075615Y0339500D01*
X0075115Y0340000D01*
X0075115Y0341500D01*
X0075117Y0341560D01*
X0075122Y0341621D01*
X0075131Y0341680D01*
X0075144Y0341739D01*
X0075160Y0341798D01*
X0075180Y0341855D01*
X0075203Y0341910D01*
X0075230Y0341965D01*
X0075259Y0342017D01*
X0075292Y0342068D01*
X0075328Y0342117D01*
X0075366Y0342163D01*
X0075408Y0342207D01*
X0075452Y0342249D01*
X0075498Y0342287D01*
X0075547Y0342323D01*
X0075598Y0342356D01*
X0075650Y0342385D01*
X0075705Y0342412D01*
X0075760Y0342435D01*
X0075817Y0342455D01*
X0075876Y0342471D01*
X0075935Y0342484D01*
X0075994Y0342493D01*
X0076055Y0342498D01*
X0076115Y0342500D01*
X0083115Y0342500D01*
X0083175Y0342498D01*
X0083236Y0342493D01*
X0083295Y0342484D01*
X0083354Y0342471D01*
X0083413Y0342455D01*
X0083470Y0342435D01*
X0083525Y0342412D01*
X0083580Y0342385D01*
X0083632Y0342356D01*
X0083683Y0342323D01*
X0083732Y0342287D01*
X0083778Y0342249D01*
X0083822Y0342207D01*
X0083864Y0342163D01*
X0083902Y0342117D01*
X0083938Y0342068D01*
X0083971Y0342017D01*
X0084000Y0341965D01*
X0084027Y0341910D01*
X0084050Y0341855D01*
X0084070Y0341798D01*
X0084086Y0341739D01*
X0084099Y0341680D01*
X0084108Y0341621D01*
X0084113Y0341560D01*
X0084115Y0341500D01*
X0084115Y0340000D01*
X0083615Y0339500D01*
X0083615Y0320500D01*
X0084115Y0320000D01*
X0084115Y0318500D01*
X0084113Y0318440D01*
X0084108Y0318379D01*
X0084099Y0318320D01*
X0084086Y0318261D01*
X0084070Y0318202D01*
X0084050Y0318145D01*
X0084027Y0318090D01*
X0084000Y0318035D01*
X0083971Y0317983D01*
X0083938Y0317932D01*
X0083902Y0317883D01*
X0083864Y0317837D01*
X0083822Y0317793D01*
X0083778Y0317751D01*
X0083732Y0317713D01*
X0083683Y0317677D01*
X0083632Y0317644D01*
X0083580Y0317615D01*
X0083525Y0317588D01*
X0083470Y0317565D01*
X0083413Y0317545D01*
X0083354Y0317529D01*
X0083295Y0317516D01*
X0083236Y0317507D01*
X0083175Y0317502D01*
X0083115Y0317500D01*
X0053615Y0316000D02*
X0053613Y0315913D01*
X0053607Y0315826D01*
X0053598Y0315739D01*
X0053585Y0315653D01*
X0053568Y0315567D01*
X0053547Y0315482D01*
X0053522Y0315399D01*
X0053494Y0315316D01*
X0053463Y0315235D01*
X0053428Y0315155D01*
X0053389Y0315077D01*
X0053347Y0315000D01*
X0053302Y0314925D01*
X0053253Y0314853D01*
X0053202Y0314782D01*
X0053147Y0314714D01*
X0053090Y0314649D01*
X0053029Y0314586D01*
X0052966Y0314525D01*
X0052901Y0314468D01*
X0052833Y0314413D01*
X0052762Y0314362D01*
X0052690Y0314313D01*
X0052615Y0314268D01*
X0052538Y0314226D01*
X0052460Y0314187D01*
X0052380Y0314152D01*
X0052299Y0314121D01*
X0052216Y0314093D01*
X0052133Y0314068D01*
X0052048Y0314047D01*
X0051962Y0314030D01*
X0051876Y0314017D01*
X0051789Y0314008D01*
X0051702Y0314002D01*
X0051615Y0314000D01*
X0038615Y0314000D01*
X0038528Y0314002D01*
X0038441Y0314008D01*
X0038354Y0314017D01*
X0038268Y0314030D01*
X0038182Y0314047D01*
X0038097Y0314068D01*
X0038014Y0314093D01*
X0037931Y0314121D01*
X0037850Y0314152D01*
X0037770Y0314187D01*
X0037692Y0314226D01*
X0037615Y0314268D01*
X0037540Y0314313D01*
X0037468Y0314362D01*
X0037397Y0314413D01*
X0037329Y0314468D01*
X0037264Y0314525D01*
X0037201Y0314586D01*
X0037140Y0314649D01*
X0037083Y0314714D01*
X0037028Y0314782D01*
X0036977Y0314853D01*
X0036928Y0314925D01*
X0036883Y0315000D01*
X0036841Y0315077D01*
X0036802Y0315155D01*
X0036767Y0315235D01*
X0036736Y0315316D01*
X0036708Y0315399D01*
X0036683Y0315482D01*
X0036662Y0315567D01*
X0036645Y0315653D01*
X0036632Y0315739D01*
X0036623Y0315826D01*
X0036617Y0315913D01*
X0036615Y0316000D01*
X0040115Y0318500D02*
X0043915Y0318500D01*
X0046415Y0318500D02*
X0050115Y0318500D01*
X0053615Y0321000D02*
X0053613Y0321087D01*
X0053607Y0321174D01*
X0053598Y0321261D01*
X0053585Y0321347D01*
X0053568Y0321433D01*
X0053547Y0321518D01*
X0053522Y0321601D01*
X0053494Y0321684D01*
X0053463Y0321765D01*
X0053428Y0321845D01*
X0053389Y0321923D01*
X0053347Y0322000D01*
X0053302Y0322075D01*
X0053253Y0322147D01*
X0053202Y0322218D01*
X0053147Y0322286D01*
X0053090Y0322351D01*
X0053029Y0322414D01*
X0052966Y0322475D01*
X0052901Y0322532D01*
X0052833Y0322587D01*
X0052762Y0322638D01*
X0052690Y0322687D01*
X0052615Y0322732D01*
X0052538Y0322774D01*
X0052460Y0322813D01*
X0052380Y0322848D01*
X0052299Y0322879D01*
X0052216Y0322907D01*
X0052133Y0322932D01*
X0052048Y0322953D01*
X0051962Y0322970D01*
X0051876Y0322983D01*
X0051789Y0322992D01*
X0051702Y0322998D01*
X0051615Y0323000D01*
X0038615Y0323000D01*
X0038528Y0322998D01*
X0038441Y0322992D01*
X0038354Y0322983D01*
X0038268Y0322970D01*
X0038182Y0322953D01*
X0038097Y0322932D01*
X0038014Y0322907D01*
X0037931Y0322879D01*
X0037850Y0322848D01*
X0037770Y0322813D01*
X0037692Y0322774D01*
X0037615Y0322732D01*
X0037540Y0322687D01*
X0037468Y0322638D01*
X0037397Y0322587D01*
X0037329Y0322532D01*
X0037264Y0322475D01*
X0037201Y0322414D01*
X0037140Y0322351D01*
X0037083Y0322286D01*
X0037028Y0322218D01*
X0036977Y0322147D01*
X0036928Y0322075D01*
X0036883Y0322000D01*
X0036841Y0321923D01*
X0036802Y0321845D01*
X0036767Y0321765D01*
X0036736Y0321684D01*
X0036708Y0321601D01*
X0036683Y0321518D01*
X0036662Y0321433D01*
X0036645Y0321347D01*
X0036632Y0321261D01*
X0036623Y0321174D01*
X0036617Y0321087D01*
X0036615Y0321000D01*
X0034615Y0351000D02*
X0027615Y0351000D01*
X0027555Y0351002D01*
X0027494Y0351007D01*
X0027435Y0351016D01*
X0027376Y0351029D01*
X0027317Y0351045D01*
X0027260Y0351065D01*
X0027205Y0351088D01*
X0027150Y0351115D01*
X0027098Y0351144D01*
X0027047Y0351177D01*
X0026998Y0351213D01*
X0026952Y0351251D01*
X0026908Y0351293D01*
X0026866Y0351337D01*
X0026828Y0351383D01*
X0026792Y0351432D01*
X0026759Y0351483D01*
X0026730Y0351535D01*
X0026703Y0351590D01*
X0026680Y0351645D01*
X0026660Y0351702D01*
X0026644Y0351761D01*
X0026631Y0351820D01*
X0026622Y0351879D01*
X0026617Y0351940D01*
X0026615Y0352000D01*
X0026615Y0353500D01*
X0027115Y0354000D01*
X0027115Y0373000D01*
X0026615Y0373500D01*
X0026615Y0375000D01*
X0026617Y0375060D01*
X0026622Y0375121D01*
X0026631Y0375180D01*
X0026644Y0375239D01*
X0026660Y0375298D01*
X0026680Y0375355D01*
X0026703Y0375410D01*
X0026730Y0375465D01*
X0026759Y0375517D01*
X0026792Y0375568D01*
X0026828Y0375617D01*
X0026866Y0375663D01*
X0026908Y0375707D01*
X0026952Y0375749D01*
X0026998Y0375787D01*
X0027047Y0375823D01*
X0027098Y0375856D01*
X0027150Y0375885D01*
X0027205Y0375912D01*
X0027260Y0375935D01*
X0027317Y0375955D01*
X0027376Y0375971D01*
X0027435Y0375984D01*
X0027494Y0375993D01*
X0027555Y0375998D01*
X0027615Y0376000D01*
X0034615Y0376000D01*
X0034675Y0375998D01*
X0034736Y0375993D01*
X0034795Y0375984D01*
X0034854Y0375971D01*
X0034913Y0375955D01*
X0034970Y0375935D01*
X0035025Y0375912D01*
X0035080Y0375885D01*
X0035132Y0375856D01*
X0035183Y0375823D01*
X0035232Y0375787D01*
X0035278Y0375749D01*
X0035322Y0375707D01*
X0035364Y0375663D01*
X0035402Y0375617D01*
X0035438Y0375568D01*
X0035471Y0375517D01*
X0035500Y0375465D01*
X0035527Y0375410D01*
X0035550Y0375355D01*
X0035570Y0375298D01*
X0035586Y0375239D01*
X0035599Y0375180D01*
X0035608Y0375121D01*
X0035613Y0375060D01*
X0035615Y0375000D01*
X0035615Y0373500D01*
X0035115Y0373000D01*
X0035115Y0354000D01*
X0035615Y0353500D01*
X0035615Y0352000D01*
X0035613Y0351940D01*
X0035608Y0351879D01*
X0035599Y0351820D01*
X0035586Y0351761D01*
X0035570Y0351702D01*
X0035550Y0351645D01*
X0035527Y0351590D01*
X0035500Y0351535D01*
X0035471Y0351483D01*
X0035438Y0351432D01*
X0035402Y0351383D01*
X0035364Y0351337D01*
X0035322Y0351293D01*
X0035278Y0351251D01*
X0035232Y0351213D01*
X0035183Y0351177D01*
X0035132Y0351144D01*
X0035080Y0351115D01*
X0035025Y0351088D01*
X0034970Y0351065D01*
X0034913Y0351045D01*
X0034854Y0351029D01*
X0034795Y0351016D01*
X0034736Y0351007D01*
X0034675Y0351002D01*
X0034615Y0351000D01*
X0106115Y0393000D02*
X0106115Y0400500D01*
X0106241Y0400502D01*
X0106366Y0400508D01*
X0106491Y0400518D01*
X0106616Y0400532D01*
X0106741Y0400549D01*
X0106865Y0400571D01*
X0106988Y0400596D01*
X0107110Y0400626D01*
X0107231Y0400659D01*
X0107351Y0400696D01*
X0107470Y0400736D01*
X0107587Y0400781D01*
X0107704Y0400829D01*
X0107818Y0400881D01*
X0107931Y0400936D01*
X0108042Y0400995D01*
X0108151Y0401057D01*
X0108258Y0401123D01*
X0108363Y0401192D01*
X0108466Y0401264D01*
X0108567Y0401339D01*
X0108665Y0401418D01*
X0108760Y0401500D01*
X0108853Y0401584D01*
X0108943Y0401672D01*
X0109031Y0401762D01*
X0109115Y0401855D01*
X0109197Y0401950D01*
X0109276Y0402048D01*
X0109351Y0402149D01*
X0109423Y0402252D01*
X0109492Y0402357D01*
X0109558Y0402464D01*
X0109620Y0402573D01*
X0109679Y0402684D01*
X0109734Y0402797D01*
X0109786Y0402911D01*
X0109834Y0403028D01*
X0109879Y0403145D01*
X0109919Y0403264D01*
X0109956Y0403384D01*
X0109989Y0403505D01*
X0110019Y0403627D01*
X0110044Y0403750D01*
X0110066Y0403874D01*
X0110083Y0403999D01*
X0110097Y0404124D01*
X0110107Y0404249D01*
X0110113Y0404374D01*
X0110115Y0404500D01*
X0110113Y0404626D01*
X0110107Y0404751D01*
X0110097Y0404876D01*
X0110083Y0405001D01*
X0110066Y0405126D01*
X0110044Y0405250D01*
X0110019Y0405373D01*
X0109989Y0405495D01*
X0109956Y0405616D01*
X0109919Y0405736D01*
X0109879Y0405855D01*
X0109834Y0405972D01*
X0109786Y0406089D01*
X0109734Y0406203D01*
X0109679Y0406316D01*
X0109620Y0406427D01*
X0109558Y0406536D01*
X0109492Y0406643D01*
X0109423Y0406748D01*
X0109351Y0406851D01*
X0109276Y0406952D01*
X0109197Y0407050D01*
X0109115Y0407145D01*
X0109031Y0407238D01*
X0108943Y0407328D01*
X0108853Y0407416D01*
X0108760Y0407500D01*
X0108665Y0407582D01*
X0108567Y0407661D01*
X0108466Y0407736D01*
X0108363Y0407808D01*
X0108258Y0407877D01*
X0108151Y0407943D01*
X0108042Y0408005D01*
X0107931Y0408064D01*
X0107818Y0408119D01*
X0107704Y0408171D01*
X0107587Y0408219D01*
X0107470Y0408264D01*
X0107351Y0408304D01*
X0107231Y0408341D01*
X0107110Y0408374D01*
X0106988Y0408404D01*
X0106865Y0408429D01*
X0106741Y0408451D01*
X0106616Y0408468D01*
X0106491Y0408482D01*
X0106366Y0408492D01*
X0106241Y0408498D01*
X0106115Y0408500D01*
X0106115Y0416000D01*
X0146115Y0416000D01*
X0146115Y0393000D01*
X0106115Y0393000D01*
X0145615Y0443000D02*
X0158615Y0443000D01*
X0158702Y0443002D01*
X0158789Y0443008D01*
X0158876Y0443017D01*
X0158962Y0443030D01*
X0159048Y0443047D01*
X0159133Y0443068D01*
X0159216Y0443093D01*
X0159299Y0443121D01*
X0159380Y0443152D01*
X0159460Y0443187D01*
X0159538Y0443226D01*
X0159615Y0443268D01*
X0159690Y0443313D01*
X0159762Y0443362D01*
X0159833Y0443413D01*
X0159901Y0443468D01*
X0159966Y0443525D01*
X0160029Y0443586D01*
X0160090Y0443649D01*
X0160147Y0443714D01*
X0160202Y0443782D01*
X0160253Y0443853D01*
X0160302Y0443925D01*
X0160347Y0444000D01*
X0160389Y0444077D01*
X0160428Y0444155D01*
X0160463Y0444235D01*
X0160494Y0444316D01*
X0160522Y0444399D01*
X0160547Y0444482D01*
X0160568Y0444567D01*
X0160585Y0444653D01*
X0160598Y0444739D01*
X0160607Y0444826D01*
X0160613Y0444913D01*
X0160615Y0445000D01*
X0157115Y0447500D02*
X0153315Y0447500D01*
X0150815Y0447500D02*
X0147115Y0447500D01*
X0143615Y0450000D02*
X0143617Y0450087D01*
X0143623Y0450174D01*
X0143632Y0450261D01*
X0143645Y0450347D01*
X0143662Y0450433D01*
X0143683Y0450518D01*
X0143708Y0450601D01*
X0143736Y0450684D01*
X0143767Y0450765D01*
X0143802Y0450845D01*
X0143841Y0450923D01*
X0143883Y0451000D01*
X0143928Y0451075D01*
X0143977Y0451147D01*
X0144028Y0451218D01*
X0144083Y0451286D01*
X0144140Y0451351D01*
X0144201Y0451414D01*
X0144264Y0451475D01*
X0144329Y0451532D01*
X0144397Y0451587D01*
X0144468Y0451638D01*
X0144540Y0451687D01*
X0144615Y0451732D01*
X0144692Y0451774D01*
X0144770Y0451813D01*
X0144850Y0451848D01*
X0144931Y0451879D01*
X0145014Y0451907D01*
X0145097Y0451932D01*
X0145182Y0451953D01*
X0145268Y0451970D01*
X0145354Y0451983D01*
X0145441Y0451992D01*
X0145528Y0451998D01*
X0145615Y0452000D01*
X0158615Y0452000D01*
X0158702Y0451998D01*
X0158789Y0451992D01*
X0158876Y0451983D01*
X0158962Y0451970D01*
X0159048Y0451953D01*
X0159133Y0451932D01*
X0159216Y0451907D01*
X0159299Y0451879D01*
X0159380Y0451848D01*
X0159460Y0451813D01*
X0159538Y0451774D01*
X0159615Y0451732D01*
X0159690Y0451687D01*
X0159762Y0451638D01*
X0159833Y0451587D01*
X0159901Y0451532D01*
X0159966Y0451475D01*
X0160029Y0451414D01*
X0160090Y0451351D01*
X0160147Y0451286D01*
X0160202Y0451218D01*
X0160253Y0451147D01*
X0160302Y0451075D01*
X0160347Y0451000D01*
X0160389Y0450923D01*
X0160428Y0450845D01*
X0160463Y0450765D01*
X0160494Y0450684D01*
X0160522Y0450601D01*
X0160547Y0450518D01*
X0160568Y0450433D01*
X0160585Y0450347D01*
X0160598Y0450261D01*
X0160607Y0450174D01*
X0160613Y0450087D01*
X0160615Y0450000D01*
X0173615Y0433000D02*
X0175115Y0433000D01*
X0175615Y0432500D01*
X0194615Y0432500D01*
X0195115Y0433000D01*
X0196615Y0433000D01*
X0196675Y0432998D01*
X0196736Y0432993D01*
X0196795Y0432984D01*
X0196854Y0432971D01*
X0196913Y0432955D01*
X0196970Y0432935D01*
X0197025Y0432912D01*
X0197080Y0432885D01*
X0197132Y0432856D01*
X0197183Y0432823D01*
X0197232Y0432787D01*
X0197278Y0432749D01*
X0197322Y0432707D01*
X0197364Y0432663D01*
X0197402Y0432617D01*
X0197438Y0432568D01*
X0197471Y0432517D01*
X0197500Y0432465D01*
X0197527Y0432410D01*
X0197550Y0432355D01*
X0197570Y0432298D01*
X0197586Y0432239D01*
X0197599Y0432180D01*
X0197608Y0432121D01*
X0197613Y0432060D01*
X0197615Y0432000D01*
X0197615Y0425000D01*
X0197613Y0424940D01*
X0197608Y0424879D01*
X0197599Y0424820D01*
X0197586Y0424761D01*
X0197570Y0424702D01*
X0197550Y0424645D01*
X0197527Y0424590D01*
X0197500Y0424535D01*
X0197471Y0424483D01*
X0197438Y0424432D01*
X0197402Y0424383D01*
X0197364Y0424337D01*
X0197322Y0424293D01*
X0197278Y0424251D01*
X0197232Y0424213D01*
X0197183Y0424177D01*
X0197132Y0424144D01*
X0197080Y0424115D01*
X0197025Y0424088D01*
X0196970Y0424065D01*
X0196913Y0424045D01*
X0196854Y0424029D01*
X0196795Y0424016D01*
X0196736Y0424007D01*
X0196675Y0424002D01*
X0196615Y0424000D01*
X0195115Y0424000D01*
X0194615Y0424500D01*
X0175615Y0424500D01*
X0175115Y0424000D01*
X0173615Y0424000D01*
X0173555Y0424002D01*
X0173494Y0424007D01*
X0173435Y0424016D01*
X0173376Y0424029D01*
X0173317Y0424045D01*
X0173260Y0424065D01*
X0173205Y0424088D01*
X0173150Y0424115D01*
X0173098Y0424144D01*
X0173047Y0424177D01*
X0172998Y0424213D01*
X0172952Y0424251D01*
X0172908Y0424293D01*
X0172866Y0424337D01*
X0172828Y0424383D01*
X0172792Y0424432D01*
X0172759Y0424483D01*
X0172730Y0424535D01*
X0172703Y0424590D01*
X0172680Y0424645D01*
X0172660Y0424702D01*
X0172644Y0424761D01*
X0172631Y0424820D01*
X0172622Y0424879D01*
X0172617Y0424940D01*
X0172615Y0425000D01*
X0172615Y0432000D01*
X0172617Y0432060D01*
X0172622Y0432121D01*
X0172631Y0432180D01*
X0172644Y0432239D01*
X0172660Y0432298D01*
X0172680Y0432355D01*
X0172703Y0432410D01*
X0172730Y0432465D01*
X0172759Y0432517D01*
X0172792Y0432568D01*
X0172828Y0432617D01*
X0172866Y0432663D01*
X0172908Y0432707D01*
X0172952Y0432749D01*
X0172998Y0432787D01*
X0173047Y0432823D01*
X0173098Y0432856D01*
X0173150Y0432885D01*
X0173205Y0432912D01*
X0173260Y0432935D01*
X0173317Y0432955D01*
X0173376Y0432971D01*
X0173435Y0432984D01*
X0173494Y0432993D01*
X0173555Y0432998D01*
X0173615Y0433000D01*
X0145615Y0443000D02*
X0145528Y0443002D01*
X0145441Y0443008D01*
X0145354Y0443017D01*
X0145268Y0443030D01*
X0145182Y0443047D01*
X0145097Y0443068D01*
X0145014Y0443093D01*
X0144931Y0443121D01*
X0144850Y0443152D01*
X0144770Y0443187D01*
X0144692Y0443226D01*
X0144615Y0443268D01*
X0144540Y0443313D01*
X0144468Y0443362D01*
X0144397Y0443413D01*
X0144329Y0443468D01*
X0144264Y0443525D01*
X0144201Y0443586D01*
X0144140Y0443649D01*
X0144083Y0443714D01*
X0144028Y0443782D01*
X0143977Y0443853D01*
X0143928Y0443925D01*
X0143883Y0444000D01*
X0143841Y0444077D01*
X0143802Y0444155D01*
X0143767Y0444235D01*
X0143736Y0444316D01*
X0143708Y0444399D01*
X0143683Y0444482D01*
X0143662Y0444567D01*
X0143645Y0444653D01*
X0143632Y0444739D01*
X0143623Y0444826D01*
X0143617Y0444913D01*
X0143615Y0445000D01*
X0163615Y0392000D02*
X0170615Y0392000D01*
X0170675Y0391998D01*
X0170736Y0391993D01*
X0170795Y0391984D01*
X0170854Y0391971D01*
X0170913Y0391955D01*
X0170970Y0391935D01*
X0171025Y0391912D01*
X0171080Y0391885D01*
X0171132Y0391856D01*
X0171183Y0391823D01*
X0171232Y0391787D01*
X0171278Y0391749D01*
X0171322Y0391707D01*
X0171364Y0391663D01*
X0171402Y0391617D01*
X0171438Y0391568D01*
X0171471Y0391517D01*
X0171500Y0391465D01*
X0171527Y0391410D01*
X0171550Y0391355D01*
X0171570Y0391298D01*
X0171586Y0391239D01*
X0171599Y0391180D01*
X0171608Y0391121D01*
X0171613Y0391060D01*
X0171615Y0391000D01*
X0171615Y0389500D01*
X0171115Y0389000D01*
X0171115Y0370000D01*
X0171615Y0369500D01*
X0171615Y0368000D01*
X0171613Y0367940D01*
X0171608Y0367879D01*
X0171599Y0367820D01*
X0171586Y0367761D01*
X0171570Y0367702D01*
X0171550Y0367645D01*
X0171527Y0367590D01*
X0171500Y0367535D01*
X0171471Y0367483D01*
X0171438Y0367432D01*
X0171402Y0367383D01*
X0171364Y0367337D01*
X0171322Y0367293D01*
X0171278Y0367251D01*
X0171232Y0367213D01*
X0171183Y0367177D01*
X0171132Y0367144D01*
X0171080Y0367115D01*
X0171025Y0367088D01*
X0170970Y0367065D01*
X0170913Y0367045D01*
X0170854Y0367029D01*
X0170795Y0367016D01*
X0170736Y0367007D01*
X0170675Y0367002D01*
X0170615Y0367000D01*
X0163615Y0367000D01*
X0163555Y0367002D01*
X0163494Y0367007D01*
X0163435Y0367016D01*
X0163376Y0367029D01*
X0163317Y0367045D01*
X0163260Y0367065D01*
X0163205Y0367088D01*
X0163150Y0367115D01*
X0163098Y0367144D01*
X0163047Y0367177D01*
X0162998Y0367213D01*
X0162952Y0367251D01*
X0162908Y0367293D01*
X0162866Y0367337D01*
X0162828Y0367383D01*
X0162792Y0367432D01*
X0162759Y0367483D01*
X0162730Y0367535D01*
X0162703Y0367590D01*
X0162680Y0367645D01*
X0162660Y0367702D01*
X0162644Y0367761D01*
X0162631Y0367820D01*
X0162622Y0367879D01*
X0162617Y0367940D01*
X0162615Y0368000D01*
X0162615Y0369500D01*
X0163115Y0370000D01*
X0163115Y0389000D01*
X0162615Y0389500D01*
X0162615Y0391000D01*
X0162617Y0391060D01*
X0162622Y0391121D01*
X0162631Y0391180D01*
X0162644Y0391239D01*
X0162660Y0391298D01*
X0162680Y0391355D01*
X0162703Y0391410D01*
X0162730Y0391465D01*
X0162759Y0391517D01*
X0162792Y0391568D01*
X0162828Y0391617D01*
X0162866Y0391663D01*
X0162908Y0391707D01*
X0162952Y0391749D01*
X0162998Y0391787D01*
X0163047Y0391823D01*
X0163098Y0391856D01*
X0163150Y0391885D01*
X0163205Y0391912D01*
X0163260Y0391935D01*
X0163317Y0391955D01*
X0163376Y0391971D01*
X0163435Y0391984D01*
X0163494Y0391993D01*
X0163555Y0391998D01*
X0163615Y0392000D01*
X0236115Y0441000D02*
X0236115Y0448000D01*
X0236117Y0448060D01*
X0236122Y0448121D01*
X0236131Y0448180D01*
X0236144Y0448239D01*
X0236160Y0448298D01*
X0236180Y0448355D01*
X0236203Y0448410D01*
X0236230Y0448465D01*
X0236259Y0448517D01*
X0236292Y0448568D01*
X0236328Y0448617D01*
X0236366Y0448663D01*
X0236408Y0448707D01*
X0236452Y0448749D01*
X0236498Y0448787D01*
X0236547Y0448823D01*
X0236598Y0448856D01*
X0236650Y0448885D01*
X0236705Y0448912D01*
X0236760Y0448935D01*
X0236817Y0448955D01*
X0236876Y0448971D01*
X0236935Y0448984D01*
X0236994Y0448993D01*
X0237055Y0448998D01*
X0237115Y0449000D01*
X0238615Y0449000D01*
X0239115Y0448500D01*
X0258115Y0448500D01*
X0258615Y0449000D01*
X0260115Y0449000D01*
X0260175Y0448998D01*
X0260236Y0448993D01*
X0260295Y0448984D01*
X0260354Y0448971D01*
X0260413Y0448955D01*
X0260470Y0448935D01*
X0260525Y0448912D01*
X0260580Y0448885D01*
X0260632Y0448856D01*
X0260683Y0448823D01*
X0260732Y0448787D01*
X0260778Y0448749D01*
X0260822Y0448707D01*
X0260864Y0448663D01*
X0260902Y0448617D01*
X0260938Y0448568D01*
X0260971Y0448517D01*
X0261000Y0448465D01*
X0261027Y0448410D01*
X0261050Y0448355D01*
X0261070Y0448298D01*
X0261086Y0448239D01*
X0261099Y0448180D01*
X0261108Y0448121D01*
X0261113Y0448060D01*
X0261115Y0448000D01*
X0261115Y0441000D01*
X0261113Y0440940D01*
X0261108Y0440879D01*
X0261099Y0440820D01*
X0261086Y0440761D01*
X0261070Y0440702D01*
X0261050Y0440645D01*
X0261027Y0440590D01*
X0261000Y0440535D01*
X0260971Y0440483D01*
X0260938Y0440432D01*
X0260902Y0440383D01*
X0260864Y0440337D01*
X0260822Y0440293D01*
X0260778Y0440251D01*
X0260732Y0440213D01*
X0260683Y0440177D01*
X0260632Y0440144D01*
X0260580Y0440115D01*
X0260525Y0440088D01*
X0260470Y0440065D01*
X0260413Y0440045D01*
X0260354Y0440029D01*
X0260295Y0440016D01*
X0260236Y0440007D01*
X0260175Y0440002D01*
X0260115Y0440000D01*
X0258615Y0440000D01*
X0258115Y0440500D01*
X0239115Y0440500D01*
X0238615Y0440000D01*
X0237115Y0440000D01*
X0237055Y0440002D01*
X0236994Y0440007D01*
X0236935Y0440016D01*
X0236876Y0440029D01*
X0236817Y0440045D01*
X0236760Y0440065D01*
X0236705Y0440088D01*
X0236650Y0440115D01*
X0236598Y0440144D01*
X0236547Y0440177D01*
X0236498Y0440213D01*
X0236452Y0440251D01*
X0236408Y0440293D01*
X0236366Y0440337D01*
X0236328Y0440383D01*
X0236292Y0440432D01*
X0236259Y0440483D01*
X0236230Y0440535D01*
X0236203Y0440590D01*
X0236180Y0440645D01*
X0236160Y0440702D01*
X0236144Y0440761D01*
X0236131Y0440820D01*
X0236122Y0440879D01*
X0236117Y0440940D01*
X0236115Y0441000D01*
X0269115Y0472500D02*
X0269115Y0474000D01*
X0269615Y0474500D01*
X0269615Y0493500D01*
X0269115Y0494000D01*
X0269115Y0495500D01*
X0269117Y0495560D01*
X0269122Y0495621D01*
X0269131Y0495680D01*
X0269144Y0495739D01*
X0269160Y0495798D01*
X0269180Y0495855D01*
X0269203Y0495910D01*
X0269230Y0495965D01*
X0269259Y0496017D01*
X0269292Y0496068D01*
X0269328Y0496117D01*
X0269366Y0496163D01*
X0269408Y0496207D01*
X0269452Y0496249D01*
X0269498Y0496287D01*
X0269547Y0496323D01*
X0269598Y0496356D01*
X0269650Y0496385D01*
X0269705Y0496412D01*
X0269760Y0496435D01*
X0269817Y0496455D01*
X0269876Y0496471D01*
X0269935Y0496484D01*
X0269994Y0496493D01*
X0270055Y0496498D01*
X0270115Y0496500D01*
X0277115Y0496500D01*
X0277175Y0496498D01*
X0277236Y0496493D01*
X0277295Y0496484D01*
X0277354Y0496471D01*
X0277413Y0496455D01*
X0277470Y0496435D01*
X0277525Y0496412D01*
X0277580Y0496385D01*
X0277632Y0496356D01*
X0277683Y0496323D01*
X0277732Y0496287D01*
X0277778Y0496249D01*
X0277822Y0496207D01*
X0277864Y0496163D01*
X0277902Y0496117D01*
X0277938Y0496068D01*
X0277971Y0496017D01*
X0278000Y0495965D01*
X0278027Y0495910D01*
X0278050Y0495855D01*
X0278070Y0495798D01*
X0278086Y0495739D01*
X0278099Y0495680D01*
X0278108Y0495621D01*
X0278113Y0495560D01*
X0278115Y0495500D01*
X0278115Y0494000D01*
X0277615Y0493500D01*
X0277615Y0474500D01*
X0278115Y0474000D01*
X0278115Y0472500D01*
X0278113Y0472440D01*
X0278108Y0472379D01*
X0278099Y0472320D01*
X0278086Y0472261D01*
X0278070Y0472202D01*
X0278050Y0472145D01*
X0278027Y0472090D01*
X0278000Y0472035D01*
X0277971Y0471983D01*
X0277938Y0471932D01*
X0277902Y0471883D01*
X0277864Y0471837D01*
X0277822Y0471793D01*
X0277778Y0471751D01*
X0277732Y0471713D01*
X0277683Y0471677D01*
X0277632Y0471644D01*
X0277580Y0471615D01*
X0277525Y0471588D01*
X0277470Y0471565D01*
X0277413Y0471545D01*
X0277354Y0471529D01*
X0277295Y0471516D01*
X0277236Y0471507D01*
X0277175Y0471502D01*
X0277115Y0471500D01*
X0270115Y0471500D01*
X0270055Y0471502D01*
X0269994Y0471507D01*
X0269935Y0471516D01*
X0269876Y0471529D01*
X0269817Y0471545D01*
X0269760Y0471565D01*
X0269705Y0471588D01*
X0269650Y0471615D01*
X0269598Y0471644D01*
X0269547Y0471677D01*
X0269498Y0471713D01*
X0269452Y0471751D01*
X0269408Y0471793D01*
X0269366Y0471837D01*
X0269328Y0471883D01*
X0269292Y0471932D01*
X0269259Y0471983D01*
X0269230Y0472035D01*
X0269203Y0472090D01*
X0269180Y0472145D01*
X0269160Y0472202D01*
X0269144Y0472261D01*
X0269131Y0472320D01*
X0269122Y0472379D01*
X0269117Y0472440D01*
X0269115Y0472500D01*
X0368115Y0308500D02*
X0375615Y0308500D01*
X0375617Y0308374D01*
X0375623Y0308249D01*
X0375633Y0308124D01*
X0375647Y0307999D01*
X0375664Y0307874D01*
X0375686Y0307750D01*
X0375711Y0307627D01*
X0375741Y0307505D01*
X0375774Y0307384D01*
X0375811Y0307264D01*
X0375851Y0307145D01*
X0375896Y0307028D01*
X0375944Y0306911D01*
X0375996Y0306797D01*
X0376051Y0306684D01*
X0376110Y0306573D01*
X0376172Y0306464D01*
X0376238Y0306357D01*
X0376307Y0306252D01*
X0376379Y0306149D01*
X0376454Y0306048D01*
X0376533Y0305950D01*
X0376615Y0305855D01*
X0376699Y0305762D01*
X0376787Y0305672D01*
X0376877Y0305584D01*
X0376970Y0305500D01*
X0377065Y0305418D01*
X0377163Y0305339D01*
X0377264Y0305264D01*
X0377367Y0305192D01*
X0377472Y0305123D01*
X0377579Y0305057D01*
X0377688Y0304995D01*
X0377799Y0304936D01*
X0377912Y0304881D01*
X0378026Y0304829D01*
X0378143Y0304781D01*
X0378260Y0304736D01*
X0378379Y0304696D01*
X0378499Y0304659D01*
X0378620Y0304626D01*
X0378742Y0304596D01*
X0378865Y0304571D01*
X0378989Y0304549D01*
X0379114Y0304532D01*
X0379239Y0304518D01*
X0379364Y0304508D01*
X0379489Y0304502D01*
X0379615Y0304500D01*
X0379741Y0304502D01*
X0379866Y0304508D01*
X0379991Y0304518D01*
X0380116Y0304532D01*
X0380241Y0304549D01*
X0380365Y0304571D01*
X0380488Y0304596D01*
X0380610Y0304626D01*
X0380731Y0304659D01*
X0380851Y0304696D01*
X0380970Y0304736D01*
X0381087Y0304781D01*
X0381204Y0304829D01*
X0381318Y0304881D01*
X0381431Y0304936D01*
X0381542Y0304995D01*
X0381651Y0305057D01*
X0381758Y0305123D01*
X0381863Y0305192D01*
X0381966Y0305264D01*
X0382067Y0305339D01*
X0382165Y0305418D01*
X0382260Y0305500D01*
X0382353Y0305584D01*
X0382443Y0305672D01*
X0382531Y0305762D01*
X0382615Y0305855D01*
X0382697Y0305950D01*
X0382776Y0306048D01*
X0382851Y0306149D01*
X0382923Y0306252D01*
X0382992Y0306357D01*
X0383058Y0306464D01*
X0383120Y0306573D01*
X0383179Y0306684D01*
X0383234Y0306797D01*
X0383286Y0306911D01*
X0383334Y0307028D01*
X0383379Y0307145D01*
X0383419Y0307264D01*
X0383456Y0307384D01*
X0383489Y0307505D01*
X0383519Y0307627D01*
X0383544Y0307750D01*
X0383566Y0307874D01*
X0383583Y0307999D01*
X0383597Y0308124D01*
X0383607Y0308249D01*
X0383613Y0308374D01*
X0383615Y0308500D01*
X0391115Y0308500D01*
X0391115Y0278500D01*
X0368115Y0278500D01*
X0368115Y0308500D01*
X0410615Y0236500D02*
X0410615Y0223500D01*
X0410617Y0223413D01*
X0410623Y0223326D01*
X0410632Y0223239D01*
X0410645Y0223153D01*
X0410662Y0223067D01*
X0410683Y0222982D01*
X0410708Y0222899D01*
X0410736Y0222816D01*
X0410767Y0222735D01*
X0410802Y0222655D01*
X0410841Y0222577D01*
X0410883Y0222500D01*
X0410928Y0222425D01*
X0410977Y0222353D01*
X0411028Y0222282D01*
X0411083Y0222214D01*
X0411140Y0222149D01*
X0411201Y0222086D01*
X0411264Y0222025D01*
X0411329Y0221968D01*
X0411397Y0221913D01*
X0411468Y0221862D01*
X0411540Y0221813D01*
X0411615Y0221768D01*
X0411692Y0221726D01*
X0411770Y0221687D01*
X0411850Y0221652D01*
X0411931Y0221621D01*
X0412014Y0221593D01*
X0412097Y0221568D01*
X0412182Y0221547D01*
X0412268Y0221530D01*
X0412354Y0221517D01*
X0412441Y0221508D01*
X0412528Y0221502D01*
X0412615Y0221500D01*
X0415115Y0225000D02*
X0415115Y0228700D01*
X0415115Y0231200D02*
X0415115Y0235000D01*
X0412615Y0238500D02*
X0412528Y0238498D01*
X0412441Y0238492D01*
X0412354Y0238483D01*
X0412268Y0238470D01*
X0412182Y0238453D01*
X0412097Y0238432D01*
X0412014Y0238407D01*
X0411931Y0238379D01*
X0411850Y0238348D01*
X0411770Y0238313D01*
X0411692Y0238274D01*
X0411615Y0238232D01*
X0411540Y0238187D01*
X0411468Y0238138D01*
X0411397Y0238087D01*
X0411329Y0238032D01*
X0411264Y0237975D01*
X0411201Y0237914D01*
X0411140Y0237851D01*
X0411083Y0237786D01*
X0411028Y0237718D01*
X0410977Y0237647D01*
X0410928Y0237575D01*
X0410883Y0237500D01*
X0410841Y0237423D01*
X0410802Y0237345D01*
X0410767Y0237265D01*
X0410736Y0237184D01*
X0410708Y0237101D01*
X0410683Y0237018D01*
X0410662Y0236933D01*
X0410645Y0236847D01*
X0410632Y0236761D01*
X0410623Y0236674D01*
X0410617Y0236587D01*
X0410615Y0236500D01*
X0417615Y0238500D02*
X0417702Y0238498D01*
X0417789Y0238492D01*
X0417876Y0238483D01*
X0417962Y0238470D01*
X0418048Y0238453D01*
X0418133Y0238432D01*
X0418216Y0238407D01*
X0418299Y0238379D01*
X0418380Y0238348D01*
X0418460Y0238313D01*
X0418538Y0238274D01*
X0418615Y0238232D01*
X0418690Y0238187D01*
X0418762Y0238138D01*
X0418833Y0238087D01*
X0418901Y0238032D01*
X0418966Y0237975D01*
X0419029Y0237914D01*
X0419090Y0237851D01*
X0419147Y0237786D01*
X0419202Y0237718D01*
X0419253Y0237647D01*
X0419302Y0237575D01*
X0419347Y0237500D01*
X0419389Y0237423D01*
X0419428Y0237345D01*
X0419463Y0237265D01*
X0419494Y0237184D01*
X0419522Y0237101D01*
X0419547Y0237018D01*
X0419568Y0236933D01*
X0419585Y0236847D01*
X0419598Y0236761D01*
X0419607Y0236674D01*
X0419613Y0236587D01*
X0419615Y0236500D01*
X0419615Y0223500D01*
X0419613Y0223413D01*
X0419607Y0223326D01*
X0419598Y0223239D01*
X0419585Y0223153D01*
X0419568Y0223067D01*
X0419547Y0222982D01*
X0419522Y0222899D01*
X0419494Y0222816D01*
X0419463Y0222735D01*
X0419428Y0222655D01*
X0419389Y0222577D01*
X0419347Y0222500D01*
X0419302Y0222425D01*
X0419253Y0222353D01*
X0419202Y0222282D01*
X0419147Y0222214D01*
X0419090Y0222149D01*
X0419029Y0222086D01*
X0418966Y0222025D01*
X0418901Y0221968D01*
X0418833Y0221913D01*
X0418762Y0221862D01*
X0418690Y0221813D01*
X0418615Y0221768D01*
X0418538Y0221726D01*
X0418460Y0221687D01*
X0418380Y0221652D01*
X0418299Y0221621D01*
X0418216Y0221593D01*
X0418133Y0221568D01*
X0418048Y0221547D01*
X0417962Y0221530D01*
X0417876Y0221517D01*
X0417789Y0221508D01*
X0417702Y0221502D01*
X0417615Y0221500D01*
X0280115Y0055500D02*
X0275115Y0055500D01*
X0272615Y0053000D01*
X0272615Y0038000D01*
X0270115Y0035500D01*
X0265115Y0035500D01*
X0262615Y0038000D01*
X0262615Y0053000D01*
X0260115Y0055500D01*
X0255115Y0055500D01*
X0252615Y0053000D01*
X0252615Y0038000D01*
X0255115Y0035500D01*
X0260115Y0035500D01*
X0262615Y0038000D01*
X0272615Y0038000D02*
X0275115Y0035500D01*
X0280115Y0035500D01*
X0282615Y0038000D01*
X0282615Y0053000D01*
X0280115Y0055500D01*
X0272615Y0053000D02*
X0270115Y0055500D01*
X0265115Y0055500D01*
X0262615Y0053000D01*
D13*
X0258416Y0032902D02*
X0258416Y0031701D01*
X0257816Y0031100D01*
X0257215Y0031701D01*
X0257215Y0032902D01*
X0257215Y0029902D02*
X0257816Y0029902D01*
X0257516Y0029902D02*
X0257516Y0028100D01*
X0257816Y0028100D02*
X0257215Y0028100D01*
X0248416Y0031400D02*
X0248416Y0032001D01*
X0247816Y0032001D01*
X0248416Y0032601D02*
X0248116Y0032902D01*
X0247516Y0032902D01*
X0247215Y0032601D01*
X0247215Y0031400D01*
X0247516Y0031100D01*
X0248116Y0031100D01*
X0248416Y0031400D01*
X0237916Y0031100D02*
X0237316Y0031701D01*
X0237616Y0031701D02*
X0236715Y0031701D01*
X0236715Y0031100D02*
X0236715Y0032902D01*
X0237616Y0032902D01*
X0237916Y0032601D01*
X0237916Y0032001D01*
X0237616Y0031701D01*
X0237616Y0029902D02*
X0237016Y0029902D01*
X0236715Y0029601D01*
X0236715Y0029301D01*
X0237016Y0029001D01*
X0237616Y0029001D01*
X0237916Y0028701D01*
X0237916Y0028400D01*
X0237616Y0028100D01*
X0237016Y0028100D01*
X0236715Y0028400D01*
X0237916Y0029601D02*
X0237616Y0029902D01*
X0227916Y0029902D02*
X0227916Y0028701D01*
X0227316Y0028100D01*
X0226715Y0028701D01*
X0226715Y0029902D01*
X0227016Y0031100D02*
X0226715Y0031400D01*
X0227016Y0031100D02*
X0227616Y0031100D01*
X0227916Y0031400D01*
X0227916Y0032001D01*
X0227616Y0032301D01*
X0227316Y0032301D01*
X0226715Y0032001D01*
X0226715Y0032902D01*
X0227916Y0032902D01*
X0197916Y0031801D02*
X0197916Y0030600D01*
X0197916Y0031501D02*
X0196715Y0031501D01*
X0196715Y0031801D02*
X0197316Y0032402D01*
X0197916Y0031801D01*
X0196715Y0031801D02*
X0196715Y0030600D01*
X0196715Y0029402D02*
X0196715Y0028501D01*
X0197316Y0028801D01*
X0197616Y0028801D01*
X0197916Y0028501D01*
X0197916Y0027900D01*
X0197616Y0027600D01*
X0197016Y0027600D01*
X0196715Y0027900D01*
X0196715Y0029402D02*
X0197916Y0029402D01*
X0187916Y0028501D02*
X0186715Y0028501D01*
X0187616Y0029402D01*
X0187616Y0027600D01*
X0187916Y0030600D02*
X0187916Y0031801D01*
X0187316Y0032402D01*
X0186715Y0031801D01*
X0186715Y0030600D01*
X0186715Y0031501D02*
X0187916Y0031501D01*
X0177916Y0031501D02*
X0176715Y0031501D01*
X0176715Y0031801D02*
X0177316Y0032402D01*
X0177916Y0031801D01*
X0177916Y0030600D01*
X0176715Y0030600D02*
X0176715Y0031801D01*
X0177016Y0029402D02*
X0177616Y0029402D01*
X0177916Y0029101D01*
X0177916Y0028801D01*
X0177616Y0028501D01*
X0177916Y0028201D01*
X0177916Y0027900D01*
X0177616Y0027600D01*
X0177016Y0027600D01*
X0176715Y0027900D01*
X0177316Y0028501D02*
X0177616Y0028501D01*
X0176715Y0029101D02*
X0177016Y0029402D01*
X0167916Y0029101D02*
X0167616Y0029402D01*
X0167016Y0029402D01*
X0166715Y0029101D01*
X0167916Y0029101D02*
X0167916Y0028801D01*
X0166715Y0027600D01*
X0167916Y0027600D01*
X0167916Y0030600D02*
X0167916Y0031801D01*
X0167316Y0032402D01*
X0166715Y0031801D01*
X0166715Y0030600D01*
X0166715Y0031501D02*
X0167916Y0031501D01*
X0157916Y0031501D02*
X0156715Y0031501D01*
X0156715Y0031801D02*
X0157316Y0032402D01*
X0157916Y0031801D01*
X0157916Y0030600D01*
X0156715Y0030600D02*
X0156715Y0031801D01*
X0157316Y0029402D02*
X0157316Y0027600D01*
X0157916Y0027600D02*
X0156715Y0027600D01*
X0156715Y0028801D02*
X0157316Y0029402D01*
X0147916Y0029101D02*
X0146715Y0027900D01*
X0147016Y0027600D01*
X0147616Y0027600D01*
X0147916Y0027900D01*
X0147916Y0029101D01*
X0147616Y0029402D01*
X0147016Y0029402D01*
X0146715Y0029101D01*
X0146715Y0027900D01*
X0146715Y0030600D02*
X0146715Y0031801D01*
X0147316Y0032402D01*
X0147916Y0031801D01*
X0147916Y0030600D01*
X0147916Y0031501D02*
X0146715Y0031501D01*
X0138416Y0031501D02*
X0138116Y0031201D01*
X0137215Y0031201D01*
X0137816Y0031201D02*
X0138416Y0030600D01*
X0138416Y0031501D02*
X0138416Y0032101D01*
X0138116Y0032402D01*
X0137215Y0032402D01*
X0137215Y0030600D01*
X0137215Y0029402D02*
X0138416Y0029402D01*
X0137816Y0028501D02*
X0137215Y0028501D01*
X0137215Y0027600D02*
X0137215Y0029402D01*
X0127916Y0029402D02*
X0127916Y0028201D01*
X0127316Y0027600D01*
X0126715Y0028201D01*
X0126715Y0029402D01*
X0127016Y0030600D02*
X0126715Y0030900D01*
X0127016Y0030600D02*
X0127616Y0030600D01*
X0127916Y0030900D01*
X0127916Y0031201D01*
X0127616Y0031501D01*
X0127316Y0031501D01*
X0127616Y0031501D02*
X0127916Y0031801D01*
X0127916Y0032101D01*
X0127616Y0032402D01*
X0127016Y0032402D01*
X0126715Y0032101D01*
X0117916Y0030600D02*
X0116715Y0030600D01*
X0117316Y0030600D02*
X0117316Y0032402D01*
X0116715Y0031801D01*
X0117016Y0029402D02*
X0117616Y0029402D01*
X0117916Y0029101D01*
X0117916Y0028801D01*
X0117616Y0028501D01*
X0117916Y0028201D01*
X0117916Y0027900D01*
X0117616Y0027600D01*
X0117016Y0027600D01*
X0116715Y0027900D01*
X0117316Y0028501D02*
X0117616Y0028501D01*
X0116715Y0029101D02*
X0117016Y0029402D01*
X0116715Y0087600D02*
X0117916Y0088801D01*
X0117916Y0089101D01*
X0117616Y0089402D01*
X0117016Y0089402D01*
X0116715Y0089101D01*
X0116715Y0090600D02*
X0117916Y0090600D01*
X0117316Y0090600D02*
X0117316Y0092402D01*
X0116715Y0091801D01*
X0116715Y0087600D02*
X0117916Y0087600D01*
X0126715Y0087600D02*
X0127916Y0087600D01*
X0127316Y0087600D02*
X0127316Y0089402D01*
X0126715Y0088801D01*
X0126715Y0090600D02*
X0127916Y0090600D01*
X0127316Y0090600D02*
X0127316Y0092402D01*
X0126715Y0091801D01*
X0136715Y0091801D02*
X0137316Y0092402D01*
X0137316Y0090600D01*
X0137916Y0090600D02*
X0136715Y0090600D01*
X0137016Y0089402D02*
X0136715Y0089101D01*
X0136715Y0087900D01*
X0137916Y0089101D01*
X0137916Y0087900D01*
X0137616Y0087600D01*
X0137016Y0087600D01*
X0136715Y0087900D01*
X0137016Y0089402D02*
X0137616Y0089402D01*
X0137916Y0089101D01*
X0146715Y0089400D02*
X0147016Y0089100D01*
X0147616Y0089100D01*
X0147916Y0089400D01*
X0147916Y0090601D01*
X0147616Y0090902D01*
X0147016Y0090902D01*
X0146715Y0090601D01*
X0146715Y0090301D01*
X0147016Y0090001D01*
X0147916Y0090001D01*
X0156715Y0089101D02*
X0156715Y0088801D01*
X0157016Y0088501D01*
X0157616Y0088501D01*
X0157916Y0088201D01*
X0157916Y0087900D01*
X0157616Y0087600D01*
X0157016Y0087600D01*
X0156715Y0087900D01*
X0156715Y0088201D01*
X0157016Y0088501D01*
X0157616Y0088501D02*
X0157916Y0088801D01*
X0157916Y0089101D01*
X0157616Y0089402D01*
X0157016Y0089402D01*
X0156715Y0089101D01*
X0166715Y0089402D02*
X0167916Y0089402D01*
X0167916Y0089101D01*
X0166715Y0087900D01*
X0166715Y0087600D01*
X0176715Y0087900D02*
X0177016Y0087600D01*
X0177616Y0087600D01*
X0177916Y0087900D01*
X0177916Y0088201D01*
X0177616Y0088501D01*
X0176715Y0088501D01*
X0176715Y0087900D01*
X0176715Y0088501D02*
X0177316Y0089101D01*
X0177916Y0089402D01*
X0186715Y0089402D02*
X0186715Y0088501D01*
X0187316Y0088801D01*
X0187616Y0088801D01*
X0187916Y0088501D01*
X0187916Y0087900D01*
X0187616Y0087600D01*
X0187016Y0087600D01*
X0186715Y0087900D01*
X0186715Y0089402D02*
X0187916Y0089402D01*
X0196715Y0088501D02*
X0197916Y0088501D01*
X0197616Y0089402D02*
X0196715Y0088501D01*
X0197616Y0087600D02*
X0197616Y0089402D01*
X0206715Y0089101D02*
X0207016Y0089402D01*
X0207616Y0089402D01*
X0207916Y0089101D01*
X0207916Y0088801D01*
X0207616Y0088501D01*
X0207916Y0088201D01*
X0207916Y0087900D01*
X0207616Y0087600D01*
X0207016Y0087600D01*
X0206715Y0087900D01*
X0207316Y0088501D02*
X0207616Y0088501D01*
X0216715Y0089101D02*
X0217016Y0089402D01*
X0217616Y0089402D01*
X0217916Y0089101D01*
X0217916Y0088801D01*
X0216715Y0087600D01*
X0217916Y0087600D01*
X0226715Y0087900D02*
X0227016Y0087600D01*
X0227616Y0087600D01*
X0227916Y0087900D01*
X0227916Y0088501D01*
X0227316Y0088501D01*
X0227916Y0089101D02*
X0227616Y0089402D01*
X0227016Y0089402D01*
X0226715Y0089101D01*
X0226715Y0087900D01*
X0236715Y0087600D02*
X0236715Y0089402D01*
X0237616Y0089402D01*
X0237916Y0089101D01*
X0237916Y0088501D01*
X0237616Y0088201D01*
X0236715Y0088201D01*
X0237316Y0088201D02*
X0237916Y0087600D01*
X0246715Y0087600D02*
X0247916Y0089402D01*
X0247916Y0090600D02*
X0247316Y0091201D01*
X0247616Y0091201D02*
X0246715Y0091201D01*
X0246715Y0090600D02*
X0246715Y0092402D01*
X0247616Y0092402D01*
X0247916Y0092101D01*
X0247916Y0091501D01*
X0247616Y0091201D01*
X0246715Y0089402D02*
X0247916Y0087600D01*
X0256715Y0087600D02*
X0257916Y0089402D01*
X0256715Y0089402D02*
X0257916Y0087600D01*
X0257316Y0090600D02*
X0257316Y0092402D01*
X0257916Y0092402D02*
X0256715Y0092402D01*
X0266715Y0092101D02*
X0266715Y0091801D01*
X0267016Y0091501D01*
X0267616Y0091501D01*
X0267916Y0091201D01*
X0267916Y0090900D01*
X0267616Y0090600D01*
X0267016Y0090600D01*
X0266715Y0090900D01*
X0266715Y0092101D02*
X0267016Y0092402D01*
X0267616Y0092402D01*
X0267916Y0092101D01*
X0267616Y0089402D02*
X0267016Y0089402D01*
X0266715Y0089101D01*
X0266715Y0088801D01*
X0267016Y0088501D01*
X0267616Y0088501D01*
X0267916Y0088201D01*
X0267916Y0087900D01*
X0267616Y0087600D01*
X0267016Y0087600D01*
X0266715Y0087900D01*
X0267916Y0089101D02*
X0267616Y0089402D01*
X0269715Y0085902D02*
X0269715Y0084100D01*
X0270916Y0084100D02*
X0270916Y0085902D01*
X0270316Y0085301D01*
X0269715Y0085902D01*
X0271557Y0085601D02*
X0271557Y0084400D01*
X0271857Y0084100D01*
X0272458Y0084100D01*
X0272758Y0084400D01*
X0272758Y0085601D01*
X0272458Y0085902D01*
X0271857Y0085902D01*
X0271557Y0085601D01*
X0273398Y0085601D02*
X0273398Y0085301D01*
X0273699Y0085001D01*
X0274299Y0085001D01*
X0274600Y0084701D01*
X0274600Y0084400D01*
X0274299Y0084100D01*
X0273699Y0084100D01*
X0273398Y0084400D01*
X0273398Y0085601D02*
X0273699Y0085902D01*
X0274299Y0085902D01*
X0274600Y0085601D01*
X0275240Y0085902D02*
X0275841Y0085902D01*
X0275540Y0085902D02*
X0275540Y0084100D01*
X0275240Y0084100D02*
X0275841Y0084100D01*
X0284016Y0044402D02*
X0283715Y0044101D01*
X0283715Y0043801D01*
X0284016Y0043501D01*
X0284616Y0043501D01*
X0284916Y0043201D01*
X0284916Y0042900D01*
X0284616Y0042600D01*
X0284016Y0042600D01*
X0283715Y0042900D01*
X0284016Y0041402D02*
X0283715Y0041101D01*
X0283715Y0039900D01*
X0284016Y0039600D01*
X0284616Y0039600D01*
X0284916Y0039900D01*
X0284916Y0041101D02*
X0284616Y0041402D01*
X0284016Y0041402D01*
X0284916Y0044101D02*
X0284616Y0044402D01*
X0284016Y0044402D01*
X0283715Y0038402D02*
X0283715Y0036600D01*
X0283715Y0037201D02*
X0284916Y0038402D01*
X0284016Y0037501D02*
X0284916Y0036600D01*
X0268416Y0032902D02*
X0268416Y0031100D01*
X0267215Y0031100D02*
X0267215Y0032902D01*
X0267816Y0032301D01*
X0268416Y0032902D01*
X0267816Y0029902D02*
X0267215Y0029902D01*
X0267516Y0029902D02*
X0267516Y0028100D01*
X0267816Y0028100D02*
X0267215Y0028100D01*
D14*
X0412115Y0228700D02*
X0415115Y0228700D01*
X0418115Y0228700D01*
X0418115Y0231200D02*
X0415115Y0231200D01*
X0412115Y0231200D01*
X0303815Y0250000D02*
X0303815Y0253000D01*
X0303815Y0256000D01*
X0301315Y0256000D02*
X0301315Y0253000D01*
X0301315Y0250000D01*
X0247315Y0366000D02*
X0247315Y0369000D01*
X0247315Y0372000D01*
X0244815Y0372000D02*
X0244815Y0369000D01*
X0244815Y0366000D01*
X0153315Y0444500D02*
X0153315Y0447500D01*
X0153315Y0450500D01*
X0150815Y0450500D02*
X0150815Y0447500D01*
X0150815Y0444500D01*
X0046415Y0321500D02*
X0046415Y0318500D01*
X0046415Y0315500D01*
X0043915Y0315500D02*
X0043915Y0318500D01*
X0043915Y0321500D01*
X0113815Y0253500D02*
X0113815Y0250500D01*
X0113815Y0247500D01*
X0116315Y0247500D02*
X0116315Y0250500D01*
X0116315Y0253500D01*
X0374815Y0435000D02*
X0374815Y0438000D01*
X0374815Y0441000D01*
X0377315Y0441000D02*
X0377315Y0438000D01*
X0377315Y0435000D01*
D15*
X0356865Y0226250D03*
X0356865Y0219750D03*
D16*
X0355865Y0223000D03*
D17*
X0410317Y0293069D02*
X0410317Y0301731D01*
X0418585Y0309998D02*
X0427246Y0309998D01*
X0435514Y0301731D02*
X0435514Y0293069D01*
X0427246Y0284802D02*
X0418585Y0284802D01*
X0416222Y0297400D02*
X0416224Y0297564D01*
X0416230Y0297728D01*
X0416240Y0297892D01*
X0416254Y0298056D01*
X0416272Y0298219D01*
X0416294Y0298382D01*
X0416321Y0298544D01*
X0416351Y0298706D01*
X0416385Y0298866D01*
X0416423Y0299026D01*
X0416464Y0299185D01*
X0416510Y0299343D01*
X0416560Y0299499D01*
X0416613Y0299655D01*
X0416670Y0299809D01*
X0416731Y0299961D01*
X0416796Y0300112D01*
X0416865Y0300262D01*
X0416937Y0300409D01*
X0417012Y0300555D01*
X0417092Y0300699D01*
X0417174Y0300841D01*
X0417260Y0300981D01*
X0417350Y0301118D01*
X0417443Y0301254D01*
X0417539Y0301387D01*
X0417639Y0301518D01*
X0417741Y0301646D01*
X0417847Y0301772D01*
X0417956Y0301895D01*
X0418068Y0302015D01*
X0418182Y0302133D01*
X0418300Y0302247D01*
X0418420Y0302359D01*
X0418543Y0302468D01*
X0418669Y0302574D01*
X0418797Y0302676D01*
X0418928Y0302776D01*
X0419061Y0302872D01*
X0419197Y0302965D01*
X0419334Y0303055D01*
X0419474Y0303141D01*
X0419616Y0303223D01*
X0419760Y0303303D01*
X0419906Y0303378D01*
X0420053Y0303450D01*
X0420203Y0303519D01*
X0420354Y0303584D01*
X0420506Y0303645D01*
X0420660Y0303702D01*
X0420816Y0303755D01*
X0420972Y0303805D01*
X0421130Y0303851D01*
X0421289Y0303892D01*
X0421449Y0303930D01*
X0421609Y0303964D01*
X0421771Y0303994D01*
X0421933Y0304021D01*
X0422096Y0304043D01*
X0422259Y0304061D01*
X0422423Y0304075D01*
X0422587Y0304085D01*
X0422751Y0304091D01*
X0422915Y0304093D01*
X0423079Y0304091D01*
X0423243Y0304085D01*
X0423407Y0304075D01*
X0423571Y0304061D01*
X0423734Y0304043D01*
X0423897Y0304021D01*
X0424059Y0303994D01*
X0424221Y0303964D01*
X0424381Y0303930D01*
X0424541Y0303892D01*
X0424700Y0303851D01*
X0424858Y0303805D01*
X0425014Y0303755D01*
X0425170Y0303702D01*
X0425324Y0303645D01*
X0425476Y0303584D01*
X0425627Y0303519D01*
X0425777Y0303450D01*
X0425924Y0303378D01*
X0426070Y0303303D01*
X0426214Y0303223D01*
X0426356Y0303141D01*
X0426496Y0303055D01*
X0426633Y0302965D01*
X0426769Y0302872D01*
X0426902Y0302776D01*
X0427033Y0302676D01*
X0427161Y0302574D01*
X0427287Y0302468D01*
X0427410Y0302359D01*
X0427530Y0302247D01*
X0427648Y0302133D01*
X0427762Y0302015D01*
X0427874Y0301895D01*
X0427983Y0301772D01*
X0428089Y0301646D01*
X0428191Y0301518D01*
X0428291Y0301387D01*
X0428387Y0301254D01*
X0428480Y0301118D01*
X0428570Y0300981D01*
X0428656Y0300841D01*
X0428738Y0300699D01*
X0428818Y0300555D01*
X0428893Y0300409D01*
X0428965Y0300262D01*
X0429034Y0300112D01*
X0429099Y0299961D01*
X0429160Y0299809D01*
X0429217Y0299655D01*
X0429270Y0299499D01*
X0429320Y0299343D01*
X0429366Y0299185D01*
X0429407Y0299026D01*
X0429445Y0298866D01*
X0429479Y0298706D01*
X0429509Y0298544D01*
X0429536Y0298382D01*
X0429558Y0298219D01*
X0429576Y0298056D01*
X0429590Y0297892D01*
X0429600Y0297728D01*
X0429606Y0297564D01*
X0429608Y0297400D01*
X0429606Y0297236D01*
X0429600Y0297072D01*
X0429590Y0296908D01*
X0429576Y0296744D01*
X0429558Y0296581D01*
X0429536Y0296418D01*
X0429509Y0296256D01*
X0429479Y0296094D01*
X0429445Y0295934D01*
X0429407Y0295774D01*
X0429366Y0295615D01*
X0429320Y0295457D01*
X0429270Y0295301D01*
X0429217Y0295145D01*
X0429160Y0294991D01*
X0429099Y0294839D01*
X0429034Y0294688D01*
X0428965Y0294538D01*
X0428893Y0294391D01*
X0428818Y0294245D01*
X0428738Y0294101D01*
X0428656Y0293959D01*
X0428570Y0293819D01*
X0428480Y0293682D01*
X0428387Y0293546D01*
X0428291Y0293413D01*
X0428191Y0293282D01*
X0428089Y0293154D01*
X0427983Y0293028D01*
X0427874Y0292905D01*
X0427762Y0292785D01*
X0427648Y0292667D01*
X0427530Y0292553D01*
X0427410Y0292441D01*
X0427287Y0292332D01*
X0427161Y0292226D01*
X0427033Y0292124D01*
X0426902Y0292024D01*
X0426769Y0291928D01*
X0426633Y0291835D01*
X0426496Y0291745D01*
X0426356Y0291659D01*
X0426214Y0291577D01*
X0426070Y0291497D01*
X0425924Y0291422D01*
X0425777Y0291350D01*
X0425627Y0291281D01*
X0425476Y0291216D01*
X0425324Y0291155D01*
X0425170Y0291098D01*
X0425014Y0291045D01*
X0424858Y0290995D01*
X0424700Y0290949D01*
X0424541Y0290908D01*
X0424381Y0290870D01*
X0424221Y0290836D01*
X0424059Y0290806D01*
X0423897Y0290779D01*
X0423734Y0290757D01*
X0423571Y0290739D01*
X0423407Y0290725D01*
X0423243Y0290715D01*
X0423079Y0290709D01*
X0422915Y0290707D01*
X0422751Y0290709D01*
X0422587Y0290715D01*
X0422423Y0290725D01*
X0422259Y0290739D01*
X0422096Y0290757D01*
X0421933Y0290779D01*
X0421771Y0290806D01*
X0421609Y0290836D01*
X0421449Y0290870D01*
X0421289Y0290908D01*
X0421130Y0290949D01*
X0420972Y0290995D01*
X0420816Y0291045D01*
X0420660Y0291098D01*
X0420506Y0291155D01*
X0420354Y0291216D01*
X0420203Y0291281D01*
X0420053Y0291350D01*
X0419906Y0291422D01*
X0419760Y0291497D01*
X0419616Y0291577D01*
X0419474Y0291659D01*
X0419334Y0291745D01*
X0419197Y0291835D01*
X0419061Y0291928D01*
X0418928Y0292024D01*
X0418797Y0292124D01*
X0418669Y0292226D01*
X0418543Y0292332D01*
X0418420Y0292441D01*
X0418300Y0292553D01*
X0418182Y0292667D01*
X0418068Y0292785D01*
X0417956Y0292905D01*
X0417847Y0293028D01*
X0417741Y0293154D01*
X0417639Y0293282D01*
X0417539Y0293413D01*
X0417443Y0293546D01*
X0417350Y0293682D01*
X0417260Y0293819D01*
X0417174Y0293959D01*
X0417092Y0294101D01*
X0417012Y0294245D01*
X0416937Y0294391D01*
X0416865Y0294538D01*
X0416796Y0294688D01*
X0416731Y0294839D01*
X0416670Y0294991D01*
X0416613Y0295145D01*
X0416560Y0295301D01*
X0416510Y0295457D01*
X0416464Y0295615D01*
X0416423Y0295774D01*
X0416385Y0295934D01*
X0416351Y0296094D01*
X0416321Y0296256D01*
X0416294Y0296418D01*
X0416272Y0296581D01*
X0416254Y0296744D01*
X0416240Y0296908D01*
X0416230Y0297072D01*
X0416224Y0297236D01*
X0416222Y0297400D01*
X0401627Y0401008D02*
X0440111Y0401008D01*
X0440111Y0462091D01*
X0401627Y0462091D01*
X0401627Y0455004D01*
X0411174Y0455004D01*
X0411174Y0408094D01*
X0401627Y0408094D01*
X0401627Y0401008D01*
X0401627Y0408094D02*
X0401627Y0455004D01*
X0330615Y0470098D02*
X0307015Y0470100D01*
X0330615Y0470098D02*
X0330615Y0495902D01*
X0307015Y0495900D01*
X0296206Y0519004D02*
X0296206Y0557488D01*
X0289119Y0557488D01*
X0289119Y0547941D01*
X0242210Y0547941D01*
X0242210Y0557488D01*
X0235123Y0557488D01*
X0235123Y0519004D01*
X0296206Y0519004D01*
X0289119Y0557488D02*
X0242210Y0557488D01*
X0176706Y0556488D02*
X0176706Y0518004D01*
X0115623Y0518004D01*
X0115623Y0556488D01*
X0122710Y0556488D01*
X0122710Y0546941D01*
X0169619Y0546941D01*
X0169619Y0556488D01*
X0122710Y0556488D01*
X0169619Y0556488D02*
X0176706Y0556488D01*
X0163115Y0496402D02*
X0139515Y0496400D01*
X0163115Y0496402D02*
X0163115Y0470598D01*
X0139515Y0470600D01*
X0048115Y0470098D02*
X0024515Y0470100D01*
X0048115Y0470098D02*
X0048115Y0495902D01*
X0024515Y0495900D01*
X0049627Y0284000D02*
X0088111Y0284000D01*
X0088111Y0254098D01*
X0049627Y0254098D01*
X0049627Y0261185D01*
X0059174Y0261185D01*
X0059174Y0276913D01*
X0049627Y0276913D01*
X0049627Y0261185D01*
X0049627Y0276913D02*
X0049627Y0284000D01*
D18*
X0079615Y0312500D02*
X0079615Y0314000D01*
X0079615Y0346000D02*
X0079615Y0347500D01*
X0031115Y0347500D02*
X0031115Y0346000D01*
X0031115Y0379500D02*
X0031115Y0381000D01*
X0132615Y0265500D02*
X0134115Y0265500D01*
X0134115Y0234500D02*
X0132615Y0234500D01*
X0166115Y0234500D02*
X0167615Y0234500D01*
X0167615Y0265500D02*
X0166115Y0265500D01*
X0167115Y0362000D02*
X0167115Y0363500D01*
X0167115Y0395500D02*
X0167115Y0397000D01*
X0167615Y0428500D02*
X0169115Y0428500D01*
X0201115Y0428500D02*
X0202615Y0428500D01*
X0231115Y0444500D02*
X0232615Y0444500D01*
X0264615Y0444500D02*
X0266115Y0444500D01*
X0273615Y0466500D02*
X0273615Y0468000D01*
X0273615Y0500000D02*
X0273615Y0501500D01*
X0327615Y0453000D02*
X0327615Y0451500D01*
X0327615Y0419500D02*
X0327615Y0418000D01*
X0307615Y0411000D02*
X0307615Y0409500D01*
X0307615Y0377500D02*
X0307615Y0376000D01*
X0287115Y0375000D02*
X0287115Y0373500D01*
X0287115Y0341500D02*
X0287115Y0340000D01*
X0289115Y0293500D02*
X0290615Y0293500D01*
X0290615Y0274000D02*
X0289115Y0274000D01*
X0322615Y0274000D02*
X0324115Y0274000D01*
X0324115Y0293500D02*
X0322615Y0293500D01*
X0122115Y0142500D02*
X0120615Y0142500D01*
X0088615Y0142500D02*
X0087115Y0142500D01*
D19*
X0085415Y0142500D03*
X0090415Y0142500D03*
X0118815Y0142500D03*
X0123815Y0142500D03*
X0130915Y0234500D03*
X0135915Y0234500D03*
X0135915Y0265500D03*
X0130915Y0265500D03*
X0164315Y0265500D03*
X0169315Y0265500D03*
X0169315Y0234500D03*
X0164315Y0234500D03*
X0287415Y0274000D03*
X0292415Y0274000D03*
X0292415Y0293500D03*
X0287415Y0293500D03*
X0320815Y0293500D03*
X0325815Y0293500D03*
X0325815Y0274000D03*
X0320815Y0274000D03*
X0204315Y0428500D03*
X0199315Y0428500D03*
X0170915Y0428500D03*
X0165915Y0428500D03*
X0229415Y0444500D03*
X0234415Y0444500D03*
X0262815Y0444500D03*
X0267815Y0444500D03*
D20*
X0273615Y0464800D03*
X0273615Y0469800D03*
X0273615Y0498200D03*
X0273615Y0503200D03*
X0327615Y0454700D03*
X0327615Y0449700D03*
X0327615Y0421300D03*
X0327615Y0416300D03*
X0307615Y0412700D03*
X0307615Y0407700D03*
X0307615Y0379300D03*
X0307615Y0374300D03*
X0287115Y0376700D03*
X0287115Y0371700D03*
X0287115Y0343300D03*
X0287115Y0338300D03*
X0167115Y0360300D03*
X0167115Y0365300D03*
X0167115Y0393700D03*
X0167115Y0398700D03*
X0079615Y0349200D03*
X0079615Y0344200D03*
X0079615Y0315800D03*
X0079615Y0310800D03*
X0031115Y0344300D03*
X0031115Y0349300D03*
X0031115Y0377700D03*
X0031115Y0382700D03*
D21*
X0075115Y0484000D03*
X0206615Y0484500D03*
X0362615Y0484500D03*
D22*
X0365115Y0467250D03*
X0365115Y0501750D03*
X0209115Y0501750D03*
X0209115Y0467250D03*
X0077615Y0466750D03*
X0077615Y0501250D03*
D23*
X0077615Y0489000D03*
X0077615Y0479000D03*
X0209115Y0479500D03*
X0209115Y0489500D03*
X0365115Y0489500D03*
X0365115Y0479500D03*
D24*
X0332515Y0483000D03*
X0165015Y0483500D03*
X0050015Y0483000D03*
M02*
