G75*
%MOIN*%
%OFA0B0*%
%FSLAX25Y25*%
%IPPOS*%
%LPD*%
%AMOC8*
5,1,8,0,0,1.08239X$1,22.5*
%
%ADD10C,0.15750*%
%ADD11C,0.07000*%
%ADD12C,0.05524*%
%ADD13R,0.05800X0.03300*%
%ADD14OC8,0.07000*%
%ADD15C,0.06000*%
%ADD16OC8,0.06000*%
%ADD17C,0.06800*%
%ADD18C,0.08300*%
%ADD19C,0.11300*%
%ADD20C,0.10839*%
%ADD21C,0.13200*%
%ADD22C,0.26300*%
%ADD23C,0.03160*%
%ADD24R,0.04762X0.04762*%
D10*
X0152216Y0026500D03*
X0456216Y0026500D03*
X0602216Y0026500D03*
X0906216Y0026500D03*
X0872716Y0448500D03*
X0582716Y0452500D03*
X0425716Y0445500D03*
X0123716Y0451000D03*
D11*
X0188716Y0090000D03*
X0198716Y0090000D03*
X0208716Y0090000D03*
X0218716Y0090000D03*
X0228716Y0090000D03*
X0238716Y0090000D03*
X0248716Y0090000D03*
X0258716Y0090000D03*
X0268716Y0090000D03*
X0278716Y0090000D03*
X0288716Y0090000D03*
X0298716Y0090000D03*
X0308716Y0090000D03*
X0318716Y0090000D03*
X0328716Y0090000D03*
X0338716Y0090000D03*
X0348716Y0090000D03*
X0348716Y0030000D03*
X0338716Y0030000D03*
X0328716Y0030000D03*
X0318716Y0030000D03*
X0308716Y0030000D03*
X0298716Y0030000D03*
X0288716Y0030000D03*
X0278716Y0030000D03*
X0268716Y0030000D03*
X0258716Y0030000D03*
X0248716Y0030000D03*
X0238716Y0030000D03*
X0228716Y0030000D03*
X0218716Y0030000D03*
X0208716Y0030000D03*
X0198716Y0030000D03*
X0188716Y0030000D03*
X0638716Y0030000D03*
X0648716Y0030000D03*
X0658716Y0030000D03*
X0668716Y0030000D03*
X0678716Y0030000D03*
X0688716Y0030000D03*
X0698716Y0030000D03*
X0708716Y0030000D03*
X0718716Y0030000D03*
X0728716Y0030000D03*
X0738716Y0030000D03*
X0748716Y0030000D03*
X0758716Y0030000D03*
X0768716Y0030000D03*
X0778716Y0030000D03*
X0788716Y0030000D03*
X0798716Y0030000D03*
X0798716Y0090000D03*
X0788716Y0090000D03*
X0778716Y0090000D03*
X0768716Y0090000D03*
X0758716Y0090000D03*
X0748716Y0090000D03*
X0738716Y0090000D03*
X0728716Y0090000D03*
X0718716Y0090000D03*
X0708716Y0090000D03*
X0698716Y0090000D03*
X0688716Y0090000D03*
X0678716Y0090000D03*
X0668716Y0090000D03*
X0658716Y0090000D03*
X0648716Y0090000D03*
X0638716Y0090000D03*
D12*
X0628716Y0090000D03*
X0628716Y0030000D03*
X0808716Y0030000D03*
X0808716Y0090000D03*
X0358716Y0090000D03*
X0358716Y0030000D03*
X0178716Y0030000D03*
X0178716Y0090000D03*
D13*
X0186116Y0068100D03*
X0186116Y0064200D03*
X0186116Y0060200D03*
X0186116Y0056400D03*
X0186116Y0052400D03*
X0636116Y0052400D03*
X0636116Y0056400D03*
X0636116Y0060200D03*
X0636116Y0064200D03*
X0636116Y0068100D03*
D14*
X0783716Y0050500D03*
X0783716Y0040500D03*
X0793716Y0040500D03*
X0793716Y0050500D03*
X0803716Y0050500D03*
X0803716Y0040500D03*
X0353716Y0040500D03*
X0343716Y0040500D03*
X0333716Y0040500D03*
X0333716Y0050500D03*
X0343716Y0050500D03*
X0353716Y0050500D03*
D15*
X0333716Y0162400D02*
X0333716Y0167600D01*
X0323716Y0167600D02*
X0323716Y0162400D01*
X0313716Y0162400D02*
X0313716Y0167600D01*
X0303716Y0167600D02*
X0303716Y0162400D01*
X0303716Y0192400D02*
X0303716Y0197600D01*
X0313716Y0197600D02*
X0313716Y0192400D01*
X0323716Y0192400D02*
X0323716Y0197600D01*
X0333716Y0197600D02*
X0333716Y0192400D01*
X0438116Y0283500D02*
X0443316Y0283500D01*
X0443316Y0293500D02*
X0438116Y0293500D01*
X0438116Y0303500D02*
X0443316Y0303500D01*
X0468116Y0303500D02*
X0473316Y0303500D01*
X0473316Y0293500D02*
X0468116Y0293500D01*
X0468116Y0283500D02*
X0473316Y0283500D01*
X0556716Y0202200D02*
X0556716Y0197000D01*
X0566716Y0197000D02*
X0566716Y0202200D01*
X0576716Y0202200D02*
X0576716Y0197000D01*
X0586716Y0197000D02*
X0586716Y0202200D01*
X0596716Y0202200D02*
X0596716Y0197000D01*
X0606716Y0197000D02*
X0606716Y0202200D01*
X0616716Y0202200D02*
X0616716Y0197000D01*
X0626716Y0197000D02*
X0626716Y0202200D01*
X0626716Y0167000D02*
X0626716Y0161800D01*
X0616716Y0161800D02*
X0616716Y0167000D01*
X0606716Y0167000D02*
X0606716Y0161800D01*
X0596716Y0161800D02*
X0596716Y0167000D01*
X0586716Y0167000D02*
X0586716Y0161800D01*
X0576716Y0161800D02*
X0576716Y0167000D01*
X0566716Y0167000D02*
X0566716Y0161800D01*
X0556716Y0161800D02*
X0556716Y0167000D01*
X0637216Y0287400D02*
X0637216Y0292600D01*
X0647216Y0292600D02*
X0647216Y0287400D01*
X0657216Y0287400D02*
X0657216Y0292600D01*
X0667216Y0292600D02*
X0667216Y0287400D01*
X0677216Y0287400D02*
X0677216Y0292600D01*
X0677216Y0317400D02*
X0677216Y0322600D01*
X0667216Y0322600D02*
X0667216Y0317400D01*
X0657216Y0317400D02*
X0657216Y0322600D01*
X0647216Y0322600D02*
X0647216Y0317400D01*
X0637216Y0317400D02*
X0637216Y0322600D01*
X0719216Y0314100D02*
X0719216Y0308900D01*
X0729216Y0308900D02*
X0729216Y0314100D01*
X0739216Y0314100D02*
X0739216Y0308900D01*
X0749216Y0308900D02*
X0749216Y0314100D01*
X0759216Y0314100D02*
X0759216Y0308900D01*
X0759216Y0338900D02*
X0759216Y0344100D01*
X0749216Y0344100D02*
X0749216Y0338900D01*
X0739216Y0338900D02*
X0739216Y0344100D01*
X0729216Y0344100D02*
X0729216Y0338900D01*
X0719216Y0338900D02*
X0719216Y0344100D01*
X0763216Y0390900D02*
X0763216Y0396100D01*
X0773216Y0396100D02*
X0773216Y0390900D01*
X0783216Y0390900D02*
X0783216Y0396100D01*
X0793216Y0396100D02*
X0793216Y0390900D01*
X0793216Y0420900D02*
X0793216Y0426100D01*
X0783216Y0426100D02*
X0783216Y0420900D01*
X0773216Y0420900D02*
X0773216Y0426100D01*
X0763216Y0426100D02*
X0763216Y0420900D01*
X0667216Y0422100D02*
X0667216Y0416900D01*
X0657216Y0416900D02*
X0657216Y0422100D01*
X0647216Y0422100D02*
X0647216Y0416900D01*
X0637216Y0416900D02*
X0637216Y0422100D01*
X0637216Y0392100D02*
X0637216Y0386900D01*
X0647216Y0386900D02*
X0647216Y0392100D01*
X0657216Y0392100D02*
X0657216Y0386900D01*
X0667216Y0386900D02*
X0667216Y0392100D01*
X0888116Y0303500D02*
X0893316Y0303500D01*
X0893316Y0293500D02*
X0888116Y0293500D01*
X0888116Y0283500D02*
X0893316Y0283500D01*
X0918116Y0283500D02*
X0923316Y0283500D01*
X0923316Y0293500D02*
X0918116Y0293500D01*
X0918116Y0303500D02*
X0923316Y0303500D01*
X0783716Y0197600D02*
X0783716Y0192400D01*
X0773716Y0192400D02*
X0773716Y0197600D01*
X0763716Y0197600D02*
X0763716Y0192400D01*
X0753716Y0192400D02*
X0753716Y0197600D01*
X0753716Y0167600D02*
X0753716Y0162400D01*
X0763716Y0162400D02*
X0763716Y0167600D01*
X0773716Y0167600D02*
X0773716Y0162400D01*
X0783716Y0162400D02*
X0783716Y0167600D01*
X0343216Y0390900D02*
X0343216Y0396100D01*
X0333216Y0396100D02*
X0333216Y0390900D01*
X0323216Y0390900D02*
X0323216Y0396100D01*
X0313216Y0396100D02*
X0313216Y0390900D01*
X0313216Y0420900D02*
X0313216Y0426100D01*
X0323216Y0426100D02*
X0323216Y0420900D01*
X0333216Y0420900D02*
X0333216Y0426100D01*
X0343216Y0426100D02*
X0343216Y0420900D01*
X0309216Y0344100D02*
X0309216Y0338900D01*
X0299216Y0338900D02*
X0299216Y0344100D01*
X0289216Y0344100D02*
X0289216Y0338900D01*
X0279216Y0338900D02*
X0279216Y0344100D01*
X0269216Y0344100D02*
X0269216Y0338900D01*
X0269216Y0314100D02*
X0269216Y0308900D01*
X0279216Y0308900D02*
X0279216Y0314100D01*
X0289216Y0314100D02*
X0289216Y0308900D01*
X0299216Y0308900D02*
X0299216Y0314100D01*
X0309216Y0314100D02*
X0309216Y0308900D01*
X0227216Y0317400D02*
X0227216Y0322600D01*
X0217216Y0322600D02*
X0217216Y0317400D01*
X0207216Y0317400D02*
X0207216Y0322600D01*
X0197216Y0322600D02*
X0197216Y0317400D01*
X0187216Y0317400D02*
X0187216Y0322600D01*
X0187216Y0292600D02*
X0187216Y0287400D01*
X0197216Y0287400D02*
X0197216Y0292600D01*
X0207216Y0292600D02*
X0207216Y0287400D01*
X0217216Y0287400D02*
X0217216Y0292600D01*
X0227216Y0292600D02*
X0227216Y0287400D01*
X0176716Y0202200D02*
X0176716Y0197000D01*
X0166716Y0197000D02*
X0166716Y0202200D01*
X0156716Y0202200D02*
X0156716Y0197000D01*
X0146716Y0197000D02*
X0146716Y0202200D01*
X0136716Y0202200D02*
X0136716Y0197000D01*
X0126716Y0197000D02*
X0126716Y0202200D01*
X0116716Y0202200D02*
X0116716Y0197000D01*
X0106716Y0197000D02*
X0106716Y0202200D01*
X0106716Y0167000D02*
X0106716Y0161800D01*
X0116716Y0161800D02*
X0116716Y0167000D01*
X0126716Y0167000D02*
X0126716Y0161800D01*
X0136716Y0161800D02*
X0136716Y0167000D01*
X0146716Y0167000D02*
X0146716Y0161800D01*
X0156716Y0161800D02*
X0156716Y0167000D01*
X0166716Y0167000D02*
X0166716Y0161800D01*
X0176716Y0161800D02*
X0176716Y0167000D01*
X0187216Y0386900D02*
X0187216Y0392100D01*
X0197216Y0392100D02*
X0197216Y0386900D01*
X0207216Y0386900D02*
X0207216Y0392100D01*
X0217216Y0392100D02*
X0217216Y0386900D01*
X0217216Y0416900D02*
X0217216Y0422100D01*
X0207216Y0422100D02*
X0207216Y0416900D01*
X0197216Y0416900D02*
X0197216Y0422100D01*
X0187216Y0422100D02*
X0187216Y0416900D01*
D16*
X0116716Y0074500D03*
X0136716Y0085500D03*
X0116716Y0124500D03*
X0136716Y0135500D03*
X0156716Y0142500D03*
X0206716Y0142500D03*
X0201216Y0234500D03*
X0201216Y0250500D03*
X0201216Y0265500D03*
X0181216Y0250500D03*
X0251216Y0265500D03*
X0251216Y0234500D03*
X0357716Y0274000D03*
X0357716Y0293500D03*
X0363216Y0332500D03*
X0383216Y0369500D03*
X0363216Y0382500D03*
X0332216Y0369000D03*
X0312216Y0369000D03*
X0383216Y0418500D03*
X0433216Y0418500D03*
X0458216Y0391500D03*
X0458216Y0371500D03*
X0433216Y0369500D03*
X0505216Y0369000D03*
X0505216Y0389000D03*
X0557716Y0374500D03*
X0597216Y0348500D03*
X0607716Y0374500D03*
X0647216Y0348500D03*
X0577716Y0417000D03*
X0557716Y0417000D03*
X0743216Y0458000D03*
X0742716Y0490000D03*
X0792716Y0490000D03*
X0793216Y0458000D03*
X0833216Y0418500D03*
X0813216Y0382500D03*
X0833216Y0369500D03*
X0782216Y0369000D03*
X0762216Y0369000D03*
X0813216Y0332500D03*
X0807716Y0293500D03*
X0807716Y0274000D03*
X0818716Y0253000D03*
X0838716Y0253000D03*
X0857716Y0274000D03*
X0857716Y0293500D03*
X0941216Y0240000D03*
X0941216Y0220000D03*
X0955216Y0369000D03*
X0955216Y0389000D03*
X0908216Y0391500D03*
X0908216Y0371500D03*
X0883216Y0369500D03*
X0883216Y0418500D03*
X0701216Y0265500D03*
X0701216Y0234500D03*
X0651216Y0234500D03*
X0651216Y0250500D03*
X0651216Y0265500D03*
X0631216Y0250500D03*
X0491216Y0240000D03*
X0491216Y0220000D03*
X0407716Y0274000D03*
X0407716Y0293500D03*
X0388716Y0253000D03*
X0368716Y0253000D03*
X0197216Y0348500D03*
X0157716Y0374500D03*
X0147216Y0348500D03*
X0107716Y0374500D03*
X0107716Y0417000D03*
X0127716Y0417000D03*
X0293216Y0458000D03*
X0292716Y0490000D03*
X0342716Y0490000D03*
X0343216Y0458000D03*
X0606716Y0142500D03*
X0586716Y0135500D03*
X0566716Y0124500D03*
X0586716Y0085500D03*
X0566716Y0074500D03*
X0656716Y0142500D03*
D17*
X0813716Y0228000D02*
X0819716Y0228000D01*
X0843716Y0218000D02*
X0849716Y0218000D01*
X0863716Y0228000D02*
X0869716Y0228000D01*
X0419716Y0228000D02*
X0413716Y0228000D01*
X0399716Y0218000D02*
X0393716Y0218000D01*
X0369716Y0228000D02*
X0363716Y0228000D01*
D18*
X0499016Y0297400D03*
X0949016Y0297400D03*
D19*
X0938977Y0307439D03*
X0959055Y0307439D03*
X0959055Y0287361D03*
X0938977Y0287361D03*
X0509055Y0287361D03*
X0488977Y0287361D03*
X0488977Y0307439D03*
X0509055Y0307439D03*
D20*
X0562330Y0302980D02*
X0562330Y0313020D01*
X0577921Y0313020D02*
X0577921Y0302980D01*
X0593511Y0302980D02*
X0593511Y0313020D01*
X0609102Y0313020D02*
X0609102Y0302980D01*
X0572511Y0244020D02*
X0572511Y0233980D01*
X0556921Y0233980D02*
X0556921Y0244020D01*
X0505102Y0426980D02*
X0505102Y0437020D01*
X0489511Y0437020D02*
X0489511Y0426980D01*
X0473921Y0426980D02*
X0473921Y0437020D01*
X0458330Y0437020D02*
X0458330Y0426980D01*
X0326807Y0537480D02*
X0326807Y0547520D01*
X0311216Y0547520D02*
X0311216Y0537480D01*
X0295625Y0537480D02*
X0295625Y0547520D01*
X0295625Y0606980D02*
X0295625Y0617020D01*
X0311216Y0617020D02*
X0311216Y0606980D01*
X0326807Y0606980D02*
X0326807Y0617020D01*
X0745625Y0617020D02*
X0745625Y0606980D01*
X0761216Y0606980D02*
X0761216Y0617020D01*
X0776807Y0617020D02*
X0776807Y0606980D01*
X0776807Y0547520D02*
X0776807Y0537480D01*
X0761216Y0537480D02*
X0761216Y0547520D01*
X0745625Y0547520D02*
X0745625Y0537480D01*
X0908330Y0437020D02*
X0908330Y0426980D01*
X0923921Y0426980D02*
X0923921Y0437020D01*
X0939511Y0437020D02*
X0939511Y0426980D01*
X0955102Y0426980D02*
X0955102Y0437020D01*
X0159102Y0313020D02*
X0159102Y0302980D01*
X0143511Y0302980D02*
X0143511Y0313020D01*
X0127921Y0313020D02*
X0127921Y0302980D01*
X0112330Y0302980D02*
X0112330Y0313020D01*
X0106921Y0244020D02*
X0106921Y0233980D01*
X0122511Y0233980D02*
X0122511Y0244020D01*
D21*
X0170847Y0537963D02*
X0162079Y0546732D01*
X0192485Y0577137D02*
X0201253Y0568369D01*
X0430579Y0577768D02*
X0439347Y0586537D01*
X0469753Y0556131D02*
X0460985Y0547363D01*
D22*
X0403143Y0519927D03*
X0487289Y0604073D03*
X0584143Y0604573D03*
X0668289Y0520427D03*
X0852143Y0519427D03*
X0936289Y0603573D03*
X0218789Y0520427D03*
X0134643Y0604573D03*
D23*
X0614925Y0547086D02*
X0613345Y0548666D01*
X0618581Y0548666D01*
X0622282Y0544965D01*
X0622282Y0539729D01*
X0618581Y0536028D01*
X0613345Y0536028D01*
X0609644Y0539729D01*
X0609644Y0544965D01*
X0613345Y0548666D01*
X0614327Y0546296D01*
X0617599Y0546296D01*
X0619912Y0543983D01*
X0619912Y0540711D01*
X0617599Y0538398D01*
X0614327Y0538398D01*
X0612014Y0540711D01*
X0612014Y0543983D01*
X0614327Y0546296D01*
X0615309Y0543926D01*
X0616617Y0543926D01*
X0617542Y0543001D01*
X0617542Y0541693D01*
X0616617Y0540768D01*
X0615309Y0540768D01*
X0614384Y0541693D01*
X0614384Y0543001D01*
X0615309Y0543926D01*
X0645331Y0577492D02*
X0643751Y0579072D01*
X0648987Y0579072D01*
X0652688Y0575371D01*
X0652688Y0570135D01*
X0648987Y0566434D01*
X0643751Y0566434D01*
X0640050Y0570135D01*
X0640050Y0575371D01*
X0643751Y0579072D01*
X0644733Y0576702D01*
X0648005Y0576702D01*
X0650318Y0574389D01*
X0650318Y0571117D01*
X0648005Y0568804D01*
X0644733Y0568804D01*
X0642420Y0571117D01*
X0642420Y0574389D01*
X0644733Y0576702D01*
X0645715Y0574332D01*
X0647023Y0574332D01*
X0647948Y0573407D01*
X0647948Y0572099D01*
X0647023Y0571174D01*
X0645715Y0571174D01*
X0644790Y0572099D01*
X0644790Y0573407D01*
X0645715Y0574332D01*
X0878802Y0572791D02*
X0880382Y0574371D01*
X0880382Y0569135D01*
X0876681Y0565434D01*
X0871445Y0565434D01*
X0867744Y0569135D01*
X0867744Y0574371D01*
X0871445Y0578072D01*
X0876681Y0578072D01*
X0880382Y0574371D01*
X0878012Y0573389D01*
X0878012Y0570117D01*
X0875699Y0567804D01*
X0872427Y0567804D01*
X0870114Y0570117D01*
X0870114Y0573389D01*
X0872427Y0575702D01*
X0875699Y0575702D01*
X0878012Y0573389D01*
X0875642Y0572407D01*
X0875642Y0571099D01*
X0874717Y0570174D01*
X0873409Y0570174D01*
X0872484Y0571099D01*
X0872484Y0572407D01*
X0873409Y0573332D01*
X0874717Y0573332D01*
X0875642Y0572407D01*
X0909208Y0542385D02*
X0910788Y0543965D01*
X0910788Y0538729D01*
X0907087Y0535028D01*
X0901851Y0535028D01*
X0898150Y0538729D01*
X0898150Y0543965D01*
X0901851Y0547666D01*
X0907087Y0547666D01*
X0910788Y0543965D01*
X0908418Y0542983D01*
X0908418Y0539711D01*
X0906105Y0537398D01*
X0902833Y0537398D01*
X0900520Y0539711D01*
X0900520Y0542983D01*
X0902833Y0545296D01*
X0906105Y0545296D01*
X0908418Y0542983D01*
X0906048Y0542001D01*
X0906048Y0540693D01*
X0905123Y0539768D01*
X0903815Y0539768D01*
X0902890Y0540693D01*
X0902890Y0542001D01*
X0903815Y0542926D01*
X0905123Y0542926D01*
X0906048Y0542001D01*
D24*
X0763716Y0423000D03*
X0707466Y0368750D03*
X0637216Y0417500D03*
X0636716Y0418000D03*
X0609216Y0308114D03*
X0729216Y0282000D03*
X0731716Y0265500D03*
X0771216Y0240000D03*
X0773716Y0223500D03*
X0773716Y0135000D03*
X0741216Y0120500D03*
X0323716Y0135000D03*
X0291216Y0120500D03*
X0323716Y0223500D03*
X0321216Y0240000D03*
X0281716Y0265500D03*
X0279216Y0282000D03*
X0257466Y0368750D03*
X0187216Y0417500D03*
X0186716Y0418000D03*
X0313716Y0423000D03*
X0159216Y0308114D03*
M02*
