G75*
%MOIN*%
%OFA0B0*%
%FSLAX25Y25*%
%IPPOS*%
%LPD*%
%AMOC8*
5,1,8,0,0,1.08239X$1,22.5*
%
%ADD10C,0.13398*%
%ADD11C,0.10839*%
%ADD12C,0.08300*%
%ADD13C,0.11300*%
%ADD14C,0.12650*%
%ADD15OC8,0.06000*%
%ADD16C,0.06000*%
%ADD17C,0.07887*%
%ADD18C,0.09050*%
%ADD19C,0.06737*%
%ADD20C,0.10800*%
%ADD21OC8,0.10800*%
%ADD22OC8,0.06800*%
%ADD23C,0.08600*%
%ADD24R,0.04762X0.04762*%
D10*
X0026000Y0027800D03*
X0026000Y0577800D03*
X0576000Y0577800D03*
X0576000Y0027800D03*
D11*
X0151795Y0562780D02*
X0151795Y0572820D01*
X0136205Y0572820D02*
X0136205Y0562780D01*
X0073795Y0562780D02*
X0073795Y0572820D01*
X0058205Y0572820D02*
X0058205Y0562780D01*
D12*
X0066000Y0294800D03*
D13*
X0055961Y0284761D03*
X0055961Y0304839D03*
X0076039Y0304839D03*
X0076039Y0284761D03*
D14*
X0377000Y0573875D02*
X0377000Y0585725D01*
X0430700Y0303525D02*
X0430700Y0291675D01*
X0575000Y0292175D02*
X0575000Y0304025D01*
X0401000Y0031725D02*
X0401000Y0019875D01*
D15*
X0457000Y0067800D03*
X0457000Y0087800D03*
X0443000Y0227800D03*
X0443000Y0247800D03*
X0475000Y0297800D03*
X0444000Y0348800D03*
X0444000Y0368800D03*
X0515000Y0297800D03*
X0442000Y0511800D03*
X0442000Y0531800D03*
X0361000Y0642800D03*
X0336000Y0622800D03*
X0336000Y0672800D03*
X0361000Y0692800D03*
X0266000Y0627800D03*
X0216000Y0627800D03*
X0337000Y0523800D03*
X0337000Y0503800D03*
X0308000Y0437800D03*
X0288000Y0437800D03*
X0336000Y0366800D03*
X0336000Y0346800D03*
X0333000Y0245800D03*
X0333000Y0225800D03*
X0304000Y0160800D03*
X0284000Y0160800D03*
X0334000Y0092800D03*
X0334000Y0072800D03*
X0211000Y0160800D03*
X0211000Y0210800D03*
X0211000Y0245800D03*
X0211000Y0265800D03*
X0211000Y0303800D03*
X0231000Y0303800D03*
X0231000Y0325800D03*
X0231000Y0385800D03*
X0216000Y0827800D03*
X0266000Y0827800D03*
X0411000Y0857800D03*
X0456000Y0832800D03*
X0461000Y0840300D03*
X0466000Y0832800D03*
X0461000Y0857800D03*
D16*
X0426200Y0742800D02*
X0421000Y0742800D01*
X0421000Y0732800D02*
X0426200Y0732800D01*
X0426200Y0722800D02*
X0421000Y0722800D01*
X0421000Y0712800D02*
X0426200Y0712800D01*
X0426200Y0702800D02*
X0421000Y0702800D01*
X0421000Y0692800D02*
X0426200Y0692800D01*
X0426200Y0682800D02*
X0421000Y0682800D01*
X0421000Y0672800D02*
X0426200Y0672800D01*
X0391000Y0672800D02*
X0385800Y0672800D01*
X0385800Y0682800D02*
X0391000Y0682800D01*
X0391000Y0692800D02*
X0385800Y0692800D01*
X0385800Y0702800D02*
X0391000Y0702800D01*
X0391000Y0712800D02*
X0385800Y0712800D01*
X0385800Y0722800D02*
X0391000Y0722800D01*
X0391000Y0732800D02*
X0385800Y0732800D01*
X0385800Y0742800D02*
X0391000Y0742800D01*
X0498400Y0642800D02*
X0503600Y0642800D01*
X0538400Y0642800D02*
X0543600Y0642800D01*
X0337000Y0480400D02*
X0337000Y0475200D01*
X0337000Y0440400D02*
X0337000Y0435200D01*
X0251000Y0435200D02*
X0251000Y0440400D01*
X0241000Y0440400D02*
X0241000Y0435200D01*
X0231000Y0435200D02*
X0231000Y0440400D01*
X0231000Y0410400D02*
X0231000Y0405200D01*
X0241000Y0405200D02*
X0241000Y0410400D01*
X0251000Y0410400D02*
X0251000Y0405200D01*
X0168600Y0304800D02*
X0163400Y0304800D01*
X0163400Y0294800D02*
X0168600Y0294800D01*
X0168600Y0284800D02*
X0163400Y0284800D01*
X0163400Y0274800D02*
X0168600Y0274800D01*
X0138600Y0274800D02*
X0133400Y0274800D01*
X0133400Y0284800D02*
X0138600Y0284800D01*
X0138600Y0294800D02*
X0133400Y0294800D01*
X0133400Y0304800D02*
X0138600Y0304800D01*
X0231000Y0163400D02*
X0231000Y0158200D01*
X0241000Y0158200D02*
X0241000Y0163400D01*
X0251000Y0163400D02*
X0251000Y0158200D01*
X0251000Y0133400D02*
X0251000Y0128200D01*
X0241000Y0128200D02*
X0241000Y0133400D01*
X0231000Y0133400D02*
X0231000Y0128200D01*
X0333000Y0158200D02*
X0333000Y0163400D01*
X0333000Y0198200D02*
X0333000Y0203400D01*
X0093600Y0510800D02*
X0088400Y0510800D01*
X0053600Y0510800D02*
X0048400Y0510800D01*
D17*
X0055000Y0425800D03*
X0055000Y0395800D03*
X0055000Y0375800D03*
X0055000Y0355800D03*
X0025000Y0355800D03*
X0025000Y0375800D03*
X0025000Y0395800D03*
X0025000Y0425800D03*
D18*
X0575000Y0424675D02*
X0575000Y0432925D01*
X0575000Y0467675D02*
X0575000Y0475925D01*
X0575000Y0527675D02*
X0575000Y0535925D01*
X0575000Y0372925D02*
X0575000Y0364675D01*
X0575000Y0251925D02*
X0575000Y0243675D01*
X0575000Y0191925D02*
X0575000Y0183675D01*
X0575000Y0151925D02*
X0575000Y0143675D01*
X0575000Y0091925D02*
X0575000Y0083675D01*
D19*
X0175000Y0092800D03*
X0175000Y0072800D03*
X0175000Y0152800D03*
X0175000Y0162800D03*
X0115000Y0162800D03*
X0115000Y0152800D03*
X0115000Y0172800D03*
X0115000Y0092800D03*
X0115000Y0072800D03*
X0116000Y0346800D03*
X0116000Y0366800D03*
X0116000Y0426800D03*
X0116000Y0436800D03*
X0116000Y0446800D03*
X0176000Y0436800D03*
X0176000Y0426800D03*
X0176000Y0366800D03*
X0176000Y0346800D03*
X0296000Y0652800D03*
X0296000Y0662800D03*
X0296000Y0672800D03*
X0296000Y0682800D03*
X0296000Y0692800D03*
X0296000Y0702800D03*
X0296000Y0712800D03*
X0296000Y0722800D03*
X0296000Y0732800D03*
X0296000Y0742800D03*
X0296000Y0752800D03*
X0296000Y0762800D03*
X0296000Y0772800D03*
X0296000Y0782800D03*
X0296000Y0792800D03*
X0296000Y0802800D03*
X0296000Y0812800D03*
X0296000Y0822800D03*
X0296000Y0832800D03*
X0296000Y0842800D03*
X0306000Y0842800D03*
X0306000Y0832800D03*
X0306000Y0822800D03*
X0306000Y0812800D03*
X0306000Y0802800D03*
X0306000Y0792800D03*
X0306000Y0782800D03*
X0306000Y0772800D03*
X0306000Y0762800D03*
X0306000Y0752800D03*
X0306000Y0742800D03*
X0306000Y0732800D03*
X0306000Y0722800D03*
X0306000Y0712800D03*
X0306000Y0702800D03*
X0306000Y0692800D03*
X0306000Y0682800D03*
X0306000Y0672800D03*
X0306000Y0662800D03*
X0306000Y0652800D03*
D20*
X0260000Y0523800D03*
X0261000Y0346800D03*
X0272000Y0245800D03*
X0252000Y0072800D03*
X0515000Y0067800D03*
X0514000Y0247800D03*
X0515000Y0348800D03*
X0513000Y0531800D03*
D21*
X0513000Y0511800D03*
X0515000Y0368800D03*
X0514000Y0227800D03*
X0515000Y0087800D03*
X0272000Y0225800D03*
X0252000Y0092800D03*
X0261000Y0366800D03*
X0260000Y0503800D03*
D22*
X0273000Y0579800D03*
X0233000Y0579800D03*
X0233000Y0025800D03*
X0273000Y0025800D03*
D23*
X0456200Y0638900D02*
X0456200Y0646700D01*
X0475900Y0646700D02*
X0475900Y0638900D01*
X0507100Y0682800D02*
X0514900Y0682800D01*
X0537100Y0682800D02*
X0544900Y0682800D01*
X0577100Y0662700D02*
X0584900Y0662700D01*
X0584900Y0643000D02*
X0577100Y0643000D01*
X0544900Y0742800D02*
X0537100Y0742800D01*
X0537100Y0762800D02*
X0544900Y0762800D01*
X0544900Y0782800D02*
X0537100Y0782800D01*
X0514900Y0782800D02*
X0507100Y0782800D01*
X0507100Y0762800D02*
X0514900Y0762800D01*
X0514900Y0742800D02*
X0507100Y0742800D01*
X0469900Y0782900D02*
X0462100Y0782900D01*
X0462100Y0802600D02*
X0469900Y0802600D01*
X0577100Y0817900D02*
X0584900Y0817900D01*
X0584900Y0837600D02*
X0577100Y0837600D01*
X0224900Y0777700D02*
X0217100Y0777700D01*
X0217100Y0758000D02*
X0224900Y0758000D01*
X0224900Y0692700D02*
X0217100Y0692700D01*
X0217100Y0673000D02*
X0224900Y0673000D01*
D24*
X0281000Y0727800D03*
X0281000Y0812800D03*
X0446000Y0702800D03*
X0521000Y0702800D03*
X0101000Y0318800D03*
M02*
