%
M48
M72
T01C0.02362
T02C0.03200
T03C0.03937
T04C0.04000
T05C0.05000
T06C0.05200
T07C0.05500
T08C0.06693
T09C0.07000
T10C0.07900
T11C0.12598
%
T01
X101000Y318800
X281000Y727800
X281000Y812800
X446000Y702800
X521000Y702800
T02
X501000Y642800
X541000Y642800
X442000Y531800
X442000Y511800
X361000Y642800
X336000Y622800
X336000Y672800
X361000Y692800
X391000Y692800
X391000Y682800
X391000Y672800
X391000Y702800
X391000Y712800
X391000Y722800
X391000Y732800
X391000Y742800
X421000Y742800
X421000Y732800
X421000Y722800
X421000Y712800
X421000Y702800
X421000Y692800
X421000Y682800
X421000Y672800
X337000Y523800
X337000Y503800
X337000Y477800
X337000Y437800
X308000Y437800
X288000Y437800
X251000Y437800
X241000Y437800
X231000Y437800
X231000Y407800
X241000Y407800
X251000Y407800
X231000Y385800
X231000Y325800
X231000Y303800
X211000Y303800
X211000Y265800
X211000Y245800
X211000Y210800
X211000Y160800
X231000Y160800
X241000Y160800
X251000Y160800
X251000Y130800
X241000Y130800
X231000Y130800
X284000Y160800
X304000Y160800
X333000Y160800
X333000Y200800
X333000Y225800
X333000Y245800
X336000Y346800
X336000Y366800
X444000Y368800
X444000Y348800
X475000Y297800
X443000Y247800
X443000Y227800
X515000Y297800
X457000Y87800
X457000Y67800
X334000Y72800
X334000Y92800
X166000Y274800
X166000Y284800
X166000Y294800
X166000Y304800
X136000Y304800
X136000Y294800
X136000Y284800
X136000Y274800
X91000Y510800
X51000Y510800
X216000Y627800
X266000Y627800
X266000Y827800
X216000Y827800
X411000Y857800
X456000Y832800
X461000Y840300
X466000Y832800
X461000Y857800
T03
X306000Y842800
X306000Y832800
X306000Y822800
X306000Y812800
X306000Y802800
X306000Y792800
X306000Y782800
X306000Y772800
X306000Y762800
X306000Y752800
X306000Y742800
X306000Y732800
X306000Y722800
X306000Y712800
X306000Y702800
X306000Y692800
X306000Y682800
X306000Y672800
X306000Y662800
X306000Y652800
X296000Y652800
X296000Y662800
X296000Y672800
X296000Y682800
X296000Y692800
X296000Y702800
X296000Y712800
X296000Y722800
X296000Y732800
X296000Y742800
X296000Y752800
X296000Y762800
X296000Y772800
X296000Y782800
X296000Y792800
X296000Y802800
X296000Y812800
X296000Y822800
X296000Y832800
X296000Y842800
X116000Y446800
X116000Y436800
X116000Y426800
X116000Y366800
X116000Y346800
X176000Y346800
X176000Y366800
X176000Y426800
X176000Y436800
X55000Y425800
X55000Y395800
X55000Y375800
X55000Y355800
X25000Y355800
X25000Y375800
X25000Y395800
X25000Y425800
X115000Y172800
X115000Y162800
X115000Y152800
X115000Y92800
X115000Y72800
X175000Y72800
X175000Y92800
X175000Y152800
X175000Y162800
T04
X252000Y92800
X252000Y72800
X233000Y25800
X273000Y25800
X272000Y225800
X272000Y245800
X261000Y346800
X261000Y366800
X260000Y503800
X260000Y523800
X273000Y579800
X233000Y579800
X513000Y531800
X513000Y511800
X515000Y368800
X515000Y348800
X514000Y247800
X514000Y227800
X515000Y87800
X515000Y67800
T05
X66000Y294800
T06
X221000Y673000
X221000Y692700
X221000Y758000
X221000Y777700
X456200Y642800
X475900Y642800
X511000Y682800
X541000Y682800
X581000Y662700
X581000Y643000
X541000Y742800
X541000Y762800
X541000Y782800
X511000Y782800
X511000Y762800
X511000Y742800
X466000Y782900
X466000Y802600
X581000Y817900
X581000Y837600
T07
X575000Y531800
X575000Y471800
X575000Y428800
X575000Y368800
X575000Y247800
X575000Y187800
X575000Y147800
X575000Y87800
T08
X151795Y567800
X136205Y567800
X73795Y567800
X58205Y567800
T09
X55961Y304839
X55961Y284761
X76039Y284761
X76039Y304839
T10
X377000Y579800
X430700Y297600
X575000Y298100
X401000Y25800
T11
X26000Y27800
X26000Y577800
X576000Y577800
X576000Y27800
M30
