G75*
%MOIN*%
%OFA0B0*%
%FSLAX25Y25*%
%IPPOS*%
%LPD*%
%AMOC8*
5,1,8,0,0,1.08239X$1,22.5*
%
%ADD10C,0.00000*%
%ADD11C,0.10039*%
%ADD12C,0.07500*%
%ADD13C,0.10500*%
%ADD14C,0.11850*%
%ADD15OC8,0.05200*%
%ADD16C,0.05200*%
%ADD17C,0.07087*%
%ADD18C,0.08250*%
%ADD19R,0.35000X0.16000*%
%ADD20R,0.35000X0.08500*%
%ADD21R,0.35000X0.05000*%
%ADD22R,0.35000X0.19500*%
%ADD23R,0.35000X0.35000*%
%ADD24C,0.05937*%
%ADD25C,0.10000*%
%ADD26OC8,0.10000*%
%ADD27OC8,0.06000*%
%ADD28C,0.07800*%
%ADD29C,0.01600*%
%ADD30C,0.06600*%
%ADD31C,0.10000*%
%ADD32R,0.03962X0.03962*%
%ADD33C,0.05600*%
%ADD34C,0.15000*%
D10*
X0001000Y0002800D02*
X0001000Y0602800D01*
X0602000Y0602800D01*
X0602000Y0002800D01*
X0001000Y0002800D01*
X0019701Y0027800D02*
X0019703Y0027958D01*
X0019709Y0028116D01*
X0019719Y0028274D01*
X0019733Y0028432D01*
X0019751Y0028589D01*
X0019772Y0028746D01*
X0019798Y0028902D01*
X0019828Y0029058D01*
X0019861Y0029213D01*
X0019899Y0029366D01*
X0019940Y0029519D01*
X0019985Y0029671D01*
X0020034Y0029822D01*
X0020087Y0029971D01*
X0020143Y0030119D01*
X0020203Y0030265D01*
X0020267Y0030410D01*
X0020335Y0030553D01*
X0020406Y0030695D01*
X0020480Y0030835D01*
X0020558Y0030972D01*
X0020640Y0031108D01*
X0020724Y0031242D01*
X0020813Y0031373D01*
X0020904Y0031502D01*
X0020999Y0031629D01*
X0021096Y0031754D01*
X0021197Y0031876D01*
X0021301Y0031995D01*
X0021408Y0032112D01*
X0021518Y0032226D01*
X0021631Y0032337D01*
X0021746Y0032446D01*
X0021864Y0032551D01*
X0021985Y0032653D01*
X0022108Y0032753D01*
X0022234Y0032849D01*
X0022362Y0032942D01*
X0022492Y0033032D01*
X0022625Y0033118D01*
X0022760Y0033202D01*
X0022896Y0033281D01*
X0023035Y0033358D01*
X0023176Y0033430D01*
X0023318Y0033500D01*
X0023462Y0033565D01*
X0023608Y0033627D01*
X0023755Y0033685D01*
X0023904Y0033740D01*
X0024054Y0033791D01*
X0024205Y0033838D01*
X0024357Y0033881D01*
X0024510Y0033920D01*
X0024665Y0033956D01*
X0024820Y0033987D01*
X0024976Y0034015D01*
X0025132Y0034039D01*
X0025289Y0034059D01*
X0025447Y0034075D01*
X0025604Y0034087D01*
X0025763Y0034095D01*
X0025921Y0034099D01*
X0026079Y0034099D01*
X0026237Y0034095D01*
X0026396Y0034087D01*
X0026553Y0034075D01*
X0026711Y0034059D01*
X0026868Y0034039D01*
X0027024Y0034015D01*
X0027180Y0033987D01*
X0027335Y0033956D01*
X0027490Y0033920D01*
X0027643Y0033881D01*
X0027795Y0033838D01*
X0027946Y0033791D01*
X0028096Y0033740D01*
X0028245Y0033685D01*
X0028392Y0033627D01*
X0028538Y0033565D01*
X0028682Y0033500D01*
X0028824Y0033430D01*
X0028965Y0033358D01*
X0029104Y0033281D01*
X0029240Y0033202D01*
X0029375Y0033118D01*
X0029508Y0033032D01*
X0029638Y0032942D01*
X0029766Y0032849D01*
X0029892Y0032753D01*
X0030015Y0032653D01*
X0030136Y0032551D01*
X0030254Y0032446D01*
X0030369Y0032337D01*
X0030482Y0032226D01*
X0030592Y0032112D01*
X0030699Y0031995D01*
X0030803Y0031876D01*
X0030904Y0031754D01*
X0031001Y0031629D01*
X0031096Y0031502D01*
X0031187Y0031373D01*
X0031276Y0031242D01*
X0031360Y0031108D01*
X0031442Y0030972D01*
X0031520Y0030835D01*
X0031594Y0030695D01*
X0031665Y0030553D01*
X0031733Y0030410D01*
X0031797Y0030265D01*
X0031857Y0030119D01*
X0031913Y0029971D01*
X0031966Y0029822D01*
X0032015Y0029671D01*
X0032060Y0029519D01*
X0032101Y0029366D01*
X0032139Y0029213D01*
X0032172Y0029058D01*
X0032202Y0028902D01*
X0032228Y0028746D01*
X0032249Y0028589D01*
X0032267Y0028432D01*
X0032281Y0028274D01*
X0032291Y0028116D01*
X0032297Y0027958D01*
X0032299Y0027800D01*
X0032297Y0027642D01*
X0032291Y0027484D01*
X0032281Y0027326D01*
X0032267Y0027168D01*
X0032249Y0027011D01*
X0032228Y0026854D01*
X0032202Y0026698D01*
X0032172Y0026542D01*
X0032139Y0026387D01*
X0032101Y0026234D01*
X0032060Y0026081D01*
X0032015Y0025929D01*
X0031966Y0025778D01*
X0031913Y0025629D01*
X0031857Y0025481D01*
X0031797Y0025335D01*
X0031733Y0025190D01*
X0031665Y0025047D01*
X0031594Y0024905D01*
X0031520Y0024765D01*
X0031442Y0024628D01*
X0031360Y0024492D01*
X0031276Y0024358D01*
X0031187Y0024227D01*
X0031096Y0024098D01*
X0031001Y0023971D01*
X0030904Y0023846D01*
X0030803Y0023724D01*
X0030699Y0023605D01*
X0030592Y0023488D01*
X0030482Y0023374D01*
X0030369Y0023263D01*
X0030254Y0023154D01*
X0030136Y0023049D01*
X0030015Y0022947D01*
X0029892Y0022847D01*
X0029766Y0022751D01*
X0029638Y0022658D01*
X0029508Y0022568D01*
X0029375Y0022482D01*
X0029240Y0022398D01*
X0029104Y0022319D01*
X0028965Y0022242D01*
X0028824Y0022170D01*
X0028682Y0022100D01*
X0028538Y0022035D01*
X0028392Y0021973D01*
X0028245Y0021915D01*
X0028096Y0021860D01*
X0027946Y0021809D01*
X0027795Y0021762D01*
X0027643Y0021719D01*
X0027490Y0021680D01*
X0027335Y0021644D01*
X0027180Y0021613D01*
X0027024Y0021585D01*
X0026868Y0021561D01*
X0026711Y0021541D01*
X0026553Y0021525D01*
X0026396Y0021513D01*
X0026237Y0021505D01*
X0026079Y0021501D01*
X0025921Y0021501D01*
X0025763Y0021505D01*
X0025604Y0021513D01*
X0025447Y0021525D01*
X0025289Y0021541D01*
X0025132Y0021561D01*
X0024976Y0021585D01*
X0024820Y0021613D01*
X0024665Y0021644D01*
X0024510Y0021680D01*
X0024357Y0021719D01*
X0024205Y0021762D01*
X0024054Y0021809D01*
X0023904Y0021860D01*
X0023755Y0021915D01*
X0023608Y0021973D01*
X0023462Y0022035D01*
X0023318Y0022100D01*
X0023176Y0022170D01*
X0023035Y0022242D01*
X0022896Y0022319D01*
X0022760Y0022398D01*
X0022625Y0022482D01*
X0022492Y0022568D01*
X0022362Y0022658D01*
X0022234Y0022751D01*
X0022108Y0022847D01*
X0021985Y0022947D01*
X0021864Y0023049D01*
X0021746Y0023154D01*
X0021631Y0023263D01*
X0021518Y0023374D01*
X0021408Y0023488D01*
X0021301Y0023605D01*
X0021197Y0023724D01*
X0021096Y0023846D01*
X0020999Y0023971D01*
X0020904Y0024098D01*
X0020813Y0024227D01*
X0020724Y0024358D01*
X0020640Y0024492D01*
X0020558Y0024628D01*
X0020480Y0024765D01*
X0020406Y0024905D01*
X0020335Y0025047D01*
X0020267Y0025190D01*
X0020203Y0025335D01*
X0020143Y0025481D01*
X0020087Y0025629D01*
X0020034Y0025778D01*
X0019985Y0025929D01*
X0019940Y0026081D01*
X0019899Y0026234D01*
X0019861Y0026387D01*
X0019828Y0026542D01*
X0019798Y0026698D01*
X0019772Y0026854D01*
X0019751Y0027011D01*
X0019733Y0027168D01*
X0019719Y0027326D01*
X0019709Y0027484D01*
X0019703Y0027642D01*
X0019701Y0027800D01*
X0019701Y0577800D02*
X0019703Y0577958D01*
X0019709Y0578116D01*
X0019719Y0578274D01*
X0019733Y0578432D01*
X0019751Y0578589D01*
X0019772Y0578746D01*
X0019798Y0578902D01*
X0019828Y0579058D01*
X0019861Y0579213D01*
X0019899Y0579366D01*
X0019940Y0579519D01*
X0019985Y0579671D01*
X0020034Y0579822D01*
X0020087Y0579971D01*
X0020143Y0580119D01*
X0020203Y0580265D01*
X0020267Y0580410D01*
X0020335Y0580553D01*
X0020406Y0580695D01*
X0020480Y0580835D01*
X0020558Y0580972D01*
X0020640Y0581108D01*
X0020724Y0581242D01*
X0020813Y0581373D01*
X0020904Y0581502D01*
X0020999Y0581629D01*
X0021096Y0581754D01*
X0021197Y0581876D01*
X0021301Y0581995D01*
X0021408Y0582112D01*
X0021518Y0582226D01*
X0021631Y0582337D01*
X0021746Y0582446D01*
X0021864Y0582551D01*
X0021985Y0582653D01*
X0022108Y0582753D01*
X0022234Y0582849D01*
X0022362Y0582942D01*
X0022492Y0583032D01*
X0022625Y0583118D01*
X0022760Y0583202D01*
X0022896Y0583281D01*
X0023035Y0583358D01*
X0023176Y0583430D01*
X0023318Y0583500D01*
X0023462Y0583565D01*
X0023608Y0583627D01*
X0023755Y0583685D01*
X0023904Y0583740D01*
X0024054Y0583791D01*
X0024205Y0583838D01*
X0024357Y0583881D01*
X0024510Y0583920D01*
X0024665Y0583956D01*
X0024820Y0583987D01*
X0024976Y0584015D01*
X0025132Y0584039D01*
X0025289Y0584059D01*
X0025447Y0584075D01*
X0025604Y0584087D01*
X0025763Y0584095D01*
X0025921Y0584099D01*
X0026079Y0584099D01*
X0026237Y0584095D01*
X0026396Y0584087D01*
X0026553Y0584075D01*
X0026711Y0584059D01*
X0026868Y0584039D01*
X0027024Y0584015D01*
X0027180Y0583987D01*
X0027335Y0583956D01*
X0027490Y0583920D01*
X0027643Y0583881D01*
X0027795Y0583838D01*
X0027946Y0583791D01*
X0028096Y0583740D01*
X0028245Y0583685D01*
X0028392Y0583627D01*
X0028538Y0583565D01*
X0028682Y0583500D01*
X0028824Y0583430D01*
X0028965Y0583358D01*
X0029104Y0583281D01*
X0029240Y0583202D01*
X0029375Y0583118D01*
X0029508Y0583032D01*
X0029638Y0582942D01*
X0029766Y0582849D01*
X0029892Y0582753D01*
X0030015Y0582653D01*
X0030136Y0582551D01*
X0030254Y0582446D01*
X0030369Y0582337D01*
X0030482Y0582226D01*
X0030592Y0582112D01*
X0030699Y0581995D01*
X0030803Y0581876D01*
X0030904Y0581754D01*
X0031001Y0581629D01*
X0031096Y0581502D01*
X0031187Y0581373D01*
X0031276Y0581242D01*
X0031360Y0581108D01*
X0031442Y0580972D01*
X0031520Y0580835D01*
X0031594Y0580695D01*
X0031665Y0580553D01*
X0031733Y0580410D01*
X0031797Y0580265D01*
X0031857Y0580119D01*
X0031913Y0579971D01*
X0031966Y0579822D01*
X0032015Y0579671D01*
X0032060Y0579519D01*
X0032101Y0579366D01*
X0032139Y0579213D01*
X0032172Y0579058D01*
X0032202Y0578902D01*
X0032228Y0578746D01*
X0032249Y0578589D01*
X0032267Y0578432D01*
X0032281Y0578274D01*
X0032291Y0578116D01*
X0032297Y0577958D01*
X0032299Y0577800D01*
X0032297Y0577642D01*
X0032291Y0577484D01*
X0032281Y0577326D01*
X0032267Y0577168D01*
X0032249Y0577011D01*
X0032228Y0576854D01*
X0032202Y0576698D01*
X0032172Y0576542D01*
X0032139Y0576387D01*
X0032101Y0576234D01*
X0032060Y0576081D01*
X0032015Y0575929D01*
X0031966Y0575778D01*
X0031913Y0575629D01*
X0031857Y0575481D01*
X0031797Y0575335D01*
X0031733Y0575190D01*
X0031665Y0575047D01*
X0031594Y0574905D01*
X0031520Y0574765D01*
X0031442Y0574628D01*
X0031360Y0574492D01*
X0031276Y0574358D01*
X0031187Y0574227D01*
X0031096Y0574098D01*
X0031001Y0573971D01*
X0030904Y0573846D01*
X0030803Y0573724D01*
X0030699Y0573605D01*
X0030592Y0573488D01*
X0030482Y0573374D01*
X0030369Y0573263D01*
X0030254Y0573154D01*
X0030136Y0573049D01*
X0030015Y0572947D01*
X0029892Y0572847D01*
X0029766Y0572751D01*
X0029638Y0572658D01*
X0029508Y0572568D01*
X0029375Y0572482D01*
X0029240Y0572398D01*
X0029104Y0572319D01*
X0028965Y0572242D01*
X0028824Y0572170D01*
X0028682Y0572100D01*
X0028538Y0572035D01*
X0028392Y0571973D01*
X0028245Y0571915D01*
X0028096Y0571860D01*
X0027946Y0571809D01*
X0027795Y0571762D01*
X0027643Y0571719D01*
X0027490Y0571680D01*
X0027335Y0571644D01*
X0027180Y0571613D01*
X0027024Y0571585D01*
X0026868Y0571561D01*
X0026711Y0571541D01*
X0026553Y0571525D01*
X0026396Y0571513D01*
X0026237Y0571505D01*
X0026079Y0571501D01*
X0025921Y0571501D01*
X0025763Y0571505D01*
X0025604Y0571513D01*
X0025447Y0571525D01*
X0025289Y0571541D01*
X0025132Y0571561D01*
X0024976Y0571585D01*
X0024820Y0571613D01*
X0024665Y0571644D01*
X0024510Y0571680D01*
X0024357Y0571719D01*
X0024205Y0571762D01*
X0024054Y0571809D01*
X0023904Y0571860D01*
X0023755Y0571915D01*
X0023608Y0571973D01*
X0023462Y0572035D01*
X0023318Y0572100D01*
X0023176Y0572170D01*
X0023035Y0572242D01*
X0022896Y0572319D01*
X0022760Y0572398D01*
X0022625Y0572482D01*
X0022492Y0572568D01*
X0022362Y0572658D01*
X0022234Y0572751D01*
X0022108Y0572847D01*
X0021985Y0572947D01*
X0021864Y0573049D01*
X0021746Y0573154D01*
X0021631Y0573263D01*
X0021518Y0573374D01*
X0021408Y0573488D01*
X0021301Y0573605D01*
X0021197Y0573724D01*
X0021096Y0573846D01*
X0020999Y0573971D01*
X0020904Y0574098D01*
X0020813Y0574227D01*
X0020724Y0574358D01*
X0020640Y0574492D01*
X0020558Y0574628D01*
X0020480Y0574765D01*
X0020406Y0574905D01*
X0020335Y0575047D01*
X0020267Y0575190D01*
X0020203Y0575335D01*
X0020143Y0575481D01*
X0020087Y0575629D01*
X0020034Y0575778D01*
X0019985Y0575929D01*
X0019940Y0576081D01*
X0019899Y0576234D01*
X0019861Y0576387D01*
X0019828Y0576542D01*
X0019798Y0576698D01*
X0019772Y0576854D01*
X0019751Y0577011D01*
X0019733Y0577168D01*
X0019719Y0577326D01*
X0019709Y0577484D01*
X0019703Y0577642D01*
X0019701Y0577800D01*
X0196000Y0607800D02*
X0196000Y0867800D01*
X0600921Y0867800D01*
X0600921Y0607800D01*
X0196000Y0607800D01*
X0569701Y0577800D02*
X0569703Y0577958D01*
X0569709Y0578116D01*
X0569719Y0578274D01*
X0569733Y0578432D01*
X0569751Y0578589D01*
X0569772Y0578746D01*
X0569798Y0578902D01*
X0569828Y0579058D01*
X0569861Y0579213D01*
X0569899Y0579366D01*
X0569940Y0579519D01*
X0569985Y0579671D01*
X0570034Y0579822D01*
X0570087Y0579971D01*
X0570143Y0580119D01*
X0570203Y0580265D01*
X0570267Y0580410D01*
X0570335Y0580553D01*
X0570406Y0580695D01*
X0570480Y0580835D01*
X0570558Y0580972D01*
X0570640Y0581108D01*
X0570724Y0581242D01*
X0570813Y0581373D01*
X0570904Y0581502D01*
X0570999Y0581629D01*
X0571096Y0581754D01*
X0571197Y0581876D01*
X0571301Y0581995D01*
X0571408Y0582112D01*
X0571518Y0582226D01*
X0571631Y0582337D01*
X0571746Y0582446D01*
X0571864Y0582551D01*
X0571985Y0582653D01*
X0572108Y0582753D01*
X0572234Y0582849D01*
X0572362Y0582942D01*
X0572492Y0583032D01*
X0572625Y0583118D01*
X0572760Y0583202D01*
X0572896Y0583281D01*
X0573035Y0583358D01*
X0573176Y0583430D01*
X0573318Y0583500D01*
X0573462Y0583565D01*
X0573608Y0583627D01*
X0573755Y0583685D01*
X0573904Y0583740D01*
X0574054Y0583791D01*
X0574205Y0583838D01*
X0574357Y0583881D01*
X0574510Y0583920D01*
X0574665Y0583956D01*
X0574820Y0583987D01*
X0574976Y0584015D01*
X0575132Y0584039D01*
X0575289Y0584059D01*
X0575447Y0584075D01*
X0575604Y0584087D01*
X0575763Y0584095D01*
X0575921Y0584099D01*
X0576079Y0584099D01*
X0576237Y0584095D01*
X0576396Y0584087D01*
X0576553Y0584075D01*
X0576711Y0584059D01*
X0576868Y0584039D01*
X0577024Y0584015D01*
X0577180Y0583987D01*
X0577335Y0583956D01*
X0577490Y0583920D01*
X0577643Y0583881D01*
X0577795Y0583838D01*
X0577946Y0583791D01*
X0578096Y0583740D01*
X0578245Y0583685D01*
X0578392Y0583627D01*
X0578538Y0583565D01*
X0578682Y0583500D01*
X0578824Y0583430D01*
X0578965Y0583358D01*
X0579104Y0583281D01*
X0579240Y0583202D01*
X0579375Y0583118D01*
X0579508Y0583032D01*
X0579638Y0582942D01*
X0579766Y0582849D01*
X0579892Y0582753D01*
X0580015Y0582653D01*
X0580136Y0582551D01*
X0580254Y0582446D01*
X0580369Y0582337D01*
X0580482Y0582226D01*
X0580592Y0582112D01*
X0580699Y0581995D01*
X0580803Y0581876D01*
X0580904Y0581754D01*
X0581001Y0581629D01*
X0581096Y0581502D01*
X0581187Y0581373D01*
X0581276Y0581242D01*
X0581360Y0581108D01*
X0581442Y0580972D01*
X0581520Y0580835D01*
X0581594Y0580695D01*
X0581665Y0580553D01*
X0581733Y0580410D01*
X0581797Y0580265D01*
X0581857Y0580119D01*
X0581913Y0579971D01*
X0581966Y0579822D01*
X0582015Y0579671D01*
X0582060Y0579519D01*
X0582101Y0579366D01*
X0582139Y0579213D01*
X0582172Y0579058D01*
X0582202Y0578902D01*
X0582228Y0578746D01*
X0582249Y0578589D01*
X0582267Y0578432D01*
X0582281Y0578274D01*
X0582291Y0578116D01*
X0582297Y0577958D01*
X0582299Y0577800D01*
X0582297Y0577642D01*
X0582291Y0577484D01*
X0582281Y0577326D01*
X0582267Y0577168D01*
X0582249Y0577011D01*
X0582228Y0576854D01*
X0582202Y0576698D01*
X0582172Y0576542D01*
X0582139Y0576387D01*
X0582101Y0576234D01*
X0582060Y0576081D01*
X0582015Y0575929D01*
X0581966Y0575778D01*
X0581913Y0575629D01*
X0581857Y0575481D01*
X0581797Y0575335D01*
X0581733Y0575190D01*
X0581665Y0575047D01*
X0581594Y0574905D01*
X0581520Y0574765D01*
X0581442Y0574628D01*
X0581360Y0574492D01*
X0581276Y0574358D01*
X0581187Y0574227D01*
X0581096Y0574098D01*
X0581001Y0573971D01*
X0580904Y0573846D01*
X0580803Y0573724D01*
X0580699Y0573605D01*
X0580592Y0573488D01*
X0580482Y0573374D01*
X0580369Y0573263D01*
X0580254Y0573154D01*
X0580136Y0573049D01*
X0580015Y0572947D01*
X0579892Y0572847D01*
X0579766Y0572751D01*
X0579638Y0572658D01*
X0579508Y0572568D01*
X0579375Y0572482D01*
X0579240Y0572398D01*
X0579104Y0572319D01*
X0578965Y0572242D01*
X0578824Y0572170D01*
X0578682Y0572100D01*
X0578538Y0572035D01*
X0578392Y0571973D01*
X0578245Y0571915D01*
X0578096Y0571860D01*
X0577946Y0571809D01*
X0577795Y0571762D01*
X0577643Y0571719D01*
X0577490Y0571680D01*
X0577335Y0571644D01*
X0577180Y0571613D01*
X0577024Y0571585D01*
X0576868Y0571561D01*
X0576711Y0571541D01*
X0576553Y0571525D01*
X0576396Y0571513D01*
X0576237Y0571505D01*
X0576079Y0571501D01*
X0575921Y0571501D01*
X0575763Y0571505D01*
X0575604Y0571513D01*
X0575447Y0571525D01*
X0575289Y0571541D01*
X0575132Y0571561D01*
X0574976Y0571585D01*
X0574820Y0571613D01*
X0574665Y0571644D01*
X0574510Y0571680D01*
X0574357Y0571719D01*
X0574205Y0571762D01*
X0574054Y0571809D01*
X0573904Y0571860D01*
X0573755Y0571915D01*
X0573608Y0571973D01*
X0573462Y0572035D01*
X0573318Y0572100D01*
X0573176Y0572170D01*
X0573035Y0572242D01*
X0572896Y0572319D01*
X0572760Y0572398D01*
X0572625Y0572482D01*
X0572492Y0572568D01*
X0572362Y0572658D01*
X0572234Y0572751D01*
X0572108Y0572847D01*
X0571985Y0572947D01*
X0571864Y0573049D01*
X0571746Y0573154D01*
X0571631Y0573263D01*
X0571518Y0573374D01*
X0571408Y0573488D01*
X0571301Y0573605D01*
X0571197Y0573724D01*
X0571096Y0573846D01*
X0570999Y0573971D01*
X0570904Y0574098D01*
X0570813Y0574227D01*
X0570724Y0574358D01*
X0570640Y0574492D01*
X0570558Y0574628D01*
X0570480Y0574765D01*
X0570406Y0574905D01*
X0570335Y0575047D01*
X0570267Y0575190D01*
X0570203Y0575335D01*
X0570143Y0575481D01*
X0570087Y0575629D01*
X0570034Y0575778D01*
X0569985Y0575929D01*
X0569940Y0576081D01*
X0569899Y0576234D01*
X0569861Y0576387D01*
X0569828Y0576542D01*
X0569798Y0576698D01*
X0569772Y0576854D01*
X0569751Y0577011D01*
X0569733Y0577168D01*
X0569719Y0577326D01*
X0569709Y0577484D01*
X0569703Y0577642D01*
X0569701Y0577800D01*
X0569701Y0027800D02*
X0569703Y0027958D01*
X0569709Y0028116D01*
X0569719Y0028274D01*
X0569733Y0028432D01*
X0569751Y0028589D01*
X0569772Y0028746D01*
X0569798Y0028902D01*
X0569828Y0029058D01*
X0569861Y0029213D01*
X0569899Y0029366D01*
X0569940Y0029519D01*
X0569985Y0029671D01*
X0570034Y0029822D01*
X0570087Y0029971D01*
X0570143Y0030119D01*
X0570203Y0030265D01*
X0570267Y0030410D01*
X0570335Y0030553D01*
X0570406Y0030695D01*
X0570480Y0030835D01*
X0570558Y0030972D01*
X0570640Y0031108D01*
X0570724Y0031242D01*
X0570813Y0031373D01*
X0570904Y0031502D01*
X0570999Y0031629D01*
X0571096Y0031754D01*
X0571197Y0031876D01*
X0571301Y0031995D01*
X0571408Y0032112D01*
X0571518Y0032226D01*
X0571631Y0032337D01*
X0571746Y0032446D01*
X0571864Y0032551D01*
X0571985Y0032653D01*
X0572108Y0032753D01*
X0572234Y0032849D01*
X0572362Y0032942D01*
X0572492Y0033032D01*
X0572625Y0033118D01*
X0572760Y0033202D01*
X0572896Y0033281D01*
X0573035Y0033358D01*
X0573176Y0033430D01*
X0573318Y0033500D01*
X0573462Y0033565D01*
X0573608Y0033627D01*
X0573755Y0033685D01*
X0573904Y0033740D01*
X0574054Y0033791D01*
X0574205Y0033838D01*
X0574357Y0033881D01*
X0574510Y0033920D01*
X0574665Y0033956D01*
X0574820Y0033987D01*
X0574976Y0034015D01*
X0575132Y0034039D01*
X0575289Y0034059D01*
X0575447Y0034075D01*
X0575604Y0034087D01*
X0575763Y0034095D01*
X0575921Y0034099D01*
X0576079Y0034099D01*
X0576237Y0034095D01*
X0576396Y0034087D01*
X0576553Y0034075D01*
X0576711Y0034059D01*
X0576868Y0034039D01*
X0577024Y0034015D01*
X0577180Y0033987D01*
X0577335Y0033956D01*
X0577490Y0033920D01*
X0577643Y0033881D01*
X0577795Y0033838D01*
X0577946Y0033791D01*
X0578096Y0033740D01*
X0578245Y0033685D01*
X0578392Y0033627D01*
X0578538Y0033565D01*
X0578682Y0033500D01*
X0578824Y0033430D01*
X0578965Y0033358D01*
X0579104Y0033281D01*
X0579240Y0033202D01*
X0579375Y0033118D01*
X0579508Y0033032D01*
X0579638Y0032942D01*
X0579766Y0032849D01*
X0579892Y0032753D01*
X0580015Y0032653D01*
X0580136Y0032551D01*
X0580254Y0032446D01*
X0580369Y0032337D01*
X0580482Y0032226D01*
X0580592Y0032112D01*
X0580699Y0031995D01*
X0580803Y0031876D01*
X0580904Y0031754D01*
X0581001Y0031629D01*
X0581096Y0031502D01*
X0581187Y0031373D01*
X0581276Y0031242D01*
X0581360Y0031108D01*
X0581442Y0030972D01*
X0581520Y0030835D01*
X0581594Y0030695D01*
X0581665Y0030553D01*
X0581733Y0030410D01*
X0581797Y0030265D01*
X0581857Y0030119D01*
X0581913Y0029971D01*
X0581966Y0029822D01*
X0582015Y0029671D01*
X0582060Y0029519D01*
X0582101Y0029366D01*
X0582139Y0029213D01*
X0582172Y0029058D01*
X0582202Y0028902D01*
X0582228Y0028746D01*
X0582249Y0028589D01*
X0582267Y0028432D01*
X0582281Y0028274D01*
X0582291Y0028116D01*
X0582297Y0027958D01*
X0582299Y0027800D01*
X0582297Y0027642D01*
X0582291Y0027484D01*
X0582281Y0027326D01*
X0582267Y0027168D01*
X0582249Y0027011D01*
X0582228Y0026854D01*
X0582202Y0026698D01*
X0582172Y0026542D01*
X0582139Y0026387D01*
X0582101Y0026234D01*
X0582060Y0026081D01*
X0582015Y0025929D01*
X0581966Y0025778D01*
X0581913Y0025629D01*
X0581857Y0025481D01*
X0581797Y0025335D01*
X0581733Y0025190D01*
X0581665Y0025047D01*
X0581594Y0024905D01*
X0581520Y0024765D01*
X0581442Y0024628D01*
X0581360Y0024492D01*
X0581276Y0024358D01*
X0581187Y0024227D01*
X0581096Y0024098D01*
X0581001Y0023971D01*
X0580904Y0023846D01*
X0580803Y0023724D01*
X0580699Y0023605D01*
X0580592Y0023488D01*
X0580482Y0023374D01*
X0580369Y0023263D01*
X0580254Y0023154D01*
X0580136Y0023049D01*
X0580015Y0022947D01*
X0579892Y0022847D01*
X0579766Y0022751D01*
X0579638Y0022658D01*
X0579508Y0022568D01*
X0579375Y0022482D01*
X0579240Y0022398D01*
X0579104Y0022319D01*
X0578965Y0022242D01*
X0578824Y0022170D01*
X0578682Y0022100D01*
X0578538Y0022035D01*
X0578392Y0021973D01*
X0578245Y0021915D01*
X0578096Y0021860D01*
X0577946Y0021809D01*
X0577795Y0021762D01*
X0577643Y0021719D01*
X0577490Y0021680D01*
X0577335Y0021644D01*
X0577180Y0021613D01*
X0577024Y0021585D01*
X0576868Y0021561D01*
X0576711Y0021541D01*
X0576553Y0021525D01*
X0576396Y0021513D01*
X0576237Y0021505D01*
X0576079Y0021501D01*
X0575921Y0021501D01*
X0575763Y0021505D01*
X0575604Y0021513D01*
X0575447Y0021525D01*
X0575289Y0021541D01*
X0575132Y0021561D01*
X0574976Y0021585D01*
X0574820Y0021613D01*
X0574665Y0021644D01*
X0574510Y0021680D01*
X0574357Y0021719D01*
X0574205Y0021762D01*
X0574054Y0021809D01*
X0573904Y0021860D01*
X0573755Y0021915D01*
X0573608Y0021973D01*
X0573462Y0022035D01*
X0573318Y0022100D01*
X0573176Y0022170D01*
X0573035Y0022242D01*
X0572896Y0022319D01*
X0572760Y0022398D01*
X0572625Y0022482D01*
X0572492Y0022568D01*
X0572362Y0022658D01*
X0572234Y0022751D01*
X0572108Y0022847D01*
X0571985Y0022947D01*
X0571864Y0023049D01*
X0571746Y0023154D01*
X0571631Y0023263D01*
X0571518Y0023374D01*
X0571408Y0023488D01*
X0571301Y0023605D01*
X0571197Y0023724D01*
X0571096Y0023846D01*
X0570999Y0023971D01*
X0570904Y0024098D01*
X0570813Y0024227D01*
X0570724Y0024358D01*
X0570640Y0024492D01*
X0570558Y0024628D01*
X0570480Y0024765D01*
X0570406Y0024905D01*
X0570335Y0025047D01*
X0570267Y0025190D01*
X0570203Y0025335D01*
X0570143Y0025481D01*
X0570087Y0025629D01*
X0570034Y0025778D01*
X0569985Y0025929D01*
X0569940Y0026081D01*
X0569899Y0026234D01*
X0569861Y0026387D01*
X0569828Y0026542D01*
X0569798Y0026698D01*
X0569772Y0026854D01*
X0569751Y0027011D01*
X0569733Y0027168D01*
X0569719Y0027326D01*
X0569709Y0027484D01*
X0569703Y0027642D01*
X0569701Y0027800D01*
D11*
X0151795Y0562780D02*
X0151795Y0572820D01*
X0136205Y0572820D02*
X0136205Y0562780D01*
X0073795Y0562780D02*
X0073795Y0572820D01*
X0058205Y0572820D02*
X0058205Y0562780D01*
D12*
X0066000Y0294800D03*
D13*
X0055961Y0284761D03*
X0055961Y0304839D03*
X0076039Y0304839D03*
X0076039Y0284761D03*
D14*
X0377000Y0573875D02*
X0377000Y0585725D01*
X0430700Y0303525D02*
X0430700Y0291675D01*
X0575000Y0292175D02*
X0575000Y0304025D01*
X0401000Y0031725D02*
X0401000Y0019875D01*
D15*
X0457000Y0067800D03*
X0457000Y0087800D03*
X0443000Y0227800D03*
X0443000Y0247800D03*
X0475000Y0297800D03*
X0444000Y0348800D03*
X0444000Y0368800D03*
X0515000Y0297800D03*
X0442000Y0511800D03*
X0442000Y0531800D03*
X0361000Y0642800D03*
X0336000Y0622800D03*
X0336000Y0672800D03*
X0361000Y0692800D03*
X0266000Y0627800D03*
X0216000Y0627800D03*
X0337000Y0523800D03*
X0337000Y0503800D03*
X0308000Y0437800D03*
X0288000Y0437800D03*
X0336000Y0366800D03*
X0336000Y0346800D03*
X0333000Y0245800D03*
X0333000Y0225800D03*
X0304000Y0160800D03*
X0284000Y0160800D03*
X0334000Y0092800D03*
X0334000Y0072800D03*
X0211000Y0160800D03*
X0211000Y0210800D03*
X0211000Y0245800D03*
X0211000Y0265800D03*
X0211000Y0303800D03*
X0231000Y0303800D03*
X0231000Y0325800D03*
X0231000Y0385800D03*
X0216000Y0827800D03*
X0266000Y0827800D03*
X0411000Y0857800D03*
X0456000Y0832800D03*
X0461000Y0840300D03*
X0466000Y0832800D03*
X0461000Y0857800D03*
D16*
X0426200Y0742800D02*
X0421000Y0742800D01*
X0421000Y0732800D02*
X0426200Y0732800D01*
X0426200Y0722800D02*
X0421000Y0722800D01*
X0421000Y0712800D02*
X0426200Y0712800D01*
X0426200Y0702800D02*
X0421000Y0702800D01*
X0421000Y0692800D02*
X0426200Y0692800D01*
X0426200Y0682800D02*
X0421000Y0682800D01*
X0421000Y0672800D02*
X0426200Y0672800D01*
X0391000Y0672800D02*
X0385800Y0672800D01*
X0385800Y0682800D02*
X0391000Y0682800D01*
X0391000Y0692800D02*
X0385800Y0692800D01*
X0385800Y0702800D02*
X0391000Y0702800D01*
X0391000Y0712800D02*
X0385800Y0712800D01*
X0385800Y0722800D02*
X0391000Y0722800D01*
X0391000Y0732800D02*
X0385800Y0732800D01*
X0385800Y0742800D02*
X0391000Y0742800D01*
X0498400Y0642800D02*
X0503600Y0642800D01*
X0538400Y0642800D02*
X0543600Y0642800D01*
X0337000Y0480400D02*
X0337000Y0475200D01*
X0337000Y0440400D02*
X0337000Y0435200D01*
X0251000Y0435200D02*
X0251000Y0440400D01*
X0241000Y0440400D02*
X0241000Y0435200D01*
X0231000Y0435200D02*
X0231000Y0440400D01*
X0231000Y0410400D02*
X0231000Y0405200D01*
X0241000Y0405200D02*
X0241000Y0410400D01*
X0251000Y0410400D02*
X0251000Y0405200D01*
X0168600Y0304800D02*
X0163400Y0304800D01*
X0163400Y0294800D02*
X0168600Y0294800D01*
X0168600Y0284800D02*
X0163400Y0284800D01*
X0163400Y0274800D02*
X0168600Y0274800D01*
X0138600Y0274800D02*
X0133400Y0274800D01*
X0133400Y0284800D02*
X0138600Y0284800D01*
X0138600Y0294800D02*
X0133400Y0294800D01*
X0133400Y0304800D02*
X0138600Y0304800D01*
X0231000Y0163400D02*
X0231000Y0158200D01*
X0241000Y0158200D02*
X0241000Y0163400D01*
X0251000Y0163400D02*
X0251000Y0158200D01*
X0251000Y0133400D02*
X0251000Y0128200D01*
X0241000Y0128200D02*
X0241000Y0133400D01*
X0231000Y0133400D02*
X0231000Y0128200D01*
X0333000Y0158200D02*
X0333000Y0163400D01*
X0333000Y0198200D02*
X0333000Y0203400D01*
X0093600Y0510800D02*
X0088400Y0510800D01*
X0053600Y0510800D02*
X0048400Y0510800D01*
D17*
X0055000Y0425800D03*
X0055000Y0395800D03*
X0055000Y0375800D03*
X0055000Y0355800D03*
X0025000Y0355800D03*
X0025000Y0375800D03*
X0025000Y0395800D03*
X0025000Y0425800D03*
D18*
X0575000Y0424675D02*
X0575000Y0432925D01*
X0575000Y0467675D02*
X0575000Y0475925D01*
X0575000Y0527675D02*
X0575000Y0535925D01*
X0575000Y0372925D02*
X0575000Y0364675D01*
X0575000Y0251925D02*
X0575000Y0243675D01*
X0575000Y0191925D02*
X0575000Y0183675D01*
X0575000Y0151925D02*
X0575000Y0143675D01*
X0575000Y0091925D02*
X0575000Y0083675D01*
D19*
X0389100Y0127000D03*
X0389000Y0194400D03*
X0388100Y0404000D03*
X0388000Y0471400D03*
D20*
X0388100Y0454500D03*
X0387900Y0420900D03*
X0389100Y0177500D03*
X0388900Y0143900D03*
D21*
X0388900Y0153500D03*
X0388700Y0160800D03*
X0389200Y0168200D03*
X0387900Y0430500D03*
X0387700Y0437800D03*
X0388200Y0445200D03*
D22*
X0514200Y0469700D03*
X0514200Y0406100D03*
X0515200Y0192700D03*
X0515200Y0129100D03*
D23*
X0515050Y0160750D03*
X0514050Y0437750D03*
D24*
X0306000Y0652800D03*
X0306000Y0662800D03*
X0306000Y0672800D03*
X0306000Y0682800D03*
X0306000Y0692800D03*
X0306000Y0702800D03*
X0306000Y0712800D03*
X0306000Y0722800D03*
X0306000Y0732800D03*
X0306000Y0742800D03*
X0306000Y0752800D03*
X0306000Y0762800D03*
X0306000Y0772800D03*
X0306000Y0782800D03*
X0306000Y0792800D03*
X0306000Y0802800D03*
X0306000Y0812800D03*
X0306000Y0822800D03*
X0306000Y0832800D03*
X0306000Y0842800D03*
X0296000Y0842800D03*
X0296000Y0832800D03*
X0296000Y0822800D03*
X0296000Y0812800D03*
X0296000Y0802800D03*
X0296000Y0792800D03*
X0296000Y0782800D03*
X0296000Y0772800D03*
X0296000Y0762800D03*
X0296000Y0752800D03*
X0296000Y0742800D03*
X0296000Y0732800D03*
X0296000Y0722800D03*
X0296000Y0712800D03*
X0296000Y0702800D03*
X0296000Y0692800D03*
X0296000Y0682800D03*
X0296000Y0672800D03*
X0296000Y0662800D03*
X0296000Y0652800D03*
X0176000Y0436800D03*
X0176000Y0426800D03*
X0176000Y0366800D03*
X0176000Y0346800D03*
X0116000Y0346800D03*
X0116000Y0366800D03*
X0116000Y0426800D03*
X0116000Y0436800D03*
X0116000Y0446800D03*
X0115000Y0172800D03*
X0115000Y0162800D03*
X0115000Y0152800D03*
X0115000Y0092800D03*
X0115000Y0072800D03*
X0175000Y0072800D03*
X0175000Y0092800D03*
X0175000Y0152800D03*
X0175000Y0162800D03*
D25*
X0252000Y0072800D03*
X0272000Y0245800D03*
X0261000Y0346800D03*
X0260000Y0523800D03*
X0513000Y0531800D03*
X0515000Y0348800D03*
X0514000Y0247800D03*
X0515000Y0067800D03*
D26*
X0515000Y0087800D03*
X0514000Y0227800D03*
X0515000Y0368800D03*
X0513000Y0511800D03*
X0272000Y0225800D03*
X0252000Y0092800D03*
X0261000Y0366800D03*
X0260000Y0503800D03*
D27*
X0273000Y0579800D03*
X0233000Y0579800D03*
X0233000Y0025800D03*
X0273000Y0025800D03*
D28*
X0456200Y0638900D02*
X0456200Y0646700D01*
X0475900Y0646700D02*
X0475900Y0638900D01*
X0507100Y0682800D02*
X0514900Y0682800D01*
X0537100Y0682800D02*
X0544900Y0682800D01*
X0577100Y0662700D02*
X0584900Y0662700D01*
X0584900Y0643000D02*
X0577100Y0643000D01*
X0544900Y0742800D02*
X0537100Y0742800D01*
X0537100Y0762800D02*
X0544900Y0762800D01*
X0544900Y0782800D02*
X0537100Y0782800D01*
X0514900Y0782800D02*
X0507100Y0782800D01*
X0507100Y0762800D02*
X0514900Y0762800D01*
X0514900Y0742800D02*
X0507100Y0742800D01*
X0469900Y0782900D02*
X0462100Y0782900D01*
X0462100Y0802600D02*
X0469900Y0802600D01*
X0577100Y0817900D02*
X0584900Y0817900D01*
X0584900Y0837600D02*
X0577100Y0837600D01*
X0224900Y0777700D02*
X0217100Y0777700D01*
X0217100Y0758000D02*
X0224900Y0758000D01*
X0224900Y0692700D02*
X0217100Y0692700D01*
X0217100Y0673000D02*
X0224900Y0673000D01*
D29*
X0226256Y0682400D02*
X0228876Y0683102D01*
X0231224Y0684458D01*
X0233142Y0686376D01*
X0234498Y0688724D01*
X0235200Y0691344D01*
X0235200Y0694056D01*
X0234498Y0696676D01*
X0233142Y0699024D01*
X0231224Y0700942D01*
X0228876Y0702298D01*
X0226256Y0703000D01*
X0215744Y0703000D01*
X0213124Y0702298D01*
X0210776Y0700942D01*
X0208858Y0699024D01*
X0207502Y0696676D01*
X0206800Y0694056D01*
X0206800Y0691344D01*
X0207502Y0688724D01*
X0208858Y0686376D01*
X0210776Y0684458D01*
X0213124Y0683102D01*
X0215744Y0682400D01*
X0226256Y0682400D01*
X0230026Y0683766D02*
X0256800Y0683766D01*
X0256800Y0685364D02*
X0232131Y0685364D01*
X0233481Y0686963D02*
X0256800Y0686963D01*
X0256800Y0688561D02*
X0234404Y0688561D01*
X0234883Y0690160D02*
X0256800Y0690160D01*
X0256800Y0691758D02*
X0235200Y0691758D01*
X0235200Y0693357D02*
X0256800Y0693357D01*
X0256800Y0694955D02*
X0234959Y0694955D01*
X0234531Y0696554D02*
X0256800Y0696554D01*
X0256800Y0698152D02*
X0233645Y0698152D01*
X0232415Y0699751D02*
X0256800Y0699751D01*
X0256800Y0701349D02*
X0230519Y0701349D01*
X0226450Y0702948D02*
X0256800Y0702948D01*
X0256800Y0704546D02*
X0202400Y0704546D01*
X0202400Y0702948D02*
X0215550Y0702948D01*
X0211481Y0701349D02*
X0202400Y0701349D01*
X0202400Y0699751D02*
X0209585Y0699751D01*
X0208355Y0698152D02*
X0202400Y0698152D01*
X0202400Y0696554D02*
X0207469Y0696554D01*
X0207041Y0694955D02*
X0202400Y0694955D01*
X0202400Y0693357D02*
X0206800Y0693357D01*
X0206800Y0691758D02*
X0202400Y0691758D01*
X0202400Y0690160D02*
X0207117Y0690160D01*
X0207596Y0688561D02*
X0202400Y0688561D01*
X0202400Y0686963D02*
X0208519Y0686963D01*
X0209869Y0685364D02*
X0202400Y0685364D01*
X0202400Y0683766D02*
X0211974Y0683766D01*
X0202400Y0682167D02*
X0256800Y0682167D01*
X0256800Y0680569D02*
X0202400Y0680569D01*
X0202400Y0678970D02*
X0256800Y0678970D01*
X0256800Y0677372D02*
X0202400Y0677372D01*
X0202400Y0675773D02*
X0256800Y0675773D01*
X0256800Y0674175D02*
X0202400Y0674175D01*
X0202400Y0672576D02*
X0256800Y0672576D01*
X0256800Y0670978D02*
X0202400Y0670978D01*
X0202400Y0669379D02*
X0256800Y0669379D01*
X0256800Y0667781D02*
X0202400Y0667781D01*
X0202400Y0666182D02*
X0256800Y0666182D01*
X0256800Y0664584D02*
X0202400Y0664584D01*
X0202400Y0662985D02*
X0256800Y0662985D01*
X0256800Y0661387D02*
X0202400Y0661387D01*
X0202400Y0659788D02*
X0256800Y0659788D01*
X0256800Y0658190D02*
X0202400Y0658190D01*
X0202400Y0656591D02*
X0256800Y0656591D01*
X0256800Y0654993D02*
X0202400Y0654993D01*
X0202400Y0653394D02*
X0256800Y0653394D01*
X0256800Y0651796D02*
X0202400Y0651796D01*
X0202400Y0650197D02*
X0256800Y0650197D01*
X0256800Y0648599D02*
X0202400Y0648599D01*
X0202400Y0647000D02*
X0256800Y0647000D01*
X0256800Y0645402D02*
X0202400Y0645402D01*
X0202400Y0643803D02*
X0256800Y0643803D01*
X0256800Y0642205D02*
X0202400Y0642205D01*
X0202400Y0640606D02*
X0256800Y0640606D01*
X0256800Y0639008D02*
X0202400Y0639008D01*
X0202400Y0637409D02*
X0256800Y0637409D01*
X0256800Y0635810D02*
X0220717Y0635810D01*
X0219728Y0636800D02*
X0212272Y0636800D01*
X0207000Y0631528D01*
X0207000Y0624072D01*
X0212272Y0618800D01*
X0219728Y0618800D01*
X0225000Y0624072D01*
X0225000Y0631528D01*
X0219728Y0636800D01*
X0222316Y0634212D02*
X0256800Y0634212D01*
X0256800Y0632613D02*
X0223914Y0632613D01*
X0225000Y0631015D02*
X0256800Y0631015D01*
X0256800Y0629416D02*
X0225000Y0629416D01*
X0225000Y0627818D02*
X0256800Y0627818D01*
X0256800Y0626219D02*
X0225000Y0626219D01*
X0225000Y0624621D02*
X0257000Y0624621D01*
X0257000Y0624072D02*
X0258001Y0623071D01*
X0258201Y0622589D01*
X0260789Y0620001D01*
X0261271Y0619801D01*
X0262272Y0618800D01*
X0263687Y0618800D01*
X0264170Y0618600D01*
X0267830Y0618600D01*
X0268313Y0618800D01*
X0269728Y0618800D01*
X0270729Y0619801D01*
X0271211Y0620001D01*
X0273799Y0622589D01*
X0273999Y0623071D01*
X0275000Y0624072D01*
X0275000Y0625487D01*
X0275200Y0625970D01*
X0275200Y0720587D01*
X0275394Y0720393D01*
X0275398Y0720392D01*
X0275789Y0720001D01*
X0279170Y0718600D01*
X0282830Y0718600D01*
X0286211Y0720001D01*
X0286602Y0720392D01*
X0286606Y0720393D01*
X0286783Y0720570D01*
X0288058Y0717493D01*
X0290693Y0714858D01*
X0294136Y0713431D01*
X0296631Y0713431D01*
X0296631Y0712168D01*
X0294136Y0712168D01*
X0290693Y0710742D01*
X0288058Y0708107D01*
X0286631Y0704664D01*
X0286631Y0700936D01*
X0287931Y0697800D01*
X0286631Y0694664D01*
X0286631Y0690936D01*
X0287931Y0687800D01*
X0286631Y0684664D01*
X0286631Y0680936D01*
X0288058Y0677493D01*
X0290693Y0674858D01*
X0294136Y0673431D01*
X0296631Y0673431D01*
X0296631Y0672168D01*
X0294136Y0672168D01*
X0290693Y0670742D01*
X0288058Y0668107D01*
X0286631Y0664664D01*
X0286631Y0660936D01*
X0287931Y0657800D01*
X0286631Y0654664D01*
X0286631Y0650936D01*
X0288058Y0647493D01*
X0290693Y0644858D01*
X0294136Y0643431D01*
X0297864Y0643431D01*
X0301000Y0644731D01*
X0304136Y0643431D01*
X0307864Y0643431D01*
X0311307Y0644858D01*
X0313942Y0647493D01*
X0315368Y0650936D01*
X0315368Y0654664D01*
X0314069Y0657800D01*
X0315368Y0660936D01*
X0315368Y0664664D01*
X0314069Y0667800D01*
X0315368Y0670936D01*
X0315368Y0674664D01*
X0314069Y0677800D01*
X0315368Y0680936D01*
X0315368Y0684664D01*
X0313942Y0688107D01*
X0311307Y0690742D01*
X0307864Y0692168D01*
X0305368Y0692168D01*
X0305368Y0693431D01*
X0307864Y0693431D01*
X0311307Y0694858D01*
X0313942Y0697493D01*
X0315368Y0700936D01*
X0315368Y0704664D01*
X0314069Y0707800D01*
X0315368Y0710936D01*
X0315368Y0714664D01*
X0314069Y0717800D01*
X0315368Y0720936D01*
X0315368Y0724664D01*
X0314069Y0727800D01*
X0315368Y0730936D01*
X0315368Y0734664D01*
X0314069Y0737800D01*
X0315368Y0740936D01*
X0315368Y0744664D01*
X0314069Y0747800D01*
X0315368Y0750936D01*
X0315368Y0754664D01*
X0314069Y0757800D01*
X0315368Y0760936D01*
X0315368Y0764664D01*
X0313942Y0768107D01*
X0311307Y0770742D01*
X0307864Y0772168D01*
X0305368Y0772168D01*
X0305368Y0773431D01*
X0307864Y0773431D01*
X0311307Y0774858D01*
X0313942Y0777493D01*
X0315368Y0780936D01*
X0315368Y0784664D01*
X0314069Y0787800D01*
X0315368Y0790936D01*
X0315368Y0794664D01*
X0314069Y0797800D01*
X0315368Y0800936D01*
X0315368Y0804664D01*
X0314069Y0807800D01*
X0315368Y0810936D01*
X0315368Y0814664D01*
X0314069Y0817800D01*
X0315368Y0820936D01*
X0315368Y0824664D01*
X0314069Y0827800D01*
X0315368Y0830936D01*
X0315368Y0834664D01*
X0313942Y0838107D01*
X0311307Y0840742D01*
X0307864Y0842168D01*
X0305368Y0842168D01*
X0305368Y0844664D01*
X0303942Y0848107D01*
X0301307Y0850742D01*
X0297864Y0852168D01*
X0294136Y0852168D01*
X0290693Y0850742D01*
X0288058Y0848107D01*
X0286631Y0844664D01*
X0286631Y0840936D01*
X0287931Y0837800D01*
X0286631Y0834664D01*
X0286631Y0830936D01*
X0287931Y0827800D01*
X0286631Y0824664D01*
X0286631Y0820936D01*
X0287165Y0819648D01*
X0286606Y0820207D01*
X0286602Y0820208D01*
X0286211Y0820599D01*
X0282830Y0822000D01*
X0279170Y0822000D01*
X0275789Y0820599D01*
X0275398Y0820208D01*
X0275394Y0820207D01*
X0275200Y0820013D01*
X0275200Y0829630D01*
X0275000Y0830113D01*
X0275000Y0831528D01*
X0273999Y0832529D01*
X0273799Y0833011D01*
X0271211Y0835599D01*
X0270729Y0835799D01*
X0269728Y0836800D01*
X0268313Y0836800D01*
X0267830Y0837000D01*
X0264170Y0837000D01*
X0263687Y0836800D01*
X0262272Y0836800D01*
X0261271Y0835799D01*
X0260789Y0835599D01*
X0258201Y0833011D01*
X0258001Y0832529D01*
X0257000Y0831528D01*
X0257000Y0830113D01*
X0256800Y0829630D01*
X0256800Y0625970D01*
X0257000Y0625487D01*
X0257000Y0624072D01*
X0258021Y0623022D02*
X0223950Y0623022D01*
X0222352Y0621424D02*
X0259365Y0621424D01*
X0261212Y0619825D02*
X0220753Y0619825D01*
X0211247Y0619825D02*
X0202400Y0619825D01*
X0202400Y0618227D02*
X0401000Y0618227D01*
X0401000Y0619825D02*
X0270788Y0619825D01*
X0272635Y0621424D02*
X0401000Y0621424D01*
X0401000Y0623022D02*
X0273979Y0623022D01*
X0275000Y0624621D02*
X0401000Y0624621D01*
X0401000Y0626219D02*
X0275200Y0626219D01*
X0275200Y0627818D02*
X0401000Y0627818D01*
X0401000Y0629416D02*
X0275200Y0629416D01*
X0275200Y0631015D02*
X0401000Y0631015D01*
X0401000Y0632613D02*
X0275200Y0632613D01*
X0275200Y0634212D02*
X0401000Y0634212D01*
X0401000Y0635810D02*
X0275200Y0635810D01*
X0275200Y0637409D02*
X0401000Y0637409D01*
X0401000Y0639008D02*
X0275200Y0639008D01*
X0275200Y0640606D02*
X0401000Y0640606D01*
X0401000Y0642205D02*
X0275200Y0642205D01*
X0275200Y0643803D02*
X0293239Y0643803D01*
X0290149Y0645402D02*
X0275200Y0645402D01*
X0275200Y0647000D02*
X0288551Y0647000D01*
X0287600Y0648599D02*
X0275200Y0648599D01*
X0275200Y0650197D02*
X0286938Y0650197D01*
X0286631Y0651796D02*
X0275200Y0651796D01*
X0275200Y0653394D02*
X0286631Y0653394D01*
X0286768Y0654993D02*
X0275200Y0654993D01*
X0275200Y0656591D02*
X0287430Y0656591D01*
X0287769Y0658190D02*
X0275200Y0658190D01*
X0275200Y0659788D02*
X0287107Y0659788D01*
X0286631Y0661387D02*
X0275200Y0661387D01*
X0275200Y0662985D02*
X0286631Y0662985D01*
X0286631Y0664584D02*
X0275200Y0664584D01*
X0275200Y0666182D02*
X0287261Y0666182D01*
X0287923Y0667781D02*
X0275200Y0667781D01*
X0275200Y0669379D02*
X0289330Y0669379D01*
X0291262Y0670978D02*
X0275200Y0670978D01*
X0275200Y0672576D02*
X0296631Y0672576D01*
X0292342Y0674175D02*
X0275200Y0674175D01*
X0275200Y0675773D02*
X0289778Y0675773D01*
X0288179Y0677372D02*
X0275200Y0677372D01*
X0275200Y0678970D02*
X0287446Y0678970D01*
X0286784Y0680569D02*
X0275200Y0680569D01*
X0275200Y0682167D02*
X0286631Y0682167D01*
X0286631Y0683766D02*
X0275200Y0683766D01*
X0275200Y0685364D02*
X0286922Y0685364D01*
X0287584Y0686963D02*
X0275200Y0686963D01*
X0275200Y0688561D02*
X0287615Y0688561D01*
X0286953Y0690160D02*
X0275200Y0690160D01*
X0275200Y0691758D02*
X0286631Y0691758D01*
X0286631Y0693357D02*
X0275200Y0693357D01*
X0275200Y0694955D02*
X0286752Y0694955D01*
X0287415Y0696554D02*
X0275200Y0696554D01*
X0275200Y0698152D02*
X0287785Y0698152D01*
X0287123Y0699751D02*
X0275200Y0699751D01*
X0275200Y0701349D02*
X0286631Y0701349D01*
X0286631Y0702948D02*
X0275200Y0702948D01*
X0275200Y0704546D02*
X0286631Y0704546D01*
X0287245Y0706145D02*
X0275200Y0706145D01*
X0275200Y0707743D02*
X0287907Y0707743D01*
X0289293Y0709342D02*
X0275200Y0709342D01*
X0275200Y0710941D02*
X0291172Y0710941D01*
X0292432Y0714138D02*
X0275200Y0714138D01*
X0275200Y0715736D02*
X0289815Y0715736D01*
X0288216Y0717335D02*
X0275200Y0717335D01*
X0275200Y0718933D02*
X0278366Y0718933D01*
X0275255Y0720532D02*
X0275200Y0720532D01*
X0275200Y0712539D02*
X0296631Y0712539D01*
X0287461Y0718933D02*
X0283634Y0718933D01*
X0286745Y0720532D02*
X0286799Y0720532D01*
X0290200Y0740249D02*
X0290200Y0745351D01*
X0290693Y0744858D01*
X0294136Y0743431D01*
X0296631Y0743431D01*
X0296631Y0742168D01*
X0294136Y0742168D01*
X0290693Y0740742D01*
X0290200Y0740249D01*
X0290200Y0741312D02*
X0292069Y0741312D01*
X0290200Y0742911D02*
X0296631Y0742911D01*
X0291535Y0744509D02*
X0290200Y0744509D01*
X0305368Y0773282D02*
X0401000Y0773282D01*
X0401000Y0771684D02*
X0309033Y0771684D01*
X0311964Y0770085D02*
X0401000Y0770085D01*
X0401000Y0768487D02*
X0313562Y0768487D01*
X0314447Y0766888D02*
X0401000Y0766888D01*
X0401000Y0765290D02*
X0315109Y0765290D01*
X0315368Y0763691D02*
X0401000Y0763691D01*
X0401000Y0762093D02*
X0315368Y0762093D01*
X0315185Y0760494D02*
X0401000Y0760494D01*
X0401000Y0758896D02*
X0314523Y0758896D01*
X0314278Y0757297D02*
X0401000Y0757297D01*
X0401000Y0755699D02*
X0314940Y0755699D01*
X0315368Y0754100D02*
X0401000Y0754100D01*
X0401000Y0752502D02*
X0315368Y0752502D01*
X0315355Y0750903D02*
X0381845Y0750903D01*
X0380702Y0750430D02*
X0378170Y0747898D01*
X0376800Y0744590D01*
X0376800Y0741010D01*
X0378130Y0737800D01*
X0376800Y0734590D01*
X0376800Y0731010D01*
X0378130Y0727800D01*
X0376800Y0724590D01*
X0376800Y0721010D01*
X0378130Y0717800D01*
X0376800Y0714590D01*
X0376800Y0711010D01*
X0378130Y0707800D01*
X0376800Y0704590D01*
X0376800Y0701010D01*
X0378130Y0697800D01*
X0376800Y0694590D01*
X0376800Y0691010D01*
X0378130Y0687800D01*
X0376800Y0684590D01*
X0376800Y0681010D01*
X0378130Y0677800D01*
X0376800Y0674590D01*
X0376800Y0671010D01*
X0378170Y0667702D01*
X0380702Y0665170D01*
X0384010Y0663800D01*
X0392790Y0663800D01*
X0396098Y0665170D01*
X0398630Y0667702D01*
X0400000Y0671010D01*
X0400000Y0674590D01*
X0398670Y0677800D01*
X0400000Y0681010D01*
X0400000Y0684590D01*
X0398670Y0687800D01*
X0400000Y0691010D01*
X0400000Y0694590D01*
X0398670Y0697800D01*
X0400000Y0701010D01*
X0400000Y0704590D01*
X0398670Y0707800D01*
X0400000Y0711010D01*
X0400000Y0714590D01*
X0398670Y0717800D01*
X0400000Y0721010D01*
X0400000Y0724590D01*
X0398670Y0727800D01*
X0400000Y0731010D01*
X0400000Y0734590D01*
X0398670Y0737800D01*
X0400000Y0741010D01*
X0400000Y0744590D01*
X0398630Y0747898D01*
X0396098Y0750430D01*
X0392790Y0751800D01*
X0384010Y0751800D01*
X0380702Y0750430D01*
X0379577Y0749305D02*
X0314693Y0749305D01*
X0314108Y0747706D02*
X0378091Y0747706D01*
X0377429Y0746108D02*
X0314770Y0746108D01*
X0315368Y0744509D02*
X0376800Y0744509D01*
X0376800Y0742911D02*
X0315368Y0742911D01*
X0315368Y0741312D02*
X0376800Y0741312D01*
X0377337Y0739714D02*
X0314862Y0739714D01*
X0314200Y0738115D02*
X0377999Y0738115D01*
X0377598Y0736517D02*
X0314601Y0736517D01*
X0315263Y0734918D02*
X0376936Y0734918D01*
X0376800Y0733320D02*
X0315368Y0733320D01*
X0315368Y0731721D02*
X0376800Y0731721D01*
X0377167Y0730123D02*
X0315031Y0730123D01*
X0314369Y0728524D02*
X0377830Y0728524D01*
X0377767Y0726926D02*
X0314431Y0726926D01*
X0315094Y0725327D02*
X0377105Y0725327D01*
X0376800Y0723729D02*
X0315368Y0723729D01*
X0315368Y0722130D02*
X0376800Y0722130D01*
X0376998Y0720532D02*
X0315201Y0720532D01*
X0314539Y0718933D02*
X0377660Y0718933D01*
X0377937Y0717335D02*
X0314262Y0717335D01*
X0314924Y0715736D02*
X0377275Y0715736D01*
X0376800Y0714138D02*
X0315368Y0714138D01*
X0315368Y0712539D02*
X0376800Y0712539D01*
X0376829Y0710941D02*
X0315368Y0710941D01*
X0314708Y0709342D02*
X0377491Y0709342D01*
X0378106Y0707743D02*
X0314093Y0707743D01*
X0314755Y0706145D02*
X0377444Y0706145D01*
X0376800Y0704546D02*
X0315368Y0704546D01*
X0315368Y0702948D02*
X0376800Y0702948D01*
X0376800Y0701349D02*
X0365178Y0701349D01*
X0364728Y0701800D02*
X0357272Y0701800D01*
X0352000Y0696528D01*
X0352000Y0689072D01*
X0357272Y0683800D01*
X0364728Y0683800D01*
X0370000Y0689072D01*
X0370000Y0696528D01*
X0364728Y0701800D01*
X0366777Y0699751D02*
X0377321Y0699751D01*
X0377984Y0698152D02*
X0368375Y0698152D01*
X0369974Y0696554D02*
X0377613Y0696554D01*
X0376951Y0694955D02*
X0370000Y0694955D01*
X0370000Y0693357D02*
X0376800Y0693357D01*
X0376800Y0691758D02*
X0370000Y0691758D01*
X0370000Y0690160D02*
X0377152Y0690160D01*
X0377814Y0688561D02*
X0369489Y0688561D01*
X0367891Y0686963D02*
X0377783Y0686963D01*
X0377121Y0685364D02*
X0366292Y0685364D01*
X0376800Y0683766D02*
X0315368Y0683766D01*
X0315368Y0682167D02*
X0376800Y0682167D01*
X0376983Y0680569D02*
X0340959Y0680569D01*
X0339728Y0681800D02*
X0345000Y0676528D01*
X0345000Y0669072D01*
X0339728Y0663800D01*
X0332272Y0663800D01*
X0327000Y0669072D01*
X0327000Y0676528D01*
X0332272Y0681800D01*
X0339728Y0681800D01*
X0342558Y0678970D02*
X0377645Y0678970D01*
X0377952Y0677372D02*
X0344156Y0677372D01*
X0345000Y0675773D02*
X0377290Y0675773D01*
X0376800Y0674175D02*
X0345000Y0674175D01*
X0345000Y0672576D02*
X0376800Y0672576D01*
X0376813Y0670978D02*
X0345000Y0670978D01*
X0345000Y0669379D02*
X0377475Y0669379D01*
X0378138Y0667781D02*
X0343709Y0667781D01*
X0342110Y0666182D02*
X0379690Y0666182D01*
X0382118Y0664584D02*
X0340512Y0664584D01*
X0331488Y0664584D02*
X0315368Y0664584D01*
X0315368Y0662985D02*
X0401000Y0662985D01*
X0401000Y0661387D02*
X0315368Y0661387D01*
X0314893Y0659788D02*
X0401000Y0659788D01*
X0401000Y0658190D02*
X0314231Y0658190D01*
X0314570Y0656591D02*
X0401000Y0656591D01*
X0401000Y0654993D02*
X0315232Y0654993D01*
X0315368Y0653394D02*
X0401000Y0653394D01*
X0401000Y0651796D02*
X0315368Y0651796D01*
X0315062Y0650197D02*
X0401000Y0650197D01*
X0401000Y0648599D02*
X0314400Y0648599D01*
X0313449Y0647000D02*
X0401000Y0647000D01*
X0401000Y0645402D02*
X0311851Y0645402D01*
X0308760Y0643803D02*
X0401000Y0643803D01*
X0411000Y0643803D02*
X0465600Y0643803D01*
X0465600Y0642205D02*
X0411000Y0642205D01*
X0411000Y0640606D02*
X0465600Y0640606D01*
X0465600Y0639008D02*
X0411000Y0639008D01*
X0411000Y0637409D02*
X0465636Y0637409D01*
X0465600Y0637544D02*
X0466302Y0634924D01*
X0467658Y0632576D01*
X0469576Y0630658D01*
X0471924Y0629302D01*
X0474544Y0628600D01*
X0477256Y0628600D01*
X0479876Y0629302D01*
X0482224Y0630658D01*
X0484142Y0632576D01*
X0485498Y0634924D01*
X0486200Y0637544D01*
X0486200Y0648056D01*
X0485498Y0650676D01*
X0484142Y0653024D01*
X0482224Y0654942D01*
X0479876Y0656298D01*
X0477256Y0657000D01*
X0474544Y0657000D01*
X0471924Y0656298D01*
X0469576Y0654942D01*
X0467658Y0653024D01*
X0466302Y0650676D01*
X0465600Y0648056D01*
X0465600Y0637544D01*
X0466064Y0635810D02*
X0411000Y0635810D01*
X0411000Y0634212D02*
X0466713Y0634212D01*
X0467636Y0632613D02*
X0411000Y0632613D01*
X0411000Y0631015D02*
X0469219Y0631015D01*
X0471726Y0629416D02*
X0411000Y0629416D01*
X0411000Y0627818D02*
X0594521Y0627818D01*
X0594521Y0629416D02*
X0480074Y0629416D01*
X0482581Y0631015D02*
X0594521Y0631015D01*
X0594521Y0632613D02*
X0484164Y0632613D01*
X0485087Y0634212D02*
X0495615Y0634212D01*
X0496610Y0633800D02*
X0505390Y0633800D01*
X0508698Y0635170D01*
X0511230Y0637702D01*
X0512600Y0641010D01*
X0512600Y0644590D01*
X0511230Y0647898D01*
X0508698Y0650430D01*
X0505390Y0651800D01*
X0496610Y0651800D01*
X0493302Y0650430D01*
X0490770Y0647898D01*
X0489400Y0644590D01*
X0489400Y0641010D01*
X0490770Y0637702D01*
X0493302Y0635170D01*
X0496610Y0633800D01*
X0492662Y0635810D02*
X0485735Y0635810D01*
X0486164Y0637409D02*
X0491063Y0637409D01*
X0490229Y0639008D02*
X0486200Y0639008D01*
X0486200Y0640606D02*
X0489567Y0640606D01*
X0489400Y0642205D02*
X0486200Y0642205D01*
X0486200Y0643803D02*
X0489400Y0643803D01*
X0489736Y0645402D02*
X0486200Y0645402D01*
X0486200Y0647000D02*
X0490398Y0647000D01*
X0491471Y0648599D02*
X0486055Y0648599D01*
X0485626Y0650197D02*
X0493069Y0650197D01*
X0496599Y0651796D02*
X0484851Y0651796D01*
X0483772Y0653394D02*
X0572618Y0653394D01*
X0573124Y0653102D02*
X0570776Y0654458D01*
X0568858Y0656376D01*
X0567502Y0658724D01*
X0566800Y0661344D01*
X0566800Y0664056D01*
X0567502Y0666676D01*
X0568858Y0669024D01*
X0570776Y0670942D01*
X0573124Y0672298D01*
X0575744Y0673000D01*
X0586256Y0673000D01*
X0588876Y0672298D01*
X0591224Y0670942D01*
X0593142Y0669024D01*
X0594498Y0666676D01*
X0594521Y0666589D01*
X0594521Y0814011D01*
X0594498Y0813924D01*
X0593142Y0811576D01*
X0591224Y0809658D01*
X0588876Y0808302D01*
X0586256Y0807600D01*
X0575744Y0807600D01*
X0573124Y0808302D01*
X0570776Y0809658D01*
X0568858Y0811576D01*
X0567502Y0813924D01*
X0566800Y0816544D01*
X0566800Y0819256D01*
X0567502Y0821876D01*
X0568858Y0824224D01*
X0570776Y0826142D01*
X0573124Y0827498D01*
X0574065Y0827750D01*
X0573124Y0828002D01*
X0570776Y0829358D01*
X0568858Y0831276D01*
X0567502Y0833624D01*
X0566800Y0836244D01*
X0566800Y0838956D01*
X0567502Y0841576D01*
X0568858Y0843924D01*
X0570776Y0845842D01*
X0573124Y0847198D01*
X0575744Y0847900D01*
X0586256Y0847900D01*
X0588876Y0847198D01*
X0591224Y0845842D01*
X0593142Y0843924D01*
X0594498Y0841576D01*
X0594521Y0841489D01*
X0594521Y0861400D01*
X0470000Y0861400D01*
X0470000Y0854072D01*
X0464978Y0849050D01*
X0470000Y0844028D01*
X0470000Y0841528D01*
X0475000Y0836528D01*
X0475000Y0829072D01*
X0469728Y0823800D01*
X0462272Y0823800D01*
X0457000Y0829072D01*
X0457000Y0831572D01*
X0452000Y0836572D01*
X0452000Y0844028D01*
X0457022Y0849050D01*
X0452000Y0854072D01*
X0452000Y0861400D01*
X0420000Y0861400D01*
X0420000Y0854072D01*
X0414728Y0848800D01*
X0411000Y0848800D01*
X0411000Y0614200D01*
X0594521Y0614200D01*
X0594521Y0639111D01*
X0594498Y0639024D01*
X0593142Y0636676D01*
X0591224Y0634758D01*
X0588876Y0633402D01*
X0586256Y0632700D01*
X0575744Y0632700D01*
X0573124Y0633402D01*
X0570776Y0634758D01*
X0568858Y0636676D01*
X0567502Y0639024D01*
X0566800Y0641644D01*
X0566800Y0644356D01*
X0567502Y0646976D01*
X0568858Y0649324D01*
X0570776Y0651242D01*
X0573124Y0652598D01*
X0574065Y0652850D01*
X0573124Y0653102D01*
X0571734Y0651796D02*
X0545401Y0651796D01*
X0545390Y0651800D02*
X0548698Y0650430D01*
X0551230Y0647898D01*
X0552600Y0644590D01*
X0552600Y0641010D01*
X0551230Y0637702D01*
X0548698Y0635170D01*
X0545390Y0633800D01*
X0536610Y0633800D01*
X0533302Y0635170D01*
X0530770Y0637702D01*
X0529400Y0641010D01*
X0529400Y0644590D01*
X0530770Y0647898D01*
X0533302Y0650430D01*
X0536610Y0651800D01*
X0545390Y0651800D01*
X0548931Y0650197D02*
X0569731Y0650197D01*
X0568439Y0648599D02*
X0550529Y0648599D01*
X0551602Y0647000D02*
X0567516Y0647000D01*
X0567080Y0645402D02*
X0552264Y0645402D01*
X0552600Y0643803D02*
X0566800Y0643803D01*
X0566800Y0642205D02*
X0552600Y0642205D01*
X0552433Y0640606D02*
X0567078Y0640606D01*
X0567512Y0639008D02*
X0551771Y0639008D01*
X0550937Y0637409D02*
X0568435Y0637409D01*
X0569723Y0635810D02*
X0549338Y0635810D01*
X0546385Y0634212D02*
X0571721Y0634212D01*
X0590279Y0634212D02*
X0594521Y0634212D01*
X0594521Y0635810D02*
X0592277Y0635810D01*
X0593565Y0637409D02*
X0594521Y0637409D01*
X0594488Y0639008D02*
X0594521Y0639008D01*
X0594521Y0626219D02*
X0411000Y0626219D01*
X0411000Y0624621D02*
X0594521Y0624621D01*
X0594521Y0623022D02*
X0411000Y0623022D01*
X0411000Y0621424D02*
X0594521Y0621424D01*
X0594521Y0619825D02*
X0411000Y0619825D01*
X0411000Y0618227D02*
X0594521Y0618227D01*
X0594521Y0616628D02*
X0411000Y0616628D01*
X0411000Y0615030D02*
X0594521Y0615030D01*
X0570241Y0654993D02*
X0482137Y0654993D01*
X0478782Y0656591D02*
X0568734Y0656591D01*
X0567811Y0658190D02*
X0411000Y0658190D01*
X0411000Y0659788D02*
X0567217Y0659788D01*
X0566800Y0661387D02*
X0411000Y0661387D01*
X0411000Y0662985D02*
X0566800Y0662985D01*
X0566941Y0664584D02*
X0429882Y0664584D01*
X0431298Y0665170D02*
X0433830Y0667702D01*
X0435200Y0671010D01*
X0435200Y0674590D01*
X0433870Y0677800D01*
X0435200Y0681010D01*
X0435200Y0684590D01*
X0433830Y0687898D01*
X0431298Y0690430D01*
X0427990Y0691800D01*
X0419210Y0691800D01*
X0415902Y0690430D01*
X0413370Y0687898D01*
X0412000Y0684590D01*
X0412000Y0681010D01*
X0413330Y0677800D01*
X0412000Y0674590D01*
X0412000Y0671010D01*
X0413370Y0667702D01*
X0415902Y0665170D01*
X0419210Y0663800D01*
X0427990Y0663800D01*
X0431298Y0665170D01*
X0432310Y0666182D02*
X0567370Y0666182D01*
X0568140Y0667781D02*
X0433862Y0667781D01*
X0434525Y0669379D02*
X0569213Y0669379D01*
X0570837Y0670978D02*
X0435187Y0670978D01*
X0435200Y0672576D02*
X0505459Y0672576D01*
X0505744Y0672500D02*
X0503124Y0673202D01*
X0500776Y0674558D01*
X0498858Y0676476D01*
X0497502Y0678824D01*
X0496800Y0681444D01*
X0496800Y0684156D01*
X0497502Y0686776D01*
X0498858Y0689124D01*
X0500776Y0691042D01*
X0503124Y0692398D01*
X0505744Y0693100D01*
X0516256Y0693100D01*
X0518876Y0692398D01*
X0521224Y0691042D01*
X0523142Y0689124D01*
X0524498Y0686776D01*
X0525200Y0684156D01*
X0525200Y0681444D01*
X0524498Y0678824D01*
X0523142Y0676476D01*
X0521224Y0674558D01*
X0518876Y0673202D01*
X0516256Y0672500D01*
X0505744Y0672500D01*
X0501439Y0674175D02*
X0435200Y0674175D01*
X0434710Y0675773D02*
X0499560Y0675773D01*
X0498341Y0677372D02*
X0434048Y0677372D01*
X0434355Y0678970D02*
X0497463Y0678970D01*
X0497034Y0680569D02*
X0435017Y0680569D01*
X0435200Y0682167D02*
X0496800Y0682167D01*
X0496800Y0683766D02*
X0435200Y0683766D01*
X0434879Y0685364D02*
X0497124Y0685364D01*
X0497610Y0686963D02*
X0434217Y0686963D01*
X0433167Y0688561D02*
X0498533Y0688561D01*
X0499893Y0690160D02*
X0431568Y0690160D01*
X0428091Y0691758D02*
X0502016Y0691758D01*
X0516541Y0672576D02*
X0535459Y0672576D01*
X0535744Y0672500D02*
X0533124Y0673202D01*
X0530776Y0674558D01*
X0528858Y0676476D01*
X0527502Y0678824D01*
X0526800Y0681444D01*
X0526800Y0684156D01*
X0527502Y0686776D01*
X0528858Y0689124D01*
X0530776Y0691042D01*
X0533124Y0692398D01*
X0535744Y0693100D01*
X0546256Y0693100D01*
X0548876Y0692398D01*
X0551224Y0691042D01*
X0553142Y0689124D01*
X0554498Y0686776D01*
X0555200Y0684156D01*
X0555200Y0681444D01*
X0554498Y0678824D01*
X0553142Y0676476D01*
X0551224Y0674558D01*
X0548876Y0673202D01*
X0546256Y0672500D01*
X0535744Y0672500D01*
X0531439Y0674175D02*
X0520561Y0674175D01*
X0522440Y0675773D02*
X0529560Y0675773D01*
X0528341Y0677372D02*
X0523659Y0677372D01*
X0524537Y0678970D02*
X0527463Y0678970D01*
X0527034Y0680569D02*
X0524965Y0680569D01*
X0525200Y0682167D02*
X0526800Y0682167D01*
X0526800Y0683766D02*
X0525200Y0683766D01*
X0524876Y0685364D02*
X0527124Y0685364D01*
X0527610Y0686963D02*
X0524390Y0686963D01*
X0523467Y0688561D02*
X0528533Y0688561D01*
X0529893Y0690160D02*
X0522107Y0690160D01*
X0519984Y0691758D02*
X0532016Y0691758D01*
X0527767Y0696554D02*
X0594521Y0696554D01*
X0594521Y0698152D02*
X0529033Y0698152D01*
X0528799Y0697589D02*
X0530200Y0700970D01*
X0530200Y0704630D01*
X0528799Y0708011D01*
X0528408Y0708402D01*
X0528407Y0708406D01*
X0526606Y0710207D01*
X0526602Y0710208D01*
X0526211Y0710599D01*
X0522830Y0712000D01*
X0444170Y0712000D01*
X0440789Y0710599D01*
X0440398Y0710208D01*
X0440394Y0710207D01*
X0438593Y0708406D01*
X0438592Y0708402D01*
X0438201Y0708011D01*
X0436800Y0704630D01*
X0436800Y0700970D01*
X0438201Y0697589D01*
X0438592Y0697198D01*
X0438593Y0697194D01*
X0440394Y0695393D01*
X0440398Y0695392D01*
X0440789Y0695001D01*
X0444170Y0693600D01*
X0522830Y0693600D01*
X0526211Y0695001D01*
X0526602Y0695392D01*
X0526606Y0695393D01*
X0528407Y0697194D01*
X0528408Y0697198D01*
X0528799Y0697589D01*
X0529695Y0699751D02*
X0594521Y0699751D01*
X0594521Y0701349D02*
X0530200Y0701349D01*
X0530200Y0702948D02*
X0594521Y0702948D01*
X0594521Y0704546D02*
X0530200Y0704546D01*
X0529572Y0706145D02*
X0594521Y0706145D01*
X0594521Y0707743D02*
X0528910Y0707743D01*
X0527471Y0709342D02*
X0594521Y0709342D01*
X0594521Y0710941D02*
X0525388Y0710941D01*
X0526102Y0694955D02*
X0594521Y0694955D01*
X0594521Y0693357D02*
X0411000Y0693357D01*
X0411000Y0694955D02*
X0416420Y0694955D01*
X0415902Y0695170D02*
X0419210Y0693800D01*
X0427990Y0693800D01*
X0431298Y0695170D01*
X0433830Y0697702D01*
X0435200Y0701010D01*
X0435200Y0704590D01*
X0433870Y0707800D01*
X0435200Y0711010D01*
X0435200Y0714590D01*
X0433870Y0717800D01*
X0435200Y0721010D01*
X0435200Y0724590D01*
X0433870Y0727800D01*
X0435200Y0731010D01*
X0435200Y0734590D01*
X0433870Y0737800D01*
X0435200Y0741010D01*
X0435200Y0744590D01*
X0433830Y0747898D01*
X0431298Y0750430D01*
X0427990Y0751800D01*
X0419210Y0751800D01*
X0415902Y0750430D01*
X0413370Y0747898D01*
X0412000Y0744590D01*
X0412000Y0741010D01*
X0413330Y0737800D01*
X0412000Y0734590D01*
X0412000Y0731010D01*
X0413330Y0727800D01*
X0412000Y0724590D01*
X0412000Y0721010D01*
X0413330Y0717800D01*
X0412000Y0714590D01*
X0412000Y0711010D01*
X0413330Y0707800D01*
X0412000Y0704590D01*
X0412000Y0701010D01*
X0413370Y0697702D01*
X0415902Y0695170D01*
X0414518Y0696554D02*
X0411000Y0696554D01*
X0411000Y0698152D02*
X0413184Y0698152D01*
X0412521Y0699751D02*
X0411000Y0699751D01*
X0411000Y0701349D02*
X0412000Y0701349D01*
X0412000Y0702948D02*
X0411000Y0702948D01*
X0411000Y0704546D02*
X0412000Y0704546D01*
X0412644Y0706145D02*
X0411000Y0706145D01*
X0411000Y0707743D02*
X0413306Y0707743D01*
X0412691Y0709342D02*
X0411000Y0709342D01*
X0411000Y0710941D02*
X0412029Y0710941D01*
X0412000Y0712539D02*
X0411000Y0712539D01*
X0411000Y0714138D02*
X0412000Y0714138D01*
X0412475Y0715736D02*
X0411000Y0715736D01*
X0411000Y0717335D02*
X0413137Y0717335D01*
X0412860Y0718933D02*
X0411000Y0718933D01*
X0411000Y0720532D02*
X0412198Y0720532D01*
X0412000Y0722130D02*
X0411000Y0722130D01*
X0411000Y0723729D02*
X0412000Y0723729D01*
X0412305Y0725327D02*
X0411000Y0725327D01*
X0411000Y0726926D02*
X0412967Y0726926D01*
X0413030Y0728524D02*
X0411000Y0728524D01*
X0411000Y0730123D02*
X0412367Y0730123D01*
X0412000Y0731721D02*
X0411000Y0731721D01*
X0411000Y0733320D02*
X0412000Y0733320D01*
X0412136Y0734918D02*
X0411000Y0734918D01*
X0411000Y0736517D02*
X0412798Y0736517D01*
X0413199Y0738115D02*
X0411000Y0738115D01*
X0411000Y0739714D02*
X0412537Y0739714D01*
X0412000Y0741312D02*
X0411000Y0741312D01*
X0411000Y0742911D02*
X0412000Y0742911D01*
X0412000Y0744509D02*
X0411000Y0744509D01*
X0411000Y0746108D02*
X0412629Y0746108D01*
X0413291Y0747706D02*
X0411000Y0747706D01*
X0411000Y0749305D02*
X0414777Y0749305D01*
X0417045Y0750903D02*
X0411000Y0750903D01*
X0411000Y0752502D02*
X0503512Y0752502D01*
X0503124Y0752398D02*
X0500776Y0751042D01*
X0498858Y0749124D01*
X0497502Y0746776D01*
X0496800Y0744156D01*
X0496800Y0741444D01*
X0497502Y0738824D01*
X0498858Y0736476D01*
X0500776Y0734558D01*
X0503124Y0733202D01*
X0505744Y0732500D01*
X0516256Y0732500D01*
X0518876Y0733202D01*
X0521224Y0734558D01*
X0523142Y0736476D01*
X0524498Y0738824D01*
X0525200Y0741444D01*
X0525200Y0744156D01*
X0524498Y0746776D01*
X0523142Y0749124D01*
X0521224Y0751042D01*
X0518876Y0752398D01*
X0517376Y0752800D01*
X0518876Y0753202D01*
X0521224Y0754558D01*
X0523142Y0756476D01*
X0524498Y0758824D01*
X0525200Y0761444D01*
X0525200Y0764156D01*
X0524498Y0766776D01*
X0523142Y0769124D01*
X0521224Y0771042D01*
X0518876Y0772398D01*
X0517376Y0772800D01*
X0518876Y0773202D01*
X0521224Y0774558D01*
X0523142Y0776476D01*
X0524498Y0778824D01*
X0525200Y0781444D01*
X0525200Y0784156D01*
X0524498Y0786776D01*
X0523142Y0789124D01*
X0521224Y0791042D01*
X0518876Y0792398D01*
X0516256Y0793100D01*
X0505744Y0793100D01*
X0503124Y0792398D01*
X0500776Y0791042D01*
X0498858Y0789124D01*
X0497502Y0786776D01*
X0496800Y0784156D01*
X0496800Y0781444D01*
X0497502Y0778824D01*
X0498858Y0776476D01*
X0500776Y0774558D01*
X0503124Y0773202D01*
X0504624Y0772800D01*
X0503124Y0772398D01*
X0500776Y0771042D01*
X0498858Y0769124D01*
X0497502Y0766776D01*
X0496800Y0764156D01*
X0496800Y0761444D01*
X0497502Y0758824D01*
X0498858Y0756476D01*
X0500776Y0754558D01*
X0503124Y0753202D01*
X0504624Y0752800D01*
X0503124Y0752398D01*
X0501568Y0754100D02*
X0411000Y0754100D01*
X0411000Y0755699D02*
X0499635Y0755699D01*
X0498384Y0757297D02*
X0411000Y0757297D01*
X0411000Y0758896D02*
X0497483Y0758896D01*
X0497054Y0760494D02*
X0411000Y0760494D01*
X0411000Y0762093D02*
X0496800Y0762093D01*
X0496800Y0763691D02*
X0411000Y0763691D01*
X0411000Y0765290D02*
X0497104Y0765290D01*
X0497567Y0766888D02*
X0411000Y0766888D01*
X0411000Y0768487D02*
X0498490Y0768487D01*
X0499819Y0770085D02*
X0411000Y0770085D01*
X0411000Y0771684D02*
X0501887Y0771684D01*
X0502985Y0773282D02*
X0473803Y0773282D01*
X0473876Y0773302D02*
X0476224Y0774658D01*
X0478142Y0776576D01*
X0479498Y0778924D01*
X0480200Y0781544D01*
X0480200Y0784256D01*
X0479498Y0786876D01*
X0478142Y0789224D01*
X0476224Y0791142D01*
X0473876Y0792498D01*
X0472935Y0792750D01*
X0473876Y0793002D01*
X0476224Y0794358D01*
X0478142Y0796276D01*
X0479498Y0798624D01*
X0480200Y0801244D01*
X0480200Y0803956D01*
X0479498Y0806576D01*
X0478142Y0808924D01*
X0476224Y0810842D01*
X0473876Y0812198D01*
X0471256Y0812900D01*
X0460744Y0812900D01*
X0458124Y0812198D01*
X0455776Y0810842D01*
X0453858Y0808924D01*
X0452502Y0806576D01*
X0451800Y0803956D01*
X0451800Y0801244D01*
X0452502Y0798624D01*
X0453858Y0796276D01*
X0455776Y0794358D01*
X0458124Y0793002D01*
X0459065Y0792750D01*
X0458124Y0792498D01*
X0455776Y0791142D01*
X0453858Y0789224D01*
X0452502Y0786876D01*
X0451800Y0784256D01*
X0451800Y0781544D01*
X0452502Y0778924D01*
X0453858Y0776576D01*
X0455776Y0774658D01*
X0458124Y0773302D01*
X0460744Y0772600D01*
X0471256Y0772600D01*
X0473876Y0773302D01*
X0476447Y0774881D02*
X0500453Y0774881D01*
X0498856Y0776479D02*
X0478046Y0776479D01*
X0479009Y0778078D02*
X0497933Y0778078D01*
X0497274Y0779677D02*
X0479700Y0779677D01*
X0480128Y0781275D02*
X0496845Y0781275D01*
X0496800Y0782874D02*
X0480200Y0782874D01*
X0480142Y0784472D02*
X0496885Y0784472D01*
X0497313Y0786071D02*
X0479714Y0786071D01*
X0479040Y0787669D02*
X0498018Y0787669D01*
X0499001Y0789268D02*
X0478099Y0789268D01*
X0476500Y0790866D02*
X0500600Y0790866D01*
X0503373Y0792465D02*
X0473934Y0792465D01*
X0475714Y0794063D02*
X0594521Y0794063D01*
X0594521Y0792465D02*
X0548627Y0792465D01*
X0548876Y0792398D02*
X0546256Y0793100D01*
X0535744Y0793100D01*
X0533124Y0792398D01*
X0530776Y0791042D01*
X0528858Y0789124D01*
X0527502Y0786776D01*
X0526800Y0784156D01*
X0526800Y0781444D01*
X0527502Y0778824D01*
X0528858Y0776476D01*
X0530776Y0774558D01*
X0533124Y0773202D01*
X0534624Y0772800D01*
X0533124Y0772398D01*
X0530776Y0771042D01*
X0528858Y0769124D01*
X0527502Y0766776D01*
X0526800Y0764156D01*
X0526800Y0761444D01*
X0527502Y0758824D01*
X0528858Y0756476D01*
X0530776Y0754558D01*
X0533124Y0753202D01*
X0534624Y0752800D01*
X0533124Y0752398D01*
X0530776Y0751042D01*
X0528858Y0749124D01*
X0527502Y0746776D01*
X0526800Y0744156D01*
X0526800Y0741444D01*
X0527502Y0738824D01*
X0528858Y0736476D01*
X0530776Y0734558D01*
X0533124Y0733202D01*
X0535744Y0732500D01*
X0546256Y0732500D01*
X0548876Y0733202D01*
X0551224Y0734558D01*
X0553142Y0736476D01*
X0554498Y0738824D01*
X0555200Y0741444D01*
X0555200Y0744156D01*
X0554498Y0746776D01*
X0553142Y0749124D01*
X0551224Y0751042D01*
X0548876Y0752398D01*
X0547376Y0752800D01*
X0548876Y0753202D01*
X0551224Y0754558D01*
X0553142Y0756476D01*
X0554498Y0758824D01*
X0555200Y0761444D01*
X0555200Y0764156D01*
X0554498Y0766776D01*
X0553142Y0769124D01*
X0551224Y0771042D01*
X0548876Y0772398D01*
X0547376Y0772800D01*
X0548876Y0773202D01*
X0551224Y0774558D01*
X0553142Y0776476D01*
X0554498Y0778824D01*
X0555200Y0781444D01*
X0555200Y0784156D01*
X0554498Y0786776D01*
X0553142Y0789124D01*
X0551224Y0791042D01*
X0548876Y0792398D01*
X0551400Y0790866D02*
X0594521Y0790866D01*
X0594521Y0789268D02*
X0552999Y0789268D01*
X0553982Y0787669D02*
X0594521Y0787669D01*
X0594521Y0786071D02*
X0554687Y0786071D01*
X0555115Y0784472D02*
X0594521Y0784472D01*
X0594521Y0782874D02*
X0555200Y0782874D01*
X0555155Y0781275D02*
X0594521Y0781275D01*
X0594521Y0779677D02*
X0554726Y0779677D01*
X0554067Y0778078D02*
X0594521Y0778078D01*
X0594521Y0776479D02*
X0553144Y0776479D01*
X0551547Y0774881D02*
X0594521Y0774881D01*
X0594521Y0773282D02*
X0549015Y0773282D01*
X0550113Y0771684D02*
X0594521Y0771684D01*
X0594521Y0770085D02*
X0552181Y0770085D01*
X0553510Y0768487D02*
X0594521Y0768487D01*
X0594521Y0766888D02*
X0554433Y0766888D01*
X0554896Y0765290D02*
X0594521Y0765290D01*
X0594521Y0763691D02*
X0555200Y0763691D01*
X0555200Y0762093D02*
X0594521Y0762093D01*
X0594521Y0760494D02*
X0554946Y0760494D01*
X0554517Y0758896D02*
X0594521Y0758896D01*
X0594521Y0757297D02*
X0553616Y0757297D01*
X0552365Y0755699D02*
X0594521Y0755699D01*
X0594521Y0754100D02*
X0550432Y0754100D01*
X0548488Y0752502D02*
X0594521Y0752502D01*
X0594521Y0750903D02*
X0551363Y0750903D01*
X0552962Y0749305D02*
X0594521Y0749305D01*
X0594521Y0747706D02*
X0553961Y0747706D01*
X0554677Y0746108D02*
X0594521Y0746108D01*
X0594521Y0744509D02*
X0555105Y0744509D01*
X0555200Y0742911D02*
X0594521Y0742911D01*
X0594521Y0741312D02*
X0555165Y0741312D01*
X0554736Y0739714D02*
X0594521Y0739714D01*
X0594521Y0738115D02*
X0554089Y0738115D01*
X0553166Y0736517D02*
X0594521Y0736517D01*
X0594521Y0734918D02*
X0551585Y0734918D01*
X0549080Y0733320D02*
X0594521Y0733320D01*
X0594521Y0731721D02*
X0435200Y0731721D01*
X0435200Y0733320D02*
X0502920Y0733320D01*
X0500415Y0734918D02*
X0435064Y0734918D01*
X0434402Y0736517D02*
X0498834Y0736517D01*
X0497911Y0738115D02*
X0434001Y0738115D01*
X0434663Y0739714D02*
X0497264Y0739714D01*
X0496835Y0741312D02*
X0435200Y0741312D01*
X0435200Y0742911D02*
X0496800Y0742911D01*
X0496895Y0744509D02*
X0435200Y0744509D01*
X0434571Y0746108D02*
X0497323Y0746108D01*
X0498039Y0747706D02*
X0433909Y0747706D01*
X0432423Y0749305D02*
X0499038Y0749305D01*
X0500637Y0750903D02*
X0430155Y0750903D01*
X0434833Y0730123D02*
X0594521Y0730123D01*
X0594521Y0728524D02*
X0434170Y0728524D01*
X0434233Y0726926D02*
X0594521Y0726926D01*
X0594521Y0725327D02*
X0434895Y0725327D01*
X0435200Y0723729D02*
X0594521Y0723729D01*
X0594521Y0722130D02*
X0435200Y0722130D01*
X0435002Y0720532D02*
X0594521Y0720532D01*
X0594521Y0718933D02*
X0434340Y0718933D01*
X0434063Y0717335D02*
X0594521Y0717335D01*
X0594521Y0715736D02*
X0434725Y0715736D01*
X0435200Y0714138D02*
X0594521Y0714138D01*
X0594521Y0712539D02*
X0435200Y0712539D01*
X0435171Y0710941D02*
X0441612Y0710941D01*
X0439529Y0709342D02*
X0434509Y0709342D01*
X0433894Y0707743D02*
X0438090Y0707743D01*
X0437428Y0706145D02*
X0434556Y0706145D01*
X0435200Y0704546D02*
X0436800Y0704546D01*
X0436800Y0702948D02*
X0435200Y0702948D01*
X0435200Y0701349D02*
X0436800Y0701349D01*
X0437305Y0699751D02*
X0434679Y0699751D01*
X0434016Y0698152D02*
X0437967Y0698152D01*
X0439233Y0696554D02*
X0432682Y0696554D01*
X0430780Y0694955D02*
X0440898Y0694955D01*
X0419109Y0691758D02*
X0411000Y0691758D01*
X0411000Y0690160D02*
X0415632Y0690160D01*
X0414033Y0688561D02*
X0411000Y0688561D01*
X0411000Y0686963D02*
X0412983Y0686963D01*
X0412321Y0685364D02*
X0411000Y0685364D01*
X0411000Y0683766D02*
X0412000Y0683766D01*
X0412000Y0682167D02*
X0411000Y0682167D01*
X0411000Y0680569D02*
X0412183Y0680569D01*
X0412845Y0678970D02*
X0411000Y0678970D01*
X0411000Y0677372D02*
X0413152Y0677372D01*
X0412490Y0675773D02*
X0411000Y0675773D01*
X0411000Y0674175D02*
X0412000Y0674175D01*
X0412000Y0672576D02*
X0411000Y0672576D01*
X0411000Y0670978D02*
X0412013Y0670978D01*
X0412675Y0669379D02*
X0411000Y0669379D01*
X0411000Y0667781D02*
X0413338Y0667781D01*
X0414890Y0666182D02*
X0411000Y0666182D01*
X0411000Y0664584D02*
X0417318Y0664584D01*
X0411000Y0656591D02*
X0473018Y0656591D01*
X0469663Y0654993D02*
X0411000Y0654993D01*
X0411000Y0653394D02*
X0468028Y0653394D01*
X0466949Y0651796D02*
X0411000Y0651796D01*
X0411000Y0650197D02*
X0466174Y0650197D01*
X0465745Y0648599D02*
X0411000Y0648599D01*
X0411000Y0647000D02*
X0465600Y0647000D01*
X0465600Y0645402D02*
X0411000Y0645402D01*
X0401000Y0664584D02*
X0394682Y0664584D01*
X0397110Y0666182D02*
X0401000Y0666182D01*
X0401000Y0667781D02*
X0398662Y0667781D01*
X0399325Y0669379D02*
X0401000Y0669379D01*
X0401000Y0670978D02*
X0399987Y0670978D01*
X0400000Y0672576D02*
X0401000Y0672576D01*
X0401000Y0674175D02*
X0400000Y0674175D01*
X0399510Y0675773D02*
X0401000Y0675773D01*
X0401000Y0677372D02*
X0398848Y0677372D01*
X0399155Y0678970D02*
X0401000Y0678970D01*
X0401000Y0680569D02*
X0399817Y0680569D01*
X0400000Y0682167D02*
X0401000Y0682167D01*
X0401000Y0683766D02*
X0400000Y0683766D01*
X0399679Y0685364D02*
X0401000Y0685364D01*
X0401000Y0686963D02*
X0399017Y0686963D01*
X0398986Y0688561D02*
X0401000Y0688561D01*
X0401000Y0690160D02*
X0399648Y0690160D01*
X0400000Y0691758D02*
X0401000Y0691758D01*
X0401000Y0693357D02*
X0400000Y0693357D01*
X0399849Y0694955D02*
X0401000Y0694955D01*
X0401000Y0696554D02*
X0399187Y0696554D01*
X0398816Y0698152D02*
X0401000Y0698152D01*
X0401000Y0699751D02*
X0399479Y0699751D01*
X0400000Y0701349D02*
X0401000Y0701349D01*
X0401000Y0702948D02*
X0400000Y0702948D01*
X0400000Y0704546D02*
X0401000Y0704546D01*
X0401000Y0706145D02*
X0399356Y0706145D01*
X0398694Y0707743D02*
X0401000Y0707743D01*
X0401000Y0709342D02*
X0399309Y0709342D01*
X0399971Y0710941D02*
X0401000Y0710941D01*
X0401000Y0712539D02*
X0400000Y0712539D01*
X0400000Y0714138D02*
X0401000Y0714138D01*
X0401000Y0715736D02*
X0399525Y0715736D01*
X0398863Y0717335D02*
X0401000Y0717335D01*
X0401000Y0718933D02*
X0399140Y0718933D01*
X0399802Y0720532D02*
X0401000Y0720532D01*
X0401000Y0722130D02*
X0400000Y0722130D01*
X0400000Y0723729D02*
X0401000Y0723729D01*
X0401000Y0725327D02*
X0399695Y0725327D01*
X0399033Y0726926D02*
X0401000Y0726926D01*
X0401000Y0728524D02*
X0398970Y0728524D01*
X0399633Y0730123D02*
X0401000Y0730123D01*
X0401000Y0731721D02*
X0400000Y0731721D01*
X0400000Y0733320D02*
X0401000Y0733320D01*
X0401000Y0734918D02*
X0399864Y0734918D01*
X0399202Y0736517D02*
X0401000Y0736517D01*
X0401000Y0738115D02*
X0398801Y0738115D01*
X0399463Y0739714D02*
X0401000Y0739714D01*
X0401000Y0741312D02*
X0400000Y0741312D01*
X0400000Y0742911D02*
X0401000Y0742911D01*
X0401000Y0744509D02*
X0400000Y0744509D01*
X0399371Y0746108D02*
X0401000Y0746108D01*
X0401000Y0747706D02*
X0398709Y0747706D01*
X0397223Y0749305D02*
X0401000Y0749305D01*
X0401000Y0750903D02*
X0394955Y0750903D01*
X0401000Y0774881D02*
X0311330Y0774881D01*
X0312929Y0776479D02*
X0401000Y0776479D01*
X0401000Y0778078D02*
X0314184Y0778078D01*
X0314847Y0779677D02*
X0401000Y0779677D01*
X0401000Y0781275D02*
X0315368Y0781275D01*
X0315368Y0782874D02*
X0401000Y0782874D01*
X0401000Y0784472D02*
X0315368Y0784472D01*
X0314786Y0786071D02*
X0401000Y0786071D01*
X0401000Y0787669D02*
X0314124Y0787669D01*
X0314677Y0789268D02*
X0401000Y0789268D01*
X0401000Y0790866D02*
X0315339Y0790866D01*
X0315368Y0792465D02*
X0401000Y0792465D01*
X0401000Y0794063D02*
X0315368Y0794063D01*
X0314955Y0795662D02*
X0401000Y0795662D01*
X0401000Y0797260D02*
X0314293Y0797260D01*
X0314508Y0798859D02*
X0401000Y0798859D01*
X0401000Y0800457D02*
X0315170Y0800457D01*
X0315368Y0802056D02*
X0401000Y0802056D01*
X0401000Y0803654D02*
X0315368Y0803654D01*
X0315124Y0805253D02*
X0401000Y0805253D01*
X0401000Y0806851D02*
X0314462Y0806851D01*
X0314338Y0808450D02*
X0401000Y0808450D01*
X0401000Y0810048D02*
X0315001Y0810048D01*
X0315368Y0811647D02*
X0401000Y0811647D01*
X0401000Y0813245D02*
X0315368Y0813245D01*
X0315294Y0814844D02*
X0401000Y0814844D01*
X0401000Y0816442D02*
X0314632Y0816442D01*
X0314169Y0818041D02*
X0401000Y0818041D01*
X0401000Y0819639D02*
X0314831Y0819639D01*
X0315368Y0821238D02*
X0401000Y0821238D01*
X0401000Y0822836D02*
X0315368Y0822836D01*
X0315368Y0824435D02*
X0401000Y0824435D01*
X0401000Y0826033D02*
X0314801Y0826033D01*
X0314139Y0827632D02*
X0401000Y0827632D01*
X0401000Y0829230D02*
X0314662Y0829230D01*
X0315324Y0830829D02*
X0401000Y0830829D01*
X0401000Y0832427D02*
X0315368Y0832427D01*
X0315368Y0834026D02*
X0401000Y0834026D01*
X0401000Y0835624D02*
X0314970Y0835624D01*
X0314308Y0837223D02*
X0401000Y0837223D01*
X0401000Y0838821D02*
X0313228Y0838821D01*
X0311629Y0840420D02*
X0401000Y0840420D01*
X0401000Y0842018D02*
X0308226Y0842018D01*
X0305368Y0843617D02*
X0401000Y0843617D01*
X0401000Y0845215D02*
X0305140Y0845215D01*
X0304478Y0846814D02*
X0401000Y0846814D01*
X0401000Y0848412D02*
X0303637Y0848412D01*
X0302038Y0850011D02*
X0401000Y0850011D01*
X0401000Y0851610D02*
X0299213Y0851610D01*
X0292787Y0851610D02*
X0202400Y0851610D01*
X0202400Y0853208D02*
X0401000Y0853208D01*
X0401000Y0854807D02*
X0202400Y0854807D01*
X0202400Y0856405D02*
X0401000Y0856405D01*
X0401000Y0858004D02*
X0202400Y0858004D01*
X0202400Y0859602D02*
X0401000Y0859602D01*
X0401000Y0861201D02*
X0202400Y0861201D01*
X0202400Y0861400D02*
X0401000Y0861400D01*
X0401000Y0614200D01*
X0202400Y0614200D01*
X0202400Y0861400D01*
X0202400Y0850011D02*
X0289962Y0850011D01*
X0288363Y0848412D02*
X0202400Y0848412D01*
X0202400Y0846814D02*
X0287522Y0846814D01*
X0286860Y0845215D02*
X0202400Y0845215D01*
X0202400Y0843617D02*
X0286631Y0843617D01*
X0286631Y0842018D02*
X0202400Y0842018D01*
X0202400Y0840420D02*
X0286845Y0840420D01*
X0287508Y0838821D02*
X0202400Y0838821D01*
X0202400Y0837223D02*
X0287692Y0837223D01*
X0287030Y0835624D02*
X0271151Y0835624D01*
X0272785Y0834026D02*
X0286631Y0834026D01*
X0286631Y0832427D02*
X0274101Y0832427D01*
X0275000Y0830829D02*
X0286676Y0830829D01*
X0287338Y0829230D02*
X0275200Y0829230D01*
X0275200Y0827632D02*
X0287861Y0827632D01*
X0287199Y0826033D02*
X0275200Y0826033D01*
X0275200Y0824435D02*
X0286631Y0824435D01*
X0286631Y0822836D02*
X0275200Y0822836D01*
X0275200Y0821238D02*
X0277330Y0821238D01*
X0284670Y0821238D02*
X0286631Y0821238D01*
X0289690Y0815861D02*
X0290693Y0814858D01*
X0294136Y0813431D01*
X0296631Y0813431D01*
X0296631Y0812168D01*
X0294136Y0812168D01*
X0290693Y0810742D01*
X0290200Y0810249D01*
X0290200Y0814630D01*
X0289690Y0815861D01*
X0290111Y0814844D02*
X0290727Y0814844D01*
X0290200Y0813245D02*
X0296631Y0813245D01*
X0292877Y0811647D02*
X0290200Y0811647D01*
X0290200Y0795351D02*
X0290693Y0794858D01*
X0294136Y0793431D01*
X0296631Y0793431D01*
X0296631Y0792168D01*
X0294136Y0792168D01*
X0290693Y0790742D01*
X0290200Y0790249D01*
X0290200Y0795351D01*
X0290200Y0794063D02*
X0292612Y0794063D01*
X0290200Y0792465D02*
X0296631Y0792465D01*
X0290992Y0790866D02*
X0290200Y0790866D01*
X0256800Y0790866D02*
X0202400Y0790866D01*
X0202400Y0789268D02*
X0256800Y0789268D01*
X0256800Y0787669D02*
X0227491Y0787669D01*
X0226256Y0788000D02*
X0228876Y0787298D01*
X0231224Y0785942D01*
X0233142Y0784024D01*
X0234498Y0781676D01*
X0235200Y0779056D01*
X0235200Y0776344D01*
X0234498Y0773724D01*
X0233142Y0771376D01*
X0231224Y0769458D01*
X0228876Y0768102D01*
X0226256Y0767400D01*
X0215744Y0767400D01*
X0213124Y0768102D01*
X0210776Y0769458D01*
X0208858Y0771376D01*
X0207502Y0773724D01*
X0206800Y0776344D01*
X0206800Y0779056D01*
X0207502Y0781676D01*
X0208858Y0784024D01*
X0210776Y0785942D01*
X0213124Y0787298D01*
X0215744Y0788000D01*
X0226256Y0788000D01*
X0231002Y0786071D02*
X0256800Y0786071D01*
X0256800Y0784472D02*
X0232694Y0784472D01*
X0233806Y0782874D02*
X0256800Y0782874D01*
X0256800Y0781275D02*
X0234605Y0781275D01*
X0235034Y0779677D02*
X0256800Y0779677D01*
X0256800Y0778078D02*
X0235200Y0778078D01*
X0235200Y0776479D02*
X0256800Y0776479D01*
X0256800Y0774881D02*
X0234808Y0774881D01*
X0234243Y0773282D02*
X0256800Y0773282D01*
X0256800Y0771684D02*
X0233320Y0771684D01*
X0231852Y0770085D02*
X0256800Y0770085D01*
X0256800Y0768487D02*
X0229542Y0768487D01*
X0212458Y0768487D02*
X0202400Y0768487D01*
X0202400Y0770085D02*
X0210148Y0770085D01*
X0208680Y0771684D02*
X0202400Y0771684D01*
X0202400Y0773282D02*
X0207757Y0773282D01*
X0207192Y0774881D02*
X0202400Y0774881D01*
X0202400Y0776479D02*
X0206800Y0776479D01*
X0206800Y0778078D02*
X0202400Y0778078D01*
X0202400Y0779677D02*
X0206966Y0779677D01*
X0207395Y0781275D02*
X0202400Y0781275D01*
X0202400Y0782874D02*
X0208194Y0782874D01*
X0209306Y0784472D02*
X0202400Y0784472D01*
X0202400Y0786071D02*
X0210998Y0786071D01*
X0214509Y0787669D02*
X0202400Y0787669D01*
X0202400Y0792465D02*
X0256800Y0792465D01*
X0256800Y0794063D02*
X0202400Y0794063D01*
X0202400Y0795662D02*
X0256800Y0795662D01*
X0256800Y0797260D02*
X0202400Y0797260D01*
X0202400Y0798859D02*
X0256800Y0798859D01*
X0256800Y0800457D02*
X0202400Y0800457D01*
X0202400Y0802056D02*
X0256800Y0802056D01*
X0256800Y0803654D02*
X0202400Y0803654D01*
X0202400Y0805253D02*
X0256800Y0805253D01*
X0256800Y0806851D02*
X0202400Y0806851D01*
X0202400Y0808450D02*
X0256800Y0808450D01*
X0256800Y0810048D02*
X0202400Y0810048D01*
X0202400Y0811647D02*
X0256800Y0811647D01*
X0256800Y0813245D02*
X0202400Y0813245D01*
X0202400Y0814844D02*
X0256800Y0814844D01*
X0256800Y0816442D02*
X0202400Y0816442D01*
X0202400Y0818041D02*
X0256800Y0818041D01*
X0256800Y0819639D02*
X0220567Y0819639D01*
X0219728Y0818800D02*
X0225000Y0824072D01*
X0225000Y0831528D01*
X0219728Y0836800D01*
X0212272Y0836800D01*
X0207000Y0831528D01*
X0207000Y0824072D01*
X0212272Y0818800D01*
X0219728Y0818800D01*
X0222166Y0821238D02*
X0256800Y0821238D01*
X0256800Y0822836D02*
X0223764Y0822836D01*
X0225000Y0824435D02*
X0256800Y0824435D01*
X0256800Y0826033D02*
X0225000Y0826033D01*
X0225000Y0827632D02*
X0256800Y0827632D01*
X0256800Y0829230D02*
X0225000Y0829230D01*
X0225000Y0830829D02*
X0257000Y0830829D01*
X0257899Y0832427D02*
X0224101Y0832427D01*
X0222502Y0834026D02*
X0259215Y0834026D01*
X0260849Y0835624D02*
X0220904Y0835624D01*
X0211096Y0835624D02*
X0202400Y0835624D01*
X0202400Y0834026D02*
X0209498Y0834026D01*
X0207899Y0832427D02*
X0202400Y0832427D01*
X0202400Y0830829D02*
X0207000Y0830829D01*
X0207000Y0829230D02*
X0202400Y0829230D01*
X0202400Y0827632D02*
X0207000Y0827632D01*
X0207000Y0826033D02*
X0202400Y0826033D01*
X0202400Y0824435D02*
X0207000Y0824435D01*
X0208236Y0822836D02*
X0202400Y0822836D01*
X0202400Y0821238D02*
X0209834Y0821238D01*
X0211433Y0819639D02*
X0202400Y0819639D01*
X0202400Y0766888D02*
X0256800Y0766888D01*
X0256800Y0765290D02*
X0202400Y0765290D01*
X0202400Y0763691D02*
X0256800Y0763691D01*
X0256800Y0762093D02*
X0202400Y0762093D01*
X0202400Y0760494D02*
X0256800Y0760494D01*
X0256800Y0758896D02*
X0202400Y0758896D01*
X0202400Y0757297D02*
X0256800Y0757297D01*
X0256800Y0755699D02*
X0202400Y0755699D01*
X0202400Y0754100D02*
X0256800Y0754100D01*
X0256800Y0752502D02*
X0202400Y0752502D01*
X0202400Y0750903D02*
X0256800Y0750903D01*
X0256800Y0749305D02*
X0202400Y0749305D01*
X0202400Y0747706D02*
X0256800Y0747706D01*
X0256800Y0746108D02*
X0202400Y0746108D01*
X0202400Y0744509D02*
X0256800Y0744509D01*
X0256800Y0742911D02*
X0202400Y0742911D01*
X0202400Y0741312D02*
X0256800Y0741312D01*
X0256800Y0739714D02*
X0202400Y0739714D01*
X0202400Y0738115D02*
X0256800Y0738115D01*
X0256800Y0736517D02*
X0202400Y0736517D01*
X0202400Y0734918D02*
X0256800Y0734918D01*
X0256800Y0733320D02*
X0202400Y0733320D01*
X0202400Y0731721D02*
X0256800Y0731721D01*
X0256800Y0730123D02*
X0202400Y0730123D01*
X0202400Y0728524D02*
X0256800Y0728524D01*
X0256800Y0726926D02*
X0202400Y0726926D01*
X0202400Y0725327D02*
X0256800Y0725327D01*
X0256800Y0723729D02*
X0202400Y0723729D01*
X0202400Y0722130D02*
X0256800Y0722130D01*
X0256800Y0720532D02*
X0202400Y0720532D01*
X0202400Y0718933D02*
X0256800Y0718933D01*
X0256800Y0717335D02*
X0202400Y0717335D01*
X0202400Y0715736D02*
X0256800Y0715736D01*
X0256800Y0714138D02*
X0202400Y0714138D01*
X0202400Y0712539D02*
X0256800Y0712539D01*
X0256800Y0710941D02*
X0202400Y0710941D01*
X0202400Y0709342D02*
X0256800Y0709342D01*
X0256800Y0707743D02*
X0202400Y0707743D01*
X0202400Y0706145D02*
X0256800Y0706145D01*
X0305368Y0693357D02*
X0352000Y0693357D01*
X0352000Y0694955D02*
X0311404Y0694955D01*
X0313003Y0696554D02*
X0352026Y0696554D01*
X0353625Y0698152D02*
X0314215Y0698152D01*
X0314877Y0699751D02*
X0355223Y0699751D01*
X0356822Y0701349D02*
X0315368Y0701349D01*
X0311889Y0690160D02*
X0352000Y0690160D01*
X0352000Y0691758D02*
X0308854Y0691758D01*
X0313488Y0688561D02*
X0352511Y0688561D01*
X0354109Y0686963D02*
X0314416Y0686963D01*
X0315078Y0685364D02*
X0355708Y0685364D01*
X0331041Y0680569D02*
X0315216Y0680569D01*
X0314554Y0678970D02*
X0329442Y0678970D01*
X0327844Y0677372D02*
X0314247Y0677372D01*
X0314909Y0675773D02*
X0327000Y0675773D01*
X0327000Y0674175D02*
X0315368Y0674175D01*
X0315368Y0672576D02*
X0327000Y0672576D01*
X0327000Y0670978D02*
X0315368Y0670978D01*
X0314723Y0669379D02*
X0327000Y0669379D01*
X0328291Y0667781D02*
X0314077Y0667781D01*
X0314739Y0666182D02*
X0329890Y0666182D01*
X0303239Y0643803D02*
X0298760Y0643803D01*
X0211283Y0635810D02*
X0202400Y0635810D01*
X0202400Y0634212D02*
X0209684Y0634212D01*
X0208086Y0632613D02*
X0202400Y0632613D01*
X0202400Y0631015D02*
X0207000Y0631015D01*
X0207000Y0629416D02*
X0202400Y0629416D01*
X0202400Y0627818D02*
X0207000Y0627818D01*
X0207000Y0626219D02*
X0202400Y0626219D01*
X0202400Y0624621D02*
X0207000Y0624621D01*
X0208050Y0623022D02*
X0202400Y0623022D01*
X0202400Y0621424D02*
X0209648Y0621424D01*
X0202400Y0616628D02*
X0401000Y0616628D01*
X0401000Y0615030D02*
X0202400Y0615030D01*
X0158000Y0595400D02*
X0158000Y0313387D01*
X0157735Y0313278D01*
X0154922Y0310465D01*
X0153400Y0306789D01*
X0153400Y0302811D01*
X0154647Y0299800D01*
X0153400Y0296789D01*
X0153400Y0292811D01*
X0154647Y0289800D01*
X0153400Y0286789D01*
X0153400Y0282811D01*
X0154647Y0279800D01*
X0153400Y0276789D01*
X0153400Y0272811D01*
X0154922Y0269135D01*
X0157735Y0266322D01*
X0158000Y0266213D01*
X0158000Y0010200D01*
X0008400Y0010200D01*
X0008400Y0595400D01*
X0158000Y0595400D01*
X0158000Y0594249D02*
X0008400Y0594249D01*
X0008400Y0592651D02*
X0158000Y0592651D01*
X0158000Y0591052D02*
X0029472Y0591052D01*
X0027804Y0591499D02*
X0024196Y0591499D01*
X0020712Y0590566D01*
X0017588Y0588762D01*
X0015038Y0586212D01*
X0013234Y0583088D01*
X0012301Y0579604D01*
X0012301Y0575996D01*
X0013234Y0572512D01*
X0015038Y0569388D01*
X0017588Y0566838D01*
X0020712Y0565034D01*
X0024196Y0564101D01*
X0027804Y0564101D01*
X0031288Y0565034D01*
X0034412Y0566838D01*
X0036962Y0569388D01*
X0038766Y0572512D01*
X0039699Y0575996D01*
X0039699Y0579604D01*
X0038766Y0583088D01*
X0036962Y0586212D01*
X0034412Y0588762D01*
X0031288Y0590566D01*
X0027804Y0591499D01*
X0022528Y0591052D02*
X0008400Y0591052D01*
X0008400Y0589454D02*
X0018786Y0589454D01*
X0016682Y0587855D02*
X0008400Y0587855D01*
X0008400Y0586257D02*
X0015083Y0586257D01*
X0014141Y0584658D02*
X0008400Y0584658D01*
X0008400Y0583060D02*
X0013227Y0583060D01*
X0012799Y0581461D02*
X0008400Y0581461D01*
X0008400Y0579863D02*
X0012370Y0579863D01*
X0012301Y0578264D02*
X0008400Y0578264D01*
X0008400Y0576666D02*
X0012301Y0576666D01*
X0012550Y0575067D02*
X0008400Y0575067D01*
X0008400Y0573469D02*
X0012978Y0573469D01*
X0013605Y0571870D02*
X0008400Y0571870D01*
X0008400Y0570272D02*
X0014528Y0570272D01*
X0015753Y0568673D02*
X0008400Y0568673D01*
X0008400Y0567074D02*
X0017352Y0567074D01*
X0019947Y0565476D02*
X0008400Y0565476D01*
X0008400Y0563877D02*
X0061376Y0563877D01*
X0061376Y0562279D02*
X0008400Y0562279D01*
X0008400Y0560680D02*
X0061500Y0560680D01*
X0061376Y0561145D02*
X0062222Y0557986D01*
X0063857Y0555154D01*
X0066169Y0552842D01*
X0069001Y0551207D01*
X0072160Y0550361D01*
X0075430Y0550361D01*
X0078589Y0551207D01*
X0081421Y0552842D01*
X0083733Y0555154D01*
X0085369Y0557986D01*
X0086215Y0561145D01*
X0086215Y0574455D01*
X0085369Y0577613D01*
X0083733Y0580446D01*
X0081421Y0582758D01*
X0078589Y0584393D01*
X0075430Y0585239D01*
X0072160Y0585239D01*
X0069001Y0584393D01*
X0066169Y0582758D01*
X0063857Y0580446D01*
X0062222Y0577613D01*
X0061376Y0574455D01*
X0061376Y0561145D01*
X0061928Y0559082D02*
X0008400Y0559082D01*
X0008400Y0557483D02*
X0062512Y0557483D01*
X0063435Y0555885D02*
X0008400Y0555885D01*
X0008400Y0554286D02*
X0064725Y0554286D01*
X0066436Y0552688D02*
X0008400Y0552688D01*
X0008400Y0551089D02*
X0069440Y0551089D01*
X0078150Y0551089D02*
X0131850Y0551089D01*
X0131411Y0551207D02*
X0134570Y0550361D01*
X0137840Y0550361D01*
X0140999Y0551207D01*
X0143831Y0552842D01*
X0146143Y0555154D01*
X0147778Y0557986D01*
X0148624Y0561145D01*
X0148624Y0574455D01*
X0147778Y0577613D01*
X0146143Y0580446D01*
X0143831Y0582758D01*
X0140999Y0584393D01*
X0137840Y0585239D01*
X0134570Y0585239D01*
X0131411Y0584393D01*
X0128579Y0582758D01*
X0126266Y0580446D01*
X0124631Y0577613D01*
X0123785Y0574455D01*
X0123785Y0561145D01*
X0124631Y0557986D01*
X0126266Y0555154D01*
X0128579Y0552842D01*
X0131411Y0551207D01*
X0128846Y0552688D02*
X0081154Y0552688D01*
X0082865Y0554286D02*
X0127135Y0554286D01*
X0125845Y0555885D02*
X0084155Y0555885D01*
X0085078Y0557483D02*
X0124922Y0557483D01*
X0124338Y0559082D02*
X0085662Y0559082D01*
X0086090Y0560680D02*
X0123910Y0560680D01*
X0123785Y0562279D02*
X0086215Y0562279D01*
X0086215Y0563877D02*
X0123785Y0563877D01*
X0123785Y0565476D02*
X0086215Y0565476D01*
X0086215Y0567074D02*
X0123785Y0567074D01*
X0123785Y0568673D02*
X0086215Y0568673D01*
X0086215Y0570272D02*
X0123785Y0570272D01*
X0123785Y0571870D02*
X0086215Y0571870D01*
X0086215Y0573469D02*
X0123785Y0573469D01*
X0123949Y0575067D02*
X0086051Y0575067D01*
X0085623Y0576666D02*
X0124377Y0576666D01*
X0125007Y0578264D02*
X0084993Y0578264D01*
X0084070Y0579863D02*
X0125930Y0579863D01*
X0127282Y0581461D02*
X0082718Y0581461D01*
X0080899Y0583060D02*
X0129101Y0583060D01*
X0132400Y0584658D02*
X0077600Y0584658D01*
X0069991Y0584658D02*
X0037859Y0584658D01*
X0038773Y0583060D02*
X0066692Y0583060D01*
X0064873Y0581461D02*
X0039201Y0581461D01*
X0039630Y0579863D02*
X0063520Y0579863D01*
X0062598Y0578264D02*
X0039699Y0578264D01*
X0039699Y0576666D02*
X0061968Y0576666D01*
X0061540Y0575067D02*
X0039450Y0575067D01*
X0039022Y0573469D02*
X0061376Y0573469D01*
X0061376Y0571870D02*
X0038395Y0571870D01*
X0037472Y0570272D02*
X0061376Y0570272D01*
X0061376Y0568673D02*
X0036247Y0568673D01*
X0034648Y0567074D02*
X0061376Y0567074D01*
X0061376Y0565476D02*
X0032053Y0565476D01*
X0036917Y0586257D02*
X0158000Y0586257D01*
X0158000Y0587855D02*
X0035318Y0587855D01*
X0033214Y0589454D02*
X0158000Y0589454D01*
X0158000Y0584658D02*
X0140009Y0584658D01*
X0143308Y0583060D02*
X0158000Y0583060D01*
X0158000Y0581461D02*
X0145127Y0581461D01*
X0146480Y0579863D02*
X0158000Y0579863D01*
X0158000Y0578264D02*
X0147402Y0578264D01*
X0148032Y0576666D02*
X0158000Y0576666D01*
X0158000Y0575067D02*
X0148460Y0575067D01*
X0148624Y0573469D02*
X0158000Y0573469D01*
X0158000Y0571870D02*
X0148624Y0571870D01*
X0148624Y0570272D02*
X0158000Y0570272D01*
X0158000Y0568673D02*
X0148624Y0568673D01*
X0148624Y0567074D02*
X0158000Y0567074D01*
X0158000Y0565476D02*
X0148624Y0565476D01*
X0148624Y0563877D02*
X0158000Y0563877D01*
X0158000Y0562279D02*
X0148624Y0562279D01*
X0148500Y0560680D02*
X0158000Y0560680D01*
X0158000Y0559082D02*
X0148072Y0559082D01*
X0147488Y0557483D02*
X0158000Y0557483D01*
X0158000Y0555885D02*
X0146565Y0555885D01*
X0145275Y0554286D02*
X0158000Y0554286D01*
X0158000Y0552688D02*
X0143564Y0552688D01*
X0140560Y0551089D02*
X0158000Y0551089D01*
X0158000Y0549491D02*
X0008400Y0549491D01*
X0008400Y0547892D02*
X0158000Y0547892D01*
X0158000Y0546294D02*
X0008400Y0546294D01*
X0008400Y0544695D02*
X0158000Y0544695D01*
X0158000Y0543097D02*
X0008400Y0543097D01*
X0008400Y0541498D02*
X0158000Y0541498D01*
X0158000Y0539900D02*
X0008400Y0539900D01*
X0008400Y0538301D02*
X0158000Y0538301D01*
X0158000Y0536703D02*
X0008400Y0536703D01*
X0008400Y0535104D02*
X0158000Y0535104D01*
X0158000Y0533506D02*
X0008400Y0533506D01*
X0008400Y0531907D02*
X0158000Y0531907D01*
X0158000Y0530309D02*
X0008400Y0530309D01*
X0008400Y0528710D02*
X0158000Y0528710D01*
X0158000Y0527112D02*
X0008400Y0527112D01*
X0008400Y0525513D02*
X0158000Y0525513D01*
X0158000Y0523915D02*
X0008400Y0523915D01*
X0008400Y0522316D02*
X0158000Y0522316D01*
X0158000Y0520718D02*
X0095788Y0520718D01*
X0095589Y0520800D02*
X0099265Y0519278D01*
X0102078Y0516465D01*
X0103600Y0512789D01*
X0103600Y0508811D01*
X0102078Y0505135D01*
X0099265Y0502322D01*
X0095589Y0500800D01*
X0086411Y0500800D01*
X0082735Y0502322D01*
X0079922Y0505135D01*
X0078400Y0508811D01*
X0078400Y0512789D01*
X0079922Y0516465D01*
X0082735Y0519278D01*
X0086411Y0520800D01*
X0095589Y0520800D01*
X0099423Y0519119D02*
X0158000Y0519119D01*
X0158000Y0517521D02*
X0101021Y0517521D01*
X0102302Y0515922D02*
X0158000Y0515922D01*
X0158000Y0514324D02*
X0102964Y0514324D01*
X0103600Y0512725D02*
X0158000Y0512725D01*
X0158000Y0511127D02*
X0103600Y0511127D01*
X0103600Y0509528D02*
X0158000Y0509528D01*
X0158000Y0507930D02*
X0103235Y0507930D01*
X0102573Y0506331D02*
X0158000Y0506331D01*
X0158000Y0504733D02*
X0101675Y0504733D01*
X0100076Y0503134D02*
X0158000Y0503134D01*
X0158000Y0501536D02*
X0097365Y0501536D01*
X0084635Y0501536D02*
X0057365Y0501536D01*
X0055589Y0500800D02*
X0059265Y0502322D01*
X0062078Y0505135D01*
X0063600Y0508811D01*
X0063600Y0512789D01*
X0062078Y0516465D01*
X0059265Y0519278D01*
X0055589Y0520800D01*
X0046411Y0520800D01*
X0042735Y0519278D01*
X0039922Y0516465D01*
X0038400Y0512789D01*
X0038400Y0508811D01*
X0039922Y0505135D01*
X0042735Y0502322D01*
X0046411Y0500800D01*
X0055589Y0500800D01*
X0060076Y0503134D02*
X0081924Y0503134D01*
X0080325Y0504733D02*
X0061675Y0504733D01*
X0062573Y0506331D02*
X0079427Y0506331D01*
X0078765Y0507930D02*
X0063235Y0507930D01*
X0063600Y0509528D02*
X0078400Y0509528D01*
X0078400Y0511127D02*
X0063600Y0511127D01*
X0063600Y0512725D02*
X0078400Y0512725D01*
X0079036Y0514324D02*
X0062964Y0514324D01*
X0062302Y0515922D02*
X0079698Y0515922D01*
X0080979Y0517521D02*
X0061021Y0517521D01*
X0059423Y0519119D02*
X0082577Y0519119D01*
X0086212Y0520718D02*
X0055788Y0520718D01*
X0046212Y0520718D02*
X0008400Y0520718D01*
X0008400Y0519119D02*
X0042577Y0519119D01*
X0040979Y0517521D02*
X0008400Y0517521D01*
X0008400Y0515922D02*
X0039698Y0515922D01*
X0039036Y0514324D02*
X0008400Y0514324D01*
X0008400Y0512725D02*
X0038400Y0512725D01*
X0038400Y0511127D02*
X0008400Y0511127D01*
X0008400Y0509528D02*
X0038400Y0509528D01*
X0038765Y0507930D02*
X0008400Y0507930D01*
X0008400Y0506331D02*
X0039427Y0506331D01*
X0040325Y0504733D02*
X0008400Y0504733D01*
X0008400Y0503134D02*
X0041924Y0503134D01*
X0044635Y0501536D02*
X0008400Y0501536D01*
X0008400Y0499937D02*
X0158000Y0499937D01*
X0158000Y0498339D02*
X0008400Y0498339D01*
X0008400Y0496740D02*
X0158000Y0496740D01*
X0158000Y0495141D02*
X0008400Y0495141D01*
X0008400Y0493543D02*
X0158000Y0493543D01*
X0158000Y0491944D02*
X0008400Y0491944D01*
X0008400Y0490346D02*
X0158000Y0490346D01*
X0158000Y0488747D02*
X0008400Y0488747D01*
X0008400Y0487149D02*
X0158000Y0487149D01*
X0158000Y0485550D02*
X0008400Y0485550D01*
X0008400Y0483952D02*
X0158000Y0483952D01*
X0158000Y0482353D02*
X0008400Y0482353D01*
X0008400Y0480755D02*
X0158000Y0480755D01*
X0158000Y0479156D02*
X0008400Y0479156D01*
X0008400Y0477558D02*
X0158000Y0477558D01*
X0158000Y0475959D02*
X0008400Y0475959D01*
X0008400Y0474361D02*
X0158000Y0474361D01*
X0158000Y0472762D02*
X0008400Y0472762D01*
X0008400Y0471164D02*
X0158000Y0471164D01*
X0158000Y0469565D02*
X0008400Y0469565D01*
X0008400Y0467967D02*
X0158000Y0467967D01*
X0158000Y0466368D02*
X0008400Y0466368D01*
X0008400Y0464770D02*
X0158000Y0464770D01*
X0158000Y0463171D02*
X0008400Y0463171D01*
X0008400Y0461573D02*
X0158000Y0461573D01*
X0158000Y0459974D02*
X0008400Y0459974D01*
X0008400Y0458376D02*
X0158000Y0458376D01*
X0158000Y0456777D02*
X0118825Y0456777D01*
X0120002Y0456462D02*
X0117365Y0457168D01*
X0114635Y0457168D01*
X0111998Y0456462D01*
X0109634Y0455097D01*
X0107703Y0453166D01*
X0106338Y0450802D01*
X0105631Y0448165D01*
X0105631Y0445435D01*
X0106338Y0442798D01*
X0107703Y0440434D01*
X0109634Y0438503D01*
X0111998Y0437138D01*
X0114635Y0436431D01*
X0117365Y0436431D01*
X0120002Y0437138D01*
X0122366Y0438503D01*
X0124297Y0440434D01*
X0125662Y0442798D01*
X0126368Y0445435D01*
X0126368Y0448165D01*
X0125662Y0450802D01*
X0124297Y0453166D01*
X0122366Y0455097D01*
X0120002Y0456462D01*
X0122225Y0455179D02*
X0158000Y0455179D01*
X0158000Y0453580D02*
X0123883Y0453580D01*
X0124981Y0451982D02*
X0158000Y0451982D01*
X0158000Y0450383D02*
X0125774Y0450383D01*
X0126202Y0448785D02*
X0158000Y0448785D01*
X0158000Y0447186D02*
X0126368Y0447186D01*
X0126368Y0445588D02*
X0158000Y0445588D01*
X0158000Y0443989D02*
X0125981Y0443989D01*
X0125427Y0442391D02*
X0158000Y0442391D01*
X0158000Y0440792D02*
X0124504Y0440792D01*
X0123057Y0439194D02*
X0158000Y0439194D01*
X0158000Y0437595D02*
X0120794Y0437595D01*
X0111206Y0437595D02*
X0008400Y0437595D01*
X0008400Y0435997D02*
X0020774Y0435997D01*
X0020776Y0435998D02*
X0018281Y0434557D01*
X0016243Y0432519D01*
X0014802Y0430024D01*
X0014057Y0427241D01*
X0014057Y0424359D01*
X0014802Y0421576D01*
X0016243Y0419081D01*
X0018281Y0417043D01*
X0020776Y0415602D01*
X0023559Y0414857D01*
X0026441Y0414857D01*
X0029224Y0415602D01*
X0031719Y0417043D01*
X0033757Y0419081D01*
X0035198Y0421576D01*
X0035943Y0424359D01*
X0035943Y0427241D01*
X0035198Y0430024D01*
X0033757Y0432519D01*
X0031719Y0434557D01*
X0029224Y0435998D01*
X0026441Y0436743D01*
X0023559Y0436743D01*
X0020776Y0435998D01*
X0018122Y0434398D02*
X0008400Y0434398D01*
X0008400Y0432800D02*
X0016523Y0432800D01*
X0015482Y0431201D02*
X0008400Y0431201D01*
X0008400Y0429603D02*
X0014690Y0429603D01*
X0014261Y0428004D02*
X0008400Y0428004D01*
X0008400Y0426405D02*
X0014057Y0426405D01*
X0014057Y0424807D02*
X0008400Y0424807D01*
X0008400Y0423208D02*
X0014365Y0423208D01*
X0014793Y0421610D02*
X0008400Y0421610D01*
X0008400Y0420011D02*
X0015706Y0420011D01*
X0016911Y0418413D02*
X0008400Y0418413D01*
X0008400Y0416814D02*
X0018677Y0416814D01*
X0022219Y0415216D02*
X0008400Y0415216D01*
X0008400Y0413617D02*
X0158000Y0413617D01*
X0158000Y0412019D02*
X0008400Y0412019D01*
X0008400Y0410420D02*
X0158000Y0410420D01*
X0158000Y0408822D02*
X0008400Y0408822D01*
X0008400Y0407223D02*
X0158000Y0407223D01*
X0158000Y0405625D02*
X0059869Y0405625D01*
X0059224Y0405998D02*
X0056441Y0406743D01*
X0053559Y0406743D01*
X0050776Y0405998D01*
X0048281Y0404557D01*
X0046243Y0402519D01*
X0044802Y0400024D01*
X0044057Y0397241D01*
X0044057Y0396000D01*
X0039225Y0396000D01*
X0035193Y0400032D01*
X0033757Y0402519D01*
X0031719Y0404557D01*
X0029224Y0405998D01*
X0026441Y0406743D01*
X0023559Y0406743D01*
X0020776Y0405998D01*
X0018281Y0404557D01*
X0016243Y0402519D01*
X0014802Y0400024D01*
X0014057Y0397241D01*
X0014057Y0394359D01*
X0014802Y0391576D01*
X0016243Y0389081D01*
X0018281Y0387043D01*
X0020768Y0385607D01*
X0028737Y0377638D01*
X0031063Y0376295D01*
X0033657Y0375600D01*
X0064155Y0375600D01*
X0090800Y0352185D01*
X0090800Y0317457D01*
X0091495Y0314863D01*
X0092643Y0312875D01*
X0092745Y0312627D01*
X0094827Y0310545D01*
X0095075Y0310443D01*
X0097063Y0309295D01*
X0099657Y0308600D01*
X0102343Y0308600D01*
X0104937Y0309295D01*
X0106925Y0310443D01*
X0107173Y0310545D01*
X0109255Y0312627D01*
X0109357Y0312875D01*
X0110505Y0314863D01*
X0111200Y0317457D01*
X0111200Y0337599D01*
X0111998Y0337138D01*
X0114635Y0336431D01*
X0117365Y0336431D01*
X0120002Y0337138D01*
X0122366Y0338503D01*
X0124297Y0340434D01*
X0125662Y0342798D01*
X0126368Y0345435D01*
X0126368Y0348165D01*
X0125662Y0350802D01*
X0124297Y0353166D01*
X0122366Y0355097D01*
X0120002Y0356462D01*
X0118740Y0356800D01*
X0120002Y0357138D01*
X0122366Y0358503D01*
X0124297Y0360434D01*
X0125662Y0362798D01*
X0126368Y0365435D01*
X0126368Y0368165D01*
X0125662Y0370802D01*
X0124297Y0373166D01*
X0122366Y0375097D01*
X0120002Y0376462D01*
X0117365Y0377168D01*
X0114635Y0377168D01*
X0111998Y0376462D01*
X0109634Y0375097D01*
X0107703Y0373166D01*
X0106338Y0370802D01*
X0105631Y0368165D01*
X0105631Y0366309D01*
X0074980Y0393245D01*
X0074263Y0393962D01*
X0073975Y0394128D01*
X0073724Y0394348D01*
X0072815Y0394798D01*
X0071937Y0395305D01*
X0071615Y0395391D01*
X0071317Y0395539D01*
X0070322Y0395737D01*
X0069343Y0396000D01*
X0069010Y0396000D01*
X0068683Y0396065D01*
X0067671Y0396000D01*
X0065943Y0396000D01*
X0065943Y0397241D01*
X0065198Y0400024D01*
X0063757Y0402519D01*
X0061719Y0404557D01*
X0059224Y0405998D01*
X0062250Y0404026D02*
X0158000Y0404026D01*
X0158000Y0402428D02*
X0063810Y0402428D01*
X0064733Y0400829D02*
X0158000Y0400829D01*
X0158000Y0399231D02*
X0065410Y0399231D01*
X0065838Y0397632D02*
X0158000Y0397632D01*
X0158000Y0396034D02*
X0068841Y0396034D01*
X0068195Y0396034D02*
X0065943Y0396034D01*
X0073549Y0394435D02*
X0158000Y0394435D01*
X0158000Y0392837D02*
X0075444Y0392837D01*
X0077263Y0391238D02*
X0158000Y0391238D01*
X0158000Y0389640D02*
X0079082Y0389640D01*
X0080901Y0388041D02*
X0158000Y0388041D01*
X0158000Y0386443D02*
X0082720Y0386443D01*
X0084539Y0384844D02*
X0158000Y0384844D01*
X0158000Y0383246D02*
X0086358Y0383246D01*
X0088177Y0381647D02*
X0158000Y0381647D01*
X0158000Y0380049D02*
X0089996Y0380049D01*
X0091815Y0378450D02*
X0158000Y0378450D01*
X0158000Y0376852D02*
X0118548Y0376852D01*
X0122096Y0375253D02*
X0158000Y0375253D01*
X0158000Y0373655D02*
X0123809Y0373655D01*
X0124938Y0372056D02*
X0158000Y0372056D01*
X0158000Y0370458D02*
X0125754Y0370458D01*
X0126183Y0368859D02*
X0158000Y0368859D01*
X0158000Y0367261D02*
X0126368Y0367261D01*
X0126368Y0365662D02*
X0158000Y0365662D01*
X0158000Y0364064D02*
X0126001Y0364064D01*
X0125470Y0362465D02*
X0158000Y0362465D01*
X0158000Y0360867D02*
X0124547Y0360867D01*
X0123131Y0359268D02*
X0158000Y0359268D01*
X0158000Y0357670D02*
X0120923Y0357670D01*
X0120679Y0356071D02*
X0158000Y0356071D01*
X0158000Y0354472D02*
X0122991Y0354472D01*
X0124466Y0352874D02*
X0158000Y0352874D01*
X0158000Y0351275D02*
X0125389Y0351275D01*
X0125963Y0349677D02*
X0158000Y0349677D01*
X0158000Y0348078D02*
X0126368Y0348078D01*
X0126368Y0346480D02*
X0158000Y0346480D01*
X0158000Y0344881D02*
X0126220Y0344881D01*
X0125792Y0343283D02*
X0158000Y0343283D01*
X0158000Y0341684D02*
X0125019Y0341684D01*
X0123949Y0340086D02*
X0158000Y0340086D01*
X0158000Y0338487D02*
X0122339Y0338487D01*
X0119072Y0336889D02*
X0158000Y0336889D01*
X0158000Y0335290D02*
X0111200Y0335290D01*
X0111200Y0333692D02*
X0158000Y0333692D01*
X0158000Y0332093D02*
X0111200Y0332093D01*
X0111200Y0330495D02*
X0158000Y0330495D01*
X0158000Y0328896D02*
X0111200Y0328896D01*
X0111200Y0327298D02*
X0158000Y0327298D01*
X0158000Y0325699D02*
X0111200Y0325699D01*
X0111200Y0324101D02*
X0158000Y0324101D01*
X0158000Y0322502D02*
X0111200Y0322502D01*
X0111200Y0320904D02*
X0158000Y0320904D01*
X0158000Y0319305D02*
X0111200Y0319305D01*
X0111200Y0317707D02*
X0158000Y0317707D01*
X0158000Y0316108D02*
X0110839Y0316108D01*
X0110301Y0314510D02*
X0130710Y0314510D01*
X0131411Y0314800D02*
X0127735Y0313278D01*
X0124922Y0310465D01*
X0123400Y0306789D01*
X0123400Y0302811D01*
X0124647Y0299800D01*
X0123400Y0296789D01*
X0123400Y0292811D01*
X0124922Y0289135D01*
X0127735Y0286322D01*
X0131411Y0284800D01*
X0127735Y0283278D01*
X0124922Y0280465D01*
X0123400Y0276789D01*
X0123400Y0272811D01*
X0124922Y0269135D01*
X0127735Y0266322D01*
X0131411Y0264800D01*
X0140589Y0264800D01*
X0144265Y0266322D01*
X0147078Y0269135D01*
X0148600Y0272811D01*
X0148600Y0276789D01*
X0147078Y0280465D01*
X0144265Y0283278D01*
X0140589Y0284800D01*
X0131411Y0284800D01*
X0140589Y0284800D01*
X0144265Y0286322D01*
X0147078Y0289135D01*
X0148600Y0292811D01*
X0148600Y0296789D01*
X0147353Y0299800D01*
X0148600Y0302811D01*
X0148600Y0306789D01*
X0147078Y0310465D01*
X0144265Y0313278D01*
X0140589Y0314800D01*
X0131411Y0314800D01*
X0127369Y0312911D02*
X0109378Y0312911D01*
X0107940Y0311313D02*
X0125771Y0311313D01*
X0124612Y0309714D02*
X0105663Y0309714D01*
X0096337Y0309714D02*
X0008400Y0309714D01*
X0008400Y0308116D02*
X0123949Y0308116D01*
X0123400Y0306517D02*
X0008400Y0306517D01*
X0008400Y0304919D02*
X0061226Y0304919D01*
X0061696Y0305190D02*
X0059154Y0303722D01*
X0057078Y0301646D01*
X0055610Y0299104D01*
X0054850Y0296268D01*
X0054850Y0293332D01*
X0055610Y0290496D01*
X0057078Y0287954D01*
X0059154Y0285878D01*
X0061696Y0284410D01*
X0064532Y0283650D01*
X0067468Y0283650D01*
X0070304Y0284410D01*
X0072846Y0285878D01*
X0074922Y0287954D01*
X0076390Y0290496D01*
X0077150Y0293332D01*
X0077150Y0296268D01*
X0076390Y0299104D01*
X0074922Y0301646D01*
X0072846Y0303722D01*
X0070304Y0305190D01*
X0067468Y0305950D01*
X0064532Y0305950D01*
X0061696Y0305190D01*
X0058752Y0303320D02*
X0008400Y0303320D01*
X0008400Y0301722D02*
X0057153Y0301722D01*
X0056198Y0300123D02*
X0008400Y0300123D01*
X0008400Y0298525D02*
X0055455Y0298525D01*
X0055026Y0296926D02*
X0008400Y0296926D01*
X0008400Y0295328D02*
X0054850Y0295328D01*
X0054850Y0293729D02*
X0008400Y0293729D01*
X0008400Y0292131D02*
X0055172Y0292131D01*
X0055600Y0290532D02*
X0008400Y0290532D01*
X0008400Y0288934D02*
X0056512Y0288934D01*
X0057697Y0287335D02*
X0008400Y0287335D01*
X0008400Y0285737D02*
X0059398Y0285737D01*
X0062711Y0284138D02*
X0008400Y0284138D01*
X0008400Y0282539D02*
X0126997Y0282539D01*
X0125399Y0280941D02*
X0008400Y0280941D01*
X0008400Y0279342D02*
X0124458Y0279342D01*
X0123796Y0277744D02*
X0008400Y0277744D01*
X0008400Y0276145D02*
X0123400Y0276145D01*
X0123400Y0274547D02*
X0008400Y0274547D01*
X0008400Y0272948D02*
X0123400Y0272948D01*
X0124005Y0271350D02*
X0008400Y0271350D01*
X0008400Y0269751D02*
X0124667Y0269751D01*
X0125905Y0268153D02*
X0008400Y0268153D01*
X0008400Y0266554D02*
X0127503Y0266554D01*
X0131035Y0264956D02*
X0008400Y0264956D01*
X0008400Y0263357D02*
X0158000Y0263357D01*
X0158000Y0261759D02*
X0008400Y0261759D01*
X0008400Y0260160D02*
X0158000Y0260160D01*
X0158000Y0258562D02*
X0008400Y0258562D01*
X0008400Y0256963D02*
X0158000Y0256963D01*
X0158000Y0255365D02*
X0008400Y0255365D01*
X0008400Y0253766D02*
X0158000Y0253766D01*
X0158000Y0252168D02*
X0008400Y0252168D01*
X0008400Y0250569D02*
X0158000Y0250569D01*
X0158000Y0248971D02*
X0008400Y0248971D01*
X0008400Y0247372D02*
X0158000Y0247372D01*
X0158000Y0245774D02*
X0008400Y0245774D01*
X0008400Y0244175D02*
X0158000Y0244175D01*
X0158000Y0242577D02*
X0008400Y0242577D01*
X0008400Y0240978D02*
X0158000Y0240978D01*
X0158000Y0239380D02*
X0008400Y0239380D01*
X0008400Y0237781D02*
X0158000Y0237781D01*
X0158000Y0236183D02*
X0008400Y0236183D01*
X0008400Y0234584D02*
X0158000Y0234584D01*
X0158000Y0232986D02*
X0008400Y0232986D01*
X0008400Y0231387D02*
X0158000Y0231387D01*
X0158000Y0229789D02*
X0008400Y0229789D01*
X0008400Y0228190D02*
X0158000Y0228190D01*
X0158000Y0226592D02*
X0008400Y0226592D01*
X0008400Y0224993D02*
X0158000Y0224993D01*
X0158000Y0223395D02*
X0008400Y0223395D01*
X0008400Y0221796D02*
X0158000Y0221796D01*
X0158000Y0220198D02*
X0008400Y0220198D01*
X0008400Y0218599D02*
X0158000Y0218599D01*
X0158000Y0217001D02*
X0008400Y0217001D01*
X0008400Y0215402D02*
X0158000Y0215402D01*
X0158000Y0213803D02*
X0008400Y0213803D01*
X0008400Y0212205D02*
X0158000Y0212205D01*
X0158000Y0210606D02*
X0008400Y0210606D01*
X0008400Y0209008D02*
X0158000Y0209008D01*
X0158000Y0207409D02*
X0008400Y0207409D01*
X0008400Y0205811D02*
X0158000Y0205811D01*
X0158000Y0204212D02*
X0008400Y0204212D01*
X0008400Y0202614D02*
X0158000Y0202614D01*
X0158000Y0201015D02*
X0008400Y0201015D01*
X0008400Y0199417D02*
X0158000Y0199417D01*
X0158000Y0197818D02*
X0008400Y0197818D01*
X0008400Y0196220D02*
X0158000Y0196220D01*
X0158000Y0194621D02*
X0008400Y0194621D01*
X0008400Y0193023D02*
X0158000Y0193023D01*
X0158000Y0191424D02*
X0008400Y0191424D01*
X0008400Y0189826D02*
X0158000Y0189826D01*
X0158000Y0188227D02*
X0008400Y0188227D01*
X0008400Y0186629D02*
X0158000Y0186629D01*
X0158000Y0185030D02*
X0008400Y0185030D01*
X0008400Y0183432D02*
X0158000Y0183432D01*
X0158000Y0181833D02*
X0120091Y0181833D01*
X0119002Y0182462D02*
X0116365Y0183168D01*
X0113635Y0183168D01*
X0110998Y0182462D01*
X0108634Y0181097D01*
X0106703Y0179166D01*
X0105338Y0176802D01*
X0104631Y0174165D01*
X0104631Y0171435D01*
X0105338Y0168798D01*
X0106703Y0166434D01*
X0108634Y0164503D01*
X0110998Y0163138D01*
X0113635Y0162431D01*
X0116365Y0162431D01*
X0119002Y0163138D01*
X0121366Y0164503D01*
X0123297Y0166434D01*
X0124662Y0168798D01*
X0125368Y0171435D01*
X0125368Y0174165D01*
X0124662Y0176802D01*
X0123297Y0179166D01*
X0121366Y0181097D01*
X0119002Y0182462D01*
X0122229Y0180235D02*
X0158000Y0180235D01*
X0158000Y0178636D02*
X0123603Y0178636D01*
X0124526Y0177038D02*
X0158000Y0177038D01*
X0158000Y0175439D02*
X0125027Y0175439D01*
X0125368Y0173841D02*
X0158000Y0173841D01*
X0158000Y0172242D02*
X0125368Y0172242D01*
X0125156Y0170644D02*
X0158000Y0170644D01*
X0158000Y0169045D02*
X0124728Y0169045D01*
X0123882Y0167447D02*
X0158000Y0167447D01*
X0158000Y0165848D02*
X0122711Y0165848D01*
X0120927Y0164250D02*
X0158000Y0164250D01*
X0158000Y0162651D02*
X0117185Y0162651D01*
X0112815Y0162651D02*
X0008400Y0162651D01*
X0008400Y0161053D02*
X0158000Y0161053D01*
X0158000Y0159454D02*
X0008400Y0159454D01*
X0008400Y0157856D02*
X0158000Y0157856D01*
X0158000Y0156257D02*
X0008400Y0156257D01*
X0008400Y0154659D02*
X0158000Y0154659D01*
X0158000Y0153060D02*
X0008400Y0153060D01*
X0008400Y0151462D02*
X0158000Y0151462D01*
X0158000Y0149863D02*
X0008400Y0149863D01*
X0008400Y0148265D02*
X0158000Y0148265D01*
X0158000Y0146666D02*
X0008400Y0146666D01*
X0008400Y0145068D02*
X0158000Y0145068D01*
X0158000Y0143469D02*
X0008400Y0143469D01*
X0008400Y0141870D02*
X0158000Y0141870D01*
X0158000Y0140272D02*
X0008400Y0140272D01*
X0008400Y0138673D02*
X0158000Y0138673D01*
X0158000Y0137075D02*
X0008400Y0137075D01*
X0008400Y0135476D02*
X0158000Y0135476D01*
X0158000Y0133878D02*
X0008400Y0133878D01*
X0008400Y0132279D02*
X0158000Y0132279D01*
X0158000Y0130681D02*
X0008400Y0130681D01*
X0008400Y0129082D02*
X0158000Y0129082D01*
X0158000Y0127484D02*
X0008400Y0127484D01*
X0008400Y0125885D02*
X0158000Y0125885D01*
X0158000Y0124287D02*
X0008400Y0124287D01*
X0008400Y0122688D02*
X0158000Y0122688D01*
X0158000Y0121090D02*
X0008400Y0121090D01*
X0008400Y0119491D02*
X0158000Y0119491D01*
X0158000Y0117893D02*
X0008400Y0117893D01*
X0008400Y0116294D02*
X0158000Y0116294D01*
X0158000Y0114696D02*
X0008400Y0114696D01*
X0008400Y0113097D02*
X0158000Y0113097D01*
X0158000Y0111499D02*
X0008400Y0111499D01*
X0008400Y0109900D02*
X0158000Y0109900D01*
X0158000Y0108302D02*
X0008400Y0108302D01*
X0008400Y0106703D02*
X0158000Y0106703D01*
X0158000Y0105105D02*
X0008400Y0105105D01*
X0008400Y0103506D02*
X0158000Y0103506D01*
X0158000Y0101908D02*
X0119962Y0101908D01*
X0119002Y0102462D02*
X0116365Y0103168D01*
X0113635Y0103168D01*
X0110998Y0102462D01*
X0108634Y0101097D01*
X0106703Y0099166D01*
X0105338Y0096802D01*
X0104631Y0094165D01*
X0104631Y0091435D01*
X0105338Y0088798D01*
X0106703Y0086434D01*
X0108634Y0084503D01*
X0110998Y0083138D01*
X0112260Y0082800D01*
X0110998Y0082462D01*
X0108634Y0081097D01*
X0106703Y0079166D01*
X0105338Y0076802D01*
X0104631Y0074165D01*
X0104631Y0071435D01*
X0105338Y0068798D01*
X0106703Y0066434D01*
X0108634Y0064503D01*
X0110998Y0063138D01*
X0113635Y0062431D01*
X0116365Y0062431D01*
X0119002Y0063138D01*
X0121366Y0064503D01*
X0123297Y0066434D01*
X0124662Y0068798D01*
X0125368Y0071435D01*
X0125368Y0074165D01*
X0124662Y0076802D01*
X0123297Y0079166D01*
X0121366Y0081097D01*
X0119002Y0082462D01*
X0117740Y0082800D01*
X0119002Y0083138D01*
X0121366Y0084503D01*
X0123297Y0086434D01*
X0124662Y0088798D01*
X0125368Y0091435D01*
X0125368Y0094165D01*
X0124662Y0096802D01*
X0123297Y0099166D01*
X0121366Y0101097D01*
X0119002Y0102462D01*
X0122154Y0100309D02*
X0158000Y0100309D01*
X0158000Y0098711D02*
X0123560Y0098711D01*
X0124483Y0097112D02*
X0158000Y0097112D01*
X0158000Y0095514D02*
X0125007Y0095514D01*
X0125368Y0093915D02*
X0158000Y0093915D01*
X0158000Y0092317D02*
X0125368Y0092317D01*
X0125176Y0090718D02*
X0158000Y0090718D01*
X0158000Y0089120D02*
X0124748Y0089120D01*
X0123925Y0087521D02*
X0158000Y0087521D01*
X0158000Y0085923D02*
X0122786Y0085923D01*
X0121056Y0084324D02*
X0158000Y0084324D01*
X0158000Y0082726D02*
X0118018Y0082726D01*
X0121314Y0081127D02*
X0158000Y0081127D01*
X0158000Y0079529D02*
X0122935Y0079529D01*
X0124011Y0077930D02*
X0158000Y0077930D01*
X0158000Y0076332D02*
X0124788Y0076332D01*
X0125216Y0074733D02*
X0158000Y0074733D01*
X0158000Y0073134D02*
X0125368Y0073134D01*
X0125368Y0071536D02*
X0158000Y0071536D01*
X0158000Y0069937D02*
X0124967Y0069937D01*
X0124397Y0068339D02*
X0158000Y0068339D01*
X0158000Y0066740D02*
X0123474Y0066740D01*
X0122005Y0065142D02*
X0158000Y0065142D01*
X0158000Y0063543D02*
X0119704Y0063543D01*
X0110296Y0063543D02*
X0008400Y0063543D01*
X0008400Y0061945D02*
X0158000Y0061945D01*
X0158000Y0060346D02*
X0008400Y0060346D01*
X0008400Y0058748D02*
X0158000Y0058748D01*
X0158000Y0057149D02*
X0008400Y0057149D01*
X0008400Y0055551D02*
X0158000Y0055551D01*
X0158000Y0053952D02*
X0008400Y0053952D01*
X0008400Y0052354D02*
X0158000Y0052354D01*
X0158000Y0050755D02*
X0008400Y0050755D01*
X0008400Y0049157D02*
X0158000Y0049157D01*
X0158000Y0047558D02*
X0008400Y0047558D01*
X0008400Y0045960D02*
X0158000Y0045960D01*
X0158000Y0044361D02*
X0008400Y0044361D01*
X0008400Y0042763D02*
X0158000Y0042763D01*
X0158000Y0041164D02*
X0029054Y0041164D01*
X0027804Y0041499D02*
X0024196Y0041499D01*
X0020712Y0040566D01*
X0017588Y0038762D01*
X0015038Y0036212D01*
X0013234Y0033088D01*
X0012301Y0029604D01*
X0012301Y0025996D01*
X0013234Y0022512D01*
X0015038Y0019388D01*
X0017588Y0016838D01*
X0020712Y0015034D01*
X0024196Y0014101D01*
X0027804Y0014101D01*
X0031288Y0015034D01*
X0034412Y0016838D01*
X0036962Y0019388D01*
X0038766Y0022512D01*
X0039699Y0025996D01*
X0039699Y0029604D01*
X0038766Y0033088D01*
X0036962Y0036212D01*
X0034412Y0038762D01*
X0031288Y0040566D01*
X0027804Y0041499D01*
X0022946Y0041164D02*
X0008400Y0041164D01*
X0008400Y0039566D02*
X0018980Y0039566D01*
X0016794Y0037967D02*
X0008400Y0037967D01*
X0008400Y0036369D02*
X0015195Y0036369D01*
X0014206Y0034770D02*
X0008400Y0034770D01*
X0008400Y0033172D02*
X0013283Y0033172D01*
X0012829Y0031573D02*
X0008400Y0031573D01*
X0008400Y0029975D02*
X0012400Y0029975D01*
X0012301Y0028376D02*
X0008400Y0028376D01*
X0008400Y0026778D02*
X0012301Y0026778D01*
X0012520Y0025179D02*
X0008400Y0025179D01*
X0008400Y0023581D02*
X0012948Y0023581D01*
X0013540Y0021982D02*
X0008400Y0021982D01*
X0008400Y0020384D02*
X0014463Y0020384D01*
X0015641Y0018785D02*
X0008400Y0018785D01*
X0008400Y0017187D02*
X0017240Y0017187D01*
X0019753Y0015588D02*
X0008400Y0015588D01*
X0008400Y0013990D02*
X0158000Y0013990D01*
X0158000Y0015588D02*
X0032247Y0015588D01*
X0034760Y0017187D02*
X0158000Y0017187D01*
X0158000Y0018785D02*
X0036359Y0018785D01*
X0037537Y0020384D02*
X0158000Y0020384D01*
X0158000Y0021982D02*
X0038460Y0021982D01*
X0039052Y0023581D02*
X0158000Y0023581D01*
X0158000Y0025179D02*
X0039480Y0025179D01*
X0039699Y0026778D02*
X0158000Y0026778D01*
X0158000Y0028376D02*
X0039699Y0028376D01*
X0039600Y0029975D02*
X0158000Y0029975D01*
X0158000Y0031573D02*
X0039171Y0031573D01*
X0038717Y0033172D02*
X0158000Y0033172D01*
X0158000Y0034770D02*
X0037794Y0034770D01*
X0036805Y0036369D02*
X0158000Y0036369D01*
X0158000Y0037967D02*
X0035206Y0037967D01*
X0033020Y0039566D02*
X0158000Y0039566D01*
X0158000Y0012391D02*
X0008400Y0012391D01*
X0008400Y0010793D02*
X0158000Y0010793D01*
X0107995Y0065142D02*
X0008400Y0065142D01*
X0008400Y0066740D02*
X0106526Y0066740D01*
X0105603Y0068339D02*
X0008400Y0068339D01*
X0008400Y0069937D02*
X0105033Y0069937D01*
X0104631Y0071536D02*
X0008400Y0071536D01*
X0008400Y0073134D02*
X0104631Y0073134D01*
X0104784Y0074733D02*
X0008400Y0074733D01*
X0008400Y0076332D02*
X0105212Y0076332D01*
X0105989Y0077930D02*
X0008400Y0077930D01*
X0008400Y0079529D02*
X0107065Y0079529D01*
X0108686Y0081127D02*
X0008400Y0081127D01*
X0008400Y0082726D02*
X0111982Y0082726D01*
X0108944Y0084324D02*
X0008400Y0084324D01*
X0008400Y0085923D02*
X0107214Y0085923D01*
X0106075Y0087521D02*
X0008400Y0087521D01*
X0008400Y0089120D02*
X0105252Y0089120D01*
X0104824Y0090718D02*
X0008400Y0090718D01*
X0008400Y0092317D02*
X0104631Y0092317D01*
X0104631Y0093915D02*
X0008400Y0093915D01*
X0008400Y0095514D02*
X0104993Y0095514D01*
X0105517Y0097112D02*
X0008400Y0097112D01*
X0008400Y0098711D02*
X0106440Y0098711D01*
X0107846Y0100309D02*
X0008400Y0100309D01*
X0008400Y0101908D02*
X0110038Y0101908D01*
X0109073Y0164250D02*
X0008400Y0164250D01*
X0008400Y0165848D02*
X0107289Y0165848D01*
X0106118Y0167447D02*
X0008400Y0167447D01*
X0008400Y0169045D02*
X0105272Y0169045D01*
X0104844Y0170644D02*
X0008400Y0170644D01*
X0008400Y0172242D02*
X0104631Y0172242D01*
X0104631Y0173841D02*
X0008400Y0173841D01*
X0008400Y0175439D02*
X0104973Y0175439D01*
X0105474Y0177038D02*
X0008400Y0177038D01*
X0008400Y0178636D02*
X0106397Y0178636D01*
X0107771Y0180235D02*
X0008400Y0180235D01*
X0008400Y0181833D02*
X0109909Y0181833D01*
X0140965Y0264956D02*
X0158000Y0264956D01*
X0157503Y0266554D02*
X0144497Y0266554D01*
X0146095Y0268153D02*
X0155905Y0268153D01*
X0154667Y0269751D02*
X0147333Y0269751D01*
X0147995Y0271350D02*
X0154005Y0271350D01*
X0153400Y0272948D02*
X0148600Y0272948D01*
X0148600Y0274547D02*
X0153400Y0274547D01*
X0153400Y0276145D02*
X0148600Y0276145D01*
X0148204Y0277744D02*
X0153796Y0277744D01*
X0154458Y0279342D02*
X0147542Y0279342D01*
X0146601Y0280941D02*
X0154175Y0280941D01*
X0153512Y0282539D02*
X0145003Y0282539D01*
X0142187Y0284138D02*
X0153400Y0284138D01*
X0153400Y0285737D02*
X0142850Y0285737D01*
X0145277Y0287335D02*
X0153626Y0287335D01*
X0154288Y0288934D02*
X0146876Y0288934D01*
X0147656Y0290532D02*
X0154344Y0290532D01*
X0153682Y0292131D02*
X0148318Y0292131D01*
X0148600Y0293729D02*
X0153400Y0293729D01*
X0153400Y0295328D02*
X0148600Y0295328D01*
X0148543Y0296926D02*
X0153457Y0296926D01*
X0154119Y0298525D02*
X0147881Y0298525D01*
X0147487Y0300123D02*
X0154513Y0300123D01*
X0153851Y0301722D02*
X0148149Y0301722D01*
X0148600Y0303320D02*
X0153400Y0303320D01*
X0153400Y0304919D02*
X0148600Y0304919D01*
X0148600Y0306517D02*
X0153400Y0306517D01*
X0153949Y0308116D02*
X0148051Y0308116D01*
X0147388Y0309714D02*
X0154612Y0309714D01*
X0155771Y0311313D02*
X0146229Y0311313D01*
X0144631Y0312911D02*
X0157369Y0312911D01*
X0158000Y0314510D02*
X0141290Y0314510D01*
X0123851Y0301722D02*
X0074847Y0301722D01*
X0075802Y0300123D02*
X0124513Y0300123D01*
X0124119Y0298525D02*
X0076545Y0298525D01*
X0076974Y0296926D02*
X0123457Y0296926D01*
X0123400Y0295328D02*
X0077150Y0295328D01*
X0077150Y0293729D02*
X0123400Y0293729D01*
X0123682Y0292131D02*
X0076828Y0292131D01*
X0076400Y0290532D02*
X0124344Y0290532D01*
X0125124Y0288934D02*
X0075488Y0288934D01*
X0074303Y0287335D02*
X0126723Y0287335D01*
X0129150Y0285737D02*
X0072602Y0285737D01*
X0069289Y0284138D02*
X0129813Y0284138D01*
X0123400Y0303320D02*
X0073248Y0303320D01*
X0070774Y0304919D02*
X0123400Y0304919D01*
X0112928Y0336889D02*
X0111200Y0336889D01*
X0090800Y0336889D02*
X0008400Y0336889D01*
X0008400Y0338487D02*
X0090800Y0338487D01*
X0090800Y0340086D02*
X0008400Y0340086D01*
X0008400Y0341684D02*
X0090800Y0341684D01*
X0090800Y0343283D02*
X0008400Y0343283D01*
X0008400Y0344881D02*
X0023467Y0344881D01*
X0023559Y0344857D02*
X0026441Y0344857D01*
X0029224Y0345602D01*
X0031719Y0347043D01*
X0033757Y0349081D01*
X0035198Y0351576D01*
X0035943Y0354359D01*
X0035943Y0357241D01*
X0035198Y0360024D01*
X0033757Y0362519D01*
X0031719Y0364557D01*
X0029224Y0365998D01*
X0026441Y0366743D01*
X0023559Y0366743D01*
X0020776Y0365998D01*
X0018281Y0364557D01*
X0016243Y0362519D01*
X0014802Y0360024D01*
X0014057Y0357241D01*
X0014057Y0354359D01*
X0014802Y0351576D01*
X0016243Y0349081D01*
X0018281Y0347043D01*
X0020776Y0345602D01*
X0023559Y0344857D01*
X0026533Y0344881D02*
X0053467Y0344881D01*
X0053559Y0344857D02*
X0056441Y0344857D01*
X0059224Y0345602D01*
X0061719Y0347043D01*
X0063757Y0349081D01*
X0065198Y0351576D01*
X0065943Y0354359D01*
X0065943Y0357241D01*
X0065198Y0360024D01*
X0063757Y0362519D01*
X0061719Y0364557D01*
X0059224Y0365998D01*
X0056441Y0366743D01*
X0053559Y0366743D01*
X0050776Y0365998D01*
X0048281Y0364557D01*
X0046243Y0362519D01*
X0044802Y0360024D01*
X0044057Y0357241D01*
X0044057Y0354359D01*
X0044802Y0351576D01*
X0046243Y0349081D01*
X0048281Y0347043D01*
X0050776Y0345602D01*
X0053559Y0344857D01*
X0056533Y0344881D02*
X0090800Y0344881D01*
X0090800Y0346480D02*
X0060744Y0346480D01*
X0062755Y0348078D02*
X0090800Y0348078D01*
X0090800Y0349677D02*
X0064101Y0349677D01*
X0065024Y0351275D02*
X0090800Y0351275D01*
X0090016Y0352874D02*
X0065545Y0352874D01*
X0065943Y0354472D02*
X0088197Y0354472D01*
X0086378Y0356071D02*
X0065943Y0356071D01*
X0065828Y0357670D02*
X0084559Y0357670D01*
X0082740Y0359268D02*
X0065400Y0359268D01*
X0064711Y0360867D02*
X0080921Y0360867D01*
X0079102Y0362465D02*
X0063788Y0362465D01*
X0062213Y0364064D02*
X0077283Y0364064D01*
X0075464Y0365662D02*
X0059805Y0365662D01*
X0050195Y0365662D02*
X0029805Y0365662D01*
X0032213Y0364064D02*
X0047787Y0364064D01*
X0046212Y0362465D02*
X0033788Y0362465D01*
X0034711Y0360867D02*
X0045289Y0360867D01*
X0044600Y0359268D02*
X0035400Y0359268D01*
X0035828Y0357670D02*
X0044172Y0357670D01*
X0044057Y0356071D02*
X0035943Y0356071D01*
X0035943Y0354472D02*
X0044057Y0354472D01*
X0044455Y0352874D02*
X0035545Y0352874D01*
X0035024Y0351275D02*
X0044976Y0351275D01*
X0045899Y0349677D02*
X0034101Y0349677D01*
X0032755Y0348078D02*
X0047245Y0348078D01*
X0049256Y0346480D02*
X0030744Y0346480D01*
X0019256Y0346480D02*
X0008400Y0346480D01*
X0008400Y0348078D02*
X0017245Y0348078D01*
X0015899Y0349677D02*
X0008400Y0349677D01*
X0008400Y0351275D02*
X0014976Y0351275D01*
X0014455Y0352874D02*
X0008400Y0352874D01*
X0008400Y0354472D02*
X0014057Y0354472D01*
X0014057Y0356071D02*
X0008400Y0356071D01*
X0008400Y0357670D02*
X0014172Y0357670D01*
X0014600Y0359268D02*
X0008400Y0359268D01*
X0008400Y0360867D02*
X0015289Y0360867D01*
X0016212Y0362465D02*
X0008400Y0362465D01*
X0008400Y0364064D02*
X0017787Y0364064D01*
X0020195Y0365662D02*
X0008400Y0365662D01*
X0008400Y0367261D02*
X0073645Y0367261D01*
X0071826Y0368859D02*
X0008400Y0368859D01*
X0008400Y0370458D02*
X0070007Y0370458D01*
X0068188Y0372056D02*
X0008400Y0372056D01*
X0008400Y0373655D02*
X0066369Y0373655D01*
X0064550Y0375253D02*
X0008400Y0375253D01*
X0008400Y0376852D02*
X0030099Y0376852D01*
X0027925Y0378450D02*
X0008400Y0378450D01*
X0008400Y0380049D02*
X0026326Y0380049D01*
X0024728Y0381647D02*
X0008400Y0381647D01*
X0008400Y0383246D02*
X0023129Y0383246D01*
X0021531Y0384844D02*
X0008400Y0384844D01*
X0008400Y0386443D02*
X0019321Y0386443D01*
X0017283Y0388041D02*
X0008400Y0388041D01*
X0008400Y0389640D02*
X0015920Y0389640D01*
X0014997Y0391238D02*
X0008400Y0391238D01*
X0008400Y0392837D02*
X0014465Y0392837D01*
X0014057Y0394435D02*
X0008400Y0394435D01*
X0008400Y0396034D02*
X0014057Y0396034D01*
X0014162Y0397632D02*
X0008400Y0397632D01*
X0008400Y0399231D02*
X0014590Y0399231D01*
X0015267Y0400829D02*
X0008400Y0400829D01*
X0008400Y0402428D02*
X0016190Y0402428D01*
X0017750Y0404026D02*
X0008400Y0404026D01*
X0008400Y0405625D02*
X0020131Y0405625D01*
X0029869Y0405625D02*
X0050131Y0405625D01*
X0047750Y0404026D02*
X0032250Y0404026D01*
X0033810Y0402428D02*
X0046190Y0402428D01*
X0045267Y0400829D02*
X0034733Y0400829D01*
X0035994Y0399231D02*
X0044590Y0399231D01*
X0044162Y0397632D02*
X0037593Y0397632D01*
X0039191Y0396034D02*
X0044057Y0396034D01*
X0050776Y0415602D02*
X0048281Y0417043D01*
X0046243Y0419081D01*
X0044802Y0421576D01*
X0044057Y0424359D01*
X0044057Y0427241D01*
X0044802Y0430024D01*
X0046243Y0432519D01*
X0048281Y0434557D01*
X0050776Y0435998D01*
X0053559Y0436743D01*
X0056441Y0436743D01*
X0059224Y0435998D01*
X0061719Y0434557D01*
X0063757Y0432519D01*
X0065198Y0430024D01*
X0065943Y0427241D01*
X0065943Y0424359D01*
X0065198Y0421576D01*
X0063757Y0419081D01*
X0061719Y0417043D01*
X0059224Y0415602D01*
X0056441Y0414857D01*
X0053559Y0414857D01*
X0050776Y0415602D01*
X0052219Y0415216D02*
X0027781Y0415216D01*
X0031323Y0416814D02*
X0048677Y0416814D01*
X0046911Y0418413D02*
X0033089Y0418413D01*
X0034294Y0420011D02*
X0045706Y0420011D01*
X0044793Y0421610D02*
X0035207Y0421610D01*
X0035635Y0423208D02*
X0044365Y0423208D01*
X0044057Y0424807D02*
X0035943Y0424807D01*
X0035943Y0426405D02*
X0044057Y0426405D01*
X0044261Y0428004D02*
X0035739Y0428004D01*
X0035310Y0429603D02*
X0044690Y0429603D01*
X0045482Y0431201D02*
X0034518Y0431201D01*
X0033477Y0432800D02*
X0046523Y0432800D01*
X0048122Y0434398D02*
X0031878Y0434398D01*
X0029226Y0435997D02*
X0050774Y0435997D01*
X0059226Y0435997D02*
X0158000Y0435997D01*
X0158000Y0434398D02*
X0061878Y0434398D01*
X0063477Y0432800D02*
X0158000Y0432800D01*
X0158000Y0431201D02*
X0064518Y0431201D01*
X0065310Y0429603D02*
X0158000Y0429603D01*
X0158000Y0428004D02*
X0065739Y0428004D01*
X0065943Y0426405D02*
X0158000Y0426405D01*
X0158000Y0424807D02*
X0065943Y0424807D01*
X0065635Y0423208D02*
X0158000Y0423208D01*
X0158000Y0421610D02*
X0065207Y0421610D01*
X0064294Y0420011D02*
X0158000Y0420011D01*
X0158000Y0418413D02*
X0063089Y0418413D01*
X0061323Y0416814D02*
X0158000Y0416814D01*
X0158000Y0415216D02*
X0057781Y0415216D01*
X0093634Y0376852D02*
X0113452Y0376852D01*
X0109904Y0375253D02*
X0095453Y0375253D01*
X0097272Y0373655D02*
X0108191Y0373655D01*
X0107062Y0372056D02*
X0099091Y0372056D01*
X0100910Y0370458D02*
X0106246Y0370458D01*
X0105817Y0368859D02*
X0102729Y0368859D01*
X0104548Y0367261D02*
X0105631Y0367261D01*
X0090800Y0335290D02*
X0008400Y0335290D01*
X0008400Y0333692D02*
X0090800Y0333692D01*
X0090800Y0332093D02*
X0008400Y0332093D01*
X0008400Y0330495D02*
X0090800Y0330495D01*
X0090800Y0328896D02*
X0008400Y0328896D01*
X0008400Y0327298D02*
X0090800Y0327298D01*
X0090800Y0325699D02*
X0008400Y0325699D01*
X0008400Y0324101D02*
X0090800Y0324101D01*
X0090800Y0322502D02*
X0008400Y0322502D01*
X0008400Y0320904D02*
X0090800Y0320904D01*
X0090800Y0319305D02*
X0008400Y0319305D01*
X0008400Y0317707D02*
X0090800Y0317707D01*
X0091161Y0316108D02*
X0008400Y0316108D01*
X0008400Y0314510D02*
X0091699Y0314510D01*
X0092622Y0312911D02*
X0008400Y0312911D01*
X0008400Y0311313D02*
X0094060Y0311313D01*
X0108943Y0439194D02*
X0008400Y0439194D01*
X0008400Y0440792D02*
X0107496Y0440792D01*
X0106573Y0442391D02*
X0008400Y0442391D01*
X0008400Y0443989D02*
X0106019Y0443989D01*
X0105631Y0445588D02*
X0008400Y0445588D01*
X0008400Y0447186D02*
X0105631Y0447186D01*
X0105798Y0448785D02*
X0008400Y0448785D01*
X0008400Y0450383D02*
X0106226Y0450383D01*
X0107019Y0451982D02*
X0008400Y0451982D01*
X0008400Y0453580D02*
X0108117Y0453580D01*
X0109775Y0455179D02*
X0008400Y0455179D01*
X0008400Y0456777D02*
X0113175Y0456777D01*
X0411000Y0773282D02*
X0458197Y0773282D01*
X0455553Y0774881D02*
X0411000Y0774881D01*
X0411000Y0776479D02*
X0453954Y0776479D01*
X0452991Y0778078D02*
X0411000Y0778078D01*
X0411000Y0779677D02*
X0452300Y0779677D01*
X0451872Y0781275D02*
X0411000Y0781275D01*
X0411000Y0782874D02*
X0451800Y0782874D01*
X0451858Y0784472D02*
X0411000Y0784472D01*
X0411000Y0786071D02*
X0452286Y0786071D01*
X0452960Y0787669D02*
X0411000Y0787669D01*
X0411000Y0789268D02*
X0453901Y0789268D01*
X0455500Y0790866D02*
X0411000Y0790866D01*
X0411000Y0792465D02*
X0458066Y0792465D01*
X0456286Y0794063D02*
X0411000Y0794063D01*
X0411000Y0795662D02*
X0454472Y0795662D01*
X0453290Y0797260D02*
X0411000Y0797260D01*
X0411000Y0798859D02*
X0452439Y0798859D01*
X0452011Y0800457D02*
X0411000Y0800457D01*
X0411000Y0802056D02*
X0451800Y0802056D01*
X0451800Y0803654D02*
X0411000Y0803654D01*
X0411000Y0805253D02*
X0452147Y0805253D01*
X0452661Y0806851D02*
X0411000Y0806851D01*
X0411000Y0808450D02*
X0453584Y0808450D01*
X0454982Y0810048D02*
X0411000Y0810048D01*
X0411000Y0811647D02*
X0457169Y0811647D01*
X0461637Y0824435D02*
X0411000Y0824435D01*
X0411000Y0826033D02*
X0460039Y0826033D01*
X0458440Y0827632D02*
X0411000Y0827632D01*
X0411000Y0829230D02*
X0457000Y0829230D01*
X0457000Y0830829D02*
X0411000Y0830829D01*
X0411000Y0832427D02*
X0456145Y0832427D01*
X0454546Y0834026D02*
X0411000Y0834026D01*
X0411000Y0835624D02*
X0452948Y0835624D01*
X0452000Y0837223D02*
X0411000Y0837223D01*
X0411000Y0838821D02*
X0452000Y0838821D01*
X0452000Y0840420D02*
X0411000Y0840420D01*
X0411000Y0842018D02*
X0452000Y0842018D01*
X0452000Y0843617D02*
X0411000Y0843617D01*
X0411000Y0845215D02*
X0453188Y0845215D01*
X0454786Y0846814D02*
X0411000Y0846814D01*
X0411000Y0848412D02*
X0456385Y0848412D01*
X0456061Y0850011D02*
X0415939Y0850011D01*
X0417537Y0851610D02*
X0454463Y0851610D01*
X0452864Y0853208D02*
X0419136Y0853208D01*
X0420000Y0854807D02*
X0452000Y0854807D01*
X0452000Y0856405D02*
X0420000Y0856405D01*
X0420000Y0858004D02*
X0452000Y0858004D01*
X0452000Y0859602D02*
X0420000Y0859602D01*
X0420000Y0861201D02*
X0452000Y0861201D01*
X0465939Y0850011D02*
X0594521Y0850011D01*
X0594521Y0851610D02*
X0467537Y0851610D01*
X0469136Y0853208D02*
X0594521Y0853208D01*
X0594521Y0854807D02*
X0470000Y0854807D01*
X0470000Y0856405D02*
X0594521Y0856405D01*
X0594521Y0858004D02*
X0470000Y0858004D01*
X0470000Y0859602D02*
X0594521Y0859602D01*
X0594521Y0861201D02*
X0470000Y0861201D01*
X0465615Y0848412D02*
X0594521Y0848412D01*
X0594521Y0846814D02*
X0589541Y0846814D01*
X0591851Y0845215D02*
X0594521Y0845215D01*
X0594521Y0843617D02*
X0593320Y0843617D01*
X0594242Y0842018D02*
X0594521Y0842018D01*
X0594521Y0813245D02*
X0594106Y0813245D01*
X0594521Y0811647D02*
X0593183Y0811647D01*
X0594521Y0810048D02*
X0591615Y0810048D01*
X0589132Y0808450D02*
X0594521Y0808450D01*
X0594521Y0806851D02*
X0479339Y0806851D01*
X0479853Y0805253D02*
X0594521Y0805253D01*
X0594521Y0803654D02*
X0480200Y0803654D01*
X0480200Y0802056D02*
X0594521Y0802056D01*
X0594521Y0800457D02*
X0479989Y0800457D01*
X0479561Y0798859D02*
X0594521Y0798859D01*
X0594521Y0797260D02*
X0478710Y0797260D01*
X0477528Y0795662D02*
X0594521Y0795662D01*
X0572868Y0808450D02*
X0478416Y0808450D01*
X0477018Y0810048D02*
X0570385Y0810048D01*
X0568817Y0811647D02*
X0474831Y0811647D01*
X0470363Y0824435D02*
X0569068Y0824435D01*
X0568057Y0822836D02*
X0411000Y0822836D01*
X0411000Y0821238D02*
X0567331Y0821238D01*
X0566903Y0819639D02*
X0411000Y0819639D01*
X0411000Y0818041D02*
X0566800Y0818041D01*
X0566827Y0816442D02*
X0411000Y0816442D01*
X0411000Y0814844D02*
X0567256Y0814844D01*
X0567894Y0813245D02*
X0411000Y0813245D01*
X0467214Y0846814D02*
X0572459Y0846814D01*
X0570149Y0845215D02*
X0468812Y0845215D01*
X0470000Y0843617D02*
X0568680Y0843617D01*
X0567758Y0842018D02*
X0470000Y0842018D01*
X0471108Y0840420D02*
X0567192Y0840420D01*
X0566800Y0838821D02*
X0472706Y0838821D01*
X0474305Y0837223D02*
X0566800Y0837223D01*
X0566966Y0835624D02*
X0475000Y0835624D01*
X0475000Y0834026D02*
X0567394Y0834026D01*
X0568193Y0832427D02*
X0475000Y0832427D01*
X0475000Y0830829D02*
X0569305Y0830829D01*
X0570997Y0829230D02*
X0475000Y0829230D01*
X0473560Y0827632D02*
X0573624Y0827632D01*
X0570667Y0826033D02*
X0471961Y0826033D01*
X0518627Y0792465D02*
X0533373Y0792465D01*
X0530600Y0790866D02*
X0521400Y0790866D01*
X0522999Y0789268D02*
X0529001Y0789268D01*
X0528018Y0787669D02*
X0523982Y0787669D01*
X0524687Y0786071D02*
X0527313Y0786071D01*
X0526885Y0784472D02*
X0525115Y0784472D01*
X0525200Y0782874D02*
X0526800Y0782874D01*
X0526845Y0781275D02*
X0525155Y0781275D01*
X0524726Y0779677D02*
X0527274Y0779677D01*
X0527933Y0778078D02*
X0524067Y0778078D01*
X0523144Y0776479D02*
X0528856Y0776479D01*
X0530453Y0774881D02*
X0521547Y0774881D01*
X0519015Y0773282D02*
X0532985Y0773282D01*
X0531887Y0771684D02*
X0520113Y0771684D01*
X0522181Y0770085D02*
X0529819Y0770085D01*
X0528490Y0768487D02*
X0523510Y0768487D01*
X0524433Y0766888D02*
X0527567Y0766888D01*
X0527104Y0765290D02*
X0524896Y0765290D01*
X0525200Y0763691D02*
X0526800Y0763691D01*
X0526800Y0762093D02*
X0525200Y0762093D01*
X0524946Y0760494D02*
X0527054Y0760494D01*
X0527483Y0758896D02*
X0524517Y0758896D01*
X0523616Y0757297D02*
X0528384Y0757297D01*
X0529635Y0755699D02*
X0522365Y0755699D01*
X0520432Y0754100D02*
X0531568Y0754100D01*
X0533512Y0752502D02*
X0518488Y0752502D01*
X0521363Y0750903D02*
X0530637Y0750903D01*
X0529038Y0749305D02*
X0522962Y0749305D01*
X0523961Y0747706D02*
X0528039Y0747706D01*
X0527323Y0746108D02*
X0524677Y0746108D01*
X0525105Y0744509D02*
X0526895Y0744509D01*
X0526800Y0742911D02*
X0525200Y0742911D01*
X0525165Y0741312D02*
X0526835Y0741312D01*
X0527264Y0739714D02*
X0524736Y0739714D01*
X0524089Y0738115D02*
X0527911Y0738115D01*
X0528834Y0736517D02*
X0523166Y0736517D01*
X0521585Y0734918D02*
X0530415Y0734918D01*
X0532920Y0733320D02*
X0519080Y0733320D01*
X0549984Y0691758D02*
X0594521Y0691758D01*
X0594521Y0690160D02*
X0552107Y0690160D01*
X0553467Y0688561D02*
X0594521Y0688561D01*
X0594521Y0686963D02*
X0554390Y0686963D01*
X0554876Y0685364D02*
X0594521Y0685364D01*
X0594521Y0683766D02*
X0555200Y0683766D01*
X0555200Y0682167D02*
X0594521Y0682167D01*
X0594521Y0680569D02*
X0554965Y0680569D01*
X0554537Y0678970D02*
X0594521Y0678970D01*
X0594521Y0677372D02*
X0553659Y0677372D01*
X0552440Y0675773D02*
X0594521Y0675773D01*
X0594521Y0674175D02*
X0550561Y0674175D01*
X0546541Y0672576D02*
X0574163Y0672576D01*
X0587837Y0672576D02*
X0594521Y0672576D01*
X0594521Y0670978D02*
X0591163Y0670978D01*
X0592787Y0669379D02*
X0594521Y0669379D01*
X0594521Y0667781D02*
X0593860Y0667781D01*
X0536599Y0651796D02*
X0505401Y0651796D01*
X0508931Y0650197D02*
X0533069Y0650197D01*
X0531471Y0648599D02*
X0510529Y0648599D01*
X0511602Y0647000D02*
X0530398Y0647000D01*
X0529736Y0645402D02*
X0512264Y0645402D01*
X0512600Y0643803D02*
X0529400Y0643803D01*
X0529400Y0642205D02*
X0512600Y0642205D01*
X0512433Y0640606D02*
X0529567Y0640606D01*
X0530229Y0639008D02*
X0511771Y0639008D01*
X0510937Y0637409D02*
X0531063Y0637409D01*
X0532662Y0635810D02*
X0509338Y0635810D01*
X0506385Y0634212D02*
X0535615Y0634212D01*
D30*
X0442000Y0511800D02*
X0442000Y0468800D01*
X0428700Y0454500D01*
X0388100Y0454500D01*
X0360300Y0454500D01*
X0337000Y0477800D01*
X0337000Y0503800D01*
X0260000Y0503800D01*
X0247000Y0503800D01*
X0230000Y0486800D01*
X0230000Y0438800D01*
X0231000Y0437800D01*
X0176000Y0382800D01*
X0176000Y0366800D01*
X0136000Y0284800D02*
X0126000Y0284800D01*
X0111000Y0269800D01*
X0231000Y0160800D02*
X0175000Y0104800D01*
X0175000Y0092800D01*
X0231000Y0160800D02*
X0231000Y0183800D01*
X0272000Y0225800D01*
X0335000Y0225800D01*
X0333000Y0225800D02*
X0333000Y0200800D01*
X0356300Y0177500D01*
X0389100Y0177500D01*
X0417700Y0177500D01*
X0443000Y0202800D01*
X0443000Y0227800D01*
X0418900Y0143900D02*
X0358100Y0143900D01*
X0334000Y0119800D01*
X0334000Y0092800D01*
X0418900Y0143900D02*
X0457000Y0105800D01*
X0457000Y0087800D01*
X0444000Y0368800D02*
X0444000Y0406800D01*
X0430000Y0420800D01*
X0391000Y0420800D01*
X0390000Y0421800D01*
X0387900Y0420900D02*
X0356100Y0420900D01*
X0336000Y0400800D01*
X0336000Y0366800D01*
X0387800Y0420800D02*
X0387900Y0420900D01*
D31*
X0430700Y0297600D02*
X0294800Y0297600D01*
X0228000Y0230800D01*
X0142000Y0230800D01*
X0141000Y0231800D01*
X0514000Y0247800D02*
X0533000Y0247800D01*
X0553000Y0227800D01*
X0553000Y0161800D01*
X0551950Y0160750D01*
X0515050Y0160750D01*
X0553000Y0161800D02*
X0553000Y0090800D01*
X0530000Y0067800D01*
X0515000Y0067800D01*
X0515000Y0348800D02*
X0532000Y0348800D01*
X0553000Y0369800D01*
X0553000Y0439800D01*
X0550950Y0437750D01*
X0514050Y0437750D01*
X0553000Y0439800D02*
X0553000Y0507800D01*
X0529000Y0531800D01*
X0513000Y0531800D01*
D32*
X0521000Y0702800D03*
X0446000Y0702800D03*
X0281000Y0727800D03*
X0281000Y0812800D03*
X0101000Y0318800D03*
D33*
X0101000Y0356800D01*
X0068000Y0385800D01*
X0035000Y0385800D01*
X0025000Y0395800D01*
X0266000Y0627800D02*
X0266000Y0827800D01*
X0281000Y0812800D02*
X0281000Y0727800D01*
X0446000Y0702800D02*
X0521000Y0702800D01*
X0387700Y0437800D02*
X0337000Y0437800D01*
X0333000Y0160800D02*
X0388700Y0160800D01*
D34*
X0389000Y0194400D02*
X0389000Y0217800D01*
X0361000Y0245800D01*
X0333000Y0245800D01*
X0336000Y0346800D02*
X0357000Y0346800D01*
X0388000Y0377800D01*
X0388000Y0403900D01*
X0388100Y0404000D01*
X0388000Y0471400D02*
X0388000Y0490800D01*
X0355000Y0523800D01*
X0337000Y0523800D01*
X0513000Y0511800D02*
X0513000Y0473800D01*
X0515000Y0403800D02*
X0515000Y0368800D01*
X0514000Y0227800D02*
X0514000Y0201800D01*
X0515000Y0123800D02*
X0515000Y0087800D01*
X0389000Y0095800D02*
X0389000Y0126900D01*
X0389100Y0127000D01*
X0389000Y0095800D02*
X0366000Y0072800D01*
X0334000Y0072800D01*
M02*
