G75*
%MOIN*%
%OFA0B0*%
%FSLAX25Y25*%
%IPPOS*%
%LPD*%
%AMOC8*
5,1,8,0,0,1.08239X$1,22.5*
%
%ADD10C,0.00500*%
%ADD11C,0.00600*%
%ADD12C,0.01600*%
%ADD13C,0.02400*%
%ADD14R,0.02400X0.03400*%
%ADD15C,0.00800*%
%ADD16R,0.03500X0.07500*%
%ADD17R,0.03000X0.05500*%
%ADD18R,0.02000X0.10000*%
%ADD19R,0.07500X0.03000*%
%ADD20R,0.10000X0.02500*%
%ADD21R,0.02500X0.10000*%
%ADD22C,0.01200*%
%ADD23C,0.00000*%
D10*
X0075800Y0017800D02*
X0075800Y0187800D01*
X0355800Y0187800D01*
X0355800Y0017800D01*
X0075800Y0017800D01*
X0075800Y0218800D02*
X0075800Y0388800D01*
X0355800Y0388800D01*
X0355800Y0218800D01*
X0075800Y0218800D01*
X0139800Y0434800D02*
X0139800Y0534800D01*
X0319721Y0534800D01*
X0319721Y0434800D01*
X0139800Y0434800D01*
X0369546Y0217198D02*
X0370297Y0217949D01*
X0371047Y0217949D01*
X0371798Y0217198D01*
X0372549Y0217949D01*
X0373299Y0217949D01*
X0374050Y0217198D01*
X0374050Y0215697D01*
X0373299Y0214946D01*
X0371798Y0216447D02*
X0371798Y0217198D01*
X0369546Y0217198D02*
X0369546Y0215697D01*
X0370297Y0214946D01*
X0380297Y0198449D02*
X0379546Y0197698D01*
X0379546Y0196197D01*
X0380297Y0195446D01*
X0380297Y0198449D02*
X0381047Y0198449D01*
X0384050Y0195446D01*
X0384050Y0198449D01*
X0384050Y0172845D02*
X0384050Y0169842D01*
X0384050Y0171343D02*
X0379546Y0171343D01*
X0381047Y0169842D01*
X0381047Y0156345D02*
X0381798Y0155594D01*
X0382549Y0156345D01*
X0383299Y0156345D01*
X0384050Y0155594D01*
X0384050Y0154093D01*
X0383299Y0153342D01*
X0381798Y0154843D02*
X0381798Y0155594D01*
X0381047Y0156345D02*
X0380297Y0156345D01*
X0379546Y0155594D01*
X0379546Y0154093D01*
X0380297Y0153342D01*
X0374050Y0152949D02*
X0374050Y0149946D01*
X0374050Y0151447D02*
X0369546Y0151447D01*
X0371047Y0149946D01*
X0395047Y0320946D02*
X0393546Y0322447D01*
X0398050Y0322447D01*
X0398050Y0320946D02*
X0398050Y0323949D01*
X0403546Y0325093D02*
X0403546Y0326594D01*
X0404297Y0327345D01*
X0405047Y0327345D01*
X0405798Y0326594D01*
X0406549Y0327345D01*
X0407299Y0327345D01*
X0408050Y0326594D01*
X0408050Y0325093D01*
X0407299Y0324342D01*
X0405798Y0325843D02*
X0405798Y0326594D01*
X0404297Y0324342D02*
X0403546Y0325093D01*
X0405047Y0340842D02*
X0403546Y0342343D01*
X0408050Y0342343D01*
X0408050Y0340842D02*
X0408050Y0343845D01*
X0408050Y0366446D02*
X0405047Y0369449D01*
X0404297Y0369449D01*
X0403546Y0368698D01*
X0403546Y0367197D01*
X0404297Y0366446D01*
X0408050Y0366446D02*
X0408050Y0369449D01*
X0397299Y0385946D02*
X0398050Y0386697D01*
X0398050Y0388198D01*
X0397299Y0388949D01*
X0396549Y0388949D01*
X0395798Y0388198D01*
X0395798Y0387447D01*
X0395798Y0388198D02*
X0395047Y0388949D01*
X0394297Y0388949D01*
X0393546Y0388198D01*
X0393546Y0386697D01*
X0394297Y0385946D01*
D11*
X0391300Y0392800D02*
X0411300Y0392800D01*
X0411300Y0315300D01*
X0391300Y0315300D01*
X0391300Y0392800D01*
X0387300Y0428800D02*
X0414300Y0428800D01*
X0414360Y0428802D01*
X0414421Y0428807D01*
X0414480Y0428816D01*
X0414539Y0428829D01*
X0414598Y0428845D01*
X0414655Y0428865D01*
X0414710Y0428888D01*
X0414765Y0428915D01*
X0414817Y0428944D01*
X0414868Y0428977D01*
X0414917Y0429013D01*
X0414963Y0429051D01*
X0415007Y0429093D01*
X0415049Y0429137D01*
X0415087Y0429183D01*
X0415123Y0429232D01*
X0415156Y0429283D01*
X0415185Y0429335D01*
X0415212Y0429390D01*
X0415235Y0429445D01*
X0415255Y0429502D01*
X0415271Y0429561D01*
X0415284Y0429620D01*
X0415293Y0429679D01*
X0415298Y0429740D01*
X0415300Y0429800D01*
X0415300Y0447800D01*
X0415298Y0447860D01*
X0415293Y0447921D01*
X0415284Y0447980D01*
X0415271Y0448039D01*
X0415255Y0448098D01*
X0415235Y0448155D01*
X0415212Y0448210D01*
X0415185Y0448265D01*
X0415156Y0448317D01*
X0415123Y0448368D01*
X0415087Y0448417D01*
X0415049Y0448463D01*
X0415007Y0448507D01*
X0414963Y0448549D01*
X0414917Y0448587D01*
X0414868Y0448623D01*
X0414817Y0448656D01*
X0414765Y0448685D01*
X0414710Y0448712D01*
X0414655Y0448735D01*
X0414598Y0448755D01*
X0414539Y0448771D01*
X0414480Y0448784D01*
X0414421Y0448793D01*
X0414360Y0448798D01*
X0414300Y0448800D01*
X0387300Y0448800D01*
X0387240Y0448798D01*
X0387179Y0448793D01*
X0387120Y0448784D01*
X0387061Y0448771D01*
X0387002Y0448755D01*
X0386945Y0448735D01*
X0386890Y0448712D01*
X0386835Y0448685D01*
X0386783Y0448656D01*
X0386732Y0448623D01*
X0386683Y0448587D01*
X0386637Y0448549D01*
X0386593Y0448507D01*
X0386551Y0448463D01*
X0386513Y0448417D01*
X0386477Y0448368D01*
X0386444Y0448317D01*
X0386415Y0448265D01*
X0386388Y0448210D01*
X0386365Y0448155D01*
X0386345Y0448098D01*
X0386329Y0448039D01*
X0386316Y0447980D01*
X0386307Y0447921D01*
X0386302Y0447860D01*
X0386300Y0447800D01*
X0386300Y0429800D01*
X0386302Y0429740D01*
X0386307Y0429679D01*
X0386316Y0429620D01*
X0386329Y0429561D01*
X0386345Y0429502D01*
X0386365Y0429445D01*
X0386388Y0429390D01*
X0386415Y0429335D01*
X0386444Y0429283D01*
X0386477Y0429232D01*
X0386513Y0429183D01*
X0386551Y0429137D01*
X0386593Y0429093D01*
X0386637Y0429051D01*
X0386683Y0429013D01*
X0386732Y0428977D01*
X0386783Y0428944D01*
X0386835Y0428915D01*
X0386890Y0428888D01*
X0386945Y0428865D01*
X0387002Y0428845D01*
X0387061Y0428829D01*
X0387120Y0428816D01*
X0387179Y0428807D01*
X0387240Y0428802D01*
X0387300Y0428800D01*
X0394800Y0438800D02*
X0399600Y0438800D01*
X0402100Y0438800D02*
X0406800Y0438800D01*
X0448800Y0368800D02*
X0524800Y0368800D01*
X0524887Y0368798D01*
X0524974Y0368792D01*
X0525061Y0368783D01*
X0525147Y0368770D01*
X0525233Y0368753D01*
X0525318Y0368732D01*
X0525401Y0368707D01*
X0525484Y0368679D01*
X0525565Y0368648D01*
X0525645Y0368613D01*
X0525723Y0368574D01*
X0525800Y0368532D01*
X0525875Y0368487D01*
X0525947Y0368438D01*
X0526018Y0368387D01*
X0526086Y0368332D01*
X0526151Y0368275D01*
X0526214Y0368214D01*
X0526275Y0368151D01*
X0526332Y0368086D01*
X0526387Y0368018D01*
X0526438Y0367947D01*
X0526487Y0367875D01*
X0526532Y0367800D01*
X0526574Y0367723D01*
X0526613Y0367645D01*
X0526648Y0367565D01*
X0526679Y0367484D01*
X0526707Y0367401D01*
X0526732Y0367318D01*
X0526753Y0367233D01*
X0526770Y0367147D01*
X0526783Y0367061D01*
X0526792Y0366974D01*
X0526798Y0366887D01*
X0526800Y0366800D01*
X0526800Y0246800D01*
X0526798Y0246713D01*
X0526792Y0246626D01*
X0526783Y0246539D01*
X0526770Y0246453D01*
X0526753Y0246367D01*
X0526732Y0246282D01*
X0526707Y0246199D01*
X0526679Y0246116D01*
X0526648Y0246035D01*
X0526613Y0245955D01*
X0526574Y0245877D01*
X0526532Y0245800D01*
X0526487Y0245725D01*
X0526438Y0245653D01*
X0526387Y0245582D01*
X0526332Y0245514D01*
X0526275Y0245449D01*
X0526214Y0245386D01*
X0526151Y0245325D01*
X0526086Y0245268D01*
X0526018Y0245213D01*
X0525947Y0245162D01*
X0525875Y0245113D01*
X0525800Y0245068D01*
X0525723Y0245026D01*
X0525645Y0244987D01*
X0525565Y0244952D01*
X0525484Y0244921D01*
X0525401Y0244893D01*
X0525318Y0244868D01*
X0525233Y0244847D01*
X0525147Y0244830D01*
X0525061Y0244817D01*
X0524974Y0244808D01*
X0524887Y0244802D01*
X0524800Y0244800D01*
X0448800Y0244800D01*
X0448713Y0244802D01*
X0448626Y0244808D01*
X0448539Y0244817D01*
X0448453Y0244830D01*
X0448367Y0244847D01*
X0448282Y0244868D01*
X0448199Y0244893D01*
X0448116Y0244921D01*
X0448035Y0244952D01*
X0447955Y0244987D01*
X0447877Y0245026D01*
X0447800Y0245068D01*
X0447725Y0245113D01*
X0447653Y0245162D01*
X0447582Y0245213D01*
X0447514Y0245268D01*
X0447449Y0245325D01*
X0447386Y0245386D01*
X0447325Y0245449D01*
X0447268Y0245514D01*
X0447213Y0245582D01*
X0447162Y0245653D01*
X0447113Y0245725D01*
X0447068Y0245800D01*
X0447026Y0245877D01*
X0446987Y0245955D01*
X0446952Y0246035D01*
X0446921Y0246116D01*
X0446893Y0246199D01*
X0446868Y0246282D01*
X0446847Y0246367D01*
X0446830Y0246453D01*
X0446817Y0246539D01*
X0446808Y0246626D01*
X0446802Y0246713D01*
X0446800Y0246800D01*
X0446800Y0366800D01*
X0446802Y0366887D01*
X0446808Y0366974D01*
X0446817Y0367061D01*
X0446830Y0367147D01*
X0446847Y0367233D01*
X0446868Y0367318D01*
X0446893Y0367401D01*
X0446921Y0367484D01*
X0446952Y0367565D01*
X0446987Y0367645D01*
X0447026Y0367723D01*
X0447068Y0367800D01*
X0447113Y0367875D01*
X0447162Y0367947D01*
X0447213Y0368018D01*
X0447268Y0368086D01*
X0447325Y0368151D01*
X0447386Y0368214D01*
X0447449Y0368275D01*
X0447514Y0368332D01*
X0447582Y0368387D01*
X0447653Y0368438D01*
X0447725Y0368487D01*
X0447800Y0368532D01*
X0447877Y0368574D01*
X0447955Y0368613D01*
X0448035Y0368648D01*
X0448116Y0368679D01*
X0448199Y0368707D01*
X0448282Y0368732D01*
X0448367Y0368753D01*
X0448453Y0368770D01*
X0448539Y0368783D01*
X0448626Y0368792D01*
X0448713Y0368798D01*
X0448800Y0368800D01*
X0486800Y0352300D02*
X0486800Y0280300D01*
X0486800Y0276800D02*
X0486800Y0261300D01*
X0480800Y0227800D02*
X0464800Y0227800D01*
X0464800Y0217800D01*
X0480800Y0217800D01*
X0480800Y0227800D01*
X0475300Y0222800D02*
X0472800Y0222800D01*
X0472800Y0225300D01*
X0472800Y0222800D02*
X0472800Y0220300D01*
X0472800Y0222800D02*
X0468800Y0220300D01*
X0468800Y0225300D01*
X0472800Y0222800D01*
X0466800Y0222800D01*
X0448800Y0196800D02*
X0524800Y0196800D01*
X0524887Y0196798D01*
X0524974Y0196792D01*
X0525061Y0196783D01*
X0525147Y0196770D01*
X0525233Y0196753D01*
X0525318Y0196732D01*
X0525401Y0196707D01*
X0525484Y0196679D01*
X0525565Y0196648D01*
X0525645Y0196613D01*
X0525723Y0196574D01*
X0525800Y0196532D01*
X0525875Y0196487D01*
X0525947Y0196438D01*
X0526018Y0196387D01*
X0526086Y0196332D01*
X0526151Y0196275D01*
X0526214Y0196214D01*
X0526275Y0196151D01*
X0526332Y0196086D01*
X0526387Y0196018D01*
X0526438Y0195947D01*
X0526487Y0195875D01*
X0526532Y0195800D01*
X0526574Y0195723D01*
X0526613Y0195645D01*
X0526648Y0195565D01*
X0526679Y0195484D01*
X0526707Y0195401D01*
X0526732Y0195318D01*
X0526753Y0195233D01*
X0526770Y0195147D01*
X0526783Y0195061D01*
X0526792Y0194974D01*
X0526798Y0194887D01*
X0526800Y0194800D01*
X0526800Y0074800D01*
X0526798Y0074713D01*
X0526792Y0074626D01*
X0526783Y0074539D01*
X0526770Y0074453D01*
X0526753Y0074367D01*
X0526732Y0074282D01*
X0526707Y0074199D01*
X0526679Y0074116D01*
X0526648Y0074035D01*
X0526613Y0073955D01*
X0526574Y0073877D01*
X0526532Y0073800D01*
X0526487Y0073725D01*
X0526438Y0073653D01*
X0526387Y0073582D01*
X0526332Y0073514D01*
X0526275Y0073449D01*
X0526214Y0073386D01*
X0526151Y0073325D01*
X0526086Y0073268D01*
X0526018Y0073213D01*
X0525947Y0073162D01*
X0525875Y0073113D01*
X0525800Y0073068D01*
X0525723Y0073026D01*
X0525645Y0072987D01*
X0525565Y0072952D01*
X0525484Y0072921D01*
X0525401Y0072893D01*
X0525318Y0072868D01*
X0525233Y0072847D01*
X0525147Y0072830D01*
X0525061Y0072817D01*
X0524974Y0072808D01*
X0524887Y0072802D01*
X0524800Y0072800D01*
X0448800Y0072800D01*
X0448713Y0072802D01*
X0448626Y0072808D01*
X0448539Y0072817D01*
X0448453Y0072830D01*
X0448367Y0072847D01*
X0448282Y0072868D01*
X0448199Y0072893D01*
X0448116Y0072921D01*
X0448035Y0072952D01*
X0447955Y0072987D01*
X0447877Y0073026D01*
X0447800Y0073068D01*
X0447725Y0073113D01*
X0447653Y0073162D01*
X0447582Y0073213D01*
X0447514Y0073268D01*
X0447449Y0073325D01*
X0447386Y0073386D01*
X0447325Y0073449D01*
X0447268Y0073514D01*
X0447213Y0073582D01*
X0447162Y0073653D01*
X0447113Y0073725D01*
X0447068Y0073800D01*
X0447026Y0073877D01*
X0446987Y0073955D01*
X0446952Y0074035D01*
X0446921Y0074116D01*
X0446893Y0074199D01*
X0446868Y0074282D01*
X0446847Y0074367D01*
X0446830Y0074453D01*
X0446817Y0074539D01*
X0446808Y0074626D01*
X0446802Y0074713D01*
X0446800Y0074800D01*
X0446800Y0194800D01*
X0446802Y0194887D01*
X0446808Y0194974D01*
X0446817Y0195061D01*
X0446830Y0195147D01*
X0446847Y0195233D01*
X0446868Y0195318D01*
X0446893Y0195401D01*
X0446921Y0195484D01*
X0446952Y0195565D01*
X0446987Y0195645D01*
X0447026Y0195723D01*
X0447068Y0195800D01*
X0447113Y0195875D01*
X0447162Y0195947D01*
X0447213Y0196018D01*
X0447268Y0196086D01*
X0447325Y0196151D01*
X0447386Y0196214D01*
X0447449Y0196275D01*
X0447514Y0196332D01*
X0447582Y0196387D01*
X0447653Y0196438D01*
X0447725Y0196487D01*
X0447800Y0196532D01*
X0447877Y0196574D01*
X0447955Y0196613D01*
X0448035Y0196648D01*
X0448116Y0196679D01*
X0448199Y0196707D01*
X0448282Y0196732D01*
X0448367Y0196753D01*
X0448453Y0196770D01*
X0448539Y0196783D01*
X0448626Y0196792D01*
X0448713Y0196798D01*
X0448800Y0196800D01*
X0439800Y0247800D02*
X0425800Y0247800D01*
X0425740Y0247802D01*
X0425679Y0247807D01*
X0425620Y0247816D01*
X0425561Y0247829D01*
X0425502Y0247845D01*
X0425445Y0247865D01*
X0425390Y0247888D01*
X0425335Y0247915D01*
X0425283Y0247944D01*
X0425232Y0247977D01*
X0425183Y0248013D01*
X0425137Y0248051D01*
X0425093Y0248093D01*
X0425051Y0248137D01*
X0425013Y0248183D01*
X0424977Y0248232D01*
X0424944Y0248283D01*
X0424915Y0248335D01*
X0424888Y0248390D01*
X0424865Y0248445D01*
X0424845Y0248502D01*
X0424829Y0248561D01*
X0424816Y0248620D01*
X0424807Y0248679D01*
X0424802Y0248740D01*
X0424800Y0248800D01*
X0424800Y0286800D01*
X0424802Y0286860D01*
X0424807Y0286921D01*
X0424816Y0286980D01*
X0424829Y0287039D01*
X0424845Y0287098D01*
X0424865Y0287155D01*
X0424888Y0287210D01*
X0424915Y0287265D01*
X0424944Y0287317D01*
X0424977Y0287368D01*
X0425013Y0287417D01*
X0425051Y0287463D01*
X0425093Y0287507D01*
X0425137Y0287549D01*
X0425183Y0287587D01*
X0425232Y0287623D01*
X0425283Y0287656D01*
X0425335Y0287685D01*
X0425390Y0287712D01*
X0425445Y0287735D01*
X0425502Y0287755D01*
X0425561Y0287771D01*
X0425620Y0287784D01*
X0425679Y0287793D01*
X0425740Y0287798D01*
X0425800Y0287800D01*
X0439800Y0287800D01*
X0439860Y0287798D01*
X0439921Y0287793D01*
X0439980Y0287784D01*
X0440039Y0287771D01*
X0440098Y0287755D01*
X0440155Y0287735D01*
X0440210Y0287712D01*
X0440265Y0287685D01*
X0440317Y0287656D01*
X0440368Y0287623D01*
X0440417Y0287587D01*
X0440463Y0287549D01*
X0440507Y0287507D01*
X0440549Y0287463D01*
X0440587Y0287417D01*
X0440623Y0287368D01*
X0440656Y0287317D01*
X0440685Y0287265D01*
X0440712Y0287210D01*
X0440735Y0287155D01*
X0440755Y0287098D01*
X0440771Y0287039D01*
X0440784Y0286980D01*
X0440793Y0286921D01*
X0440798Y0286860D01*
X0440800Y0286800D01*
X0440800Y0248800D01*
X0440798Y0248740D01*
X0440793Y0248679D01*
X0440784Y0248620D01*
X0440771Y0248561D01*
X0440755Y0248502D01*
X0440735Y0248445D01*
X0440712Y0248390D01*
X0440685Y0248335D01*
X0440656Y0248283D01*
X0440623Y0248232D01*
X0440587Y0248183D01*
X0440549Y0248137D01*
X0440507Y0248093D01*
X0440463Y0248051D01*
X0440417Y0248013D01*
X0440368Y0247977D01*
X0440317Y0247944D01*
X0440265Y0247915D01*
X0440210Y0247888D01*
X0440155Y0247865D01*
X0440098Y0247845D01*
X0440039Y0247829D01*
X0439980Y0247816D01*
X0439921Y0247807D01*
X0439860Y0247802D01*
X0439800Y0247800D01*
X0432800Y0257300D02*
X0432800Y0259300D01*
X0432800Y0262800D02*
X0432800Y0278300D01*
X0419800Y0286800D02*
X0419800Y0248800D01*
X0419798Y0248740D01*
X0419793Y0248679D01*
X0419784Y0248620D01*
X0419771Y0248561D01*
X0419755Y0248502D01*
X0419735Y0248445D01*
X0419712Y0248390D01*
X0419685Y0248335D01*
X0419656Y0248283D01*
X0419623Y0248232D01*
X0419587Y0248183D01*
X0419549Y0248137D01*
X0419507Y0248093D01*
X0419463Y0248051D01*
X0419417Y0248013D01*
X0419368Y0247977D01*
X0419317Y0247944D01*
X0419265Y0247915D01*
X0419210Y0247888D01*
X0419155Y0247865D01*
X0419098Y0247845D01*
X0419039Y0247829D01*
X0418980Y0247816D01*
X0418921Y0247807D01*
X0418860Y0247802D01*
X0418800Y0247800D01*
X0404800Y0247800D01*
X0404740Y0247802D01*
X0404679Y0247807D01*
X0404620Y0247816D01*
X0404561Y0247829D01*
X0404502Y0247845D01*
X0404445Y0247865D01*
X0404390Y0247888D01*
X0404335Y0247915D01*
X0404283Y0247944D01*
X0404232Y0247977D01*
X0404183Y0248013D01*
X0404137Y0248051D01*
X0404093Y0248093D01*
X0404051Y0248137D01*
X0404013Y0248183D01*
X0403977Y0248232D01*
X0403944Y0248283D01*
X0403915Y0248335D01*
X0403888Y0248390D01*
X0403865Y0248445D01*
X0403845Y0248502D01*
X0403829Y0248561D01*
X0403816Y0248620D01*
X0403807Y0248679D01*
X0403802Y0248740D01*
X0403800Y0248800D01*
X0403800Y0286800D01*
X0403802Y0286860D01*
X0403807Y0286921D01*
X0403816Y0286980D01*
X0403829Y0287039D01*
X0403845Y0287098D01*
X0403865Y0287155D01*
X0403888Y0287210D01*
X0403915Y0287265D01*
X0403944Y0287317D01*
X0403977Y0287368D01*
X0404013Y0287417D01*
X0404051Y0287463D01*
X0404093Y0287507D01*
X0404137Y0287549D01*
X0404183Y0287587D01*
X0404232Y0287623D01*
X0404283Y0287656D01*
X0404335Y0287685D01*
X0404390Y0287712D01*
X0404445Y0287735D01*
X0404502Y0287755D01*
X0404561Y0287771D01*
X0404620Y0287784D01*
X0404679Y0287793D01*
X0404740Y0287798D01*
X0404800Y0287800D01*
X0418800Y0287800D01*
X0418860Y0287798D01*
X0418921Y0287793D01*
X0418980Y0287784D01*
X0419039Y0287771D01*
X0419098Y0287755D01*
X0419155Y0287735D01*
X0419210Y0287712D01*
X0419265Y0287685D01*
X0419317Y0287656D01*
X0419368Y0287623D01*
X0419417Y0287587D01*
X0419463Y0287549D01*
X0419507Y0287507D01*
X0419549Y0287463D01*
X0419587Y0287417D01*
X0419623Y0287368D01*
X0419656Y0287317D01*
X0419685Y0287265D01*
X0419712Y0287210D01*
X0419735Y0287155D01*
X0419755Y0287098D01*
X0419771Y0287039D01*
X0419784Y0286980D01*
X0419793Y0286921D01*
X0419798Y0286860D01*
X0419800Y0286800D01*
X0411800Y0278300D02*
X0411800Y0262800D01*
X0411800Y0259300D02*
X0411800Y0257300D01*
X0399800Y0248800D02*
X0399800Y0286800D01*
X0399798Y0286860D01*
X0399793Y0286921D01*
X0399784Y0286980D01*
X0399771Y0287039D01*
X0399755Y0287098D01*
X0399735Y0287155D01*
X0399712Y0287210D01*
X0399685Y0287265D01*
X0399656Y0287317D01*
X0399623Y0287368D01*
X0399587Y0287417D01*
X0399549Y0287463D01*
X0399507Y0287507D01*
X0399463Y0287549D01*
X0399417Y0287587D01*
X0399368Y0287623D01*
X0399317Y0287656D01*
X0399265Y0287685D01*
X0399210Y0287712D01*
X0399155Y0287735D01*
X0399098Y0287755D01*
X0399039Y0287771D01*
X0398980Y0287784D01*
X0398921Y0287793D01*
X0398860Y0287798D01*
X0398800Y0287800D01*
X0384800Y0287800D01*
X0384740Y0287798D01*
X0384679Y0287793D01*
X0384620Y0287784D01*
X0384561Y0287771D01*
X0384502Y0287755D01*
X0384445Y0287735D01*
X0384390Y0287712D01*
X0384335Y0287685D01*
X0384283Y0287656D01*
X0384232Y0287623D01*
X0384183Y0287587D01*
X0384137Y0287549D01*
X0384093Y0287507D01*
X0384051Y0287463D01*
X0384013Y0287417D01*
X0383977Y0287368D01*
X0383944Y0287317D01*
X0383915Y0287265D01*
X0383888Y0287210D01*
X0383865Y0287155D01*
X0383845Y0287098D01*
X0383829Y0287039D01*
X0383816Y0286980D01*
X0383807Y0286921D01*
X0383802Y0286860D01*
X0383800Y0286800D01*
X0383800Y0248800D01*
X0383802Y0248740D01*
X0383807Y0248679D01*
X0383816Y0248620D01*
X0383829Y0248561D01*
X0383845Y0248502D01*
X0383865Y0248445D01*
X0383888Y0248390D01*
X0383915Y0248335D01*
X0383944Y0248283D01*
X0383977Y0248232D01*
X0384013Y0248183D01*
X0384051Y0248137D01*
X0384093Y0248093D01*
X0384137Y0248051D01*
X0384183Y0248013D01*
X0384232Y0247977D01*
X0384283Y0247944D01*
X0384335Y0247915D01*
X0384390Y0247888D01*
X0384445Y0247865D01*
X0384502Y0247845D01*
X0384561Y0247829D01*
X0384620Y0247816D01*
X0384679Y0247807D01*
X0384740Y0247802D01*
X0384800Y0247800D01*
X0398800Y0247800D01*
X0398860Y0247802D01*
X0398921Y0247807D01*
X0398980Y0247816D01*
X0399039Y0247829D01*
X0399098Y0247845D01*
X0399155Y0247865D01*
X0399210Y0247888D01*
X0399265Y0247915D01*
X0399317Y0247944D01*
X0399368Y0247977D01*
X0399417Y0248013D01*
X0399463Y0248051D01*
X0399507Y0248093D01*
X0399549Y0248137D01*
X0399587Y0248183D01*
X0399623Y0248232D01*
X0399656Y0248283D01*
X0399685Y0248335D01*
X0399712Y0248390D01*
X0399735Y0248445D01*
X0399755Y0248502D01*
X0399771Y0248561D01*
X0399784Y0248620D01*
X0399793Y0248679D01*
X0399798Y0248740D01*
X0399800Y0248800D01*
X0391800Y0257300D02*
X0391800Y0259300D01*
X0391800Y0262800D02*
X0391800Y0278300D01*
X0372300Y0268800D02*
X0371800Y0269300D01*
X0371800Y0288300D01*
X0372300Y0288800D01*
X0372300Y0290300D01*
X0372298Y0290360D01*
X0372293Y0290421D01*
X0372284Y0290480D01*
X0372271Y0290539D01*
X0372255Y0290598D01*
X0372235Y0290655D01*
X0372212Y0290710D01*
X0372185Y0290765D01*
X0372156Y0290817D01*
X0372123Y0290868D01*
X0372087Y0290917D01*
X0372049Y0290963D01*
X0372007Y0291007D01*
X0371963Y0291049D01*
X0371917Y0291087D01*
X0371868Y0291123D01*
X0371817Y0291156D01*
X0371765Y0291185D01*
X0371710Y0291212D01*
X0371655Y0291235D01*
X0371598Y0291255D01*
X0371539Y0291271D01*
X0371480Y0291284D01*
X0371421Y0291293D01*
X0371360Y0291298D01*
X0371300Y0291300D01*
X0364300Y0291300D01*
X0364240Y0291298D01*
X0364179Y0291293D01*
X0364120Y0291284D01*
X0364061Y0291271D01*
X0364002Y0291255D01*
X0363945Y0291235D01*
X0363890Y0291212D01*
X0363835Y0291185D01*
X0363783Y0291156D01*
X0363732Y0291123D01*
X0363683Y0291087D01*
X0363637Y0291049D01*
X0363593Y0291007D01*
X0363551Y0290963D01*
X0363513Y0290917D01*
X0363477Y0290868D01*
X0363444Y0290817D01*
X0363415Y0290765D01*
X0363388Y0290710D01*
X0363365Y0290655D01*
X0363345Y0290598D01*
X0363329Y0290539D01*
X0363316Y0290480D01*
X0363307Y0290421D01*
X0363302Y0290360D01*
X0363300Y0290300D01*
X0363300Y0288800D01*
X0363800Y0288300D01*
X0363800Y0269300D01*
X0363300Y0268800D01*
X0363300Y0267300D01*
X0363302Y0267240D01*
X0363307Y0267179D01*
X0363316Y0267120D01*
X0363329Y0267061D01*
X0363345Y0267002D01*
X0363365Y0266945D01*
X0363388Y0266890D01*
X0363415Y0266835D01*
X0363444Y0266783D01*
X0363477Y0266732D01*
X0363513Y0266683D01*
X0363551Y0266637D01*
X0363593Y0266593D01*
X0363637Y0266551D01*
X0363683Y0266513D01*
X0363732Y0266477D01*
X0363783Y0266444D01*
X0363835Y0266415D01*
X0363890Y0266388D01*
X0363945Y0266365D01*
X0364002Y0266345D01*
X0364061Y0266329D01*
X0364120Y0266316D01*
X0364179Y0266307D01*
X0364240Y0266302D01*
X0364300Y0266300D01*
X0371300Y0266300D01*
X0371360Y0266302D01*
X0371421Y0266307D01*
X0371480Y0266316D01*
X0371539Y0266329D01*
X0371598Y0266345D01*
X0371655Y0266365D01*
X0371710Y0266388D01*
X0371765Y0266415D01*
X0371817Y0266444D01*
X0371868Y0266477D01*
X0371917Y0266513D01*
X0371963Y0266551D01*
X0372007Y0266593D01*
X0372049Y0266637D01*
X0372087Y0266683D01*
X0372123Y0266732D01*
X0372156Y0266783D01*
X0372185Y0266835D01*
X0372212Y0266890D01*
X0372235Y0266945D01*
X0372255Y0267002D01*
X0372271Y0267061D01*
X0372284Y0267120D01*
X0372293Y0267179D01*
X0372298Y0267240D01*
X0372300Y0267300D01*
X0372300Y0268800D01*
X0367300Y0221800D02*
X0387300Y0221800D01*
X0387300Y0144300D01*
X0367300Y0144300D01*
X0367300Y0221800D01*
X0381800Y0169300D02*
X0381800Y0161300D01*
X0380300Y0161300D01*
X0379800Y0161800D01*
X0383800Y0161800D01*
X0383300Y0161300D01*
X0381800Y0161300D01*
X0381800Y0159800D01*
X0382300Y0160300D01*
X0382800Y0160800D01*
X0383300Y0161300D01*
X0382800Y0160800D02*
X0380800Y0160800D01*
X0381300Y0160300D01*
X0382300Y0160300D01*
X0381800Y0159800D02*
X0381300Y0160300D01*
X0380800Y0160800D02*
X0380300Y0161300D01*
X0369300Y0118300D02*
X0362300Y0118300D01*
X0362240Y0118298D01*
X0362179Y0118293D01*
X0362120Y0118284D01*
X0362061Y0118271D01*
X0362002Y0118255D01*
X0361945Y0118235D01*
X0361890Y0118212D01*
X0361835Y0118185D01*
X0361783Y0118156D01*
X0361732Y0118123D01*
X0361683Y0118087D01*
X0361637Y0118049D01*
X0361593Y0118007D01*
X0361551Y0117963D01*
X0361513Y0117917D01*
X0361477Y0117868D01*
X0361444Y0117817D01*
X0361415Y0117765D01*
X0361388Y0117710D01*
X0361365Y0117655D01*
X0361345Y0117598D01*
X0361329Y0117539D01*
X0361316Y0117480D01*
X0361307Y0117421D01*
X0361302Y0117360D01*
X0361300Y0117300D01*
X0361300Y0115800D01*
X0361800Y0115300D01*
X0361800Y0096300D01*
X0361300Y0095800D01*
X0361300Y0094300D01*
X0361302Y0094240D01*
X0361307Y0094179D01*
X0361316Y0094120D01*
X0361329Y0094061D01*
X0361345Y0094002D01*
X0361365Y0093945D01*
X0361388Y0093890D01*
X0361415Y0093835D01*
X0361444Y0093783D01*
X0361477Y0093732D01*
X0361513Y0093683D01*
X0361551Y0093637D01*
X0361593Y0093593D01*
X0361637Y0093551D01*
X0361683Y0093513D01*
X0361732Y0093477D01*
X0361783Y0093444D01*
X0361835Y0093415D01*
X0361890Y0093388D01*
X0361945Y0093365D01*
X0362002Y0093345D01*
X0362061Y0093329D01*
X0362120Y0093316D01*
X0362179Y0093307D01*
X0362240Y0093302D01*
X0362300Y0093300D01*
X0369300Y0093300D01*
X0369360Y0093302D01*
X0369421Y0093307D01*
X0369480Y0093316D01*
X0369539Y0093329D01*
X0369598Y0093345D01*
X0369655Y0093365D01*
X0369710Y0093388D01*
X0369765Y0093415D01*
X0369817Y0093444D01*
X0369868Y0093477D01*
X0369917Y0093513D01*
X0369963Y0093551D01*
X0370007Y0093593D01*
X0370049Y0093637D01*
X0370087Y0093683D01*
X0370123Y0093732D01*
X0370156Y0093783D01*
X0370185Y0093835D01*
X0370212Y0093890D01*
X0370235Y0093945D01*
X0370255Y0094002D01*
X0370271Y0094061D01*
X0370284Y0094120D01*
X0370293Y0094179D01*
X0370298Y0094240D01*
X0370300Y0094300D01*
X0370300Y0095800D01*
X0369800Y0096300D01*
X0369800Y0115300D01*
X0370300Y0115800D01*
X0370300Y0117300D01*
X0370298Y0117360D01*
X0370293Y0117421D01*
X0370284Y0117480D01*
X0370271Y0117539D01*
X0370255Y0117598D01*
X0370235Y0117655D01*
X0370212Y0117710D01*
X0370185Y0117765D01*
X0370156Y0117817D01*
X0370123Y0117868D01*
X0370087Y0117917D01*
X0370049Y0117963D01*
X0370007Y0118007D01*
X0369963Y0118049D01*
X0369917Y0118087D01*
X0369868Y0118123D01*
X0369817Y0118156D01*
X0369765Y0118185D01*
X0369710Y0118212D01*
X0369655Y0118235D01*
X0369598Y0118255D01*
X0369539Y0118271D01*
X0369480Y0118284D01*
X0369421Y0118293D01*
X0369360Y0118298D01*
X0369300Y0118300D01*
X0381800Y0114800D02*
X0381800Y0076800D01*
X0381802Y0076740D01*
X0381807Y0076679D01*
X0381816Y0076620D01*
X0381829Y0076561D01*
X0381845Y0076502D01*
X0381865Y0076445D01*
X0381888Y0076390D01*
X0381915Y0076335D01*
X0381944Y0076283D01*
X0381977Y0076232D01*
X0382013Y0076183D01*
X0382051Y0076137D01*
X0382093Y0076093D01*
X0382137Y0076051D01*
X0382183Y0076013D01*
X0382232Y0075977D01*
X0382283Y0075944D01*
X0382335Y0075915D01*
X0382390Y0075888D01*
X0382445Y0075865D01*
X0382502Y0075845D01*
X0382561Y0075829D01*
X0382620Y0075816D01*
X0382679Y0075807D01*
X0382740Y0075802D01*
X0382800Y0075800D01*
X0396800Y0075800D01*
X0396860Y0075802D01*
X0396921Y0075807D01*
X0396980Y0075816D01*
X0397039Y0075829D01*
X0397098Y0075845D01*
X0397155Y0075865D01*
X0397210Y0075888D01*
X0397265Y0075915D01*
X0397317Y0075944D01*
X0397368Y0075977D01*
X0397417Y0076013D01*
X0397463Y0076051D01*
X0397507Y0076093D01*
X0397549Y0076137D01*
X0397587Y0076183D01*
X0397623Y0076232D01*
X0397656Y0076283D01*
X0397685Y0076335D01*
X0397712Y0076390D01*
X0397735Y0076445D01*
X0397755Y0076502D01*
X0397771Y0076561D01*
X0397784Y0076620D01*
X0397793Y0076679D01*
X0397798Y0076740D01*
X0397800Y0076800D01*
X0397800Y0114800D01*
X0397798Y0114860D01*
X0397793Y0114921D01*
X0397784Y0114980D01*
X0397771Y0115039D01*
X0397755Y0115098D01*
X0397735Y0115155D01*
X0397712Y0115210D01*
X0397685Y0115265D01*
X0397656Y0115317D01*
X0397623Y0115368D01*
X0397587Y0115417D01*
X0397549Y0115463D01*
X0397507Y0115507D01*
X0397463Y0115549D01*
X0397417Y0115587D01*
X0397368Y0115623D01*
X0397317Y0115656D01*
X0397265Y0115685D01*
X0397210Y0115712D01*
X0397155Y0115735D01*
X0397098Y0115755D01*
X0397039Y0115771D01*
X0396980Y0115784D01*
X0396921Y0115793D01*
X0396860Y0115798D01*
X0396800Y0115800D01*
X0382800Y0115800D01*
X0382740Y0115798D01*
X0382679Y0115793D01*
X0382620Y0115784D01*
X0382561Y0115771D01*
X0382502Y0115755D01*
X0382445Y0115735D01*
X0382390Y0115712D01*
X0382335Y0115685D01*
X0382283Y0115656D01*
X0382232Y0115623D01*
X0382183Y0115587D01*
X0382137Y0115549D01*
X0382093Y0115507D01*
X0382051Y0115463D01*
X0382013Y0115417D01*
X0381977Y0115368D01*
X0381944Y0115317D01*
X0381915Y0115265D01*
X0381888Y0115210D01*
X0381865Y0115155D01*
X0381845Y0115098D01*
X0381829Y0115039D01*
X0381816Y0114980D01*
X0381807Y0114921D01*
X0381802Y0114860D01*
X0381800Y0114800D01*
X0389800Y0106300D02*
X0389800Y0090800D01*
X0389800Y0087300D02*
X0389800Y0085300D01*
X0403800Y0076800D02*
X0403800Y0114800D01*
X0403802Y0114860D01*
X0403807Y0114921D01*
X0403816Y0114980D01*
X0403829Y0115039D01*
X0403845Y0115098D01*
X0403865Y0115155D01*
X0403888Y0115210D01*
X0403915Y0115265D01*
X0403944Y0115317D01*
X0403977Y0115368D01*
X0404013Y0115417D01*
X0404051Y0115463D01*
X0404093Y0115507D01*
X0404137Y0115549D01*
X0404183Y0115587D01*
X0404232Y0115623D01*
X0404283Y0115656D01*
X0404335Y0115685D01*
X0404390Y0115712D01*
X0404445Y0115735D01*
X0404502Y0115755D01*
X0404561Y0115771D01*
X0404620Y0115784D01*
X0404679Y0115793D01*
X0404740Y0115798D01*
X0404800Y0115800D01*
X0418800Y0115800D01*
X0418860Y0115798D01*
X0418921Y0115793D01*
X0418980Y0115784D01*
X0419039Y0115771D01*
X0419098Y0115755D01*
X0419155Y0115735D01*
X0419210Y0115712D01*
X0419265Y0115685D01*
X0419317Y0115656D01*
X0419368Y0115623D01*
X0419417Y0115587D01*
X0419463Y0115549D01*
X0419507Y0115507D01*
X0419549Y0115463D01*
X0419587Y0115417D01*
X0419623Y0115368D01*
X0419656Y0115317D01*
X0419685Y0115265D01*
X0419712Y0115210D01*
X0419735Y0115155D01*
X0419755Y0115098D01*
X0419771Y0115039D01*
X0419784Y0114980D01*
X0419793Y0114921D01*
X0419798Y0114860D01*
X0419800Y0114800D01*
X0419800Y0076800D01*
X0419798Y0076740D01*
X0419793Y0076679D01*
X0419784Y0076620D01*
X0419771Y0076561D01*
X0419755Y0076502D01*
X0419735Y0076445D01*
X0419712Y0076390D01*
X0419685Y0076335D01*
X0419656Y0076283D01*
X0419623Y0076232D01*
X0419587Y0076183D01*
X0419549Y0076137D01*
X0419507Y0076093D01*
X0419463Y0076051D01*
X0419417Y0076013D01*
X0419368Y0075977D01*
X0419317Y0075944D01*
X0419265Y0075915D01*
X0419210Y0075888D01*
X0419155Y0075865D01*
X0419098Y0075845D01*
X0419039Y0075829D01*
X0418980Y0075816D01*
X0418921Y0075807D01*
X0418860Y0075802D01*
X0418800Y0075800D01*
X0404800Y0075800D01*
X0404740Y0075802D01*
X0404679Y0075807D01*
X0404620Y0075816D01*
X0404561Y0075829D01*
X0404502Y0075845D01*
X0404445Y0075865D01*
X0404390Y0075888D01*
X0404335Y0075915D01*
X0404283Y0075944D01*
X0404232Y0075977D01*
X0404183Y0076013D01*
X0404137Y0076051D01*
X0404093Y0076093D01*
X0404051Y0076137D01*
X0404013Y0076183D01*
X0403977Y0076232D01*
X0403944Y0076283D01*
X0403915Y0076335D01*
X0403888Y0076390D01*
X0403865Y0076445D01*
X0403845Y0076502D01*
X0403829Y0076561D01*
X0403816Y0076620D01*
X0403807Y0076679D01*
X0403802Y0076740D01*
X0403800Y0076800D01*
X0411800Y0085300D02*
X0411800Y0087300D01*
X0411800Y0090800D02*
X0411800Y0106300D01*
X0427800Y0114800D02*
X0427800Y0076800D01*
X0427802Y0076740D01*
X0427807Y0076679D01*
X0427816Y0076620D01*
X0427829Y0076561D01*
X0427845Y0076502D01*
X0427865Y0076445D01*
X0427888Y0076390D01*
X0427915Y0076335D01*
X0427944Y0076283D01*
X0427977Y0076232D01*
X0428013Y0076183D01*
X0428051Y0076137D01*
X0428093Y0076093D01*
X0428137Y0076051D01*
X0428183Y0076013D01*
X0428232Y0075977D01*
X0428283Y0075944D01*
X0428335Y0075915D01*
X0428390Y0075888D01*
X0428445Y0075865D01*
X0428502Y0075845D01*
X0428561Y0075829D01*
X0428620Y0075816D01*
X0428679Y0075807D01*
X0428740Y0075802D01*
X0428800Y0075800D01*
X0442800Y0075800D01*
X0442860Y0075802D01*
X0442921Y0075807D01*
X0442980Y0075816D01*
X0443039Y0075829D01*
X0443098Y0075845D01*
X0443155Y0075865D01*
X0443210Y0075888D01*
X0443265Y0075915D01*
X0443317Y0075944D01*
X0443368Y0075977D01*
X0443417Y0076013D01*
X0443463Y0076051D01*
X0443507Y0076093D01*
X0443549Y0076137D01*
X0443587Y0076183D01*
X0443623Y0076232D01*
X0443656Y0076283D01*
X0443685Y0076335D01*
X0443712Y0076390D01*
X0443735Y0076445D01*
X0443755Y0076502D01*
X0443771Y0076561D01*
X0443784Y0076620D01*
X0443793Y0076679D01*
X0443798Y0076740D01*
X0443800Y0076800D01*
X0443800Y0114800D01*
X0443798Y0114860D01*
X0443793Y0114921D01*
X0443784Y0114980D01*
X0443771Y0115039D01*
X0443755Y0115098D01*
X0443735Y0115155D01*
X0443712Y0115210D01*
X0443685Y0115265D01*
X0443656Y0115317D01*
X0443623Y0115368D01*
X0443587Y0115417D01*
X0443549Y0115463D01*
X0443507Y0115507D01*
X0443463Y0115549D01*
X0443417Y0115587D01*
X0443368Y0115623D01*
X0443317Y0115656D01*
X0443265Y0115685D01*
X0443210Y0115712D01*
X0443155Y0115735D01*
X0443098Y0115755D01*
X0443039Y0115771D01*
X0442980Y0115784D01*
X0442921Y0115793D01*
X0442860Y0115798D01*
X0442800Y0115800D01*
X0428800Y0115800D01*
X0428740Y0115798D01*
X0428679Y0115793D01*
X0428620Y0115784D01*
X0428561Y0115771D01*
X0428502Y0115755D01*
X0428445Y0115735D01*
X0428390Y0115712D01*
X0428335Y0115685D01*
X0428283Y0115656D01*
X0428232Y0115623D01*
X0428183Y0115587D01*
X0428137Y0115549D01*
X0428093Y0115507D01*
X0428051Y0115463D01*
X0428013Y0115417D01*
X0427977Y0115368D01*
X0427944Y0115317D01*
X0427915Y0115265D01*
X0427888Y0115210D01*
X0427865Y0115155D01*
X0427845Y0115098D01*
X0427829Y0115039D01*
X0427816Y0114980D01*
X0427807Y0114921D01*
X0427802Y0114860D01*
X0427800Y0114800D01*
X0435800Y0106300D02*
X0435800Y0090800D01*
X0435800Y0087300D02*
X0435800Y0085300D01*
X0463800Y0057800D02*
X0463800Y0047800D01*
X0479800Y0047800D01*
X0479800Y0057800D01*
X0463800Y0057800D01*
X0467800Y0055300D02*
X0467800Y0050300D01*
X0471800Y0052800D01*
X0471800Y0055300D01*
X0471800Y0052800D02*
X0465800Y0052800D01*
X0467800Y0055300D02*
X0471800Y0052800D01*
X0471800Y0050300D01*
X0471800Y0052800D02*
X0474300Y0052800D01*
X0486800Y0089300D02*
X0486800Y0104800D01*
X0486800Y0108300D02*
X0486800Y0180300D01*
X0405800Y0330800D02*
X0406300Y0331300D01*
X0406800Y0331800D01*
X0407300Y0332300D01*
X0407800Y0332800D01*
X0403800Y0332800D01*
X0404300Y0332300D01*
X0405800Y0332300D01*
X0405800Y0340300D01*
X0405800Y0332300D02*
X0407300Y0332300D01*
X0406800Y0331800D02*
X0404800Y0331800D01*
X0405300Y0331300D01*
X0406300Y0331300D01*
X0405800Y0330800D02*
X0405300Y0331300D01*
X0404800Y0331800D02*
X0404300Y0332300D01*
X0405800Y0332300D02*
X0405800Y0330800D01*
X0384300Y0517800D02*
X0381800Y0517800D01*
X0381800Y0527800D01*
X0384300Y0527800D01*
X0384300Y0522800D01*
X0384300Y0517800D01*
X0384300Y0522800D02*
X0385300Y0522800D01*
X0353300Y0522800D02*
X0353308Y0523475D01*
X0353333Y0524149D01*
X0353375Y0524823D01*
X0353432Y0525495D01*
X0353507Y0526166D01*
X0353598Y0526835D01*
X0353705Y0527501D01*
X0353828Y0528165D01*
X0353968Y0528825D01*
X0354124Y0529482D01*
X0354296Y0530135D01*
X0354484Y0530783D01*
X0354688Y0531426D01*
X0354908Y0532064D01*
X0355143Y0532697D01*
X0355393Y0533324D01*
X0355659Y0533944D01*
X0355940Y0534558D01*
X0356236Y0535164D01*
X0356547Y0535763D01*
X0356873Y0536355D01*
X0357212Y0536938D01*
X0357567Y0537512D01*
X0357935Y0538078D01*
X0358316Y0538635D01*
X0358712Y0539182D01*
X0359120Y0539719D01*
X0359542Y0540246D01*
X0359977Y0540762D01*
X0360424Y0541268D01*
X0360883Y0541762D01*
X0361355Y0542245D01*
X0361838Y0542717D01*
X0362332Y0543176D01*
X0362838Y0543623D01*
X0363354Y0544058D01*
X0363881Y0544480D01*
X0364418Y0544888D01*
X0364965Y0545284D01*
X0365522Y0545665D01*
X0366088Y0546033D01*
X0366662Y0546388D01*
X0367245Y0546727D01*
X0367837Y0547053D01*
X0368436Y0547364D01*
X0369042Y0547660D01*
X0369656Y0547941D01*
X0370276Y0548207D01*
X0370903Y0548457D01*
X0371536Y0548692D01*
X0372174Y0548912D01*
X0372817Y0549116D01*
X0373465Y0549304D01*
X0374118Y0549476D01*
X0374775Y0549632D01*
X0375435Y0549772D01*
X0376099Y0549895D01*
X0376765Y0550002D01*
X0377434Y0550093D01*
X0378105Y0550168D01*
X0378777Y0550225D01*
X0379451Y0550267D01*
X0380125Y0550292D01*
X0380800Y0550300D01*
X0381475Y0550292D01*
X0382149Y0550267D01*
X0382823Y0550225D01*
X0383495Y0550168D01*
X0384166Y0550093D01*
X0384835Y0550002D01*
X0385501Y0549895D01*
X0386165Y0549772D01*
X0386825Y0549632D01*
X0387482Y0549476D01*
X0388135Y0549304D01*
X0388783Y0549116D01*
X0389426Y0548912D01*
X0390064Y0548692D01*
X0390697Y0548457D01*
X0391324Y0548207D01*
X0391944Y0547941D01*
X0392558Y0547660D01*
X0393164Y0547364D01*
X0393763Y0547053D01*
X0394355Y0546727D01*
X0394938Y0546388D01*
X0395512Y0546033D01*
X0396078Y0545665D01*
X0396635Y0545284D01*
X0397182Y0544888D01*
X0397719Y0544480D01*
X0398246Y0544058D01*
X0398762Y0543623D01*
X0399268Y0543176D01*
X0399762Y0542717D01*
X0400245Y0542245D01*
X0400717Y0541762D01*
X0401176Y0541268D01*
X0401623Y0540762D01*
X0402058Y0540246D01*
X0402480Y0539719D01*
X0402888Y0539182D01*
X0403284Y0538635D01*
X0403665Y0538078D01*
X0404033Y0537512D01*
X0404388Y0536938D01*
X0404727Y0536355D01*
X0405053Y0535763D01*
X0405364Y0535164D01*
X0405660Y0534558D01*
X0405941Y0533944D01*
X0406207Y0533324D01*
X0406457Y0532697D01*
X0406692Y0532064D01*
X0406912Y0531426D01*
X0407116Y0530783D01*
X0407304Y0530135D01*
X0407476Y0529482D01*
X0407632Y0528825D01*
X0407772Y0528165D01*
X0407895Y0527501D01*
X0408002Y0526835D01*
X0408093Y0526166D01*
X0408168Y0525495D01*
X0408225Y0524823D01*
X0408267Y0524149D01*
X0408292Y0523475D01*
X0408300Y0522800D01*
X0408292Y0522125D01*
X0408267Y0521451D01*
X0408225Y0520777D01*
X0408168Y0520105D01*
X0408093Y0519434D01*
X0408002Y0518765D01*
X0407895Y0518099D01*
X0407772Y0517435D01*
X0407632Y0516775D01*
X0407476Y0516118D01*
X0407304Y0515465D01*
X0407116Y0514817D01*
X0406912Y0514174D01*
X0406692Y0513536D01*
X0406457Y0512903D01*
X0406207Y0512276D01*
X0405941Y0511656D01*
X0405660Y0511042D01*
X0405364Y0510436D01*
X0405053Y0509837D01*
X0404727Y0509245D01*
X0404388Y0508662D01*
X0404033Y0508088D01*
X0403665Y0507522D01*
X0403284Y0506965D01*
X0402888Y0506418D01*
X0402480Y0505881D01*
X0402058Y0505354D01*
X0401623Y0504838D01*
X0401176Y0504332D01*
X0400717Y0503838D01*
X0400245Y0503355D01*
X0399762Y0502883D01*
X0399268Y0502424D01*
X0398762Y0501977D01*
X0398246Y0501542D01*
X0397719Y0501120D01*
X0397182Y0500712D01*
X0396635Y0500316D01*
X0396078Y0499935D01*
X0395512Y0499567D01*
X0394938Y0499212D01*
X0394355Y0498873D01*
X0393763Y0498547D01*
X0393164Y0498236D01*
X0392558Y0497940D01*
X0391944Y0497659D01*
X0391324Y0497393D01*
X0390697Y0497143D01*
X0390064Y0496908D01*
X0389426Y0496688D01*
X0388783Y0496484D01*
X0388135Y0496296D01*
X0387482Y0496124D01*
X0386825Y0495968D01*
X0386165Y0495828D01*
X0385501Y0495705D01*
X0384835Y0495598D01*
X0384166Y0495507D01*
X0383495Y0495432D01*
X0382823Y0495375D01*
X0382149Y0495333D01*
X0381475Y0495308D01*
X0380800Y0495300D01*
X0380125Y0495308D01*
X0379451Y0495333D01*
X0378777Y0495375D01*
X0378105Y0495432D01*
X0377434Y0495507D01*
X0376765Y0495598D01*
X0376099Y0495705D01*
X0375435Y0495828D01*
X0374775Y0495968D01*
X0374118Y0496124D01*
X0373465Y0496296D01*
X0372817Y0496484D01*
X0372174Y0496688D01*
X0371536Y0496908D01*
X0370903Y0497143D01*
X0370276Y0497393D01*
X0369656Y0497659D01*
X0369042Y0497940D01*
X0368436Y0498236D01*
X0367837Y0498547D01*
X0367245Y0498873D01*
X0366662Y0499212D01*
X0366088Y0499567D01*
X0365522Y0499935D01*
X0364965Y0500316D01*
X0364418Y0500712D01*
X0363881Y0501120D01*
X0363354Y0501542D01*
X0362838Y0501977D01*
X0362332Y0502424D01*
X0361838Y0502883D01*
X0361355Y0503355D01*
X0360883Y0503838D01*
X0360424Y0504332D01*
X0359977Y0504838D01*
X0359542Y0505354D01*
X0359120Y0505881D01*
X0358712Y0506418D01*
X0358316Y0506965D01*
X0357935Y0507522D01*
X0357567Y0508088D01*
X0357212Y0508662D01*
X0356873Y0509245D01*
X0356547Y0509837D01*
X0356236Y0510436D01*
X0355940Y0511042D01*
X0355659Y0511656D01*
X0355393Y0512276D01*
X0355143Y0512903D01*
X0354908Y0513536D01*
X0354688Y0514174D01*
X0354484Y0514817D01*
X0354296Y0515465D01*
X0354124Y0516118D01*
X0353968Y0516775D01*
X0353828Y0517435D01*
X0353705Y0518099D01*
X0353598Y0518765D01*
X0353507Y0519434D01*
X0353432Y0520105D01*
X0353375Y0520777D01*
X0353333Y0521451D01*
X0353308Y0522125D01*
X0353300Y0522800D01*
X0376300Y0522800D02*
X0378300Y0522800D01*
X0398300Y0522800D02*
X0403300Y0522800D01*
X0400800Y0525300D02*
X0400800Y0520300D01*
X0432300Y0649800D02*
X0459300Y0649800D01*
X0459360Y0649802D01*
X0459421Y0649807D01*
X0459480Y0649816D01*
X0459539Y0649829D01*
X0459598Y0649845D01*
X0459655Y0649865D01*
X0459710Y0649888D01*
X0459765Y0649915D01*
X0459817Y0649944D01*
X0459868Y0649977D01*
X0459917Y0650013D01*
X0459963Y0650051D01*
X0460007Y0650093D01*
X0460049Y0650137D01*
X0460087Y0650183D01*
X0460123Y0650232D01*
X0460156Y0650283D01*
X0460185Y0650335D01*
X0460212Y0650390D01*
X0460235Y0650445D01*
X0460255Y0650502D01*
X0460271Y0650561D01*
X0460284Y0650620D01*
X0460293Y0650679D01*
X0460298Y0650740D01*
X0460300Y0650800D01*
X0460300Y0668800D01*
X0460298Y0668860D01*
X0460293Y0668921D01*
X0460284Y0668980D01*
X0460271Y0669039D01*
X0460255Y0669098D01*
X0460235Y0669155D01*
X0460212Y0669210D01*
X0460185Y0669265D01*
X0460156Y0669317D01*
X0460123Y0669368D01*
X0460087Y0669417D01*
X0460049Y0669463D01*
X0460007Y0669507D01*
X0459963Y0669549D01*
X0459917Y0669587D01*
X0459868Y0669623D01*
X0459817Y0669656D01*
X0459765Y0669685D01*
X0459710Y0669712D01*
X0459655Y0669735D01*
X0459598Y0669755D01*
X0459539Y0669771D01*
X0459480Y0669784D01*
X0459421Y0669793D01*
X0459360Y0669798D01*
X0459300Y0669800D01*
X0432300Y0669800D01*
X0432240Y0669798D01*
X0432179Y0669793D01*
X0432120Y0669784D01*
X0432061Y0669771D01*
X0432002Y0669755D01*
X0431945Y0669735D01*
X0431890Y0669712D01*
X0431835Y0669685D01*
X0431783Y0669656D01*
X0431732Y0669623D01*
X0431683Y0669587D01*
X0431637Y0669549D01*
X0431593Y0669507D01*
X0431551Y0669463D01*
X0431513Y0669417D01*
X0431477Y0669368D01*
X0431444Y0669317D01*
X0431415Y0669265D01*
X0431388Y0669210D01*
X0431365Y0669155D01*
X0431345Y0669098D01*
X0431329Y0669039D01*
X0431316Y0668980D01*
X0431307Y0668921D01*
X0431302Y0668860D01*
X0431300Y0668800D01*
X0431300Y0650800D01*
X0431302Y0650740D01*
X0431307Y0650679D01*
X0431316Y0650620D01*
X0431329Y0650561D01*
X0431345Y0650502D01*
X0431365Y0650445D01*
X0431388Y0650390D01*
X0431415Y0650335D01*
X0431444Y0650283D01*
X0431477Y0650232D01*
X0431513Y0650183D01*
X0431551Y0650137D01*
X0431593Y0650093D01*
X0431637Y0650051D01*
X0431683Y0650013D01*
X0431732Y0649977D01*
X0431783Y0649944D01*
X0431835Y0649915D01*
X0431890Y0649888D01*
X0431945Y0649865D01*
X0432002Y0649845D01*
X0432061Y0649829D01*
X0432120Y0649816D01*
X0432179Y0649807D01*
X0432240Y0649802D01*
X0432300Y0649800D01*
X0439800Y0659800D02*
X0444500Y0659800D01*
X0447000Y0659800D02*
X0451800Y0659800D01*
X0426800Y0684300D02*
X0426800Y0689300D01*
X0429300Y0686800D02*
X0424300Y0686800D01*
X0426800Y0702300D02*
X0426800Y0703300D01*
X0421800Y0703300D01*
X0421800Y0705800D01*
X0431800Y0705800D01*
X0431800Y0703300D01*
X0426800Y0703300D01*
X0399300Y0706800D02*
X0399308Y0707475D01*
X0399333Y0708149D01*
X0399375Y0708823D01*
X0399432Y0709495D01*
X0399507Y0710166D01*
X0399598Y0710835D01*
X0399705Y0711501D01*
X0399828Y0712165D01*
X0399968Y0712825D01*
X0400124Y0713482D01*
X0400296Y0714135D01*
X0400484Y0714783D01*
X0400688Y0715426D01*
X0400908Y0716064D01*
X0401143Y0716697D01*
X0401393Y0717324D01*
X0401659Y0717944D01*
X0401940Y0718558D01*
X0402236Y0719164D01*
X0402547Y0719763D01*
X0402873Y0720355D01*
X0403212Y0720938D01*
X0403567Y0721512D01*
X0403935Y0722078D01*
X0404316Y0722635D01*
X0404712Y0723182D01*
X0405120Y0723719D01*
X0405542Y0724246D01*
X0405977Y0724762D01*
X0406424Y0725268D01*
X0406883Y0725762D01*
X0407355Y0726245D01*
X0407838Y0726717D01*
X0408332Y0727176D01*
X0408838Y0727623D01*
X0409354Y0728058D01*
X0409881Y0728480D01*
X0410418Y0728888D01*
X0410965Y0729284D01*
X0411522Y0729665D01*
X0412088Y0730033D01*
X0412662Y0730388D01*
X0413245Y0730727D01*
X0413837Y0731053D01*
X0414436Y0731364D01*
X0415042Y0731660D01*
X0415656Y0731941D01*
X0416276Y0732207D01*
X0416903Y0732457D01*
X0417536Y0732692D01*
X0418174Y0732912D01*
X0418817Y0733116D01*
X0419465Y0733304D01*
X0420118Y0733476D01*
X0420775Y0733632D01*
X0421435Y0733772D01*
X0422099Y0733895D01*
X0422765Y0734002D01*
X0423434Y0734093D01*
X0424105Y0734168D01*
X0424777Y0734225D01*
X0425451Y0734267D01*
X0426125Y0734292D01*
X0426800Y0734300D01*
X0427475Y0734292D01*
X0428149Y0734267D01*
X0428823Y0734225D01*
X0429495Y0734168D01*
X0430166Y0734093D01*
X0430835Y0734002D01*
X0431501Y0733895D01*
X0432165Y0733772D01*
X0432825Y0733632D01*
X0433482Y0733476D01*
X0434135Y0733304D01*
X0434783Y0733116D01*
X0435426Y0732912D01*
X0436064Y0732692D01*
X0436697Y0732457D01*
X0437324Y0732207D01*
X0437944Y0731941D01*
X0438558Y0731660D01*
X0439164Y0731364D01*
X0439763Y0731053D01*
X0440355Y0730727D01*
X0440938Y0730388D01*
X0441512Y0730033D01*
X0442078Y0729665D01*
X0442635Y0729284D01*
X0443182Y0728888D01*
X0443719Y0728480D01*
X0444246Y0728058D01*
X0444762Y0727623D01*
X0445268Y0727176D01*
X0445762Y0726717D01*
X0446245Y0726245D01*
X0446717Y0725762D01*
X0447176Y0725268D01*
X0447623Y0724762D01*
X0448058Y0724246D01*
X0448480Y0723719D01*
X0448888Y0723182D01*
X0449284Y0722635D01*
X0449665Y0722078D01*
X0450033Y0721512D01*
X0450388Y0720938D01*
X0450727Y0720355D01*
X0451053Y0719763D01*
X0451364Y0719164D01*
X0451660Y0718558D01*
X0451941Y0717944D01*
X0452207Y0717324D01*
X0452457Y0716697D01*
X0452692Y0716064D01*
X0452912Y0715426D01*
X0453116Y0714783D01*
X0453304Y0714135D01*
X0453476Y0713482D01*
X0453632Y0712825D01*
X0453772Y0712165D01*
X0453895Y0711501D01*
X0454002Y0710835D01*
X0454093Y0710166D01*
X0454168Y0709495D01*
X0454225Y0708823D01*
X0454267Y0708149D01*
X0454292Y0707475D01*
X0454300Y0706800D01*
X0454292Y0706125D01*
X0454267Y0705451D01*
X0454225Y0704777D01*
X0454168Y0704105D01*
X0454093Y0703434D01*
X0454002Y0702765D01*
X0453895Y0702099D01*
X0453772Y0701435D01*
X0453632Y0700775D01*
X0453476Y0700118D01*
X0453304Y0699465D01*
X0453116Y0698817D01*
X0452912Y0698174D01*
X0452692Y0697536D01*
X0452457Y0696903D01*
X0452207Y0696276D01*
X0451941Y0695656D01*
X0451660Y0695042D01*
X0451364Y0694436D01*
X0451053Y0693837D01*
X0450727Y0693245D01*
X0450388Y0692662D01*
X0450033Y0692088D01*
X0449665Y0691522D01*
X0449284Y0690965D01*
X0448888Y0690418D01*
X0448480Y0689881D01*
X0448058Y0689354D01*
X0447623Y0688838D01*
X0447176Y0688332D01*
X0446717Y0687838D01*
X0446245Y0687355D01*
X0445762Y0686883D01*
X0445268Y0686424D01*
X0444762Y0685977D01*
X0444246Y0685542D01*
X0443719Y0685120D01*
X0443182Y0684712D01*
X0442635Y0684316D01*
X0442078Y0683935D01*
X0441512Y0683567D01*
X0440938Y0683212D01*
X0440355Y0682873D01*
X0439763Y0682547D01*
X0439164Y0682236D01*
X0438558Y0681940D01*
X0437944Y0681659D01*
X0437324Y0681393D01*
X0436697Y0681143D01*
X0436064Y0680908D01*
X0435426Y0680688D01*
X0434783Y0680484D01*
X0434135Y0680296D01*
X0433482Y0680124D01*
X0432825Y0679968D01*
X0432165Y0679828D01*
X0431501Y0679705D01*
X0430835Y0679598D01*
X0430166Y0679507D01*
X0429495Y0679432D01*
X0428823Y0679375D01*
X0428149Y0679333D01*
X0427475Y0679308D01*
X0426800Y0679300D01*
X0426125Y0679308D01*
X0425451Y0679333D01*
X0424777Y0679375D01*
X0424105Y0679432D01*
X0423434Y0679507D01*
X0422765Y0679598D01*
X0422099Y0679705D01*
X0421435Y0679828D01*
X0420775Y0679968D01*
X0420118Y0680124D01*
X0419465Y0680296D01*
X0418817Y0680484D01*
X0418174Y0680688D01*
X0417536Y0680908D01*
X0416903Y0681143D01*
X0416276Y0681393D01*
X0415656Y0681659D01*
X0415042Y0681940D01*
X0414436Y0682236D01*
X0413837Y0682547D01*
X0413245Y0682873D01*
X0412662Y0683212D01*
X0412088Y0683567D01*
X0411522Y0683935D01*
X0410965Y0684316D01*
X0410418Y0684712D01*
X0409881Y0685120D01*
X0409354Y0685542D01*
X0408838Y0685977D01*
X0408332Y0686424D01*
X0407838Y0686883D01*
X0407355Y0687355D01*
X0406883Y0687838D01*
X0406424Y0688332D01*
X0405977Y0688838D01*
X0405542Y0689354D01*
X0405120Y0689881D01*
X0404712Y0690418D01*
X0404316Y0690965D01*
X0403935Y0691522D01*
X0403567Y0692088D01*
X0403212Y0692662D01*
X0402873Y0693245D01*
X0402547Y0693837D01*
X0402236Y0694436D01*
X0401940Y0695042D01*
X0401659Y0695656D01*
X0401393Y0696276D01*
X0401143Y0696903D01*
X0400908Y0697536D01*
X0400688Y0698174D01*
X0400484Y0698817D01*
X0400296Y0699465D01*
X0400124Y0700118D01*
X0399968Y0700775D01*
X0399828Y0701435D01*
X0399705Y0702099D01*
X0399598Y0702765D01*
X0399507Y0703434D01*
X0399432Y0704105D01*
X0399375Y0704777D01*
X0399333Y0705451D01*
X0399308Y0706125D01*
X0399300Y0706800D01*
X0426800Y0709300D02*
X0426800Y0711300D01*
X0054800Y0528800D02*
X0052800Y0528800D01*
X0052800Y0533800D01*
X0032800Y0533800D01*
X0032800Y0528800D01*
X0032800Y0523800D01*
X0052800Y0523800D01*
X0052800Y0528800D01*
X0032800Y0528800D02*
X0030800Y0528800D01*
D12*
X0386800Y0262800D02*
X0391800Y0262800D01*
X0396800Y0262800D01*
X0396800Y0259300D02*
X0391800Y0259300D01*
X0386800Y0259300D01*
X0406800Y0259300D02*
X0411800Y0259300D01*
X0416800Y0259300D01*
X0416800Y0262800D02*
X0411800Y0262800D01*
X0406800Y0262800D01*
X0427800Y0262800D02*
X0432800Y0262800D01*
X0437800Y0262800D01*
X0437800Y0259300D02*
X0432800Y0259300D01*
X0427800Y0259300D01*
X0479300Y0276800D02*
X0486800Y0276800D01*
X0494300Y0276800D01*
X0494300Y0280300D02*
X0486800Y0280300D01*
X0479300Y0280300D01*
X0479300Y0108300D02*
X0486800Y0108300D01*
X0494300Y0108300D01*
X0494300Y0104800D02*
X0486800Y0104800D01*
X0479300Y0104800D01*
X0440800Y0090800D02*
X0435800Y0090800D01*
X0430800Y0090800D01*
X0430800Y0087300D02*
X0435800Y0087300D01*
X0440800Y0087300D01*
X0416800Y0087300D02*
X0411800Y0087300D01*
X0406800Y0087300D01*
X0406800Y0090800D02*
X0411800Y0090800D01*
X0416800Y0090800D01*
X0394800Y0090800D02*
X0389800Y0090800D01*
X0384800Y0090800D01*
X0384800Y0087300D02*
X0389800Y0087300D01*
X0394800Y0087300D01*
D13*
X0365800Y0088300D02*
X0365800Y0089800D01*
X0365800Y0121800D02*
X0365800Y0123300D01*
X0367800Y0261300D02*
X0367800Y0262800D01*
X0367800Y0294800D02*
X0367800Y0296300D01*
D14*
X0367800Y0298000D03*
X0367800Y0293000D03*
X0367800Y0264600D03*
X0367800Y0259600D03*
X0365800Y0125000D03*
X0365800Y0120000D03*
X0365800Y0091600D03*
X0365800Y0086600D03*
D15*
X0444898Y0460804D02*
X0474800Y0460804D01*
X0474800Y0499288D01*
X0467713Y0499288D01*
X0467713Y0489741D01*
X0451985Y0489741D01*
X0451985Y0499288D01*
X0444898Y0499288D01*
X0444898Y0460804D01*
X0451985Y0499288D02*
X0467713Y0499288D01*
X0476288Y0511005D02*
X0476288Y0518091D01*
X0466741Y0518091D01*
X0466741Y0549410D01*
X0476288Y0549410D01*
X0476288Y0556497D01*
X0437804Y0556497D01*
X0437804Y0511005D01*
X0476288Y0511005D01*
X0476288Y0518091D02*
X0476288Y0549410D01*
X0479800Y0598804D02*
X0449898Y0598804D01*
X0449898Y0637288D01*
X0456985Y0637288D01*
X0456985Y0627741D01*
X0472713Y0627741D01*
X0472713Y0637288D01*
X0456985Y0637288D01*
X0472713Y0637288D02*
X0479800Y0637288D01*
X0479800Y0598804D01*
X0071288Y0224497D02*
X0071288Y0217410D01*
X0061741Y0217410D01*
X0061741Y0186091D01*
X0071288Y0186091D01*
X0071288Y0217410D01*
X0071288Y0224497D02*
X0032804Y0224497D01*
X0032804Y0179005D01*
X0071288Y0179005D01*
X0071288Y0186091D01*
X0042288Y0243005D02*
X0003804Y0243005D01*
X0003804Y0288497D01*
X0042288Y0288497D01*
X0042288Y0281410D01*
X0032741Y0281410D01*
X0032741Y0250091D01*
X0042288Y0250091D01*
X0042288Y0281410D01*
X0042288Y0250091D02*
X0042288Y0243005D01*
D16*
X0373550Y0225550D03*
X0380050Y0225550D03*
X0397550Y0396550D03*
X0404050Y0396550D03*
D17*
X0400800Y0395550D03*
X0376800Y0224550D03*
D18*
X0478300Y0222800D03*
X0477300Y0052800D03*
D19*
X0483550Y0052800D03*
X0460050Y0052800D03*
X0461050Y0222800D03*
X0484550Y0222800D03*
D20*
X0426800Y0709050D03*
D21*
X0378550Y0522800D03*
D22*
X0399600Y0441300D02*
X0399600Y0438800D01*
X0399600Y0436300D01*
X0402100Y0436300D02*
X0402100Y0438800D01*
X0402100Y0441300D01*
X0444500Y0657300D02*
X0444500Y0659800D01*
X0444500Y0662300D01*
X0447000Y0662300D02*
X0447000Y0659800D01*
X0447000Y0657300D01*
D23*
X0394800Y0561076D02*
X0052280Y0561076D01*
X0052280Y0765800D01*
X0394800Y0765800D01*
X0394800Y0561076D01*
M02*
