G75*
%MOIN*%
%OFA0B0*%
%FSLAX25Y25*%
%IPPOS*%
%LPD*%
%AMOC8*
5,1,8,0,0,1.08239X$1,22.5*
%
%ADD10C,0.07087*%
%ADD11C,0.11850*%
%ADD12OC8,0.05600*%
%ADD13OC8,0.05200*%
%ADD14C,0.10039*%
%ADD15C,0.06000*%
%ADD16OC8,0.07050*%
%ADD17C,0.06600*%
%ADD18C,0.10000*%
%ADD19R,0.06496X0.06496*%
%ADD20C,0.06496*%
%ADD21C,0.10000*%
%ADD22OC8,0.10000*%
%ADD23C,0.01600*%
%ADD24C,0.05600*%
%ADD25C,0.08600*%
%ADD26C,0.15000*%
D10*
X0160800Y0062800D03*
X0160800Y0142800D03*
X0160800Y0263800D03*
X0160800Y0343800D03*
X0280800Y0353800D03*
X0280800Y0253800D03*
X0280800Y0152800D03*
X0280800Y0052800D03*
D11*
X0522875Y0052800D02*
X0534725Y0052800D01*
X0533725Y0222800D02*
X0521875Y0222800D01*
D12*
X0432800Y0252800D03*
X0411800Y0252800D03*
X0391800Y0252800D03*
X0391800Y0282800D03*
X0411800Y0282800D03*
X0432800Y0282800D03*
X0435800Y0110800D03*
X0411800Y0110800D03*
X0389800Y0110800D03*
X0389800Y0080800D03*
X0411800Y0080800D03*
X0435800Y0080800D03*
D13*
X0365800Y0080800D03*
X0365800Y0130800D03*
X0367800Y0253800D03*
X0367800Y0303800D03*
X0390800Y0438800D03*
X0410800Y0438800D03*
X0435800Y0659800D03*
X0455800Y0659800D03*
X0057800Y0528800D03*
X0027800Y0528800D03*
D14*
X0027820Y0281391D02*
X0017780Y0281391D01*
X0017780Y0265800D02*
X0027820Y0265800D01*
X0027820Y0250209D02*
X0017780Y0250209D01*
X0046780Y0217391D02*
X0056820Y0217391D01*
X0056820Y0201800D02*
X0046780Y0201800D01*
X0046780Y0186209D02*
X0056820Y0186209D01*
X0452005Y0474780D02*
X0452005Y0484820D01*
X0467595Y0484820D02*
X0467595Y0474780D01*
X0461820Y0518209D02*
X0451780Y0518209D01*
X0451780Y0533800D02*
X0461820Y0533800D01*
X0461820Y0549391D02*
X0451780Y0549391D01*
X0457005Y0612780D02*
X0457005Y0622820D01*
X0472595Y0622820D02*
X0472595Y0612780D01*
D15*
X0395800Y0383300D02*
X0395800Y0377300D01*
X0405800Y0363300D02*
X0405800Y0357300D01*
X0395800Y0333300D02*
X0395800Y0327300D01*
X0371800Y0212300D02*
X0371800Y0206300D01*
X0381800Y0192300D02*
X0381800Y0186300D01*
X0371800Y0162300D02*
X0371800Y0156300D01*
D16*
X0486800Y0188800D03*
X0486800Y0252800D03*
X0486800Y0360800D03*
X0486800Y0080800D03*
D17*
X0491800Y0052800D03*
X0451800Y0052800D03*
X0452800Y0222800D03*
X0492800Y0222800D03*
D18*
X0532800Y0222800D01*
X0486800Y0252800D02*
X0277800Y0252800D01*
X0280800Y0253800D01*
X0265800Y0201800D02*
X0125800Y0201800D01*
X0160800Y0103800D02*
X0160800Y0101800D01*
X0274800Y0190800D02*
X0265800Y0201800D01*
X0274800Y0190800D02*
X0275800Y0187800D01*
X0372800Y0187800D01*
X0373800Y0188800D01*
X0401800Y0188800D01*
X0381800Y0189300D01*
X0372800Y0187800D02*
X0371800Y0188800D01*
X0371800Y0209300D01*
X0401800Y0188800D02*
X0433800Y0188800D01*
X0433800Y0110800D01*
X0432800Y0112800D01*
X0433800Y0110800D02*
X0389800Y0110800D01*
X0389800Y0080800D02*
X0331800Y0080800D01*
X0303800Y0052800D01*
X0280800Y0052800D01*
X0280800Y0152800D02*
X0275800Y0187800D01*
X0391800Y0282800D02*
X0432800Y0282800D01*
X0432800Y0358800D01*
X0433800Y0357800D01*
X0433800Y0358800D01*
X0432800Y0359800D01*
X0395056Y0359800D01*
X0394983Y0359873D01*
X0395800Y0380300D01*
X0394983Y0359873D02*
X0394800Y0355300D01*
X0393800Y0353800D02*
X0280800Y0353800D01*
X0166800Y0353800D01*
X0160800Y0343800D01*
X0062643Y0448800D02*
X0052643Y0448800D01*
X0042957Y0448800D02*
X0032957Y0448800D01*
X0056957Y0489800D02*
X0066957Y0489800D01*
X0076643Y0489800D02*
X0086643Y0489800D01*
X0305548Y0479879D02*
X0363800Y0479879D01*
X0362800Y0479800D01*
X0390800Y0479800D01*
X0452005Y0479800D01*
X0456800Y0533800D02*
X0390800Y0533800D01*
X0390800Y0522800D01*
X0390800Y0479800D01*
X0390800Y0438800D01*
X0432800Y0360800D02*
X0432800Y0359800D01*
X0432800Y0358800D01*
X0432800Y0360800D02*
X0488300Y0360800D01*
X0452800Y0250800D02*
X0452800Y0222800D01*
X0433800Y0188800D02*
X0486800Y0188800D01*
X0478800Y0081300D02*
X0486800Y0080800D01*
X0451814Y0081017D01*
X0451800Y0081004D01*
X0451800Y0052800D01*
X0451814Y0081017D02*
X0406300Y0081300D01*
X0389800Y0080800D01*
X0491800Y0052800D02*
X0528800Y0052800D01*
X0532800Y0056800D01*
X0456800Y0549391D02*
X0456800Y0585800D01*
X0457005Y0585800D01*
X0454918Y0583713D01*
X0372359Y0583713D01*
X0426800Y0696800D02*
X0437800Y0696800D01*
X0455800Y0678800D01*
X0455800Y0677800D01*
X0456800Y0676800D01*
X0456800Y0665005D01*
X0457005Y0664800D01*
X0457005Y0666595D01*
X0457005Y0664800D02*
X0457005Y0617800D01*
X0457005Y0585800D01*
D19*
X0372359Y0583713D03*
X0305548Y0448383D03*
D20*
X0305548Y0479879D03*
X0372359Y0605367D03*
X0153973Y0490706D03*
X0153973Y0448383D03*
X0069209Y0719540D03*
X0069209Y0746115D03*
D21*
X0390800Y0522800D03*
X0426800Y0696800D03*
D22*
X0426800Y0716800D03*
X0370800Y0522800D03*
D23*
X0008200Y0243964D02*
X0008200Y0008199D01*
X0198813Y0008171D01*
X0199221Y0170527D01*
X0193038Y0176600D01*
X0063015Y0176600D01*
X0061228Y0175568D01*
X0058323Y0174790D01*
X0045277Y0174790D01*
X0042372Y0175568D01*
X0039768Y0177071D01*
X0037642Y0179198D01*
X0036139Y0181802D01*
X0035361Y0184706D01*
X0035361Y0187713D01*
X0036139Y0190617D01*
X0037642Y0193221D01*
X0039768Y0195347D01*
X0042372Y0196851D01*
X0045277Y0197629D01*
X0058323Y0197629D01*
X0061228Y0196851D01*
X0063832Y0195347D01*
X0064179Y0195000D01*
X0196758Y0195000D01*
X0198547Y0195016D01*
X0198587Y0195000D01*
X0198630Y0195000D01*
X0199282Y0194730D01*
X0199316Y0208191D01*
X0198418Y0208191D01*
X0196614Y0208180D01*
X0196588Y0208191D01*
X0063724Y0208191D01*
X0061228Y0206749D01*
X0058323Y0205971D01*
X0045277Y0205971D01*
X0042372Y0206749D01*
X0039768Y0208253D01*
X0037642Y0210379D01*
X0036139Y0212983D01*
X0035361Y0215887D01*
X0035361Y0218894D01*
X0036139Y0221798D01*
X0037642Y0224402D01*
X0039768Y0226529D01*
X0042372Y0228032D01*
X0045277Y0228810D01*
X0058323Y0228810D01*
X0061228Y0228032D01*
X0063724Y0226591D01*
X0194548Y0226591D01*
X0199375Y0231473D01*
X0199786Y0395400D01*
X0008200Y0395400D01*
X0008200Y0287636D01*
X0008642Y0288402D01*
X0010768Y0290529D01*
X0013372Y0292032D01*
X0016277Y0292810D01*
X0029323Y0292810D01*
X0031733Y0292164D01*
X0143065Y0293081D01*
X0143410Y0293153D01*
X0144469Y0293093D01*
X0145530Y0293102D01*
X0145871Y0293013D01*
X0146223Y0292993D01*
X0147231Y0292661D01*
X0148257Y0292395D01*
X0148564Y0292221D01*
X0148899Y0292111D01*
X0149786Y0291529D01*
X0150709Y0291006D01*
X0150960Y0290759D01*
X0151255Y0290566D01*
X0151961Y0289775D01*
X0152717Y0289031D01*
X0152896Y0288727D01*
X0169721Y0269873D01*
X0170989Y0267357D01*
X0171563Y0264599D01*
X0171403Y0261786D01*
X0170520Y0259111D01*
X0168975Y0256755D01*
X0166873Y0254879D01*
X0164357Y0253611D01*
X0161599Y0253037D01*
X0158786Y0253197D01*
X0156111Y0254080D01*
X0153755Y0255625D01*
X0139452Y0271651D01*
X0032260Y0270768D01*
X0032228Y0270749D01*
X0029323Y0269971D01*
X0016277Y0269971D01*
X0013372Y0270749D01*
X0010768Y0272253D01*
X0008642Y0274379D01*
X0008200Y0275145D01*
X0008200Y0256455D01*
X0008642Y0257221D01*
X0010768Y0259347D01*
X0013372Y0260851D01*
X0016277Y0261629D01*
X0029323Y0261629D01*
X0032228Y0260851D01*
X0034832Y0259347D01*
X0036958Y0257221D01*
X0038461Y0254617D01*
X0039239Y0251713D01*
X0039239Y0248706D01*
X0038461Y0245802D01*
X0036958Y0243198D01*
X0034832Y0241071D01*
X0033500Y0240303D01*
X0033500Y0152232D01*
X0112232Y0073500D01*
X0162209Y0073500D01*
X0164930Y0072771D01*
X0167370Y0071362D01*
X0169362Y0069370D01*
X0170771Y0066930D01*
X0171500Y0064209D01*
X0171500Y0061391D01*
X0170771Y0058670D01*
X0169362Y0056230D01*
X0167370Y0054238D01*
X0164930Y0052829D01*
X0162209Y0052100D01*
X0106391Y0052100D01*
X0103670Y0052829D01*
X0101230Y0054238D01*
X0099238Y0056230D01*
X0014238Y0141230D01*
X0012829Y0143670D01*
X0012100Y0146391D01*
X0012100Y0240303D01*
X0010768Y0241071D01*
X0008642Y0243198D01*
X0008200Y0243964D01*
X0008200Y0243774D02*
X0008310Y0243774D01*
X0008200Y0242175D02*
X0009665Y0242175D01*
X0008200Y0240577D02*
X0011625Y0240577D01*
X0012100Y0238978D02*
X0008200Y0238978D01*
X0008200Y0237380D02*
X0012100Y0237380D01*
X0012100Y0235781D02*
X0008200Y0235781D01*
X0008200Y0234183D02*
X0012100Y0234183D01*
X0012100Y0232584D02*
X0008200Y0232584D01*
X0008200Y0230986D02*
X0012100Y0230986D01*
X0012100Y0229387D02*
X0008200Y0229387D01*
X0008200Y0227789D02*
X0012100Y0227789D01*
X0012100Y0226190D02*
X0008200Y0226190D01*
X0008200Y0224592D02*
X0012100Y0224592D01*
X0012100Y0222993D02*
X0008200Y0222993D01*
X0008200Y0221395D02*
X0012100Y0221395D01*
X0012100Y0219796D02*
X0008200Y0219796D01*
X0008200Y0218198D02*
X0012100Y0218198D01*
X0012100Y0216599D02*
X0008200Y0216599D01*
X0008200Y0215001D02*
X0012100Y0215001D01*
X0012100Y0213402D02*
X0008200Y0213402D01*
X0008200Y0211803D02*
X0012100Y0211803D01*
X0012100Y0210205D02*
X0008200Y0210205D01*
X0008200Y0208606D02*
X0012100Y0208606D01*
X0012100Y0207008D02*
X0008200Y0207008D01*
X0008200Y0205409D02*
X0012100Y0205409D01*
X0012100Y0203811D02*
X0008200Y0203811D01*
X0008200Y0202212D02*
X0012100Y0202212D01*
X0012100Y0200614D02*
X0008200Y0200614D01*
X0008200Y0199015D02*
X0012100Y0199015D01*
X0012100Y0197417D02*
X0008200Y0197417D01*
X0008200Y0195818D02*
X0012100Y0195818D01*
X0012100Y0194220D02*
X0008200Y0194220D01*
X0008200Y0192621D02*
X0012100Y0192621D01*
X0012100Y0191023D02*
X0008200Y0191023D01*
X0008200Y0189424D02*
X0012100Y0189424D01*
X0012100Y0187826D02*
X0008200Y0187826D01*
X0008200Y0186227D02*
X0012100Y0186227D01*
X0012100Y0184629D02*
X0008200Y0184629D01*
X0008200Y0183030D02*
X0012100Y0183030D01*
X0012100Y0181432D02*
X0008200Y0181432D01*
X0008200Y0179833D02*
X0012100Y0179833D01*
X0012100Y0178235D02*
X0008200Y0178235D01*
X0008200Y0176636D02*
X0012100Y0176636D01*
X0012100Y0175038D02*
X0008200Y0175038D01*
X0008200Y0173439D02*
X0012100Y0173439D01*
X0012100Y0171841D02*
X0008200Y0171841D01*
X0008200Y0170242D02*
X0012100Y0170242D01*
X0012100Y0168644D02*
X0008200Y0168644D01*
X0008200Y0167045D02*
X0012100Y0167045D01*
X0012100Y0165447D02*
X0008200Y0165447D01*
X0008200Y0163848D02*
X0012100Y0163848D01*
X0012100Y0162250D02*
X0008200Y0162250D01*
X0008200Y0160651D02*
X0012100Y0160651D01*
X0012100Y0159053D02*
X0008200Y0159053D01*
X0008200Y0157454D02*
X0012100Y0157454D01*
X0012100Y0155856D02*
X0008200Y0155856D01*
X0008200Y0154257D02*
X0012100Y0154257D01*
X0012100Y0152659D02*
X0008200Y0152659D01*
X0008200Y0151060D02*
X0012100Y0151060D01*
X0012100Y0149462D02*
X0008200Y0149462D01*
X0008200Y0147863D02*
X0012100Y0147863D01*
X0012134Y0146265D02*
X0008200Y0146265D01*
X0008200Y0144666D02*
X0012562Y0144666D01*
X0013177Y0143068D02*
X0008200Y0143068D01*
X0008200Y0141469D02*
X0014100Y0141469D01*
X0015597Y0139870D02*
X0008200Y0139870D01*
X0008200Y0138272D02*
X0017196Y0138272D01*
X0018794Y0136673D02*
X0008200Y0136673D01*
X0008200Y0135075D02*
X0020393Y0135075D01*
X0021991Y0133476D02*
X0008200Y0133476D01*
X0008200Y0131878D02*
X0023590Y0131878D01*
X0025188Y0130279D02*
X0008200Y0130279D01*
X0008200Y0128681D02*
X0026787Y0128681D01*
X0028386Y0127082D02*
X0008200Y0127082D01*
X0008200Y0125484D02*
X0029984Y0125484D01*
X0031583Y0123885D02*
X0008200Y0123885D01*
X0008200Y0122287D02*
X0033181Y0122287D01*
X0034780Y0120688D02*
X0008200Y0120688D01*
X0008200Y0119090D02*
X0036378Y0119090D01*
X0037977Y0117491D02*
X0008200Y0117491D01*
X0008200Y0115893D02*
X0039575Y0115893D01*
X0041174Y0114294D02*
X0008200Y0114294D01*
X0008200Y0112696D02*
X0042772Y0112696D01*
X0044371Y0111097D02*
X0008200Y0111097D01*
X0008200Y0109499D02*
X0045969Y0109499D01*
X0047568Y0107900D02*
X0008200Y0107900D01*
X0008200Y0106302D02*
X0049166Y0106302D01*
X0050765Y0104703D02*
X0008200Y0104703D01*
X0008200Y0103105D02*
X0052363Y0103105D01*
X0053962Y0101506D02*
X0008200Y0101506D01*
X0008200Y0099908D02*
X0055560Y0099908D01*
X0057159Y0098309D02*
X0008200Y0098309D01*
X0008200Y0096711D02*
X0058757Y0096711D01*
X0060356Y0095112D02*
X0008200Y0095112D01*
X0008200Y0093514D02*
X0061954Y0093514D01*
X0063553Y0091915D02*
X0008200Y0091915D01*
X0008200Y0090317D02*
X0065151Y0090317D01*
X0066750Y0088718D02*
X0008200Y0088718D01*
X0008200Y0087120D02*
X0068348Y0087120D01*
X0069947Y0085521D02*
X0008200Y0085521D01*
X0008200Y0083923D02*
X0071545Y0083923D01*
X0073144Y0082324D02*
X0008200Y0082324D01*
X0008200Y0080726D02*
X0074742Y0080726D01*
X0076341Y0079127D02*
X0008200Y0079127D01*
X0008200Y0077529D02*
X0077939Y0077529D01*
X0079538Y0075930D02*
X0008200Y0075930D01*
X0008200Y0074332D02*
X0081136Y0074332D01*
X0082735Y0072733D02*
X0008200Y0072733D01*
X0008200Y0071134D02*
X0084333Y0071134D01*
X0085932Y0069536D02*
X0008200Y0069536D01*
X0008200Y0067937D02*
X0087530Y0067937D01*
X0089129Y0066339D02*
X0008200Y0066339D01*
X0008200Y0064740D02*
X0046486Y0064740D01*
X0046444Y0064729D02*
X0043281Y0062903D01*
X0040697Y0060319D01*
X0038871Y0057156D01*
X0037925Y0053627D01*
X0037925Y0049973D01*
X0038871Y0046444D01*
X0040697Y0043281D01*
X0043281Y0040697D01*
X0046444Y0038871D01*
X0049973Y0037925D01*
X0053627Y0037925D01*
X0057156Y0038871D01*
X0060319Y0040697D01*
X0062903Y0043281D01*
X0064729Y0046444D01*
X0065675Y0049973D01*
X0065675Y0053627D01*
X0064729Y0057156D01*
X0062903Y0060319D01*
X0060319Y0062903D01*
X0057156Y0064729D01*
X0053627Y0065675D01*
X0049973Y0065675D01*
X0046444Y0064729D01*
X0043695Y0063142D02*
X0008200Y0063142D01*
X0008200Y0061543D02*
X0041921Y0061543D01*
X0040481Y0059945D02*
X0008200Y0059945D01*
X0008200Y0058346D02*
X0039558Y0058346D01*
X0038761Y0056748D02*
X0008200Y0056748D01*
X0008200Y0055149D02*
X0038333Y0055149D01*
X0037925Y0053551D02*
X0008200Y0053551D01*
X0008200Y0051952D02*
X0037925Y0051952D01*
X0037925Y0050354D02*
X0008200Y0050354D01*
X0008200Y0048755D02*
X0038251Y0048755D01*
X0038680Y0047157D02*
X0008200Y0047157D01*
X0008200Y0045558D02*
X0039382Y0045558D01*
X0040305Y0043960D02*
X0008200Y0043960D01*
X0008200Y0042361D02*
X0041616Y0042361D01*
X0043215Y0040763D02*
X0008200Y0040763D01*
X0008200Y0039164D02*
X0045936Y0039164D01*
X0057664Y0039164D02*
X0198891Y0039164D01*
X0198887Y0037566D02*
X0008200Y0037566D01*
X0008200Y0035967D02*
X0198883Y0035967D01*
X0198879Y0034369D02*
X0008200Y0034369D01*
X0008200Y0032770D02*
X0198875Y0032770D01*
X0198871Y0031172D02*
X0008200Y0031172D01*
X0008200Y0029573D02*
X0198867Y0029573D01*
X0198863Y0027975D02*
X0008200Y0027975D01*
X0008200Y0026376D02*
X0198859Y0026376D01*
X0198855Y0024778D02*
X0008200Y0024778D01*
X0008200Y0023179D02*
X0198851Y0023179D01*
X0198847Y0021581D02*
X0008200Y0021581D01*
X0008200Y0019982D02*
X0198843Y0019982D01*
X0198839Y0018384D02*
X0008200Y0018384D01*
X0008200Y0016785D02*
X0198835Y0016785D01*
X0198831Y0015187D02*
X0008200Y0015187D01*
X0008200Y0013588D02*
X0198827Y0013588D01*
X0198823Y0011990D02*
X0008200Y0011990D01*
X0008200Y0010391D02*
X0198819Y0010391D01*
X0198815Y0008793D02*
X0008200Y0008793D01*
X0057114Y0064740D02*
X0090727Y0064740D01*
X0092326Y0063142D02*
X0059905Y0063142D01*
X0061679Y0061543D02*
X0093924Y0061543D01*
X0095523Y0059945D02*
X0063119Y0059945D01*
X0064042Y0058346D02*
X0097122Y0058346D01*
X0098720Y0056748D02*
X0064839Y0056748D01*
X0065267Y0055149D02*
X0100319Y0055149D01*
X0102420Y0053551D02*
X0065675Y0053551D01*
X0065675Y0051952D02*
X0198923Y0051952D01*
X0198919Y0050354D02*
X0065675Y0050354D01*
X0065349Y0048755D02*
X0198915Y0048755D01*
X0198911Y0047157D02*
X0064920Y0047157D01*
X0064218Y0045558D02*
X0198907Y0045558D01*
X0198903Y0043960D02*
X0063295Y0043960D01*
X0061984Y0042361D02*
X0198899Y0042361D01*
X0198895Y0040763D02*
X0060385Y0040763D01*
X0097014Y0088718D02*
X0199016Y0088718D01*
X0199012Y0087120D02*
X0098612Y0087120D01*
X0100211Y0085521D02*
X0199008Y0085521D01*
X0199004Y0083923D02*
X0101809Y0083923D01*
X0103408Y0082324D02*
X0199000Y0082324D01*
X0198996Y0080726D02*
X0105006Y0080726D01*
X0106605Y0079127D02*
X0198992Y0079127D01*
X0198988Y0077529D02*
X0108204Y0077529D01*
X0109802Y0075930D02*
X0198984Y0075930D01*
X0198980Y0074332D02*
X0111401Y0074332D01*
X0095415Y0090317D02*
X0199020Y0090317D01*
X0199024Y0091915D02*
X0093817Y0091915D01*
X0092218Y0093514D02*
X0199028Y0093514D01*
X0199032Y0095112D02*
X0090620Y0095112D01*
X0089021Y0096711D02*
X0199036Y0096711D01*
X0199040Y0098309D02*
X0087423Y0098309D01*
X0085824Y0099908D02*
X0199044Y0099908D01*
X0199048Y0101506D02*
X0084226Y0101506D01*
X0082627Y0103105D02*
X0199052Y0103105D01*
X0199056Y0104703D02*
X0081029Y0104703D01*
X0079430Y0106302D02*
X0199060Y0106302D01*
X0199064Y0107900D02*
X0077832Y0107900D01*
X0076233Y0109499D02*
X0199068Y0109499D01*
X0199072Y0111097D02*
X0074635Y0111097D01*
X0073036Y0112696D02*
X0199076Y0112696D01*
X0199080Y0114294D02*
X0071438Y0114294D01*
X0069839Y0115893D02*
X0199084Y0115893D01*
X0199088Y0117491D02*
X0068241Y0117491D01*
X0066642Y0119090D02*
X0199092Y0119090D01*
X0199096Y0120688D02*
X0065044Y0120688D01*
X0063445Y0122287D02*
X0199100Y0122287D01*
X0199104Y0123885D02*
X0061847Y0123885D01*
X0060248Y0125484D02*
X0199108Y0125484D01*
X0199112Y0127082D02*
X0058650Y0127082D01*
X0057051Y0128681D02*
X0199116Y0128681D01*
X0199120Y0130279D02*
X0055453Y0130279D01*
X0053854Y0131878D02*
X0199124Y0131878D01*
X0199128Y0133476D02*
X0052256Y0133476D01*
X0050657Y0135075D02*
X0199132Y0135075D01*
X0199136Y0136673D02*
X0049059Y0136673D01*
X0047460Y0138272D02*
X0199140Y0138272D01*
X0199144Y0139870D02*
X0045862Y0139870D01*
X0044263Y0141469D02*
X0199148Y0141469D01*
X0199152Y0143068D02*
X0042665Y0143068D01*
X0041066Y0144666D02*
X0199156Y0144666D01*
X0199160Y0146265D02*
X0039468Y0146265D01*
X0037869Y0147863D02*
X0199164Y0147863D01*
X0199168Y0149462D02*
X0036271Y0149462D01*
X0034672Y0151060D02*
X0199173Y0151060D01*
X0199177Y0152659D02*
X0033500Y0152659D01*
X0033500Y0154257D02*
X0199181Y0154257D01*
X0199185Y0155856D02*
X0033500Y0155856D01*
X0033500Y0157454D02*
X0199189Y0157454D01*
X0199193Y0159053D02*
X0033500Y0159053D01*
X0033500Y0160651D02*
X0199197Y0160651D01*
X0199201Y0162250D02*
X0033500Y0162250D01*
X0033500Y0163848D02*
X0199205Y0163848D01*
X0199209Y0165447D02*
X0033500Y0165447D01*
X0033500Y0167045D02*
X0199213Y0167045D01*
X0199217Y0168644D02*
X0033500Y0168644D01*
X0033500Y0170242D02*
X0199221Y0170242D01*
X0197884Y0171841D02*
X0033500Y0171841D01*
X0033500Y0173439D02*
X0196256Y0173439D01*
X0194628Y0175038D02*
X0059249Y0175038D01*
X0044351Y0175038D02*
X0033500Y0175038D01*
X0033500Y0176636D02*
X0040522Y0176636D01*
X0038605Y0178235D02*
X0033500Y0178235D01*
X0033500Y0179833D02*
X0037275Y0179833D01*
X0036352Y0181432D02*
X0033500Y0181432D01*
X0033500Y0183030D02*
X0035810Y0183030D01*
X0035381Y0184629D02*
X0033500Y0184629D01*
X0033500Y0186227D02*
X0035361Y0186227D01*
X0035391Y0187826D02*
X0033500Y0187826D01*
X0033500Y0189424D02*
X0035819Y0189424D01*
X0036373Y0191023D02*
X0033500Y0191023D01*
X0033500Y0192621D02*
X0037296Y0192621D01*
X0038641Y0194220D02*
X0033500Y0194220D01*
X0033500Y0195818D02*
X0040584Y0195818D01*
X0044485Y0197417D02*
X0033500Y0197417D01*
X0033500Y0199015D02*
X0199293Y0199015D01*
X0199289Y0197417D02*
X0059115Y0197417D01*
X0063016Y0195818D02*
X0199285Y0195818D01*
X0199297Y0200614D02*
X0033500Y0200614D01*
X0033500Y0202212D02*
X0199301Y0202212D01*
X0199305Y0203811D02*
X0033500Y0203811D01*
X0033500Y0205409D02*
X0199309Y0205409D01*
X0199313Y0207008D02*
X0061676Y0207008D01*
X0061649Y0227789D02*
X0195733Y0227789D01*
X0197313Y0229387D02*
X0033500Y0229387D01*
X0033500Y0227789D02*
X0041951Y0227789D01*
X0039430Y0226190D02*
X0033500Y0226190D01*
X0033500Y0224592D02*
X0037831Y0224592D01*
X0036829Y0222993D02*
X0033500Y0222993D01*
X0033500Y0221395D02*
X0036031Y0221395D01*
X0035602Y0219796D02*
X0033500Y0219796D01*
X0033500Y0218198D02*
X0035361Y0218198D01*
X0035361Y0216599D02*
X0033500Y0216599D01*
X0033500Y0215001D02*
X0035598Y0215001D01*
X0036027Y0213402D02*
X0033500Y0213402D01*
X0033500Y0211803D02*
X0036820Y0211803D01*
X0037816Y0210205D02*
X0033500Y0210205D01*
X0033500Y0208606D02*
X0039415Y0208606D01*
X0041924Y0207008D02*
X0033500Y0207008D01*
X0033500Y0230986D02*
X0198893Y0230986D01*
X0199377Y0232584D02*
X0033500Y0232584D01*
X0033500Y0234183D02*
X0199381Y0234183D01*
X0199385Y0235781D02*
X0033500Y0235781D01*
X0033500Y0237380D02*
X0199389Y0237380D01*
X0199393Y0238978D02*
X0033500Y0238978D01*
X0033975Y0240577D02*
X0199397Y0240577D01*
X0199401Y0242175D02*
X0035935Y0242175D01*
X0037290Y0243774D02*
X0199405Y0243774D01*
X0199409Y0245372D02*
X0038213Y0245372D01*
X0038774Y0246971D02*
X0199413Y0246971D01*
X0199418Y0248569D02*
X0039203Y0248569D01*
X0039239Y0250168D02*
X0199422Y0250168D01*
X0199426Y0251766D02*
X0039225Y0251766D01*
X0038797Y0253365D02*
X0158278Y0253365D01*
X0154763Y0254963D02*
X0038261Y0254963D01*
X0037338Y0256562D02*
X0152918Y0256562D01*
X0151492Y0258160D02*
X0036019Y0258160D01*
X0034119Y0259759D02*
X0150065Y0259759D01*
X0148639Y0261357D02*
X0030337Y0261357D01*
X0015263Y0261357D02*
X0008200Y0261357D01*
X0008200Y0259759D02*
X0011481Y0259759D01*
X0009581Y0258160D02*
X0008200Y0258160D01*
X0008200Y0256562D02*
X0008262Y0256562D01*
X0008200Y0262956D02*
X0147212Y0262956D01*
X0145786Y0264554D02*
X0008200Y0264554D01*
X0008200Y0266153D02*
X0144359Y0266153D01*
X0142932Y0267751D02*
X0008200Y0267751D01*
X0008200Y0269350D02*
X0141506Y0269350D01*
X0140079Y0270948D02*
X0054151Y0270948D01*
X0013027Y0270948D02*
X0008200Y0270948D01*
X0008200Y0272547D02*
X0010474Y0272547D01*
X0008876Y0274145D02*
X0008200Y0274145D01*
X0008200Y0288532D02*
X0008772Y0288532D01*
X0008200Y0290131D02*
X0010370Y0290131D01*
X0008200Y0291729D02*
X0012848Y0291729D01*
X0008200Y0293328D02*
X0199530Y0293328D01*
X0199534Y0294926D02*
X0008200Y0294926D01*
X0008200Y0296525D02*
X0199538Y0296525D01*
X0199542Y0298123D02*
X0008200Y0298123D01*
X0008200Y0299722D02*
X0199546Y0299722D01*
X0199550Y0301320D02*
X0008200Y0301320D01*
X0008200Y0302919D02*
X0199554Y0302919D01*
X0199558Y0304517D02*
X0008200Y0304517D01*
X0008200Y0306116D02*
X0199562Y0306116D01*
X0199566Y0307714D02*
X0008200Y0307714D01*
X0008200Y0309313D02*
X0199570Y0309313D01*
X0199574Y0310911D02*
X0008200Y0310911D01*
X0008200Y0312510D02*
X0199578Y0312510D01*
X0199582Y0314108D02*
X0008200Y0314108D01*
X0008200Y0315707D02*
X0199586Y0315707D01*
X0199590Y0317305D02*
X0008200Y0317305D01*
X0008200Y0318904D02*
X0199594Y0318904D01*
X0199598Y0320502D02*
X0008200Y0320502D01*
X0008200Y0322101D02*
X0199602Y0322101D01*
X0199606Y0323699D02*
X0008200Y0323699D01*
X0008200Y0325298D02*
X0199610Y0325298D01*
X0199614Y0326896D02*
X0008200Y0326896D01*
X0008200Y0328495D02*
X0047847Y0328495D01*
X0046444Y0328871D02*
X0049973Y0327925D01*
X0053627Y0327925D01*
X0057156Y0328871D01*
X0060319Y0330697D01*
X0062903Y0333281D01*
X0064729Y0336444D01*
X0065675Y0339973D01*
X0065675Y0343627D01*
X0064729Y0347156D01*
X0062903Y0350319D01*
X0060319Y0352903D01*
X0057156Y0354729D01*
X0053627Y0355675D01*
X0049973Y0355675D01*
X0046444Y0354729D01*
X0043281Y0352903D01*
X0040697Y0350319D01*
X0038871Y0347156D01*
X0037925Y0343627D01*
X0037925Y0339973D01*
X0038871Y0336444D01*
X0040697Y0333281D01*
X0043281Y0330697D01*
X0046444Y0328871D01*
X0044327Y0330093D02*
X0008200Y0330093D01*
X0008200Y0331692D02*
X0042286Y0331692D01*
X0040692Y0333290D02*
X0008200Y0333290D01*
X0008200Y0334889D02*
X0039769Y0334889D01*
X0038859Y0336487D02*
X0008200Y0336487D01*
X0008200Y0338086D02*
X0038431Y0338086D01*
X0038002Y0339684D02*
X0008200Y0339684D01*
X0008200Y0341283D02*
X0037925Y0341283D01*
X0037925Y0342881D02*
X0008200Y0342881D01*
X0008200Y0344480D02*
X0038154Y0344480D01*
X0038582Y0346078D02*
X0008200Y0346078D01*
X0008200Y0347677D02*
X0039172Y0347677D01*
X0040095Y0349275D02*
X0008200Y0349275D01*
X0008200Y0350874D02*
X0041252Y0350874D01*
X0042850Y0352472D02*
X0008200Y0352472D01*
X0008200Y0354071D02*
X0045304Y0354071D01*
X0049953Y0355670D02*
X0008200Y0355670D01*
X0008200Y0357268D02*
X0199691Y0357268D01*
X0199687Y0355670D02*
X0053647Y0355670D01*
X0058296Y0354071D02*
X0199683Y0354071D01*
X0199679Y0352472D02*
X0060750Y0352472D01*
X0062348Y0350874D02*
X0199675Y0350874D01*
X0199671Y0349275D02*
X0063505Y0349275D01*
X0064428Y0347677D02*
X0199667Y0347677D01*
X0199663Y0346078D02*
X0065018Y0346078D01*
X0065446Y0344480D02*
X0199658Y0344480D01*
X0199654Y0342881D02*
X0065675Y0342881D01*
X0065675Y0341283D02*
X0199650Y0341283D01*
X0199646Y0339684D02*
X0065598Y0339684D01*
X0065169Y0338086D02*
X0199642Y0338086D01*
X0199638Y0336487D02*
X0064741Y0336487D01*
X0063831Y0334889D02*
X0199634Y0334889D01*
X0199630Y0333290D02*
X0062908Y0333290D01*
X0061314Y0331692D02*
X0199626Y0331692D01*
X0199622Y0330093D02*
X0059273Y0330093D01*
X0055753Y0328495D02*
X0199618Y0328495D01*
X0199695Y0358867D02*
X0008200Y0358867D01*
X0008200Y0360465D02*
X0199699Y0360465D01*
X0199703Y0362064D02*
X0008200Y0362064D01*
X0008200Y0363662D02*
X0199707Y0363662D01*
X0199711Y0365261D02*
X0008200Y0365261D01*
X0008200Y0366859D02*
X0199715Y0366859D01*
X0199719Y0368458D02*
X0008200Y0368458D01*
X0008200Y0370056D02*
X0199723Y0370056D01*
X0199727Y0371655D02*
X0008200Y0371655D01*
X0008200Y0373253D02*
X0199731Y0373253D01*
X0199735Y0374852D02*
X0008200Y0374852D01*
X0008200Y0376450D02*
X0199739Y0376450D01*
X0199743Y0378049D02*
X0008200Y0378049D01*
X0008200Y0379647D02*
X0199747Y0379647D01*
X0199751Y0381246D02*
X0008200Y0381246D01*
X0008200Y0382844D02*
X0199755Y0382844D01*
X0199759Y0384443D02*
X0008200Y0384443D01*
X0008200Y0386041D02*
X0199763Y0386041D01*
X0199767Y0387640D02*
X0008200Y0387640D01*
X0008200Y0389238D02*
X0199771Y0389238D01*
X0199775Y0390837D02*
X0008200Y0390837D01*
X0008200Y0392435D02*
X0199779Y0392435D01*
X0199783Y0394034D02*
X0008200Y0394034D01*
X0082800Y0504605D02*
X0082800Y0716477D01*
X0083055Y0717334D01*
X0083154Y0720992D01*
X0082800Y0722473D01*
X0082800Y0738142D01*
X0082923Y0738265D01*
X0084753Y0741435D01*
X0085700Y0744970D01*
X0085700Y0748630D01*
X0084753Y0752165D01*
X0082923Y0755335D01*
X0082800Y0755458D01*
X0082800Y0769101D01*
X0168817Y0769101D01*
X0169800Y0502800D01*
X0160643Y0502905D01*
X0159338Y0503658D01*
X0155803Y0504605D01*
X0082800Y0504605D01*
X0082800Y0505930D02*
X0169788Y0505930D01*
X0169783Y0507528D02*
X0082800Y0507528D01*
X0082800Y0509127D02*
X0169777Y0509127D01*
X0169771Y0510725D02*
X0082800Y0510725D01*
X0082800Y0512324D02*
X0169765Y0512324D01*
X0169759Y0513922D02*
X0082800Y0513922D01*
X0082800Y0515521D02*
X0169753Y0515521D01*
X0169747Y0517119D02*
X0082800Y0517119D01*
X0082800Y0518718D02*
X0169741Y0518718D01*
X0169735Y0520316D02*
X0082800Y0520316D01*
X0082800Y0521915D02*
X0169729Y0521915D01*
X0169724Y0523513D02*
X0082800Y0523513D01*
X0082800Y0525112D02*
X0169718Y0525112D01*
X0169712Y0526710D02*
X0082800Y0526710D01*
X0082800Y0528309D02*
X0169706Y0528309D01*
X0169700Y0529907D02*
X0082800Y0529907D01*
X0082800Y0531506D02*
X0169694Y0531506D01*
X0169688Y0533104D02*
X0082800Y0533104D01*
X0082800Y0534703D02*
X0169682Y0534703D01*
X0169676Y0536301D02*
X0082800Y0536301D01*
X0082800Y0537900D02*
X0169670Y0537900D01*
X0169665Y0539498D02*
X0082800Y0539498D01*
X0082800Y0541097D02*
X0169659Y0541097D01*
X0169653Y0542695D02*
X0082800Y0542695D01*
X0082800Y0544294D02*
X0169647Y0544294D01*
X0169641Y0545892D02*
X0082800Y0545892D01*
X0082800Y0547491D02*
X0169635Y0547491D01*
X0169629Y0549089D02*
X0082800Y0549089D01*
X0082800Y0550688D02*
X0169623Y0550688D01*
X0169617Y0552286D02*
X0082800Y0552286D01*
X0082800Y0553885D02*
X0169611Y0553885D01*
X0169606Y0555483D02*
X0082800Y0555483D01*
X0082800Y0557082D02*
X0169600Y0557082D01*
X0169594Y0558680D02*
X0082800Y0558680D01*
X0082800Y0560279D02*
X0169588Y0560279D01*
X0169582Y0561877D02*
X0082800Y0561877D01*
X0082800Y0563476D02*
X0169576Y0563476D01*
X0169570Y0565074D02*
X0082800Y0565074D01*
X0082800Y0566673D02*
X0169564Y0566673D01*
X0169558Y0568272D02*
X0082800Y0568272D01*
X0082800Y0569870D02*
X0169552Y0569870D01*
X0169547Y0571469D02*
X0082800Y0571469D01*
X0082800Y0573067D02*
X0169541Y0573067D01*
X0169535Y0574666D02*
X0082800Y0574666D01*
X0082800Y0576264D02*
X0169529Y0576264D01*
X0169523Y0577863D02*
X0082800Y0577863D01*
X0082800Y0579461D02*
X0169517Y0579461D01*
X0169511Y0581060D02*
X0082800Y0581060D01*
X0082800Y0582658D02*
X0169505Y0582658D01*
X0169499Y0584257D02*
X0082800Y0584257D01*
X0082800Y0585855D02*
X0169494Y0585855D01*
X0169488Y0587454D02*
X0082800Y0587454D01*
X0082800Y0589052D02*
X0169482Y0589052D01*
X0169476Y0590651D02*
X0082800Y0590651D01*
X0082800Y0592249D02*
X0169470Y0592249D01*
X0169464Y0593848D02*
X0082800Y0593848D01*
X0082800Y0595446D02*
X0169458Y0595446D01*
X0169452Y0597045D02*
X0082800Y0597045D01*
X0082800Y0598643D02*
X0169446Y0598643D01*
X0169440Y0600242D02*
X0082800Y0600242D01*
X0082800Y0601840D02*
X0169435Y0601840D01*
X0169429Y0603439D02*
X0082800Y0603439D01*
X0082800Y0605037D02*
X0169423Y0605037D01*
X0169417Y0606636D02*
X0082800Y0606636D01*
X0082800Y0608234D02*
X0169411Y0608234D01*
X0169405Y0609833D02*
X0082800Y0609833D01*
X0082800Y0611431D02*
X0169399Y0611431D01*
X0169393Y0613030D02*
X0082800Y0613030D01*
X0082800Y0614628D02*
X0169387Y0614628D01*
X0169381Y0616227D02*
X0082800Y0616227D01*
X0082800Y0617825D02*
X0169376Y0617825D01*
X0169370Y0619424D02*
X0082800Y0619424D01*
X0082800Y0621022D02*
X0169364Y0621022D01*
X0169358Y0622621D02*
X0082800Y0622621D01*
X0082800Y0624219D02*
X0169352Y0624219D01*
X0169346Y0625818D02*
X0082800Y0625818D01*
X0082800Y0627416D02*
X0169340Y0627416D01*
X0169334Y0629015D02*
X0082800Y0629015D01*
X0082800Y0630613D02*
X0169328Y0630613D01*
X0169322Y0632212D02*
X0082800Y0632212D01*
X0082800Y0633810D02*
X0169317Y0633810D01*
X0169311Y0635409D02*
X0082800Y0635409D01*
X0082800Y0637008D02*
X0169305Y0637008D01*
X0169299Y0638606D02*
X0082800Y0638606D01*
X0082800Y0640205D02*
X0169293Y0640205D01*
X0169287Y0641803D02*
X0082800Y0641803D01*
X0082800Y0643402D02*
X0169281Y0643402D01*
X0169275Y0645000D02*
X0082800Y0645000D01*
X0082800Y0646599D02*
X0169269Y0646599D01*
X0169263Y0648197D02*
X0082800Y0648197D01*
X0082800Y0649796D02*
X0169258Y0649796D01*
X0169252Y0651394D02*
X0082800Y0651394D01*
X0082800Y0652993D02*
X0169246Y0652993D01*
X0169240Y0654591D02*
X0082800Y0654591D01*
X0082800Y0656190D02*
X0169234Y0656190D01*
X0169228Y0657788D02*
X0082800Y0657788D01*
X0082800Y0659387D02*
X0169222Y0659387D01*
X0169216Y0660985D02*
X0082800Y0660985D01*
X0082800Y0662584D02*
X0169210Y0662584D01*
X0169204Y0664182D02*
X0082800Y0664182D01*
X0082800Y0665781D02*
X0169199Y0665781D01*
X0169193Y0667379D02*
X0082800Y0667379D01*
X0082800Y0668978D02*
X0169187Y0668978D01*
X0169181Y0670576D02*
X0082800Y0670576D01*
X0082800Y0672175D02*
X0169175Y0672175D01*
X0169169Y0673773D02*
X0082800Y0673773D01*
X0082800Y0675372D02*
X0169163Y0675372D01*
X0169157Y0676970D02*
X0082800Y0676970D01*
X0082800Y0678569D02*
X0169151Y0678569D01*
X0169145Y0680167D02*
X0082800Y0680167D01*
X0082800Y0681766D02*
X0169140Y0681766D01*
X0169134Y0683364D02*
X0082800Y0683364D01*
X0082800Y0684963D02*
X0169128Y0684963D01*
X0169122Y0686561D02*
X0082800Y0686561D01*
X0082800Y0688160D02*
X0169116Y0688160D01*
X0169110Y0689758D02*
X0082800Y0689758D01*
X0082800Y0691357D02*
X0169104Y0691357D01*
X0169098Y0692955D02*
X0082800Y0692955D01*
X0082800Y0694554D02*
X0169092Y0694554D01*
X0169087Y0696152D02*
X0082800Y0696152D01*
X0082800Y0697751D02*
X0169081Y0697751D01*
X0169075Y0699349D02*
X0082800Y0699349D01*
X0082800Y0700948D02*
X0169069Y0700948D01*
X0169063Y0702546D02*
X0082800Y0702546D01*
X0082800Y0704145D02*
X0169057Y0704145D01*
X0169051Y0705743D02*
X0082800Y0705743D01*
X0082800Y0707342D02*
X0169045Y0707342D01*
X0169039Y0708941D02*
X0082800Y0708941D01*
X0082800Y0710539D02*
X0169033Y0710539D01*
X0169028Y0712138D02*
X0082800Y0712138D01*
X0082800Y0713736D02*
X0169022Y0713736D01*
X0169016Y0715335D02*
X0082800Y0715335D01*
X0082936Y0716933D02*
X0169010Y0716933D01*
X0169004Y0718532D02*
X0083087Y0718532D01*
X0083131Y0720130D02*
X0168998Y0720130D01*
X0168992Y0721729D02*
X0082978Y0721729D01*
X0082800Y0723327D02*
X0168986Y0723327D01*
X0168980Y0724926D02*
X0082800Y0724926D01*
X0082800Y0726524D02*
X0168974Y0726524D01*
X0168969Y0728123D02*
X0082800Y0728123D01*
X0082800Y0729721D02*
X0168963Y0729721D01*
X0168957Y0731320D02*
X0082800Y0731320D01*
X0082800Y0732918D02*
X0168951Y0732918D01*
X0168945Y0734517D02*
X0082800Y0734517D01*
X0082800Y0736115D02*
X0168939Y0736115D01*
X0168933Y0737714D02*
X0082800Y0737714D01*
X0083527Y0739312D02*
X0168927Y0739312D01*
X0168921Y0740911D02*
X0084450Y0740911D01*
X0085041Y0742509D02*
X0168915Y0742509D01*
X0168910Y0744108D02*
X0085469Y0744108D01*
X0085700Y0745706D02*
X0168904Y0745706D01*
X0168898Y0747305D02*
X0085700Y0747305D01*
X0085627Y0748903D02*
X0168892Y0748903D01*
X0168886Y0750502D02*
X0085198Y0750502D01*
X0084770Y0752100D02*
X0168880Y0752100D01*
X0168874Y0753699D02*
X0083867Y0753699D01*
X0082944Y0755297D02*
X0168868Y0755297D01*
X0168862Y0756896D02*
X0082800Y0756896D01*
X0082800Y0758494D02*
X0168856Y0758494D01*
X0168851Y0760093D02*
X0082800Y0760093D01*
X0082800Y0761691D02*
X0168845Y0761691D01*
X0168839Y0763290D02*
X0082800Y0763290D01*
X0082800Y0764888D02*
X0168833Y0764888D01*
X0168827Y0766487D02*
X0082800Y0766487D01*
X0082800Y0768085D02*
X0168821Y0768085D01*
X0164738Y0768085D02*
X0476321Y0768085D01*
X0476321Y0769101D02*
X0476321Y0411200D01*
X0161852Y0411200D01*
X0162054Y0436261D01*
X0164508Y0437677D01*
X0167096Y0440265D01*
X0168926Y0443435D01*
X0169873Y0446970D01*
X0169873Y0450630D01*
X0168926Y0454165D01*
X0167096Y0457335D01*
X0164508Y0459923D01*
X0162256Y0461223D01*
X0162404Y0479523D01*
X0162508Y0479583D01*
X0165096Y0482171D01*
X0166926Y0485340D01*
X0167873Y0488876D01*
X0167873Y0492535D01*
X0166926Y0496071D01*
X0165096Y0499240D01*
X0162584Y0501752D01*
X0164746Y0769101D01*
X0476321Y0769101D01*
X0476321Y0766487D02*
X0164725Y0766487D01*
X0164712Y0764888D02*
X0476321Y0764888D01*
X0476321Y0763290D02*
X0461253Y0763290D01*
X0460472Y0763499D02*
X0457128Y0763499D01*
X0453898Y0762634D01*
X0451002Y0760962D01*
X0448638Y0758597D01*
X0446966Y0755702D01*
X0446101Y0752472D01*
X0446101Y0749128D01*
X0446966Y0745898D01*
X0448638Y0743002D01*
X0451002Y0740638D01*
X0453898Y0738966D01*
X0457128Y0738101D01*
X0460472Y0738101D01*
X0463702Y0738966D01*
X0466597Y0740638D01*
X0468962Y0743002D01*
X0470634Y0745898D01*
X0471499Y0749128D01*
X0471499Y0752472D01*
X0470634Y0755702D01*
X0468962Y0758597D01*
X0466597Y0760962D01*
X0463702Y0762634D01*
X0460472Y0763499D01*
X0456347Y0763290D02*
X0164699Y0763290D01*
X0164686Y0761691D02*
X0452266Y0761691D01*
X0450133Y0760093D02*
X0164673Y0760093D01*
X0164660Y0758494D02*
X0448579Y0758494D01*
X0447656Y0756896D02*
X0164647Y0756896D01*
X0164634Y0755297D02*
X0446858Y0755297D01*
X0446430Y0753699D02*
X0164621Y0753699D01*
X0164608Y0752100D02*
X0446101Y0752100D01*
X0446101Y0750502D02*
X0164595Y0750502D01*
X0164582Y0748903D02*
X0446161Y0748903D01*
X0446589Y0747305D02*
X0164570Y0747305D01*
X0164557Y0745706D02*
X0447077Y0745706D01*
X0448000Y0744108D02*
X0164544Y0744108D01*
X0164531Y0742509D02*
X0449131Y0742509D01*
X0450730Y0740911D02*
X0164518Y0740911D01*
X0164505Y0739312D02*
X0453299Y0739312D01*
X0464301Y0739312D02*
X0476321Y0739312D01*
X0476321Y0737714D02*
X0164492Y0737714D01*
X0164479Y0736115D02*
X0476321Y0736115D01*
X0476321Y0734517D02*
X0164466Y0734517D01*
X0164453Y0732918D02*
X0476321Y0732918D01*
X0476321Y0731320D02*
X0164440Y0731320D01*
X0164427Y0729721D02*
X0476321Y0729721D01*
X0476321Y0728123D02*
X0164414Y0728123D01*
X0164402Y0726524D02*
X0476321Y0726524D01*
X0476321Y0724926D02*
X0164389Y0724926D01*
X0164376Y0723327D02*
X0476321Y0723327D01*
X0476321Y0721729D02*
X0164363Y0721729D01*
X0164350Y0720130D02*
X0476321Y0720130D01*
X0476321Y0718532D02*
X0164337Y0718532D01*
X0164324Y0716933D02*
X0476321Y0716933D01*
X0476321Y0715335D02*
X0164311Y0715335D01*
X0164298Y0713736D02*
X0476321Y0713736D01*
X0476321Y0712138D02*
X0164285Y0712138D01*
X0164272Y0710539D02*
X0476321Y0710539D01*
X0476321Y0708941D02*
X0164259Y0708941D01*
X0164246Y0707342D02*
X0422259Y0707342D01*
X0422400Y0707423D02*
X0419800Y0705922D01*
X0417678Y0703800D01*
X0416177Y0701200D01*
X0415400Y0698301D01*
X0415400Y0695299D01*
X0416177Y0692400D01*
X0417678Y0689800D01*
X0419800Y0687678D01*
X0422400Y0686177D01*
X0425299Y0685400D01*
X0433078Y0685400D01*
X0445312Y0673166D01*
X0445400Y0673013D01*
X0445400Y0663504D01*
X0445605Y0662740D01*
X0445605Y0624397D01*
X0445585Y0624323D01*
X0445585Y0611277D01*
X0445605Y0611203D01*
X0445605Y0595113D01*
X0370858Y0595113D01*
X0367959Y0594336D01*
X0365359Y0592836D01*
X0363237Y0590713D01*
X0361736Y0588114D01*
X0360959Y0585214D01*
X0360959Y0582213D01*
X0361736Y0579313D01*
X0363237Y0576714D01*
X0365359Y0574591D01*
X0367959Y0573090D01*
X0370858Y0572313D01*
X0445400Y0572313D01*
X0445400Y0558893D01*
X0444768Y0558529D01*
X0442642Y0556402D01*
X0441139Y0553798D01*
X0440361Y0550894D01*
X0440361Y0547887D01*
X0441081Y0545200D01*
X0389299Y0545200D01*
X0386400Y0544423D01*
X0383800Y0542922D01*
X0381678Y0540800D01*
X0380177Y0538200D01*
X0379400Y0535301D01*
X0379400Y0491200D01*
X0365595Y0491200D01*
X0365301Y0491279D01*
X0364847Y0491279D01*
X0364401Y0491361D01*
X0363352Y0491279D01*
X0304047Y0491279D01*
X0301148Y0490502D01*
X0298548Y0489001D01*
X0296426Y0486878D01*
X0294925Y0484279D01*
X0294148Y0481380D01*
X0294148Y0478378D01*
X0294925Y0475478D01*
X0296426Y0472879D01*
X0298548Y0470756D01*
X0301148Y0469256D01*
X0304047Y0468479D01*
X0361005Y0468479D01*
X0361299Y0468400D01*
X0361753Y0468400D01*
X0362199Y0468317D01*
X0363248Y0468400D01*
X0379400Y0468400D01*
X0379400Y0437299D01*
X0380177Y0434400D01*
X0381678Y0431800D01*
X0383800Y0429678D01*
X0386400Y0428177D01*
X0389299Y0427400D01*
X0392301Y0427400D01*
X0395200Y0428177D01*
X0397800Y0429678D01*
X0399922Y0431800D01*
X0401423Y0434400D01*
X0402200Y0437299D01*
X0402200Y0468400D01*
X0442502Y0468400D01*
X0442867Y0467768D01*
X0444993Y0465642D01*
X0447597Y0464139D01*
X0450501Y0463361D01*
X0453508Y0463361D01*
X0456413Y0464139D01*
X0459017Y0465642D01*
X0461143Y0467768D01*
X0462646Y0470372D01*
X0463424Y0473277D01*
X0463424Y0486323D01*
X0462646Y0489228D01*
X0461143Y0491832D01*
X0459017Y0493958D01*
X0456413Y0495461D01*
X0453508Y0496239D01*
X0450501Y0496239D01*
X0447597Y0495461D01*
X0444993Y0493958D01*
X0442867Y0491832D01*
X0442502Y0491200D01*
X0402200Y0491200D01*
X0402200Y0522400D01*
X0450203Y0522400D01*
X0450277Y0522380D01*
X0463323Y0522380D01*
X0466228Y0523159D01*
X0468832Y0524662D01*
X0470958Y0526788D01*
X0472461Y0529392D01*
X0473239Y0532297D01*
X0473239Y0535303D01*
X0472461Y0538208D01*
X0470958Y0540812D01*
X0470174Y0541595D01*
X0470958Y0542379D01*
X0472461Y0544983D01*
X0473239Y0547887D01*
X0473239Y0550894D01*
X0472461Y0553798D01*
X0470958Y0556402D01*
X0468832Y0558529D01*
X0468200Y0558893D01*
X0468200Y0583535D01*
X0468405Y0584299D01*
X0468405Y0611203D01*
X0468424Y0611277D01*
X0468424Y0624323D01*
X0468405Y0624397D01*
X0468405Y0668096D01*
X0468200Y0668860D01*
X0468200Y0678301D01*
X0467423Y0681200D01*
X0466557Y0682700D01*
X0466423Y0683200D01*
X0464922Y0685800D01*
X0462800Y0687922D01*
X0444800Y0705922D01*
X0442200Y0707423D01*
X0439301Y0708200D01*
X0428301Y0708200D01*
X0428301Y0708200D01*
X0425299Y0708200D01*
X0422400Y0707423D01*
X0419621Y0705743D02*
X0164233Y0705743D01*
X0164221Y0704145D02*
X0418023Y0704145D01*
X0416954Y0702546D02*
X0164208Y0702546D01*
X0164195Y0700948D02*
X0416109Y0700948D01*
X0415681Y0699349D02*
X0164182Y0699349D01*
X0164169Y0697751D02*
X0415400Y0697751D01*
X0415400Y0696152D02*
X0164156Y0696152D01*
X0164143Y0694554D02*
X0415600Y0694554D01*
X0416028Y0692955D02*
X0164130Y0692955D01*
X0164117Y0691357D02*
X0416779Y0691357D01*
X0417720Y0689758D02*
X0164104Y0689758D01*
X0164091Y0688160D02*
X0419318Y0688160D01*
X0421734Y0686561D02*
X0164078Y0686561D01*
X0164065Y0684963D02*
X0433515Y0684963D01*
X0435114Y0683364D02*
X0164053Y0683364D01*
X0164040Y0681766D02*
X0436712Y0681766D01*
X0438311Y0680167D02*
X0164027Y0680167D01*
X0164014Y0678569D02*
X0439909Y0678569D01*
X0441508Y0676970D02*
X0164001Y0676970D01*
X0163988Y0675372D02*
X0443106Y0675372D01*
X0444705Y0673773D02*
X0163975Y0673773D01*
X0163962Y0672175D02*
X0445400Y0672175D01*
X0445400Y0670576D02*
X0163949Y0670576D01*
X0163936Y0668978D02*
X0445400Y0668978D01*
X0445400Y0667379D02*
X0163923Y0667379D01*
X0163910Y0665781D02*
X0445400Y0665781D01*
X0445400Y0664182D02*
X0163897Y0664182D01*
X0163884Y0662584D02*
X0445605Y0662584D01*
X0445605Y0660985D02*
X0163872Y0660985D01*
X0163859Y0659387D02*
X0445605Y0659387D01*
X0445605Y0657788D02*
X0163846Y0657788D01*
X0163833Y0656190D02*
X0445605Y0656190D01*
X0445605Y0654591D02*
X0163820Y0654591D01*
X0163807Y0652993D02*
X0445605Y0652993D01*
X0445605Y0651394D02*
X0163794Y0651394D01*
X0163781Y0649796D02*
X0445605Y0649796D01*
X0445605Y0648197D02*
X0163768Y0648197D01*
X0163755Y0646599D02*
X0445605Y0646599D01*
X0445605Y0645000D02*
X0163742Y0645000D01*
X0163729Y0643402D02*
X0445605Y0643402D01*
X0445605Y0641803D02*
X0163716Y0641803D01*
X0163704Y0640205D02*
X0445605Y0640205D01*
X0445605Y0638606D02*
X0163691Y0638606D01*
X0163678Y0637008D02*
X0445605Y0637008D01*
X0445605Y0635409D02*
X0163665Y0635409D01*
X0163652Y0633810D02*
X0445605Y0633810D01*
X0445605Y0632212D02*
X0163639Y0632212D01*
X0163626Y0630613D02*
X0445605Y0630613D01*
X0445605Y0629015D02*
X0163613Y0629015D01*
X0163600Y0627416D02*
X0445605Y0627416D01*
X0445605Y0625818D02*
X0163587Y0625818D01*
X0163574Y0624219D02*
X0445585Y0624219D01*
X0445585Y0622621D02*
X0163561Y0622621D01*
X0163548Y0621022D02*
X0445585Y0621022D01*
X0445585Y0619424D02*
X0163535Y0619424D01*
X0163523Y0617825D02*
X0445585Y0617825D01*
X0445585Y0616227D02*
X0163510Y0616227D01*
X0163497Y0614628D02*
X0445585Y0614628D01*
X0445585Y0613030D02*
X0163484Y0613030D01*
X0163471Y0611431D02*
X0445585Y0611431D01*
X0445605Y0609833D02*
X0163458Y0609833D01*
X0163445Y0608234D02*
X0445605Y0608234D01*
X0445605Y0606636D02*
X0163432Y0606636D01*
X0163419Y0605037D02*
X0445605Y0605037D01*
X0445605Y0603439D02*
X0163406Y0603439D01*
X0163393Y0601840D02*
X0445605Y0601840D01*
X0445605Y0600242D02*
X0163380Y0600242D01*
X0163367Y0598643D02*
X0445605Y0598643D01*
X0445605Y0597045D02*
X0163355Y0597045D01*
X0163342Y0595446D02*
X0445605Y0595446D01*
X0445400Y0571469D02*
X0163148Y0571469D01*
X0163161Y0573067D02*
X0368045Y0573067D01*
X0365285Y0574666D02*
X0163174Y0574666D01*
X0163186Y0576264D02*
X0363686Y0576264D01*
X0362573Y0577863D02*
X0163199Y0577863D01*
X0163212Y0579461D02*
X0361696Y0579461D01*
X0361268Y0581060D02*
X0163225Y0581060D01*
X0163238Y0582658D02*
X0360959Y0582658D01*
X0360959Y0584257D02*
X0163251Y0584257D01*
X0163264Y0585855D02*
X0361131Y0585855D01*
X0361559Y0587454D02*
X0163277Y0587454D01*
X0163290Y0589052D02*
X0362278Y0589052D01*
X0363201Y0590651D02*
X0163303Y0590651D01*
X0163316Y0592249D02*
X0364773Y0592249D01*
X0367112Y0593848D02*
X0163329Y0593848D01*
X0163135Y0569870D02*
X0445400Y0569870D01*
X0445400Y0568272D02*
X0163122Y0568272D01*
X0163109Y0566673D02*
X0445400Y0566673D01*
X0445400Y0565074D02*
X0163096Y0565074D01*
X0163083Y0563476D02*
X0445400Y0563476D01*
X0445400Y0561877D02*
X0163070Y0561877D01*
X0163057Y0560279D02*
X0445400Y0560279D01*
X0445032Y0558680D02*
X0163044Y0558680D01*
X0163031Y0557082D02*
X0443322Y0557082D01*
X0442112Y0555483D02*
X0163018Y0555483D01*
X0163006Y0553885D02*
X0441189Y0553885D01*
X0440734Y0552286D02*
X0162993Y0552286D01*
X0162980Y0550688D02*
X0440361Y0550688D01*
X0440361Y0549089D02*
X0162967Y0549089D01*
X0162954Y0547491D02*
X0440467Y0547491D01*
X0440895Y0545892D02*
X0162941Y0545892D01*
X0162928Y0544294D02*
X0386176Y0544294D01*
X0383573Y0542695D02*
X0162915Y0542695D01*
X0162902Y0541097D02*
X0381975Y0541097D01*
X0380926Y0539498D02*
X0162889Y0539498D01*
X0162876Y0537900D02*
X0380096Y0537900D01*
X0379668Y0536301D02*
X0162863Y0536301D01*
X0162850Y0534703D02*
X0379400Y0534703D01*
X0379400Y0533104D02*
X0162837Y0533104D01*
X0162825Y0531506D02*
X0379400Y0531506D01*
X0379400Y0529907D02*
X0162812Y0529907D01*
X0162799Y0528309D02*
X0379400Y0528309D01*
X0379400Y0526710D02*
X0162786Y0526710D01*
X0162773Y0525112D02*
X0379400Y0525112D01*
X0379400Y0523513D02*
X0162760Y0523513D01*
X0162747Y0521915D02*
X0379400Y0521915D01*
X0379400Y0520316D02*
X0162734Y0520316D01*
X0162721Y0518718D02*
X0379400Y0518718D01*
X0379400Y0517119D02*
X0162708Y0517119D01*
X0162695Y0515521D02*
X0379400Y0515521D01*
X0379400Y0513922D02*
X0162682Y0513922D01*
X0162669Y0512324D02*
X0379400Y0512324D01*
X0379400Y0510725D02*
X0162657Y0510725D01*
X0162644Y0509127D02*
X0379400Y0509127D01*
X0379400Y0507528D02*
X0162631Y0507528D01*
X0162618Y0505930D02*
X0379400Y0505930D01*
X0379400Y0504331D02*
X0162605Y0504331D01*
X0162592Y0502733D02*
X0379400Y0502733D01*
X0379400Y0501134D02*
X0163202Y0501134D01*
X0164801Y0499536D02*
X0379400Y0499536D01*
X0379400Y0497937D02*
X0165848Y0497937D01*
X0166771Y0496339D02*
X0379400Y0496339D01*
X0379400Y0494740D02*
X0167283Y0494740D01*
X0167711Y0493141D02*
X0379400Y0493141D01*
X0379400Y0491543D02*
X0167873Y0491543D01*
X0167873Y0489944D02*
X0300182Y0489944D01*
X0297893Y0488346D02*
X0167731Y0488346D01*
X0167303Y0486747D02*
X0296350Y0486747D01*
X0295427Y0485149D02*
X0166815Y0485149D01*
X0165893Y0483550D02*
X0294730Y0483550D01*
X0294301Y0481952D02*
X0164877Y0481952D01*
X0163279Y0480353D02*
X0294148Y0480353D01*
X0294148Y0478755D02*
X0162398Y0478755D01*
X0162385Y0477156D02*
X0294475Y0477156D01*
X0294904Y0475558D02*
X0162372Y0475558D01*
X0162359Y0473959D02*
X0295802Y0473959D01*
X0296944Y0472361D02*
X0162346Y0472361D01*
X0162333Y0470762D02*
X0298542Y0470762D01*
X0301490Y0469164D02*
X0162320Y0469164D01*
X0162308Y0467565D02*
X0379400Y0467565D01*
X0379400Y0465967D02*
X0162295Y0465967D01*
X0162282Y0464368D02*
X0379400Y0464368D01*
X0379400Y0462770D02*
X0162269Y0462770D01*
X0162346Y0461171D02*
X0379400Y0461171D01*
X0379400Y0459573D02*
X0164858Y0459573D01*
X0166457Y0457974D02*
X0379400Y0457974D01*
X0379400Y0456376D02*
X0167650Y0456376D01*
X0168573Y0454777D02*
X0379400Y0454777D01*
X0379400Y0453179D02*
X0169190Y0453179D01*
X0169619Y0451580D02*
X0379400Y0451580D01*
X0379400Y0449982D02*
X0169873Y0449982D01*
X0169873Y0448383D02*
X0379400Y0448383D01*
X0379400Y0446785D02*
X0169824Y0446785D01*
X0169395Y0445186D02*
X0379400Y0445186D01*
X0379400Y0443588D02*
X0168967Y0443588D01*
X0168091Y0441989D02*
X0379400Y0441989D01*
X0379400Y0440391D02*
X0167168Y0440391D01*
X0165623Y0438792D02*
X0379400Y0438792D01*
X0379428Y0437194D02*
X0163670Y0437194D01*
X0162049Y0435595D02*
X0379857Y0435595D01*
X0380410Y0433997D02*
X0162036Y0433997D01*
X0162023Y0432398D02*
X0381333Y0432398D01*
X0382678Y0430800D02*
X0162010Y0430800D01*
X0161997Y0429201D02*
X0384626Y0429201D01*
X0388543Y0427603D02*
X0161984Y0427603D01*
X0161971Y0426004D02*
X0445670Y0426004D01*
X0445966Y0424898D02*
X0447638Y0422002D01*
X0450002Y0419638D01*
X0452898Y0417966D01*
X0456128Y0417101D01*
X0459472Y0417101D01*
X0462702Y0417966D01*
X0465597Y0419638D01*
X0467962Y0422002D01*
X0469634Y0424898D01*
X0470499Y0428128D01*
X0470499Y0431472D01*
X0469634Y0434702D01*
X0467962Y0437597D01*
X0465597Y0439962D01*
X0462702Y0441634D01*
X0459472Y0442499D01*
X0456128Y0442499D01*
X0452898Y0441634D01*
X0450002Y0439962D01*
X0447638Y0437597D01*
X0445966Y0434702D01*
X0445101Y0431472D01*
X0445101Y0428128D01*
X0445966Y0424898D01*
X0446251Y0424405D02*
X0161959Y0424405D01*
X0161946Y0422807D02*
X0447174Y0422807D01*
X0448432Y0421208D02*
X0161933Y0421208D01*
X0161920Y0419610D02*
X0450051Y0419610D01*
X0452820Y0418011D02*
X0161907Y0418011D01*
X0161894Y0416413D02*
X0476321Y0416413D01*
X0476321Y0418011D02*
X0462780Y0418011D01*
X0465549Y0419610D02*
X0476321Y0419610D01*
X0476321Y0421208D02*
X0467168Y0421208D01*
X0468426Y0422807D02*
X0476321Y0422807D01*
X0476321Y0424405D02*
X0469349Y0424405D01*
X0469930Y0426004D02*
X0476321Y0426004D01*
X0476321Y0427603D02*
X0470358Y0427603D01*
X0470499Y0429201D02*
X0476321Y0429201D01*
X0476321Y0430800D02*
X0470499Y0430800D01*
X0470251Y0432398D02*
X0476321Y0432398D01*
X0476321Y0433997D02*
X0469823Y0433997D01*
X0469118Y0435595D02*
X0476321Y0435595D01*
X0476321Y0437194D02*
X0468195Y0437194D01*
X0466767Y0438792D02*
X0476321Y0438792D01*
X0476321Y0440391D02*
X0464855Y0440391D01*
X0461376Y0441989D02*
X0476321Y0441989D01*
X0476321Y0443588D02*
X0402200Y0443588D01*
X0402200Y0445186D02*
X0476321Y0445186D01*
X0476321Y0446785D02*
X0402200Y0446785D01*
X0402200Y0448383D02*
X0476321Y0448383D01*
X0476321Y0449982D02*
X0402200Y0449982D01*
X0402200Y0451580D02*
X0476321Y0451580D01*
X0476321Y0453179D02*
X0402200Y0453179D01*
X0402200Y0454777D02*
X0476321Y0454777D01*
X0476321Y0456376D02*
X0402200Y0456376D01*
X0402200Y0457974D02*
X0476321Y0457974D01*
X0476321Y0459573D02*
X0402200Y0459573D01*
X0402200Y0461171D02*
X0476321Y0461171D01*
X0476321Y0462770D02*
X0402200Y0462770D01*
X0402200Y0464368D02*
X0447200Y0464368D01*
X0444668Y0465967D02*
X0402200Y0465967D01*
X0402200Y0467565D02*
X0443070Y0467565D01*
X0456810Y0464368D02*
X0476321Y0464368D01*
X0476321Y0465967D02*
X0459341Y0465967D01*
X0460940Y0467565D02*
X0476321Y0467565D01*
X0476321Y0469164D02*
X0461948Y0469164D01*
X0462751Y0470762D02*
X0476321Y0470762D01*
X0476321Y0472361D02*
X0463179Y0472361D01*
X0463424Y0473959D02*
X0476321Y0473959D01*
X0476321Y0475558D02*
X0463424Y0475558D01*
X0463424Y0477156D02*
X0476321Y0477156D01*
X0476321Y0478755D02*
X0463424Y0478755D01*
X0463424Y0480353D02*
X0476321Y0480353D01*
X0476321Y0481952D02*
X0463424Y0481952D01*
X0463424Y0483550D02*
X0476321Y0483550D01*
X0476321Y0485149D02*
X0463424Y0485149D01*
X0463311Y0486747D02*
X0476321Y0486747D01*
X0476321Y0488346D02*
X0462882Y0488346D01*
X0462232Y0489944D02*
X0476321Y0489944D01*
X0476321Y0491543D02*
X0461309Y0491543D01*
X0459833Y0493141D02*
X0476321Y0493141D01*
X0476321Y0494740D02*
X0457662Y0494740D01*
X0446348Y0494740D02*
X0402200Y0494740D01*
X0402200Y0496339D02*
X0476321Y0496339D01*
X0476321Y0497937D02*
X0402200Y0497937D01*
X0402200Y0499536D02*
X0476321Y0499536D01*
X0476321Y0501134D02*
X0402200Y0501134D01*
X0402200Y0502733D02*
X0476321Y0502733D01*
X0476321Y0504331D02*
X0402200Y0504331D01*
X0402200Y0505930D02*
X0476321Y0505930D01*
X0476321Y0507528D02*
X0402200Y0507528D01*
X0402200Y0509127D02*
X0476321Y0509127D01*
X0476321Y0510725D02*
X0402200Y0510725D01*
X0402200Y0512324D02*
X0476321Y0512324D01*
X0476321Y0513922D02*
X0402200Y0513922D01*
X0402200Y0515521D02*
X0476321Y0515521D01*
X0476321Y0517119D02*
X0402200Y0517119D01*
X0402200Y0518718D02*
X0476321Y0518718D01*
X0476321Y0520316D02*
X0402200Y0520316D01*
X0402200Y0521915D02*
X0476321Y0521915D01*
X0476321Y0523513D02*
X0466842Y0523513D01*
X0469281Y0525112D02*
X0476321Y0525112D01*
X0476321Y0526710D02*
X0470880Y0526710D01*
X0471836Y0528309D02*
X0476321Y0528309D01*
X0476321Y0529907D02*
X0472599Y0529907D01*
X0473027Y0531506D02*
X0476321Y0531506D01*
X0476321Y0533104D02*
X0473239Y0533104D01*
X0473239Y0534703D02*
X0476321Y0534703D01*
X0476321Y0536301D02*
X0472972Y0536301D01*
X0472544Y0537900D02*
X0476321Y0537900D01*
X0476321Y0539498D02*
X0471716Y0539498D01*
X0470673Y0541097D02*
X0476321Y0541097D01*
X0476321Y0542695D02*
X0471141Y0542695D01*
X0472063Y0544294D02*
X0476321Y0544294D01*
X0476321Y0545892D02*
X0472705Y0545892D01*
X0473133Y0547491D02*
X0476321Y0547491D01*
X0476321Y0549089D02*
X0473239Y0549089D01*
X0473239Y0550688D02*
X0476321Y0550688D01*
X0476321Y0552286D02*
X0472866Y0552286D01*
X0472411Y0553885D02*
X0476321Y0553885D01*
X0476321Y0555483D02*
X0471488Y0555483D01*
X0470278Y0557082D02*
X0476321Y0557082D01*
X0476321Y0558680D02*
X0468568Y0558680D01*
X0468200Y0560279D02*
X0476321Y0560279D01*
X0476321Y0561877D02*
X0468200Y0561877D01*
X0468200Y0563476D02*
X0476321Y0563476D01*
X0476321Y0565074D02*
X0468200Y0565074D01*
X0468200Y0566673D02*
X0476321Y0566673D01*
X0476321Y0568272D02*
X0468200Y0568272D01*
X0468200Y0569870D02*
X0476321Y0569870D01*
X0476321Y0571469D02*
X0468200Y0571469D01*
X0468200Y0573067D02*
X0476321Y0573067D01*
X0476321Y0574666D02*
X0468200Y0574666D01*
X0468200Y0576264D02*
X0476321Y0576264D01*
X0476321Y0577863D02*
X0468200Y0577863D01*
X0468200Y0579461D02*
X0476321Y0579461D01*
X0476321Y0581060D02*
X0468200Y0581060D01*
X0468200Y0582658D02*
X0476321Y0582658D01*
X0476321Y0584257D02*
X0468393Y0584257D01*
X0468405Y0585855D02*
X0476321Y0585855D01*
X0476321Y0587454D02*
X0468405Y0587454D01*
X0468405Y0589052D02*
X0476321Y0589052D01*
X0476321Y0590651D02*
X0468405Y0590651D01*
X0468405Y0592249D02*
X0476321Y0592249D01*
X0476321Y0593848D02*
X0468405Y0593848D01*
X0468405Y0595446D02*
X0476321Y0595446D01*
X0476321Y0597045D02*
X0468405Y0597045D01*
X0468405Y0598643D02*
X0476321Y0598643D01*
X0476321Y0600242D02*
X0468405Y0600242D01*
X0468405Y0601840D02*
X0476321Y0601840D01*
X0476321Y0603439D02*
X0468405Y0603439D01*
X0468405Y0605037D02*
X0476321Y0605037D01*
X0476321Y0606636D02*
X0468405Y0606636D01*
X0468405Y0608234D02*
X0476321Y0608234D01*
X0476321Y0609833D02*
X0468405Y0609833D01*
X0468424Y0611431D02*
X0476321Y0611431D01*
X0476321Y0613030D02*
X0468424Y0613030D01*
X0468424Y0614628D02*
X0476321Y0614628D01*
X0476321Y0616227D02*
X0468424Y0616227D01*
X0468424Y0617825D02*
X0476321Y0617825D01*
X0476321Y0619424D02*
X0468424Y0619424D01*
X0468424Y0621022D02*
X0476321Y0621022D01*
X0476321Y0622621D02*
X0468424Y0622621D01*
X0468424Y0624219D02*
X0476321Y0624219D01*
X0476321Y0625818D02*
X0468405Y0625818D01*
X0468405Y0627416D02*
X0476321Y0627416D01*
X0476321Y0629015D02*
X0468405Y0629015D01*
X0468405Y0630613D02*
X0476321Y0630613D01*
X0476321Y0632212D02*
X0468405Y0632212D01*
X0468405Y0633810D02*
X0476321Y0633810D01*
X0476321Y0635409D02*
X0468405Y0635409D01*
X0468405Y0637008D02*
X0476321Y0637008D01*
X0476321Y0638606D02*
X0468405Y0638606D01*
X0468405Y0640205D02*
X0476321Y0640205D01*
X0476321Y0641803D02*
X0468405Y0641803D01*
X0468405Y0643402D02*
X0476321Y0643402D01*
X0476321Y0645000D02*
X0468405Y0645000D01*
X0468405Y0646599D02*
X0476321Y0646599D01*
X0476321Y0648197D02*
X0468405Y0648197D01*
X0468405Y0649796D02*
X0476321Y0649796D01*
X0476321Y0651394D02*
X0468405Y0651394D01*
X0468405Y0652993D02*
X0476321Y0652993D01*
X0476321Y0654591D02*
X0468405Y0654591D01*
X0468405Y0656190D02*
X0476321Y0656190D01*
X0476321Y0657788D02*
X0468405Y0657788D01*
X0468405Y0659387D02*
X0476321Y0659387D01*
X0476321Y0660985D02*
X0468405Y0660985D01*
X0468405Y0662584D02*
X0476321Y0662584D01*
X0476321Y0664182D02*
X0468405Y0664182D01*
X0468405Y0665781D02*
X0476321Y0665781D01*
X0476321Y0667379D02*
X0468405Y0667379D01*
X0468200Y0668978D02*
X0476321Y0668978D01*
X0476321Y0670576D02*
X0468200Y0670576D01*
X0468200Y0672175D02*
X0476321Y0672175D01*
X0476321Y0673773D02*
X0468200Y0673773D01*
X0468200Y0675372D02*
X0476321Y0675372D01*
X0476321Y0676970D02*
X0468200Y0676970D01*
X0468128Y0678569D02*
X0476321Y0678569D01*
X0476321Y0680167D02*
X0467700Y0680167D01*
X0467097Y0681766D02*
X0476321Y0681766D01*
X0476321Y0683364D02*
X0466328Y0683364D01*
X0465405Y0684963D02*
X0476321Y0684963D01*
X0476321Y0686561D02*
X0464161Y0686561D01*
X0462562Y0688160D02*
X0476321Y0688160D01*
X0476321Y0689758D02*
X0460964Y0689758D01*
X0459365Y0691357D02*
X0476321Y0691357D01*
X0476321Y0692955D02*
X0457767Y0692955D01*
X0456168Y0694554D02*
X0476321Y0694554D01*
X0476321Y0696152D02*
X0454570Y0696152D01*
X0452971Y0697751D02*
X0476321Y0697751D01*
X0476321Y0699349D02*
X0451373Y0699349D01*
X0449774Y0700948D02*
X0476321Y0700948D01*
X0476321Y0702546D02*
X0448176Y0702546D01*
X0446577Y0704145D02*
X0476321Y0704145D01*
X0476321Y0705743D02*
X0444979Y0705743D01*
X0442341Y0707342D02*
X0476321Y0707342D01*
X0476321Y0740911D02*
X0466870Y0740911D01*
X0468469Y0742509D02*
X0476321Y0742509D01*
X0476321Y0744108D02*
X0469600Y0744108D01*
X0470523Y0745706D02*
X0476321Y0745706D01*
X0476321Y0747305D02*
X0471011Y0747305D01*
X0471439Y0748903D02*
X0476321Y0748903D01*
X0476321Y0750502D02*
X0471499Y0750502D01*
X0471499Y0752100D02*
X0476321Y0752100D01*
X0476321Y0753699D02*
X0471170Y0753699D01*
X0470742Y0755297D02*
X0476321Y0755297D01*
X0476321Y0756896D02*
X0469944Y0756896D01*
X0469021Y0758494D02*
X0476321Y0758494D01*
X0476321Y0760093D02*
X0467466Y0760093D01*
X0465334Y0761691D02*
X0476321Y0761691D01*
X0444177Y0493141D02*
X0402200Y0493141D01*
X0402200Y0491543D02*
X0442700Y0491543D01*
X0454224Y0441989D02*
X0402200Y0441989D01*
X0402200Y0440391D02*
X0450745Y0440391D01*
X0448833Y0438792D02*
X0402200Y0438792D01*
X0402172Y0437194D02*
X0447405Y0437194D01*
X0446482Y0435595D02*
X0401743Y0435595D01*
X0401190Y0433997D02*
X0445777Y0433997D01*
X0445349Y0432398D02*
X0400267Y0432398D01*
X0398922Y0430800D02*
X0445101Y0430800D01*
X0445101Y0429201D02*
X0396974Y0429201D01*
X0393057Y0427603D02*
X0445242Y0427603D01*
X0476321Y0414814D02*
X0161881Y0414814D01*
X0161868Y0413216D02*
X0476321Y0413216D01*
X0476321Y0411617D02*
X0161855Y0411617D01*
X0156827Y0504331D02*
X0169794Y0504331D01*
X0149481Y0291729D02*
X0199526Y0291729D01*
X0199522Y0290131D02*
X0151643Y0290131D01*
X0153070Y0288532D02*
X0199518Y0288532D01*
X0199514Y0286934D02*
X0154496Y0286934D01*
X0155923Y0285335D02*
X0199510Y0285335D01*
X0199506Y0283737D02*
X0157350Y0283737D01*
X0158776Y0282138D02*
X0199502Y0282138D01*
X0199498Y0280539D02*
X0160203Y0280539D01*
X0161629Y0278941D02*
X0199494Y0278941D01*
X0199490Y0277342D02*
X0163056Y0277342D01*
X0164482Y0275744D02*
X0199486Y0275744D01*
X0199482Y0274145D02*
X0165909Y0274145D01*
X0167335Y0272547D02*
X0199478Y0272547D01*
X0199474Y0270948D02*
X0168762Y0270948D01*
X0169985Y0269350D02*
X0199470Y0269350D01*
X0199466Y0267751D02*
X0170791Y0267751D01*
X0171240Y0266153D02*
X0199462Y0266153D01*
X0199458Y0264554D02*
X0171560Y0264554D01*
X0171469Y0262956D02*
X0199454Y0262956D01*
X0199450Y0261357D02*
X0171261Y0261357D01*
X0170734Y0259759D02*
X0199446Y0259759D01*
X0199442Y0258160D02*
X0169897Y0258160D01*
X0168759Y0256562D02*
X0199438Y0256562D01*
X0199434Y0254963D02*
X0166968Y0254963D01*
X0163174Y0253365D02*
X0199430Y0253365D01*
X0198976Y0072733D02*
X0164996Y0072733D01*
X0167598Y0071134D02*
X0198972Y0071134D01*
X0198968Y0069536D02*
X0169196Y0069536D01*
X0170189Y0067937D02*
X0198964Y0067937D01*
X0198960Y0066339D02*
X0170929Y0066339D01*
X0171358Y0064740D02*
X0198956Y0064740D01*
X0198952Y0063142D02*
X0171500Y0063142D01*
X0171500Y0061543D02*
X0198948Y0061543D01*
X0198944Y0059945D02*
X0171112Y0059945D01*
X0170584Y0058346D02*
X0198940Y0058346D01*
X0198936Y0056748D02*
X0169661Y0056748D01*
X0168281Y0055149D02*
X0198932Y0055149D01*
X0198928Y0053551D02*
X0166180Y0053551D01*
D24*
X0252800Y0130800D02*
X0196800Y0185800D01*
X0050800Y0185800D01*
X0048800Y0186800D01*
X0051800Y0217391D02*
X0198391Y0217391D01*
X0283800Y0303800D01*
X0367800Y0303800D01*
X0395300Y0303800D01*
X0395800Y0330300D01*
X0371800Y0159300D02*
X0371800Y0130800D01*
X0365800Y0130800D01*
X0252800Y0130800D01*
D25*
X0160800Y0062800D02*
X0107800Y0062800D01*
X0022800Y0147800D01*
X0022800Y0250209D01*
X0022800Y0281391D02*
X0144209Y0282391D01*
X0160800Y0263800D01*
D26*
X0155973Y0448800D02*
X0057643Y0448800D01*
X0027800Y0449800D01*
X0027800Y0711800D01*
X0061800Y0746800D01*
X0071800Y0746800D01*
X0069209Y0719540D02*
X0056540Y0707540D01*
X0056800Y0692800D01*
X0056800Y0490800D01*
X0061894Y0490706D01*
X0153973Y0490706D01*
M02*
