%
M48
M72
T01C0.03200
T02C0.03600
T03C0.04000
T04C0.04331
T05C0.04400
T06C0.04700
T07C0.04724
T08C0.05512
T09C0.06693
T10C0.07900
T11C0.12598
T12C0.14950
%
T01
X365800Y80800
X365800Y130800
X367800Y253800
X367800Y303800
X390800Y438800
X410800Y438800
X435800Y659800
X455800Y659800
X57800Y528800
X27800Y528800
T02
X391800Y282800
X411800Y282800
X432800Y282800
X432800Y252800
X411800Y252800
X391800Y252800
X389800Y110800
X411800Y110800
X435800Y110800
X435800Y80800
X411800Y80800
X389800Y80800
T03
X371800Y159300
X381800Y189300
X371800Y209300
X395800Y330300
X405800Y360300
X395800Y380300
X390800Y522800
X370800Y522800
X426800Y696800
X426800Y716800
T04
X372359Y605367
X372359Y583713
X305548Y479879
X305548Y448383
X153973Y448383
X153973Y490706
X69209Y719540
X69209Y746115
T05
X452800Y222800
X492800Y222800
X491800Y52800
X451800Y52800
T06
X486800Y80800
X486800Y188800
X486800Y252800
X486800Y360800
T07
X280800Y353800
X280800Y253800
X280800Y152800
X280800Y52800
X160800Y62800
X160800Y142800
X160800Y263800
X160800Y343800
T08
X81643Y489800
X61957Y489800
X57643Y448800
X37957Y448800
T09
X22800Y281391
X22800Y265800
X22800Y250209
X51800Y217391
X51800Y201800
X51800Y186209
X452005Y479800
X467595Y479800
X456800Y518209
X456800Y533800
X456800Y549391
X457005Y617800
X472595Y617800
T10
X527800Y222800
X528800Y52800
T11
X457800Y429800
X458800Y750800
X26800Y750800
X20800Y429800
T12
X51800Y51800
X51800Y341800
X517800Y382800
X519800Y26800
M30
