G75*
%MOIN*%
%OFA0B0*%
%FSLAX25Y25*%
%IPPOS*%
%LPD*%
%AMOC8*
5,1,8,0,0,1.08239X$1,22.5*
%
%ADD10C,0.00000*%
%ADD11C,0.07087*%
%ADD12C,0.11850*%
%ADD13OC8,0.05600*%
%ADD14OC8,0.05200*%
%ADD15C,0.10039*%
%ADD16C,0.06000*%
%ADD17OC8,0.07050*%
%ADD18C,0.06600*%
%ADD19C,0.10000*%
%ADD20R,0.06496X0.06496*%
%ADD21C,0.06496*%
%ADD22C,0.10000*%
%ADD23OC8,0.10000*%
D10*
X0001800Y0001800D02*
X0001800Y0401800D01*
X0544800Y0401800D01*
X0544800Y0001721D01*
X0001800Y0001800D01*
X0044325Y0051800D02*
X0044327Y0051983D01*
X0044334Y0052167D01*
X0044345Y0052350D01*
X0044361Y0052533D01*
X0044381Y0052715D01*
X0044406Y0052897D01*
X0044435Y0053078D01*
X0044469Y0053258D01*
X0044507Y0053438D01*
X0044549Y0053616D01*
X0044596Y0053794D01*
X0044647Y0053970D01*
X0044702Y0054145D01*
X0044762Y0054318D01*
X0044826Y0054490D01*
X0044894Y0054661D01*
X0044966Y0054829D01*
X0045043Y0054996D01*
X0045123Y0055161D01*
X0045208Y0055324D01*
X0045296Y0055484D01*
X0045388Y0055643D01*
X0045485Y0055799D01*
X0045585Y0055953D01*
X0045689Y0056104D01*
X0045796Y0056253D01*
X0045907Y0056399D01*
X0046022Y0056542D01*
X0046140Y0056682D01*
X0046261Y0056820D01*
X0046386Y0056954D01*
X0046514Y0057086D01*
X0046646Y0057214D01*
X0046780Y0057339D01*
X0046918Y0057460D01*
X0047058Y0057578D01*
X0047201Y0057693D01*
X0047347Y0057804D01*
X0047496Y0057911D01*
X0047647Y0058015D01*
X0047801Y0058115D01*
X0047957Y0058212D01*
X0048116Y0058304D01*
X0048276Y0058392D01*
X0048439Y0058477D01*
X0048604Y0058557D01*
X0048771Y0058634D01*
X0048939Y0058706D01*
X0049110Y0058774D01*
X0049282Y0058838D01*
X0049455Y0058898D01*
X0049630Y0058953D01*
X0049806Y0059004D01*
X0049984Y0059051D01*
X0050162Y0059093D01*
X0050342Y0059131D01*
X0050522Y0059165D01*
X0050703Y0059194D01*
X0050885Y0059219D01*
X0051067Y0059239D01*
X0051250Y0059255D01*
X0051433Y0059266D01*
X0051617Y0059273D01*
X0051800Y0059275D01*
X0051983Y0059273D01*
X0052167Y0059266D01*
X0052350Y0059255D01*
X0052533Y0059239D01*
X0052715Y0059219D01*
X0052897Y0059194D01*
X0053078Y0059165D01*
X0053258Y0059131D01*
X0053438Y0059093D01*
X0053616Y0059051D01*
X0053794Y0059004D01*
X0053970Y0058953D01*
X0054145Y0058898D01*
X0054318Y0058838D01*
X0054490Y0058774D01*
X0054661Y0058706D01*
X0054829Y0058634D01*
X0054996Y0058557D01*
X0055161Y0058477D01*
X0055324Y0058392D01*
X0055484Y0058304D01*
X0055643Y0058212D01*
X0055799Y0058115D01*
X0055953Y0058015D01*
X0056104Y0057911D01*
X0056253Y0057804D01*
X0056399Y0057693D01*
X0056542Y0057578D01*
X0056682Y0057460D01*
X0056820Y0057339D01*
X0056954Y0057214D01*
X0057086Y0057086D01*
X0057214Y0056954D01*
X0057339Y0056820D01*
X0057460Y0056682D01*
X0057578Y0056542D01*
X0057693Y0056399D01*
X0057804Y0056253D01*
X0057911Y0056104D01*
X0058015Y0055953D01*
X0058115Y0055799D01*
X0058212Y0055643D01*
X0058304Y0055484D01*
X0058392Y0055324D01*
X0058477Y0055161D01*
X0058557Y0054996D01*
X0058634Y0054829D01*
X0058706Y0054661D01*
X0058774Y0054490D01*
X0058838Y0054318D01*
X0058898Y0054145D01*
X0058953Y0053970D01*
X0059004Y0053794D01*
X0059051Y0053616D01*
X0059093Y0053438D01*
X0059131Y0053258D01*
X0059165Y0053078D01*
X0059194Y0052897D01*
X0059219Y0052715D01*
X0059239Y0052533D01*
X0059255Y0052350D01*
X0059266Y0052167D01*
X0059273Y0051983D01*
X0059275Y0051800D01*
X0059273Y0051617D01*
X0059266Y0051433D01*
X0059255Y0051250D01*
X0059239Y0051067D01*
X0059219Y0050885D01*
X0059194Y0050703D01*
X0059165Y0050522D01*
X0059131Y0050342D01*
X0059093Y0050162D01*
X0059051Y0049984D01*
X0059004Y0049806D01*
X0058953Y0049630D01*
X0058898Y0049455D01*
X0058838Y0049282D01*
X0058774Y0049110D01*
X0058706Y0048939D01*
X0058634Y0048771D01*
X0058557Y0048604D01*
X0058477Y0048439D01*
X0058392Y0048276D01*
X0058304Y0048116D01*
X0058212Y0047957D01*
X0058115Y0047801D01*
X0058015Y0047647D01*
X0057911Y0047496D01*
X0057804Y0047347D01*
X0057693Y0047201D01*
X0057578Y0047058D01*
X0057460Y0046918D01*
X0057339Y0046780D01*
X0057214Y0046646D01*
X0057086Y0046514D01*
X0056954Y0046386D01*
X0056820Y0046261D01*
X0056682Y0046140D01*
X0056542Y0046022D01*
X0056399Y0045907D01*
X0056253Y0045796D01*
X0056104Y0045689D01*
X0055953Y0045585D01*
X0055799Y0045485D01*
X0055643Y0045388D01*
X0055484Y0045296D01*
X0055324Y0045208D01*
X0055161Y0045123D01*
X0054996Y0045043D01*
X0054829Y0044966D01*
X0054661Y0044894D01*
X0054490Y0044826D01*
X0054318Y0044762D01*
X0054145Y0044702D01*
X0053970Y0044647D01*
X0053794Y0044596D01*
X0053616Y0044549D01*
X0053438Y0044507D01*
X0053258Y0044469D01*
X0053078Y0044435D01*
X0052897Y0044406D01*
X0052715Y0044381D01*
X0052533Y0044361D01*
X0052350Y0044345D01*
X0052167Y0044334D01*
X0051983Y0044327D01*
X0051800Y0044325D01*
X0051617Y0044327D01*
X0051433Y0044334D01*
X0051250Y0044345D01*
X0051067Y0044361D01*
X0050885Y0044381D01*
X0050703Y0044406D01*
X0050522Y0044435D01*
X0050342Y0044469D01*
X0050162Y0044507D01*
X0049984Y0044549D01*
X0049806Y0044596D01*
X0049630Y0044647D01*
X0049455Y0044702D01*
X0049282Y0044762D01*
X0049110Y0044826D01*
X0048939Y0044894D01*
X0048771Y0044966D01*
X0048604Y0045043D01*
X0048439Y0045123D01*
X0048276Y0045208D01*
X0048116Y0045296D01*
X0047957Y0045388D01*
X0047801Y0045485D01*
X0047647Y0045585D01*
X0047496Y0045689D01*
X0047347Y0045796D01*
X0047201Y0045907D01*
X0047058Y0046022D01*
X0046918Y0046140D01*
X0046780Y0046261D01*
X0046646Y0046386D01*
X0046514Y0046514D01*
X0046386Y0046646D01*
X0046261Y0046780D01*
X0046140Y0046918D01*
X0046022Y0047058D01*
X0045907Y0047201D01*
X0045796Y0047347D01*
X0045689Y0047496D01*
X0045585Y0047647D01*
X0045485Y0047801D01*
X0045388Y0047957D01*
X0045296Y0048116D01*
X0045208Y0048276D01*
X0045123Y0048439D01*
X0045043Y0048604D01*
X0044966Y0048771D01*
X0044894Y0048939D01*
X0044826Y0049110D01*
X0044762Y0049282D01*
X0044702Y0049455D01*
X0044647Y0049630D01*
X0044596Y0049806D01*
X0044549Y0049984D01*
X0044507Y0050162D01*
X0044469Y0050342D01*
X0044435Y0050522D01*
X0044406Y0050703D01*
X0044381Y0050885D01*
X0044361Y0051067D01*
X0044345Y0051250D01*
X0044334Y0051433D01*
X0044327Y0051617D01*
X0044325Y0051800D01*
X0044325Y0341800D02*
X0044327Y0341983D01*
X0044334Y0342167D01*
X0044345Y0342350D01*
X0044361Y0342533D01*
X0044381Y0342715D01*
X0044406Y0342897D01*
X0044435Y0343078D01*
X0044469Y0343258D01*
X0044507Y0343438D01*
X0044549Y0343616D01*
X0044596Y0343794D01*
X0044647Y0343970D01*
X0044702Y0344145D01*
X0044762Y0344318D01*
X0044826Y0344490D01*
X0044894Y0344661D01*
X0044966Y0344829D01*
X0045043Y0344996D01*
X0045123Y0345161D01*
X0045208Y0345324D01*
X0045296Y0345484D01*
X0045388Y0345643D01*
X0045485Y0345799D01*
X0045585Y0345953D01*
X0045689Y0346104D01*
X0045796Y0346253D01*
X0045907Y0346399D01*
X0046022Y0346542D01*
X0046140Y0346682D01*
X0046261Y0346820D01*
X0046386Y0346954D01*
X0046514Y0347086D01*
X0046646Y0347214D01*
X0046780Y0347339D01*
X0046918Y0347460D01*
X0047058Y0347578D01*
X0047201Y0347693D01*
X0047347Y0347804D01*
X0047496Y0347911D01*
X0047647Y0348015D01*
X0047801Y0348115D01*
X0047957Y0348212D01*
X0048116Y0348304D01*
X0048276Y0348392D01*
X0048439Y0348477D01*
X0048604Y0348557D01*
X0048771Y0348634D01*
X0048939Y0348706D01*
X0049110Y0348774D01*
X0049282Y0348838D01*
X0049455Y0348898D01*
X0049630Y0348953D01*
X0049806Y0349004D01*
X0049984Y0349051D01*
X0050162Y0349093D01*
X0050342Y0349131D01*
X0050522Y0349165D01*
X0050703Y0349194D01*
X0050885Y0349219D01*
X0051067Y0349239D01*
X0051250Y0349255D01*
X0051433Y0349266D01*
X0051617Y0349273D01*
X0051800Y0349275D01*
X0051983Y0349273D01*
X0052167Y0349266D01*
X0052350Y0349255D01*
X0052533Y0349239D01*
X0052715Y0349219D01*
X0052897Y0349194D01*
X0053078Y0349165D01*
X0053258Y0349131D01*
X0053438Y0349093D01*
X0053616Y0349051D01*
X0053794Y0349004D01*
X0053970Y0348953D01*
X0054145Y0348898D01*
X0054318Y0348838D01*
X0054490Y0348774D01*
X0054661Y0348706D01*
X0054829Y0348634D01*
X0054996Y0348557D01*
X0055161Y0348477D01*
X0055324Y0348392D01*
X0055484Y0348304D01*
X0055643Y0348212D01*
X0055799Y0348115D01*
X0055953Y0348015D01*
X0056104Y0347911D01*
X0056253Y0347804D01*
X0056399Y0347693D01*
X0056542Y0347578D01*
X0056682Y0347460D01*
X0056820Y0347339D01*
X0056954Y0347214D01*
X0057086Y0347086D01*
X0057214Y0346954D01*
X0057339Y0346820D01*
X0057460Y0346682D01*
X0057578Y0346542D01*
X0057693Y0346399D01*
X0057804Y0346253D01*
X0057911Y0346104D01*
X0058015Y0345953D01*
X0058115Y0345799D01*
X0058212Y0345643D01*
X0058304Y0345484D01*
X0058392Y0345324D01*
X0058477Y0345161D01*
X0058557Y0344996D01*
X0058634Y0344829D01*
X0058706Y0344661D01*
X0058774Y0344490D01*
X0058838Y0344318D01*
X0058898Y0344145D01*
X0058953Y0343970D01*
X0059004Y0343794D01*
X0059051Y0343616D01*
X0059093Y0343438D01*
X0059131Y0343258D01*
X0059165Y0343078D01*
X0059194Y0342897D01*
X0059219Y0342715D01*
X0059239Y0342533D01*
X0059255Y0342350D01*
X0059266Y0342167D01*
X0059273Y0341983D01*
X0059275Y0341800D01*
X0059273Y0341617D01*
X0059266Y0341433D01*
X0059255Y0341250D01*
X0059239Y0341067D01*
X0059219Y0340885D01*
X0059194Y0340703D01*
X0059165Y0340522D01*
X0059131Y0340342D01*
X0059093Y0340162D01*
X0059051Y0339984D01*
X0059004Y0339806D01*
X0058953Y0339630D01*
X0058898Y0339455D01*
X0058838Y0339282D01*
X0058774Y0339110D01*
X0058706Y0338939D01*
X0058634Y0338771D01*
X0058557Y0338604D01*
X0058477Y0338439D01*
X0058392Y0338276D01*
X0058304Y0338116D01*
X0058212Y0337957D01*
X0058115Y0337801D01*
X0058015Y0337647D01*
X0057911Y0337496D01*
X0057804Y0337347D01*
X0057693Y0337201D01*
X0057578Y0337058D01*
X0057460Y0336918D01*
X0057339Y0336780D01*
X0057214Y0336646D01*
X0057086Y0336514D01*
X0056954Y0336386D01*
X0056820Y0336261D01*
X0056682Y0336140D01*
X0056542Y0336022D01*
X0056399Y0335907D01*
X0056253Y0335796D01*
X0056104Y0335689D01*
X0055953Y0335585D01*
X0055799Y0335485D01*
X0055643Y0335388D01*
X0055484Y0335296D01*
X0055324Y0335208D01*
X0055161Y0335123D01*
X0054996Y0335043D01*
X0054829Y0334966D01*
X0054661Y0334894D01*
X0054490Y0334826D01*
X0054318Y0334762D01*
X0054145Y0334702D01*
X0053970Y0334647D01*
X0053794Y0334596D01*
X0053616Y0334549D01*
X0053438Y0334507D01*
X0053258Y0334469D01*
X0053078Y0334435D01*
X0052897Y0334406D01*
X0052715Y0334381D01*
X0052533Y0334361D01*
X0052350Y0334345D01*
X0052167Y0334334D01*
X0051983Y0334327D01*
X0051800Y0334325D01*
X0051617Y0334327D01*
X0051433Y0334334D01*
X0051250Y0334345D01*
X0051067Y0334361D01*
X0050885Y0334381D01*
X0050703Y0334406D01*
X0050522Y0334435D01*
X0050342Y0334469D01*
X0050162Y0334507D01*
X0049984Y0334549D01*
X0049806Y0334596D01*
X0049630Y0334647D01*
X0049455Y0334702D01*
X0049282Y0334762D01*
X0049110Y0334826D01*
X0048939Y0334894D01*
X0048771Y0334966D01*
X0048604Y0335043D01*
X0048439Y0335123D01*
X0048276Y0335208D01*
X0048116Y0335296D01*
X0047957Y0335388D01*
X0047801Y0335485D01*
X0047647Y0335585D01*
X0047496Y0335689D01*
X0047347Y0335796D01*
X0047201Y0335907D01*
X0047058Y0336022D01*
X0046918Y0336140D01*
X0046780Y0336261D01*
X0046646Y0336386D01*
X0046514Y0336514D01*
X0046386Y0336646D01*
X0046261Y0336780D01*
X0046140Y0336918D01*
X0046022Y0337058D01*
X0045907Y0337201D01*
X0045796Y0337347D01*
X0045689Y0337496D01*
X0045585Y0337647D01*
X0045485Y0337801D01*
X0045388Y0337957D01*
X0045296Y0338116D01*
X0045208Y0338276D01*
X0045123Y0338439D01*
X0045043Y0338604D01*
X0044966Y0338771D01*
X0044894Y0338939D01*
X0044826Y0339110D01*
X0044762Y0339282D01*
X0044702Y0339455D01*
X0044647Y0339630D01*
X0044596Y0339806D01*
X0044549Y0339984D01*
X0044507Y0340162D01*
X0044469Y0340342D01*
X0044435Y0340522D01*
X0044406Y0340703D01*
X0044381Y0340885D01*
X0044361Y0341067D01*
X0044345Y0341250D01*
X0044334Y0341433D01*
X0044327Y0341617D01*
X0044325Y0341800D01*
X0001800Y0404800D02*
X0001800Y0775501D01*
X0482721Y0775501D01*
X0482721Y0404800D01*
X0001800Y0404800D01*
X0014501Y0429800D02*
X0014503Y0429958D01*
X0014509Y0430116D01*
X0014519Y0430274D01*
X0014533Y0430432D01*
X0014551Y0430589D01*
X0014572Y0430746D01*
X0014598Y0430902D01*
X0014628Y0431058D01*
X0014661Y0431213D01*
X0014699Y0431366D01*
X0014740Y0431519D01*
X0014785Y0431671D01*
X0014834Y0431822D01*
X0014887Y0431971D01*
X0014943Y0432119D01*
X0015003Y0432265D01*
X0015067Y0432410D01*
X0015135Y0432553D01*
X0015206Y0432695D01*
X0015280Y0432835D01*
X0015358Y0432972D01*
X0015440Y0433108D01*
X0015524Y0433242D01*
X0015613Y0433373D01*
X0015704Y0433502D01*
X0015799Y0433629D01*
X0015896Y0433754D01*
X0015997Y0433876D01*
X0016101Y0433995D01*
X0016208Y0434112D01*
X0016318Y0434226D01*
X0016431Y0434337D01*
X0016546Y0434446D01*
X0016664Y0434551D01*
X0016785Y0434653D01*
X0016908Y0434753D01*
X0017034Y0434849D01*
X0017162Y0434942D01*
X0017292Y0435032D01*
X0017425Y0435118D01*
X0017560Y0435202D01*
X0017696Y0435281D01*
X0017835Y0435358D01*
X0017976Y0435430D01*
X0018118Y0435500D01*
X0018262Y0435565D01*
X0018408Y0435627D01*
X0018555Y0435685D01*
X0018704Y0435740D01*
X0018854Y0435791D01*
X0019005Y0435838D01*
X0019157Y0435881D01*
X0019310Y0435920D01*
X0019465Y0435956D01*
X0019620Y0435987D01*
X0019776Y0436015D01*
X0019932Y0436039D01*
X0020089Y0436059D01*
X0020247Y0436075D01*
X0020404Y0436087D01*
X0020563Y0436095D01*
X0020721Y0436099D01*
X0020879Y0436099D01*
X0021037Y0436095D01*
X0021196Y0436087D01*
X0021353Y0436075D01*
X0021511Y0436059D01*
X0021668Y0436039D01*
X0021824Y0436015D01*
X0021980Y0435987D01*
X0022135Y0435956D01*
X0022290Y0435920D01*
X0022443Y0435881D01*
X0022595Y0435838D01*
X0022746Y0435791D01*
X0022896Y0435740D01*
X0023045Y0435685D01*
X0023192Y0435627D01*
X0023338Y0435565D01*
X0023482Y0435500D01*
X0023624Y0435430D01*
X0023765Y0435358D01*
X0023904Y0435281D01*
X0024040Y0435202D01*
X0024175Y0435118D01*
X0024308Y0435032D01*
X0024438Y0434942D01*
X0024566Y0434849D01*
X0024692Y0434753D01*
X0024815Y0434653D01*
X0024936Y0434551D01*
X0025054Y0434446D01*
X0025169Y0434337D01*
X0025282Y0434226D01*
X0025392Y0434112D01*
X0025499Y0433995D01*
X0025603Y0433876D01*
X0025704Y0433754D01*
X0025801Y0433629D01*
X0025896Y0433502D01*
X0025987Y0433373D01*
X0026076Y0433242D01*
X0026160Y0433108D01*
X0026242Y0432972D01*
X0026320Y0432835D01*
X0026394Y0432695D01*
X0026465Y0432553D01*
X0026533Y0432410D01*
X0026597Y0432265D01*
X0026657Y0432119D01*
X0026713Y0431971D01*
X0026766Y0431822D01*
X0026815Y0431671D01*
X0026860Y0431519D01*
X0026901Y0431366D01*
X0026939Y0431213D01*
X0026972Y0431058D01*
X0027002Y0430902D01*
X0027028Y0430746D01*
X0027049Y0430589D01*
X0027067Y0430432D01*
X0027081Y0430274D01*
X0027091Y0430116D01*
X0027097Y0429958D01*
X0027099Y0429800D01*
X0027097Y0429642D01*
X0027091Y0429484D01*
X0027081Y0429326D01*
X0027067Y0429168D01*
X0027049Y0429011D01*
X0027028Y0428854D01*
X0027002Y0428698D01*
X0026972Y0428542D01*
X0026939Y0428387D01*
X0026901Y0428234D01*
X0026860Y0428081D01*
X0026815Y0427929D01*
X0026766Y0427778D01*
X0026713Y0427629D01*
X0026657Y0427481D01*
X0026597Y0427335D01*
X0026533Y0427190D01*
X0026465Y0427047D01*
X0026394Y0426905D01*
X0026320Y0426765D01*
X0026242Y0426628D01*
X0026160Y0426492D01*
X0026076Y0426358D01*
X0025987Y0426227D01*
X0025896Y0426098D01*
X0025801Y0425971D01*
X0025704Y0425846D01*
X0025603Y0425724D01*
X0025499Y0425605D01*
X0025392Y0425488D01*
X0025282Y0425374D01*
X0025169Y0425263D01*
X0025054Y0425154D01*
X0024936Y0425049D01*
X0024815Y0424947D01*
X0024692Y0424847D01*
X0024566Y0424751D01*
X0024438Y0424658D01*
X0024308Y0424568D01*
X0024175Y0424482D01*
X0024040Y0424398D01*
X0023904Y0424319D01*
X0023765Y0424242D01*
X0023624Y0424170D01*
X0023482Y0424100D01*
X0023338Y0424035D01*
X0023192Y0423973D01*
X0023045Y0423915D01*
X0022896Y0423860D01*
X0022746Y0423809D01*
X0022595Y0423762D01*
X0022443Y0423719D01*
X0022290Y0423680D01*
X0022135Y0423644D01*
X0021980Y0423613D01*
X0021824Y0423585D01*
X0021668Y0423561D01*
X0021511Y0423541D01*
X0021353Y0423525D01*
X0021196Y0423513D01*
X0021037Y0423505D01*
X0020879Y0423501D01*
X0020721Y0423501D01*
X0020563Y0423505D01*
X0020404Y0423513D01*
X0020247Y0423525D01*
X0020089Y0423541D01*
X0019932Y0423561D01*
X0019776Y0423585D01*
X0019620Y0423613D01*
X0019465Y0423644D01*
X0019310Y0423680D01*
X0019157Y0423719D01*
X0019005Y0423762D01*
X0018854Y0423809D01*
X0018704Y0423860D01*
X0018555Y0423915D01*
X0018408Y0423973D01*
X0018262Y0424035D01*
X0018118Y0424100D01*
X0017976Y0424170D01*
X0017835Y0424242D01*
X0017696Y0424319D01*
X0017560Y0424398D01*
X0017425Y0424482D01*
X0017292Y0424568D01*
X0017162Y0424658D01*
X0017034Y0424751D01*
X0016908Y0424847D01*
X0016785Y0424947D01*
X0016664Y0425049D01*
X0016546Y0425154D01*
X0016431Y0425263D01*
X0016318Y0425374D01*
X0016208Y0425488D01*
X0016101Y0425605D01*
X0015997Y0425724D01*
X0015896Y0425846D01*
X0015799Y0425971D01*
X0015704Y0426098D01*
X0015613Y0426227D01*
X0015524Y0426358D01*
X0015440Y0426492D01*
X0015358Y0426628D01*
X0015280Y0426765D01*
X0015206Y0426905D01*
X0015135Y0427047D01*
X0015067Y0427190D01*
X0015003Y0427335D01*
X0014943Y0427481D01*
X0014887Y0427629D01*
X0014834Y0427778D01*
X0014785Y0427929D01*
X0014740Y0428081D01*
X0014699Y0428234D01*
X0014661Y0428387D01*
X0014628Y0428542D01*
X0014598Y0428698D01*
X0014572Y0428854D01*
X0014551Y0429011D01*
X0014533Y0429168D01*
X0014519Y0429326D01*
X0014509Y0429484D01*
X0014503Y0429642D01*
X0014501Y0429800D01*
X0020501Y0750800D02*
X0020503Y0750958D01*
X0020509Y0751116D01*
X0020519Y0751274D01*
X0020533Y0751432D01*
X0020551Y0751589D01*
X0020572Y0751746D01*
X0020598Y0751902D01*
X0020628Y0752058D01*
X0020661Y0752213D01*
X0020699Y0752366D01*
X0020740Y0752519D01*
X0020785Y0752671D01*
X0020834Y0752822D01*
X0020887Y0752971D01*
X0020943Y0753119D01*
X0021003Y0753265D01*
X0021067Y0753410D01*
X0021135Y0753553D01*
X0021206Y0753695D01*
X0021280Y0753835D01*
X0021358Y0753972D01*
X0021440Y0754108D01*
X0021524Y0754242D01*
X0021613Y0754373D01*
X0021704Y0754502D01*
X0021799Y0754629D01*
X0021896Y0754754D01*
X0021997Y0754876D01*
X0022101Y0754995D01*
X0022208Y0755112D01*
X0022318Y0755226D01*
X0022431Y0755337D01*
X0022546Y0755446D01*
X0022664Y0755551D01*
X0022785Y0755653D01*
X0022908Y0755753D01*
X0023034Y0755849D01*
X0023162Y0755942D01*
X0023292Y0756032D01*
X0023425Y0756118D01*
X0023560Y0756202D01*
X0023696Y0756281D01*
X0023835Y0756358D01*
X0023976Y0756430D01*
X0024118Y0756500D01*
X0024262Y0756565D01*
X0024408Y0756627D01*
X0024555Y0756685D01*
X0024704Y0756740D01*
X0024854Y0756791D01*
X0025005Y0756838D01*
X0025157Y0756881D01*
X0025310Y0756920D01*
X0025465Y0756956D01*
X0025620Y0756987D01*
X0025776Y0757015D01*
X0025932Y0757039D01*
X0026089Y0757059D01*
X0026247Y0757075D01*
X0026404Y0757087D01*
X0026563Y0757095D01*
X0026721Y0757099D01*
X0026879Y0757099D01*
X0027037Y0757095D01*
X0027196Y0757087D01*
X0027353Y0757075D01*
X0027511Y0757059D01*
X0027668Y0757039D01*
X0027824Y0757015D01*
X0027980Y0756987D01*
X0028135Y0756956D01*
X0028290Y0756920D01*
X0028443Y0756881D01*
X0028595Y0756838D01*
X0028746Y0756791D01*
X0028896Y0756740D01*
X0029045Y0756685D01*
X0029192Y0756627D01*
X0029338Y0756565D01*
X0029482Y0756500D01*
X0029624Y0756430D01*
X0029765Y0756358D01*
X0029904Y0756281D01*
X0030040Y0756202D01*
X0030175Y0756118D01*
X0030308Y0756032D01*
X0030438Y0755942D01*
X0030566Y0755849D01*
X0030692Y0755753D01*
X0030815Y0755653D01*
X0030936Y0755551D01*
X0031054Y0755446D01*
X0031169Y0755337D01*
X0031282Y0755226D01*
X0031392Y0755112D01*
X0031499Y0754995D01*
X0031603Y0754876D01*
X0031704Y0754754D01*
X0031801Y0754629D01*
X0031896Y0754502D01*
X0031987Y0754373D01*
X0032076Y0754242D01*
X0032160Y0754108D01*
X0032242Y0753972D01*
X0032320Y0753835D01*
X0032394Y0753695D01*
X0032465Y0753553D01*
X0032533Y0753410D01*
X0032597Y0753265D01*
X0032657Y0753119D01*
X0032713Y0752971D01*
X0032766Y0752822D01*
X0032815Y0752671D01*
X0032860Y0752519D01*
X0032901Y0752366D01*
X0032939Y0752213D01*
X0032972Y0752058D01*
X0033002Y0751902D01*
X0033028Y0751746D01*
X0033049Y0751589D01*
X0033067Y0751432D01*
X0033081Y0751274D01*
X0033091Y0751116D01*
X0033097Y0750958D01*
X0033099Y0750800D01*
X0033097Y0750642D01*
X0033091Y0750484D01*
X0033081Y0750326D01*
X0033067Y0750168D01*
X0033049Y0750011D01*
X0033028Y0749854D01*
X0033002Y0749698D01*
X0032972Y0749542D01*
X0032939Y0749387D01*
X0032901Y0749234D01*
X0032860Y0749081D01*
X0032815Y0748929D01*
X0032766Y0748778D01*
X0032713Y0748629D01*
X0032657Y0748481D01*
X0032597Y0748335D01*
X0032533Y0748190D01*
X0032465Y0748047D01*
X0032394Y0747905D01*
X0032320Y0747765D01*
X0032242Y0747628D01*
X0032160Y0747492D01*
X0032076Y0747358D01*
X0031987Y0747227D01*
X0031896Y0747098D01*
X0031801Y0746971D01*
X0031704Y0746846D01*
X0031603Y0746724D01*
X0031499Y0746605D01*
X0031392Y0746488D01*
X0031282Y0746374D01*
X0031169Y0746263D01*
X0031054Y0746154D01*
X0030936Y0746049D01*
X0030815Y0745947D01*
X0030692Y0745847D01*
X0030566Y0745751D01*
X0030438Y0745658D01*
X0030308Y0745568D01*
X0030175Y0745482D01*
X0030040Y0745398D01*
X0029904Y0745319D01*
X0029765Y0745242D01*
X0029624Y0745170D01*
X0029482Y0745100D01*
X0029338Y0745035D01*
X0029192Y0744973D01*
X0029045Y0744915D01*
X0028896Y0744860D01*
X0028746Y0744809D01*
X0028595Y0744762D01*
X0028443Y0744719D01*
X0028290Y0744680D01*
X0028135Y0744644D01*
X0027980Y0744613D01*
X0027824Y0744585D01*
X0027668Y0744561D01*
X0027511Y0744541D01*
X0027353Y0744525D01*
X0027196Y0744513D01*
X0027037Y0744505D01*
X0026879Y0744501D01*
X0026721Y0744501D01*
X0026563Y0744505D01*
X0026404Y0744513D01*
X0026247Y0744525D01*
X0026089Y0744541D01*
X0025932Y0744561D01*
X0025776Y0744585D01*
X0025620Y0744613D01*
X0025465Y0744644D01*
X0025310Y0744680D01*
X0025157Y0744719D01*
X0025005Y0744762D01*
X0024854Y0744809D01*
X0024704Y0744860D01*
X0024555Y0744915D01*
X0024408Y0744973D01*
X0024262Y0745035D01*
X0024118Y0745100D01*
X0023976Y0745170D01*
X0023835Y0745242D01*
X0023696Y0745319D01*
X0023560Y0745398D01*
X0023425Y0745482D01*
X0023292Y0745568D01*
X0023162Y0745658D01*
X0023034Y0745751D01*
X0022908Y0745847D01*
X0022785Y0745947D01*
X0022664Y0746049D01*
X0022546Y0746154D01*
X0022431Y0746263D01*
X0022318Y0746374D01*
X0022208Y0746488D01*
X0022101Y0746605D01*
X0021997Y0746724D01*
X0021896Y0746846D01*
X0021799Y0746971D01*
X0021704Y0747098D01*
X0021613Y0747227D01*
X0021524Y0747358D01*
X0021440Y0747492D01*
X0021358Y0747628D01*
X0021280Y0747765D01*
X0021206Y0747905D01*
X0021135Y0748047D01*
X0021067Y0748190D01*
X0021003Y0748335D01*
X0020943Y0748481D01*
X0020887Y0748629D01*
X0020834Y0748778D01*
X0020785Y0748929D01*
X0020740Y0749081D01*
X0020699Y0749234D01*
X0020661Y0749387D01*
X0020628Y0749542D01*
X0020598Y0749698D01*
X0020572Y0749854D01*
X0020551Y0750011D01*
X0020533Y0750168D01*
X0020519Y0750326D01*
X0020509Y0750484D01*
X0020503Y0750642D01*
X0020501Y0750800D01*
X0451501Y0429800D02*
X0451503Y0429958D01*
X0451509Y0430116D01*
X0451519Y0430274D01*
X0451533Y0430432D01*
X0451551Y0430589D01*
X0451572Y0430746D01*
X0451598Y0430902D01*
X0451628Y0431058D01*
X0451661Y0431213D01*
X0451699Y0431366D01*
X0451740Y0431519D01*
X0451785Y0431671D01*
X0451834Y0431822D01*
X0451887Y0431971D01*
X0451943Y0432119D01*
X0452003Y0432265D01*
X0452067Y0432410D01*
X0452135Y0432553D01*
X0452206Y0432695D01*
X0452280Y0432835D01*
X0452358Y0432972D01*
X0452440Y0433108D01*
X0452524Y0433242D01*
X0452613Y0433373D01*
X0452704Y0433502D01*
X0452799Y0433629D01*
X0452896Y0433754D01*
X0452997Y0433876D01*
X0453101Y0433995D01*
X0453208Y0434112D01*
X0453318Y0434226D01*
X0453431Y0434337D01*
X0453546Y0434446D01*
X0453664Y0434551D01*
X0453785Y0434653D01*
X0453908Y0434753D01*
X0454034Y0434849D01*
X0454162Y0434942D01*
X0454292Y0435032D01*
X0454425Y0435118D01*
X0454560Y0435202D01*
X0454696Y0435281D01*
X0454835Y0435358D01*
X0454976Y0435430D01*
X0455118Y0435500D01*
X0455262Y0435565D01*
X0455408Y0435627D01*
X0455555Y0435685D01*
X0455704Y0435740D01*
X0455854Y0435791D01*
X0456005Y0435838D01*
X0456157Y0435881D01*
X0456310Y0435920D01*
X0456465Y0435956D01*
X0456620Y0435987D01*
X0456776Y0436015D01*
X0456932Y0436039D01*
X0457089Y0436059D01*
X0457247Y0436075D01*
X0457404Y0436087D01*
X0457563Y0436095D01*
X0457721Y0436099D01*
X0457879Y0436099D01*
X0458037Y0436095D01*
X0458196Y0436087D01*
X0458353Y0436075D01*
X0458511Y0436059D01*
X0458668Y0436039D01*
X0458824Y0436015D01*
X0458980Y0435987D01*
X0459135Y0435956D01*
X0459290Y0435920D01*
X0459443Y0435881D01*
X0459595Y0435838D01*
X0459746Y0435791D01*
X0459896Y0435740D01*
X0460045Y0435685D01*
X0460192Y0435627D01*
X0460338Y0435565D01*
X0460482Y0435500D01*
X0460624Y0435430D01*
X0460765Y0435358D01*
X0460904Y0435281D01*
X0461040Y0435202D01*
X0461175Y0435118D01*
X0461308Y0435032D01*
X0461438Y0434942D01*
X0461566Y0434849D01*
X0461692Y0434753D01*
X0461815Y0434653D01*
X0461936Y0434551D01*
X0462054Y0434446D01*
X0462169Y0434337D01*
X0462282Y0434226D01*
X0462392Y0434112D01*
X0462499Y0433995D01*
X0462603Y0433876D01*
X0462704Y0433754D01*
X0462801Y0433629D01*
X0462896Y0433502D01*
X0462987Y0433373D01*
X0463076Y0433242D01*
X0463160Y0433108D01*
X0463242Y0432972D01*
X0463320Y0432835D01*
X0463394Y0432695D01*
X0463465Y0432553D01*
X0463533Y0432410D01*
X0463597Y0432265D01*
X0463657Y0432119D01*
X0463713Y0431971D01*
X0463766Y0431822D01*
X0463815Y0431671D01*
X0463860Y0431519D01*
X0463901Y0431366D01*
X0463939Y0431213D01*
X0463972Y0431058D01*
X0464002Y0430902D01*
X0464028Y0430746D01*
X0464049Y0430589D01*
X0464067Y0430432D01*
X0464081Y0430274D01*
X0464091Y0430116D01*
X0464097Y0429958D01*
X0464099Y0429800D01*
X0464097Y0429642D01*
X0464091Y0429484D01*
X0464081Y0429326D01*
X0464067Y0429168D01*
X0464049Y0429011D01*
X0464028Y0428854D01*
X0464002Y0428698D01*
X0463972Y0428542D01*
X0463939Y0428387D01*
X0463901Y0428234D01*
X0463860Y0428081D01*
X0463815Y0427929D01*
X0463766Y0427778D01*
X0463713Y0427629D01*
X0463657Y0427481D01*
X0463597Y0427335D01*
X0463533Y0427190D01*
X0463465Y0427047D01*
X0463394Y0426905D01*
X0463320Y0426765D01*
X0463242Y0426628D01*
X0463160Y0426492D01*
X0463076Y0426358D01*
X0462987Y0426227D01*
X0462896Y0426098D01*
X0462801Y0425971D01*
X0462704Y0425846D01*
X0462603Y0425724D01*
X0462499Y0425605D01*
X0462392Y0425488D01*
X0462282Y0425374D01*
X0462169Y0425263D01*
X0462054Y0425154D01*
X0461936Y0425049D01*
X0461815Y0424947D01*
X0461692Y0424847D01*
X0461566Y0424751D01*
X0461438Y0424658D01*
X0461308Y0424568D01*
X0461175Y0424482D01*
X0461040Y0424398D01*
X0460904Y0424319D01*
X0460765Y0424242D01*
X0460624Y0424170D01*
X0460482Y0424100D01*
X0460338Y0424035D01*
X0460192Y0423973D01*
X0460045Y0423915D01*
X0459896Y0423860D01*
X0459746Y0423809D01*
X0459595Y0423762D01*
X0459443Y0423719D01*
X0459290Y0423680D01*
X0459135Y0423644D01*
X0458980Y0423613D01*
X0458824Y0423585D01*
X0458668Y0423561D01*
X0458511Y0423541D01*
X0458353Y0423525D01*
X0458196Y0423513D01*
X0458037Y0423505D01*
X0457879Y0423501D01*
X0457721Y0423501D01*
X0457563Y0423505D01*
X0457404Y0423513D01*
X0457247Y0423525D01*
X0457089Y0423541D01*
X0456932Y0423561D01*
X0456776Y0423585D01*
X0456620Y0423613D01*
X0456465Y0423644D01*
X0456310Y0423680D01*
X0456157Y0423719D01*
X0456005Y0423762D01*
X0455854Y0423809D01*
X0455704Y0423860D01*
X0455555Y0423915D01*
X0455408Y0423973D01*
X0455262Y0424035D01*
X0455118Y0424100D01*
X0454976Y0424170D01*
X0454835Y0424242D01*
X0454696Y0424319D01*
X0454560Y0424398D01*
X0454425Y0424482D01*
X0454292Y0424568D01*
X0454162Y0424658D01*
X0454034Y0424751D01*
X0453908Y0424847D01*
X0453785Y0424947D01*
X0453664Y0425049D01*
X0453546Y0425154D01*
X0453431Y0425263D01*
X0453318Y0425374D01*
X0453208Y0425488D01*
X0453101Y0425605D01*
X0452997Y0425724D01*
X0452896Y0425846D01*
X0452799Y0425971D01*
X0452704Y0426098D01*
X0452613Y0426227D01*
X0452524Y0426358D01*
X0452440Y0426492D01*
X0452358Y0426628D01*
X0452280Y0426765D01*
X0452206Y0426905D01*
X0452135Y0427047D01*
X0452067Y0427190D01*
X0452003Y0427335D01*
X0451943Y0427481D01*
X0451887Y0427629D01*
X0451834Y0427778D01*
X0451785Y0427929D01*
X0451740Y0428081D01*
X0451699Y0428234D01*
X0451661Y0428387D01*
X0451628Y0428542D01*
X0451598Y0428698D01*
X0451572Y0428854D01*
X0451551Y0429011D01*
X0451533Y0429168D01*
X0451519Y0429326D01*
X0451509Y0429484D01*
X0451503Y0429642D01*
X0451501Y0429800D01*
X0510325Y0382800D02*
X0510327Y0382983D01*
X0510334Y0383167D01*
X0510345Y0383350D01*
X0510361Y0383533D01*
X0510381Y0383715D01*
X0510406Y0383897D01*
X0510435Y0384078D01*
X0510469Y0384258D01*
X0510507Y0384438D01*
X0510549Y0384616D01*
X0510596Y0384794D01*
X0510647Y0384970D01*
X0510702Y0385145D01*
X0510762Y0385318D01*
X0510826Y0385490D01*
X0510894Y0385661D01*
X0510966Y0385829D01*
X0511043Y0385996D01*
X0511123Y0386161D01*
X0511208Y0386324D01*
X0511296Y0386484D01*
X0511388Y0386643D01*
X0511485Y0386799D01*
X0511585Y0386953D01*
X0511689Y0387104D01*
X0511796Y0387253D01*
X0511907Y0387399D01*
X0512022Y0387542D01*
X0512140Y0387682D01*
X0512261Y0387820D01*
X0512386Y0387954D01*
X0512514Y0388086D01*
X0512646Y0388214D01*
X0512780Y0388339D01*
X0512918Y0388460D01*
X0513058Y0388578D01*
X0513201Y0388693D01*
X0513347Y0388804D01*
X0513496Y0388911D01*
X0513647Y0389015D01*
X0513801Y0389115D01*
X0513957Y0389212D01*
X0514116Y0389304D01*
X0514276Y0389392D01*
X0514439Y0389477D01*
X0514604Y0389557D01*
X0514771Y0389634D01*
X0514939Y0389706D01*
X0515110Y0389774D01*
X0515282Y0389838D01*
X0515455Y0389898D01*
X0515630Y0389953D01*
X0515806Y0390004D01*
X0515984Y0390051D01*
X0516162Y0390093D01*
X0516342Y0390131D01*
X0516522Y0390165D01*
X0516703Y0390194D01*
X0516885Y0390219D01*
X0517067Y0390239D01*
X0517250Y0390255D01*
X0517433Y0390266D01*
X0517617Y0390273D01*
X0517800Y0390275D01*
X0517983Y0390273D01*
X0518167Y0390266D01*
X0518350Y0390255D01*
X0518533Y0390239D01*
X0518715Y0390219D01*
X0518897Y0390194D01*
X0519078Y0390165D01*
X0519258Y0390131D01*
X0519438Y0390093D01*
X0519616Y0390051D01*
X0519794Y0390004D01*
X0519970Y0389953D01*
X0520145Y0389898D01*
X0520318Y0389838D01*
X0520490Y0389774D01*
X0520661Y0389706D01*
X0520829Y0389634D01*
X0520996Y0389557D01*
X0521161Y0389477D01*
X0521324Y0389392D01*
X0521484Y0389304D01*
X0521643Y0389212D01*
X0521799Y0389115D01*
X0521953Y0389015D01*
X0522104Y0388911D01*
X0522253Y0388804D01*
X0522399Y0388693D01*
X0522542Y0388578D01*
X0522682Y0388460D01*
X0522820Y0388339D01*
X0522954Y0388214D01*
X0523086Y0388086D01*
X0523214Y0387954D01*
X0523339Y0387820D01*
X0523460Y0387682D01*
X0523578Y0387542D01*
X0523693Y0387399D01*
X0523804Y0387253D01*
X0523911Y0387104D01*
X0524015Y0386953D01*
X0524115Y0386799D01*
X0524212Y0386643D01*
X0524304Y0386484D01*
X0524392Y0386324D01*
X0524477Y0386161D01*
X0524557Y0385996D01*
X0524634Y0385829D01*
X0524706Y0385661D01*
X0524774Y0385490D01*
X0524838Y0385318D01*
X0524898Y0385145D01*
X0524953Y0384970D01*
X0525004Y0384794D01*
X0525051Y0384616D01*
X0525093Y0384438D01*
X0525131Y0384258D01*
X0525165Y0384078D01*
X0525194Y0383897D01*
X0525219Y0383715D01*
X0525239Y0383533D01*
X0525255Y0383350D01*
X0525266Y0383167D01*
X0525273Y0382983D01*
X0525275Y0382800D01*
X0525273Y0382617D01*
X0525266Y0382433D01*
X0525255Y0382250D01*
X0525239Y0382067D01*
X0525219Y0381885D01*
X0525194Y0381703D01*
X0525165Y0381522D01*
X0525131Y0381342D01*
X0525093Y0381162D01*
X0525051Y0380984D01*
X0525004Y0380806D01*
X0524953Y0380630D01*
X0524898Y0380455D01*
X0524838Y0380282D01*
X0524774Y0380110D01*
X0524706Y0379939D01*
X0524634Y0379771D01*
X0524557Y0379604D01*
X0524477Y0379439D01*
X0524392Y0379276D01*
X0524304Y0379116D01*
X0524212Y0378957D01*
X0524115Y0378801D01*
X0524015Y0378647D01*
X0523911Y0378496D01*
X0523804Y0378347D01*
X0523693Y0378201D01*
X0523578Y0378058D01*
X0523460Y0377918D01*
X0523339Y0377780D01*
X0523214Y0377646D01*
X0523086Y0377514D01*
X0522954Y0377386D01*
X0522820Y0377261D01*
X0522682Y0377140D01*
X0522542Y0377022D01*
X0522399Y0376907D01*
X0522253Y0376796D01*
X0522104Y0376689D01*
X0521953Y0376585D01*
X0521799Y0376485D01*
X0521643Y0376388D01*
X0521484Y0376296D01*
X0521324Y0376208D01*
X0521161Y0376123D01*
X0520996Y0376043D01*
X0520829Y0375966D01*
X0520661Y0375894D01*
X0520490Y0375826D01*
X0520318Y0375762D01*
X0520145Y0375702D01*
X0519970Y0375647D01*
X0519794Y0375596D01*
X0519616Y0375549D01*
X0519438Y0375507D01*
X0519258Y0375469D01*
X0519078Y0375435D01*
X0518897Y0375406D01*
X0518715Y0375381D01*
X0518533Y0375361D01*
X0518350Y0375345D01*
X0518167Y0375334D01*
X0517983Y0375327D01*
X0517800Y0375325D01*
X0517617Y0375327D01*
X0517433Y0375334D01*
X0517250Y0375345D01*
X0517067Y0375361D01*
X0516885Y0375381D01*
X0516703Y0375406D01*
X0516522Y0375435D01*
X0516342Y0375469D01*
X0516162Y0375507D01*
X0515984Y0375549D01*
X0515806Y0375596D01*
X0515630Y0375647D01*
X0515455Y0375702D01*
X0515282Y0375762D01*
X0515110Y0375826D01*
X0514939Y0375894D01*
X0514771Y0375966D01*
X0514604Y0376043D01*
X0514439Y0376123D01*
X0514276Y0376208D01*
X0514116Y0376296D01*
X0513957Y0376388D01*
X0513801Y0376485D01*
X0513647Y0376585D01*
X0513496Y0376689D01*
X0513347Y0376796D01*
X0513201Y0376907D01*
X0513058Y0377022D01*
X0512918Y0377140D01*
X0512780Y0377261D01*
X0512646Y0377386D01*
X0512514Y0377514D01*
X0512386Y0377646D01*
X0512261Y0377780D01*
X0512140Y0377918D01*
X0512022Y0378058D01*
X0511907Y0378201D01*
X0511796Y0378347D01*
X0511689Y0378496D01*
X0511585Y0378647D01*
X0511485Y0378801D01*
X0511388Y0378957D01*
X0511296Y0379116D01*
X0511208Y0379276D01*
X0511123Y0379439D01*
X0511043Y0379604D01*
X0510966Y0379771D01*
X0510894Y0379939D01*
X0510826Y0380110D01*
X0510762Y0380282D01*
X0510702Y0380455D01*
X0510647Y0380630D01*
X0510596Y0380806D01*
X0510549Y0380984D01*
X0510507Y0381162D01*
X0510469Y0381342D01*
X0510435Y0381522D01*
X0510406Y0381703D01*
X0510381Y0381885D01*
X0510361Y0382067D01*
X0510345Y0382250D01*
X0510334Y0382433D01*
X0510327Y0382617D01*
X0510325Y0382800D01*
X0512325Y0026800D02*
X0512327Y0026983D01*
X0512334Y0027167D01*
X0512345Y0027350D01*
X0512361Y0027533D01*
X0512381Y0027715D01*
X0512406Y0027897D01*
X0512435Y0028078D01*
X0512469Y0028258D01*
X0512507Y0028438D01*
X0512549Y0028616D01*
X0512596Y0028794D01*
X0512647Y0028970D01*
X0512702Y0029145D01*
X0512762Y0029318D01*
X0512826Y0029490D01*
X0512894Y0029661D01*
X0512966Y0029829D01*
X0513043Y0029996D01*
X0513123Y0030161D01*
X0513208Y0030324D01*
X0513296Y0030484D01*
X0513388Y0030643D01*
X0513485Y0030799D01*
X0513585Y0030953D01*
X0513689Y0031104D01*
X0513796Y0031253D01*
X0513907Y0031399D01*
X0514022Y0031542D01*
X0514140Y0031682D01*
X0514261Y0031820D01*
X0514386Y0031954D01*
X0514514Y0032086D01*
X0514646Y0032214D01*
X0514780Y0032339D01*
X0514918Y0032460D01*
X0515058Y0032578D01*
X0515201Y0032693D01*
X0515347Y0032804D01*
X0515496Y0032911D01*
X0515647Y0033015D01*
X0515801Y0033115D01*
X0515957Y0033212D01*
X0516116Y0033304D01*
X0516276Y0033392D01*
X0516439Y0033477D01*
X0516604Y0033557D01*
X0516771Y0033634D01*
X0516939Y0033706D01*
X0517110Y0033774D01*
X0517282Y0033838D01*
X0517455Y0033898D01*
X0517630Y0033953D01*
X0517806Y0034004D01*
X0517984Y0034051D01*
X0518162Y0034093D01*
X0518342Y0034131D01*
X0518522Y0034165D01*
X0518703Y0034194D01*
X0518885Y0034219D01*
X0519067Y0034239D01*
X0519250Y0034255D01*
X0519433Y0034266D01*
X0519617Y0034273D01*
X0519800Y0034275D01*
X0519983Y0034273D01*
X0520167Y0034266D01*
X0520350Y0034255D01*
X0520533Y0034239D01*
X0520715Y0034219D01*
X0520897Y0034194D01*
X0521078Y0034165D01*
X0521258Y0034131D01*
X0521438Y0034093D01*
X0521616Y0034051D01*
X0521794Y0034004D01*
X0521970Y0033953D01*
X0522145Y0033898D01*
X0522318Y0033838D01*
X0522490Y0033774D01*
X0522661Y0033706D01*
X0522829Y0033634D01*
X0522996Y0033557D01*
X0523161Y0033477D01*
X0523324Y0033392D01*
X0523484Y0033304D01*
X0523643Y0033212D01*
X0523799Y0033115D01*
X0523953Y0033015D01*
X0524104Y0032911D01*
X0524253Y0032804D01*
X0524399Y0032693D01*
X0524542Y0032578D01*
X0524682Y0032460D01*
X0524820Y0032339D01*
X0524954Y0032214D01*
X0525086Y0032086D01*
X0525214Y0031954D01*
X0525339Y0031820D01*
X0525460Y0031682D01*
X0525578Y0031542D01*
X0525693Y0031399D01*
X0525804Y0031253D01*
X0525911Y0031104D01*
X0526015Y0030953D01*
X0526115Y0030799D01*
X0526212Y0030643D01*
X0526304Y0030484D01*
X0526392Y0030324D01*
X0526477Y0030161D01*
X0526557Y0029996D01*
X0526634Y0029829D01*
X0526706Y0029661D01*
X0526774Y0029490D01*
X0526838Y0029318D01*
X0526898Y0029145D01*
X0526953Y0028970D01*
X0527004Y0028794D01*
X0527051Y0028616D01*
X0527093Y0028438D01*
X0527131Y0028258D01*
X0527165Y0028078D01*
X0527194Y0027897D01*
X0527219Y0027715D01*
X0527239Y0027533D01*
X0527255Y0027350D01*
X0527266Y0027167D01*
X0527273Y0026983D01*
X0527275Y0026800D01*
X0527273Y0026617D01*
X0527266Y0026433D01*
X0527255Y0026250D01*
X0527239Y0026067D01*
X0527219Y0025885D01*
X0527194Y0025703D01*
X0527165Y0025522D01*
X0527131Y0025342D01*
X0527093Y0025162D01*
X0527051Y0024984D01*
X0527004Y0024806D01*
X0526953Y0024630D01*
X0526898Y0024455D01*
X0526838Y0024282D01*
X0526774Y0024110D01*
X0526706Y0023939D01*
X0526634Y0023771D01*
X0526557Y0023604D01*
X0526477Y0023439D01*
X0526392Y0023276D01*
X0526304Y0023116D01*
X0526212Y0022957D01*
X0526115Y0022801D01*
X0526015Y0022647D01*
X0525911Y0022496D01*
X0525804Y0022347D01*
X0525693Y0022201D01*
X0525578Y0022058D01*
X0525460Y0021918D01*
X0525339Y0021780D01*
X0525214Y0021646D01*
X0525086Y0021514D01*
X0524954Y0021386D01*
X0524820Y0021261D01*
X0524682Y0021140D01*
X0524542Y0021022D01*
X0524399Y0020907D01*
X0524253Y0020796D01*
X0524104Y0020689D01*
X0523953Y0020585D01*
X0523799Y0020485D01*
X0523643Y0020388D01*
X0523484Y0020296D01*
X0523324Y0020208D01*
X0523161Y0020123D01*
X0522996Y0020043D01*
X0522829Y0019966D01*
X0522661Y0019894D01*
X0522490Y0019826D01*
X0522318Y0019762D01*
X0522145Y0019702D01*
X0521970Y0019647D01*
X0521794Y0019596D01*
X0521616Y0019549D01*
X0521438Y0019507D01*
X0521258Y0019469D01*
X0521078Y0019435D01*
X0520897Y0019406D01*
X0520715Y0019381D01*
X0520533Y0019361D01*
X0520350Y0019345D01*
X0520167Y0019334D01*
X0519983Y0019327D01*
X0519800Y0019325D01*
X0519617Y0019327D01*
X0519433Y0019334D01*
X0519250Y0019345D01*
X0519067Y0019361D01*
X0518885Y0019381D01*
X0518703Y0019406D01*
X0518522Y0019435D01*
X0518342Y0019469D01*
X0518162Y0019507D01*
X0517984Y0019549D01*
X0517806Y0019596D01*
X0517630Y0019647D01*
X0517455Y0019702D01*
X0517282Y0019762D01*
X0517110Y0019826D01*
X0516939Y0019894D01*
X0516771Y0019966D01*
X0516604Y0020043D01*
X0516439Y0020123D01*
X0516276Y0020208D01*
X0516116Y0020296D01*
X0515957Y0020388D01*
X0515801Y0020485D01*
X0515647Y0020585D01*
X0515496Y0020689D01*
X0515347Y0020796D01*
X0515201Y0020907D01*
X0515058Y0021022D01*
X0514918Y0021140D01*
X0514780Y0021261D01*
X0514646Y0021386D01*
X0514514Y0021514D01*
X0514386Y0021646D01*
X0514261Y0021780D01*
X0514140Y0021918D01*
X0514022Y0022058D01*
X0513907Y0022201D01*
X0513796Y0022347D01*
X0513689Y0022496D01*
X0513585Y0022647D01*
X0513485Y0022801D01*
X0513388Y0022957D01*
X0513296Y0023116D01*
X0513208Y0023276D01*
X0513123Y0023439D01*
X0513043Y0023604D01*
X0512966Y0023771D01*
X0512894Y0023939D01*
X0512826Y0024110D01*
X0512762Y0024282D01*
X0512702Y0024455D01*
X0512647Y0024630D01*
X0512596Y0024806D01*
X0512549Y0024984D01*
X0512507Y0025162D01*
X0512469Y0025342D01*
X0512435Y0025522D01*
X0512406Y0025703D01*
X0512381Y0025885D01*
X0512361Y0026067D01*
X0512345Y0026250D01*
X0512334Y0026433D01*
X0512327Y0026617D01*
X0512325Y0026800D01*
X0452501Y0750800D02*
X0452503Y0750958D01*
X0452509Y0751116D01*
X0452519Y0751274D01*
X0452533Y0751432D01*
X0452551Y0751589D01*
X0452572Y0751746D01*
X0452598Y0751902D01*
X0452628Y0752058D01*
X0452661Y0752213D01*
X0452699Y0752366D01*
X0452740Y0752519D01*
X0452785Y0752671D01*
X0452834Y0752822D01*
X0452887Y0752971D01*
X0452943Y0753119D01*
X0453003Y0753265D01*
X0453067Y0753410D01*
X0453135Y0753553D01*
X0453206Y0753695D01*
X0453280Y0753835D01*
X0453358Y0753972D01*
X0453440Y0754108D01*
X0453524Y0754242D01*
X0453613Y0754373D01*
X0453704Y0754502D01*
X0453799Y0754629D01*
X0453896Y0754754D01*
X0453997Y0754876D01*
X0454101Y0754995D01*
X0454208Y0755112D01*
X0454318Y0755226D01*
X0454431Y0755337D01*
X0454546Y0755446D01*
X0454664Y0755551D01*
X0454785Y0755653D01*
X0454908Y0755753D01*
X0455034Y0755849D01*
X0455162Y0755942D01*
X0455292Y0756032D01*
X0455425Y0756118D01*
X0455560Y0756202D01*
X0455696Y0756281D01*
X0455835Y0756358D01*
X0455976Y0756430D01*
X0456118Y0756500D01*
X0456262Y0756565D01*
X0456408Y0756627D01*
X0456555Y0756685D01*
X0456704Y0756740D01*
X0456854Y0756791D01*
X0457005Y0756838D01*
X0457157Y0756881D01*
X0457310Y0756920D01*
X0457465Y0756956D01*
X0457620Y0756987D01*
X0457776Y0757015D01*
X0457932Y0757039D01*
X0458089Y0757059D01*
X0458247Y0757075D01*
X0458404Y0757087D01*
X0458563Y0757095D01*
X0458721Y0757099D01*
X0458879Y0757099D01*
X0459037Y0757095D01*
X0459196Y0757087D01*
X0459353Y0757075D01*
X0459511Y0757059D01*
X0459668Y0757039D01*
X0459824Y0757015D01*
X0459980Y0756987D01*
X0460135Y0756956D01*
X0460290Y0756920D01*
X0460443Y0756881D01*
X0460595Y0756838D01*
X0460746Y0756791D01*
X0460896Y0756740D01*
X0461045Y0756685D01*
X0461192Y0756627D01*
X0461338Y0756565D01*
X0461482Y0756500D01*
X0461624Y0756430D01*
X0461765Y0756358D01*
X0461904Y0756281D01*
X0462040Y0756202D01*
X0462175Y0756118D01*
X0462308Y0756032D01*
X0462438Y0755942D01*
X0462566Y0755849D01*
X0462692Y0755753D01*
X0462815Y0755653D01*
X0462936Y0755551D01*
X0463054Y0755446D01*
X0463169Y0755337D01*
X0463282Y0755226D01*
X0463392Y0755112D01*
X0463499Y0754995D01*
X0463603Y0754876D01*
X0463704Y0754754D01*
X0463801Y0754629D01*
X0463896Y0754502D01*
X0463987Y0754373D01*
X0464076Y0754242D01*
X0464160Y0754108D01*
X0464242Y0753972D01*
X0464320Y0753835D01*
X0464394Y0753695D01*
X0464465Y0753553D01*
X0464533Y0753410D01*
X0464597Y0753265D01*
X0464657Y0753119D01*
X0464713Y0752971D01*
X0464766Y0752822D01*
X0464815Y0752671D01*
X0464860Y0752519D01*
X0464901Y0752366D01*
X0464939Y0752213D01*
X0464972Y0752058D01*
X0465002Y0751902D01*
X0465028Y0751746D01*
X0465049Y0751589D01*
X0465067Y0751432D01*
X0465081Y0751274D01*
X0465091Y0751116D01*
X0465097Y0750958D01*
X0465099Y0750800D01*
X0465097Y0750642D01*
X0465091Y0750484D01*
X0465081Y0750326D01*
X0465067Y0750168D01*
X0465049Y0750011D01*
X0465028Y0749854D01*
X0465002Y0749698D01*
X0464972Y0749542D01*
X0464939Y0749387D01*
X0464901Y0749234D01*
X0464860Y0749081D01*
X0464815Y0748929D01*
X0464766Y0748778D01*
X0464713Y0748629D01*
X0464657Y0748481D01*
X0464597Y0748335D01*
X0464533Y0748190D01*
X0464465Y0748047D01*
X0464394Y0747905D01*
X0464320Y0747765D01*
X0464242Y0747628D01*
X0464160Y0747492D01*
X0464076Y0747358D01*
X0463987Y0747227D01*
X0463896Y0747098D01*
X0463801Y0746971D01*
X0463704Y0746846D01*
X0463603Y0746724D01*
X0463499Y0746605D01*
X0463392Y0746488D01*
X0463282Y0746374D01*
X0463169Y0746263D01*
X0463054Y0746154D01*
X0462936Y0746049D01*
X0462815Y0745947D01*
X0462692Y0745847D01*
X0462566Y0745751D01*
X0462438Y0745658D01*
X0462308Y0745568D01*
X0462175Y0745482D01*
X0462040Y0745398D01*
X0461904Y0745319D01*
X0461765Y0745242D01*
X0461624Y0745170D01*
X0461482Y0745100D01*
X0461338Y0745035D01*
X0461192Y0744973D01*
X0461045Y0744915D01*
X0460896Y0744860D01*
X0460746Y0744809D01*
X0460595Y0744762D01*
X0460443Y0744719D01*
X0460290Y0744680D01*
X0460135Y0744644D01*
X0459980Y0744613D01*
X0459824Y0744585D01*
X0459668Y0744561D01*
X0459511Y0744541D01*
X0459353Y0744525D01*
X0459196Y0744513D01*
X0459037Y0744505D01*
X0458879Y0744501D01*
X0458721Y0744501D01*
X0458563Y0744505D01*
X0458404Y0744513D01*
X0458247Y0744525D01*
X0458089Y0744541D01*
X0457932Y0744561D01*
X0457776Y0744585D01*
X0457620Y0744613D01*
X0457465Y0744644D01*
X0457310Y0744680D01*
X0457157Y0744719D01*
X0457005Y0744762D01*
X0456854Y0744809D01*
X0456704Y0744860D01*
X0456555Y0744915D01*
X0456408Y0744973D01*
X0456262Y0745035D01*
X0456118Y0745100D01*
X0455976Y0745170D01*
X0455835Y0745242D01*
X0455696Y0745319D01*
X0455560Y0745398D01*
X0455425Y0745482D01*
X0455292Y0745568D01*
X0455162Y0745658D01*
X0455034Y0745751D01*
X0454908Y0745847D01*
X0454785Y0745947D01*
X0454664Y0746049D01*
X0454546Y0746154D01*
X0454431Y0746263D01*
X0454318Y0746374D01*
X0454208Y0746488D01*
X0454101Y0746605D01*
X0453997Y0746724D01*
X0453896Y0746846D01*
X0453799Y0746971D01*
X0453704Y0747098D01*
X0453613Y0747227D01*
X0453524Y0747358D01*
X0453440Y0747492D01*
X0453358Y0747628D01*
X0453280Y0747765D01*
X0453206Y0747905D01*
X0453135Y0748047D01*
X0453067Y0748190D01*
X0453003Y0748335D01*
X0452943Y0748481D01*
X0452887Y0748629D01*
X0452834Y0748778D01*
X0452785Y0748929D01*
X0452740Y0749081D01*
X0452699Y0749234D01*
X0452661Y0749387D01*
X0452628Y0749542D01*
X0452598Y0749698D01*
X0452572Y0749854D01*
X0452551Y0750011D01*
X0452533Y0750168D01*
X0452519Y0750326D01*
X0452509Y0750484D01*
X0452503Y0750642D01*
X0452501Y0750800D01*
D11*
X0280800Y0353800D03*
X0280800Y0253800D03*
X0280800Y0152800D03*
X0280800Y0052800D03*
X0160800Y0062800D03*
X0160800Y0142800D03*
X0160800Y0263800D03*
X0160800Y0343800D03*
D12*
X0521875Y0222800D02*
X0533725Y0222800D01*
X0534725Y0052800D02*
X0522875Y0052800D01*
D13*
X0435800Y0080800D03*
X0411800Y0080800D03*
X0389800Y0080800D03*
X0389800Y0110800D03*
X0411800Y0110800D03*
X0435800Y0110800D03*
X0432800Y0252800D03*
X0411800Y0252800D03*
X0391800Y0252800D03*
X0391800Y0282800D03*
X0411800Y0282800D03*
X0432800Y0282800D03*
D14*
X0367800Y0303800D03*
X0367800Y0253800D03*
X0365800Y0130800D03*
X0365800Y0080800D03*
X0390800Y0438800D03*
X0410800Y0438800D03*
X0435800Y0659800D03*
X0455800Y0659800D03*
X0057800Y0528800D03*
X0027800Y0528800D03*
D15*
X0027820Y0281391D02*
X0017780Y0281391D01*
X0017780Y0265800D02*
X0027820Y0265800D01*
X0027820Y0250209D02*
X0017780Y0250209D01*
X0046780Y0217391D02*
X0056820Y0217391D01*
X0056820Y0201800D02*
X0046780Y0201800D01*
X0046780Y0186209D02*
X0056820Y0186209D01*
X0452005Y0474780D02*
X0452005Y0484820D01*
X0467595Y0484820D02*
X0467595Y0474780D01*
X0461820Y0518209D02*
X0451780Y0518209D01*
X0451780Y0533800D02*
X0461820Y0533800D01*
X0461820Y0549391D02*
X0451780Y0549391D01*
X0457005Y0612780D02*
X0457005Y0622820D01*
X0472595Y0622820D02*
X0472595Y0612780D01*
D16*
X0395800Y0383300D02*
X0395800Y0377300D01*
X0405800Y0363300D02*
X0405800Y0357300D01*
X0395800Y0333300D02*
X0395800Y0327300D01*
X0371800Y0212300D02*
X0371800Y0206300D01*
X0381800Y0192300D02*
X0381800Y0186300D01*
X0371800Y0162300D02*
X0371800Y0156300D01*
D17*
X0486800Y0188800D03*
X0486800Y0252800D03*
X0486800Y0360800D03*
X0486800Y0080800D03*
D18*
X0491800Y0052800D03*
X0451800Y0052800D03*
X0452800Y0222800D03*
X0492800Y0222800D03*
D19*
X0086643Y0489800D02*
X0076643Y0489800D01*
X0066957Y0489800D02*
X0056957Y0489800D01*
X0052643Y0448800D02*
X0062643Y0448800D01*
X0042957Y0448800D02*
X0032957Y0448800D01*
D20*
X0305548Y0448383D03*
X0372359Y0583713D03*
D21*
X0372359Y0605367D03*
X0305548Y0479879D03*
X0153973Y0490706D03*
X0153973Y0448383D03*
X0069209Y0719540D03*
X0069209Y0746115D03*
D22*
X0390800Y0522800D03*
X0426800Y0696800D03*
D23*
X0426800Y0716800D03*
X0370800Y0522800D03*
M02*
